<svg width="26" height="26" viewBox="0 0 26 26" fill="none" xmlns="http://www.w3.org/2000/svg">
<path fill-rule="evenodd" clip-rule="evenodd" d="M19.8941 2.45325C20.118 2.19488 20.3885 2.08334 20.6344 2.08334C20.8803 2.08334 21.1507 2.19488 21.3747 2.45325C21.6025 2.71613 21.75 3.09969 21.75 3.52444C21.75 3.94918 21.6025 4.33274 21.3747 4.59562L12.0942 15.3039L9.99862 15.9083L10.5871 13.1921L19.8941 2.45325ZM20.6344 0.0833435C19.7581 0.0833435 18.9523 0.48618 18.3827 1.14339L8.90829 12.0754C8.7984 12.2022 8.72218 12.3546 8.68665 12.5186L7.68934 17.1216C7.6148 17.4656 7.72664 17.8235 7.98381 18.0639C8.24098 18.3043 8.6056 18.3917 8.94383 18.2942L12.9331 17.1434C13.1188 17.0898 13.285 16.9836 13.4116 16.8375L22.886 5.90548C23.4517 5.25277 23.75 4.39452 23.75 3.52444C23.75 2.65435 23.4517 1.7961 22.886 1.14339C22.3165 0.48618 21.5106 0.0833435 20.6344 0.0833435ZM5.17593 3.33334C4.35937 3.33334 3.60383 3.69929 3.06668 4.30358C2.53294 4.90404 2.25 5.69569 2.25 6.50001V21.6667C2.25 22.471 2.53294 23.2626 3.06668 23.8631C3.60383 24.4674 4.35937 24.8333 5.17593 24.8333H18.6574C19.474 24.8333 20.2295 24.4674 20.7666 23.8631C21.3004 23.2626 21.5833 22.471 21.5833 21.6667V14.0833C21.5833 13.5311 21.1356 13.0833 20.5833 13.0833C20.031 13.0833 19.5833 13.5311 19.5833 14.0833V21.6667C19.5833 22.0116 19.4605 22.3222 19.2718 22.5344C19.0866 22.7427 18.8624 22.8333 18.6574 22.8333H5.17593C4.97091 22.8333 4.74671 22.7427 4.5615 22.5344C4.37288 22.3222 4.25 22.0116 4.25 21.6667V6.50001C4.25 6.15505 4.37288 5.84451 4.5615 5.63231C4.74671 5.42394 4.97091 5.33334 5.17593 5.33334H11.9167C12.469 5.33334 12.9167 4.88563 12.9167 4.33334C12.9167 3.78106 12.469 3.33334 11.9167 3.33334H5.17593Z" fill="#279532"/>
</svg>
