<?xml version="1.0" encoding="UTF-8" standalone="no"?>
<svg
   width="700"
   height="700"
   viewBox="0 0 185.2082 185.20877"
   version="1.1"
   id="svg10"
   sodipodi:docname="atlas_quantum.svg"
   inkscape:version="1.1.1 (3bf5ae0d25, 2021-09-20)"
   xmlns:inkscape="http://www.inkscape.org/namespaces/inkscape"
   xmlns:sodipodi="http://sodipodi.sourceforge.net/DTD/sodipodi-0.dtd"
   xmlns="http://www.w3.org/2000/svg"
   xmlns:svg="http://www.w3.org/2000/svg">
  <defs
     id="defs14" />
  <sodipodi:namedview
     id="namedview12"
     pagecolor="#ffffff"
     bordercolor="#666666"
     borderopacity="1.0"
     inkscape:pageshadow="2"
     inkscape:pageopacity="0.0"
     inkscape:pagecheckerboard="0"
     showgrid="false"
     inkscape:zoom="0.78184751"
     inkscape:cx="383.70653"
     inkscape:cy="452.1342"
     inkscape:window-width="2560"
     inkscape:window-height="1017"
     inkscape:window-x="-8"
     inkscape:window-y="-8"
     inkscape:window-maximized="1"
     inkscape:current-layer="svg10" />
  <path
     style="fill:#373739;fill-opacity:1;stroke-width:0.15875;paint-order:markers stroke fill"
     d="M -2.8256363e-4,0 H 185.20848 V 185.20877 H -2.8256363e-4 Z"
     id="path2" />
  <g
     style="stroke-width:1.15504"
     id="g8"
     transform="translate(-2.8589293e-4)">
    <path
       style="fill:#42b48b;stroke-width:1.15504"
       d="m -173.207,133.497 c -3.035,-0.206 -7.108,-0.693 -7.287,-0.872 -0.16,-0.16 1.25,-6.528 2.173,-9.823 4.823,-17.21 13.34,-31.33 30.17,-50.018 1.567,-1.74 6.202,-6.735 10.3,-11.1 10.588,-11.277 13.954,-15.039 17.798,-19.89 9.671,-12.202 15.147,-24.133 16.187,-35.269 0.142,-1.524 0.222,-2.808 0.177,-2.853 -0.046,-0.045 -0.518,1.177 -1.05,2.716 -3.603,10.433 -9.02,18.534 -18.149,27.144 -4.5,4.245 -8.036,7.155 -15.218,12.525 l -14.42,10.784 c -18.503,13.84 -28.682,23.598 -37.405,35.859 -6.381,8.968 -12.09,20.173 -15.367,30.167 l -0.716,2.182 -3.352,-1.713 c -1.844,-0.942 -4.583,-2.487 -6.088,-3.434 -3.052,-1.92 -9,-6.314 -11.02,-8.144 l -1.318,-1.193 0.623,-1.554 c 1.376,-3.436 5.672,-11.851 8.08,-15.826 4.593,-7.583 9.299,-13.78 15.682,-20.654 10.278,-11.068 19.783,-18.925 43.209,-35.718 17.732,-12.712 24.817,-18.346 31.613,-25.138 10.7,-10.693 16.465,-20.704 19.065,-33.101 0.394,-1.875 0.76,-3.567 0.815,-3.76 0.24,-0.849 8.014,7.154 12.328,12.692 15.427,19.804 22,44.24 18.451,68.585 -2.682,18.396 -11.085,36.067 -23.232,48.852 -1.74,1.831 -2.186,2.175 -2.402,1.852 -0.412,-0.615 -1.818,-5.244 -2.124,-6.994 -0.4,-2.285 -0.336,-7.13 0.129,-9.839 0.497,-2.893 1.259,-5.615 3.436,-12.271 1.929,-5.895 2.621,-8.523 3.022,-11.463 0.155,-1.138 0.276,-2.15 0.268,-2.249 -0.008,-0.098 -0.478,1.13 -1.046,2.732 -1.377,3.877 -3.756,8.587 -7.819,15.478 -7.288,12.361 -9.427,18.007 -9.41,24.847 0.008,2.931 0.606,7.725 1.247,9.999 0.14,0.497 -0.103,0.755 -1.65,1.751 -2.64,1.7 -6.671,3.993 -9.67,5.498 -3.3,1.655 -8.976,3.998 -9.184,3.79 -0.086,-0.086 -0.157,-2.796 -0.157,-6.021 0,-6.77 0.348,-9.242 2.009,-14.25 2.83,-8.53 6.398,-15.234 16.36,-30.731 10.35,-16.102 13.9,-22.964 15.873,-30.674 0.417,-1.634 0.836,-3.626 0.93,-4.426 l 0.17,-1.455 -1.028,2.381 c -2.624,6.077 -5.154,10.393 -8.683,14.817 -1.36,1.704 -7.6,8.228 -15.056,15.742 -15.383,15.503 -19.24,20.031 -23.917,28.09 -5.02,8.647 -8.304,19.402 -8.923,29.22 l -0.168,2.672 -3.576,0.172 c -4.153,0.2 -6.41,0.175 -10.68,-0.114 z"
       transform="matrix(0.86577,0,0,0.86577,236.713,55.255)"
       id="path4" />
    <path
       style="fill:#ffffff;stroke-width:1.15504"
       d="m -235.87,102.374 c -12.585,-15.077 -19.945,-32.76 -21.45,-51.534 -0.396,-4.939 -0.186,-14.653 0.416,-19.187 2.184,-16.477 8.749,-31.786 19.344,-45.111 2.94,-3.697 9.69,-10.445 13.465,-13.459 13.658,-10.906 29.243,-17.365 47.096,-19.52 4.368,-0.527 15.503,-0.452 20.108,0.136 14.662,1.87 27.162,6.45 40.014,14.659 0.378,0.242 -0.36,5.938 -1.284,9.904 l -0.537,2.304 -1.766,-1.284 c -4.205,-3.057 -14.218,-8.867 -13.675,-7.935 0.121,0.208 0.84,1.271 1.599,2.363 2.31,3.324 5.884,9.45 7.838,13.429 l 1.851,3.771 -0.594,0.991 c -2.332,3.89 -6.41,9.042 -10.716,13.534 l -2.812,2.935 h -24.813 v 19.254 l -5.556,3.98 -5.556,3.98 V 8.37 h -33.5 l -0.965,4.035 c -1.3,5.434 -1.908,8.763 -2.552,13.957 -0.575,4.63 -1.08,10.812 -1.082,13.23 l -10e-4,1.456 12.369,-0.082 c 6.803,-0.044 13.614,0.015 15.136,0.132 l 2.767,0.213 -4.09,3.214 c -2.25,1.768 -5.161,4.117 -6.47,5.218 l -2.382,2.003 -6.243,0.008 c -3.434,0.004 -7.31,0.084 -8.615,0.176 l -2.372,0.169 0.334,2.676 c 0.806,6.468 1.195,10.543 1.058,11.09 -0.082,0.325 -0.622,1.225 -1.2,2 -1.34,1.794 -6.969,8.239 -7.198,8.239 -0.191,0 -0.25,-0.26 -1.157,-5.16 -0.93,-5.017 -2.52,-17.038 -2.52,-19.042 0,-0.077 -5.553,-0.14 -12.34,-0.14 h -12.34 l 0.176,1.943 c 0.223,2.453 1.506,8.723 2.406,11.751 1.976,6.65 6.158,16.08 7.578,17.087 0.63,0.448 1.258,0.491 6.945,0.477 3.438,-0.01 6.252,0.042 6.252,0.113 0,0.071 -0.715,1.263 -1.587,2.648 -3.255,5.167 -7.028,12.158 -9.092,16.847 -0.368,0.837 -0.706,1.514 -0.75,1.506 -0.045,-0.01 -0.736,-0.8 -1.536,-1.76 z m 14.288,-64.189 c 0,-5.256 1.247,-15.83 2.93,-24.836 0.426,-2.282 0.774,-4.335 0.774,-4.564 0,-0.37 -1.12,-0.415 -10.315,-0.415 h -10.315 l -0.958,1.9 c -3.855,7.656 -6.638,18.721 -7.326,29.122 l -0.1,1.522 h 25.31 z m 4,-40.66 3.34,-0.003 0.725,-2.05 c 2.209,-6.246 6.104,-13.846 10.428,-20.348 1.437,-2.16 2.573,-3.971 2.525,-4.025 -0.122,-0.133 -4.785,2.395 -7.656,4.152 -8.757,5.358 -16.893,12.716 -23.016,20.816 l -1,1.323 4.335,0.156 c 2.384,0.086 4.93,0.117 5.658,0.068 0.727,-0.048 2.825,-0.088 4.662,-0.09 z m 44.684,-16.568 v -16.565 l -0.68,0.17 c -1.707,0.429 -5.615,2.354 -7.974,3.928 -5.907,3.942 -10.691,9.15 -15.062,16.394 -1.612,2.672 -5.66,10.738 -6.043,12.043 l -0.175,0.595 h 29.934 z m 40.825,16.102 c -0.642,-1.76 -3.481,-7.709 -4.74,-9.931 -5.517,-9.746 -11.864,-16.46 -19.167,-20.28 -2.075,-1.084 -5.206,-2.399 -5.715,-2.399 -0.05,0 -0.09,7.442 -0.09,16.537 v 16.536 h 14.94 c 14.117,0 14.931,-0.025 14.772,-0.463 z"
       transform="matrix(0.86577,0,0,0.86577,236.713,55.255)"
       id="path6" />
  </g>
</svg>
