<?xml version="1.0" encoding="UTF-8" standalone="no"?>
<svg
   width="715"
   height="715"
   version="1.1"
   id="svg8"
   sodipodi:docname="icatu.svg"
   inkscape:version="1.1.1 (3bf5ae0d25, 2021-09-20)"
   xmlns:inkscape="http://www.inkscape.org/namespaces/inkscape"
   xmlns:sodipodi="http://sodipodi.sourceforge.net/DTD/sodipodi-0.dtd"
   xmlns="http://www.w3.org/2000/svg"
   xmlns:svg="http://www.w3.org/2000/svg">
  <defs
     id="defs12" />
  <sodipodi:namedview
     id="namedview10"
     pagecolor="#ffffff"
     bordercolor="#666666"
     borderopacity="1.0"
     inkscape:pageshadow="2"
     inkscape:pageopacity="0.0"
     inkscape:pagecheckerboard="0"
     showgrid="false"
     inkscape:zoom="0.43052076"
     inkscape:cx="-299.63712"
     inkscape:cy="672.44143"
     inkscape:window-width="2560"
     inkscape:window-height="1017"
     inkscape:window-x="-8"
     inkscape:window-y="-8"
     inkscape:window-maximized="1"
     inkscape:current-layer="svg8" />
  <path
     style="fill:#002855;fill-opacity:1;stroke-width:0.6;paint-order:markers stroke fill"
     d="M 0,-5e-6 H 715 V 715 H 0 Z"
     id="path2" />
  <g
     id="g831"
     transform="translate(-6.1562944,8.6719172)">
    <path
       class="st0"
       d="m 265.35693,445.77397 c 2.32814,-6.59931 4.5425,-12.96231 6.81812,-19.3078 13.60123,-37.79286 27.23747,-75.57697 40.77743,-113.39609 0.70895,-1.96929 1.57544,-2.57321 3.641,-2.5557 12.14833,0.10503 24.29667,0.0963 36.445,0.009 1.90802,-0.0175 2.80952,0.51639 3.4922,2.3544 12.69974,34.25689 25.47824,68.48753 38.23049,102.72692 3.44844,9.26879 6.85313,18.55508 10.3891,27.78887 0.70894,1.86426 0.5689,2.42441 -1.59294,2.41566 -14.5815,-0.07 -29.163,-0.0613 -43.73574,-0.009 -1.55793,0.009 -2.27563,-0.47263 -2.81828,-1.9868 -2.88829,-7.97343 -5.96913,-15.8681 -8.86618,-23.84154 -0.66518,-1.82925 -1.42664,-2.65197 -3.58848,-2.63447 -14.27517,0.12254 -28.55033,0.0963 -42.82549,0.0438 -1.74173,-0.009 -2.61697,0.38511 -3.23839,2.23187 -2.64323,7.84215 -5.58403,15.57927 -8.30603,23.39516 -0.68269,1.95179 -1.52292,2.88829 -3.8248,2.82703 -6.87939,-0.1838 -13.75877,-0.0613 -20.99701,-0.0613 z m 57.36323,-93.51064 c -1.48791,4.13988 -2.71324,7.55332 -3.93858,10.958 -3.53597,9.86396 -7.08069,19.73666 -10.59915,29.60937 -0.32384,0.91025 -1.37413,2.21436 0.84023,2.21436 h 29.72315 c -5.35647,-14.30142 -10.58165,-28.25275 -16.02565,-42.78173 z m 244.52455,4.5775 c 0,13.6625 -0.0263,27.33375 0.009,40.99624 0.009,4.57751 0.85773,9.03248 2.24936,13.39993 2.50319,7.8509 7.74588,12.5947 15.8681,14.06511 6.16169,1.1203 12.32338,1.05904 18.31878,-0.79647 7.46579,-2.30188 11.50065,-7.8334 13.42618,-15.14165 1.37413,-5.22519 1.82925,-10.5554 1.838,-15.92062 0.0263,-26.4235 0.07,-52.83824 -0.0438,-79.26173 -0.009,-2.8883 0.63017,-3.81605 3.62349,-3.66726 5.45275,0.27132 10.93175,0.14004 16.39325,0.0438 1.79424,-0.035 2.45067,0.40261 2.44192,2.34564 -0.07,28.55033 0.14879,57.09191 -0.15754,85.63349 -0.10503,10.14403 -2.02181,20.12176 -7.45705,29.04046 -6.10042,10.00399 -15.518,15.26419 -26.54603,17.55731 -17.74986,3.70227 -35.54349,3.67601 -53.19708,-1.01527 -17.58358,-4.67379 -29.49559,-18.54634 -31.77997,-36.56753 -0.85773,-6.75685 -1.12031,-13.4962 -1.11155,-20.27056 0.0263,-24.39294 0.0438,-48.79463 -0.0438,-73.18757 -0.009,-2.59946 0.43762,-3.63224 3.39594,-3.58848 13.25988,0.1838 26.52852,0.14004 39.78841,0.0263 2.32813,-0.0175 2.87954,0.66519 2.86203,2.89705 -0.0963,14.47647 -0.0438,28.95294 -0.0438,43.42941 0.0525,-0.0175 0.10503,-0.0175 0.16629,-0.0175 z M 223.1091,447.07808 c -13.50495,-0.1663 -27.04492,-1.28661 -39.9197,-6.58181 -17.99493,-7.39578 -28.57658,-20.962 -32.66395,-39.70088 -3.84231,-17.60108 -3.60599,-35.16715 2.11808,-52.37437 6.43301,-19.3253 20.45435,-30.49336 39.72714,-35.51724 18.4238,-4.80506 37.05766,-4.18364 55.71778,-1.56667 3.09835,0.43762 6.17044,1.05904 9.27754,1.45289 1.47041,0.1838 1.79424,0.84023 1.66296,2.46818 -0.3676,4.5425 -0.32384,9.11125 0.0175,13.65374 0.21881,2.95832 -1.51416,2.24062 -2.84453,2.03931 -7.51831,-1.14656 -15.08913,-1.62794 -22.67747,-1.66295 -19.21151,-0.0963 -30.91347,8.22725 -36.16491,26.76484 -4.65628,16.437 -4.38495,33.0228 1.75923,49.13597 5.40023,14.16138 16.90964,21.74971 32.0863,21.95102 8.62111,0.11378 17.18971,-0.50764 25.7058,-1.73298 1.98679,-0.28882 2.17934,0.45513 2.15309,2.06557 -0.0788,4.34994 -0.1838,8.70864 0.035,13.04983 0.12253,2.34564 -0.79647,3.20338 -2.9058,3.48345 -2.70449,0.3501 -5.38273,0.89275 -8.07846,1.26035 -8.21851,1.13781 -16.49828,1.60169 -25.00561,1.81175 z M 450.47019,310.57565 c 18.82642,0 37.64408,0.0438 56.47049,-0.0525 2.77451,-0.0175 3.52722,0.65643 3.13336,4.24492 -0.50764,4.64752 -0.52515,9.35631 0.0175,14.00384 0.45513,3.8598 -0.63017,4.3762 -3.48345,4.34119 -10.22281,-0.13129 -20.44561,0.0438 -30.65966,-0.11378 -2.60822,-0.0438 -3.14211,0.79646 -3.14211,3.24714 0.0788,35.31593 0.0175,70.62311 0.11378,105.93905 0.009,2.87953 -0.61267,3.71977 -3.60599,3.676 -12.64722,-0.1838 -25.30319,-0.15754 -37.95041,-0.0175 -2.60821,0.0263 -3.37842,-0.5339 -3.36967,-3.28215 0.10503,-35.31594 0.035,-70.62312 0.14879,-105.93905 0.009,-2.95831 -0.75271,-3.69351 -3.66725,-3.641 -11.30811,0.21006 -22.61621,-0.035 -33.92431,0.17505 0.28008,-6.52054 0.31509,-13.07609 0.10503,-19.60538 -0.0788,-2.41566 0.64768,-3.04583 3.03708,-3.02833 18.93145,0.0963 37.85413,0.0525 56.77682,0.0525 z M 85.994,378.03039 c 0,-21.46088 0.04376,-42.92177 -0.06127,-64.3739 -0.0088,-2.54695 0.708945,-3.15962 3.203379,-3.13336 12.953551,0.13129 25.915861,0.11378 38.878161,0.0175 2.20561,-0.0175 2.94081,0.45512 2.93206,2.81827 -0.07,43.21935 -0.07,86.4387 0,129.66681 0,2.35439 -0.72645,2.83577 -2.93206,2.81827 -12.95355,-0.10503 -25.91585,-0.11378 -38.878161,0.009 -2.485682,0.0263 -3.220884,-0.56891 -3.203379,-3.13336 0.105029,-21.57466 0.06127,-43.13183 0.06127,-64.68899 z"
       style="fill:#ffffff;fill-opacity:1;fill-rule:evenodd;stroke-width:0.87524"
       id="path4" />
    <path
       class="st1"
       d="m 450.25138,301.35062 c -14.0651,0 -25.61827,-11.57943 -25.64453,-25.69705 -0.0263,-14.24015 11.57067,-25.79332 25.8721,-25.78457 14.0651,0.009 25.58326,11.56192 25.61827,25.7058 0.035,14.27516 -11.4919,25.77582 -25.84584,25.77582 z"
       style="fill:#5eb948;fill-opacity:1;fill-rule:evenodd;stroke-width:0.87524"
       id="path6" />
  </g>
</svg>
