<?xml version="1.0" encoding="UTF-8" standalone="no"?>
<svg
   class="inter-logo icon icon--banco-color fill-undefined"
   style="fill:currentColor"
   width="290"
   height="290"
   version="1.1"
   id="svg14"
   sodipodi:docname="inter.svg"
   inkscape:version="1.1.1 (3bf5ae0d25, 2021-09-20)"
   xmlns:inkscape="http://www.inkscape.org/namespaces/inkscape"
   xmlns:sodipodi="http://sodipodi.sourceforge.net/DTD/sodipodi-0.dtd"
   xmlns="http://www.w3.org/2000/svg"
   xmlns:svg="http://www.w3.org/2000/svg">
  <defs
     id="defs18" />
  <sodipodi:namedview
     id="namedview16"
     pagecolor="#ffffff"
     bordercolor="#666666"
     borderopacity="1.0"
     inkscape:pageshadow="2"
     inkscape:pageopacity="0.0"
     inkscape:pagecheckerboard="0"
     showgrid="false"
     inkscape:zoom="1.5089746"
     inkscape:cx="5.3016133"
     inkscape:cy="156.06624"
     inkscape:window-width="2560"
     inkscape:window-height="1017"
     inkscape:window-x="-8"
     inkscape:window-y="-8"
     inkscape:window-maximized="1"
     inkscape:current-layer="svg14" />
  <path
     style="fill:#ff7a00;fill-opacity:1;stroke-width:0.6;paint-order:markers stroke fill"
     d="M 0,0 H 290 V 289.99999 H 0 Z"
     id="path2" />
  <g
     id="g840">
    <g
       style="fill:#ffffff"
       id="g10">
      <path
         d="m 337.772,327.867 v 78.038 c 0,13.57 5.24,19.684 21.781,19.684 6.928,0 13.741,-1.926 17.819,-3.379 v 31.45 c -6.934,2.328 -17.533,3.494 -26.205,3.494 -34.768,0 -51.25,-17.417 -51.25,-47.524 V 252.162 h 37.855 v 50.083 h 39.6 v 25.627 h -39.6 z"
         style="fill:#ffffff;fill-opacity:1;stroke-width:5.50299"
         transform="matrix(0.3783,0,0,0.3783,16.128,13.36)"
         id="path4" />
      <path
         d="m 390.183,375.303 c 0,-46.225 29.15,-77.714 75.798,-77.714 49.84,0 74.544,36.364 71.935,89.094 H 429.073 c 1.97,27.053 14.665,40.772 37.15,40.772 19.008,0 29.095,-9.168 33.442,-22.133 h 36.98 c -7.187,31.785 -32.358,51.832 -70.658,51.832 -47.293,0 -75.804,-31.19 -75.804,-78.01 v -3.847 z m 75.512,-47.42 c -20.746,0 -33.145,11.105 -36.622,33.184 l 70.823,-0.584 c -2.036,-20.598 -13.163,-32.6 -34.201,-32.6 z"
         style="clip-rule:evenodd;fill:#ffffff;fill-opacity:1;fill-rule:evenodd;stroke-width:5.50299"
         transform="matrix(0.3783,0,0,0.3783,16.128,13.36)"
         id="path6" />
      <path
         d="m 223.92,297.59 c -24.344,0 -39.368,14.384 -46.885,28.533 l -1.744,-23.878 h -36.1 v 150.248 h 37.85 V 368.05 c 0,-24.923 13.218,-40.178 33.194,-40.178 19.976,0 27.372,13.219 27.372,36.1 v 88.521 h 37.85 v -96.67 c 0.06,-33.542 -14.5,-58.234 -51.536,-58.234 z m 373,28.533 c 9.608,-18.81 29.231,-28.534 43.968,-28.534 2.62,0 6.752,0.347 9.025,0.87 v 29.413 a 114.286,114.286 0 0 0 -11.006,-0.583 c -26.904,0 -41.988,16.19 -41.988,43.677 v 81.527 h -37.86 V 302.245 h 36.688 l 1.167,23.877 z M 50.086,302.245 v 25.594 h 25.61 v 124.654 h 37.867 V 302.245 Z"
         style="fill:#ffffff;fill-opacity:1;stroke-width:5.50299"
         transform="matrix(0.3783,0,0,0.3783,16.128,13.36)"
         id="path8" />
    </g>
    <path
       style="fill:#ffffff;fill-opacity:1;stroke:none;stroke-width:14.4389px"
       d="m 109.444,116.152 c -2.033,0 -3.841,-1.582 -3.841,-3.616 v -0.226 c 0,-2.033 1.582,-3.841 3.841,-3.841 2.26,0 3.842,1.808 3.842,3.841 0,2.26 -1.582,3.842 -3.842,3.842 z m 0,-8.587 c -2.937,0 -4.971,2.26 -4.971,4.745 0,2.486 2.034,4.746 4.971,4.746 2.938,0 4.972,-2.26 4.972,-4.746 0,-2.485 -2.034,-4.745 -4.972,-4.745 z m -13.559,7.231 0.678,0.678 c -0.904,0.904 -2.034,1.582 -3.841,1.582 -2.712,0 -4.972,-2.034 -4.972,-4.746 0,-2.711 2.034,-4.745 4.972,-4.745 1.807,0 2.711,0.678 3.841,1.356 l -0.678,0.678 c -0.904,-0.452 -1.808,-0.904 -3.163,-0.904 -2.26,0 -3.842,1.582 -3.842,3.841 0,2.26 1.582,3.842 3.842,3.842 1.355,-0.226 2.26,-0.678 3.163,-1.582 z m -18.079,-7.005 h 1.13 v 9.265 h -0.904 l -6.327,-7.457 v 7.457 h -1.13 v -9.265 h 1.13 l 6.101,7.457 z m -23.05,5.875 2.26,-4.745 2.26,4.745 z m 1.808,-5.875 -4.52,9.265 h 1.13 l 1.13,-2.486 h 5.198 l 1.13,2.486 h 1.13 l -4.52,-9.265 z m -16.045,8.361 h -3.164 v -3.39 h 3.164 c 1.582,0 2.486,0.678 2.486,1.582 0,1.13 -0.904,1.808 -2.486,1.808 z m -3.164,-7.457 h 2.938 c 1.356,0 2.26,0.678 2.26,1.582 0,1.13 -0.904,1.582 -2.26,1.582 h -2.938 z m 4.52,3.615 c 0.904,-0.451 1.582,-0.903 1.582,-2.26 0,-1.355 -1.356,-2.26 -3.164,-2.26 h -4.068 v 9.266 h 4.294 c 2.034,0 3.616,-0.904 3.616,-2.486 0,-1.356 -0.904,-2.034 -2.26,-2.26 z"
       id="path12" />
  </g>
</svg>
