<?xml version="1.0" encoding="UTF-8" standalone="no"?>
<svg
   width="670"
   height="670"
   viewBox="0 0 177.27072 177.27122"
   version="1.1"
   id="svg6"
   sodipodi:docname="neteller.svg"
   inkscape:version="1.1.1 (3bf5ae0d25, 2021-09-20)"
   xmlns:inkscape="http://www.inkscape.org/namespaces/inkscape"
   xmlns:sodipodi="http://sodipodi.sourceforge.net/DTD/sodipodi-0.dtd"
   xmlns="http://www.w3.org/2000/svg"
   xmlns:svg="http://www.w3.org/2000/svg">
  <defs
     id="defs10" />
  <sodipodi:namedview
     id="namedview8"
     pagecolor="#ffffff"
     bordercolor="#666666"
     borderopacity="1.0"
     inkscape:pageshadow="2"
     inkscape:pageopacity="0.0"
     inkscape:pagecheckerboard="0"
     showgrid="false"
     inkscape:zoom="0.63721514"
     inkscape:cx="801.92696"
     inkscape:cy="400.96348"
     inkscape:window-width="2560"
     inkscape:window-height="1017"
     inkscape:window-x="-8"
     inkscape:window-y="-8"
     inkscape:window-maximized="1"
     inkscape:current-layer="svg6" />
  <path
     style="fill:#82b93a;fill-opacity:1;stroke-width:0.15875;paint-order:markers stroke fill"
     d="M -2.513817e-4,0 H 177.27097 V 177.27122 H -2.513817e-4 Z"
     id="path2" />
  <path
     style="fill:#ffffff;stroke-width:0.999998"
     d="m 10.337749,105.598 c 0,-0.22 1.065,-6.184001 2.368,-13.255001 1.302,-7.07 2.367,-12.9 2.367,-12.955 0,-0.055 2.067,-0.099 4.593,-0.097 l 4.594,0.002 2.921,8.075 c 2.004,5.539 2.963,7.963 3.052,7.717 0.071,-0.197 0.76,-3.832 1.53,-8.077 l 1.4,-7.718 h 26.21 l 26.21,-10e-4 -0.125,0.805 c -0.07,0.442 -0.302,1.762 -0.519,2.932 l -0.393,2.127 -4.193,0.051 -4.194,0.051 -0.314,1.61 c -0.173,0.886 -0.365,1.93 -0.428,2.32 l -0.115,0.71 h 7.96 l -0.01,0.427 c -0.006,0.234 -0.199,1.406 -0.429,2.604 l -0.418,2.179 -4.02,0.05 c -3.983,0.051 -4.021,0.056 -4.119,0.474 -0.247,1.06 -0.664,3.495 -0.664,3.882 v 0.428 l 6.673,-0.05 6.672,-0.049 1.899,-10.275 1.898,-10.276 h 8.815 l -0.098,0.426 c -0.14,0.613 -3.508,18.817 -3.508,18.962 0,0.067 1.347,0.121 2.993,0.121 h 2.994001 l 1.79,-9.707 1.788,-9.708 4.409,-0.05 4.408,-0.051 -0.097,0.43 c -0.132,0.587 -3.511,18.86 -3.511,18.986 0,0.055 1.388,0.1 3.084,0.1 h 3.084 l 1.79,-9.754 1.788,-9.755 h 8.386 c 4.612,0 8.387,0.064 8.39,0.142 0.001,0.078 -0.228,1.44 -0.51,3.027 l -0.513,2.885 -4.169,0.05 -4.168,0.052 -0.4,2.178 -0.398,2.178 4.038,0.051 4.038,0.051 -0.1,0.423 c -0.14,0.585 -0.853,4.533 -0.853,4.72 0,0.085 -1.821,0.153 -4.048,0.153 h -4.048 l -0.315,1.753 -0.424,2.37 -0.11,0.618 6.687,-0.05 6.688,-0.05 1.549,-8.429 a 5193.14,5193.14 0 0 0 1.883,-10.294 l 0.335,-1.866 6.935,0.085 c 6.351,0.078 7.061,0.119 8.433,0.492 2.119,0.577 3.366,1.195 4.442,2.2 2.158,2.02 2.647,5.769 1.167,8.952 -0.943,2.03 -2.861,3.501 -5.298,4.064 -0.526,0.121 -0.957,0.29 -0.957,0.376 0,0.086 0.853,2.429 1.894,5.206001 1.042,2.777 1.895,5.122 1.895,5.21 0,0.088 -1.92,0.16 -4.268,0.16 -3.89,0 -4.28,-0.03 -4.397,-0.331 -0.071,-0.183 -0.96,-3.102 -1.973,-6.488001 -1.015,-3.386 -1.854,-6.113 -1.866,-6.061 -0.012,0.052 -0.552,2.95 -1.2,6.44 l -1.179,6.345001 -41.048,0.048 -41.050001,0.048 v -0.41 c 0,-0.226 0.81,-4.78 1.8,-10.118001 0.99,-5.34 1.8,-9.8 1.8,-9.914 0,-0.137 -0.807,-0.205 -2.42,-0.205 h -2.421 l -1.9,10.275 -1.9,10.276001 -15.615,0.048 -15.616,0.049 -2.82,-8.240001 c -1.552,-4.533 -2.873,-8.24 -2.936,-8.24 -0.064,0 -0.746,3.6 -1.516,8.002 -0.77,4.401001 -1.44,8.109001 -1.488,8.240001 -0.067,0.179 -1.11,0.236 -4.33,0.236 -4.184,0 -4.241,-0.005 -4.241,-0.398 z m 42.338,-12.956001 1.331,-7.197 -6.616,-0.05 c -3.639,-0.028 -6.64,-0.027 -6.668,0.002 -0.028,0.028 -0.187,0.86 -0.352,1.849 a 78.13,78.13 0 0 1 -0.396,2.223 l -0.096,0.427 h 4.184 c 3.892,0 4.177,0.023 4.092,0.331 -0.05,0.182 -0.279,1.376 -0.507,2.652 l -0.415,2.32 h -8.406 l -0.336,1.972 c -0.185,1.085 -0.383,2.151 -0.44,2.37 l -0.104,0.398 6.698,-0.05 6.699,-0.05 z m 100.574001,-1.247 c 1.646,-0.722 2.368,-1.774 2.368,-3.453 0,-1.99 -1.25,-3.005 -3.985,-3.233 -0.857,-0.071 -1.594,-0.094 -1.637,-0.051 -0.068,0.068 -1.386,6.8 -1.386,7.081 0,0.204 4.08,-0.1 4.64,-0.344 z m 15.611,14.415001 c -2.564,-0.464 -3.906,-3.47 -2.568,-5.752 1.473,-2.514001 5.204,-2.524001 6.672,-0.018 0.438,0.746 0.49,1.014 0.427,2.149 -0.058,1.03 -0.18,1.45 -0.592,2.045 -0.864,1.246 -2.387,1.856 -3.939,1.576 z m 2.655,-1.29 c 2.208,-1.763 1.545,-5.003001 -1.172,-5.735001 -1.396,-0.376 -3.169,0.528 -3.74,1.907001 -0.347,0.839 -0.158,2.466 0.373,3.212 1,1.405 3.18,1.7 4.54,0.615 z m -3.425,-2.218 a 84.3,84.3 0 0 0 -0.047,-2.036 c -0.014,-0.163 0.384,-0.254 1.281,-0.293001 1.017,-0.044 1.38,0.014 1.658,0.266001 0.524,0.474 0.46,1.324 -0.128,1.71 -0.29,0.189 -0.404,0.367 -0.284,0.442 0.265,0.163 1.147,1.362 1.147,1.558 0,0.084 -0.128,0.153 -0.284,0.153 -0.156,0 -0.284,-0.071 -0.284,-0.158 0,-0.087 -0.328,-0.513 -0.729,-0.947 -0.502,-0.545 -0.884,-0.79 -1.23,-0.79 -0.478,0 -0.503,0.05 -0.503,0.948 0,0.715 -0.07,0.947 -0.285,0.947 -0.23,0 -0.289,-0.339 -0.312,-1.8 z m 2.314,-0.67 c 0.48,-0.256 0.468,-0.872 -0.02,-1.133 -0.214,-0.114 -0.704,-0.181 -1.09,-0.15 -0.57,0.048 -0.714,0.142 -0.765,0.5 -0.105,0.74 0.097,0.98 0.827,0.98 0.375,0 0.846,-0.088 1.048,-0.196 z"
     id="path4" />
</svg>
