<svg width="900" height="900" viewBox="0 0 238.125 238.125" xmlns="http://www.w3.org/2000/svg"><path style="fill:#3f4658;fill-opacity:1;stroke-width:1" d="M4.86 106.27V-12.794h238.126v238.125H4.86Zm93.53 42.332c8.792-1.863 15.588-5.619 22.188-12.262l3.665-3.69 1.07 1.295c1.973 2.391 5.896 6.043 8.416 7.835 4.378 3.115 10.063 5.57 15.9 6.866 2.4.533 3.437.606 8.425.597 4.888-.01 6.07-.095 8.394-.605 11.383-2.498 20.76-8.796 27.17-18.248 8.52-12.567 9.65-29.505 2.87-43.038-6.05-12.074-16.771-20.278-30.32-23.202-3.968-.856-12.014-.859-16.244-.006-5.905 1.191-11.952 3.767-16.74 7.13-1.513 1.062-3.915 3.183-6.033 5.327-2.975 3.01-3.573 3.503-3.865 3.187-.19-.206-1.042-1.148-1.891-2.094-6.24-6.948-14.301-11.576-23.547-13.518-4.163-.875-11.625-.887-15.922-.027-17 3.403-30.168 16.25-33.95 33.124-.8 3.571-1.185 9.993-.803 13.414 1.197 10.723 5.438 19.364 13.16 26.816 5.902 5.696 13.45 9.643 21.196 11.085 4.077.76 4.212.769 9.453.667 3.559-.07 5.432-.234 7.409-.653zm-12.848-17.343c-4.803-.87-9.152-3.048-12.62-6.32-4.645-4.385-7.32-9.708-8.027-15.973-.833-7.388 1.68-14.603 7.008-20.124 6.997-7.249 17.61-9.616 27.109-6.045 6.95 2.613 12.85 8.73 15.262 15.825 1.476 4.34 1.003 12.15-1.043 17.217-1.943 4.809-6.07 9.658-10.405 12.227-5.138 3.043-11.561 4.23-17.284 3.193zm68.49.125c-8.952-1.313-17.013-8.15-20.485-17.372-.568-1.509-.628-2.087-.628-6.006 0-5.831.555-8.641 2.486-12.589 4.716-9.641 15.022-15.316 25.5-14.04 7.208.877 13.411 4.572 17.584 10.472 3.39 4.795 4.98 10.405 4.613 16.272-.212 3.383-.982 6.216-2.553 9.393-2.356 4.763-5.435 8.087-9.96 10.752-4.834 2.848-10.772 3.966-16.557 3.118z" transform="translate(-4.86 12.793)"/><path style="fill:#fff;stroke-width:1" d="M85.294 149.232c-9.71-1.21-18.19-5.194-24.96-11.729-4.276-4.125-6.992-7.876-9.314-12.86-3.194-6.858-4.414-13.489-3.857-20.967.472-6.346 1.541-10.456 4.125-15.85C57.185 75.513 68.382 66.86 81.926 64.15c4.297-.86 11.76-.848 15.922.027 9.246 1.942 17.307 6.57 23.547 13.518.85.946 1.7 1.888 1.89 2.094.293.316.89-.177 3.866-3.187 2.118-2.144 4.52-4.265 6.032-5.327 4.789-3.363 10.836-5.939 16.741-7.13 4.23-.853 12.276-.85 16.244.006 13.549 2.924 24.27 11.128 30.32 23.201 6.78 13.534 5.65 30.472-2.87 43.039-6.41 9.452-15.787 15.75-27.17 18.248-2.324.51-3.506.595-8.394.605-4.988.01-6.025-.064-8.425-.597-5.837-1.296-11.522-3.75-15.9-6.866-2.52-1.792-6.443-5.444-8.416-7.835l-1.07-1.295-3.665 3.69c-4.137 4.164-7.603 6.698-12.081 8.832-6.013 2.865-10.667 3.95-17.515 4.083-2.619.05-5.179.04-5.688-.023zm8.117-17.843c2.858-.387 6.817-1.785 9.415-3.323 4.335-2.569 8.462-7.418 10.405-12.227 2.046-5.066 2.52-12.878 1.043-17.217-2.413-7.096-8.312-13.212-15.262-15.825-9.498-3.57-20.112-1.204-27.109 6.045-5.328 5.521-7.84 12.736-7.008 20.124.707 6.265 3.382 11.588 8.028 15.973 5.444 5.137 12.883 7.48 20.488 6.45zm69.138-.132c4.477-.849 8.41-2.76 12.033-5.843 2.438-2.076 4.316-4.563 5.967-7.9 1.571-3.177 2.341-6.01 2.553-9.393.73-11.654-6.515-22.276-17.568-25.76-11.832-3.729-24.632 1.818-30.13 13.056-1.93 3.948-2.485 6.758-2.485 12.59 0 3.918.06 4.496.628 6.005 3.472 9.222 11.533 16.059 20.485 17.371 2.496.367 6.212.311 8.517-.126z" transform="translate(-4.86 12.793)"/></svg>