<svg width="220" height="220" xmlns="http://www.w3.org/2000/svg"><g style="stroke-width:.376239"><path style="opacity:1;fill:#21c25e;fill-opacity:1;fill-rule:nonzero;stroke:none;stroke-width:.196468;stroke-linecap:butt;stroke-linejoin:bevel;stroke-miterlimit:4;stroke-dasharray:none;stroke-opacity:1;paint-order:stroke fill markers" d="M0 0h82.773v82.773H0z" transform="scale(2.65788)"/><path class="logo" d="M65.363 22.136h-5.59v5.59h5.59zM33.977 24.86H25.95v7.023h7.452c4.73 0 7.453 2.293 7.453 6.592 0 4.3-2.723 6.736-7.453 6.736H25.95V32.025h-8.312v30.813h8.312V52.233h7.882c9.603 0 15.192-5.16 15.192-14.045 0-8.313-5.446-13.329-15.048-13.329zm36.976-8.312H54.184v16.768h16.769ZM68.23 30.449H57.05v-11.18h11.18z" style="fill:#fff;stroke-width:.376239" transform="scale(2.65788)"/></g></svg>