<?xml version="1.0" encoding="UTF-8" standalone="no"?>
<!-- Created with Inkscape (http://www.inkscape.org/) -->

<svg
   width="109.53751mm"
   height="110.17924mm"
   viewBox="0 0 109.53751 110.17925"
   version="1.1"
   id="svg5"
   xml:space="preserve"
   inkscape:version="1.2.2 (b0a8486541, 2022-12-01)"
   sodipodi:docname="atalho.svg"
   xmlns:inkscape="http://www.inkscape.org/namespaces/inkscape"
   xmlns:sodipodi="http://sodipodi.sourceforge.net/DTD/sodipodi-0.dtd"
   xmlns="http://www.w3.org/2000/svg"
   xmlns:svg="http://www.w3.org/2000/svg"><sodipodi:namedview
     id="namedview7"
     pagecolor="#ffffff"
     bordercolor="#000000"
     borderopacity="0.25"
     inkscape:showpageshadow="2"
     inkscape:pageopacity="0.0"
     inkscape:pagecheckerboard="0"
     inkscape:deskcolor="#d1d1d1"
     inkscape:document-units="mm"
     showgrid="false"
     inkscape:zoom="1.0645786"
     inkscape:cx="23.0138"
     inkscape:cy="184.1104"
     inkscape:window-width="1920"
     inkscape:window-height="1011"
     inkscape:window-x="0"
     inkscape:window-y="32"
     inkscape:window-maximized="1"
     inkscape:current-layer="text471" /><defs
     id="defs2" /><g
     inkscape:label="Layer 1"
     inkscape:groupmode="layer"
     id="layer1"
     transform="translate(-42.004162,-88.794651)"><g
       aria-label="{...}"
       transform="matrix(0.92516857,0,0,1.0808841,1.7146286,-0.56772526)"
       id="text471"
       style="font-size:36.9186px;fill:#241c1c;stroke-width:3.07655"><path
         d="m 82.363776,140.8716 v 2.59584 h -1.117653 q -4.488638,0 -6.020904,-1.33397 -1.514239,-1.33397 -1.514239,-5.31787 v -4.30837 q 0,-2.72202 -0.97344,-3.76757 -0.973439,-1.04555 -3.533225,-1.04555 h -1.099626 v -2.57781 h 1.099626 q 2.577812,0 3.533225,-1.02752 0.97344,-1.04554 0.97344,-3.73152 v -4.32639 q 0,-3.9839 1.514239,-5.29984 1.532266,-1.33398 6.020904,-1.33398 h 1.117653 v 2.57782 h -1.225813 q -2.541759,0 -3.316905,0.79317 -0.775146,0.79317 -0.775146,3.33493 v 4.47061 q 0,2.83019 -0.829227,4.11008 -0.811199,1.27989 -2.794132,1.73056 2.000959,0.48672 2.812159,1.76661 0.8112,1.2799 0.8112,4.09206 v 4.47061 q 0,2.54176 0.775146,3.33493 0.775146,0.79317 3.316905,0.79317 z"
         id="path523"
         style="fill:#ffffff" /><path
         d="m 90.92644,132.86777 h 3.803625 v 4.57877 H 90.92644 Z"
         id="path525"
         style="fill:#ffffff" /><path
         d="m 102.6618,132.86777 h 3.80363 v 4.57877 h -3.80363 z"
         id="path527"
         style="fill:#ffffff" /><path
         d="m 114.39716,132.86777 h 3.80363 v 4.57877 h -3.80363 z"
         id="path529"
         style="fill:#ffffff" /><path
         d="m 126.7995,140.8716 h 1.26186 q 2.52374,0 3.28086,-0.77514 0.77514,-0.77515 0.77514,-3.35296 v -4.47061 q 0,-2.81216 0.8112,-4.09206 0.8112,-1.27989 2.81216,-1.76661 -2.00096,-0.45067 -2.81216,-1.73056 -0.8112,-1.27989 -0.8112,-4.11008 v -4.47061 q 0,-2.55978 -0.77514,-3.33493 -0.75712,-0.79317 -3.28086,-0.79317 h -1.26186 v -2.57782 h 1.13568 q 4.48864,0 5.98485,1.33398 1.51424,1.31594 1.51424,5.29984 v 4.32639 q 0,2.68598 0.97344,3.73152 0.97344,1.02752 3.53322,1.02752 h 1.11766 v 2.57781 h -1.11766 q -2.55978,0 -3.53322,1.04555 -0.97344,1.04555 -0.97344,3.76757 v 4.30837 q 0,3.9839 -1.51424,5.31787 -1.49621,1.33397 -5.98485,1.33397 h -1.13568 z"
         id="path531"
         style="fill:#ffffff" /></g><g
       id="g248"
       transform="translate(-24.372273,-2.2374306)"
       style="fill:#ffffff"><path
         id="path408"
         style="fill:#ffffff;stroke-width:0.264583"
         d="m 101.66853,185.39468 10.25553,-9.39271 20.93433,-0.14267 20.93434,-0.14268 2.38125,-0.73481 c 3.80191,-1.1732 5.74506,-2.34567 8.614,-5.19754 2.17291,-2.15999 2.70134,-2.86711 3.75671,-5.02709 2.3179,-4.74389 2.18138,-2.93072 2.18138,-28.97187 v -23.01875 l -0.61168,-2.11314 c -1.6987,-5.8684 -5.30277,-10.27573 -10.47896,-12.814481 -4.39462,-2.155419 -1.52923,-2.005702 -38.38645,-2.005702 H 88.440644 l -1.98438,0.619928 c -3.51317,1.097532 -5.97477,2.564583 -8.49281,5.061525 -2.55903,2.53758 -4.06158,4.87857 -5.18409,8.07687 l -0.74289,2.11667 -0.0745,23.25875 c -0.0723,22.59048 -0.0591,23.32029 0.46035,25.4 1.87009,7.48736 7.75988,13.23002 15.22453,14.84423 1.16417,0.25174 2.2655,0.49915 2.4474,0.54979 0.25661,0.0714 0.33073,2.18895 0.33073,9.44899 0,5.1463 0.0835,9.4404 0.18553,9.54245 0.10205,0.10204 0.32435,0.15165 0.494,0.11024 0.16965,-0.0414 4.92345,-4.30201 10.563976,-9.468 z m -12.468595,15.57329 c -2.20824,-0.66491 -3.78713,-2.54392 -4.18655,-4.98234 -0.13523,-0.8256 -0.24657,-4.5481 -0.24741,-8.27222 l -10e-4,-6.77114 -1.12448,-0.33287 c -1.89219,-0.56012 -5.74642,-2.6823 -7.72033,-4.25089 -4.29913,-3.41635 -7.40828,-8.207 -8.92788,-13.75625 l -0.61585,-2.24896 v -23.8125 c 0,-23.79685 3.9e-4,-23.81395 0.59031,-26.02589 2.16577,-8.1207 7.56429,-14.382611 15.1524,-17.575732 4.74932,-1.998544 2.85103,-1.906749 39.422915,-1.906354 l 32.67604,3.44e-4 2.62495,0.723493 c 9.38584,2.586949 16.21901,9.477429 18.56693,18.722679 0.47742,1.87989 0.50396,3.25908 0.50396,26.19375 v 24.20937 l -0.60503,2.0889 c -2.6059,8.99696 -9.21291,15.60554 -18.1883,18.1926 -2.09739,0.60455 -2.21887,0.60857 -22.54173,0.7465 l -20.43298,0.13867 -9.67378,8.86354 c -5.667045,5.1924 -10.229905,9.16491 -11.016505,9.59115 -1.38115,0.74842 -2.79785,0.90295 -4.25515,0.46415 z" /></g></g></svg>
