<svg width="24" height="24" viewBox="0 0 24 24" fill="none" xmlns="http://www.w3.org/2000/svg">
<path fill-rule="evenodd" clip-rule="evenodd" d="M20.6236 5.19477C21.1257 4.69266 21.1257 3.87859 20.6236 3.37648C20.1215 2.87438 19.3074 2.87438 18.8053 3.37648L12.0001 10.1817L5.19496 3.37648C4.69285 2.87438 3.87878 2.87438 3.37668 3.37648C2.87457 3.87859 2.87457 4.69266 3.37668 5.19477L10.1819 11.9999L3.37668 18.8051C2.87457 19.3072 2.87457 20.1213 3.37668 20.6234C3.87878 21.1255 4.69285 21.1255 5.19496 20.6234L12.0001 13.8182L18.8053 20.6234C19.3074 21.1255 20.1215 21.1255 20.6236 20.6234C21.1257 20.1213 21.1257 19.3072 20.6236 18.8051L13.8184 11.9999L20.6236 5.19477Z" fill="#FB2F2F"/>
</svg>
