<?xml version="1.0" standalone="no"?>
<!DOCTYPE svg PUBLIC "-//W3C//DTD SVG 20010904//EN"
 "http://www.w3.org/TR/2001/REC-SVG-20010904/DTD/svg10.dtd">
<svg version="1.0" xmlns="http://www.w3.org/2000/svg"
 width="984.000000pt" height="909.000000pt" viewBox="0 0 984.000000 909.000000"
 preserveAspectRatio="xMidYMid meet">
<metadata>
Created by potrace 1.16, written by Peter Selinger 2001-2019
</metadata>
<g transform="translate(0.000000,909.000000) scale(0.100000,-0.100000)"
fill="#2d5db9" stroke="none">
<path d="M5091 8969 c-19 -6 -53 -23 -75 -39 -60 -42 -2479 -2468 -2506 -2513
-27 -46 -37 -136 -20 -197 16 -58 89 -133 145 -149 27 -7 194 -11 498 -11
l457 0 0 -350 0 -350 200 0 200 0 0 550 0 550 -432 0 -433 0 1018 1018 1018
1017 1008 -1015 1008 -1015 -434 -3 -433 -2 0 -995 0 -995 200 0 200 0 0 795
0 795 473 0 c445 0 474 2 512 20 76 36 119 90 133 169 11 63 -4 135 -38 178
-12 15 -256 264 -543 553 -287 289 -842 847 -1232 1240 -460 463 -724 722
-748 734 -47 22 -130 29 -176 15z"/>
<path d="M2530 5294 c-522 -62 -975 -248 -1370 -560 -112 -89 -329 -307 -412
-414 -304 -393 -483 -823 -543 -1305 -20 -157 -19 -475 0 -635 58 -471 242
-910 543 -1300 85 -109 313 -337 422 -422 392 -303 828 -485 1300 -543 163
-20 478 -20 640 0 778 97 1466 534 1890 1204 199 315 339 718 379 1093 14 125
14 451 0 576 -110 1017 -830 1894 -1804 2196 -278 86 -424 108 -745 111 -146
2 -281 1 -300 -1z m458 -409 c42 -3 116 -12 164 -21 802 -136 1459 -699 1717
-1470 83 -248 112 -427 112 -694 0 -267 -29 -446 -112 -695 -275 -820 -988
-1391 -1862 -1490 -91 -10 -373 -7 -472 5 -148 18 -282 49 -439 101 -785 261
-1354 941 -1477 1764 -26 178 -26 452 0 630 141 945 869 1689 1811 1850 173
30 331 35 558 20z"/>
<path d="M2630 4040 l0 -160 -82 0 c-106 0 -193 -21 -293 -70 -134 -65 -249
-179 -316 -312 -93 -185 -93 -451 0 -636 67 -133 182 -247 316 -312 130 -64
172 -70 490 -70 371 0 419 -8 506 -87 67 -61 84 -103 84 -213 0 -78 -4 -102
-22 -136 -24 -44 -85 -104 -131 -128 -59 -31 -157 -36 -664 -36 l-508 0 0
-200 0 -200 310 0 310 0 0 -140 0 -140 200 0 200 0 0 140 0 140 63 0 c228 0
467 153 582 372 102 193 102 463 0 656 -91 174 -254 305 -441 352 -68 18 -111
20 -358 20 -155 0 -310 5 -346 11 -100 16 -178 71 -227 162 -25 46 -25 208 0
254 49 91 127 146 227 162 39 7 260 11 553 11 l487 0 0 200 0 200 -270 0 -270
0 0 160 0 160 -200 0 -200 0 0 -160z"/>
<path d="M950 2700 l0 -200 290 0 290 0 0 200 0 200 -290 0 -290 0 0 -200z"/>
<path d="M4050 2700 l0 -200 290 0 290 0 0 200 0 200 -290 0 -290 0 0 -200z"/>
<path d="M7525 4774 c-11 -3 -31 -7 -45 -10 -14 -3 -132 -112 -292 -272 l-268
-266 147 -148 148 -148 177 177 178 178 733 -733 732 -732 -313 0 -312 0 0
-1270 0 -1270 200 0 200 0 0 1070 0 1070 338 0 c215 0 351 4 377 11 56 16 129
91 145 149 19 69 7 152 -29 208 -44 69 -1927 1945 -1973 1966 -39 17 -111 28
-143 20z"/>
<path d="M6310 3875 l0 -205 200 0 200 0 0 205 0 205 -200 0 -200 0 0 -205z"/>
<path d="M6310 3080 l0 -200 200 0 200 0 0 200 0 200 -200 0 -200 0 0 -200z"/>
<path d="M6310 2285 l0 -205 200 0 200 0 0 205 0 205 -200 0 -200 0 0 -205z"/>
<path d="M6310 1495 l0 -205 200 0 200 0 0 205 0 205 -200 0 -200 0 0 -205z"/>
<path d="M6310 700 l0 -200 200 0 200 0 0 200 0 200 -200 0 -200 0 0 -200z"/>
</g>
</svg>
