<svg xml:space="preserve" width="230.941" height="229.652" xmlns="http://www.w3.org/2000/svg"><defs><clipPath clipPathUnits="userSpaceOnUse" id="a"><path d="M0 0h595.276v841.89H0Z"/></clipPath><clipPath clipPathUnits="userSpaceOnUse" id="b"><path d="M0 0h595.276v841.89H0Z"/></clipPath></defs><g clip-path="url(#a)" transform="matrix(48.9992 0 0 -48.9992 -7450.479 36495.336)"><path style="fill:#f9f9f9;stroke-width:.0122451;paint-order:markers stroke fill" transform="scale(1 -1)" d="M152.053-744.815h4.713v4.687h-4.713z"/><g clip-path="url(#b)" style="stroke-width:17.9236" transform="translate(148.38 734.11) scale(.01787)"><g style="stroke-width:17.9236"><path d="M0 0c-2.212 0-5.331-1.028-8.79-4.059-.456-.399-.87-.792-1.247-1.177 7.644-.11 8.956-4.76 9.238-7.051.23-1.894-.041-9.654-.251-14.659 1.869-1.719 3.225-2.949 3.225-2.949.203-.184.47-.275.736-.275.498 0 .982.323.982.966v25.778c0 2.127-1.318 3.027-2.655 3.305A6.058 6.058 0 0 1 0 0" style="fill:#cdc4c1;fill-opacity:1;fill-rule:nonzero;stroke:none;stroke-width:17.9236" transform="translate(330.857 539.576) scale(1.10413)"/></g><g style="stroke-width:17.9236"><path d="M0 0c-.265 0-.535-.091-.736-.277 0 0-1.357-1.229-3.225-2.948.21-5.003.481-12.763.249-14.654-.28-2.295-1.589-6.947-9.238-7.053.377-.387.791-.78 1.249-1.179 3.462-3.031 6.58-4.059 8.794-4.059a6 6 0 0 1 1.233.121c1.338.28 2.657 1.179 2.657 3.305V-.966C.983-.324.498 0 0 0" style="fill:#cdc4c1;fill-opacity:1;fill-rule:nonzero;stroke:none;stroke-width:17.9236" transform="translate(334.07 482.796) scale(1.10413)"/></g><g style="stroke-width:17.9236"><path d="M0 0c-.496 0-.982-.324-.982-.966v-25.778c0-2.126 1.32-3.025 2.658-3.305a5.996 5.996 0 0 1 1.234-.121c2.212 0 5.328 1.028 8.789 4.059.458.399.873.792 1.25 1.179-7.645.108-8.955 4.759-9.238 7.053-.232 1.892.04 9.651.249 14.655C2.092-1.506.735-.277.735-.277.534-.091.265 0 0 0" style="fill:#cdc4c1;fill-opacity:1;fill-rule:nonzero;stroke:none;stroke-width:17.9236" transform="translate(337.997 482.796) scale(1.10413)"/></g><g style="stroke-width:17.9236"><path d="M0 0h-25.78c-2.129 0-3.029-1.32-3.305-2.655-.458-2.189.291-5.863 3.936-10.029.4-.454.792-.87 1.178-1.246.111 7.642 4.763 8.953 7.052 9.234.518.064 1.474.091 2.692.091 3.238 0 8.33-.185 11.967-.336A757.437 757.437 0 0 1 .69-1.718C1.219-1.135.981 0 0 0" style="fill:#cdc4c1;fill-opacity:1;fill-rule:nonzero;stroke:none;stroke-width:17.9236" transform="translate(323.237 493.652) scale(1.10413)"/></g><g style="stroke-width:17.9236"><path d="M0 0c-.386-.375-.78-.79-1.18-1.246-3.645-4.168-4.393-7.838-3.936-10.027.277-1.337 1.178-2.656 3.306-2.656h25.781c.98 0 1.217 1.137.688 1.715 0 0-1.23 1.357-2.951 3.224-3.632-.151-8.722-.335-11.959-.335-1.222 0-2.178.027-2.698.091C4.763-8.953.108-7.644 0 0" style="fill:#cdc4c1;fill-opacity:1;fill-rule:nonzero;stroke:none;stroke-width:17.9236" transform="translate(296.771 510.79) scale(1.10413)"/></g><g style="stroke-width:17.9236"><path d="M0 0h-25.777c-.982 0-1.22-1.135-.692-1.718 0 0 1.228-1.355 2.947-3.223 3.638.151 8.732.336 11.967.336 1.219 0 2.175-.027 2.692-.091 2.292-.281 6.943-1.593 7.051-9.237.388.377.78.793 1.18 1.249 3.644 4.166 4.393 7.84 3.935 10.029C3.029-1.32 2.125 0 0 0" style="fill:#cdc4c1;fill-opacity:1;fill-rule:nonzero;stroke:none;stroke-width:17.9236" transform="translate(377.297 493.652) scale(1.10413)"/></g><g style="stroke-width:17.9236"><path d="M0 0c-.695 0-1.345-.255-1.896-.615-1.866-1.227-3.939-4.35-4.306-9.878a21.815 21.815 0 0 1-.048-1.719C-3.666-9.698-1.364-8.893.536-8.893c2.138 0 3.772-1.017 4.734-1.768 1.502-1.175 6.797-6.852 10.189-10.54 2.536.104 4.364.194 4.364.194.785.036 1.424 1.009.729 1.701L2.321-1.076C1.543-.296.746 0 0 0" style="fill:#cdc4c1;fill-opacity:1;fill-rule:nonzero;stroke:none;stroke-width:17.9236" transform="translate(303.672 524.274) scale(1.10413)"/></g><g style="stroke-width:17.9236"><path d="M0 0c-1.902 0-4.203-.806-6.787-3.318.11-7.644 4.763-8.954 7.051-9.235.519-.065 1.476-.089 2.697-.089 3.238 0 8.328.183 11.96.333C11.529-8.621 6.234-2.942 4.734-1.767 3.771-1.016 2.136 0 0 0" style="fill:#bdb1aa;fill-opacity:1;fill-rule:nonzero;stroke:none;stroke-width:17.9236" transform="translate(304.265 514.454) scale(1.10413)"/></g><g style="stroke-width:17.9236"><path d="M0 0c-.46 0-.941-.015-1.446-.049-5.526-.371-8.651-2.439-9.873-4.309-.751-1.142-1.049-2.712.459-4.216L7.364-26.802a.947.947 0 0 1 .671-.297c.528 0 1.009.475 1.03 1.023 0 0 .091 1.83.196 4.365-3.686 3.392-9.365 8.687-10.538 10.189C-2.693-9.701-5.062-5.486.274-.001L0 0" style="fill:#cdc4c1;fill-opacity:1;fill-rule:nonzero;stroke:none;stroke-width:17.9236" transform="translate(319.472 533.796) scale(1.10413)"/></g><g style="stroke-width:17.9236"><path d="M0 0c-5.336-5.483-2.967-9.698-1.551-11.519 1.174-1.504 6.853-6.799 10.538-10.191.21 5.005.481 12.765.25 14.66C8.956-4.759 7.643-.109 0 0" style="fill:#bdb1aa;fill-opacity:1;fill-rule:nonzero;stroke:none;stroke-width:17.9236" transform="translate(319.775 533.794) scale(1.10413)"/></g><g style="stroke-width:17.9236"><path d="M0 0c-.526 0-1.007-.476-1.031-1.027 0 0-.09-1.827-.196-4.363 3.686-3.39 9.363-8.685 10.535-10.19 1.427-1.819 3.788-6.033-1.547-11.517.089-.002.178-.002.268-.002.462 0 .945.017 1.452.051 5.527.367 8.649 2.434 9.877 4.305.744 1.144 1.044 2.714-.459 4.217L.669-.297A.941.941 0 0 1 0 0" style="fill:#cdc4c1;fill-opacity:1;fill-rule:nonzero;stroke:none;stroke-width:17.9236" transform="translate(343.725 485.188) scale(1.10413)"/></g><g style="stroke-width:17.9236"><path d="M0 0c-.21-5.004-.481-12.765-.25-14.656.285-2.294 1.597-6.945 9.239-7.05 5.333 5.481 2.973 9.697 1.548 11.515C9.365-8.685 3.686-3.39 0 0" style="fill:#bdb1aa;fill-opacity:1;fill-rule:nonzero;stroke:none;stroke-width:17.9236" transform="translate(342.37 479.237) scale(1.10413)"/></g><g style="stroke-width:17.9236"><path d="M0 0c-2.535-.107-4.363-.195-4.363-.195-.784-.037-1.42-1.008-.728-1.701l18.227-18.229c.783-.78 1.58-1.075 2.327-1.075.692 0 1.34.255 1.889.614 1.874 1.227 3.942 4.35 4.306 9.876.041.607.058 1.179.051 1.718-2.583-2.511-4.883-3.315-6.785-3.315-2.137 0-3.77 1.016-4.73 1.768C8.689-9.364 3.392-3.686 0 0" style="fill:#cdc4c1;fill-opacity:1;fill-rule:nonzero;stroke:none;stroke-width:17.9236" transform="translate(351.326 488.196) scale(1.10413)"/></g><g style="stroke-width:17.9236"><path d="M0 0c-3.238 0-8.329-.185-11.967-.337C-8.575-4.023-3.28-9.701-1.774-10.875c.961-.753 2.594-1.768 4.731-1.768 1.901 0 4.203.805 6.785 3.316C9.634-1.684 4.983-.372 2.691-.09 2.174-.026 1.218 0 0 0" style="fill:#bdb1aa;fill-opacity:1;fill-rule:nonzero;stroke:none;stroke-width:17.9236" transform="translate(364.539 488.567) scale(1.10413)"/></g><g style="stroke-width:17.9236"><path d="M0 0c-3.392-3.686-8.688-9.364-10.19-10.539-.961-.752-2.595-1.768-4.731-1.768-1.903 0-4.205.806-6.788 3.317-.007-.539.008-1.113.048-1.72.367-5.526 2.442-8.649 4.306-9.874.552-.361 1.2-.616 1.894-.616.747 0 1.543.295 2.324 1.075L5.092-1.898c.695.695.058 1.666-.728 1.703 0 0-1.828.088-4.364.195" style="fill:#cdc4c1;fill-opacity:1;fill-rule:nonzero;stroke:none;stroke-width:17.9236" transform="translate(320.741 488.196) scale(1.10413)"/></g><g style="stroke-width:17.9236"><path d="M0 0c-1.219 0-2.174-.026-2.692-.09-2.288-.282-6.942-1.593-7.051-9.234 2.583-2.514 4.885-3.319 6.787-3.319 2.136 0 3.771 1.015 4.733 1.768C3.279-9.701 8.573-4.023 11.965-.337 8.33-.185 3.239 0 0 0" style="fill:#bdb1aa;fill-opacity:1;fill-rule:nonzero;stroke:none;stroke-width:17.9236" transform="translate(307.53 488.567) scale(1.10413)"/></g><g style="stroke-width:17.9236"><path d="M0 0a.931.931 0 0 1-.668-.298L-18.9-18.524c-1.502-1.504-1.209-3.073-.458-4.216 1.222-1.872 4.348-3.939 9.873-4.307.508-.033.991-.05 1.452-.05l.267.003c-5.333 5.482-2.966 9.697-1.549 11.516 1.174 1.505 6.85 6.8 10.538 10.19a580.642 580.642 0 0 1-.196 4.363C1.006-.475.525 0 0 0" style="fill:#cdc4c1;fill-opacity:1;fill-rule:nonzero;stroke:none;stroke-width:17.9236" transform="translate(328.348 485.186) scale(1.10413)"/></g><g style="stroke-width:17.9236"><path d="M0 0c-3.686-3.39-9.364-8.685-10.538-10.189-1.416-1.818-3.782-6.035 1.548-11.517 7.649.105 8.96 4.757 9.24 7.05C.482-12.763.209-5.004 0 0" style="fill:#bdb1aa;fill-opacity:1;fill-rule:nonzero;stroke:none;stroke-width:17.9236" transform="translate(329.698 479.236) scale(1.10413)"/></g><g style="fill:#000;stroke-width:17.9236"><path d="M0 0c-4.806 0-9.185 1.869-12.557 5.24-3.371 3.37-5.168 7.823-5.168 12.555 0 4.738 1.797 9.188 5.168 12.558 3.372 3.374 7.82 5.238 12.557 5.238 4.592 0 8.683-1.721 12.629-5.238l-4.805-4.877C5.455 27.699 3.015 28.702 0 28.702c-6.173 0-10.762-4.661-10.762-10.907 0-6.674 4.448-10.978 10.762-10.978 3.087 0 5.601 1.006 7.895 3.161l4.734-4.738C8.683 1.724 4.664 0 0 0" style="fill:#000;fill-opacity:1;fill-rule:nonzero;stroke:none;stroke-width:17.9236" transform="translate(274.993 397.33) scale(1.10413)"/></g><g style="fill:#000;stroke-width:17.9236"><path d="M0 0c-.928 5.669-4.52 8.825-9.756 8.825-4.882 0-9.256-3.37-10.474-8.825zm-9.756-20.954c-4.808 0-9.183 1.865-12.558 5.237-3.371 3.376-5.166 7.825-5.166 12.558 0 9.831 7.753 17.797 18.084 17.797C.65 14.638 7.391 7.461 7.391-4.376c0-.576-.068-1.078-.068-1.652h-27.196c.861-4.951 4.663-8.109 10.117-8.109 3.086 0 5.597 1.004 7.892 3.158l4.738-4.738c-3.947-3.513-7.966-5.237-12.63-5.237" style="fill:#000;fill-opacity:1;fill-rule:nonzero;stroke:none;stroke-width:17.9236" transform="translate(342.115 420.515) scale(1.10413)"/></g><g style="fill:#000;stroke-width:17.9236"><path d="M0 0c0 8.971 6.026 14.639 15.212 14.639h.999V7.751h-.856c-5.528 0-8.542-2.658-8.542-7.679v-19.589H0Z" style="fill:#000;fill-opacity:1;fill-rule:nonzero;stroke:none;stroke-width:17.9236" transform="translate(398.74 419.96) scale(1.10413)"/></g><g style="fill:#000;stroke-width:17.9236"><path d="M0 0h6.816v-19.59c0-5.023 3.012-7.679 8.537-7.679h.86v-6.886h-1.002C6.026-34.155 0-28.486 0-19.518Z" style="fill:#000;fill-opacity:1;fill-rule:nonzero;stroke:none;stroke-width:17.9236" transform="translate(292.412 436.122) scale(1.10413)"/></g><g style="fill:#000;stroke-width:17.9236"><path d="M0 0c-6.312 0-10.762 4.378-10.762 10.55 0 6.89 4.951 11.552 11.122 11.552 4.256 0 7.829-2.373 9.565-6.043.715-1.521 1.125-3.257 1.125-5.151 0-1.942-.404-3.686-1.125-5.189C8.208 2.169 4.642 0 0 0m9.925 28.257v-1.981c-2.683 1.647-5.779 2.5-9.35 2.5-10.62 0-18.37-7.892-18.37-17.798C-17.795.646-10.477-6.817 0-6.817c3.821 0 7.167.994 9.925 2.916v-2.01h7.028v34.168z" style="fill:#000;fill-opacity:1;fill-rule:nonzero;stroke:none;stroke-width:17.9236" transform="translate(372.807 404.905) scale(1.10413)"/></g><g style="stroke-width:17.9236"><path d="M0 0c1.523 1.948 4.124 6.642-2.795 12.698-4.167 3.645-7.84 4.393-10.029 3.935-1.335-.277-2.656-1.175-2.656-3.303v-25.779c0-.981 1.139-1.22 1.72-.69C-13.76-13.139-1.768-2.266 0 0" style="fill:#cdc4c1;fill-opacity:1;fill-rule:nonzero;stroke:none;stroke-width:17.9236" transform="translate(354.004 521.075) scale(1.10413)"/></g><g style="stroke-width:17.9236"><path d="M0 0c-.532-.581-.293-1.718.687-1.718h25.778c2.127 0 3.029 1.319 3.307 2.656.458 2.19-.29 5.86-3.937 10.029-6.056 6.92-10.749 4.318-12.697 2.795C10.87 11.993 0 0 0 0" style="fill:#cdc4c1;fill-opacity:1;fill-rule:nonzero;stroke:none;stroke-width:17.9236" transform="translate(348.074 497.305) scale(1.10413)"/></g><g style="stroke-width:17.9236"><path d="m0 0-.273-.002C5.06-5.485 2.697-9.7 1.274-11.52c-1.173-1.504-6.851-6.8-10.537-10.192.105-2.534.195-4.361.195-4.361.025-.549.507-1.025 1.033-1.025.226 0 .46.088.668.296l18.23 18.228c1.502 1.506 1.208 3.075.46 4.218C10.095-2.485 6.973-.417 1.446-.05.941-.016.459 0 0 0" style="fill:#5a7ca5;fill-opacity:1;fill-rule:nonzero;stroke:none;stroke-width:17.9236" transform="translate(352.597 533.794) scale(1.10413)"/></g><g style="stroke-width:17.9236"><path d="M0 0c-7.647-.107-8.956-4.759-9.236-7.05-.058-.476-.085-1.321-.089-2.401v-.594c.011-3.247.188-8.14.335-11.665 3.686 3.392 9.364 8.688 10.537 10.192C2.97-9.699 5.333-5.483 0 0" style="fill:#4a5e7c;fill-opacity:1;fill-rule:nonzero;stroke:none;stroke-width:17.9236" transform="translate(352.296 533.792) scale(1.10413)"/></g><g style="stroke-width:17.9236"><path d="M0 0c-.745 0-1.542-.296-2.322-1.077l-18.231-18.227c-.69-.695-.056-1.667.727-1.701 0 0 1.829-.09 4.366-.196 3.391 3.687 8.684 9.363 10.189 10.537.963.753 2.596 1.769 4.733 1.769 1.902 0 4.204-.805 6.786-3.318l.002.17v.211c-.003.426-.019.873-.05 1.339-.369 5.526-2.435 8.654-4.31 9.876C1.341-.256.693 0 0 0" style="fill:#5a7ca5;fill-opacity:1;fill-rule:nonzero;stroke:none;stroke-width:17.9236" transform="translate(368.4 524.274) scale(1.10413)"/></g><g style="stroke-width:17.9236"><path d="M0 0c-2.137 0-3.771-1.016-4.733-1.769-1.505-1.174-6.798-6.85-10.189-10.536 3.558-.148 8.507-.328 11.752-.336h.442c1.109.003 1.978.029 2.463.089 2.29.282 6.942 1.591 7.051 9.234C4.203-.805 1.902 0 0 0" style="fill:#4a5e7c;fill-opacity:1;fill-rule:nonzero;stroke:none;stroke-width:17.9236" transform="translate(367.806 514.453) scale(1.10413)"/></g></g></g></svg>