<svg width="24" height="24" viewBox="0 0 24 24" fill="none" xmlns="http://www.w3.org/2000/svg">
<path d="M12.0482 -5.05868e-05C5.46332 -5.05868e-05 0.0964826 5.33995 0.0964826 11.8919C0.0964826 13.9919 0.651256 16.0319 1.68844 17.8319L0 23.9999L6.33166 22.3439C8.0804 23.2919 10.0462 23.7959 12.0482 23.7959C18.6332 23.7959 24 18.4559 24 11.9039C24 8.72395 22.7578 5.73595 20.5025 3.49195C19.3968 2.38066 18.0798 1.49955 16.6283 0.900011C15.1768 0.300471 13.6198 -0.00549821 12.0482 -5.05868e-05ZM12.0603 2.00395C14.7136 2.00395 17.198 3.03595 19.0794 4.90795C20.0027 5.82637 20.7348 6.91713 21.2336 8.11766C21.7323 9.31819 21.988 10.6049 21.9859 11.9039C21.9859 17.3519 17.5236 21.7799 12.0482 21.7799C10.2633 21.7799 8.51457 21.3119 6.99497 20.3999L6.63316 20.1959L2.87035 21.1799L3.87136 17.5319L3.63015 17.1479C2.6339 15.5744 2.10695 13.7517 2.11055 11.8919C2.12261 6.44395 6.57286 2.00395 12.0603 2.00395ZM7.81507 6.39595C7.62211 6.39595 7.29648 6.46795 7.01909 6.76795C6.75377 7.06795 5.96985 7.79995 5.96985 9.25195C5.96985 10.7159 7.04321 12.1199 7.17588 12.3239C7.34472 12.5279 9.29849 15.5279 12.3015 16.7999C13.0131 17.1239 13.5678 17.3039 14.002 17.4359C14.7136 17.6639 15.3648 17.6279 15.8834 17.5559C16.4623 17.4719 17.6442 16.8359 17.8975 16.1399C18.1508 15.4439 18.1508 14.8559 18.0784 14.7239C17.994 14.6039 17.801 14.5319 17.4995 14.3999C17.198 14.2319 15.7266 13.5119 15.4613 13.4159C15.1839 13.3199 15.0151 13.2719 14.7859 13.5599C14.593 13.8599 14.0141 14.5319 13.8452 14.7239C13.6643 14.9279 13.4955 14.9519 13.206 14.8079C12.8925 14.6519 11.9276 14.3399 10.794 13.3319C9.90151 12.5399 9.31055 11.5679 9.12965 11.2679C8.98492 10.9799 9.11759 10.7999 9.26231 10.6679C9.39497 10.5359 9.58794 10.3199 9.70854 10.1399C9.86533 9.97195 9.91357 9.83995 10.01 9.64795C10.1065 9.44395 10.0583 9.27595 9.98593 9.13195C9.91357 8.99995 9.31055 7.51195 9.05729 6.92395C8.81608 6.34795 8.57487 6.41995 8.38191 6.40795C8.21306 6.40795 8.0201 6.39595 7.81507 6.39595Z" fill="#128D7E"/>
</svg>
