<?xml version="1.0" encoding="UTF-8" standalone="no"?>
<!-- Generator: Adobe Illustrator 19.0.0, SVG Export Plug-In . SVG Version: 6.00 Build 0)  -->

<svg
   version="1.1"
   id="Layer_1"
   x="0px"
   y="0px"
   viewBox="0 0 498.46201 475.07693"
   xml:space="preserve"
   sodipodi:docname="handshake_78379.svg"
   inkscape:version="1.1.1 (3bf5ae0d25, 2021-09-20)"
   width="498.46201"
   height="475.07693"
   xmlns:inkscape="http://www.inkscape.org/namespaces/inkscape"
   xmlns:sodipodi="http://sodipodi.sourceforge.net/DTD/sodipodi-0.dtd"
   xmlns="http://www.w3.org/2000/svg"
   xmlns:svg="http://www.w3.org/2000/svg"><defs
   id="defs83" /><sodipodi:namedview
   id="namedview81"
   pagecolor="#ffffff"
   bordercolor="#666666"
   borderopacity="1.0"
   inkscape:pageshadow="2"
   inkscape:pageopacity="0.0"
   inkscape:pagecheckerboard="0"
   showgrid="false"
   inkscape:zoom="1.625"
   inkscape:cx="182.15385"
   inkscape:cy="263.69231"
   inkscape:window-width="2560"
   inkscape:window-height="1017"
   inkscape:window-x="-8"
   inkscape:window-y="-8"
   inkscape:window-maximized="1"
   inkscape:current-layer="Layer_1" />

<rect
   style="fill:#34495e;fill-opacity:1;stroke-width:0.6;paint-order:markers stroke fill"
   id="rect922"
   width="498.46201"
   height="475.07693"
   x="0"
   y="0"
   rx="0"
   ry="0" /><path
   style="fill:#203549"
   d="m 399.12231,197.89646 -79.91,-79.872 -39.567,39.572 7.862,7.823 -3.218,3.22 2.227,2.23 -10.639,10.644 -18.068,6.18 c -2.158,0.732 -4.316,1.718 -6.326,2.995 -0.077,0.041 -0.113,0.077 -0.182,0.113 -2.084,1.316 -3.955,2.816 -5.632,4.46 l -0.131,0.131 -37.793,-37.796 -39.57,-39.572 -0.003,0.005 -0.018,-0.02 -79.887004,79.887 39.570004,39.572 37.842,37.839 -1.746,1.728 c -2.378,2.383 -3.878,5.676 -3.878,9.329 0,3.661 1.5,6.953 3.878,9.329 l 178.206,178.205 c 76.119,-31.736 133.583,-99.174 151.578,-181.402 z"
   id="path4" />
<g
   id="g10"
   transform="translate(-12.307694,-18.461536)">
	<path
   style="fill:#cee2f2"
   d="m 288.189,199.99 -18.063,6.18 c -2.24,0.765 -4.419,1.784 -6.51,3.09 -2.097,1.311 -3.968,2.816 -5.632,4.488 l -42.202,42.194 76.18,76.16 42.186,-42.194 c 1.672,-1.672 3.174,-3.548 4.477,-5.64 1.303,-2.092 2.33,-4.27 3.09,-6.502 l 6.177,-18.079 z"
   id="path6" />
	<polygon
   style="fill:#cee2f2"
   points="358.543,249.06 347.894,259.686 288.189,199.99 298.831,189.348 "
   id="polygon8" />
</g>
<g
   id="g24"
   transform="translate(-12.307694,-18.461536)">
	<path
   style="fill:#ffffff"
   d="m 335.77,314.153 c -2.388,2.381 -5.691,3.863 -9.331,3.863 -3.653,0 -6.948,-1.482 -9.331,-3.863 l -39.56,-39.547 18.662,-18.665 39.557,39.549 c 2.386,2.391 3.863,5.699 3.863,9.329 0.003,3.651 -1.475,6.945 -3.86,9.334 z"
   id="path12" />
	<path
   style="fill:#ffffff"
   d="m 316.593,333.309 c -2.378,2.396 -5.678,3.878 -9.321,3.878 -3.653,0 -6.953,-1.482 -9.339,-3.878 l -39.547,-39.539 18.66,-18.66 39.547,39.555 c 2.396,2.381 3.868,5.688 3.868,9.326 0,3.643 -1.475,6.945 -3.868,9.318 z"
   id="path14" />
	<path
   style="fill:#ffffff"
   d="m 297.428,352.497 c -2.396,2.368 -5.699,3.858 -9.336,3.858 -3.643,0 -6.935,-1.49 -9.326,-3.858 l -39.555,-39.567 18.655,-18.647 39.562,39.547 c 2.388,2.401 3.855,5.683 3.855,9.329 -0.002,3.652 -1.469,6.944 -3.855,9.338 z"
   id="path16" />
	<path
   style="fill:#ffffff"
   d="m 278.252,371.666 c -2.383,2.396 -5.688,3.863 -9.326,3.863 -3.645,0 -6.948,-1.467 -9.326,-3.863 l -39.565,-39.562 18.66,-18.652 39.555,39.56 c 2.391,2.391 3.863,5.691 3.863,9.329 0.002,3.642 -1.47,6.936 -3.861,9.325 z"
   id="path18" />
	<path
   style="fill:#ffffff"
   d="m 164.091,259.686 6.182,18.079 c 0.76,2.232 1.797,4.411 3.095,6.502 1.3,2.092 2.811,3.968 4.475,5.64 l 42.196,42.194 76.173,-76.16 -42.196,-42.194 c -1.664,-1.672 -3.546,-3.177 -5.64,-4.488 -2.094,-1.306 -4.273,-2.324 -6.505,-3.09 l -18.079,-6.18 z"
   id="path20" />
	<polygon
   style="fill:#ffffff"
   points="213.166,189.348 223.795,199.99 164.091,259.686 153.444,249.052 "
   id="polygon22" />
</g>
<polygon
   style="fill:#cee2f2"
   points="147.671,247.764 211.86,183.575 215.411,187.116 151.212,251.292 "
   id="polygon26"
   transform="translate(-12.307694,-18.461536)" />
<rect
   x="-77.527222"
   y="202.3662"
   transform="rotate(-45)"
   style="fill:#0684ba;stroke-width:0.99999"
   width="112.99592"
   height="55.970463"
   id="rect28" />
<path
   style="fill:#ffffff"
   d="m 123.15731,217.09146 c -2.58,-2.591 -2.573,-6.751 0.013,-9.334 2.586,-2.586 6.751,-2.591 9.324,0 2.591,2.583 2.609,6.743 0.018,9.334 -2.592,2.583 -6.757,2.583 -9.355,0 z"
   id="path30" />
<g
   id="g42"
   transform="translate(-12.307694,-18.461536)">
	<path
   style="fill:#cee2f2"
   d="m 233.738,371.666 c -2.378,-2.388 -3.855,-5.683 -3.855,-9.329 0,-3.638 1.48,-6.938 3.855,-9.329 l 3.704,-3.692 c 2.378,-2.396 5.683,-3.878 9.321,-3.878 3.645,0 6.945,1.482 9.341,3.878 v 0 c 2.378,2.373 3.855,5.676 3.855,9.321 0,3.638 -1.477,6.945 -3.855,9.326 l -3.709,3.702 c -2.373,2.396 -5.673,3.863 -9.318,3.863 -3.656,-0.002 -6.955,-1.468 -9.339,-3.862 z"
   id="path32" />
	<path
   style="fill:#cee2f2"
   d="m 214.572,352.497 c -2.386,-2.396 -3.863,-5.688 -3.863,-9.339 0,-3.645 1.48,-6.925 3.863,-9.329 l 3.697,-3.699 c 2.383,-2.376 5.688,-3.858 9.331,-3.858 3.643,0 6.935,1.482 9.324,3.858 v 0 c 2.391,2.396 3.868,5.696 3.868,9.334 0,3.653 -1.477,6.953 -3.868,9.329 l -3.702,3.707 c -2.381,2.368 -5.683,3.858 -9.313,3.858 -3.659,-0.003 -6.954,-1.493 -9.337,-3.861 z"
   id="path34" />
	<path
   style="fill:#cee2f2"
   d="m 195.397,333.309 c -2.383,-2.373 -3.866,-5.676 -3.866,-9.321 0,-3.638 1.482,-6.945 3.866,-9.326 l 3.697,-3.702 c 2.396,-2.388 5.688,-3.863 9.331,-3.863 3.643,0 6.935,1.475 9.331,3.863 v 0 c 2.383,2.396 3.855,5.699 3.855,9.341 0,3.643 -1.472,6.93 -3.855,9.318 l -3.699,3.686 c -2.383,2.396 -5.688,3.878 -9.331,3.878 -3.651,0.005 -6.943,-1.477 -9.329,-3.874 z"
   id="path36" />
	<path
   style="fill:#cee2f2"
   d="m 176.22,314.153 c -2.373,-2.388 -3.855,-5.683 -3.855,-9.334 0,-3.63 1.482,-6.938 3.855,-9.329 l 3.707,-3.692 c 2.381,-2.396 5.683,-3.871 9.324,-3.871 3.64,0 6.943,1.475 9.336,3.871 v 0 c 2.373,2.388 3.855,5.681 3.855,9.326 0,3.645 -1.482,6.956 -3.855,9.334 l -3.709,3.694 c -2.381,2.381 -5.678,3.863 -9.321,3.863 -3.646,0.001 -6.948,-1.481 -9.337,-3.862 z"
   id="path38" />
	<path
   style="fill:#cee2f2"
   d="m 281.825,227.197 -39.544,39.572 c -2.388,2.381 -5.693,3.863 -9.334,3.863 -0.95,0 -1.871,-0.108 -2.767,-0.302 -2.534,-0.543 -4.797,-1.792 -6.554,-3.561 -1.777,-1.769 -3.041,-4.04 -3.581,-6.561 -0.189,-0.896 -0.292,-1.82 -0.292,-2.783 0,-3.64 1.48,-6.935 3.873,-9.321 l 34.358,-34.358 c 1.664,-1.679 3.535,-3.177 5.632,-4.48 0.061,-0.044 0.108,-0.064 0.164,-0.108 z"
   id="path40" />
</g>
<polygon
   style="fill:#ffffff"
   points="364.329,247.764 300.137,183.575 296.589,187.116 360.783,251.292 "
   id="polygon44"
   transform="translate(-12.307694,-18.461536)" />
<rect
   x="-422.16647"
   y="86.305176"
   transform="rotate(-135)"
   style="fill:#0684ba;stroke-width:0.99999"
   width="112.99592"
   height="55.968464"
   id="rect46" />
<path
   style="fill:#ffffff"
   d="m 364.22731,217.09146 c 2.575,-2.591 2.565,-6.751 -0.018,-9.334 -2.586,-2.586 -6.746,-2.591 -9.336,0 -2.591,2.583 -2.591,6.743 -0.005,9.334 2.596,2.583 6.756,2.583 9.359,0 z"
   id="path48" />
<g
   id="g50"
   transform="translate(-12.307694,-18.461536)">
</g>
<g
   id="g52"
   transform="translate(-12.307694,-18.461536)">
</g>
<g
   id="g54"
   transform="translate(-12.307694,-18.461536)">
</g>
<g
   id="g56"
   transform="translate(-12.307694,-18.461536)">
</g>
<g
   id="g58"
   transform="translate(-12.307694,-18.461536)">
</g>
<g
   id="g60"
   transform="translate(-12.307694,-18.461536)">
</g>
<g
   id="g62"
   transform="translate(-12.307694,-18.461536)">
</g>
<g
   id="g64"
   transform="translate(-12.307694,-18.461536)">
</g>
<g
   id="g66"
   transform="translate(-12.307694,-18.461536)">
</g>
<g
   id="g68"
   transform="translate(-12.307694,-18.461536)">
</g>
<g
   id="g70"
   transform="translate(-12.307694,-18.461536)">
</g>
<g
   id="g72"
   transform="translate(-12.307694,-18.461536)">
</g>
<g
   id="g74"
   transform="translate(-12.307694,-18.461536)">
</g>
<g
   id="g76"
   transform="translate(-12.307694,-18.461536)">
</g>
<g
   id="g78"
   transform="translate(-12.307694,-18.461536)">
</g>
</svg>
