<?xml version="1.0" encoding="UTF-8" standalone="no"?>
<!-- Created with Inkscape (http://www.inkscape.org/) -->

<svg
   width="189.19501mm"
   height="189.55168mm"
   viewBox="0 0 189.19501 189.55168"
   version="1.1"
   id="svg5"
   inkscape:version="1.1.1 (3bf5ae0d25, 2021-09-20)"
   sodipodi:docname="convenio-3.svg"
   xmlns:inkscape="http://www.inkscape.org/namespaces/inkscape"
   xmlns:sodipodi="http://sodipodi.sourceforge.net/DTD/sodipodi-0.dtd"
   xmlns="http://www.w3.org/2000/svg"
   xmlns:svg="http://www.w3.org/2000/svg">
  <sodipodi:namedview
     id="namedview7"
     pagecolor="#ffffff"
     bordercolor="#666666"
     borderopacity="1.0"
     inkscape:pageshadow="2"
     inkscape:pageopacity="0.0"
     inkscape:pagecheckerboard="0"
     inkscape:document-units="mm"
     showgrid="false"
     inkscape:zoom="0.74118967"
     inkscape:cx="35.07874"
     inkscape:cy="382.49319"
     inkscape:window-width="2560"
     inkscape:window-height="1017"
     inkscape:window-x="-8"
     inkscape:window-y="-8"
     inkscape:window-maximized="1"
     inkscape:current-layer="layer1" />
  <defs
     id="defs2" />
  <g
     inkscape:label="Camada 1"
     inkscape:groupmode="layer"
     id="layer1"
     transform="translate(-9.6382217,-15.706729)">
    <rect
       style="fill:#cccccc;stroke-width:0.15875;paint-order:markers stroke fill"
       id="rect882"
       width="189.19501"
       height="189.55168"
       x="9.6382217"
       y="15.706729" />
    <g
       id="g1530"
       transform="translate(209.54206,4.2836539)">
      <path
         style="fill:#fee3d8;stroke-width:1"
         d="m -146.84081,171.50548 c -0.50642,-0.25444 -1.19103,-0.86718 -1.52135,-1.36164 l -0.60059,-0.89902 v -13.41343 -13.41343 l -2.02695,-2.88547 c -5.83842,-8.31125 -8.52591,-12.97768 -11.03311,-19.15733 -3.49997,-8.62664 -5.11581,-16.45636 -5.37835,-26.061458 -0.17423,-6.374497 0.21554,-10.418359 1.51847,-15.754076 2.68977,-11.015009 9.23156,-21.5463 17.92432,-28.855448 12.14651,-10.213162 26.84339,-14.557648 43.35121,-12.814872 17.842733,1.883706 34.619242,13.936128 42.860295,30.791289 1.776497,3.633414 3.806595,9.715518 4.562306,13.668525 0.844671,4.418356 1.090557,7.767973 1.090557,14.856369 v 6.465931 l 5.893167,8.25906 c 3.241241,4.54249 6.182558,8.91279 6.536261,9.71177 0.519716,1.17399 0.64171,1.88418 0.635868,3.70166 -0.01029,3.20523 -0.714759,4.89577 -2.986934,7.16795 -2.231874,2.23187 -3.845385,2.89607 -7.498675,3.08684 l -2.579687,0.13471 v 7.71424 c 0,8.34492 -0.135655,9.45474 -1.479894,12.10748 -0.945952,1.86674 -2.98994,3.95489 -4.832601,4.93703 -2.994708,1.59615 -3.349535,1.62883 -17.687885,1.62883 h -13.041285 v 3.7804 c 0,3.39423 -0.06081,3.90098 -0.595313,4.96093 -1.123571,2.22812 0.815047,2.07956 -27.31823,2.09347 -23.16514,0.0114 -24.93398,-0.0194 -25.7916,-0.45031 z"
         id="path1564" />
      <path
         style="fill:#fddccd;stroke-width:1"
         d="m -146.05233,171.70432 c -0.3638,-0.11651 -0.57391,-0.2237 -0.46691,-0.23821 0.10701,-0.0145 -0.25018,-0.43384 -0.79375,-0.93185 l -0.9883,-0.90548 -0.13229,-13.74946 -0.13229,-13.74945 -1.64637,-2.34454 c -7.48732,-10.6625 -10.38875,-16.07588 -13.16862,-24.56955 -2.35674,-7.20083 -3.30599,-12.91437 -3.49822,-21.055753 -0.15975,-6.766345 0.20079,-10.485119 1.52487,-15.727904 4.84973,-19.202766 20.33515,-34.810697 39.3636,-39.675018 2.87948,-0.736093 6.86621,-1.461108 8.03438,-1.461108 0.42609,0 0.71167,-0.101999 0.63462,-0.226664 -0.19233,-0.3112 7.07382,-0.639145 9.43608,-0.425881 5.20608,0.470004 11.521716,1.940041 16.072779,3.741127 19.107943,7.561977 32.288955,24.470798 34.923932,44.800999 0.160317,1.236927 0.363596,5.73846 0.451734,10.003408 l 0.160248,7.754454 5.81225,8.12055 c 3.196738,4.4663 6.048192,8.64188 6.336566,9.27907 1.637088,3.61729 0.791634,8.19049 -2.037143,11.01927 -2.054492,2.05449 -4.830347,3.02864 -8.644681,3.03375 l -1.493967,0.002 -0.118419,8.40052 c -0.107678,7.6385 -0.167685,8.53508 -0.661501,9.88382 -1.607269,4.38987 -5.188048,7.32803 -9.634323,7.90531 -1.069011,0.13879 -7.497106,0.25602 -14.284655,0.26052 l -12.340999,0.008 -0.104706,4.03489 c -0.118393,4.56214 -0.343236,5.28242 -2.000499,6.40856 l -0.984591,0.66905 -24.478685,-0.0264 c -13.46328,-0.0145 -24.77634,-0.1217 -25.14014,-0.23821 z"
         id="path1562" />
      <path
         style="fill:#fbf397;stroke-width:1"
         d="m -111.92108,150.16839 v -21.82278 l -10.51719,-0.0871 c -10.36903,-0.0859 -10.53955,-0.096 -12.10469,-0.7193 -4.22781,-1.68371 -6.82979,-4.59552 -7.92912,-8.8733 -0.33437,-1.30112 -0.40525,-3.64454 -0.40525,-13.39789 V 93.447073 l -0.78355,-1.683353 c -1.4077,-3.024246 -1.65342,-4.416166 -1.7918,-10.150017 -0.0882,-3.65534 -0.0297,-5.654897 0.18919,-6.46631 0.3924,-1.454478 1.67208,-2.776895 3.06003,-3.162234 0.63809,-0.177155 3.79481,-0.290954 8.0958,-0.291854 l 7.04988,-0.0016 0.0997,-4.167187 c 0.093,-3.887911 0.14891,-4.273579 0.83429,-5.754687 0.96784,-2.091496 3.0017,-4.132036 5.04692,-5.063488 1.47156,-0.67019 1.9504,-0.745057 5.38548,-0.842037 l 3.77032,-0.106445 v -9.656786 -9.656786 l 2.97656,0.191414 c 1.63711,0.105278 3.01625,0.296885 3.06476,0.425793 0.0485,0.129019 0.45026,0.234489 0.89279,0.234489 1.51708,0 7.400046,1.335482 10.617643,2.410291 18.613982,6.217824 32.685748,22.119517 36.537557,41.288991 0.892485,4.441677 1.202643,8.491471 1.20587,15.745428 l 0.0027,6.131175 5.998014,8.40601 c 3.298909,4.6233 6.237282,9.00802 6.529718,9.74382 0.375801,0.94556 0.532759,1.96151 0.535302,3.46489 0.0031,1.82888 -0.111165,2.37231 -0.815049,3.87648 -1.030795,2.20276 -2.566223,3.74896 -4.726892,4.76006 -1.410679,0.66014 -2.154118,0.8184 -4.537935,0.96606 l -2.850866,0.17658 -0.143484,8.46667 c -0.1231,7.26376 -0.211495,8.65462 -0.622168,9.78958 -1.290412,3.56627 -3.82376,6.10119 -7.436431,7.44104 -1.206146,0.44733 -2.537331,0.50258 -15.08125,0.62584 l -13.758332,0.13521 -0.132292,4.25931 c -0.140962,4.53846 -0.130947,4.50295 -1.708862,6.05944 l -0.804679,0.79375 -7.871354,0.0773 -7.87135,0.0773 z m 0,-81.92481 v -3.448248 l -2.97657,0.07481 -2.97656,0.07481 -0.074,3.373437 -0.074,3.373438 h 3.05061 3.05062 z"
         id="path1560" />
      <path
         style="fill:#fdcbbc;stroke-width:1"
         d="m -111.92108,150.16839 v -21.82278 l -10.51719,-0.0871 c -10.36903,-0.0859 -10.53955,-0.096 -12.10469,-0.7193 -4.22781,-1.68371 -6.82979,-4.59552 -7.92912,-8.8733 -0.33437,-1.30112 -0.40525,-3.64454 -0.40525,-13.39789 V 93.447073 l -0.78355,-1.683353 c -1.4077,-3.024246 -1.65342,-4.416166 -1.7918,-10.150017 -0.0882,-3.65534 -0.0297,-5.654897 0.18919,-6.46631 0.3924,-1.454478 1.67208,-2.776895 3.06003,-3.162234 0.63809,-0.177155 3.79481,-0.290954 8.0958,-0.291854 l 7.04988,-0.0016 0.0997,-4.167187 c 0.093,-3.887911 0.14891,-4.273579 0.83429,-5.754687 0.96784,-2.091496 3.0017,-4.132036 5.04692,-5.063488 1.47156,-0.67019 1.9504,-0.745057 5.38548,-0.842037 l 3.77032,-0.106445 v -9.656786 -9.656786 l 2.97656,0.191414 c 1.63711,0.105278 3.01625,0.296885 3.06476,0.425793 0.0485,0.129019 0.45026,0.234489 0.89279,0.234489 1.51708,0 7.400046,1.335482 10.617643,2.410291 18.613982,6.217824 32.685748,22.119517 36.537557,41.288991 0.892485,4.441677 1.202643,8.491471 1.20587,15.745428 l 0.0027,6.131175 5.998014,8.40601 c 3.298909,4.6233 6.237282,9.00802 6.529718,9.74382 0.375801,0.94556 0.532759,1.96151 0.535302,3.46489 0.0031,1.82888 -0.111165,2.37231 -0.815049,3.87648 -1.030795,2.20276 -2.566223,3.74896 -4.726892,4.76006 -1.410679,0.66014 -2.154118,0.8184 -4.537935,0.96606 l -2.850866,0.17658 -0.143484,8.46667 c -0.1231,7.26376 -0.211495,8.65462 -0.622168,9.78958 -1.290412,3.56627 -3.82376,6.10119 -7.436431,7.44104 -1.206146,0.44733 -2.537331,0.50258 -15.08125,0.62584 l -13.758332,0.13521 -0.132292,4.25931 c -0.140962,4.53846 -0.130947,4.50295 -1.708862,6.05944 l -0.804679,0.79375 -7.871354,0.0773 -7.87135,0.0773 z m 0,-48.87191 v -7.701603 l -0.72761,0.172916 c -1.07047,0.254397 -1.98953,0.993092 -2.51313,2.019924 -0.38523,0.755486 -0.46243,1.637459 -0.46154,5.272863 5.3e-4,2.40109 0.11928,4.79118 0.26377,5.31131 0.38184,1.37458 1.69015,2.42582 3.24007,2.60345 0.10914,0.0125 0.19844,-3.44298 0.19844,-7.67886 z m 0,-33.0529 v -3.448248 l -2.97657,0.07481 -2.97656,0.07481 -0.074,3.373437 -0.074,3.373438 h 3.05061 3.05062 z"
         id="path1558" />
      <path
         style="fill:#f4bcaa;stroke-width:1"
         d="m -68.104942,144.70666 c -2.697311,-0.80717 -3.571761,-4.47078 -1.533258,-6.42379 1.129887,-1.08251 2.096622,-1.23896 7.655472,-1.23896 h 5.094976 v 3.96875 3.96875 l -5.225521,-0.0228 c -2.874036,-0.0125 -5.570286,-0.12591 -5.991669,-0.25201 z m -54.664058,-16.65007 -10.71562,-0.14081 -1.98438,-0.95958 c -3.37424,-1.63168 -5.45881,-3.94394 -6.5943,-7.31458 -0.52465,-1.55741 -0.54945,-2.18104 -0.54945,-13.81774 V 93.637155 l -0.81178,-1.608127 c -1.52521,-3.02142 -1.83405,-4.931791 -1.83405,-11.344563 0,-5.516393 0.0231,-5.773366 0.59531,-6.614077 0.32742,-0.481082 0.9312,-1.123768 1.34174,-1.428189 0.70744,-0.524584 1.15658,-0.560406 8.59896,-0.685787 l 7.85253,-0.132292 0.13229,-4.365625 c 0.1221,-4.029326 0.18671,-4.481729 0.83878,-5.872823 0.90395,-1.92847 2.74842,-3.76935 4.66548,-4.656394 1.39841,-0.64706 1.88915,-0.713368 6.79887,-0.918645 7.72692,-0.323066 9.97574,-0.197509 11.83634,0.660855 1.93181,0.891218 4.002724,2.957443 4.91491,4.903788 0.664318,1.417468 0.71711,1.801262 0.800155,5.817074 l 0.08891,4.299479 h 7.368344 c 4.562805,0 7.651942,0.107151 8.113172,0.281416 0.409657,0.154778 1.086914,0.601263 1.505019,0.992187 1.364117,1.275437 1.488768,1.928821 1.488768,7.8037 0,6.012778 -0.34857,8.118117 -1.853629,11.195788 l -0.792205,1.619969 v 12.024191 c 0,13.02724 -0.02146,13.25677 -1.515496,16.20709 -0.850135,1.67879 -3.302203,4.13086 -4.980992,4.98099 -2.922212,1.4798 -3.322439,1.52036 -14.387466,1.45787 -5.61252,-0.0317 -15.02662,-0.121 -20.92021,-0.19844 z m 10.84792,-26.76011 v -7.701603 l -0.72761,0.172916 c -1.07047,0.254397 -1.98953,0.993092 -2.51313,2.019924 -0.38523,0.755486 -0.46243,1.637459 -0.46154,5.272863 5.3e-4,2.40109 0.11928,4.79118 0.26377,5.31131 0.38184,1.37458 1.69015,2.42582 3.24007,2.60345 0.10914,0.0125 0.19844,-3.44298 0.19844,-7.67886 z m 1.52135,-29.514815 4.56406,-0.173127 v -3.100959 c 0,-2.162556 -0.10008,-3.181427 -0.33073,-3.36687 -0.1819,-0.146254 -2.72993,-0.351235 -5.6623,-0.455515 -6.75773,-0.240316 -6.44238,-0.432189 -6.44238,3.919828 0,1.649238 0.0794,3.077988 0.17639,3.175 0.22074,0.22075 1.90931,0.22111 7.69496,0.0016 z"
         id="path1556" />
      <path
         style="fill:#a8abaa;stroke-width:1"
         d="m -133.58923,127.63327 c -0.78514,-0.21328 -1.99594,-0.69715 -2.69066,-1.07527 -1.61663,-0.87988 -3.96083,-3.22234 -4.8385,-4.8349 -1.42709,-2.62204 -1.49436,-3.35626 -1.49436,-16.31023 V 93.472179 l -0.79838,-1.597702 c -1.57002,-3.141887 -1.88662,-5.177676 -1.79602,-11.548789 0.0887,-6.237409 0.11876,-6.358991 1.90191,-7.691469 0.68857,-0.514543 1.17585,-0.553027 8.58261,-0.677807 l 7.85259,-0.132292 0.15383,-4.233333 c 0.18674,-5.138656 0.50163,-6.157361 2.60535,-8.428536 1.26056,-1.3609 2.55996,-2.164918 4.33073,-2.679696 1.21867,-0.354275 2.65517,-0.412522 8.56426,-0.347263 7.06515,0.07803 7.10739,0.08188 8.60719,0.784898 1.92267,0.901234 3.764252,2.742814 4.665486,4.665482 0.652063,1.391094 0.716677,1.843497 0.838777,5.872823 l 0.132292,4.365625 7.852531,0.132292 c 7.442374,0.125381 7.89152,0.161203 8.598958,0.685787 0.410535,0.304421 1.014317,0.947107 1.341739,1.428189 0.572182,0.840711 0.595312,1.097684 0.595312,6.614077 0,6.364295 -0.325218,8.415761 -1.768623,11.156471 l -0.744918,1.414433 -0.132292,12.832291 -0.132292,12.83229 -0.982956,2.05855 c -1.306975,2.73711 -3.217214,4.64735 -5.954331,5.95433 l -2.058545,0.98295 -20.902078,0.0526 c -17.65474,0.0445 -21.12387,-0.008 -22.32961,-0.33515 z m 21.66815,-26.33679 v -7.701603 l -0.72761,0.172916 c -1.06682,0.253529 -1.98722,0.990809 -2.52164,2.019924 -0.4115,0.792422 -0.46173,1.532716 -0.39688,5.849663 0.0679,4.5161 0.12152,5.00679 0.62223,5.68854 0.53993,0.73516 2.04747,1.67094 2.69317,1.67175 0.25702,2.6e-4 0.33073,-1.71608 0.33073,-7.70119 z m 6.29256,-32.616906 c 0.10499,-4.410694 0.53172,-4.131495 -6.31467,-4.131495 -4.6439,0 -5.56083,0.06448 -5.91212,0.415774 -0.33084,0.330843 -0.41577,1.05146 -0.41577,3.527777 0,1.711603 0.0815,3.193521 0.18114,3.293149 0.0996,0.09963 2.92737,0.149239 6.28386,0.110244 l 6.10271,-0.0709 z"
         id="path1554" />
      <path
         style="fill:#a69794;stroke-width:1"
         d="m -122.63671,127.79208 c -11.39841,-0.15178 -11.3458,-0.1455 -13.93643,-1.66371 -1.72329,-1.00991 -3.83958,-3.40181 -4.79568,-5.42022 l -0.84705,-1.7882 -0.13229,-12.96458 -0.1323,-12.964584 -0.86472,-1.742959 c -1.33378,-2.688407 -1.63898,-4.662826 -1.64422,-10.636852 -0.005,-5.895062 0.1955,-6.716347 1.88845,-7.728521 0.81631,-0.488051 1.49154,-0.539446 8.69028,-0.661459 l 7.80521,-0.132291 0.13229,-4.497917 c 0.12508,-4.252436 0.17264,-4.580083 0.87161,-6.003418 0.94525,-1.924887 3.15583,-3.968989 5.06451,-4.68312 1.29523,-0.484607 2.15995,-0.544963 8.79651,-0.613991 l 7.36008,-0.07655 1.75223,0.859878 c 2.07658,1.019055 3.699754,2.675017 4.687621,4.782323 0.655201,1.397663 0.710033,1.798001 0.792565,5.786463 l 0.08866,4.284916 7.716546,0.08071 c 8.637833,0.09035 8.846081,0.133139 10.049922,2.065086 0.54846,0.880179 0.577038,1.220881 0.577038,6.879167 0,5.50841 -0.04639,6.100865 -0.620993,7.930827 -0.341546,1.087733 -0.907092,2.542291 -1.256771,3.232348 l -0.635778,1.254649 -0.0031,11.981195 c -0.0033,12.75938 -0.04966,13.31097 -1.344608,16.01452 -0.331496,0.69208 -1.384257,2.03987 -2.339466,2.99508 -1.813843,1.81384 -3.306435,2.69009 -5.640917,3.31156 -1.473618,0.3923 -9.386567,0.42182 -32.079159,0.11966 z m 10.71563,-26.46692 v -7.672916 h -0.78455 c -1.1072,0 -2.57233,1.356101 -2.93989,2.721123 -0.40757,1.513578 -0.0526,9.840693 0.46256,10.850473 0.43887,0.86028 1.80962,1.77182 2.66656,1.77325 l 0.59532,9.9e-4 z m 1.78593,-29.278911 4.56407,-0.173128 v -3.365542 c 0,-2.374175 -0.0974,-3.443893 -0.33073,-3.631538 -0.1819,-0.146302 -2.84886,-0.351425 -5.92657,-0.45583 -7.10721,-0.241101 -6.70729,-0.490622 -6.70729,4.184811 0,1.794759 0.0794,3.342571 0.17639,3.439583 0.22157,0.221565 2.41498,0.222002 8.22413,0.0016 z"
         id="path1552" />
      <path
         style="fill:#f2ce0f;stroke-width:1"
         d="m -133.40184,127.39462 c -4.25934,-1.17312 -7.69853,-4.70572 -8.66572,-8.90112 -0.15884,-0.689 -0.2703,-6.01754 -0.27414,-13.10598 l -0.006,-11.944937 -0.92761,-1.953281 c -1.41028,-2.969638 -1.70835,-4.861859 -1.71363,-10.878327 -0.005,-5.895062 0.1955,-6.716347 1.88845,-7.728521 0.81631,-0.488051 1.49154,-0.539446 8.69028,-0.661459 l 7.80521,-0.132291 0.13358,-4.365625 c 0.12266,-4.008739 0.19047,-4.487183 0.82951,-5.852586 0.97845,-2.090597 2.37795,-3.525615 4.41764,-4.529747 l 1.7519,-0.862458 h 7.67847 c 7.33084,0 7.73499,0.02611 8.92659,0.576599 1.74992,0.808434 3.77379,2.794828 4.635654,4.549825 0.688726,1.402434 0.738444,1.747262 0.863116,5.986075 l 0.132291,4.497917 7.984871,0.132291 c 7.547054,0.125037 8.025794,0.162338 8.731249,0.680265 1.524458,1.119225 1.671558,1.811293 1.672011,7.866462 5.29e-4,6.275847 -0.274556,8.009646 -1.729113,10.900669 l -0.91631,1.821222 V 105.5859 c 0,11.10488 -0.04085,12.22755 -0.498475,13.69788 -0.686618,2.20611 -1.581587,3.64018 -3.265813,5.23306 -1.596138,1.50956 -3.120003,2.37829 -5.099253,2.90699 -1.892279,0.50547 -41.199818,0.4788 -43.044298,-0.0292 z m 21.53931,-26.06961 c 0.0706,-7.594394 0.0524,-7.93764 -0.4194,-7.937497 -0.89107,2.64e-4 -2.4767,1.102193 -3.04754,2.117883 -0.51159,0.910252 -0.56036,1.401104 -0.56036,5.640124 0,4.81279 0.14599,5.67714 1.1421,6.76181 0.5738,0.62481 1.86947,1.32514 2.48833,1.34497 0.24592,0.008 0.34075,-1.88625 0.39687,-7.92729 z m 6.49773,-32.601896 c 0.10385,-4.723709 0.52629,-4.439618 -6.6016,-4.439618 -4.84101,0 -5.66725,0.05945 -6.08541,0.437882 -0.42028,0.380349 -0.48386,0.878615 -0.48386,3.79236 0,1.844964 0.0814,3.435922 0.18099,3.535461 0.0995,0.09954 3.04633,0.149151 6.54843,0.110244 l 6.36746,-0.07074 z"
         id="path1550" />
      <path
         style="fill:#5f8b94;stroke-width:1"
         d="m -133.40184,127.39462 c -4.25934,-1.17312 -7.69853,-4.70572 -8.66572,-8.90112 -0.15884,-0.689 -0.2703,-6.01754 -0.27414,-13.10598 l -0.006,-11.944937 -0.92761,-1.953281 c -1.41028,-2.969638 -1.70835,-4.861859 -1.71363,-10.878327 -0.005,-5.895062 0.1955,-6.716347 1.88845,-7.728521 0.81631,-0.488051 1.49154,-0.539446 8.69028,-0.661459 l 7.80521,-0.132291 0.13358,-4.365625 c 0.12266,-4.008739 0.19047,-4.487183 0.82951,-5.852586 0.97845,-2.090597 2.37795,-3.525615 4.41764,-4.529747 l 1.7519,-0.862458 h 7.67847 c 7.33084,0 7.73499,0.02611 8.92659,0.576599 1.74992,0.808434 3.77379,2.794828 4.635654,4.549825 0.688726,1.402434 0.738444,1.747262 0.863116,5.986075 l 0.132291,4.497917 7.984871,0.132291 c 7.547054,0.125037 8.025794,0.162338 8.731249,0.680265 1.524458,1.119225 1.671558,1.811293 1.672011,7.866462 5.29e-4,6.275847 -0.274556,8.009646 -1.729113,10.900669 l -0.91631,1.821222 V 105.5859 c 0,11.10488 -0.04085,12.22755 -0.498475,13.69788 -0.686618,2.20611 -1.581587,3.64018 -3.265813,5.23306 -1.596138,1.50956 -3.120003,2.37829 -5.099253,2.90699 -1.892279,0.50547 -41.199818,0.4788 -43.044298,-0.0292 z m 23.58107,-18.88868 c 1.62431,-1.17484 1.7289,-1.54749 1.82352,-6.49701 0.0529,-2.767316 -0.0268,-4.99476 -0.20213,-5.645715 -0.63205,-2.347275 -3.47492,-3.594224 -5.5436,-2.43156 -1.89958,1.06762 -2.14685,1.898523 -2.14685,7.213865 0,4.81279 0.14599,5.67714 1.1421,6.76181 1.25473,1.36628 3.4901,1.63787 4.92696,0.59861 z m 4.45597,-39.782826 c 0.10385,-4.723709 0.52629,-4.439618 -6.6016,-4.439618 -4.84101,0 -5.66725,0.05945 -6.08541,0.437882 -0.42028,0.380349 -0.48386,0.878615 -0.48386,3.79236 0,1.844964 0.0814,3.435922 0.18099,3.535461 0.0995,0.09954 3.04633,0.149151 6.54843,0.110244 l 6.36746,-0.07074 z"
         id="path1548" />
      <path
         style="fill:#64896d;stroke-width:1"
         d="m -132.294,127.50977 c -5.11224,-0.90807 -8.95017,-4.75034 -9.7745,-9.78558 -0.16855,-1.02954 -0.27626,-6.28937 -0.26956,-13.16393 l 0.0112,-11.449287 -0.79746,-1.670928 c -1.34973,-2.828108 -1.59679,-4.460672 -1.60113,-10.580105 -0.006,-8.655547 -0.56587,-8.195223 10.18253,-8.374361 l 7.9375,-0.132292 0.1458,-4.365625 c 0.13475,-4.034885 0.20089,-4.485894 0.87299,-5.953125 0.94264,-2.057805 2.74146,-3.87029 4.77284,-4.80909 l 1.61671,-0.747159 h 7.54062 c 7.1892,0 7.59879,0.02687 8.78873,0.576599 1.74992,0.808434 3.77379,2.794828 4.635654,4.549825 0.688726,1.402434 0.738444,1.747262 0.863116,5.986075 l 0.132291,4.497917 7.852592,0.132291 c 7.406762,0.12478 7.89404,0.163264 8.58261,0.677807 1.7673,1.320639 1.813224,1.497425 1.903058,7.326318 0.09379,6.085596 -0.196083,8.012056 -1.697538,11.281573 l -0.898014,1.95549 v 12.109997 c 0,11.11832 -0.04082,12.24115 -0.498475,13.7116 -0.274159,0.88088 -0.798494,2.11355 -1.165185,2.73926 -0.856486,1.46148 -3.20448,3.6812 -4.705752,4.44867 -2.563882,1.31069 -2.502739,1.30737 -23.528507,1.27752 -10.8413,-0.0154 -20.24723,-0.12315 -20.90208,-0.23946 z m 22.47323,-19.00383 c 0.35482,-0.25663 0.8906,-0.7954 1.19063,-1.19726 0.50811,-0.68056 0.54552,-1.09083 0.54552,-5.98352 0,-4.892693 -0.0374,-5.302961 -0.54552,-5.98352 -0.88928,-1.191093 -1.74757,-1.668901 -3.32074,-1.84863 -1.44134,-0.164674 -1.5171,-0.140658 -2.57716,0.817047 -0.7075,0.63918 -1.19365,1.363575 -1.38029,2.056722 -0.32869,1.220655 -0.0966,8.811651 0.31007,10.140261 0.28408,0.92818 1.37627,2.06962 2.35426,2.46043 0.88083,0.35199 2.62329,0.11706 3.42323,-0.46153 z m 4.31583,-36.461832 c 0.10914,-0.06541 0.19844,-1.600181 0.19844,-3.410603 0,-4.636961 0.4503,-4.350009 -6.82625,-4.350009 -4.13338,0 -5.85789,0.08997 -6.08542,0.3175 -0.35517,0.355176 -0.46332,7.381927 -0.11906,7.735757 0.20092,0.206494 12.46616,-0.07322 12.83229,-0.292645 z"
         id="path1546" />
      <path
         style="fill:#577984;stroke-width:1"
         d="m -132.294,127.50977 c -5.11224,-0.90807 -8.95017,-4.75034 -9.7745,-9.78558 -0.16855,-1.02954 -0.27626,-6.28937 -0.26956,-13.16393 l 0.0112,-11.449287 -0.79746,-1.670928 c -1.34973,-2.828108 -1.59679,-4.460672 -1.60113,-10.580105 -0.006,-8.655547 -0.56587,-8.195223 10.18253,-8.374361 l 7.9375,-0.132292 0.1458,-4.365625 c 0.13475,-4.034885 0.20089,-4.485894 0.87299,-5.953125 0.94264,-2.057805 2.74146,-3.87029 4.77284,-4.80909 l 1.61671,-0.747159 h 7.41312 7.41312 l 1.75268,0.862458 c 2.04051,1.004099 3.43964,2.438487 4.4184,4.529747 0.63904,1.365403 0.70685,1.843847 0.829511,5.852586 l 0.13358,4.365625 7.852592,0.132291 c 7.406762,0.12478 7.89404,0.163264 8.58261,0.677807 1.7673,1.320639 1.813224,1.497425 1.903058,7.326318 0.09379,6.085596 -0.196083,8.012056 -1.697538,11.281573 l -0.898014,1.95549 v 11.813397 c 0,12.71536 -0.06144,13.40744 -1.429988,16.10814 -1.491224,2.94279 -4.749491,5.41678 -8.041889,6.10619 -1.642737,0.34397 -39.401252,0.36212 -41.328122,0.0199 z m 22.42586,-18.77485 c 1.77752,-1.08377 1.91371,-1.62565 1.91482,-7.61844 l 0.001,-5.368061 -0.99219,-1.0619 c -1.12126,-1.200047 -2.43248,-1.630426 -3.93493,-1.291569 -1.21877,0.274878 -2.68268,1.684147 -3.00605,2.893838 -0.33769,1.263287 -0.31598,8.610792 0.0293,9.931162 0.29185,1.11592 1.3269,2.41896 2.21528,2.78885 0.98702,0.41095 2.87423,0.27395 3.77273,-0.27388 z m 4.3632,-36.690812 c 0.10914,-0.06541 0.19844,-1.62057 0.19844,-3.455916 0,-2.733807 -0.0791,-3.424449 -0.43788,-3.820842 -0.3991,-0.441002 -0.9568,-0.483854 -6.29709,-0.483854 -4.20437,0 -5.94887,0.08967 -6.1767,0.3175 -0.35517,0.355176 -0.46332,7.381927 -0.11906,7.735757 0.20092,0.206494 12.46616,-0.07322 12.83229,-0.292645 z"
         id="path1544" />
      <path
         style="fill:#57696d;stroke-width:1"
         d="m -122.50442,127.52602 c -10.30141,-0.13912 -10.77187,-0.16755 -12.17083,-0.73549 -2.93217,-1.19037 -5.48685,-3.74452 -6.68134,-6.67995 -0.57776,-1.41983 -0.5954,-1.76725 -0.72572,-14.2875 l -0.13356,-12.832294 -0.86553,-1.744678 c -1.39366,-2.809256 -1.68932,-4.844518 -1.59653,-10.990138 0.0744,-4.925184 0.12451,-5.411501 0.62878,-6.098172 1.17464,-1.599509 1.60286,-1.671357 9.96417,-1.671809 l 7.60173,-4.1e-4 0.13031,-0.595313 c 0.0717,-0.327422 0.16324,-2.440781 0.20348,-4.696354 l 0.0732,-4.101041 0.90173,-1.662964 c 1.02788,-1.89563 2.09206,-2.926201 4.06898,-3.940469 1.30751,-0.670832 1.66843,-0.719938 6.93554,-0.943661 7.92735,-0.336718 9.47408,-0.228287 11.58793,0.812358 2.00379,0.98646 3.408196,2.432121 4.383596,4.512358 0.648991,1.384099 0.70345,1.788896 0.787238,5.851723 0.06048,2.932465 0.190715,4.428834 0.396875,4.560012 0.168773,0.107386 3.70014,0.197517 7.847484,0.200289 10.546354,0.007 10.054166,-0.404212 10.054166,8.401 0,6.33313 -0.189069,7.589368 -1.5977,10.61562 l -0.78355,1.683353 v 11.95325 c 0,12.86692 -0.05955,13.54356 -1.429988,16.24798 -1.491224,2.94279 -4.749491,5.41678 -8.041889,6.10619 -1.453988,0.30445 -10.870372,0.31523 -31.538542,0.0361 z m 12.63628,-18.7911 c 1.77884,-1.08457 1.91371,-1.62292 1.91482,-7.64301 l 0.001,-5.392627 -1.12448,-1.118769 c -1.98365,-1.973572 -4.5721,-1.830639 -6.23265,0.344159 -0.69735,0.913326 -0.71458,1.027639 -0.80169,5.320577 -0.10668,5.25743 0.14871,6.74319 1.35519,7.8838 1.03254,0.97616 1.31339,1.08631 2.83488,1.11173 0.75194,0.0126 1.50834,-0.17381 2.05293,-0.50586 z m 4.14312,-36.409941 c 0.35247,-0.135255 0.41852,-0.713359 0.41852,-3.663159 0,-3.003258 -0.066,-3.560982 -0.46302,-3.912388 -0.3708,-0.3282 -1.57928,-0.447778 -6.06727,-0.60035 l -5.60424,-0.190521 -0.67961,0.679609 c -0.65402,0.654012 -0.67961,0.798816 -0.67961,3.844993 0,1.740961 0.0723,3.353718 0.1606,3.5839 0.14009,0.36507 0.94824,0.418516 6.32836,0.418516 3.39227,0 6.35609,-0.07227 6.58627,-0.1606 z"
         id="path1542" />
      <path
         style="fill:#1c6c85;stroke-width:1"
         d="m -133.22004,127.14949 c -4.29,-1.07743 -7.65521,-4.54952 -8.56582,-8.83787 -0.19502,-0.91844 -0.29772,-5.44954 -0.29772,-13.13556 V 93.442583 l -0.92843,-1.954998 c -1.47047,-3.096398 -1.75934,-5.04399 -1.66592,-11.231615 0.0744,-4.925184 0.12451,-5.411501 0.62878,-6.098172 1.17464,-1.599509 1.60286,-1.671357 9.96417,-1.671809 l 7.60173,-4.1e-4 0.13001,-0.595313 c 0.0715,-0.327422 0.16344,-2.38125 0.20429,-4.564062 0.0684,-3.654057 0.12979,-4.087241 0.77409,-5.463107 0.89092,-1.902527 2.51528,-3.527185 4.4188,-4.419619 l 1.49435,-0.700607 h 7.54619 7.54619 l 1.75774,0.865331 c 2.0138,0.991391 3.175752,2.188306 4.156901,4.281971 0.632796,1.350322 0.698201,1.825813 0.820502,5.965197 l 0.132895,4.497917 8.131966,0.132292 8.131965,0.132291 0.996159,0.996021 0.996159,0.996019 0.08142,5.603123 c 0.09251,6.366246 -0.173879,8.199337 -1.608656,11.06941 l -0.854017,1.708343 -0.135652,12.832294 c -0.133908,12.66724 -0.143547,12.85136 -0.74945,14.31478 -1.232176,2.97603 -3.606366,5.33386 -6.691551,6.64544 l -1.41918,0.60332 -20.637491,0.0476 c -15.81435,0.0365 -20.94668,-0.0301 -21.96042,-0.28469 z m 23.27794,-18.2273 c 0.59038,-0.33438 1.31492,-1.05892 1.64929,-1.6493 0.56068,-0.98995 0.59661,-1.35527 0.60071,-6.10704 0.004,-4.822555 -0.0232,-5.094999 -0.59726,-5.946828 -0.33088,-0.491001 -1.01549,-1.174057 -1.52135,-1.517904 -1.87792,-1.276472 -4.86618,-0.304432 -5.92525,1.927402 -0.38511,0.811546 -0.43801,1.68216 -0.36797,6.05565 0.0813,5.07549 0.0863,5.11373 0.79079,6.03652 1.37676,1.80337 3.47831,2.27348 5.37104,1.2015 z m 4.842,-40.115248 c 0.10619,-5.081593 0.52723,-4.78803 -6.8671,-4.78803 -7.28348,0 -6.83305,-0.286353 -6.83305,4.343985 0,1.807109 0.073,3.476 0.16232,3.708646 0.1438,0.374726 0.92126,0.414935 6.81302,0.352369 l 6.6507,-0.07063 z"
         id="path1540" />
      <path
         style="fill:#015d7b;stroke-width:1"
         d="m -132.14052,127.22993 c -3.60456,-0.5348 -7.09948,-3.1226 -8.62377,-6.38544 -1.1929,-2.55349 -1.34557,-4.51088 -1.30577,-16.7412 l 0.0362,-11.112504 -0.82342,-1.742959 c -1.30348,-2.759096 -1.59787,-4.724103 -1.60194,-10.692457 -0.003,-4.777798 0.0463,-5.373531 0.51042,-6.134677 0.917,-1.503918 1.04977,-1.526852 9.67046,-1.670531 l 7.9375,-0.132292 0.16484,-4.365625 c 0.13757,-3.643389 0.26467,-4.626898 0.76829,-5.944924 0.80505,-2.106895 2.75807,-4.07005 4.8959,-4.921293 1.52652,-0.607835 1.82259,-0.629088 8.85968,-0.636003 l 7.28038,-0.0072 1.75896,0.865331 c 2.01479,0.991185 3.176702,2.187705 4.158131,4.281971 0.632796,1.350322 0.698201,1.825813 0.820502,5.965197 l 0.132895,4.497917 7.805208,0.132292 c 8.899644,0.150841 9.164957,0.208819 10.069147,2.200359 0.432898,0.95349 0.502089,1.748772 0.499144,5.73714 -0.0041,5.508852 -0.39652,8.06182 -1.618252,10.526987 l -0.880248,1.776138 -0.135511,12.964583 c -0.133866,12.80698 -0.142976,12.9826 -0.749451,14.44707 -1.232554,2.97626 -3.606596,5.3339 -6.691691,6.64544 l -1.41918,0.60332 -19.976044,0.0379 c -10.98682,0.0208 -20.68088,-0.0667 -21.54235,-0.19454 z m 22.19842,-18.30774 c 0.59038,-0.33438 1.31492,-1.05892 1.64929,-1.6493 0.56068,-0.98995 0.59661,-1.35527 0.60071,-6.10704 0.004,-4.809464 -0.0245,-5.096439 -0.59096,-5.928797 -1.18915,-1.747223 -3.22512,-2.6118 -4.97121,-2.111028 -1.22489,0.351293 -2.59129,1.760455 -2.93125,3.022997 -0.40896,1.51874 -0.0436,10.055028 0.47852,11.179918 0.35918,0.77385 1.1938,1.52603 2.19842,1.98127 0.84069,0.38095 2.53403,0.19672 3.56648,-0.38802 z m 4.70175,-36.611795 c 0.10914,-0.06635 0.19843,-1.683506 0.19843,-3.593692 0,-4.9897 0.43314,-4.697791 -6.9706,-4.697791 -5.04429,0 -5.88451,0.05836 -6.30388,0.437883 -0.42541,0.38499 -0.48385,0.891003 -0.48385,4.189235 0,2.063245 0.0893,3.843874 0.19844,3.956952 0.20157,0.208849 12.99752,-0.07135 13.36146,-0.292587 z"
         id="path1538" />
      <path
         style="fill:#00445d;stroke-width:1"
         d="m -122.769,127.26968 c -10.04056,-0.14185 -10.5082,-0.17095 -11.90625,-0.74107 -2.08306,-0.84947 -3.93866,-2.34903 -5.1646,-4.17364 -1.98055,-2.94774 -1.97915,-2.93629 -1.97915,-16.23175 V 94.31329 l 2.19091,2.116873 c 2.4688,2.385377 4.53359,3.548081 7.77146,4.376187 1.75188,0.44806 2.93901,0.51881 8.70477,0.51881 5.84379,0 6.69627,0.0522 6.83684,0.41852 0.0883,0.23018 0.1606,1.37304 0.1606,2.5397 0,1.409 0.14421,2.42507 0.4295,3.02627 1.38276,2.91397 5.77321,2.89225 7.43211,-0.0368 0.55974,-0.9883 0.59662,-1.35829 0.60071,-6.02701 0.005,-5.321971 -0.0901,-5.796782 -1.40063,-7.020876 -0.36384,-0.339829 -1.11929,-0.775214 -1.67879,-0.967526 l -1.01727,-0.349658 -0.0693,-10.073001 -0.0693,-10.073 0.59845,-0.138832 c 0.32915,-0.07636 1.84861,-0.168277 3.37658,-0.204266 l 2.77812,-0.06543 0.0741,-3.546345 c 0.10355,-4.955225 0.48937,-4.65872 -6.36762,-4.893588 -6.07413,-0.208055 -6.86044,-0.07661 -7.31334,1.222566 -0.15607,0.447722 -0.28377,2.225024 -0.28377,3.949557 v 3.135518 h -3.43959 -3.43958 v -4.058991 c 0,-2.664748 0.12391,-4.470709 0.36073,-5.257606 0.75367,-2.50425 2.92031,-4.73627 5.47118,-5.636269 0.81194,-0.28647 2.86963,-0.397223 8.40343,-0.45231 l 7.3282,-0.07295 1.7633,0.865331 c 2.01828,0.990459 3.180044,2.185581 4.162471,4.281971 0.632796,1.350322 0.698201,1.825813 0.820502,5.965197 l 0.132895,4.497917 7.805208,0.132292 c 10.943603,0.185483 10.452787,-0.206047 10.447789,8.334374 -0.0036,6.118479 -0.190449,7.343886 -1.553397,10.186458 l -0.824601,1.719792 -0.135511,12.964585 c -0.133866,12.80698 -0.142976,12.9826 -0.749451,14.44707 -1.232596,2.97637 -3.606922,5.33422 -6.691691,6.64527 -1.397582,0.59398 -1.584261,0.6034 -12.267094,0.61868 -5.96636,0.009 -15.55089,-0.0509 -21.29896,-0.13213 z"
         id="path1536" />
      <path
         style="fill:#0a3849;stroke-width:1"
         d="m -111.99567,127.35613 c -0.1045,-0.1045 -0.19,-4.15875 -0.19,-9.00944 v -8.81945 l 0.59532,-0.004 c 1.01018,-0.007 2.66809,-1.13863 3.29754,-2.25 0.51101,-0.90226 0.59698,-1.44329 0.60071,-3.78054 0.002,-1.50017 0.099,-2.66908 0.21472,-2.59757 0.1157,0.0715 3.41969,0.15287 7.34218,0.18081 6.704575,0.0477 7.242777,0.0157 8.983908,-0.53468 2.821244,-0.891838 5.084431,-2.273444 7.239767,-4.419652 1.071456,-1.066919 1.999728,-1.93985 2.062829,-1.93985 0.0631,0 0.0787,5.50664 0.03468,12.236982 -0.07928,12.11921 -0.08598,12.25124 -0.695613,13.71946 -1.237078,2.97932 -3.610261,5.33536 -6.693313,6.64495 -1.385525,0.58852 -1.670365,0.60472 -12.010958,0.68307 -5.82547,0.0441 -10.67727,-0.005 -10.78177,-0.10974 z m 7.13746,-55.039618 c -0.10104,-0.101041 -0.18371,-1.750456 -0.18371,-3.665368 0,-4.576069 -0.005,-4.58186 -4.10792,-4.688826 l -2.90353,-0.0757 v -3.571875 -3.571875 h 3.83645 c 3.57954,0 3.93472,0.04609 5.30374,0.688211 2.09349,0.981928 3.290522,2.143784 4.281974,4.156151 l 0.865331,1.756381 v 4.504838 4.504835 l -3.454315,0.07347 c -1.89987,0.04041 -3.53698,-0.0092 -3.63802,-0.110242 z"
         id="path1534" />
      <path
         style="fill:#002b3b;stroke-width:1"
         d="m -111.6565,118.5441 v -8.71023 l 0.8134,-0.17865 c 1.04799,-0.23018 2.60515,-1.60051 3.06247,-2.69503 0.20545,-0.49171 0.35746,-1.81553 0.35746,-3.11299 v -2.25746 h 6.70456 c 5.759651,0 6.986204,-0.072 8.703072,-0.51113 3.485473,-0.89144 6.338927,-2.593587 8.867891,-5.2899 l 1.124479,-1.198891 v 11.413891 c 0,10.43649 -0.04269,11.55104 -0.498475,13.01549 -1.241652,3.98944 -4.15454,6.82141 -8.100483,7.87546 -0.990115,0.26449 -3.802274,0.35418 -11.178644,0.35653 l -9.85573,0.003 z m 6.87917,-50.039297 c 0,-3.311895 -0.0263,-3.4779 -0.64944,-4.101041 -0.6074,-0.607409 -0.82997,-0.649433 -3.43958,-0.649433 h -2.79015 v -3.464956 -3.464955 l 3.63802,0.09152 c 3.3403,0.08403 3.76017,0.151505 5.13067,0.824538 1.7432,0.856061 3.477872,2.629904 4.283163,4.379876 0.492488,1.070226 0.581607,1.817081 0.660646,5.536583 l 0.09136,4.299479 h -3.462349 -3.46234 z"
         id="path1532" />
    </g>
  </g>
</svg>
