<?xml version="1.0" encoding="UTF-8" standalone="no"?>
<!-- Generator: Adobe Illustrator 19.0.0, SVG Export Plug-In . SVG Version: 6.00 Build 0)  -->

<svg
   version="1.1"
   id="Layer_1"
   x="0px"
   y="0px"
   viewBox="0 0 544.25482 499.38815"
   xml:space="preserve"
   sodipodi:docname="portfolio_78401.svg"
   width="544.25482"
   height="499.38815"
   inkscape:version="1.1.1 (3bf5ae0d25, 2021-09-20)"
   xmlns:inkscape="http://www.inkscape.org/namespaces/inkscape"
   xmlns:sodipodi="http://sodipodi.sourceforge.net/DTD/sodipodi-0.dtd"
   xmlns="http://www.w3.org/2000/svg"
   xmlns:svg="http://www.w3.org/2000/svg"><defs
   id="defs63" /><sodipodi:namedview
   id="namedview61"
   pagecolor="#ffffff"
   bordercolor="#666666"
   borderopacity="1.0"
   inkscape:pageshadow="2"
   inkscape:pageopacity="0.0"
   inkscape:pagecheckerboard="0"
   showgrid="false"
   inkscape:zoom="0.8125"
   inkscape:cx="526.50229"
   inkscape:cy="396.48703"
   inkscape:window-width="2560"
   inkscape:window-height="1017"
   inkscape:window-x="-8"
   inkscape:window-y="-8"
   inkscape:window-maximized="1"
   inkscape:current-layer="Layer_1" />

<rect
   style="fill:#e1effa;fill-opacity:1;stroke-width:0.6;paint-order:markers stroke fill"
   id="rect946"
   width="544.25482"
   height="499.38815"
   x="0"
   y="0" /><path
   style="fill:#bcd4e8"
   d="m 527.87209,271.72732 -120.82,-120.799 c -0.33,-0.366 -0.694,-0.73 -1.06,-1.06 -1.318,-1.096 -3.036,-1.756 -4.902,-1.756 h -63.524 l -23.404,-23.406 c -3.51,-3.515 -8.192,-5.45 -13.166,-5.45 h -51.346 c -4.972,0 -9.656,1.935 -13.169,5.45 -3.512,3.51 -5.445,8.159 -5.445,13.166 v 10.24 h -81.518 c -4.204,0 -7.68,3.471 -7.68,7.718 v 80.858 c 0,3.331 2.156,6.216 5.12,7.24 v 75.633 13.381 c 0,1.789 0.617,3.441 1.644,4.754 0.036,0.041 0.077,0.113 0.113,0.148 l 1.062,1.06 c 0.036,0.036 0.108,0.077 0.143,0.113 l 146.038,146.038 c 117.781,-9.409 213.052,-98.461 231.914,-213.328 z"
   id="path4" />
<path
   style="fill:#5d6d7e"
   d="m 403.66609,332.95432 c 0,4.229 -3.461,7.706 -7.688,7.706 h -241.316 c -4.227,0 -7.69,-3.474 -7.69,-7.706 v -134.341 c 0,-4.239 3.464,-7.708 7.69,-7.708 h 241.316 c 4.227,0 7.688,3.469 7.688,7.708 z"
   id="path6" />
<path
   style="fill:#283a4d"
   d="m 154.66209,336.81232 c -2.115,0 -3.84,-1.743 -3.84,-3.858 v -134.341 c 0,-2.125 1.728,-3.853 3.84,-3.853 h 241.316 c 2.115,0 3.843,1.728 3.843,3.853 v 134.344 c 0,2.115 -1.728,3.858 -3.843,3.858 h -241.316 z"
   id="path8" />
<path
   style="fill:#e1effa"
   d="m 390.67609,333.58632 h -7.775 v -1.27 h 7.775 z m -15.552,0 h -7.78 v -1.27 h 7.78 z m -15.565,0 h -7.78 v -1.27 h 7.78 z m -15.559,0 h -7.775 v -1.27 h 7.775 z m -15.55,0 h -7.782 v -1.27 h 7.782 z m -15.562,0 h -7.79 v -1.27 h 7.79 z m -15.565,0 h -7.772 v -1.27 h 7.772 z m -15.549,0 h -7.782 v -1.27 h 7.782 z m -15.562,0 h -7.785 v -1.27 h 7.785 z m -15.565,0 h -7.772 v -1.27 h 7.772 z m -15.555,0 h -7.775 v -1.27 h 7.775 z m -15.554,0 h -7.785 v -1.27 h 7.785 z m -15.563,0 h -7.777 v -1.27 h 7.777 z m -15.552,0 h -7.782 v -1.27 h 7.782 z m -15.562,0 h -7.785 v -1.27 h 7.785 z m -15.565,0 h -0.061 c -1.769,0 -3.2,-1.426 -3.2,-3.21 v -3.735 h 1.283 v 3.735 c 0,1.062 0.855,1.94 1.917,1.94 z m 239.307,-4.234 h -1.277 v -7.759 h 1.277 z m -241.286,-10.491 h -1.283 v -7.788 h 1.283 z m 241.286,-5.051 h -1.277 v -7.78 h 1.277 z m -241.286,-10.521 h -1.283 v -7.767 h 1.283 z m 241.286,-5.049 h -1.277 v -7.775 h 1.277 z m -241.286,-10.501 h -1.283 v -7.767 h 1.283 z m 241.286,-5.053 h -1.277 v -7.775 h 1.277 z m -241.286,-10.501 h -1.283 v -7.79 h 1.283 z m 241.286,-5.056 h -1.277 v -7.78 h 1.277 z m -241.286,-10.501 h -1.283 v -7.78 h 1.283 z m 241.286,-5.056 h -1.277 v -7.782 h 1.277 z m -241.286,-10.514 h -1.283 v -7.767 h 1.283 z m 241.286,-5.051 h -1.277 v -7.775 h 1.277 z m -241.286,-10.499 h -1.283 v -7.79 h 1.283 z m 241.286,-5.061 h -1.277 v -7.78 h 1.277 z m -241.286,-10.496 h -1.283 v -7.775 h 1.283 z m 241.286,-5.056 h -1.277 v -3.72 c 0,-1.065 -0.865,-1.928 -1.925,-1.928 l -0.026,-1.277 h 0.026 c 1.769,0 3.203,1.441 3.203,3.205 z m -11.014,-5.647 h -7.782 v -1.277 h 7.782 z m -15.562,0 h -7.775 v -1.277 h 7.775 z m -15.552,0 h -7.772 v -1.277 h 7.772 z m -15.559,0 h -7.777 v -1.277 h 7.777 z m -15.565,0 h -7.772 v -1.277 h 7.772 z m -15.552,0 h -7.78 v -1.277 h 7.78 z m -15.563,0 h -7.78 v -1.277 h 7.78 z m -15.562,0 h -7.777 v -1.277 h 7.777 z m -15.547,0 h -7.782 v -1.277 h 7.782 z m -15.564,0 h -7.775 v -1.277 h 7.775 z m -15.563,0 h -7.775 v -1.277 h 7.775 z m -15.552,0 h -7.78 v -1.277 h 7.78 z m -15.554,0 h -7.788 v -1.277 h 7.788 z m -15.57,0 h -7.777 v -1.277 h 7.777 z m -15.542,0 h -7.788 v -1.277 h 7.788 z"
   id="path10" />
<path
   style="fill:#5d6d7e"
   d="m 408.80409,236.69032 c 0,4.227 -3.464,7.698 -7.698,7.698 h -251.569 c -4.239,0 -7.706,-3.469 -7.706,-7.698 v -80.868 c 0,-4.227 3.466,-7.703 7.706,-7.703 h 251.569 c 4.234,0 7.698,3.476 7.698,7.703 z"
   id="path12" />
<path
   style="fill:#34495e"
   d="m 149.53709,240.53332 c -2.13,0 -3.845,-1.723 -3.845,-3.843 v -80.868 c 0,-2.122 1.715,-3.848 3.845,-3.848 h 251.569 c 2.12,0 3.84,1.728 3.84,3.848 v 80.865 c 0,2.12 -1.72,3.843 -3.84,3.843 h -251.569 z"
   id="path14" />
<path
   style="fill:#e1effa"
   d="m 397.88809,237.33532 h -7.675 v -1.285 h 7.675 z m -15.36,0 h -7.667 v -1.285 h 7.667 z m -15.36,0 h -7.667 v -1.285 h 7.667 z m -15.353,0 h -7.675 v -1.285 h 7.675 z m -15.365,0 h -7.67 v -1.285 h 7.67 z m -15.344,0 h -7.686 v -1.285 h 7.685 v 1.285 z m -15.358,0 h -7.688 v -1.285 h 7.688 z m -15.355,0 h -7.685 v -1.285 h 7.685 z m -15.367,0 h -7.677 v -1.285 h 7.677 z m -15.353,0 h -7.683 v -1.285 h 7.683 z m -15.36,0 h -7.672 v -1.285 h 7.672 z m -15.36,0 h -7.675 v -1.285 h 7.677 v 1.285 z m -15.352,0 h -7.677 v -1.285 h 7.677 z m -15.363,0 h -7.677 v -1.285 h 7.677 z m -15.357,0 h -7.677 v -1.285 h 7.677 z m -15.363,0 h -7.672 v -1.285 h 7.672 z m -15.347,0 h -0.072 c -1.761,0 -3.205,-1.439 -3.205,-3.215 v -3.651 h 1.28 v 3.651 c 0,1.06 0.855,1.93 1.923,1.93 z m 249.572,-6.215 h -1.28 v -7.683 h 1.28 z m -251.569,-8.323 h -1.28 v -7.683 h 1.28 z m 251.569,-7.045 h -1.28 v -7.677 h 1.28 z m -251.569,-8.322 h -1.28 v -7.677 h 1.28 z m 251.569,-7.03 h -1.28 v -7.68 h 1.28 z m -251.569,-8.323 h -1.28 v -7.677 h 1.28 z m 251.569,-7.032 h -1.28 v -7.672 h 1.28 z m -251.569,-8.32 h -1.28 v -7.677 h 1.28 z m 251.569,-7.035 h -1.28 v -7.68 h 1.28 z m -251.569,-8.325 h -1.28 v -2.972 c 0,-1.772 1.441,-3.208 3.205,-3.208 h 0.681 v 1.277 h -0.681 c -1.068,0 -1.923,0.87 -1.923,1.93 v 2.972 h -0.002 z m 248.323,-4.902 h -7.675 v -1.277 h 7.675 z m -15.352,0 h -7.683 v -1.277 h 7.683 z m -15.353,0 h -7.69 v -1.277 h 7.69 z m -15.357,0 h -7.685 v -1.277 h 7.685 z m -15.36,0 h -7.685 v -1.277 h 7.685 z m -15.363,0 h -7.688 v -1.277 h 7.688 z m -15.357,0 h -7.675 v -1.277 h 7.675 z m -15.36,0 h -7.667 v -1.277 h 7.667 z m -15.358,0 h -7.67 v -1.277 h 7.67 z m -15.36,0 h -7.67 v -1.277 h 7.67 z m -15.354,0 h -7.677 v -1.277 h 7.677 z m -15.353,0 h -7.683 v -1.277 h 7.683 z m -15.355,0 h -7.685 v -1.277 h 7.685 z m -15.362,0 h -7.683 v -1.277 h 7.683 z m -15.353,0 h -7.683 v -1.277 h 7.683 z m -15.36,0 h -7.683 v -1.277 h 7.683 z"
   id="path16" />
<g
   id="g26"
   transform="translate(19.320091,-26.044682)">
	<path
   style="fill:#ffffff"
   d="m 213.335,251.699 c -0.346,-0.351 -0.745,-0.525 -1.16,-0.525 H 193.5 c -0.461,0 -0.863,0.172 -1.208,0.525 -0.294,0.282 -0.468,0.75 -0.468,1.152 v 35.208 c 0,0.399 0.172,0.765 0.468,1.096 0.166,0.182 0.343,0.302 0.576,0.422 0.172,0.051 0.404,0.105 0.632,0.105 h 18.675 c 0.182,0 0.415,-0.054 0.584,-0.105 0.23,-0.12 0.407,-0.241 0.576,-0.422 0.297,-0.33 0.463,-0.694 0.463,-1.096 v -35.208 c 0,-0.399 -0.166,-0.87 -0.463,-1.152 z m -3.817,32.185 h -13.407 v -5.212 h 13.407 z"
   id="path18" />
	<path
   style="fill:#e1effa"
   d="m 191.826,270.433 v 17.628 c 0,0.399 0.172,0.765 0.468,1.096 v 0.069 c 0.166,0.113 0.343,0.233 0.576,0.353 0.172,0.051 0.404,0.105 0.632,0.105 h 18.675 c 0.182,0 0.415,-0.054 0.584,-0.105 0.23,-0.12 0.407,-0.241 0.576,-0.353 v -0.069 c 0.297,-0.33 0.463,-0.694 0.463,-1.096 v -17.628 z m 17.692,13.451 h -13.407 v -5.212 h 13.407 z"
   id="path20" />
	<path
   style="fill:#ffffff"
   d="m 319.703,251.699 c -0.34,-0.351 -0.74,-0.525 -1.157,-0.525 h -18.673 c -0.461,0 -0.863,0.172 -1.208,0.525 -0.294,0.282 -0.468,0.75 -0.468,1.152 v 35.208 c 0,0.399 0.172,0.765 0.468,1.096 0.164,0.182 0.346,0.302 0.579,0.422 0.169,0.051 0.399,0.105 0.63,0.105 h 18.673 c 0.184,0 0.417,-0.054 0.584,-0.105 0.236,-0.12 0.41,-0.241 0.576,-0.422 0.3,-0.33 0.468,-0.694 0.468,-1.096 v -35.208 c -0.006,-0.399 -0.172,-0.87 -0.472,-1.152 z m -3.817,32.185 h -13.404 v -5.212 h 13.404 z"
   id="path22" />
	<path
   style="fill:#e1effa"
   d="m 298.196,270.433 v 17.628 c 0,0.399 0.172,0.765 0.468,1.096 v 0.069 c 0.164,0.113 0.346,0.233 0.579,0.353 0.169,0.051 0.399,0.105 0.63,0.105 h 18.673 c 0.184,0 0.417,-0.054 0.584,-0.105 0.236,-0.12 0.41,-0.241 0.576,-0.353 v -0.069 c 0.3,-0.33 0.468,-0.694 0.468,-1.096 v -17.628 z m 17.69,13.451 h -13.404 v -5.212 h 13.404 z"
   id="path24" />
</g>
<path
   style="fill:#34495e"
   d="m 319.60509,148.11932 h -11.558 v -10.258 c 0,-1.892 -0.73,-3.666 -2.066,-5.002 -1.339,-1.336 -3.103,-2.068 -4.992,-2.068 h -51.341 c -1.889,0 -3.648,0.73 -4.997,2.068 -1.329,1.334 -2.058,3.108 -2.058,5.002 v 10.258 h -11.556 v -10.258 c 0,-4.984 1.94,-9.646 5.453,-13.161 3.52,-3.51 8.189,-5.45 13.158,-5.45 h 51.343 c 4.972,0 9.646,1.94 13.161,5.45 3.51,3.515 5.455,8.177 5.455,13.161 v 10.258 z"
   id="path28" />
<g
   id="g30"
   transform="translate(19.320091,-26.044682)">
</g>
<g
   id="g32"
   transform="translate(19.320091,-26.044682)">
</g>
<g
   id="g34"
   transform="translate(19.320091,-26.044682)">
</g>
<g
   id="g36"
   transform="translate(19.320091,-26.044682)">
</g>
<g
   id="g38"
   transform="translate(19.320091,-26.044682)">
</g>
<g
   id="g40"
   transform="translate(19.320091,-26.044682)">
</g>
<g
   id="g42"
   transform="translate(19.320091,-26.044682)">
</g>
<g
   id="g44"
   transform="translate(19.320091,-26.044682)">
</g>
<g
   id="g46"
   transform="translate(19.320091,-26.044682)">
</g>
<g
   id="g48"
   transform="translate(19.320091,-26.044682)">
</g>
<g
   id="g50"
   transform="translate(19.320091,-26.044682)">
</g>
<g
   id="g52"
   transform="translate(19.320091,-26.044682)">
</g>
<g
   id="g54"
   transform="translate(19.320091,-26.044682)">
</g>
<g
   id="g56"
   transform="translate(19.320091,-26.044682)">
</g>
<g
   id="g58"
   transform="translate(19.320091,-26.044682)">
</g>
</svg>
