<svg xmlns="http://www.w3.org/2000/svg" width="68.637" height="84" viewBox="0 0 68.637 84"><defs><style>.a{fill:#3b86ff;}</style></defs><g transform="translate(-168 -256)"><path class="a" d="M191.792,93.171h.643a3.507,3.507,0,0,0,3.481,3.108h2.376a3.507,3.507,0,0,0,3.5-3.5V90.284a.223.223,0,0,1,.224-.221h2.516a.223.223,0,0,1,.224.221v2.493a.223.223,0,0,1-.224.221h-.23a1.641,1.641,0,0,0,0,3.281h.23a3.508,3.508,0,0,0,3.481-3.108h.642a1.641,1.641,0,0,0,0-3.281h-.642a3.508,3.508,0,0,0-3.481-3.108h-2.516a3.508,3.508,0,0,0-3.5,3.5v2.493a.222.222,0,0,1-.223.221h-2.376a.222.222,0,0,1-.223-.221V90.284a.222.222,0,0,1,.223-.221,1.641,1.641,0,0,0,0-3.281,3.507,3.507,0,0,0-3.481,3.108h-.642a1.641,1.641,0,0,0,0,3.281Zm0,0" transform="translate(9.045 183.456)"/><path class="a" d="M67.241,53.226,57.858,40.659v-15.8c0-.007,0-.013,0-.021V15.916h5.974a4.137,4.137,0,0,0,4.133-4.132V4.131A4.137,4.137,0,0,0,63.832,0H19.206a4.136,4.136,0,0,0-4.132,4.131v7.653a4.136,4.136,0,0,0,4.132,4.132h5.476V33.231L16.555,24.55a1.64,1.64,0,0,0-2.4,0L.443,39.2a1.64,1.64,0,0,0,1.2,2.761H7.849v5.415a1.641,1.641,0,0,0,3.281,0V40.32A1.641,1.641,0,0,0,9.49,38.68H5.425l9.932-10.608L25.288,38.68H20.725a1.641,1.641,0,0,0-1.641,1.641V62.053H11.13v-1.88a1.641,1.641,0,0,0-3.281,0v3.52A1.64,1.64,0,0,0,9.49,65.334H20.725a1.641,1.641,0,0,0,1.641-1.641V41.962h2.315v9.294A1.64,1.64,0,0,0,26.322,52.9h14.83V71.027h-2a1.641,1.641,0,0,0-1.641,1.641v9.691A1.64,1.64,0,0,0,39.153,84h23.92a1.641,1.641,0,0,0,1.641-1.641V72.669a1.641,1.641,0,0,0-1.641-1.641H61.309a3.748,3.748,0,0,1,.245-.652L67.78,60.83a1.686,1.686,0,0,0,.086-.147,7.116,7.116,0,0,0-.624-7.457ZM61.433,80.718H40.794V74.309H61.433ZM27.963,14.275V12.811a12.736,12.736,0,0,1,2.644-2.569H52.066a12.834,12.834,0,0,1,2.51,2.4V24.294c-2.772,3.518-7.789,5.683-13.24,5.683-5.561,0-10.631-2.232-13.373-5.856ZM54.571,49.614H52.247a4.317,4.317,0,0,1,2.324-2.324ZM51.9,52.9h2.67v3.581a1.335,1.335,0,0,1-2.67,0Zm-32.7-40.261a.851.851,0,0,1-.85-.85V4.131a.851.851,0,0,1,.85-.85H63.832a.852.852,0,0,1,.852.85v7.653a.852.852,0,0,1-.852.85H57.859V10.242h2.823a1.641,1.641,0,1,0,0-3.281H22.358a1.641,1.641,0,1,0,0,3.281h2.324v2.393Zm8.757,36.979V47.29a4.317,4.317,0,0,1,2.324,2.324Zm13.189,0H33.713a7.593,7.593,0,0,0-5.75-5.75v-1.9h1.109a1.64,1.64,0,0,0,1.2-2.762l-2.306-2.464V28.792a21.312,21.312,0,0,0,13.374,4.467A21.422,21.422,0,0,0,54.577,28.9V41.058c0,.046-.006.091-.006.137v2.669a7.536,7.536,0,0,0-2.693,1.187,5.376,5.376,0,0,0-5.351-4.874h0a5.38,5.38,0,0,0-5.374,5.374Zm23.829,9.5-6.226,9.546a1.669,1.669,0,0,0-.085.146,7.09,7.09,0,0,0-.708,2.22H44.433V45.552a2.093,2.093,0,0,1,4.187,0V56.476a4.616,4.616,0,1,0,9.232,0v-5.1c0-.039.006-.078.006-.117V46.143l6.754,9.046a3.813,3.813,0,0,1,.369,3.926Zm0,0" transform="translate(167.999 256)"/><path class="a" d="M47.988,320.335a1.64,1.64,0,1,0,.626-2.007A1.655,1.655,0,0,0,47.988,320.335Zm0,0" transform="translate(127.986 -9.887)"/></g></svg>