<?xml version="1.0" encoding="UTF-8" standalone="no"?>
<!-- Created with Inkscape (http://www.inkscape.org/) -->

<svg
   width="58.059669mm"
   height="57.989693mm"
   viewBox="0 0 58.05967 57.989692"
   version="1.1"
   id="svg5"
   xml:space="preserve"
   inkscape:version="1.2.2 (b0a8486541, 2022-12-01)"
   sodipodi:docname="prospeccao.svg"
   xmlns:inkscape="http://www.inkscape.org/namespaces/inkscape"
   xmlns:sodipodi="http://sodipodi.sourceforge.net/DTD/sodipodi-0.dtd"
   xmlns="http://www.w3.org/2000/svg"
   xmlns:svg="http://www.w3.org/2000/svg"><sodipodi:namedview
     id="namedview7"
     pagecolor="#ffffff"
     bordercolor="#000000"
     borderopacity="0.25"
     inkscape:showpageshadow="2"
     inkscape:pageopacity="0.0"
     inkscape:pagecheckerboard="0"
     inkscape:deskcolor="#d1d1d1"
     inkscape:document-units="mm"
     showgrid="false"
     inkscape:zoom="1.0645786"
     inkscape:cx="73.738095"
     inkscape:cy="144.65817"
     inkscape:window-width="1920"
     inkscape:window-height="1011"
     inkscape:window-x="0"
     inkscape:window-y="32"
     inkscape:window-maximized="1"
     inkscape:current-layer="g248" /><defs
     id="defs2" /><g
     inkscape:label="Layer 1"
     inkscape:groupmode="layer"
     id="layer1"
     transform="translate(-84.547666,-90.795027)"><g
       id="g248"
       transform="translate(3.4500034,0.25318356)"><path
         style="fill:#ffffff;stroke-width:0.264583;fill-opacity:1"
         d="m 135.15881,148.29328 c -0.43656,-0.20011 -8.11543,-7.69751 -17.06415,-16.6609 l -16.2704,-16.29706 2.04971,-2.04972 2.04972,-2.04971 16.29742,16.27041 c 9.84588,9.82955 16.4501,16.62165 16.68309,17.15771 0.48925,1.12564 0.26744,2.15598 -0.64939,3.01637 -0.90565,0.8499 -2.07426,1.08125 -3.096,0.6129 z M 81.180228,136.48935 c -0.237002,-0.74673 0.06259,-4.82569 0.562738,-7.66161 1.050957,-5.95914 3.491022,-11.38814 7.177309,-15.96909 l 1.459631,-1.81388 2.950991,2.94262 2.95099,2.94262 -2.7899,2.84001 c -4.43862,4.51835 -9.238906,11.35045 -10.905056,15.52084 -0.68233,1.70787 -1.125259,2.08525 -1.406703,1.19849 z m 12.91285,-23.34899 c -2.026746,-2.02675 -3.516553,-3.728 -3.516553,-4.01566 0,-0.48148 7.558815,-8.36802 8.530423,-8.90027 0.748049,-0.409782 1.685062,0.27367 5.029472,3.66851 2.2423,2.27609 3.10885,3.33412 3.10885,3.79576 0,0.92077 -8.065209,8.96821 -8.988013,8.96821 -0.478239,0 -1.567384,-0.91976 -4.164179,-3.51655 z m -3.33476,-8.07345 c -0.391028,-0.40814 -0.710959,-0.91695 -0.710959,-1.13069 0,-0.51636 3.999072,-4.477231 4.520414,-4.477231 0.224217,0 0.75233,0.359751 1.173585,0.799451 l 0.765919,0.79944 -2.364547,2.37556 c -1.300501,1.30655 -2.434051,2.37555 -2.519,2.37555 -0.08495,0 -0.474384,-0.33393 -0.865412,-0.74208 z m 13.817442,-2.32438 -2.94262,-2.950994 1.81388,-1.464151 c 3.30158,-2.665007 7.8532,-5.049743 11.92522,-6.247986 5.10474,-1.502136 13.50423,-2.110184 12.11145,-0.87676 -0.14431,0.127793 -0.91722,0.50234 -1.71758,0.832327 -4.20025,1.731742 -10.96246,6.501819 -15.40773,10.868654 l -2.84001,2.7899 z"
         id="path250" /></g></g></svg>
