<?xml version="1.0" encoding="UTF-8" standalone="no"?>
<!-- Created with Inkscape (http://www.inkscape.org/) -->

<svg
   width="126.73541mm"
   height="114.1677mm"
   viewBox="0 0 126.73541 114.1677"
   version="1.1"
   id="svg5"
   inkscape:version="1.1.1 (3bf5ae0d25, 2021-09-20)"
   sodipodi:docname="status-do-servico.svg"
   xmlns:inkscape="http://www.inkscape.org/namespaces/inkscape"
   xmlns:sodipodi="http://sodipodi.sourceforge.net/DTD/sodipodi-0.dtd"
   xmlns="http://www.w3.org/2000/svg"
   xmlns:svg="http://www.w3.org/2000/svg">
  <sodipodi:namedview
     id="namedview7"
     pagecolor="#ffffff"
     bordercolor="#666666"
     borderopacity="1.0"
     inkscape:pageshadow="2"
     inkscape:pageopacity="0.0"
     inkscape:pagecheckerboard="0"
     inkscape:document-units="mm"
     showgrid="false"
     inkscape:zoom="0.74118967"
     inkscape:cx="254.99546"
     inkscape:cy="364.95382"
     inkscape:window-width="2560"
     inkscape:window-height="1017"
     inkscape:window-x="-8"
     inkscape:window-y="-8"
     inkscape:window-maximized="1"
     inkscape:current-layer="g854" />
  <defs
     id="defs2" />
  <g
     inkscape:label="Camada 1"
     inkscape:groupmode="layer"
     id="layer1"
     transform="translate(-37.655131,-52.190307)">
    <g
       id="g854"
       transform="translate(-32.484378,9.9951923)">
      <path
         style="fill:#ffffff;stroke-width:0.264583"
         d="m 108.75665,155.71339 c -0.56564,-0.56563 -0.64944,-0.88805 -0.64944,-2.49878 0,-2.59215 0.44584,-3.06545 3.51842,-3.7352 5.28252,-1.15148 8.85847,-4.46539 9.35655,-8.67093 l 0.16191,-1.36708 -21.930411,-0.0721 -21.93042,-0.0721 -1.50155,-0.7039 c -2.1023,-0.98552 -3.7629,-2.61131 -4.78232,-4.68208 l -0.85988,-1.74668 V 90.7517 49.338865 l 0.7039,-1.501549 c 0.98551,-2.102274 2.61131,-3.762894 4.68205,-4.782323 l 1.74665,-0.859878 h 56.229531 56.22953 l 1.50155,0.703899 c 2.10228,0.985513 3.76289,2.61131 4.78232,4.682064 l 0.85988,1.74666 v 41.418416 41.418426 l -0.85988,1.74666 c -1.01943,2.07075 -2.68004,3.69655 -4.78232,4.68206 l -1.50155,0.7039 -21.93042,0.0721 -21.93042,0.0721 0.15839,1.33738 c 0.51017,4.3076 3.98763,7.52962 9.39972,8.70929 3.02871,0.66016 3.47877,1.14227 3.47877,3.72654 0,1.61073 -0.0838,1.93315 -0.64943,2.49878 l -0.64943,0.64943 h -24.10114 -24.10113 z m 26.89272,-22.77937 c 1.01922,-0.52706 2.03435,-1.83591 2.359,-3.04156 0.85245,-3.16576 -2.42168,-6.38914 -5.61605,-5.52899 -1.45098,0.39071 -2.97709,1.91682 -3.36779,3.3678 -1.0069,3.73933 3.14674,7.00135 6.62484,5.20275 z m 52.24174,-15.32063 0.64943,-0.64943 V 84.396155 51.828353 l -0.64943,-0.649432 -0.64943,-0.649431 H 133.40615 79.570619 l -0.54837,0.697139 c -0.548,0.696677 -0.54837,0.718718 -0.54837,33.169526 0,32.450815 3.7e-4,32.472855 0.54837,33.169535 l 0.54837,0.69714 h 53.835531 53.83553 z m -58.92208,-8.33602 c -0.53147,-0.2891 -1.19959,-0.91572 -1.48471,-1.39248 -0.28512,-0.47677 -2.69667,-6.78572 -5.35899,-14.019883 -2.66232,-7.234163 -4.9209,-13.103386 -5.01906,-13.042722 -0.0982,0.06067 -0.99247,1.430605 -1.98735,3.044309 -1.98087,3.212951 -3.1038,4.387982 -4.42636,4.631732 -0.47606,0.08774 -4.4587,0.123375 -8.85032,0.07919 -7.584861,-0.0763 -8.021331,-0.107646 -8.714901,-0.62584 -1.38816,-1.037148 -1.82117,-1.882526 -1.82117,-3.555526 0,-1.672942 0.43296,-2.518262 1.82106,-3.555527 0.68638,-0.512894 1.14073,-0.550222 7.598141,-0.624234 l 6.86811,-0.07872 3.84221,-5.809755 c 4.09849,-6.197279 4.75647,-6.865101 6.76391,-6.865101 1.08504,0 2.97891,0.909111 3.47196,1.66664 0.20846,0.320275 2.32208,5.880599 4.69693,12.356276 2.37485,6.475677 4.38705,11.854148 4.47155,11.952157 0.0845,0.09801 3.12152,-7.139886 6.74893,-16.084213 4.48097,-11.049005 6.81352,-16.482887 7.27604,-16.950139 0.81778,-0.826158 2.11035,-1.407387 3.12984,-1.407387 0.96166,0 2.65528,0.865148 3.20636,1.637906 0.23648,0.331594 2.16531,4.831452 4.2863,9.999683 l 3.85634,9.396785 6.90677,0.132291 c 6.44988,0.12354 6.95506,0.168379 7.63669,0.677807 1.38805,1.037384 1.82094,1.882643 1.82094,3.555527 0,1.673042 -0.43304,2.518457 -1.82124,3.555526 -0.6982,0.521597 -1.11761,0.548859 -9.56552,0.621768 -8.40603,0.07255 -8.88589,0.05045 -9.87626,-0.454795 -1.31797,-0.67238 -1.61507,-1.179999 -4.26925,-7.294374 -1.20021,-2.764896 -2.26071,-5.11438 -2.35666,-5.221078 -0.096,-0.106696 -3.02802,6.910929 -6.51569,15.594723 -3.48766,8.683788 -6.57933,16.142024 -6.87038,16.573834 -1.26516,1.8771 -3.59907,2.52019 -5.46422,1.50561 z"
         id="path856" />
    </g>
  </g>
</svg>
