<svg width="33" height="31" viewBox="0 0 33 31" fill="none" xmlns="http://www.w3.org/2000/svg">
<path d="M13.5833 7.04169C13.5833 4.27085 11.8333 1.79169 9.20834 0.916687V6.31252H4.83334V0.916687C2.20834 1.79169 0.458344 4.27085 0.458344 7.04169C0.458344 9.81252 2.20834 12.2917 4.83334 13.1667V29.2084C4.83334 29.7917 5.12501 30.0834 5.56251 30.0834H8.47918C8.91668 30.0834 9.20834 29.7917 9.20834 29.3542V13.3125C11.8333 12.4375 13.5833 9.95835 13.5833 7.04169ZM22.3333 9.66669C16.6458 9.81252 12.125 14.3334 12.125 19.875C12.125 25.5625 16.6458 30.0834 22.3333 30.0834C28.0208 30.0834 32.5417 25.5625 32.5417 19.875C32.5417 14.1875 28.0208 9.66669 22.3333 9.66669ZM22.3333 27.1667C18.25 27.1667 15.0417 23.9584 15.0417 19.875C15.0417 15.7917 18.25 12.5834 22.3333 12.5834C26.4167 12.5834 29.625 15.7917 29.625 19.875C29.625 23.9584 26.4167 27.1667 22.3333 27.1667ZM20.875 14.0417V21.3334L26.125 24.5417L27.2917 22.7917L23.0625 20.3125V14.0417H20.875Z" fill="white"/>
</svg>
