<svg width="30" height="30" viewBox="0 0 30 30" fill="none" xmlns="http://www.w3.org/2000/svg">
<g clip-path="url(#clip0_131_323)">
<path d="M25.6694 16.0149H23.3493C23.5858 16.6624 23.715 17.3611 23.715 18.0893V26.8579C23.715 27.1616 23.6621 27.453 23.566 27.7241H27.4016C28.8344 27.7241 30 26.5584 30 25.1257V20.3455C30.0001 17.9576 28.0573 16.0149 25.6694 16.0149Z" fill="white"/>
<path d="M6.28507 18.0893C6.28507 17.361 6.41427 16.6624 6.65076 16.0149H4.33067C1.94274 16.0149 0 17.9576 0 20.3456V25.1257C0 26.5584 1.16561 27.7241 2.5984 27.7241H6.43408C6.33792 27.4529 6.28507 27.1616 6.28507 26.8579V18.0893Z" fill="white"/>
<path d="M17.652 13.7587H12.348C9.96007 13.7587 8.01733 15.7014 8.01733 18.0893V26.8579C8.01733 27.3362 8.40511 27.724 8.88347 27.724H21.1166C21.5949 27.724 21.9827 27.3363 21.9827 26.8579V18.0893C21.9827 15.7014 20.04 13.7587 17.652 13.7587Z" fill="white"/>
<path d="M15 2.27576C12.1282 2.27576 9.79187 4.61213 9.79187 7.48399C9.79187 9.43194 10.867 11.1332 12.4548 12.0264C13.2079 12.4501 14.0761 12.6922 15 12.6922C15.924 12.6922 16.7922 12.4501 17.5453 12.0264C19.1331 11.1332 20.2082 9.43188 20.2082 7.48399C20.2082 4.61219 17.8718 2.27576 15 2.27576Z" fill="white"/>
<path d="M5.85456 7.13025C3.7068 7.13025 1.95953 8.87752 1.95953 11.0253C1.95953 13.173 3.7068 14.9203 5.85456 14.9203C6.39937 14.9203 6.91816 14.8075 7.38943 14.6046C8.20423 14.2538 8.87607 13.6328 9.29179 12.855C9.58359 12.3091 9.74959 11.6863 9.74959 11.0253C9.74959 8.87758 8.00232 7.13025 5.85456 7.13025Z" fill="white"/>
<path d="M24.1455 7.13025C21.9978 7.13025 20.2505 8.87752 20.2505 11.0253C20.2505 11.6863 20.4165 12.3091 20.7083 12.855C21.124 13.6329 21.7958 14.2539 22.6106 14.6046C23.0819 14.8075 23.6007 14.9203 24.1455 14.9203C26.2933 14.9203 28.0405 13.173 28.0405 11.0253C28.0405 8.87752 26.2933 7.13025 24.1455 7.13025Z" fill="white"/>
</g>
<defs>
<clipPath id="clip0_131_323">
<rect width="30" height="30" fill="white"/>
</clipPath>
</defs>
</svg>
