<?xml version="1.0" encoding="UTF-8" standalone="no"?>
<!-- Created with Inkscape (http://www.inkscape.org/) -->

<svg
   width="117.71754mm"
   height="117.71755mm"
   viewBox="0 0 117.71754 117.71755"
   version="1.1"
   id="svg5"
   inkscape:version="1.1.1 (3bf5ae0d25, 2021-09-20)"
   sodipodi:docname="c6pay.svg"
   xmlns:inkscape="http://www.inkscape.org/namespaces/inkscape"
   xmlns:sodipodi="http://sodipodi.sourceforge.net/DTD/sodipodi-0.dtd"
   xmlns="http://www.w3.org/2000/svg"
   xmlns:svg="http://www.w3.org/2000/svg">
  <sodipodi:namedview
     id="namedview7"
     pagecolor="#ffffff"
     bordercolor="#666666"
     borderopacity="1.0"
     inkscape:pageshadow="2"
     inkscape:pageopacity="0.0"
     inkscape:pagecheckerboard="0"
     inkscape:document-units="mm"
     showgrid="false"
     inkscape:zoom="0.74118967"
     inkscape:cx="269.83646"
     inkscape:cy="240.82904"
     inkscape:window-width="2560"
     inkscape:window-height="1017"
     inkscape:window-x="-8"
     inkscape:window-y="-8"
     inkscape:window-maximized="1"
     inkscape:current-layer="g854" />
  <defs
     id="defs2" />
  <g
     inkscape:label="Camada 1"
     inkscape:groupmode="layer"
     id="layer1"
     transform="translate(-236.89182,-87.677882)">
    <g
       id="g854"
       transform="translate(160.99399,-14.992788)">
      <path
         style="fill:#ebebeb;stroke-width:0.264583"
         d="m 120.72913,138.80411 c -0.38476,-0.28399 -0.43812,-0.45568 -0.21272,-0.68451 0.21409,-0.21736 0.35214,-0.22249 0.47864,-0.0178 0.0978,0.1582 0.58921,0.28764 1.09208,0.28764 0.7476,0 1.00991,-0.1568 1.4386,-0.8599 0.28836,-0.47294 0.52474,-1.00505 0.52528,-1.18246 5.5e-4,-0.17742 -0.71338,-1.93727 -1.58651,-3.91078 -0.87312,-1.9735 -1.5875,-3.64405 -1.5875,-3.71232 0,-0.0683 0.16138,-0.12413 0.35863,-0.12413 0.20417,0 0.96339,1.3721 1.7629,3.18602 0.77235,1.75232 1.47418,3.22893 1.5596,3.28137 0.0854,0.0524 0.80161,-1.38128 1.5915,-3.18603 0.79644,-1.81972 1.59197,-3.28136 1.78593,-3.28136 0.19238,0 0.34977,0.0558 0.34977,0.12413 0,0.19669 -3.10972,7.17297 -3.83831,8.61077 -0.36239,0.71515 -0.88935,1.4236 -1.17102,1.57435 -0.72756,0.38938 -1.94505,0.33919 -2.54687,-0.10498 z m -33.983378,-2.56227 c -1.340658,-0.40323 -2.569737,-1.4285 -3.204859,-2.67345 -0.443825,-0.86997 -0.533961,-1.44334 -0.452772,-2.88017 0.08557,-1.51432 0.226276,-1.95096 0.902649,-2.80107 1.084065,-1.36253 2.784616,-2.19773 4.474773,-2.19773 2.411404,0 4.903436,1.82916 5.31834,3.90368 l 0.171764,0.85882 h -1.637654 c -1.494806,0 -1.695913,-0.0692 -2.305551,-0.79375 -1.603308,-1.90542 -4.06879,-0.18142 -3.257228,2.27763 0.529816,1.60536 1.985243,1.8963 3.165538,0.63279 0.667094,-0.71413 0.903341,-0.79375 2.355111,-0.79375 1.871551,0 1.994079,0.23899 1.011729,1.97337 -1.227313,2.16687 -4.050383,3.24297 -6.54184,2.49363 z m 10.125778,-0.2241 c -1.993558,-0.90497 -2.68983,-3.01941 -1.812812,-5.50514 0.206507,-0.5853 0.872024,-1.85043 1.478926,-2.81139 l 1.10346,-1.74721 h 1.726503 1.726503 l -0.46178,0.70476 c -0.25397,0.38762 -0.696145,1.102 -0.982601,1.5875 l -0.52083,0.88274 h 0.700732 c 2.570509,0 4.189619,3.2011 2.784669,5.50549 -0.61706,1.0121 -2.33593,1.89123 -3.697715,1.89123 -0.509323,0 -1.429597,-0.22859 -2.045055,-0.50798 z m 2.952198,-2.54201 c 0.228672,-0.22867 0.415772,-0.60625 0.415772,-0.83906 0,-0.58568 -0.778701,-1.391 -1.345023,-1.391 -0.612057,0 -1.300809,0.70046 -1.300809,1.32292 0,0.27025 0.187099,0.67847 0.415774,0.90714 0.228676,0.22868 0.63689,0.41577 0.907143,0.41577 0.270253,0 0.678467,-0.18709 0.907143,-0.41577 z m 5.707442,-2.36235 V 125.954 l 2.3151,0.006 c 3.77446,0.009 5.35781,1.09969 5.35781,3.68911 0,0.85537 -0.18521,1.27753 -0.90537,2.06366 l -0.90538,0.9883 -2.53421,0.0917 -2.5342,0.0917 v 1.69425 c 0,1.32961 -0.0854,1.69425 -0.39688,1.69425 -0.33921,0 -0.39687,-0.74965 -0.39687,-5.15937 z m 5.76616,0.47908 c 0.9551,-0.71104 1.27153,-1.67018 0.96304,-2.91907 -0.34084,-1.37987 -1.47766,-1.92468 -4.01722,-1.92523 l -1.91823,-4.1e-4 v 2.81212 2.81212 l 2.12814,-0.12319 c 1.5817,-0.0916 2.31203,-0.26009 2.84427,-0.65634 z m 3.34994,4.03086 c -0.40938,-0.40937 -0.64943,-0.95173 -0.64943,-1.46723 0,-0.51551 0.24005,-1.05787 0.64943,-1.46724 0.57476,-0.57476 0.87897,-0.64943 2.64583,-0.64943 h 1.9964 v -0.88503 c 0,-1.24112 -0.75251,-1.84924 -2.26012,-1.82645 -0.65992,0.01 -1.47927,0.20123 -1.82079,0.425 -0.57934,0.3796 -0.94617,0.33745 -0.94617,-0.10872 0,-0.40514 1.8588,-1.04438 3.0369,-1.04438 1.01458,0 1.37627,0.13913 2.01053,0.77339 0.76574,0.76574 0.7734,0.80375 0.7734,3.83646 0,1.86565 -0.10343,3.06306 -0.26458,3.06306 -0.14552,0 -0.26458,-0.23637 -0.26458,-0.52527 0,-0.52378 -0.002,-0.52379 -0.8599,-0.001 -1.27022,0.77446 -3.20828,0.71548 -4.04692,-0.12317 z m 3.56498,-0.26682 c 0.83682,-0.43274 1.07725,-0.88264 1.07725,-2.0158 0,-0.76403 -0.0159,-0.77207 -1.52135,-0.76821 -2.09544,0.005 -2.84427,0.4223 -2.84427,1.5836 0,0.70548 0.14889,0.98574 0.66146,1.24505 0.87458,0.44247 1.71247,0.42823 2.62691,-0.0446 z"
         id="path858" />
      <path
         style="fill:#222222;stroke-width:0.523188"
         d="m 75.897835,161.52944 v -58.85877 h 58.858775 58.85877 v 58.85877 58.85878 H 134.75661 75.897835 Z m 93.685945,12.79936 c 0.55698,-0.29809 1.599,-1.69899 2.31559,-3.11313 1.44072,-2.84312 7.5899,-16.63807 7.5899,-17.027 0,-0.13506 -0.31122,-0.24546 -0.69164,-0.24546 -0.38353,0 -1.95662,2.89026 -3.53151,6.48859 -1.56193,3.56872 -2.97811,6.40375 -3.14704,6.30008 -0.16887,-0.10362 -1.55672,-3.02356 -3.08397,-6.48861 -1.58095,-3.58686 -3.08224,-6.30006 -3.48597,-6.30006 -0.39004,0 -0.70916,0.11034 -0.70916,0.24546 0,0.13505 1.41262,3.43835 3.13914,7.34077 1.72653,3.90243 3.13826,7.38237 3.13717,7.73318 -0.001,0.35082 -0.46848,1.40301 -1.03869,2.33821 -0.84769,1.39033 -1.36639,1.70037 -2.8447,1.70037 -0.99438,0 -1.96615,-0.25595 -2.15948,-0.56878 -0.25015,-0.40472 -0.52313,-0.39457 -0.94647,0.0352 -1.44808,1.47014 3.16233,2.78913 5.45683,1.56114 z m -62.58916,-6.6464 c 2.15248,-1.51282 4.45586,-4.8845 4.47147,-6.54534 0.007,-0.77285 -0.48885,-0.91558 -3.18222,-0.91558 -2.87074,0 -3.33789,0.1574 -4.65701,1.56957 -2.33393,2.49847 -5.211898,1.92317 -6.25956,-1.25129 -1.604789,-4.86254 3.27047,-8.27159 6.44087,-4.5038 1.2055,1.43265 1.60317,1.56957 4.55901,1.56957 h 3.23831 l -0.33965,-1.69824 c -0.4745,-2.37251 -2.83483,-5.1514 -5.55661,-6.542 -4.64478,-2.37304 -10.461157,-1.03835 -13.808363,3.16864 -1.337465,1.68102 -1.615706,2.54443 -1.784905,5.53886 -0.235745,4.17207 0.92079,7.03099 3.696271,9.13709 3.754091,2.84867 9.508077,3.05493 13.182387,0.47252 z m 18.46458,0.92902 c 2.69095,-1.22154 4.3232,-3.69785 4.3232,-6.55878 0,-3.75399 -3.07415,-7.06306 -6.56165,-7.06306 h -1.38563 l 1.02989,-1.74554 c 0.56644,-0.96003 1.4408,-2.37265 1.94301,-3.13914 l 0.91312,-1.39359 h -3.414 -3.414 l -2.18199,3.45494 c -3.81874,6.04654 -4.6418,10.37368 -2.60774,13.70992 1.22017,2.00134 4.61908,3.73974 7.31188,3.73974 1.00714,0 2.82689,-0.45202 4.04391,-1.00449 z m -5.8377,-5.02659 c -1.56995,-1.56994 -0.44294,-4.40973 1.75007,-4.40973 1.11985,0 2.65966,1.59244 2.65966,2.75057 0,1.13139 -1.42317,2.48131 -2.61594,2.48131 -0.5344,0 -1.34161,-0.36995 -1.79379,-0.82215 z m 16.44309,2.18063 v -3.35022 l 5.01114,-0.18133 5.01117,-0.18133 1.79031,-1.95427 c 1.42405,-1.5545 1.79028,-2.38928 1.79028,-4.0807 0,-5.12034 -3.13093,-7.27613 -10.59457,-7.29487 l -4.5779,-0.0119 v 10.2022 c 0,8.71981 0.1141,10.20218 0.78477,10.20218 0.61589,0 0.7848,-0.72103 0.7848,-3.35023 z m 0,-9.92388 v -5.56071 l 3.79312,8.5e-4 c 5.02175,0.001 7.2697,1.07838 7.94368,3.80695 1.10164,4.45982 -1.29354,6.70911 -7.5286,7.07004 l -4.2082,0.24358 z m 24.45909,12.23347 c 1.69551,-1.03379 1.70037,-1.03377 1.70037,0.002 0,0.57129 0.23543,1.03869 0.52318,1.03869 0.31866,0 0.52319,-2.36777 0.52319,-6.05692 0,-5.9969 -0.0158,-6.07206 -1.52933,-7.58624 -1.25419,-1.25433 -1.9694,-1.52945 -3.97564,-1.52945 -2.32958,0 -6.00519,1.26404 -6.00519,2.06517 0,0.88226 0.72537,0.9656 1.87097,0.21498 0.67532,-0.44248 2.29551,-0.82066 3.60044,-0.8404 2.98116,-0.0451 4.46918,1.15744 4.46918,3.61164 v 1.75006 h -3.9477 c -3.4938,0 -4.09535,0.14772 -5.23188,1.28419 -0.80951,0.80949 -1.28419,1.88196 -1.28419,2.90133 0,1.01936 0.47468,2.09182 1.28419,2.90132 1.65833,1.65835 5.49066,1.77498 8.00241,0.24355 z m -6.14747,-0.6829 c -1.01356,-0.51276 -1.30797,-1.06695 -1.30797,-2.46197 0,-2.29636 1.48074,-3.1208 5.62428,-3.13142 2.97683,-0.008 3.00833,0.008 3.00833,1.51906 0,2.24072 -0.47543,3.13036 -2.13016,3.98606 -1.80823,0.93506 -3.46508,0.96322 -5.19448,0.0882 z"
         id="path856" />
    </g>
  </g>
</svg>
