<?xml version="1.0" encoding="UTF-8" standalone="no"?>
<svg
   width="198"
   height="198.00002"
   viewBox="0 0 148.5 148.50001"
   version="1.1"
   id="svg19"
   sodipodi:docname="cacique.svg"
   inkscape:version="1.1.1 (3bf5ae0d25, 2021-09-20)"
   xmlns:inkscape="http://www.inkscape.org/namespaces/inkscape"
   xmlns:sodipodi="http://sodipodi.sourceforge.net/DTD/sodipodi-0.dtd"
   xmlns="http://www.w3.org/2000/svg"
   xmlns:svg="http://www.w3.org/2000/svg">
  <sodipodi:namedview
     id="namedview21"
     pagecolor="#ffffff"
     bordercolor="#666666"
     borderopacity="1.0"
     inkscape:pageshadow="2"
     inkscape:pageopacity="0.0"
     inkscape:pagecheckerboard="0"
     showgrid="false"
     inkscape:zoom="2.1665354"
     inkscape:cx="9.7440559"
     inkscape:cy="77.365172"
     inkscape:window-width="2560"
     inkscape:window-height="1017"
     inkscape:window-x="-8"
     inkscape:window-y="-8"
     inkscape:window-maximized="1"
     inkscape:current-layer="svg19" />
  <defs
     id="defs5">
    <clipPath
       id="a">
      <path
         d="M 0,0 H 37 V 37.898 H 0 Z m 0,0"
         id="path2" />
    </clipPath>
  </defs>
  <path
     style="fill:#f9f9f9;stroke-width:0.450001;paint-order:markers stroke fill"
     d="M -3.6102292e-7,5.4153443e-7 H 148.5 V 148.50001 H -3.6102292e-7 Z"
     id="path7" />
  <g
     style="stroke-width:0.414012"
     id="g17"
     transform="translate(1.5939662,1.6314713)">
    <path
       style="fill:#0f2882;fill-opacity:1;fill-rule:evenodd;stroke:none;stroke-width:0.414012"
       d="M 20.118,17.546 C 22.55,3.55 32.016,-0.899 40.93,-0.34 51.536,1.414 57.544,10.265 52.352,24.683 48.47,32.32 41.145,37.07 31.313,35.656 22.368,31.968 19.215,24.874 20.118,17.546 Z m 0,0"
       transform="matrix(2.4155,0,0,2.41527,-16.982,29.726)"
       id="path9" />
    <g
       clip-path="url(#a)"
       transform="matrix(2.4155,0,0,2.41527,29.273,27.772)"
       style="stroke-width:0.29714"
       id="g13">
      <path
         style="fill:none;stroke:#0f2882;stroke-width:0.894265;stroke-linecap:butt;stroke-linejoin:miter;stroke-miterlimit:4;stroke-opacity:1"
         d="M 9.688,195.445 C 34.023,335.406 128.672,379.898 217.813,374.313 323.867,356.773 383.945,268.258 332.031,124.078 293.203,47.711 219.961,0.211 121.641,14.352 32.187,51.227 0.664,122.164 9.687,195.445 Z m 0,0"
         transform="matrix(0.1,0,0,-0.1,0,37.9)"
         id="path11" />
    </g>
    <path
       style="fill:#ffffff;fill-opacity:1;fill-rule:evenodd;stroke:#000000;stroke-width:0.0828025;stroke-linecap:butt;stroke-linejoin:miter;stroke-miterlimit:4;stroke-opacity:1"
       d="m 25.016,30.699 c 0.055,0.46 0.305,0.46 0.63,-0.02 a 70.086,70.086 0 0 1 8.847,-11.613 c 4.02,-4.356 9.191,-10.578 13.18,-16.395 0.34,-0.406 -0.372,-0.718 -0.731,-0.312 -2.676,2.906 -5.863,5.512 -9.402,7.914 -6.914,4.695 -12.387,9.226 -12.914,14.348 -0.184,2.078 -0.075,4.109 0.39,6.078 z M 48.555,3.777 C 48.501,3.32 48.251,3.32 47.926,3.797 a 70.38,70.38 0 0 1 -8.847,11.617 c -4.02,4.351 -9.192,10.578 -13.18,16.39 -0.34,0.41 0.371,0.719 0.73,0.313 2.676,-2.907 5.864,-5.512 9.403,-7.914 6.914,-4.696 12.383,-9.227 12.914,-14.348 0.183,-2.078 0.074,-4.106 -0.39,-6.078 z m 0,0"
       transform="matrix(2.4155,0,0,2.41527,-16.982,29.726)"
       id="path15" />
  </g>
</svg>
