<?xml version="1.0" encoding="UTF-8" standalone="no"?>
<svg
   width="1080"
   height="1080"
   viewBox="0 0 218.52248 218.53208"
   version="1.1"
   id="svg16"
   sodipodi:docname="safra.svg"
   inkscape:version="1.1.1 (3bf5ae0d25, 2021-09-20)"
   xmlns:inkscape="http://www.inkscape.org/namespaces/inkscape"
   xmlns:sodipodi="http://sodipodi.sourceforge.net/DTD/sodipodi-0.dtd"
   xmlns="http://www.w3.org/2000/svg"
   xmlns:svg="http://www.w3.org/2000/svg">
  <defs
     id="defs20" />
  <sodipodi:namedview
     id="namedview18"
     pagecolor="#ffffff"
     bordercolor="#666666"
     borderopacity="1.0"
     inkscape:pageshadow="2"
     inkscape:pageopacity="0.0"
     inkscape:pagecheckerboard="0"
     showgrid="false"
     inkscape:zoom="0.41985268"
     inkscape:cx="1155.1671"
     inkscape:cy="670.47328"
     inkscape:window-width="2560"
     inkscape:window-height="1017"
     inkscape:window-x="-8"
     inkscape:window-y="-8"
     inkscape:window-maximized="1"
     inkscape:current-layer="g14" />
  <g
     fill-rule="evenodd"
     clip-rule="evenodd"
     id="g14"
     transform="translate(0.00217476)">
    <path
       style="fill:#151e45;fill-opacity:1;stroke-width:0.121408;paint-order:markers stroke fill"
       d="M -0.00697733,-5e-6 H 218.52511 V 218.53208 H -0.00697733 Z"
       id="path2" />
    <g
       id="g842"
       transform="translate(-0.39543476,16.768345)">
      <g
         style="stroke-width:1.66828"
         id="g10">
        <path
           d="m -176.547,99.796 c -1.324,11.936 -6.887,24.828 -14.894,33.61 -4.178,4.588 -7.37,8.843 -22.11,18.873 -19.161,10.612 -36.12,17.685 -45.993,25.355 -9.88,-7.67 -26.832,-14.744 -46,-25.355 -14.736,-10.03 -17.926,-14.285 -22.112,-18.874 -8,-8.78 -13.563,-21.672 -14.887,-33.61 -1.62,-15.4 4.273,-29.047 14.003,-38.481 3.092,-3.539 1.03,-5.302 -0.44,-8.11 -2.641,-5.013 -3.245,-7.216 -7.67,-15.914 -2.36,-4.652 -3.56,-8.063 -2.943,-11.06 2.208,-7.966 10.612,-11.018 13.564,-14.592 0.52,-0.638 1.59,-1.002 1.913,-1.626 0.536,-1.049 0.144,-2.21 0.144,-2.21 -0.006,-0.026 -3.28,-6.365 -2.944,-7.375 0.68,-2.037 11.794,-8.11 20.932,-11.793 11.052,-3.978 17.062,-5.597 26.983,-8.109 12.231,-3.094 19.457,-8.7 19.457,-8.7 0,0 7.225,5.606 19.456,8.701 9.92,2.511 15.922,4.13 26.976,8.11 9.145,3.683 20.259,9.756 20.938,11.792 0.336,1.01 -2.937,7.348 -2.95,7.375 0,0 -0.39,1.161 0.152,2.21 0.317,0.624 1.392,0.988 1.915,1.626 2.95,3.575 11.352,6.627 13.561,14.592 0.617,2.997 -0.581,6.408 -2.95,11.06 -4.418,8.698 -5.022,10.9 -7.662,15.915 -1.476,2.806 -3.54,4.57 -0.44,8.11 9.726,9.431 15.621,23.079 14.001,38.48 z m -5.31,-3.246 c -0.143,-12.534 -4.416,-23.882 -13.555,-32.875 -5.46,-5.015 -3.1,-6.098 -1.331,-9.433 2.655,-5.014 2.2,-4.988 6.634,-14.304 2.004,-4.213 5.598,-10.166 4.274,-14.153 -1.624,-3.533 -9.687,-8.959 -10.175,-9.282 -2.69,-1.798 -4.562,-3.094 -6.484,-4.865 -0.94,-1.55 0.152,-2.36 0.152,-2.36 0,0 3.444,-5.55 2.944,-6.49 -2.654,-5.009 -27.86,-13.27 -41.863,-16.513 -6.737,-1.557 -18.283,-7.96 -18.283,-7.96 0,0 -11.552,6.403 -18.277,7.96 -14.01,3.244 -39.22,11.504 -41.868,16.513 -0.501,0.94 2.944,6.49 2.944,6.49 0,0 1.09,0.811 0.15,2.36 -1.915,1.77 -3.8,3.066 -6.49,4.865 -0.481,0.322 -8.548,5.75 -10.175,9.282 -1.322,3.987 2.272,9.94 4.281,14.153 4.433,9.317 3.979,9.29 6.628,14.304 1.771,3.335 4.13,4.418 -1.324,9.433 -9.138,8.994 -13.413,20.341 -13.555,32.875 0.878,13.269 5.151,24.326 18.13,38.18 4.18,4.595 10.023,9.438 24.911,17.398 14.01,7.224 24.326,11.499 34.495,19.017 10.175,-7.518 20.788,-11.793 34.797,-19.017 14.888,-7.96 20.732,-12.802 24.916,-17.399 12.966,-13.853 17.24,-24.91 18.124,-38.18 z"
           style="fill:#c3ac6c;fill-opacity:1;stroke-width:1.66828"
           transform="matrix(0.59942,0,0,0.59942,265.231,28.112)"
           id="path4" />
        <path
           d="m -192.617,100.233 c -1.325,-1.324 -4.98,-0.272 -5.434,0.44 -1.468,-4.883 -4.391,-9.07 -7.97,-11.752 0,0 -0.015,-0.918 0.43,-1.365 0.837,-0.446 3.244,-0.146 5.166,-1.03 1.468,-0.678 1.762,3.828 5.744,3.239 2.824,-0.419 2.805,-3.39 1.178,-3.094 -0.5,-0.158 -1.166,1.056 -1.763,1.18 -2.072,0.446 -2.36,-2.655 -2.36,-3.979 0,-0.59 1.174,-4.295 0.288,-6.787 -1.104,-3.127 -4.624,-4.849 -6.187,-5.892 -0.44,-0.295 -1.22,-2.119 -0.295,-2.805 2.209,-1.62 -2.063,-3.096 -2.799,0.59 -0.404,2.031 0.418,2.572 0.294,3.691 -0.15,1.325 -4.155,4.033 -0.884,6.49 1.77,1.325 2.312,-0.85 1.476,-1.922 -1.62,-2.064 5.746,-5.16 6.044,2.655 0.115,3.246 -5.235,4.714 -6.416,5.16 -8.993,0 -16.286,-8.617 -16.286,-19.237 0,-8.219 4.473,-15.306 10.607,-18.064 2.51,-2.798 12.828,-2.352 12.39,-6.776 -0.309,-3.019 -3.246,-4.577 -4.87,-2.952 -0.735,1.475 1.77,1.628 1.624,3.095 -0.136,1.365 -2.587,1.729 -4.274,0.59 -0.859,-0.576 -1.18,-1.462 -1.33,-2.95 -0.59,-5.893 11.21,-10.167 11.21,-10.167 0,0 -9.736,-2.949 -10.03,-5.75 -0.248,-2.35 0.885,-2.654 1.92,-1.33 0.611,0.789 2.36,-0.886 0.289,-2.799 -1.62,-1.035 -3.987,-0.117 -4.714,2.36 -0.735,2.505 -9.88,-8.555 -11.06,-11.793 -0.57,-1.57 0.022,-5.055 1.913,-4.424 1.333,0.446 1.039,1.324 0.592,1.913 -0.53,0.716 -0.062,1.962 0.89,2.065 0.955,0.11 2.43,-0.952 2.506,-2.798 0.144,-3.541 -6.633,-6.195 -8.404,-0.734 -0.371,1.13 -1.332,-0.446 -2.065,-1.036 -1.632,-1.31 -11.792,-13.413 -25.356,-13.564 -5.18,-0.055 -2.806,1.241 -5.31,1.037 -1.763,-0.152 -2.944,-2.656 -3.685,-3.541 -0.437,0.735 -1.914,3.39 -3.683,3.54 -2.504,0.205 -0.124,-1.09 -5.304,-1.036 -13.57,0.152 -23.724,12.254 -25.357,13.564 -0.74,0.59 -1.7,2.166 -2.064,1.036 -1.771,-5.46 -8.548,-2.806 -8.404,0.734 0.075,1.846 1.55,2.908 2.503,2.798 0.954,-0.104 1.42,-1.35 0.887,-2.065 -0.446,-0.59 -0.735,-1.467 0.59,-1.913 1.9,-0.631 2.49,2.853 1.913,4.424 -1.18,3.238 -10.318,14.298 -11.052,11.793 -0.727,-2.477 -3.095,-3.394 -4.72,-2.36 -2.065,1.914 -0.316,3.59 0.294,2.8 1.03,-1.325 2.161,-1.021 1.923,1.33 -0.304,2.8 -10.032,5.75 -10.032,5.75 0,0 4.782,1.837 8.11,4.713 1.797,1.557 3.299,3.39 3.095,5.455 -0.144,1.487 -0.467,2.373 -1.326,2.95 -1.694,1.138 -4.138,0.774 -4.273,-0.59 -0.151,-1.468 2.352,-1.62 1.619,-3.096 -1.619,-1.625 -4.562,-0.067 -4.864,2.952 -0.438,4.424 9.88,3.978 12.383,6.776 6.14,2.758 10.613,9.845 10.613,18.064 0,10.621 -7.293,19.237 -16.286,19.237 -1.18,-0.446 -6.54,-1.914 -6.416,-5.16 0.295,-7.814 7.663,-4.72 6.044,-2.655 -0.836,1.072 -0.295,3.247 1.475,1.923 3.272,-2.458 -0.734,-5.167 -0.884,-6.49 -0.124,-1.12 0.7,-1.661 0.295,-3.693 -0.735,-3.683 -5.017,-2.208 -2.806,-0.59 0.931,0.688 0.152,2.511 -0.288,2.806 -1.566,1.043 -5.09,2.766 -6.195,5.892 -0.878,2.492 0.295,6.198 0.295,6.787 0,1.325 -0.295,4.425 -2.36,3.979 -0.598,-0.124 -1.263,-1.339 -1.77,-1.18 -1.62,-0.295 -1.645,2.676 1.18,3.094 3.98,0.59 4.871,-3.979 5.901,-3.533 2.792,1.193 4.17,0.878 5.006,1.324 0.446,0.446 0.44,1.365 0.44,1.365 -3.588,2.682 -6.504,6.869 -7.971,11.753 -0.454,-0.713 -4.11,-1.765 -5.434,-0.44 -1.625,1.476 -1.117,3.321 -1.035,3.986 0.146,1.173 2.677,1.468 2.36,-0.892 -0.295,-2.208 2.654,-1.466 3.093,0.741 0.59,3.39 -0.322,4.748 -0.15,5.9 1.48,9.434 8.232,15.326 16.15,15.326 1.315,0 2.564,-0.123 3.765,-0.404 1.405,-0.331 2.202,2.174 3.383,4.239 0,0 -4.865,1.913 -4.273,5.598 0.59,3.692 3.979,5.606 6.482,2.36 1.03,-1.322 -0.735,-1.474 -2.65,-1.474 -1.453,-1.03 -1.31,-2.806 2.21,-3.535 4.276,-0.884 8.102,8.254 9.584,12.088 1.47,3.83 9.579,14.449 20.637,11.938 0.734,-0.165 7.367,9.88 7.367,9.88 0,0 6.642,-10.046 7.377,-9.88 11.058,2.51 19.166,-8.109 20.637,-11.938 1.473,-3.834 5.308,-12.972 9.582,-12.088 3.521,0.73 3.664,2.505 2.211,3.535 -1.914,0 -3.678,0.152 -2.649,1.474 2.498,3.246 5.893,1.332 6.483,-2.36 0.592,-3.685 -4.275,-5.598 -4.275,-5.598 1.18,-2.065 1.976,-4.57 3.384,-4.24 1.202,0.282 2.45,0.405 3.766,0.405 7.917,0 15.41,-5.892 15.847,-15.771 0.057,-1.16 -0.3,-3.471 0.153,-5.455 0.438,-2.208 3.39,-2.95 3.094,-0.74 -0.317,2.36 2.208,2.064 2.36,0.891 0.072,-0.665 0.586,-2.512 -1.039,-3.988 z M -261.313,2.644 c 1.326,-1.922 1.763,-4.275 2.058,-3.102 0.508,2.025 2.216,2.95 1.475,3.54 -1.13,0.906 -4.026,0.27 -3.533,-0.438 z m 1.763,158.476 -3.827,-5.603 3.827,-5.303 3.836,5.303 z m 60.003,-52.042 c 0,7.657 -6.105,13.858 -13.631,13.858 a 13.455,13.455 0 0 1 -8.762,-3.232 c -1.687,-1.769 -2.964,-4.588 -2.964,-7.45 0,-5.337 3.993,-9.66 8.548,-9.66 0.591,0.418 1.331,-0.295 2.361,2.943 1.33,0.592 1.474,-0.494 1.474,-1.763 0,-2.065 -2.208,-2.951 -4.862,-3.978 -1.95,-0.762 -0.275,-4.932 -3.247,-5.166 -1.913,-0.145 -2.654,0.74 -2.208,2.062 0.295,1.153 1.344,0.09 1.914,0.446 1.922,1.18 -0.769,4.528 -0.769,4.528 -3.052,2.71 -4.981,6.532 -4.981,10.51 0,2.531 0.789,4.755 1.922,6.93 1.31,1.639 2.51,3.168 3.918,4.074 0,0 1.377,3.3 -2.147,6.243 -1.77,1.476 -3.54,-0.445 -9.441,9.873 -0.3,0.542 -1.31,-1.586 -3.533,-2.354 -1.481,-0.887 -5.9,0 -6.194,3.836 -0.276,3.532 3.246,1.77 4.13,-1.18 1.13,-0.741 2.168,0.603 2.943,2.059 1.07,2.01 -1.18,6.785 -7.217,10.62 -5.462,3.39 -15.189,1.77 -14.894,-4.72 0.22,-4.796 6.786,-5.9 5.894,-2.066 -0.53,2.319 5.604,2.656 2.66,-2.36 -2.95,-5.014 -9.733,-0.581 -10.915,2.36 -1.178,-2.942 -7.958,-7.375 -10.906,-2.36 -2.951,5.016 3.19,4.679 2.654,2.36 -0.886,-3.834 5.68,-2.73 5.894,2.066 0.294,6.49 -9.434,8.11 -14.888,4.72 -6.043,-3.835 -8.293,-8.61 -7.223,-10.62 0.781,-1.455 1.81,-2.8 2.95,-2.06 0.884,2.952 4.405,4.714 4.122,1.18 -0.288,-3.835 -4.712,-4.72 -6.187,-3.835 -2.223,0.768 -3.233,2.896 -3.541,2.354 -5.893,-10.32 -7.663,-8.397 -9.433,-9.873 -3.525,-2.943 -2.147,-6.243 -2.147,-6.243 1.262,-1.427 2.749,-2.14 4.062,-3.78 a 15.813,15.813 0 0 0 1.768,-7.224 c 0,-3.98 -1.927,-7.8 -4.972,-10.51 0,0 -2.69,-3.347 -0.776,-4.528 0.577,-0.356 1.619,0.707 1.922,-0.446 0.437,-1.322 0.267,-1.706 -2.217,-1.911 -3.533,-0.296 -1.288,4.252 -3.238,5.014 -2.654,1.027 -4.87,1.913 -4.87,3.978 0,1.269 0.151,2.353 1.475,1.763 1.036,-3.238 1.771,-2.525 2.36,-2.943 4.561,0 8.548,4.323 8.548,9.66 0,2.862 -1.27,5.681 -2.956,7.45 a 13.474,13.474 0 0 1 -8.762,3.232 c -7.526,0 -13.632,-6.202 -13.632,-13.858 -0.892,-11.642 6.187,-18.723 12.638,-22.29 7.25,-3.107 12.424,-11.197 12.424,-20.684 0,-10.105 -5.311,-17.906 -13.866,-21.445 -2.298,-1.538 -1.16,-1.881 -0.439,-3.54 0.247,-0.57 0.22,-1.415 0.295,-2.36 0.22,-2.752 -0.055,-1.448 -0.295,-2.8 -0.084,-0.452 -0.734,-0.947 -0.591,-2.36 0.591,-5.598 6.497,-3.196 6.93,-1.03 0.445,2.211 -0.343,1.99 -0.885,2.506 -2.505,-0.886 -1.627,0.72 -1.476,1.178 0.446,1.324 1.922,1.792 3.69,0.592 1.47,-0.446 2.073,-2.629 2.505,-2.505 2.826,0.81 4.13,-2.36 2.95,-2.511 -1.18,-0.144 -2.655,1.332 -3.684,0 -3.548,-4.548 -9.42,-4.302 -10.469,-2.36 -1.922,3.54 -3.54,1.624 -3.54,1.624 0,0 -2.647,-1.906 -2.36,-2.062 4.57,-2.506 6.64,-3.94 13.714,-10.909 3.095,-3.54 10.545,-13.461 12.529,-15.038 6.49,-5.16 18.72,-14.153 25.802,-8.548 2.82,2.236 1.763,4.712 0.732,5.604 -1.179,1.173 -1.989,-2.883 -2.503,-2.661 -1.627,0.301 0.884,2.95 -0.295,4.13 -1.097,1.185 -3.081,-0.249 -2.951,-1.47 0.295,-2.805 -6.187,2.506 1.619,4.715 1.669,0.466 1.627,-0.59 2.805,-0.446 1.18,0.15 2.65,1.626 4.714,1.331 2.065,0.295 3.541,-1.18 4.723,-1.331 1.178,-0.144 1.136,0.91 2.798,0.446 7.814,-2.209 1.324,-7.52 1.626,-4.714 0.13,1.22 -1.854,2.654 -2.95,1.47 -1.179,-1.182 1.324,-3.83 -0.295,-4.131 -0.522,-0.222 -1.324,3.834 -2.503,2.66 -1.038,-0.891 -2.088,-3.367 0.732,-5.603 7.073,-5.606 19.312,3.389 25.802,8.548 1.983,1.576 9.432,11.497 12.528,15.038 7.065,6.97 8.404,7.958 13.715,10.909 0.281,0.157 -2.51,2.208 -2.51,2.208 0,0 -1.324,1.036 -3.39,-1.77 -1.31,-1.776 -6.931,-2.189 -10.469,2.36 -1.03,1.332 -2.505,-0.144 -3.685,0 -1.18,0.151 0.124,3.322 2.95,2.51 0.432,-0.123 1.029,2.06 2.505,2.506 1.768,1.2 3.244,0.732 3.69,-0.592 0.152,-0.457 1.03,-2.064 -1.482,-1.178 -0.536,-0.515 -1.324,-0.295 -0.878,-2.505 0.431,-2.167 6.338,-4.568 6.93,1.029 0.144,1.413 -0.515,1.907 -0.592,2.36 -0.239,1.352 -0.513,0.047 -0.3,2.8 0.082,0.946 0.048,1.79 0.3,2.36 0.714,1.659 1.86,2.002 -0.445,3.54 -8.547,3.54 -13.86,11.34 -13.86,21.445 0,9.488 5.167,17.577 12.426,20.685 6.447,3.566 13.518,10.648 12.635,22.29 z"
           style="fill:#c3ac6c;fill-opacity:1;stroke-width:1.66828"
           transform="matrix(0.59942,0,0,0.59942,265.231,28.112)"
           id="path6" />
        <path
           d="m -235.144,71.578 c -2.778,-5.446 -7.492,-9.22 -12.7,-10.701 l 0.294,-1.03 c 2.8,-4.13 3.987,-9.598 4.131,-14.75 0,-0.98 -0.09,-1.92 -0.26,-2.805 0.591,-0.438 2.676,0.755 4.384,3.252 1.914,2.798 4.13,0.446 2.209,-1.036 -1.483,-1.139 -2.944,-6.627 -3.095,-7.663 -0.144,-1.038 -0.144,-4.865 0.152,-5.453 0.659,-1.32 0,-5.017 -1.771,-1.477 -1.77,3.54 -4.28,2.655 -4.28,2.655 -1.325,-2.798 -4.883,-8.473 -11.196,-10.023 0.878,-2.217 4.115,-5.18 8.822,-7.087 2.435,-0.98 4.37,-1.64 6.36,-1.763 0.735,-1.324 0.887,-2.21 0.294,-2.21 -3.69,0 -8.938,1.694 -11.175,2.724 -1.86,0.864 -4.343,1.51 -7.093,1.751 -2.217,0.192 -4.31,0.101 -6.077,-0.221 -3.054,-0.549 -6.613,-1.303 -9.71,-2.332 -3.245,-2.217 -3.54,1.173 -2.99,1.618 1.948,0.564 4.069,1.434 6.125,2.58 1.922,1.449 3.26,3.116 4.385,4.645 -3.06,1.117 -5.962,3.327 -7.224,5.455 -1.269,-2.087 -4.15,-3.987 -6.34,-3.987 -5.386,-0.583 -8.109,3.039 -8.109,6.415 0,1.64 0.78,3.121 2.051,4.219 0,0 1.928,1.015 3.197,-0.014 0.487,-0.405 0.061,-1.091 0.061,-1.62 -1.178,-1.48 -0.76,-3.84 1.771,-3.84 2.518,0 4.568,2.366 4.568,5.014 -5.46,2.876 -9.879,8.055 -9.879,13.79 0,6.058 3.686,11.423 11.06,14.078 v 29.48 c 0,0 0.288,3.244 -3.1,-0.887 -0.865,-1.055 -1.846,-1.577 -2.95,-3.238 -3.98,-6.339 -6.971,-11.944 -7.959,-11.944 -1.324,0 -2.503,0.145 -1.03,2.505 a 13.591,13.591 0 0 1 2.06,7.23 c 0,2.353 0.493,5.242 -4.57,9.282 -2.21,1.771 -0.145,3.541 1.77,1.771 1.922,-1.771 3.692,-1.475 4.276,-1.475 1.63,0 5.452,0.296 9.144,4.275 1.263,0.453 2.058,1.578 2.058,3.025 0,1.832 -1.448,3.313 -3.238,3.313 -1.791,0 -3.244,-1.481 -3.244,-3.313 0,-0.852 0.37,-0.962 0.884,-1.552 0,0 -0.59,-1.913 -2.798,-0.295 -0.804,0.584 -2.656,2.655 -2.067,4.13 0.146,3.684 4.975,7.705 11.939,4.13 1.145,1.846 3.272,4.377 5.454,5.75 2.257,1.414 4.548,1.646 4.356,2.263 -1.701,5.398 -6.564,7.14 -6.564,7.14 -3.375,0.556 -6.341,0.474 -6.779,-2.331 -2.208,-4.57 3.238,-3.39 1.62,-6.484 -1.333,-0.446 -3.096,-0.3 -3.816,0.027 -2.339,1.454 -3.857,3.74 -3.857,6.31 0,4.391 4.426,7.96 9.88,7.96 2.382,0 4.561,-0.678 6.27,-1.803 2.203,-1.463 4.79,-2.622 6.112,-4.687 1.475,2.065 6.237,4.795 7.522,5.606 2.357,1.474 9.725,2.36 4.422,-1.18 -8.505,-5.668 -7.223,-11.499 -7.223,-11.499 5.749,-0.144 15.629,-8.11 17.007,-17.898 8.412,-4.925 11.327,-16.24 6.456,-25.795 z M -277.178,55.27 c -3.69,-1.914 -5.014,-4.706 -5.014,-7.519 0,-2.915 2.085,-5.831 5.014,-7.958 z m 11.936,-28.45 v 4.123 c -3.539,-0.294 -6.339,0.741 -6.482,0.638 0.671,-2.25 2.971,-4.534 6.482,-4.762 z m 0,9.057 v 21.61 c 0,0 -3.237,0.29 -4.863,-0.303 -1.104,-0.403 -1.324,-1.324 -1.324,-1.324 V 36.993 a 26.97,26.97 0 0 1 6.187,-1.116 z m -0.014,74.127 c -3.82,-1.178 -5.576,-4.795 -5.736,-7.264 1.572,0.295 3.541,1.035 5.736,0.884 z m 0.014,-13.014 c 0,0.905 -2.916,0.631 -4.72,-0.734 -1.131,-0.857 -1.468,-2.209 -1.468,-2.209 V 70.898 h 6.187 z m 0.151,-31.106 h -6.195 v -3.237 c 2.36,0.294 3.54,0.438 6.195,0.438 z m 6.484,-38.343 c 3.045,0.768 5.461,2.902 6.187,5.029 -0.287,0 -5.009,-1.626 -6.187,-1.33 z m -0.022,8.431 c 1.77,0 1.497,0.576 4,0.727 1.175,0.432 3.89,0.762 4.569,1.77 0.845,1.23 0.988,3.788 0.886,6.628 -0.398,7.272 -1.619,10.174 -3.978,13.269 -0.384,1.09 -1.6,0.836 -2.8,0.59 a 51.717,51.717 0 0 0 -2.655,-0.44 z m 0.173,73.695 v -6.044 c 4.06,-0.233 7.492,-0.965 8.986,-1.762 -0.143,2.208 -4.128,6.22 -8.986,7.806 z m 9.88,-14.59 c -2.362,1.33 -4.433,2.208 -6.346,2.36 -3.533,-0.152 -3.685,0.328 -3.685,-0.297 V 72.965 c 0,0 11.201,3.244 11.647,16.658 0.036,1.163 0.29,4.567 -1.616,5.454 z m 6.927,-7.055 -0.122,-0.322 c -0.139,-3.053 -1.168,-6.633 -3.095,-10.112 -3.04,-5.488 -7.992,-9.344 -10.94,-10.079 0.381,-0.37 0.354,-0.418 0.827,-0.679 3.15,-2.565 10.348,0.702 13.715,6.78 3.293,4.514 2.786,11.559 -0.385,14.412 z"
           style="fill:#c3ac6c;fill-opacity:1;stroke-width:1.66828"
           transform="matrix(0.59942,0,0,0.59942,265.231,28.112)"
           id="path8" />
      </g>
      <path
         d="m -340.37,183.58 h 9.55 c 7.896,0 8.34,5.106 8.34,6.058 0,1.396 -0.506,3.363 -2.187,4.76 1.363,1.045 2.76,3.074 2.76,5.836 0,1.202 -0.35,3.108 -2.41,4.884 -1.588,1.363 -4.158,1.585 -5.614,1.585 h -10.439 z m 4.758,9.23 h 5.394 c 2.03,0 3.203,-0.791 3.203,-2.632 0,-1.998 -1.3,-2.632 -2.95,-2.632 h -5.647 z m 0,9.927 h 5.583 c 1.43,0 3.586,-0.062 3.586,-3.235 0,-2.6 -1.807,-2.725 -2.696,-2.725 h -6.473 z m 26.772,3.966 c -0.318,-0.41 -0.507,-1.11 -0.476,-1.711 -1.553,1.458 -2.919,2.44 -5.52,2.44 -3.488,0 -5.2,-1.967 -5.073,-5.296 0.095,-2.412 1.044,-4.76 4.98,-5.424 1.647,-0.065 3.423,-0.445 4.47,-0.794 0.794,-0.285 1.174,-1.11 1.112,-1.934 0,-1.078 -0.89,-1.554 -2.919,-1.554 -2.537,0 -2.854,1.554 -2.92,2.79 h -4.185 c 0.064,-5.487 4.757,-5.993 7.105,-5.993 1.714,0 3.204,0.284 4.06,0.633 1.714,0.698 3.077,2.095 3.077,4.822 v 9.39 c -0.031,0.759 0.413,1.522 0.983,2.03 v 0.6 z m -0.507,-8.088 c -1.27,0.761 -2.982,0.696 -4.124,0.918 -1.365,0.256 -2.317,1.397 -1.937,2.793 0.256,1.016 1.048,1.746 2.95,1.428 2.633,-0.412 3.11,-2.253 3.11,-4.156 z m 7.548,-9.103 h 4.44 v 2.6 h 0.064 c 0.856,-1.807 2.506,-2.885 4.218,-2.885 3.934,0 6.598,1.65 6.598,5.962 v 11.514 h -4.442 V 196.49 c 0,-1.523 -0.191,-3.33 -3.204,-3.33 -2.694,0 -3.235,1.492 -3.235,2.886 v 10.657 h -4.44 z m 28.955,6.406 c -0.668,-2.727 -1.904,-2.758 -3.266,-2.823 -1.523,-0.094 -2.601,0.889 -3.078,2.538 -0.16,0.508 -0.666,2.95 -0.126,5.012 0.698,2.696 1.872,3.076 3.266,3.108 1.112,0.065 2.506,-0.127 3.204,-3.046 h 4.25 c 0.032,2.348 -2.092,4.634 -2.728,5.17 -1.3,1.08 -2.251,1.46 -5.042,1.555 -5.362,0.191 -7.265,-4.187 -7.58,-6.691 -0.192,-1.523 -0.35,-4.474 0.602,-6.661 2.03,-4.6 4.346,-4.665 7.198,-4.853 1.715,-0.095 3.556,0.318 4.538,0.951 1.933,1.205 3.013,4.345 3.013,5.74 z m 8.279,9.423 c -1.714,-1.557 -2.54,-4.22 -2.54,-7.012 0,-2.79 0.826,-5.456 2.54,-7.01 1.52,-1.394 3.71,-2.092 5.931,-2.092 2.22,0 4.409,0.698 5.93,2.092 1.713,1.554 2.538,4.22 2.538,7.01 0,2.792 -0.825,5.455 -2.538,7.012 -1.522,1.394 -3.711,2.091 -5.93,2.091 -2.22,0 -4.41,-0.697 -5.931,-2.091 z m 2.758,-10.374 c -0.348,0.667 -0.824,1.934 -0.824,3.362 0,1.43 0.476,2.697 0.824,3.361 0.825,1.43 2.061,1.936 3.173,1.936 1.11,0 2.347,-0.507 3.17,-1.936 a 7.59,7.59 0 0 0 0.825,-3.361 c 0,-1.428 -0.476,-2.695 -0.825,-3.362 -0.823,-1.427 -2.06,-1.934 -3.17,-1.934 -1.112,0 -2.348,0.507 -3.173,1.934 z m 35.234,-4.344 c 0.063,-1.872 -1.492,-3.586 -4.76,-3.648 -2.315,-0.032 -4.026,0.76 -4.187,2.663 -0.126,1.588 0.414,1.903 1.459,2.317 0.54,0.571 4.918,1.267 5.805,1.427 1.27,0.223 3.997,0.794 5.456,2.284 2.665,2.79 1.427,8.278 -1.459,10.15 -1.967,1.268 -4.662,1.586 -7.232,1.617 -1.174,0.031 -3.966,-0.38 -5.678,-1.616 -2.061,-1.492 -3.077,-3.775 -3.235,-5.966 h 4.632 c 0,0.603 0.19,1.555 0.982,2.38 1.047,1.078 2.758,1.427 4.346,1.364 1.586,-0.033 3.077,-0.509 3.68,-1.078 1.013,-0.951 1.236,-2.759 0.093,-3.902 -1.52,-1.585 -6.09,-1.585 -9.07,-2.6 -2.506,-0.857 -4.57,-2.664 -4.187,-6.408 0.38,-3.68 3.045,-6.407 8.69,-6.407 1.238,0 5.552,0.095 7.804,2.95 1.204,1.554 1.52,3.71 1.33,4.473 h -4.47 z m 17.54,16.08 c -0.318,-0.41 -0.506,-1.11 -0.475,-1.711 -1.554,1.458 -2.917,2.44 -5.518,2.44 -3.49,0 -5.205,-1.967 -5.075,-5.296 0.093,-2.412 1.047,-4.76 4.98,-5.424 1.649,-0.065 3.423,-0.445 4.47,-0.794 0.794,-0.285 1.174,-1.11 1.112,-1.934 0,-1.078 -0.889,-1.554 -2.92,-1.554 -2.536,0 -2.854,1.554 -2.916,2.79 h -4.188 c 0.064,-5.487 4.76,-5.993 7.105,-5.993 1.712,0 3.203,0.284 4.06,0.633 1.711,0.698 3.076,2.095 3.076,4.822 v 9.39 c -0.03,0.759 0.414,1.522 0.983,2.03 v 0.6 z m -0.506,-8.088 c -1.27,0.761 -2.984,0.696 -4.124,0.918 -1.363,0.256 -2.317,1.397 -1.934,2.793 0.253,1.016 1.046,1.746 2.95,1.428 2.632,-0.412 3.108,-2.253 3.108,-4.156 z m 5.962,-9.097 h 2.41 v -1.656 c 0,-2.568 1.3,-4.282 4.186,-4.282 h 2.76 v 3.299 h -1.555 c -0.602,0 -0.951,0.38 -0.951,1.173 v 1.466 h 2.632 v 2.95 h -2.632 v 14.235 h -4.44 v -14.234 h -2.41 z m 11.412,-0.007 h 4.44 v 3.33 h 0.064 c 0.285,-1.014 0.507,-1.616 2.061,-2.694 0.763,-0.572 1.776,-1.143 3.173,-0.92 v 4.534 c -1.904,-0.222 -4.758,-0.476 -5.298,3.268 v 9.673 h -4.44 z m 21.567,17.191 c -0.318,-0.41 -0.507,-1.109 -0.476,-1.71 -1.553,1.458 -2.92,2.44 -5.52,2.44 -3.488,0 -5.2,-1.967 -5.073,-5.296 0.095,-2.412 1.044,-4.76 4.98,-5.425 1.647,-0.065 3.425,-0.444 4.472,-0.794 0.792,-0.284 1.172,-1.109 1.11,-1.933 0,-1.079 -0.89,-1.555 -2.92,-1.555 -2.536,0 -2.853,1.555 -2.916,2.791 h -4.189 c 0.065,-5.487 4.758,-5.994 7.106,-5.994 1.712,0 3.203,0.285 4.06,0.633 1.713,0.698 3.076,2.095 3.076,4.823 v 9.389 c -0.03,0.76 0.414,1.522 0.983,2.03 v 0.601 z m -0.507,-8.087 c -1.27,0.76 -2.981,0.696 -4.123,0.918 -1.365,0.256 -2.315,1.397 -1.934,2.792 0.252,1.016 1.044,1.746 2.947,1.428 2.633,-0.412 3.11,-2.252 3.11,-4.155 z"
         style="fill:#c3ac6c;fill-opacity:1;stroke-width:0.999993"
         transform="translate(362.792,-33.666)"
         id="path12" />
    </g>
  </g>
</svg>
