<?xml version="1.0" encoding="UTF-8" standalone="no"?>
<svg
   width="815.21954"
   height="815.21967"
   version="1.0"
   id="svg6"
   sodipodi:docname="vr.svg"
   inkscape:version="1.1.1 (3bf5ae0d25, 2021-09-20)"
   xmlns:inkscape="http://www.inkscape.org/namespaces/inkscape"
   xmlns:sodipodi="http://sodipodi.sourceforge.net/DTD/sodipodi-0.dtd"
   xmlns="http://www.w3.org/2000/svg"
   xmlns:svg="http://www.w3.org/2000/svg">
  <defs
     id="defs10" />
  <sodipodi:namedview
     id="namedview8"
     pagecolor="#ffffff"
     bordercolor="#666666"
     borderopacity="1.0"
     inkscape:pageshadow="2"
     inkscape:pageopacity="0.0"
     inkscape:pagecheckerboard="0"
     showgrid="false"
     inkscape:zoom="0.76620264"
     inkscape:cx="189.24498"
     inkscape:cy="486.16382"
     inkscape:window-width="2560"
     inkscape:window-height="1017"
     inkscape:window-x="-8"
     inkscape:window-y="-8"
     inkscape:window-maximized="1"
     inkscape:current-layer="svg6" />
  <path
     style="fill:#62b92b;fill-opacity:1;stroke-width:0.599999;paint-order:markers stroke fill"
     d="M 0,0 H 815.21957 V 815.21965 H 0 Z"
     id="path2" />
  <path
     style="fill:#ffffff;fill-opacity:1;fill-rule:evenodd;stroke:#000000;stroke-width:0;stroke-linecap:butt;stroke-linejoin:miter;stroke-miterlimit:4;stroke-dasharray:none;stroke-opacity:1"
     d="m 92.72933,275.87421 h 73.57175 c 27.21573,0 36.12157,12.82056 44.76445,26.02432 l 86.55337,132.19795 c 1.00338,1.65135 2.35275,0.98943 3.18312,0 l 78.56097,-123.78097 c 12.85705,-20.26204 27.51329,-34.08593 61.3098,-34.08593 h 198.26729 c 27.74855,0 83.55014,29.59874 83.55014,96.33526 0,50.32761 -37.80307,92.19645 -73.57173,92.19645 -1.37705,-0.2439 -1.79918,1.43536 0.71273,5.18396 l 45.98236,68.56206 h -72.31926 c -27.13961,0 -42.2664,-15.39163 -52.21021,-30.76932 l -9.4525,-14.63215 c -7.00289,-12.19344 -26.48223,-24.76316 -42.60545,-24.76316 h -83.53634 l 31.17388,-46.80893 c 14.158,-21.25146 30.46807,-26.55387 63.78712,-26.55387 h 79.938 c 35.58873,0 32.39869,-45.35964 0.71966,-45.35964 H 489.53379 c -15.5558,0 -38.95872,8.59811 -57.60768,38.01572 l -74.82425,118.03263 c -25.79718,41.40898 -85.79218,48.26518 -116.16337,0 z"
     id="path4" />
</svg>
