<?xml version="1.0" encoding="UTF-8" standalone="no"?>
<svg
   width="939.91388"
   height="939.70105"
   viewBox="0 0 248.68597 248.62972"
   version="1.1"
   id="svg6"
   sodipodi:docname="woop.svg"
   inkscape:version="1.1.1 (3bf5ae0d25, 2021-09-20)"
   xmlns:inkscape="http://www.inkscape.org/namespaces/inkscape"
   xmlns:sodipodi="http://sodipodi.sourceforge.net/DTD/sodipodi-0.dtd"
   xmlns="http://www.w3.org/2000/svg"
   xmlns:svg="http://www.w3.org/2000/svg">
  <defs
     id="defs10" />
  <sodipodi:namedview
     id="namedview8"
     pagecolor="#ffffff"
     bordercolor="#666666"
     borderopacity="1.0"
     inkscape:pageshadow="2"
     inkscape:pageopacity="0.0"
     inkscape:pagecheckerboard="0"
     showgrid="false"
     inkscape:zoom="0.6469364"
     inkscape:cx="132.93424"
     inkscape:cy="456.76824"
     inkscape:window-width="2560"
     inkscape:window-height="1017"
     inkscape:window-x="-8"
     inkscape:window-y="-8"
     inkscape:window-maximized="1"
     inkscape:current-layer="svg6" />
  <path
     style="fill:#2eee96;fill-opacity:1;stroke-width:0.15875;paint-order:markers stroke fill"
     d="M 0,0 H 248.686 V 248.62969 H 0 Z"
     id="path2" />
  <path
     style="fill:#ffffff;stroke-width:1"
     d="m 220.612,133.094 c -1.799,10.819 -7.375,21.525 -15.322,29.418 -18.312,18.189 -46.889,21.016 -68.197,6.746 -3.952,-2.647 -6.37,-4.711 -9.894,-8.446 l -2.773,-2.938 -3.006,3.155 c -4.736,4.97 -9.251,8.355 -15.127,11.338 -7.987,4.055 -15.902,5.922 -25.005,5.9 -13.156,-0.033 -25.153,-4.441 -35.359,-12.992 -9.017,-7.556 -15.792,-18.73 -18.175,-29.979 -1.205,-5.688 -1.235,-6.317 -1.232,-26.279 0.003,-18.884 0.008,-19.069 0.592,-21.167 0.84,-3.02 2.927,-7.086 4.748,-9.253 4.23,-5.035 10.692,-8.44 16.448,-8.669 l 1.757,-0.07 0.146,29.105 c 0.134,26.596 0.187,29.272 0.614,31.057 2.963,12.378 12.06,21.384 24.244,24.002 2.965,0.637 9.329,0.644 12.127,0.013 6.403,-1.444 11.534,-4.254 15.904,-8.712 4.356,-4.443 7.036,-9.429 8.41,-15.648 0.343,-1.558 0.442,-5.12 0.587,-21.187 0.172,-19.058 0.182,-19.341 0.773,-21.296 2.811,-9.29 10.547,-15.964 19.952,-17.21 1.796,-0.238 2.41,-0.235 2.705,0.01 0.328,0.273 0.393,4.45 0.456,29.593 l 0.074,29.276 0.728,2.646 c 4.021,14.623 17.984,24.415 32.714,22.943 14.11,-1.411 25.245,-11.7 27.662,-25.559 0.341,-1.956 0.41,-5.188 0.41,-19.32 0,-10.379 0.109,-17.843 0.28,-19.214 0.618,-4.936 2.813,-9.626 6.15,-13.139 2.284,-2.404 4.474,-4.01 7.158,-5.25 3.164,-1.462 9.035,-2.635 9.841,-1.965 0.329,0.272 0.384,3.532 0.391,22.973 0.005,12.46 0.107,22.477 0.228,22.259 1.299,5.82 -0.013,11.98 -1.009,17.859 z"
     id="path4" />
</svg>
