<?xml version="1.0" encoding="UTF-8" standalone="no"?>
<svg
   width="185.37076"
   height="166.44206"
   viewBox="0 0 185.37076 166.44206"
   fill="none"
   version="1.1"
   id="svg8"
   sodipodi:docname="alert.svg"
   inkscape:version="1.1.1 (3bf5ae0d25, 2021-09-20)"
   xmlns:inkscape="http://www.inkscape.org/namespaces/inkscape"
   xmlns:sodipodi="http://sodipodi.sourceforge.net/DTD/sodipodi-0.dtd"
   xmlns="http://www.w3.org/2000/svg"
   xmlns:svg="http://www.w3.org/2000/svg">
  <defs
     id="defs12" />
  <sodipodi:namedview
     id="namedview10"
     pagecolor="#ffffff"
     bordercolor="#666666"
     borderopacity="1.0"
     inkscape:pageshadow="2"
     inkscape:pageopacity="0.0"
     inkscape:pagecheckerboard="0"
     showgrid="false"
     inkscape:zoom="1.5320647"
     inkscape:cx="251.29487"
     inkscape:cy="115.20401"
     inkscape:window-width="1920"
     inkscape:window-height="1017"
     inkscape:window-x="-8"
     inkscape:window-y="-8"
     inkscape:window-maximized="1"
     inkscape:current-layer="g921" />
  <g
     id="g921"
     transform="translate(-8.485281,-4.5689979)">
    <path
       style="fill:#ff0000"
       d="M 39.790376,149.07012 C 34.018918,147.91547 28.38924,143.42211 25.533109,137.6906 22.490438,131.58475 22.31898,126.09725 24.987191,120.21846 26.896043,116.01274 79.063138,28.472699 85.716003,18.311252 93.548379,6.3482461 110.62702,4.5957038 119.22666,14.872523 120.477,16.36671 135.45,40.963963 152.5,69.533084 l 31,51.943856 v 7.17539 c 0,6.37971 -0.33759,7.65622 -3.0444,11.51153 -1.67443,2.38488 -5.04943,5.46114 -7.5,6.83614 l -4.4556,2.5 -62.5,0.15614 c -34.375,0.0859 -64.169331,-0.17784 -66.209624,-0.58602 z M 167.89552,133.59501 C 169.12376,132.4832 170,130.46844 170,128.75612 170,124.71276 109.81774,24.329708 106.48261,22.810121 100.74971,20.198039 100.95193,19.925289 68.370795,74.215295 51.470448,102.37637 37.445941,126.44754 37.205223,127.70678 c -0.566648,2.96422 2.116498,7.02383 5.020143,7.59548 1.251049,0.2463 29.565119,0.39155 62.920154,0.32278 58.13862,-0.11987 60.73252,-0.20379 62.75,-2.03003 z M 98.654988,119.17126 c -2.608224,-2.88206 -2.112771,-7.66601 1.051731,-10.1552 3.166091,-2.49046 6.844481,-2.05207 9.543281,1.13737 2.29886,2.71677 2.20945,4.99276 -0.32258,8.21171 -2.51246,3.19407 -7.74011,3.60431 -10.272432,0.80612 z M 99,91 c -1.843137,-1.843137 -2,-3.333333 -2,-19 0,-15.666667 0.156863,-17.156863 2,-19 2.70273,-2.702734 6.57245,-2.518462 9.54545,0.454545 C 110.94582,55.854911 111,56.260289 111,71.819687 111,86.401812 110.82695,87.950283 108.92742,90.365141 106.39166,93.588839 101.87752,93.877518 99,91 Z"
       id="path923" />
  </g>
</svg>
