<?xml version="1.0" encoding="UTF-8" standalone="no"?>
<!-- Generator: Adobe Illustrator 17.1.0, SVG Export Plug-In . SVG Version: 6.00 Build 0)  -->

<svg
   version="1.1"
   id="invoice"
   x="0px"
   y="0px"
   viewBox="0 0 867.96899 867.96906"
   enable-background="new 0 0 1010 1010"
   xml:space="preserve"
   sodipodi:docname="crediario-7.svg"
   inkscape:version="1.1.1 (3bf5ae0d25, 2021-09-20)"
   width="867.96899"
   height="867.96906"
   xmlns:inkscape="http://www.inkscape.org/namespaces/inkscape"
   xmlns:sodipodi="http://sodipodi.sourceforge.net/DTD/sodipodi-0.dtd"
   xmlns="http://www.w3.org/2000/svg"
   xmlns:svg="http://www.w3.org/2000/svg"><defs
   id="defs74" /><sodipodi:namedview
   id="namedview72"
   pagecolor="#ffffff"
   bordercolor="#666666"
   borderopacity="1.0"
   inkscape:pageshadow="2"
   inkscape:pageopacity="0.0"
   inkscape:pagecheckerboard="0"
   showgrid="false"
   inkscape:zoom="0.82376238"
   inkscape:cx="462.51202"
   inkscape:cy="457.04928"
   inkscape:window-width="2560"
   inkscape:window-height="1017"
   inkscape:window-x="-8"
   inkscape:window-y="-8"
   inkscape:window-maximized="1"
   inkscape:current-layer="invoice-invoice" />
<g
   id="invoice-invoice"
   transform="translate(-84.97596,-74.050476)">
	
	<rect
   style="fill:#3bafda;fill-opacity:1;stroke-width:0.600001;paint-order:markers stroke fill"
   id="rect913"
   width="867.96899"
   height="867.96906"
   x="84.97596"
   y="74.050476"
   rx="0"
   ry="0" /><g
   id="invoice-invoice_1_">
		<polygon
   fill="#ffffff"
   points="719.5361,300.2085 719.5361,787.7998 290.4639,787.7998 290.4639,222.2002 641.5273,222.2002 "
   id="polygon3" />
		<rect
   x="426.98141"
   y="358.72751"
   fill="#acaf48"
   width="234.05569"
   height="58.4991"
   id="rect5" />
		<rect
   x="582.25983"
   y="593.44342"
   fill="#ffb933"
   width="78.017502"
   height="58.509701"
   id="rect7" />
		<rect
   x="505"
   y="592.77338"
   fill="#ffffff"
   width="78.0186"
   height="58.508801"
   id="rect9" />
		<g
   id="g15">
			<polyline
   fill="#3bafda"
   points="641.5273,222.2002 641.5273,300.2085 719.5361,300.2085    "
   id="polyline11" />
			<polygon
   fill="#454545"
   points="651.292,290.4438 719.5361,290.4438 719.5361,309.9731 631.7627,309.9731 631.7627,222.2002 651.292,222.2002 "
   id="polygon13" />
		</g>
		<g
   id="g21">
			<g
   id="g19">
				<path
   fill="#454545"
   d="M 729.6367,797.9004 H 280.3638 V 212.0996 H 645.71 l 83.9266,83.9268 v 501.874 z M 300.564,777.7002 H 709.4365 V 304.3906 L 637.3457,232.2998 H 300.564 Z"
   id="path17" />
			</g>
		</g>
		<g
   id="g25">
			<polygon
   fill="#454545"
   points="475.7358,290.8086 339.2178,290.8086 339.2178,270.6089 475.7358,270.6089 "
   id="polygon23" />
		</g>
		<g
   id="g29">
			<path
   fill="#454545"
   d="M 671.1367,661.3828 H 338.873 V 348.6274 H 671.1367 Z M 359.0728,641.1816 H 650.9375 V 368.8271 H 359.0728 Z"
   id="path27" />
		</g>
		<g
   id="g33">
			<polygon
   fill="#454545"
   points="670.7822,710.4814 514.7549,710.4814 514.7549,690.2812 670.7822,690.2812 "
   id="polygon31" />
		</g>
		<g
   id="g37">
			<polygon
   fill="#454545"
   points="612.2734,739.3906 514.7549,739.3906 514.7549,719.1914 612.2734,719.1914 "
   id="polygon35" />
		</g>
		<g
   id="g41">
			<polygon
   fill="#454545"
   points="661.0371,427.3267 348.9727,427.3267 348.9727,407.1265 661.0371,407.1265 "
   id="polygon39" />
		</g>
		<g
   id="g45">
			<polygon
   fill="#454545"
   points="437.0815,651.2822 416.8818,651.2822 416.8818,358.7275 437.0815,358.7275 "
   id="polygon43" />
		</g>
		<g
   id="g51">
			<g
   id="g49">
				<polygon
   fill="#454545"
   points="515.1001,651.2822 494.9004,651.2822 494.9004,417.2266 515.1001,417.2266 "
   id="polygon47" />
			</g>
		</g>
		<g
   id="g55">
			<polygon
   fill="#454545"
   points="593.1191,651.2822 572.9189,651.2822 572.9189,417.2266 593.1191,417.2266 "
   id="polygon53" />
		</g>
		<g
   id="g59">
			<polygon
   fill="#454545"
   points="661.0371,485.8457 426.9814,485.8457 426.9814,465.6455 661.0371,465.6455 "
   id="polygon57" />
		</g>
		<g
   id="g63">
			<polygon
   fill="#454545"
   points="661.0371,544.3545 426.9814,544.3545 426.9814,524.1543 661.0371,524.1543 "
   id="polygon61" />
		</g>
		<g
   id="g67">
			<polygon
   fill="#454545"
   points="661.0371,602.873 426.9814,602.873 426.9814,582.6738 661.0371,582.6738 "
   id="polygon65" />
		</g>
	</g>
</g>
</svg>
