<?xml version="1.0" encoding="UTF-8" standalone="no"?>
<!-- Generator: Adobe Illustrator 19.0.0, SVG Export Plug-In . SVG Version: 6.00 Build 0)  -->

<svg
   version="1.1"
   id="Layer_1"
   x="0px"
   y="0px"
   viewBox="0 0 500.00001 500.00004"
   xml:space="preserve"
   sodipodi:docname="banco-generico.svg"
   width="500"
   height="500.00003"
   inkscape:version="1.1.1 (3bf5ae0d25, 2021-09-20)"
   xmlns:inkscape="http://www.inkscape.org/namespaces/inkscape"
   xmlns:sodipodi="http://sodipodi.sourceforge.net/DTD/sodipodi-0.dtd"
   xmlns="http://www.w3.org/2000/svg"
   xmlns:svg="http://www.w3.org/2000/svg"><defs
   id="defs319" /><sodipodi:namedview
   id="namedview317"
   pagecolor="#ffffff"
   bordercolor="#666666"
   borderopacity="1.0"
   inkscape:pageshadow="2"
   inkscape:pageopacity="0.0"
   inkscape:pagecheckerboard="0"
   showgrid="false"
   inkscape:zoom="0.87280275"
   inkscape:cx="75.61846"
   inkscape:cy="297.31804"
   inkscape:window-width="2560"
   inkscape:window-height="1017"
   inkscape:window-x="-8"
   inkscape:window-y="-8"
   inkscape:window-maximized="1"
   inkscape:current-layer="Layer_1" />
<rect
   style="fill:#ea8953;fill-opacity:1;stroke-width:0.6;paint-order:markers stroke fill"
   id="rect1260"
   width="500"
   height="500.00003"
   x="0"
   y="0" />
<path
   style="opacity:0.1;enable-background:new"
   d="m 217.344,106.10573 -112.384,65.997 v 18.073 l 11.622,11.622 c 0.256,1.024 1.024,1.792 2.048,2.048 l 1.331,1.331 v 93.901 h -0.614 c -1.587,0 -2.867,1.28 -2.867,2.867 v 10.906 h -11.52 v 18.073 l 160.858,160.858 c 100.645,-8.138 184.138,-76.859 213.944,-169.698 l -149.983,-149.981 z"
   id="path4" />
<rect
   x="104.96"
   y="172.10274"
   style="fill:#d5d6db"
   width="224.80901"
   height="18.079"
   id="rect6" />
<g
   id="g12"
   transform="translate(0,1.1457342)">
	<rect
   x="104.96"
   y="311.69"
   style="fill:#ebf0f3"
   width="224.80901"
   height="18.079"
   id="rect8" />
	<polygon
   style="fill:#ebf0f3"
   points="329.767,170.957 217.364,104.96 104.96,170.957 "
   id="polygon10" />
</g>
<polygon
   style="fill:#e1e6e9"
   points="284.667,158.694 150.062,158.694 217.365,119.179 "
   id="polygon14"
   transform="translate(0,1.1457342)" />
<rect
   x="119.972"
   y="200.70773"
   style="fill:#ebf0f3"
   width="35.292"
   height="103.424"
   id="rect16" />
<g
   id="g28"
   transform="translate(0,1.1457342)">
	<path
   style="fill:#e1e6e9"
   d="m 155.907,297.934 h -36.578 c -1.585,0 -2.87,1.285 -2.87,2.87 v 10.885 h 42.319 v -10.885 c 0,-1.585 -1.286,-2.87 -2.871,-2.87 z"
   id="path18" />
	<path
   style="fill:#e1e6e9"
   d="m 116.459,189.035 v 10.885 c 0,1.585 1.285,2.87 2.87,2.87 h 36.578 c 1.585,0 2.87,-1.285 2.87,-2.87 v -10.885 z"
   id="path20" />
	<path
   style="fill:#e1e6e9"
   d="m 127.951,291.898 c -1.13,0 -2.044,-0.914 -2.044,-2.044 v -77.17 c 0,-1.13 0.914,-2.044 2.044,-2.044 1.13,0 2.044,0.914 2.044,2.044 v 77.17 c -0.001,1.13 -0.915,2.044 -2.044,2.044 z"
   id="path22" />
	<path
   style="fill:#e1e6e9"
   d="m 137.618,291.898 c -1.13,0 -2.044,-0.914 -2.044,-2.044 v -77.17 c 0,-1.13 0.914,-2.044 2.044,-2.044 1.13,0 2.044,0.914 2.044,2.044 v 77.17 c 0,1.13 -0.914,2.044 -2.044,2.044 z"
   id="path24" />
	<path
   style="fill:#e1e6e9"
   d="m 147.286,291.898 c -1.13,0 -2.044,-0.914 -2.044,-2.044 v -77.17 c 0,-1.13 0.914,-2.044 2.044,-2.044 1.13,0 2.044,0.914 2.044,2.044 v 77.17 c 0,1.13 -0.914,2.044 -2.044,2.044 z"
   id="path26" />
</g>
<rect
   x="199.731"
   y="200.70773"
   style="fill:#ebf0f3"
   width="35.292"
   height="103.424"
   id="rect30" />
<g
   id="g42"
   transform="translate(0,1.1457342)">
	<path
   style="fill:#e1e6e9"
   d="m 235.653,297.934 h -36.578 c -1.585,0 -2.87,1.285 -2.87,2.87 v 10.885 h 42.319 v -10.885 c -0.001,-1.585 -1.286,-2.87 -2.871,-2.87 z"
   id="path32" />
	<path
   style="fill:#e1e6e9"
   d="m 196.204,189.035 v 10.885 c 0,1.585 1.285,2.87 2.87,2.87 h 36.578 c 1.585,0 2.87,-1.285 2.87,-2.87 v -10.885 z"
   id="path34" />
	<path
   style="fill:#e1e6e9"
   d="m 207.696,291.898 c -1.13,0 -2.044,-0.914 -2.044,-2.044 v -77.17 c 0,-1.13 0.914,-2.044 2.044,-2.044 1.13,0 2.044,0.914 2.044,2.044 v 77.17 c 0,1.13 -0.915,2.044 -2.044,2.044 z"
   id="path36" />
	<path
   style="fill:#e1e6e9"
   d="m 217.364,291.898 c -1.13,0 -2.044,-0.914 -2.044,-2.044 v -77.17 c 0,-1.13 0.914,-2.044 2.044,-2.044 1.13,0 2.044,0.914 2.044,2.044 v 77.17 c -10e-4,1.13 -0.915,2.044 -2.044,2.044 z"
   id="path38" />
	<path
   style="fill:#e1e6e9"
   d="m 227.031,291.898 c -1.13,0 -2.044,-0.914 -2.044,-2.044 v -77.17 c 0,-1.13 0.914,-2.044 2.044,-2.044 1.13,0 2.044,0.914 2.044,2.044 v 77.17 c 0,1.13 -0.914,2.044 -2.044,2.044 z"
   id="path40" />
</g>
<rect
   x="279.45001"
   y="200.70773"
   style="fill:#ebf0f3"
   width="35.292"
   height="103.424"
   id="rect44" />
<g
   id="g56"
   transform="translate(0,1.1457342)">
	<path
   style="fill:#e1e6e9"
   d="M 315.398,297.934 H 278.82 c -1.585,0 -2.87,1.285 -2.87,2.87 v 10.885 h 42.319 v -10.885 c -0.001,-1.585 -1.286,-2.87 -2.871,-2.87 z"
   id="path46" />
	<path
   style="fill:#e1e6e9"
   d="m 275.949,189.035 v 10.885 c 0,1.585 1.285,2.87 2.87,2.87 h 36.578 c 1.585,0 2.871,-1.285 2.871,-2.87 v -10.885 z"
   id="path48" />
	<path
   style="fill:#e1e6e9"
   d="m 287.441,291.898 c -1.13,0 -2.044,-0.914 -2.044,-2.044 v -77.17 c 0,-1.13 0.914,-2.044 2.044,-2.044 1.13,0 2.044,0.914 2.044,2.044 v 77.17 c 0,1.13 -0.914,2.044 -2.044,2.044 z"
   id="path50" />
	<path
   style="fill:#e1e6e9"
   d="m 297.109,291.898 c -1.13,0 -2.044,-0.914 -2.044,-2.044 v -77.17 c 0,-1.13 0.914,-2.044 2.044,-2.044 1.13,0 2.044,0.914 2.044,2.044 v 77.17 c -0.001,1.13 -0.915,2.044 -2.044,2.044 z"
   id="path52" />
	<path
   style="fill:#e1e6e9"
   d="m 306.776,291.898 c -1.13,0 -2.044,-0.914 -2.044,-2.044 v -77.17 c 0,-1.13 0.914,-2.044 2.044,-2.044 1.13,0 2.044,0.914 2.044,2.044 v 77.17 c 0,1.13 -0.914,2.044 -2.044,2.044 z"
   id="path54" />
</g>
<path
   style="fill:#dc8744"
   d="m 216.683,154.64273 v -2.262 c -2.832,-0.289 -5.375,-1.415 -7.624,-3.377 l 2.262,-2.696 c 1.735,1.508 3.521,2.406 5.362,2.696 v -6.013 c -2.336,-0.557 -4.046,-1.291 -5.13,-2.201 -1.085,-0.909 -1.627,-2.257 -1.627,-4.044 0,-1.787 0.623,-3.249 1.874,-4.386 1.251,-1.136 2.878,-1.755 4.883,-1.859 v -1.55 h 1.982 v 1.58 c 2.272,0.166 4.421,0.941 6.447,2.325 l -2.015,2.851 c -1.364,-0.971 -2.84,-1.57 -4.431,-1.798 v 5.826 h 0.093 c 2.376,0.559 4.121,1.313 5.236,2.262 1.117,0.951 1.675,2.33 1.675,4.138 0,1.808 -0.641,3.281 -1.922,4.416 -1.281,1.137 -2.974,1.757 -5.082,1.86 v 2.231 h -1.983 z m -2.187,-20.004 c -0.527,0.464 -0.789,1.043 -0.789,1.735 0,0.692 0.207,1.24 0.62,1.642 0.411,0.404 1.198,0.791 2.356,1.163 v -5.362 c -0.931,0.083 -1.66,0.357 -2.187,0.822 z m 6.525,13.589 c 0.578,-0.474 0.868,-1.073 0.868,-1.797 0,-0.723 -0.227,-1.296 -0.681,-1.72 -0.456,-0.424 -1.304,-0.821 -2.542,-1.193 v 5.578 c 0.99,-0.102 1.775,-0.392 2.355,-0.868 z"
   id="path58" />
<polygon
   style="fill:#31978c"
   points="255.681,322.759 195.783,329.673 195.783,343.848 260.595,366.179 386.56,321.828 386.56,307.652 355.742,311.209 321.748,299.497 "
   id="polygon60"
   transform="translate(0,1.1457342)" />
<polygon
   style="fill:#3ea69b"
   points="260.595,352.003 386.56,307.652 321.748,285.321 195.783,329.672 "
   id="polygon62"
   transform="translate(0,1.1457342)" />
<path
   style="fill:#44c4a1"
   d="m 252.041,347.01073 -38.543,-13.28 c 4.646,-1.636 4.605,-4.274 -0.092,-5.892 l 99.98,-35.202 c 4.696,1.618 12.27,1.604 16.916,-0.032 l 38.543,13.28 c -4.646,1.636 -4.605,4.274 0.092,5.892 l -99.98,35.202 c -4.697,-1.618 -12.27,-1.604 -16.916,0.032 z"
   id="path64" />
<g
   id="g72"
   transform="translate(0,1.1457342)">
	<path
   style="fill:#3ea69b"
   d="m 308.448,312.579 c 12.21,4.207 14.373,10.341 4.831,13.7 -9.542,3.359 -27.175,2.673 -39.385,-1.534 -12.21,-4.207 -14.373,-10.341 -4.831,-13.7 9.542,-3.359 27.176,-2.673 39.385,1.534 z"
   id="path66" />
	<path
   style="fill:#3ea69b"
   d="m 344.014,300.056 c 2.183,0.752 2.202,1.978 0.043,2.738 -2.159,0.76 -5.678,0.767 -7.861,0.015 -2.183,-0.752 -2.202,-1.978 -0.043,-2.738 2.159,-0.76 5.679,-0.767 7.861,-0.015 z"
   id="path68" />
	<path
   style="fill:#3ea69b"
   d="m 246.147,334.515 c 2.183,0.752 2.202,1.978 0.043,2.738 -2.159,0.76 -5.678,0.767 -7.861,0.015 -2.183,-0.752 -2.202,-1.978 -0.043,-2.738 2.159,-0.76 5.679,-0.767 7.861,-0.015 z"
   id="path70" />
</g>
<path
   style="fill:#44c4a1"
   d="m 308.042,326.27073 -3.136,-1.08 c -4.284,1.229 -9.33,1.919 -15.134,2.068 l -0.635,-2.38 c 4.47,-0.117 8.162,-0.551 11.089,-1.301 l -8.334,-2.871 c -3.975,0.861 -7.337,1.336 -10.084,1.426 -2.747,0.089 -5.359,-0.293 -7.836,-1.146 -2.477,-0.853 -3.648,-1.852 -3.51,-2.999 0.14,-1.147 1.513,-2.228 4.118,-3.245 l -2.148,-0.74 2.718,-0.957 2.19,0.755 c 3.346,-1.018 7.366,-1.685 12.062,-2.002 l 1.189,2.334 c -3.217,0.195 -6.07,0.621 -8.568,1.281 l 8.075,2.782 0.128,-0.045 c 4.032,-0.88 7.47,-1.363 10.315,-1.447 2.85,-0.085 5.526,0.304 8.031,1.167 2.506,0.864 3.67,1.876 3.486,3.037 -0.18,1.162 -1.642,2.274 -4.39,3.342 l 3.092,1.065 z m -30.724,-8.497 c -0.08,0.476 0.363,0.879 1.323,1.21 0.96,0.331 2.002,0.492 3.126,0.485 1.123,-0.006 2.738,-0.201 4.841,-0.582 l -7.432,-2.561 c -1.16,0.489 -1.78,0.971 -1.858,1.448 z m 27.781,3.34 c 0.135,-0.505 -0.298,-0.931 -1.301,-1.277 -1.002,-0.345 -2.108,-0.509 -3.318,-0.493 -1.213,0.018 -2.926,0.237 -5.139,0.658 l 7.731,2.664 c 1.217,-0.528 1.89,-1.045 2.027,-1.552 z"
   id="path74" />
<polygon
   style="fill:#31978c"
   points="255.681,306.108 195.783,313.022 195.783,327.198 260.595,349.528 386.56,305.177 386.56,291.001 355.742,294.558 321.748,282.846 "
   id="polygon76"
   transform="translate(0,1.1457342)" />
<polygon
   style="fill:#3ea69b"
   points="260.595,335.352 386.56,291.001 321.748,268.67 195.783,313.022 "
   id="polygon78"
   transform="translate(0,1.1457342)" />
<path
   style="fill:#44c4a1"
   d="m 252.041,330.35973 -38.543,-13.28 c 4.646,-1.636 4.605,-4.274 -0.092,-5.892 l 99.98,-35.202 c 4.696,1.618 12.27,1.604 16.916,-0.032 l 38.543,13.28 c -4.646,1.636 -4.605,4.274 0.092,5.892 l -99.98,35.202 c -4.697,-1.618 -12.27,-1.603 -16.916,0.032 z"
   id="path80" />
<g
   id="g88"
   transform="translate(0,1.1457342)">
	<path
   style="fill:#3ea69b"
   d="m 308.448,295.928 c 12.21,4.207 14.373,10.341 4.831,13.7 -9.542,3.359 -27.175,2.673 -39.385,-1.534 -12.21,-4.207 -14.373,-10.341 -4.831,-13.7 9.542,-3.36 27.176,-2.673 39.385,1.534 z"
   id="path82" />
	<path
   style="fill:#3ea69b"
   d="m 344.014,283.406 c 2.183,0.752 2.202,1.978 0.043,2.738 -2.159,0.76 -5.678,0.767 -7.861,0.015 -2.183,-0.752 -2.202,-1.978 -0.043,-2.738 2.159,-0.761 5.679,-0.767 7.861,-0.015 z"
   id="path84" />
	<path
   style="fill:#3ea69b"
   d="m 246.147,317.864 c 2.183,0.752 2.202,1.978 0.043,2.738 -2.159,0.76 -5.678,0.767 -7.861,0.015 -2.183,-0.752 -2.202,-1.978 -0.043,-2.738 2.159,-0.76 5.679,-0.767 7.861,-0.015 z"
   id="path86" />
</g>
<path
   style="fill:#44c4a1"
   d="m 308.042,309.62073 -3.136,-1.08 c -4.284,1.229 -9.33,1.919 -15.134,2.068 l -0.635,-2.38 c 4.47,-0.117 8.162,-0.551 11.089,-1.301 l -8.334,-2.871 c -3.975,0.861 -7.337,1.336 -10.084,1.426 -2.747,0.089 -5.359,-0.293 -7.836,-1.146 -2.477,-0.853 -3.648,-1.852 -3.51,-2.999 0.14,-1.147 1.513,-2.228 4.118,-3.245 l -2.148,-0.74 2.718,-0.957 2.19,0.755 c 3.346,-1.018 7.366,-1.685 12.062,-2.002 l 1.189,2.334 c -3.217,0.195 -6.07,0.621 -8.568,1.28 l 8.075,2.782 0.128,-0.045 c 4.032,-0.88 7.47,-1.363 10.315,-1.447 2.85,-0.085 5.526,0.304 8.031,1.167 2.506,0.864 3.67,1.876 3.486,3.037 -0.18,1.162 -1.642,2.274 -4.39,3.342 l 3.092,1.065 z m -30.724,-8.498 c -0.08,0.476 0.363,0.879 1.323,1.21 0.96,0.331 2.002,0.492 3.126,0.485 1.123,-0.006 2.738,-0.201 4.841,-0.582 l -7.432,-2.561 c -1.16,0.489 -1.78,0.971 -1.858,1.448 z m 27.781,3.34 c 0.135,-0.505 -0.298,-0.931 -1.301,-1.277 -1.002,-0.345 -2.108,-0.509 -3.318,-0.493 -1.213,0.018 -2.926,0.237 -5.139,0.658 l 7.731,2.664 c 1.217,-0.528 1.89,-1.045 2.027,-1.552 z"
   id="path90" />
<polygon
   style="fill:#31978c"
   points="255.681,289.457 195.783,296.371 195.783,310.547 260.595,332.878 386.56,288.526 386.56,274.35 355.742,277.907 321.748,266.195 "
   id="polygon92"
   transform="translate(0,1.1457342)" />
<polygon
   style="fill:#3ea69b"
   points="260.595,318.702 386.56,274.35 321.748,252.019 195.783,296.371 "
   id="polygon94"
   transform="translate(0,1.1457342)" />
<path
   style="fill:#44c4a1"
   d="m 252.041,313.70973 -38.543,-13.28 c 4.646,-1.636 4.605,-4.274 -0.092,-5.892 l 99.98,-35.202 c 4.696,1.618 12.27,1.604 16.916,-0.032 l 38.543,13.28 c -4.646,1.636 -4.605,4.274 0.092,5.892 l -99.98,35.202 c -4.697,-1.619 -12.27,-1.604 -16.916,0.032 z"
   id="path96" />
<g
   id="g104"
   transform="translate(0,1.1457342)">
	<path
   style="fill:#3ea69b"
   d="m 308.448,279.277 c 12.21,4.207 14.373,10.341 4.831,13.7 -9.542,3.359 -27.175,2.673 -39.385,-1.534 -12.21,-4.207 -14.373,-10.341 -4.831,-13.7 9.542,-3.359 27.176,-2.673 39.385,1.534 z"
   id="path98" />
	<path
   style="fill:#3ea69b"
   d="m 344.014,266.755 c 2.183,0.752 2.202,1.978 0.043,2.738 -2.159,0.76 -5.678,0.767 -7.861,0.015 -2.183,-0.752 -2.202,-1.978 -0.043,-2.738 2.159,-0.761 5.679,-0.767 7.861,-0.015 z"
   id="path100" />
	<path
   style="fill:#3ea69b"
   d="m 246.147,301.213 c 2.183,0.752 2.202,1.978 0.043,2.738 -2.159,0.76 -5.678,0.767 -7.861,0.015 -2.183,-0.752 -2.202,-1.978 -0.043,-2.738 2.159,-0.76 5.679,-0.767 7.861,-0.015 z"
   id="path102" />
</g>
<path
   style="fill:#44c4a1"
   d="m 308.042,292.96973 -3.136,-1.08 c -4.284,1.229 -9.33,1.919 -15.134,2.068 l -0.635,-2.38 c 4.47,-0.117 8.162,-0.551 11.089,-1.301 l -8.334,-2.871 c -3.975,0.861 -7.337,1.336 -10.084,1.426 -2.747,0.089 -5.359,-0.293 -7.836,-1.146 -2.477,-0.853 -3.648,-1.852 -3.51,-2.999 0.14,-1.147 1.513,-2.228 4.118,-3.245 l -2.148,-0.74 2.718,-0.957 2.19,0.755 c 3.346,-1.018 7.366,-1.685 12.062,-2.002 l 1.189,2.334 c -3.217,0.195 -6.07,0.621 -8.568,1.28 l 8.075,2.782 0.128,-0.045 c 4.032,-0.88 7.47,-1.363 10.315,-1.447 2.85,-0.085 5.526,0.304 8.031,1.167 2.506,0.864 3.67,1.876 3.486,3.037 -0.18,1.162 -1.642,2.274 -4.39,3.342 l 3.092,1.065 z m -30.724,-8.498 c -0.08,0.476 0.363,0.879 1.323,1.21 0.96,0.331 2.002,0.492 3.126,0.485 1.123,-0.006 2.738,-0.201 4.841,-0.582 l -7.432,-2.561 c -1.16,0.489 -1.78,0.972 -1.858,1.448 z m 27.781,3.34 c 0.135,-0.505 -0.298,-0.931 -1.301,-1.277 -1.002,-0.345 -2.108,-0.509 -3.318,-0.493 -1.213,0.018 -2.926,0.237 -5.139,0.658 l 7.731,2.664 c 1.217,-0.528 1.89,-1.045 2.027,-1.552 z"
   id="path106" />
<polygon
   style="fill:#31978c"
   points="255.681,272.806 195.783,279.72 195.783,293.896 260.595,316.227 386.56,271.875 386.56,257.699 355.742,261.257 321.748,249.544 "
   id="polygon108"
   transform="translate(0,1.1457342)" />
<polygon
   style="fill:#3ea69b"
   points="260.595,302.051 386.56,257.699 321.748,235.368 195.783,279.72 "
   id="polygon110"
   transform="translate(0,1.1457342)" />
<path
   style="fill:#44c4a1"
   d="m 252.041,297.05873 -38.543,-13.28 c 4.646,-1.636 4.605,-4.274 -0.092,-5.892 l 99.98,-35.202 c 4.696,1.618 12.27,1.604 16.916,-0.032 l 38.543,13.28 c -4.646,1.636 -4.605,4.274 0.092,5.892 l -99.98,35.202 c -4.697,-1.618 -12.27,-1.604 -16.916,0.032 z"
   id="path112" />
<g
   id="g120"
   transform="translate(0,1.1457342)">
	<path
   style="fill:#3ea69b"
   d="m 308.448,262.626 c 12.21,4.207 14.373,10.341 4.831,13.7 -9.542,3.359 -27.175,2.673 -39.385,-1.534 -12.21,-4.207 -14.373,-10.341 -4.831,-13.7 9.542,-3.359 27.176,-2.672 39.385,1.534 z"
   id="path114" />
	<path
   style="fill:#3ea69b"
   d="m 344.014,250.104 c 2.183,0.752 2.202,1.978 0.043,2.738 -2.159,0.76 -5.678,0.767 -7.861,0.015 -2.183,-0.752 -2.202,-1.978 -0.043,-2.738 2.159,-0.76 5.679,-0.767 7.861,-0.015 z"
   id="path116" />
	<path
   style="fill:#3ea69b"
   d="m 246.147,284.563 c 2.183,0.752 2.202,1.978 0.043,2.738 -2.159,0.76 -5.678,0.767 -7.861,0.015 -2.183,-0.752 -2.202,-1.978 -0.043,-2.738 2.159,-0.761 5.679,-0.767 7.861,-0.015 z"
   id="path118" />
</g>
<path
   style="fill:#44c4a1"
   d="m 308.042,276.31873 -3.136,-1.08 c -4.284,1.229 -9.33,1.919 -15.134,2.068 l -0.635,-2.38 c 4.47,-0.117 8.162,-0.551 11.089,-1.301 l -8.334,-2.871 c -3.975,0.861 -7.337,1.336 -10.084,1.426 -2.747,0.089 -5.359,-0.293 -7.836,-1.146 -2.477,-0.853 -3.648,-1.852 -3.51,-2.999 0.14,-1.146 1.513,-2.228 4.118,-3.245 l -2.148,-0.74 2.718,-0.957 2.19,0.755 c 3.346,-1.018 7.366,-1.685 12.062,-2.002 l 1.189,2.334 c -3.217,0.195 -6.07,0.621 -8.568,1.28 l 8.075,2.782 0.128,-0.045 c 4.032,-0.88 7.47,-1.363 10.315,-1.447 2.85,-0.085 5.526,0.304 8.031,1.167 2.506,0.864 3.67,1.876 3.486,3.037 -0.18,1.162 -1.642,2.274 -4.39,3.342 l 3.092,1.065 z m -30.724,-8.497 c -0.08,0.476 0.363,0.879 1.323,1.21 0.96,0.331 2.002,0.492 3.126,0.485 1.123,-0.006 2.738,-0.201 4.841,-0.582 l -7.432,-2.561 c -1.16,0.488 -1.78,0.971 -1.858,1.448 z m 27.781,3.339 c 0.135,-0.505 -0.298,-0.931 -1.301,-1.277 -1.002,-0.345 -2.108,-0.51 -3.318,-0.493 -1.213,0.018 -2.926,0.237 -5.139,0.658 l 7.731,2.664 c 1.217,-0.528 1.89,-1.045 2.027,-1.552 z"
   id="path122" />
<polygon
   style="fill:#31978c"
   points="255.681,256.156 195.783,263.069 195.783,277.245 260.595,299.576 386.56,255.224 386.56,241.048 355.742,244.606 321.748,232.893 "
   id="polygon124"
   transform="translate(0,1.1457342)" />
<polygon
   style="fill:#3ea69b"
   points="260.595,285.4 386.56,241.048 321.748,218.718 195.783,263.069 "
   id="polygon126"
   transform="translate(0,1.1457342)" />
<path
   style="fill:#44c4a1"
   d="m 252.041,280.40773 -38.543,-13.28 c 4.646,-1.636 4.605,-4.274 -0.092,-5.892 l 99.98,-35.202 c 4.696,1.618 12.27,1.604 16.916,-0.032 l 38.543,13.28 c -4.646,1.636 -4.605,4.274 0.092,5.892 l -99.98,35.202 c -4.697,-1.618 -12.27,-1.604 -16.916,0.032 z"
   id="path128" />
<g
   id="g136"
   transform="translate(0,1.1457342)">
	<path
   style="fill:#3ea69b"
   d="m 308.448,245.976 c 12.21,4.207 14.373,10.341 4.831,13.7 -9.542,3.359 -27.175,2.673 -39.385,-1.534 -12.21,-4.207 -14.373,-10.341 -4.831,-13.7 9.542,-3.36 27.176,-2.673 39.385,1.534 z"
   id="path130" />
	<path
   style="fill:#3ea69b"
   d="m 344.014,233.453 c 2.183,0.752 2.202,1.978 0.043,2.738 -2.159,0.76 -5.678,0.767 -7.861,0.015 -2.183,-0.752 -2.202,-1.978 -0.043,-2.738 2.159,-0.76 5.679,-0.767 7.861,-0.015 z"
   id="path132" />
	<path
   style="fill:#3ea69b"
   d="m 246.147,267.912 c 2.183,0.752 2.202,1.978 0.043,2.738 -2.159,0.76 -5.678,0.767 -7.861,0.015 -2.183,-0.752 -2.202,-1.978 -0.043,-2.738 2.159,-0.761 5.679,-0.767 7.861,-0.015 z"
   id="path134" />
</g>
<path
   style="fill:#44c4a1"
   d="m 308.042,259.66773 -3.136,-1.08 c -4.284,1.229 -9.33,1.919 -15.134,2.068 l -0.635,-2.38 c 4.47,-0.117 8.162,-0.551 11.089,-1.301 l -8.334,-2.871 c -3.975,0.861 -7.337,1.336 -10.084,1.426 -2.747,0.089 -5.359,-0.293 -7.836,-1.146 -2.477,-0.853 -3.648,-1.852 -3.51,-2.999 0.14,-1.147 1.513,-2.228 4.118,-3.245 l -2.148,-0.74 2.718,-0.957 2.19,0.755 c 3.346,-1.018 7.366,-1.685 12.062,-2.002 l 1.189,2.334 c -3.217,0.195 -6.07,0.621 -8.568,1.281 l 8.075,2.782 0.128,-0.045 c 4.032,-0.88 7.47,-1.363 10.315,-1.447 2.85,-0.085 5.526,0.304 8.031,1.167 2.506,0.864 3.67,1.876 3.486,3.037 -0.18,1.162 -1.642,2.274 -4.39,3.342 l 3.092,1.065 z m -30.724,-8.497 c -0.08,0.476 0.363,0.879 1.323,1.21 0.96,0.331 2.002,0.492 3.126,0.485 1.123,-0.006 2.738,-0.201 4.841,-0.582 l -7.432,-2.561 c -1.16,0.488 -1.78,0.971 -1.858,1.448 z m 27.781,3.339 c 0.135,-0.505 -0.298,-0.931 -1.301,-1.277 -1.002,-0.345 -2.108,-0.51 -3.318,-0.493 -1.213,0.018 -2.926,0.237 -5.139,0.658 l 7.731,2.664 c 1.217,-0.527 1.89,-1.044 2.027,-1.552 z"
   id="path138" />
<polygon
   style="fill:#ffffff"
   points="337.77,339.028 337.77,258.227 308.792,268.43 308.792,349.231 "
   id="polygon140"
   transform="translate(0,1.1457342)" />
<g
   id="g146"
   transform="translate(0,1.1457342)">
	<polygon
   style="fill:#fcd462"
   points="315.24,346.96 315.24,266.16 312.25,267.212 312.25,348.013 "
   id="polygon142" />
	<polygon
   style="fill:#fcd462"
   points="334.312,340.245 334.312,259.445 331.321,260.498 331.321,341.298 "
   id="polygon144" />
</g>
<path
   style="fill:#f6c358"
   d="m 334.59,377.34373 c 0,5.723 -11.034,10.362 -24.644,10.362 -13.611,0 -24.644,-4.639 -24.644,-10.362 v -8.476 h 49.288 z"
   id="path148" />
<ellipse
   style="fill:#fcd462"
   cx="309.965"
   cy="368.86972"
   rx="24.643"
   ry="10.363"
   id="ellipse150" />
<g
   id="g156"
   transform="translate(0,1.1457342)">
	<path
   style="fill:#dc8744"
   d="m 309.946,359.385 c -11.879,0 -21.508,3.733 -21.508,8.338 0,4.605 9.63,8.338 21.508,8.338 11.879,0 21.508,-3.733 21.508,-8.338 0,-4.605 -9.63,-8.338 -21.508,-8.338 z m 0,15.748 c -10.559,0 -19.118,-3.318 -19.118,-7.411 0,-4.093 8.56,-7.411 19.118,-7.411 10.558,0 19.118,3.318 19.118,7.411 0,4.093 -8.56,7.411 -19.118,7.411 z"
   id="path152" />
	<path
   style="fill:#dc8744"
   d="m 309.158,373.482 v -1.014 c -3.276,-0.129 -6.216,-0.634 -8.819,-1.514 l 2.617,-1.209 c 2.007,0.676 4.072,1.079 6.202,1.209 v -2.696 c -2.701,-0.25 -4.679,-0.579 -5.934,-0.987 -1.254,-0.408 -1.882,-1.012 -1.882,-1.813 0,-0.801 0.721,-1.457 2.167,-1.967 1.447,-0.509 3.328,-0.787 5.648,-0.833 v -0.695 h 2.293 v 0.708 c 2.628,0.075 5.114,0.422 7.456,1.043 l -2.331,1.278 c -1.578,-0.435 -3.285,-0.704 -5.125,-0.806 v 2.612 h 0.108 c 2.748,0.251 4.767,0.589 6.056,1.014 1.292,0.426 1.937,1.045 1.937,1.855 0,0.811 -0.741,1.471 -2.223,1.98 -1.482,0.51 -3.439,0.788 -5.878,0.834 v 1 h -2.292 z m -2.529,-8.969 c -0.61,0.208 -0.913,0.468 -0.913,0.778 0,0.31 0.239,0.556 0.718,0.736 0.475,0.181 1.386,0.355 2.725,0.521 v -2.404 c -1.077,0.037 -1.921,0.16 -2.53,0.369 z m 7.547,6.093 c 0.668,-0.213 1.004,-0.481 1.004,-0.806 0,-0.324 -0.263,-0.581 -0.788,-0.771 -0.528,-0.19 -1.508,-0.368 -2.94,-0.535 v 2.501 c 1.145,-0.046 2.053,-0.176 2.724,-0.389 z"
   id="path154" />
</g>
<path
   style="fill:#f6c358"
   d="m 334.59,367.04973 c 0,5.723 -11.034,10.362 -24.644,10.362 -13.611,0 -24.644,-4.639 -24.644,-10.362 v -8.476 h 49.288 z"
   id="path158" />
<ellipse
   style="fill:#fcd462"
   cx="309.965"
   cy="358.57272"
   rx="24.643"
   ry="10.363"
   id="ellipse160" />
<g
   id="g166"
   transform="translate(0,1.1457342)">
	<path
   style="fill:#dc8744"
   d="m 309.946,349.091 c -11.879,0 -21.508,3.733 -21.508,8.338 0,4.605 9.63,8.338 21.508,8.338 11.879,0 21.508,-3.733 21.508,-8.338 0,-4.606 -9.63,-8.338 -21.508,-8.338 z m 0,15.748 c -10.559,0 -19.118,-3.318 -19.118,-7.411 0,-4.093 8.56,-7.411 19.118,-7.411 10.558,0 19.118,3.318 19.118,7.411 0,4.093 -8.56,7.411 -19.118,7.411 z"
   id="path162" />
	<path
   style="fill:#dc8744"
   d="m 309.158,363.188 v -1.014 c -3.276,-0.129 -6.216,-0.634 -8.819,-1.514 l 2.617,-1.209 c 2.007,0.676 4.072,1.079 6.202,1.209 v -2.696 c -2.701,-0.25 -4.679,-0.579 -5.934,-0.987 -1.254,-0.408 -1.882,-1.012 -1.882,-1.813 0,-0.801 0.721,-1.457 2.167,-1.967 1.447,-0.509 3.328,-0.787 5.648,-0.833 v -0.695 h 2.293 v 0.708 c 2.628,0.075 5.114,0.422 7.456,1.043 l -2.331,1.278 c -1.578,-0.435 -3.285,-0.704 -5.125,-0.806 v 2.612 h 0.108 c 2.748,0.25 4.767,0.589 6.056,1.014 1.292,0.426 1.937,1.045 1.937,1.855 0,0.811 -0.741,1.471 -2.223,1.98 -1.482,0.51 -3.439,0.788 -5.878,0.834 v 1 h -2.292 z m -2.529,-8.969 c -0.61,0.208 -0.913,0.468 -0.913,0.778 0,0.31 0.239,0.556 0.718,0.736 0.475,0.181 1.386,0.355 2.725,0.521 v -2.404 c -1.077,0.037 -1.921,0.16 -2.53,0.369 z m 7.547,6.092 c 0.668,-0.213 1.004,-0.481 1.004,-0.806 0,-0.324 -0.263,-0.581 -0.788,-0.771 -0.528,-0.19 -1.508,-0.368 -2.94,-0.535 v 2.501 c 1.145,-0.045 2.053,-0.175 2.724,-0.389 z"
   id="path164" />
</g>
<path
   style="fill:#f6c358"
   d="m 334.59,356.75573 c 0,5.723 -11.034,10.362 -24.644,10.362 -13.611,0 -24.644,-4.639 -24.644,-10.362 v -8.476 h 49.288 z"
   id="path168" />
<ellipse
   style="fill:#fcd462"
   cx="309.965"
   cy="348.28171"
   rx="24.643"
   ry="10.363"
   id="ellipse170" />
<g
   id="g176"
   transform="translate(0,1.1457342)">
	<path
   style="fill:#dc8744"
   d="m 309.946,338.796 c -11.879,0 -21.508,3.733 -21.508,8.338 0,4.605 9.63,8.338 21.508,8.338 11.879,0 21.508,-3.733 21.508,-8.338 0,-4.605 -9.63,-8.338 -21.508,-8.338 z m 0,15.749 c -10.559,0 -19.118,-3.318 -19.118,-7.411 0,-4.093 8.56,-7.411 19.118,-7.411 10.558,0 19.118,3.318 19.118,7.411 0,4.093 -8.56,7.411 -19.118,7.411 z"
   id="path172" />
	<path
   style="fill:#dc8744"
   d="m 309.158,352.894 v -1.014 c -3.276,-0.129 -6.216,-0.634 -8.819,-1.514 l 2.617,-1.209 c 2.007,0.676 4.072,1.079 6.202,1.209 v -2.696 c -2.701,-0.25 -4.679,-0.579 -5.934,-0.987 -1.254,-0.408 -1.882,-1.012 -1.882,-1.813 0,-0.801 0.721,-1.457 2.167,-1.967 1.447,-0.509 3.328,-0.787 5.648,-0.833 v -0.695 h 2.293 v 0.708 c 2.628,0.075 5.114,0.422 7.456,1.043 l -2.331,1.278 c -1.578,-0.435 -3.285,-0.704 -5.125,-0.806 v 2.612 h 0.108 c 2.748,0.25 4.767,0.589 6.056,1.014 1.292,0.426 1.937,1.045 1.937,1.855 0,0.811 -0.741,1.471 -2.223,1.98 -1.482,0.51 -3.439,0.788 -5.878,0.834 v 1 h -2.292 z m -2.529,-8.97 c -0.61,0.208 -0.913,0.468 -0.913,0.778 0,0.31 0.239,0.556 0.718,0.736 0.475,0.181 1.386,0.355 2.725,0.521 v -2.404 c -1.077,0.038 -1.921,0.161 -2.53,0.369 z m 7.547,6.093 c 0.668,-0.213 1.004,-0.481 1.004,-0.806 0,-0.324 -0.263,-0.581 -0.788,-0.771 -0.528,-0.19 -1.508,-0.368 -2.94,-0.535 v 2.501 c 1.145,-0.045 2.053,-0.176 2.724,-0.389 z"
   id="path174" />
</g>
<path
   style="fill:#f6c358"
   d="m 334.59,346.46173 c 0,5.723 -11.034,10.362 -24.644,10.362 -13.611,0 -24.644,-4.639 -24.644,-10.362 v -8.476 h 49.288 z"
   id="path178" />
<ellipse
   style="fill:#fcd462"
   cx="309.965"
   cy="337.98572"
   rx="24.643"
   ry="10.363"
   id="ellipse180" />
<g
   id="g186"
   transform="translate(0,1.1457342)">
	<path
   style="fill:#dc8744"
   d="m 309.946,328.502 c -11.879,0 -21.508,3.733 -21.508,8.338 0,4.605 9.63,8.338 21.508,8.338 11.879,0 21.508,-3.733 21.508,-8.338 0,-4.605 -9.63,-8.338 -21.508,-8.338 z m 0,15.749 c -10.559,0 -19.118,-3.318 -19.118,-7.411 0,-4.093 8.56,-7.411 19.118,-7.411 10.558,0 19.118,3.318 19.118,7.411 0,4.093 -8.56,7.411 -19.118,7.411 z"
   id="path182" />
	<path
   style="fill:#dc8744"
   d="m 309.158,342.599 v -1.014 c -3.276,-0.129 -6.216,-0.634 -8.819,-1.514 l 2.617,-1.209 c 2.007,0.676 4.072,1.079 6.202,1.209 v -2.696 c -2.701,-0.25 -4.679,-0.579 -5.934,-0.987 -1.254,-0.408 -1.882,-1.012 -1.882,-1.813 0,-0.801 0.721,-1.457 2.167,-1.967 1.447,-0.509 3.328,-0.787 5.648,-0.833 v -0.695 h 2.293 v 0.708 c 2.628,0.075 5.114,0.422 7.456,1.043 l -2.331,1.278 c -1.578,-0.435 -3.285,-0.704 -5.125,-0.806 v 2.612 h 0.108 c 2.748,0.25 4.767,0.589 6.056,1.014 1.292,0.426 1.937,1.045 1.937,1.855 0,0.811 -0.741,1.471 -2.223,1.98 -1.482,0.51 -3.439,0.788 -5.878,0.834 v 1 h -2.292 z m -2.529,-8.969 c -0.61,0.208 -0.913,0.468 -0.913,0.778 0,0.31 0.239,0.556 0.718,0.736 0.475,0.181 1.386,0.355 2.725,0.521 v -2.404 c -1.077,0.038 -1.921,0.161 -2.53,0.369 z m 7.547,6.093 c 0.668,-0.213 1.004,-0.481 1.004,-0.806 0,-0.324 -0.263,-0.581 -0.788,-0.771 -0.528,-0.19 -1.508,-0.368 -2.94,-0.535 v 2.501 c 1.145,-0.046 2.053,-0.176 2.724,-0.389 z"
   id="path184" />
</g>
<path
   style="fill:#f6c358"
   d="m 334.59,336.16773 c 0,5.723 -11.034,10.362 -24.644,10.362 -13.611,0 -24.644,-4.639 -24.644,-10.362 v -8.476 h 49.288 z"
   id="path188" />
<ellipse
   style="fill:#fcd462"
   cx="309.965"
   cy="327.68872"
   rx="24.643"
   ry="10.363"
   id="ellipse190" />
<g
   id="g196"
   transform="translate(0,1.1457342)">
	<path
   style="fill:#dc8744"
   d="m 309.946,318.208 c -11.879,0 -21.508,3.733 -21.508,8.338 0,4.605 9.63,8.338 21.508,8.338 11.879,0 21.508,-3.733 21.508,-8.338 0,-4.605 -9.63,-8.338 -21.508,-8.338 z m 0,15.749 c -10.559,0 -19.118,-3.318 -19.118,-7.411 0,-4.093 8.56,-7.411 19.118,-7.411 10.558,0 19.118,3.318 19.118,7.411 0,4.093 -8.56,7.411 -19.118,7.411 z"
   id="path192" />
	<path
   style="fill:#dc8744"
   d="m 309.158,332.305 v -1.014 c -3.276,-0.129 -6.216,-0.634 -8.819,-1.514 l 2.617,-1.209 c 2.007,0.676 4.072,1.079 6.202,1.209 v -2.696 c -2.701,-0.25 -4.679,-0.579 -5.934,-0.987 -1.254,-0.408 -1.882,-1.012 -1.882,-1.813 0,-0.801 0.721,-1.457 2.167,-1.967 1.447,-0.509 3.328,-0.787 5.648,-0.833 v -0.695 h 2.293 v 0.708 c 2.628,0.075 5.114,0.422 7.456,1.043 l -2.331,1.278 c -1.578,-0.435 -3.285,-0.704 -5.125,-0.806 v 2.612 h 0.108 c 2.748,0.25 4.767,0.589 6.056,1.014 1.292,0.426 1.937,1.045 1.937,1.855 0,0.811 -0.741,1.471 -2.223,1.98 -1.482,0.51 -3.439,0.788 -5.878,0.834 v 1 h -2.292 z m -2.529,-8.969 c -0.61,0.208 -0.913,0.468 -0.913,0.778 0,0.31 0.239,0.556 0.718,0.736 0.475,0.181 1.386,0.355 2.725,0.521 v -2.404 c -1.077,0.038 -1.921,0.16 -2.53,0.369 z m 7.547,6.093 c 0.668,-0.213 1.004,-0.481 1.004,-0.806 0,-0.324 -0.263,-0.581 -0.788,-0.771 -0.528,-0.19 -1.508,-0.368 -2.94,-0.535 v 2.501 c 1.145,-0.046 2.053,-0.176 2.724,-0.389 z"
   id="path194" />
</g>
<path
   style="fill:#f6c358"
   d="m 334.59,325.87373 c 0,5.723 -11.034,10.362 -24.644,10.362 -13.611,0 -24.644,-4.639 -24.644,-10.362 v -8.476 h 49.288 z"
   id="path198" />
<ellipse
   style="fill:#fcd462"
   cx="309.965"
   cy="317.39774"
   rx="24.643"
   ry="10.363"
   id="ellipse200" />
<g
   id="g206"
   transform="translate(0,1.1457342)">
	<path
   style="fill:#dc8744"
   d="m 309.946,307.914 c -11.879,0 -21.508,3.733 -21.508,8.338 0,4.605 9.63,8.338 21.508,8.338 11.879,0 21.508,-3.733 21.508,-8.338 0,-4.605 -9.63,-8.338 -21.508,-8.338 z m 0,15.749 c -10.559,0 -19.118,-3.318 -19.118,-7.411 0,-4.093 8.56,-7.411 19.118,-7.411 10.558,0 19.118,3.318 19.118,7.411 0,4.093 -8.56,7.411 -19.118,7.411 z"
   id="path202" />
	<path
   style="fill:#dc8744"
   d="m 309.158,322.011 v -1.014 c -3.276,-0.129 -6.216,-0.634 -8.819,-1.514 l 2.617,-1.209 c 2.007,0.676 4.072,1.079 6.202,1.209 v -2.696 c -2.701,-0.25 -4.679,-0.579 -5.934,-0.987 -1.254,-0.408 -1.882,-1.012 -1.882,-1.813 0,-0.801 0.721,-1.457 2.167,-1.967 1.447,-0.509 3.328,-0.787 5.648,-0.833 v -0.695 h 2.293 v 0.708 c 2.628,0.075 5.114,0.422 7.456,1.043 l -2.331,1.278 c -1.578,-0.435 -3.285,-0.704 -5.125,-0.806 v 2.612 h 0.108 c 2.748,0.25 4.767,0.589 6.056,1.014 1.292,0.426 1.937,1.045 1.937,1.855 0,0.811 -0.741,1.471 -2.223,1.98 -1.482,0.51 -3.439,0.788 -5.878,0.834 v 1 h -2.292 z m -2.529,-8.969 c -0.61,0.208 -0.913,0.468 -0.913,0.778 0,0.31 0.239,0.556 0.718,0.736 0.475,0.181 1.386,0.355 2.725,0.521 v -2.404 c -1.077,0.038 -1.921,0.16 -2.53,0.369 z m 7.547,6.093 c 0.668,-0.213 1.004,-0.481 1.004,-0.806 0,-0.324 -0.263,-0.581 -0.788,-0.771 -0.528,-0.19 -1.508,-0.368 -2.94,-0.535 v 2.501 c 1.145,-0.046 2.053,-0.176 2.724,-0.389 z"
   id="path204" />
</g>
<path
   style="fill:#f6c358"
   d="m 334.59,315.57873 c 0,5.723 -11.034,10.362 -24.644,10.362 -13.611,0 -24.644,-4.639 -24.644,-10.362 v -8.476 h 49.288 z"
   id="path208" />
<ellipse
   style="fill:#fcd462"
   cx="309.965"
   cy="307.10172"
   rx="24.643"
   ry="10.363"
   id="ellipse210" />
<g
   id="g216"
   transform="translate(0,1.1457342)">
	<path
   style="fill:#dc8744"
   d="m 309.946,297.62 c -11.879,0 -21.508,3.733 -21.508,8.338 0,4.605 9.63,8.338 21.508,8.338 11.879,0 21.508,-3.733 21.508,-8.338 0,-4.605 -9.63,-8.338 -21.508,-8.338 z m 0,15.748 c -10.559,0 -19.118,-3.318 -19.118,-7.411 0,-4.093 8.56,-7.411 19.118,-7.411 10.558,0 19.118,3.318 19.118,7.411 0,4.093 -8.56,7.411 -19.118,7.411 z"
   id="path212" />
	<path
   style="fill:#dc8744"
   d="m 309.158,311.717 v -1.014 c -3.276,-0.129 -6.216,-0.634 -8.819,-1.514 l 2.617,-1.209 c 2.007,0.676 4.072,1.079 6.202,1.209 v -2.696 c -2.701,-0.25 -4.679,-0.579 -5.934,-0.987 -1.254,-0.408 -1.882,-1.012 -1.882,-1.813 0,-0.801 0.721,-1.457 2.167,-1.967 1.447,-0.509 3.328,-0.787 5.648,-0.833 v -0.695 h 2.293 v 0.708 c 2.628,0.075 5.114,0.422 7.456,1.043 l -2.331,1.278 c -1.578,-0.435 -3.285,-0.704 -5.125,-0.806 v 2.612 h 0.108 c 2.748,0.25 4.767,0.589 6.056,1.014 1.292,0.426 1.937,1.045 1.937,1.855 0,0.811 -0.741,1.471 -2.223,1.98 -1.482,0.51 -3.439,0.788 -5.878,0.834 v 1 h -2.292 z m -2.529,-8.969 c -0.61,0.208 -0.913,0.468 -0.913,0.778 0,0.31 0.239,0.556 0.718,0.736 0.475,0.181 1.386,0.355 2.725,0.521 v -2.404 c -1.077,0.037 -1.921,0.16 -2.53,0.369 z m 7.547,6.093 c 0.668,-0.213 1.004,-0.481 1.004,-0.806 0,-0.324 -0.263,-0.581 -0.788,-0.771 -0.528,-0.19 -1.508,-0.368 -2.94,-0.535 v 2.501 c 1.145,-0.046 2.053,-0.176 2.724,-0.389 z"
   id="path214" />
</g>
<path
   style="fill:#f6c358"
   d="m 334.59,305.28473 c 0,5.723 -11.034,10.362 -24.644,10.362 -13.611,0 -24.644,-4.639 -24.644,-10.362 v -8.476 h 49.288 z"
   id="path218" />
<ellipse
   style="fill:#fcd462"
   cx="309.965"
   cy="296.81073"
   rx="24.643"
   ry="10.363"
   id="ellipse220" />
<g
   id="g226"
   transform="translate(0,1.1457342)">
	<path
   style="fill:#dc8744"
   d="m 309.946,287.326 c -11.879,0 -21.508,3.733 -21.508,8.338 0,4.605 9.63,8.338 21.508,8.338 11.879,0 21.508,-3.733 21.508,-8.338 0,-4.606 -9.63,-8.338 -21.508,-8.338 z m 0,15.748 c -10.559,0 -19.118,-3.318 -19.118,-7.411 0,-4.093 8.56,-7.411 19.118,-7.411 10.558,0 19.118,3.318 19.118,7.411 0,4.093 -8.56,7.411 -19.118,7.411 z"
   id="path222" />
	<path
   style="fill:#dc8744"
   d="m 309.158,301.423 v -1.014 c -3.276,-0.129 -6.216,-0.634 -8.819,-1.514 l 2.617,-1.209 c 2.007,0.676 4.072,1.079 6.202,1.209 v -2.696 c -2.701,-0.25 -4.679,-0.579 -5.934,-0.987 -1.254,-0.408 -1.882,-1.012 -1.882,-1.813 0,-0.801 0.721,-1.457 2.167,-1.967 1.447,-0.509 3.328,-0.787 5.648,-0.833 v -0.695 h 2.293 v 0.708 c 2.628,0.075 5.114,0.422 7.456,1.043 l -2.331,1.278 c -1.578,-0.435 -3.285,-0.704 -5.125,-0.806 v 2.612 h 0.108 c 2.748,0.25 4.767,0.589 6.056,1.014 1.292,0.426 1.937,1.045 1.937,1.855 0,0.811 -0.741,1.471 -2.223,1.98 -1.482,0.51 -3.439,0.788 -5.878,0.834 v 1 h -2.292 z m -2.529,-8.969 c -0.61,0.208 -0.913,0.468 -0.913,0.778 0,0.31 0.239,0.556 0.718,0.736 0.475,0.181 1.386,0.355 2.725,0.521 v -2.404 c -1.077,0.037 -1.921,0.16 -2.53,0.369 z m 7.547,6.093 c 0.668,-0.213 1.004,-0.481 1.004,-0.806 0,-0.324 -0.263,-0.581 -0.788,-0.771 -0.528,-0.19 -1.508,-0.368 -2.94,-0.535 v 2.501 c 1.145,-0.046 2.053,-0.176 2.724,-0.389 z"
   id="path224" />
</g>
<path
   style="fill:#f6c358"
   d="m 386.56,377.34373 c 0,5.723 -11.034,10.362 -24.644,10.362 -13.611,0 -24.644,-4.639 -24.644,-10.362 v -8.476 h 49.288 z"
   id="path228" />
<ellipse
   style="fill:#fcd462"
   cx="361.93301"
   cy="368.86972"
   rx="24.643"
   ry="10.363"
   id="ellipse230" />
<g
   id="g236"
   transform="translate(0,1.1457342)">
	<path
   style="fill:#dc8744"
   d="m 361.916,359.385 c -11.879,0 -21.508,3.733 -21.508,8.338 0,4.605 9.63,8.338 21.508,8.338 11.879,0 21.508,-3.733 21.508,-8.338 0,-4.605 -9.63,-8.338 -21.508,-8.338 z m 0,15.748 c -10.559,0 -19.118,-3.318 -19.118,-7.411 0,-4.093 8.56,-7.411 19.118,-7.411 10.559,0 19.118,3.318 19.118,7.411 0,4.093 -8.56,7.411 -19.118,7.411 z"
   id="path232" />
	<path
   style="fill:#dc8744"
   d="m 361.128,373.482 v -1.014 c -3.276,-0.129 -6.216,-0.634 -8.819,-1.514 l 2.617,-1.209 c 2.007,0.676 4.072,1.079 6.202,1.209 v -2.696 c -2.701,-0.25 -4.679,-0.579 -5.934,-0.987 -1.254,-0.408 -1.882,-1.012 -1.882,-1.813 0,-0.801 0.721,-1.457 2.167,-1.967 1.447,-0.509 3.329,-0.787 5.648,-0.833 v -0.695 h 2.293 v 0.708 c 2.628,0.075 5.114,0.422 7.456,1.043 l -2.331,1.278 c -1.578,-0.435 -3.285,-0.704 -5.125,-0.806 v 2.612 h 0.108 c 2.748,0.251 4.767,0.589 6.056,1.014 1.292,0.426 1.937,1.045 1.937,1.855 0,0.811 -0.741,1.471 -2.223,1.98 -1.482,0.51 -3.439,0.788 -5.878,0.834 v 1 h -2.292 z m -2.529,-8.969 c -0.61,0.208 -0.913,0.468 -0.913,0.778 0,0.31 0.239,0.556 0.718,0.736 0.476,0.181 1.386,0.355 2.725,0.521 v -2.404 c -1.077,0.037 -1.92,0.16 -2.53,0.369 z m 7.547,6.093 c 0.668,-0.213 1.004,-0.481 1.004,-0.806 0,-0.324 -0.263,-0.581 -0.788,-0.771 -0.528,-0.19 -1.508,-0.368 -2.941,-0.535 v 2.501 c 1.147,-0.046 2.054,-0.176 2.725,-0.389 z"
   id="path234" />
</g>
<path
   style="fill:#f6c358"
   d="m 386.56,367.04973 c 0,5.723 -11.034,10.362 -24.644,10.362 -13.611,0 -24.644,-4.639 -24.644,-10.362 v -8.476 h 49.288 z"
   id="path238" />
<ellipse
   style="fill:#fcd462"
   cx="361.93301"
   cy="358.57272"
   rx="24.643"
   ry="10.363"
   id="ellipse240" />
<g
   id="g246"
   transform="translate(0,1.1457342)">
	<path
   style="fill:#dc8744"
   d="m 361.916,349.091 c -11.879,0 -21.508,3.733 -21.508,8.338 0,4.605 9.63,8.338 21.508,8.338 11.879,0 21.508,-3.733 21.508,-8.338 0,-4.606 -9.63,-8.338 -21.508,-8.338 z m 0,15.748 c -10.559,0 -19.118,-3.318 -19.118,-7.411 0,-4.093 8.56,-7.411 19.118,-7.411 10.559,0 19.118,3.318 19.118,7.411 0,4.093 -8.56,7.411 -19.118,7.411 z"
   id="path242" />
	<path
   style="fill:#dc8744"
   d="m 361.128,363.188 v -1.014 c -3.276,-0.129 -6.216,-0.634 -8.819,-1.514 l 2.617,-1.209 c 2.007,0.676 4.072,1.079 6.202,1.209 v -2.696 c -2.701,-0.25 -4.679,-0.579 -5.934,-0.987 -1.254,-0.408 -1.882,-1.012 -1.882,-1.813 0,-0.801 0.721,-1.457 2.167,-1.967 1.447,-0.509 3.329,-0.787 5.648,-0.833 v -0.695 h 2.293 v 0.708 c 2.628,0.075 5.114,0.422 7.456,1.043 l -2.331,1.278 c -1.578,-0.435 -3.285,-0.704 -5.125,-0.806 v 2.612 h 0.108 c 2.748,0.25 4.767,0.589 6.056,1.014 1.292,0.426 1.937,1.045 1.937,1.855 0,0.811 -0.741,1.471 -2.223,1.98 -1.482,0.51 -3.439,0.788 -5.878,0.834 v 1 h -2.292 z m -2.529,-8.969 c -0.61,0.208 -0.913,0.468 -0.913,0.778 0,0.31 0.239,0.556 0.718,0.736 0.476,0.181 1.386,0.355 2.725,0.521 v -2.404 c -1.077,0.037 -1.92,0.16 -2.53,0.369 z m 7.547,6.092 c 0.668,-0.213 1.004,-0.481 1.004,-0.806 0,-0.324 -0.263,-0.581 -0.788,-0.771 -0.528,-0.19 -1.508,-0.368 -2.941,-0.535 v 2.501 c 1.147,-0.045 2.054,-0.175 2.725,-0.389 z"
   id="path244" />
</g>
<path
   style="fill:#f6c358"
   d="m 386.56,356.75573 c 0,5.723 -11.034,10.362 -24.644,10.362 -13.611,0 -24.644,-4.639 -24.644,-10.362 v -8.476 h 49.288 z"
   id="path248" />
<ellipse
   style="fill:#fcd462"
   cx="361.93301"
   cy="348.28171"
   rx="24.643"
   ry="10.363"
   id="ellipse250" />
<g
   id="g256"
   transform="translate(0,1.1457342)">
	<path
   style="fill:#dc8744"
   d="m 361.916,338.796 c -11.879,0 -21.508,3.733 -21.508,8.338 0,4.605 9.63,8.338 21.508,8.338 11.879,0 21.508,-3.733 21.508,-8.338 0,-4.605 -9.63,-8.338 -21.508,-8.338 z m 0,15.749 c -10.559,0 -19.118,-3.318 -19.118,-7.411 0,-4.093 8.56,-7.411 19.118,-7.411 10.559,0 19.118,3.318 19.118,7.411 0,4.093 -8.56,7.411 -19.118,7.411 z"
   id="path252" />
	<path
   style="fill:#dc8744"
   d="m 361.128,352.894 v -1.014 c -3.276,-0.129 -6.216,-0.634 -8.819,-1.514 l 2.617,-1.209 c 2.007,0.676 4.072,1.079 6.202,1.209 v -2.696 c -2.701,-0.25 -4.679,-0.579 -5.934,-0.987 -1.254,-0.408 -1.882,-1.012 -1.882,-1.813 0,-0.801 0.721,-1.457 2.167,-1.967 1.447,-0.509 3.329,-0.787 5.648,-0.833 v -0.695 h 2.293 v 0.708 c 2.628,0.075 5.114,0.422 7.456,1.043 l -2.331,1.278 c -1.578,-0.435 -3.285,-0.704 -5.125,-0.806 v 2.612 h 0.108 c 2.748,0.25 4.767,0.589 6.056,1.014 1.292,0.426 1.937,1.045 1.937,1.855 0,0.811 -0.741,1.471 -2.223,1.98 -1.482,0.51 -3.439,0.788 -5.878,0.834 v 1 h -2.292 z m -2.529,-8.97 c -0.61,0.208 -0.913,0.468 -0.913,0.778 0,0.31 0.239,0.556 0.718,0.736 0.476,0.181 1.386,0.355 2.725,0.521 v -2.404 c -1.077,0.038 -1.92,0.161 -2.53,0.369 z m 7.547,6.093 c 0.668,-0.213 1.004,-0.481 1.004,-0.806 0,-0.324 -0.263,-0.581 -0.788,-0.771 -0.528,-0.19 -1.508,-0.368 -2.941,-0.535 v 2.501 c 1.147,-0.045 2.054,-0.176 2.725,-0.389 z"
   id="path254" />
</g>
<path
   style="fill:#f6c358"
   d="m 386.56,346.46173 c 0,5.723 -11.034,10.362 -24.644,10.362 -13.611,0 -24.644,-4.639 -24.644,-10.362 v -8.476 h 49.288 z"
   id="path258" />
<ellipse
   style="fill:#fcd462"
   cx="361.93301"
   cy="337.98572"
   rx="24.643"
   ry="10.363"
   id="ellipse260" />
<g
   id="g266"
   transform="translate(0,1.1457342)">
	<path
   style="fill:#dc8744"
   d="m 361.916,328.502 c -11.879,0 -21.508,3.733 -21.508,8.338 0,4.605 9.63,8.338 21.508,8.338 11.879,0 21.508,-3.733 21.508,-8.338 0,-4.605 -9.63,-8.338 -21.508,-8.338 z m 0,15.749 c -10.559,0 -19.118,-3.318 -19.118,-7.411 0,-4.093 8.56,-7.411 19.118,-7.411 10.559,0 19.118,3.318 19.118,7.411 0,4.093 -8.56,7.411 -19.118,7.411 z"
   id="path262" />
	<path
   style="fill:#dc8744"
   d="m 361.128,342.599 v -1.014 c -3.276,-0.129 -6.216,-0.634 -8.819,-1.514 l 2.617,-1.209 c 2.007,0.676 4.072,1.079 6.202,1.209 v -2.696 c -2.701,-0.25 -4.679,-0.579 -5.934,-0.987 -1.254,-0.408 -1.882,-1.012 -1.882,-1.813 0,-0.801 0.721,-1.457 2.167,-1.967 1.447,-0.509 3.329,-0.787 5.648,-0.833 v -0.695 h 2.293 v 0.708 c 2.628,0.075 5.114,0.422 7.456,1.043 l -2.331,1.278 c -1.578,-0.435 -3.285,-0.704 -5.125,-0.806 v 2.612 h 0.108 c 2.748,0.25 4.767,0.589 6.056,1.014 1.292,0.426 1.937,1.045 1.937,1.855 0,0.811 -0.741,1.471 -2.223,1.98 -1.482,0.51 -3.439,0.788 -5.878,0.834 v 1 h -2.292 z m -2.529,-8.969 c -0.61,0.208 -0.913,0.468 -0.913,0.778 0,0.31 0.239,0.556 0.718,0.736 0.476,0.181 1.386,0.355 2.725,0.521 v -2.404 c -1.077,0.038 -1.92,0.161 -2.53,0.369 z m 7.547,6.093 c 0.668,-0.213 1.004,-0.481 1.004,-0.806 0,-0.324 -0.263,-0.581 -0.788,-0.771 -0.528,-0.19 -1.508,-0.368 -2.941,-0.535 v 2.501 c 1.147,-0.046 2.054,-0.176 2.725,-0.389 z"
   id="path264" />
</g>
<path
   style="fill:#f6c358"
   d="m 386.56,336.16773 c 0,5.723 -11.034,10.362 -24.644,10.362 -13.611,0 -24.644,-4.639 -24.644,-10.362 v -8.476 h 49.288 z"
   id="path268" />
<ellipse
   style="fill:#fcd462"
   cx="361.93301"
   cy="327.68872"
   rx="24.643"
   ry="10.363"
   id="ellipse270" />
<g
   id="g276"
   transform="translate(0,1.1457342)">
	<path
   style="fill:#dc8744"
   d="m 361.916,318.208 c -11.879,0 -21.508,3.733 -21.508,8.338 0,4.605 9.63,8.338 21.508,8.338 11.879,0 21.508,-3.733 21.508,-8.338 0,-4.605 -9.63,-8.338 -21.508,-8.338 z m 0,15.749 c -10.559,0 -19.118,-3.318 -19.118,-7.411 0,-4.093 8.56,-7.411 19.118,-7.411 10.559,0 19.118,3.318 19.118,7.411 0,4.093 -8.56,7.411 -19.118,7.411 z"
   id="path272" />
	<path
   style="fill:#dc8744"
   d="m 361.128,332.305 v -1.014 c -3.276,-0.129 -6.216,-0.634 -8.819,-1.514 l 2.617,-1.209 c 2.007,0.676 4.072,1.079 6.202,1.209 v -2.696 c -2.701,-0.25 -4.679,-0.579 -5.934,-0.987 -1.254,-0.408 -1.882,-1.012 -1.882,-1.813 0,-0.801 0.721,-1.457 2.167,-1.967 1.447,-0.509 3.329,-0.787 5.648,-0.833 v -0.695 h 2.293 v 0.708 c 2.628,0.075 5.114,0.422 7.456,1.043 l -2.331,1.278 c -1.578,-0.435 -3.285,-0.704 -5.125,-0.806 v 2.612 h 0.108 c 2.748,0.25 4.767,0.589 6.056,1.014 1.292,0.426 1.937,1.045 1.937,1.855 0,0.811 -0.741,1.471 -2.223,1.98 -1.482,0.51 -3.439,0.788 -5.878,0.834 v 1 h -2.292 z m -2.529,-8.969 c -0.61,0.208 -0.913,0.468 -0.913,0.778 0,0.31 0.239,0.556 0.718,0.736 0.476,0.181 1.386,0.355 2.725,0.521 v -2.404 c -1.077,0.038 -1.92,0.16 -2.53,0.369 z m 7.547,6.093 c 0.668,-0.213 1.004,-0.481 1.004,-0.806 0,-0.324 -0.263,-0.581 -0.788,-0.771 -0.528,-0.19 -1.508,-0.368 -2.941,-0.535 v 2.501 c 1.147,-0.046 2.054,-0.176 2.725,-0.389 z"
   id="path274" />
</g>
<circle
   style="fill:#fcd462"
   cx="318.259"
   cy="360.56973"
   r="27.125999"
   id="circle278" />
<g
   id="g284"
   transform="translate(0,1.1457342)">
	<path
   style="fill:#dc8744"
   d="m 318.27,335.757 c -13.075,0 -23.675,10.6 -23.675,23.675 0,13.076 10.6,23.675 23.675,23.675 13.076,0 23.675,-10.6 23.675,-23.675 0,-13.075 -10.6,-23.675 -23.675,-23.675 z m 0,44.72 c -11.622,0 -21.045,-9.422 -21.045,-21.045 0,-11.623 9.422,-21.045 21.045,-21.045 11.622,0 21.045,9.422 21.045,21.045 0,11.623 -9.423,21.045 -21.045,21.045 z"
   id="path280" />
	<path
   style="fill:#dc8744"
   d="m 317.403,375.788 v -2.88 c -3.606,-0.368 -6.843,-1.801 -9.707,-4.3 l 2.88,-3.433 c 2.209,1.92 4.483,3.063 6.827,3.433 v -7.655 c -2.974,-0.71 -5.151,-1.644 -6.531,-2.802 -1.381,-1.158 -2.071,-2.874 -2.071,-5.149 0,-2.275 0.793,-4.136 2.386,-5.584 1.593,-1.447 3.664,-2.235 6.217,-2.367 v -1.973 h 2.524 v 2.012 c 2.893,0.212 5.629,1.198 8.208,2.961 l -2.566,3.63 c -1.737,-1.236 -3.616,-1.999 -5.642,-2.29 v 7.418 h 0.119 c 3.025,0.711 5.247,1.671 6.666,2.88 1.422,1.211 2.132,2.967 2.132,5.268 0,2.302 -0.816,4.178 -2.447,5.623 -1.631,1.448 -3.786,2.237 -6.47,2.368 v 2.84 z m -2.784,-25.469 c -0.671,0.591 -1.005,1.328 -1.005,2.209 0,0.881 0.263,1.578 0.79,2.09 0.523,0.514 1.525,1.007 2.999,1.48 v -6.827 c -1.185,0.107 -2.113,0.455 -2.784,1.048 z m 8.307,17.301 c 0.735,-0.604 1.105,-1.366 1.105,-2.288 0,-0.92 -0.289,-1.651 -0.867,-2.19 -0.581,-0.539 -1.66,-1.045 -3.237,-1.519 v 7.101 c 1.262,-0.129 2.261,-0.499 2.999,-1.104 z"
   id="path282" />
</g>
<g
   id="g286"
   transform="translate(0,1.1457342)">
</g>
<g
   id="g288"
   transform="translate(0,1.1457342)">
</g>
<g
   id="g290"
   transform="translate(0,1.1457342)">
</g>
<g
   id="g292"
   transform="translate(0,1.1457342)">
</g>
<g
   id="g294"
   transform="translate(0,1.1457342)">
</g>
<g
   id="g296"
   transform="translate(0,1.1457342)">
</g>
<g
   id="g298"
   transform="translate(0,1.1457342)">
</g>
<g
   id="g300"
   transform="translate(0,1.1457342)">
</g>
<g
   id="g302"
   transform="translate(0,1.1457342)">
</g>
<g
   id="g304"
   transform="translate(0,1.1457342)">
</g>
<g
   id="g306"
   transform="translate(0,1.1457342)">
</g>
<g
   id="g308"
   transform="translate(0,1.1457342)">
</g>
<g
   id="g310"
   transform="translate(0,1.1457342)">
</g>
<g
   id="g312"
   transform="translate(0,1.1457342)">
</g>
<g
   id="g314"
   transform="translate(0,1.1457342)">
</g>
</svg>
