<?xml version="1.0" encoding="UTF-8" standalone="no"?>
<svg
   width="690"
   height="690"
   viewBox="0 0 182.56278 182.56305"
   version="1.1"
   id="svg26"
   sodipodi:docname="brb.svg"
   inkscape:version="1.1.1 (3bf5ae0d25, 2021-09-20)"
   xmlns:inkscape="http://www.inkscape.org/namespaces/inkscape"
   xmlns:sodipodi="http://sodipodi.sourceforge.net/DTD/sodipodi-0.dtd"
   xmlns="http://www.w3.org/2000/svg"
   xmlns:svg="http://www.w3.org/2000/svg">
  <defs
     id="defs30" />
  <sodipodi:namedview
     id="namedview28"
     pagecolor="#ffffff"
     bordercolor="#666666"
     borderopacity="1.0"
     inkscape:pageshadow="2"
     inkscape:pageopacity="0.0"
     inkscape:pagecheckerboard="0"
     showgrid="false"
     inkscape:zoom="0.62186532"
     inkscape:cx="-51.458087"
     inkscape:cy="336.88967"
     inkscape:window-width="2560"
     inkscape:window-height="1017"
     inkscape:window-x="-8"
     inkscape:window-y="-8"
     inkscape:window-maximized="1"
     inkscape:current-layer="svg26" />
  <path
     style="fill:#f9f9f9;fill-opacity:1;stroke-width:0.15875;paint-order:markers stroke fill"
     d="M -1.357e-4,0.1942116 H 182.56292 V 182.75726 H -1.357e-4 Z"
     id="path2" />
  <g
     style="stroke-width:3.14301"
     id="g24"
     transform="translate(-2.525256,0.1942116)">
    <g
       style="stroke-width:3.14301"
       id="g6">
      <path
         d="m 0,0 c 3.996,2.13 6.523,6.131 6.523,10.676 0,2.65 -0.856,4.906 -2.475,6.526 -1.867,1.934 -4.13,2.656 -8.341,2.656 l -13.81,0.001 -0.135,-0.86 -5.385,-34.169 c -0.397,-2.499 -0.066,-6.895 5.429,-6.919 l -0.001,-0.003 h 9.489 c 8.077,0 13.718,5.617 13.718,13.658 C 5.012,-4.528 3.117,-1.466 0,0 m -4.929,-14.549 c -1.498,-1.033 -2.483,-1.333 -6.135,-1.333 h -5.647 l 1.863,12.054 h 5.961 c 5.762,0 6.539,-2.542 6.539,-5.029 0,-2.49 -0.941,-4.565 -2.581,-5.692 M -8.525,2.744 h -5.278 l 1.732,10.906 h 5.966 c 3.438,0 4.031,-0.316 4.561,-1.037 0.458,-0.642 0.648,-1.347 0.648,-2.42 0,-4.456 -3.066,-7.449 -7.629,-7.449"
         style="fill:#173e7d;fill-opacity:1;fill-rule:evenodd;stroke:none;stroke-width:3.14301"
         transform="matrix(1.13698,0,0,-1.13698,95.806,90.106)"
         id="path4" />
    </g>
    <g
       style="stroke-width:3.14301"
       id="g10">
      <path
         d="m 0,0 c 5.993,1.15 10.652,6.93 10.652,13.585 0,6.663 -4.162,10.332 -11.721,10.332 h -13.089 l -0.135,-0.859 -5.526,-35.498 c -0.248,-1.816 -1.62,-5.594 4.974,-5.59 l 0.64,-0.003 h 0.46 l 0.135,0.862 2.528,16.254 h 3.812 l 8.067,-16.543 0.279,-0.573 h 7.971 l -0.74,1.475 z m -10.098,5.291 1.974,12.417 h 5.602 c 5.173,0 6.12,-1.389 6.12,-4.123 0,-4.961 -3.383,-8.294 -8.418,-8.294 z"
         style="fill:#173e7d;fill-opacity:1;fill-rule:evenodd;stroke:none;stroke-width:3.14301"
         transform="matrix(1.13698,0,0,-1.13698,126.376,94.72)"
         id="path8" />
    </g>
    <g
       style="stroke-width:3.14301"
       id="g14">
      <path
         d="m 0,0 c 3.996,2.13 6.523,6.131 6.523,10.676 0,2.65 -0.855,4.905 -2.475,6.526 -1.866,1.934 -4.13,2.656 -8.34,2.656 l -13.812,0.001 -0.134,-0.86 -5.374,-34.096 c -0.354,-2.476 -0.127,-6.968 5.421,-6.992 l -0.001,-0.003 h 9.485 c 8.078,0 13.719,5.617 13.719,13.658 C 5.012,-4.528 3.117,-1.466 0,0 m -4.929,-14.55 c -1.496,-1.032 -2.483,-1.332 -6.136,-1.332 h -5.645 l 1.861,12.054 h 5.961 c 5.765,0 6.541,-2.542 6.541,-5.029 0,-2.49 -0.942,-4.565 -2.582,-5.693 M -8.525,2.744 h -5.278 l 1.732,10.906 h 5.965 c 3.44,0 4.031,-0.316 4.563,-1.037 0.458,-0.642 0.648,-1.347 0.648,-2.42 0,-4.456 -3.066,-7.449 -7.63,-7.449"
         style="fill:#173e7d;fill-opacity:1;fill-rule:evenodd;stroke:none;stroke-width:3.14301"
         transform="matrix(1.13698,0,0,-1.13698,165.367,90.106)"
         id="path12" />
    </g>
    <g
       style="stroke-width:3.14301"
       id="g18">
      <path
         d="m 0,0 -0.606,-3.878 c 8.605,-1.748 16.281,-6.085 22.167,-12.17 l 8.853,5.812 c 0,0 1.021,0.689 1.496,0.114 0,0 0.463,-0.448 -0.427,-1.406 l -7.269,-7.54 a 42.496,42.496 0 0 0 9.198,-22.889 h 4.141 l 6.564,41.959 z"
         style="fill:#00adef;fill-opacity:1;fill-rule:evenodd;stroke:none;stroke-width:3.14301"
         transform="matrix(1.13698,0,0,-1.13698,17.198,67.519)"
         id="path16" />
    </g>
    <g
       style="stroke-width:3.14301"
       id="g22">
      <path
         d="M 0,0 -0.406,0.49 9.06,11.125 c -5.097,5.04 -11.608,8.648 -18.881,10.169 l -3.857,-24.66 c -0.674,-4.624 0.168,-8.703 7.875,-8.703 l 25.95,-10e-4 A 37.743,37.743 0 0 1 12.393,7.374 Z"
         style="fill:#173e7d;fill-opacity:1;fill-rule:evenodd;stroke:none;stroke-width:3.14301"
         transform="matrix(1.13698,0,0,-1.13698,26.836,101.5)"
         id="path20" />
    </g>
  </g>
</svg>
