<svg width="100mm" height="100mm" viewBox="0 0 100 100" xmlns="http://www.w3.org/2000/svg"><path style="fill:#f2f2f2;stroke-width:.15875;paint-order:markers stroke fill" d="M-11.411-34.59h100v100h-100z" transform="translate(11.411 34.59)"/><g style="stroke-width:.750173"><g style="stroke-width:.750173"><path d="M0 0c0 4.763-5.919 8.646-13.219 8.646-7.301 0-13.218-3.883-13.218-8.646l-.001-.507c0-5.052 5.172-9.145 13.217-9.145C-5.125-9.652 0-5.561 0-.507z" style="fill:#28316b;fill-opacity:1;fill-rule:nonzero;stroke:none;stroke-width:.750173" transform="matrix(3.2619 0 0 -3.2619 93.12 48.36)"/></g><g style="stroke-width:.750173"><path d="M0 0c0-4.49-5.689-8.131-12.71-8.131-7.019 0-12.709 3.641-12.709 8.131 0 4.491 5.69 8.132 12.709 8.132C-5.689 8.132 0 4.491 0 0" style="fill:#50b4e9;fill-opacity:1;fill-rule:nonzero;stroke:none;stroke-width:.750173" transform="matrix(3.2619 0 0 -3.2619 91.466 48.347)"/></g><g style="stroke-width:.750173"><path d="M0 0c-.007-.013-.134-.145-.052-.249.201-.257.821-.403 1.448-.263.373.084.85.464 1.313.831.502.399 1.001.799 1.501.957.53.169.869.097 1.094.03.246-.075.536-.236.997-.583.87-.654 4.367-3.706 4.97-4.234.488.22 2.65 1.152 5.589 1.798-.255 1.567-1.209 3.001-2.654 4.175-2.014-.846-4.476-1.288-6.883-.111-.012.003-1.315.621-2.601.59-1.91-.044-2.738-.871-3.614-1.746Z" style="fill:#fff;fill-opacity:1;fill-rule:nonzero;stroke:none;stroke-width:.750173" transform="matrix(3.2619 0 0 -3.2619 36.243 39.978)"/></g><g style="stroke-width:.750173"><path d="M0 0c-.041.036-4.111 3.599-5.034 4.292-.533.4-.83.502-1.142.542a1.564 1.564 0 0 1-.544-.053c-.428-.116-.989-.491-1.487-.885-.516-.412-1.002-.798-1.453-.9-.576-.129-1.28.024-1.602.241a.71.71 0 0 0-.265.291c-.119.276.1.495.135.533l1.124 1.214c.13.13.262.261.397.39-.362-.048-.697-.141-1.024-.231-.407-.115-.798-.223-1.195-.223-.165 0-1.051.144-1.219.19-1.016.28-1.909.549-3.241 1.172-1.597-1.189-2.665-2.676-2.973-4.313.229-.061.598-.17.753-.204 3.615-.804 4.74-1.632 4.945-1.805a1.2 1.2 0 0 0 .895.402c.401-.002.761-.202.98-.512.207.164.492.302.861.302.167 0 .341-.03.517-.09a1.18 1.18 0 0 0 .727-.658c.137.063.305.109.503.108.195 0 .398-.044.601-.132.666-.286.77-.942.71-1.435a1.434 1.434 0 0 0 1.405-2.102c.215-.12.763-.394 1.243-.333.385.049.531.18.583.254.036.05.074.11.038.153L-5.78-2.659s-.169.158-.114.22c.058.062.162-.028.236-.089.517-.434 1.152-1.087 1.152-1.087.01-.008.053-.09.286-.132.202-.036.559-.016.807.187.062.051.125.116.177.181l-.012-.009c.261.334-.029.672-.029.672l-1.19 1.336s-.171.158-.113.222c.052.054.162-.029.236-.091.377-.314.91-.85 1.42-1.35.1-.072.549-.35 1.143.04.36.237.432.527.423.747-.026.29-.252.497-.252.497L-3.236.319s-.172.147-.112.221c.05.063.161-.027.235-.089.518-.433 1.921-1.719 1.921-1.719.019-.014.505-.359 1.102.023.215.137.352.343.363.582C.294-.246 0 0 0 0" style="fill:#fff;fill-opacity:1;fill-rule:nonzero;stroke:none;stroke-width:.750173" transform="matrix(3.2619 0 0 -3.2619 72.548 52.513)"/></g><g style="stroke-width:.750173"><path d="M0 0c-.252.003-.527-.147-.564-.125-.02.013.016.114.04.173.023.057.355 1.056-.454 1.404-.62.266-.998-.033-1.128-.169-.035-.035-.05-.032-.054.013-.012.18-.092.667-.627.83-.765.233-1.256-.3-1.381-.492a.884.884 0 0 1-1.762-.113.887.887 0 0 1 1.5-.639c.005-.005.007-.013.004-.03-.037-.219-.105-1.016.73-1.341.335-.13.619-.033.855.133.07.049.081.028.071-.038-.03-.205.008-.644.624-.893.468-.191.745.004.926.172.079.072.101.059.106-.051A1.11 1.11 0 0 1-.001-2.231 1.115 1.115 0 1 1 0 0" style="fill:#fff;fill-opacity:1;fill-rule:nonzero;stroke:none;stroke-width:.750173" transform="matrix(3.2619 0 0 -3.2619 46.819 59.273)"/></g><g style="stroke-width:.750173"><path d="M0 0c-.559 0-1.013.435-1.033.987-.002.048-.007.174-.113.174-.044 0-.083-.026-.126-.065-.124-.115-.28-.23-.508-.23a.9.9 0 0 0-.335.072c-.59.239-.598.645-.574.808.006.043.008.088-.021.123l-.037.032h-.036c-.03 0-.062-.011-.103-.041a.862.862 0 0 0-.501-.177.764.764 0 0 0-.28.054c-.776.302-.715 1.035-.677 1.256.005.045-.006.079-.034.103l-.055.046-.051-.05a.798.798 0 0 0-.558-.226.809.809 0 0 0-.807.807.805.805 0 0 0 1.604.101l.028-.216.118.183c.014.022.34.515.94.515.113 0 .231-.02.349-.056.479-.145.559-.578.572-.76.009-.105.083-.11.098-.11.04 0 .072.026.093.049a.81.81 0 0 0 .594.251c.141-.001.29-.033.444-.1.76-.326.415-1.292.411-1.301-.065-.16-.067-.231-.006-.271l.03-.015h.022c.034 0 .076.015.147.039.103.036.259.089.405.089h.001a1.046 1.046 0 0 0 1.036-1.037A1.038 1.038 0 0 0 0 0m8.045 4.649C6.792 5.744 3.894 8.264 3.108 8.853c-.448.337-.754.516-1.022.595a1.71 1.71 0 0 1-.503.078 2.13 2.13 0 0 1-.638-.107c-.508-.16-1.012-.562-1.502-.95l-.024-.02c-.456-.362-.926-.737-1.282-.816a2.175 2.175 0 0 0-.475-.053c-.399 0-.757.115-.891.287-.023.028-.008.073.043.14l.007.009 1.103 1.189c.864.863 1.68 1.68 3.559 1.723l.094.002c1.169-.002 2.338-.525 2.469-.585 1.097-.536 2.228-.808 3.366-.809 1.186 0 2.409.294 3.695.886a11.4 11.4 0 0 1-.447.354c-1.13-.49-2.206-.738-3.245-.738-1.061.002-2.121.257-3.149.759-.055.025-1.345.635-2.689.635l-.105-.001c-1.578-.037-2.467-.598-3.065-1.088-.582-.015-1.083-.155-1.529-.28-.399-.11-.742-.206-1.077-.206-.139 0-.387.012-.409.013-.386.012-2.329.488-3.875 1.074a9.575 9.575 0 0 1-.457-.345c1.615-.661 3.58-1.174 4.2-1.213.172-.013.356-.032.54-.032.41 0 .819.115 1.216.225.234.067.492.138.763.191l-.217-.217-1.121-1.212c-.087-.089-.28-.327-.153-.62a.776.776 0 0 1 .295-.327c.267-.18.745-.301 1.189-.301.168-.001.329.016.475.05.47.104.962.497 1.484.912.416.331 1.007.75 1.459.874.127.034.283.055.408.055.037-.001.072-.001.104-.005.299-.039.589-.14 1.105-.528.92-.691 4.991-4.253 5.031-4.288a.78.78 0 0 0 .244-.599c-.01-.207-.125-.391-.325-.519a.995.995 0 0 0-.534-.166.868.868 0 0 0-.472.137c-.016.012-1.41 1.291-1.924 1.72-.081.068-.16.129-.24.129a.136.136 0 0 1-.108-.05c-.081-.1.01-.238.117-.329l1.63-1.636c.002-.002.203-.191.224-.443.013-.271-.117-.498-.387-.675a1.044 1.044 0 0 0-.577-.191.832.832 0 0 0-.465.142l-.233.229c-.428.421-.869.856-1.191 1.125-.079.066-.163.126-.243.126a.141.141 0 0 1-.103-.044c-.037-.041-.063-.114.029-.236.038-.051.082-.092.082-.092l1.19-1.335c.01-.013.244-.292.026-.57L4.536.832a1.543 1.543 0 0 0-.11-.106C4.223.559 3.952.542 3.845.542a.878.878 0 0 0-.161.014c-.118.02-.197.053-.234.098L3.436.67c-.066.066-.665.679-1.161 1.092-.065.054-.147.124-.231.124a.141.141 0 0 1-.107-.048c-.099-.108.048-.269.111-.327L3.063.393a.234.234 0 0 0-.04-.069C2.987.273 2.864.15 2.497.104a1.208 1.208 0 0 0-.135-.007c-.38 0-.784.184-.993.295A1.515 1.515 0 0 1 .001 2.548l-.055-.001c.029.381-.025 1.103-.766 1.42a1.579 1.579 0 0 1-.633.139c-.161 0-.317-.027-.464-.084a1.263 1.263 0 0 1-.74.629 1.65 1.65 0 0 1-.543.096c-.309 0-.592-.09-.845-.27-.243.301-.61.48-.996.48-.337 0-.662-.135-.903-.374-.315.242-1.568 1.037-4.919 1.798a17.16 17.16 0 0 0-.763.21 5.597 5.597 0 0 1-.086-.549l.74-.176c3.423-.761 4.555-1.551 4.746-1.7A1.285 1.285 0 0 1-4.807 2.41c.107-.52.447-.915.968-1.117a1.21 1.21 0 0 1 .749-.053c.096-.243.313-.548.796-.744.17-.068.339-.103.504-.103.135 0 .267.023.392.069a1.513 1.513 0 0 1 2.482-.48c.244-.135.76-.38 1.28-.381.068 0 .131.003.195.011.517.066.757.268.868.425.02.028.038.058.053.087.123-.035.256-.063.411-.063.282 0 .553.095.828.295.268.195.46.473.487.71a.036.036 0 0 1 .002.011 1.36 1.36 0 0 1 .276-.028c.292 0 .578.09.851.269.527.346.619.797.611 1.093.092-.018.186-.029.28-.029.273 0 .541.082.796.245.328.209.524.529.554.901a1.21 1.21 0 0 1-.176.728c.884.381 2.903 1.117 5.282 1.653a5.27 5.27 0 0 1-.075.548C10.73 5.818 8.583 4.89 8.045 4.649" style="fill:#28316b;fill-opacity:1;fill-rule:nonzero;stroke:none;stroke-width:.750173" transform="matrix(3.2619 0 0 -3.2619 46.819 66.29)"/></g></g></svg>