<?xml version="1.0" encoding="UTF-8" standalone="no"?>
<svg
   xml:space="preserve"
   width="70.015518"
   height="70.021698"
   version="1.1"
   id="svg44"
   sodipodi:docname="rico.svg"
   inkscape:version="1.1.1 (3bf5ae0d25, 2021-09-20)"
   xmlns:inkscape="http://www.inkscape.org/namespaces/inkscape"
   xmlns:sodipodi="http://sodipodi.sourceforge.net/DTD/sodipodi-0.dtd"
   xmlns="http://www.w3.org/2000/svg"
   xmlns:svg="http://www.w3.org/2000/svg"><sodipodi:namedview
     id="namedview46"
     pagecolor="#ffffff"
     bordercolor="#666666"
     borderopacity="1.0"
     inkscape:pageshadow="2"
     inkscape:pageopacity="0.0"
     inkscape:pagecheckerboard="0"
     showgrid="false"
     inkscape:zoom="4.3335544"
     inkscape:cx="-31.613772"
     inkscape:cy="49.497475"
     inkscape:window-width="2560"
     inkscape:window-height="1017"
     inkscape:window-x="-8"
     inkscape:window-y="-8"
     inkscape:window-maximized="1"
     inkscape:current-layer="svg44" /><defs
     id="defs20"><clipPath
       clipPathUnits="userSpaceOnUse"
       id="a"><path
         d="M 0,0 H 540 V 780 H 0 Z"
         style="clip-rule:evenodd"
         id="path2" /></clipPath><clipPath
       clipPathUnits="userSpaceOnUse"
       id="b"><path
         d="M 0,0 H 594.7 V 841.66 H 0 Z"
         id="path5" /></clipPath><clipPath
       clipPathUnits="userSpaceOnUse"
       id="c"><path
         d="m 83.867,788.93 -2.626,-2.78 2.626,-2.7 a 3.54,3.54 0 0 1 5.176,0 c 1.425,1.5 1.425,3.97 0,5.48 -1.5,1.5 -3.751,1.5 -5.176,0 z m -13.343,5.28 c 1.941,0 3.891,-0.78 5.391,-2.36 l -2.775,-2.92 a 3.54,3.54 0 0 1 -5.176,0 c -1.426,-1.51 -1.426,-3.98 0,-5.48 a 3.54,3.54 0 0 1 5.176,0 l 7.801,8.25 0.15,0.15 c 2.926,3.15 7.727,3.15 10.652,0 3.001,-3.15 3.001,-8.18 0.076,-11.33 -3.001,-3.15 -7.802,-3.15 -10.728,0 l -0.3,0.3 -2.325,2.48 -2.326,-2.48 -0.225,-0.3 c -3,-3.15 -7.801,-3.15 -10.727,0 -2.925,3.15 -2.925,8.18 0,11.33 1.463,1.58 3.395,2.36 5.336,2.36 z"
         style="clip-rule:evenodd"
         id="path8" /></clipPath><clipPath
       clipPathUnits="userSpaceOnUse"
       id="d"><path
         d="m 59.487,799.2 c 1.35,0 2.475,-1.12 2.475,-2.55 0,-1.35 -1.125,-2.47 -2.475,-2.47 -1.425,0 -2.551,1.12 -2.551,2.47 0,1.43 1.126,2.55 2.551,2.55 z"
         style="clip-rule:evenodd"
         id="path11" /></clipPath><clipPath
       clipPathUnits="userSpaceOnUse"
       id="e"><path
         d="m 56.936,778.2 h 4.05 v 15.003 h -4.05 z"
         style="clip-rule:evenodd"
         id="path14" /></clipPath><clipPath
       clipPathUnits="userSpaceOnUse"
       id="f"><path
         d="m 50.935,793.2 h 4.051 v -3.97 H 51.01 c -1.575,0 -2.925,-1.28 -2.925,-2.86 v -8.17 h -4.126 v 8.17 c 0,3.76 3.151,6.83 6.976,6.83 z"
         style="clip-rule:evenodd"
         id="path17" /></clipPath></defs><g
     clip-path="url(#a)"
     transform="matrix(1.33333,0,0,-1.33333,-48.570971,957.7394)"
     id="g42"><g
       clip-path="url(#b)"
       transform="scale(0.927)"
       id="g40"><path
         style="fill:#ff5200;fill-opacity:1;stroke-width:0.485568;paint-order:markers stroke fill"
         transform="scale(1,-1)"
         d="m 39.297,-774.872 h 56.647 v 56.652 H 39.297 Z"
         id="path22" /><g
         clip-path="url(#c)"
         style="fill:#ffffff"
         transform="translate(-0.552,-40.744)"
         id="g26"><path
           d="M 57.987,773.17 H 98.945 V 799.2 H 57.987 Z"
           style="fill:#ffffff;fill-opacity:1;fill-rule:nonzero;stroke:none"
           id="path24" /></g><g
         clip-path="url(#d)"
         style="fill:#ffffff"
         transform="translate(-0.552,-40.744)"
         id="g30"><path
           d="m 51.985,789.15 h 15.004 v 15 H 51.985 Z"
           style="fill:#ffffff;fill-opacity:1;fill-rule:nonzero;stroke:none"
           id="path28" /></g><g
         clip-path="url(#e)"
         style="fill:#ffffff"
         transform="translate(-0.552,-40.744)"
         id="g34"><path
           d="m 51.985,773.17 h 13.953 v 24.98 H 51.985 Z"
           style="fill:#ffffff;fill-opacity:1;fill-rule:nonzero;stroke:none"
           id="path32" /></g><g
         clip-path="url(#f)"
         style="fill:#ffffff"
         transform="translate(-0.552,-40.744)"
         id="g38"><path
           d="m 38.933,773.17 h 21.004 v 24.98 H 38.933 Z"
           style="fill:#ffffff;fill-opacity:1;fill-rule:nonzero;stroke:none"
           id="path36" /></g></g></g></svg>
