<svg width="180mm" height="180mm" viewBox="0 0 180 180" xmlns="http://www.w3.org/2000/svg"><path style="fill:#ffd900;fill-opacity:1;stroke-width:.158749;paint-order:markers stroke fill" d="M14.974 55.279h180v180h-180z" transform="translate(-14.974 -55.279)"/><g style="stroke-width:.910669"><path style="fill:#fdfdfd;stroke-width:.910669" d="M144.632 148.646c-7.43-1.502-13.98-6.916-16.835-13.916-.38-.932-.914-2.766-1.185-4.076-2.493-12.017 4.814-23.657 16.961-27.02 2.426-.672 8.946-.672 11.377-.002 6.525 1.8 12.04 6.295 15.044 12.26 5.324 10.571 1.363 23.83-8.958 29.986-4.644 2.77-11.047 3.85-16.404 2.767z" transform="translate(-21.766 -57.198) scale(1.0981)"/><path style="fill:#040300;stroke-width:.910669" d="M79.28 160.18v-4.787h2.13c2.577 0 3.577.424 3.905 1.657.257.966-.08 2.277-.643 2.493-.261.1-.142.344.43.878 1.079 1.008 1.13 2.763.11 3.723-.61.573-.96.651-3.307.732l-2.625.091zm4.943 3.11c.484-.401.435-1.542-.09-2.122-.329-.363-.822-.484-1.984-.484h-1.546v1.412c0 .776.089 1.502.198 1.614.269.274 2.987-.06 3.422-.42zm-.693-4.202c.58-.31.698-1.552.195-2.055-.175-.174-.949-.317-1.72-.317h-1.402v2.646h1.208c.664 0 1.438-.124 1.72-.274zm4.843 5.388c.093-.266.913-2.42 1.822-4.787 1.634-4.254 1.661-4.303 2.416-4.234.73.067.843.271 2.58 4.692.999 2.543 1.816 4.656 1.816 4.697 0 .04-.346.074-.767.074-.682 0-.821-.149-1.247-1.333l-.48-1.333-1.96.076-1.962.076-.462 1.19c-.375.963-.604 1.208-1.195 1.279-.61.073-.703.007-.561-.397zm5.59-3.725a61.515 61.515 0 0 1-.72-2.006c-.293-.849-.623-1.444-.733-1.323-.236.258-1.324 3.166-1.324 3.537 0 .14.667.255 1.483.255 1.309 0 1.462-.055 1.295-.463zm5.69-.596v-4.762h.756c.672 0 1.035.399 3.241 3.558l2.485 3.56.073-3.56.074-3.558h1.573v9.525h-.78c-.703 0-1.033-.36-3.308-3.614l-2.527-3.614v7.228h-1.587zm11.641 0v-4.762h.662c.65 0 .661.034.673 2.183l.011 2.182 2.048-2.205c1.746-1.88 2.157-2.193 2.78-2.117.725.088.717.105-.995 1.977l-1.726 1.887.729 1.023c.4.563 1.297 1.827 1.99 2.809l1.263 1.786-.873-.007c-.796-.006-1.01-.206-2.423-2.268l-1.55-2.261-.633.594c-.538.505-.633.845-.633 2.268 0 1.609-.025 1.674-.661 1.674h-.662zm-70.978-12.723c-3.709-.874-6.178-3.973-6.794-8.529-.154-1.138-.28-4.603-.28-7.7 0-6.218.176-5.406-1.74-8.021-.519-.708-.326-1.82.352-2.026.816-.25 7.52-1.217 8.429-1.217.597 0 .966.163 1.152.511.175.328.274 4.224.274 10.831 0 6.667.1 10.583.282 11.064 1.37 3.615 5.721 2.347 7.502-2.187.946-2.41 1.204-4.426 1.208-9.455.004-5.273-.037-5.482-1.358-7.003-.778-.896-.922-1.501-.51-2.152.285-.45 7.796-1.916 8.692-1.696.33.081.73.388.888.682.196.367.257 3.796.192 10.884-.107 11.653-.072 11.91 1.713 12.762 3.385 1.614 8.059-3.573 8.962-9.948.416-2.929.113-3.738-2.428-6.48-2.249-2.427-2.754-3.58-2.36-5.392.421-1.945 2.486-3.043 4.639-2.467 3.4.91 4.82 4.153 4.516 10.317-.293 5.914-2.042 10.433-5.286 13.662-2.125 2.116-3.867 3.081-6.486 3.594-3.3.647-6.328-.212-8.343-2.366-.638-.682-1.22-1.414-1.294-1.625-.095-.276-.53.009-1.53 1.002-2.696 2.676-6.72 3.82-10.392 2.955zm37.164-.559c-.557-.557-.344-1.412.675-2.72l.992-1.273.082-6.775c.044-3.725.01-7.158-.077-7.628-.087-.47-.57-1.393-1.074-2.052-1.613-2.114-1.507-2.238 4.308-5.03 3.338-1.602 3.843-1.774 4.431-1.506l.665.303v10.836c0 6.874.1 11.102.275 11.562.152.398.688 1.18 1.191 1.737 1.027 1.137 1.188 2.17.403 2.59-.757.405-11.46.366-11.87-.044zm15.18-.098c-.606-.606-.53-.902.633-2.45.577-.768 1.119-1.777 1.204-2.242.085-.465.119-7.163.075-14.884-.067-11.97-.137-14.12-.476-14.588a52.56 52.56 0 0 0-1.146-1.494c-1.214-1.527-.973-1.778 3.987-4.157 2.41-1.157 4.535-2.103 4.72-2.103.187 0 .526.187.755.416.37.37.416 2.447.416 18.878v18.462l.75 1.032c.411.568.947 1.196 1.19 1.395.597.492.558 1.54-.071 1.877-.306.164-2.743.274-6.067.274-4.696 0-5.618-.065-5.97-.416zm15.128.13c-.686-.4-.562-1.434.292-2.417.416-.478.892-1.13 1.059-1.447.38-.724.433-29.077.056-30.067-.136-.357-.62-1.075-1.078-1.596-1.435-1.635-1.243-1.86 3.73-4.37 4.682-2.362 5.316-2.491 5.812-1.185.148.388.25 8.112.25 18.886v18.23l1.19 1.341c1.289 1.451 1.415 1.856.775 2.495-.352.352-1.27.414-6.019.408-3.312-.005-5.793-.119-6.067-.278zm-26.392-30.967c-.845-.336-2.057-1.484-2.537-2.402-.546-1.046-.475-3.349.135-4.349 1.345-2.206 3.994-3.035 6.234-1.95 3.547 1.717 3.59 6.733.071 8.436-1.227.594-2.805.701-3.903.265z" transform="translate(-21.766 -57.198) scale(1.0981)"/></g></svg>