<?xml version="1.0" encoding="UTF-8" standalone="no"?>
<svg
   version="1.1"
   xml:space="preserve"
   id="svg42"
   width="757.89996"
   height="757.78918"
   sodipodi:docname="xp.svg"
   inkscape:version="1.1.1 (3bf5ae0d25, 2021-09-20)"
   xmlns:inkscape="http://www.inkscape.org/namespaces/inkscape"
   xmlns:sodipodi="http://sodipodi.sourceforge.net/DTD/sodipodi-0.dtd"
   xmlns="http://www.w3.org/2000/svg"
   xmlns:svg="http://www.w3.org/2000/svg"><defs
     id="defs15" /><sodipodi:namedview
     id="namedview13"
     pagecolor="#ffffff"
     bordercolor="#666666"
     borderopacity="1.0"
     inkscape:pageshadow="2"
     inkscape:pageopacity="0.0"
     inkscape:pagecheckerboard="0"
     showgrid="false"
     inkscape:zoom="0.55342984"
     inkscape:cx="101.18717"
     inkscape:cy="495.99783"
     inkscape:window-width="2560"
     inkscape:window-height="1017"
     inkscape:window-x="-8"
     inkscape:window-y="-8"
     inkscape:window-maximized="1"
     inkscape:current-layer="svg42" /><style
     type="text/css"
     id="style2">.st0{fill:#fff}</style><rect
     style="fill:#000000;stroke-width:0.600001;paint-order:markers stroke fill"
     id="rect854"
     width="757.80157"
     height="757.78918"
     x="0"
     y="0" /><rect
     style="fill:#ffffff;stroke-width:0.599999;paint-order:markers stroke fill"
     id="rect982"
     width="549.6582"
     height="467.26453"
     x="206.95743"
     y="281.67392" /><g
     id="g3253"
     transform="matrix(12.716262,0,0,12.716262,85.553021,146.8569)"
     style="stroke-width:0.0786396"><path
       class="st0"
       d="M 43.57,40.305 A 9.43,9.43 0 0 1 39.424,39.33 v 8.17 h 6.95 a 6.297,6.297 0 0 0 6.34,-6.341 v -6.096 c -1.95,3.17 -5.243,5.242 -9.145,5.242 z"
       id="path34"
       style="fill:#000000;stroke-width:0.0786396" /><path
       class="st0"
       d="M 32.23,36.038 V 20.919 a 2261.346,2261.346 0 0 1 -5.608,7.56 c 0.731,0.975 3.414,4.633 5.608,7.559 z"
       id="path36"
       style="fill:#000000;stroke-width:0.0786396" /><path
       class="st0"
       d="M 46.374,-4.686 H 1.139 a 6.297,6.297 0 0 0 -6.34,6.34 V 41.16 a 6.297,6.297 0 0 0 6.34,6.34 H 32.23 V 39.94 H 26.5 c 0,0 -2.805,-3.78 -4.024,-5.608 a 629.69,629.69 0 0 0 -4.023,5.609 H 9.918 c 0,0 7.315,-9.876 8.413,-11.461 -1.098,-1.586 -7.926,-10.852 -7.926,-10.852 h 8.535 c 0,0 2.439,3.292 3.658,4.999 1.22,-1.707 3.658,-4.999 3.658,-4.999 h 9.998 c 0,0 0.731,1.341 0.975,1.95 1.83,-1.462 4.146,-2.316 6.462,-2.316 3.78,0 7.194,2.073 9.145,5.243 V 1.654 c -0.122,-3.535 -2.926,-6.34 -6.462,-6.34 z"
       id="path38"
       style="fill:#000000;stroke-width:0.0786396" /><path
       class="st0"
       d="m 47.105,28.844 c 0,-2.56 -1.707,-4.633 -3.78,-4.633 -2.194,0 -3.901,2.073 -3.901,4.633 0,2.56 1.707,4.634 3.902,4.634 2.072,0 3.78,-2.073 3.78,-4.634 z"
       id="path40"
       style="fill:#000000;stroke-width:0.0786396" /><path
       style="fill:#000000;stroke-width:0.0471837;paint-order:markers stroke fill"
       id="rect1885"
       d="m -5.317,40.543 h 6.331 v 7.036 h -6.331 z" /><path
       style="fill:#000000;stroke-width:0.0471837;paint-order:markers stroke fill"
       id="rect1887"
       d="M -5.44,-4.678 H 0.679 V 2.608 H -5.44 Z" /><path
       style="fill:#000000;stroke-width:0.0471837;paint-order:markers stroke fill"
       id="rect1889"
       d="m 43.499,-4.799 h 9.374 v 8.745 h -9.374 z" /><path
       style="fill:#000000;stroke-width:0.0471837;paint-order:markers stroke fill"
       id="rect1893"
       d="m 45.707,41.145 h 7.065 v 6.469 h -7.065 z" /></g></svg>
