<?xml version="1.0" encoding="UTF-8" standalone="no"?>
<!-- Created with Inkscape (http://www.inkscape.org/) -->

<svg
   width="6.7864714mm"
   height="6.6748791mm"
   viewBox="0 0 6.7864711 6.674879"
   version="1.1"
   id="svg5"
   inkscape:version="1.1.1 (3bf5ae0d25, 2021-09-20)"
   sodipodi:docname="password_token.svg"
   xmlns:inkscape="http://www.inkscape.org/namespaces/inkscape"
   xmlns:sodipodi="http://sodipodi.sourceforge.net/DTD/sodipodi-0.dtd"
   xmlns="http://www.w3.org/2000/svg"
   xmlns:svg="http://www.w3.org/2000/svg">
  <sodipodi:namedview
     id="namedview7"
     pagecolor="#ffffff"
     bordercolor="#666666"
     borderopacity="1.0"
     inkscape:pageshadow="2"
     inkscape:pageopacity="0.0"
     inkscape:pagecheckerboard="0"
     inkscape:document-units="mm"
     showgrid="false"
     inkscape:zoom="8.385604"
     inkscape:cx="-9.5401596"
     inkscape:cy="23.910025"
     inkscape:window-width="1920"
     inkscape:window-height="1017"
     inkscape:window-x="-8"
     inkscape:window-y="-8"
     inkscape:window-maximized="1"
     inkscape:current-layer="layer1" />
  <defs
     id="defs2">
    <style
       id="style2">.cls-1{fill-rule:evenodd;}</style>
  </defs>
  <g
     inkscape:label="Camada 1"
     inkscape:groupmode="layer"
     id="layer1"
     transform="translate(-52.005701,-41.397262)">
    <path
       id="path896"
       style="fill:#454e5f;fill-opacity:1;stroke-width:0.0129572"
       d="m 55.376737,41.397377 c -0.194339,-1.92e-4 -0.364836,0.11329 -0.504816,0.237449 -0.08687,0.07743 -0.175911,0.152393 -0.264289,0.228105 -0.671693,0.0047 -1.343748,-0.0086 -2.015092,0.01929 -0.132337,0.03652 -0.203493,0.184629 -0.186292,0.31408 -0.01484,0.629184 -0.0065,1.258664 -0.0092,1.887891 0.0032,0.03347 -0.03953,0.04685 -0.05792,0.06954 -0.109904,0.0937 -0.229804,0.180279 -0.314277,0.299542 -0.03795,0.175303 -0.006,0.355048 -0.01605,0.532338 -0.0011,0.909457 -0.0054,1.819041 0.01258,2.728368 0.0054,0.06596 -0.0026,0.134842 0.01698,0.19847 0.04355,0.109421 0.170515,0.16786 0.283927,0.149159 1.892529,0.0114 3.785138,0.01498 5.677676,0.0035 0.176295,-0.0034 0.353046,8.14e-4 0.528951,-0.01226 0.0767,-0.01021 0.168623,-0.02057 0.212943,-0.09285 0.06161,-0.09173 0.03694,-0.206466 0.04227,-0.309764 0.0082,-1.031838 0.01413,-2.063895 -0.0029,-3.095636 -0.0067,-0.09088 -0.05313,-0.177293 -0.126571,-0.231695 -0.07798,-0.07777 -0.182322,-0.132741 -0.238634,-0.229798 -0.02767,-0.08343 -0.0043,-0.172412 -0.01271,-0.258215 -0.002,-0.600973 -0.0041,-1.201945 -0.0061,-1.802917 -0.05414,-0.05418 -0.108292,-0.10832 -0.162345,-0.162572 -0.681979,-0.0022 -1.363956,-0.0046 -2.045934,-0.0068 -0.195904,-0.155479 -0.369467,-0.352308 -0.610401,-0.439648 -0.06496,-0.02088 -0.133851,-0.02683 -0.201804,-0.02552 z m 2.463434,1.028536 c 0.002,0.780157 0.004,1.560314 0.0061,2.34047 -0.514045,0.438269 -1.028091,0.876536 -1.542136,1.314804 -0.60644,-4.17e-4 -1.212881,-8.3e-4 -1.81932,-0.0013 -0.510023,-0.434733 -1.020045,-0.869466 -1.530068,-1.3042 V 42.41941 c 1.628497,0.0021 3.256993,0.0043 4.885491,0.0065 z m 0.392693,3.233945 c 4.7e-4,0.504366 7.16e-4,1.008731 7.63e-4,1.513097 -0.407741,-0.280991 -0.877298,-0.457546 -1.282994,-0.741686 -0.0343,-0.02354 -0.0428,-0.06987 -0.02017,-0.104489 0.05315,-0.111478 0.168133,-0.171606 0.254555,-0.253999 0.347352,-0.299958 0.697256,-0.596955 1.046501,-0.894715 4.7e-4,0.160598 8.93e-4,0.321194 0.0014,0.481792 z m -5.632183,-0.370419 c 0.175111,0.08504 0.354903,0.171627 0.492992,0.312317 0.283576,0.254898 0.570598,0.506055 0.85548,0.759679 -0.407811,0.30241 -0.893335,0.474481 -1.314854,0.754782 -0.03632,0.02202 -0.06402,-0.02539 -0.05928,-0.05731 -0.01592,-0.210591 -0.003,-0.422071 -0.0077,-0.633055 2.14e-4,-0.383993 -3.7e-5,-0.767992 0.002,-1.151982 0.01047,0.0052 0.02094,0.01038 0.03141,0.01557 z m 1.975153,1.346037 c 0.281973,0.0031 0.564092,7.1e-4 0.84613,0.002 0.297961,3.67e-4 0.595923,7.11e-4 0.893886,0.0011 0.346678,0.291207 0.771492,0.463918 1.157775,0.691835 0.06893,0.05648 0.0142,0.194351 -0.07693,0.1817 -1.309728,0.0056 -2.619489,0.0054 -3.929215,-0.0013 -0.100732,-0.01402 -0.147952,-0.164813 -0.06392,-0.227773 0.06527,-0.05389 0.149,-0.07728 0.220084,-0.122147 0.289164,-0.15172 0.581972,-0.302353 0.839075,-0.505538 0.03523,-0.01644 0.07476,-0.01947 0.113115,-0.01987 z"
       sodipodi:nodetypes="ccccccccccccccccccccccccccsccccccsccccccccsccccccssccccccccccc" />
    <g
       id="g850"
       transform="matrix(0.01381579,0,0,0.01381579,52.623764,50.983129)">
      <path
         id="path1369"
         style="fill:#454e5f;fill-opacity:1;stroke-width:0.195763"
         d="m 196.60701,-584.19795 c -2.90433,-0.11933 -5.92468,0.48039 -8.26175,2.2949 -3.50655,2.42315 -5.9355,6.55444 -5.72266,10.8862 -0.0979,3.8163 -0.11957,7.63388 -0.15434,11.45112 -3.84297,-2.17614 -7.61565,-4.50093 -11.59678,-6.41565 -5.28805,-2.16992 -12.01779,-0.57873 -15.38721,4.14939 -1.8769,2.52021 -3.27397,5.35312 -4.90716,8.03064 -1.51153,2.60654 -2.42262,5.63913 -2.01585,8.66822 0.36555,3.63883 2.17965,7.24838 5.3174,9.25163 3.08038,2.15589 6.43514,3.87976 9.64827,5.82586 0.40524,0.38776 2.10481,0.77874 0.92662,1.16256 -3.91228,2.29293 -7.93578,4.43688 -11.61746,7.09292 -3.45189,2.95002 -4.94836,7.88031 -4.1375,12.29842 0.62993,3.56276 2.94478,6.45841 4.60597,9.57953 1.5444,2.60702 3.25762,5.32792 6.04495,6.75065 4.22645,2.37757 9.70189,2.19586 13.79137,-0.40024 3.1413,-1.71181 6.23803,-3.50384 9.3371,-5.29065 0.0593,4.60166 -0.0347,9.21981 0.30415,13.80814 0.9403,6.0398 6.668,10.83787 12.75959,10.85658 3.339,0.0264 6.68433,0.0462 10.0207,-0.0919 4.44004,-0.26984 8.38682,-3.30652 10.44773,-7.14656 1.25067,-2.18857 1.42193,-4.74571 1.38573,-7.20933 0.0808,-3.40423 0.0974,-6.80954 0.13005,-10.21445 3.8431,2.18014 7.61917,4.50346 11.60165,6.42051 5.2867,2.16446 11.99895,0.57386 15.37737,-4.13976 1.85263,-2.49915 3.24602,-5.29835 4.85625,-7.95278 1.57512,-2.66874 2.50289,-5.79772 2.05592,-8.90901 -0.4038,-3.58482 -2.20507,-7.12643 -5.30158,-9.10076 -3.11671,-2.17695 -6.5086,-3.92187 -9.75868,-5.88769 -0.38707,-0.36735 -2.02111,-0.73898 -0.81842,-1.10279 3.91618,-2.29254 7.94405,-4.43622 11.6259,-7.09705 3.34535,-2.85509 4.83923,-7.57974 4.20025,-11.87781 -0.55461,-3.70985 -2.87015,-6.78037 -4.67328,-9.9652 -1.6342,-2.56917 -3.28338,-5.36183 -6.09403,-6.79348 -4.13786,-2.34692 -9.49774,-2.17841 -13.53605,0.31128 -3.22826,1.71384 -6.37039,3.58358 -9.54501,5.39368 -0.0599,-4.58432 0.0277,-9.18236 -0.29579,-13.75522 -0.73891,-4.83504 -4.58995,-8.90463 -9.17703,-10.3934 -2.97416,-0.80913 -6.08722,-0.3717 -9.12676,-0.49276 -0.76988,0.001 -1.53975,0.002 -2.30963,0.004 z" />
      <path
         id="path852"
         style="fill:#454e5f;fill-opacity:1;stroke-width:0.195763"
         d="m 86.512897,-584.19795 c -2.906285,-0.12169 -5.928802,0.48186 -8.266053,2.29812 -3.547968,2.44535 -5.964931,6.64537 -5.722602,11.01667 -0.09132,3.77182 -0.115628,7.54477 -0.150089,11.31743 -3.842976,-2.17614 -7.615656,-4.50093 -11.596784,-6.41565 -5.286908,-2.16966 -12.002782,-0.57754 -15.382222,4.13733 -1.856108,2.49961 -3.246216,5.30326 -4.861116,7.95764 -1.544842,2.63345 -2.482318,5.70481 -2.063214,8.77503 0.370001,3.64357 2.194105,7.25357 5.344207,9.24749 2.424538,1.75005 5.100727,3.10349 7.582563,4.62116 1.168685,0.67986 2.337369,1.35972 3.506054,2.03959 -4.063624,2.37234 -8.23272,4.6014 -12.070683,7.33151 -3.426279,2.84473 -4.945466,7.63678 -4.296981,11.98212 0.537896,3.71085 2.93263,6.71903 4.656663,9.93592 1.545872,2.62033 3.265896,5.3546 6.065729,6.78111 4.225724,2.38081 9.699887,2.19465 13.789081,-0.40049 3.143218,-1.70762 6.236788,-3.50446 9.336423,-5.28948 0.05501,4.56087 -0.02415,9.13519 0.290265,13.68487 0.870895,6.14696 6.732243,11.019 12.904997,10.98628 3.212846,0.0144 6.430197,0.0258 9.640984,-0.08 5.122821,-0.25104 9.702801,-4.05311 11.409751,-8.80716 0.81216,-2.31613 0.60675,-4.82144 0.72426,-7.23748 0.0146,-2.84815 0.0403,-5.69612 0.0777,-8.54406 3.84595,2.17517 7.61816,4.50538 11.60164,6.42051 5.28667,2.16416 11.99942,0.57446 15.37736,-4.13976 1.85526,-2.50005 3.24792,-5.30252 4.86112,-7.95763 1.54484,-2.63345 2.48232,-5.70482 2.06322,-8.77504 -0.36713,-3.64292 -2.19489,-7.25083 -5.34127,-9.24575 -2.42344,-1.75248 -5.10122,-3.10447 -7.58307,-4.6229 -1.16606,-0.6809 -2.34658,-1.35993 -3.50363,-2.04201 4.06169,-2.37215 8.22971,-4.59963 12.06582,-7.32909 3.40843,-2.82918 4.92714,-7.58587 4.30747,-11.91178 -0.528,-3.66089 -2.79875,-6.69235 -4.57415,-9.83255 -1.65894,-2.59591 -3.28909,-5.45161 -6.12164,-6.92549 -4.19211,-2.41868 -9.6561,-2.2275 -13.74128,0.335 -3.17787,1.70482 -6.29253,3.52489 -9.41645,5.32564 -0.0767,-4.58737 0.0331,-9.18913 -0.30113,-13.76489 -0.75133,-4.87461 -4.66085,-8.9764 -9.307774,-10.42019 -2.937698,-0.75924 -5.999642,-0.33691 -8.995525,-0.45631 -0.76988,10e-4 -1.539759,0.002 -2.309639,0.004 z" />
      <path
         id="path1371"
         style="fill:#454e5f;fill-opacity:1;stroke-width:0.195763"
         d="m 304.32684,-581.82368 c -2.9073,-0.12044 -5.92853,0.48365 -8.2691,2.29725 -3.50314,2.42644 -5.93223,6.56253 -5.71731,10.89313 -0.0957,3.81325 -0.12106,7.62768 -0.15233,11.44186 -3.84297,-2.17615 -7.61566,-4.50095 -11.59678,-6.41566 -5.28843,-2.16972 -12.01771,-0.57883 -15.38721,4.1494 -1.87078,2.50997 -3.26129,5.33281 -4.89016,7.99903 -1.5491,2.65983 -2.46706,5.76712 -2.01704,8.85755 0.40398,3.62781 2.2552,7.19378 5.40192,9.16501 3.19997,2.20446 6.65756,4.00222 9.98336,6.00679 0.87854,0.3676 1.31711,0.73616 0.16723,1.09839 -3.80908,2.22805 -7.72095,4.32169 -11.29973,6.91124 -3.34633,2.8566 -4.84283,7.58237 -4.20267,11.88267 0.51489,3.6763 2.88551,6.65353 4.58814,9.83818 1.57468,2.677 3.32006,5.48251 6.18705,6.93001 4.22022,2.34735 9.66543,2.1582 13.73851,-0.4287 3.1413,-1.71181 6.23802,-3.50384 9.3371,-5.29063 0.0595,4.60091 -0.0375,9.21818 0.30375,13.80576 0.93309,6.02732 6.63994,10.81527 12.71468,10.85806 3.31526,0.0301 6.63635,0.0394 9.94963,-0.0826 4.48337,-0.2239 8.47372,-3.28188 10.56346,-7.14472 1.10488,-1.95617 1.35968,-4.21349 1.36842,-6.42082 0.13988,-3.66918 0.0737,-7.34248 0.14314,-11.01324 3.88528,2.19129 7.68841,4.55457 11.7183,6.47154 5.26282,2.08436 11.88853,0.49044 15.25177,-4.16774 1.93142,-2.63933 3.41434,-5.56909 5.0912,-8.36952 1.54133,-2.71099 2.32114,-5.90383 1.7657,-9.00677 -0.49595,-3.46352 -2.34126,-6.80985 -5.351,-8.69343 -3.16147,-2.17546 -6.576,-3.95029 -9.8593,-5.93212 -0.83644,-0.38788 -1.49988,-0.77535 -0.27591,-1.15823 3.82578,-2.24136 7.75666,-4.34304 11.35353,-6.94507 3.4506,-3.01598 4.93814,-8.00716 4.03652,-12.45949 -0.65745,-3.37197 -2.76492,-6.17067 -4.41176,-9.1076 -1.64063,-2.57926 -3.24835,-5.40696 -6.02526,-6.91661 -4.16655,-2.46498 -9.64183,-2.34589 -13.75145,0.1876 -3.22809,1.71826 -6.37326,3.58519 -9.54962,5.39658 -0.0562,-4.58434 0.0299,-9.18237 -0.29336,-13.75523 -0.74002,-4.8377 -4.59484,-8.91146 -9.18675,-10.39582 -2.97227,-0.80576 -6.08235,-0.36943 -9.11946,-0.49032 -0.76907,10e-4 -1.53814,0.002 -2.30721,0.004 z" />
    </g>
  </g>
</svg>
