<?xml version="1.0" encoding="UTF-8" standalone="no"?>
<svg
   height="260"
   width="260"
   version="1.1"
   id="svg24"
   sodipodi:docname="citibank.svg"
   inkscape:version="1.1.1 (3bf5ae0d25, 2021-09-20)"
   xmlns:inkscape="http://www.inkscape.org/namespaces/inkscape"
   xmlns:sodipodi="http://sodipodi.sourceforge.net/DTD/sodipodi-0.dtd"
   xmlns="http://www.w3.org/2000/svg"
   xmlns:svg="http://www.w3.org/2000/svg">
  <defs
     id="defs28" />
  <sodipodi:namedview
     id="namedview26"
     pagecolor="#ffffff"
     bordercolor="#666666"
     borderopacity="1.0"
     inkscape:pageshadow="2"
     inkscape:pageopacity="0.0"
     inkscape:pagecheckerboard="0"
     showgrid="false"
     inkscape:zoom="1.6972085"
     inkscape:cx="-15.908476"
     inkscape:cy="170.57421"
     inkscape:window-width="2560"
     inkscape:window-height="1017"
     inkscape:window-x="-8"
     inkscape:window-y="-8"
     inkscape:window-maximized="1"
     inkscape:current-layer="svg24" />
  <path
     style="fill:#004685;fill-opacity:1;stroke-width:0.6;paint-order:markers stroke fill"
     d="M 0,0 H 260 V 260 H 0 Z"
     id="path2" />
  <g
     id="g869"
     transform="translate(-2.1096273,3.614218)">
    <g
       clip-path="url(#clipPath38)"
       transform="matrix(5.82336,0,0,-5.82336,-2149.5326,571.40497)"
       style="fill:#ffffff;stroke-width:1.46017"
       id="g8">
      <g
         style="fill:#ffffff;stroke-width:1.46017"
         id="g6">
        <path
           d="m 0,0 -0.064,-0.062 c -1.005,-1.024 -2.168,-1.565 -3.366,-1.565 -2.502,0 -4.317,1.877 -4.317,4.466 0,2.585 1.815,4.465 4.317,4.465 1.198,0 2.361,-0.544 3.366,-1.572 L 0,5.671 1.609,7.617 1.566,7.669 c -1.338,1.581 -2.944,2.35 -4.918,2.35 -1.979,0 -3.791,-0.667 -5.095,-1.868 -1.42,-1.302 -2.167,-3.138 -2.167,-5.312 0,-2.174 0.747,-4.014 2.167,-5.316 1.304,-1.208 3.116,-1.87 5.095,-1.87 1.974,0 3.58,0.77 4.918,2.352 L 1.609,-1.947 0,0"
           fill="#004685"
           style="fill:#ffffff;stroke-width:2.20456"
           transform="translate(385.017,69.544)"
           id="path4" />
      </g>
    </g>
    <path
       d="m 111.3876,190.19769 h 16.55555 V 109.39263 H 111.3961 v 80.80506"
       fill="#004685"
       style="fill:#ffffff;stroke-width:8.50311"
       id="path10" />
    <g
       clip-path="url(#clipPath52)"
       transform="matrix(5.82336,0,0,-5.82336,-2149.5326,571.40497)"
       style="fill:#ffffff;stroke-width:1.46017"
       id="g16">
      <g
         style="fill:#ffffff;stroke-width:1.46017"
         id="g14">
        <path
           d="m 0,0 c -0.759,-0.462 -1.464,-0.695 -2.098,-0.695 -0.919,0 -1.335,0.486 -1.335,1.566 v 7.363 h 2.897 v 2.612 h -2.897 v 4.318 L -6.218,13.672 V 10.846 H -8.622 V 8.234 h 2.404 V 0.402 c 0,-2.133 1.264,-3.593 3.152,-3.631 1.281,-0.025 2.053,0.357 2.521,0.637 l 0.03,0.019 L 0.168,0.103 0,0"
           fill="#004685"
           style="fill:#ffffff;stroke-width:2.20456"
           transform="translate(402.227,68.478)"
           id="path12" />
      </g>
    </g>
    <path
       d="m 206.48638,190.19769 h 16.57256 v -80.80506 h -16.58106 v 80.80506"
       fill="#004685"
       style="fill:#ffffff;stroke-width:8.50311"
       id="path18" />
    <g
       style="stroke-width:1.46017"
       id="g22"
       transform="translate(-0.00263627,0.00296589)">
      <path
         fill="#ee1c25"
         d="m 0,0 c -2.597,3.678 -6.909,5.872 -11.296,5.872 -4.386,0 -8.699,-2.194 -11.291,-5.872 l -0.134,-0.189 h 3.27 l 0.036,0.039 c 2.225,2.298 5.131,3.512 8.119,3.512 2.988,0 5.892,-1.214 8.122,-3.512 l 0.036,-0.039 H 0.13 L 0,0"
         style="stroke-width:2.20456"
         transform="matrix(5.82336,0,0,-5.82336,232.714,95.224)"
         id="path20" />
    </g>
  </g>
</svg>
