<?xml version="1.0" encoding="UTF-8" standalone="no"?>
<svg
   width="450"
   height="449.99997"
   version="1.1"
   id="svg10"
   sodipodi:docname="original.svg"
   inkscape:version="1.1.1 (3bf5ae0d25, 2021-09-20)"
   xmlns:inkscape="http://www.inkscape.org/namespaces/inkscape"
   xmlns:sodipodi="http://sodipodi.sourceforge.net/DTD/sodipodi-0.dtd"
   xmlns="http://www.w3.org/2000/svg"
   xmlns:svg="http://www.w3.org/2000/svg">
  <defs
     id="defs14" />
  <sodipodi:namedview
     id="namedview12"
     pagecolor="#ffffff"
     bordercolor="#666666"
     borderopacity="1.0"
     inkscape:pageshadow="2"
     inkscape:pageopacity="0.0"
     inkscape:pagecheckerboard="0"
     showgrid="false"
     inkscape:zoom="0.69751712"
     inkscape:cx="627.94157"
     inkscape:cy="390.67141"
     inkscape:window-width="2560"
     inkscape:window-height="1017"
     inkscape:window-x="-8"
     inkscape:window-y="-8"
     inkscape:window-maximized="1"
     inkscape:current-layer="g6" />
  <g
     style="fill:#18ad47;fill-opacity:1;fill-rule:evenodd;stroke:none;stroke-width:1"
     id="g8"
     transform="translate(0.00288567,-0.00143672)">
    <g
       style="fill:#18ad47;fill-opacity:1"
       id="g6">
      <path
         style="fill:#18ad47;fill-opacity:1;stroke-width:0.600001;paint-order:markers stroke fill"
         d="M -0.00288351,0.00142982 H 449.99711 V 450.00141 H -0.00288351 Z"
         id="path2" />
      <path
         d="m 155.90344,330.77742 a 13.350018,13.350018 0 0 1 13.35859,13.30716 v 8.43001 c 0,6.24001 -4.33715,13.11431 -10.16573,14.54574 l 9.60859,18.35573 c 1.20857,2.20286 0.38571,4.96287 -1.81715,6.17573 a 4.5128632,4.5128632 0 0 1 -6.19715,-1.80858 L 148.90486,367.4589 h -9.30858 v 19.91145 c 0,2.51143 -2.04858,4.55144 -4.56858,4.55144 a 4.5642918,4.5642918 0 0 1 -4.56858,-4.55144 v -43.28577 a 13.350018,13.350018 0 0 1 13.35859,-13.30716 z m 88.85155,0.0429 c 2.52,0 4.56857,2.04429 4.56857,4.55143 v 52.03721 a 4.5685775,4.5685775 0 0 1 -9.13715,0 v -52.03721 c 0,-2.50714 2.05286,-4.55143 4.56858,-4.55143 z m 16.80859,0 c 1.62857,0 3.14572,0.87428 3.96001,2.28429 l 21.14145,39.90434 v -37.6372 a 4.566435,4.566435 0 0 1 9.13287,0 v 52.03721 c 0,2.05715 -1.38429,3.88715 -3.38572,4.40144 -1.10143,0.27857 -3.69429,0.38571 -5.14286,-2.13 l -21.13717,-38.08291 v 35.81147 a 4.56858,4.56858 0 0 1 -9.13716,0 v -52.03721 c 0,-4.53429 4.17001,-4.55143 4.56858,-4.55143 z m 92.66584,0 c 2.52,0 4.56858,2.04429 4.56858,4.55143 v 47.48578 h 18.63431 c 2.52,0 4.56857,2.04429 4.56857,4.55572 0,2.50715 -2.04857,4.54715 -4.56857,4.54715 h -23.20289 a 4.5642918,4.5642918 0 0 1 -4.56858,-4.54715 v -52.0415 c 0,-2.50714 2.04858,-4.55143 4.56858,-4.55143 z m -244.79176,-0.0429 a 13.350018,13.350018 0 0 1 13.35859,13.30716 v 34.52148 A 13.350018,13.350018 0 0 1 109.43766,391.9175 H 97.351933 A 13.350018,13.350018 0 0 1 83.993344,378.60606 v -34.52148 a 13.350018,13.350018 0 0 1 13.358589,-13.30716 z m 72.05581,0 c 2.52001,0 4.56858,2.04 4.56858,4.55143 v 52.03722 a 4.5685775,4.5685775 0 0 1 -9.13715,0 v -52.03722 c 0,-2.51143 2.04857,-4.55143 4.56857,-4.55143 z m 37.67148,0 a 13.350018,13.350018 0 0 1 13.36288,13.31145 4.56858,4.56858 0 0 1 -9.13716,0 4.2214342,4.2214342 0 0 0 -4.22143,-4.20858 h -12.08573 a 4.2214342,4.2214342 0 0 0 -4.22572,4.20858 v 34.51719 c 0,2.31857 1.89857,4.20857 4.22572,4.20857 h 12.08573 c 2.32714,0 4.22143,-1.88571 4.22143,-4.20857 v -11.20288 h -10.2643 a 4.5642918,4.5642918 0 0 1 -4.56857,-4.55143 c 0,-2.51143 2.04857,-4.55144 4.56857,-4.55144 h 14.83288 a 4.5514346,4.5514346 0 0 1 4.56858,4.55144 v 15.75431 a 13.350018,13.350018 0 0 1 -13.35859,13.31144 h -12.08573 a 13.350018,13.350018 0 0 1 -13.35859,-13.31144 v -34.51719 a 13.350018,13.350018 0 0 1 13.35859,-13.31145 z m 109.61158,0.0429 c 7.34144,0 13.30716,5.74286 13.31144,14.40002 v 42.01291 c 0,2.69572 -2.04857,4.65001 -4.56429,4.65001 a 4.5642918,4.5642918 0 0 1 -4.56858,-4.55144 v -19.88574 h -20.37859 v 19.88574 a 4.566435,4.566435 0 0 1 -9.13287,0 v -43.24291 a 13.302875,13.302875 0 0 1 13.31144,-13.26859 z m -219.34315,9.06001 H 97.347648 a 4.2214342,4.2214342 0 0 0 -4.221434,4.20429 v 34.52148 c 0,2.31857 1.894288,4.20857 4.225719,4.20857 h 12.085727 c 2.32715,0 4.22144,-1.88571 4.22144,-4.20857 v -34.52152 a 4.2214342,4.2214342 0 0 0 -4.22144,-4.20429 z m 46.47006,0 h -12.08573 a 4.2214342,4.2214342 0 0 0 -4.22143,4.20429 v 14.27145 h 16.30716 c 2.33143,0 4.22572,-3.52715 4.22572,-5.84572 v -8.42577 a 4.2214342,4.2214342 0 0 0 -4.22572,-4.20429 z m 172.87309,0.0429 h -12.02145 a 4.1742913,4.1742913 0 0 0 -4.17857,4.16143 v 14.25859 h 20.37859 v -14.25867 a 4.1742913,4.1742913 0 0 0 -4.17857,-4.15715 z m -191.12597,-35.4387 c 3.48,0 6.31286,2.72572 6.31715,6.83572 v 9.23144 a 2.1687029,2.1687029 0 1 1 -4.33715,0.0471 v -9.8143 a 1.9800026,1.9800026 0 0 0 -1.98,-1.98001 h -5.70858 a 1.9800026,1.9800026 0 0 0 -1.98,1.97572 v 9.82287 a 2.168575,2.168575 0 0 1 -4.33715,0 v -9.82287 c 0,-3.47143 2.83286,-6.29572 6.31715,-6.29572 z m -20.91431,0 c 3.48429,0 6.31715,2.82857 6.31715,6.30001 v 5.67858 c 0,3.47143 -2.73429,6.29143 -6.85716,6.29572 h -5.36143 a 2.357146,2.357146 0 0 1 -0.68572,-0.10714 6.3042941,6.3042941 0 0 1 -5.16,-6.03858 c 0.0771,-3.39858 2.78571,-6.13287 6.84858,-6.13716 h 6.84858 a 1.9757169,1.9757169 0 0 0 -1.95,-1.67143 h -8.93573 a 2.1642886,2.1642886 0 0 1 -2.16858,-2.16 c 0,-1.18714 0.97286,-2.16 2.16858,-2.16 z m 45.02577,0 a 2.1642886,2.1642886 0 1 1 0.0471,4.32 h -8.93572 a 1.9800026,1.9800026 0 0 0 -1.98001,1.97572 v 5.68715 c 0,1.08857 0.88715,1.97143 1.98001,1.97143 h 8.93572 c 1.2,0 2.16858,0.96858 2.16858,2.16001 a 2.1642886,2.1642886 0 0 1 -2.16858,2.16 h -8.93572 a 6.3128656,6.3128656 0 0 1 -6.31716,-6.28715 v -5.68715 c 0,-3.47144 2.73429,-6.29144 6.85716,-6.29144 z m 16.92002,0 c 3.48429,0 6.31715,2.82857 6.31715,6.30001 v 5.68286 c 0,3.47143 -2.73,6.29144 -6.85715,6.29144 h -5.18143 a 6.3128656,6.3128656 0 0 1 -6.31716,-6.29144 v -5.68715 c 0,-3.47143 2.73429,-6.29144 6.85716,-6.29144 z m -84.668682,-9.07716 c 3.291433,0 5.970008,2.67001 5.970008,5.94858 v 2.42143 c 0,3.61287 -2.190003,3.84001 -2.190003,3.84001 0,0 5.198577,0.54429 5.198577,5.42144 v 3.76286 c 0,3.27857 -2.67857,5.94858 -5.970007,5.94858 h -7.054295 c -4.894292,0 -5.970008,-1.35429 -5.970008,-5.94858 v -15.97288 c 0.03857,-4.23001 0.600001,-5.42572 5.048578,-5.42572 z m 3.008575,14.91431 h -2.734289 l -0.552858,0.0343 h -5.657151 v 6.44573 c 0,1.48714 0.351429,1.88143 1.885717,1.88143 h 7.058581 a 1.8857168,1.8857168 0 0 0 1.885717,-1.88143 v -3.86572 c 0,-1.03715 -0.844287,-2.61429 -1.885717,-2.61429 z m 81.664397,-1.50857 h -5.72144 a 1.9800026,1.9800026 0 0 0 -1.98,1.97143 v 5.68715 c 0,1.08857 0.89143,1.97143 1.98,1.97143 h 5.72144 a 1.9800026,1.9800026 0 0 0 1.98,-1.97143 v -5.68715 a 1.9800026,1.9800026 0 0 0 -1.98,-1.97143 z m -59.9658,5.98286 h -7.42286 a 1.9714312,1.9714312 0 0 0 -1.96715,1.82143 1.9714312,1.9714312 0 0 0 1.96715,1.82143 h 5.44286 a 1.9800026,1.9800026 0 0 0 1.98,-1.97143 z M 94.009072,299.47024 h -4.96715 c -1.504287,0 -0.968572,0.37285 -0.968572,1.88571 v 4.99715 h 3.874291 l 0.805715,0.0343 h 1.255716 c 1.04143,0 1.885717,-1.57715 1.885717,-2.61429 v -2.42143 a 1.8857168,1.8857168 0 0 0 -1.885717,-1.88143 z M 319.09937,146.69717 c 4.00715,0 7.24715,3.23144 7.24715,7.21716 v 77.59724 c 0,2.58001 -1.38,4.95858 -3.62143,6.25287 l -96.36013,55.42722 a 7.2514382,7.2514382 0 0 1 -7.23858,0 l -96.33441,-55.29865 a 7.2128668,7.2128668 0 0 1 -3.62572,-6.25715 v -77.55868 c 0,-3.98572 3.24429,-7.21715 7.24287,-7.21715 4.00286,0 7.24286,3.23143 7.24286,7.21715 v 73.38867 l 89.08726,51.13721 89.11727,-51.25721 v -73.43152 c 0,-3.98572 3.24429,-7.21716 7.24286,-7.21716 z M 219.14352,58.797054 a 7.2728668,7.2728668 0 0 1 7.24716,0 l 96.33441,55.410076 a 7.2171525,7.2171525 0 0 1 0,12.50144 l -96.36013,55.42722 a 7.2728668,7.2728668 0 0 1 -7.23858,0 l -96.33441,-55.29865 a 7.2214382,7.2214382 0 0 1 -3.62572,-6.24858 c 0,-2.57571 1.37571,-4.96286 3.61715,-6.25715 z m 3.63001,14.584305 -81.87011,47.190061 81.83582,46.97578 81.8744,-47.09149 z"
         style="fill:#ffffff;fill-opacity:1;stroke-width:4.28572"
         id="path4" />
    </g>
  </g>
</svg>
