<svg height="512" viewBox="0 0 64 64" width="512" xmlns="http://www.w3.org/2000/svg"><g id="Web_analytics" data-name="Web analytics"><rect fill="#005ece" height="46" rx="4" width="58" x="3" y="3"/><path d="m57 3h-2a4 4 0 0 1 4 4v38a4 4 0 0 1 -4 4h2a4 4 0 0 0 4-4v-38a4 4 0 0 0 -4-4z" fill="#004fac"/><path d="m7 7h50v32h-50z" fill="#ffdaaa"/><circle cx="32" cy="44" fill="#ffcd00" r="2"/><path d="m25 49h14v6h-14z" fill="#6d6e71"/><path d="m19 55a4 4 0 0 0 -4 4v2h34v-2a4 4 0 0 0 -4-4z" fill="#58595b"/><path d="m49 17a6 6 0 0 0 -6-6v6z" fill="#ed1c24"/><path d="m43 11a6 6 0 0 0 -4.243 10.243l4.243-4.243z" fill="#5eac24"/><path d="m43 17-4.243 4.243a6 6 0 0 0 10.243-4.243z" fill="#ffcd00"/><path d="m26 39h31v-31c0 19.882-11.118 31-31 31z" fill="#ffc477"/><path d="m49 25h4v10h-4z" fill="#5eac24"/><path d="m42 29h4v6h-4z" fill="#006df0"/><path d="m35 31h4v4h-4z" fill="#ed1c24"/><path d="m25 49h14v2h-14z" fill="#58595b"/><path d="m33 26h-22a1 1 0 0 1 -1-1v-14a1 1 0 0 1 2 0v13h21a1 1 0 0 1 0 2z" fill="#006df0"/><path d="m14 23a1 1 0 0 1 -.831-1.555l4-6a1 1 0 0 1 1.631-.045l2.7 3.6h1.882l1.723-3.447a1 1 0 0 1 .895-.553h2.434l2.709-4.515a1 1 0 0 1 1.714 1.03l-3 5a1 1 0 0 1 -.857.485h-2.382l-1.718 3.447a1 1 0 0 1 -.9.553h-3a1 1 0 0 1 -.8-.4l-2.152-2.869-3.216 4.824a1 1 0 0 1 -.832.445z" fill="#d80027"/><g fill="#ff9811"><path d="m27 30h-10a1 1 0 0 1 0-2h10a1 1 0 0 1 0 2z"/><path d="m27 33h-10a1 1 0 0 1 0-2h10a1 1 0 0 1 0 2z"/><path d="m27 36h-10a1 1 0 0 1 0-2h10a1 1 0 0 1 0 2z"/><path d="m14 30h-1a1 1 0 0 1 0-2h1a1 1 0 0 1 0 2z"/><path d="m14 33h-1a1 1 0 0 1 0-2h1a1 1 0 0 1 0 2z"/><path d="m14 36h-1a1 1 0 0 1 0-2h1a1 1 0 0 1 0 2z"/></g></g></svg>