<svg width="120" height="128" viewBox="0 0 120 128" fill="none" xmlns="http://www.w3.org/2000/svg">
<path d="M60.0046 127.21C58.0448 127.203 56.0935 126.951 54.1966 126.458L53.8227 126.355L53.4758 126.181C40.9365 119.894 30.3578 111.59 22.0334 101.499C15.1425 93.097 9.77013 83.5572 6.15773 73.3088C1.83786 61.0389 -0.240422 48.0923 0.0220988 35.0868C0.027396 34.8138 0.0318791 34.603 0.0318791 34.4578C0.0318791 28.1358 3.54109 22.5886 8.972 20.3257C13.1286 18.5938 50.868 3.09271 53.5948 1.97272C58.7301 -0.600373 64.2085 1.54727 65.0852 1.92284C67.0516 2.72684 101.939 16.9964 109.479 20.5864C117.249 24.2863 119.322 30.9332 119.322 34.2773C119.322 49.4173 116.7 63.5668 111.528 76.3329C107.352 86.6661 101.433 96.2056 94.0283 104.536C79.7425 120.612 65.453 126.312 65.315 126.362C63.6073 126.95 61.8105 127.236 60.0046 127.21ZM56.6442 118.886C57.8831 119.164 60.7353 119.58 62.5944 118.902C64.9561 118.041 76.9162 111.839 88.0925 99.2614C103.534 81.8839 111.37 60.0389 111.381 34.3332C111.354 33.8124 110.984 30.098 106.065 27.7558C98.6717 24.2352 62.4088 9.40736 62.0434 9.25791L61.9432 9.21544C61.1832 8.89699 58.7647 8.22621 57.0976 9.09984L56.7638 9.25545C56.3596 9.42147 16.2987 25.8753 12.0261 27.6555C9.03739 28.9008 7.97251 31.9859 7.97251 34.4578C7.97251 34.6385 7.96783 34.9012 7.96123 35.2408C7.61976 52.8297 11.6899 96.1103 56.6442 118.886Z" fill="#3F3D56"/>
<path d="M55.2553 5.58273C55.2553 5.58273 14.8303 22.1859 10.4991 23.9905C6.16781 25.7952 4.00218 30.1265 4.00218 34.4577C4.00218 38.789 0.753751 95.306 55.2553 122.632C55.2553 122.632 60.2019 124.001 63.9548 122.632C67.7077 121.263 115.351 98.1632 115.351 34.2773C115.351 34.2773 115.351 27.7804 107.772 24.171C100.192 20.5616 63.5455 5.58273 63.5455 5.58273C63.5455 5.58273 59.0452 3.59757 55.2553 5.58273Z" fill="#6C63FF"/>
<path opacity="0.1" d="M59.5867 18.5765V107.148C59.5867 107.148 18.8007 87.5156 19.1617 35.9015L59.5867 18.5765Z" fill="black"/>
<g filter="url(#filter0_d_3003_674)">
<path d="M59.3835 64.0431C53.7871 64.0431 49.2341 59.2066 49.2341 53.2616C49.2341 47.3167 53.7871 42.4802 59.3835 42.4802C64.9798 42.4802 69.5328 47.3167 69.5328 53.2616C69.5328 59.2066 64.9798 64.0431 59.3835 64.0431ZM59.3835 45.2044C55.2892 45.2044 51.9583 48.8188 51.9583 53.2616C51.9583 57.7043 55.2892 61.3189 59.3835 61.3189C63.4777 61.3189 66.8086 57.7043 66.8086 53.2616C66.8086 48.8188 63.4777 45.2044 59.3835 45.2044Z" fill="white"/>
<path d="M69.2411 82.8321H50.019C48.3239 82.8303 46.6988 82.1561 45.5002 80.9575C44.3016 79.7589 43.6274 78.1338 43.6255 76.4387V57.5839C43.6268 56.4234 44.0884 55.3108 44.909 54.4902C45.7296 53.6696 46.8421 53.208 48.0026 53.2067H71.2575C72.418 53.208 73.5306 53.6696 74.3511 54.4902C75.1717 55.3108 75.6333 56.4234 75.6346 57.5839V76.4387C75.6327 78.1338 74.9585 79.7589 73.7599 80.9575C72.5613 82.1561 70.9362 82.8303 69.2411 82.8321Z" fill="#FFF212"/>
<path d="M63.3758 63.9331C63.3763 63.2672 63.1993 62.6132 62.863 62.0385C62.5268 61.4638 62.0434 60.9891 61.4627 60.6634C60.8819 60.3376 60.2249 60.1725 59.5591 60.1851C58.8934 60.1977 58.2431 60.3875 57.6751 60.7351C57.1071 61.0826 56.642 61.5752 56.3278 62.1622C56.0135 62.7492 55.8614 63.4094 55.8871 64.0748C55.9128 64.7401 56.1154 65.3866 56.474 65.9476C56.8326 66.5087 57.3343 66.964 57.9274 67.2666V73.1272H61.3326V67.2666C61.9474 66.9533 62.4636 66.4761 62.8241 65.8879C63.1847 65.2996 63.3756 64.623 63.3758 63.9331Z" fill="#3C3C3C"/>
</g>
<circle cx="98.7968" cy="102.07" r="17.4374" fill="white"/>
<path d="M98 81C86.4031 81 77 90.4031 77 102C77 113.597 86.4031 123 98 123C109.597 123 119 113.597 119 102C119 90.4031 109.597 81 98 81ZM105.753 109.978L102.659 109.964L98 104.409L93.3453 109.959L90.2469 109.973C90.0406 109.973 89.8719 109.809 89.8719 109.598C89.8719 109.509 89.9047 109.425 89.9609 109.355L96.0594 102.089L89.9609 94.8281C89.9043 94.7594 89.8729 94.6734 89.8719 94.5844C89.8719 94.3781 90.0406 94.2094 90.2469 94.2094L93.3453 94.2234L98 99.7781L102.655 94.2281L105.748 94.2141C105.955 94.2141 106.123 94.3781 106.123 94.5891C106.123 94.6781 106.091 94.7625 106.034 94.8328L99.9453 102.094L106.039 109.359C106.095 109.43 106.128 109.514 106.128 109.603C106.128 109.809 105.959 109.978 105.753 109.978Z" fill="#FB2F2F"/>
<defs>
<filter id="filter0_d_3003_674" x="42.3927" y="42.4802" width="34.4748" height="42.8175" filterUnits="userSpaceOnUse" color-interpolation-filters="sRGB">
<feFlood flood-opacity="0" result="BackgroundImageFix"/>
<feColorMatrix in="SourceAlpha" type="matrix" values="0 0 0 0 0 0 0 0 0 0 0 0 0 0 0 0 0 0 127 0" result="hardAlpha"/>
<feOffset dy="1.23281"/>
<feGaussianBlur stdDeviation="0.616403"/>
<feComposite in2="hardAlpha" operator="out"/>
<feColorMatrix type="matrix" values="0 0 0 0 0 0 0 0 0 0 0 0 0 0 0 0 0 0 0.25 0"/>
<feBlend mode="normal" in2="BackgroundImageFix" result="effect1_dropShadow_3003_674"/>
<feBlend mode="normal" in="SourceGraphic" in2="effect1_dropShadow_3003_674" result="shape"/>
</filter>
</defs>
</svg>
