<svg width="95" height="62" viewBox="0 0 95 62" fill="none" xmlns="http://www.w3.org/2000/svg">
<path d="M94.824 61.3058H0V62H94.824V61.3058Z" fill="white"/>
<path d="M75.1255 49.049C75.1255 49.583 72.0186 51.1396 68.328 51.1396C64.6374 51.1396 61.7617 49.583 61.7617 49.049C61.7617 48.5151 64.753 48.687 68.4472 48.687C72.1414 48.687 75.1255 48.5142 75.1255 49.049Z" fill="#504F60"/>
<path opacity="0.2" d="M75.1255 49.049C75.1255 49.583 72.0186 51.1396 68.328 51.1396C64.6374 51.1396 61.7617 49.583 61.7617 49.049" fill="black"/>
<path d="M37.9587 39.2512C38.5576 39.3281 39.1792 39.377 39.7529 39.1905C39.8432 39.1625 39.9426 39.1 39.9336 39.0095C39.9271 38.9766 39.9132 38.9457 39.8929 38.919C39.6767 38.5941 39.495 38.2474 39.3509 37.8846C39.3452 37.8656 39.3334 37.8491 39.3174 37.8375C39.2988 37.8307 39.2783 37.8307 39.2596 37.8375C38.9949 37.9072 38.7663 38.0782 38.5034 38.1516C38.3694 38.1884 38.2295 38.1988 38.0915 38.1823C37.9722 38.1688 37.8096 38.0701 37.7012 38.0828C37.7626 38.4783 37.9126 38.8475 37.9587 39.2512Z" fill="#6C63FF"/>
<path d="M49.2866 38.2493C49.6814 37.9778 50.0907 37.6927 50.3238 37.2736C50.3404 37.2486 50.3501 37.2195 50.3518 37.1895C50.3478 37.1599 50.3363 37.1319 50.3184 37.108C50.0963 36.7544 49.8105 36.4454 49.4754 36.1967C49.3006 36.3204 49.1427 36.4664 49.0056 36.6311C48.9063 36.7361 48.6316 36.9026 48.6289 37.0628C48.6289 37.1533 48.7337 37.2583 48.7825 37.3343C48.8484 37.432 48.9108 37.5316 48.9704 37.633C49.0047 37.6827 49.3182 38.2294 49.2866 38.2493Z" fill="#6C63FF"/>
<path d="M40.306 40.463C40.313 40.5562 40.2875 40.649 40.2337 40.7254C40.1915 40.7679 40.1393 40.799 40.0819 40.8159C39.2444 41.1164 38.275 40.7417 37.4393 41.0377C37.2677 41.0983 37.1051 41.1861 36.9325 41.244C36.7268 41.306 36.5145 41.3436 36.3001 41.3562C36.0047 41.3843 35.7074 41.4024 35.4111 41.4105C35.186 41.4265 34.9597 41.4066 34.7407 41.3517C34.6313 41.3236 34.5289 41.2728 34.4403 41.2025C34.3518 41.1321 34.279 41.0439 34.2267 40.9435C34.1813 40.8536 34.1722 40.7495 34.2014 40.653C34.2145 40.6199 34.2331 40.5893 34.2565 40.5625C34.3131 40.4989 34.3796 40.4448 34.4534 40.4023L34.7615 40.2032C34.906 40.1009 35.063 40.0175 35.2286 39.9552C35.3506 39.9154 35.4798 39.8982 35.6035 39.8647C36.0363 39.738 36.3669 39.3941 36.6741 39.0638L37.0933 38.6158C37.1325 38.5665 37.1822 38.5266 37.2388 38.499C37.2969 38.4796 37.3587 38.4737 37.4195 38.4819C37.8267 38.511 38.2199 38.643 38.5623 38.8656C38.6499 38.9314 38.7444 38.9872 38.8442 39.0321C39.0899 39.128 39.4053 39.0556 39.632 38.9344C39.7395 38.8764 39.716 38.8439 39.7612 38.7407C39.8064 38.6375 39.9166 38.5714 40.0124 38.6656C40.0413 38.6981 40.0617 38.7373 40.072 38.7796C40.1623 39.0783 40.128 39.3996 40.128 39.7127C40.1254 39.7617 40.1315 39.8107 40.1461 39.8575C40.1691 39.9047 40.1967 39.9495 40.2283 39.9914C40.2347 40.0025 40.2405 40.014 40.2455 40.0258C40.3007 40.1645 40.3215 40.3145 40.306 40.463Z" fill="#514E7F"/>
<path d="M40.306 40.463C40.313 40.5562 40.2875 40.649 40.2337 40.7254C40.1915 40.7679 40.1393 40.7991 40.0819 40.8159C39.2444 41.1164 38.275 40.7417 37.4393 41.0377C37.2677 41.0983 37.1051 41.1861 36.9325 41.244C36.7268 41.306 36.5145 41.3436 36.3001 41.3562C36.0047 41.3843 35.7074 41.4024 35.4111 41.4105C35.1859 41.4265 34.9597 41.4067 34.7407 41.3517C34.6313 41.3236 34.5289 41.2728 34.4403 41.2025C34.3518 41.1321 34.279 41.0439 34.2267 40.9435C34.1813 40.8536 34.1722 40.7495 34.2014 40.653C34.2145 40.6199 34.2331 40.5893 34.2565 40.5625C34.3053 40.6648 34.3405 40.8005 34.3712 40.8494C34.4127 40.9218 34.4692 40.9846 34.5368 41.0334C34.6044 41.0823 34.6816 41.1161 34.7633 41.1327C34.8856 41.1402 35.0082 41.1246 35.1247 41.0865C35.8836 40.8983 36.6904 40.8956 37.4195 40.6105C37.6697 40.5118 37.9082 40.3806 38.1711 40.3209C38.434 40.2611 38.7132 40.2774 38.9842 40.2548C39.4125 40.2204 39.8271 40.091 40.2491 40.0231C40.3035 40.1629 40.3231 40.3139 40.306 40.463Z" fill="#464353"/>
<path d="M51.2058 38.1941C51.166 38.5127 50.9645 38.7869 50.7432 39.0195C50.5218 39.2521 50.2716 39.4612 50.0954 39.7291C49.8786 40.0612 49.781 40.473 49.4991 40.7535C49.3909 40.8556 49.2694 40.9424 49.1378 41.0115C48.9903 41.0986 48.8344 41.1705 48.6725 41.226C48.2515 41.3608 47.798 41.3301 47.358 41.2975C47.2151 41.2961 47.0737 41.2688 46.9406 41.2169C46.88 41.1861 46.822 41.1504 46.7671 41.1101C46.6568 41.0421 46.564 40.9491 46.4961 40.8386C46.4627 40.7786 46.4534 40.708 46.4699 40.6413C46.495 40.5678 46.5382 40.5019 46.5955 40.4495C46.6945 40.3463 46.8007 40.2504 46.9135 40.1626C47.0681 40.0626 47.2075 39.9406 47.3273 39.8006C47.4007 39.6899 47.4548 39.5674 47.4872 39.4385C47.5512 39.2127 47.5902 38.9805 47.6037 38.7462C47.6032 38.5905 47.6193 38.4351 47.6516 38.2828C47.7184 38.0439 47.8955 37.8303 47.8756 37.5832C47.8676 37.5479 47.8708 37.5108 47.8847 37.4773C47.9057 37.4512 47.935 37.433 47.9678 37.4258C48.1059 37.3706 48.2515 37.3368 48.3996 37.3253C48.474 37.3202 48.5485 37.3316 48.6179 37.3589C48.6873 37.3861 48.7497 37.4284 48.8008 37.4828C48.8622 37.557 48.9029 37.6638 48.9932 37.6927C49.038 37.705 49.0849 37.7068 49.1305 37.6982C49.3528 37.6755 49.5877 37.6475 49.7629 37.5036C49.844 37.4308 49.9091 37.342 49.9541 37.2428C49.9992 37.1436 50.0233 37.0361 50.0249 36.9271C50.0249 36.8447 49.9879 36.7587 50.1153 36.7461C50.2111 36.7334 50.2869 36.8366 50.3357 36.8999C50.5119 37.1361 50.6926 37.3832 50.7586 37.671C50.7842 37.661 50.8114 37.6558 50.839 37.6556C50.8953 37.6551 50.9509 37.6683 51.0011 37.694C51.0513 37.7197 51.0945 37.7571 51.1272 37.8032C51.1991 37.9199 51.227 38.0586 51.2058 38.1941Z" fill="#514E7F"/>
<path d="M51.2048 38.1941C51.165 38.5127 50.9636 38.7869 50.7422 39.0195C50.5209 39.2521 50.2706 39.4611 50.0944 39.729C49.8776 40.0611 49.78 40.4729 49.4982 40.7535C49.39 40.8555 49.2684 40.9423 49.1368 41.0114C48.9894 41.0986 48.8335 41.1704 48.6715 41.2259C48.2505 41.3608 47.797 41.33 47.357 41.2974C47.2142 41.296 47.0727 41.2687 46.9396 41.2169C46.879 41.186 46.821 41.1503 46.7662 41.1101C46.6559 41.042 46.563 40.949 46.4951 40.8386C46.5798 40.7978 46.6722 40.7756 46.7662 40.7734C46.9613 40.7843 47.104 40.9689 47.2911 41.0259C47.5576 41.1065 47.8232 40.9182 48.0933 40.8539C48.2695 40.8123 48.4547 40.8232 48.6291 40.7634C48.7744 40.7072 48.9086 40.6257 49.0257 40.5227C49.1861 40.4078 49.3288 40.27 49.4494 40.1136C49.5495 39.9573 49.6328 39.7907 49.6978 39.6168C49.8405 39.2834 50.0084 38.9615 50.2001 38.6538C50.2285 38.6051 50.2628 38.5601 50.3022 38.5199C50.3447 38.481 50.3926 38.4538 50.4405 38.4194C50.6211 38.2828 50.6961 38.0574 50.7594 37.8366C50.7765 37.7695 50.8004 37.7043 50.8307 37.642C50.8871 37.6415 50.9427 37.6547 50.9929 37.6804C51.0431 37.706 51.0863 37.7435 51.1189 37.7895C51.1967 37.909 51.2273 38.0532 51.2048 38.1941Z" fill="#464353"/>
<path d="M32.2606 9.97699C32.4855 10.1458 32.6705 10.3621 32.8027 10.6105C32.9291 10.8585 33.6582 12.7826 33.6158 13.0622C33.8534 12.8224 34.7902 12.7835 35.0306 12.5437C35.1308 12.4432 35.672 11.9418 35.7533 11.8251C35.8346 11.7083 36.4381 11.4631 36.5041 11.34C36.7507 10.8974 34.755 9.22039 35.0107 8.78326C35.0248 8.76317 35.0321 8.73905 35.0315 8.71448C35.0256 8.69384 35.014 8.67531 34.998 8.66108C34.8345 8.49365 34.6177 8.38957 34.4207 8.26558C34.2238 8.14159 34.0341 7.96873 33.9808 7.74066C33.7929 7.82727 33.6205 7.94405 33.4703 8.08638C33.1041 8.40073 32.7442 8.72141 32.3907 9.04843C32.2525 9.17695 31.985 9.348 31.9209 9.53172C31.845 9.72902 32.1287 9.8693 32.2606 9.97699Z" fill="#A1616A"/>
<path d="M35.4909 9.26474C35.1847 9.47086 34.8986 9.70539 34.6363 9.96523C34.3887 10.2105 34.1538 10.4947 34.0942 10.8377C34.0689 10.9725 34.0725 11.1092 34.0517 11.2459C33.9614 11.8386 33.45 12.2731 33.2242 12.8278C33.1587 12.9991 33.1106 13.1764 33.0805 13.3573C33.0171 13.7001 32.9823 14.0476 32.9766 14.3963C32.9712 14.7338 33.3019 14.9664 33.4229 15.2814C33.544 15.5963 33.5765 15.9203 33.638 16.2434C33.7536 16.8534 33.9659 17.4417 34.18 18.0263C34.6254 19.259 36.0691 22.6664 36.5145 23.9C37.8796 23.557 41.5133 22.7687 42.7221 22.0456C43.125 21.8048 39.9259 19.0888 40.3569 18.9015C40.3815 18.8977 40.4049 18.8881 40.4253 18.8737C40.4456 18.8592 40.4623 18.8402 40.474 18.8182C40.4858 18.7962 40.4922 18.7717 40.4929 18.7467C40.4936 18.7218 40.4885 18.697 40.4779 18.6743C40.047 16.7865 38.6991 15.2352 38.0874 13.3971C37.8751 12.7591 37.4939 12.2142 37.2048 11.6079C36.9428 11.0585 36.8027 10.4512 36.4892 9.92903C36.4301 9.82145 36.3528 9.72498 36.2607 9.64395C36.1825 9.58389 36.0979 9.5326 36.0086 9.491C35.8297 9.40411 35.6635 9.35253 35.4909 9.26474Z" fill="#514E7F"/>
<path d="M32.332 9.76254C33.512 9.76254 34.4686 8.80426 34.4686 7.62215C34.4686 6.44004 33.512 5.48175 32.332 5.48175C31.1519 5.48175 30.1953 6.44004 30.1953 7.62215C30.1953 8.80426 31.1519 9.76254 32.332 9.76254Z" fill="#A1616A"/>
<path d="M34.5068 8.62761C34.6133 8.52922 34.7471 8.46548 34.8905 8.4448C35.0339 8.42411 35.1801 8.44746 35.31 8.51176C35.4546 8.58688 35.581 8.73892 35.5485 8.89821L36.6083 8.9145C36.7769 8.90988 36.9456 8.92537 37.1106 8.96066C37.2767 8.99688 37.4249 9.09002 37.5298 9.22402C37.5424 9.24122 37.5569 9.26203 37.5786 9.26475C37.5962 9.26502 37.6134 9.25928 37.6273 9.24846C37.7904 9.16655 37.974 9.13505 38.155 9.15795C38.7277 9.19506 39.2572 9.48196 39.7062 9.84035C39.7871 9.89611 39.85 9.97447 39.8869 10.0657C39.9239 10.1861 39.8796 10.3372 39.9772 10.4232C39.9772 11.4187 40.3187 12.3491 40.5464 13.3193C40.587 13.4921 40.7524 13.6451 40.8671 13.7809C41.0089 13.9314 41.1246 14.1045 41.2095 14.2931C41.4029 14.7963 41.1363 15.3882 41.3242 15.8932C41.4038 16.1068 41.5573 16.2824 41.6856 16.4679C41.8547 16.6821 41.9617 16.9389 41.9946 17.21C42.0027 17.3313 41.9874 17.4535 41.9946 17.572C42.0067 17.7351 42.037 17.8963 42.085 18.0526C42.1621 18.3446 42.2428 18.6363 42.3271 18.9278C42.4644 19.3984 42.6433 19.9061 43.0643 20.1568C42.0479 20.3297 40.9764 20.4989 40.0079 20.145C39.8728 20.0989 39.7446 20.0346 39.6267 19.9541C39.277 19.7043 39.1081 19.2771 38.9572 18.8735C38.7892 18.4209 38.6184 17.9603 38.5841 17.4788C38.5844 17.3257 38.5628 17.1733 38.52 17.0263C38.4215 16.7638 38.1586 16.6055 37.9201 16.4597C37.6507 16.3119 37.4067 16.1219 37.1973 15.8968C37.0934 15.7835 37.0138 15.65 36.9634 15.5046C36.9131 15.3592 36.8931 15.205 36.9046 15.0515C36.9227 14.9022 36.9814 14.7583 36.9868 14.6081C36.9922 14.4578 36.9254 14.2859 36.7817 14.246C36.0418 14.0216 35.6885 13.1437 35.5241 12.3871C35.4532 11.9961 35.4214 11.5989 35.4293 11.2015L35.4193 10.4295C35.3172 10.3365 35.2351 10.2236 35.1779 10.0977C35.1208 9.97182 35.0898 9.83561 35.0869 9.69735C35.0967 9.61669 35.0951 9.53504 35.0823 9.4548C35.0466 9.35672 34.9884 9.26839 34.9125 9.19687C34.7491 9.02892 34.6123 8.83695 34.5068 8.62761Z" fill="#464353"/>
<path d="M32.2308 11.0748C32.2064 11.3137 32.2606 11.559 32.2073 11.7934C32.1865 11.8839 32.1504 11.9744 32.1242 12.0586C32.0441 12.3959 32.0788 12.7505 32.2227 13.0659C32.3664 13.3782 32.5385 13.6766 32.7367 13.9573C32.8038 14.0532 32.859 14.1568 32.9012 14.2659C32.9353 14.3805 32.9565 14.4986 32.9644 14.618C33.0167 15.0973 33.1006 15.5725 33.2156 16.0407C33.3167 16.4462 34.4659 19.9124 34.7333 20.2337C34.7819 20.3048 34.8555 20.355 34.9393 20.374C34.9998 20.3763 35.06 20.3639 35.1146 20.3378L35.6567 20.1296C35.7028 20.1155 35.7455 20.0921 35.7822 20.0609C35.833 20.0014 35.8606 19.9255 35.8599 19.8473C35.8988 19.4056 34.7469 15.9149 34.6005 15.4977C34.1579 14.2379 33.5688 13.0233 33.2806 11.7192C33.2002 11.3572 33.1577 10.7997 32.893 10.511C32.7837 10.3915 32.8208 10.4422 32.6898 10.5046C32.6236 10.5334 32.5595 10.567 32.4982 10.6051C32.4215 10.6585 32.3577 10.7284 32.3115 10.8096C32.2652 10.8909 32.2376 10.9815 32.2308 11.0748Z" fill="#464353"/>
<path d="M33.8752 13.465C34.0207 14.2352 34.1706 15.0036 34.3197 15.7738L36.441 15.2172C36.4582 14.9945 36.3398 14.7882 36.2603 14.5837C36.067 14.0977 36.0624 13.5564 35.9062 13.0569C35.7878 12.6768 35.5818 12.3274 35.4707 11.9446C35.4065 11.7219 35.374 11.4921 35.3108 11.2667C35.243 11.0454 35.1596 10.8292 35.0614 10.6196C34.9424 10.3157 34.787 10.0273 34.5989 9.76074C34.3278 9.86211 34.0387 9.97976 33.8842 10.225C33.805 10.3632 33.7598 10.5183 33.7523 10.6775C33.7153 11.1545 33.8879 11.6342 33.8309 12.1084C33.7723 12.56 33.7873 13.0182 33.8752 13.465Z" fill="#6C63FF"/>
<path d="M36.4766 23.71C36.5958 24.1625 36.4233 24.6385 36.2823 25.0865C36.0702 25.7613 35.9255 26.4556 35.8505 27.159C35.8413 27.3381 35.8054 27.5147 35.7439 27.6831C35.677 27.8342 35.5632 27.9618 35.4855 28.1057C35.2723 28.484 35.2777 28.9456 35.3238 29.3782C35.3545 29.6633 35.4006 29.9474 35.4575 30.228C35.5271 30.571 35.6129 30.9294 35.5126 31.2643C35.6807 31.2272 35.7945 31.4453 35.7836 31.6163C35.7728 31.7874 35.7177 31.9783 35.7999 32.1259C36.0077 32.2019 36.0095 32.4879 36.0032 32.7096C36.0066 33.0941 36.0551 33.4768 36.1477 33.8499C36.4621 35.3644 36.7958 36.8746 37.1488 38.3805C37.9122 38.6176 38.8039 38.8647 39.532 38.5362C39.6676 38.4756 39.8031 38.3787 39.8338 38.2321C39.8417 38.1531 39.8319 38.0733 39.8049 37.9986L39.4598 36.7406C39.3757 36.4365 39.2917 36.1225 39.336 35.8102C39.3694 35.5776 39.4706 35.327 39.3568 35.1215C39.3179 35.0509 39.2565 34.9957 39.2113 34.9287C39.0306 34.6636 39.1255 34.3088 39.1399 33.9875C39.1456 33.9154 39.1407 33.8428 39.1255 33.7721C39.1007 33.6895 39.0662 33.6102 39.0225 33.5359C38.7373 32.9812 38.6003 32.362 38.625 31.7385C38.6358 31.6589 38.6249 31.5779 38.5934 31.5041C38.5714 31.4736 38.5518 31.4416 38.5346 31.4082C38.5212 31.3501 38.5279 31.2891 38.5536 31.2353C38.4501 31.1566 38.3566 31.0654 38.2753 30.9638C38.3255 30.9326 38.3678 30.8904 38.3993 30.8404C38.4307 30.7904 38.4504 30.7338 38.4568 30.6751C38.4633 30.6163 38.4563 30.5569 38.4364 30.5012C38.4166 30.4456 38.3844 30.3952 38.3422 30.3538C38.379 30.3464 38.4131 30.3289 38.4406 30.3032C38.4681 30.2775 38.488 30.2447 38.498 30.2084C38.508 30.1722 38.5078 30.1338 38.4974 30.0976C38.4869 30.0615 38.4667 30.0289 38.4389 30.0036C38.3946 29.9728 38.3359 29.9592 38.3043 29.9131C38.2555 29.8461 38.2952 29.7529 38.335 29.6814L38.5455 29.3003C38.7027 29.0171 38.7379 28.6668 38.9069 28.3953C39.149 27.9998 39.3071 27.5591 39.4634 27.1228L40.0714 25.4422L40.4807 25.7979C40.617 25.9022 40.7312 26.0326 40.8167 26.1816C40.8749 26.3288 40.9118 26.4837 40.9261 26.6414C41.076 27.5536 41.6488 28.3446 41.8611 29.2433C41.9081 29.4433 41.9397 29.6533 42.0545 29.8244C42.0955 29.8769 42.1324 29.9326 42.1647 29.9909C42.1946 30.0799 42.2101 30.173 42.2108 30.2669C42.2297 30.4507 42.2879 30.6283 42.3815 30.7876C42.475 30.9469 42.6017 31.0842 42.7528 31.1901C42.9543 31.3285 43.2046 31.4236 43.3139 31.6426C43.3357 31.7104 43.3661 31.7752 43.4042 31.8353C43.5018 31.953 43.7123 31.9666 43.7539 32.1141C43.7773 32.1964 43.734 32.2951 43.78 32.3675C43.8062 32.401 43.8408 32.4269 43.8803 32.4426L44.4685 32.7368C45.1262 33.0662 45.4623 33.8228 45.9474 34.374C46.115 34.5535 46.2633 34.75 46.3901 34.9604C46.5997 35.336 46.6964 35.8075 47.0505 36.0464C47.1457 36.0959 47.2324 36.1604 47.3071 36.2374C47.4182 36.384 47.3776 36.5895 47.3875 36.7741C47.3974 36.9587 47.5384 37.1786 47.7137 37.1225C47.6522 37.3461 47.6522 37.5822 47.7137 37.8058C48.4831 37.7662 49.2169 37.4685 49.797 36.9605C49.9687 36.8103 50.134 36.6184 50.1358 36.3904C50.1384 36.351 50.1296 36.3117 50.1105 36.2772C50.0758 36.2327 50.03 36.198 49.9777 36.1768C49.4275 35.8781 49.2622 35.1858 48.9839 34.6237C48.7409 34.1278 48.3813 33.7006 48.0805 33.2399C47.4264 32.2489 46.9801 31.0498 45.9908 30.3954C45.7731 30.2515 45.5201 30.1239 45.4108 29.8859C45.3502 29.7529 45.343 29.6008 45.2951 29.4633C45.2472 29.3257 45.1325 29.1917 44.9862 29.1917C45.0675 28.9926 45.0512 28.7501 45.0566 28.5347C45.0622 28.4391 45.0512 28.3433 45.0241 28.2514C44.9865 28.1526 44.9377 28.0585 44.8786 27.9709C44.6205 27.5331 44.4915 27.031 44.5064 26.5228C44.5137 26.2613 44.5597 25.9916 44.4811 25.7418C44.4414 25.616 44.3718 25.501 44.3239 25.3798C44.2518 25.16 44.2137 24.9305 44.211 24.6992L44.1568 23.8294C44.1486 23.5398 44.1111 23.2517 44.0448 22.9697C43.8641 22.2945 43.6834 19.4663 43.0645 19.1477C42.4457 18.8291 41.3823 21.0057 40.6857 21.0483C40.3776 21.0611 40.0731 21.12 39.7823 21.2229C39.3188 21.3967 38.9303 21.7207 38.5518 22.0375L37.2707 23.1154C36.9997 23.3389 36.7756 23.5525 36.4766 23.71Z" fill="#464353"/>
<path d="M30.3286 5.24549C30.6104 4.85994 31.0947 4.65541 31.5717 4.63821C32.0487 4.62101 32.5185 4.77125 32.9458 4.98393C33.072 5.05579 33.2068 5.11114 33.347 5.14865C33.5728 5.1948 33.824 5.13326 34.0282 5.23915C34.2992 5.38305 34.3516 5.74959 34.3281 6.05368C34.3046 6.35777 34.2477 6.69535 34.4094 6.95871C34.4668 7.03382 34.519 7.11274 34.5657 7.19492C34.6353 7.35149 34.5946 7.5325 34.5531 7.69812C34.4474 7.60762 34.3878 7.47096 34.2938 7.36597C34.1998 7.26099 34.0363 7.1904 33.9198 7.26914C33.8032 7.34787 33.805 7.49087 33.7987 7.61938C33.7924 7.7479 33.7599 7.90175 33.6388 7.94338C33.5882 7.95491 33.5354 7.95098 33.4871 7.93211C33.4387 7.91323 33.3972 7.88027 33.3678 7.8375C33.1609 7.58409 33.244 7.17954 33.0389 6.92432C32.9224 6.77951 32.7281 6.70892 32.6206 6.55688C32.5357 6.43741 32.514 6.28537 32.4399 6.15685C32.3658 6.02834 32.1933 5.93422 32.0785 6.02291C32.0394 6.06039 32.0067 6.10412 31.9819 6.15233C31.9103 6.25499 31.8063 6.33048 31.6866 6.36661C31.567 6.40274 31.4386 6.39739 31.3224 6.35143C31.2335 6.2968 31.1374 6.25506 31.0369 6.22745C30.9711 6.22415 30.9056 6.23935 30.848 6.27133C30.7904 6.30332 30.7428 6.35081 30.7107 6.40845C30.6459 6.52361 30.6146 6.65467 30.6204 6.78675C30.6204 6.96776 30.6529 7.16053 30.5499 7.30534C30.5107 7.35985 30.4617 7.40651 30.4054 7.4429C30.2545 7.53974 30.044 7.6049 29.9048 7.49449C29.8577 7.45049 29.8226 7.39508 29.803 7.33359C29.7834 7.27209 29.7799 7.20658 29.7928 7.14334C29.8199 7.01737 29.8555 6.89339 29.8994 6.77227C29.9789 6.49171 29.875 6.17586 29.9618 5.91159C30.0526 5.67359 30.1761 5.44941 30.3286 5.24549Z" fill="#464353"/>
<path d="M31.4736 11.6305C31.46 11.6965 31.4669 11.765 31.4934 11.8269C31.5203 11.8691 31.5569 11.9041 31.6 11.9292C31.9039 12.1188 32.2494 12.231 32.6065 12.2559C32.6551 12.2567 32.7028 12.2692 32.7456 12.2921C32.8305 12.3482 32.836 12.4731 32.8043 12.5727C32.7622 12.6666 32.7403 12.7684 32.7402 12.8713C32.7664 13.0605 32.9905 13.1428 33.1793 13.1709C33.444 13.2044 33.734 13.1872 33.9436 13.0216C34.0856 12.8918 34.1938 12.7294 34.2589 12.5482C34.7775 11.3545 34.9591 10.035 35.484 8.84484C35.5237 8.76713 35.5503 8.68333 35.5626 8.59686C35.5681 8.55358 35.562 8.50961 35.5448 8.4695C35.5277 8.42939 35.5001 8.39462 35.465 8.3688C35.3674 8.30816 35.2156 8.34255 35.1497 8.24752C35.1172 8.19956 35.1208 8.13439 35.0919 8.08371C35.0313 7.97601 34.8723 7.99321 34.7639 7.93076C34.679 7.88551 34.6203 7.79229 34.5254 7.77419C34.4788 7.77155 34.4323 7.77984 34.3895 7.79837C34.3467 7.81691 34.3088 7.8452 34.2788 7.88098C33.9707 8.16878 33.809 8.57695 33.6373 8.9625C33.3752 9.55347 33.0683 10.1235 32.7194 10.6676C32.7601 10.6042 32.5243 10.1246 32.4321 10.1037C32.2704 10.0712 32.0635 10.3553 31.9759 10.4612C31.7009 10.7952 31.5266 11.2009 31.4736 11.6305Z" fill="#6C63FF"/>
<path opacity="0.1" d="M34.7544 8.01489C34.6895 8.01598 34.6257 8.03167 34.5677 8.06081C34.5097 8.08995 34.4589 8.13179 34.4192 8.18323C34.3226 8.30903 34.3036 8.47555 34.2792 8.63574C34.197 9.14325 34.0162 9.62969 33.7471 10.0675" fill="black"/>
<path opacity="0.1" d="M35.2151 8.37601C35.1255 8.37801 35.038 8.40334 34.9612 8.44952C34.8843 8.4957 34.8208 8.56113 34.7769 8.63937C34.7171 8.78172 34.6799 8.93258 34.6667 9.08646C34.5892 9.42761 34.4398 9.74822 34.2285 10.0268" fill="black"/>
<path d="M56.6879 26.0694V24.9453C56.6876 24.1179 56.3593 23.3244 55.7752 22.7393C55.191 22.1543 54.3988 21.8257 53.5728 21.8257H9.25962C8.4336 21.8257 7.6414 22.1543 7.05724 22.7393C6.47307 23.3244 6.14477 24.1179 6.14453 24.9453V27.0178L56.6879 26.0694Z" fill="#33323D"/>
<path d="M21.586 20.508C21.586 20.508 21.4595 28.3691 22.8508 30.9557C24.2421 33.5422 24.8384 44.7945 24.8384 44.7945C24.8384 44.7945 39.4237 46.3059 49.5874 42.9844C59.7512 39.663 81.3779 38.3045 81.3779 38.3045L77.7334 13.6976C77.7334 13.6976 59.7286 12.541 49.4863 17.4345C39.2439 22.328 21.586 20.508 21.586 20.508Z" fill="#8DD070"/>
<path opacity="0.1" d="M21.586 20.508C21.586 20.508 21.4595 28.3691 22.8508 30.9557C24.2421 33.5422 24.8384 44.7945 24.8384 44.7945C24.8384 44.7945 39.4237 46.3059 49.5874 42.9844C59.7512 39.663 81.3779 38.3045 81.3779 38.3045L77.7334 13.6976C77.7334 13.6976 59.7286 12.541 49.4863 17.4345C39.2439 22.328 21.586 20.508 21.586 20.508Z" fill="black"/>
<path d="M24.8144 23.3796C24.8144 23.3796 24.3581 29.866 25.5028 31.9385C26.6475 34.011 26.7008 43.2631 26.7008 43.2631C26.7008 43.2631 39.827 43.8731 49.1641 40.6892C58.5012 37.5053 78.1223 35.4401 78.1223 35.4401L75.8926 15.3167C75.8926 15.3167 59.6576 15.1493 50.1823 19.631C40.7069 24.1127 24.8144 23.3796 24.8144 23.3796Z" fill="#8DD070"/>
<path opacity="0.1" d="M50.0381 37.0048C51.9057 36.7718 53.0153 33.33 52.5163 29.3173C52.0174 25.3047 50.0989 22.2407 48.2313 22.4737C46.3636 22.7067 45.2541 26.1485 45.753 30.1612C46.2519 34.1739 48.1704 37.2379 50.0381 37.0048Z" fill="black"/>
<path opacity="0.2" d="M67.8626 1.71048C67.8626 1.71048 50.371 6.14513 42.1225 13.951C33.874 21.7569 16.5098 25.4531 16.5098 25.4531C16.5098 25.4531 18.7973 32.973 20.9132 35.0075C23.029 37.042 27.0422 47.5693 27.0422 47.5693C27.0422 47.5693 41.3862 44.523 50.0412 38.2348C58.6962 31.9467 78.8675 24.005 78.8675 24.005L67.8626 1.71048Z" fill="black"/>
<path d="M16.2461 24.3272C16.2461 24.3272 18.5327 31.848 20.6468 33.8825C22.7608 35.917 26.7758 46.4434 26.7758 46.4434C26.7758 46.4434 41.1216 43.398 49.7775 37.1098C58.4335 30.8217 78.6029 22.8828 78.6029 22.8828L67.598 0.58551C67.598 0.58551 50.1073 5.02016 41.8588 12.8261C33.6103 20.6319 16.2461 24.3272 16.2461 24.3272Z" fill="#8DD070"/>
<path opacity="0.1" d="M16.2461 24.3272C16.2461 24.3272 18.5327 31.848 20.6468 33.8825C22.7608 35.917 26.7758 46.4434 26.7758 46.4434C26.7758 46.4434 41.1216 43.398 49.7775 37.1098C58.4335 30.8217 78.6029 22.8828 78.6029 22.8828L67.598 0.58551C67.598 0.58551 50.1073 5.02016 41.8588 12.8261C33.6103 20.6319 16.2461 24.3272 16.2461 24.3272Z" fill="black"/>
<path d="M20.1953 26.0685C20.1953 26.0685 21.7483 32.3829 23.473 34.0029C25.1977 35.6229 28.0806 44.4107 28.0806 44.4107C28.0806 44.4107 40.7596 40.9553 48.6711 35.0545C56.5826 29.1537 74.6262 21.165 74.6262 21.165L66.3407 2.6915C66.3407 2.6915 50.8384 7.52165 43.1926 14.7004C35.5467 21.8791 20.1953 26.0685 20.1953 26.0685Z" fill="#8DD070"/>
<path opacity="0.1" d="M48.3792 31.2822C50.0854 30.4863 50.0871 26.8695 48.3831 23.2038C46.6791 19.5381 43.9146 17.2117 42.2084 18.0076C40.5023 18.8035 40.5005 22.4203 42.2045 26.086C43.9086 29.7517 46.6731 32.0781 48.3792 31.2822Z" fill="black"/>
<path opacity="0.1" d="M57.8833 27.1726V58.3962C57.8833 58.7508 57.8135 59.1019 57.6781 59.4296C57.5426 59.7572 57.344 60.0548 57.0936 60.3055C56.8433 60.5562 56.5461 60.7551 56.219 60.8907C55.8919 61.0263 55.5414 61.096 55.1874 61.0959H8.84056C8.12597 61.0957 7.44072 60.8111 6.93551 60.3049C6.43029 59.7986 6.14648 59.1121 6.14648 58.3962V24.0249C7.47455 24.5191 7.47455 24.5191 8.84056 24.4774H55.1874C55.9015 24.4774 56.5863 24.7612 57.0918 25.2665C57.5972 25.7718 57.8819 26.4573 57.8833 27.1726Z" fill="black"/>
<path d="M57.8833 27.5699V58.7935C57.883 59.5095 57.5989 60.1962 57.0934 60.7025C56.5878 61.2088 55.9022 61.4932 55.1874 61.4932H8.84056C8.12597 61.4929 7.44072 61.2084 6.93551 60.7021C6.43029 60.1958 6.14648 59.5093 6.14648 58.7935V24.4213C7.47455 24.9145 7.47455 24.9145 8.84056 24.8738H55.1874C55.9016 24.8738 56.5866 25.1577 57.0921 25.6632C57.5975 26.1687 57.8821 26.8544 57.8833 27.5699Z" fill="#F0EFFF"/>
<path opacity="0.1" d="M57.7511 39.1136V49.0988H48.0842C46.774 49.0812 45.5235 48.5474 44.6032 47.613C43.683 46.6786 43.167 45.4188 43.167 44.1062C43.167 42.7936 43.683 41.5338 44.6032 40.5994C45.5235 39.6651 46.774 39.1313 48.0842 39.1136H57.7511Z" fill="black"/>
<path d="M57.8829 38.8475V48.8345H48.216C46.9059 48.8168 45.6553 48.2831 44.7351 47.3487C43.8148 46.4143 43.2988 45.1545 43.2988 43.8419C43.2988 42.5293 43.8148 41.2695 44.7351 40.3351C45.6553 39.4008 46.9059 38.867 48.216 38.8493L57.8829 38.8475Z" fill="#33323D"/>
<path opacity="0.1" d="M48.6796 46.0533C49.7529 46.0533 50.623 45.1818 50.623 44.1066C50.623 43.0315 49.7529 42.1599 48.6796 42.1599C47.6064 42.1599 46.7363 43.0315 46.7363 44.1066C46.7363 45.1818 47.6064 46.0533 48.6796 46.0533Z" fill="black"/>
<path d="M48.8115 45.7891C49.8847 45.7891 50.7548 44.9175 50.7548 43.8424C50.7548 42.7672 49.8847 41.8956 48.8115 41.8956C47.7382 41.8956 46.8682 42.7672 46.8682 43.8424C46.8682 44.9175 47.7382 45.7891 48.8115 45.7891Z" fill="#6C63FF"/>
<path d="M74.6624 38.7615C74.7392 39.595 74.1095 40.4041 74.2929 41.2205C74.3326 41.3951 74.4076 41.5599 74.4347 41.7363C74.5106 42.2214 74.2224 42.6803 73.9469 43.0858L71.5798 46.5647C71.485 46.7176 71.3715 46.8581 71.2419 46.9828C70.7902 47.3865 70.1108 47.3448 69.5164 47.4652C69.0984 47.5502 68.7039 47.7249 68.3599 47.9774C68.3456 47.9898 68.3364 48.0071 68.3344 48.026C68.3324 48.0448 68.3376 48.0637 68.3491 48.0788C68.4473 48.2128 68.5775 48.3201 68.7278 48.3907C68.878 48.4614 69.0435 48.4932 69.2092 48.4834C69.2715 48.5657 69.2092 48.6861 69.1188 48.7449C68.9915 48.8354 68.8171 48.8571 68.7918 49.0725C68.7828 49.1477 68.798 49.2238 68.8352 49.2897C68.9305 49.4361 69.0789 49.5396 69.2489 49.5784C70.0684 49.8291 70.9537 49.3884 71.5672 48.7884C72.1806 48.1883 72.6206 47.4308 73.2223 46.8199C73.5557 46.4823 73.9342 46.1927 74.2775 45.8651C74.9623 45.2117 75.4945 44.4171 76.0085 43.6215C76.163 43.3817 76.3184 43.1355 76.3834 42.8577C76.4485 42.5798 76.4178 42.2993 76.491 42.0305C76.5867 41.6775 76.8442 41.397 77.0583 41.101C77.4784 40.5218 77.7585 39.8132 77.7034 39.1C77.6483 38.3868 77.2065 37.6818 76.5343 37.4393C76.326 37.3554 76.0962 37.3415 75.8793 37.3994C75.6038 37.4845 75.4005 37.7126 75.2126 37.9307L74.7609 38.4511C74.6482 38.5653 74.5592 38.7006 74.4989 38.8493C74.4699 38.924 74.4631 39.0054 74.4791 39.0839C74.4951 39.1624 74.5333 39.2346 74.5892 39.2919" fill="#FBBEBE"/>
<path opacity="0.05" d="M74.6624 38.7615C74.7392 39.595 74.1095 40.4041 74.2929 41.2205C74.3326 41.3951 74.4076 41.5599 74.4347 41.7363C74.5106 42.2214 74.2224 42.6803 73.9469 43.0858L71.5798 46.5647C71.485 46.7176 71.3715 46.8581 71.2419 46.9828C70.7902 47.3865 70.1108 47.3448 69.5164 47.4652C69.0984 47.5502 68.7039 47.7249 68.3599 47.9774C68.3456 47.9898 68.3364 48.0071 68.3344 48.026C68.3324 48.0448 68.3376 48.0637 68.3491 48.0788C68.4473 48.2128 68.5775 48.3201 68.7278 48.3907C68.878 48.4614 69.0435 48.4932 69.2092 48.4834C69.2715 48.5657 69.2092 48.6861 69.1188 48.7449C68.9915 48.8354 68.8171 48.8571 68.7918 49.0725C68.7828 49.1477 68.798 49.2238 68.8352 49.2897C68.9305 49.4361 69.0789 49.5396 69.2489 49.5784C70.0684 49.8291 70.9537 49.3884 71.5672 48.7884C72.1806 48.1883 72.6206 47.4308 73.2223 46.8199C73.5557 46.4823 73.9342 46.1927 74.2775 45.8651C74.9623 45.2117 75.4945 44.4171 76.0085 43.6215C76.163 43.3817 76.3184 43.1355 76.3834 42.8577C76.4485 42.5798 76.4178 42.2993 76.491 42.0305C76.5867 41.6775 76.8442 41.397 77.0583 41.101C77.4784 40.5218 77.7585 39.8132 77.7034 39.1C77.6483 38.3868 77.2065 37.6818 76.5343 37.4393C76.326 37.3554 76.0962 37.3415 75.8793 37.3994C75.6038 37.4845 75.4005 37.7126 75.2126 37.9307L74.7609 38.4511C74.6482 38.5653 74.5592 38.7006 74.4989 38.8493C74.4699 38.924 74.4631 39.0054 74.4791 39.0839C74.4951 39.1624 74.5333 39.2346 74.5892 39.2919" fill="black"/>
<path d="M76.4544 60.2198C75.9376 60.5357 75.2935 60.5547 74.6927 60.4814C74.596 60.4696 74.4813 60.4624 74.4216 60.5375C74.3313 60.6461 74.4379 60.809 74.5481 60.8932C74.9025 61.1597 75.3188 61.3313 75.7578 61.3918C76.1498 61.4475 76.5454 61.4738 76.9413 61.4706C78.0255 61.4896 79.1096 61.5077 80.1766 61.352C80.2398 61.3472 80.3013 61.3294 80.3573 61.2995C80.4261 61.2511 80.4739 61.1783 80.491 61.0959C80.5642 60.8171 80.4232 60.5185 80.21 60.3248C79.9968 60.1311 79.7231 60.0234 79.4556 59.9194L78.516 59.5528C78.2956 59.4668 77.9424 59.2388 77.7029 59.2569C77.253 59.2895 76.8275 60.0008 76.4544 60.2198Z" fill="#3F3D56"/>
<path opacity="0.05" d="M76.4544 60.2198C75.9376 60.5357 75.2935 60.5547 74.6927 60.4814C74.596 60.4696 74.4813 60.4624 74.4216 60.5375C74.3313 60.6461 74.4379 60.809 74.5481 60.8932C74.9025 61.1597 75.3188 61.3313 75.7578 61.3918C76.1498 61.4475 76.5454 61.4738 76.9413 61.4706C78.0255 61.4896 79.1096 61.5077 80.1766 61.352C80.2398 61.3472 80.3013 61.3294 80.3573 61.2995C80.4261 61.2511 80.4739 61.1783 80.491 61.0959C80.5642 60.8171 80.4232 60.5185 80.21 60.3248C79.9968 60.1311 79.7231 60.0234 79.4556 59.9194L78.516 59.5528C78.2956 59.4668 77.9424 59.2388 77.7029 59.2569C77.253 59.2895 76.8275 60.0008 76.4544 60.2198Z" fill="black"/>
<path d="M77.1132 47.7249C76.722 48.2462 76.3172 48.8481 76.4139 49.4934C76.4663 49.8409 76.6605 50.1477 76.8033 50.469C76.9966 50.9052 77.0978 51.374 77.1972 51.841C77.3435 52.5234 77.4908 53.2076 77.5802 53.9009C77.6823 54.6837 77.2026 56.949 77.1583 57.7373C77.1475 57.9274 77.1249 58.1328 76.993 58.2695C76.9415 58.3238 76.8728 58.3672 76.8494 58.4378C76.8356 58.5058 76.8468 58.5765 76.881 58.6369C77.1014 59.1347 77.5522 59.5057 78.0555 59.7175C78.5587 59.9293 79.772 60.2949 80.3204 60.3139C80.3927 60.3219 80.4658 60.3123 80.5336 60.2859C80.6066 60.2413 80.664 60.1752 80.698 60.0967C81.091 59.3437 80.7134 56.6666 80.7188 55.8168C80.7242 55.1082 80.8914 54.4041 80.8607 53.6963C80.8354 53.128 80.68 52.5723 80.6285 52.0057C80.5381 51.0772 80.708 50.1441 80.8787 49.2264C81.0088 48.5223 81.1398 47.8182 81.307 47.1231C81.409 46.6986 81.5274 46.2706 81.7587 45.9022C81.9394 45.6099 82.1932 45.3655 82.4037 45.0877C82.988 44.3203 83.2476 43.3536 83.1265 42.3961C83.1138 42.3056 81.7713 42.7373 81.653 42.7889C81.1701 42.9937 80.7258 43.28 80.3394 43.6351C80.0286 43.932 79.7837 44.3284 79.5118 44.6605C79.1269 45.1305 78.7469 45.6039 78.3717 46.0805C77.9434 46.6253 77.5239 47.1735 77.1132 47.7249Z" fill="#464353"/>
<path opacity="0.05" d="M77.1132 47.6933C76.722 48.2146 76.3172 48.8174 76.4139 49.4618C76.4663 49.8102 76.6605 50.117 76.8033 50.4383C76.9966 50.8736 77.0978 51.3433 77.1972 51.8094C77.3435 52.4927 77.4908 53.1769 77.5802 53.8692C77.6823 54.653 77.2026 56.9174 77.1583 57.7057C77.1475 57.8957 77.1249 58.1021 76.993 58.2387C76.9415 58.2921 76.8728 58.3356 76.8494 58.4062C76.8355 58.4742 76.8467 58.5449 76.881 58.6053C77.1014 59.1039 77.5522 59.4741 78.0555 59.6913C78.5587 59.9085 79.772 60.0977 80.3204 60.1158C80.3927 60.1237 80.4658 60.1141 80.5336 60.0877C80.6067 60.0437 80.6642 59.9779 80.698 59.8995C81.091 59.1465 80.7134 56.6414 80.7188 55.7906C80.7242 55.0811 80.8914 54.3779 80.8607 53.6692C80.8354 53.1009 80.68 52.5452 80.6285 51.9795C80.5381 51.0501 80.708 50.117 80.8787 49.1993C81.0088 48.4961 81.1398 47.792 81.307 47.096C81.4091 46.6715 81.5274 46.2435 81.7587 45.8751C81.9394 45.5828 82.1932 45.3384 82.4037 45.0606C82.9882 44.2933 83.2478 43.3265 83.1265 42.369C83.1139 42.2785 81.7713 42.7102 81.653 42.7618C81.1702 42.9673 80.726 43.2538 80.3394 43.6089C80.0286 43.9049 79.7837 44.3013 79.5118 44.6334C79.1269 45.1034 78.7469 45.5771 78.3717 46.0543C77.9434 46.5949 77.5239 47.1413 77.1132 47.6933Z" fill="black"/>
<path d="M72.76 36.2438C73.971 36.2438 74.9527 35.2604 74.9527 34.0473C74.9527 32.8342 73.971 31.8507 72.76 31.8507C71.5491 31.8507 70.5674 32.8342 70.5674 34.0473C70.5674 35.2604 71.5491 36.2438 72.76 36.2438Z" fill="#FBBEBE"/>
<path d="M74.735 33.9549C74.9375 34.2786 75.2031 34.5581 75.5159 34.7767C75.8287 34.9954 76.1822 35.1486 76.5554 35.2274L76.3901 35.8292C76.1046 36.8628 75.7839 37.9561 74.987 38.6728C75.0774 38.3226 74.9617 37.9488 74.7648 37.6447C74.5678 37.3406 74.2914 37.1017 74.0203 36.8655L72.7582 35.7704C72.7218 35.7407 72.6912 35.7045 72.6679 35.6636C72.6367 35.5864 72.6367 35.5001 72.6679 35.4229C72.8287 34.9215 73.2877 34.6083 73.6617 34.2699C73.8494 34.0948 74.0169 33.8993 74.1613 33.687C74.4133 33.3268 74.5696 33.6888 74.735 33.9549Z" fill="#FBBEBE"/>
<path d="M69.8718 31.839L69.8221 31.4263C70.1681 31.5168 70.497 31.2217 70.7183 30.9167C70.9397 30.6117 71.1447 30.2524 71.4817 30.1248C71.891 29.971 72.3246 30.2153 72.7158 30.4217C73.1538 30.6651 73.6344 30.8218 74.1315 30.8832C74.2108 30.8859 74.2895 30.8987 74.3655 30.9213C74.6203 31.0118 74.7414 31.3321 74.7784 31.6227C74.8154 31.9132 74.8055 32.2218 74.9311 32.4806C75.0214 32.677 75.1895 32.8227 75.2925 33.0164C75.5635 33.5359 75.3015 34.2463 75.5843 34.7559L74.8814 34.1106C74.8173 34.0518 74.7269 33.9902 74.6555 34.04C74.5995 34.0798 74.595 34.1658 74.5724 34.2346C74.5047 34.4355 74.2535 34.4952 74.0719 34.4156C73.8903 34.3359 73.7575 34.1631 73.6202 34.0056C73.3094 33.6382 72.939 33.3151 72.5053 33.1585C72.3152 33.0873 72.1122 33.0574 71.9097 33.0708C71.7072 33.0843 71.5099 33.1407 71.3308 33.2363C71.0029 33.4219 70.7626 33.8545 70.3605 33.8698C69.8094 33.8907 69.58 32.8626 69.3252 32.4562C69.4184 32.3859 69.484 32.285 69.5104 32.1712C69.5369 32.0573 69.5225 31.9378 69.4698 31.8335C69.5068 31.8181 69.8636 31.7756 69.8718 31.839Z" fill="#464353"/>
<path d="M42.7522 18.9975C42.576 19.1544 42.4131 19.3258 42.2652 19.5097C42.1163 19.6962 42.0371 19.9289 42.0412 20.1677C42.042 20.2369 42.064 20.3042 42.1044 20.3604C42.125 20.3873 42.1535 20.4071 42.1859 20.417C42.2183 20.4269 42.253 20.4264 42.2851 20.4156C42.3214 20.3971 42.3525 20.3697 42.3754 20.336C42.4709 20.2211 42.5723 20.1111 42.679 20.0066C42.7178 19.9677 42.7693 19.9269 42.8217 19.9414C42.8452 19.9498 42.8663 19.9637 42.8832 19.9821C42.944 20.0348 42.9882 20.1039 43.0106 20.1812C43.0422 20.3197 42.9618 20.4582 42.8705 20.5668C42.7793 20.6754 42.6718 20.7795 42.6347 20.9161C42.6207 20.9522 42.6207 20.9923 42.6347 21.0283C42.6522 21.0545 42.6766 21.0751 42.7052 21.0881C42.8346 21.1594 42.978 21.2014 43.1254 21.2111C43.2728 21.2208 43.4205 21.198 43.5581 21.1442C43.7388 21.0709 43.8996 20.9451 44.0857 20.8799C44.1663 20.8578 44.2444 20.8275 44.3188 20.7894C44.372 20.7539 44.4177 20.7082 44.4532 20.6549C44.4887 20.6017 44.5133 20.5419 44.5257 20.479C44.5491 20.3534 44.5537 20.2249 44.5392 20.098C44.5167 19.6063 44.4116 19.122 44.2284 18.6653C44.2178 18.6359 44.1998 18.6097 44.176 18.5893C44.1488 18.5727 44.1175 18.5642 44.0857 18.5649C43.8544 18.5404 43.4749 18.4219 43.2518 18.5078C43.1737 18.5507 43.1064 18.6107 43.0548 18.6834C43.0133 18.7296 42.7522 18.9368 42.7522 18.9975Z" fill="#A1616A"/>
<path d="M42.6774 18.7929C42.6774 18.5721 42.4064 18.039 42.8373 18.0037C42.8373 17.7675 42.504 17.6209 42.5663 17.3702C42.5862 17.2869 42.6566 17.2191 42.6648 17.134C42.6919 16.8923 42.2564 16.7611 42.3287 16.5294C42.3558 16.4389 42.4516 16.3864 42.4723 16.2968C42.5211 16.0878 42.148 15.9945 42.1408 15.7801C42.1408 15.7077 42.1814 15.6398 42.1778 15.5674C42.1778 15.4769 42.0992 15.4081 42.0558 15.3294C41.9429 15.1275 41.998 14.8153 41.792 14.7112C41.9285 14.723 41.9727 14.5203 41.9167 14.3963C41.8607 14.2723 41.746 14.1646 41.7451 14.027C41.7518 13.9772 41.7518 13.9266 41.7451 13.8768C41.7071 13.7446 41.4912 13.7338 41.4551 13.6053C41.4504 13.5559 41.4489 13.5064 41.4505 13.4568C41.4361 13.3546 41.3313 13.2894 41.2328 13.2605C41.1305 13.243 41.0321 13.2078 40.9419 13.1564C40.8787 13.1084 40.8055 13.0288 40.7377 13.0659C40.7124 13.0813 40.6998 13.1102 40.6808 13.1319C40.5995 13.227 40.4441 13.1853 40.342 13.1156C40.0403 12.9102 39.8903 12.5419 39.8261 12.1826C39.762 11.8233 39.7638 11.4522 39.6834 11.0965C39.6589 10.9857 39.6263 10.8768 39.5858 10.7707C39.5515 10.6802 39.4413 10.5381 39.434 10.4467C39.4178 10.2386 39.8478 10.3806 40.0113 10.4015C40.1701 10.417 40.3271 10.4473 40.4802 10.492C40.6437 10.5538 40.8038 10.6242 40.96 10.7028C41.6123 10.9915 42.4001 11.0268 42.9241 11.5119C43.0966 11.6712 43.2421 11.8803 43.4661 11.9527C43.5689 11.9724 43.6703 11.9987 43.7697 12.0314C44.0181 12.1482 44.057 12.4785 44.1925 12.7174C44.2351 12.7805 44.2723 12.8471 44.3036 12.9165C44.3297 12.9984 44.342 13.084 44.3398 13.1699L44.3587 13.7971C44.3894 14.8479 44.4202 15.9013 44.3081 16.9457C44.272 17.2906 44.2178 17.6453 44.3199 17.9766C44.347 18.0671 44.3849 18.1521 44.4102 18.2436C44.4326 18.3507 44.4441 18.4599 44.4446 18.5694L44.459 18.9757C44.464 19.0073 44.4569 19.0397 44.4391 19.0662C44.424 19.0785 44.4064 19.0872 44.3875 19.0918C44.3685 19.0963 44.3488 19.0966 44.3298 19.0925C43.7652 19.0418 43.1942 18.7232 42.6612 18.916" fill="#464353"/>
<path d="M68.4456 50.0165C72.1359 50.0165 75.1275 49.5833 75.1275 49.049C75.1275 48.5147 72.1359 48.0815 68.4456 48.0815C64.7553 48.0815 61.7637 48.5147 61.7637 49.049C61.7637 49.5833 64.7553 50.0165 68.4456 50.0165Z" fill="#504F60"/>
<path d="M74.1954 49.0961C74.078 48.592 74.0048 48.1494 74.0048 48.1494C74.0048 48.1494 74.0319 47.601 73.7862 47.1892V47.0516V46.038C73.8561 45.8539 73.9417 45.6762 74.0418 45.5067C74.2225 45.1881 74.0418 44.0206 74.0418 44.0206C74.0418 44.0206 73.367 42.3744 73.5305 41.33C73.694 40.2856 72.1446 36.6926 72.1446 36.6926C72.1541 36.3461 72.2029 36.0018 72.2901 35.6663C72.3066 35.5958 72.3133 35.5233 72.3099 35.4509C72.3099 35.4419 72.3099 35.4337 72.3099 35.4247C72.3099 35.4156 72.3099 35.4301 72.3099 35.4328C72.2864 34.7441 71.7426 33.4535 71.7426 33.4535L71.8157 30.9936C71.8157 30.9936 72.1627 29.5456 71.5971 27.5952C71.3993 26.9156 71.2728 26.3716 71.1924 25.9517C71.1833 25.9046 71.1743 25.8612 71.1671 25.815C72.3316 25.634 73.2215 25.4892 73.2215 25.4892C73.2215 25.4892 72.5457 22.6574 72.0895 22.1614C71.6332 21.6655 71.2683 20.1079 71.2683 20.1079C71.2683 20.1079 71.0306 18.1087 71.4146 17.5241C71.7986 16.9394 71.8528 15.9312 71.8528 15.9312C71.8528 15.9312 72.7282 15.2977 72.8384 15.0108C72.9487 14.7239 73.1303 14.0904 73.1303 13.7546C73.1303 13.4188 73.0209 13.1211 73.0571 12.9401C73.0932 12.7591 72.8014 12.0902 72.9478 11.7717C72.9856 11.6738 73.0052 11.5698 73.0056 11.4649C73.0059 11.4619 73.0059 11.4588 73.0056 11.4558C73.0069 11.177 72.9812 10.8988 72.9288 10.625C72.6755 10.4108 72.38 10.2526 72.0615 10.1607L72.0425 10.0847L71.9928 9.88559C71.9651 9.86722 71.9365 9.85031 71.907 9.83491V9.7625L71.8989 9.4747L72.0362 8.82851C72.3072 7.70446 70.8084 7.53703 70.8084 7.53703C70.7175 7.36461 70.5663 7.23184 70.3838 7.16416C70.0829 7.05827 70.3341 8.85476 70.4741 8.97422C70.5798 9.06472 70.9069 9.62403 71.065 9.90097L71.0903 9.94623C71.0655 9.96851 71.0426 9.99272 71.0216 10.0186L71.0785 10.4087L71.0876 10.4684C70.9882 10.592 70.9076 10.7295 70.8482 10.8766C70.8482 10.8766 71.1192 11.1771 71.0677 11.5101C71.0162 11.8432 71.1517 12.2658 71.158 12.2884C71.1418 12.2694 70.9493 12.0613 70.7569 12.112C70.5645 12.1626 70.0269 12.3246 70.0269 12.3246C70.0269 12.3246 69.6258 12.3952 69.6655 12.4839C69.7053 12.5726 69.3945 12.9618 69.3945 12.9618L68.3158 11.9373C68.305 11.9065 68.2932 11.8758 68.2842 11.8468C68.2401 11.6991 68.2099 11.5476 68.1938 11.3943C68.3114 11.3663 68.4267 11.3297 68.5389 11.2848C68.6523 11.2458 68.7546 11.18 68.8371 11.0929C68.9464 10.9635 68.9672 10.7879 69.0114 10.6268C69.0964 10.3119 69.2825 10.0322 69.4117 9.73264C69.6305 9.22644 69.701 8.66833 69.6149 8.12349C69.5984 7.95559 69.5417 7.79416 69.4496 7.65288C69.2734 7.41033 68.9536 7.31168 68.7214 7.118C68.4893 6.92433 68.3393 6.62838 68.0682 6.48448C67.8234 6.35325 67.5262 6.36864 67.2497 6.41389C66.7098 6.50308 66.1911 6.69213 65.7202 6.97139C65.563 7.06189 65.3895 7.17321 65.2088 7.13972C65.0534 7.11167 64.9378 6.98768 64.8402 6.86821C64.8413 6.86327 64.8428 6.85843 64.8448 6.85373C64.8404 6.84933 64.8364 6.84447 64.833 6.83925C64.7187 7.09342 64.6613 7.36959 64.665 7.64835C64.665 7.69179 64.665 7.73885 64.6704 7.77777V7.82302C64.6704 7.83569 64.6704 7.84836 64.6704 7.86013C64.6704 7.87942 64.6676 7.89861 64.6623 7.91715C64.6395 7.97251 64.605 8.02223 64.5611 8.06286C64.5279 8.10059 64.4977 8.14083 64.4707 8.18322C64.4707 8.16874 64.4798 8.15426 64.4852 8.13888C64.4163 8.23965 64.3774 8.358 64.3732 8.48008C64.3681 8.56894 64.3972 8.65637 64.4545 8.72443C64.5085 8.77705 64.5675 8.82433 64.6306 8.86562C64.6092 8.98509 64.5983 9.10624 64.5981 9.22763C64.6001 9.58752 64.6948 9.94079 64.8731 10.2533C65.0513 10.5658 65.307 10.8269 65.6154 11.0114C65.628 11.0413 65.6398 11.0721 65.6515 11.1019C65.7898 11.464 65.8937 11.8893 65.8476 12.2785C65.8476 12.3065 65.8394 12.3355 65.8349 12.3636C65.8304 12.3916 65.8078 12.3934 65.7961 12.4088C65.7961 12.4088 64.0136 12.4269 63.5944 12.0468C63.1752 11.6667 62.5355 12.9763 62.5355 12.9763C62.5355 12.9763 61.8968 13.1003 61.7685 12.9763C61.6402 12.8523 60.8931 12.9591 60.8931 12.9591C60.587 12.6864 60.1886 12.5407 59.7791 12.5518C59.531 12.3629 59.2572 12.2105 58.966 12.0993L58.9461 12.0921C58.8176 12.0451 58.6802 12.0278 58.5441 12.0414C58.5441 12.0414 57.6678 11.3173 57.4121 10.9264C57.1564 10.5354 55.9395 9.09188 55.9341 9.08554V9.01585L55.9205 8.80589C55.8843 8.81157 55.8478 8.81459 55.8112 8.81494C55.8049 8.79412 55.7958 8.76969 55.7868 8.74163C55.7167 8.53682 55.6303 8.33798 55.5284 8.14702C55.5284 8.14702 55.5284 7.88185 55.6052 7.81488C55.682 7.7479 55.5736 6.775 55.5736 6.775C55.5736 6.775 54.784 4.92602 54.0766 6.30619C54.0766 6.30619 52.7395 7.19946 53.8616 8.24024C53.8616 8.24024 54.3133 8.45745 54.3729 8.6294C54.4145 8.74072 54.5662 9.05296 54.6683 9.26293L54.7144 9.35343L54.7018 9.36429L54.718 9.53806L54.7253 9.60503C54.5138 9.7254 54.3702 9.84486 54.4054 9.93446C54.4677 10.0878 54.5105 10.2483 54.5328 10.4123C54.5328 10.4123 56.0849 12.3599 56.2855 13.1917C56.2855 13.1917 60.4477 15.6696 61.8164 15.8461L61.5743 17.0815C61.539 17.4167 61.5209 17.7535 61.5201 18.0906C61.5381 18.3558 61.3556 19.5595 61.3556 19.5595C61.3556 19.5595 61.118 21.3297 60.9175 21.5777C60.7169 21.8257 60.753 22.8873 60.753 22.8873C60.7057 23.3955 60.615 23.8987 60.482 24.3914C60.2814 25.0639 60.4269 25.8965 60.4269 25.8965C60.4269 25.8965 59.734 27.4894 61.3945 26.4096C61.3945 26.4096 62.2076 26.359 63.149 26.3264C63.149 26.3572 63.149 26.3888 63.149 26.4169C63.149 26.5382 63.149 26.6694 63.1427 26.807C63.13 27.7192 63.1246 28.979 63.1661 29.9275C63.2393 31.6091 63.7507 34.9369 63.7507 34.9369V36.6121C63.7177 36.7692 63.7013 36.9294 63.7019 37.0899C63.6911 37.6793 63.8477 38.2597 64.1536 38.7633L64.2819 39.8783C64.2819 39.8783 64.5818 40.6132 64.5873 41.0549C64.5861 41.0905 64.5819 41.1259 64.5746 41.1608C64.5629 41.217 64.5581 41.2744 64.5602 41.3318C64.543 41.8386 64.8475 43.0514 64.8475 43.0514C64.8475 43.0514 64.8655 44.2722 65.048 44.3437C65.2043 44.4044 64.8393 45.047 64.7309 45.2316C64.728 45.2203 64.7259 45.2088 64.7246 45.1972L64.702 45.2334C64.6643 45.3322 64.6451 45.4371 64.6451 45.5429C64.6348 45.6263 64.6484 45.7108 64.6842 45.7868C64.72 45.8627 64.7766 45.9269 64.8475 45.9719C65.1944 46.1846 65.3805 46.3611 65.086 46.4317C64.9776 46.4485 64.8703 46.4712 64.7643 46.4995C64.7643 46.486 64.7535 46.4715 64.749 46.4588C64.7074 46.4751 64.6728 46.5052 64.6509 46.5441C64.629 46.5831 64.6212 46.6284 64.6288 46.6724C64.6316 46.816 64.6685 46.9568 64.7363 47.0833C65.0282 47.7385 65.2305 47.9883 65.2305 47.9883L65.3706 47.9729C65.3499 48.0265 65.3226 48.0773 65.2892 48.1241C65.2359 48.2 65.1653 48.262 65.0833 48.3051C65.0068 48.3509 64.9215 48.3802 64.833 48.391C64.7341 48.3943 64.6369 48.4183 64.5479 48.4617C64.4588 48.505 64.3799 48.5667 64.3162 48.6426C64.1355 48.8789 64.0199 49.2001 64.3795 49.4825L65.685 49.935C65.685 49.935 67.9309 50.2274 67.8117 49.7223C67.6924 49.2173 67.6201 48.7757 67.6201 48.7757C67.6298 48.4673 67.5679 48.161 67.4394 47.8806C67.4159 47.8348 67.3893 47.7907 67.3599 47.7485L67.4394 47.7403C67.4394 47.7403 67.6039 46.6244 67.8225 46.4127C67.8731 46.3638 67.8848 46.3221 67.8731 46.2968C67.8957 46.2362 67.8379 46.2009 67.7647 46.1801L67.7484 46.2244C67.6769 46.2088 67.6039 46.2006 67.5307 46.2C67.5307 46.2 67.4575 45.6162 67.6951 45.4035C67.7143 45.3793 67.7283 45.3514 67.7362 45.3215C67.7441 45.2916 67.7458 45.2604 67.7412 45.2298C67.743 45.1497 67.7345 45.0697 67.7159 44.9917C67.7135 44.9968 67.7108 45.0016 67.7078 45.0062C67.5885 44.4759 67.1838 43.6333 67.1838 43.6333C67.1838 43.6333 67.1657 43.1029 67.3121 42.8903C67.4584 42.6776 67.2931 40.005 67.2931 40.005C67.2931 40.005 67.3482 38.7135 67.1838 38.1117C67.0194 37.5099 67.3843 36.8012 67.3843 36.8012C67.3843 36.8012 67.3843 36.7876 67.3843 36.7632V36.7542L67.3636 36.5505C67.3631 36.5547 67.3631 36.559 67.3636 36.5632C67.3265 36.2211 67.257 35.6011 67.2055 35.3152C67.1323 34.9079 67.2244 32.9621 67.2244 32.9621L67.5524 32.1294L68.1369 33.5639L68.7576 35.4753C68.7576 35.4753 69.0647 35.879 69.072 36.2899C69.072 36.3098 69.072 36.3297 69.072 36.3496C69.067 36.392 69.0646 36.4346 69.0647 36.4772C69.0537 36.7187 69.1199 36.9574 69.2536 37.1587C69.2536 37.1587 69.418 38.0637 69.6737 38.2909C69.9293 38.5181 69.9293 38.9633 69.9293 38.9633C69.9293 38.9633 70.2392 40.2738 70.3811 40.5019C70.5039 40.6956 70.5103 41.2259 70.5094 41.3915C70.5094 41.4214 70.5094 41.4386 70.5094 41.4386C70.5094 41.4386 70.5527 41.9074 70.5509 42.3002C70.5509 42.3491 70.5509 42.3961 70.5509 42.4405C70.5513 42.4372 70.5513 42.4338 70.5509 42.4305C70.5508 42.5378 70.5381 42.6448 70.513 42.7491L70.5076 42.7672C70.5076 42.7446 70.5076 42.7228 70.5139 42.7011C70.4504 42.9679 70.42 43.2414 70.4235 43.5156C70.4154 43.9863 70.4868 44.5438 70.7714 44.8732C71.2646 45.4397 71.5745 45.3691 71.5745 45.3691C71.5745 45.3691 71.3378 46.0769 71.0451 46.219C71.034 46.2242 71.0237 46.2309 71.0144 46.2389C71.0144 46.2244 71.009 46.2108 71.0072 46.1973C70.9745 46.2326 70.9496 46.2743 70.9341 46.3198C70.9185 46.3653 70.9126 46.4136 70.9168 46.4615C70.896 46.7729 71.0921 47.276 71.2782 47.5104C71.3473 47.5782 71.432 47.628 71.5248 47.6553C71.5101 47.6657 71.4947 47.675 71.4788 47.6833C71.4463 47.7012 71.4128 47.7172 71.3785 47.7313C71.331 47.7515 71.2807 47.7646 71.2294 47.7702C71.1304 47.7728 71.033 47.7967 70.9439 47.84C70.8548 47.8834 70.7759 47.9454 70.7126 48.0218C70.5319 48.2571 70.4163 48.5784 70.7759 48.8608L72.0814 49.3133C72.0814 49.3133 74.3129 49.6002 74.1954 49.0961Z" fill="url(#paint0_linear)"/>
<path d="M65.6198 49.9323L64.3549 49.4798C64.0062 49.1975 64.1173 48.8762 64.2935 48.64C64.3541 48.5646 64.4302 48.5032 64.5165 48.4598C64.6029 48.4164 64.6975 48.392 64.794 48.3884C64.8797 48.3774 64.962 48.3481 65.0352 48.3024C65.1154 48.2587 65.1841 48.1967 65.2358 48.1214C65.3281 47.9747 65.3778 47.8051 65.3795 47.6318C65.3795 47.6318 66.7672 47.2245 67.1466 47.6318C67.2143 47.7055 67.2709 47.7887 67.3146 47.8788C67.4407 48.16 67.5024 48.4658 67.4953 48.7739C67.4953 48.7739 67.5658 49.2156 67.6805 49.7206C67.7953 50.2256 65.6198 49.9323 65.6198 49.9323Z" fill="#2D293D"/>
<path d="M71.8024 49.3079L70.5376 48.8553C70.1888 48.573 70.3 48.2517 70.4761 48.0164C70.5363 47.9407 70.6121 47.8791 70.6984 47.8357C70.7846 47.7922 70.8793 47.768 70.9757 47.7648C71.0257 47.7596 71.0745 47.7465 71.1203 47.7259C71.1537 47.7117 71.1863 47.6957 71.2179 47.6779C71.5711 47.4833 71.5621 47.0055 71.5621 47.0055C71.5621 47.0055 72.9489 46.5982 73.3292 47.0055C73.3801 47.0606 73.4247 47.1213 73.462 47.1865C73.6996 47.5982 73.6734 48.1476 73.6734 48.1476C73.6734 48.1476 73.7439 48.5902 73.8541 49.0943C73.9643 49.5984 71.8024 49.3079 71.8024 49.3079Z" fill="#2D293D"/>
<path opacity="0.1" d="M67.1482 47.6308C67.2159 47.7045 67.2725 47.7878 67.3162 47.8779L65.2383 48.1195C65.3306 47.9728 65.3803 47.8033 65.3819 47.6299C65.3819 47.6299 66.7687 47.2236 67.1482 47.6308Z" fill="black"/>
<path opacity="0.1" d="M73.4648 47.1883V47.5783C73.1413 48.1114 71.5775 47.9947 71.123 47.7277C71.1565 47.7135 71.189 47.6975 71.2206 47.6797C71.5739 47.4851 71.5648 47.0073 71.5648 47.0073C71.5648 47.0073 72.9516 46.6 73.332 47.0073C73.3829 47.0624 73.4274 47.1231 73.4648 47.1883Z" fill="black"/>
<path d="M73.7115 45.5067C73.6148 45.6767 73.5323 45.8544 73.4649 46.038V47.4363C73.1107 48.02 71.274 47.8254 71.0256 47.5069C70.7771 47.1883 70.5178 46.3593 70.797 46.2154C71.0762 46.0715 71.3092 45.3656 71.3092 45.3656C71.3092 45.3656 71.0084 45.4361 70.5314 44.8696C70.0544 44.303 70.1962 43.0469 70.2847 42.7464C70.3733 42.4459 70.2847 41.4368 70.2847 41.4368C70.2847 41.4368 70.3028 40.7282 70.1619 40.4983C70.0209 40.2684 69.7201 38.9597 69.7201 38.9597C69.7201 38.9597 69.7201 38.5172 69.4725 38.2873C69.225 38.0574 69.066 37.1542 69.066 37.1542C68.9213 36.9285 68.859 36.6596 68.8898 36.3931C68.9422 35.9505 68.589 35.4727 68.589 35.4727L67.9882 33.5603L67.4226 32.1268L67.1046 32.9585C67.1046 32.9585 67.0143 34.9052 67.0874 35.3116C67.1606 35.7179 67.2681 36.7985 67.2681 36.7985C67.2681 36.7985 66.9149 37.5063 67.0739 38.1081C67.2329 38.71 67.1751 40.0032 67.1751 40.0032C67.1751 40.0032 67.3341 42.6749 67.1922 42.8876C67.0504 43.1003 67.0685 43.6315 67.0685 43.6315C67.0685 43.6315 67.7912 45.1882 67.5636 45.4008C67.3359 45.6135 67.4045 46.1973 67.4045 46.1973C67.4045 46.1973 67.8987 46.1973 67.6873 46.41C67.4759 46.6226 67.316 47.7376 67.316 47.7376L65.1794 47.9883C65.1794 47.9883 64.9842 47.7413 64.7014 47.0833C64.4187 46.4253 64.7538 46.4996 65.0384 46.4281C65.323 46.3566 65.1432 46.181 64.8071 45.9683C64.4711 45.7556 64.6662 45.2778 64.6662 45.2778C64.6662 45.2778 65.1785 44.4107 65.0014 44.3402C64.8243 44.2696 64.8071 43.0478 64.8071 43.0478C64.8071 43.0478 64.4539 41.5997 64.5424 41.2069C64.631 40.8142 64.2596 39.8802 64.2596 39.8802L64.1359 38.7652C63.7578 38.1324 63.6199 37.3845 63.7474 36.6582V34.9387C63.7474 34.9387 63.2523 31.6118 63.1818 29.9302C63.1367 28.8533 63.1493 27.3835 63.1638 26.4667C63.1728 25.9526 63.1818 25.6114 63.1818 25.6114L70.8142 24.815C70.8142 24.815 70.8069 25.168 70.9524 25.9508C71.031 26.3708 71.153 26.9147 71.3445 27.5944C71.892 29.5411 71.5568 30.9918 71.5568 30.9918L71.4854 33.4526C71.4854 33.4526 72.1567 35.098 72.0157 35.6645C71.9306 36.0009 71.8827 36.3457 71.873 36.6926C71.873 36.6926 73.3745 40.2856 73.2155 41.33C73.0565 42.3744 73.7097 44.0207 73.7097 44.0207C73.7097 44.0207 73.8886 45.1882 73.7115 45.5067Z" fill="#464353"/>
<path opacity="0.05" d="M69.3477 36.2863L71.6713 35.9758C71.6713 35.9758 70.355 37.3216 69.3477 36.2863Z" fill="black"/>
<path opacity="0.1" d="M71.3348 33.7015C71.3348 33.7015 71.4143 34.5251 70.9111 34.8346C70.9111 34.8346 71.8119 34.6934 71.3348 33.7015Z" fill="black"/>
<path opacity="0.1" d="M71.1929 31.0824C71.1929 31.0824 69.2505 32.6843 68.544 32.5512C67.8375 32.4182 71.1929 31.0824 71.1929 31.0824Z" fill="black"/>
<path opacity="0.1" d="M66.4668 37.0375C66.4668 37.0375 64.9915 37.3732 64.9472 37.9669C64.9029 38.5606 66.4668 37.0375 66.4668 37.0375Z" fill="black"/>
<path opacity="0.05" d="M66.7916 44.4189C66.7916 44.4189 64.7074 44.8081 65.2991 45.0732C65.8909 45.3384 66.863 45.5511 66.863 45.5511C66.863 45.5511 67.5361 45.5864 66.7916 44.4189Z" fill="black"/>
<g opacity="0.05">
<path opacity="0.05" d="M64.8785 45.4949C64.8261 45.4621 64.7817 45.4179 64.7487 45.3655C64.7157 45.3132 64.6949 45.2541 64.6879 45.1926L64.6662 45.2297C64.6662 45.2297 64.4719 45.7076 64.808 45.9193C64.846 45.9438 64.883 45.9682 64.9164 45.9917C64.9788 45.98 65.0456 45.9709 65.1098 45.9546C65.3944 45.884 65.2146 45.7076 64.8785 45.4949Z" fill="black"/>
<path opacity="0.05" d="M67.5644 45.3528C67.6222 45.3003 67.6204 45.1646 67.5851 44.9908C67.4948 45.1275 67.4686 45.3411 67.4668 45.5031C67.4887 45.4468 67.5219 45.3957 67.5644 45.3528Z" fill="black"/>
<path opacity="0.05" d="M67.2435 36.5478C67.1667 36.7571 67.1193 36.9761 67.1025 37.1985C67.1428 37.0449 67.197 36.8952 67.2643 36.7514L67.2435 36.5478Z" fill="black"/>
<path opacity="0.05" d="M72.0154 35.6192C72.0293 35.5556 72.0356 35.4906 72.0344 35.4256C72.0082 35.5577 71.9901 35.6799 71.9766 35.7876C71.9883 35.7324 72.001 35.6799 72.0154 35.6192Z" fill="black"/>
<path opacity="0.05" d="M67.1932 42.8404C67.2221 42.797 67.2384 42.6504 67.2456 42.4467C67.1803 42.6043 67.1456 42.773 67.1436 42.9436C67.1559 42.9073 67.1726 42.8727 67.1932 42.8404Z" fill="black"/>
<path opacity="0.05" d="M67.6274 46.1782C67.5179 46.5332 67.4366 46.8964 67.3844 47.2643L65.2477 47.5113C65.2477 47.5113 65.0526 47.2643 64.7698 46.6063C64.747 46.5555 64.7268 46.5035 64.7093 46.4506C64.581 46.5095 64.5286 46.6425 64.6984 47.0308C64.9812 47.686 65.1773 47.9358 65.1773 47.9358L67.3139 47.6878C67.3139 47.6878 67.4729 46.5728 67.6843 46.3601C67.7927 46.2579 67.7259 46.2045 67.6274 46.1782Z" fill="black"/>
<path opacity="0.05" d="M64.8084 42.9998C64.8084 42.9998 64.8255 44.2207 65.0026 44.2912C65.093 44.0894 65.1517 43.8976 65.0722 43.8659C64.8915 43.7953 64.8779 42.5735 64.8779 42.5735C64.8779 42.5735 64.5247 41.1254 64.6132 40.7327C64.7018 40.3399 64.3304 39.4059 64.3304 39.4059L64.2067 38.2909C63.8286 37.6582 63.6907 36.9102 63.8182 36.184V34.4644C63.8182 34.4644 63.3231 31.1375 63.2526 29.456C63.2075 28.379 63.2201 26.9092 63.2346 25.9924C63.2346 25.8268 63.24 25.6802 63.2427 25.5562L63.1822 25.5625C63.1822 25.5625 63.1722 25.9028 63.1641 26.4178C63.1496 27.3346 63.1361 28.8044 63.1822 29.8804C63.2526 31.562 63.7468 34.8898 63.7468 34.8898V36.6093C63.62 37.3354 63.7582 38.0829 64.1362 38.7153L64.2591 39.8303C64.2591 39.8303 64.6304 40.768 64.5418 41.158C64.4533 41.5481 64.8084 42.9998 64.8084 42.9998Z" fill="black"/>
<path opacity="0.05" d="M71.098 47.0344C70.9245 46.7827 70.8088 46.4955 70.7592 46.1936C70.5415 46.3909 70.7918 47.1566 71.0303 47.4607C71.2769 47.7792 73.1145 47.9738 73.4696 47.3892V47.0525C72.9881 47.5258 71.3311 47.3358 71.098 47.0344Z" fill="black"/>
<path opacity="0.05" d="M73.7827 45.0342C73.6858 45.2042 73.603 45.3819 73.5352 45.5655V45.8162C73.5758 45.7257 73.6327 45.6044 73.7158 45.4614C73.7718 45.3221 73.7982 45.1726 73.7935 45.0225C73.7935 45.0225 73.7854 45.0306 73.7827 45.0342Z" fill="black"/>
<path opacity="0.05" d="M71.2073 45.3139C71.2745 45.1776 71.3328 45.037 71.3817 44.8931C71.3817 44.8931 71.0809 44.9637 70.6038 44.3971C70.2569 43.9853 70.237 43.207 70.2867 42.6984C70.1964 42.9998 70.0563 44.2559 70.5334 44.8225C70.845 45.1926 71.0809 45.2904 71.2073 45.3139Z" fill="black"/>
<path opacity="0.05" d="M70.2836 41.3888C70.3148 41.7375 70.3265 42.0877 70.3188 42.4377C70.3277 42.3825 70.3397 42.3278 70.355 42.2739C70.4453 41.9725 70.355 40.9643 70.355 40.9643C70.355 40.9643 70.373 40.2557 70.2312 40.0258C70.0893 39.7959 69.7939 38.4855 69.7939 38.4855C69.7939 38.4855 69.7939 38.0429 69.5464 37.813C69.2988 37.5831 69.1398 36.6799 69.1398 36.6799C68.9938 36.4547 68.93 36.1858 68.9591 35.9188C69.0124 35.4762 68.6592 34.9984 68.6592 34.9984L68.0584 33.0869L67.4928 31.6534L67.1739 32.486C67.1739 32.486 67.1739 32.591 67.1631 32.7575L67.4215 32.0814L67.987 33.5123L68.5878 35.4237C68.5878 35.4237 68.9411 35.9016 68.8878 36.3441C68.8586 36.6111 68.9224 36.88 69.0684 37.1053C69.0684 37.1053 69.2275 38.0103 69.475 38.2384C69.7225 38.4664 69.7216 38.9108 69.7216 38.9108C69.7216 38.9108 70.0225 40.2204 70.1634 40.4494C70.3044 40.6783 70.2836 41.3888 70.2836 41.3888Z" fill="black"/>
</g>
<path d="M71.7686 8.82584L71.6358 9.47203L71.6439 9.75983L71.6493 9.97161L70.9121 10.0476L70.8299 9.89468C70.6772 9.61774 70.3601 9.05481 70.258 8.96793C70.1216 8.85389 69.8786 7.0565 70.1677 7.1633C70.3456 7.23215 70.4918 7.36469 70.5778 7.53526C70.5778 7.53526 72.0297 7.70179 71.7686 8.82584Z" fill="#FFCDD3"/>
<path opacity="0.1" d="M71.6485 9.97161L70.9113 10.0476L70.8291 9.89468C70.9283 9.7816 71.0635 9.70645 71.2117 9.68203C71.36 9.6576 71.5121 9.68542 71.6422 9.76074L71.6485 9.97161Z" fill="black"/>
<path d="M71.8351 10.3218L70.863 10.5472L70.8422 10.4024L70.7871 10.0123C70.7871 10.0123 71.172 9.49823 71.7285 9.88377L71.7773 10.082L71.8351 10.3218Z" fill="#6C63FF"/>
<path d="M56.0874 8.89639L55.0493 9.45389L54.959 9.25841C54.8605 9.05115 54.7133 8.73892 54.6726 8.62489C54.6112 8.45293 54.1784 8.23572 54.1784 8.23572C53.0943 7.19584 54.3862 6.30167 54.3862 6.30167C55.071 4.9215 55.8317 6.77048 55.8317 6.77048C55.8317 6.77048 55.9383 7.7452 55.8633 7.81036C55.7884 7.87552 55.7884 8.1425 55.7884 8.1425C55.8873 8.33379 55.971 8.53261 56.0386 8.73711C56.0702 8.83576 56.0874 8.89639 56.0874 8.89639Z" fill="#FFCDD3"/>
<path opacity="0.1" d="M56.0884 8.89644L55.0503 9.45394L54.96 9.25845C55.1063 9.13537 55.6258 8.71543 55.7966 8.73263C55.8781 8.74282 55.9604 8.74494 56.0423 8.73897C56.0712 8.8358 56.0884 8.89644 56.0884 8.89644Z" fill="black"/>
<path d="M56.1934 9.21044L55.0271 9.78604L55.0036 9.53535L54.9873 9.36158C54.9873 9.36158 55.6631 8.78146 55.8627 8.80408C55.9637 8.81874 56.0662 8.81874 56.1672 8.80408L56.1808 9.01405L56.1934 9.21044Z" fill="#6C63FF"/>
<path d="M68.942 13.1183C68.942 13.1183 63.8574 13.693 64.8078 13.3835C65.4692 13.1672 65.7321 12.75 65.7872 12.2794C65.8324 11.8875 65.7312 11.4649 65.5984 11.1028C65.4789 10.7817 65.3275 10.4733 65.1466 10.1824C65.1466 10.1824 69.0315 8.04112 68.2554 9.98784C68.1357 10.2823 68.0614 10.5933 68.035 10.9101C68.0116 11.2249 68.0456 11.5414 68.1352 11.8441C68.2818 12.3352 68.561 12.7762 68.942 13.1183Z" fill="#FFCDD3"/>
<path opacity="0.1" d="M68.2515 9.98515C68.1319 10.2796 68.0575 10.5906 68.0311 10.9074C67.6652 11.216 67.2641 11.1952 66.7482 11.1952C66.3525 11.1952 65.9134 11.2911 65.5972 11.1002C65.4777 10.779 65.3264 10.4707 65.1455 10.1797C65.1455 10.1797 69.0294 8.03843 68.2515 9.98515Z" fill="black"/>
<path d="M66.6795 11.3309C67.8406 11.3309 68.7818 10.3881 68.7818 9.22493C68.7818 8.06182 67.8406 7.11893 66.6795 7.11893C65.5184 7.11893 64.5771 8.06182 64.5771 9.22493C64.5771 10.3881 65.5184 11.3309 66.6795 11.3309Z" fill="#FFCDD3"/>
<path opacity="0.1" d="M68.942 13.1184C68.942 13.1184 63.8574 13.6931 64.8078 13.3835C65.4692 13.1672 65.7321 12.75 65.7872 12.2794C66.0401 12.0079 66.5488 11.8061 66.8713 11.7011C67.1695 11.6006 67.4915 11.5953 67.7928 11.6857C67.9113 11.7215 68.0242 11.7739 68.128 11.8414C68.2761 12.3343 68.5579 12.7764 68.942 13.1184Z" fill="black"/>
<path opacity="0.1" d="M71.8357 10.3218L70.8636 10.5472L70.8428 10.4024C70.9468 10.2592 71.0925 10.1515 71.2598 10.0942C71.4271 10.0369 71.608 10.0326 71.7778 10.082L71.8357 10.3218Z" fill="black"/>
<path opacity="0.1" d="M56.1937 9.21045L55.0274 9.78605L55.0039 9.53535C55.3817 9.33187 55.7743 9.15731 56.1784 9.01315L56.1937 9.21045Z" fill="black"/>
<path opacity="0.1" d="M70.9527 25.9526C68.9823 26.2676 66.1816 26.6694 65.7371 26.5337C65.3676 26.4214 64.1895 26.4332 63.1641 26.4685C63.1731 25.9544 63.1821 25.6132 63.1821 25.6132L70.8145 24.8168C70.8145 24.8168 70.8072 25.1698 70.9527 25.9526Z" fill="black"/>
<path d="M72.9168 25.4893C72.9168 25.4893 66.4327 26.6043 65.7371 26.3943C65.0414 26.1843 61.4683 26.4115 61.4683 26.4115C59.8602 27.4912 60.5314 25.8983 60.5314 25.8983C60.5314 25.8983 60.3905 25.0666 60.5847 24.3942C60.7152 23.9005 60.8043 23.3967 60.8512 22.8882C60.8512 22.8882 60.816 21.8257 61.0103 21.5777C61.2045 21.3297 61.4349 19.5604 61.4349 19.5604C61.4349 19.5604 61.611 18.3567 61.5939 18.0915C61.5767 17.8264 61.6463 17.0824 61.6463 17.0824L61.8767 15.8434C60.5513 15.667 56.5228 13.189 56.5228 13.189C56.3286 12.3573 54.8271 10.4105 54.8271 10.4105C54.8052 10.2468 54.7636 10.0864 54.7033 9.93268C54.5976 9.6494 56.1877 9.08286 56.1877 9.08286C56.1877 9.08286 57.3712 10.5309 57.6187 10.9237C57.8663 11.3165 58.7137 12.0387 58.7137 12.0387C58.8454 12.0251 58.9784 12.0425 59.1022 12.0894L59.1229 12.0957C59.4069 12.2074 59.6732 12.3598 59.9135 12.5482C60.3119 12.5388 60.6984 12.6848 60.9913 12.9555C60.9913 12.9555 61.714 12.8487 61.8396 12.9727C61.9652 13.0967 62.5813 12.9727 62.5813 12.9727C62.5813 12.9727 63.1993 11.6631 63.6059 12.0432C64.0124 12.4233 65.7371 12.4052 65.7371 12.4052C65.9666 12.0993 66.5258 11.8803 66.8754 11.7717C67.1737 11.6717 67.4955 11.6663 67.7969 11.7563C67.927 11.7952 68.0493 11.8564 68.1583 11.9373L69.2072 12.9636C69.2072 12.9636 69.5072 12.5736 69.4719 12.4858C69.4367 12.398 69.8252 12.3265 69.8252 12.3265C69.8252 12.3265 70.3374 12.1672 70.5317 12.1138C70.7259 12.0604 70.9039 12.2713 70.9202 12.2903C70.9138 12.2677 70.781 11.8378 70.8298 11.512C70.8786 11.1861 70.6175 10.8784 70.6175 10.8784C71.2355 9.35618 72.6313 10.6305 72.6313 10.6305C72.6313 10.6305 72.7903 11.4622 72.6494 11.7808C72.5084 12.0993 72.7903 12.7718 72.7551 12.9491C72.7198 13.1265 72.8264 13.427 72.8264 13.7637C72.8264 14.1003 72.6457 14.7366 72.5437 15.0199C72.4416 15.3031 71.5896 15.9403 71.5896 15.9403C71.5896 15.9403 71.5363 16.9494 71.165 17.5331C70.7937 18.1169 71.0268 20.1134 71.0268 20.1134C71.0268 20.1134 71.38 21.6709 71.8218 22.1669C72.2636 22.6628 72.9168 25.4893 72.9168 25.4893Z" fill="#3F3D56"/>
<path opacity="0.1" d="M63.4656 13.8433C63.4656 13.8433 63.2714 13.2596 63.0943 13.2098C62.9185 13.145 62.7473 13.0682 62.582 12.9799L62.6959 12.7618C62.6959 12.7618 63.359 12.9428 63.4656 13.1392C63.5722 13.3356 63.4656 13.8433 63.4656 13.8433Z" fill="black"/>
<path opacity="0.1" d="M59.9138 12.5518C59.8786 12.7328 58.3057 12.8876 58.3057 12.8876L59.1007 12.0893L59.1206 12.0966C59.4057 12.2089 59.6729 12.3622 59.9138 12.5518Z" fill="black"/>
<path d="M55.3636 10.2639C55.4414 10.2639 55.5045 10.2007 55.5045 10.1227C55.5045 10.0447 55.4414 9.98151 55.3636 9.98151C55.2858 9.98151 55.2227 10.0447 55.2227 10.1227C55.2227 10.2007 55.2858 10.2639 55.3636 10.2639Z" fill="#575988"/>
<path d="M55.5443 10.5472C55.6221 10.5472 55.6852 10.484 55.6852 10.406C55.6852 10.328 55.6221 10.2648 55.5443 10.2648C55.4664 10.2648 55.4033 10.328 55.4033 10.406C55.4033 10.484 55.4664 10.5472 55.5443 10.5472Z" fill="#575988"/>
<path d="M55.721 10.8087C55.7989 10.8087 55.862 10.7455 55.862 10.6675C55.862 10.5895 55.7989 10.5263 55.721 10.5263C55.6432 10.5263 55.5801 10.5895 55.5801 10.6675C55.5801 10.7455 55.6432 10.8087 55.721 10.8087Z" fill="#575988"/>
<path d="M55.9066 11.0911C55.9844 11.0911 56.0475 11.0279 56.0475 10.9499C56.0475 10.872 55.9844 10.8087 55.9066 10.8087C55.8287 10.8087 55.7656 10.872 55.7656 10.9499C55.7656 11.0279 55.8287 11.0911 55.9066 11.0911Z" fill="#575988"/>
<path d="M72.5601 11.0495C72.6234 11.0495 72.6748 10.998 72.6748 10.9345C72.6748 10.8711 72.6234 10.8196 72.5601 10.8196C72.4967 10.8196 72.4453 10.8711 72.4453 10.9345C72.4453 10.998 72.4967 11.0495 72.5601 11.0495Z" fill="#575988"/>
<path d="M72.5786 11.311C72.642 11.311 72.6933 11.2596 72.6933 11.1961C72.6933 11.1326 72.642 11.0811 72.5786 11.0811C72.5152 11.0811 72.4639 11.1326 72.4639 11.1961C72.4639 11.2596 72.5152 11.311 72.5786 11.311Z" fill="#575988"/>
<path d="M72.5942 11.5716C72.6576 11.5716 72.709 11.5202 72.709 11.4567C72.709 11.3932 72.6576 11.3418 72.5942 11.3418C72.5309 11.3418 72.4795 11.3932 72.4795 11.4567C72.4795 11.5202 72.5309 11.5716 72.5942 11.5716Z" fill="#575988"/>
<path opacity="0.1" d="M63.4708 18.64C63.4536 18.6192 67.4369 23.6575 70.5285 20.746C70.5312 20.7469 65.6463 21.4103 63.4708 18.64Z" fill="black"/>
<path opacity="0.1" d="M61.1846 21.2592C61.1846 21.2592 63.5679 21.3243 63.8172 22.0113V22.7262C63.7494 22.7639 63.673 22.7837 63.5954 22.7837C63.5178 22.7837 63.4415 22.7639 63.3736 22.7262C63.1333 22.5959 61.6923 21.8628 61.1846 22.2158V21.2592Z" fill="black"/>
<path d="M61.2295 21.2592C61.2295 21.2592 63.5089 21.3216 63.7474 21.9769V22.6574C63.6825 22.6936 63.6094 22.7125 63.5351 22.7125C63.4608 22.7125 63.3877 22.6936 63.3228 22.6574C63.0933 22.5344 61.7155 21.8348 61.2295 22.1714V21.2592Z" fill="#3F3D56"/>
<path opacity="0.1" d="M62.4863 16.0751C62.7298 16.6397 63.0401 17.173 63.4106 17.6634C63.8134 18.2056 64.3016 18.6784 64.8561 19.0635C64.8561 19.0635 62.5261 16.4027 62.4863 16.0751Z" fill="black"/>
<path opacity="0.1" d="M61.707 13.3012C61.707 13.3012 62.1046 15.0207 63.1291 15.6045L61.707 13.3012Z" fill="black"/>
<path opacity="0.1" d="M61.097 13.475C61.0871 13.4433 60.7438 14.8325 62.4178 15.6045C62.4178 15.6045 61.7068 15.3629 61.097 13.475Z" fill="black"/>
<path opacity="0.1" d="M71.5035 12.322C71.4773 12.322 72.3293 12.865 72.5615 13.1184C72.5615 13.1184 72.0067 12.2858 71.5035 12.322Z" fill="black"/>
<path d="M66.1117 11.1336C66.112 11.1796 66.1219 11.225 66.1406 11.2669C66.1593 11.3089 66.1865 11.3465 66.2205 11.3773C66.2544 11.4082 66.2944 11.4317 66.3379 11.4463C66.3814 11.4609 66.4274 11.4663 66.4731 11.4622C67.1136 11.502 67.7813 11.53 68.3703 11.2812C68.4808 11.2417 68.58 11.1758 68.6594 11.0893C68.7642 10.9599 68.785 10.7843 68.8275 10.6232C68.9106 10.3083 69.0877 10.0286 69.2151 9.72903C69.4306 9.22292 69.5028 8.66712 69.4238 8.1226C69.4071 7.95569 69.352 7.79492 69.2629 7.65289C69.0931 7.40944 68.7832 7.31079 68.5582 7.11711C68.3333 6.92344 68.1887 6.62749 67.9258 6.48359C67.6891 6.35146 67.3991 6.36775 67.1326 6.413C66.6084 6.50217 66.106 6.69111 65.6528 6.96959C65.5001 7.0601 65.3329 7.17141 65.1577 7.13793C65.0041 7.10897 64.8921 6.97955 64.7963 6.85827C64.6731 7.1479 64.6213 7.46298 64.6454 7.77688C64.6521 7.82294 64.6506 7.86982 64.6409 7.91535C64.6188 7.97039 64.5852 8.02007 64.5424 8.06106C64.3843 8.24207 64.2858 8.5362 64.4421 8.72264C64.5099 8.80319 64.6147 8.84753 64.6807 8.92989C64.799 9.07741 64.7593 9.2919 64.7565 9.48015C64.75 9.54588 64.7666 9.61183 64.8035 9.66659C64.8377 9.6985 64.8795 9.72102 64.925 9.73196C64.9704 9.74291 65.0179 9.7419 65.0628 9.72903C65.1523 9.70202 65.2463 9.6931 65.3393 9.70279C65.4372 9.73469 65.5218 9.79838 65.5796 9.88379C65.8714 10.2648 65.987 10.6793 66.1117 11.1336Z" fill="#2D293D"/>
<g opacity="0.1">
<path opacity="0.1" d="M68.7344 10.9291C68.655 11.0156 68.5558 11.0815 68.4453 11.121C67.8526 11.368 67.1859 11.34 66.5481 11.302C66.4796 11.3027 66.4119 11.2875 66.3502 11.2576C66.2526 11.2006 66.2156 11.0812 66.1858 10.9725C66.0611 10.52 65.9464 10.1046 65.65 9.72723C65.5929 9.64017 65.5083 9.57484 65.4097 9.54169C65.3167 9.53291 65.2229 9.54181 65.1333 9.56794C65.0884 9.58092 65.041 9.58208 64.9955 9.57129C64.9501 9.56051 64.9082 9.53816 64.874 9.5064C64.8371 9.45164 64.8205 9.38569 64.827 9.31996C64.827 9.12991 64.8694 8.91722 64.7511 8.7697C64.6851 8.68735 64.5803 8.643 64.5126 8.56155C64.4684 8.50149 64.4413 8.43056 64.4341 8.3563C64.4269 8.28204 64.44 8.20721 64.4719 8.1398C64.359 8.32081 64.3111 8.54797 64.4421 8.70363C64.5099 8.78418 64.6147 8.82853 64.6806 8.91089C64.799 9.05931 64.7592 9.2729 64.7565 9.46115C64.7496 9.52678 64.7659 9.59277 64.8026 9.64758C64.8369 9.67965 64.8789 9.70226 64.9245 9.71321C64.9701 9.72416 65.0177 9.72306 65.0628 9.71003C65.1523 9.68302 65.2463 9.6741 65.3392 9.68378C65.4372 9.71569 65.5218 9.77938 65.5796 9.86479C65.875 10.2422 65.9906 10.6567 66.1153 11.111C66.1299 11.2228 66.1856 11.3251 66.2716 11.3979C66.3335 11.4278 66.4016 11.4427 66.4704 11.4414C67.1109 11.4812 67.7785 11.5101 68.3676 11.2603C68.4782 11.2211 68.5775 11.1552 68.6567 11.0685C68.6965 11.0175 68.7271 10.9599 68.747 10.8983C68.7479 10.9101 68.7416 10.9201 68.7344 10.9291Z" fill="black"/>
<path opacity="0.1" d="M64.6446 7.86014C64.673 7.82927 64.6948 7.79293 64.7087 7.75334C64.7169 7.70755 64.7169 7.66067 64.7087 7.61487C64.6911 7.35684 64.7246 7.09787 64.8072 6.85284L64.7955 6.83926C64.6719 7.12845 64.6201 7.44334 64.6446 7.75697C64.6473 7.7913 64.6473 7.8258 64.6446 7.86014Z" fill="black"/>
</g>
<path opacity="0.1" d="M65.7363 12.4097C65.7363 12.4097 68.3627 12.759 68.5985 12.3635L65.7363 12.4097Z" fill="black"/>
<path opacity="0.1" d="M70.8428 11.321C70.8428 11.321 72.3027 11.321 72.6235 11.8713L70.8428 11.321Z" fill="black"/>
<path d="M79.0107 60.2062C78.5777 60.5941 78.015 60.8047 77.4342 60.7963C77.2861 60.7963 77.081 60.8244 77.0801 60.9728C77.0837 61.0163 77.0986 61.0582 77.1234 61.0941C77.3068 61.4002 77.5962 61.628 77.9365 61.7339C78.2527 61.8299 78.5906 61.8136 78.9204 61.7964L79.8826 61.7466C80.0633 61.7367 80.2439 61.7276 80.4246 61.705C80.6053 61.6823 80.8023 61.6452 80.9911 61.6145C81.4551 61.5484 81.9242 61.5266 82.3923 61.5493C82.517 61.5538 82.6634 61.5493 82.7375 61.4588C82.8115 61.3683 82.7736 61.1954 82.7456 61.0597C82.6878 60.78 82.7456 60.4868 82.6923 60.2062C82.6019 59.7139 82.1764 59.3365 81.7102 59.1582C81.2766 58.9935 80.5087 58.8043 80.0985 59.0795C79.6657 59.3682 79.401 59.8506 79.0107 60.2062Z" fill="#3F3D56"/>
<path d="M79.9662 43.7111C80.0511 44.1157 80.4423 44.4252 80.4531 44.8379C80.4631 45.1692 80.2273 45.447 80.0574 45.7303C79.8974 46.0237 79.7623 46.33 79.6536 46.6462C79.3338 47.4693 78.9369 48.2602 78.4683 49.0083C78.2424 49.3703 77.9894 49.7568 78.0409 50.1776C78.0769 50.3744 78.1463 50.5636 78.246 50.7369L78.9236 52.0854C79.072 52.3546 79.1882 52.6405 79.2696 52.937C79.3283 53.1932 79.3338 53.4583 79.3681 53.719C79.4747 54.5462 79.8623 55.3788 79.6328 56.1807C79.6129 56.2495 79.5425 56.3327 79.4873 56.2848C79.7114 56.7038 79.8912 57.1255 79.874 57.6007C79.865 57.8496 79.7891 58.1093 79.8803 58.341C79.9192 58.4378 79.9869 58.5283 79.986 58.6324C79.986 58.7012 79.9544 58.7655 79.9472 58.8324C79.9282 59.0234 80.1035 59.1827 80.2851 59.2433C80.4667 59.3039 80.6645 59.2994 80.8479 59.3546C81.2003 59.4605 81.4523 59.7646 81.7514 59.9755C82.0582 60.1872 82.4197 60.3051 82.7921 60.3149C82.8453 60.3205 82.8989 60.3098 82.9457 60.2841C82.9723 60.2608 82.9936 60.2322 83.0082 60.2C83.0229 60.1679 83.0305 60.133 83.0307 60.0977C83.047 59.9286 83.0216 59.7582 82.9567 59.6013C82.8918 59.4444 82.7894 59.3059 82.6584 59.1981C82.601 59.1621 82.5535 59.1123 82.5202 59.0533C82.5033 59.001 82.499 58.9455 82.5076 58.8912C82.5621 58.1495 82.5488 57.4042 82.4678 56.6649C82.4313 56.4306 82.4195 56.193 82.4326 55.9562C82.4515 55.7589 82.5112 55.5635 82.4895 55.3671C82.4678 55.1707 82.3675 54.9915 82.3088 54.8023C82.204 54.4656 82.2329 54.1036 82.2185 53.7516C82.2004 53.1398 82.0604 52.5388 81.9212 51.9415C81.8661 51.7071 81.8056 51.4618 81.6403 51.2881C81.4993 51.1406 81.2716 50.9994 81.3249 50.803C81.3545 50.7306 81.3984 50.665 81.4541 50.6102C81.5196 50.528 81.5676 50.4332 81.5952 50.3318C81.6229 50.2303 81.6296 50.1243 81.615 50.0201C81.6744 50.0353 81.7372 50.0294 81.7928 50.0033C81.8483 49.9772 81.8931 49.9326 81.9194 49.8771C83.0198 49.3567 83.907 48.316 84.3027 47.162C84.326 47.0763 84.362 46.9946 84.4093 46.9195C84.5114 46.7765 84.6885 46.7149 84.8457 46.6362C85.339 46.3873 85.6796 45.9212 85.9922 45.4651C86.1728 45.2008 86.3535 44.9275 86.4348 44.6162C86.4776 44.4148 86.4979 44.2093 86.4954 44.0035L86.5234 42.9401C86.5295 42.87 86.5228 42.7995 86.5035 42.7319C86.4767 42.6688 86.4377 42.6116 86.3888 42.5636C86.0883 42.2453 85.6937 42.0321 85.2631 41.9554C84.974 41.9038 84.6785 41.9138 84.3858 41.8893C83.8185 41.8423 83.2583 41.6658 82.691 41.7083C81.7993 41.7744 81.0051 42.3934 80.585 43.1844C80.4378 43.4632 80.2824 43.7057 79.9662 43.7111Z" fill="#464353"/>
<path d="M75.0156 36.7967C75.0276 36.9609 75.0055 37.1258 74.9505 37.2809C74.881 37.4293 74.7066 37.5452 74.5539 37.4846C74.6 37.3805 74.478 37.2619 74.3642 37.2746C74.3082 37.2875 74.2562 37.3139 74.2126 37.3514C74.169 37.3889 74.1351 37.4365 74.1139 37.49C74.0385 37.642 74.0132 37.8141 74.0417 37.9814C74.0778 38.1896 74.198 38.3896 74.1663 38.5986C74.141 38.7724 74.0137 38.9453 74.0814 39.1064C74.1254 39.18 74.1805 39.2462 74.2449 39.3028C74.3342 39.4129 74.3779 39.5532 74.367 39.6946C74.356 39.8361 74.2913 39.9679 74.1862 40.063L75.8955 40.0974C75.8332 40.3834 75.9615 40.6757 76.1079 40.93C76.5178 41.6292 77.0838 42.2237 77.7616 42.667C78.4394 43.1103 79.2105 43.3902 80.0144 43.4849C79.9709 43.5103 79.9336 43.5451 79.9052 43.5867C79.8768 43.6284 79.858 43.6758 79.8501 43.7256C79.8423 43.7754 79.8455 43.8263 79.8597 43.8747C79.8739 43.9231 79.8987 43.9677 79.9322 44.0053C80.0713 44.1438 80.3071 44.1266 80.4815 44.037C80.6558 43.9474 80.7922 43.799 80.9512 43.684C81.232 43.4848 81.5744 43.3923 81.917 43.4234C82.1312 43.4442 82.3389 43.5139 82.554 43.5247C83.1864 43.5582 83.7285 43.1021 84.3374 42.9156C84.781 42.779 85.2842 42.779 85.6564 42.5011C85.8172 42.3817 85.9491 42.1853 85.9022 41.9916C85.8633 41.8803 85.8017 41.7783 85.7215 41.692C85.5073 41.4142 85.3809 41.0802 85.2273 40.7644C84.923 40.139 84.504 39.5766 83.9923 39.1064C83.606 38.7681 83.1966 38.4573 82.7672 38.176C82.6634 38.0992 82.5527 38.0323 82.4365 37.976C82.2865 37.9099 82.1203 37.8782 81.9848 37.795C81.7842 37.6683 81.6686 37.4447 81.5141 37.2646C81.1753 36.8682 80.6549 36.6863 80.2375 36.375C79.9575 36.1659 79.7099 35.8908 79.3756 35.7903C79.213 35.7406 79.0405 35.7369 78.8778 35.6881C78.5083 35.5758 78.2391 35.2473 77.8768 35.1143C77.5904 35.0093 77.2742 35.0364 76.9734 34.9993C76.6342 34.9574 76.3103 34.8338 76.0293 34.6391C75.9387 34.5653 75.8372 34.506 75.7284 34.4636C75.2704 34.3242 75.2333 35.1785 75.1863 35.4745C75.1258 35.9143 75.0156 36.3515 75.0156 36.7967Z" fill="#6C63FF"/>
<path d="M75.4615 39.662C75.5383 40.4965 74.9095 41.3047 75.0929 42.1219C75.1317 42.2957 75.2067 42.4613 75.2338 42.6378C75.3106 43.122 75.0215 43.5808 74.7459 43.9863L72.3789 47.4661C72.2839 47.6189 72.1704 47.7593 72.041 47.8842C71.5893 48.287 70.9099 48.2462 70.3154 48.3657C69.8978 48.4517 69.5035 48.6263 69.159 48.878C69.1435 48.89 69.1333 48.9076 69.1306 48.927C69.1279 48.9465 69.1329 48.9662 69.1446 48.982C69.2427 49.1159 69.3727 49.2231 69.5228 49.2937C69.6729 49.3644 69.8382 49.3963 70.0037 49.3866C70.0661 49.468 70.0037 49.5893 69.9179 49.6481C69.7914 49.7386 69.6162 49.7595 69.5909 49.9758C69.5823 50.0509 69.5975 50.1269 69.6342 50.193C69.7299 50.3388 69.8782 50.4419 70.048 50.4808C70.8674 50.7324 71.7528 50.2907 72.3663 49.6907C72.9797 49.0906 73.4197 48.3331 74.0214 47.7231C74.3547 47.3847 74.7333 47.096 75.0766 46.7683C75.7614 46.114 76.2944 45.3203 76.8076 44.5248C76.9621 44.2849 77.1184 44.0388 77.1825 43.7609C77.2467 43.4831 77.2169 43.2016 77.29 42.9328C77.3858 42.5807 77.6433 42.2993 77.8574 42.0042C78.2775 41.425 78.5585 40.7164 78.5025 40.0023C78.4465 39.2882 78.0056 38.5841 77.3334 38.3416C77.1249 38.2586 76.8954 38.2446 76.6784 38.3018C76.4029 38.3868 76.1996 38.6149 76.0117 38.8339L75.5599 39.3534C75.45 39.4684 75.3637 39.6041 75.3061 39.7525C75.2769 39.8273 75.27 39.9089 75.286 39.9876C75.302 40.0663 75.3404 40.1386 75.3964 40.196" fill="#FBBEBE"/>
<path d="M76.6604 36.2392C76.3496 36.2573 76.0072 36.2881 75.7877 36.5107C75.6956 36.6129 75.6211 36.7298 75.5672 36.8564C75.354 37.2917 75.1462 37.747 75.1309 38.2321C75.1182 38.6194 75.2302 38.9986 75.289 39.3815C75.3378 39.7 75.214 40.0249 75.1905 40.3471C75.5763 40.2286 76.0858 40.0675 76.4355 39.8675C76.674 39.7308 76.9043 39.5751 77.1645 39.4883C77.5359 39.3643 78.1583 39.5788 78.5116 39.7507C78.5306 39.5027 78.3444 39.0701 78.3643 38.8212C78.3671 38.7165 78.3857 38.6127 78.4194 38.5135C78.4723 38.4086 78.5349 38.3089 78.6064 38.2158C78.7409 37.9968 78.8028 37.7408 78.7831 37.4844C78.7635 37.228 78.6634 36.9844 78.4971 36.7885C78.1836 36.4356 77.6931 36.3035 77.2251 36.2455C76.9304 36.2113 76.6334 36.201 76.337 36.2148" fill="#6C63FF"/>
<defs>
<linearGradient id="paint0_linear" x1="63.804" y1="50.0165" x2="63.804" y2="5.79123" gradientUnits="userSpaceOnUse">
<stop stop-color="#808080" stop-opacity="0.25"/>
<stop offset="0.54" stop-color="#808080" stop-opacity="0.12"/>
<stop offset="1" stop-color="#808080" stop-opacity="0.1"/>
</linearGradient>
</defs>
</svg>
