<svg xmlns="http://www.w3.org/2000/svg" xmlns:xlink="http://www.w3.org/1999/xlink" width="1920" zoomAndPan="magnify" viewBox="0 0 1440 449.999984" height="600" preserveAspectRatio="xMidYMid meet" version="1.0"><defs><g/><clipPath id="4986e05e98"><path d="M 927 0.441406 L 1087 0.441406 L 1087 209 L 927 209 Z M 927 0.441406 " clip-rule="nonzero"/></clipPath><clipPath id="d9efe53583"><rect x="0" width="1359" y="0" height="276"/></clipPath><clipPath id="834e191dbe"><rect x="0" width="495" y="0" height="106"/></clipPath></defs><g transform="matrix(1, 0, 0, 1, 44, 127)"><g clip-path="url(#d9efe53583)"><g fill="#00bf63" fill-opacity="1"><g transform="translate(1.085862, 209.23792)"><g><path d="M 174.359375 -207.921875 C 175.367188 -207.921875 176.796875 -207.414062 178.640625 -206.40625 C 180.492188 -205.394531 181.421875 -202.957031 181.421875 -199.09375 L 181.421875 -179.65625 C 181.421875 -175.625 180.492188 -173.101562 178.640625 -172.09375 C 176.796875 -171.082031 175.367188 -170.578125 174.359375 -170.578125 L 83.765625 -170.578125 C 78.046875 -170.578125 73.675781 -169.988281 70.65625 -168.8125 C 67.625 -167.800781 65.097656 -165.945312 63.078125 -163.25 C 61.234375 -160.726562 59.804688 -157.03125 58.796875 -152.15625 C 58.453125 -149.800781 58.15625 -147.066406 57.90625 -143.953125 C 57.65625 -140.835938 57.53125 -137.347656 57.53125 -133.484375 L 57.53125 -74.6875 C 57.53125 -70.988281 57.65625 -67.539062 57.90625 -64.34375 C 58.15625 -61.144531 58.453125 -58.285156 58.796875 -55.765625 C 59.296875 -53.410156 59.878906 -51.304688 60.546875 -49.453125 C 61.222656 -47.609375 62.066406 -46.007812 63.078125 -44.65625 C 65.097656 -41.96875 67.625 -40.117188 70.65625 -39.109375 C 73.675781 -37.929688 78.046875 -37.34375 83.765625 -37.34375 L 174.359375 -37.34375 C 175.367188 -37.34375 176.796875 -36.835938 178.640625 -35.828125 C 180.492188 -34.816406 181.421875 -32.378906 181.421875 -28.515625 L 181.421875 -8.578125 C 181.421875 -4.710938 180.492188 -2.273438 178.640625 -1.265625 C 176.796875 -0.253906 175.367188 0.25 174.359375 0.25 L 82.515625 0.25 C 71.578125 0.25 62.070312 -1.175781 54 -4.03125 C 46.257812 -6.726562 39.78125 -11.359375 34.5625 -17.921875 C 29.351562 -24.648438 25.65625 -32.890625 23.46875 -42.640625 C 22.289062 -47.691406 21.445312 -53.242188 20.9375 -59.296875 C 20.4375 -65.347656 20.1875 -71.910156 20.1875 -78.984375 L 20.1875 -128.9375 C 20.1875 -135.832031 20.4375 -142.304688 20.9375 -148.359375 C 21.445312 -154.421875 22.289062 -159.890625 23.46875 -164.765625 C 25.65625 -174.859375 29.351562 -183.101562 34.5625 -189.5 C 39.445312 -195.894531 45.925781 -200.601562 54 -203.625 C 62.070312 -206.488281 71.578125 -207.921875 82.515625 -207.921875 Z M 174.359375 -207.921875 "/></g></g></g><g fill="#00bf63" fill-opacity="1"><g transform="translate(215.273532, 209.23792)"><g><path d="M 206.90625 -207.921875 C 209.09375 -207.921875 210.609375 -206.828125 211.453125 -204.640625 C 211.953125 -202.617188 211.695312 -200.679688 210.6875 -198.828125 L 134.234375 -63.84375 L 134.234375 -8.578125 C 134.234375 -4.710938 133.304688 -2.316406 131.453125 -1.390625 C 129.609375 -0.460938 128.179688 0 127.171875 0 L 103.953125 0 C 102.941406 0 101.507812 -0.460938 99.65625 -1.390625 C 97.8125 -2.316406 96.890625 -4.710938 96.890625 -8.578125 L 96.890625 -63.84375 L 21.203125 -198.828125 C 20.191406 -200.679688 19.9375 -202.535156 20.4375 -204.390625 C 20.945312 -206.742188 22.460938 -207.921875 24.984375 -207.921875 L 53.75 -207.921875 C 54.925781 -207.921875 56.1875 -207.625 57.53125 -207.03125 C 58.875 -206.445312 60.050781 -205.144531 61.0625 -203.125 L 116.078125 -102.1875 L 171.578125 -203.375 C 172.585938 -205.226562 173.765625 -206.445312 175.109375 -207.03125 C 176.460938 -207.625 177.726562 -207.921875 178.90625 -207.921875 Z M 206.90625 -207.921875 "/></g></g></g><g fill="#00bf63" fill-opacity="1"><g transform="translate(459.735098, 209.23792)"><g><path d="M 143.828125 -207.921875 C 160.984375 -207.921875 173.347656 -202.535156 180.921875 -191.765625 C 188.316406 -181.671875 192.015625 -166.445312 192.015625 -146.09375 L 192.015625 -147.609375 C 192.015625 -127.585938 188.316406 -112.363281 180.921875 -101.9375 C 173.347656 -91.34375 160.984375 -86.046875 143.828125 -86.046875 L 57.53125 -85.796875 L 57.53125 -8.578125 C 57.53125 -4.710938 56.601562 -2.273438 54.75 -1.265625 C 52.90625 -0.253906 51.476562 0.25 50.46875 0.25 L 27.25 0.25 C 26.238281 0.25 24.804688 -0.253906 22.953125 -1.265625 C 21.109375 -2.273438 20.1875 -4.710938 20.1875 -8.578125 L 20.1875 -114.5625 C 20.1875 -118.425781 21.109375 -120.820312 22.953125 -121.75 C 24.804688 -122.675781 26.238281 -123.140625 27.25 -123.140625 L 137.265625 -123.140625 C 143.660156 -123.140625 148.117188 -124.988281 150.640625 -128.6875 C 153.328125 -132.382812 154.671875 -138.441406 154.671875 -146.859375 C 154.671875 -155.265625 153.328125 -161.316406 150.640625 -165.015625 C 148.117188 -168.722656 143.660156 -170.578125 137.265625 -170.578125 L 27.25 -170.578125 C 26.238281 -170.578125 24.804688 -171.035156 22.953125 -171.953125 C 21.109375 -172.878906 20.1875 -175.28125 20.1875 -179.15625 L 20.1875 -199.09375 C 20.1875 -203.125 21.109375 -205.601562 22.953125 -206.53125 C 24.804688 -207.457031 26.238281 -207.921875 27.25 -207.921875 Z M 143.828125 -207.921875 "/></g></g></g><g fill="#00bf63" fill-opacity="1"><g transform="translate(684.518599, 209.23792)"><g><path d="M 183.1875 -207.921875 C 184.363281 -207.921875 185.875 -207.414062 187.71875 -206.40625 C 189.570312 -205.394531 190.5 -202.957031 190.5 -199.09375 L 190.5 -8.578125 C 190.5 -4.710938 189.570312 -2.273438 187.71875 -1.265625 C 185.875 -0.253906 184.363281 0.25 183.1875 0.25 L 159.96875 0.25 C 158.96875 0.25 157.582031 -0.253906 155.8125 -1.265625 C 154.039062 -2.273438 153.15625 -4.710938 153.15625 -8.578125 L 153.15625 -86.296875 L 57.53125 -86.296875 L 57.53125 -8.578125 C 57.53125 -4.710938 56.644531 -2.273438 54.875 -1.265625 C 53.113281 -0.253906 51.644531 0.25 50.46875 0.25 L 27.5 0.25 C 26.320312 0.25 24.804688 -0.253906 22.953125 -1.265625 C 21.109375 -2.273438 20.1875 -4.710938 20.1875 -8.578125 L 20.1875 -199.09375 C 20.1875 -202.957031 21.109375 -205.394531 22.953125 -206.40625 C 24.804688 -207.414062 26.320312 -207.921875 27.5 -207.921875 L 50.46875 -207.921875 C 51.644531 -207.921875 53.113281 -207.414062 54.875 -206.40625 C 56.644531 -205.394531 57.53125 -202.957031 57.53125 -199.09375 L 57.53125 -123.640625 L 153.15625 -123.640625 L 153.15625 -199.09375 C 153.15625 -202.957031 154.039062 -205.394531 155.8125 -206.40625 C 157.582031 -207.414062 158.96875 -207.921875 159.96875 -207.921875 Z M 183.1875 -207.921875 "/></g></g></g><g clip-path="url(#4986e05e98)"><g fill="#00bf63" fill-opacity="1"><g transform="translate(907.788421, 209.23792)"><g><path d="M 171.828125 -45.171875 C 173.015625 -45.171875 174.53125 -44.707031 176.375 -43.78125 C 178.226562 -42.851562 179.15625 -40.457031 179.15625 -36.59375 L 179.15625 -8.828125 C 179.15625 -4.960938 178.226562 -2.566406 176.375 -1.640625 C 174.53125 -0.710938 173.015625 -0.25 171.828125 -0.25 L 82.265625 -0.25 C 76.710938 -0.25 71.578125 -0.582031 66.859375 -1.25 C 62.148438 -1.925781 57.863281 -3.023438 54 -4.546875 C 45.757812 -7.398438 39.195312 -12.023438 34.3125 -18.421875 C 29.269531 -24.984375 25.65625 -33.222656 23.46875 -43.140625 C 22.625 -47.347656 21.90625 -51.972656 21.3125 -57.015625 C 20.726562 -62.066406 20.351562 -67.535156 20.1875 -73.421875 L 20.1875 -74.6875 L 20.6875 -106.484375 C 21.195312 -108.335938 22.125 -110.441406 23.46875 -112.796875 C 27.164062 -119.347656 32.882812 -122.878906 40.625 -123.390625 L 170.828125 -123.640625 C 171.835938 -123.640625 173.265625 -123.175781 175.109375 -122.25 C 176.960938 -121.320312 177.890625 -118.925781 177.890625 -115.0625 L 177.890625 -95.125 C 177.890625 -91.257812 176.960938 -88.820312 175.109375 -87.8125 C 173.265625 -86.800781 171.835938 -86.296875 170.828125 -86.296875 L 58.03125 -86.296875 C 58.03125 -86.296875 57.988281 -85.367188 57.90625 -83.515625 C 57.820312 -81.671875 57.738281 -79.570312 57.65625 -77.21875 C 57.570312 -74.863281 57.53125 -72.757812 57.53125 -70.90625 C 57.53125 -69.050781 57.53125 -68.125 57.53125 -68.125 C 57.695312 -67.457031 57.78125 -66.742188 57.78125 -65.984375 C 57.78125 -65.222656 57.863281 -64.507812 58.03125 -63.84375 C 58.707031 -59.132812 60.140625 -55.347656 62.328125 -52.484375 C 64.347656 -49.960938 66.867188 -48.113281 69.890625 -46.9375 C 71.742188 -46.425781 73.722656 -46.003906 75.828125 -45.671875 C 77.929688 -45.335938 80.328125 -45.171875 83.015625 -45.171875 Z M 42.390625 -121.375 Z M 172.09375 -208.421875 C 173.101562 -208.421875 174.53125 -207.914062 176.375 -206.90625 C 178.226562 -205.894531 179.15625 -203.457031 179.15625 -199.59375 L 179.15625 -179.65625 C 179.15625 -175.789062 178.226562 -173.351562 176.375 -172.34375 C 174.53125 -171.332031 173.101562 -170.828125 172.09375 -170.828125 L 27 -171.078125 C 25.988281 -171.078125 24.597656 -171.539062 22.828125 -172.46875 C 21.066406 -173.394531 20.1875 -175.789062 20.1875 -179.65625 L 20.1875 -199.34375 C 20.1875 -203.375 21.066406 -205.894531 22.828125 -206.90625 C 24.597656 -207.914062 25.988281 -208.421875 27 -208.421875 Z M 172.09375 -208.421875 "/></g></g></g></g><g fill="#00bf63" fill-opacity="1"><g transform="translate(1119.705529, 209.23792)"><g><path d="M 192.28125 -147.609375 L 192.28125 -146.09375 C 192.28125 -146.257812 192.28125 -146.382812 192.28125 -146.46875 C 192.28125 -146.5625 192.28125 -146.691406 192.28125 -146.859375 C 192.28125 -147.023438 192.28125 -147.148438 192.28125 -147.234375 C 192.28125 -147.316406 192.28125 -147.441406 192.28125 -147.609375 Z M 197.0625 -10.84375 C 198.070312 -9.5 198.410156 -7.484375 198.078125 -4.796875 C 197.578125 -1.429688 195.644531 0.25 192.28125 0.25 L 164.515625 0.25 C 162.328125 0.25 160.5625 -0.253906 159.21875 -1.265625 C 158.71875 -1.597656 158.253906 -2.097656 157.828125 -2.765625 C 157.410156 -3.441406 156.945312 -4.117188 156.4375 -4.796875 L 110.765625 -85.796875 L 57.53125 -85.796875 L 57.53125 -8.578125 C 57.53125 -4.710938 56.644531 -2.273438 54.875 -1.265625 C 53.113281 -0.253906 51.644531 0.25 50.46875 0.25 L 27.5 0.25 C 26.320312 0.25 24.804688 -0.253906 22.953125 -1.265625 C 21.109375 -2.273438 20.1875 -4.710938 20.1875 -8.578125 L 20.1875 -114.5625 C 20.1875 -118.425781 21.109375 -120.820312 22.953125 -121.75 C 24.804688 -122.675781 26.320312 -123.140625 27.5 -123.140625 L 137.265625 -123.140625 C 143.660156 -123.140625 148.117188 -124.988281 150.640625 -128.6875 C 153.328125 -132.382812 154.671875 -138.441406 154.671875 -146.859375 C 154.671875 -155.265625 153.328125 -161.316406 150.640625 -165.015625 C 148.117188 -168.722656 143.660156 -170.578125 137.265625 -170.578125 L 27.5 -170.578125 C 26.320312 -170.578125 24.804688 -171.035156 22.953125 -171.953125 C 21.109375 -172.878906 20.1875 -175.28125 20.1875 -179.15625 L 20.1875 -199.09375 C 20.1875 -203.125 21.109375 -205.601562 22.953125 -206.53125 C 24.804688 -207.457031 26.320312 -207.921875 27.5 -207.921875 L 143.828125 -207.921875 C 161.148438 -207.921875 173.597656 -202.535156 181.171875 -191.765625 C 188.398438 -181.335938 192.101562 -166.367188 192.28125 -146.859375 C 192.101562 -127.335938 188.398438 -112.363281 181.171875 -101.9375 C 174.773438 -93.1875 165.351562 -88.054688 152.90625 -86.546875 Z M 197.0625 -10.84375 "/></g></g></g></g></g><g transform="matrix(1, 0, 0, 1, 39, 18)"><g clip-path="url(#834e191dbe)"><g fill="#000000" fill-opacity="1"><g transform="translate(0.464783, 81.292525)"><g><path d="M 58.515625 -69.4375 L 85.21875 -3.609375 C 85.59375 -2.722656 85.6875 -1.960938 85.5 -1.328125 C 85.4375 -1.078125 85.257812 -0.773438 84.96875 -0.421875 C 84.6875 -0.078125 84.164062 0.09375 83.40625 0.09375 L 73.25 0.09375 C 71.914062 0.09375 70.992188 -0.601562 70.484375 -2 L 46.9375 -60.796875 C 46.863281 -60.921875 46.828125 -60.984375 46.828125 -60.984375 L 46.453125 -60.984375 C 46.453125 -60.984375 46.4375 -60.96875 46.40625 -60.9375 C 46.375 -60.90625 46.328125 -60.828125 46.265625 -60.703125 L 34.109375 -29.921875 L 45.890625 -29.921875 C 47.210938 -29.921875 48.128906 -29.289062 48.640625 -28.03125 L 52.0625 -19.5625 C 52.375 -18.488281 52.25 -17.570312 51.6875 -16.8125 C 51.175781 -15.925781 50.347656 -15.484375 49.203125 -15.484375 L 28.40625 -15.484375 L 22.984375 -1.90625 C 22.484375 -0.570312 21.597656 0.09375 20.328125 0.09375 L 9.875 0.09375 C 9.113281 0.09375 8.59375 -0.078125 8.3125 -0.421875 C 8.03125 -0.773438 7.859375 -1.078125 7.796875 -1.328125 C 7.597656 -1.898438 7.660156 -2.660156 7.984375 -3.609375 L 34.484375 -69.4375 C 35.753906 -72.800781 37.148438 -75.113281 38.671875 -76.375 C 38.859375 -76.5 39.078125 -76.65625 39.328125 -76.84375 C 39.578125 -77.039062 39.832031 -77.203125 40.09375 -77.328125 C 41.988281 -78.660156 44.171875 -79.328125 46.640625 -79.328125 C 49.242188 -79.328125 51.585938 -78.535156 53.671875 -76.953125 C 55.765625 -75.367188 57.191406 -73.34375 57.953125 -70.875 C 58.078125 -70.675781 58.1875 -70.453125 58.28125 -70.203125 C 58.375 -69.953125 58.453125 -69.695312 58.515625 -69.4375 Z M 58.515625 -69.4375 "/></g></g></g><g fill="#000000" fill-opacity="1"><g transform="translate(87.37751, 81.292525)"><g><path d="M 72.484375 -60.609375 C 73.429688 -56.617188 73.90625 -51.929688 73.90625 -46.546875 L 73.90625 -31.640625 C 73.90625 -26.253906 73.429688 -21.566406 72.484375 -17.578125 C 72.035156 -15.609375 71.414062 -13.785156 70.625 -12.109375 C 69.832031 -10.429688 68.929688 -8.957031 67.921875 -7.6875 C 65.835938 -5.03125 63.144531 -3.070312 59.84375 -1.8125 C 56.613281 -0.539062 52.785156 0.09375 48.359375 0.09375 L 15.859375 0.09375 C 14.410156 0.09375 13.035156 -0.269531 11.734375 -1 C 10.429688 -1.726562 9.398438 -2.722656 8.640625 -3.984375 C 8.140625 -4.867188 7.789062 -5.851562 7.59375 -6.9375 L 7.6875 -71.8125 C 7.820312 -72.195312 7.96875 -72.59375 8.125 -73 C 8.28125 -73.414062 8.453125 -73.8125 8.640625 -74.1875 C 10.160156 -76.664062 12.347656 -78 15.203125 -78.1875 L 15.203125 -78.28125 L 48.359375 -78.28125 C 52.722656 -78.28125 56.550781 -77.644531 59.84375 -76.375 C 63.070312 -75.113281 65.765625 -73.179688 67.921875 -70.578125 C 68.929688 -69.253906 69.832031 -67.769531 70.625 -66.125 C 71.414062 -64.476562 72.035156 -62.640625 72.484375 -60.609375 Z M 21.5625 -14.53125 C 21.5625 -14.34375 21.578125 -14.21875 21.609375 -14.15625 C 21.640625 -14.09375 21.65625 -14.0625 21.65625 -14.0625 L 48.0625 -14.0625 C 49.144531 -14.0625 50.160156 -14.125 51.109375 -14.25 C 52.054688 -14.375 52.910156 -14.5625 53.671875 -14.8125 C 55.128906 -15.382812 56.300781 -16.242188 57.1875 -17.390625 C 58.132812 -18.648438 58.800781 -20.296875 59.1875 -22.328125 C 59.375 -23.398438 59.53125 -24.582031 59.65625 -25.875 C 59.78125 -27.175781 59.84375 -28.617188 59.84375 -30.203125 L 59.84375 -47.96875 C 59.84375 -49.550781 59.78125 -51.007812 59.65625 -52.34375 C 59.53125 -53.675781 59.375 -54.878906 59.1875 -55.953125 C 58.800781 -57.984375 58.132812 -59.597656 57.1875 -60.796875 C 56.425781 -61.941406 55.253906 -62.796875 53.671875 -63.359375 C 52.148438 -63.929688 50.28125 -64.21875 48.0625 -64.21875 L 21.75 -64.21875 C 21.625 -64.21875 21.5625 -64.03125 21.5625 -63.65625 Z M 21.5625 -14.53125 "/></g></g></g><g fill="#000000" fill-opacity="1"><g transform="translate(162.511489, 81.292525)"><g><path d="M 58.515625 -69.4375 L 85.21875 -3.609375 C 85.59375 -2.722656 85.6875 -1.960938 85.5 -1.328125 C 85.4375 -1.078125 85.257812 -0.773438 84.96875 -0.421875 C 84.6875 -0.078125 84.164062 0.09375 83.40625 0.09375 L 73.25 0.09375 C 71.914062 0.09375 70.992188 -0.601562 70.484375 -2 L 46.9375 -60.796875 C 46.863281 -60.921875 46.828125 -60.984375 46.828125 -60.984375 L 46.453125 -60.984375 C 46.453125 -60.984375 46.4375 -60.96875 46.40625 -60.9375 C 46.375 -60.90625 46.328125 -60.828125 46.265625 -60.703125 L 34.109375 -29.921875 L 45.890625 -29.921875 C 47.210938 -29.921875 48.128906 -29.289062 48.640625 -28.03125 L 52.0625 -19.5625 C 52.375 -18.488281 52.25 -17.570312 51.6875 -16.8125 C 51.175781 -15.925781 50.347656 -15.484375 49.203125 -15.484375 L 28.40625 -15.484375 L 22.984375 -1.90625 C 22.484375 -0.570312 21.597656 0.09375 20.328125 0.09375 L 9.875 0.09375 C 9.113281 0.09375 8.59375 -0.078125 8.3125 -0.421875 C 8.03125 -0.773438 7.859375 -1.078125 7.796875 -1.328125 C 7.597656 -1.898438 7.660156 -2.660156 7.984375 -3.609375 L 34.484375 -69.4375 C 35.753906 -72.800781 37.148438 -75.113281 38.671875 -76.375 C 38.859375 -76.5 39.078125 -76.65625 39.328125 -76.84375 C 39.578125 -77.039062 39.832031 -77.203125 40.09375 -77.328125 C 41.988281 -78.660156 44.171875 -79.328125 46.640625 -79.328125 C 49.242188 -79.328125 51.585938 -78.535156 53.671875 -76.953125 C 55.765625 -75.367188 57.191406 -73.34375 57.953125 -70.875 C 58.078125 -70.675781 58.1875 -70.453125 58.28125 -70.203125 C 58.375 -69.953125 58.453125 -69.695312 58.515625 -69.4375 Z M 58.515625 -69.4375 "/></g></g></g><g fill="#000000" fill-opacity="1"><g transform="translate(249.424216, 81.292525)"><g><path d="M 54.15625 -78.28125 C 60.613281 -78.28125 65.265625 -76.253906 68.109375 -72.203125 C 70.898438 -68.398438 72.296875 -62.664062 72.296875 -55 L 72.296875 -55.578125 C 72.296875 -48.035156 70.898438 -42.300781 68.109375 -38.375 C 65.265625 -34.382812 60.613281 -32.390625 54.15625 -32.390625 L 21.65625 -32.296875 L 21.65625 -3.234375 C 21.65625 -1.773438 21.304688 -0.851562 20.609375 -0.46875 C 19.910156 -0.09375 19.375 0.09375 19 0.09375 L 10.265625 0.09375 C 9.878906 0.09375 9.335938 -0.09375 8.640625 -0.46875 C 7.941406 -0.851562 7.59375 -1.773438 7.59375 -3.234375 L 7.59375 -43.125 C 7.59375 -44.582031 7.941406 -45.484375 8.640625 -45.828125 C 9.335938 -46.179688 9.878906 -46.359375 10.265625 -46.359375 L 51.6875 -46.359375 C 54.09375 -46.359375 55.769531 -47.054688 56.71875 -48.453125 C 57.726562 -49.847656 58.234375 -52.128906 58.234375 -55.296875 C 58.234375 -58.460938 57.726562 -60.738281 56.71875 -62.125 C 55.769531 -63.519531 54.09375 -64.21875 51.6875 -64.21875 L 10.265625 -64.21875 C 9.878906 -64.21875 9.335938 -64.390625 8.640625 -64.734375 C 7.941406 -65.085938 7.59375 -65.992188 7.59375 -67.453125 L 7.59375 -74.953125 C 7.59375 -76.472656 7.941406 -77.40625 8.640625 -77.75 C 9.335938 -78.101562 9.878906 -78.28125 10.265625 -78.28125 Z M 54.15625 -78.28125 "/></g></g></g><g fill="#000000" fill-opacity="1"><g transform="translate(322.943352, 81.292525)"><g><path d="M 73.25 -78.28125 C 73.6875 -78.28125 74.253906 -78.101562 74.953125 -77.75 C 75.648438 -77.40625 76 -76.503906 76 -75.046875 L 76 -67.640625 C 76 -66.054688 75.648438 -65.085938 74.953125 -64.734375 C 74.253906 -64.390625 73.6875 -64.21875 73.25 -64.21875 L 48.828125 -64.21875 L 48.828125 -3.234375 C 48.828125 -1.773438 48.492188 -0.867188 47.828125 -0.515625 C 47.160156 -0.171875 46.609375 0 46.171875 0 L 37.4375 0 C 37.050781 0 36.507812 -0.171875 35.8125 -0.515625 C 35.113281 -0.867188 34.765625 -1.773438 34.765625 -3.234375 L 34.765625 -64.21875 L 10.359375 -64.21875 C 9.910156 -64.21875 9.335938 -64.390625 8.640625 -64.734375 C 7.941406 -65.085938 7.59375 -66.054688 7.59375 -67.640625 L 7.59375 -75.046875 C 7.59375 -76.503906 7.941406 -77.40625 8.640625 -77.75 C 9.335938 -78.101562 9.910156 -78.28125 10.359375 -78.28125 Z M 73.25 -78.28125 "/></g></g></g><g fill="#000000" fill-opacity="1"><g transform="translate(400.167087, 81.292525)"><g><path d="M 64.6875 -17 C 65.132812 -17 65.707031 -16.820312 66.40625 -16.46875 C 67.101562 -16.125 67.453125 -15.226562 67.453125 -13.78125 L 67.453125 -3.328125 C 67.453125 -1.867188 67.101562 -0.960938 66.40625 -0.609375 C 65.707031 -0.265625 65.132812 -0.09375 64.6875 -0.09375 L 30.96875 -0.09375 C 28.875 -0.09375 26.941406 -0.21875 25.171875 -0.46875 C 23.398438 -0.726562 21.785156 -1.140625 20.328125 -1.703125 C 17.222656 -2.785156 14.753906 -4.53125 12.921875 -6.9375 C 11.015625 -9.40625 9.648438 -12.507812 8.828125 -16.25 C 8.515625 -17.832031 8.242188 -19.570312 8.015625 -21.46875 C 7.796875 -23.363281 7.65625 -25.421875 7.59375 -27.640625 L 7.59375 -28.125 L 7.796875 -40.09375 C 7.984375 -40.789062 8.328125 -41.582031 8.828125 -42.46875 C 10.222656 -44.9375 12.378906 -46.265625 15.296875 -46.453125 L 64.3125 -46.546875 C 64.695312 -46.546875 65.234375 -46.367188 65.921875 -46.015625 C 66.617188 -45.671875 66.96875 -44.769531 66.96875 -43.3125 L 66.96875 -35.8125 C 66.96875 -34.351562 66.617188 -33.429688 65.921875 -33.046875 C 65.234375 -32.671875 64.695312 -32.484375 64.3125 -32.484375 L 21.84375 -32.484375 C 21.84375 -32.484375 21.828125 -32.132812 21.796875 -31.4375 C 21.765625 -30.75 21.734375 -29.957031 21.703125 -29.0625 C 21.671875 -28.175781 21.65625 -27.382812 21.65625 -26.6875 C 21.65625 -26 21.65625 -25.65625 21.65625 -25.65625 C 21.71875 -25.394531 21.75 -25.125 21.75 -24.84375 C 21.75 -24.5625 21.78125 -24.289062 21.84375 -24.03125 C 22.101562 -22.257812 22.644531 -20.835938 23.46875 -19.765625 C 24.226562 -18.804688 25.175781 -18.109375 26.3125 -17.671875 C 27.007812 -17.484375 27.753906 -17.320312 28.546875 -17.1875 C 29.335938 -17.0625 30.238281 -17 31.25 -17 Z M 15.953125 -45.6875 Z M 64.796875 -78.46875 C 65.171875 -78.46875 65.707031 -78.273438 66.40625 -77.890625 C 67.101562 -77.515625 67.453125 -76.597656 67.453125 -75.140625 L 67.453125 -67.640625 C 67.453125 -66.179688 67.101562 -65.257812 66.40625 -64.875 C 65.707031 -64.5 65.171875 -64.3125 64.796875 -64.3125 L 10.171875 -64.40625 C 9.785156 -64.40625 9.257812 -64.578125 8.59375 -64.921875 C 7.925781 -65.273438 7.59375 -66.179688 7.59375 -67.640625 L 7.59375 -75.046875 C 7.59375 -76.566406 7.925781 -77.515625 8.59375 -77.890625 C 9.257812 -78.273438 9.785156 -78.46875 10.171875 -78.46875 Z M 64.796875 -78.46875 "/></g></g></g><g fill="#000000" fill-opacity="1"><g transform="translate(468.841784, 81.292525)"><g><path d="M 19 -78.28125 C 19.375 -78.28125 19.910156 -78.085938 20.609375 -77.703125 C 21.304688 -77.328125 21.65625 -76.410156 21.65625 -74.953125 L 21.65625 -3.234375 C 21.65625 -1.773438 21.304688 -0.851562 20.609375 -0.46875 C 19.910156 -0.09375 19.375 0.09375 19 0.09375 L 10.265625 0.09375 C 9.878906 0.09375 9.335938 -0.09375 8.640625 -0.46875 C 7.941406 -0.851562 7.59375 -1.773438 7.59375 -3.234375 L 7.59375 -74.953125 C 7.59375 -76.410156 7.941406 -77.328125 8.640625 -77.703125 C 9.335938 -78.085938 9.878906 -78.28125 10.265625 -78.28125 Z M 19 -78.28125 "/></g></g></g></g></g></svg>