<?xml version="1.0" encoding="UTF-8" standalone="no"?>
<svg
   id="Layer_1"
   version="1.1"
   viewBox="0 0 605.94519 605.831"
   xml:space="preserve"
   sodipodi:docname="convenio-5.svg"
   inkscape:version="1.1.1 (3bf5ae0d25, 2021-09-20)"
   width="605.94519"
   height="605.83099"
   xmlns:inkscape="http://www.inkscape.org/namespaces/inkscape"
   xmlns:sodipodi="http://sodipodi.sourceforge.net/DTD/sodipodi-0.dtd"
   xmlns="http://www.w3.org/2000/svg"
   xmlns:svg="http://www.w3.org/2000/svg"><defs
     id="defs51" /><sodipodi:namedview
     id="namedview49"
     pagecolor="#ffffff"
     bordercolor="#666666"
     borderopacity="1.0"
     inkscape:pageshadow="2"
     inkscape:pageopacity="0.0"
     inkscape:pagecheckerboard="0"
     showgrid="false"
     inkscape:zoom="0.68633543"
     inkscape:cx="629.96365"
     inkscape:cy="315.8346"
     inkscape:window-width="2560"
     inkscape:window-height="1017"
     inkscape:window-x="-8"
     inkscape:window-y="-8"
     inkscape:window-maximized="1"
     inkscape:current-layer="g46"
     fit-margin-top="0"
     fit-margin-left="0"
     fit-margin-right="0"
     fit-margin-bottom="0" /><style
     type="text/css"
     id="style2">
	.st0{fill:#62BEE7;}
	.st1{fill:#474E5E;}
	.st2{fill:#F3EEE4;}
	.st3{fill:#FFFFFF;}
	.st4{fill:#E8DCCA;}
	.st5{opacity:0.1;fill:#231F20;}
	.st6{fill:#506268;}
	.st7{fill:#EB5151;}
	.st8{fill:#C64444;}
	.st9{fill:#9CCB5B;}
	.st10{fill:#404A4C;}
	.st11{fill:#676767;}
	.st12{fill:#E0E1E5;}
	.st13{fill:#9D9EA0;}
	.st14{fill:#B3B4B7;}
	.st15{opacity:0.1;}
	.st16{fill:#231F20;}
	.st17{fill:#FACC20;}
	.st18{fill:#FDEF34;}
	.st19{fill:#F7A90B;}
	.st20{fill:#20B8EA;}
	.st21{fill:#00A8EA;}
	.st22{fill:#33D3F4;}
	.st23{opacity:0.25;fill:#FFFFFF;}
	.st24{fill:#CACBCE;}
	.st25{fill:#2E3545;}
	.st26{fill:#8DAF4A;}
	.st27{fill:#F9C2AF;}
	.st28{fill:#AFDDF4;}
	.st29{fill:#677177;}
	.st30{fill:#FFEDB3;}
	.st31{fill:#695652;}
	.st32{fill:#30A7BF;}
	.st33{fill:#4D5556;}
	.st34{opacity:0.35;}
	.st35{fill:#FFCB04;}
	.st36{fill:#99E9FA;}
	.st37{opacity:0.2;}
	.st38{opacity:3.000000e-02;}
	.st39{fill:#9ECA5B;}
	.st40{fill:#98BA56;}
	.st41{fill:#40EEFF;}
	.st42{fill:#FF6A52;}
	.st43{opacity:0.1;fill:#FFFFFF;}
	.st44{opacity:0.4;}
	.st45{fill:#57606D;}
	.st46{fill:#BACA5B;}
	.st47{opacity:0.25;}
	.st48{opacity:5.000000e-02;fill:#231F20;}
	.st49{opacity:0.2;fill:#FFFFFF;}
	.st50{opacity:0.3;}
	.st51{fill:#FFD82F;}
	.st52{fill:#F4C121;}
	.st53{fill:#EF9D0A;}
	.st54{fill:#F9E532;}
	.st55{fill:#F4C01E;}
	.st56{fill:#FFE14D;}
	.st57{fill:#B7C156;}
	.st58{fill:#DBA92C;}
	.st59{fill:#363D4D;}
	.st60{fill:#3F4656;}
	.st61{fill:#463E33;}
	.st62{fill:none;}
	.st63{opacity:4.000000e-02;}
	.st64{fill:#4DB6AC;}
	.st65{fill:#CADE49;}
	.st66{fill:#9FD343;}
	.st67{fill:#AAD643;}
	.st68{fill:#82C736;}
	.st69{opacity:0.3;fill:#FFFFFF;}
	.st70{fill:#FFD640;}
	.st71{opacity:0.5;}
	.st72{opacity:0.6;}
</style><g
     id="g46"
     transform="translate(-4.8461542,15.142731)"><rect
       style="fill:#eb5151;stroke-width:0.6;paint-order:markers stroke fill"
       id="rect936"
       width="605.94519"
       height="605.83099"
       x="4.8461542"
       y="-15.142731"
       ry="0"
       rx="0" /><g
       id="g44"
       transform="matrix(9.8221031,0,0,9.8221031,-7.9981374,-27.83724)"
       style="stroke-width:0.101811"><path
         class="st3"
         d="m 45.6,34.5 v 0 c -0.8,2 -2.6,3.4 -4.8,3.7 l -8.8,1.3 2.2,6.9 v 0 C 34.8,48.2 33.5,50 31.7,50 H 13.6 V 9.7 H 46 v 22.5 c 0,0.8 -0.1,1.5 -0.4,2.3 z"
         id="path6"
         style="stroke-width:0.101811" /><path
         class="st14"
         d="m 40.8,38.2 -8.8,1.3 2.2,6.9 c 0.3,0.8 0.2,1.7 -0.3,2.4 L 44,36.7 v 0 c -0.8,0.8 -2,1.3 -3.2,1.5 z"
         id="path8"
         style="stroke-width:0.101811" /><g
         id="g12"
         style="stroke-width:0.101811"><path
           class="st12"
           d="m 46,14 v 18.2 c 0,0.8 -0.1,1.5 -0.4,2.3 -0.3,0.9 -0.9,1.6 -1.6,2.2 v 0 L 34,48.8 C 33.5,49.5 32.7,50 31.8,50 H 18 v 4.3 H 50.4 V 14 Z"
           id="path10"
           style="stroke-width:0.101811" /></g><g
         id="g30"
         style="stroke-width:0.101811"><rect
           class="st12"
           height="1.6"
           width="24.200001"
           x="16.1"
           y="28.799999"
           id="rect14"
           style="stroke-width:0.101811" /><rect
           class="st12"
           height="1.6"
           width="24.200001"
           x="16.1"
           y="32.099998"
           id="rect16"
           style="stroke-width:0.101811" /><rect
           class="st12"
           height="1.6"
           width="24.200001"
           x="16.1"
           y="35.400002"
           id="rect18"
           style="stroke-width:0.101811" /><g
           id="g24"
           style="stroke-width:0.101811"><rect
             class="st12"
             height="1.6"
             width="13.7"
             x="16.1"
             y="38.599998"
             id="rect20"
             style="stroke-width:0.101811" /><rect
             class="st12"
             height="1.6"
             width="13.7"
             x="16.1"
             y="41.900002"
             id="rect22"
             style="stroke-width:0.101811" /></g><g
           id="g28"
           style="stroke-width:0.101811"><rect
             class="st12"
             height="1.6"
             width="13.7"
             x="16.1"
             y="45.200001"
             id="rect26"
             style="stroke-width:0.101811" /></g></g><g
         id="g42"
         style="stroke-width:0.101811"><path
           class="st17"
           d="m 35.1,24.6 c -1.3,1.2 -3.1,1.9 -5,1.9 -1.9,0 -3.7,-0.7 -5,-1.9 l 1.8,-1.8 c 0.9,0.7 2,1.2 3.2,1.2 1.2,0 2.3,-0.4 3.2,-1.2 z"
           id="path32"
           style="stroke-width:0.101811" /><path
           class="st4"
           d="m 37.6,19 h -2.5 c 0,-1.2 -0.4,-2.3 -1.2,-3.2 C 33,14.7 31.6,14 30.1,14 v -2.5 c 2.2,0 4.2,1 5.6,2.5 1.2,1.3 1.9,3.1 1.9,5 z"
           id="path34"
           style="stroke-width:0.101811" /><path
           class="st2"
           d="m 30.1,14 v -2.5 c -2.1,0 -4,0.8 -5.3,2.2 -0.1,0.1 -0.2,0.2 -0.3,0.3 l 1.8,1.8 C 27.2,14.7 28.5,14 30.1,14 Z"
           id="path36"
           style="stroke-width:0.101811" /><path
           class="st21"
           d="M 24.7,25 C 23,23.5 22,21.3 22,19 c 0,-2 0.7,-3.9 2,-5.3 l 0.3,-0.4 2.5,2.5 -0.3,0.3 c -0.7,0.8 -1.1,1.8 -1.1,2.9 0,1.3 0.6,2.6 1.6,3.5 l 0.4,0.3 -2.5,2.5 z"
           id="path38"
           style="stroke-width:0.101811" /><path
           class="st42"
           d="m 37.6,19 h -2.5 c 0,1.5 -0.7,2.9 -1.8,3.8 l 1.8,1.8 c 1.5,-1.3 2.5,-3.3 2.5,-5.6 z"
           id="path40"
           style="stroke-width:0.101811" /></g></g></g></svg>
