<svg width="24" height="28" viewBox="0 0 24 28" fill="none" xmlns="http://www.w3.org/2000/svg">
<path fill-rule="evenodd" clip-rule="evenodd" d="M8.70923 3.55919C8.9499 3.31851 9.27633 3.18331 9.61669 3.18331H14.3834C14.7237 3.18331 15.0501 3.31851 15.2908 3.55919C15.5315 3.79986 15.6667 4.12628 15.6667 4.46664V5.74997H8.33335V4.46664C8.33335 4.12628 8.46856 3.79986 8.70923 3.55919ZM17.8667 4.46664V5.74997H20.3417L20.3472 5.74999H22.725C23.3326 5.74999 23.825 6.24247 23.825 6.84999C23.825 7.4575 23.3326 7.94999 22.725 7.94999H21.4417V23.5333C21.4417 24.4571 21.0747 25.3431 20.4214 25.9964C19.7682 26.6496 18.8822 27.0166 17.9584 27.0166H6.04169C5.11785 27.0166 4.23185 26.6496 3.5786 25.9964C2.92535 25.3431 2.55835 24.4571 2.55835 23.5333V7.94999H1.27505C0.667536 7.94999 0.175049 7.4575 0.175049 6.84999C0.175049 6.24247 0.667536 5.74999 1.27505 5.74999H3.65288L3.65835 5.74997H6.13335V4.46664C6.13335 3.5428 6.50035 2.6568 7.1536 2.00355C7.80685 1.3503 8.69285 0.983307 9.61669 0.983307H14.3834C15.3072 0.983307 16.1932 1.3503 16.8464 2.00355C17.4997 2.6568 17.8667 3.5428 17.8667 4.46664ZM4.75835 7.94999V23.5333C4.75835 23.8737 4.89356 24.2001 5.13423 24.4408C5.37491 24.6814 5.70133 24.8166 6.04169 24.8166H17.9584C18.2987 24.8166 18.6251 24.6814 18.8658 24.4408C19.1065 24.2001 19.2417 23.8737 19.2417 23.5333V7.94997L4.75835 7.94999ZM9.61669 11.7083C10.2242 11.7083 10.7167 12.2008 10.7167 12.8083V19.9583C10.7167 20.5658 10.2242 21.0583 9.61669 21.0583C9.00917 21.0583 8.51669 20.5658 8.51669 19.9583V12.8083C8.51669 12.2008 9.00917 11.7083 9.61669 11.7083ZM15.4833 12.8083C15.4833 12.2008 14.9908 11.7083 14.3833 11.7083C13.7758 11.7083 13.2833 12.2008 13.2833 12.8083V19.9583C13.2833 20.5658 13.7758 21.0583 14.3833 21.0583C14.9908 21.0583 15.4833 20.5658 15.4833 19.9583V12.8083Z" fill="#2D5DB9"/>
</svg>
