<svg width="14" height="14" viewBox="0 0 14 14" fill="none" xmlns="http://www.w3.org/2000/svg">
<path fill-rule="evenodd" clip-rule="evenodd" d="M10.2948 12.92C10.0214 13.1933 9.57817 13.1933 9.30481 12.92L5.80482 9.41997C5.53145 9.14661 5.53145 8.70339 5.80482 8.43003C6.07818 8.15666 6.5214 8.15666 6.79476 8.43003L8.9958 10.6311L8.9958 1.9708C8.9958 1.52667 9.35584 1.16663 9.79997 1.16663C10.2441 1.16663 10.6041 1.52667 10.6041 1.9708V10.6307L12.8048 8.43003C13.0782 8.15666 13.5214 8.15666 13.7947 8.43003C14.0681 8.70339 14.0681 9.14661 13.7947 9.41997L10.2948 12.92ZM3.70502 1.66332C3.97838 1.38995 4.4216 1.38995 4.69496 1.66332L8.19495 5.16331C8.46832 5.43667 8.46832 5.87989 8.19495 6.15325C7.92159 6.42662 7.47837 6.42662 7.20501 6.15325L4.96222 3.91046V12.0707C4.96222 12.4919 4.62083 12.8332 4.19972 12.8332C3.7786 12.8332 3.43722 12.4919 3.43722 12.0707V3.911L1.19497 6.15325C0.921605 6.42662 0.478391 6.42662 0.205025 6.15325C-0.0683416 5.87989 -0.0683416 5.43667 0.205025 5.16331L3.70502 1.66332Z" fill="#454E5F"/>
</svg>
