<?xml version="1.0" encoding="UTF-8" standalone="no"?>
<svg
   width="699.99945"
   height="699.99976"
   viewBox="0 0 185.20832 185.20858"
   version="1.1"
   id="svg47"
   sodipodi:docname="hypercard.svg"
   inkscape:version="1.1.1 (3bf5ae0d25, 2021-09-20)"
   xmlns:inkscape="http://www.inkscape.org/namespaces/inkscape"
   xmlns:sodipodi="http://sodipodi.sourceforge.net/DTD/sodipodi-0.dtd"
   xmlns="http://www.w3.org/2000/svg"
   xmlns:svg="http://www.w3.org/2000/svg">
  <sodipodi:namedview
     id="namedview49"
     pagecolor="#ffffff"
     bordercolor="#666666"
     borderopacity="1.0"
     inkscape:pageshadow="2"
     inkscape:pageopacity="0.0"
     inkscape:pagecheckerboard="0"
     showgrid="false"
     showguides="false"
     inkscape:zoom="0.310232"
     inkscape:cx="1979.164"
     inkscape:cy="801.01343"
     inkscape:window-width="2560"
     inkscape:window-height="1017"
     inkscape:window-x="-8"
     inkscape:window-y="-8"
     inkscape:window-maximized="1"
     inkscape:current-layer="g45" />
  <defs
     id="defs5">
    <clipPath
       clipPathUnits="userSpaceOnUse"
       id="a">
      <path
         d="M 0,841.89 H 595.28 V 0 H 0 Z"
         id="path2" />
    </clipPath>
  </defs>
  <g
     clip-path="url(#a)"
     transform="matrix(2.06197,0,0,-2.06197,-93.908606,1723.0441)"
     id="g45">
    <path
       style="fill:#b3131b;fill-opacity:1;stroke-width:0.0769893;paint-order:markers stroke fill"
       d="M 45.542848,835.63004 H 135.36399 V 745.80886 H 45.542848 Z"
       id="path7" />
    <g
       style="stroke-width:0.783293"
       id="g11">
      <path
         d="m 0,0 0.503,2.566 0.51,2.708 0.437,2.727 0.409,2.563 0.036,0.164 H 3.707 C 3.688,10.646 3.688,10.596 3.672,10.564 3.607,10.254 3.477,9.568 3.297,8.509 3.199,7.937 3.067,7.284 2.921,6.548 L 2.889,6.318 h 0.147 l 2.365,-0.03 2.303,0.03 h 0.182 l 0.031,0.23 c 0.098,0.637 0.196,1.307 0.326,2.026 0.263,1.436 0.279,1.535 0.361,2.153 h 1.842 C 10.417,10.612 10.417,10.612 10.398,10.563 10.365,10.4 10.204,9.551 9.925,8.001 L 9.42,5.274 8.962,2.565 C 8.702,1.029 8.57,0.18 8.541,0 c 0,-0.062 0,-0.062 -0.019,-0.161 H 6.677 L 6.712,0 C 6.757,0.197 6.84,0.67 6.969,1.421 7.018,1.702 7.117,2.172 7.247,2.892 l 0.262,1.437 c 0.082,0.439 0.131,0.703 0.146,0.768 0,0.033 0.017,0.079 0.032,0.162 H 7.476 c -0.309,0.015 -1.42,0.015 -2.481,0.015 -1.061,0 -1.766,0 -2.092,-0.014 H 2.693 C 2.66,4.947 2.644,4.885 2.546,4.329 A 45.72,45.72 0 0 1 2.302,2.893 C 2.172,2.123 2.088,1.635 2.056,1.422 A 75.866,75.866 0 0 0 1.811,0 c 0,-0.029 0,-0.096 -0.015,-0.16 h -1.829 z"
         style="fill:#ffffff;fill-opacity:1;fill-rule:nonzero;stroke:none;stroke-width:0.783293"
         transform="matrix(1.27666,0,0,1.27666,51.35,788.008)"
         id="path9" />
    </g>
    <g
       style="stroke-width:0.783293"
       id="g15">
      <path
         d="M 0,0 0.343,1.749 0.718,3.714 1.03,5.618 c 0.157,0.969 0.25,1.576 0.28,1.826 0,0.032 0,0.079 0.016,0.156 H 2.931 A 0.703,0.703 0 0 0 2.888,7.444 C 2.825,7.194 2.716,6.587 2.526,5.618 L 2.168,3.714 1.843,1.749 C 1.699,0.829 1.605,0.236 1.573,0 c 0,-0.03 0,-0.093 -0.012,-0.154 h -1.609 z m 1.64,9.615 c 0,0.794 0.389,1.264 1.076,1.264 0.468,0 0.702,-0.22 0.702,-0.672 C 3.418,9.426 3.011,8.943 2.34,8.943 1.95,8.943 1.716,9.101 1.652,9.395 1.64,9.475 1.64,9.537 1.64,9.615"
         style="fill:#ffffff;fill-opacity:1;fill-rule:nonzero;stroke:none;stroke-width:0.783293"
         transform="matrix(1.27666,0,0,1.27666,64.334,788)"
         id="path13" />
    </g>
    <g
       style="stroke-width:0.783293"
       id="g19">
      <path
         d="m 0,0 c 0.076,0.342 0.264,1.309 0.561,2.931 l 0.514,2.795 0.453,2.683 c 0.219,1.311 0.345,2.138 0.392,2.481 0,0.063 0,0.063 0.014,0.157 H 3.325 L 3.291,10.89 3.216,10.456 3.185,10.283 c 0.749,0.655 1.513,0.934 2.542,0.934 1.747,0 2.684,-0.95 2.684,-2.73 C 8.411,7.504 8.146,6.396 7.692,5.412 6.956,3.868 5.742,3.087 4.104,3.087 c -1.032,0 -1.5,0.282 -1.873,1.092 L 2.2,3.994 1.841,1.684 C 1.716,0.903 1.619,0.342 1.59,0.014 1.59,0 1.59,-0.063 1.577,-0.173 H -0.048 L 0,0 M 3.118,9.145 2.604,6.241 A 3.716,3.716 0 0 1 2.543,5.646 c 0,-1.013 0.516,-1.515 1.528,-1.515 0.672,0 1.218,0.238 1.624,0.69 0.64,0.732 1.077,2.167 1.077,3.478 0,1.265 -0.561,1.891 -1.779,1.891 -0.734,0 -1.343,-0.283 -1.828,-0.812 z"
         style="fill:#ffffff;fill-opacity:1;fill-rule:nonzero;stroke:none;stroke-width:0.783293"
         transform="matrix(1.27666,0,0,1.27666,67.422,783.6)"
         id="path17" />
    </g>
    <g
       style="stroke-width:0.783293"
       id="g23">
      <path
         d="m 0,0 c -2.103,0 -3.137,0.902 -3.137,2.777 0,1.031 0.267,2.185 0.72,3.151 0.686,1.452 1.968,2.169 3.854,2.169 1.794,0 2.687,-0.684 2.687,-2.043 0,-0.389 -0.096,-1 -0.251,-1.7 L 3.701,4.37 c -0.28,0.014 -1.156,0.014 -2.623,0.014 -1.248,0 -2.011,0 -2.307,-0.014 L -1.389,4.354 C -1.528,3.652 -1.541,3.478 -1.541,2.979 c 0,-1.25 0.715,-1.92 2.058,-1.92 0.876,0 1.716,0.171 2.655,0.578 L 2.936,0.389 A 11.464,11.464 0 0 0 0,0 m -1.013,5.259 c 0.172,-0.017 0.75,-0.017 1.718,-0.017 h 0.249 c 0.702,0 1.186,0 1.466,0.017 h 0.142 l 0.03,0.203 c 0.031,0.186 0.048,0.359 0.048,0.513 0,0.766 -0.517,1.139 -1.515,1.139 -1.265,0 -1.983,-0.56 -2.31,-1.855 z"
         style="fill:#ffffff;fill-opacity:1;fill-rule:nonzero;stroke:none;stroke-width:0.783293"
         transform="matrix(1.27666,0,0,1.27666,82.7,787.584)"
         id="path21" />
    </g>
    <g
       style="stroke-width:0.783293"
       id="g27">
      <path
         d="m 0,0 0.345,1.749 0.374,1.965 0.312,1.904 c 0.156,0.969 0.249,1.576 0.281,1.826 0,0.032 0.016,0.079 0.016,0.156 H 2.731 L 2.701,7.444 2.517,6.461 2.467,6.244 C 2.731,6.663 2.826,6.775 3.027,7.01 3.468,7.507 4.044,7.773 4.652,7.773 4.966,7.773 5.231,7.71 5.525,7.57 L 5.324,6.446 A 2.93,2.93 0 0 1 4.403,6.6 C 3.468,6.6 2.639,5.758 2.31,4.465 A 19.954,19.954 0 0 1 1.97,2.762 C 1.657,0.812 1.623,0.657 1.562,-0.154 H -0.03 Z"
         style="fill:#ffffff;fill-opacity:1;fill-rule:nonzero;stroke:none;stroke-width:0.783293"
         transform="matrix(1.27666,0,0,1.27666,88.259,788)"
         id="path25" />
    </g>
    <g
       style="stroke-width:0.783293"
       id="g31">
      <path
         d="m 0,0 a 6.109,6.109 0 0 1 -2,0.36 c -0.763,0 -1.344,-0.189 -1.731,-0.563 -0.64,-0.609 -1.139,-2.123 -1.139,-3.48 0,-1.328 0.579,-1.968 1.765,-1.968 0.702,0 1.607,0.219 2.229,0.531 L -1.095,-6.304 A 7.828,7.828 0 0 0 -3.589,-6.71 c -1.22,0 -1.89,0.282 -2.406,0.982 -0.343,0.499 -0.483,1.014 -0.483,1.841 0,1.077 0.265,2.2 0.765,3.185 0.22,0.453 0.53,0.858 0.921,1.202 0.687,0.623 1.561,0.889 2.981,0.889 0.499,0 1.028,-0.032 1.872,-0.109 L 0.217,1.265 Z"
         style="fill:#ffffff;fill-opacity:1;fill-rule:nonzero;stroke:none;stroke-width:0.783293"
         transform="matrix(1.27666,0,0,1.27666,102.48,796.15)"
         id="path29" />
    </g>
    <g
       style="stroke-width:0.783293"
       id="g35">
      <path
         d="m 0,0 c -1.577,0 -2.324,0.656 -2.324,2.027 0,2.03 1.434,3.198 3.916,3.198 0.389,0 1.155,-0.029 1.668,-0.061 L 3.294,5.335 C 3.402,5.898 3.402,5.944 3.402,6.132 3.402,6.756 2.887,7.07 1.825,7.07 1.016,7.07 0.236,6.943 -0.781,6.661 l 0.314,1.282 c 0.061,-0.016 0.108,-0.016 0.139,-0.016 0.248,0 0.641,0.031 1.186,0.094 0.468,0.046 0.936,0.076 1.372,0.076 1.857,0 2.686,-0.484 2.686,-1.56 C 4.916,6.258 4.87,5.944 4.744,5.259 L 4.494,3.838 C 4.216,2.323 4.059,1.121 4.059,0.42 c 0,-0.062 0,-0.155 0.013,-0.248 H 2.668 v 0.123 c 0,0.221 0.064,0.704 0.125,1.157 C 2.091,0.42 1.265,0 0,0 M 2.934,4.274 A 8.87,8.87 0 0 1 1.904,4.32 c -0.953,0 -1.514,-0.122 -1.95,-0.467 -0.467,-0.359 -0.75,-0.95 -0.75,-1.606 0,-0.783 0.468,-1.201 1.324,-1.201 0.861,0 1.625,0.467 2.002,1.23 0.233,0.501 0.404,1.11 0.559,1.984 z"
         style="fill:#ffffff;fill-opacity:1;fill-rule:nonzero;stroke:none;stroke-width:0.783293"
         transform="matrix(1.27666,0,0,1.27666,105.467,787.584)"
         id="path33" />
    </g>
    <g
       style="stroke-width:0.783293"
       id="g39">
      <path
         d="m 0,0 0.34,1.749 0.379,1.965 0.312,1.904 c 0.154,0.969 0.248,1.576 0.277,1.826 0,0.032 0.017,0.079 0.017,0.156 H 2.731 L 2.696,7.444 2.51,6.461 2.464,6.244 C 2.731,6.663 2.823,6.775 3.026,7.01 3.465,7.507 4.04,7.773 4.65,7.773 4.961,7.773 5.226,7.71 5.523,7.57 L 5.32,6.446 A 2.923,2.923 0 0 1 4.397,6.6 C 3.465,6.6 2.637,5.758 2.31,4.465 A 20.217,20.217 0 0 1 1.966,2.762 C 1.654,0.812 1.622,0.657 1.558,-0.154 h -1.59 z"
         style="fill:#ffffff;fill-opacity:1;fill-rule:nonzero;stroke:none;stroke-width:0.783293"
         transform="matrix(1.27666,0,0,1.27666,112.382,788)"
         id="path37" />
    </g>
    <g
       style="stroke-width:0.783293"
       id="g43">
      <path
         d="m 0,0 c -1.826,0 -2.684,0.842 -2.684,2.666 0,1.062 0.265,2.187 0.764,3.155 0.749,1.496 2.046,2.276 3.76,2.276 0.486,0 0.969,-0.045 1.358,-0.139 0.127,-0.046 0.206,-0.062 0.439,-0.14 l 0.03,0.188 c 0.063,0.312 0.141,0.809 0.249,1.497 0.124,0.749 0.204,1.295 0.25,1.641 l 0.017,0.124 h 1.591 l -0.03,-0.11 C 5.617,10.532 5.433,9.596 5.198,8.318 A 202.855,202.855 0 0 1 4.385,3.761 C 4.103,2.027 3.979,0.967 3.979,0.282 V 0.172 H 2.528 C 2.542,0.42 2.542,0.499 2.591,0.826 2.638,1.078 2.655,1.168 2.685,1.435 2.063,0.373 1.344,0 0,0 M 1.919,7.083 C 1.233,7.083 0.674,6.897 0.265,6.537 -0.514,5.851 -1.045,4.37 -1.045,2.839 c 0,-1.233 0.5,-1.793 1.59,-1.793 0.813,0 1.578,0.467 1.919,1.187 0.159,0.34 0.282,0.763 0.392,1.245 0.188,0.953 0.438,2.311 0.578,3.139 L 3.45,6.787 C 2.889,6.989 2.448,7.083 1.919,7.083"
         style="fill:#ffffff;fill-opacity:1;fill-rule:nonzero;stroke:none;stroke-width:0.783293"
         transform="matrix(1.27666,0,0,1.27666,121.757,787.584)"
         id="path41" />
    </g>
  </g>
</svg>
