<?xml version="1.0" encoding="iso-8859-1"?>
<!-- Generator: Adobe Illustrator 19.0.0, SVG Export Plug-In . SVG Version: 6.00 Build 0)  -->
<svg version="1.1" id="Layer_1" xmlns="http://www.w3.org/2000/svg" xmlns:xlink="http://www.w3.org/1999/xlink" x="0px" y="0px"
	 viewBox="0 0 491.52 491.52" style="enable-background:new 0 0 491.52 491.52;" xml:space="preserve">
<circle style="fill:#EA8953;" cx="245.76" cy="245.76" r="245.76"/>
<path style="opacity:0.1;enable-background:new    ;" d="M217.344,104.96L104.96,170.957v18.073l11.622,11.622
	c0.256,1.024,1.024,1.792,2.048,2.048l1.331,1.331v93.901h-0.614c-1.587,0-2.867,1.28-2.867,2.867v10.906h-11.52v18.073
	l160.858,160.858c100.645-8.138,184.138-76.859,213.944-169.698L329.779,170.957L217.344,104.96z"/>
<rect x="104.96" y="170.957" style="fill:#D5D6DB;" width="224.809" height="18.079"/>
<g>
	<rect x="104.96" y="311.69" style="fill:#EBF0F3;" width="224.809" height="18.079"/>
	<polygon style="fill:#EBF0F3;" points="217.364,104.96 104.96,170.957 329.767,170.957 	"/>
</g>
<polygon style="fill:#E1E6E9;" points="150.062,158.694 217.365,119.179 284.667,158.694 "/>
<rect x="119.972" y="199.562" style="fill:#EBF0F3;" width="35.292" height="103.424"/>
<g>
	<path style="fill:#E1E6E9;" d="M155.907,297.934h-36.578c-1.585,0-2.87,1.285-2.87,2.87v10.885h42.319v-10.885
		C158.778,299.219,157.492,297.934,155.907,297.934z"/>
	<path style="fill:#E1E6E9;" d="M116.459,189.035v10.885c0,1.585,1.285,2.87,2.87,2.87h36.578c1.585,0,2.87-1.285,2.87-2.87v-10.885
		H116.459z"/>
	<path style="fill:#E1E6E9;" d="M127.951,291.898c-1.13,0-2.044-0.914-2.044-2.044v-77.17c0-1.13,0.914-2.044,2.044-2.044
		c1.13,0,2.044,0.914,2.044,2.044v77.17C129.994,290.984,129.08,291.898,127.951,291.898z"/>
	<path style="fill:#E1E6E9;" d="M137.618,291.898c-1.13,0-2.044-0.914-2.044-2.044v-77.17c0-1.13,0.914-2.044,2.044-2.044
		s2.044,0.914,2.044,2.044v77.17C139.662,290.984,138.748,291.898,137.618,291.898z"/>
	<path style="fill:#E1E6E9;" d="M147.286,291.898c-1.13,0-2.044-0.914-2.044-2.044v-77.17c0-1.13,0.914-2.044,2.044-2.044
		s2.044,0.914,2.044,2.044v77.17C149.33,290.984,148.416,291.898,147.286,291.898z"/>
</g>
<rect x="199.731" y="199.562" style="fill:#EBF0F3;" width="35.292" height="103.424"/>
<g>
	<path style="fill:#E1E6E9;" d="M235.653,297.934h-36.578c-1.585,0-2.87,1.285-2.87,2.87v10.885h42.319v-10.885
		C238.523,299.219,237.238,297.934,235.653,297.934z"/>
	<path style="fill:#E1E6E9;" d="M196.204,189.035v10.885c0,1.585,1.285,2.87,2.87,2.87h36.578c1.585,0,2.87-1.285,2.87-2.87v-10.885
		H196.204z"/>
	<path style="fill:#E1E6E9;" d="M207.696,291.898c-1.13,0-2.044-0.914-2.044-2.044v-77.17c0-1.13,0.914-2.044,2.044-2.044
		c1.13,0,2.044,0.914,2.044,2.044v77.17C209.74,290.984,208.825,291.898,207.696,291.898z"/>
	<path style="fill:#E1E6E9;" d="M217.364,291.898c-1.13,0-2.044-0.914-2.044-2.044v-77.17c0-1.13,0.914-2.044,2.044-2.044
		s2.044,0.914,2.044,2.044v77.17C219.407,290.984,218.493,291.898,217.364,291.898z"/>
	<path style="fill:#E1E6E9;" d="M227.031,291.898c-1.13,0-2.044-0.914-2.044-2.044v-77.17c0-1.13,0.914-2.044,2.044-2.044
		s2.044,0.914,2.044,2.044v77.17C229.075,290.984,228.161,291.898,227.031,291.898z"/>
</g>
<rect x="279.45" y="199.562" style="fill:#EBF0F3;" width="35.292" height="103.424"/>
<g>
	<path style="fill:#E1E6E9;" d="M315.398,297.934H278.82c-1.585,0-2.87,1.285-2.87,2.87v10.885h42.319v-10.885
		C318.268,299.219,316.983,297.934,315.398,297.934z"/>
	<path style="fill:#E1E6E9;" d="M275.949,189.035v10.885c0,1.585,1.285,2.87,2.87,2.87h36.578c1.585,0,2.871-1.285,2.871-2.87
		v-10.885H275.949z"/>
	<path style="fill:#E1E6E9;" d="M287.441,291.898c-1.13,0-2.044-0.914-2.044-2.044v-77.17c0-1.13,0.914-2.044,2.044-2.044
		c1.13,0,2.044,0.914,2.044,2.044v77.17C289.485,290.984,288.571,291.898,287.441,291.898z"/>
	<path style="fill:#E1E6E9;" d="M297.109,291.898c-1.13,0-2.044-0.914-2.044-2.044v-77.17c0-1.13,0.914-2.044,2.044-2.044
		s2.044,0.914,2.044,2.044v77.17C299.152,290.984,298.238,291.898,297.109,291.898z"/>
	<path style="fill:#E1E6E9;" d="M306.776,291.898c-1.13,0-2.044-0.914-2.044-2.044v-77.17c0-1.13,0.914-2.044,2.044-2.044
		c1.13,0,2.044,0.914,2.044,2.044v77.17C308.82,290.984,307.906,291.898,306.776,291.898z"/>
</g>
<path style="fill:#DC8744;" d="M216.683,153.497v-2.262c-2.832-0.289-5.375-1.415-7.624-3.377l2.262-2.696
	c1.735,1.508,3.521,2.406,5.362,2.696v-6.013c-2.336-0.557-4.046-1.291-5.13-2.201c-1.085-0.909-1.627-2.257-1.627-4.044
	s0.623-3.249,1.874-4.386c1.251-1.136,2.878-1.755,4.883-1.859v-1.55h1.982v1.58c2.272,0.166,4.421,0.941,6.447,2.325l-2.015,2.851
	c-1.364-0.971-2.84-1.57-4.431-1.798v5.826h0.093c2.376,0.559,4.121,1.313,5.236,2.262c1.117,0.951,1.675,2.33,1.675,4.138
	c0,1.808-0.641,3.281-1.922,4.416c-1.281,1.137-2.974,1.757-5.082,1.86v2.231H216.683z M214.496,133.493
	c-0.527,0.464-0.789,1.043-0.789,1.735c0,0.692,0.207,1.24,0.62,1.642c0.411,0.404,1.198,0.791,2.356,1.163v-5.362
	C215.752,132.754,215.023,133.028,214.496,133.493z M221.021,147.082c0.578-0.474,0.868-1.073,0.868-1.797
	c0-0.723-0.227-1.296-0.681-1.72c-0.456-0.424-1.304-0.821-2.542-1.193v5.578C219.656,147.848,220.441,147.558,221.021,147.082z"/>
<polygon style="fill:#31978C;" points="355.742,311.209 321.748,299.497 255.681,322.759 195.783,329.673 195.783,343.848 
	260.595,366.179 386.56,321.828 386.56,307.652 "/>
<polygon style="fill:#3EA69B;" points="321.748,285.321 195.783,329.672 260.595,352.003 386.56,307.652 "/>
<path style="fill:#44C4A1;" d="M252.041,345.865l-38.543-13.28c4.646-1.636,4.605-4.274-0.092-5.892l99.98-35.202
	c4.696,1.618,12.27,1.604,16.916-0.032l38.543,13.28c-4.646,1.636-4.605,4.274,0.092,5.892l-99.98,35.202
	C264.26,344.215,256.687,344.229,252.041,345.865z"/>
<g>
	<path style="fill:#3EA69B;" d="M308.448,312.579c12.21,4.207,14.373,10.341,4.831,13.7s-27.175,2.673-39.385-1.534
		c-12.21-4.207-14.373-10.341-4.831-13.7S296.239,308.372,308.448,312.579z"/>
	<path style="fill:#3EA69B;" d="M344.014,300.056c2.183,0.752,2.202,1.978,0.043,2.738c-2.159,0.76-5.678,0.767-7.861,0.015
		c-2.183-0.752-2.202-1.978-0.043-2.738C338.312,299.311,341.832,299.304,344.014,300.056z"/>
	<path style="fill:#3EA69B;" d="M246.147,334.515c2.183,0.752,2.202,1.978,0.043,2.738s-5.678,0.767-7.861,0.015
		c-2.183-0.752-2.202-1.978-0.043-2.738C240.445,333.77,243.965,333.763,246.147,334.515z"/>
</g>
<path style="fill:#44C4A1;" d="M308.042,325.125l-3.136-1.08c-4.284,1.229-9.33,1.919-15.134,2.068l-0.635-2.38
	c4.47-0.117,8.162-0.551,11.089-1.301l-8.334-2.871c-3.975,0.861-7.337,1.336-10.084,1.426c-2.747,0.089-5.359-0.293-7.836-1.146
	s-3.648-1.852-3.51-2.999c0.14-1.147,1.513-2.228,4.118-3.245l-2.148-0.74l2.718-0.957l2.19,0.755
	c3.346-1.018,7.366-1.685,12.062-2.002l1.189,2.334c-3.217,0.195-6.07,0.621-8.568,1.281l8.075,2.782l0.128-0.045
	c4.032-0.88,7.47-1.363,10.315-1.447c2.85-0.085,5.526,0.304,8.031,1.167c2.506,0.864,3.67,1.876,3.486,3.037
	c-0.18,1.162-1.642,2.274-4.39,3.342l3.092,1.065L308.042,325.125z M277.318,316.628c-0.08,0.476,0.363,0.879,1.323,1.21
	c0.96,0.331,2.002,0.492,3.126,0.485c1.123-0.006,2.738-0.201,4.841-0.582l-7.432-2.561
	C278.016,315.669,277.396,316.151,277.318,316.628z M305.099,319.968c0.135-0.505-0.298-0.931-1.301-1.277
	c-1.002-0.345-2.108-0.509-3.318-0.493c-1.213,0.018-2.926,0.237-5.139,0.658l7.731,2.664
	C304.289,320.992,304.962,320.475,305.099,319.968z"/>
<polygon style="fill:#31978C;" points="355.742,294.558 321.748,282.846 255.681,306.108 195.783,313.022 195.783,327.198 
	260.595,349.528 386.56,305.177 386.56,291.001 "/>
<polygon style="fill:#3EA69B;" points="321.748,268.67 195.783,313.022 260.595,335.352 386.56,291.001 "/>
<path style="fill:#44C4A1;" d="M252.041,329.214l-38.543-13.28c4.646-1.636,4.605-4.274-0.092-5.892l99.98-35.202
	c4.696,1.618,12.27,1.604,16.916-0.032l38.543,13.28c-4.646,1.636-4.605,4.274,0.092,5.892l-99.98,35.202
	C264.26,327.564,256.687,327.579,252.041,329.214z"/>
<g>
	<path style="fill:#3EA69B;" d="M308.448,295.928c12.21,4.207,14.373,10.341,4.831,13.7s-27.175,2.673-39.385-1.534
		c-12.21-4.207-14.373-10.341-4.831-13.7C278.605,291.034,296.239,291.721,308.448,295.928z"/>
	<path style="fill:#3EA69B;" d="M344.014,283.406c2.183,0.752,2.202,1.978,0.043,2.738c-2.159,0.76-5.678,0.767-7.861,0.015
		c-2.183-0.752-2.202-1.978-0.043-2.738C338.312,282.66,341.832,282.654,344.014,283.406z"/>
	<path style="fill:#3EA69B;" d="M246.147,317.864c2.183,0.752,2.202,1.978,0.043,2.738c-2.159,0.76-5.678,0.767-7.861,0.015
		c-2.183-0.752-2.202-1.978-0.043-2.738C240.445,317.119,243.965,317.112,246.147,317.864z"/>
</g>
<path style="fill:#44C4A1;" d="M308.042,308.475l-3.136-1.08c-4.284,1.229-9.33,1.919-15.134,2.068l-0.635-2.38
	c4.47-0.117,8.162-0.551,11.089-1.301l-8.334-2.871c-3.975,0.861-7.337,1.336-10.084,1.426c-2.747,0.089-5.359-0.293-7.836-1.146
	c-2.477-0.853-3.648-1.852-3.51-2.999c0.14-1.147,1.513-2.228,4.118-3.245l-2.148-0.74l2.718-0.957l2.19,0.755
	c3.346-1.018,7.366-1.685,12.062-2.002l1.189,2.334c-3.217,0.195-6.07,0.621-8.568,1.28l8.075,2.782l0.128-0.045
	c4.032-0.88,7.47-1.363,10.315-1.447c2.85-0.085,5.526,0.304,8.031,1.167c2.506,0.864,3.67,1.876,3.486,3.037
	c-0.18,1.162-1.642,2.274-4.39,3.342l3.092,1.065L308.042,308.475z M277.318,299.977c-0.08,0.476,0.363,0.879,1.323,1.21
	c0.96,0.331,2.002,0.492,3.126,0.485c1.123-0.006,2.738-0.201,4.841-0.582l-7.432-2.561
	C278.016,299.018,277.396,299.5,277.318,299.977z M305.099,303.317c0.135-0.505-0.298-0.931-1.301-1.277
	c-1.002-0.345-2.108-0.509-3.318-0.493c-1.213,0.018-2.926,0.237-5.139,0.658l7.731,2.664
	C304.289,304.341,304.962,303.824,305.099,303.317z"/>
<polygon style="fill:#31978C;" points="355.742,277.907 321.748,266.195 255.681,289.457 195.783,296.371 195.783,310.547 
	260.595,332.878 386.56,288.526 386.56,274.35 "/>
<polygon style="fill:#3EA69B;" points="321.748,252.019 195.783,296.371 260.595,318.702 386.56,274.35 "/>
<path style="fill:#44C4A1;" d="M252.041,312.564l-38.543-13.28c4.646-1.636,4.605-4.274-0.092-5.892l99.98-35.202
	c4.696,1.618,12.27,1.604,16.916-0.032l38.543,13.28c-4.646,1.636-4.605,4.274,0.092,5.892l-99.98,35.202
	C264.26,310.913,256.687,310.928,252.041,312.564z"/>
<g>
	<path style="fill:#3EA69B;" d="M308.448,279.277c12.21,4.207,14.373,10.341,4.831,13.7s-27.175,2.673-39.385-1.534
		c-12.21-4.207-14.373-10.341-4.831-13.7S296.239,275.07,308.448,279.277z"/>
	<path style="fill:#3EA69B;" d="M344.014,266.755c2.183,0.752,2.202,1.978,0.043,2.738c-2.159,0.76-5.678,0.767-7.861,0.015
		c-2.183-0.752-2.202-1.978-0.043-2.738C338.312,266.009,341.832,266.003,344.014,266.755z"/>
	<path style="fill:#3EA69B;" d="M246.147,301.213c2.183,0.752,2.202,1.978,0.043,2.738c-2.159,0.76-5.678,0.767-7.861,0.015
		c-2.183-0.752-2.202-1.978-0.043-2.738C240.445,300.468,243.965,300.461,246.147,301.213z"/>
</g>
<path style="fill:#44C4A1;" d="M308.042,291.824l-3.136-1.08c-4.284,1.229-9.33,1.919-15.134,2.068l-0.635-2.38
	c4.47-0.117,8.162-0.551,11.089-1.301l-8.334-2.871c-3.975,0.861-7.337,1.336-10.084,1.426c-2.747,0.089-5.359-0.293-7.836-1.146
	c-2.477-0.853-3.648-1.852-3.51-2.999c0.14-1.147,1.513-2.228,4.118-3.245l-2.148-0.74l2.718-0.957l2.19,0.755
	c3.346-1.018,7.366-1.685,12.062-2.002l1.189,2.334c-3.217,0.195-6.07,0.621-8.568,1.28l8.075,2.782l0.128-0.045
	c4.032-0.88,7.47-1.363,10.315-1.447c2.85-0.085,5.526,0.304,8.031,1.167c2.506,0.864,3.67,1.876,3.486,3.037
	c-0.18,1.162-1.642,2.274-4.39,3.342l3.092,1.065L308.042,291.824z M277.318,283.326c-0.08,0.476,0.363,0.879,1.323,1.21
	c0.96,0.331,2.002,0.492,3.126,0.485c1.123-0.006,2.738-0.201,4.841-0.582l-7.432-2.561
	C278.016,282.367,277.396,282.85,277.318,283.326z M305.099,286.666c0.135-0.505-0.298-0.931-1.301-1.277
	c-1.002-0.345-2.108-0.509-3.318-0.493c-1.213,0.018-2.926,0.237-5.139,0.658l7.731,2.664
	C304.289,287.69,304.962,287.173,305.099,286.666z"/>
<polygon style="fill:#31978C;" points="355.742,261.257 321.748,249.544 255.681,272.806 195.783,279.72 195.783,293.896 
	260.595,316.227 386.56,271.875 386.56,257.699 "/>
<polygon style="fill:#3EA69B;" points="321.748,235.368 195.783,279.72 260.595,302.051 386.56,257.699 "/>
<path style="fill:#44C4A1;" d="M252.041,295.913l-38.543-13.28c4.646-1.636,4.605-4.274-0.092-5.892l99.98-35.202
	c4.696,1.618,12.27,1.604,16.916-0.032l38.543,13.28c-4.646,1.636-4.605,4.274,0.092,5.892l-99.98,35.202
	C264.26,294.263,256.687,294.277,252.041,295.913z"/>
<g>
	<path style="fill:#3EA69B;" d="M308.448,262.626c12.21,4.207,14.373,10.341,4.831,13.7s-27.175,2.673-39.385-1.534
		c-12.21-4.207-14.373-10.341-4.831-13.7S296.239,258.42,308.448,262.626z"/>
	<path style="fill:#3EA69B;" d="M344.014,250.104c2.183,0.752,2.202,1.978,0.043,2.738c-2.159,0.76-5.678,0.767-7.861,0.015
		c-2.183-0.752-2.202-1.978-0.043-2.738C338.312,249.359,341.832,249.352,344.014,250.104z"/>
	<path style="fill:#3EA69B;" d="M246.147,284.563c2.183,0.752,2.202,1.978,0.043,2.738c-2.159,0.76-5.678,0.767-7.861,0.015
		c-2.183-0.752-2.202-1.978-0.043-2.738C240.445,283.817,243.965,283.811,246.147,284.563z"/>
</g>
<path style="fill:#44C4A1;" d="M308.042,275.173l-3.136-1.08c-4.284,1.229-9.33,1.919-15.134,2.068l-0.635-2.38
	c4.47-0.117,8.162-0.551,11.089-1.301l-8.334-2.871c-3.975,0.861-7.337,1.336-10.084,1.426c-2.747,0.089-5.359-0.293-7.836-1.146
	c-2.477-0.853-3.648-1.852-3.51-2.999c0.14-1.146,1.513-2.228,4.118-3.245l-2.148-0.74l2.718-0.957l2.19,0.755
	c3.346-1.018,7.366-1.685,12.062-2.002l1.189,2.334c-3.217,0.195-6.07,0.621-8.568,1.28l8.075,2.782l0.128-0.045
	c4.032-0.88,7.47-1.363,10.315-1.447c2.85-0.085,5.526,0.304,8.031,1.167c2.506,0.864,3.67,1.876,3.486,3.037
	c-0.18,1.162-1.642,2.274-4.39,3.342l3.092,1.065L308.042,275.173z M277.318,266.676c-0.08,0.476,0.363,0.879,1.323,1.21
	c0.96,0.331,2.002,0.492,3.126,0.485c1.123-0.006,2.738-0.201,4.841-0.582l-7.432-2.561
	C278.016,265.716,277.396,266.199,277.318,266.676z M305.099,270.015c0.135-0.505-0.298-0.931-1.301-1.277
	c-1.002-0.345-2.108-0.51-3.318-0.493c-1.213,0.018-2.926,0.237-5.139,0.658l7.731,2.664
	C304.289,271.039,304.962,270.522,305.099,270.015z"/>
<polygon style="fill:#31978C;" points="355.742,244.606 321.748,232.893 255.681,256.156 195.783,263.069 195.783,277.245 
	260.595,299.576 386.56,255.224 386.56,241.048 "/>
<polygon style="fill:#3EA69B;" points="321.748,218.718 195.783,263.069 260.595,285.4 386.56,241.048 "/>
<path style="fill:#44C4A1;" d="M252.041,279.262l-38.543-13.28c4.646-1.636,4.605-4.274-0.092-5.892l99.98-35.202
	c4.696,1.618,12.27,1.604,16.916-0.032l38.543,13.28c-4.646,1.636-4.605,4.274,0.092,5.892l-99.98,35.202
	C264.26,277.612,256.687,277.626,252.041,279.262z"/>
<g>
	<path style="fill:#3EA69B;" d="M308.448,245.976c12.21,4.207,14.373,10.341,4.831,13.7s-27.175,2.673-39.385-1.534
		c-12.21-4.207-14.373-10.341-4.831-13.7C278.605,241.082,296.239,241.769,308.448,245.976z"/>
	<path style="fill:#3EA69B;" d="M344.014,233.453c2.183,0.752,2.202,1.978,0.043,2.738c-2.159,0.76-5.678,0.767-7.861,0.015
		c-2.183-0.752-2.202-1.978-0.043-2.738C338.312,232.708,341.832,232.701,344.014,233.453z"/>
	<path style="fill:#3EA69B;" d="M246.147,267.912c2.183,0.752,2.202,1.978,0.043,2.738c-2.159,0.76-5.678,0.767-7.861,0.015
		c-2.183-0.752-2.202-1.978-0.043-2.738C240.445,267.166,243.965,267.16,246.147,267.912z"/>
</g>
<path style="fill:#44C4A1;" d="M308.042,258.522l-3.136-1.08c-4.284,1.229-9.33,1.919-15.134,2.068l-0.635-2.38
	c4.47-0.117,8.162-0.551,11.089-1.301l-8.334-2.871c-3.975,0.861-7.337,1.336-10.084,1.426c-2.747,0.089-5.359-0.293-7.836-1.146
	c-2.477-0.853-3.648-1.852-3.51-2.999c0.14-1.147,1.513-2.228,4.118-3.245l-2.148-0.74l2.718-0.957l2.19,0.755
	c3.346-1.018,7.366-1.685,12.062-2.002l1.189,2.334c-3.217,0.195-6.07,0.621-8.568,1.281l8.075,2.782l0.128-0.045
	c4.032-0.88,7.47-1.363,10.315-1.447c2.85-0.085,5.526,0.304,8.031,1.167c2.506,0.864,3.67,1.876,3.486,3.037
	c-0.18,1.162-1.642,2.274-4.39,3.342l3.092,1.065L308.042,258.522z M277.318,250.025c-0.08,0.476,0.363,0.879,1.323,1.21
	c0.96,0.331,2.002,0.492,3.126,0.485c1.123-0.006,2.738-0.201,4.841-0.582l-7.432-2.561
	C278.016,249.065,277.396,249.548,277.318,250.025z M305.099,253.364c0.135-0.505-0.298-0.931-1.301-1.277
	c-1.002-0.345-2.108-0.51-3.318-0.493c-1.213,0.018-2.926,0.237-5.139,0.658l7.731,2.664
	C304.289,254.389,304.962,253.872,305.099,253.364z"/>
<polygon style="fill:#FFFFFF;" points="308.792,268.43 308.792,349.231 337.77,339.028 337.77,258.227 "/>
<g>
	<polygon style="fill:#FCD462;" points="312.25,267.212 312.25,348.013 315.24,346.96 315.24,266.16 	"/>
	<polygon style="fill:#FCD462;" points="331.321,260.498 331.321,341.298 334.312,340.245 334.312,259.445 	"/>
</g>
<path style="fill:#F6C358;" d="M334.59,376.198c0,5.723-11.034,10.362-24.644,10.362c-13.611,0-24.644-4.639-24.644-10.362v-8.476
	h49.288V376.198z"/>
<ellipse style="fill:#FCD462;" cx="309.965" cy="367.724" rx="24.643" ry="10.363"/>
<g>
	<path style="fill:#DC8744;" d="M309.946,359.385c-11.879,0-21.508,3.733-21.508,8.338c0,4.605,9.63,8.338,21.508,8.338
		c11.879,0,21.508-3.733,21.508-8.338C331.454,363.118,321.824,359.385,309.946,359.385z M309.946,375.133
		c-10.559,0-19.118-3.318-19.118-7.411c0-4.093,8.56-7.411,19.118-7.411s19.118,3.318,19.118,7.411
		C329.064,371.815,320.504,375.133,309.946,375.133z"/>
	<path style="fill:#DC8744;" d="M309.158,373.482v-1.014c-3.276-0.129-6.216-0.634-8.819-1.514l2.617-1.209
		c2.007,0.676,4.072,1.079,6.202,1.209v-2.696c-2.701-0.25-4.679-0.579-5.934-0.987c-1.254-0.408-1.882-1.012-1.882-1.813
		s0.721-1.457,2.167-1.967c1.447-0.509,3.328-0.787,5.648-0.833v-0.695h2.293v0.708c2.628,0.075,5.114,0.422,7.456,1.043
		l-2.331,1.278c-1.578-0.435-3.285-0.704-5.125-0.806v2.612h0.108c2.748,0.251,4.767,0.589,6.056,1.014
		c1.292,0.426,1.937,1.045,1.937,1.855c0,0.811-0.741,1.471-2.223,1.98c-1.482,0.51-3.439,0.788-5.878,0.834v1H309.158z
		 M306.629,364.513c-0.61,0.208-0.913,0.468-0.913,0.778c0,0.31,0.239,0.556,0.718,0.736c0.475,0.181,1.386,0.355,2.725,0.521
		v-2.404C308.082,364.181,307.238,364.304,306.629,364.513z M314.176,370.606c0.668-0.213,1.004-0.481,1.004-0.806
		c0-0.324-0.263-0.581-0.788-0.771c-0.528-0.19-1.508-0.368-2.94-0.535v2.501C312.597,370.949,313.505,370.819,314.176,370.606z"/>
</g>
<path style="fill:#F6C358;" d="M334.59,365.904c0,5.723-11.034,10.362-24.644,10.362c-13.611,0-24.644-4.639-24.644-10.362v-8.476
	h49.288V365.904z"/>
<ellipse style="fill:#FCD462;" cx="309.965" cy="357.427" rx="24.643" ry="10.363"/>
<g>
	<path style="fill:#DC8744;" d="M309.946,349.091c-11.879,0-21.508,3.733-21.508,8.338c0,4.605,9.63,8.338,21.508,8.338
		c11.879,0,21.508-3.733,21.508-8.338C331.454,352.823,321.824,349.091,309.946,349.091z M309.946,364.839
		c-10.559,0-19.118-3.318-19.118-7.411c0-4.093,8.56-7.411,19.118-7.411s19.118,3.318,19.118,7.411
		C329.064,361.521,320.504,364.839,309.946,364.839z"/>
	<path style="fill:#DC8744;" d="M309.158,363.188v-1.014c-3.276-0.129-6.216-0.634-8.819-1.514l2.617-1.209
		c2.007,0.676,4.072,1.079,6.202,1.209v-2.696c-2.701-0.25-4.679-0.579-5.934-0.987c-1.254-0.408-1.882-1.012-1.882-1.813
		s0.721-1.457,2.167-1.967c1.447-0.509,3.328-0.787,5.648-0.833v-0.695h2.293v0.708c2.628,0.075,5.114,0.422,7.456,1.043
		l-2.331,1.278c-1.578-0.435-3.285-0.704-5.125-0.806v2.612h0.108c2.748,0.25,4.767,0.589,6.056,1.014
		c1.292,0.426,1.937,1.045,1.937,1.855c0,0.811-0.741,1.471-2.223,1.98c-1.482,0.51-3.439,0.788-5.878,0.834v1H309.158z
		 M306.629,354.219c-0.61,0.208-0.913,0.468-0.913,0.778c0,0.31,0.239,0.556,0.718,0.736c0.475,0.181,1.386,0.355,2.725,0.521
		v-2.404C308.082,353.887,307.238,354.01,306.629,354.219z M314.176,360.311c0.668-0.213,1.004-0.481,1.004-0.806
		c0-0.324-0.263-0.581-0.788-0.771c-0.528-0.19-1.508-0.368-2.94-0.535v2.501C312.597,360.655,313.505,360.525,314.176,360.311z"/>
</g>
<path style="fill:#F6C358;" d="M334.59,355.61c0,5.723-11.034,10.362-24.644,10.362c-13.611,0-24.644-4.639-24.644-10.362v-8.476
	h49.288V355.61z"/>
<ellipse style="fill:#FCD462;" cx="309.965" cy="347.136" rx="24.643" ry="10.363"/>
<g>
	<path style="fill:#DC8744;" d="M309.946,338.796c-11.879,0-21.508,3.733-21.508,8.338c0,4.605,9.63,8.338,21.508,8.338
		c11.879,0,21.508-3.733,21.508-8.338C331.454,342.529,321.824,338.796,309.946,338.796z M309.946,354.545
		c-10.559,0-19.118-3.318-19.118-7.411c0-4.093,8.56-7.411,19.118-7.411s19.118,3.318,19.118,7.411
		C329.064,351.227,320.504,354.545,309.946,354.545z"/>
	<path style="fill:#DC8744;" d="M309.158,352.894v-1.014c-3.276-0.129-6.216-0.634-8.819-1.514l2.617-1.209
		c2.007,0.676,4.072,1.079,6.202,1.209v-2.696c-2.701-0.25-4.679-0.579-5.934-0.987c-1.254-0.408-1.882-1.012-1.882-1.813
		s0.721-1.457,2.167-1.967c1.447-0.509,3.328-0.787,5.648-0.833v-0.695h2.293v0.708c2.628,0.075,5.114,0.422,7.456,1.043
		l-2.331,1.278c-1.578-0.435-3.285-0.704-5.125-0.806v2.612h0.108c2.748,0.25,4.767,0.589,6.056,1.014
		c1.292,0.426,1.937,1.045,1.937,1.855c0,0.811-0.741,1.471-2.223,1.98c-1.482,0.51-3.439,0.788-5.878,0.834v1H309.158z
		 M306.629,343.924c-0.61,0.208-0.913,0.468-0.913,0.778c0,0.31,0.239,0.556,0.718,0.736c0.475,0.181,1.386,0.355,2.725,0.521
		v-2.404C308.082,343.593,307.238,343.716,306.629,343.924z M314.176,350.017c0.668-0.213,1.004-0.481,1.004-0.806
		c0-0.324-0.263-0.581-0.788-0.771c-0.528-0.19-1.508-0.368-2.94-0.535v2.501C312.597,350.361,313.505,350.23,314.176,350.017z"/>
</g>
<path style="fill:#F6C358;" d="M334.59,345.316c0,5.723-11.034,10.362-24.644,10.362c-13.611,0-24.644-4.639-24.644-10.362v-8.476
	h49.288V345.316z"/>
<ellipse style="fill:#FCD462;" cx="309.965" cy="336.84" rx="24.643" ry="10.363"/>
<g>
	<path style="fill:#DC8744;" d="M309.946,328.502c-11.879,0-21.508,3.733-21.508,8.338c0,4.605,9.63,8.338,21.508,8.338
		c11.879,0,21.508-3.733,21.508-8.338C331.454,332.235,321.824,328.502,309.946,328.502z M309.946,344.251
		c-10.559,0-19.118-3.318-19.118-7.411c0-4.093,8.56-7.411,19.118-7.411s19.118,3.318,19.118,7.411
		C329.064,340.933,320.504,344.251,309.946,344.251z"/>
	<path style="fill:#DC8744;" d="M309.158,342.599v-1.014c-3.276-0.129-6.216-0.634-8.819-1.514l2.617-1.209
		c2.007,0.676,4.072,1.079,6.202,1.209v-2.696c-2.701-0.25-4.679-0.579-5.934-0.987c-1.254-0.408-1.882-1.012-1.882-1.813
		c0-0.801,0.721-1.457,2.167-1.967c1.447-0.509,3.328-0.787,5.648-0.833v-0.695h2.293v0.708c2.628,0.075,5.114,0.422,7.456,1.043
		l-2.331,1.278c-1.578-0.435-3.285-0.704-5.125-0.806v2.612h0.108c2.748,0.25,4.767,0.589,6.056,1.014
		c1.292,0.426,1.937,1.045,1.937,1.855c0,0.811-0.741,1.471-2.223,1.98c-1.482,0.51-3.439,0.788-5.878,0.834v1H309.158z
		 M306.629,333.63c-0.61,0.208-0.913,0.468-0.913,0.778c0,0.31,0.239,0.556,0.718,0.736c0.475,0.181,1.386,0.355,2.725,0.521v-2.404
		C308.082,333.299,307.238,333.422,306.629,333.63z M314.176,339.723c0.668-0.213,1.004-0.481,1.004-0.806
		c0-0.324-0.263-0.581-0.788-0.771c-0.528-0.19-1.508-0.368-2.94-0.535v2.501C312.597,340.066,313.505,339.936,314.176,339.723z"/>
</g>
<path style="fill:#F6C358;" d="M334.59,335.022c0,5.723-11.034,10.362-24.644,10.362c-13.611,0-24.644-4.639-24.644-10.362v-8.476
	h49.288V335.022z"/>
<ellipse style="fill:#FCD462;" cx="309.965" cy="326.543" rx="24.643" ry="10.363"/>
<g>
	<path style="fill:#DC8744;" d="M309.946,318.208c-11.879,0-21.508,3.733-21.508,8.338c0,4.605,9.63,8.338,21.508,8.338
		c11.879,0,21.508-3.733,21.508-8.338C331.454,321.941,321.824,318.208,309.946,318.208z M309.946,333.957
		c-10.559,0-19.118-3.318-19.118-7.411c0-4.093,8.56-7.411,19.118-7.411s19.118,3.318,19.118,7.411
		C329.064,330.639,320.504,333.957,309.946,333.957z"/>
	<path style="fill:#DC8744;" d="M309.158,332.305v-1.014c-3.276-0.129-6.216-0.634-8.819-1.514l2.617-1.209
		c2.007,0.676,4.072,1.079,6.202,1.209v-2.696c-2.701-0.25-4.679-0.579-5.934-0.987c-1.254-0.408-1.882-1.012-1.882-1.813
		s0.721-1.457,2.167-1.967c1.447-0.509,3.328-0.787,5.648-0.833v-0.695h2.293v0.708c2.628,0.075,5.114,0.422,7.456,1.043
		l-2.331,1.278c-1.578-0.435-3.285-0.704-5.125-0.806v2.612h0.108c2.748,0.25,4.767,0.589,6.056,1.014
		c1.292,0.426,1.937,1.045,1.937,1.855c0,0.811-0.741,1.471-2.223,1.98c-1.482,0.51-3.439,0.788-5.878,0.834v1H309.158z
		 M306.629,323.336c-0.61,0.208-0.913,0.468-0.913,0.778c0,0.31,0.239,0.556,0.718,0.736c0.475,0.181,1.386,0.355,2.725,0.521
		v-2.404C308.082,323.005,307.238,323.127,306.629,323.336z M314.176,329.429c0.668-0.213,1.004-0.481,1.004-0.806
		c0-0.324-0.263-0.581-0.788-0.771c-0.528-0.19-1.508-0.368-2.94-0.535v2.501C312.597,329.772,313.505,329.642,314.176,329.429z"/>
</g>
<path style="fill:#F6C358;" d="M334.59,324.728c0,5.723-11.034,10.362-24.644,10.362c-13.611,0-24.644-4.639-24.644-10.362v-8.476
	h49.288V324.728z"/>
<ellipse style="fill:#FCD462;" cx="309.965" cy="316.252" rx="24.643" ry="10.363"/>
<g>
	<path style="fill:#DC8744;" d="M309.946,307.914c-11.879,0-21.508,3.733-21.508,8.338c0,4.605,9.63,8.338,21.508,8.338
		c11.879,0,21.508-3.733,21.508-8.338C331.454,311.647,321.824,307.914,309.946,307.914z M309.946,323.663
		c-10.559,0-19.118-3.318-19.118-7.411c0-4.093,8.56-7.411,19.118-7.411s19.118,3.318,19.118,7.411
		C329.064,320.345,320.504,323.663,309.946,323.663z"/>
	<path style="fill:#DC8744;" d="M309.158,322.011v-1.014c-3.276-0.129-6.216-0.634-8.819-1.514l2.617-1.209
		c2.007,0.676,4.072,1.079,6.202,1.209v-2.696c-2.701-0.25-4.679-0.579-5.934-0.987c-1.254-0.408-1.882-1.012-1.882-1.813
		c0-0.801,0.721-1.457,2.167-1.967c1.447-0.509,3.328-0.787,5.648-0.833v-0.695h2.293v0.708c2.628,0.075,5.114,0.422,7.456,1.043
		l-2.331,1.278c-1.578-0.435-3.285-0.704-5.125-0.806v2.612h0.108c2.748,0.25,4.767,0.589,6.056,1.014
		c1.292,0.426,1.937,1.045,1.937,1.855c0,0.811-0.741,1.471-2.223,1.98c-1.482,0.51-3.439,0.788-5.878,0.834v1H309.158z
		 M306.629,313.042c-0.61,0.208-0.913,0.468-0.913,0.778s0.239,0.556,0.718,0.736c0.475,0.181,1.386,0.355,2.725,0.521v-2.404
		C308.082,312.711,307.238,312.833,306.629,313.042z M314.176,319.135c0.668-0.213,1.004-0.481,1.004-0.806
		c0-0.324-0.263-0.581-0.788-0.771c-0.528-0.19-1.508-0.368-2.94-0.535v2.501C312.597,319.478,313.505,319.348,314.176,319.135z"/>
</g>
<path style="fill:#F6C358;" d="M334.59,314.433c0,5.723-11.034,10.362-24.644,10.362c-13.611,0-24.644-4.639-24.644-10.362v-8.476
	h49.288V314.433z"/>
<ellipse style="fill:#FCD462;" cx="309.965" cy="305.956" rx="24.643" ry="10.363"/>
<g>
	<path style="fill:#DC8744;" d="M309.946,297.62c-11.879,0-21.508,3.733-21.508,8.338c0,4.605,9.63,8.338,21.508,8.338
		c11.879,0,21.508-3.733,21.508-8.338C331.454,301.353,321.824,297.62,309.946,297.62z M309.946,313.368
		c-10.559,0-19.118-3.318-19.118-7.411c0-4.093,8.56-7.411,19.118-7.411s19.118,3.318,19.118,7.411
		C329.064,310.05,320.504,313.368,309.946,313.368z"/>
	<path style="fill:#DC8744;" d="M309.158,311.717v-1.014c-3.276-0.129-6.216-0.634-8.819-1.514l2.617-1.209
		c2.007,0.676,4.072,1.079,6.202,1.209v-2.696c-2.701-0.25-4.679-0.579-5.934-0.987c-1.254-0.408-1.882-1.012-1.882-1.813
		s0.721-1.457,2.167-1.967c1.447-0.509,3.328-0.787,5.648-0.833v-0.695h2.293v0.708c2.628,0.075,5.114,0.422,7.456,1.043
		l-2.331,1.278c-1.578-0.435-3.285-0.704-5.125-0.806v2.612h0.108c2.748,0.25,4.767,0.589,6.056,1.014
		c1.292,0.426,1.937,1.045,1.937,1.855c0,0.811-0.741,1.471-2.223,1.98c-1.482,0.51-3.439,0.788-5.878,0.834v1H309.158z
		 M306.629,302.748c-0.61,0.208-0.913,0.468-0.913,0.778c0,0.31,0.239,0.556,0.718,0.736c0.475,0.181,1.386,0.355,2.725,0.521
		v-2.404C308.082,302.416,307.238,302.539,306.629,302.748z M314.176,308.841c0.668-0.213,1.004-0.481,1.004-0.806
		c0-0.324-0.263-0.581-0.788-0.771c-0.528-0.19-1.508-0.368-2.94-0.535v2.501C312.597,309.184,313.505,309.054,314.176,308.841z"/>
</g>
<path style="fill:#F6C358;" d="M334.59,304.139c0,5.723-11.034,10.362-24.644,10.362c-13.611,0-24.644-4.639-24.644-10.362v-8.476
	h49.288V304.139z"/>
<ellipse style="fill:#FCD462;" cx="309.965" cy="295.665" rx="24.643" ry="10.363"/>
<g>
	<path style="fill:#DC8744;" d="M309.946,287.326c-11.879,0-21.508,3.733-21.508,8.338c0,4.605,9.63,8.338,21.508,8.338
		c11.879,0,21.508-3.733,21.508-8.338C331.454,291.058,321.824,287.326,309.946,287.326z M309.946,303.074
		c-10.559,0-19.118-3.318-19.118-7.411c0-4.093,8.56-7.411,19.118-7.411s19.118,3.318,19.118,7.411
		C329.064,299.756,320.504,303.074,309.946,303.074z"/>
	<path style="fill:#DC8744;" d="M309.158,301.423v-1.014c-3.276-0.129-6.216-0.634-8.819-1.514l2.617-1.209
		c2.007,0.676,4.072,1.079,6.202,1.209v-2.696c-2.701-0.25-4.679-0.579-5.934-0.987c-1.254-0.408-1.882-1.012-1.882-1.813
		s0.721-1.457,2.167-1.967c1.447-0.509,3.328-0.787,5.648-0.833v-0.695h2.293v0.708c2.628,0.075,5.114,0.422,7.456,1.043
		l-2.331,1.278c-1.578-0.435-3.285-0.704-5.125-0.806v2.612h0.108c2.748,0.25,4.767,0.589,6.056,1.014
		c1.292,0.426,1.937,1.045,1.937,1.855c0,0.811-0.741,1.471-2.223,1.98c-1.482,0.51-3.439,0.788-5.878,0.834v1H309.158z
		 M306.629,292.454c-0.61,0.208-0.913,0.468-0.913,0.778c0,0.31,0.239,0.556,0.718,0.736c0.475,0.181,1.386,0.355,2.725,0.521
		v-2.404C308.082,292.122,307.238,292.245,306.629,292.454z M314.176,298.547c0.668-0.213,1.004-0.481,1.004-0.806
		c0-0.324-0.263-0.581-0.788-0.771c-0.528-0.19-1.508-0.368-2.94-0.535v2.501C312.597,298.89,313.505,298.76,314.176,298.547z"/>
</g>
<path style="fill:#F6C358;" d="M386.56,376.198c0,5.723-11.034,10.362-24.644,10.362c-13.611,0-24.644-4.639-24.644-10.362v-8.476
	h49.288V376.198z"/>
<ellipse style="fill:#FCD462;" cx="361.933" cy="367.724" rx="24.643" ry="10.363"/>
<g>
	<path style="fill:#DC8744;" d="M361.916,359.385c-11.879,0-21.508,3.733-21.508,8.338c0,4.605,9.63,8.338,21.508,8.338
		c11.879,0,21.508-3.733,21.508-8.338C383.424,363.118,373.794,359.385,361.916,359.385z M361.916,375.133
		c-10.559,0-19.118-3.318-19.118-7.411c0-4.093,8.56-7.411,19.118-7.411c10.559,0,19.118,3.318,19.118,7.411
		C381.034,371.815,372.474,375.133,361.916,375.133z"/>
	<path style="fill:#DC8744;" d="M361.128,373.482v-1.014c-3.276-0.129-6.216-0.634-8.819-1.514l2.617-1.209
		c2.007,0.676,4.072,1.079,6.202,1.209v-2.696c-2.701-0.25-4.679-0.579-5.934-0.987c-1.254-0.408-1.882-1.012-1.882-1.813
		s0.721-1.457,2.167-1.967c1.447-0.509,3.329-0.787,5.648-0.833v-0.695h2.293v0.708c2.628,0.075,5.114,0.422,7.456,1.043
		l-2.331,1.278c-1.578-0.435-3.285-0.704-5.125-0.806v2.612h0.108c2.748,0.251,4.767,0.589,6.056,1.014
		c1.292,0.426,1.937,1.045,1.937,1.855c0,0.811-0.741,1.471-2.223,1.98c-1.482,0.51-3.439,0.788-5.878,0.834v1H361.128z
		 M358.599,364.513c-0.61,0.208-0.913,0.468-0.913,0.778c0,0.31,0.239,0.556,0.718,0.736c0.476,0.181,1.386,0.355,2.725,0.521
		v-2.404C360.052,364.181,359.209,364.304,358.599,364.513z M366.146,370.606c0.668-0.213,1.004-0.481,1.004-0.806
		c0-0.324-0.263-0.581-0.788-0.771c-0.528-0.19-1.508-0.368-2.941-0.535v2.501C364.568,370.949,365.475,370.819,366.146,370.606z"/>
</g>
<path style="fill:#F6C358;" d="M386.56,365.904c0,5.723-11.034,10.362-24.644,10.362c-13.611,0-24.644-4.639-24.644-10.362v-8.476
	h49.288V365.904z"/>
<ellipse style="fill:#FCD462;" cx="361.933" cy="357.427" rx="24.643" ry="10.363"/>
<g>
	<path style="fill:#DC8744;" d="M361.916,349.091c-11.879,0-21.508,3.733-21.508,8.338c0,4.605,9.63,8.338,21.508,8.338
		c11.879,0,21.508-3.733,21.508-8.338C383.424,352.823,373.794,349.091,361.916,349.091z M361.916,364.839
		c-10.559,0-19.118-3.318-19.118-7.411c0-4.093,8.56-7.411,19.118-7.411c10.559,0,19.118,3.318,19.118,7.411
		C381.034,361.521,372.474,364.839,361.916,364.839z"/>
	<path style="fill:#DC8744;" d="M361.128,363.188v-1.014c-3.276-0.129-6.216-0.634-8.819-1.514l2.617-1.209
		c2.007,0.676,4.072,1.079,6.202,1.209v-2.696c-2.701-0.25-4.679-0.579-5.934-0.987c-1.254-0.408-1.882-1.012-1.882-1.813
		s0.721-1.457,2.167-1.967c1.447-0.509,3.329-0.787,5.648-0.833v-0.695h2.293v0.708c2.628,0.075,5.114,0.422,7.456,1.043
		l-2.331,1.278c-1.578-0.435-3.285-0.704-5.125-0.806v2.612h0.108c2.748,0.25,4.767,0.589,6.056,1.014
		c1.292,0.426,1.937,1.045,1.937,1.855c0,0.811-0.741,1.471-2.223,1.98c-1.482,0.51-3.439,0.788-5.878,0.834v1H361.128z
		 M358.599,354.219c-0.61,0.208-0.913,0.468-0.913,0.778c0,0.31,0.239,0.556,0.718,0.736c0.476,0.181,1.386,0.355,2.725,0.521
		v-2.404C360.052,353.887,359.209,354.01,358.599,354.219z M366.146,360.311c0.668-0.213,1.004-0.481,1.004-0.806
		c0-0.324-0.263-0.581-0.788-0.771c-0.528-0.19-1.508-0.368-2.941-0.535v2.501C364.568,360.655,365.475,360.525,366.146,360.311z"/>
</g>
<path style="fill:#F6C358;" d="M386.56,355.61c0,5.723-11.034,10.362-24.644,10.362c-13.611,0-24.644-4.639-24.644-10.362v-8.476
	h49.288V355.61z"/>
<ellipse style="fill:#FCD462;" cx="361.933" cy="347.136" rx="24.643" ry="10.363"/>
<g>
	<path style="fill:#DC8744;" d="M361.916,338.796c-11.879,0-21.508,3.733-21.508,8.338c0,4.605,9.63,8.338,21.508,8.338
		c11.879,0,21.508-3.733,21.508-8.338C383.424,342.529,373.794,338.796,361.916,338.796z M361.916,354.545
		c-10.559,0-19.118-3.318-19.118-7.411c0-4.093,8.56-7.411,19.118-7.411c10.559,0,19.118,3.318,19.118,7.411
		C381.034,351.227,372.474,354.545,361.916,354.545z"/>
	<path style="fill:#DC8744;" d="M361.128,352.894v-1.014c-3.276-0.129-6.216-0.634-8.819-1.514l2.617-1.209
		c2.007,0.676,4.072,1.079,6.202,1.209v-2.696c-2.701-0.25-4.679-0.579-5.934-0.987c-1.254-0.408-1.882-1.012-1.882-1.813
		s0.721-1.457,2.167-1.967c1.447-0.509,3.329-0.787,5.648-0.833v-0.695h2.293v0.708c2.628,0.075,5.114,0.422,7.456,1.043
		l-2.331,1.278c-1.578-0.435-3.285-0.704-5.125-0.806v2.612h0.108c2.748,0.25,4.767,0.589,6.056,1.014
		c1.292,0.426,1.937,1.045,1.937,1.855c0,0.811-0.741,1.471-2.223,1.98c-1.482,0.51-3.439,0.788-5.878,0.834v1H361.128z
		 M358.599,343.924c-0.61,0.208-0.913,0.468-0.913,0.778c0,0.31,0.239,0.556,0.718,0.736c0.476,0.181,1.386,0.355,2.725,0.521
		v-2.404C360.052,343.593,359.209,343.716,358.599,343.924z M366.146,350.017c0.668-0.213,1.004-0.481,1.004-0.806
		c0-0.324-0.263-0.581-0.788-0.771c-0.528-0.19-1.508-0.368-2.941-0.535v2.501C364.568,350.361,365.475,350.23,366.146,350.017z"/>
</g>
<path style="fill:#F6C358;" d="M386.56,345.316c0,5.723-11.034,10.362-24.644,10.362c-13.611,0-24.644-4.639-24.644-10.362v-8.476
	h49.288V345.316z"/>
<ellipse style="fill:#FCD462;" cx="361.933" cy="336.84" rx="24.643" ry="10.363"/>
<g>
	<path style="fill:#DC8744;" d="M361.916,328.502c-11.879,0-21.508,3.733-21.508,8.338c0,4.605,9.63,8.338,21.508,8.338
		c11.879,0,21.508-3.733,21.508-8.338C383.424,332.235,373.794,328.502,361.916,328.502z M361.916,344.251
		c-10.559,0-19.118-3.318-19.118-7.411c0-4.093,8.56-7.411,19.118-7.411c10.559,0,19.118,3.318,19.118,7.411
		C381.034,340.933,372.474,344.251,361.916,344.251z"/>
	<path style="fill:#DC8744;" d="M361.128,342.599v-1.014c-3.276-0.129-6.216-0.634-8.819-1.514l2.617-1.209
		c2.007,0.676,4.072,1.079,6.202,1.209v-2.696c-2.701-0.25-4.679-0.579-5.934-0.987c-1.254-0.408-1.882-1.012-1.882-1.813
		c0-0.801,0.721-1.457,2.167-1.967c1.447-0.509,3.329-0.787,5.648-0.833v-0.695h2.293v0.708c2.628,0.075,5.114,0.422,7.456,1.043
		l-2.331,1.278c-1.578-0.435-3.285-0.704-5.125-0.806v2.612h0.108c2.748,0.25,4.767,0.589,6.056,1.014
		c1.292,0.426,1.937,1.045,1.937,1.855c0,0.811-0.741,1.471-2.223,1.98c-1.482,0.51-3.439,0.788-5.878,0.834v1H361.128z
		 M358.599,333.63c-0.61,0.208-0.913,0.468-0.913,0.778c0,0.31,0.239,0.556,0.718,0.736c0.476,0.181,1.386,0.355,2.725,0.521v-2.404
		C360.052,333.299,359.209,333.422,358.599,333.63z M366.146,339.723c0.668-0.213,1.004-0.481,1.004-0.806
		c0-0.324-0.263-0.581-0.788-0.771c-0.528-0.19-1.508-0.368-2.941-0.535v2.501C364.568,340.066,365.475,339.936,366.146,339.723z"/>
</g>
<path style="fill:#F6C358;" d="M386.56,335.022c0,5.723-11.034,10.362-24.644,10.362c-13.611,0-24.644-4.639-24.644-10.362v-8.476
	h49.288V335.022z"/>
<ellipse style="fill:#FCD462;" cx="361.933" cy="326.543" rx="24.643" ry="10.363"/>
<g>
	<path style="fill:#DC8744;" d="M361.916,318.208c-11.879,0-21.508,3.733-21.508,8.338c0,4.605,9.63,8.338,21.508,8.338
		c11.879,0,21.508-3.733,21.508-8.338C383.424,321.941,373.794,318.208,361.916,318.208z M361.916,333.957
		c-10.559,0-19.118-3.318-19.118-7.411c0-4.093,8.56-7.411,19.118-7.411c10.559,0,19.118,3.318,19.118,7.411
		C381.034,330.639,372.474,333.957,361.916,333.957z"/>
	<path style="fill:#DC8744;" d="M361.128,332.305v-1.014c-3.276-0.129-6.216-0.634-8.819-1.514l2.617-1.209
		c2.007,0.676,4.072,1.079,6.202,1.209v-2.696c-2.701-0.25-4.679-0.579-5.934-0.987c-1.254-0.408-1.882-1.012-1.882-1.813
		s0.721-1.457,2.167-1.967c1.447-0.509,3.329-0.787,5.648-0.833v-0.695h2.293v0.708c2.628,0.075,5.114,0.422,7.456,1.043
		l-2.331,1.278c-1.578-0.435-3.285-0.704-5.125-0.806v2.612h0.108c2.748,0.25,4.767,0.589,6.056,1.014
		c1.292,0.426,1.937,1.045,1.937,1.855c0,0.811-0.741,1.471-2.223,1.98c-1.482,0.51-3.439,0.788-5.878,0.834v1H361.128z
		 M358.599,323.336c-0.61,0.208-0.913,0.468-0.913,0.778c0,0.31,0.239,0.556,0.718,0.736c0.476,0.181,1.386,0.355,2.725,0.521
		v-2.404C360.052,323.005,359.209,323.127,358.599,323.336z M366.146,329.429c0.668-0.213,1.004-0.481,1.004-0.806
		c0-0.324-0.263-0.581-0.788-0.771c-0.528-0.19-1.508-0.368-2.941-0.535v2.501C364.568,329.772,365.475,329.642,366.146,329.429z"/>
</g>
<circle style="fill:#FCD462;" cx="318.259" cy="359.424" r="27.126"/>
<g>
	<path style="fill:#DC8744;" d="M318.27,335.757c-13.075,0-23.675,10.6-23.675,23.675c0,13.076,10.6,23.675,23.675,23.675
		c13.076,0,23.675-10.6,23.675-23.675C341.945,346.357,331.345,335.757,318.27,335.757z M318.27,380.477
		c-11.622,0-21.045-9.422-21.045-21.045c0-11.623,9.422-21.045,21.045-21.045c11.622,0,21.045,9.422,21.045,21.045
		C339.315,371.055,329.892,380.477,318.27,380.477z"/>
	<path style="fill:#DC8744;" d="M317.403,375.788v-2.88c-3.606-0.368-6.843-1.801-9.707-4.3l2.88-3.433
		c2.209,1.92,4.483,3.063,6.827,3.433v-7.655c-2.974-0.71-5.151-1.644-6.531-2.802c-1.381-1.158-2.071-2.874-2.071-5.149
		c0-2.275,0.793-4.136,2.386-5.584c1.593-1.447,3.664-2.235,6.217-2.367v-1.973h2.524v2.012c2.893,0.212,5.629,1.198,8.208,2.961
		l-2.566,3.63c-1.737-1.236-3.616-1.999-5.642-2.29v7.418h0.119c3.025,0.711,5.247,1.671,6.666,2.88
		c1.422,1.211,2.132,2.967,2.132,5.268c0,2.302-0.816,4.178-2.447,5.623c-1.631,1.448-3.786,2.237-6.47,2.368v2.84H317.403z
		 M314.619,350.319c-0.671,0.591-1.005,1.328-1.005,2.209s0.263,1.578,0.79,2.09c0.523,0.514,1.525,1.007,2.999,1.48v-6.827
		C316.218,349.378,315.29,349.726,314.619,350.319z M322.926,367.62c0.735-0.604,1.105-1.366,1.105-2.288
		c0-0.92-0.289-1.651-0.867-2.19c-0.581-0.539-1.66-1.045-3.237-1.519v7.101C321.189,368.595,322.188,368.225,322.926,367.62z"/>
</g>
<g>
</g>
<g>
</g>
<g>
</g>
<g>
</g>
<g>
</g>
<g>
</g>
<g>
</g>
<g>
</g>
<g>
</g>
<g>
</g>
<g>
</g>
<g>
</g>
<g>
</g>
<g>
</g>
<g>
</g>
</svg>
