<?xml version="1.0" encoding="UTF-8" standalone="no"?>
<!-- Generator: Adobe Illustrator 19.0.0, SVG Export Plug-In . SVG Version: 6.00 Build 0)  -->

<svg
   version="1.1"
   id="Layer_1"
   x="0px"
   y="0px"
   viewBox="0 0 512 512"
   xml:space="preserve"
   sodipodi:docname="briefcase_78323.svg"
   width="512"
   height="512"
   inkscape:version="1.1.1 (3bf5ae0d25, 2021-09-20)"
   xmlns:inkscape="http://www.inkscape.org/namespaces/inkscape"
   xmlns:sodipodi="http://sodipodi.sourceforge.net/DTD/sodipodi-0.dtd"
   xmlns="http://www.w3.org/2000/svg"
   xmlns:svg="http://www.w3.org/2000/svg"><defs
   id="defs77" /><sodipodi:namedview
   id="namedview75"
   pagecolor="#ffffff"
   bordercolor="#666666"
   borderopacity="1.0"
   inkscape:pageshadow="2"
   inkscape:pageopacity="0.0"
   inkscape:pagecheckerboard="0"
   showgrid="false"
   inkscape:zoom="1.625"
   inkscape:cx="268.30769"
   inkscape:cy="219.38462"
   inkscape:window-width="2560"
   inkscape:window-height="1017"
   inkscape:window-x="-8"
   inkscape:window-y="-8"
   inkscape:window-maximized="1"
   inkscape:current-layer="Layer_1" />
<rect
   style="fill:#e6e5e5"
   width="512"
   height="512"
   id="rect2"
   x="0"
   y="0" />
<g
   id="g8">
	<rect
   x="96.780998"
   y="185.754"
   style="fill:#2b4457"
   width="318.43799"
   height="206.976"
   id="rect4" />
	<path
   style="fill:#526677"
   d="M 415.219,153.9 H 96.781 v 71.652 c 0,16.294 6.218,32.591 18.65,45.033 12.439,12.436 28.731,18.652 45.036,18.652 H 351.53 c 16.294,0 32.594,-6.216 45.03,-18.652 12.439,-12.439 18.66,-28.739 18.66,-45.033 V 153.9 Z"
   id="path6" />
</g>
<g
   id="g20">
	<rect
   x="130.22"
   y="151.50101"
   style="fill:#213546"
   width="85.974998"
   height="2.391"
   id="rect10" />
	<rect
   x="295.80801"
   y="151.50101"
   style="fill:#213546"
   width="85.974998"
   height="2.391"
   id="rect12" />
	<g
   id="g18">
		<rect
   x="160.468"
   y="149.12"
   style="fill:#213546"
   width="25.472"
   height="245.99001"
   id="rect14" />
		<rect
   x="326.04199"
   y="149.12"
   style="fill:#213546"
   width="25.475"
   height="245.99001"
   id="rect16" />
	</g>
</g>
<g
   id="g26">
	<rect
   x="145.336"
   y="212.019"
   style="fill:#526677"
   width="55.729"
   height="19.1"
   id="rect22" />
	<rect
   x="310.91199"
   y="212.019"
   style="fill:#526677"
   width="55.726002"
   height="19.1"
   id="rect24" />
</g>
<path
   style="fill:#d9d8d7"
   d="m 188.308,275.72 c -1.805,-1.81 -4.206,-2.806 -6.764,-2.806 H 164.86 c -2.557,0 -4.964,0.996 -6.766,2.806 -1.812,1.805 -2.808,4.214 -2.808,6.771 v 23.066 h 5.179 v -3.976 h -1.196 v -19.09 c 0,-1.5 0.581,-2.9 1.638,-3.955 1.057,-1.057 2.458,-1.644 3.95,-1.644 h 16.684 c 1.492,0 2.898,0.586 3.955,1.644 1.05,1.055 1.636,2.455 1.636,3.955 v 19.09 h -1.196 v 3.976 h 5.174 v -23.066 c 0.004,-2.558 -0.992,-4.967 -2.802,-6.771 z"
   id="path28" />
<path
   style="fill:#cccbca"
   d="m 171.21,285.98 h 3.981 v -11.075 c 0,-0.402 -0.154,-0.814 -0.468,-1.121 -0.31,-0.312 -0.712,-0.468 -1.119,-0.468 h -0.801 c -0.402,0 -0.817,0.156 -1.129,0.468 -0.31,0.307 -0.463,0.719 -0.463,1.121 v 11.075 z"
   id="path30" />
<path
   style="fill:#d9d8d7"
   d="m 353.905,275.72 c -1.815,-1.81 -4.219,-2.806 -6.774,-2.806 H 330.45 c -2.555,0 -4.964,0.996 -6.766,2.806 -1.815,1.805 -2.811,4.214 -2.811,6.771 v 23.066 h 5.179 v -3.976 h -1.196 v -19.09 c 0,-1.5 0.581,-2.9 1.641,-3.955 1.055,-1.057 2.46,-1.644 3.95,-1.644 h 16.681 c 1.49,0 2.9,0.586 3.955,1.644 1.06,1.055 1.646,2.455 1.646,3.955 v 19.09 h -1.201 v 3.976 h 5.171 v -23.066 c 10e-4,-2.558 -0.995,-4.967 -2.794,-6.771 z"
   id="path32" />
<path
   style="fill:#cccbca"
   d="m 336.796,285.98 h 3.981 v -11.075 c 0,-0.402 -0.156,-0.814 -0.461,-1.121 -0.31,-0.312 -0.714,-0.468 -1.121,-0.468 h -0.801 c -0.404,0 -0.814,0.156 -1.129,0.468 -0.31,0.307 -0.471,0.719 -0.471,1.121 v 11.075 z"
   id="path34" />
<path
   style="fill:#213546"
   d="m 302.971,136.788 c -1.431,0 -2.849,-0.545 -3.94,-1.636 -1.091,-1.091 -1.631,-2.514 -1.631,-3.942 v -0.788 c 0,-0.643 -0.251,-1.239 -0.704,-1.692 -0.445,-0.456 -1.055,-0.707 -1.69,-0.707 h -78.019 c -0.643,0 -1.236,0.253 -1.687,0.701 -0.456,0.453 -0.704,1.055 -0.704,1.697 v 0.788 c 0,1.428 -0.54,2.852 -1.631,3.942 -1.085,1.091 -2.511,1.636 -3.94,1.636 v 0 c -1.426,0 -2.849,-0.545 -3.935,-1.636 -1.091,-1.091 -1.633,-2.514 -1.633,-3.942 v -0.788 c 0,-3.62 1.398,-7.022 3.958,-9.574 2.557,-2.557 5.955,-3.963 9.569,-3.963 H 295 c 3.615,0 7.02,1.405 9.569,3.963 2.555,2.552 3.965,5.955 3.965,9.574 v 0.788 c 0,1.428 -0.55,2.852 -1.636,3.942 -1.083,1.092 -2.504,1.637 -3.927,1.637 z"
   id="path36" />
<g
   id="g42">
	<path
   style="fill:#cccbca"
   d="m 210.432,131.794 c -0.387,-0.389 -0.891,-0.586 -1.403,-0.586 -0.517,0 -1.024,0.195 -1.411,0.586 -0.387,0.387 -0.581,0.896 -0.581,1.408 v 18.307 h 3.978 v -18.307 c 0.001,-0.512 -0.194,-1.019 -0.583,-1.408 z"
   id="path38" />
	<path
   style="fill:#cccbca"
   d="m 304.371,131.794 c -0.384,-0.389 -0.896,-0.586 -1.4,-0.586 -0.509,0 -1.024,0.195 -1.416,0.586 -0.389,0.387 -0.586,0.896 -0.586,1.408 v 18.307 h 3.986 v -18.307 c 0,-0.512 -0.195,-1.019 -0.584,-1.408 z"
   id="path40" />
</g>
<g
   id="g44">
</g>
<g
   id="g46">
</g>
<g
   id="g48">
</g>
<g
   id="g50">
</g>
<g
   id="g52">
</g>
<g
   id="g54">
</g>
<g
   id="g56">
</g>
<g
   id="g58">
</g>
<g
   id="g60">
</g>
<g
   id="g62">
</g>
<g
   id="g64">
</g>
<g
   id="g66">
</g>
<g
   id="g68">
</g>
<g
   id="g70">
</g>
<g
   id="g72">
</g>
</svg>
