<?xml version="1.0" encoding="UTF-8" standalone="no"?>
<!-- Generator: Adobe Illustrator 17.1.0, SVG Export Plug-In . SVG Version: 6.00 Build 0)  -->

<svg
   version="1.1"
   id="receipt"
   x="0px"
   y="0px"
   viewBox="0 0 884.96399 884.909"
   enable-background="new 0 0 1010 1010"
   xml:space="preserve"
   sodipodi:docname="crediario-8.svg"
   inkscape:version="1.1.1 (3bf5ae0d25, 2021-09-20)"
   width="884.96399"
   height="884.909"
   xmlns:inkscape="http://www.inkscape.org/namespaces/inkscape"
   xmlns:sodipodi="http://sodipodi.sourceforge.net/DTD/sodipodi-0.dtd"
   xmlns="http://www.w3.org/2000/svg"
   xmlns:svg="http://www.w3.org/2000/svg"><defs
   id="defs84" /><sodipodi:namedview
   id="namedview82"
   pagecolor="#ffffff"
   bordercolor="#666666"
   borderopacity="1.0"
   inkscape:pageshadow="2"
   inkscape:pageopacity="0.0"
   inkscape:pagecheckerboard="0"
   showgrid="false"
   inkscape:zoom="0.82376238"
   inkscape:cx="440.66106"
   inkscape:cy="442.48197"
   inkscape:window-width="2560"
   inkscape:window-height="1017"
   inkscape:window-x="-8"
   inkscape:window-y="-8"
   inkscape:window-maximized="1"
   inkscape:current-layer="receipt" />
<rect
   style="fill:#acaf48;fill-opacity:1;stroke-width:0.600001;paint-order:markers stroke fill"
   id="rect923"
   width="884.96399"
   height="884.909"
   x="0"
   y="0"
   rx="0"
   ry="0" /><g
   id="receipt-receipt"
   transform="translate(-62.518005,-62.550402)">
	
	<g
   id="receipt-receipt_1_">
		<g
   id="g9">
			<path
   fill="#3bafda"
   d="m 348.6279,330.6562 -0.3652,-0.0986 H 236.7583 l 1.144,-11.1255 c 4.0635,-39.4433 31.0889,-81.895 80.8497,-81.895 h 42.1357 v 95.0918 z"
   id="path3" />
			<path
   fill="#ffffff"
   d="m 458.6621,772.4727 c -52.6499,0 -97.7744,-54.9981 -97.7744,-100.0235 V 237.5371 h 232.5762 c 31.6025,0 69.7724,25.9307 69.7724,58.1445 v 371.1553 c 0.0791,0.335 0.1387,0.6611 0.1973,0.9961 l 1.7461,11.6084 H 563.3315 c 0,46.082 -52.8276,93.0313 -104.6694,93.0313 z"
   id="path5" />
			<path
   fill="#fc6e51"
   d="m 488.8047,772.4727 28.061,-18.5333 c 25.3384,-16.7286 42.481,-41.3174 45.8643,-65.7784 l 1.2031,-8.7197 h 209.3091 l -1.1445,11.1367 c -4.0538,39.4424 -31.0791,81.8946 -80.8301,81.8946 H 488.8047 Z"
   id="path7" />
		</g>
		<g
   id="g31">
			<g
   id="g13">
				<path
   fill="#454545"
   d="M 691.2676,782.5723 H 458.6621 c -5.582,0 -10.0996,-4.5176 -10.0996,-10.0996 0,-5.5831 4.5176,-10.1006 10.0996,-10.1006 45.9629,0 94.5693,-42.6288 94.5693,-82.9307 0,-5.582 4.5176,-10.0996 10.1001,-10.0996 h 209.3384 c 5.5822,0 10.0996,4.5176 10.0996,10.0996 0,49.9981 -32.0654,103.1309 -91.5019,103.1309 z M 522.4287,762.3721 h 168.8389 c 42.4424,0 66.9824,-35.8819 70.7793,-72.8301 H 572.7314 c -3.9062,28.2588 -23.7114,55.2734 -50.3027,72.8301 z"
   id="path11" />
			</g>
			<g
   id="g17">
				<path
   fill="#454545"
   d="M 349.2588,340.6582 H 237.3301 c -5.5821,0 -10.0996,-4.5176 -10.0996,-10.1006 0,-49.9868 32.0752,-103.1201 91.5215,-103.1201 h 274.7119 c 5.583,0 10.1006,4.5171 10.1006,10.0996 0,5.583 -4.5176,10.1001 -10.1006,10.1001 H 318.752 c -42.4517,0 -66.9918,35.8828 -70.7989,72.8208 h 101.3057 c 5.583,0 10.1001,4.5176 10.1001,10.0996 0,5.583 -4.5171,10.1006 -10.1001,10.1006 z"
   id="path15" />
			</g>
			<g
   id="g21">
				<path
   fill="#454545"
   d="m 458.6621,782.5723 c -59.7515,0 -107.8745,-60.2452 -107.8745,-110.1231 V 237.5371 c 0,-5.5825 4.5176,-10.0996 10.1001,-10.0996 5.5825,0 10.1001,4.5171 10.1001,10.0996 v 434.9121 c 0,39.6406 41.2778,89.9229 87.6743,89.9229 5.583,0 10.1006,4.5175 10.1006,10.1006 0,5.582 -4.5176,10.0996 -10.1006,10.0996 z"
   id="path19" />
			</g>
			<g
   id="g25">
				<path
   fill="#454545"
   d="m 663.2363,677.9131 c -5.582,0 -10.0995,-4.5176 -10.0995,-10.1006 V 295.6816 c 0,-5.583 4.5176,-10.1005 10.0995,-10.1005 5.583,0 10.1006,4.5175 10.1006,10.1005 v 372.1309 c 0,5.583 -4.5176,10.1006 -10.1006,10.1006 z"
   id="path23" />
			</g>
			<g
   id="g29">
				<path
   fill="#454545"
   d="m 663.2363,305.7812 c -5.582,0 -10.0995,-4.5175 -10.0995,-10.0996 0,-25.8715 -32.8154,-48.0444 -59.6729,-48.0444 -5.5829,0 -10.1006,-4.5171 -10.1006,-10.1001 0,-5.5825 4.5176,-10.0996 10.1006,-10.0996 36.9384,0 79.873,29.8066 79.873,68.2441 0,5.5821 -4.5176,10.0996 -10.1006,10.0996 z"
   id="path27" />
			</g>
		</g>
		<g
   id="g77">
			<g
   id="g35">
				<polygon
   fill="#454545"
   points="577.5938,542.3916 624.6914,542.3916 624.6914,562.5918 577.5938,562.5918 "
   id="polygon33" />
			</g>
			<g
   id="g39">
				<polygon
   fill="#454545"
   points="577.5938,598.9375 624.6914,598.9375 624.6914,619.1377 577.5938,619.1377 "
   id="polygon37" />
			</g>
			<g
   id="g43">
				<polygon
   fill="#454545"
   points="398.6445,316.1279 486.3389,316.1279 486.3389,336.3281 398.6445,336.3281 "
   id="polygon41" />
			</g>
			<g
   id="g47">
				<polygon
   fill="#454545"
   points="577.5938,372.6938 624.6914,372.6938 624.6914,392.8936 577.5938,392.8936 "
   id="polygon45" />
			</g>
			<g
   id="g51">
				<polygon
   fill="#454545"
   points="577.5938,429.25 624.6914,429.25 624.6914,449.4502 577.5938,449.4502 "
   id="polygon49" />
			</g>
			<g
   id="g55">
				<polygon
   fill="#454545"
   points="577.5938,485.8164 624.6914,485.8164 624.6914,506.0156 577.5938,506.0156 "
   id="polygon53" />
			</g>
			<g
   id="g59">
				<polygon
   fill="#454545"
   points="398.6445,372.6938 530.5068,372.6938 530.5068,392.8936 398.6445,392.8936 "
   id="polygon57" />
			</g>
			<g
   id="g63">
				<polygon
   fill="#454545"
   points="398.6445,429.25 530.5068,429.25 530.5068,449.4502 398.6445,449.4502 "
   id="polygon61" />
			</g>
			<g
   id="g67">
				<polygon
   fill="#454545"
   points="398.6445,485.8164 530.5068,485.8164 530.5068,506.0156 398.6445,506.0156 "
   id="polygon65" />
			</g>
			<g
   id="g71">
				<polygon
   fill="#454545"
   points="398.6445,542.3916 530.5068,542.3916 530.5068,562.5918 398.6445,562.5918 "
   id="polygon69" />
			</g>
			<g
   id="g75">
				<polygon
   fill="#454545"
   points="398.6445,598.9375 530.5068,598.9375 530.5068,619.1377 398.6445,619.1377 "
   id="polygon73" />
			</g>
		</g>
	</g>
</g>
</svg>
