<?xml version="1.0" encoding="UTF-8" standalone="no"?>
<!-- Created with Inkscape (http://www.inkscape.org/) -->

<svg
   width="277.00961mm"
   height="277.01001mm"
   viewBox="0 0 277.00961 277.01001"
   version="1.1"
   id="svg5"
   inkscape:version="1.1.1 (3bf5ae0d25, 2021-09-20)"
   sodipodi:docname="crediario-2.svg"
   xmlns:inkscape="http://www.inkscape.org/namespaces/inkscape"
   xmlns:sodipodi="http://sodipodi.sourceforge.net/DTD/sodipodi-0.dtd"
   xmlns="http://www.w3.org/2000/svg"
   xmlns:svg="http://www.w3.org/2000/svg">
  <sodipodi:namedview
     id="namedview7"
     pagecolor="#ffffff"
     bordercolor="#666666"
     borderopacity="1.0"
     inkscape:pageshadow="2"
     inkscape:pageopacity="0.0"
     inkscape:pagecheckerboard="0"
     inkscape:document-units="mm"
     showgrid="false"
     inkscape:zoom="0.52410024"
     inkscape:cx="660.17905"
     inkscape:cy="600.07604"
     inkscape:window-width="2560"
     inkscape:window-height="1017"
     inkscape:window-x="-8"
     inkscape:window-y="-8"
     inkscape:window-maximized="1"
     inkscape:current-layer="layer1" />
  <defs
     id="defs2" />
  <g
     inkscape:label="Camada 1"
     inkscape:groupmode="layer"
     id="layer1"
     transform="translate(28.55769,4.2836537)">
    <rect
       style="fill:#ffe680;stroke-width:0.15875;paint-order:markers stroke fill"
       id="rect858"
       width="277.00961"
       height="277.01001"
       x="-28.55769"
       y="-4.2836537" />
    <g
       id="g1064"
       transform="translate(38.433331,2.3205121)">
      <path
         style="fill:#ecfafe;stroke-width:1"
         d="M -14.239319,132.43631 V 42.125195 l 63.359788,-0.535456 63.359791,-0.535457 v 90.311118 90.3111 l -63.359791,0.53546 -63.359788,0.53545 z"
         id="path1080" />
      <path
         style="fill:#daeefd;stroke-width:1"
         d="m 48.31245,221.11847 c -0.117775,-0.3069 -0.214133,-16.17951 -0.214133,-35.27244 V 151.1316 l -10.31875,-0.0935 -10.318749,-0.0935 -0.09785,-5.46573 c -0.08647,-4.83024 -0.02737,-5.51727 0.508399,-5.90903 0.452282,-0.33071 3.097703,-0.44329 10.416596,-0.44329 h 9.810351 v -5.46806 -5.46805 h -9.983611 c -7.294661,0 -10.097628,-0.11402 -10.406944,-0.42334 -0.590882,-0.59088 -0.590882,-10.55689 0,-11.14778 0.309316,-0.30931 3.112283,-0.42333 10.406944,-0.42333 h 9.983611 v -5.46811 -5.46805 h -9.72458 c -6.028768,0 -9.983914,-0.13879 -10.406944,-0.36519 -0.627335,-0.33574 -0.682364,-0.78525 -0.682364,-5.573888 0,-3.580842 0.132302,-5.341002 0.423333,-5.632033 0.309333,-0.309333 3.114276,-0.423334 10.415901,-0.423334 h 9.992572 L 48.01908,87.709136 47.921928,82.152886 37.691373,81.976497 27.460818,81.800108 V 76.155663 70.511219 L 37.691373,70.33483 47.921928,70.158441 48.108237,55.694553 c 0.102472,-7.955139 0.221534,-14.503577 0.264584,-14.552084 0.04305,-0.04851 14.484836,-0.08819 32.092857,-0.08819 l 32.014582,3e-6 -0.0839,70.461888 -0.0839,70.46188 -19.846882,19.84922 -19.84689,19.84922 H 60.572649 c -10.659004,0 -12.070726,-0.0642 -12.260199,-0.55802 z m 90.91884,-0.23572 c -0.74814,-0.83376 -15.21756,-27.39312 -16.18476,-29.70796 -0.50399,-1.20622 -0.51858,-2.72687 -0.14525,-15.14112 0.40781,-13.56053 0.25637,-97.81614 -0.22151,-123.247158 -0.17321,-9.217336 -0.12816,-10.741481 0.33105,-11.200694 0.45861,-0.458607 2.82914,-0.531543 17.27594,-0.531543 13.08275,0 16.77622,0.09643 16.88989,0.440972 0.08,0.242535 0.1131,34.095972 0.0735,75.229863 l -0.072,74.78889 -7.84041,14.46388 c -6.80291,12.54993 -8.66113,15.69861 -9.26463,15.69861 -0.0713,0 -0.45016,-0.35718 -0.84189,-0.79374 z M 5.1299841,151.05038 c -0.487962,-0.48796 -0.601614,-10.744 -0.12734,-11.4913 0.217512,-0.34274 1.785903,-0.42645 6.6091809,-0.35278 l 6.323993,0.0966 0.09736,5.59726 c 0.06659,3.82792 -0.03069,5.75156 -0.307777,6.08541 -0.54355,0.65494 -11.9466169,0.71363 -12.5954159,0.0648 z M 4.9495371,127.9629 c -0.342318,-0.34232 -0.293374,-10.78844 0.05311,-11.33438 0.217512,-0.34273 1.785903,-0.42644 6.6091809,-0.35278 l 6.323993,0.0966 v 5.82083 5.82084 l -6.371698,0.0959 c -3.5044329,0.0528 -6.4809949,-0.0134 -6.6145829,-0.14699 z m -0.02576,-23.25329 c -0.119419,-0.3112 -0.217126,-2.93802 -0.217126,-5.837365 v -5.271544 l 0.90491,-0.344047 c 1.377594,-0.523762 11.1730789,-0.442309 11.9134469,0.09906 0.536571,0.392349 0.594808,1.089452 0.508399,6.085416 l -0.09759,5.64231 -6.397458,0.096 c -5.6021419,0.0841 -6.4244499,0.0256 -6.6145829,-0.46983 z m 0,-22.930556 c -0.420014,-1.094535 -0.241772,-10.925688 0.206207,-11.373668 0.488945,-0.488945 11.7995949,-0.60335 12.5502849,-0.126945 0.341665,0.216829 0.4266,1.680626 0.352778,6.080017 l -0.09723,5.794428 -6.397458,0.09599 c -5.6021419,0.08406 -6.4244499,0.02565 -6.6145829,-0.469826 z"
         id="path1078" />
      <path
         style="fill:#b8d8fa;stroke-width:1"
         d="m 139.51866,221.08008 c -0.25663,-0.27473 -4.02598,-7.05964 -8.37633,-15.07758 l -7.90972,-14.57806 -0.0302,-74.74411 c -0.0166,-41.109261 -0.0149,-74.942548 0.004,-75.185083 0.0266,-0.346182 3.67381,-0.440972 16.96722,-0.440972 13.29354,0 16.94056,0.09479 16.96697,0.440972 0.0185,0.242535 0.0197,34.038544 0.002,75.102243 l -0.031,74.66127 -8.0283,14.81967 c -4.41557,8.15081 -8.26905,14.973 -8.56329,15.16041 -0.37079,0.23617 -0.67822,0.18744 -1.00161,-0.15876 z m -66.993472,-19.95289 0.0912,-19.49097 19.49098,-0.0912 c 10.720032,-0.0502 19.490972,0.0298 19.490972,0.17759 0,0.34981 -38.548102,38.89553 -38.897932,38.89553 -0.14651,0 -0.22535,-8.77094 -0.1752,-19.49097 z M 5.4827621,150.69761 c -0.487535,-0.48754 -0.600092,-10.04085 -0.127083,-10.78617 0.217072,-0.34205 1.71571,-0.42655 6.2564039,-0.35278 l 5.970957,0.097 0.09786,5.24388 c 0.06656,3.56666 -0.03189,5.4002 -0.307781,5.73264 -0.542858,0.65411 -11.2427969,0.71298 -11.8903539,0.0654 z M 38.396929,150.42354 28.166373,150.239 v -4.93889 -4.93889 l 10.230556,-0.27268 c 17.259356,-0.46002 52.160059,-0.63721 52.740279,-0.26775 0.67655,0.43079 0.9872,9.05638 0.36784,10.21367 -0.39175,0.732 -0.44205,0.73352 -21.63511,0.65366 -11.683351,-0.044 -25.846204,-0.16308 -31.473009,-0.26458 z M 5.8439471,127.8232 c -0.792601,-0.3183 -0.801721,-0.39211 -0.705555,-5.71028 l 0.09743,-5.38781 h 6.1736109 6.173611 l 0.09741,5.38509 0.09741,5.38509 -0.914124,0.34755 c -1.140238,0.43351 -9.9303739,0.41785 -11.0197899,-0.0197 z m 32.9350569,-0.25005 c -6.662529,-0.0674 -10.003807,-0.2286 -10.328631,-0.49818 -0.370064,-0.30712 -0.457665,-1.45843 -0.382076,-5.0214 l 0.09808,-4.62291 10.054167,-0.27024 c 5.529791,-0.14864 19.658001,-0.35072 31.396024,-0.44909 19.87036,-0.1665 21.37234,-0.13713 21.78403,0.42587 0.54968,0.75175 0.61319,9.01612 0.077,10.01804 -0.3556,0.66446 -0.92265,0.6802 -21.60763,0.59999 -11.683347,-0.0453 -25.674267,-0.12725 -31.09093,-0.18208 z M 5.2766901,104.35719 c -0.119493,-0.3114 -0.217261,-2.77011 -0.217261,-5.4638 0,-4.481085 0.05803,-4.928683 0.682363,-5.262816 1.012392,-0.541814 10.6734049,-0.475636 11.4309639,0.07831 0.534889,0.391118 0.594928,1.068116 0.508398,5.732639 l -0.09811,5.289147 -6.044544,0.0964 c -5.2801169,0.0842 -6.0720199,0.0247 -6.2618059,-0.46983 z m 43.3808289,0.28528 c -0.145168,-0.14552 -4.815063,-0.34396 -10.377543,-0.44097 l -10.113603,-0.17639 -0.09808,-4.622912 c -0.07701,-3.629942 0.0083,-4.711216 0.397309,-5.03404 0.36412,-0.302196 8.699366,-0.471487 31.457367,-0.638905 29.900179,-0.219964 30.978419,-0.205317 31.440889,0.427161 0.58431,0.799091 0.67711,9.015556 0.11371,10.068276 -0.3548,0.66295 -0.96524,0.68236 -21.46065,0.68236 -11.602501,0 -21.214231,-0.11906 -21.359403,-0.26458 z M 5.4909351,81.561337 c -0.597482,-0.597482 -0.604751,-10.206595 -0.0082,-10.803173 0.488655,-0.488655 11.0960569,-0.602065 11.8452159,-0.126645 0.340826,0.216291 0.426702,1.610486 0.352778,5.727235 l -0.09772,5.441354 -5.830299,0.09637 c -4.2366439,0.07003 -5.9482479,-0.02159 -6.2618059,-0.335139 z m 43.1665319,0.150576 c -0.1452,-0.14552 -4.815096,-0.343958 -10.377548,-0.440972 L 28.166373,81.094552 v -4.938889 -4.938888 l 11.288889,-0.216718 c 6.208889,-0.119196 20.449508,-0.238258 31.645816,-0.264584 l 20.35693,-0.04787 0.22377,1.192762 c 0.12307,0.65602 0.16995,3.043342 0.10418,5.305161 -0.0924,3.176418 -0.24002,4.18839 -0.64875,4.446281 -0.63042,0.397767 -42.084782,0.475936 -42.479741,0.0801 z"
         id="path1076" />
      <path
         style="fill:#99b9da;stroke-width:1"
         d="m 139.06917,220.17009 c -0.50731,-0.82071 -4.27576,-7.6927 -8.37436,-15.27109 l -7.45199,-13.77888 -0.0354,-74.59195 c -0.0195,-41.025573 -0.0201,-74.790388 -0.001,-75.032923 0.0267,-0.34618 3.67404,-0.440972 16.96737,-0.440972 h 16.93333 v 74.992265 74.99227 l -7.97036,14.70148 c -4.3837,8.08582 -8.2346,14.9761 -8.55756,15.31174 -0.55343,0.57517 -0.64023,0.52446 -1.50956,-0.88194 z M 5.6473921,150.53298 c -0.129352,-0.12935 -0.235185,-2.573 -0.235185,-5.43032 0,-4.41184 0.08413,-5.22741 0.558019,-5.40925 0.306911,-0.11778 2.835572,-0.21414 5.6192459,-0.21414 4.130746,0 5.163143,0.10192 5.615591,0.55437 0.444811,0.44481 0.554366,1.42544 0.554366,4.96208 0,2.42424 -0.164335,4.71478 -0.365189,5.09008 -0.337396,0.63043 -0.789386,0.68236 -5.938427,0.68236 -3.0652799,0 -5.6790689,-0.10583 -5.8084209,-0.23518 z m 43.2340109,-0.41339 c -0.338667,-0.21611 -0.426907,-1.47256 -0.352778,-5.02328 l 0.09886,-4.73509 h 21.166663 21.16667 v 4.93889 4.93889 l -20.81389,0.0844 C 58.69929,150.3698 49.129805,150.2781 48.881404,150.1196 Z M 5.6473921,127.60242 c -0.129352,-0.12935 -0.235185,-2.57299 -0.235185,-5.43031 0,-4.41184 0.08413,-5.22741 0.558019,-5.40926 0.306911,-0.11777 2.9207,-0.21413 5.8084209,-0.21413 4.829865,0 5.279654,0.0546 5.615593,0.68236 0.200854,0.3753 0.365189,2.60824 0.365189,4.96208 0,2.35385 -0.164335,4.58678 -0.365189,4.96208 -0.337396,0.63043 -0.789386,0.68237 -5.938427,0.68237 -3.0652799,0 -5.6790689,-0.10584 -5.8084209,-0.23519 z m 42.9576089,-0.93091 c -0.0972,-0.2533 -0.131903,-2.43611 -0.07712,-4.85069 l 0.0996,-4.39016 21.254867,-0.091 21.25486,-0.0909 v 4.94164 4.94164 h -21.17774 c -17.096671,0 -21.211799,-0.0888 -21.35447,-0.46054 z M 5.8433971,104.6102 c -0.340362,-0.21599 -0.426759,-1.57543 -0.352778,-5.550845 l 0.09798,-5.264803 5.6423069,-0.09759 c 4.995964,-0.08641 5.693067,-0.02819 6.085416,0.508399 0.550576,0.752955 0.614838,9.016089 0.07792,10.019329 -0.336694,0.62912 -0.784002,0.68194 -5.73264,0.67696 -2.9520969,-0.003 -5.5702879,-0.13412 -5.8182029,-0.29145 z M 48.68903,103.96906 c -0.130863,-0.13086 -0.237935,-2.33762 -0.237935,-4.903895 0,-3.929309 0.0881,-4.699766 0.55802,-4.880091 0.848512,-0.325607 41.180363,-0.245072 41.697783,0.08326 0.33873,0.214944 0.42692,1.470339 0.35278,5.021682 l -0.0989,4.735094 -21.01693,0.091 c -11.559265,0.05 -21.123952,-0.0161 -21.254818,-0.147 z M 6.0193611,81.553347 C 5.4595431,81.13921 5.4024151,80.537146 5.4901941,75.976543 l 0.0984,-5.112546 5.8657029,-0.09653 c 5.839851,-0.0961 5.866652,-0.09299 6.080601,0.705556 0.343884,1.283521 0.246637,9.216581 -0.120107,9.797916 -0.46476,0.736706 -10.4469229,0.984088 -11.3954319,0.282406 z M 48.60642,80.81409 c -0.09759,-0.254324 -0.132779,-2.51776 -0.07819,-5.029861 l 0.09925,-4.567454 h 21.166668 21.16667 v 4.938888 4.938889 l -21.08848,0.09098 c -17.131205,0.0739 -21.121777,0.0042 -21.265922,-0.371437 z"
         id="path1074" />
      <path
         style="fill:#fd6e36;stroke-width:1"
         d="m 135.14474,212.22645 c -2.6687,-4.98893 -6.39933,-11.92829 -8.29028,-15.42079 l -3.43809,-6.35 -0.0205,-74.70069 -0.0206,-74.700695 h 16.6893 16.68929 l 0.018,11.024305 c 0.01,6.063368 0.0205,39.731153 0.0236,74.8173 l 0.006,63.793 -8.13744,15.00681 c -4.47559,8.25375 -8.13743,15.14659 -8.13743,15.31742 0,1.02874 -1.03384,-0.6593 -5.38136,-8.78666 z M 5.9227841,149.96499 c -0.09895,-0.25788 -0.135254,-2.52422 -0.08066,-5.03632 l 0.09925,-4.56745 5.5659909,-0.0972 5.56599,-0.0972 -0.09793,5.0361 -0.09793,5.03609 -5.387391,0.0974 c -4.2247679,0.0764 -5.4262189,-0.004 -5.5673089,-0.37143 z m 0.27251,-22.77756 c -0.338728,-0.21494 -0.426921,-1.47033 -0.352778,-5.02168 l 0.09886,-4.73509 5.5562499,-0.0971 5.55625,-0.0971 v 4.9101 c 0,4.15194 -0.08616,4.94317 -0.55802,5.12424 -0.83432,0.32016 -9.7787499,0.24786 -10.3005589,-0.0833 z m -0.195124,-23.22112 c -0.129352,-0.12935 -0.235186,-2.34883 -0.235186,-4.932165 0,-5.593612 -0.582147,-5.136289 6.3499999,-4.988412 l 4.7625,0.101597 0.09788,5.027083 0.09788,5.027087 H 11.6543 c -2.9804199,0 -5.5247789,-0.10584 -5.6541299,-0.23519 z m -0.07739,-23.145767 c -0.09895,-0.257874 -0.135254,-2.524213 -0.08066,-5.036314 l 0.09925,-4.567454 h 5.4680559 5.468055 v 4.938888 4.938889 l -5.387391,0.09742 c -4.2247679,0.0764 -5.4262189,-0.0037 -5.5673089,-0.371432 z"
         id="path1072" />
      <path
         style="fill:#fd4259;stroke-width:1"
         d="m 139.82054,221.05234 c 0,-0.14926 -3.65034,-7.01519 -8.11187,-15.25764 l -8.11187,-14.98626 -0.002,-4.49142 -0.002,-4.49141 8.20209,-0.0947 8.20208,-0.0947 V 122.19316 62.750108 l -8.20208,-0.0947 -8.20209,-0.0947 v -10.1952 c 0,-5.607361 -0.0964,-10.44631 -0.21413,-10.753221 -0.19341,-0.504025 1.41093,-0.558019 16.58056,-0.558019 h 16.79468 l 0.018,11.024305 c 0.01,6.063368 0.0205,39.731153 0.0236,74.817297 l 0.006,63.793 -8.13744,15.00681 c -4.47559,8.25375 -8.13743,15.14659 -8.13743,15.31742 0,0.17083 -0.15875,0.31061 -0.35278,0.31061 -0.19403,0 -0.35278,-0.12212 -0.35278,-0.27138 z M 5.9227841,149.96499 c -0.09895,-0.25788 -0.135254,-2.52422 -0.08066,-5.03632 l 0.09925,-4.56745 5.5659909,-0.0972 5.56599,-0.0972 -0.09793,5.0361 -0.09793,5.03609 -5.387391,0.0974 c -4.2247679,0.0764 -5.4262189,-0.004 -5.5673089,-0.37143 z m 0.27251,-22.77756 c -0.338728,-0.21494 -0.426921,-1.47033 -0.352778,-5.02168 l 0.09886,-4.73509 5.5562499,-0.0971 5.55625,-0.0971 v 4.9101 c 0,4.15194 -0.08616,4.94317 -0.55802,5.12424 -0.83432,0.32016 -9.7787499,0.24786 -10.3005589,-0.0833 z m -0.195124,-23.22112 c -0.129352,-0.12935 -0.235186,-2.34883 -0.235186,-4.932165 0,-5.593612 -0.582147,-5.136289 6.3499999,-4.988412 l 4.7625,0.101597 0.09788,5.027083 0.09788,5.027087 H 11.6543 c -2.9804199,0 -5.5247789,-0.10584 -5.6541299,-0.23519 z m -0.07739,-23.145767 c -0.09895,-0.257874 -0.135254,-2.524213 -0.08066,-5.036314 l 0.09925,-4.567454 h 5.4680559 5.468055 v 4.938888 4.938889 l -5.387391,0.09742 c -4.2247679,0.0764 -5.4262189,-0.0037 -5.5673089,-0.371432 z"
         id="path1070" />
      <path
         style="fill:#04449b;stroke-width:1"
         d="m 139.82054,221.05234 c 0,-0.14926 -3.65034,-7.01519 -8.11187,-15.25764 l -8.11187,-14.98626 -0.002,-4.32153 -0.002,-4.32153 h 16.58056 16.58055 l -0.003,4.32153 -0.003,4.32153 -8.11054,14.94593 c -4.46114,8.22026 -8.11088,15.08619 -8.11088,15.25764 0,0.17144 -0.15875,0.31171 -0.35278,0.31171 -0.19403,0 -0.35278,-0.12212 -0.35278,-0.27138 z M 5.9227841,149.96499 c -0.09895,-0.25788 -0.135254,-2.52422 -0.08066,-5.03632 l 0.09925,-4.56745 5.5659909,-0.0972 5.56599,-0.0972 -0.09793,5.0361 -0.09793,5.03609 -5.387391,0.0974 c -4.2247679,0.0764 -5.4262189,-0.004 -5.5673089,-0.37143 z m 0.27251,-22.77756 c -0.338728,-0.21494 -0.426921,-1.47033 -0.352778,-5.02168 l 0.09886,-4.73509 5.5562499,-0.0971 5.55625,-0.0971 v 4.9101 c 0,4.15194 -0.08616,4.94317 -0.55802,5.12424 -0.83432,0.32016 -9.7787499,0.24786 -10.3005589,-0.0833 z m -0.195124,-23.22112 c -0.129352,-0.12935 -0.235186,-2.34883 -0.235186,-4.932165 0,-5.593612 -0.582147,-5.136289 6.3499999,-4.988412 l 4.7625,0.101597 0.09788,5.027083 0.09788,5.027087 H 11.6543 c -2.9804199,0 -5.5247789,-0.10584 -5.6541299,-0.23519 z m -0.07739,-23.145767 c -0.09895,-0.257874 -0.135254,-2.524213 -0.08066,-5.036314 l 0.09925,-4.567454 h 5.4680559 5.468055 v 4.938888 4.938889 l -5.387391,0.09742 c -4.2247679,0.0764 -5.4262189,-0.0037 -5.5673089,-0.371432 z M 123.59276,52.195627 c 0,-5.513922 -0.0964,-10.276422 -0.21413,-10.583333 -0.19341,-0.504025 1.41093,-0.558019 16.58056,-0.558019 h 16.79468 v 10.583333 10.583333 h -16.58055 -16.58056 z"
         id="path1068" />
      <path
         style="fill:#04275a;stroke-width:1"
         d="m 140.17332,201.61783 c 0,-10.08502 -0.0964,-18.58752 -0.21413,-18.89443 -0.19154,-0.49913 0.66476,-0.55802 8.11388,-0.55802 h 8.32803 v 4.29765 4.29765 l -7.79651,14.40063 c -4.28807,7.92034 -7.93932,14.48889 -8.11388,14.59678 -0.18645,0.11523 -0.31739,-7.36885 -0.31739,-18.14026 z M 139.95919,61.662922 c 0.11777,-0.306911 0.21413,-5.069411 0.21413,-10.583333 V 41.054275 h 8.32802 c 7.44913,0 8.30542,0.05889 8.11389,0.558019 -0.11778,0.306911 -0.21413,5.069411 -0.21413,10.583333 v 10.025314 h -8.32803 c -7.44912,0 -8.30542,-0.05889 -8.11388,-0.558019 z"
         id="path1066" />
    </g>
  </g>
</svg>
