<?xml version="1.0" encoding="UTF-8" standalone="no"?>
<!-- Created with Inkscape (http://www.inkscape.org/) -->

<svg
   width="67.713799mm"
   height="63.499992mm"
   viewBox="0 0 67.713799 63.499992"
   version="1.1"
   id="svg5"
   xml:space="preserve"
   inkscape:version="1.2.2 (b0a8486541, 2022-12-01)"
   sodipodi:docname="drawing.svg"
   xmlns:inkscape="http://www.inkscape.org/namespaces/inkscape"
   xmlns:sodipodi="http://sodipodi.sourceforge.net/DTD/sodipodi-0.dtd"
   xmlns="http://www.w3.org/2000/svg"
   xmlns:svg="http://www.w3.org/2000/svg"><sodipodi:namedview
     id="namedview7"
     pagecolor="#ffffff"
     bordercolor="#000000"
     borderopacity="0.25"
     inkscape:showpageshadow="2"
     inkscape:pageopacity="0.0"
     inkscape:pagecheckerboard="0"
     inkscape:deskcolor="#d1d1d1"
     inkscape:document-units="mm"
     showgrid="false"
     inkscape:zoom="0.75277076"
     inkscape:cx="-258.37879"
     inkscape:cy="192.62172"
     inkscape:window-width="1920"
     inkscape:window-height="1011"
     inkscape:window-x="0"
     inkscape:window-y="32"
     inkscape:window-maximized="1"
     inkscape:current-layer="g802" /><defs
     id="defs2" /><g
     inkscape:label="Layer 1"
     inkscape:groupmode="layer"
     id="layer1"
     transform="translate(-16.492528,-91.856915)"><g
       id="g802"
       transform="translate(-58.267432,-6.7919022)"><path
         style="fill:#a3e6db;fill-opacity:1;stroke-width:0.264583"
         d="m 110.95294,161.88669 c -0.21828,-0.0428 -1.28984,-0.22292 -2.38125,-0.40033 -5.49539,-0.89334 -11.288498,-3.86007 -15.225768,-7.79734 -1.43412,-1.43412 -3.29506,-3.81315 -3.29506,-4.21242 0,-0.0829 2.92173,-0.15077 6.49272,-0.15077 3.570998,0 7.637878,-0.12769 9.037508,-0.28376 14.75872,-1.64569 25.96085,-11.6085 27.62267,-24.56671 l 0.30968,-2.41474 0.82444,0.62793 c 2.60752,1.98598 5.98534,7.32373 6.97801,11.02687 0.72309,2.69749 0.6433,8.01334 -0.15885,10.58333 -0.77788,2.49222 -2.14034,5.11139 -3.75865,7.22561 l -1.25375,1.63793 2.88228,2.93594 c 2.45414,2.49983 2.88227,3.06166 2.88227,3.78234 0,0.54587 -0.23059,1.07699 -0.64943,1.49583 l -0.64943,0.64943 -14.63026,-0.0307 c -8.04664,-0.0169 -14.80884,-0.0657 -15.02713,-0.10845 z"
         id="path806"
         sodipodi:nodetypes="scssssscsssscssscsss" /><path
         style="fill:#228c7e;fill-opacity:1;stroke-width:0.264583"
         d="m 75.883745,144.90096 c -0.732467,-0.35412 -1.248231,-1.57968 -1.000734,-2.37795 0.10484,-0.33815 1.436452,-1.88278 2.959138,-3.4325 l 2.76852,-2.81768 -1.169866,-1.43629 c -7.219938,-8.86413 -5.881227,-21.1658 3.169831,-29.12819 4.904461,-4.31454 12.543687,-7.059533 19.646466,-7.059533 5.88324,0 12.38205,1.941853 17.06562,5.099243 15.34294,10.34329 13.31786,30.48967 -3.87419,38.54206 -2.65055,1.24146 -5.30229,2.01502 -8.69352,2.53606 -3.10834,0.47757 -29.903866,0.54248 -30.871265,0.0748 z m 32.073925,-17.26824 c 0.85919,-0.8592 0.85919,-2.07528 0,-2.93447 l -0.64944,-0.64943 h -9.284465 -9.284469 l -0.649432,0.64943 c -0.409373,0.40937 -0.649432,0.95173 -0.649432,1.46723 0,0.51551 0.240059,1.05786 0.649432,1.46724 l 0.649432,0.64943 h 9.284469 9.284465 z m 8.46666,-8.46667 c 0.40938,-0.40937 0.64943,-0.95173 0.64943,-1.46723 0,-0.51551 -0.24005,-1.05787 -0.64943,-1.46724 l -0.64943,-0.64943 H 102.2571 88.739296 l -0.649432,0.64943 c -0.409373,0.40937 -0.649432,0.95173 -0.649432,1.46724 0,0.5155 0.240059,1.05786 0.649432,1.46723 l 0.649432,0.64943 h 13.517804 13.5178 z"
         id="path804" /></g></g></svg>
