<?xml version="1.0" encoding="UTF-8" standalone="no"?>
<!-- Generator: Adobe Illustrator 17.1.0, SVG Export Plug-In . SVG Version: 6.00 Build 0)  -->

<svg
   version="1.1"
   id="dollar-bill"
   x="0px"
   y="0px"
   viewBox="0 0 911.67102 911.974"
   enable-background="new 0 0 1010 1010"
   xml:space="preserve"
   sodipodi:docname="crediario-3.svg"
   inkscape:version="1.1.1 (3bf5ae0d25, 2021-09-20)"
   width="911.67102"
   height="911.974"
   xmlns:inkscape="http://www.inkscape.org/namespaces/inkscape"
   xmlns:sodipodi="http://sodipodi.sourceforge.net/DTD/sodipodi-0.dtd"
   xmlns="http://www.w3.org/2000/svg"
   xmlns:svg="http://www.w3.org/2000/svg"><defs
   id="defs42" /><sodipodi:namedview
   id="namedview40"
   pagecolor="#ffffff"
   bordercolor="#666666"
   borderopacity="1.0"
   inkscape:pageshadow="2"
   inkscape:pageopacity="0.0"
   inkscape:pagecheckerboard="0"
   showgrid="false"
   inkscape:zoom="0.82376238"
   inkscape:cx="395.74519"
   inkscape:cy="590.58293"
   inkscape:window-width="2560"
   inkscape:window-height="1017"
   inkscape:window-x="-8"
   inkscape:window-y="-8"
   inkscape:window-maximized="1"
   inkscape:current-layer="dollar-bill" />
<rect
   style="fill:#3bafda;fill-opacity:1;stroke-width:0.599999;paint-order:markers stroke fill"
   id="rect1123"
   width="911.67102"
   height="911.974"
   x="0"
   y="0"
   rx="0"
   ry="0" /><g
   id="dollar-bill-dollar-bill"
   transform="translate(-49.17454,-49.013)">
	
	<g
   id="dollar-bill-dollar-bill_1_">
		<g
   id="g7">
			<polyline
   fill="#ffffff"
   points="259.917,325.8828 259.917,269.3267 750.1025,269.3267 750.1025,325.8828    "
   id="polyline3" />
			<path
   fill="#454545"
   d="m 750.1025,335.9824 c -5.583,0 -10.0996,-4.5171 -10.0996,-10.0996 v -46.456 H 270.0176 v 46.456 c 0,5.5825 -4.5176,10.0996 -10.1006,10.0996 -5.582,0 -10.0996,-4.5171 -10.0996,-10.0996 v -56.5561 c 0,-5.5826 4.5176,-10.1001 10.0996,-10.1001 h 490.1855 c 5.583,0 10.1006,4.5175 10.1006,10.1001 v 56.5561 c 0,5.5825 -4.5176,10.0996 -10.1006,10.0996 z"
   id="path5" />
		</g>
		<g
   id="g13">
			<rect
   x="222.21001"
   y="325.88281"
   fill="#acaf48"
   width="565.60052"
   height="414.7901"
   id="rect9" />
			<path
   fill="#454545"
   d="M 787.8105,750.7734 H 222.21 c -5.5826,0 -10.1001,-4.5176 -10.1001,-10.1005 V 325.8828 c 0,-5.583 4.5175,-10.1001 10.1001,-10.1001 h 565.6005 c 5.5821,0 10.0997,4.5171 10.0997,10.1001 v 414.7901 c 0,5.583 -4.5176,10.1005 -10.0997,10.1005 z M 232.3101,730.5732 H 777.71 V 335.9824 H 232.3101 Z"
   id="path11" />
		</g>
		<g
   id="g19">
			<path
   fill="#fc6e51"
   d="M 636.9707,401.2974 H 373.0293 c 0,42.4321 -33.0024,75.4145 -75.4146,75.4145 l 1.8741,108.417 c 42.4321,0 73.5405,37.6973 73.5405,80.1299 h 263.9414 c 0,-42.4326 33.0029,-75.4151 75.4346,-75.4151 V 476.7119 c -42.4317,0 -75.4346,-32.9824 -75.4346,-75.4145 z"
   id="path15" />
			<path
   fill="#454545"
   d="M 636.9707,675.3584 H 373.0293 c -5.5825,0 -10.0996,-4.5176 -10.0996,-10.0996 0,-38.6152 -28.4561,-70.0293 -63.4409,-70.0293 -5.5137,0 -10.0015,-4.419 -10.1001,-9.9229 l -1.8741,-108.417 c -0.0493,-2.7119 0.9961,-5.3261 2.9,-7.2597 1.894,-1.9326 4.4877,-3.0176 7.2001,-3.0176 36.6226,0 65.315,-28.6924 65.315,-65.3149 0,-5.5826 4.5171,-10.1001 10.0996,-10.1001 h 263.9414 c 5.583,0 10.0996,4.5175 10.0996,10.1001 0,36.6225 28.7031,65.3149 65.335,65.3149 5.583,0 10.0996,4.5166 10.0996,10.0996 v 113.1318 c 0,5.5831 -4.5166,10.0997 -10.0996,10.0997 -36.6319,0 -65.335,28.6933 -65.335,65.3154 0,5.582 -4.5166,10.0996 -10.0996,10.0996 z M 382.6064,655.1582 h 244.8272 c 4.4873,-39.7187 35.1426,-70.374 74.8711,-74.8516 V 486.25 c -39.7285,-4.4785 -70.3838,-35.1328 -74.8711,-74.8525 H 382.5674 c -4.478,39.6601 -35.0542,70.2861 -74.6851,74.833 l 1.5484,89.4297 c 38.3784,4.9218 68.8755,38.0039 73.1757,79.498 z"
   id="path17" />
		</g>
		<g
   id="g25">
			<path
   fill="#ffb933"
   d="m 505,476.7119 c 31.2471,0 56.5762,25.3291 56.5762,56.5762 0,31.2373 -25.3291,56.5556 -56.5762,56.5556 -31.2471,0 -56.5557,-25.3183 -56.5557,-56.5556 0,-31.2471 25.3086,-56.5762 56.5557,-56.5762 z"
   id="path21" />
			<path
   fill="#454545"
   d="m 505,599.9434 c -36.7505,0 -66.6562,-29.9053 -66.6562,-66.6553 0,-36.7608 29.9057,-66.6758 66.6562,-66.6758 36.7607,0 66.6758,29.915 66.6758,66.6758 0,36.75 -29.9151,66.6553 -66.6758,66.6553 z m 0,-113.1309 c -25.6147,0 -46.4561,20.8506 -46.4561,46.4756 0,25.6142 20.8414,46.456 46.4561,46.456 25.625,0 46.4756,-20.8418 46.4756,-46.456 0,-25.625 -20.8506,-46.4756 -46.4756,-46.4756 z"
   id="path23" />
		</g>
		<g
   id="g35">
			<g
   id="g29">
				<polygon
   fill="#454545"
   points="368.6602,519.1436 388.8599,519.1436 388.8599,539.3437 368.6602,539.3437 "
   id="polygon27" />
			</g>
			<g
   id="g33">
				<polygon
   fill="#454545"
   points="621.1602,519.1436 641.3594,519.1436 641.3594,539.3437 621.1602,539.3437 "
   id="polygon31" />
			</g>
		</g>
	</g>
</g>
</svg>
