<svg xmlns="http://www.w3.org/2000/svg" width="83.434" height="83.712" viewBox="0 0 83.434 83.712"><defs><style>.a{fill:#3b86ff;}</style></defs><g transform="translate(-98 -257)"><path class="a" d="M82.19,55.25a1.244,1.244,0,0,0,1.243-1.243v-30a6.364,6.364,0,0,0-6.373-6.373H62.915V1.243A1.243,1.243,0,0,0,61.672,0H31.311a1.243,1.243,0,0,0-1.243,1.243V18.871a1.243,1.243,0,0,0,2.486,0V2.487H60.429V17.633H46.7A6.345,6.345,0,0,0,42.191,19.5a6.43,6.43,0,0,0-1.458,2.275,5.976,5.976,0,0,0-.86-.063H12.679a1.243,1.243,0,0,0,0,2.486H39.873a3.491,3.491,0,0,1,3.487,3.487V77.739a3.491,3.491,0,0,1-3.487,3.487H5.973a3.491,3.491,0,0,1-3.487-3.487V27.684A3.491,3.491,0,0,1,5.973,24.2H8.536a1.243,1.243,0,0,0,0-2.486H5.973A5.98,5.98,0,0,0,0,27.684V77.739a5.98,5.98,0,0,0,5.973,5.973h33.9a5.98,5.98,0,0,0,5.973-5.973V30.378h4.742v47a1.243,1.243,0,0,0,1.243,1.243h30.36a1.243,1.243,0,0,0,1.243-1.243V58.15a1.243,1.243,0,0,0-2.486,0V76.132H53.074V24.005a6.335,6.335,0,0,0-1.319-3.886H77.061a3.878,3.878,0,0,1,3.886,3.886v30A1.244,1.244,0,0,0,82.19,55.25Zm-32.741-34a3.868,3.868,0,0,1,1.139,2.751v3.887H45.845v-.208a5.973,5.973,0,0,0-2.783-5.046A3.874,3.874,0,0,1,46.7,20.119h0a3.87,3.87,0,0,1,2.745,1.135Zm0,0" transform="translate(98 257)"/><path class="a" d="M400.044,146.336H386.951a1.243,1.243,0,1,0,0,2.486h13.093a1.243,1.243,0,1,0,0-2.486Zm0,0" transform="translate(-224.645 134.59)"/><path class="a" d="M401.286,318.888a1.243,1.243,0,0,0-1.243-1.244H386.95a1.243,1.243,0,1,0,0,2.486h13.093A1.243,1.243,0,0,0,401.286,318.888Zm0,0" transform="translate(-224.644 -8.71)"/><path class="a" d="M400.044,274.82H386.951a1.243,1.243,0,1,0,0,2.486h13.093a1.243,1.243,0,1,0,0-2.486Zm0,0" transform="translate(-224.645 27.113)"/><path class="a" d="M400.044,231.992H386.951a1.243,1.243,0,1,0,0,2.486h13.093a1.243,1.243,0,1,0,0-2.486Zm0,0" transform="translate(-224.645 62.938)"/><path class="a" d="M400.044,189.164H386.951a1.243,1.243,0,1,0,0,2.486h13.093a1.243,1.243,0,0,0,0-2.486Zm0,0" transform="translate(-224.645 98.764)"/><path class="a" d="M390.421,371.847a.721.721,0,0,0,.493.184h.03a.855.855,0,0,0,.853-.853V371a3.563,3.563,0,0,0,3.051-3.686c0-2.184-1.463-3.057-3.051-3.67v-3.062a3.547,3.547,0,0,1,1.131.395,1.452,1.452,0,0,0,.639.216c.675,0,.967-.825.967-1.246,0-.9-1.406-1.314-2.737-1.406v-.185a.853.853,0,1,0-1.707,0v.24c-2.033.34-3.2,1.582-3.2,3.411,0,2.249,1.84,2.956,3.2,3.467v3.436a3.659,3.659,0,0,1-1.63-.826,1.54,1.54,0,0,0-.864-.446c-.581,0-1.019.766-1.019,1.264,0,.938,1.441,2.064,3.513,2.193v.085A.842.842,0,0,0,390.421,371.847Zm-.33-11.166v2.311c-.519-.239-.986-.558-.986-1.213C389.1,361.251,389.446,360.872,390.091,360.681Zm1.707,8.114v-2.6a1.462,1.462,0,0,1,.838,1.342A1.289,1.289,0,0,1,391.8,368.794Zm0,0" transform="translate(-225.373 -42.049)"/><path class="a" d="M66.311,164.442a1.243,1.243,0,0,0-1.243-1.243H31.653a1.243,1.243,0,0,0-1.243,1.243v12.3a1.244,1.244,0,0,0,1.243,1.243H65.069a1.243,1.243,0,0,0,1.243-1.243Zm-2.486,11.052H32.9v-9.809h30.93Zm0,0" transform="translate(72.562 120.483)"/><path class="a" d="M65.069,270.449H31.653a1.243,1.243,0,0,0-1.243,1.243v32.17a1.244,1.244,0,0,0,1.243,1.243H65.069a1.243,1.243,0,0,0,1.243-1.243v-32.17A1.243,1.243,0,0,0,65.069,270.449Zm-1.243,10.994h-8.42v-8.508h8.42Zm0,10.182h-8.42v-7.7h8.42Zm-30.929-7.7h8.42v7.7H32.9Zm10.905,0H52.92v7.7H43.8Zm9.118-10.994v8.508H43.8v-8.508Zm-11.6,0v8.508H32.9v-8.508ZM32.9,294.111h8.42v8.508H32.9ZM43.8,302.619v-8.508H52.92v8.508Zm11.6,0v-8.508h8.42v8.508Zm0,0" transform="translate(72.562 30.769)"/><path class="a" d="M343.636,146.336h-3.315a1.243,1.243,0,1,0,0,2.486h3.315a1.243,1.243,0,1,0,0-2.486Zm0,0" transform="translate(-185.639 134.59)"/><path class="a" d="M343.636,317.645h-3.315a1.243,1.243,0,1,0,0,2.486h3.315a1.243,1.243,0,0,0,0-2.486Zm0,0" transform="translate(-185.639 -8.71)"/><path class="a" d="M343.636,274.82h-3.315a1.243,1.243,0,1,0,0,2.486h3.315a1.243,1.243,0,1,0,0-2.486Zm0,0" transform="translate(-185.639 27.113)"/><path class="a" d="M343.636,231.992h-3.315a1.243,1.243,0,1,0,0,2.486h3.315a1.243,1.243,0,1,0,0-2.486Zm0,0" transform="translate(-185.639 62.938)"/><path class="a" d="M343.636,189.164h-3.315a1.243,1.243,0,1,0,0,2.486h3.315a1.243,1.243,0,0,0,0-2.486Zm0,0" transform="translate(-185.639 98.764)"/><path class="a" d="M214.625,37.936h3.315a1.243,1.243,0,1,0,0-2.486h-3.315a1.243,1.243,0,0,0,0,2.486Zm0,0" transform="translate(-80.494 227.347)"/><path class="a" d="M261.254,37.936h13.093a1.243,1.243,0,0,0,0-2.486H261.254a1.243,1.243,0,0,0,0,2.486Zm0,0" transform="translate(-119.5 227.347)"/><path class="a" d="M214.625,80.764h3.315a1.243,1.243,0,1,0,0-2.486h-3.315a1.243,1.243,0,0,0,0,2.486Zm0,0" transform="translate(-80.494 191.521)"/><path class="a" d="M261.254,80.764h13.093a1.243,1.243,0,0,0,0-2.486H261.254a1.243,1.243,0,0,0,0,2.486Zm0,0" transform="translate(-119.5 191.521)"/><path class="a" d="M195.875,216.736h2.652a1.243,1.243,0,0,0,0-2.486h-2.652a1.243,1.243,0,0,0,0,2.486Zm0,0" transform="translate(-64.81 77.78)"/></g></svg>