<svg xmlns="http://www.w3.org/2000/svg" width="68.913" height="84" viewBox="0 0 68.913 84"><defs><style>.a{fill:#3b86ff;}</style></defs><g transform="translate(-187 -257)"><path class="a" d="M238.741,93.182h.64a3.512,3.512,0,0,0,3.478,3.1h2.379a3.511,3.511,0,0,0,3.511-3.495V90.295a.221.221,0,0,1,.23-.213h2.51a.221.221,0,0,1,.23.213v2.494a.221.221,0,0,1-.23.213h-.23a1.641,1.641,0,0,0,0,3.281h.23a3.5,3.5,0,0,0,3.478-3.1h.64a1.641,1.641,0,1,0,0-3.281h-.64a3.512,3.512,0,0,0-3.478-3.1h-2.51a3.511,3.511,0,0,0-3.511,3.495v2.494a.221.221,0,0,1-.23.213h-2.379a.221.221,0,0,1-.23-.213V90.295a.221.221,0,0,1,.23-.213,1.641,1.641,0,0,0,0-3.281,3.5,3.5,0,0,0-3.478,3.1h-.64a1.641,1.641,0,0,0,0,3.281Z" transform="translate(-17.892 184.441)"/><path class="a" d="M186.472,53.222l-9.384-12.567V15.914h5.972a4.138,4.138,0,0,0,4.134-4.134V4.134A4.138,4.138,0,0,0,183.059,0H138.434A4.138,4.138,0,0,0,134.3,4.134V11.78a4.138,4.138,0,0,0,4.134,4.134h5.48V51.253a1.645,1.645,0,0,0,1.641,1.641h14.831V71.023h-2a1.645,1.645,0,0,0-1.641,1.641v9.7A1.645,1.645,0,0,0,158.384,84H182.3a1.645,1.645,0,0,0,1.641-1.641v-9.7a1.645,1.645,0,0,0-1.641-1.641h-1.772a4.492,4.492,0,0,1,.246-.656L187,60.818a.666.666,0,0,0,.082-.148A7.04,7.04,0,0,0,186.472,53.222ZM138.434,12.633a.847.847,0,0,1-.853-.853V4.134a.847.847,0,0,1,.853-.853h44.625a.847.847,0,0,1,.853.853V11.78a.847.847,0,0,1-.853.853h-5.972v-2.4h2.822a1.641,1.641,0,1,0,0-3.281H141.584a1.641,1.641,0,0,0,0,3.281h2.33v2.4Zm35.372,0V24.281c-2.773,3.511-7.793,5.677-13.24,5.677-5.562,0-10.631-2.231-13.371-5.857V12.813a13.142,13.142,0,0,1,2.641-2.576H171.3A12.967,12.967,0,0,1,173.806,12.633ZM147.2,49.612v-2.33a4.376,4.376,0,0,1,2.33,2.33Zm5.742,0A7.582,7.582,0,0,0,147.2,43.87V28.793a22.265,22.265,0,0,0,26.611.1V43.854a7.49,7.49,0,0,0-2.691,1.181,5.39,5.39,0,0,0-1.542-3.3,5.335,5.335,0,0,0-3.806-1.575h0a5.384,5.384,0,0,0-5.381,5.381v4.069h-7.448Zm18.539,0a4.376,4.376,0,0,1,2.33-2.33v2.33Zm2.33,3.281V56.47a1.329,1.329,0,1,1-2.658.016V52.91h2.658Zm6.858,21.41v6.415H160.025V74.3Zm3.544-15.192L177.99,68.66a.667.667,0,0,0-.082.148,6.993,6.993,0,0,0-.705,2.215H163.667V45.544a2.092,2.092,0,1,1,4.184-.016V56.47a4.61,4.61,0,1,0,9.22,0V46.134l6.759,9.04A3.8,3.8,0,0,1,184.208,59.112Z" transform="translate(68.043 257)"/><path class="a" d="M88.789,278.033a1.658,1.658,0,1,0-.607-2.018A1.609,1.609,0,0,0,88.789,278.033Z" transform="translate(106.712 27.12)"/><path class="a" d="M65.459,231.379c1.329.033,3.347.066,4.823.066a1.614,1.614,0,0,1,1.066.919,1.591,1.591,0,0,1,.049,1.165,1.535,1.535,0,0,1-.361.607L69.2,236.1l-.459.492-3.281,3.511-8.121,8.679a1.652,1.652,0,0,1-1.2.525,1.591,1.591,0,0,1-1.2-.525L41.227,234.135a1.634,1.634,0,0,1,1.2-2.756h6.2v-5.414a1.641,1.641,0,0,1,3.281,0v7.055a1.694,1.694,0,0,1-.476,1.165,1.6,1.6,0,0,1-1.165.476H46.2l9.926,10.615,9.926-10.615H61.488a1.645,1.645,0,0,1-1.641-1.641V211.281H51.891v1.887a1.641,1.641,0,1,1-3.281,0v-3.527A1.645,1.645,0,0,1,50.25,208H61.488a1.645,1.645,0,0,1,1.641,1.641v21.738Z" transform="translate(146.219 83.125)"/></g></svg>