<svg width="43" height="45.071" xmlns="http://www.w3.org/2000/svg">
 <defs>
  <style>.a{fill:#ffffff;}</style>
 </defs>
 <g>
  <title>background</title>
  <rect fill="none" id="canvas_background" height="47.071" width="45" y="-1" x="-1"/>
 </g>
 <g>
  <title>Layer 1</title>
  <path id="svg_1" d="m17.02801,29.99601l0.032,0l-0.022,-0.025l-0.01,0.025z" class="a"/>
  <path id="svg_2" d="m30.63096,21.13799a6.781,6.781 0 0 0 0.685,2.043a1.8,1.8 0 0 1 0.2,0.8a1.521,1.521 0 0 1 -1.581,1.452l-0.043,0l-0.163,0l-2.214,0a5.823,5.823 0 0 1 0.051,0.76a5.785,5.785 0 0 1 -5.785,5.785l0,1.854c0,0.109 0,0.182 0,0.217a0.821,0.821 0 0 0 0.343,0.625a0.745,0.745 0 0 0 0.677,-0.05a7.588,7.588 0 0 1 2.416,-0.771a3.338,3.338 0 0 1 3.2,3.329a3.278,3.278 0 0 1 -0.185,1.083l1.259,0c1,2.259 2.007,4.544 3.011,6.8l9.238,0a1.462,1.462 0 0 0 0.763,-0.216l-11.255,-25.15a2.018,2.018 0 0 0 -0.617,1.439z" class="a"/>
  <path id="svg_3" d="m13.198,38.26599l13.933,0a2.889,2.889 0 0 0 0.231,-1.134a2.469,2.469 0 0 0 -2.292,-2.61a7.133,7.133 0 0 0 -2.126,0.71a1.526,1.526 0 0 1 -1.469,0.022a1.682,1.682 0 0 1 -0.764,-1.418l0,-0.188l0,-1.715a5.772,5.772 0 0 1 -3.648,-1.938l-0.032,0l0.011,-0.025a5.761,5.761 0 0 1 -1.4,-3.777a5.822,5.822 0 0 1 0.088,-1l-3.055,0l-0.142,0l0,0c-0.556,0.036 -0.887,0.292 -0.887,0.684a1.059,1.059 0 0 0 0.121,0.46a7.752,7.752 0 0 1 0.788,2.459a3.223,3.223 0 0 1 -3.367,3.049a3.485,3.485 0 0 1 -2.718,-1.252l-6.472,14.478l10.072,0c1.032,-2.285 2.063,-4.546 3.067,-6.834l0.061,0.029z" class="a"/>
  <path id="svg_4" d="m22.72199,0.96599l-0.432,-0.966l-0.672,0l0,1.818l0,0l0,7.171c0,0.115 0,0.191 0,0.227l0,0a0.87,0.87 0 0 0 0.343,0.656a0.711,0.711 0 0 0 0.677,-0.052a7.362,7.362 0 0 1 2.416,-0.808a2.691,2.691 0 0 1 1.47,0.444l-3.802,-8.49z" class="a"/>
  <path id="svg_5" d="m25.05101,16.48599a7.339,7.339 0 0 1 -2.416,-0.809a0.7,0.7 0 0 0 -0.678,-0.05a0.9,0.9 0 0 0 -0.348,0.707c0,0.012 0,0.058 0,0.058l0,0.171l0,3.851a5.786,5.786 0 0 1 5.401,4.283l2.363,0l0.139,0l0.01,0c0.187,-0.014 0.8,-0.1 0.8,-0.639a1.058,1.058 0 0 0 -0.112,-0.444a8.22,8.22 0 0 1 -0.771,-2.533a3.087,3.087 0 0 1 1.041,-2.3l-2.421,-5.41a3.226,3.226 0 0 1 -3.008,3.115z" class="a"/>
  <path id="svg_6" d="m24.612,9.97498a6.6,6.6 0 0 0 -2.225,0.908c-0.862,0.424 -1.573,-0.229 -1.638,-1.231c0,0.045 0,0.076 -0.006,0.1c0,-0.036 0,-0.115 0,-0.23l0,-7.245l0,0l0,-1.92l-0.786,0l-0.494,1.107l-12.7,28.468a2.96,2.96 0 0 0 2.439,1.318a2.906,2.906 0 0 0 2.9,-2.773a8.1,8.1 0 0 0 -0.908,-2.406c-0.423,-0.862 0.229,-1.573 1.23,-1.638l0.162,0l3.322,0a5.789,5.789 0 0 1 4.838,-3.981l0,-4.19l0,-0.163c0.065,-1 0.777,-1.472 1.638,-1.049a7.551,7.551 0 0 0 2.225,0.727a2.759,2.759 0 0 0 2.591,-2.9a2.758,2.758 0 0 0 -2.588,-2.902z" class="a"/>
  <path id="svg_7" d="m18.558,28.627l2.752,-6.493l2.921,6.493l-5.673,0z" class="a"/>
 </g>
</svg>
