<?xml version="1.0" encoding="UTF-8" standalone="no"?>
<!-- Created with Inkscape (http://www.inkscape.org/) -->

<svg
   width="59.53125mm"
   height="59.53125mm"
   viewBox="0 0 59.53125 59.53125"
   version="1.1"
   id="svg5"
   inkscape:version="1.1.1 (3bf5ae0d25, 2021-09-20)"
   sodipodi:docname="icone-contas-nao-encontrada.svg"
   xmlns:inkscape="http://www.inkscape.org/namespaces/inkscape"
   xmlns:sodipodi="http://sodipodi.sourceforge.net/DTD/sodipodi-0.dtd"
   xmlns="http://www.w3.org/2000/svg"
   xmlns:svg="http://www.w3.org/2000/svg">
  <sodipodi:namedview
     id="namedview7"
     pagecolor="#ffffff"
     bordercolor="#666666"
     borderopacity="1.0"
     inkscape:pageshadow="2"
     inkscape:pageopacity="0.0"
     inkscape:pagecheckerboard="0"
     inkscape:document-units="mm"
     showgrid="false"
     inkscape:zoom="0.76435185"
     inkscape:cx="-164.84555"
     inkscape:cy="49.061175"
     inkscape:window-width="2560"
     inkscape:window-height="1017"
     inkscape:window-x="-8"
     inkscape:window-y="-8"
     inkscape:window-maximized="1"
     inkscape:current-layer="layer1" />
  <defs
     id="defs2" />
  <g
     inkscape:label="Camada 1"
     inkscape:groupmode="layer"
     id="layer1"
     transform="translate(-63.349758,-45.003605)">
    <g
       id="g1152">
      <path
         style="fill:#fdfdfd;stroke-width:1"
         d="M 63.349758,74.76923 V 45.003605 H 93.115383 122.88101 V 74.76923 104.53485 H 93.115383 63.349758 Z"
         id="path1170" />
      <path
         style="fill:#a8dce2;stroke-width:1"
         d="m 108.90451,91.683328 c -2.20307,-0.79107 -22.567988,-8.788098 -22.689915,-8.910024 -0.175417,-0.175418 0.169389,-0.992616 0.418821,-0.992616 0.114561,0 5.398781,2.024063 11.742712,4.497917 6.343932,2.473854 11.814942,4.497917 12.157812,4.497917 0.34286,0 0.81873,-0.21585 1.05748,-0.479669 0.65399,-0.722648 7.67361,-18.045633 7.67361,-18.936892 0,-0.471545 -0.22103,-0.953219 -0.56538,-1.232052 -0.31095,-0.251799 -3.75385,-1.732649 -7.65086,-3.290775 -3.89702,-1.558127 -7.11781,-2.864082 -7.15732,-2.902122 -0.0395,-0.03804 0.02,-0.312922 0.13229,-0.610848 0.19404,-0.514931 0.56346,-0.398675 7.48016,2.353984 8.14465,3.241349 8.99969,3.784679 8.99173,5.713759 -0.006,1.470778 -7.35645,19.327176 -8.21749,19.962891 -0.92971,0.686403 -2.06823,0.797274 -3.37365,0.32853 z m -7.19017,-6.099088 c -3.71078,-1.395372 -6.836618,-2.620044 -6.946303,-2.721496 -0.109686,-0.101449 -0.05016,-0.382175 0.132291,-0.623832 0.301191,-0.398938 0.940512,-0.208513 6.946302,2.068994 3.63802,1.379607 6.85271,2.476693 7.14375,2.437974 0.41545,-0.05527 0.87604,-0.925983 2.14318,-4.051503 l 1.61402,-3.981101 -4.65672,-1.896811 c -2.5612,-1.043247 -4.86509,-1.97316 -5.11975,-2.066475 -0.41364,-0.151575 -0.46302,0.03226 -0.46302,1.723863 0,2.259814 -0.42246,3.218273 -1.68198,3.815951 -0.81061,0.384661 -2.585052,0.432551 -16.027441,0.432551 -16.23836,0 -16.372364,-0.01048 -17.31329,-1.353839 -0.380289,-0.54294 -0.431454,-1.794316 -0.431454,-10.552411 0,-8.758095 0.05116,-10.009472 0.431454,-10.552411 0.940926,-1.34336 1.07493,-1.353839 17.31329,-1.353839 13.442389,0 15.216831,0.04789 16.027441,0.432553 1.51047,0.716761 1.6816,1.363453 1.685,6.367329 l 0.003,4.44491 6.14854,2.566411 c 5.62295,2.347026 6.15593,2.521066 6.235,2.035958 0.0476,-0.291751 -0.0414,-0.684525 -0.1977,-0.872837 -0.15628,-0.188309 -2.66573,-1.271157 -5.57656,-2.406326 -2.91082,-1.13517 -5.29058,-2.194935 -5.28836,-2.355034 0.0133,-0.952471 0.53922,-0.837252 5.94069,1.301394 5.79243,2.293439 6.49068,2.738259 6.49068,4.134868 0,0.63229 -4.02967,11.066497 -5.46312,14.145884 -0.35901,0.77125 -1.29965,1.431721 -2.0238,1.421019 -0.17506,-0.0026 -3.35438,-1.146373 -7.06516,-2.541744 z"
         id="path1168" />
      <path
         style="fill:#f0dd59;stroke-width:1"
         d="m 100.7883,88.50973 c -4.656667,-1.820936 -9.852237,-3.850449 -11.545709,-4.510032 -2.643956,-1.029779 -3.0602,-1.271288 -2.945704,-1.709123 0.07334,-0.280437 0.200367,-0.509887 0.28229,-0.509887 0.08192,0 5.338035,2.024063 11.680248,4.497917 6.342215,2.473854 11.858405,4.497917 12.258195,4.497917 0.3998,0 0.92083,-0.226494 1.15786,-0.50332 0.49318,-0.576003 7.74691,-18.19211 7.75839,-18.841728 0.0201,-1.137071 -1.0125,-1.71043 -8.29735,-4.607178 -4.01529,-1.596641 -7.29982,-2.962514 -7.29897,-3.035274 8e-4,-0.07276 0.11171,-0.306439 0.24634,-0.519285 0.20349,-0.321729 1.46334,0.09902 7.47042,2.494897 8.02834,3.202035 8.94545,3.770252 8.94545,5.542374 0,0.620981 -1.26234,4.039844 -3.59993,9.749897 -4.0818,9.970643 -4.15704,10.133547 -4.85208,10.505524 -1.27323,0.681408 -2.6983,0.295037 -11.25945,-3.052699 z m 7.67292,-0.575852 c -0.29105,-0.05055 -3.47765,-1.187812 -7.08134,-2.527239 -5.749188,-2.13687 -6.54284,-2.500175 -6.476012,-2.964492 0.04362,-0.303081 0.243041,-0.495499 0.466755,-0.450361 0.214825,0.04334 3.224556,1.14467 6.688287,2.447396 3.46373,1.302724 6.51501,2.36859 6.78062,2.36859 0.66401,0 0.8497,-0.296344 1.98946,-3.175 0.54736,-1.382448 1.21124,-3.059245 1.47529,-3.726215 l 0.48008,-1.212675 -4.96117,-2.028471 c -2.72864,-1.11566 -5.02819,-2.028473 -5.11011,-2.028473 -0.0819,0 -0.19271,0.963502 -0.24619,2.141114 -0.0921,2.028749 -0.14242,2.18149 -0.95823,2.910417 l -0.861,0.769303 H 84.618404 68.589148 L 67.821536,79.636039 67.053925,78.81431 V 68.767771 58.721233 l 0.750735,-0.750735 c 0.499469,-0.499469 1.141487,-0.807382 1.918229,-0.919986 0.642122,-0.09309 7.862547,-0.133052 16.045389,-0.08881 l 14.877892,0.08044 0.86482,0.864319 0.86481,0.864319 0.0823,4.70915 0.0823,4.70915 5.87083,2.461932 c 3.22895,1.354063 6.00428,2.514015 6.16741,2.577674 0.36325,0.141758 0.66685,-0.567669 0.46644,-1.089935 -0.1523,-0.396899 -1.46425,-0.976543 -7.57605,-3.347255 -3.39957,-1.318661 -4.22417,-1.883743 -3.27845,-2.246651 0.19776,-0.07589 2.80599,0.824703 5.79606,2.001315 5.61117,2.208031 6.27978,2.634969 6.27978,4.009905 0,0.785881 -5.19482,13.792644 -5.83246,14.603264 -0.54263,0.689846 -1.13083,0.920785 -1.97274,0.774544 z m -7.86408,-8.946317 0.58803,-0.411879 v -9.687601 c 0,-8.643118 -0.0472,-9.739768 -0.43788,-10.171455 -0.41473,-0.458274 -1.258338,-0.483854 -15.956719,-0.483854 -12.9808,0 -15.602836,0.06138 -16.032431,0.375327 -0.489353,0.357616 -0.517155,0.823593 -0.589123,9.87426 -0.0741,9.318327 -0.06493,9.512414 0.482224,10.208007 l 0.557757,0.709072 h 15.40005 c 13.510029,0 15.472222,-0.05055 15.988092,-0.411877 z m -29.494415,-1.49234 c -1.25683,-0.607231 -1.402967,-1.508548 -1.402967,-8.652956 v -6.640743 h 0.661458 0.661459 v 6.846769 c 0,5.459353 0.07312,6.907455 0.36084,7.146241 0.26044,0.216147 4.033346,0.280374 13.559896,0.230834 l 13.199055,-0.06864 0.07014,-7.739063 0.07014,-7.739062 H 89.018333 79.75392 v -0.661458 -0.661459 h 9.224735 c 8.931785,0 9.246875,0.01741 9.921875,0.54837 l 0.69714,0.548371 -0.0084,7.85215 c -0.0088,8.248902 -0.02355,8.356489 -1.230963,8.999559 -0.77505,0.412792 -26.40008,0.40441 -27.255573,-0.0089 z m 15.737168,-3.190327 c -1.668076,-1.377611 -1.527765,-3.503188 0.315091,-4.773327 0.911069,-0.62793 2.150395,-0.562366 3.230963,0.170928 l 0.916283,0.621806 0.722892,-0.621806 c 1.127625,-0.969942 2.625411,-0.859365 3.762553,0.277777 0.737473,0.737473 0.899583,1.099836 0.899583,2.010833 0,0.918842 -0.161576,1.272826 -0.933188,2.044438 -0.857036,0.857036 -1.031108,0.92215 -2.13314,0.797936 -0.688501,-0.0776 -1.44667,-0.365506 -1.778793,-0.675463 l -0.578837,-0.54021 -0.742358,0.641858 c -0.991313,0.857109 -2.67297,0.877773 -3.681049,0.04523 z M 73.668508,66.699438 c 0,-0.503035 0.176389,-0.529166 3.571875,-0.529166 3.395486,0 3.571875,0.02613 3.571875,0.529166 0,0.503035 -0.176389,0.529167 -3.571875,0.529167 -3.395486,0 -3.571875,-0.02613 -3.571875,-0.529167 z m 0,-2.778125 V 63.259855 H 84.11955 94.570591 v 0.661458 0.661459 H 84.11955 73.668508 Z m -1.5875,-3.685764 c 0,-0.553703 0.126158,-0.679861 0.67986,-0.679861 0.553703,0 0.664172,0.110469 0.595313,0.595313 -0.05434,0.382576 -0.297284,0.625526 -0.67986,0.67986 -0.484844,0.06886 -0.595313,-0.04161 -0.595313,-0.595312 z m 2.304599,0.478211 c -0.103363,-0.103363 -0.187932,-0.406214 -0.187932,-0.673002 0,-0.421147 0.229061,-0.48507 1.738193,-0.48507 1.651234,0 1.733964,0.02978 1.653646,0.595313 -0.07444,0.524165 -0.259718,0.604597 -1.550261,0.673002 -0.806143,0.04273 -1.550283,-0.0069 -1.653646,-0.110243 z"
         id="path1166" />
      <path
         style="fill:#f17c96;stroke-width:1"
         d="m 100.7883,88.50973 c -4.656667,-1.820936 -9.852237,-3.850449 -11.545709,-4.510032 -2.643956,-1.029779 -3.0602,-1.271288 -2.945704,-1.709123 0.07334,-0.280437 0.200367,-0.509887 0.28229,-0.509887 0.08192,0 5.338035,2.024063 11.680248,4.497917 6.342215,2.473854 11.858405,4.497917 12.258195,4.497917 0.3998,0 0.92083,-0.226494 1.15786,-0.50332 0.49318,-0.576003 7.74691,-18.19211 7.75839,-18.841728 0.0201,-1.137071 -1.0125,-1.71043 -8.29735,-4.607178 -4.01529,-1.596641 -7.29982,-2.962514 -7.29897,-3.035274 8e-4,-0.07276 0.11171,-0.306439 0.24634,-0.519285 0.20349,-0.321729 1.46334,0.09902 7.47042,2.494897 8.02834,3.202035 8.94545,3.770252 8.94545,5.542374 0,0.620981 -1.26234,4.039844 -3.59993,9.749897 -4.0818,9.970643 -4.15704,10.133547 -4.85208,10.505524 -1.27323,0.681408 -2.6983,0.295037 -11.25945,-3.052699 z m 7.67292,-0.575852 c -0.29105,-0.05055 -3.47765,-1.187812 -7.08134,-2.527239 -5.749188,-2.13687 -6.54284,-2.500175 -6.476012,-2.964492 0.04362,-0.303081 0.243041,-0.495499 0.466755,-0.450361 0.214825,0.04334 3.224556,1.14467 6.688287,2.447396 3.46373,1.302724 6.51501,2.36859 6.78062,2.36859 0.66401,0 0.8497,-0.296344 1.98946,-3.175 0.54736,-1.382448 1.21124,-3.059245 1.47529,-3.726215 l 0.48008,-1.212675 -4.96117,-2.028471 c -2.72864,-1.11566 -5.02819,-2.028473 -5.11011,-2.028473 -0.0819,0 -0.19271,0.963502 -0.24619,2.141114 -0.0921,2.028749 -0.14242,2.18149 -0.95823,2.910417 l -0.861,0.769303 H 84.618404 68.589148 L 67.821536,79.636039 67.053925,78.81431 V 68.767771 58.721233 l 0.750735,-0.750735 c 0.499469,-0.499469 1.141487,-0.807382 1.918229,-0.919986 0.642122,-0.09309 7.862547,-0.133052 16.045389,-0.08881 l 14.877892,0.08044 0.86482,0.864319 0.86481,0.864319 0.0823,4.70915 0.0823,4.70915 5.87083,2.461932 c 3.22895,1.354063 6.00428,2.514015 6.16741,2.577674 0.36325,0.141758 0.66685,-0.567669 0.46644,-1.089935 -0.1523,-0.396899 -1.46425,-0.976543 -7.57605,-3.347255 -3.39957,-1.318661 -4.22417,-1.883743 -3.27845,-2.246651 0.19776,-0.07589 2.80599,0.824703 5.79606,2.001315 5.61117,2.208031 6.27978,2.634969 6.27978,4.009905 0,0.785881 -5.19482,13.792644 -5.83246,14.603264 -0.54263,0.689846 -1.13083,0.920785 -1.97274,0.774544 z m -7.86408,-8.946317 0.58803,-0.411879 v -9.687601 c 0,-8.643118 -0.0472,-9.739768 -0.43788,-10.171455 -0.41473,-0.458274 -1.258338,-0.483854 -15.956719,-0.483854 -12.9808,0 -15.602836,0.06138 -16.032431,0.375327 -0.489353,0.357616 -0.517155,0.823593 -0.589123,9.87426 -0.0741,9.318327 -0.06493,9.512414 0.482224,10.208007 l 0.557757,0.709072 h 15.40005 c 13.510029,0 15.472222,-0.05055 15.988092,-0.411877 z m -29.494415,-1.49234 c -1.25683,-0.607231 -1.402967,-1.508548 -1.402967,-8.652956 v -6.640743 h 0.661458 0.661459 v 6.846769 c 0,5.459353 0.07312,6.907455 0.36084,7.146241 0.26044,0.216147 4.033346,0.280374 13.559896,0.230834 l 13.199055,-0.06864 0.07014,-7.739063 0.07014,-7.739062 H 89.018333 79.75392 v -0.661458 -0.661459 h 9.224735 c 8.931785,0 9.246875,0.01741 9.921875,0.54837 l 0.69714,0.548371 -0.0084,7.85215 c -0.0088,8.248902 -0.02355,8.356489 -1.230963,8.999559 -0.77505,0.412792 -26.40008,0.40441 -27.255573,-0.0089 z m 15.737168,-3.190327 c -1.668076,-1.377611 -1.527765,-3.503188 0.315091,-4.773327 0.911069,-0.62793 2.150395,-0.562366 3.230963,0.170928 l 0.916283,0.621806 0.722892,-0.621806 c 1.127625,-0.969942 2.625411,-0.859365 3.762553,0.277777 0.737473,0.737473 0.899583,1.099836 0.899583,2.010833 0,0.918842 -0.161576,1.272826 -0.933188,2.044438 -0.857036,0.857036 -1.031108,0.92215 -2.13314,0.797936 -0.688501,-0.0776 -1.44667,-0.365506 -1.778793,-0.675463 l -0.578837,-0.54021 -0.742358,0.641858 c -0.991313,0.857109 -2.67297,0.877773 -3.681049,0.04523 z m 8.139599,-1.111139 c 0.357187,-0.357187 0.649433,-0.898379 0.649433,-1.20265 0,-0.304271 -0.292246,-0.845464 -0.649433,-1.202652 -0.357188,-0.357187 -0.89838,-0.649431 -1.202651,-0.649431 -0.5623,0 -1.852083,1.085157 -1.852083,1.55825 0,0.682718 0.582398,1.655432 1.120632,1.871665 0.940618,0.377889 1.238893,0.32003 1.934102,-0.375182 z M 73.668508,66.699438 c 0,-0.503035 0.176389,-0.529166 3.571875,-0.529166 3.395486,0 3.571875,0.02613 3.571875,0.529166 0,0.503035 -0.176389,0.529167 -3.571875,0.529167 -3.395486,0 -3.571875,-0.02613 -3.571875,-0.529167 z m 0,-2.778125 V 63.259855 H 84.11955 94.570591 v 0.661458 0.661459 H 84.11955 73.668508 Z m -1.5875,-3.685764 c 0,-0.553703 0.126158,-0.679861 0.67986,-0.679861 0.553703,0 0.664172,0.110469 0.595313,0.595313 -0.05434,0.382576 -0.297284,0.625526 -0.67986,0.67986 -0.484844,0.06886 -0.595313,-0.04161 -0.595313,-0.595312 z m 2.304599,0.478211 c -0.103363,-0.103363 -0.187932,-0.406214 -0.187932,-0.673002 0,-0.421147 0.229061,-0.48507 1.738193,-0.48507 1.651234,0 1.733964,0.02978 1.653646,0.595313 -0.07444,0.524165 -0.259718,0.604597 -1.550261,0.673002 -0.806143,0.04273 -1.550283,-0.0069 -1.653646,-0.110243 z"
         id="path1164" />
      <path
         style="fill:#9da8ac;stroke-width:1"
         d="m 100.7883,88.50973 c -4.656667,-1.820936 -9.852237,-3.850449 -11.545709,-4.510032 -2.643956,-1.029779 -3.0602,-1.271288 -2.945704,-1.709123 0.07334,-0.280437 0.200367,-0.509887 0.28229,-0.509887 0.08192,0 5.338035,2.024063 11.680248,4.497917 6.342215,2.473854 11.858405,4.497917 12.258195,4.497917 0.3998,0 0.92083,-0.226494 1.15786,-0.50332 0.49318,-0.576003 7.74691,-18.19211 7.75839,-18.841728 0.0201,-1.137071 -1.0125,-1.71043 -8.29735,-4.607178 -4.01529,-1.596641 -7.29982,-2.962514 -7.29897,-3.035274 8e-4,-0.07276 0.11171,-0.306439 0.24634,-0.519285 0.20349,-0.321729 1.46334,0.09902 7.47042,2.494897 8.02834,3.202035 8.94545,3.770252 8.94545,5.542374 0,0.620981 -1.26234,4.039844 -3.59993,9.749897 -4.0818,9.970643 -4.15704,10.133547 -4.85208,10.505524 -1.27323,0.681408 -2.6983,0.295037 -11.25945,-3.052699 z m 7.67292,-0.575852 c -0.29105,-0.05055 -3.47765,-1.187812 -7.08134,-2.527239 -5.749188,-2.13687 -6.54284,-2.500175 -6.476012,-2.964492 0.04362,-0.303081 0.243041,-0.495499 0.466755,-0.450361 0.214825,0.04334 3.224556,1.14467 6.688287,2.447396 3.46373,1.302724 6.51501,2.36859 6.78062,2.36859 0.66401,0 0.8497,-0.296344 1.98946,-3.175 0.54736,-1.382448 1.21124,-3.059245 1.47529,-3.726215 l 0.48008,-1.212675 -4.96117,-2.028471 c -2.72864,-1.11566 -5.02819,-2.028473 -5.11011,-2.028473 -0.0819,0 -0.19271,0.963502 -0.24619,2.141114 -0.0921,2.028749 -0.14242,2.18149 -0.95823,2.910417 l -0.861,0.769303 H 84.618404 68.589148 L 67.821536,79.636039 67.053925,78.81431 V 68.767771 58.721233 l 0.750735,-0.750735 c 0.499469,-0.499469 1.141487,-0.807382 1.918229,-0.919986 0.642122,-0.09309 7.862547,-0.133052 16.045389,-0.08881 l 14.877892,0.08044 0.86482,0.864319 0.86481,0.864319 0.0823,4.70915 0.0823,4.70915 5.87083,2.461932 c 3.22895,1.354063 6.00428,2.514015 6.16741,2.577674 0.36325,0.141758 0.66685,-0.567669 0.46644,-1.089935 -0.1523,-0.396899 -1.46425,-0.976543 -7.57605,-3.347255 -3.39957,-1.318661 -4.22417,-1.883743 -3.27845,-2.246651 0.19776,-0.07589 2.80599,0.824703 5.79606,2.001315 5.61117,2.208031 6.27978,2.634969 6.27978,4.009905 0,0.785881 -5.19482,13.792644 -5.83246,14.603264 -0.54263,0.689846 -1.13083,0.920785 -1.97274,0.774544 z m -7.86408,-8.946317 0.58803,-0.411879 v -9.687601 c 0,-8.643118 -0.0472,-9.739768 -0.43788,-10.171455 -0.41473,-0.458274 -1.258338,-0.483854 -15.956719,-0.483854 -12.9808,0 -15.602836,0.06138 -16.032431,0.375327 -0.489353,0.357616 -0.517155,0.823593 -0.589123,9.87426 -0.0741,9.318327 -0.06493,9.512414 0.482224,10.208007 l 0.557757,0.709072 h 15.40005 c 13.510029,0 15.472222,-0.05055 15.988092,-0.411877 z m -29.494415,-1.49234 c -1.25683,-0.607231 -1.402967,-1.508548 -1.402967,-8.652956 v -6.640743 h 0.661458 0.661459 v 6.846769 c 0,5.459353 0.07312,6.907455 0.36084,7.146241 0.26044,0.216147 4.033346,0.280374 13.559896,0.230834 l 13.199055,-0.06864 0.07014,-7.739063 0.07014,-7.739062 H 89.018333 79.75392 v -0.661458 -0.661459 h 9.224735 c 8.931785,0 9.246875,0.01741 9.921875,0.54837 l 0.69714,0.548371 -0.0084,7.85215 c -0.0088,8.248902 -0.02355,8.356489 -1.230963,8.999559 -0.77505,0.412792 -26.40008,0.40441 -27.255573,-0.0089 z m 15.737168,-3.190327 c -1.668076,-1.377611 -1.527765,-3.503188 0.315091,-4.773327 0.911069,-0.62793 2.150395,-0.562366 3.230963,0.170928 l 0.916283,0.621806 0.722892,-0.621806 c 1.127625,-0.969942 2.625411,-0.859365 3.762553,0.277777 0.737473,0.737473 0.899583,1.099836 0.899583,2.010833 0,0.918842 -0.161576,1.272826 -0.933188,2.044438 -0.857036,0.857036 -1.031108,0.92215 -2.13314,0.797936 -0.688501,-0.0776 -1.44667,-0.365506 -1.778793,-0.675463 l -0.578837,-0.54021 -0.742358,0.641858 c -0.991313,0.857109 -2.67297,0.877773 -3.681049,0.04523 z m 2.968198,-0.990872 c 1.505503,-1.505503 -0.387865,-3.973001 -2.082316,-2.713741 -0.912617,0.678226 -1.061061,1.951614 -0.314534,2.698141 0.690771,0.690769 1.715014,0.697436 2.39685,0.01561 z m 5.171401,-0.120267 c 0.357187,-0.357187 0.649433,-0.898379 0.649433,-1.20265 0,-0.304271 -0.292246,-0.845464 -0.649433,-1.202652 -0.357188,-0.357187 -0.89838,-0.649431 -1.202651,-0.649431 -0.5623,0 -1.852083,1.085157 -1.852083,1.55825 0,0.682718 0.582398,1.655432 1.120632,1.871665 0.940618,0.377889 1.238893,0.32003 1.934102,-0.375182 z M 73.668508,66.699438 c 0,-0.503035 0.176389,-0.529166 3.571875,-0.529166 3.395486,0 3.571875,0.02613 3.571875,0.529166 0,0.503035 -0.176389,0.529167 -3.571875,0.529167 -3.395486,0 -3.571875,-0.02613 -3.571875,-0.529167 z m 0,-2.778125 V 63.259855 H 84.11955 94.570591 v 0.661458 0.661459 H 84.11955 73.668508 Z m -1.5875,-3.685764 c 0,-0.553703 0.126158,-0.679861 0.67986,-0.679861 0.553703,0 0.664172,0.110469 0.595313,0.595313 -0.05434,0.382576 -0.297284,0.625526 -0.67986,0.67986 -0.484844,0.06886 -0.595313,-0.04161 -0.595313,-0.595312 z m 2.304599,0.478211 c -0.103363,-0.103363 -0.187932,-0.406214 -0.187932,-0.673002 0,-0.421147 0.229061,-0.48507 1.738193,-0.48507 1.651234,0 1.733964,0.02978 1.653646,0.595313 -0.07444,0.524165 -0.259718,0.604597 -1.550261,0.673002 -0.806143,0.04273 -1.550283,-0.0069 -1.653646,-0.110243 z"
         id="path1162" />
      <path
         style="fill:#708c90;stroke-width:1"
         d="m 97.877883,87.321548 c -6.257396,-2.459715 -11.470501,-4.505669 -11.584678,-4.546566 -0.114178,-0.0409 -0.05465,-0.270071 0.132291,-0.509275 0.307176,-0.393063 1.434815,-0.0056 11.71697,4.026426 7.253614,2.844393 11.734474,4.465524 12.363174,4.472869 0.74164,0.0087 1.08,-0.136057 1.36495,-0.583793 0.5958,-0.936191 7.57083,-18.16228 7.57083,-18.697525 0,-1.231041 -0.96735,-1.783563 -8.133,-4.645295 -3.8943,-1.555256 -7.16488,-2.908366 -7.26796,-3.00691 -0.10308,-0.09855 -0.0848,-0.345162 0.0406,-0.548037 0.18317,-0.296367 1.70091,0.224085 7.72221,2.648045 6.83994,2.753515 7.5487,3.097759 8.11815,3.942951 0.4601,0.682877 0.5906,1.169207 0.49701,1.852084 -0.0698,0.509323 -1.75427,4.914635 -3.74325,9.789583 -4.0302,9.877949 -4.30962,10.334707 -6.29986,10.2982 -0.79083,-0.0145 -4.46625,-1.335807 -12.497387,-4.492757 z m 3.571877,-1.941582 c -3.565262,-1.356495 -6.470387,-2.602201 -6.455835,-2.768235 0.01455,-0.166031 0.04432,-0.402907 0.06614,-0.526388 0.02183,-0.123484 2.986485,0.888148 6.588125,2.248069 3.60164,1.359921 6.80175,2.472984 7.11135,2.473473 0.3096,5.29e-4 0.68509,-0.147941 0.83441,-0.329842 0.34235,-0.417047 3.25813,-7.669729 3.13352,-7.794324 -0.0507,-0.05067 -2.34099,-1.019096 -5.0896,-2.152065 l -4.99749,-2.059945 -0.14499,2.001345 c -0.15627,2.156801 -0.45387,2.93279 -1.37113,3.575275 -0.51348,0.359653 -2.525223,0.410443 -16.257387,0.410443 -11.586606,0 -15.852215,-0.08239 -16.365138,-0.316095 -1.405973,-0.640604 -1.447815,-0.967179 -1.447815,-11.299983 0,-6.821807 0.08972,-9.722612 0.316093,-10.21944 0.668339,-1.466843 0.438727,-1.447816 17.471271,-1.447816 14.083778,0 15.760276,0.04434 16.312956,0.431455 1.12587,0.788591 1.35384,1.867376 1.35384,6.406632 v 4.20925 l 1.25677,0.535732 c 11.17625,4.764181 11.97445,5.006804 11.25148,3.420082 -0.22642,-0.496935 -1.37547,-1.042338 -5.72871,-2.719155 -2.99501,-1.153646 -5.44616,-2.157069 -5.447,-2.229829 -7.9e-4,-0.07276 0.10193,-0.295599 0.22837,-0.495197 0.18427,-0.290897 1.27283,0.04261 5.48605,1.680801 5.9177,2.300925 6.8862,2.95894 6.60005,4.484205 -0.22561,1.202616 -5.42042,13.947516 -5.91209,14.50467 -0.73456,0.832393 -2.13503,0.510178 -8.79325,-2.023118 z m -0.63632,-6.537473 c 0.47588,-0.525846 0.50403,-1.085673 0.50403,-10.026388 0,-8.940716 -0.0281,-9.500541 -0.50403,-10.026389 -0.50153,-0.554184 -0.5812,-0.556944 -16.073439,-0.556944 -15.216632,0 -15.5814,0.01199 -16.098576,0.529166 -0.509568,0.509568 -0.529167,0.881945 -0.529167,10.054167 0,9.172223 0.0196,9.544598 0.529167,10.054167 0.517176,0.517175 0.881944,0.529166 16.098576,0.529166 15.492239,0 15.571909,-0.0028 16.073439,-0.556945 z m -29.39389,-1.27694 c -0.291042,-0.121179 -0.767292,-0.484791 -1.058334,-0.80803 -0.495943,-0.550806 -0.534542,-1.026205 -0.614789,-7.571853 -0.08319,-6.785755 -0.07091,-6.984148 0.432162,-6.984148 0.313303,0 0.580789,0.235099 0.677322,0.595312 0.08775,0.327422 0.161164,3.399235 0.163151,6.82625 0.0026,4.489286 0.09236,6.319684 0.321113,6.548438 0.238437,0.238437 3.596264,0.3175 13.484441,0.3175 12.74698,0 13.175676,-0.01633 13.440834,-0.511773 0.169032,-0.315839 0.273891,-3.195561 0.273891,-7.521726 0,-6.265096 -0.04815,-7.058102 -0.453133,-7.463087 C 97.670794,60.57702 96.888979,60.55053 88.6935,60.674181 l -8.939575,0.134878 v -0.626685 -0.626686 h 9.272443 9.272443 l 0.649431,0.649432 0.649433,0.649432 v 7.670189 7.670188 l -0.638403,0.74236 -0.638402,0.742358 -13.186077,0.05311 C 77.882451,77.761974 71.710591,77.68673 71.41955,77.565553 Z m 15.875,-2.971128 c -2.31821,-1.27486 -1.743675,-4.922878 0.852007,-5.409831 1.01262,-0.189968 2.559086,0.418392 2.824987,1.111313 0.09736,0.25372 0.359934,0.131108 0.921215,-0.430176 1.155602,-1.1556 2.669289,-1.111086 3.894916,0.114541 1.214027,1.214028 1.269142,2.740313 0.139734,3.869719 -1.310521,1.310523 -2.924749,1.359736 -4.157729,0.126756 -0.351268,-0.351271 -0.638672,-0.523271 -0.638672,-0.382227 0,0.438248 -1.679231,1.305385 -2.513542,1.297966 -0.436562,-0.0039 -1.031875,-0.138009 -1.322916,-0.298061 z m 2.513541,-1.280403 c 1.505503,-1.505503 -0.387865,-3.973001 -2.082316,-2.713741 -0.912617,0.678226 -1.061061,1.951614 -0.314534,2.698141 0.690771,0.690769 1.715014,0.697436 2.39685,0.01561 z m 5.171401,-0.120267 c 0.357187,-0.357187 0.649433,-0.898379 0.649433,-1.20265 0,-0.304271 -0.292246,-0.845464 -0.649433,-1.202652 -0.357188,-0.357187 -0.89838,-0.649431 -1.202651,-0.649431 -0.5623,0 -1.852083,1.085157 -1.852083,1.55825 0,0.682718 0.582398,1.655432 1.120632,1.871665 0.940618,0.377889 1.238893,0.32003 1.934102,-0.375182 z M 73.668508,66.699438 c 0,-0.503035 0.176389,-0.529166 3.571875,-0.529166 3.395486,0 3.571875,0.02613 3.571875,0.529166 0,0.503035 -0.176389,0.529167 -3.571875,0.529167 -3.395486,0 -3.571875,-0.02613 -3.571875,-0.529167 z m 0,-2.778125 V 63.259855 H 84.11955 94.570591 v 0.661458 0.661459 H 84.11955 73.668508 Z m -1.5875,-3.836458 c 0,-0.352778 0.176389,-0.529167 0.529167,-0.529167 0.352777,0 0.529166,0.176389 0.529166,0.529167 0,0.352778 -0.176389,0.529167 -0.529166,0.529167 -0.352778,0 -0.529167,-0.176389 -0.529167,-0.529167 z m 2.38125,0 c 0,-0.463636 0.176389,-0.529167 1.42435,-0.529167 1.201834,0 1.445967,0.08267 1.562729,0.529167 0.126846,0.485058 0.0081,0.529167 -1.424349,0.529167 -1.386341,0 -1.56273,-0.05973 -1.56273,-0.529167 z m 39.386202,15.983749 c 0.31123,-0.813316 0.56588,-1.514761 0.56588,-1.558771 0,-0.09551 -2.05589,-0.931228 -2.29085,-0.931228 -0.29609,0 0.19377,3.552621 0.51831,3.758925 0.53941,0.342895 0.62381,0.254145 1.20666,-1.268926 z m -2.8737,-1.157774 c 0,-1.553694 -0.0806,-1.885916 -0.51387,-2.117786 -0.49282,-0.26375 -0.50744,-0.196398 -0.35702,1.644335 0.1305,1.596924 0.37018,2.285558 0.80474,2.312175 0.0364,0.0021 0.0662,-0.825198 0.0662,-1.838724 z m -2.11667,-1.039334 c 0,-1.801275 -0.17423,-2.144974 -1.08734,-2.144974 -0.3445,0 0.0284,3.518929 0.39911,3.766261 0.59048,0.393954 0.68823,0.16368 0.68823,-1.621287 z m -2.38125,-0.833123 v -1.86315 l -1.74445,-0.782684 c -0.95946,-0.430476 -1.85242,-0.782684 -1.98438,-0.782684 -0.13196,0 -0.23992,0.810539 -0.23992,1.801197 v 1.801198 l 1.91823,0.815078 c 1.05503,0.448294 1.948,0.828381 1.98438,0.844637 0.0364,0.01624 0.0661,-0.80886 0.0661,-1.833592 z"
         id="path1160" />
      <path
         style="fill:#697c83;stroke-width:1"
         d="M 109.12267,91.646628 C 108.69745,91.489717 87.261949,83.1442 86.686248,82.911417 c -0.462721,-0.187097 -0.255143,-1.021186 0.22714,-0.912691 0.209639,0.04716 5.403279,2.041459 11.541422,4.431771 6.94214,2.703407 11.51491,4.346025 12.09859,4.346025 0.68368,0 1.04183,-0.161558 1.31973,-0.595313 0.66312,-1.035029 7.56829,-18.155462 7.56829,-18.764544 0,-1.156436 -1.09013,-1.768295 -8.23739,-4.623403 -5.86127,-2.341393 -7.10844,-2.929084 -7.10844,-3.349652 0,-0.358524 0.13756,-0.471729 0.46302,-0.381048 1.11944,0.311898 13.93004,5.545928 14.51981,5.93236 0.75506,0.494735 1.42134,1.656583 1.42134,2.478523 0,0.311822 -1.6742,4.693282 -3.72045,9.736577 -4.0867,10.072306 -4.42424,10.643005 -6.27175,10.603944 -0.5434,-0.01148 -1.1666,-0.08679 -1.38489,-0.167338 z m -7.67291,-6.272282 c -3.565262,-1.354653 -6.470387,-2.59834 -6.455835,-2.76375 0.01455,-0.165407 0.04432,-0.404151 0.06614,-0.530542 0.02183,-0.126392 2.969671,0.88564 6.550755,2.248958 3.58109,1.363319 6.84052,2.47876 7.24319,2.47876 0.69512,0 0.81488,-0.201872 2.37013,-3.995182 0.90091,-2.197352 1.57996,-4.053245 1.50899,-4.124209 -0.071,-0.07096 -2.37086,-1.051046 -5.11089,-2.177962 l -4.98187,-2.048939 -0.14499,2.00596 c -0.15622,2.161172 -0.4534,2.937084 -1.37113,3.579889 -0.51365,0.359775 -2.54172,0.410443 -16.428577,0.410443 H 68.853091 l -0.899583,-0.899584 -0.899583,-0.899583 v -9.671301 c 0,-6.9347 0.08944,-9.867604 0.316093,-10.36505 0.668339,-1.466843 0.438727,-1.447816 17.471271,-1.447816 14.083778,0 15.760281,0.04434 16.312961,0.431455 1.12532,0.788202 1.35384,1.867947 1.35384,6.396744 0,4.098376 0.0143,4.205886 0.59543,4.470657 3.51598,1.601986 11.6422,4.830673 11.84413,4.705875 0.37215,-0.229997 0.32168,-1.072444 -0.0844,-1.409486 -0.18967,-0.157419 -2.66022,-1.192807 -5.4901,-2.300864 -2.82988,-1.108057 -5.22958,-2.096162 -5.33266,-2.195789 -0.10308,-0.09963 -0.0901,-0.338643 0.0289,-0.531147 0.16866,-0.272892 1.37582,0.09792 5.47908,1.683049 5.29295,2.044711 6.71798,2.895643 6.71798,4.011506 0,0.660615 -5.53557,14.434892 -6.01476,14.966646 -0.74194,0.823336 -2.14946,0.498917 -8.8019,-2.028738 z m -0.54837,-6.672048 c 0.53065,-0.674618 0.54837,-0.99143 0.54837,-9.806977 0,-9.019354 -0.0767,-9.910621 -0.89951,-10.46006 -0.16011,-0.106913 -7.338818,-0.196209 -15.952677,-0.198438 l -15.661559,-0.0041 -0.411878,0.588038 c -0.35415,0.505619 -0.411878,1.9148 -0.411878,10.054166 0,9.113352 0.01972,9.485848 0.529167,9.995296 0.517193,0.517194 0.881944,0.529166 16.12038,0.529166 H 100.35302 Z M 70.512711,76.850215 c -0.469217,-0.596514 -0.54837,-1.067795 -0.54837,-3.265035 0,-1.412341 -0.07823,-4.551441 -0.173842,-6.975776 -0.169103,-4.287718 -0.159434,-4.407882 0.354679,-4.407882 0.509921,0 0.534837,0.239039 0.707964,6.79188 0.113735,4.304864 0.286374,6.920728 0.471467,7.14375 0.40579,0.488948 26.409428,0.522174 26.897232,0.03437 0.45279,-0.45279 0.45279,-14.787212 0,-15.24 -0.234603,-0.234603 -2.686992,-0.3175 -9.392708,-0.3175 -8.952994,0 -9.075208,-0.0073 -9.075208,-0.538816 0,-0.533329 0.09556,-0.538045 9.383551,-0.463021 8.595632,0.06943 9.423199,0.115467 9.855729,0.548265 0.432091,0.432358 0.472178,1.143192 0.472178,8.372743 0,7.397632 -0.03207,7.935707 -0.504029,8.457217 -0.500044,0.552542 -0.612312,0.556945 -14.20215,0.556945 H 71.061082 Z m 16.226214,-2.848277 c -0.713721,-0.713721 -0.899584,-1.111549 -0.899584,-1.925502 0,-2.575478 3.045054,-3.897844 4.763506,-2.068634 0.588118,0.626021 0.629695,0.63317 0.957821,0.164705 0.506282,-0.72282 1.810906,-1.177103 2.830906,-0.985749 2.680703,0.502902 3.038629,4.305945 0.504894,5.364606 -1.167072,0.487633 -2.72247,0.13399 -3.349781,-0.761621 -0.35692,-0.509575 -0.41483,-0.521216 -0.570804,-0.114753 -0.235278,0.61313 -1.487569,1.226532 -2.504027,1.226532 -0.594951,0 -1.090693,-0.257345 -1.732931,-0.899584 z m 3.069166,-0.687916 c 1.505503,-1.505503 -0.387865,-3.973001 -2.082316,-2.713741 -0.912617,0.678226 -1.061061,1.951614 -0.314534,2.698141 0.690771,0.690769 1.715014,0.697436 2.39685,0.01561 z m 5.171401,-0.120267 c 0.357187,-0.357187 0.649433,-0.898379 0.649433,-1.20265 0,-0.304271 -0.292246,-0.845464 -0.649433,-1.202652 -0.357188,-0.357187 -0.89838,-0.649431 -1.202651,-0.649431 -0.5623,0 -1.852083,1.085157 -1.852083,1.55825 0,0.682718 0.582398,1.655432 1.120632,1.871665 0.940618,0.377889 1.238893,0.32003 1.934102,-0.375182 z M 73.668508,66.699438 c 0,-0.503035 0.176389,-0.529166 3.571875,-0.529166 3.395486,0 3.571875,0.02613 3.571875,0.529166 0,0.503035 -0.176389,0.529167 -3.571875,0.529167 -3.395486,0 -3.571875,-0.02613 -3.571875,-0.529167 z m 0,-2.772156 c 0,-0.337005 1.441088,-0.40085 10.451136,-0.463021 9.804576,-0.06765 10.45113,-0.04347 10.451043,0.390906 -9e-5,0.433156 -0.674188,0.463021 -10.451137,0.463021 -9.042506,0 -10.451042,-0.05268 -10.451042,-0.390906 z m -1.5875,-3.842427 c 0,-0.352778 0.176389,-0.529167 0.529167,-0.529167 0.352777,0 0.529166,0.176389 0.529166,0.529167 0,0.352778 -0.176389,0.529167 -0.529166,0.529167 -0.352778,0 -0.529167,-0.176389 -0.529167,-0.529167 z m 2.38125,0 c 0,-0.465025 0.176389,-0.529167 1.455208,-0.529167 1.27882,0 1.455209,0.06414 1.455209,0.529167 0,0.465025 -0.176389,0.529167 -1.455209,0.529167 -1.278819,0 -1.455208,-0.06414 -1.455208,-0.529167 z m 39.426772,15.997783 c 0.32697,-0.805593 0.52077,-1.538431 0.43068,-1.628524 -0.0901,-0.0901 -0.64144,-0.377653 -1.22521,-0.639014 l -1.06141,-0.475207 v 1.949391 c 0,1.90349 0.11818,2.178468 0.96146,2.237182 0.165,0.01148 0.56752,-0.638233 0.89448,-1.443828 z m -2.91427,-1.28255 c 0,-1.770771 -0.0527,-1.967304 -0.56359,-2.100897 -0.54448,-0.142383 -0.55906,-0.08409 -0.43005,1.718958 0.11445,1.599676 0.39252,2.298637 0.92749,2.331405 0.0364,0.0021 0.0662,-0.875032 0.0662,-1.949466 z m -2.11667,-0.914429 c 0,-1.6735 -0.0498,-1.832284 -0.66146,-2.110996 l -0.66146,-0.301379 v 1.599221 c 0,1.725787 0.31989,2.622767 0.93535,2.622767 0.3026,0 0.38757,-0.396775 0.38757,-1.809613 z m -2.38125,-0.917151 v -1.933015 l -1.98437,-0.828286 -1.98438,-0.828285 v 1.930611 1.930612 l 1.91823,0.819324 c 1.05503,0.450628 1.948,0.824439 1.98438,0.830689 0.0364,0.0062 0.0661,-0.858494 0.0661,-1.92165 z"
         id="path1158" />
      <path
         style="fill:#575d60;stroke-width:1"
         d="m 98.04996,87.347982 c -6.308275,-2.460419 -11.531968,-4.535866 -11.608208,-4.612105 -0.07624,-0.07624 -0.06961,-0.318456 0.01474,-0.538258 0.133004,-0.346602 0.269024,-0.352015 1.024874,-0.04079 0.479335,0.197368 5.642306,2.217541 11.473273,4.489272 11.163081,4.349113 12.210071,4.635529 12.922501,3.535106 0.70476,-1.088591 7.56428,-18.148686 7.56428,-18.812896 0,-0.391234 -0.29849,-0.904251 -0.74447,-1.279521 -0.40946,-0.34454 -3.86228,-1.863231 -7.67292,-3.37487 -5.73695,-2.275783 -6.92844,-2.836726 -6.92844,-3.261849 0,-0.378732 0.12147,-0.467862 0.46302,-0.339766 6.77259,2.539982 14.3172,5.704604 14.90165,6.250563 1.51159,1.412032 1.45914,1.644075 -2.66505,11.789409 -4.11021,10.110957 -4.45025,10.688328 -6.28765,10.675885 -0.63769,-0.0043 -5.05476,-1.59285 -12.4576,-4.480182 z m 3.40922,-1.983679 c -3.560075,-1.357805 -6.516772,-2.600457 -6.570438,-2.761451 -0.247229,-0.741693 1.046726,-0.401339 6.918348,1.819762 3.46792,1.311836 6.63258,2.385158 7.03257,2.385158 0.83149,0 0.7688,0.109765 2.70445,-4.735415 0.72074,-1.804114 1.21491,-3.362939 1.09815,-3.464057 -0.11676,-0.101116 -2.44472,-1.089052 -5.17323,-2.195412 l -4.96094,-2.011566 -0.002,1.50687 c -0.002,2.038491 -0.40853,3.359113 -1.23394,4.008377 -0.67564,0.531548 -0.97094,0.541203 -16.553692,0.541203 H 68.853091 l -0.899583,-0.899584 -0.899583,-0.899583 v -9.8425 -9.8425 l 0.899583,-0.899583 0.899583,-0.899584 h 15.865777 c 15.582752,0 15.878052,0.0097 16.553802,0.541202 0.99906,0.78586 1.23229,2.016634 1.23394,6.511597 l 0.002,4.010091 2.97656,1.256196 c 1.63711,0.690908 4.34121,1.833164 6.0091,2.538348 1.66789,0.705181 3.18594,1.28215 3.37343,1.28215 0.58132,0 0.38866,-1.280256 -0.2544,-1.690524 -0.32742,-0.208894 -2.79797,-1.232763 -5.4901,-2.275265 -2.69214,-1.042501 -4.97913,-1.976656 -5.08222,-2.0759 -0.10308,-0.09924 -0.0917,-0.335395 0.0254,-0.52478 0.1639,-0.265195 1.3928,0.115862 5.3468,1.657934 2.82369,1.101249 5.42413,2.21694 5.77876,2.479314 1.3955,1.032472 1.34204,1.315613 -1.69381,8.971615 -1.65092,4.163417 -3.03469,7.274528 -3.35663,7.546668 -0.30126,0.254662 -0.92152,0.455581 -1.37834,0.446487 -0.45682,-0.0091 -3.74337,-1.127463 -7.30345,-2.485268 z m -0.53859,-6.494031 c 0.50957,-0.509569 0.52917,-0.881944 0.52917,-10.054167 0,-9.172222 -0.0196,-9.544599 -0.52917,-10.054167 -0.51724,-0.517242 -0.88194,-0.529166 -16.184894,-0.529166 -14.196525,0 -15.700827,0.04081 -16.139584,0.437882 -0.451922,0.408984 -0.483854,1.075499 -0.483854,10.099479 0,8.618922 0.04726,9.713815 0.437882,10.145451 0.414843,0.458396 1.264049,0.483854 16.139584,0.483854 15.348926,0 15.713586,-0.01188 16.230866,-0.529166 z m -30.306817,-1.97235 -0.649432,-0.64943 V 70.45256 c 0,-3.187763 -0.07571,-6.348331 -0.168255,-7.023485 -0.154845,-1.12972 -0.123215,-1.227553 0.396875,-1.227553 0.561322,0 0.56513,0.04253 0.56513,6.310518 0,6.698959 0.167065,7.877731 1.150918,8.1206 0.312881,0.07724 6.318039,0.106286 13.344796,0.06455 11.012215,-0.0654 12.810538,-0.130667 13.026679,-0.472755 0.389421,-0.616347 0.334653,-14.899622 -0.05864,-15.292916 -0.234603,-0.234603 -2.686992,-0.3175 -9.392708,-0.3175 -8.607877,0 -9.075208,-0.02486 -9.075208,-0.482739 0,-0.458557 0.469983,-0.48175 9.382664,-0.463021 8.63789,0.01815 9.420215,0.05721 9.85573,0.492066 0.433392,0.432734 0.473064,1.139183 0.473064,8.423772 v 7.951425 L 98.84076,77.04144 c -0.596786,0.483367 -1.225251,0.505915 -14.10109,0.505915 H 71.263205 Z m 16.915758,-2.243389 c -1.580562,-0.67347 -2.202242,-2.99943 -1.156886,-4.328385 1.1052,-1.405034 3.002997,-1.457918 4.427634,-0.123381 0.327422,0.306714 0.595312,0.416096 0.595312,0.24307 0,-0.433722 1.585939,-1.362953 2.328244,-1.36416 1.45162,-0.0024 2.963423,1.481897 2.963423,2.909428 0,2.411447 -3.155931,3.707731 -4.819089,1.979422 l -0.604869,-0.628565 -0.686303,0.65742 c -0.753301,0.721599 -2.174476,1.027126 -3.047466,0.655151 z m 2.219689,-1.223222 c 0.402687,-0.282053 0.588038,-0.683101 0.588038,-1.272346 0,-1.697371 -1.44954,-2.488571 -2.723431,-1.486529 -1.862443,1.464999 0.192397,4.119802 2.135393,2.758875 z m 5.230272,-0.237556 c 0.357187,-0.357187 0.649433,-0.915059 0.649433,-1.239715 0,-0.792402 -1.001726,-1.815018 -1.777939,-1.815018 -0.775587,0 -1.926228,1.10635 -1.926228,1.852083 0,0.304271 0.292246,0.845463 0.649433,1.20265 0.357188,0.357188 0.89838,0.649433 1.20265,0.649433 0.304271,0 0.845463,-0.292245 1.202651,-0.649433 z M 73.668508,66.699438 c 0,-0.503035 0.176389,-0.529166 3.571875,-0.529166 3.395486,0 3.571875,0.02613 3.571875,0.529166 0,0.503035 -0.176389,0.529167 -3.571875,0.529167 -3.395486,0 -3.571875,-0.02613 -3.571875,-0.529167 z m 0,-2.778125 c 0,-0.346079 1.337616,-0.396875 10.451042,-0.396875 9.113424,0 10.451041,0.0508 10.451041,0.396875 0,0.34608 -1.337617,0.396875 -10.451041,0.396875 -9.113426,0 -10.451042,-0.0508 -10.451042,-0.396875 z m -1.5875,-3.836458 c 0,-0.352778 0.176389,-0.529167 0.529167,-0.529167 0.352777,0 0.529166,0.176389 0.529166,0.529167 0,0.352778 -0.176389,0.529167 -0.529166,0.529167 -0.352778,0 -0.529167,-0.176389 -0.529167,-0.529167 z m 2.38125,0 c 0,-0.465025 0.176389,-0.529167 1.455208,-0.529167 1.27882,0 1.455209,0.06414 1.455209,0.529167 0,0.465025 -0.176389,0.529167 -1.455209,0.529167 -1.278819,0 -1.455208,-0.06414 -1.455208,-0.529167 z m 39.429322,15.991509 c 0.65411,-1.611611 0.61423,-1.71873 -0.8663,-2.327423 l -0.99219,-0.407919 v 1.948826 c 0,1.902912 0.11821,2.177907 0.96146,2.236618 0.165,0.01148 0.56866,-0.641056 0.89703,-1.450102 z m -3.23509,-3.330289 c -0.65115,-0.413057 -0.74007,-0.219255 -0.74007,1.613133 0,1.475856 0.0914,1.89031 0.46303,2.099135 0.41919,0.235567 0.47046,0.08249 0.54162,-1.617186 0.0553,-1.321745 -0.023,-1.941817 -0.26458,-2.095082 z m -1.7984,1.271876 c 0,-1.81461 -0.0434,-1.961663 -0.66146,-2.243288 l -0.66146,-0.301379 v 1.938268 c 0,1.748603 0.0583,1.966368 0.59532,2.225382 0.32742,0.157908 0.62508,0.295166 0.66146,0.305014 0.0364,0.0098 0.0661,-0.855951 0.0661,-1.923997 z m -2.38125,-1.068189 v -1.951758 l -1.99526,-0.81264 -1.99525,-0.812641 0.077,2.001366 0.077,2.001366 1.85209,0.749189 c 1.01864,0.412054 1.88185,0.75542 1.91823,0.763035 0.0364,0.0076 0.0661,-0.86445 0.0661,-1.937917 z"
         id="path1156" />
      <path
         style="fill:#2f2a2b;stroke-width:1"
         d="m 97.944029,87.291949 c -7.20003,-2.824562 -11.575521,-4.674421 -11.575521,-4.893869 0,-0.194045 0.164612,-0.352808 0.365804,-0.352808 0.201192,0 5.410177,1.97481 11.575522,4.388469 6.165346,2.413656 11.599456,4.401865 12.075796,4.418237 0.54681,0.01879 1.04393,-0.160311 1.34852,-0.485865 0.6608,-0.706257 7.70727,-18.062056 7.70727,-18.983381 0,-0.445984 -0.25449,-0.971231 -0.64078,-1.32249 -0.35243,-0.320473 -3.80675,-1.832835 -7.67626,-3.360804 -5.23219,-2.066055 -7.01364,-2.879849 -6.95027,-3.175 0.0469,-0.218281 0.25672,-0.362327 0.46636,-0.320103 0.76353,0.153786 12.58678,4.912128 13.79502,5.551894 1.61378,0.854493 2.25697,2.077511 1.83437,3.488016 -0.6801,2.269977 -7.45411,18.396373 -7.92556,18.867832 -0.3048,0.304797 -0.98959,0.558411 -1.67064,0.618725 -0.99476,0.0881 -2.75238,-0.52479 -12.729631,-4.438853 z m 3.680741,-1.924532 c -3.614516,-1.367872 -6.642672,-2.557862 -6.729231,-2.64442 -0.08656,-0.08656 -0.03304,-0.281718 0.118931,-0.433687 0.192024,-0.192024 2.204362,0.446387 6.59695,2.092873 7.68005,2.878738 7.30971,2.767205 7.83871,2.360684 0.58429,-0.449006 3.50915,-7.849468 3.21294,-8.129366 -0.2234,-0.2111 -9.99142,-4.241146 -10.27969,-4.241146 -0.0769,0 -0.13987,0.985539 -0.13987,2.190086 0,2.417498 -0.28306,3.090428 -1.51449,3.600503 -0.54168,0.224374 -4.968515,0.287745 -16.408818,0.234902 L 68.653194,80.32548 67.919705,79.591862 67.186216,78.858246 V 68.788388 58.718531 l 0.870779,-0.77804 0.870778,-0.778041 16.019425,0.07214 16.019422,0.07214 0.63845,0.742358 c 0.6231,0.724527 0.63844,0.855383 0.63844,5.447836 v 4.705477 l 6.20368,2.589424 c 3.41202,1.424184 6.29929,2.604064 6.41614,2.621955 0.35007,0.0536 0.40925,-1.158462 0.0762,-1.559811 -0.17008,-0.204925 -2.64976,-1.287924 -5.51042,-2.406665 -2.86065,-1.118741 -5.28553,-2.106376 -5.38861,-2.194744 -0.10308,-0.08837 -0.0958,-0.308982 0.0163,-0.490252 0.15154,-0.245193 1.57623,0.206527 5.56406,1.764176 2.9482,1.151567 5.59002,2.301593 5.8707,2.555613 0.3235,0.292759 0.51055,0.810107 0.5109,1.413037 5.3e-4,1.126498 -5.1337,14.154118 -5.86753,14.887948 -0.26566,0.265662 -0.81044,0.480404 -1.21063,0.4772 -0.40018,-0.0032 -3.68493,-1.12499 -7.29946,-2.492865 z m -0.68069,-6.46031 c 0.47679,-0.588939 0.50568,-1.165447 0.50568,-10.091002 0,-8.925565 -0.0289,-9.502061 -0.50568,-10.091001 L 100.43839,58.10048 84.980272,58.028194 C 69.63299,57.956425 69.517095,57.959883 68.817204,58.510418 l -0.704946,0.554511 v 9.729372 c 0,8.936021 0.03776,9.762265 0.463021,10.132729 0.254661,0.221848 0.641614,0.470485 0.859896,0.552529 0.218281,0.08205 7.283303,0.127347 15.700048,0.100672 L 100.4384,79.53173 Z M 70.721257,77.041919 70.096633,76.536483 70.01834,69.369002 c -0.06801,-6.226475 -0.02624,-7.16748 0.318201,-7.16748 0.340124,0 0.407679,0.981094 0.475168,6.900839 0.07383,6.47611 0.110284,6.923931 0.592265,7.276041 0.426573,0.311632 2.682131,0.375203 13.312706,0.375203 8.31678,0 12.978342,-0.09592 13.310888,-0.273891 0.487826,-0.261078 0.511773,-0.631185 0.511773,-7.909194 0,-6.71832 -0.05026,-7.654588 -0.418515,-7.795899 -0.230182,-0.08833 -4.456901,-0.160599 -9.392707,-0.160599 -7.561851,0 -8.974194,-0.05893 -8.974194,-0.374454 0,-0.313291 1.393739,-0.389081 8.532812,-0.464006 8.823275,-0.0926 10.421726,-0.0024 10.809933,0.610386 0.125577,0.198201 0.230143,3.955255 0.232371,8.349008 0.004,7.957472 0.0019,7.990251 -0.583989,8.400522 -0.513434,0.359624 -2.288738,0.411877 -13.993604,0.411877 -12.801396,0 -13.433718,-0.02278 -14.030191,-0.505436 z m 16.449529,-2.718967 c -1.547308,-1.048343 -1.73155,-3.014128 -0.40667,-4.339008 0.890288,-0.890288 2.703619,-0.8909 3.760885,-0.0013 l 0.757507,0.637402 0.595268,-0.618479 c 1.32647,-1.3782 3.702783,-0.940779 4.437131,0.816769 0.498081,1.192077 0.296532,2.234732 -0.606554,3.137818 -0.932088,0.932087 -2.649795,0.949672 -3.702696,0.0379 l -0.742357,-0.642847 -0.686303,0.65278 c -1.012234,0.962792 -2.280614,1.081555 -3.406211,0.318931 z m 2.882685,-1.176904 c 0.720135,-0.9155 0.692327,-1.564206 -0.101063,-2.357595 -1.20842,-1.208421 -3.142928,-0.495655 -3.142928,1.158006 0,1.820704 2.134539,2.61003 3.243991,1.199589 z m 5.046287,0.167974 c 0.293981,-0.293982 0.529167,-0.881944 0.529167,-1.322917 0,-0.440973 -0.235186,-1.028935 -0.529167,-1.322917 -1.112292,-1.112291 -3.175,-0.306881 -3.175,1.239719 0,1.613641 2.056646,2.524469 3.175,1.406115 z M 73.933091,66.699438 c 0,-0.500944 0.176389,-0.529166 3.307292,-0.529166 3.130903,0 3.307292,0.02822 3.307292,0.529166 0,0.500945 -0.176389,0.529167 -3.307292,0.529167 -3.130903,0 -3.307292,-0.02822 -3.307292,-0.529167 z m 0,-2.778125 c 0,-0.345993 1.322917,-0.396875 10.31875,-0.396875 8.995834,0 10.31875,0.05088 10.31875,0.396875 0,0.345994 -1.322916,0.396875 -10.31875,0.396875 -8.995833,0 -10.31875,-0.05088 -10.31875,-0.396875 z m -1.852083,-3.836458 c 0,-0.352778 0.176389,-0.529167 0.529167,-0.529167 0.352777,0 0.529166,0.176389 0.529166,0.529167 0,0.352778 -0.176389,0.529167 -0.529166,0.529167 -0.352778,0 -0.529167,-0.176389 -0.529167,-0.529167 z m 2.38125,0 c 0,-0.465025 0.176389,-0.529167 1.455208,-0.529167 1.27882,0 1.455209,0.06414 1.455209,0.529167 0,0.465025 -0.176389,0.529167 -1.455209,0.529167 -1.278819,0 -1.455208,-0.06414 -1.455208,-0.529167 z m 39.999542,14.68905 c 0.0612,-0.327668 -0.26476,-0.592624 -1.17194,-0.952492 l -1.25677,-0.498552 v 1.988482 c 0,1.817761 0.0511,2.008179 0.59531,2.217909 0.53196,0.205015 0.65668,0.09476 1.17194,-1.035986 0.31714,-0.695982 0.6148,-1.469695 0.66146,-1.719361 z m -3.4271,0.06147 c -0.12135,-1.737389 -0.34501,-2.299317 -0.91984,-2.311054 -0.35717,-0.0073 -0.2294,3.908108 0.13229,4.054055 0.84469,0.340839 0.92127,0.171365 0.78755,-1.743001 z m -2.01098,-0.79375 c -0.16472,-1.806152 -0.54689,-2.579688 -1.27453,-2.579688 -0.11771,0 -0.21402,0.896806 -0.21402,1.9929 0,1.819426 0.0518,2.013731 0.59532,2.232189 1.02817,0.413274 1.07339,0.329986 0.89323,-1.645401 z m -2.43301,-1.058333 c -0.10052,-1.055027 -0.22632,-1.967372 -0.27957,-2.027435 -0.14198,-0.160163 -3.61953,-1.610586 -3.86156,-1.610586 -0.11334,0 -0.20607,0.876346 -0.20607,1.947436 v 1.947437 l 1.91823,0.819324 c 2.70713,1.156285 2.64432,1.184111 2.42897,-1.076176 z"
         id="path1154" />
    </g>
  </g>
</svg>
