<?xml version="1.0" encoding="UTF-8" standalone="no"?>
<svg
   width="731.15631"
   height="731.15631"
   viewBox="0 0 548.36722 548.36599"
   version="1.1"
   id="svg8"
   sodipodi:docname="epharma.svg"
   inkscape:version="1.1.1 (3bf5ae0d25, 2021-09-20)"
   xmlns:inkscape="http://www.inkscape.org/namespaces/inkscape"
   xmlns:sodipodi="http://sodipodi.sourceforge.net/DTD/sodipodi-0.dtd"
   xmlns="http://www.w3.org/2000/svg"
   xmlns:svg="http://www.w3.org/2000/svg">
  <defs
     id="defs12" />
  <sodipodi:namedview
     id="namedview10"
     pagecolor="#ffffff"
     bordercolor="#666666"
     borderopacity="1.0"
     inkscape:pageshadow="2"
     inkscape:pageopacity="0.0"
     inkscape:pagecheckerboard="0"
     showgrid="false"
     inkscape:zoom="0.71379605"
     inkscape:cx="144.29892"
     inkscape:cy="409.78092"
     inkscape:window-width="2560"
     inkscape:window-height="1017"
     inkscape:window-x="-8"
     inkscape:window-y="-8"
     inkscape:window-maximized="1"
     inkscape:current-layer="svg8" />
  <path
     style="fill:#f9f9f9;stroke-width:0.449999;paint-order:markers stroke fill"
     d="M -5e-6,-6.175e-4 H 548.36722 V 548.36661 H -5e-6 Z"
     id="path2" />
  <g
     id="g831"
     transform="matrix(2.8368248,0,0,2.8368248,-73.948693,4.0751421)"
     style="stroke-width:0.352507">
    <path
       style="fill:#0073ba;fill-opacity:1;fill-rule:evenodd;stroke:none;stroke-width:0.352507"
       d="m 124.548,9.0097504 c 10.522,0 19.048,8.5319996 19.048,19.0489996 0,10.522 -8.526,19.053 -19.048,19.053 -10.522,0 -19.048,-8.531 -19.048,-19.053 0,-10.517 8.526,-19.0489996 19.048,-19.0489996 z M 141.177,59.50475 c 8.287,0.017 11.976,4.903 5.445,12.095 -18.272,20.117 -31.967,42.729 -44.75,65.92 0.894,-17.74 6.567,-35.026 12.696,-53.217 1.969,-5.842 -1.204,-10.213 -5.44,-12.095 -16.683,-7.409 -32.212,-16.19 -46.563,-26.61 25.844,7.117 51.916,13.864 78.612,13.907 z m -86.232,114.586 5.69,0.947 c -0.734,2.082 -1.884,3.665 -3.464,4.75 -1.574,1.094 -3.549,1.632 -5.92,1.632 -3.749,0 -6.52,-1.216 -8.322,-3.664 -1.42,-1.957 -2.135,-4.432 -2.135,-7.413 0,-3.568 0.936,-6.362 2.807,-8.38 1.864,-2.02 4.228,-3.03 7.083,-3.03 3.209,0 5.738,1.058 7.596,3.175 1.85,2.115 2.737,5.352 2.66,9.715 H 46.644 c 0.042,1.687 0.498,3 1.378,3.935 0.881,0.94 1.982,1.41 3.293,1.41 0.894,0 1.643,-0.242 2.252,-0.726 0.61,-0.491 1.074,-1.273 1.378,-2.351 z m 0.327,-5.753 c -0.042,-1.653 -0.464,-2.905 -1.276,-3.762 -0.81,-0.857 -1.802,-1.286 -2.966,-1.286 -1.247,0 -2.273,0.456 -3.084,1.362 -0.81,0.899 -1.213,2.13 -1.199,3.686 z m 0,0"
       id="path4" />
    <path
       style="fill:#000000;fill-opacity:1;fill-rule:evenodd;stroke:none;stroke-width:0.352507"
       d="m 70.844,180.98375 v -10.236 h -6.513 v -4.508 h 6.513 v -12.085 h 8.71 c 3.297,0 5.451,0.136 6.453,0.405 1.54,0.4 2.836,1.274 3.875,2.625 1.04,1.348 1.559,3.092 1.559,5.222 0,1.648 -0.301,3.036 -0.901,4.153 -0.602,1.124 -1.359,2.006 -2.285,2.648 -0.92,0.639 -1.86,1.062 -2.811,1.27 -1.296,0.255 -3.173,0.386 -5.635,0.386 h -3.537 v 10.12 z m 120.722,-13.505 -4.677,-0.844 c 0.525,-1.88 1.428,-3.267 2.71,-4.173 1.29,-0.9 3.193,-1.355 5.722,-1.355 2.305,0 4.013,0.275 5.14,0.818 1.121,0.543 1.917,1.23 2.373,2.069 0.458,0.836 0.689,2.366 0.689,4.603 l -0.057,6.003 c 0,1.705 0.081,2.966 0.251,3.778 0.163,0.807 0.476,1.68 0.927,2.606 h -5.103 c -0.13,-0.343 -0.3,-0.85 -0.495,-1.519 a 7.31,7.31 0 0 0 -0.18,-0.605 c -0.884,0.856 -1.822,1.493 -2.825,1.923 a 8.125,8.125 0 0 1 -3.21,0.637 c -2.004,0 -3.588,-0.543 -4.74,-1.623 -1.159,-1.087 -1.734,-2.462 -1.734,-4.123 0,-1.093 0.263,-2.073 0.789,-2.935 0.525,-0.863 1.265,-1.52 2.21,-1.975 0.945,-0.456 2.315,-0.856 4.1,-1.199 2.404,-0.45 4.076,-0.875 5.003,-1.263 v -0.51 c 0,-0.994 -0.246,-1.694 -0.733,-2.12 -0.488,-0.417 -1.408,-0.63 -2.767,-0.63 -0.92,0 -1.635,0.18 -2.148,0.543 -0.512,0.357 -0.926,0.988 -1.245,1.894 z m 6.893,4.173 c -0.658,0.218 -1.703,0.48 -3.138,0.786 -1.426,0.307 -2.36,0.606 -2.804,0.894 -0.67,0.48 -1.008,1.08 -1.008,1.812 0,0.724 0.269,1.342 0.807,1.868 0.539,0.524 1.222,0.786 2.054,0.786 0.934,0 1.815,-0.306 2.661,-0.913 0.626,-0.46 1.033,-1.03 1.228,-1.704 0.137,-0.437 0.2,-1.275 0.2,-2.506 z m -44.532,-10.102 h 4.752 v 2.649 c 1.696,-2.062 3.725,-3.092 6.073,-3.092 1.245,0 2.329,0.255 3.243,0.768 0.92,0.513 1.67,1.287 2.26,2.324 0.852,-1.037 1.778,-1.811 2.766,-2.324 a 6.802,6.802 0 0 1 3.175,-0.768 c 1.427,0 2.641,0.294 3.631,0.875 0.99,0.574 1.728,1.43 2.216,2.549 0.357,0.83 0.532,2.173 0.532,4.028 v 12.425 h -5.153 v -11.107 c 0,-1.93 -0.174,-3.173 -0.532,-3.736 -0.475,-0.73 -1.208,-1.1 -2.196,-1.1 -0.726,0 -1.402,0.22 -2.041,0.664 -0.633,0.436 -1.09,1.08 -1.372,1.93 -0.281,0.85 -0.425,2.186 -0.425,4.017 v 9.332 h -5.153 v -10.65 c 0,-1.894 -0.094,-3.112 -0.275,-3.66 -0.181,-0.552 -0.469,-0.956 -0.85,-1.226 -0.389,-0.269 -0.91,-0.406 -1.573,-0.406 -0.795,0 -1.509,0.213 -2.141,0.643 -0.639,0.426 -1.095,1.043 -1.372,1.849 -0.275,0.807 -0.412,2.136 -0.412,4.004 v 9.446 h -5.153 z m -9.296,19.434 h -5.153 v -19.434 h 4.784 v 2.76 c 0.82,-1.305 1.559,-2.167 2.21,-2.58 a 4.115,4.115 0 0 1 2.228,-0.623 c 1.177,0 2.305,0.325 3.393,0.975 l -1.596,4.478 c -0.864,-0.556 -1.671,-0.838 -2.417,-0.838 -0.726,0 -1.334,0.195 -1.834,0.594 -0.508,0.395 -0.896,1.113 -1.184,2.15 -0.287,1.036 -0.431,3.21 -0.431,6.514 z m -21.974,-13.505 -4.677,-0.844 c 0.526,-1.88 1.426,-3.267 2.71,-4.173 1.291,-0.9 3.193,-1.355 5.723,-1.355 2.304,0 4.012,0.275 5.14,0.818 1.12,0.543 1.915,1.23 2.372,2.069 0.456,0.836 0.69,2.366 0.69,4.603 l -0.057,6.003 c 0,1.705 0.08,2.966 0.25,3.778 0.164,0.807 0.476,1.68 0.927,2.606 h -5.103 c -0.13,-0.343 -0.3,-0.85 -0.494,-1.519 a 7.31,7.31 0 0 0 -0.182,-0.605 c -0.883,0.856 -1.822,1.493 -2.824,1.923 a 8.127,8.127 0 0 1 -3.212,0.637 c -2.002,0 -3.587,-0.543 -4.738,-1.623 -1.158,-1.087 -1.734,-2.462 -1.734,-4.123 0,-1.093 0.263,-2.073 0.79,-2.935 0.525,-0.863 1.264,-1.52 2.208,-1.975 0.947,-0.456 2.316,-0.856 4.102,-1.199 2.403,-0.45 4.074,-0.875 5,-1.263 v -0.51 c 0,-0.994 -0.243,-1.694 -0.732,-2.12 -0.488,-0.417 -1.409,-0.63 -2.766,-0.63 -0.921,0 -1.635,0.18 -2.147,0.543 -0.515,0.357 -0.927,0.988 -1.246,1.894 z m 6.892,4.173 c -0.657,0.218 -1.703,0.48 -3.136,0.786 -1.428,0.307 -2.36,0.606 -2.805,0.894 -0.67,0.48 -1.007,1.08 -1.007,1.812 0,0.724 0.268,1.342 0.807,1.868 0.538,0.524 1.22,0.786 2.054,0.786 0.931,0 1.814,-0.306 2.66,-0.913 0.626,-0.46 1.032,-1.03 1.226,-1.704 0.14,-0.437 0.2,-1.275 0.2,-2.506 z m -28.554,-17.498 v 9.863 c 1.665,-1.936 3.65,-2.911 5.96,-2.911 1.19,0 2.254,0.224 3.212,0.663 0.95,0.436 1.672,1 2.152,1.68 0.484,0.686 0.815,1.443 0.99,2.272 0.181,0.825 0.27,2.12 0.27,3.861 v 11.4 h -5.153 v -10.27 c 0,-2.036 -0.1,-3.328 -0.294,-3.878 -0.2,-0.55 -0.545,-0.98 -1.04,-1.305 -0.493,-0.325 -1.114,-0.488 -1.858,-0.488 -0.86,0 -1.623,0.207 -2.292,0.626 -0.676,0.412 -1.171,1.036 -1.478,1.872 -0.313,0.838 -0.47,2.075 -0.47,3.706 v 9.738 h -5.15 v -26.829 z m -24.723,4.54 v 7.61 h 2.968 c 2.141,0 3.574,-0.138 4.295,-0.42 0.72,-0.28 1.283,-0.717 1.695,-1.317 0.408,-0.6 0.615,-1.294 0.615,-2.087 0,-0.975 -0.288,-1.78 -0.864,-2.418 -0.57,-0.63 -1.303,-1.03 -2.178,-1.187 -0.652,-0.124 -1.954,-0.18 -3.908,-0.18 z m 0,0"
       id="path6" />
  </g>
</svg>
