<?xml version="1.0" encoding="UTF-8" standalone="no"?>
<!-- Created with Inkscape (http://www.inkscape.org/) -->

<svg
   width="129.93115mm"
   height="115.35825mm"
   viewBox="0 0 129.93115 115.35825"
   version="1.1"
   id="svg5"
   inkscape:version="1.1.1 (3bf5ae0d25, 2021-09-20)"
   sodipodi:docname="transferir.svg"
   xmlns:inkscape="http://www.inkscape.org/namespaces/inkscape"
   xmlns:sodipodi="http://sodipodi.sourceforge.net/DTD/sodipodi-0.dtd"
   xmlns="http://www.w3.org/2000/svg"
   xmlns:svg="http://www.w3.org/2000/svg">
  <sodipodi:namedview
     id="namedview7"
     pagecolor="#ffffff"
     bordercolor="#666666"
     borderopacity="1.0"
     inkscape:pageshadow="2"
     inkscape:pageopacity="0.0"
     inkscape:pagecheckerboard="0"
     inkscape:document-units="mm"
     showgrid="false"
     inkscape:zoom="0.45254834"
     inkscape:cx="-218.76116"
     inkscape:cy="222.07572"
     inkscape:window-width="1920"
     inkscape:window-height="1017"
     inkscape:window-x="-8"
     inkscape:window-y="-8"
     inkscape:window-maximized="1"
     inkscape:current-layer="layer1" />
  <defs
     id="defs2" />
  <g
     inkscape:label="Camada 1"
     inkscape:groupmode="layer"
     id="layer1"
     transform="translate(11.177878,-85.560601)">
    <g
       id="g890"
       style="fill:#ffffff"
       transform="translate(202.28962,0.58465209)">
      <path
         style="fill:#ffffff;stroke-width:0.264583"
         d="m -197.32321,187.21265 c -10.16394,-8.54676 -15.72095,-13.392 -15.93859,-13.89712 -0.18377,-0.42652 -0.25848,-1.07694 -0.16601,-1.44538 0.11782,-0.46941 4.88754,-4.64252 15.93778,-13.94426 14.71614,-12.38757 15.83629,-13.27438 16.76728,-13.27438 0.68218,0 1.18628,0.18855 1.59427,0.59631 0.59036,0.59001 0.59746,0.68414 0.67348,8.92367 l 0.0768,8.32737 h 38.96924 38.96923 l 0.575291,0.61237 c 0.566722,0.60324 0.575287,0.74265 0.575287,9.36339 0,8.22186 -0.03058,8.78881 -0.50577,9.37566 l -0.505768,0.62462 -39.04944,0.0687 -39.04944,0.0687 v 7.94805 c 0,9.51655 -0.0651,9.77385 -2.47499,9.77385 -0.72813,0 -2.99012,-1.80446 -16.44868,-13.12163 z m 15.18267,-8.59798 c 0.60849,-0.49234 1.62852,-0.50539 39.48906,-0.50539 h 38.86444 v -5.55625 -5.55625 h -38.50537 c -33.02579,0 -38.63594,-0.0546 -39.42292,-0.38337 -0.50464,-0.21086 -0.94249,-0.41922 -0.97298,-0.46303 -0.0305,-0.0438 -0.11979,-3.30383 -0.19844,-7.24451 l -0.14299,-7.16487 -12.17084,10.24545 c -6.69395,5.63499 -12.17083,10.36434 -12.17083,10.50965 0,0.14531 5.47688,4.87086 12.17083,10.50122 l 12.17084,10.23702 0.13229,-7.05714 c 0.13167,-7.024 0.13522,-7.05952 0.75691,-7.56253 z m 64.86497,-38.15148 c -1.25761,-0.63632 -1.32007,-1.09136 -1.32423,-9.64818 l -0.004,-8.00365 h -38.97993 -38.97991 l -0.57529,-0.61236 c -0.56683,-0.60337 -0.57529,-0.74155 -0.57529,-9.40474 v -8.79237 l 0.64943,-0.64943 0.64944,-0.64943 h 38.90577 38.90578 v -7.950637 c 0,-9.520047 0.0649,-9.776444 2.47585,-9.776444 0.72924,0 2.9838,1.798364 16.448671,13.120399 10.189691,8.568072 15.719533,13.389892 15.937737,13.897122 0.183777,0.4272 0.258075,1.07978 0.165111,1.45019 -0.118819,0.47341 -4.697921,4.48946 -15.415389,13.51989 -8.3855,7.06553 -15.60355,13.06941 -16.04011,13.34196 -0.92939,0.58022 -1.35018,0.6098 -2.24374,0.15768 z m 18.723616,-19.87876 c 4.989349,-4.20065 9.037473,-7.72771 8.995833,-7.83789 -0.04164,-0.11019 -5.552585,-4.80868 -12.246539,-10.44109 l -12.17084,-10.240755 -0.13229,7.062738 c -0.13167,7.029877 -0.1352,7.065087 -0.75691,7.568127 -0.60849,0.49233 -1.62852,0.50539 -39.48906,0.50539 h -38.86444 v 5.55625 5.55625 h 38.45739 c 27.39596,0 38.69866,0.0841 39.29621,0.29241 0.46135,0.16083 0.95536,0.51019 1.09781,0.77636 0.14999,0.28026 0.259,3.39432 0.259,7.39893 v 6.91499 l 3.24115,-2.73708 c 1.78263,-1.50539 7.32334,-6.17398 12.312686,-10.37463 z"
         id="path892" />
    </g>
  </g>
</svg>
