<svg height="491pt" viewBox="-56 0 491 491.994" width="491pt" xmlns="http://www.w3.org/2000/svg"><path d="m171.175781 19.054688c4.109375.089843 8.183594-.800782 11.882813-2.59375-1.703125-.871094-3.347656-1.859376-4.914063-2.960938-3.019531-2.035156-5.199219-3.5-10.089843-3.5-4.890626 0-7.070313 1.46875-10.089844 3.5-.570313.382812-1.167969.785156-1.792969 1.183594 4.429687 2.96875 9.671875 4.496094 15.003906 4.371094zm0 0" fill="#d4e1f4"/><path d="m117.410156 19.054688c4.109375.089843 8.183594-.800782 11.882813-2.59375-1.703125-.867188-3.347657-1.859376-4.910157-2.957032-3.019531-2.035156-5.203124-3.5-10.089843-3.5s-7.070313 1.46875-10.089844 3.5c-.570313.382813-1.167969.78125-1.792969 1.183594 4.429688 2.96875 9.671875 4.492188 15 4.367188zm0 0" fill="#d4e1f4"/><path d="m64.652344 19.054688c4.109375.089843 8.179687-.800782 11.878906-2.589844-1.707031-.871094-3.347656-1.863282-4.914062-2.960938-3.019532-2.035156-5.199219-3.5-10.085938-3.5s-7.070312 1.46875-10.089844 3.5c-.570312.382813-1.164062.78125-1.789062 1.183594 4.429687 2.96875 9.667968 4.492188 15 4.367188zm0 0" fill="#d4e1f4"/><path d="m43.773438 377.40625v-359.785156c-2.9375.992187-6.019532 1.476562-9.121094 1.433594-8.554688 0-13.121094-3.078126-16.792969-5.550782-1.28125-.929687-2.652344-1.734375-4.085937-2.402344v366.304688c-.007813 12.160156 6.195312 23.480469 16.445312 30.019531 10.253906 6.539063 23.132812 7.386719 34.15625 2.25-12.554688-5.839843-20.585938-18.421875-20.601562-32.269531zm0 0" fill="#d4e1f4"/><path d="m125.964844 376.40625v-20.371094c.011718-12.898437 7.335937-24.675781 18.898437-30.390625-10.503906-5.195312-22.949219-4.589843-32.902343 1.59375-9.953126 6.1875-16.003907 17.078125-15.996094 28.796875v20.371094c.003906 13.515625-5.753906 26.390625-15.824219 35.402344h30c10.070313-9.011719 15.828125-21.886719 15.824219-35.402344zm0 0" fill="#d4e1f4"/><path d="m202.765625 440.640625v-84.605469c.003906-12.910156-5.4375-25.21875-14.988281-33.902344h-30c9.550781 8.683594 14.992187 20.992188 14.988281 33.902344v84.605469c.023437 21.679687 17.59375 39.25 39.273437 39.273437h30c-21.679687-.023437-39.25-17.59375-39.273437-39.273437zm0 0" fill="#d4e1f4"/><g fill="#0635c9"><path d="m122.828125 54.847656c0-3.3125-2.683594-6-6-6h-72.726563c-3.3125 0-6 2.6875-6 6s2.6875 6 6 6h72.726563c3.316406 0 6-2.6875 6-6zm0 0"/><path d="m372.640625 479.914062h-1.78125c-9.582031-.925781-16.898437-8.976562-16.910156-18.601562v-99.902344c-.03125-28.304687-22.96875-51.242187-51.273438-51.273437h-75.121093v-91.257813c0-3.316406-2.6875-6-6-6-3.316407 0-6 2.683594-6 6v91.257813h-84.550782c-.125 0-.25 0-.375.007812-.347656-.007812-.695312-.007812-1.042968-.007812-25.335938.027343-45.871094 20.558593-45.898438 45.898437v20.375c-.308594 19.4375-16.15625 35.03125-35.597656 35.03125-19.4375 0-35.285156-15.59375-35.59375-35.03125v-363.308594c1.433594.667969 2.804687 1.472657 4.085937 2.398438 3.671875 2.472656 8.242188 5.550781 16.792969 5.550781s13.121094-3.078125 16.789062-5.550781c3.019532-2.03125 5.203126-3.5 10.089844-3.5 4.886719 0 7.066406 1.46875 10.089844 3.5 3.667969 2.472656 8.238281 5.550781 16.789062 5.550781 8.554688 0 13.125-3.078125 16.792969-5.550781 3.019531-2.035156 5.203125-3.5 10.089844-3.5 4.890625 0 7.070313 1.46875 10.089844 3.5 3.671875 2.472656 8.238281 5.550781 16.792969 5.550781 8.550781 0 13.121093-3.078125 16.792968-5.550781 3.019532-2.03125 5.199219-3.5 10.089844-3.5s7.070312 1.472656 10.089844 3.5c3.671875 2.472656 8.242187 5.550781 16.800781 5.550781s13.125-3.078125 16.800781-5.550781c1.285156-.929688 2.652344-1.734375 4.089844-2.40625v19.90625c0 3.3125 2.6875 6 6 6s6-2.6875 6-6v-27c0-3.3125-2.6875-6-6-6-8.554688 0-13.121094 3.078125-16.800781 5.550781-3.019531 2.035157-5.199219 3.5-10.089844 3.5s-7.070313-1.46875-10.089844-3.5c-3.679687-2.472656-8.246093-5.550781-16.800781-5.550781s-13.125 3.078125-16.792969 5.550781c-3.019531 2.035157-5.203125 3.5-10.089843 3.5-4.890626 0-7.070313-1.46875-10.089844-3.5-3.671875-2.472656-8.238282-5.550781-16.792969-5.550781-8.550781 0-13.121094 3.078125-16.792969 5.550781-3.019531 2.035157-5.199218 3.5-10.089844 3.5-4.886718 0-7.066406-1.46875-10.085937-3.5-3.671875-2.472656-8.242187-5.550781-16.792969-5.550781-8.554687 0-13.121094 3.078125-16.792968 5.550781-3.019532 2.035157-5.199219 3.5-10.085938 3.5s-7.066406-1.46875-10.085938-3.5c-3.671874-2.472656-8.242187-5.550781-16.792968-5.550781-3.3125 0-6 2.6875-6 6v370.40625c.03125 26.273438 21.324218 47.5625 47.597656 47.59375 1.410156 0 2.804688-.074219 4.1875-.195312h111.207031v16.832031c.03125 28.304687 22.96875 51.242187 51.273438 51.273437h155.601562c.753907.054688 1.511719.082032 2.28125.082032 3.328125-.039063 6.003907-2.753907 6-6.082032-.003906-3.3125-2.691406-5.996094-6.003906-5.996094zm-292.777344-68.101562c10.070313-9.011719 15.828125-21.886719 15.824219-35.402344v-20.375c0-18.722656 15.179688-33.902344 33.902344-33.902344 18.71875 0 33.898437 15.179688 33.898437 33.902344v55.777344zm134.898438 68.101562c-21.679688-.023437-39.25-17.59375-39.273438-39.273437v-84.605469c.007813-12.910156-5.4375-25.21875-14.984375-33.902344h142.171875c21.679688.027344 39.25 17.59375 39.273438 39.273438v99.902344c-.003907 6.726562 2.207031 13.265625 6.300781 18.605468zm0 0"/><path d="m132.128906 92.164062h-49.820312c-3.3125 0-6 2.6875-6 6s2.6875 6 6 6h49.820312c3.3125 0 6-2.6875 6-6s-2.6875-6-6-6zm0 0"/><path d="m60.566406 92.164062h-16.464844c-3.3125 0-6 2.6875-6 6s2.6875 6 6 6h16.464844c3.3125 0 6-2.6875 6-6s-2.6875-6-6-6zm0 0"/><path d="m82.308594 147.480469h46.820312c3.3125 0 6-2.6875 6-6s-2.6875-6-6-6h-46.820312c-3.3125 0-6 2.6875-6 6s2.6875 6 6 6zm0 0"/><path d="m60.566406 135.480469h-16.464844c-3.3125 0-6 2.6875-6 6s2.6875 6 6 6h16.464844c3.3125 0 6-2.6875 6-6s-2.6875-6-6-6zm0 0"/><path d="m82.308594 190.800781h66.820312c3.3125 0 6-2.6875 6-6 0-3.316406-2.6875-6-6-6h-66.820312c-3.3125 0-6 2.683594-6 6 0 3.3125 2.6875 6 6 6zm0 0"/><path d="m60.566406 178.800781h-16.464844c-3.3125 0-6 2.683594-6 6 0 3.3125 2.6875 6 6 6h16.464844c3.3125 0 6-2.6875 6-6 0-3.316406-2.6875-6-6-6zm0 0"/><path d="m183.945312 222.113281h-101.636718c-3.3125 0-6 2.6875-6 6s2.6875 6 6 6h101.636718c3.3125 0 6-2.6875 6-6s-2.6875-6-6-6zm0 0"/><path d="m60.566406 222.113281h-16.464844c-3.3125 0-6 2.6875-6 6s2.6875 6 6 6h16.464844c3.3125 0 6-2.6875 6-6s-2.6875-6-6-6zm0 0"/><path d="m183.945312 260.429688h-101.636718c-3.3125 0-6 2.6875-6 6s2.6875 6 6 6h101.636718c3.3125 0 6-2.6875 6-6s-2.6875-6-6-6zm0 0"/><path d="m60.566406 260.429688h-16.464844c-3.3125 0-6 2.6875-6 6s2.6875 6 6 6h16.464844c3.3125 0 6-2.6875 6-6s-2.6875-6-6-6zm0 0"/><path d="m306.535156 427.367188h-61.402344c-3.3125 0-6 2.6875-6 6 0 3.316406 2.6875 6 6 6h61.402344c3.3125 0 6-2.683594 6-6 0-3.3125-2.6875-6-6-6zm0 0"/><path d="m224.636719 427.367188h-17.070313c-3.3125 0-6 2.6875-6 6 0 3.316406 2.6875 6 6 6h17.070313c3.3125 0 6-2.683594 6-6 0-3.3125-2.6875-6-6-6zm0 0"/><path d="m306.535156 392.367188h-61.402344c-3.3125 0-6 2.6875-6 6 0 3.316406 2.6875 6 6 6h61.402344c3.3125 0 6-2.683594 6-6 0-3.3125-2.6875-6-6-6zm0 0"/><path d="m224.636719 392.367188h-17.070313c-3.3125 0-6 2.6875-6 6 0 3.316406 2.6875 6 6 6h17.070313c3.3125 0 6-2.683594 6-6 0-3.3125-2.6875-6-6-6zm0 0"/><path d="m306.535156 357.367188h-61.402344c-3.3125 0-6 2.6875-6 6 0 3.316406 2.6875 6 6 6h61.402344c3.3125 0 6-2.683594 6-6 0-3.3125-2.6875-6-6-6zm0 0"/><path d="m224.636719 357.367188h-17.070313c-3.3125 0-6 2.6875-6 6 0 3.316406 2.6875 6 6 6h17.070313c3.3125 0 6-2.683594 6-6 0-3.3125-2.6875-6-6-6zm0 0"/></g><path d="m340.566406 211.964844c-2.34375-2.34375-6.140625-2.34375-8.484375 0l-8.136719 8.136718-28.570312-28.570312c34.683594-39.164062 32.886719-98.558594-4.105469-135.550781-38.089843-38.109375-99.664062-38.742188-138.53125-1.429688-38.863281 37.316407-40.734375 98.867188-4.207031 138.472657 36.53125 39.605468 98.03125 42.710937 138.359375 6.984374l28.574219 28.570313-8.132813 8.132813c-2.34375 2.34375-2.34375 6.140624 0 8.484374l31.742188 31.746094c9.1875 9.160156 24.050781 9.160156 33.234375 0 9.164062-9.183594 9.164062-24.050781 0-33.234375zm-163.03125-10.886719c-6.460937-3.773437-12.410156-8.367187-17.699218-13.664063-32.28125-32.367187-33.890626-84.238281-3.671876-118.542968 30.214844-34.304688 81.871094-39.257813 118.058594-11.324219 36.183594 27.9375 44.464844 79.167969 18.925782 117.082031-25.539063 37.914063-76.128907 49.488282-115.613282 26.449219zm186.289063 67.378906c-4.492188 4.484375-11.769531 4.484375-16.261719 0l-27.5-27.5 16.261719-16.261719 27.5 27.5c4.484375 4.492188 4.484375 11.765626 0 16.261719zm0 0" fill="#1ae5be"/><path d="m221.308594 84.757812c9.5625.007813 17.316406 7.761719 17.328125 17.324219 0 3.316407 2.683593 6 6 6 3.3125 0 6-2.683593 6-6-.019531-13.875-9.75-25.847656-23.328125-28.707031v-7.433594c0-3.316406-2.6875-6-6-6s-6 2.683594-6 6v7.433594c-14.710938 3.078125-24.714844 16.773438-23.167969 31.722656 1.542969 14.949219 14.140625 26.308594 29.167969 26.3125 9.527344.011719 17.257812 7.710938 17.300781 17.238282.046875 9.527343-7.609375 17.304687-17.136719 17.40625-.054687 0-.109375-.007813-.164062-.007813-.054688 0-.109375.007813-.164063.007813-9.5-.097657-17.152343-7.820313-17.164062-17.320313 0-3.3125-2.683594-6-6-6-3.3125 0-6 2.6875-6 6 .019531 13.878906 9.746093 25.851563 23.328125 28.707031v8.5c0 3.316406 2.6875 6 6 6s6-2.683594 6-6v-8.5c14.710937-3.074218 24.71875-16.769531 23.171875-31.722656-1.546875-14.949219-14.144531-26.3125-29.171875-26.308594-9.570313 0-17.328125-7.757812-17.328125-17.328125 0-9.566406 7.757812-17.324219 17.328125-17.324219zm0 0" fill="#1ae5be"/></svg>