<svg width="141" height="38" viewBox="0 0 141 38" fill="none" xmlns="http://www.w3.org/2000/svg">
<rect y="11" width="141" height="27" rx="4" fill="#D9D9D9"/>
<path d="M12.31 29.162C10.93 29.162 9.838 28.76 9.034 27.956C8.23 27.14 7.828 26.036 7.828 24.644C7.828 23.744 8.008 22.952 8.368 22.268C8.728 21.572 9.22 21.038 9.844 20.666C10.48 20.282 11.212 20.09 12.04 20.09C13.228 20.09 14.158 20.474 14.83 21.242C15.502 21.998 15.838 23.042 15.838 24.374C15.838 24.746 15.628 24.932 15.208 24.932H9.25C9.298 25.928 9.586 26.69 10.114 27.218C10.642 27.734 11.374 27.992 12.31 27.992C12.706 27.992 13.108 27.944 13.516 27.848C13.924 27.74 14.32 27.554 14.704 27.29C14.98 27.11 15.208 27.074 15.388 27.182C15.58 27.29 15.676 27.458 15.676 27.686C15.688 27.902 15.568 28.094 15.316 28.262C14.92 28.55 14.446 28.772 13.894 28.928C13.354 29.084 12.826 29.162 12.31 29.162ZM12.076 21.17C11.248 21.17 10.594 21.428 10.114 21.944C9.634 22.46 9.352 23.138 9.268 23.978H14.578C14.542 23.09 14.308 22.4 13.876 21.908C13.456 21.416 12.856 21.17 12.076 21.17ZM21.0441 29.162C18.9441 29.162 17.8941 28.004 17.8941 25.688V20.864C17.8941 20.372 18.1341 20.126 18.6141 20.126C19.1061 20.126 19.3521 20.372 19.3521 20.864V25.67C19.3521 26.45 19.5081 27.026 19.8201 27.398C20.1441 27.77 20.6481 27.956 21.3321 27.956C22.0761 27.956 22.6821 27.71 23.1501 27.218C23.6181 26.714 23.8521 26.048 23.8521 25.22V20.864C23.8521 20.372 24.0981 20.126 24.5901 20.126C25.0701 20.126 25.3101 20.372 25.3101 20.864V28.37C25.3101 28.874 25.0761 29.126 24.6081 29.126C24.1281 29.126 23.8881 28.874 23.8881 28.37V27.524C23.6121 28.052 23.2221 28.46 22.7181 28.748C22.2261 29.024 21.6681 29.162 21.0441 29.162ZM35.3999 31.934C33.8759 31.934 32.5379 31.61 31.3859 30.962C30.2459 30.326 29.3579 29.42 28.7219 28.244C28.0859 27.068 27.7679 25.682 27.7679 24.086C27.7679 22.91 27.9539 21.836 28.3259 20.864C28.7099 19.892 29.2499 19.058 29.9459 18.362C30.6539 17.654 31.4879 17.108 32.4479 16.724C33.4079 16.34 34.4699 16.148 35.6339 16.148C37.0259 16.148 38.2439 16.43 39.2879 16.994C40.3319 17.546 41.1419 18.32 41.7179 19.316C42.3059 20.312 42.5999 21.476 42.5999 22.808C42.5999 23.852 42.4559 24.758 42.1679 25.526C41.8919 26.294 41.4959 26.888 40.9799 27.308C40.4639 27.728 39.8639 27.938 39.1799 27.938C38.5919 27.938 38.1179 27.8 37.7579 27.524C37.3979 27.236 37.1819 26.84 37.1099 26.336C36.7739 26.864 36.3659 27.266 35.8859 27.542C35.4179 27.806 34.9199 27.938 34.3919 27.938C33.4679 27.938 32.7479 27.65 32.2319 27.074C31.7279 26.486 31.4759 25.682 31.4759 24.662C31.4759 23.786 31.6439 23.006 31.9799 22.322C32.3159 21.626 32.7779 21.08 33.3659 20.684C33.9539 20.288 34.6199 20.09 35.3639 20.09C36.5159 20.09 37.2779 20.558 37.6499 21.494L37.7759 20.738C37.8359 20.354 38.0579 20.162 38.4419 20.162C38.8619 20.162 39.0359 20.384 38.9639 20.828L38.2439 24.914C38.1959 25.226 38.1719 25.508 38.1719 25.76C38.1719 26.564 38.5319 26.966 39.2519 26.966C39.9359 26.966 40.4939 26.588 40.9259 25.832C41.3579 25.064 41.5739 24.056 41.5739 22.808C41.5739 21.668 41.3219 20.678 40.8179 19.838C40.3259 18.998 39.6359 18.344 38.7479 17.876C37.8599 17.408 36.8159 17.174 35.6159 17.174C34.2839 17.174 33.1139 17.462 32.1059 18.038C31.0979 18.614 30.3119 19.424 29.7479 20.468C29.1839 21.5 28.9019 22.706 28.9019 24.086C28.9019 25.514 29.1659 26.738 29.6939 27.758C30.2219 28.778 30.9719 29.558 31.9439 30.098C32.9159 30.65 34.0679 30.926 35.3999 30.926C36.2759 30.926 37.0679 30.8 37.7759 30.548C38.4959 30.296 39.1079 29.954 39.6119 29.522C39.8279 29.354 40.0259 29.306 40.2059 29.378C40.3859 29.45 40.4939 29.582 40.5299 29.774C40.5659 29.978 40.4759 30.17 40.2599 30.35C39.7079 30.83 39.0119 31.214 38.1719 31.502C37.3439 31.79 36.4199 31.934 35.3999 31.934ZM34.5539 26.894C35.0939 26.894 35.5679 26.738 35.9759 26.426C36.3959 26.102 36.7259 25.658 36.9659 25.094C37.2059 24.53 37.3259 23.882 37.3259 23.15C37.3259 21.806 36.7139 21.134 35.4899 21.134C34.9619 21.134 34.4879 21.29 34.0679 21.602C33.6479 21.902 33.3119 22.316 33.0599 22.844C32.8199 23.372 32.6999 23.978 32.6999 24.662C32.6999 25.382 32.8619 25.934 33.1859 26.318C33.5099 26.702 33.9659 26.894 34.5539 26.894ZM49.0131 29.162C47.6331 29.162 46.5411 28.76 45.7371 27.956C44.9331 27.14 44.5311 26.036 44.5311 24.644C44.5311 23.744 44.7111 22.952 45.0711 22.268C45.4311 21.572 45.9231 21.038 46.5471 20.666C47.1831 20.282 47.9151 20.09 48.7431 20.09C49.9311 20.09 50.8611 20.474 51.5331 21.242C52.2051 21.998 52.5411 23.042 52.5411 24.374C52.5411 24.746 52.3311 24.932 51.9111 24.932H45.9531C46.0011 25.928 46.2891 26.69 46.8171 27.218C47.3451 27.734 48.0771 27.992 49.0131 27.992C49.4091 27.992 49.8111 27.944 50.2191 27.848C50.6271 27.74 51.0231 27.554 51.4071 27.29C51.6831 27.11 51.9111 27.074 52.0911 27.182C52.2831 27.29 52.3791 27.458 52.3791 27.686C52.3911 27.902 52.2711 28.094 52.0191 28.262C51.6231 28.55 51.1491 28.772 50.5971 28.928C50.0571 29.084 49.5291 29.162 49.0131 29.162ZM48.7791 21.17C47.9511 21.17 47.2971 21.428 46.8171 21.944C46.3371 22.46 46.0551 23.138 45.9711 23.978H51.2811C51.2451 23.09 51.0111 22.4 50.5791 21.908C50.1591 21.416 49.5591 21.17 48.7791 21.17ZM57.7472 29.162C55.6472 29.162 54.5972 28.004 54.5972 25.688V20.864C54.5972 20.372 54.8372 20.126 55.3172 20.126C55.8092 20.126 56.0552 20.372 56.0552 20.864V25.67C56.0552 26.45 56.2112 27.026 56.5232 27.398C56.8472 27.77 57.3512 27.956 58.0352 27.956C58.7792 27.956 59.3852 27.71 59.8532 27.218C60.3212 26.714 60.5552 26.048 60.5552 25.22V20.864C60.5552 20.372 60.8012 20.126 61.2932 20.126C61.7732 20.126 62.0132 20.372 62.0132 20.864V28.37C62.0132 28.874 61.7792 29.126 61.3112 29.126C60.8312 29.126 60.5912 28.874 60.5912 28.37V27.524C60.3152 28.052 59.9252 28.46 59.4212 28.748C58.9292 29.024 58.3712 29.162 57.7472 29.162ZM65.443 29.072C65.143 29.072 64.903 28.982 64.723 28.802C64.543 28.61 64.453 28.37 64.453 28.082C64.453 27.794 64.543 27.56 64.723 27.38C64.903 27.188 65.143 27.092 65.443 27.092C65.743 27.092 65.977 27.188 66.145 27.38C66.325 27.56 66.415 27.794 66.415 28.082C66.415 28.37 66.325 28.61 66.145 28.802C65.977 28.982 65.743 29.072 65.443 29.072ZM72.1405 29.162C71.2645 29.162 70.5085 28.976 69.8725 28.604C69.2365 28.22 68.7445 27.686 68.3965 27.002C68.0605 26.306 67.8925 25.496 67.8925 24.572C67.8925 23.18 68.2705 22.088 69.0265 21.296C69.7825 20.492 70.8205 20.09 72.1405 20.09C72.5725 20.09 73.0225 20.162 73.4905 20.306C73.9585 20.438 74.3845 20.66 74.7685 20.972C74.9725 21.116 75.0565 21.296 75.0205 21.512C74.9965 21.728 74.8945 21.89 74.7145 21.998C74.5465 22.106 74.3485 22.082 74.1205 21.926C73.7965 21.686 73.4725 21.518 73.1485 21.422C72.8365 21.326 72.5305 21.278 72.2305 21.278C71.3185 21.278 70.6165 21.566 70.1245 22.142C69.6325 22.706 69.3865 23.522 69.3865 24.59C69.3865 25.634 69.6325 26.462 70.1245 27.074C70.6165 27.674 71.3185 27.974 72.2305 27.974C72.5305 27.974 72.8365 27.926 73.1485 27.83C73.4725 27.734 73.7965 27.566 74.1205 27.326C74.3485 27.17 74.5465 27.152 74.7145 27.272C74.8825 27.38 74.9725 27.542 74.9845 27.758C75.0085 27.974 74.9245 28.148 74.7325 28.28C74.3485 28.592 73.9285 28.82 73.4725 28.964C73.0165 29.096 72.5725 29.162 72.1405 29.162ZM80.2247 29.162C79.3727 29.162 78.6347 28.976 78.0107 28.604C77.3867 28.232 76.9007 27.71 76.5527 27.038C76.2167 26.354 76.0487 25.55 76.0487 24.626C76.0487 23.702 76.2167 22.904 76.5527 22.232C76.9007 21.548 77.3867 21.02 78.0107 20.648C78.6347 20.276 79.3727 20.09 80.2247 20.09C81.0647 20.09 81.7967 20.276 82.4207 20.648C83.0567 21.02 83.5427 21.548 83.8787 22.232C84.2267 22.904 84.4007 23.702 84.4007 24.626C84.4007 25.55 84.2267 26.354 83.8787 27.038C83.5427 27.71 83.0567 28.232 82.4207 28.604C81.7967 28.976 81.0647 29.162 80.2247 29.162ZM80.2247 27.992C81.0407 27.992 81.6947 27.704 82.1867 27.128C82.6787 26.54 82.9247 25.706 82.9247 24.626C82.9247 23.534 82.6787 22.7 82.1867 22.124C81.6947 21.548 81.0407 21.26 80.2247 21.26C79.3967 21.26 78.7367 21.548 78.2447 22.124C77.7647 22.7 77.5247 23.534 77.5247 24.626C77.5247 25.706 77.7647 26.54 78.2447 27.128C78.7367 27.704 79.3967 27.992 80.2247 27.992ZM87.3467 29.126C86.8667 29.126 86.6267 28.874 86.6267 28.37V20.864C86.6267 20.372 86.8607 20.126 87.3287 20.126C87.8087 20.126 88.0487 20.372 88.0487 20.864V21.728C88.3127 21.2 88.6787 20.798 89.1467 20.522C89.6147 20.234 90.1607 20.09 90.7847 20.09C92.1527 20.09 93.0287 20.684 93.4127 21.872C93.6767 21.32 94.0667 20.888 94.5827 20.576C95.0987 20.252 95.6927 20.09 96.3647 20.09C98.3087 20.09 99.2807 21.242 99.2807 23.546V28.37C99.2807 28.874 99.0347 29.126 98.5427 29.126C98.0627 29.126 97.8227 28.874 97.8227 28.37V23.618C97.8227 22.814 97.6787 22.226 97.3907 21.854C97.1147 21.47 96.6527 21.278 96.0047 21.278C95.2967 21.278 94.7327 21.53 94.3127 22.034C93.8927 22.538 93.6827 23.21 93.6827 24.05V28.37C93.6827 28.874 93.4367 29.126 92.9447 29.126C92.4647 29.126 92.2247 28.874 92.2247 28.37V23.618C92.2247 22.814 92.0807 22.226 91.7927 21.854C91.5167 21.47 91.0547 21.278 90.4067 21.278C89.6867 21.278 89.1167 21.53 88.6967 22.034C88.2887 22.538 88.0847 23.21 88.0847 24.05V28.37C88.0847 28.874 87.8387 29.126 87.3467 29.126Z" fill="#6A6A6A"/>
<rect width="53" height="7" fill="#D9D9D9"/>
</svg>
