<?xml version="1.0" standalone="no"?>
<!DOCTYPE svg PUBLIC "-//W3C//DTD SVG 20010904//EN"
 "http://www.w3.org/TR/2001/REC-SVG-20010904/DTD/svg10.dtd">
<svg version="1.0" xmlns="http://www.w3.org/2000/svg"
 width="512.000000pt" height="512.000000pt" viewBox="0 0 512.000000 512.000000"
 preserveAspectRatio="xMidYMid meet">

<g transform="translate(0.000000,512.000000) scale(0.100000,-0.100000)"
fill="#000000" stroke="none">
<path d="M0 2560 l0 -2560 2560 0 2560 0 0 2560 0 2560 -2560 0 -2560 0 0
-2560z m3836 2151 c21 -15 257 -212 524 -437 267 -225 521 -438 563 -474 79
-66 94 -90 83 -135 -4 -17 -183 -173 -569 -497 -309 -260 -577 -486 -595 -501
-42 -34 -85 -35 -117 -2 l-25 24 0 311 0 310 -1471 0 -1471 0 -29 30 -30 29 3
327 3 326 24 19 c23 19 61 19 1497 19 l1474 0 0 313 c0 328 0 331 45 355 31
18 49 14 91 -17z m-2437 -2257 c20 -26 21 -38 21 -335 l0 -309 1471 0 1471 0
29 -30 30 -29 -3 -327 -3 -326 -24 -19 c-23 -19 -61 -19 -1497 -19 l-1474 0 0
-315 c0 -300 -1 -316 -20 -335 -25 -25 -63 -34 -88 -21 -46 25 -1188 993
-1196 1015 -22 58 -74 11 1097 994 80 68 103 82 131 82 25 0 40 -7 55 -26z"/>
<path d="M3860 4222 l0 -261 -24 -28 -24 -28 -1476 -3 -1476 -2 0 -215 0 -215
1469 0 c808 0 1477 -3 1486 -6 40 -16 45 -52 45 -318 l0 -256 470 397 c259
217 470 399 468 403 -2 6 -837 712 -921 779 -16 13 -17 -2 -17 -247z"/>
<path d="M785 1830 c-253 -213 -460 -392 -460 -398 0 -9 83 -80 690 -590 l240
-202 5 265 c5 259 5 265 28 287 l23 23 1474 3 1475 2 0 215 0 215 -1474 0
c-1436 0 -1474 0 -1497 19 -24 19 -24 19 -27 285 -2 146 -6 266 -10 265 -4 0
-214 -175 -467 -389z"/>
</g>
</svg>
