<svg width="225" height="225" viewBox="0 0 59.531 59.531" xmlns="http://www.w3.org/2000/svg"><path style="fill:#fdfafb;stroke-width:1" d="M140.467 148.45c5.429-3.092 9.762-6.81 12.076-10.363 1.236-1.897 2.166-4.523 2.166-6.113 0-1.44.526-1.328 1.68.358 1.344 1.963 1.76 3.35 1.76 5.873 0 4.487-1.872 7.927-5.253 9.652-2.466 1.258-4.685 1.66-9.828 1.784l-4.895.117zm-18.037-3.979v-4.223l1.257-.452c7.694-2.761 13.165-5.946 17.686-10.293 1.442-1.386 2.714-2.522 2.828-2.524.582-.012 2.853 1.4 3.574 2.222 4.072 4.638-3.598 12.89-15.952 17.162-2.427.84-5.93 1.74-8.4 2.162l-.993.17zm.057-12.67.076-2.577 2.645-.89c3.209-1.08 6.816-1.832 9.885-2.06l2.286-.171-.529.608c-1.485 1.708-8.07 5.37-12.582 6.998l-1.857.67zm30.004-6.065c-.98-1.086-1.854-1.7-3.62-2.544-2.176-1.04-2.314-1.155-2.146-1.774.098-.363.175-1.673.17-2.91-.007-1.83-.124-2.467-.623-3.418-1.293-2.46-4.573-4.806-8.231-5.887-1.105-.327-.816-.358 3.968-.434 9.442-.15 12.881 1.005 14.636 4.914 2.079 4.633 1.078 10.717-2.133 12.972l-.729.512zm-30.127-6.378c-.178-4.502-.098-5.006.822-5.203 4.76-1.02 11.096-.795 14.205.504 2.467 1.03 3.921 2.955 3.773 4.991l-.08 1.107-5.028.168c-5.197.173-8.856.722-13.123 1.968-.37.108-.442-.346-.569-3.535z" transform="translate(-110.524 -99.458)"/><path style="fill:#e91b23;stroke-width:1" d="M110.524 129.224V99.458h59.531v59.531h-59.531zm39.384 19.732c2.434-.71 3.747-1.374 5.063-2.563 2.093-1.891 3.178-4.686 3.178-8.188 0-2.522-.416-3.91-1.76-5.873-1.154-1.686-1.68-1.798-1.68-.358 0 5.108-5.542 11.52-14.242 16.477l-2.294 1.307 4.895-.117c3.978-.096 5.259-.224 6.84-.685zm-23.112-1.14c14.543-3.291 25.723-13.212 20.979-18.615-.721-.821-2.992-2.234-3.574-2.222-.114.002-1.386 1.138-2.828 2.524-4.52 4.347-9.992 7.532-17.686 10.293l-1.257.452v8.446l.992-.169c.546-.093 2.064-.412 3.374-.708zm2.046-16.055c2.873-1.35 7.12-4.03 8.008-5.05l.53-.608-2.287.17c-3.069.23-6.676.981-9.885 2.06l-2.645.89-.076 2.578-.076 2.577 1.857-.67c1.021-.368 3.08-1.244 4.574-1.947zm27.05-6.473c2.822-3.7 2.282-11.256-1.007-14.07-2.284-1.956-5.493-2.566-12.876-2.45-4.784.077-5.073.108-3.968.435 3.658 1.08 6.938 3.427 8.23 5.887.5.95.617 1.589.624 3.418.005 1.237-.072 2.547-.17 2.91-.168.62-.03.733 2.147 1.774 1.765.844 2.639 1.458 3.62 2.544l1.291 1.43.729-.51c.4-.282 1.022-.897 1.38-1.368zm-30.948-2.913c3.923-.975 6.347-1.291 11.112-1.45l5.027-.168.08-1.107c.149-2.036-1.305-3.96-3.772-4.99-3.11-1.3-9.445-1.525-14.205-.505-.92.197-1 .7-.822 5.203.127 3.189.2 3.643.569 3.535a87.617 87.617 0 0 1 2.01-.518z" transform="translate(-110.524 -99.458)"/></svg>