<svg width="714.151" height="687.156" viewBox="0 0 188.953 181.81" xmlns="http://www.w3.org/2000/svg"><path class="st2" d="m206.987 18.75 17.856 13.96L242.7 18.75V7.712l-17.857 14.934-17.856-14.934Zm0-49.348v11.038L224.843-5.6 242.7-19.56v-11.038l-17.857 14.934zm-57.79 38.31V18.75l17.857 13.96 17.856-13.96V7.712l-17.856 14.934z" style="fill:#661739;stroke-width:3.24661" transform="translate(-101.797 143.905)"/><path class="st2" d="M269.971-143.905H121.926c-5.195 0-16.177-.019-20.12-.015-.032 4.619-.01 15.1-.01 20.144V21.997c0 3.246.006 13.324-.019 15.968 4.276.017 5.309.024 7.812-.06V32.71l17.856-13.96V7.712l-17.856 14.934V-5.6l28.895-22.726L167.378-5.6l17.857-13.96v-10.714l-17.857 14.935v-28.246l28.895-22.726 28.895 22.726 17.856-13.96v-11.039l-17.856 14.935v-28.57l28.895-22.727 28.895 22.727v28.245L265.1-68.908v11.038l17.857 14.285v28.246L265.1-30.274v10.714L282.958-5.6v28.246L265.1 7.712V18.75l17.857 13.96v5.195c6.717-.032 7.806 1.064 7.804-.15-.005-3.207-.013-12.836-.013-15.758v-145.448c0-5.52.137-16.39.062-20.451-5.425.025-15.32-.003-20.84-.003z" style="fill:#661739;stroke-width:3.24661" transform="translate(-101.797 143.905)"/></svg>