<?xml version="1.0" encoding="UTF-8" standalone="no"?>
<svg
   width="211.32076"
   height="210.49039"
   version="1.1"
   id="svg40"
   sodipodi:docname="pag-seguro.svg"
   inkscape:version="1.1.1 (3bf5ae0d25, 2021-09-20)"
   xmlns:inkscape="http://www.inkscape.org/namespaces/inkscape"
   xmlns:sodipodi="http://sodipodi.sourceforge.net/DTD/sodipodi-0.dtd"
   xmlns="http://www.w3.org/2000/svg"
   xmlns:svg="http://www.w3.org/2000/svg">
  <defs
     id="defs44" />
  <sodipodi:namedview
     id="namedview42"
     pagecolor="#ffffff"
     bordercolor="#666666"
     borderopacity="1.0"
     inkscape:pageshadow="2"
     inkscape:pageopacity="0.0"
     inkscape:pagecheckerboard="0"
     showgrid="false"
     inkscape:zoom="1.4411486"
     inkscape:cx="104.08364"
     inkscape:cy="117.61452"
     inkscape:window-width="2560"
     inkscape:window-height="1017"
     inkscape:window-x="-8"
     inkscape:window-y="-8"
     inkscape:window-maximized="1"
     inkscape:current-layer="g36" />
  <g
     style="fill:none;fill-rule:evenodd;stroke:none;stroke-width:1"
     id="g38"
     transform="translate(334.1087,59.328081)">
    <g
       style="stroke-width:8.92306"
       id="g36">
      <path
         style="fill:#00b38f;fill-opacity:1;stroke-width:0.6;paint-order:markers stroke fill"
         d="m -334.1087,-59.328077 h 211.32076 V 151.1623 H -334.1087 Z"
         id="path2" />
      <g
         style="stroke-width:5.30214"
         id="g34"
         transform="matrix(1.673519,0,0,1.673519,-405.86896,-80.207505)"
         inkscape:transform-center-x="-54.578277"
         inkscape:transform-center-y="1.4030089e-05">
        <path
           style="fill:#fefefe;stroke-width:5.30215"
           d="m 65.612,-88.928 c 7.554,-1.634 13.565,-7.249 15.516,-14.494 0.568,-2.11 0.638,-2.693 0.638,-5.358 0,-2.665 -0.07,-3.248 -0.638,-5.353 -1.003,-3.72 -3.29,-7.326 -6.249,-9.85 -3.682,-3.144 -8.774,-5.092 -13.263,-5.076 -2.74,0.011 -5.759,0.76 -8.666,2.154 -6.171,2.958 -10.427,8.73 -11.383,15.44 -0.195,1.369 -0.195,4.295 0,5.662 a 20.233,20.233 0 0 0 4.107,9.593 c 1.396,1.783 3.845,3.955 5.671,5.03 1.727,1.017 4.972,2.115 7.295,2.469 0.727,0.11 1.62,0.139 3.342,0.105 2.047,-0.04 2.513,-0.08 3.63,-0.322 z"
           transform="matrix(2.13565,0,0,2.13565,-27.493,309.445)"
           id="path18" />
        <path
           style="fill:#a4d9d8;stroke-width:5.30215"
           d="m 63.424,-88.636 c 0.075,-0.03 0.165,-0.027 0.2,0.007 0.034,0.034 -0.027,0.06 -0.137,0.055 -0.122,-0.004 -0.147,-0.029 -0.063,-0.063 z m -6.663,-2.048 c -5.609,-0.878 -9.953,-5.132 -11.022,-10.793 -0.259,-1.372 -0.165,-3.998 0.191,-5.35 0.685,-2.6 1.69,-4.365 3.549,-6.24 1.79,-1.807 4.134,-3.072 6.76,-3.65 1.226,-0.269 3.879,-0.281 5.092,-0.023 2.71,0.578 5.033,1.822 6.857,3.673 0.4,0.404 0.705,0.75 0.68,0.766 a 19.72,19.72 0 0 1 -0.969,0.337 c -3.155,1.05 -5.589,3.95 -6.132,7.31 -0.175,1.08 -0.074,3.025 0.205,3.96 0.816,2.732 2.748,4.926 5.312,6.032 l 0.76,0.328 -0.551,0.497 c -1.55,1.397 -3.701,2.485 -5.93,2.998 -1.232,0.284 -3.508,0.358 -4.802,0.155 z m -9.505,-3.731 -0.571,-0.597 0.6,0.567 c 0.33,0.312 0.6,0.58 0.6,0.596 0,0.078 -0.1,-0.012 -0.63,-0.566 z m 28.608,-0.053 c 0.256,-0.273 0.48,-0.496 0.496,-0.496 0.078,0 -0.004,0.093 -0.465,0.527 l -0.496,0.466 z M 47.26,-122.919 c 0.312,-0.317 0.59,-0.575 0.62,-0.575 0.028,0 -0.203,0.258 -0.515,0.574 -0.312,0.316 -0.591,0.575 -0.62,0.575 -0.028,0 0.203,-0.258 0.515,-0.574 z m 28.61,-0.105 c -0.254,-0.256 -0.438,-0.467 -0.41,-0.467 0.03,0 0.26,0.21 0.514,0.467 0.254,0.257 0.438,0.467 0.409,0.467 -0.029,0 -0.26,-0.21 -0.513,-0.467 z m -15.578,-6.001 c 0.076,-0.03 0.166,-0.027 0.2,0.007 0.035,0.034 -0.027,0.06 -0.137,0.055 -0.121,-0.004 -0.146,-0.029 -0.063,-0.062 z m 2.506,-0.01 c 0.076,-0.03 0.166,-0.026 0.2,0.008 0.035,0.034 -0.027,0.06 -0.137,0.055 -0.122,-0.004 -0.146,-0.029 -0.063,-0.062 z"
           transform="matrix(2.13565,0,0,2.13565,-27.493,309.445)"
           id="path20" />
        <path
           style="fill:#dae25f;stroke-width:5.30215"
           d="m 78.926,-103.251 c 0.001,-0.287 0.02,-0.391 0.045,-0.233 0.024,0.158 0.024,0.392 -0.001,0.52 -0.025,0.129 -0.045,0 -0.044,-0.287 z m -1.596,-6.765 c -0.39,-0.418 -1.42,-1.12 -2.245,-1.527 -1.073,-0.531 -2.013,-0.784 -3.402,-0.915 l -1.235,-0.116 -0.534,-0.654 c -1.7,-2.082 -4.55,-3.882 -7.28,-4.597 -5.078,-1.33 -10.442,0.115 -14.122,3.805 -1.091,1.094 -1.679,1.856 -2.424,3.146 -0.374,0.646 -0.51,0.809 -0.563,0.672 -0.145,-0.376 0.038,-3.425 0.272,-4.532 1.359,-6.43 6.168,-11.24 12.671,-12.673 1.54,-0.34 4.756,-0.352 6.296,-0.023 7.441,1.586 12.675,7.72 12.95,15.177 0.028,0.773 0.013,1.655 -0.036,1.96 l -0.087,0.556 z"
           transform="matrix(2.13565,0,0,2.13565,-27.493,309.445)"
           id="path22" />
        <path
           style="fill:#f3df3c;stroke-width:5.30215"
           d="m 69.616,-95.362 c -1.594,-0.279 -3.114,-1.08 -4.293,-2.266 -1.146,-1.151 -1.817,-2.39 -2.158,-3.985 -0.242,-1.132 -0.144,-2.9 0.22,-3.976 0.722,-2.14 2.073,-3.713 4.045,-4.71 3.434,-1.737 7.758,-0.712 9.947,2.358 1.09,1.528 1.52,2.856 1.52,4.69 0,2.282 -0.826,4.241 -2.42,5.745 -1.025,0.965 -2.175,1.617 -3.484,1.975 -0.763,0.21 -2.616,0.302 -3.377,0.169 z"
           transform="matrix(2.13565,0,0,2.13565,-27.493,309.445)"
           id="path24" />
        <path
           style="fill:#a5a7a7;stroke-width:5.30215"
           d="m 123.716,-44.32 -0.09,-0.105 0.106,0.088 a 0.516,0.516 0 0 1 0.105,0.104 c 0,0.038 -0.038,0.01 -0.121,-0.088 z m 8.055,0.01 c 0,-0.01 0.037,-0.046 0.082,-0.081 0.074,-0.059 0.075,-0.057 0.017,0.017 -0.06,0.078 -0.099,0.103 -0.099,0.064 z m -8.335,-0.29 -0.09,-0.104 0.106,0.089 a 0.514,0.514 0 0 1 0.105,0.104 c 0,0.037 -0.038,0.01 -0.121,-0.088 z m 31.009,-0.83 c 0.033,-0.014 0.074,-0.012 0.089,0.003 0.016,0.015 -0.012,0.026 -0.061,0.025 -0.055,-0.002 -0.066,-0.013 -0.028,-0.028 z m 13.16,-2.329 c 0.035,-0.013 0.075,-0.012 0.09,0.003 0.016,0.016 -0.012,0.027 -0.06,0.025 -0.055,-0.002 -0.066,-0.013 -0.03,-0.028 z m -15.104,-0.239 c 0,-0.064 0.01,-0.09 0.023,-0.058 a 0.178,0.178 0 0 1 0,0.116 c -0.013,0.032 -0.023,0.006 -0.023,-0.058 z m 1.575,-0.273 -0.113,-0.128 0.129,0.113 a 0.81,0.81 0 0 1 0.128,0.127 c 0,0.037 -0.038,0.007 -0.144,-0.112 z m 1.79,-0.47 a 0.384,0.384 0 0 1 0.163,0 c 0.044,0.012 0.008,0.021 -0.082,0.022 -0.09,0 -0.127,-0.01 -0.082,-0.021 z m 13.429,-0.412 a 0.556,0.556 0 0 1 0.133,-0.117 c 0.013,0 -0.026,0.053 -0.086,0.117 a 0.556,0.556 0 0 1 -0.133,0.117 c -0.013,0 0.026,-0.053 0.086,-0.117 z m -12.485,0.022 a 0.371,0.371 0 0 1 0.108,-0.093 c 0.013,0 -0.015,0.042 -0.061,0.093 a 0.37,0.37 0 0 1 -0.108,0.094 c -0.013,0 0.015,-0.042 0.061,-0.094 z m -3.136,-0.314 c 0,-0.14 0.009,-0.198 0.02,-0.128 0.01,0.07 0.01,0.186 0,0.256 -0.011,0.07 -0.02,0.013 -0.02,-0.128 z m 1.585,-0.122 c 0,-0.102 0.01,-0.139 0.02,-0.081 a 0.507,0.507 0 0 1 0,0.186 c -0.012,0.045 -0.021,-0.003 -0.02,-0.105 z m 10.96,-0.183 c 0.001,-0.055 0.013,-0.066 0.027,-0.029 0.014,0.034 0.012,0.074 -0.004,0.09 -0.015,0.015 -0.026,-0.012 -0.024,-0.061 z m 1.586,-0.1 c 0.002,-0.054 0.013,-0.065 0.028,-0.028 0.014,0.034 0.012,0.074 -0.004,0.09 -0.015,0.015 -0.026,-0.012 -0.024,-0.061 z m 14.091,-1.112 c 0,-0.01 0.037,-0.046 0.082,-0.081 0.074,-0.058 0.076,-0.057 0.017,0.017 -0.06,0.078 -0.099,0.103 -0.099,0.064 z m -1.26,-0.373 c 0.087,-0.09 0.169,-0.164 0.182,-0.164 0.012,0 -0.048,0.074 -0.135,0.164 -0.087,0.09 -0.17,0.163 -0.182,0.163 -0.013,0 0.048,-0.073 0.135,-0.163 z m -4.236,-0.334 c 0,-0.09 0.01,-0.126 0.021,-0.081 a 0.382,0.382 0 0 1 0,0.163 c -0.012,0.045 -0.021,0.008 -0.021,-0.082 z m -32.155,0.178 a 0.268,0.268 0 0 1 0.14,0.002 c 0.031,0.012 -0.006,0.022 -0.083,0.021 -0.077,0 -0.103,-0.01 -0.057,-0.023 z m 24.35,-0.12 c 0,-0.01 0.037,-0.047 0.081,-0.082 0.074,-0.058 0.076,-0.056 0.018,0.018 -0.06,0.077 -0.1,0.102 -0.1,0.064 z m -13.838,-0.398 c 0.1,-0.102 0.193,-0.187 0.205,-0.187 0.013,0 -0.058,0.084 -0.159,0.187 -0.1,0.103 -0.192,0.187 -0.205,0.187 -0.013,0 0.058,-0.084 0.159,-0.187 z m 28.213,0.066 c 0,-0.01 0.036,-0.046 0.081,-0.082 0.074,-0.058 0.076,-0.056 0.018,0.018 -0.061,0.078 -0.1,0.102 -0.1,0.064 z m -34.397,-0.066 c 0.087,-0.09 0.169,-0.164 0.181,-0.164 0.013,0 -0.047,0.074 -0.135,0.163 -0.087,0.09 -0.168,0.164 -0.181,0.164 -0.013,0 0.048,-0.074 0.135,-0.163 z m 2.651,-0.251 c 0.034,-0.014 0.074,-0.012 0.09,0.003 0.015,0.015 -0.012,0.027 -0.062,0.025 -0.054,-0.002 -0.065,-0.013 -0.028,-0.028 z m 0.327,-0.002 c 0.034,-0.013 0.074,-0.012 0.09,0.004 0.015,0.015 -0.013,0.026 -0.062,0.024 -0.054,-0.002 -0.065,-0.013 -0.028,-0.028 z m 5.995,-0.022 a 0.268,0.268 0 0 1 0.14,10e-4 c 0.032,0.013 -0.006,0.023 -0.082,0.022 -0.077,0 -0.103,-0.01 -0.058,-0.023 z m 12.394,-0.045 c 0.033,-0.013 0.073,-0.012 0.089,0.004 0.016,0.015 -0.012,0.026 -0.061,0.024 -0.055,-0.002 -0.066,-0.013 -0.028,-0.028 z m 5.737,-0.02 a 0.18,0.18 0 0 1 0.117,0 c 0.032,0.013 0.006,0.024 -0.058,0.024 -0.065,0 -0.09,-0.01 -0.059,-0.023 z m 6.22,-0.2 c 0.086,-0.09 0.168,-0.164 0.18,-0.164 0.014,0 -0.047,0.073 -0.134,0.163 -0.087,0.09 -0.169,0.164 -0.182,0.164 -0.013,0 0.048,-0.074 0.135,-0.164 z m 1.586,0.139 c 0,-0.01 0.037,-0.047 0.082,-0.082 0.074,-0.058 0.075,-0.056 0.017,0.018 -0.06,0.077 -0.099,0.102 -0.099,0.064 z m -60.043,-0.276 a 0.371,0.371 0 0 1 0.108,-0.093 c 0.013,0 -0.015,0.042 -0.061,0.093 a 0.371,0.371 0 0 1 -0.108,0.094 c -0.013,0 0.015,-0.042 0.061,-0.094 z m 8.518,-0.147 c -0.114,-0.115 -0.196,-0.209 -0.183,-0.209 0.013,0 0.116,0.094 0.23,0.209 0.113,0.114 0.195,0.208 0.182,0.208 -0.013,0 -0.116,-0.093 -0.23,-0.208 z m 15.592,0.032 c 0.002,-0.054 0.013,-0.065 0.028,-0.028 0.013,0.034 0.012,0.074 -0.004,0.09 -0.016,0.015 -0.027,-0.013 -0.025,-0.062 z m -23.876,-0.118 a 0.371,0.371 0 0 1 0.107,-0.094 c 0.013,0 -0.014,0.042 -0.06,0.093 a 0.371,0.371 0 0 1 -0.109,0.094 c -0.012,0 0.015,-0.042 0.062,-0.093 z m 27.734,-0.365 a 0.18,0.18 0 0 1 0.117,0 c 0.032,0.012 0.006,0.023 -0.059,0.023 -0.064,0 -0.09,-0.01 -0.058,-0.023 z m 0.491,-0.003 a 0.268,0.268 0 0 1 0.14,10e-4 c 0.032,0.013 -0.006,0.022 -0.083,0.022 -0.077,0 -0.102,-0.011 -0.057,-0.023 z m 5.95,-0.022 a 0.511,0.511 0 0 1 0.187,0 c 0.045,0.011 -0.003,0.02 -0.106,0.02 -0.102,0 -0.139,-0.01 -0.08,-0.02 z m 8.236,-0.137 c 0,-0.09 0.01,-0.126 0.022,-0.082 a 0.382,0.382 0 0 1 0,0.163 c -0.012,0.045 -0.022,0.008 -0.022,-0.081 z m 4.038,0.094 a 0.18,0.18 0 0 1 0.117,0 c 0.032,0.012 0.006,0.023 -0.058,0.023 -0.065,0 -0.09,-0.01 -0.059,-0.023 z m 0.49,-0.003 a 0.384,0.384 0 0 1 0.164,0 c 0.045,0.01 0.008,0.02 -0.082,0.02 -0.09,10e-4 -0.127,-0.008 -0.082,-0.02 z m 5.835,-0.022 a 0.268,0.268 0 0 1 0.14,0.002 c 0.032,0.012 -0.006,0.022 -0.082,0.021 -0.077,0 -0.103,-0.01 -0.058,-0.023 z m -31.524,-0.443 c 0.033,-0.013 0.074,-0.012 0.09,0.004 0.015,0.015 -0.013,0.026 -0.062,0.024 -0.055,-0.002 -0.066,-0.013 -0.028,-0.028 z m 20.75,-0.614 -0.09,-0.104 0.106,0.088 c 0.098,0.083 0.126,0.12 0.088,0.12 a 0.511,0.511 0 0 1 -0.105,-0.104 z"
           transform="matrix(2.13565,0,0,2.13565,-27.493,309.445)"
           id="path26" />
        <path
           style="fill:#749999;stroke-width:5.30215"
           d="m 59.978,-88.624 c 0.076,-0.03 0.165,-0.027 0.2,0.007 0.035,0.035 -0.027,0.06 -0.137,0.056 -0.122,-0.005 -0.146,-0.03 -0.063,-0.063 z m 3.133,-0.011 c 0.075,-0.03 0.165,-0.027 0.2,0.007 0.034,0.035 -0.027,0.06 -0.137,0.055 -0.122,-0.004 -0.147,-0.029 -0.063,-0.062 z m -5.639,-1.958 c 0.076,-0.03 0.166,-0.027 0.2,0.007 0.035,0.035 -0.027,0.06 -0.137,0.055 -0.121,-0.004 -0.146,-0.029 -0.063,-0.062 z m -11.961,-12.64 c 0,-0.23 0.022,-0.311 0.047,-0.182 0.025,0.13 0.024,0.317 -0.002,0.417 -0.026,0.1 -0.047,-0.006 -0.046,-0.236 z m 0,-0.938 c 0,-0.229 0.022,-0.31 0.047,-0.181 0.025,0.13 0.024,0.317 -0.002,0.416 -0.026,0.1 -0.047,-0.006 -0.046,-0.235 z m -4.09,-2.805 c 0.004,-0.121 0.03,-0.146 0.062,-0.063 0.03,0.075 0.027,0.165 -0.008,0.2 -0.035,0.034 -0.06,-0.027 -0.055,-0.137 z m 40.303,-0.355 c 0.004,-0.121 0.03,-0.146 0.063,-0.063 0.03,0.075 0.026,0.165 -0.009,0.2 -0.035,0.034 -0.06,-0.027 -0.055,-0.137 z m 0,-2.916 c 0.004,-0.12 0.03,-0.146 0.063,-0.063 0.03,0.075 0.026,0.165 -0.009,0.2 -0.035,0.035 -0.06,-0.027 -0.055,-0.136 z m -40.304,-0.06 c 0.005,-0.122 0.03,-0.147 0.063,-0.064 0.03,0.075 0.027,0.165 -0.008,0.2 -0.035,0.034 -0.06,-0.027 -0.055,-0.137 z m 19.23,-18.72 a 0.855,0.855 0 0 1 0.366,-0.001 c 0.1,0.025 0.018,0.047 -0.183,0.048 -0.201,0 -0.283,-0.02 -0.183,-0.047 z m 1.566,-0.007 a 0.855,0.855 0 0 1 0.366,-0.001 c 0.1,0.025 0.018,0.047 -0.183,0.048 -0.2,0 -0.283,-0.02 -0.183,-0.047 z"
           transform="matrix(2.13565,0,0,2.13565,-27.493,309.445)"
           id="path28" />
        <path
           style="fill:#5f6161;stroke-width:5.30215"
           d="m 60.285,-88.623 a 0.393,0.393 0 0 1 0.26,0 c 0.073,0.028 0.014,0.052 -0.13,0.052 -0.143,0 -0.202,-0.023 -0.13,-0.052 z m 2.351,-0.012 a 0.599,0.599 0 0 1 0.313,0.003 c 0.071,0.028 -0.013,0.05 -0.184,0.049 -0.173,-0.002 -0.23,-0.025 -0.13,-0.052 z m -3.493,-0.09 c 0.075,-0.03 0.165,-0.027 0.2,0.007 0.035,0.035 -0.027,0.06 -0.137,0.055 -0.122,-0.004 -0.146,-0.029 -0.063,-0.062 z m 4.803,-0.018 c 0.075,-0.03 0.165,-0.027 0.2,0.008 0.035,0.034 -0.027,0.06 -0.137,0.055 -0.122,-0.004 -0.147,-0.03 -0.063,-0.063 z m -5.543,-1.753 a 3.92,3.92 0 0 1 0.73,-0.004 c 0.218,0.022 0.066,0.041 -0.336,0.043 -0.402,0.002 -0.58,-0.016 -0.394,-0.04 z m -1.244,-0.096 c 0.075,-0.03 0.165,-0.027 0.2,0.007 0.035,0.035 -0.027,0.06 -0.137,0.056 -0.122,-0.005 -0.146,-0.03 -0.063,-0.063 z m 3.126,-0.01 a 0.406,0.406 0 0 1 0.26,0 c 0.073,0.028 0.014,0.052 -0.13,0.053 -0.143,0 -0.202,-0.023 -0.13,-0.052 z m 0.737,-0.108 c 0.076,-0.03 0.166,-0.027 0.2,0.007 0.035,0.035 -0.027,0.06 -0.137,0.055 -0.122,-0.004 -0.146,-0.029 -0.063,-0.062 z M 49.44,-92.55 c -0.13,-0.164 -0.127,-0.168 0.039,-0.039 0.174,0.136 0.23,0.221 0.143,0.221 -0.022,0 -0.103,-0.081 -0.182,-0.181 z m -1.302,-1.088 -0.199,-0.233 0.235,0.197 c 0.22,0.186 0.282,0.27 0.199,0.27 -0.02,0 -0.126,-0.105 -0.235,-0.234 z m 26.948,-0.176 c 0.104,-0.115 0.213,-0.209 0.242,-0.21 0.028,0 -0.033,0.095 -0.137,0.21 -0.104,0.115 -0.213,0.209 -0.241,0.209 -0.029,0 0.033,-0.094 0.136,-0.209 z m 1.41,-1.41 c 0.135,-0.144 0.269,-0.262 0.297,-0.262 0.03,0 -0.058,0.117 -0.193,0.26 -0.135,0.144 -0.268,0.262 -0.297,0.262 -0.029,0 0.058,-0.117 0.193,-0.26 z m -30.029,-0.074 -0.199,-0.233 0.235,0.197 c 0.221,0.186 0.283,0.27 0.2,0.27 -0.021,0 -0.126,-0.105 -0.236,-0.234 z m 23.327,-0.026 c 0.075,-0.03 0.165,-0.027 0.2,0.008 0.035,0.034 -0.027,0.06 -0.137,0.055 -0.122,-0.005 -0.146,-0.03 -0.063,-0.063 z m -5.006,-0.925 c -0.13,-0.165 -0.126,-0.169 0.04,-0.04 0.174,0.135 0.229,0.22 0.143,0.221 -0.022,0 -0.104,-0.082 -0.183,-0.181 z m -0.835,-0.83 c -0.13,-0.165 -0.126,-0.169 0.04,-0.04 0.1,0.078 0.182,0.16 0.182,0.182 0,0.085 -0.085,0.03 -0.222,-0.142 z M 76.6,-97.62 c 0.195,-0.201 0.378,-0.366 0.407,-0.366 0.028,0 -0.107,0.164 -0.302,0.366 -0.195,0.2 -0.378,0.365 -0.407,0.365 -0.028,0 0.108,-0.164 0.302,-0.365 z m -31.002,-4.06 c 0.004,-0.122 0.03,-0.147 0.063,-0.064 0.03,0.075 0.026,0.165 -0.009,0.2 -0.035,0.034 -0.06,-0.027 -0.055,-0.137 z m 16.098,-0.884 c 0,-0.229 0.022,-0.31 0.047,-0.18 0.025,0.129 0.024,0.316 -0.002,0.416 -0.026,0.1 -0.047,-0.006 -0.045,-0.236 z m 17.218,-0.01 c 0,-0.143 0.024,-0.202 0.053,-0.13 a 0.402,0.402 0 0 1 0,0.26 c -0.03,0.071 -0.053,0.013 -0.053,-0.13 z m -33.408,-0.035 c 0.002,-0.172 0.025,-0.23 0.051,-0.128 a 0.587,0.587 0 0 1 -0.004,0.312 c -0.029,0.07 -0.05,-0.012 -0.048,-0.184 z m 17.449,-0.584 c 0,-0.344 0.02,-0.472 0.043,-0.285 a 2.76,2.76 0 0 1 -10e-4,0.625 c -0.024,0.157 -0.043,0.004 -0.042,-0.34 z m -1.26,-0.62 c 0.002,-0.23 0.023,-0.31 0.048,-0.181 0.025,0.129 0.024,0.316 -0.002,0.416 -0.026,0.1 -0.047,-0.006 -0.045,-0.235 z m 17.219,-0.115 c 0,-0.143 0.024,-0.202 0.053,-0.13 a 0.402,0.402 0 0 1 0,0.26 c -0.03,0.072 -0.053,0.013 -0.053,-0.13 z m -33.408,-0.868 c 0.002,-0.171 0.025,-0.23 0.051,-0.128 a 0.587,0.587 0 0 1 -0.004,0.312 c -0.029,0.071 -0.05,-0.012 -0.048,-0.184 z m 16.276,0.037 c 0.004,-0.122 0.03,-0.147 0.063,-0.064 0.03,0.076 0.026,0.165 -0.009,0.2 -0.035,0.035 -0.06,-0.027 -0.055,-0.136 z m -20.352,-2.573 c 0,-0.143 0.023,-0.202 0.052,-0.13 a 0.4,0.4 0 0 1 0,0.26 c -0.029,0.072 -0.052,0.013 -0.052,-0.13 z m 40.307,-0.407 c 0.002,-0.172 0.026,-0.23 0.052,-0.128 a 0.587,0.587 0 0 1 -0.005,0.312 c -0.028,0.07 -0.05,-0.012 -0.048,-0.184 z m -17.144,-0.341 c 0,-0.022 0.082,-0.104 0.183,-0.183 0.165,-0.13 0.169,-0.127 0.039,0.04 -0.136,0.173 -0.222,0.228 -0.222,0.143 z m 12,-0.812 -0.254,-0.285 0.288,0.251 c 0.157,0.139 0.287,0.267 0.287,0.286 0,0.081 -0.085,0.015 -0.321,-0.252 z m -12.261,-0.814 c 0.224,-0.23 0.431,-0.418 0.46,-0.418 0.029,0 -0.131,0.188 -0.356,0.418 -0.224,0.23 -0.431,0.418 -0.46,0.418 -0.028,0 0.132,-0.188 0.356,-0.418 z m 17.405,-0.115 c 0.002,-0.172 0.026,-0.23 0.052,-0.129 a 0.587,0.587 0 0 1 -0.005,0.313 c -0.028,0.07 -0.05,-0.013 -0.048,-0.184 z m -40.307,-0.114 c 0,-0.143 0.023,-0.202 0.052,-0.13 a 0.4,0.4 0 0 1 0,0.26 c -0.029,0.072 -0.052,0.013 -0.052,-0.13 z m 4.055,-0.073 c 0,-0.09 0.048,-0.133 0.106,-0.097 0.059,0.036 0.08,0.109 0.046,0.162 -0.09,0.145 -0.152,0.118 -0.152,-0.065 z m 32.18,-0.215 c 0.002,-0.172 0.025,-0.23 0.052,-0.128 a 0.587,0.587 0 0 1 -0.005,0.312 c -0.028,0.07 -0.05,-0.012 -0.048,-0.184 z m -0.709,-0.076 -0.199,-0.233 0.235,0.197 c 0.13,0.109 0.235,0.214 0.235,0.234 0,0.083 -0.084,0.022 -0.271,-0.198 z m -31.543,-1.264 c 0,-0.344 0.02,-0.472 0.044,-0.285 a 2.77,2.77 0 0 1 -0.002,0.625 c -0.023,0.156 -0.042,0.004 -0.042,-0.34 z m 24.485,0.412 c 0.076,-0.03 0.166,-0.027 0.2,0.007 0.035,0.035 -0.027,0.06 -0.137,0.055 -0.121,-0.004 -0.146,-0.029 -0.063,-0.062 z m 1.984,-0.007 c 0.076,-0.03 0.166,-0.027 0.2,0.007 0.035,0.035 -0.027,0.06 -0.137,0.055 -0.121,-0.004 -0.146,-0.029 -0.063,-0.062 z m 0.94,-1.149 c 0.075,-0.03 0.165,-0.027 0.2,0.007 0.035,0.035 -0.027,0.06 -0.137,0.055 -0.122,-0.005 -0.146,-0.029 -0.063,-0.062 z m -0.626,-0.102 c 0.075,-0.03 0.165,-0.027 0.2,0.007 0.034,0.035 -0.028,0.06 -0.138,0.056 -0.121,-0.004 -0.146,-0.03 -0.063,-0.063 z m -1.795,-0.108 c -0.028,-0.046 0.122,-0.067 0.333,-0.048 0.646,0.059 0.722,0.101 0.208,0.116 -0.27,0.008 -0.513,-0.023 -0.54,-0.068 z m 7.264,-0.725 c 0.002,-0.172 0.025,-0.23 0.052,-0.129 a 0.587,0.587 0 0 1 -0.005,0.313 c -0.028,0.07 -0.05,-0.013 -0.048,-0.184 z m -32.16,0.013 c 0.003,-0.172 0.026,-0.23 0.052,-0.129 a 0.587,0.587 0 0 1 -0.004,0.313 c -0.029,0.07 -0.05,-0.013 -0.048,-0.184 z m 2.956,-0.792 c 0.341,-0.345 0.643,-0.627 0.672,-0.627 0.029,0 -0.227,0.282 -0.568,0.626 -0.34,0.345 -0.643,0.628 -0.672,0.628 -0.028,0 0.227,-0.282 0.568,-0.627 z m 20.566,-0.101 -0.623,-0.649 0.653,0.62 c 0.606,0.575 0.7,0.677 0.623,0.677 -0.016,0 -0.31,-0.291 -0.653,-0.648 z m 8.521,0.038 c 0.005,-0.121 0.03,-0.146 0.063,-0.063 0.03,0.075 0.027,0.165 -0.008,0.2 -0.035,0.034 -0.06,-0.027 -0.055,-0.137 z m -31.95,0.013 c 0.004,-0.122 0.03,-0.147 0.063,-0.064 0.03,0.076 0.026,0.165 -0.009,0.2 -0.035,0.035 -0.06,-0.027 -0.055,-0.136 z m 31.846,-0.637 c 0.004,-0.121 0.03,-0.146 0.063,-0.063 0.03,0.075 0.026,0.165 -0.009,0.2 -0.035,0.034 -0.06,-0.027 -0.055,-0.137 z m -27.991,-0.19 c 0,-0.02 0.082,-0.103 0.183,-0.182 0.165,-0.13 0.17,-0.126 0.04,0.04 -0.137,0.173 -0.223,0.229 -0.223,0.143 z m 18.468,-0.21 c -0.13,-0.164 -0.126,-0.168 0.04,-0.039 0.1,0.078 0.182,0.16 0.182,0.182 0,0.085 -0.086,0.03 -0.222,-0.142 z m -22.114,-0.005 c 0.004,-0.122 0.03,-0.146 0.063,-0.063 0.03,0.075 0.026,0.165 -0.01,0.2 -0.034,0.034 -0.058,-0.027 -0.054,-0.137 z m 11.242,-1.82 a 0.396,0.396 0 0 1 0.261,0 c 0.072,0.028 0.013,0.052 -0.13,0.053 -0.144,0 -0.203,-0.023 -0.13,-0.052 z m 3.237,-0.011 c 0.072,-0.03 0.19,-0.03 0.26,-10e-4 0.073,0.028 0.014,0.052 -0.13,0.053 -0.143,0 -0.202,-0.023 -0.13,-0.052 z m -1.877,-0.105 c 0.246,-0.023 0.622,-0.024 0.835,-0.002 0.214,0.022 0.014,0.04 -0.446,0.041 -0.46,0.001 -0.634,-0.016 -0.389,-0.039 z m -2.293,-1.028 c 0.075,-0.03 0.165,-0.027 0.2,0.007 0.035,0.035 -0.027,0.06 -0.137,0.055 -0.122,-0.004 -0.147,-0.029 -0.063,-0.062 z m 5.22,-0.019 c 0.076,-0.03 0.166,-0.027 0.2,0.007 0.035,0.035 -0.026,0.06 -0.137,0.055 -0.121,-0.004 -0.146,-0.029 -0.063,-0.062 z m -4.49,-0.088 c 0.076,-0.03 0.166,-0.027 0.2,0.007 0.035,0.035 -0.026,0.06 -0.136,0.056 -0.122,-0.004 -0.147,-0.03 -0.064,-0.063 z m 3.649,-0.01 a 0.4,0.4 0 0 1 0.26,-0.002 c 0.072,0.029 0.014,0.053 -0.13,0.053 -0.143,0 -0.202,-0.023 -0.13,-0.052 z m -2.241,-0.105 c 0.332,-0.022 0.849,-0.023 1.148,-0.004 0.3,0.02 0.028,0.038 -0.604,0.04 -0.632,0.002 -0.877,-0.014 -0.544,-0.036 z m 16.036,-3.287 c -0.13,-0.165 -0.126,-0.169 0.04,-0.04 0.173,0.136 0.229,0.221 0.143,0.222 -0.023,0 -0.104,-0.082 -0.183,-0.182 z m -27.813,-0.445 c 0.104,-0.115 0.213,-0.21 0.241,-0.21 0.029,0 -0.033,0.094 -0.136,0.21 -0.104,0.114 -0.213,0.208 -0.242,0.208 -0.028,0 0.033,-0.093 0.137,-0.208 z m 2.663,0.159 c 0,-0.023 0.082,-0.104 0.182,-0.183 0.166,-0.13 0.17,-0.126 0.04,0.04 -0.137,0.173 -0.222,0.229 -0.222,0.143 z m 24.684,-0.285 -0.2,-0.234 0.236,0.198 c 0.129,0.108 0.235,0.214 0.235,0.233 0,0.084 -0.085,0.023 -0.271,-0.197 z m 2.664,-0.166 -0.253,-0.285 0.287,0.251 c 0.158,0.138 0.287,0.267 0.287,0.285 0,0.082 -0.084,0.016 -0.32,-0.25 z m -26.356,-0.659 c 0.104,-0.115 0.212,-0.209 0.24,-0.209 0.03,0 -0.032,0.094 -0.136,0.209 -0.104,0.115 -0.212,0.209 -0.241,0.209 -0.029,0 0.033,-0.094 0.137,-0.209 z m 24.999,-0.69 -0.253,-0.285 0.287,0.251 c 0.158,0.139 0.287,0.267 0.287,0.286 0,0.081 -0.085,0.015 -0.321,-0.251 z m -26.983,-0.031 c 0.104,-0.115 0.212,-0.21 0.241,-0.21 0.029,0 -0.033,0.094 -0.137,0.21 -0.104,0.114 -0.212,0.208 -0.24,0.208 -0.03,0 0.032,-0.093 0.136,-0.208 z m 23.9,-0.218 -0.198,-0.233 0.235,0.197 c 0.22,0.186 0.282,0.27 0.198,0.27 -0.02,0 -0.125,-0.105 -0.234,-0.233 z m -21.029,0.168 c 0,-0.023 0.082,-0.104 0.183,-0.183 0.165,-0.13 0.17,-0.126 0.04,0.04 -0.137,0.173 -0.223,0.229 -0.223,0.143 z m 8.02,-3.81 c 0.076,-0.03 0.166,-0.027 0.2,0.007 0.035,0.035 -0.027,0.06 -0.137,0.056 -0.121,-0.004 -0.146,-0.03 -0.063,-0.063 z m 5.012,-0.018 c 0.076,-0.03 0.166,-0.027 0.2,0.007 0.035,0.035 -0.027,0.06 -0.137,0.056 -0.122,-0.004 -0.146,-0.03 -0.063,-0.063 z m -4.287,-0.086 a 0.393,0.393 0 0 1 0.26,0 c 0.073,0.028 0.014,0.052 -0.13,0.052 -0.143,0 -0.202,-0.023 -0.13,-0.052 z m 3.445,-0.013 c 0.072,-0.03 0.19,-0.03 0.261,-10e-4 0.072,0.028 0.014,0.052 -0.13,0.053 -0.144,0 -0.202,-0.023 -0.13,-0.052 z m -1.98,-0.105 c 0.245,-0.022 0.62,-0.023 0.835,-0.002 0.214,0.023 0.013,0.04 -0.447,0.042 -0.46,0.001 -0.634,-0.016 -0.389,-0.04 z m -1.563,-1.134 c 0.075,-0.03 0.165,-0.027 0.2,0.007 0.035,0.035 -0.027,0.06 -0.137,0.055 -0.122,-0.004 -0.147,-0.029 -0.063,-0.062 z m 3.759,-0.013 c 0.075,-0.03 0.165,-0.027 0.2,0.007 0.034,0.034 -0.027,0.059 -0.137,0.055 -0.122,-0.004 -0.147,-0.03 -0.063,-0.063 z m -2.041,-0.1 c 0.158,-0.025 0.393,-0.025 0.522,-10e-4 0.128,0.024 -0.002,0.044 -0.289,0.044 -0.287,0 -0.392,-0.02 -0.233,-0.044 z"
           transform="matrix(2.13565,0,0,2.13565,-27.493,309.445)"
           id="path30" />
        <path
           style="fill:#010202;stroke-width:5.30215"
           d="m 60.31,-88.615 -1.346,-0.151 c -2.566,-0.29 -5.999,-1.46 -8.05,-2.747 -1.239,-0.777 -3.208,-2.476 -4.356,-3.759 -6.115,-6.834 -6.821,-16.937 -1.714,-24.526 2.037,-3.026 4.814,-5.456 7.99,-6.992 1.5,-0.725 3.926,-1.561 5.414,-1.866 1.592,-0.326 4.903,-0.36 6.5,-0.066 2.145,0.394 5.118,1.49 6.97,2.572 4.625,2.698 8.019,7.102 9.374,12.16 0.49,1.832 0.65,3.114 0.65,5.21 0,2.096 -0.16,3.38 -0.65,5.214 -2.045,7.649 -8.625,13.55 -16.427,14.73 -1.08,0.164 -3.687,0.296 -4.354,0.221 z m 0.94,-2.084 c 2.269,-0.44 4.693,-1.634 6.305,-3.105 l 0.614,-0.56 -0.614,-0.247 c -2.787,-1.12 -4.816,-3.426 -5.578,-6.34 -0.21,-0.807 -0.291,-2.194 -0.187,-3.227 0.366,-3.624 2.885,-6.694 6.43,-7.84 0.417,-0.135 0.757,-0.276 0.757,-0.313 0,-0.139 -1.846,-1.83 -2.506,-2.296 -1.476,-1.043 -3.426,-1.857 -5.3,-2.215 -1.117,-0.212 -3.41,-0.228 -4.514,-0.03 -4.935,0.882 -9.027,4.43 -10.534,9.134 -0.51,1.597 -0.67,2.795 -0.603,4.556 0.127,3.352 1.411,6.33 3.758,8.715 2.177,2.212 4.958,3.565 8.093,3.937 0.977,0.117 2.824,0.036 3.879,-0.169 z m 11.652,-4.773 c 2.694,-0.689 4.77,-2.632 5.694,-5.332 0.312,-0.91 0.34,-1.097 0.345,-2.343 0.007,-1.534 -0.138,-2.232 -0.72,-3.46 -0.471,-0.99 -0.897,-1.593 -1.643,-2.323 -0.808,-0.79 -1.97,-1.497 -3.09,-1.88 -1.266,-0.433 -2.985,-0.502 -4.339,-0.174 -2.392,0.58 -4.486,2.318 -5.51,4.574 -0.465,1.024 -0.646,1.925 -0.646,3.217 0,2.261 0.759,4.083 2.351,5.643 1.116,1.094 2.208,1.715 3.685,2.097 1.034,0.267 2.787,0.259 3.873,-0.019 z m 4.816,-16.612 c -0.036,-1.3 -0.116,-2.262 -0.23,-2.772 -0.477,-2.116 -1.322,-4.115 -2.465,-5.828 -0.907,-1.36 -3.04,-3.468 -4.432,-4.381 -5.54,-3.634 -12.505,-3.603 -17.96,0.08 a 16.364,16.364 0 0 0 -6.842,10.05 c -0.271,1.24 -0.43,3.293 -0.332,4.303 l 0.08,0.827 0.558,-0.982 c 2.214,-3.886 5.974,-6.532 10.34,-7.275 1.423,-0.242 4.216,-0.18 5.547,0.124 1.785,0.408 3.765,1.28 5.22,2.298 0.892,0.624 2.553,2.182 2.98,2.794 l 0.285,0.41 h 0.743 c 1.84,-0.003 4.076,0.808 5.598,2.032 0.64,0.515 0.8,0.601 0.874,0.471 0.05,-0.087 0.066,-1.055 0.036,-2.15 z"
           transform="matrix(2.13565,0,0,2.13565,-27.493,309.445)"
           id="path32" />
      </g>
    </g>
  </g>
</svg>
