<?xml version="1.0" encoding="UTF-8" standalone="no"?>
<svg
   width="300mm"
   height="300mm"
   viewBox="0 0 299.99999 300"
   version="1.1"
   id="svg8"
   sodipodi:docname="rede.svg"
   inkscape:version="1.1.1 (3bf5ae0d25, 2021-09-20)"
   xmlns:inkscape="http://www.inkscape.org/namespaces/inkscape"
   xmlns:sodipodi="http://sodipodi.sourceforge.net/DTD/sodipodi-0.dtd"
   xmlns="http://www.w3.org/2000/svg"
   xmlns:svg="http://www.w3.org/2000/svg">
  <defs
     id="defs12" />
  <sodipodi:namedview
     id="namedview10"
     pagecolor="#ffffff"
     bordercolor="#666666"
     borderopacity="1.0"
     inkscape:pageshadow="2"
     inkscape:pageopacity="0.0"
     inkscape:pagecheckerboard="0"
     inkscape:document-units="mm"
     showgrid="false"
     inkscape:zoom="0.40537946"
     inkscape:cx="-111.0071"
     inkscape:cy="613.00589"
     inkscape:window-width="2560"
     inkscape:window-height="1017"
     inkscape:window-x="-8"
     inkscape:window-y="-8"
     inkscape:window-maximized="1"
     inkscape:current-layer="svg8" />
  <rect
     style="fill:#f9f9f9;stroke-width:0.15875;paint-order:markers stroke fill"
     id="rect931"
     width="300"
     height="300"
     x="0"
     y="1.110223e-16" />
  <path
     style="fill:#fd9941;stroke-width:1"
     d="m 45.836311,185.86583 c -0.934,-0.123 -1.544,-0.36 -1.788,-0.692 -0.31,-0.425 -0.359,-3.87 -0.302,-21.554 l 0.068,-21.048 h 10.848 l 0.132,1.898 c 0.073,1.043 0.199,1.962 0.28,2.042 0.08,0.08 0.723,-0.331 1.428,-0.914 1.824,-1.507 4.792,-2.853 7.627,-3.46 2.027,-0.433 3.475,-0.522 8.572,-0.523 4.42,-0.002 6.2,-0.09 6.37,-0.316 0.13,-0.173 0.443,-1.08 0.695,-2.017 1.925,-7.156 7.343,-12.53 14.8,-14.683 3.424,-0.988 6.569999,-1.3 11.292999,-1.118 6.489,0.25 9.376,1.212 12.571,4.19 2.838,2.646 4.098,5.953 4.098,10.757 0,6.783 -2.67,11.023 -8.26,13.12 -3.181,1.192 -5.972,1.475 -14.541999,1.475 -8.95,0 -8.662,-0.085 -7.086,2.09 0.99,1.367 2.75,2.511 5.016,3.261 1.641,0.543 2.29,0.574 14.245999,0.674 6.89,0.058 12.798,0.038 13.129,-0.045 0.516,-0.13 0.628,-0.382 0.785,-1.778 0.787,-6.95 6.35,-12.558 14.702,-14.82 2.085,-0.565 2.924,-0.62 11.51,-0.75 l 9.26,-0.14 0.132,-13.76 0.133,-13.758 h 11.641 l 0.133,13.759 0.132,13.758 6.2,0.071 c 3.41,0.04 6.298,-0.027 6.419,-0.148 0.12,-0.121 0.459,-1.084 0.751,-2.14 1.108,-3.998 3.846,-8.143 7.177,-10.864 2.166,-1.77 5.813,-3.546 8.822,-4.297 2.112,-0.526 3.04,-0.592 8.202,-0.586 4.576,0.006 6.21,0.104 7.646,0.458 5.613,1.387 9.38,5.068 10.633,10.392 0.586,2.49 0.386,7.27 -0.396,9.474 -1.727,4.868 -5.304,7.595 -11.33,8.64 -2.345,0.406 -4.265,0.494 -10.853,0.501 -4.402,0.005 -8.003,0.073 -8.003,0.151 0,0.079 0.23,0.596 0.513,1.15 0.942,1.845 3.04,3.305 6.027,4.19 1.381,0.41 3.931,0.468 26.268,0.595 l 24.739,0.14 v 11.113 l -24.078,0.077 c -16.527,0.053 -24.724,-0.015 -26.14,-0.215 -5.811,-0.822 -10.093,-2.737 -13.504,-6.04 -2.834,-2.744 -5.218,-6.648 -5.785,-9.473 -0.2,-0.993 -0.448,-1.52 -0.775,-1.64 -0.38,-0.141 -10.559,-0.203 -11.773,-0.072 -0.208,0.023 -0.34,1.797 -0.435,5.787 -0.155,6.615 -0.39,7.845 -2.237,11.708 -1.002,2.095 -1.56,2.87 -3.35,4.653 -2.499,2.491 -4.635,3.77 -7.846,4.699 -7.505,2.169 -20.219,1.328 -26.306,-1.74 -1.969,-0.992 -5.356,-4.306 -6.294,-6.157 l -0.67,-1.323 -13.06,-0.022 c -16.473999,-0.03 -18.379999,-0.285 -24.163999,-3.244 -4.947,-2.53 -9.546,-8.414 -10.322,-13.205 -0.148,-0.914 -0.309,-1.157 -0.857,-1.295 -0.372,-0.093 -3.189,-0.104 -6.26,-0.024 -6.412,0.166 -8.596,0.548 -11.354,1.984 -2.833,1.475 -4.264,3.427 -5.253,7.163 -0.48,1.815 -0.552,3.113 -0.682,12.31 -0.18,12.688 0.237,11.626 -4.601,11.71 -1.801,0.031 -3.913,-0.027 -4.693,-0.13 z m 110.887999,-16.965 c 1.787,-0.669 3.484,-2.372 4.175,-4.19 0.455,-1.197 0.522,-2.037 0.522,-6.503 0,-3.864 -0.081,-5.157 -0.33,-5.244 -0.182,-0.064 -4.141,-0.09 -8.798,-0.058 -8.049,0.055 -8.545,0.087 -10.054,0.651 -3.29,1.231 -5.002,3.988 -5.009,8.065 -0.006,3.718 1.595,6.076 4.83,7.115 1.848,0.593 2.12,0.616 7.908,0.655 4.747,0.032 5.506,-0.024 6.756,-0.491 z m -48.598,-27.552 c 2.236,-0.563 3.104,-2.582 2.03,-4.73 -0.849,-1.7 -1.638,-1.895 -7.209,-1.78 -5.435999,0.113 -6.808999,0.436 -9.069999,2.133 -1.202,0.903 -2.748,3.568 -2.478,4.272 0.134,0.347 1.208,0.402 7.851,0.402 4.812999,0 8.137999,-0.11 8.875999,-0.297 z m 107.69,-0.243 c 2.716,-1.315 2.566,-4.866 -0.25,-5.941 -1.021,-0.39 -1.889,-0.44 -5.91,-0.34 -4.11,0.104 -4.911,0.196 -6.275,0.726 -1.837,0.715 -3.49,2.251 -4.364,4.057 -1.028,2.125 -1.355,2.038 7.688,2.038 7.511,0 8.062,-0.032 9.111,-0.54 z"
     id="path4" />
  <path
     style="fill:#fd7700;stroke-width:1"
     d="m 45.357104,185.41136 c -1.236,-0.304 -1.191,0.508 -1.191,-21.537 v -20.87 h 10.054 v 1.698 c 0,2.957 0.329,3.136 2.502,1.366 3.82,-3.112 9.776,-4.406 18.34,-3.987 2.679,0.131 3.88,0.098 4.138,-0.116 0.2,-0.165 0.8,-1.653 1.334,-3.306 3.507,-10.851 13.495,-15.964 28.189996,-14.434 4.325,0.45 7.107,1.607 9.521,3.959 2.448,2.384 3.698,5.898 3.705,10.417 0.01,7.218 -3.175,11.369 -10.118,13.184 -1.992,0.521 -2.972,0.578 -11.292,0.654 -8.903996,0.081 -9.526996,0.14 -9.535996,0.884 -0.001,0.073 0.357,0.758 0.796,1.524 1.45,2.53 4.354,4.096 8.457996,4.565 2.44,0.279 23.713,0.305 24.992,0.03 0.747,-0.16 0.796,-0.258 1.096,-2.196 0.402,-2.6 0.977,-4.313 1.99,-5.935 1.87,-2.99 5.66,-6.029 9.158,-7.342 4.103,-1.54 4.291,-1.562 14.357,-1.688 5.907,-0.073 9.516,-0.218 9.724,-0.39 0.257,-0.213 0.33,-3.315 0.33,-13.868 v -13.594 h 10.849 v 13.573 c 0,10.205 0.08,13.652 0.318,13.891 0.468,0.468 13.001,0.45 13.39,-0.019 0.154,-0.185 0.524,-1.216 0.822,-2.291 1.082,-3.904 3.014,-7.033 6.118,-9.907 4.609,-4.267 10.695,-6.015 19.57,-5.62 4.27,0.19 5.515,0.387 7.766,1.23 3.69,1.38 6.32,4.088 7.614,7.834 0.534,1.546 0.626,2.324 0.626,5.254 0,2.878 -0.1,3.742 -0.609,5.292 -1.275,3.875 -3.858,6.352 -7.986,7.656 -3.164,1 -6.003,1.238 -14.182,1.19 -4.11,-0.023 -7.601,0.038 -7.76,0.136 -0.481,0.298 -0.324,1.041 0.493,2.33 1.537,2.423 4.517,3.981 8.48,4.434 1.286,0.147 12.14,0.258 25.335,0.26 l 23.085,0.001 v 10.343 l -25.334,-0.093 c -24.876,-0.092 -25.37,-0.104 -27.318,-0.656 -2.708,-0.766 -3.86,-1.195 -5.705,-2.127 -4.893,-2.47 -8.88,-7.319 -10.172,-12.368 -0.293,-1.145 -0.68,-2.176 -0.86,-2.29 -0.5,-0.318 -12.048,-0.266 -12.65,0.057 -0.477,0.255 -0.512,0.602 -0.515,5.225 -0.004,5.64 -0.43,8.391 -1.816,11.703 -1.997,4.772 -6.147,8.45 -11.16,9.89 -7.387,2.122 -19.836,1.341 -25.877,-1.622 -2.405,-1.18 -4.906,-3.568 -6.118,-5.843 -0.48,-0.9 -1.004,-1.658 -1.166,-1.684 -0.162,-0.027 -5.89,-0.063 -12.73,-0.08 -8.057,-0.02 -13.32,-0.145 -14.947996,-0.355 -6.898,-0.886 -12.152,-3.53 -15.525,-7.812 -1.73,-2.195 -3.667,-6.096 -3.932,-7.918 -0.13,-0.883 -0.349,-1.352 -0.73,-1.556 -0.82,-0.438 -12.24,-0.103 -14.575,0.428 -3.982,0.906 -6.847,2.957 -8.383,6 -1.44,2.853 -1.593,4.177 -1.732,15.046 -0.07,5.457 -0.18,10.177 -0.245,10.49 -0.072,0.346 -0.447,0.684 -0.954,0.86 -0.812,0.284 -6.973,0.36 -8.031,0.1 z m 112.182996,-16.255 c 1.577,-0.84 2.759,-2.039 3.61,-3.662 0.59,-1.127 0.628,-1.5 0.708,-6.926 0.083,-5.661 0.077,-5.74 -0.492,-6.044 -0.416,-0.223 -2.926,-0.278 -9.08,-0.198 -9.446,0.123 -10.025,0.214 -12.406,1.942 -3.596,2.61 -4.448,9.042 -1.678,12.674 0.342,0.448 1.213,1.137 1.937,1.53 2.465,1.342 3.629,1.508 10.125,1.445 5.886,-0.057 5.968,-0.065 7.276,-0.761 z m -48.419,-27.514 c 1.92,-1.054 2.463,-2.901 1.495,-5.09 -0.45,-1.02 -0.77,-1.339 -1.778,-1.785 -1.13,-0.5 -1.62,-0.534 -6.03,-0.43 -5.319996,0.125 -6.683996,0.436 -9.053996,2.067 -2.04,1.404 -3.57,4.432 -2.742,5.429 0.298,0.358 1.416,0.4 8.828,0.328 7.278996,-0.071 8.599996,-0.145 9.279996,-0.519 z m 107.186,-0.11 c 1.885,-1.407 2.462,-3.544 1.382,-5.118 -1.352,-1.97 -1.5,-2.01 -7.452,-2.003 -4.985,0.006 -5.441,0.047 -6.904,0.631 -0.861,0.344 -2.095,1.113 -2.741,1.709 -2.016,1.858 -3.365,4.867 -2.373,5.293 0.182,0.078 4.162,0.118 8.844,0.088 8.142,-0.051 8.546,-0.078 9.244,-0.6 z"
     id="path6" />
</svg>
