<?xml version="1.0" encoding="UTF-8" standalone="no"?>
<svg
   width="700"
   height="700"
   viewBox="0 0 185.20848 185.20793"
   version="1.1"
   id="svg22"
   sodipodi:docname="tecban.svg"
   inkscape:version="1.1.1 (3bf5ae0d25, 2021-09-20)"
   xmlns:inkscape="http://www.inkscape.org/namespaces/inkscape"
   xmlns:sodipodi="http://sodipodi.sourceforge.net/DTD/sodipodi-0.dtd"
   xmlns="http://www.w3.org/2000/svg"
   xmlns:svg="http://www.w3.org/2000/svg">
  <defs
     id="defs26" />
  <sodipodi:namedview
     id="namedview24"
     pagecolor="#ffffff"
     bordercolor="#666666"
     borderopacity="1.0"
     inkscape:pageshadow="2"
     inkscape:pageopacity="0.0"
     inkscape:pagecheckerboard="0"
     showgrid="false"
     inkscape:zoom="0.58666104"
     inkscape:cx="-180.68355"
     inkscape:cy="462.78853"
     inkscape:window-width="2560"
     inkscape:window-height="1017"
     inkscape:window-x="-8"
     inkscape:window-y="-8"
     inkscape:window-maximized="1"
     inkscape:current-layer="svg22" />
  <path
     style="fill:#f9f9f9;stroke-width:0.15875;paint-order:markers stroke fill"
     d="M 0,-2.7363759e-4 H 185.20848 V 185.2082 H 0 Z"
     id="path2" />
  <g
     id="g852"
     transform="translate(2.22424,-8.3471962)">
    <path
       style="fill:#9d9e9f;stroke-width:0.999999"
       d="m 60.087,166.17771 c -3.088,-0.406 -5.486,-1.975 -6.653,-4.352 -0.572,-1.164 -0.617,-1.45 -0.617,-3.9 0,-2.343 0.06,-2.766 0.527,-3.714 1.173,-2.384 3.36,-3.7 6.889,-4.144 6.413,-0.808 9.896,1.878 10.26,7.913 l 0.124,2.038 h -5.21 c -3.54,0 -5.21,0.075 -5.21,0.234 0,0.557 0.54,1.154 1.395,1.542 1.53,0.695 5.22,0.521 7.473,-0.352 0.35,-0.136 0.385,0.04 0.385,1.949 v 2.098 l -1.156,0.249 c -1.342,0.288 -4.99,0.667 -6.114,0.635 -0.424,-0.012 -1.366,-0.1 -2.093,-0.196 z m 3.855,-10.132 c 0,-0.723 -0.587,-1.921 -1.068,-2.178 -1.161,-0.622 -2.407,0.185 -2.61,1.69 l -0.125,0.936 h 1.902 c 1.765,0 1.901,-0.033 1.901,-0.448 z m 15.252,10.109 c -2.328,-0.334 -3.76,-0.998 -5.154,-2.393 -1.064,-1.063 -1.324,-1.491 -1.738,-2.852 -0.632,-2.082 -0.534,-5.069 0.218,-6.658 0.938,-1.98 2.706,-3.297 5.302,-3.952 1.522,-0.384 6.263,-0.386 7.986,-0.004 l 1.267,0.28 v 2.298 c 0,1.264 -0.059,2.298 -0.131,2.298 -0.072,0 -0.685,-0.16 -1.36,-0.357 -1.429,-0.416 -3.317,-0.304 -4.154,0.245 -0.902,0.59 -1.403,1.637 -1.404,2.932 -0.002,2.859 2.277,4.366 5.258,3.477 a 110.96,110.96 0 0 0 1.626,-0.495 c 0.35,-0.114 0.385,0.085 0.385,2.205 v 2.33 l -0.936,0.257 c -2.14,0.586 -4.79,0.73 -7.165,0.39 z m 36.191,0.037 c -1.315,-0.281 -1.931,-0.558 -2.719,-1.221 -1.068,-0.899 -1.419,-1.752 -1.408,-3.425 0.014,-2.315 1.046,-3.882 3.175,-4.824 1.354,-0.599 4.081,-0.94 6.074,-0.76 1.69,0.151 1.834,0.064 1.36,-0.823 -0.761,-1.422 -4.835,-1.44 -8.49,-0.037 -0.247,0.095 -0.305,-0.304 -0.305,-2.1 v -2.216 l 0.826,-0.236 c 1.825,-0.523 5.479,-0.755 7.818,-0.498 2.812,0.309 3.604,0.54 4.938,1.435 1.178,0.792 1.944,1.801 2.277,2.998 0.121,0.438 0.222,3.201 0.222,6.14 l 0.001,5.342 h -7.05 v -2.034 l -0.876,0.792 c -0.482,0.435 -1.226,0.937 -1.653,1.116 -1.003,0.42 -3.067,0.592 -4.19,0.351 z m 5.848,-4.576 c 0.494,-0.441 0.714,-0.87 0.808,-1.575 l 0.13,-0.97 -1.513,0.122 c -1.283,0.103 -1.59,0.21 -2.016,0.706 -0.62,0.72 -0.639,1.306 -0.062,1.882 0.652,0.652 1.82,0.58 2.654,-0.165 z m -82.626,-3.03 v -7.38 h -7.05 v -6.169 h 22.251 v 6.169 h -7.05 v 14.761 h -8.151 z m 50.671,-3.07 v -10.479 h 7.37 c 7.374,0 8.963,0.126 10.365,0.823 2.499,1.241 3.41,4.306 2.066,6.941 -0.487,0.956 -1.88,2.05 -2.892,2.273 l -0.69,0.151 1.046,0.398 c 2.38,0.903 3.448,2.409 3.44,4.85 -0.006,1.76 -0.521,2.965 -1.674,3.919 -1.639,1.354 -2.202,1.432 -11.044,1.523 l -7.987,0.081 z m 11.36,5.722 c 1.367,-0.57 1.687,-2.225 0.624,-3.224 -0.441,-0.415 -0.843,-0.514 -2.401,-0.596 l -1.872,-0.098 v 4.24 h 1.44 c 0.79,0 1.785,-0.144 2.21,-0.321 z m -0.036,-8.576 c 0.496,-0.207 0.814,-0.538 0.982,-1.02 0.537,-1.54 -0.801,-2.638 -3.218,-2.639 h -1.377 v 3.966 h 1.44 c 0.79,0 1.769,-0.138 2.173,-0.307 z m 30.756,5.484 v -7.821 h 7.05 v 2.528 l 0.567,-0.797 c 0.312,-0.44 1.08,-1.08 1.708,-1.426 1,-0.552 1.367,-0.629 3.012,-0.63 3.161,-0.002 4.78,1.171 5.284,3.83 0.123,0.65 0.224,3.646 0.224,6.66 v 5.477 h -7.711 v -5.018 c 0,-5.675 -0.095,-6.082 -1.393,-5.955 -1.147,0.112 -1.244,0.583 -1.248,6.071 l -0.003,4.902 h -7.49 z"
       id="path4" />
    <path
       style="fill:#e15b60;stroke-width:0.999999"
       d="m 59.205,165.88671 c -2.78,-0.604 -4.876,-2.244 -5.747,-4.498 -0.647,-1.672 -0.715,-4.92 -0.138,-6.572 0.796,-2.28 3.04,-3.97 5.996,-4.516 1.995,-0.368 5.721,-0.154 6.967,0.402 2.775,1.236 4.325,4.245 4.372,8.49 l 0.007,0.605 h -5.164 c -2.84,0 -5.213,0.079 -5.272,0.174 -0.26,0.42 0.595,1.555 1.467,1.947 1.453,0.655 5.27,0.507 7.33,-0.284 0.26,-0.1 0.317,0.215 0.317,1.762 0,1.062 -0.1,1.945 -0.228,2.024 -0.126,0.078 -1.092,0.282 -2.148,0.453 -2.293,0.372 -6.076,0.378 -7.758,0.013 z m 4.848,-9.955 c 0,-0.91 -0.49,-1.97 -1.002,-2.166 -1.215,-0.466 -2.39,0.116 -2.734,1.357 -0.444,1.6 -0.455,1.59 1.753,1.59 h 1.983 z m 14.98,10.117 c -2.143,-0.411 -3.442,-1.063 -4.774,-2.394 -1.103,-1.102 -1.434,-1.605 -1.751,-2.663 -0.466,-1.551 -0.524,-4.406 -0.12,-5.82 0.67,-2.345 2.719,-4.08 5.587,-4.732 1.731,-0.393 5.596,-0.44 7.595,-0.093 l 1.395,0.243 v 4.53 l -0.936,-0.324 c -1.386,-0.48 -3.826,-0.312 -4.72,0.325 -2.008,1.429 -1.656,5.144 0.593,6.274 1.044,0.525 3.136,0.501 4.347,-0.049 l 0.936,-0.425 v 4.552 l -0.936,0.263 c -0.966,0.271 -6.239,0.5 -7.215,0.313 z m 35.873,-0.077 c -1.118,-0.338 -2.284,-1.133 -2.83,-1.93 -0.463,-0.677 -0.546,-1.052 -0.546,-2.466 0,-1.426 0.088,-1.818 0.611,-2.708 1.181,-2.009 3.71,-2.91 7.799,-2.781 1.372,0.044 2.495,0.009 2.495,-0.077 0,-0.476 -0.566,-1.259 -1.175,-1.628 -1.106,-0.669 -4.388,-0.58 -6.488,0.174 l -1.605,0.577 0.062,-2.129 0.063,-2.128 1.102,-0.296 c 1.577,-0.424 6.995,-0.588 8.842,-0.267 2.771,0.48 4.547,1.61 5.39,3.427 0.364,0.784 0.41,1.495 0.414,6.444 l 0.005,5.563 h -6.83 v -2.035 l -0.906,0.906 c -0.598,0.598 -1.286,1.019 -2.023,1.238 -1.186,0.352 -3.402,0.41 -4.38,0.116 z m 6.691,-4.394 c 0.665,-0.737 1.028,-2.119 0.655,-2.491 -0.335,-0.335 -3.05,0.137 -3.587,0.624 -0.417,0.377 -0.56,1.518 -0.247,1.979 0.642,0.949 2.275,0.891 3.18,-0.112 z m -82.88,-3.102 v -7.27 h -7.05 v -6.169 h 22.031 v 6.169 h -7.05 v 14.54 h -7.931 z m 50.672,-3.101 v -10.372 l 7.765,0.086 c 6.388,0.072 7.955,0.15 8.83,0.442 2.395,0.799 3.497,2.096 3.636,4.279 0.159,2.5 -0.943,4.279 -3.173,5.126 l -1.082,0.41 0.925,0.25 c 1.268,0.341 2.677,1.471 3.315,2.66 0.461,0.858 0.517,1.191 0.415,2.481 -0.206,2.608 -1.39,3.995 -3.99,4.669 -1.062,0.276 -2.776,0.34 -8.977,0.34 h -7.664 z m 11.43,5.942 c 1.31,-0.457 1.738,-2.141 0.816,-3.214 -0.503,-0.585 -0.646,-0.622 -2.644,-0.694 l -2.112,-0.077 v 4.229 h 1.62 c 0.89,0 1.934,-0.11 2.32,-0.245 z m 0.246,-8.757 c 1.165,-0.862 1.135,-2.393 -0.061,-3.122 -0.544,-0.332 -1.109,-0.434 -2.418,-0.434 h -1.707 v 1.945 c 0,1.07 0.074,2.023 0.165,2.118 0.31,0.32 3.436,-0.074 4.021,-0.507 z m 30.403,5.476 v -7.711 h 7.05 v 2.678 l 0.716,-0.934 c 1.009,-1.316 2.12,-1.834 4.139,-1.929 0.913,-0.043 2.099,0.04 2.635,0.185 1.224,0.33 2.512,1.581 2.84,2.759 0.149,0.538 0.243,3.15 0.244,6.77 v 5.893 h -7.49 v -5.068 c 0,-4.773 -0.025,-5.092 -0.44,-5.507 -0.243,-0.243 -0.64,-0.44 -0.882,-0.44 -0.242,0 -0.639,0.197 -0.881,0.44 -0.415,0.415 -0.44,0.734 -0.44,5.507 v 5.068 h -7.491 z"
       id="path6" />
    <path
       style="fill:#67676a;stroke-width:0.999999"
       d="m 59.205,165.88671 c -2.78,-0.604 -4.876,-2.244 -5.747,-4.498 -0.647,-1.672 -0.715,-4.92 -0.138,-6.572 0.796,-2.28 3.04,-3.97 5.996,-4.516 1.995,-0.368 5.721,-0.154 6.967,0.402 2.775,1.236 4.325,4.245 4.372,8.49 l 0.007,0.605 h -5.164 c -2.84,0 -5.213,0.079 -5.272,0.174 -0.26,0.42 0.595,1.555 1.467,1.947 1.453,0.655 5.27,0.507 7.33,-0.284 0.26,-0.1 0.317,0.215 0.317,1.762 0,1.062 -0.1,1.945 -0.228,2.024 -0.126,0.078 -1.092,0.282 -2.148,0.453 -2.293,0.372 -6.076,0.378 -7.758,0.013 z m 4.848,-9.955 c 0,-0.91 -0.49,-1.97 -1.002,-2.166 -1.215,-0.466 -2.39,0.116 -2.734,1.357 -0.444,1.6 -0.455,1.59 1.753,1.59 h 1.983 z m 14.98,10.117 c -2.143,-0.411 -3.442,-1.063 -4.774,-2.394 -1.103,-1.102 -1.434,-1.605 -1.751,-2.663 -0.466,-1.551 -0.524,-4.406 -0.12,-5.82 0.67,-2.345 2.719,-4.08 5.587,-4.732 1.731,-0.393 5.596,-0.44 7.595,-0.093 l 1.395,0.243 v 4.53 l -0.936,-0.324 c -1.386,-0.48 -3.826,-0.312 -4.72,0.325 -2.008,1.429 -1.656,5.144 0.593,6.274 1.044,0.525 3.136,0.501 4.347,-0.049 l 0.936,-0.425 v 4.552 l -0.936,0.263 c -0.966,0.271 -6.239,0.5 -7.215,0.313 z m 35.873,-0.077 c -1.118,-0.338 -2.284,-1.133 -2.83,-1.93 -0.463,-0.677 -0.546,-1.052 -0.546,-2.466 0,-1.426 0.088,-1.818 0.611,-2.708 1.181,-2.009 3.71,-2.91 7.799,-2.781 1.372,0.044 2.495,0.009 2.495,-0.077 0,-0.476 -0.566,-1.259 -1.175,-1.628 -1.106,-0.669 -4.388,-0.58 -6.488,0.174 l -1.605,0.577 0.062,-2.129 0.063,-2.128 1.102,-0.296 c 1.577,-0.424 6.995,-0.588 8.842,-0.267 2.771,0.48 4.547,1.61 5.39,3.427 0.364,0.784 0.41,1.495 0.414,6.444 l 0.005,5.563 h -6.83 v -2.035 l -0.906,0.906 c -0.598,0.598 -1.286,1.019 -2.023,1.238 -1.186,0.352 -3.402,0.41 -4.38,0.116 z m 6.691,-4.394 c 0.665,-0.737 1.028,-2.119 0.655,-2.491 -0.335,-0.335 -3.05,0.137 -3.587,0.624 -0.417,0.377 -0.56,1.518 -0.247,1.979 0.642,0.949 2.275,0.891 3.18,-0.112 z m -82.88,-3.102 v -7.27 h -7.05 v -6.169 h 22.031 v 6.169 h -7.05 v 14.54 h -7.931 z m 50.672,-3.101 v -10.372 l 7.765,0.086 c 6.388,0.072 7.955,0.15 8.83,0.442 2.395,0.799 3.497,2.096 3.636,4.279 0.159,2.5 -0.943,4.279 -3.173,5.126 l -1.082,0.41 0.925,0.25 c 1.268,0.341 2.677,1.471 3.315,2.66 0.461,0.858 0.517,1.191 0.415,2.481 -0.206,2.608 -1.39,3.995 -3.99,4.669 -1.062,0.276 -2.776,0.34 -8.977,0.34 h -7.664 z m 11.43,5.942 c 1.31,-0.457 1.738,-2.141 0.816,-3.214 -0.503,-0.585 -0.646,-0.622 -2.644,-0.694 l -2.112,-0.077 v 4.229 h 1.62 c 0.89,0 1.934,-0.11 2.32,-0.245 z m 0.246,-8.757 c 1.165,-0.862 1.135,-2.393 -0.061,-3.122 -0.544,-0.332 -1.109,-0.434 -2.418,-0.434 h -1.707 v 1.945 c 0,1.07 0.074,2.023 0.165,2.118 0.31,0.32 3.436,-0.074 4.021,-0.507 z m 30.403,5.476 v -7.711 h 7.05 v 2.678 l 0.716,-0.934 c 1.009,-1.316 2.12,-1.834 4.139,-1.929 0.913,-0.043 2.099,0.04 2.635,0.185 1.224,0.33 2.512,1.581 2.84,2.759 0.149,0.538 0.243,3.15 0.244,6.77 v 5.893 h -7.49 v -5.068 c 0,-4.773 -0.025,-5.092 -0.44,-5.507 -0.243,-0.243 -0.64,-0.44 -0.882,-0.44 -0.242,0 -0.639,0.197 -0.881,0.44 -0.415,0.415 -0.44,0.734 -0.44,5.507 v 5.068 h -7.491 z"
       id="path8" />
    <path
       style="fill:#9d9e9f;stroke-width:1"
       d="m 85.11,121.78071 -5.283,-5.291 5.106,-5.116 c 2.809,-2.813 5.263,-5.115 5.454,-5.115 0.192,0 1.308,0.952 2.482,2.115 l 2.134,2.115 3.834,-3.846 3.833,-3.845 -1.541,-1.829 c -0.848,-1.004997 -1.842,-1.988997 -2.209,-2.184997 -0.604,-0.323 -0.457,-0.568 1.568,-2.612 l 2.236,-2.256 -1.575,-1.619 c -0.867,-0.89 -2.657,-2.583 -3.978,-3.762 l -2.403,-2.143 -2.076,2.054 -2.076,2.054 -1.518,-1.286 c -2.64,-2.237 -9.287,-8.64 -9.104,-8.77 0.097,-0.068 1.082,-0.957 2.188,-1.975 l 2.012,-1.851 -3.729,-3.26 c -2.05,-1.792 -3.84,-3.302 -3.976,-3.355 -0.136,-0.053 -1.158,0.701 -2.272,1.676 -1.114,0.974 -2.106,1.772 -2.205,1.772 -0.236,0 -9.578,-8.054 -9.847,-8.49 -0.115,-0.185 0.312,-0.772 0.948,-1.303 a 311.35,311.35 0 0 0 1.985,-1.673 l 0.828,-0.705 -3.285,-2.494 c -1.806,-1.372 -3.49,-2.616 -3.74,-2.765 -0.286,-0.169 -1.173,0.27 -2.367,1.171 -1.05,0.793 -2.012,1.442 -2.138,1.442 -0.127,0 -1.033,-0.64 -2.014,-1.421 -0.982,-0.782 -1.913,-1.377 -2.07,-1.323 -0.155,0.054 -1.719,1.289 -3.474,2.744 l -3.19,2.646 1.799,1.729 1.798,1.729 -4.35,4.38 -4.352,4.38 -2.924,-3.11 c -1.608,-1.711 -3.403,-3.702 -3.99,-4.424 l -1.067,-1.312 3.107,-3.223 c 1.709,-1.773 3.528,-3.523 4.042,-3.89 l 0.936,-0.665 1.78,1.6 1.78,1.6 3.346,-2.813 3.347,-2.814 -1.948,-1.47 -1.948,-1.471 1.885,-1.352 c 1.036,-0.744 3.131,-2.109 4.655,-3.033 l 2.77,-1.68 2.173,1.173 2.174,1.173 3.633,-2.03 3.634,-2.03 -1.963,-0.887 c -1.08,-0.488 -1.962,-1.002 -1.962,-1.141 0,-0.281 2.558,-1.322 6.974,-2.838 l 2.918,-1.001 2.374,0.714 2.375,0.714 3.527,-1.052 c 3.117,-0.929 3.405,-1.079 2.47,-1.293 a 31.094,31.094 0 0 1 -1.941,-0.52 c -1.796,-0.563 1.807,-0.896 9.701,-0.896 7.894,0 11.497,0.333 9.702,0.896 a 30.91,30.91 0 0 1 -1.94,0.52 c -0.928,0.212 -0.613,0.37 2.557,1.282 l 3.615,1.04 2.311,-0.693 2.31,-0.694 3.423,1.163 c 4.44,1.508 6.421,2.322 6.421,2.638 0,0.14 -0.794,0.626 -1.764,1.08 -0.97,0.454 -1.762,0.918 -1.76,1.03 0.004,0.211 6.207,3.649 6.928,3.84 0.222,0.059 1.192,-0.378 2.155,-0.97 0.963,-0.593 1.935,-1.078 2.16,-1.078 0.67,0 9.222,5.529 9.206,5.952 -0.004,0.122 -0.794,0.777 -1.756,1.457 -0.961,0.679 -1.751,1.333 -1.755,1.453 -0.004,0.12 1.446,1.42 3.223,2.89 l 3.231,2.67 1.905,-1.627 1.906,-1.628 3.859,3.847 c 2.123,2.116 3.86,3.984 3.86,4.151 0,0.167 -1.695,2.154 -3.765,4.416 a 681.42,681.42 0 0 0 -3.89,4.268 c -0.068,0.086 -0.958,-0.667 -1.977,-1.674 l -1.852,-1.829 -3.333,3.347 -3.333,3.347 1.898,1.921 1.898,1.922 -1.171,1.344 c -0.644,0.74 -2.743,2.996 -4.665,5.014 l -3.493,3.67 -2.098,-2.076 -2.098,-2.076 -3.782,3.782 -3.782,3.782 2.197,2.216 2.196,2.216 -5.09,5.079997 -5.088,5.08 -2.16,-2 c -1.19,-1.1 -2.274,-2 -2.412,-2 -0.138,0 -1.955,1.71 -4.04,3.8 l -3.788,3.8 2.119,2.098 c 1.166,1.153 2.12,2.263 2.12,2.465 0,0.359 -9.888,10.414 -10.24,10.414 -0.097,0 -2.554,-2.381 -5.46,-5.292 z m 20.311,-30.549997 c 0.47,-0.505 1.463,-1.4 2.205,-1.991 l 1.35,-1.074 2.094,2.072 2.095,2.073 3.78,-3.781 3.782,-3.781 -2.019,-2.04 -2.018,-2.04 2.025,-2.046 2.025,-2.045 -1.46,-1.3 a 8295.11,8295.11 0 0 0 -3.781,-3.36 l -2.322,-2.062 -2.121,1.845 -2.121,1.845 -1.629,-1.37 c -3.062,-2.578 -2.455,-2.666 -6.635,0.954 -2.059,1.783 -3.743,3.365 -3.743,3.517 0,0.151 0.908,1.084 2.018,2.074 l 2.018,1.799 -2.124,2.124 -2.124,2.124 3.722,3.686 c 2.047,2.027 3.813,3.687 3.925,3.69 0.112,0.002 0.588,-0.409 1.058,-0.913 z m -2.923,-22.721 c 0.057,-0.144 -0.737,-0.946 -1.763,-1.783 a 3580.73,3580.73 0 0 1 -2.132,-1.739 c -0.146,-0.12 0.68,-0.923 1.838,-1.786 1.156,-0.863 2.11,-1.678 2.117,-1.81 0.017,-0.291 -7.273,-5.58 -7.691,-5.58 -0.162,0 -1.18,0.635 -2.264,1.41 -1.084,0.777 -2.056,1.412 -2.159,1.412 -0.103,0 -1.1,-0.64 -2.216,-1.421 -1.116,-0.782 -2.254,-1.334 -2.53,-1.229 -0.275,0.106 -2.081,1.338 -4.013,2.738 l -3.512,2.545 0.835,0.712 c 0.46,0.392 1.44,1.193 2.177,1.782 l 1.342,1.07 -2.148,1.687 c -1.182,0.928 -2.136,1.796 -2.12,1.929 0.044,0.376 7.311,6.415 7.72,6.415 0.2,0 1.039,-0.589 1.864,-1.308 0.825,-0.72 1.759,-1.52 2.075,-1.78 0.5,-0.41 0.865,-0.222 2.8,1.44 l 2.227,1.91 3.725,-3.176 c 2.05,-1.747 3.772,-3.294 3.828,-3.438 z m 22.2,4.512 1.863,-1.84 1.92,1.895 1.918,1.895 2.403,-2.138 c 1.321,-1.177 2.87,-2.633 3.443,-3.236 l 1.041,-1.097 -1.85,-1.873 -1.849,-1.873 1.81,-1.693 c 1.475,-1.38 1.723,-1.772 1.338,-2.116 -0.81,-0.724 -5.027,-4.252 -5.675,-4.748 -0.54,-0.413 -0.865,-0.285 -2.595,1.021 l -1.977,1.493 -1.022,-0.744 -2.061,-1.503 c -1.216,-0.887 -0.973,-1 -5.568,2.61 l -2.903,2.282 2.132,1.71 2.132,1.71 -1.504,1.25 c -0.827,0.688 -1.808,1.496 -2.18,1.797 -0.644,0.522 -0.508,0.698 2.932,3.793 1.983,1.785 3.782,3.245 3.998,3.245 0.215,0 1.23,-0.828 2.254,-1.84 z m -54.907,-14.585 c 1.273,-0.98 2.262,-1.506 2.53,-1.345 0.243,0.144 1.255,0.872 2.25,1.617 l 1.809,1.355 3.96,-2.82 3.959,-2.82 -2.136,-1.335 c -1.175,-0.734 -2.144,-1.419 -2.153,-1.522 -0.009,-0.103 0.95,-0.757 2.13,-1.453 l 2.145,-1.265 -2.233,-1.24 a 134.11,134.11 0 0 0 -4.024,-2.137 l -1.79,-0.899 -2.077,1.177 -2.077,1.177 -2.032,-1.026 c -1.117,-0.564 -2.225,-1.025 -2.46,-1.025 -0.236,0 -2.008,0.894 -3.939,1.987 l -3.51,1.987 1.9,1.197 c 1.045,0.658 1.933,1.312 1.974,1.452 0.04,0.14 -0.801,0.864 -1.87,1.606 l -1.943,1.35 3.633,2.773 c 1.999,1.525 3.686,2.782 3.749,2.795 0.063,0.012 1.055,-0.702 2.205,-1.586 z m 41.318,-0.011 c 1.302,0.967 2.316,1.492 2.546,1.318 0.21,-0.16 1.732,-1.292 3.381,-2.518 1.65,-1.225 3.133,-2.346 3.298,-2.49 0.164,-0.145 -0.606,-0.93 -1.712,-1.748 l -2.01,-1.485 2.013,-1.336 2.012,-1.337 -2.418,-1.412 c -4.878,-2.848 -4.754,-2.82 -7.19,-1.655 l -2.13,1.017 -2.222,-1.096 -2.223,-1.097 -3.575,1.923 c -1.966,1.057 -3.661,2.062 -3.767,2.233 -0.105,0.17 0.683,0.81 1.753,1.422 1.069,0.612 1.943,1.22 1.942,1.351 -0.001,0.131 -0.874,0.794 -1.939,1.474 -1.065,0.679 -1.937,1.336 -1.938,1.46 -0.001,0.124 1.69,1.429 3.76,2.9 l 3.76,2.675 2.248,-1.603 2.247,-1.604 z m -22.802,-11.852 2.167,-1.123 2.257,1.165 2.257,1.165 3.853,-2.045 3.853,-2.044 -2.001,-0.864 c -1.1,-0.475 -2.001,-0.982 -2.001,-1.125 0,-0.143 0.833,-0.578 1.852,-0.967 l 1.852,-0.705 -3.444,-1.106 c -3.919,-1.257 -4.37,-1.296 -6.75,-0.573 -1.529,0.463 -1.93,0.463 -3.503,-0.004 -0.977,-0.29 -2.112,-0.528 -2.52,-0.528 -1.19,0 -7.827,2.197 -7.243,2.397 0.291,0.1 1.242,0.485 2.113,0.856 l 1.583,0.675 -2.24,0.99 -2.239,0.992 3.655,1.948 c 2.01,1.071 3.807,1.964 3.993,1.984 0.187,0.02 1.314,-0.47 2.506,-1.088 z"
       id="path10" />
    <path
       style="fill:#e15b60;stroke-width:1"
       d="m 85.354,121.86671 -5.2,-5.21 5.288,-5.28 5.289,-5.28 2.215,2.196 2.216,2.196 3.96,-3.972 3.96,-3.971 -2.197,-2.197 -2.196,-2.195997 2.1,-2.123 2.1,-2.122 -3.342,-3.374 c -1.838,-1.855 -3.625,-3.53 -3.972,-3.72 -0.51,-0.283 -1.036,0.02 -2.784,1.603 l -2.156,1.95 -2.683,-2.457 a 2462.195,2462.195 0 0 1 -5.288,-4.858 l -2.604,-2.402 2.24,-2.027 2.239,-2.026 -0.937,-0.78 a 520.683,520.683 0 0 1 -3.96,-3.377 c -3.385,-2.91 -2.873,-2.886 -5.96,-0.287 l -1.6,1.348 -4.965,-4.32 -4.964,-4.319 0.763,-0.811 c 0.419,-0.447 1.293,-1.174 1.942,-1.615 0.649,-0.442 1.18,-0.905 1.182,-1.03 0.003,-0.305 -6.914,-5.594 -7.316,-5.594 -0.173,0 -1.16,0.63 -2.193,1.4 -2.03,1.515 -1.963,1.519 -4.13,-0.22 -0.809,-0.65 -1.614,-1.18 -1.789,-1.18 -0.25,0 -5.202,3.985 -6.553,5.275 -0.159,0.151 0.521,1.05 1.51,1.998 l 1.8,1.723 -4.353,4.335 -4.353,4.336 -3.132,-3.454 -3.987,-4.394 -0.855,-0.94 3.937,-3.937 3.937,-3.937 1.91,1.631 1.91,1.632 3.275,-2.71 3.387,-2.806 c 0.062,-0.052 -0.653,-0.678 -1.588,-1.392 -0.935,-0.714 -1.7,-1.468 -1.7,-1.676 0,-0.409 5.08,-3.999 7.447,-5.263 l 1.45,-0.774 1.819,1.12 c 1,0.615 1.977,1.119 2.17,1.119 0.39,0 5.789,-2.87 6.825,-3.627 0.61,-0.447 0.524,-0.541 -1.147,-1.26 -0.994,-0.427 -1.807,-0.92 -1.807,-1.094 0,-0.332 3.995,-1.951 7.512,-3.046 1.803,-0.562 2.239,-0.581 3.704,-0.166 0.914,0.26 2.06,0.54 2.546,0.626 1.049,0.184 8.175,-1.869 7.405,-2.133 -0.29,-0.1 -1.164,-0.328 -1.94,-0.506 l -1.411,-0.325 2.116,-0.32 c 2.776,-0.42 15.125,-0.342 16.934,0.106 l 1.41,0.35 -1.68,0.27 c -0.923,0.148 -1.742,0.372 -1.82,0.497 -0.077,0.125 1.529,0.683 3.568,1.24 l 3.709,1.011 2.047,-0.62 c 1.393,-0.421 2.48,-0.539 3.403,-0.366 1.635,0.305 8.942,3.087 8.942,3.404 0,0.124 -0.899,0.613 -1.997,1.087 l -1.998,0.863 3.589,2.004 c 1.974,1.103 3.743,2.005 3.932,2.005 0.19,0 1.118,-0.476 2.064,-1.058 0.946,-0.583 1.877,-1.059 2.068,-1.059 0.394,0 5.86,3.383 7.952,4.922 l 1.377,1.012 -1.942,1.466 -1.942,1.466 3.353,2.82 c 3.71,3.119 3.318,3.07 5.83,0.724 l 1.296,-1.21 3.588,3.481 c 1.974,1.916 3.729,3.744 3.9,4.064 0.243,0.455 -0.544,1.522 -3.606,4.886 l -3.917,4.303 -1.887,-1.863 c -1.038,-1.025 -1.934,-1.794 -1.992,-1.708 -0.057,0.085 -1.512,1.617 -3.232,3.403 l -3.127,3.247 1.79,2.066 1.79,2.066 -4.617,4.854 -4.616,4.854 -2.069,-2.047 -2.068,-2.047 -3.782,3.781 -3.78,3.782 2.072,2.094 2.072,2.095 -1.084,1.35 c -0.596,0.741997 -2.84,3.090997 -4.987,5.220997 l -3.903,3.872 -2.041,-2.02 c -1.123,-1.11 -2.193,-2.02 -2.378,-2.02 -0.185,0 -2.045,1.703 -4.133,3.785 l -3.797,3.784 2.198,2.217 2.197,2.217 -5.289,5.29 -5.289,5.288 z m 21.688,-31.736997 2.04,-2.017 2.12,2.1 2.122,2.098 3.78,-3.781 3.782,-3.781 -2.019,-2.04 -2.018,-2.04 2.025,-2.048 2.025,-2.048 -2.293,-2.119 c -1.261,-1.165 -2.97,-2.683 -3.798,-3.373 l -1.506,-1.253 -2.116,1.84 -2.117,1.842 -2.106,-1.825 c -1.158,-1.003 -2.248,-1.77 -2.422,-1.705 -0.174,0.066 -1.994,1.586 -4.045,3.378 l -3.728,3.26 2.011,1.851 c 1.107,1.018 2.091,1.908 2.188,1.977 0.097,0.069 -0.828,1.07 -2.056,2.227 l -2.232,2.1 3.82,3.672 c 2.1,2.018 3.974,3.678 4.162,3.687 0.189,0.009 1.26,-0.892 2.381,-2.002 z m -18.676,-16.832 2.152,-1.917 1.367,1.123 a 453,453 0 0 0 2.314,1.889 l 0.947,0.766 3.947,-3.368 3.947,-3.367 -2.11,-1.764 c -2.38,-1.989 -2.374,-2.054 0.42,-3.99 0.76,-0.526 1.381,-1.084 1.381,-1.24 0,-0.344 -7.19,-5.618 -7.66,-5.618 -0.185,0 -1.262,0.648 -2.393,1.44 l -2.056,1.44 -2.042,-1.44 c -1.123,-0.792 -2.208,-1.44 -2.41,-1.44 -0.47,0 -7.785,5.256 -7.766,5.58 0.008,0.132 0.96,0.947 2.117,1.81 1.157,0.863 1.984,1.667 1.838,1.786 l -2.132,1.74 c -1.026,0.836 -1.82,1.637 -1.764,1.78 0.103,0.258 7.405,6.66 7.631,6.69 0.066,0.01 1.088,-0.846 2.272,-1.9 z m 36.225,-0.01 1.903,-1.928 2.17,1.905 2.171,1.905 3.313,-3.326 3.313,-3.327 -1.874,-1.897 -1.873,-1.897 1.795,-1.545 c 0.987,-0.85 1.794,-1.65 1.794,-1.78 0,-0.31 -6.33,-5.586 -6.703,-5.586 -0.159,0 -1.107,0.646 -2.107,1.437 l -1.817,1.436 -1.941,-1.465 c -1.114,-0.84 -2.164,-1.38 -2.464,-1.266 -0.287,0.11 -2.032,1.354 -3.878,2.763 l -3.357,2.563 0.828,0.705 c 0.455,0.388 1.376,1.164 2.046,1.725 l 1.218,1.018 -2.065,1.848 -2.065,1.847 1.713,1.544 c 0.943,0.849 2.588,2.374 3.657,3.388 1.068,1.015 2.027,1.849 2.13,1.852 0.104,0.004 1.046,-0.86 2.093,-1.92 z m -54.527,-14.833 2.08,-1.572 2.24,1.598 2.239,1.598 3.617,-2.549 c 1.99,-1.402 3.752,-2.663 3.916,-2.803 0.165,-0.14 -0.682,-0.92 -1.882,-1.735 -2.431,-1.65 -2.463,-1.484 0.617,-3.186 0.827,-0.457 1.382,-0.945 1.235,-1.085 -0.148,-0.14 -1.897,-1.139 -3.888,-2.22 l -3.62,-1.968 -2.294,1.132 -2.295,1.131 -2.023,-1.106 -2.023,-1.107 -1.412,0.72 c -0.776,0.397 -2.499,1.353 -3.829,2.124 l -2.417,1.403 2.012,1.337 2.013,1.336 -2.004,1.48 c -1.101,0.814 -1.936,1.548 -1.853,1.63 0.429,0.43 7.163,5.414 7.313,5.414 0.097,0 1.113,-0.708 2.258,-1.572 z m 37.064,-0.195 1.925,-1.453 2.128,1.638 c 1.362,1.048 2.29,1.536 2.574,1.354 1.407,-0.897 6.966,-5.182 6.954,-5.361 -0.007,-0.118 -0.901,-0.83 -1.986,-1.585 l -1.974,-1.37 2.046,-1.252 c 2.38,-1.455 2.56,-1.16 -2.435,-3.971 l -2.87,-1.615 -2.204,1.073 -2.205,1.073 -2.238,-1.104 -2.24,-1.104 -3.67,1.94 c -2.018,1.068 -3.78,2.047 -3.916,2.175 -0.136,0.13 0.697,0.782 1.852,1.451 1.154,0.67 2.091,1.304 2.082,1.411 -0.009,0.107 -0.977,0.796 -2.153,1.53 l -2.137,1.335 3.829,2.775 c 2.106,1.526 4.028,2.716 4.27,2.644 0.244,-0.072 1.309,-0.784 2.368,-1.584 z m -18.625,-11.685 1.989,-1.122 2.301,1.193 2.302,1.194 3.553,-1.881 c 1.955,-1.034 3.681,-1.995 3.837,-2.136 0.156,-0.14 -0.595,-0.635 -1.67,-1.1 -1.074,-0.465 -1.955,-0.926 -1.958,-1.024 -0.003,-0.099 0.906,-0.512 2.022,-0.92 l 2.029,-0.74 -3.954,-1.262 -3.953,-1.263 -2.192,0.618 c -2.07,0.584 -2.312,0.585 -4.346,0.021 l -2.153,-0.597 -3.52,1.039 c -1.935,0.57 -3.65,1.166 -3.809,1.322 -0.16,0.156 0.515,0.573 1.5,0.927 0.984,0.354 1.789,0.746 1.789,0.872 0,0.126 -0.91,0.617 -2.022,1.092 l -2.023,0.863 3.698,1.988 c 2.034,1.093 3.9,2 4.145,2.013 0.245,0.014 1.341,-0.48 2.435,-1.097 z"
       id="path12" />
    <path
       style="fill:#67676a;stroke-width:1"
       d="m 85.015,121.86471 -5.2,-5.208 5.212,-5.202 5.211,-5.203 2.098,2.12 c 1.154,1.166 2.264,2.12 2.468,2.12 0.203,0 2.11,-1.745 4.236,-3.878 l 3.866,-3.879 -2.197,-2.217 -2.198,-2.216997 2.118,-2.095 c 1.164,-1.153 2.117,-2.2 2.117,-2.328 0,-0.127 -1.824,-1.933 -4.053,-4.012 l -4.054,-3.78 -2.208,2.112 -2.208,2.113 -5.153,-4.869 -5.152,-4.869 2.065,-1.818 c 1.137,-1 2.066,-1.956 2.066,-2.124 0,-0.169 -1.77,-1.824 -3.935,-3.679 l -3.936,-3.372 -2.159,1.896 -2.159,1.895 -5.002,-4.282 -5.003,-4.281 1.295,-1.059 c 0.712,-0.582 1.664,-1.376 2.117,-1.764 l 0.822,-0.705 -3.878,-2.945 -3.878,-2.946 -2.05,1.578 -2.049,1.577 -2.005,-1.55 -2.004,-1.548 -3.164,2.633 c -1.74,1.448 -3.285,2.83 -3.434,3.07 -0.174,0.284 0.36,1.01 1.506,2.049 l 1.777,1.61 -4.297,4.254 -4.297,4.254 -3.768,-4.141 c -2.073,-2.278 -3.768,-4.274 -3.768,-4.437 0,-0.162 1.71,-2.001 3.802,-4.086 l 3.803,-3.79 1.562,1.591 c 0.86,0.876 1.749,1.592 1.975,1.592 0.5,0 6.85,-5.288 6.85,-5.704 0,-0.161 -0.12,-0.298 -0.265,-0.304 -0.146,-0.006 -0.958,-0.609 -1.804,-1.341 l -1.54,-1.33 2.95,-1.967 a 218.704,218.704 0 0 1 4.472,-2.91 l 1.522,-0.944 2.183,1.22 2.183,1.221 3.85,-2.148 3.85,-2.149 -1.998,-0.862 c -1.099,-0.475 -1.998,-0.967 -1.998,-1.095 0,-0.292 6.181,-2.712 8.275,-3.24 1.337,-0.336 1.882,-0.29 3.666,0.313 l 2.096,0.708 4.006,-1.17 c 4.075,-1.19 4.16,-1.305 1.36,-1.859 l -1.588,-0.314 2.47,-0.321 c 3.193,-0.416 12.35,-0.414 15.522,0.003 1.358,0.178 2.152,0.389 1.764,0.467 -0.388,0.079 -1.34,0.306 -2.113,0.506 l -1.407,0.362 4.024,1.155 4.025,1.155 2.124,-0.717 c 1.822,-0.615 2.341,-0.66 3.645,-0.31 2.276,0.608 8.223,2.935 8.223,3.217 0,0.135 -0.794,0.617 -1.764,1.072 -0.97,0.454 -1.758,0.918 -1.751,1.03 0.007,0.113 1.674,1.11 3.704,2.218 l 3.69,2.014 2.09,-1.245 2.09,-1.245 3.467,2.17 c 1.906,1.192 3.942,2.55 4.523,3.017 l 1.057,0.849 -0.87,0.61 a 24.473,24.473 0 0 0 -1.868,1.504 l -0.999,0.896 3.458,2.87 3.457,2.869 1.66,-1.547 c 0.914,-0.85 1.785,-1.546 1.935,-1.546 0.151,0 1.975,1.695 4.053,3.767 l 3.779,3.767 -2.891,3.155 c -1.59,1.736 -3.316,3.652 -3.835,4.259 l -0.943,1.103 -1.888,-1.85 -1.887,-1.85 -3.51,3.523 -3.51,3.523 1.884,1.908 c 1.036,1.049 1.826,2.059 1.755,2.244 -0.071,0.185 -2.072,2.38 -4.447,4.879 l -4.317,4.542 -2.124,-2.1 -2.123,-2.102 -3.876,3.864 -3.877,3.865 2.184,2.203 2.184,2.204 -4.545,4.682997 c -2.5,2.576 -4.754,4.917 -5.01,5.201 -0.398,0.446 -0.772,0.211 -2.674,-1.674 l -2.211,-2.191 -4.042,4.053 -4.041,4.053 2.194,2.214 2.195,2.214 -5.206,5.196 -5.205,5.197 z m 25.941,-31.559997 2.213,2.192 3.864,-3.876 3.864,-3.876 -2.087,-2.11 -2.088,-2.11 2.082,-1.892 2.083,-1.892 -2.28,-2.109 a 687.5,687.5 0 0 0 -3.903,-3.583 l -1.624,-1.473 -2.012,1.76 c -1.107,0.97 -2.15,1.762 -2.316,1.762 -0.167,0 -1.22,-0.782 -2.34,-1.737 -2.35,-2.005 -1.507,-2.285 -6.764,2.248 -1.788,1.543 -3.252,2.916 -3.252,3.052 0,0.136 0.963,1.081 2.139,2.1 l 2.138,1.852 -2.227,2.065 -2.226,2.064 4.047,3.88 4.048,3.879 2.214,-2.195 2.215,-2.195 z m -22.952,-16.854 c 1.088,-0.97 2.09,-1.764 2.227,-1.764 0.137,0 1.199,0.823 2.36,1.828 1.497,1.298 2.243,1.733 2.57,1.5 1.257,-0.903 7.537,-6.359 7.56,-6.568 0.014,-0.133 -0.941,-1 -2.123,-1.929 l -2.148,-1.688 1.342,-1.07 c 0.737,-0.588 1.72,-1.392 2.182,-1.786 l 0.84,-0.716 -4.079,-2.929 -4.079,-2.928 -2.203,1.58 -2.204,1.582 -2.216,-1.582 -2.216,-1.581 -2.56,1.853 a 296.579,296.579 0 0 0 -4.07,2.999 l -1.512,1.145 2.182,1.678 2.18,1.678 -0.858,0.733 c -0.473,0.403 -1.47,1.22 -2.216,1.814 l -1.356,1.081 3.988,3.417 c 2.193,1.88 4.086,3.417 4.208,3.417 0.122,0 1.112,-0.794 2.201,-1.764 z m 36.324,-0.055 2.099,-1.818 1.92,1.897 1.921,1.897 3.523,-3.51 3.523,-3.509 -1.788,-1.81 -1.788,-1.811 1.792,-1.726 1.791,-1.726 -3.526,-2.942 -3.526,-2.941 -1.992,1.58 -1.992,1.58 -2.05,-1.59 -2.048,-1.592 -3.635,2.808 c -2,1.544 -3.635,2.976 -3.635,3.183 0,0.207 0.847,1.05 1.882,1.874 l 1.882,1.499 -2.058,1.856 c -1.832,1.653 -2,1.916 -1.53,2.39 0.932,0.938 6.875,6.215 7.008,6.222 0.07,0.004 1.073,-0.81 2.227,-1.81 z m -54.743,-14.761 c 1.04,-0.776 2.047,-1.411 2.237,-1.411 0.19,0 1.186,0.635 2.214,1.411 1.028,0.776 2.025,1.411 2.216,1.411 0.43,0 7.798,-5.292 7.795,-5.599 0,-0.122 -0.873,-0.777 -1.938,-1.456 -1.065,-0.68 -1.938,-1.34 -1.939,-1.466 0,-0.127 0.893,-0.736 1.985,-1.352 2.394,-1.351 2.419,-1.313 -2.489,-3.919 l -3.5,-1.859 -2.17,1.16 -2.17,1.159 -2.208,-1.115 -2.21,-1.116 -3.484,1.973 c -1.917,1.086 -3.578,2.124 -3.69,2.307 -0.114,0.183 0.594,0.826 1.574,1.429 0.979,0.602 1.78,1.2 1.78,1.33 -10e-4,0.128 -0.799,0.777 -1.774,1.442 -0.974,0.664 -1.72,1.36 -1.658,1.547 0.148,0.445 6.67,5.454 7.16,5.5 0.208,0.02 1.229,-0.6 2.27,-1.376 z m 36.906,0 c 1.028,-0.776 2.006,-1.411 2.174,-1.411 0.167,0 1.155,0.635 2.195,1.411 1.04,0.776 2.026,1.411 2.19,1.411 0.165,0 1.974,-1.26 4.02,-2.8 l 3.72,-2.802 -1.525,-1.108 c -0.84,-0.61 -1.762,-1.243 -2.052,-1.406 -0.614,-0.347 -0.703,-0.251 1.693,-1.843 l 1.873,-1.245 -2.755,-1.582 c -5.273,-3.028 -4.738,-2.903 -7.16,-1.68 l -2.12,1.07 -2.205,-1.116 -2.205,-1.117 -3.214,1.69 c -1.768,0.93 -3.574,1.963 -4.015,2.295 l -0.8,0.604 1.986,1.136 c 1.092,0.625 1.985,1.244 1.984,1.375 0,0.131 -0.873,0.794 -1.938,1.474 -1.065,0.679 -1.898,1.35 -1.85,1.49 0.12,0.361 7.424,5.559 7.815,5.562 0.176,0.002 1.162,-0.632 2.19,-1.408 z m -18.443,-11.825 2.259,-1.242 2.181,1.233 2.182,1.233 4.119,-2.182 4.119,-2.182 -2.021,-0.862 c -1.91,-0.815 -2.561,-1.427 -1.58,-1.485 0.242,-0.015 1.076,-0.314 1.852,-0.665 l 1.41,-0.639 -1.057,-0.42 c -0.582,-0.23 -2.392,-0.806 -4.021,-1.278 -2.909,-0.844 -3.001,-0.85 -5.077,-0.267 -1.976,0.555 -2.26,0.555 -4.32,0.006 l -2.204,-0.587 -3.654,1.081 c -2.01,0.595 -3.788,1.212 -3.951,1.37 -0.163,0.16 0.512,0.557 1.5,0.885 0.987,0.328 1.795,0.723 1.795,0.878 0,0.154 -0.794,0.622 -1.764,1.04 -0.97,0.417 -1.762,0.873 -1.76,1.013 0.004,0.193 3.654,2.23 7.657,4.273 0.041,0.021 1.092,-0.52 2.335,-1.203 z"
       id="path14" />
    <path
       style="fill:#e91b22;stroke-width:1"
       d="m 85.015,121.86471 -5.2,-5.208 5.212,-5.202 5.211,-5.203 2.098,2.12 c 1.154,1.166 2.264,2.12 2.468,2.12 0.203,0 2.11,-1.745 4.236,-3.878 l 3.866,-3.879 -2.197,-2.217 -2.198,-2.216997 2.118,-2.095 c 1.164,-1.153 2.117,-2.2 2.117,-2.328 0,-0.127 -1.824,-1.933 -4.053,-4.012 l -4.054,-3.78 -2.208,2.112 -2.208,2.113 -5.153,-4.869 -5.152,-4.869 2.065,-1.818 c 1.137,-1 2.066,-1.956 2.066,-2.124 0,-0.169 -1.77,-1.824 -3.935,-3.679 l -3.936,-3.372 -2.159,1.896 -2.159,1.895 -5.002,-4.282 -5.003,-4.281 1.295,-1.059 c 0.712,-0.582 1.664,-1.376 2.117,-1.764 l 0.822,-0.705 -3.878,-2.945 -3.878,-2.946 -2.05,1.578 -2.049,1.577 -2.005,-1.55 -2.004,-1.548 -3.164,2.633 c -1.74,1.448 -3.285,2.83 -3.434,3.07 -0.174,0.284 0.36,1.01 1.506,2.049 l 1.777,1.61 -4.297,4.254 -4.297,4.254 -3.768,-4.141 c -2.073,-2.278 -3.768,-4.274 -3.768,-4.437 0,-0.162 1.71,-2.001 3.802,-4.086 l 3.803,-3.79 1.562,1.591 c 0.86,0.876 1.749,1.592 1.975,1.592 0.5,0 6.85,-5.288 6.85,-5.704 0,-0.161 -0.12,-0.298 -0.265,-0.304 -0.146,-0.006 -0.958,-0.609 -1.804,-1.341 l -1.54,-1.33 2.95,-1.967 a 218.704,218.704 0 0 1 4.472,-2.91 l 1.522,-0.944 2.183,1.22 2.183,1.221 3.85,-2.148 3.85,-2.149 -1.998,-0.862 c -1.099,-0.475 -1.998,-0.967 -1.998,-1.095 0,-0.292 6.181,-2.712 8.275,-3.24 1.337,-0.336 1.882,-0.29 3.666,0.313 l 2.096,0.708 4.006,-1.17 c 4.075,-1.19 4.16,-1.305 1.36,-1.859 l -1.588,-0.314 2.47,-0.321 c 3.193,-0.416 12.35,-0.414 15.522,0.003 1.358,0.178 2.152,0.389 1.764,0.467 -0.388,0.079 -1.34,0.306 -2.113,0.506 l -1.407,0.362 4.024,1.155 4.025,1.155 2.124,-0.717 c 1.822,-0.615 2.341,-0.66 3.645,-0.31 2.276,0.608 8.223,2.935 8.223,3.217 0,0.135 -0.794,0.617 -1.764,1.072 -0.97,0.454 -1.758,0.918 -1.751,1.03 0.007,0.113 1.674,1.11 3.704,2.218 l 3.69,2.014 2.09,-1.245 2.09,-1.245 3.467,2.17 c 1.906,1.192 3.942,2.55 4.523,3.017 l 1.057,0.849 -0.87,0.61 a 24.473,24.473 0 0 0 -1.868,1.504 l -0.999,0.896 3.458,2.87 3.457,2.869 1.66,-1.547 c 0.914,-0.85 1.785,-1.546 1.935,-1.546 0.151,0 1.975,1.695 4.053,3.767 l 3.779,3.767 -2.891,3.155 c -1.59,1.736 -3.316,3.652 -3.835,4.259 l -0.943,1.103 -1.888,-1.85 -1.887,-1.85 -3.51,3.523 -3.51,3.523 1.884,1.908 c 1.036,1.049 1.826,2.059 1.755,2.244 -0.071,0.185 -2.072,2.38 -4.447,4.879 l -4.317,4.542 -2.124,-2.1 -2.123,-2.102 -3.876,3.864 -3.877,3.865 2.184,2.203 2.184,2.204 -4.545,4.682997 c -2.5,2.576 -4.754,4.917 -5.01,5.201 -0.398,0.446 -0.772,0.211 -2.674,-1.674 l -2.211,-2.191 -4.042,4.053 -4.041,4.053 2.194,2.214 2.195,2.214 -5.206,5.196 -5.205,5.197 z m 25.941,-31.559997 2.213,2.192 3.864,-3.876 3.864,-3.876 -2.087,-2.11 -2.088,-2.11 2.082,-1.892 2.083,-1.892 -2.28,-2.109 a 687.5,687.5 0 0 0 -3.903,-3.583 l -1.624,-1.473 -2.012,1.76 c -1.107,0.97 -2.15,1.762 -2.316,1.762 -0.167,0 -1.22,-0.782 -2.34,-1.737 -2.35,-2.005 -1.507,-2.285 -6.764,2.248 -1.788,1.543 -3.252,2.916 -3.252,3.052 0,0.136 0.963,1.081 2.139,2.1 l 2.138,1.852 -2.227,2.065 -2.226,2.064 4.047,3.88 4.048,3.879 2.214,-2.195 2.215,-2.195 z m -22.952,-16.854 c 1.088,-0.97 2.09,-1.764 2.227,-1.764 0.137,0 1.199,0.823 2.36,1.828 1.497,1.298 2.243,1.733 2.57,1.5 1.257,-0.903 7.537,-6.359 7.56,-6.568 0.014,-0.133 -0.941,-1 -2.123,-1.929 l -2.148,-1.688 1.342,-1.07 c 0.737,-0.588 1.72,-1.392 2.182,-1.786 l 0.84,-0.716 -4.079,-2.929 -4.079,-2.928 -2.203,1.58 -2.204,1.582 -2.216,-1.582 -2.216,-1.581 -2.56,1.853 a 296.579,296.579 0 0 0 -4.07,2.999 l -1.512,1.145 2.182,1.678 2.18,1.678 -0.858,0.733 c -0.473,0.403 -1.47,1.22 -2.216,1.814 l -1.356,1.081 3.988,3.417 c 2.193,1.88 4.086,3.417 4.208,3.417 0.122,0 1.112,-0.794 2.201,-1.764 z m 36.324,-0.055 2.099,-1.818 1.92,1.897 1.921,1.897 3.523,-3.51 3.523,-3.509 -1.788,-1.81 -1.788,-1.811 1.792,-1.726 1.791,-1.726 -3.526,-2.942 -3.526,-2.941 -1.992,1.58 -1.992,1.58 -2.05,-1.59 -2.048,-1.592 -3.635,2.808 c -2,1.544 -3.635,2.976 -3.635,3.183 0,0.207 0.847,1.05 1.882,1.874 l 1.882,1.499 -2.058,1.856 c -1.832,1.653 -2,1.916 -1.53,2.39 0.932,0.938 6.875,6.215 7.008,6.222 0.07,0.004 1.073,-0.81 2.227,-1.81 z m -54.743,-14.761 c 1.04,-0.776 2.047,-1.411 2.237,-1.411 0.19,0 1.186,0.635 2.214,1.411 1.028,0.776 2.025,1.411 2.216,1.411 0.43,0 7.798,-5.292 7.795,-5.599 0,-0.122 -0.873,-0.777 -1.938,-1.456 -1.065,-0.68 -1.938,-1.34 -1.939,-1.466 0,-0.127 0.893,-0.736 1.985,-1.352 2.394,-1.351 2.419,-1.313 -2.489,-3.919 l -3.5,-1.859 -2.17,1.16 -2.17,1.159 -2.208,-1.115 -2.21,-1.116 -3.484,1.973 c -1.917,1.086 -3.578,2.124 -3.69,2.307 -0.114,0.183 0.594,0.826 1.574,1.429 0.979,0.602 1.78,1.2 1.78,1.33 -10e-4,0.128 -0.799,0.777 -1.774,1.442 -0.974,0.664 -1.72,1.36 -1.658,1.547 0.148,0.445 6.67,5.454 7.16,5.5 0.208,0.02 1.229,-0.6 2.27,-1.376 z m 36.906,0 c 1.028,-0.776 2.006,-1.411 2.174,-1.411 0.167,0 1.155,0.635 2.195,1.411 1.04,0.776 2.026,1.411 2.19,1.411 0.165,0 1.974,-1.26 4.02,-2.8 l 3.72,-2.802 -1.525,-1.108 c -0.84,-0.61 -1.762,-1.243 -2.052,-1.406 -0.614,-0.347 -0.703,-0.251 1.693,-1.843 l 1.873,-1.245 -2.755,-1.582 c -5.273,-3.028 -4.738,-2.903 -7.16,-1.68 l -2.12,1.07 -2.205,-1.116 -2.205,-1.117 -3.214,1.69 c -1.768,0.93 -3.574,1.963 -4.015,2.295 l -0.8,0.604 1.986,1.136 c 1.092,0.625 1.985,1.244 1.984,1.375 0,0.131 -0.873,0.794 -1.938,1.474 -1.065,0.679 -1.898,1.35 -1.85,1.49 0.12,0.361 7.424,5.559 7.815,5.562 0.176,0.002 1.162,-0.632 2.19,-1.408 z m -18.443,-11.825 2.259,-1.242 2.181,1.233 2.182,1.233 4.119,-2.182 4.119,-2.182 -2.021,-0.862 c -1.91,-0.815 -2.561,-1.427 -1.58,-1.485 0.242,-0.015 1.076,-0.314 1.852,-0.665 l 1.41,-0.639 -1.057,-0.42 c -0.582,-0.23 -2.392,-0.806 -4.021,-1.278 -2.909,-0.844 -3.001,-0.85 -5.077,-0.267 -1.976,0.555 -2.26,0.555 -4.32,0.006 l -2.204,-0.587 -3.654,1.081 c -2.01,0.595 -3.788,1.212 -3.951,1.37 -0.163,0.16 0.512,0.557 1.5,0.885 0.987,0.328 1.795,0.723 1.795,0.878 0,0.154 -0.794,0.622 -1.764,1.04 -0.97,0.417 -1.762,0.873 -1.76,1.013 0.004,0.193 3.654,2.23 7.657,4.273 0.041,0.021 1.092,-0.52 2.335,-1.203 z"
       id="path16" />
    <path
       style="fill:#ce141d;stroke-width:1"
       d="m 33.995,68.278713 c -0.96,-1.077 -2.048,-2.345 -2.42,-2.818 l -0.676,-0.86 3.814,-3.87 3.814,-3.87 1.793,1.77 1.792,1.77 2.986,-2.506 c 4.411,-3.703 4.16,-3.34 2.968,-4.276 a 67.262,67.262 0 0 1 -1.869,-1.529 l -0.842,-0.723 2.952,-1.967 a 218.803,218.803 0 0 1 4.473,-2.911 l 1.52,-0.944 2.184,1.22 2.183,1.221 3.85,-2.148 3.85,-2.149 -1.998,-0.862 c -1.099,-0.475 -1.998,-0.967 -1.998,-1.095 0,-0.292 6.182,-2.712 8.275,-3.24 1.337,-0.336 1.883,-0.29 3.667,0.313 l 2.095,0.708 4.006,-1.17 c 4.075,-1.19 4.16,-1.305 1.36,-1.859 l -1.587,-0.314 2.469,-0.321 c 3.194,-0.416 12.35,-0.414 15.522,0.003 1.358,0.178 2.152,0.389 1.764,0.467 -0.388,0.079 -1.339,0.306 -2.113,0.506 l -1.407,0.362 4.025,1.155 4.024,1.155 2.125,-0.717 c 1.821,-0.615 2.34,-0.66 3.645,-0.31 2.275,0.608 8.222,2.935 8.222,3.217 0,0.135 -0.794,0.617 -1.764,1.072 -0.97,0.454 -1.758,0.918 -1.75,1.03 0.006,0.113 1.673,1.11 3.703,2.218 l 3.691,2.014 2.09,-1.245 2.09,-1.245 3.466,2.17 c 1.907,1.192 3.943,2.55 4.524,3.017 l 1.057,0.849 -0.87,0.61 a 24.473,24.473 0 0 0 -1.87,1.504 l -0.998,0.896 3.458,2.87 3.458,2.869 1.66,-1.547 c 0.914,-0.85 1.784,-1.546 1.934,-1.546 0.374,0 7.518,7.144 7.518,7.517 0,0.164 -1.071,1.474 -2.381,2.91 l -2.381,2.613 -2.84,0.006 c -1.584,0.004 -3.01,-0.164 -3.224,-0.377 -0.276,-0.277 -0.45,-0.277 -0.62,0 -0.13,0.21 -0.732,0.383 -1.336,0.383 h -1.1 l 0.837,-0.89 0.835,-0.889 -1.829,-1.852 -1.829,-1.852 1.75,-1.756 1.75,-1.757 -3.514,-2.941 -3.514,-2.942 -1.992,1.58 -1.993,1.581 -2.04,-1.584 -2.039,-1.583 -3.532,2.674 c -1.942,1.472 -3.643,2.856 -3.78,3.076 -0.142,0.231 0.255,0.793 0.94,1.328 0.653,0.51 1.55,1.245 1.994,1.634 l 0.807,0.705 -2.125,1.743 -2.125,1.743 0.95,0.991 0.95,0.991 h -1.23 c -0.677,0 -1.422,-0.19 -1.654,-0.423 -0.33,-0.33 -0.518,-0.33 -0.847,0 -0.547,0.547 -7.392,0.581 -7.933,0.04 -0.276,-0.277 -0.45,-0.277 -0.62,0 -0.13,0.21 -0.903,0.378 -1.716,0.372 l -1.479,-0.011 0.97,-0.724 c 0.534,-0.398 0.97,-0.856 0.97,-1.017 0,-0.16 -0.95,-1.087 -2.113,-2.059 l -2.114,-1.766 1.714,-1.259 c 2.902,-2.13 2.974,-1.889 -1.532,-5.124 l -4.045,-2.904 -2.203,1.581 -2.203,1.581 -2.213,-1.579 -2.213,-1.579 -3.798,2.716 c -2.088,1.494 -3.93,2.836 -4.09,2.984 -0.161,0.147 0.685,1.02 1.88,1.94 l 2.174,1.672 -1.343,1.104 c -0.738,0.607 -1.736,1.44 -2.217,1.853 l -0.874,0.749 1.042,0.915 1.042,0.916 -1.253,0.01 c -0.688,0.007 -1.442,-0.178 -1.675,-0.411 -0.33,-0.33 -0.518,-0.33 -0.847,0 -0.274,0.273 -1.677,0.422 -3.969,0.42 l -3.545,-0.004 -3.238,-2.787 -3.237,-2.787 2.137,-1.679 c 1.717,-1.349 2.04,-1.754 1.643,-2.06 -0.272,-0.21 -2.032,-1.547 -3.912,-2.972 l -3.418,-2.59 -2.046,1.575 -2.045,1.574 -2.005,-1.548 -2.005,-1.549 -3.163,2.633 c -1.74,1.448 -3.286,2.83 -3.435,3.072 -0.176,0.284 0.338,0.975 1.458,1.96 l 1.729,1.521 -2.805,2.822 -2.805,2.821 -2.831,-0.02 -2.83,-0.019 -1.743,-1.958 z m 75.413,-10.761 c 0.42,0.21 1.479,0.917 2.352,1.572 l 1.588,1.191 3.813,-2.923 3.813,-2.923 -1.52,-1.104 c -0.836,-0.608 -1.757,-1.239 -2.046,-1.402 -0.615,-0.347 -0.703,-0.251 1.693,-1.843 l 1.872,-1.245 -2.754,-1.582 c -5.274,-3.028 -4.738,-2.903 -7.16,-1.68 l -2.121,1.07 -2.205,-1.116 -2.205,-1.117 -3.214,1.69 c -1.767,0.93 -3.574,1.963 -4.014,2.295 l -0.8,0.604 1.985,1.136 c 1.093,0.625 1.985,1.244 1.984,1.375 0,0.131 -0.873,0.794 -1.938,1.474 -1.065,0.679 -1.898,1.348 -1.85,1.488 0.047,0.139 1.832,1.506 3.967,3.037 l 3.88,2.785 2.058,-1.582 c 1.767,-1.358 2.166,-1.528 2.822,-1.2 z m -39.586,1.116 c 0.982,-0.776 1.955,-1.411 2.162,-1.411 0.208,0 1.218,0.635 2.246,1.411 1.028,0.776 2.026,1.411 2.216,1.411 0.43,0 7.798,-5.292 7.796,-5.599 -0.001,-0.122 -0.874,-0.777 -1.939,-1.456 -1.065,-0.68 -1.937,-1.34 -1.938,-1.466 -10e-4,-0.127 0.892,-0.736 1.985,-1.352 2.394,-1.351 2.418,-1.313 -2.49,-3.919 l -3.5,-1.858 -2.17,1.159 -2.169,1.159 -2.209,-1.115 -2.21,-1.116 -3.484,1.974 c -1.916,1.085 -3.577,2.123 -3.69,2.306 -0.114,0.183 0.595,0.826 1.574,1.429 0.98,0.602 1.78,1.2 1.78,1.33 0,0.128 -0.798,0.777 -1.773,1.442 -0.975,0.664 -1.721,1.36 -1.659,1.547 0.163,0.49 6.698,5.458 7.235,5.5 0.248,0.02 1.255,-0.6 2.237,-1.376 z m 18.42,-11.825 2.26,-1.242 2.18,1.233 2.182,1.233 4.12,-2.182 4.118,-2.182 -2.02,-0.862 c -1.911,-0.815 -2.562,-1.427 -1.58,-1.485 0.242,-0.015 1.075,-0.314 1.851,-0.665 l 1.411,-0.639 -1.058,-0.42 c -0.582,-0.23 -2.391,-0.806 -4.02,-1.278 -2.91,-0.844 -3.002,-0.85 -5.078,-0.267 -1.976,0.555 -2.259,0.555 -4.319,0.006 l -2.205,-0.587 -3.654,1.081 c -2.01,0.595 -3.788,1.212 -3.95,1.37 -0.164,0.16 0.51,0.557 1.498,0.885 0.988,0.328 1.796,0.723 1.796,0.878 0,0.154 -0.794,0.622 -1.764,1.04 -0.97,0.417 -1.762,0.873 -1.76,1.013 0.005,0.193 3.654,2.23 7.657,4.273 0.042,0.021 1.093,-0.52 2.335,-1.203 z"
       id="path18" />
    <path
       style="fill:#a90b12;stroke-width:1"
       d="m 46.141,52.018713 c -0.747,-0.611 -0.72,-0.64 3.048,-3.134 5.456,-3.613 4.934,-3.468 7.307,-2.038 l 2.037,1.227 3.579,-1.987 c 1.968,-1.094 3.7,-2.1 3.848,-2.239 0.147,-0.137 -0.607,-0.613 -1.676,-1.056 -1.07,-0.443 -1.944,-0.915 -1.944,-1.049 0,-0.3 6.14,-2.713 8.275,-3.25 1.336,-0.337 1.882,-0.29 3.666,0.312 l 2.096,0.708 4.006,-1.17 c 4.074,-1.19 4.159,-1.305 1.36,-1.859 l -1.588,-0.314 2.47,-0.321 c 3.193,-0.416 12.35,-0.414 15.522,0.003 1.358,0.178 2.152,0.389 1.763,0.467 -0.388,0.079 -1.338,0.306 -2.112,0.506 l -1.407,0.362 4.024,1.155 4.025,1.155 2.124,-0.717 c 1.822,-0.615 2.341,-0.66 3.645,-0.31 2.276,0.608 8.222,2.935 8.222,3.217 0,0.135 -0.793,0.617 -1.764,1.072 -0.97,0.454 -1.76,0.918 -1.758,1.03 0.003,0.113 1.675,1.126 3.715,2.252 l 3.71,2.048 2.115,-1.285 2.115,-1.285 4.397,2.917 c 4.176,2.769 4.369,2.949 3.817,3.559 -0.529,0.584 -1.287,0.642 -8.425,0.642 -6.946,0 -7.93,-0.071 -8.603,-0.618 -0.757,-0.616 -0.755,-0.62 1.245,-1.813 1.992,-1.188 2,-1.2 1.235,-1.776 -0.423,-0.32 -2.183,-1.336 -3.91,-2.259 l -3.141,-1.678 -2.136,1.078 -2.137,1.079 -2.205,-1.118 -2.204,-1.118 -3.97,2.077 c -2.182,1.142 -3.968,2.19 -3.968,2.328 0,0.137 0.873,0.773 1.94,1.41 1.068,0.64 1.94,1.258 1.94,1.375 0,0.793 -2.371,1.033 -10.207,1.033 -7.49,0 -8.493,-0.068 -9.16,-0.618 -0.743,-0.613 -0.734,-0.625 1.373,-1.834 1.166,-0.669 2.001,-1.33 1.855,-1.47 -0.145,-0.14 -1.991,-1.164 -4.101,-2.277 l -3.837,-2.023 -2.246,1.108 -2.247,1.108 -2.14,-1.087 -2.14,-1.088 -3.594,2.007 c -1.978,1.103 -3.725,2.129 -3.884,2.279 -0.158,0.15 0.398,0.685 1.235,1.19 2.748,1.654 2.662,1.555 1.874,2.15 -0.577,0.436 -2.113,0.534 -8.514,0.543 -6.926,0.01 -7.896,-0.058 -8.565,-0.606 z m 42.08,-5.189 2.182,-1.22 2.212,1.226 2.213,1.226 4.128,-2.198 4.128,-2.199 -2.028,-0.885 c -1.934,-0.845 -2.54,-1.402 -1.586,-1.458 0.242,-0.015 1.075,-0.314 1.852,-0.665 l 1.41,-0.639 -1.058,-0.42 c -0.582,-0.23 -2.391,-0.806 -4.02,-1.278 -2.91,-0.844 -3.001,-0.85 -5.077,-0.267 -1.976,0.555 -2.26,0.555 -4.32,0.006 l -2.204,-0.587 -3.655,1.081 c -2.01,0.595 -3.788,1.212 -3.95,1.37 -0.163,0.16 0.511,0.557 1.499,0.885 0.987,0.328 1.795,0.723 1.795,0.876 0,0.154 -0.9,0.669 -2,1.144 l -2,0.863 4.029,2.16 c 2.216,1.188 4.082,2.17 4.147,2.18 0.066,0.01 1.102,-0.53 2.302,-1.2 z"
       id="path20" />
  </g>
</svg>
