<?xml version="1.0" encoding="UTF-8" standalone="no"?>
<!-- Created with Inkscape (http://www.inkscape.org/) -->

<svg
   width="135.46666mm"
   height="135.46666mm"
   viewBox="0 0 135.46666 135.46666"
   version="1.1"
   id="svg5"
   inkscape:version="1.1.1 (3bf5ae0d25, 2021-09-20)"
   sodipodi:docname="asaas.svg"
   xmlns:inkscape="http://www.inkscape.org/namespaces/inkscape"
   xmlns:sodipodi="http://sodipodi.sourceforge.net/DTD/sodipodi-0.dtd"
   xmlns="http://www.w3.org/2000/svg"
   xmlns:svg="http://www.w3.org/2000/svg">
  <sodipodi:namedview
     id="namedview7"
     pagecolor="#ffffff"
     bordercolor="#666666"
     borderopacity="1.0"
     inkscape:pageshadow="2"
     inkscape:pageopacity="0.0"
     inkscape:pagecheckerboard="0"
     inkscape:document-units="mm"
     showgrid="false"
     inkscape:zoom="0.74118967"
     inkscape:cx="-240.15445"
     inkscape:cy="497.17368"
     inkscape:window-width="2560"
     inkscape:window-height="1017"
     inkscape:window-x="-8"
     inkscape:window-y="-8"
     inkscape:window-maximized="1"
     inkscape:current-layer="layer1" />
  <defs
     id="defs2" />
  <g
     inkscape:label="Camada 1"
     inkscape:groupmode="layer"
     id="layer1"
     transform="translate(-212.846,18.114338)">
    <g
       id="g836"
       transform="translate(197.40505,-53.545673)">
      <path
         style="fill:#fcfdfd;stroke-width:0.264583"
         d="m 56.776521,139.6319 c -0.178837,-0.17883 -0.325157,-0.419 -0.325157,-0.53369 0,-0.11469 2.202666,-3.95071 4.894818,-8.52447 2.692148,-4.57376 4.961191,-8.4889 5.042315,-8.7003 0.103219,-0.26899 -0.512337,-0.76709 -2.050548,-1.6593 -5.174686,-3.00145 -8.402568,-7.95505 -8.412611,-12.91023 l -0.0031,-1.54929 -2.988342,-2.94863 c -2.310108,-2.2794 -3.212536,-3.380946 -3.976158,-4.853489 -1.812684,-3.495516 -2.458063,-7.655983 -1.74127,-11.225165 l 0.290065,-1.444334 -1.458121,-2.178452 c -2.53483,-3.787068 -3.774601,-8.155619 -3.567284,-12.569967 0.14102,-3.002738 0.802584,-4.507754 2.246725,-5.111154 0.519898,-0.217229 1.025321,-0.297519 1.123159,-0.178422 0.09784,0.119094 0.861549,1.069917 1.697135,2.112936 4.417708,5.514406 11.197632,10.844082 22.339749,17.561196 5.041809,3.039497 7.959647,6.003004 10.084034,10.241875 1.277065,2.548176 1.69553,4.739016 1.528747,8.003646 -0.231817,4.53766 -0.99215,6.54227 -5.81987,15.34406 -2.892409,5.27338 -2.964455,4.76061 0.746638,5.31409 4.773557,0.71193 16.34613,0.25404 16.697131,-0.66066 0.06361,-0.16575 -1.095618,-2.50057 -2.576052,-5.18849 -4.709964,-8.55154 -5.587243,-11.01036 -5.614079,-15.73504 -0.01757,-3.092436 0.424828,-4.845668 1.969486,-7.805205 2.074045,-3.973835 4.767895,-6.520976 10.69018,-10.107982 4.947789,-2.996774 10.157709,-6.52154 13.096869,-8.860676 2.81201,-2.237933 6.89612,-6.272979 8.70127,-8.59674 1.32986,-1.711907 1.39896,-1.759765 2.15871,-1.494917 2.74618,0.957323 3.43276,6.518301 1.52992,12.391566 -0.71524,2.207631 -1.5932,3.966869 -2.97095,5.953125 l -1.10116,1.5875 0.31351,1.455208 c 0.74772,3.470685 0.19462,7.094442 -1.65459,10.840405 -1.099,2.226241 -1.55752,2.818406 -4.10691,5.303946 -2.83819,2.76711 -2.8698,2.81148 -2.8698,4.02939 0,1.96043 -0.498,3.87051 -1.62411,6.22923 -1.3229,2.77091 -3.46224,4.99375 -6.64411,6.90347 -1.27331,0.76422 -2.31511,1.49869 -2.31511,1.63216 0,0.13346 2.074,3.74423 4.60888,8.02393 5.63499,9.51365 5.46498,9.19098 5.14437,9.76387 -0.21742,0.38851 -0.69362,0.45485 -3.26521,0.45485 -2.187,0 -3.10631,-0.0982 -3.36029,-0.35905 -0.19229,-0.19747 -1.65931,-2.58492 -3.260039,-5.30543 l -2.910417,-4.94639 -0.926041,0.17504 c -3.841845,0.72618 -5.363517,0.93576 -8.797136,1.2116 -4.346477,0.34917 -9.459965,0.0789 -13.95703,-0.73766 -4.219924,-0.76624 -3.533941,-1.22698 -6.953469,4.67022 l -2.991694,5.15937 -3.168928,0.0738 c -2.239682,0.0522 -3.264275,-0.0215 -3.494084,-0.25136 z"
         id="path840" />
      <path
         style="fill:#0027c2;stroke-width:0.264583"
         d="M 15.440949,103.16466 V 35.431335 h 67.73333 67.733331 v 67.733325 67.73333 H 83.174279 15.440949 Z m 50.990278,31.48542 c 3.419528,-5.8972 2.733545,-5.43646 6.953469,-4.67022 4.497065,0.81657 9.610553,1.08683 13.95703,0.73766 3.433619,-0.27584 4.955291,-0.48542 8.797136,-1.2116 l 0.926041,-0.17504 2.910417,4.94639 c 1.60073,2.72051 3.06775,5.10796 3.26004,5.30543 0.25398,0.26082 1.17329,0.35905 3.36029,0.35905 2.57159,0 3.04779,-0.0663 3.26521,-0.45485 0.32061,-0.57289 0.49062,-0.25022 -5.14437,-9.76387 -2.53488,-4.2797 -4.60888,-7.89047 -4.60888,-8.02393 0,-0.13347 1.0418,-0.86794 2.31511,-1.63216 3.18187,-1.90972 5.32121,-4.13256 6.64411,-6.90347 1.12611,-2.35872 1.62411,-4.2688 1.62411,-6.22923 0,-1.21791 0.0316,-1.26228 2.8698,-4.02939 2.54939,-2.48554 3.00791,-3.077705 4.10691,-5.303946 1.84921,-3.745963 2.40231,-7.36972 1.65459,-10.840405 l -0.31351,-1.455208 1.10116,-1.5875 c 1.37775,-1.986256 2.25571,-3.745494 2.97095,-5.953125 1.90284,-5.873265 1.21626,-11.434243 -1.52992,-12.391566 -0.75975,-0.264848 -0.82885,-0.21699 -2.15871,1.494917 -1.80515,2.323761 -5.88926,6.358807 -8.70127,8.59674 -2.93916,2.339136 -8.14908,5.863902 -13.09687,8.860676 -5.922285,3.587006 -8.616135,6.134147 -10.69018,10.107982 -1.544658,2.959537 -1.987049,4.712769 -1.969486,7.805205 0.02684,4.72468 0.904115,7.1835 5.614079,15.73504 1.480434,2.68792 2.639658,5.02274 2.576052,5.18849 -0.351001,0.9147 -11.923574,1.37259 -16.697131,0.66066 -3.711093,-0.55348 -3.639047,-0.0407 -0.746638,-5.31409 4.82772,-8.80179 5.588053,-10.8064 5.81987,-15.34406 0.166783,-3.26463 -0.251682,-5.45547 -1.528747,-8.003646 C 77.847502,90.922143 74.929664,87.958636 69.887855,84.919139 58.745738,78.202025 51.965814,72.872349 47.548106,67.357943 46.71252,66.314924 45.948811,65.364101 45.850971,65.245007 45.753133,65.12591 45.24771,65.2062 44.727812,65.423429 c -1.444141,0.6034 -2.105705,2.108416 -2.246725,5.111154 -0.207317,4.414348 1.032454,8.782899 3.567284,12.569967 l 1.458121,2.178452 -0.290065,1.444334 c -0.716793,3.569182 -0.07141,7.729649 1.74127,11.225165 0.763622,1.472543 1.66605,2.574089 3.976158,4.853489 l 2.988342,2.94863 0.0031,1.54929 c 0.01005,4.95518 3.237925,9.90878 8.412611,12.91023 1.538211,0.89221 2.153767,1.39031 2.050548,1.6593 -0.08112,0.2114 -2.350167,4.12654 -5.042316,8.7003 -2.692159,4.57376 -4.894825,8.40978 -4.894825,8.52447 0,0.69713 0.772898,0.856 3.819241,0.78505 l 3.168928,-0.0738 z"
         id="path838" />
    </g>
  </g>
</svg>
