<svg width="160mm" height="160mm" viewBox="0 0 160 160" xmlns="http://www.w3.org/2000/svg"><path style="fill:#000a3a;stroke-width:.15875;paint-order:markers stroke fill;fill-opacity:1" d="M53.894 56.076h160v160h-160z" transform="translate(-53.894 -56.076)"/><path style="fill:#f01010;stroke-width:.999999" d="M174.617 165.552c-.403-.187-1.057-.684-1.452-1.104-.584-.62-.737-1.027-.817-2.17-.082-1.175-.003-1.55.479-2.264.708-1.052 1.96-1.711 3.259-1.716 1.572-.006 5.235-.851 7.342-1.695 5.448-2.181 10.231-7.04 12.355-12.547 1.147-2.976 1.54-5.499 1.403-8.995-.236-6.004-2.253-10.643-6.437-14.805-4.031-4.01-7.756-5.689-14.874-6.705-1.189-.17-1.856-.406-2.287-.808-1.917-1.79-1.688-4.721.477-6.095.721-.457 1.053-.493 3.489-.37 10.535.53 20.568 7.73 24.958 17.91 2.582 5.99 3.044 13.73 1.2 20.111-2.635 9.114-9.81 16.723-18.695 19.826-3.897 1.36-9.024 2.064-10.4 1.427z" transform="translate(-53.894 -56.076)"/><path style="fill:#fff;stroke-width:.999999" d="M122.005 165.41c-5.02-1.08-9.15-4.511-9.169-7.616-.008-1.29.65-2.99 1.567-4.051l.807-.934 1.664 1.773c4.325 4.61 10.55 5.17 13.906 1.248 1.457-1.702 1.747-2.53 1.748-4.992 0-1.348-.094-2.178-.243-2.14-.135.034-1.071.36-2.08.724-2.503.902-6.566.964-9.187.14-6.857-2.158-11.203-9.47-9.812-16.51.675-3.414 2.646-6.606 5.339-8.643 3.056-2.313 5.84-3.18 9.62-2.998 2.317.111 3.098.3 5.927 1.438.763.307.814.287 1.713-.68 1.224-1.316 2.301-1.835 4.104-1.98 1.145-.092 1.557-.033 1.798.256.247.298.296 3.732.237 16.608l-.074 16.232-.69 1.955c-1.668 4.718-4.76 7.917-9.22 9.54-1.455.529-2.368.685-4.405.754-1.413.047-3.01-.008-3.55-.125zm6.47-23.006c1.392-.71 2.622-1.854 3.375-3.14.522-.89.67-1.504.756-3.143.096-1.834.041-2.172-.548-3.376-.364-.745-1.184-1.814-1.85-2.412-4.49-4.037-11.593-1.062-11.95 5.005-.109 1.842.149 2.823 1.16 4.419 1.885 2.97 6.041 4.186 9.057 2.647zm45.923 7.841c-1.561-1.03-1.726-1.626-1.86-6.745l-.123-4.653-4.783-.122c-4.02-.103-4.889-.191-5.442-.554-1.984-1.303-1.97-4.186.03-5.686.584-.439 1.144-.502 5.423-.612l4.772-.122.122-4.179c.118-4.032.146-4.214.783-5.176.78-1.176 2.634-2.17 4.49-2.406.92-.117 1.307-.068 1.524.194.2.242.31 2.077.356 5.958l.066 5.61 4.772.121c4.46.115 4.822.159 5.547.676 2.058 1.468 1.846 4.483-.409 5.834-.202.12-2.514.275-5.138.342l-4.772.122-.122 4.772c-.116 4.503-.155 4.817-.693 5.57-1.079 1.513-3.127 1.99-4.543 1.056zm-99.435-.046c-5.34-.89-9.867-4.678-11.607-9.714-.485-1.405-.565-2.108-.556-4.941.011-3.726.315-4.844 2.036-7.5 2.626-4.048 6.633-6.367 11.468-6.634 2.683-.148 4.71.2 6.881 1.186.859.389 1.659.647 1.778.573.12-.073.217-3.079.217-6.678v-6.545l.71-1.119c.83-1.309 2.598-2.29 4.58-2.542 2.21-.281 2.051-1.884 2.05 20.688-.001 13.516-.086 20.008-.27 20.67-.729 2.626-4.002 3.433-5.964 1.47-.465-.465-.946-.845-1.07-.845-.124 0-.95.34-1.835.753-1.62.759-4.69 1.45-6.276 1.412-.471-.01-1.435-.116-2.142-.234zm4.032-7.17c1.659-.442 2.76-1.138 3.962-2.504 1.32-1.498 1.824-3.1 1.681-5.335-.25-3.908-3.023-6.682-6.921-6.928-3.156-.198-5.79 1.317-7.202 4.145-1.335 2.672-.939 5.936.987 8.124 1.208 1.372 2.386 2.11 3.99 2.5 1.647.399 1.994.399 3.503-.003zm21.94 6.745c-.418-.263-1.024-.847-1.345-1.298l-.585-.82-.07-11.799c-.067-11.282-.049-11.839.406-12.724.942-1.832 2.438-2.798 4.829-3.118 2.195-.295 2.054-1.225 2.053 13.528-.001 8.382-.093 13.219-.263 13.83-.144.518-.618 1.33-1.054 1.806-.657.718-.998.883-2 .97-.91.078-1.397-.015-1.97-.375zm47.635-.078c-.464-.315-1.07-.958-1.346-1.429-.484-.825-.505-1.263-.573-12.356-.062-10.078-.022-11.628.322-12.53.427-1.118 1.721-2.401 2.912-2.887 1.183-.481 2.997-.67 3.557-.371.492.263.498.436.498 13.382 0 9.112-.085 13.4-.279 14.047-.68 2.27-3.29 3.369-5.09 2.144z" transform="translate(-53.894 -56.076)"/></svg>