<?xml version="1.0" encoding="UTF-8" standalone="no"?>
<svg
   width="586.72498"
   height="586.30701"
   viewBox="0 0 155.23758 155.127"
   version="1.1"
   id="svg8"
   sodipodi:docname="exodus.svg"
   inkscape:version="1.1.1 (3bf5ae0d25, 2021-09-20)"
   xmlns:inkscape="http://www.inkscape.org/namespaces/inkscape"
   xmlns:sodipodi="http://sodipodi.sourceforge.net/DTD/sodipodi-0.dtd"
   xmlns="http://www.w3.org/2000/svg"
   xmlns:svg="http://www.w3.org/2000/svg">
  <defs
     id="defs12" />
  <sodipodi:namedview
     id="namedview10"
     pagecolor="#ffffff"
     bordercolor="#666666"
     borderopacity="1.0"
     inkscape:pageshadow="2"
     inkscape:pageopacity="0.0"
     inkscape:pagecheckerboard="0"
     showgrid="false"
     inkscape:zoom="0.70710678"
     inkscape:cx="507.70267"
     inkscape:cy="324.56201"
     inkscape:window-width="2560"
     inkscape:window-height="1017"
     inkscape:window-x="-8"
     inkscape:window-y="-8"
     inkscape:window-maximized="1"
     inkscape:current-layer="svg8" />
  <path
     style="fill:#f2f2f2;stroke-width:0.15875;paint-order:markers stroke fill"
     d="M 0,0 H 155.23758 V 155.127 H 0 Z"
     id="path2" />
  <path
     style="fill:#4bc1f9;stroke-width:1"
     d="m 25.293001,112.707 c 0,-0.736 43.507,-43.955 44.247,-43.955 0.558,0 0.675,4.642 0.56,22.049 l -0.148,22.049 -2.932,0.17 c -5.645,0.325 -6.329,-1.134 -6.334,-13.512 -10e-4,-4.557 -0.184,-8.286 -0.405,-8.286 -0.22,0 -4.964,4.538 -10.54,10.085 -6.289,6.256 -10.929,10.415 -12.22,10.954 -2.16,0.903 -12.228,1.27 -12.228,0.446 z m 58.235,0.05 c -0.206,-0.207 -0.374,-10.571 -0.374,-23.033 0,-17.796 0.15,-22.657 0.705,-22.657 0.736,0 45.919999,44.913 45.919999,45.645 0,0.821 -10.075,0.449 -12.232,-0.453 -1.312,-0.548 -6.156,-4.922 -13.061,-11.796 -6.036999,-6.01 -11.156999,-10.926 -11.378999,-10.926 -0.222,0 -0.403,4.26 -0.403,9.466 0,9.815 -0.468,12.614 -2.27,13.578 -1.157,0.62 -6.33,0.75 -6.906,0.175 z m -59.173,-20.738 c -0.689,-1.794 0.265,-9.051 1.517,-11.537 0.716,-1.424 4.88,-6.14 9.88,-11.19 4.752,-4.802 8.64,-8.963 8.64,-9.248 0,-0.285 -4.034,-4.58 -8.964,-9.542 -5.815,-5.854 -9.292,-9.808 -9.9,-11.257 -1.217,-2.907 -1.784,-11.172 -0.807,-11.776 0.466,-0.289 6.11,4.974 16.927,15.787 8.924,8.92 16.227,16.476 16.227,16.789 0,0.657 -32.089,32.862 -32.744,32.862 -0.24,0 -0.589,-0.4 -0.776,-0.888 z M 113.345,76.754 c -8.88,-8.885 -16.146999,-16.408 -16.146999,-16.717 0,-0.309 7.301999,-7.86 16.226999,-16.781 10.817,-10.813 16.46,-16.076 16.927,-15.787 0.977,0.604 0.41,8.87 -0.808,11.776 -0.607,1.449 -4.085,5.403 -9.9,11.257 -4.93,4.963 -8.964,9.257 -8.964,9.542 0,0.285 3.888,4.446 8.641,9.248 10.293,10.397 11.18,11.856 11.25,18.505 0.03,2.704 -0.19,4.804 -0.513,4.916 -0.31,0.108 -7.831,-7.074 -16.712,-15.959 z m -30.056999,-46.623 0.147,-22.892 2.932,-0.17 c 5.715,-0.329 6.329,1.061 6.333,14.355 0.001,5.02 0.185,9.128 0.407,9.128 0.221,0 5.214,-4.787 11.093999,-10.639 12.466,-12.404 13.296,-12.924 20.663,-12.942 2.704,-0.007 4.916,0.178 4.916,0.411 0,0.736 -45.192999,45.64 -45.932999,45.64 -0.558,0 -0.675,-4.81 -0.56,-22.891 z m -35.962,-0.296 c -12.118,-12.122 -22.033,-22.228 -22.033,-22.458 0,-0.23 2.211,-0.413 4.915,-0.406 7.293,0.018 8.272,0.615 19.822,12.1 5.418,5.388 10.03,9.796 10.252,9.796 0.22,0 0.403,-3.729 0.404,-8.286 0.005,-12.378 0.69,-13.837 6.334,-13.511 l 2.932,0.17 0.148,21.873 c 0.08,12.03 -0.053,22.073 -0.297,22.317 -0.244,0.244 -10.358,-9.474 -22.477,-21.595 z"
     id="path4" />
  <path
     style="fill:#4b5056;stroke-width:1"
     d="m 69.671001,138.635 a 2.878,2.878 0 0 1 -1.007,-0.888 l -0.384,-0.58 -0.04,-8.267 c -0.038,-8.2 -0.036,-8.273 0.27,-8.905 0.479,-0.989 1.184,-1.377 2.64,-1.453 1.728,-0.091 2.772,0.356 3.322,1.42 0.309,0.596 0.316,16.925 0.008,17.514 -0.305,0.583 -0.98,1.168 -1.533,1.327 -0.906,0.26 -2.586,0.174 -3.276,-0.168 z m 2.412,-1.628 c 0.224,-0.116 0.447,-0.316 0.496,-0.444 0.153,-0.397 0.103,-15.453 -0.051,-15.742 -0.18,-0.335 -0.85,-0.572 -1.35,-0.476 -0.213,0.04 -0.514,0.236 -0.67,0.435 -0.276,0.35 -0.285,0.608 -0.285,7.936 0,8.2 -0.015,8.042 0.77,8.359 0.446,0.18 0.633,0.168 1.09,-0.068 z M 108.71,138.672 c -0.666,-0.307 -1.139,-0.78 -1.357,-1.356 -0.164,-0.434 -0.213,-3.228 -0.064,-3.619 0.115,-0.297 1.456,-0.985 1.723,-0.882 0.158,0.06 0.202,0.468 0.202,1.88 0,1.611 0.03,1.834 0.287,2.09 0.468,0.468 1.08,0.434 1.547,-0.087 0.294,-0.326 0.324,-0.505 0.324,-1.912 0,-1.988 -0.133,-2.372 -2.138,-6.165 -0.868,-1.642 -1.68,-3.337 -1.806,-3.767 -0.154,-0.527 -0.229,-1.36 -0.229,-2.56 0,-2.09 0.207,-2.67 1.18,-3.313 0.543,-0.36 0.719,-0.396 1.914,-0.396 1.187,0 1.373,0.038 1.9,0.386 0.765,0.507 1.193,1.388 1.193,2.458 0,1.08 -0.19,1.44 -0.952,1.81 -1.033,0.502 -1.062,0.477 -1.062,-0.894 0,-1 -0.05,-1.267 -0.298,-1.582 -0.39,-0.496 -1.105,-0.517 -1.548,-0.046 -0.278,0.296 -0.312,0.492 -0.312,1.772 0,0.964 0.079,1.675 0.24,2.15 0.13,0.39 0.968,2.1 1.86,3.802 0.89,1.701 1.726,3.466 1.857,3.922 0.182,0.64 0.226,1.298 0.19,2.89 -0.046,2.016 -0.056,2.071 -0.462,2.603 -0.228,0.3 -0.681,0.665 -1.007,0.813 -0.8,0.363 -2.399,0.364 -3.182,0.003 z m -13.259999,-0.234 a 2.333,2.333 0 0 1 -0.9,-0.98 c -0.294,-0.607 -0.3,-0.79 -0.3,-9.466 0,-6.688 0.042,-8.888 0.173,-9.018 0.095,-0.095 0.548,-0.173 1.007,-0.173 h 0.835 v 8.757 c 0,8.642 0.004,8.762 0.298,9.136 0.404,0.514 1.372,0.54 1.834,0.048 l 0.311,-0.332 0.037,-8.769 0.038,-8.768 0.97,-0.043 0.971999,-0.042 -0.002,9.107 -0.002,9.107 -0.321,0.564 c -0.518999,0.91 -1.297999,1.234 -2.969999,1.233 -1.214,-0.001 -1.452,-0.045 -1.98,-0.36 z m -53.763,0.122 c -0.165,-0.165 -0.113,-19.17 0.053,-19.48 0.14,-0.26 0.327,-0.28 2.877,-0.28 2.09,0 2.728,0.043 2.726,0.18 -0.002,0.1 -0.18,0.502 -0.396,0.895 -0.445,0.81 -0.656,0.905 -2.054,0.926 -0.522,0.008 -1.02,0.091 -1.115,0.187 -0.123,0.123 -0.173,1.026 -0.173,3.15 0,2.582 0.03,2.989 0.228,3.064 0.125,0.048 0.772,0.088 1.439,0.088 1.386,0 1.448,0.076 0.882,1.076 -0.384,0.678 -0.826,0.933 -1.62,0.936 -0.321,0 -0.661,0.08 -0.756,0.175 -0.125,0.124 -0.173,1.138 -0.173,3.653 0,3.041 0.029,3.492 0.228,3.568 0.125,0.048 1.02,0.088 1.99,0.088 0.97,0 1.8,0.037 1.847,0.083 0.123,0.124 -0.306,1.09 -0.65,1.463 -0.288,0.312 -0.393,0.324 -2.768,0.324 -1.358,0 -2.512,-0.043 -2.565,-0.096 z m 12.277,-0.087 c 0,-0.107 0.677,-2.476 1.503,-5.263 l 1.502,-5.069 -1.286,-4.562 c -0.707,-2.51 -1.286,-4.61 -1.286,-4.67 0,-0.06 0.412,-0.108 0.917,-0.108 0.658,0 0.97,0.064 1.105,0.226 0.103,0.124 0.486,1.333 0.852,2.688 0.366,1.354 0.734,2.485 0.817,2.513 0.086,0.029 0.406,-0.949 0.749,-2.293 0.805,-3.156 0.74,-3.052 1.93,-3.105 0.583,-0.025 0.967,0.015 0.967,0.103 0,0.08 -0.552,2.19 -1.227,4.691 l -1.228,4.546 1.443,5.169 c 0.794,2.842 1.444,5.202 1.444,5.243 0,0.04 -0.476,0.074 -1.057,0.074 h -1.057 l -0.836,-3.273 c -0.46,-1.8 -0.888,-3.333 -0.953,-3.405 -0.159,-0.18 -0.21,-0.032 -1.21,3.513 l -0.872,3.093 -1.108,0.042 c -0.858,0.033 -1.109,-0.002 -1.109,-0.153 z m 27.337,-9.754 v -9.937 l 2.436,0.045 c 2.659,0.05 2.827,0.1 3.526,1.036 0.29,0.39 0.298,0.57 0.336,8.778 l 0.04,8.38 -0.33,0.49 c -0.183,0.27 -0.55,0.638 -0.817,0.818 -0.456,0.307 -0.63,0.327 -2.838,0.327 h -2.353 z m 3.874,7.857 c 0.223,-0.116 0.446,-0.359 0.494,-0.54 0.049,-0.181 0.09,-3.51 0.09,-7.396 0.003,-6.933 -0.003,-7.074 -0.296,-7.446 -0.267,-0.339 -0.395,-0.379 -1.223,-0.379 h -0.924 v 7.901 c 0,6.187 0.039,7.918 0.18,7.974 0.372,0.15 1.287,0.088 1.679,-0.114 z"
     id="path6" />
</svg>
