<?xml version="1.0" encoding="UTF-8" standalone="no"?>
<svg
   width="684"
   height="684.00006"
   viewBox="0 0 180.97475 180.97461"
   version="1.1"
   id="svg6"
   sodipodi:docname="havan.svg"
   inkscape:version="1.1.1 (3bf5ae0d25, 2021-09-20)"
   xmlns:inkscape="http://www.inkscape.org/namespaces/inkscape"
   xmlns:sodipodi="http://sodipodi.sourceforge.net/DTD/sodipodi-0.dtd"
   xmlns="http://www.w3.org/2000/svg"
   xmlns:svg="http://www.w3.org/2000/svg">
  <defs
     id="defs10" />
  <sodipodi:namedview
     id="namedview8"
     pagecolor="#ffffff"
     bordercolor="#666666"
     borderopacity="1.0"
     inkscape:pageshadow="2"
     inkscape:pageopacity="0.0"
     inkscape:pagecheckerboard="0"
     showgrid="false"
     inkscape:zoom="0.62964438"
     inkscape:cx="-19.058377"
     inkscape:cy="548.72244"
     inkscape:window-width="2560"
     inkscape:window-height="1017"
     inkscape:window-x="-8"
     inkscape:window-y="-8"
     inkscape:window-maximized="1"
     inkscape:current-layer="svg6" />
  <path
     style="fill:#063273;fill-opacity:1;stroke-width:0.158749;paint-order:markers stroke fill"
     d="M 9.6277094e-7,4.0371989e-6 H 180.97467 V 180.97468 H 9.6277094e-7 Z"
     id="path2" />
  <path
     style="fill:#ffffff;stroke-width:1"
     d="m 20.870547,127.46066 c -0.043,-0.111 -0.058,-1.177 -0.034,-2.368 l 0.043,-2.166 H 160.14855 v 4.658 l -69.600003,0.039 c -56.972,0.032 -69.615,0.003 -69.678,-0.163 z m 2.26,-9.111 c 0,-0.548 0.05,-0.63 0.428,-0.713 1.414,-0.312 2.063,-0.57 2.348,-0.932 0.712,-0.905 0.718,-0.995 0.718,-11.323 0,-9.724973 -0.002,-9.784973 -0.339,-10.513973 -0.383,-0.831 -1.019,-1.294 -1.977,-1.443 -1.145,-0.177 -1.177,-0.201 -1.177,-0.862 v -0.61 h 11.334 v 0.61 c 0,0.66 -0.033,0.685 -1.178,0.862 -0.845,0.131 -1.54,0.574 -1.881,1.199 -0.245,0.449 -0.285,1.017 -0.328,4.653981 -0.046,4.045992 -0.04,4.146992 0.272,4.313992 0.22,0.118 2.188,0.157 6.38,0.126 5.182,-0.037 6.084,-0.077 6.217,-0.276 0.095,-0.144 0.138,-1.717 0.11,-4.114992 -0.04,-3.519981 -0.073,-3.939981 -0.354,-4.499981 -0.376,-0.75 -1.101,-1.261 -1.984,-1.398 -1.17,-0.182 -1.2,-0.203 -1.2,-0.868 v -0.613 l 5.707,0.041 5.705,0.041 0.048,0.574 c 0.046,0.554 0.028,0.576 -0.543,0.674 -1.833,0.313 -2.467,0.741 -2.814,1.9 -0.262,0.876 -0.261,19.689973 0.001,20.567973 0.346,1.154 0.831,1.46 3.046,1.916 0.308,0.064 0.351,0.155 0.31,0.651 l -0.048,0.577 -5.705,0.04 -5.706,0.042 v -0.62 c 0,-0.552 0.047,-0.63 0.427,-0.706 2.077,-0.42 2.708,-0.927 2.988,-2.4 0.197,-1.042 0.2,-7.456 0.004,-7.767 -0.126,-0.2 -1.023,-0.24 -6.209,-0.277 -4.192,-0.03 -6.16,0.008 -6.38,0.126 -0.312,0.167 -0.319,0.268 -0.272,4.314 0.042,3.613 0.083,4.207 0.323,4.646 0.37,0.678 0.823,0.947 1.997,1.185 l 0.989,0.2 0.047,0.648 0.048,0.647 h -11.352 z m 31.777,0.514 c -0.057,-0.057 -0.103,-0.335 -0.103,-0.618 0,-0.435 0.066,-0.53 0.427,-0.61 1.458,-0.322 2.335,-0.87 3.054,-1.91 0.249,-0.36 2.703,-5.802 5.452,-12.093 2.75,-6.289976 5.113,-11.509973 5.253,-11.596973 a 0.432,0.432 0 0 1 0.506,0 c 0.139,0.087 2.498,5.291997 5.241,11.565973 2.763,6.318 5.223,11.733 5.514,12.138 0.768,1.069 1.591,1.588 3.013,1.9 0.395,0.087 0.432,0.151 0.389,0.673 l -0.048,0.577 -5.322,0.04 c -4.637,0.036 -5.334,0.011 -5.412,-0.194 -0.124,-0.323 0.066,-1.013 0.297,-1.074 0.104,-0.027 0.539,-0.13 0.966,-0.23 1.482,-0.346 1.667,-1.195 0.76,-3.491 -0.308,-0.78 -0.66,-1.575 -0.782,-1.768 l -0.221,-0.352 -4.689,0.041 -4.689,0.041 -0.678,1.52 c -1.276,2.86 -1.063,3.78 0.956,4.122 0.63,0.107 0.65,0.128 0.696,0.766 l 0.048,0.657 h -5.262 c -2.894,0 -5.309,-0.047 -5.366,-0.104 z m 17.05,-10.821 c 0.277,-0.203 0.237,-0.336 -0.845,-2.834 -1.498,-3.459 -1.672,-3.792 -1.923,-3.696 -0.115,0.044 -0.822,1.486 -1.572,3.205 -1.282,2.938 -1.346,3.137 -1.08,3.33 0.406,0.298 5.013,0.293 5.42,-0.006 z m 18.035,10.498 c -0.12,-0.235 -2.29,-5.166 -4.82,-10.957 -2.53,-5.79 -4.813,-10.949973 -5.072,-11.462973 -0.811,-1.606 -1.921,-2.481 -3.608,-2.844 -0.394,-0.084 -0.431,-0.148 -0.388,-0.67 l 0.048,-0.577 h 10.713 l 0.048,0.573 c 0.046,0.555 0.028,0.577 -0.544,0.673 -1.73,0.291 -2.163,0.703 -2.02,1.918 0.103,0.867 5.696,13.823973 6.071,14.063973 0.129,0.083 0.275,0.11 0.325,0.059 0.05,-0.05 0.478,-0.99 0.952,-2.09 0.473,-1.1 1.774,-4.096 2.891,-6.658 2.807,-6.435973 2.81,-6.732973 0.081,-7.291973 -0.284,-0.059 -0.456,-0.214 -0.521,-0.473 -0.222,-0.884 -0.387,-0.86 5.405999,-0.815 l 5.321004,0.04 0.048,0.578 c 0.044,0.522 0.007,0.586 -0.388,0.67 -1.65,0.355 -2.783,1.215 -3.521,2.673 -0.205,0.406 -2.483003,5.593973 -5.061003,11.527973 -2.579,5.935 -4.789,10.948 -4.912,11.14 -0.306,0.478 -0.782,0.443 -1.049,-0.077 z m 7.353,-0.191 c 0,-0.548 0.049,-0.63 0.427,-0.713 1.450999,-0.321 2.335003,-0.872 3.043003,-1.894 0.243,-0.352 2.697,-5.794 5.454,-12.094 2.756,-6.299976 5.125,-11.526973 5.264,-11.613973 0.172,-0.109 0.333,-0.107 0.51,0.005 0.143,0.09 2.478,5.245997 5.19,11.457973 2.713,6.212 5.153,11.639 5.423,12.06 0.738,1.149 1.643,1.747 3.15,2.082 0.394,0.087 0.431,0.152 0.388,0.674 l -0.048,0.577 h -10.713 v -0.527 c 0,-0.591 0.112,-0.675 1.242,-0.935 1.482,-0.34 1.668,-1.191 0.76,-3.487 -0.308,-0.78 -0.66,-1.575 -0.781,-1.769 l -0.222,-0.351 -4.688,0.04 -4.69,0.042 -0.678,1.52 c -1.276,2.86 -1.062,3.78 0.957,4.122 0.63,0.107 0.649,0.127 0.695,0.766 l 0.048,0.656 H 97.345547 Z m 17.156003,-10.309 c 0.279,-0.203 0.252,-0.302 -0.615,-2.29 -1.727,-3.957 -1.916,-4.33 -2.143,-4.242 -0.12,0.045 -0.834,1.486 -1.59,3.202 -1.304,2.966 -1.358,3.13 -1.083,3.332 0.415,0.303 5.016,0.302 5.43,-0.002 z m 14.623,10.825 c -0.058,-0.058 -0.106,-0.337 -0.106,-0.62 0,-0.435 0.067,-0.53 0.427,-0.61 0.893,-0.198 1.062,-0.267 1.548,-0.631 0.963,-0.722 0.975,-0.866 0.975,-11.545 0,-8.09998 -0.036,-9.691973 -0.235,-10.362973 -0.267,-0.898 -0.876,-1.51 -1.663,-1.668 -1.06,-0.214 -1.072,-0.223 -1.021,-0.83 l 0.047,-0.57 h 5.587 l 7.896,10.014973 c 4.708,5.97 8.015,10.035 8.191,10.064 0.287,0.048 0.295,-0.176 0.295,-7.95 0,-5.131992 -0.06,-8.277973 -0.167,-8.778973 -0.271,-1.266 -0.863,-1.733 -2.666,-2.103 -0.38,-0.078 -0.427,-0.156 -0.427,-0.706 v -0.618 h 10.092 v 0.61 c 0,0.603 -0.01,0.613 -0.82,0.848 -0.905,0.264 -1.506,0.804 -1.832,1.647 -0.168,0.435 -0.22,2.876989 -0.263,12.226973 l -0.053,11.684 h -3.952 l -1.237,-1.667 c -3.66,-4.933 -13.215,-16.81 -13.523,-16.81 -0.176,0 -0.212,1.247 -0.211,7.337 0,4.81 0.06,7.545 0.17,7.945 0.093,0.334 0.36,0.8 0.596,1.035 0.387,0.387 0.74,0.528 2.076,0.83 0.394,0.089 0.431,0.153 0.388,0.675 l -0.048,0.577 -4.98,0.041 c -2.738,0.022 -5.026,-0.007 -5.084,-0.065 z M 20.871547,87.868687 c -0.043,-0.11 -0.058,-1.176 -0.034,-2.368 l 0.043,-2.166 H 160.14955 v 4.658 l -69.600003,0.04 c -56.972,0.031 -69.615,0.002 -69.678,-0.164 z m 64.765,-6.785 c -9.619,-0.75 -18.058,-3.268 -24,-7.163 -1.755,-1.15 -4.635,-3.968 -5.415,-5.298 -3.557,-6.065 -0.31,-12.149 8.838,-16.557 13.58,-6.545 35.457003,-6.792 49.538003,-0.56 5.845,2.586 9.876,6.141 11.182,9.86 0.497,1.415 0.5,4.005 0.006,5.345 -2.525,6.85 -13.634,12.501 -27.818003,14.149 -2.452,0.285 -9.83,0.419 -12.332,0.224 z m 9.187,-1.174 c 6.960003,-0.363 14.630003,-2.298 19.744003,-4.982 3.39,-1.78 6.391,-4.27 7.598,-6.308 1.095,-1.848 1.334,-2.66 1.336,-4.537 0.003,-1.894 -0.239,-2.785 -1.195,-4.412 -0.793,-1.35 -3.219,-3.704 -5.042,-4.894 -12.447,-8.123 -36.712003,-8.827 -51.117003,-1.483 -6.19,3.156 -9.455,7.582 -8.706,11.8 1.054,5.937 9.475,11.435 21.041,13.74 5.758,1.146 9.838,1.415 16.341,1.076 z m -16.419,-4.936 c 0,-0.504 0.028,-0.528 0.702,-0.62 1.053,-0.144 1.612,-0.5 1.947,-1.237 0.278,-0.613 0.295,-1.13 0.295,-9.034 0,-7.828 -0.02,-8.426 -0.288,-9.017 -0.316,-0.696 -0.888,-1.048 -1.996,-1.228 -0.6,-0.098 -0.66,-0.148 -0.66,-0.56 v -0.452 h 9.647 l -0.049,0.424 c -0.044,0.379 -0.153,0.451 -1.014,0.676 -1.86,0.484 -1.966,0.732 -2.036,4.773 -0.03,1.736 -0.012,3.325 0.04,3.532 l 0.095,0.377 h 5.348 c 5.323,0 5.349,-0.002 5.527,-0.336 0.127,-0.236 0.159,-1.264 0.109,-3.454 -0.095,-4.135 -0.213,-4.419 -2.03,-4.892 -0.86,-0.225 -0.97,-0.297 -1.014,-0.676 l -0.049,-0.424 h 9.647003 v 0.446 c 0,0.42 -0.053,0.456 -0.905,0.624 -0.504,0.099 -1.062,0.324 -1.26,0.508 -0.782004,0.729 -0.785004,0.768 -0.781004,9.713 0.002,7.867 0.02,8.388 0.298,9 0.335004,0.737 0.894004,1.093 1.947004,1.237 0.674,0.092 0.701,0.116 0.701,0.62 v 0.525 l -4.774003,-0.041 -4.774,-0.041 v -0.454 c 0,-0.427 0.054,-0.465 0.925,-0.663 1.835,-0.417 2.017,-0.888 2.021,-5.215 0.003,-2.702 -0.034,-3.251 -0.23,-3.375 -0.134,-0.085 -2.394,-0.148 -5.376,-0.15 -4.316,-0.002 -5.173,0.034 -5.33,0.224 -0.138,0.166 -0.174,1.107 -0.135,3.532 0.044,2.699 0.1,3.392 0.308,3.772 0.407,0.745 0.857,1.055 1.806,1.245 0.836,0.167 0.887,0.203 0.887,0.63 v 0.454 l -4.774,0.041 -4.775,0.041 z"
     id="path4" />
</svg>
