<svg width="907.087" height="240mm" viewBox="0 0 240 240" xmlns="http://www.w3.org/2000/svg"><path style="fill:#000;stroke-width:.15875;paint-order:markers stroke fill" d="M-135.795 84.317h240v240h-240z" transform="translate(135.795 -84.317)"/><path style="fill:#50c196;stroke-width:1" d="M-84.547 297.745c0-.15 2.5-3.89 5.556-8.313s5.557-8.217 5.557-8.431c0-.215-2.458-3.998-5.463-8.407-3.004-4.409-5.518-8.231-5.587-8.494-.117-.448.177-.478 4.67-.478h4.793l1.124 1.536a356.85 356.85 0 0 1 3.638 5.156c1.382 1.99 2.611 3.589 2.73 3.55.12-.037 1.619-2.327 3.331-5.089l3.113-5.02 4.97-.072c4.853-.07 4.967-.06 4.832.455-.075.29-2.481 4.17-5.346 8.622-2.864 4.451-5.146 8.254-5.07 8.451.075.197 2.466 3.929 5.313 8.294 2.847 4.366 5.177 8.07 5.177 8.231 0 .208-1.458.273-4.961.222l-4.961-.072-3.05-4.875c-1.677-2.681-3.177-4.918-3.333-4.97-.157-.052-1.684 1.93-3.395 4.404-1.711 2.475-3.32 4.74-3.577 5.036-.436.503-.772.537-5.263.537-3.118 0-4.798-.095-4.798-.273zm42.522-.116c-4.052-.886-6.62-4.519-7.605-10.76-.507-3.208-.207-11.984.499-14.606 1.18-4.387 3.121-7.05 5.808-7.967 2.216-.757 6.166-1.06 9.204-.708 1.493.174 3.33.499 4.083.722.753.224 1.446.33 1.54.235.096-.095.233-3.585.305-7.757l.133-7.585h9.525l.067 24.414.068 24.415-4.16-.073-4.161-.073-.599-1.058c-.33-.583-.645-1.178-.702-1.323-.064-.166-.288-.143-.6.062-1.912 1.256-2.928 1.749-4.263 2.068-1.89.451-7.066.448-9.142-.006zm11.931-7.944c1.056-.473 1.642-.905 1.743-1.283.084-.314.155-4.03.157-8.259.002-5.756-.08-7.793-.327-8.106-1.058-1.335-6.528-1.888-8.533-.862-2.154 1.102-3.264 5.206-2.968 10.968.257 5.007.954 6.779 3.102 7.892 1.62.84 4.505.692 6.826-.35zm23.894 7.932c-4.41-.799-7.068-4.147-8.127-10.24-.622-3.58-.398-12.443.39-15.386.745-2.782 1.5-4.22 2.886-5.498 2.74-2.526 6.302-3.312 13.817-3.05 5.707.2 7.417.683 9.386 2.652 1.615 1.615 2.14 2.934 2.55 6.419.344 2.916.006 5.617-.935 7.466-.773 1.517-1.482 2.193-3.196 3.047-2.26 1.126-4.857 1.497-10.47 1.497h-5.068l.187 1.247c.407 2.717 1.495 4.222 3.519 4.868.59.188 3.743.378 7.863.473l6.88.16.073 3.373.074 3.373-8.937-.024c-6.215-.016-9.533-.131-10.892-.377zm10.997-19.693c.828-.55 1.144-1.415 1.143-3.135 0-3.08-1.349-4.321-4.871-4.488-1.842-.087-2.306-.016-3.33.513-1.54.794-2.347 2.344-2.563 4.926-.245 2.917-.521 2.758 4.613 2.655 3.305-.066 4.578-.186 5.008-.47zm11.492 19.499c.171-.327 2.736-4.076 5.697-8.33 2.962-4.253 5.386-7.89 5.386-8.08 0-.191-2.557-4.079-5.683-8.639s-5.619-8.395-5.54-8.521c.078-.127 2.272-.23 4.875-.23h4.734l3.622 5.179c3.003 4.294 3.682 5.119 3.971 4.828.193-.193 1.7-2.493 3.352-5.113l3.002-4.762 4.946-.072c3.069-.045 4.946.025 4.946.184 0 .142-2.381 3.966-5.292 8.5-2.91 4.533-5.291 8.42-5.291 8.636 0 .216 2.3 3.925 5.11 8.241 2.812 4.317 5.19 8.057 5.284 8.311.16.43-.17.463-4.673.463-4.287 0-4.891-.053-5.242-.463-.218-.254-1.687-2.517-3.264-5.027-1.577-2.51-2.994-4.559-3.15-4.552-.156.006-1.593 1.933-3.194 4.282-1.6 2.348-3.188 4.605-3.529 5.015l-.619.745h-9.76zM-95.21 248.087c.26-.405 13.52-18.12 29.465-39.366 15.944-21.246 29.082-38.783 29.194-38.972.136-.228-9.631-13.464-28.994-39.29-16.058-21.422-29.402-39.269-29.653-39.66l-.455-.713.968.404c.532.223 18.359 9.1 39.615 19.729l38.647 19.324 39.558-19.757c21.757-10.866 39.66-19.75 39.787-19.743.126.007.016.34-.243.74-.259.4-13.548 18.187-29.531 39.526-15.983 21.338-29.06 38.96-29.058 39.158 0 .198 13.127 17.884 29.17 39.3 16.042 21.418 29.318 39.188 29.501 39.49.183.302.273.549.199.549-.074 0-17.934-8.9-39.69-19.777l-39.555-19.778-38.828 19.418c-21.355 10.68-39.22 19.583-39.7 19.785l-.87.369z" transform="translate(136.348 -74.037)"/><path style="fill:#10d276;stroke-width:1" d="M-84.353 297.688c.143-.182 2.787-3.998 5.876-8.48l5.617-8.147-.458-.716c-.253-.393-2.823-4.19-5.712-8.436-2.889-4.247-5.252-7.789-5.252-7.871 0-.083 2.065-.151 4.59-.151h4.588l3.57 5.093c1.964 2.801 3.739 5.123 3.944 5.159.23.04 1.593-1.89 3.548-5.027l3.175-5.093 4.697-.072c2.583-.04 4.696.005 4.696.1s-2.337 3.805-5.193 8.244c-2.857 4.44-5.248 8.277-5.313 8.528-.074.282 1.951 3.63 5.299 8.762l5.418 8.305-4.8.072c-2.64.04-4.834-.031-4.877-.159-.211-.635-6.315-10.207-6.558-10.285-.155-.05-1.932 2.293-3.948 5.207l-3.666 5.297h-4.75c-3.761 0-4.696-.068-4.49-.33zm43.462.101c-1.445-.309-3.764-1.46-4.832-2.397-1.243-1.092-2.67-3.944-3.285-6.567-.688-2.931-.695-12.732-.012-15.81.511-2.3 1.623-4.907 2.69-6.306.859-1.126 2.748-2.145 4.778-2.577 2.582-.55 7.784-.419 10.642.268 1.342.322 2.562.51 2.712.418.176-.11.272-2.865.272-7.826v-7.657h9.26v23.923c0 13.158.073 24.112.161 24.342.142.37-.307.418-3.914.418h-4.074l-.714-1.455c-.392-.8-.842-1.455-1-1.455-.156 0-.831.375-1.499.835-2.175 1.497-3.573 1.885-7.084 1.969-1.746.041-3.591-.014-4.1-.123zm9.927-7.464c.98-.303 2.064-.833 2.41-1.179l.628-.629-.004-8.148c-.002-4.481-.1-8.3-.22-8.487-.371-.586-3.009-1.424-4.935-1.568-5.386-.402-7.288 2.349-7.266 10.506.005 1.528.175 3.713.378 4.856.528 2.958 1.435 4.141 3.845 5.013.915.331 3.504.148 5.164-.364zm26.189 7.415c-4.958-.796-7.403-3.163-8.922-8.639-.507-1.83-.574-2.753-.587-8.148-.017-6.445.28-8.816 1.422-11.4 1.134-2.563 3.101-4.223 6.117-5.162 2.102-.654 7.85-.912 12.024-.54 4.007.358 6.052 1.263 7.446 3.295 1.063 1.552 1.364 2.536 1.69 5.543.547 5.018-.734 8.466-3.708 9.98-2.285 1.164-3.667 1.384-9.793 1.556l-5.954.167.028 1.059c.074 2.814 1.442 4.801 3.754 5.453.806.227 3.58.4 7.86.491l6.615.14.074 3.242.074 3.241-8.408-.033c-4.625-.018-9.004-.128-9.732-.245zm9.248-19.411c1.364-.57 1.867-1.539 1.813-3.491-.093-3.346-1.806-4.867-5.478-4.864-4.146.004-5.442 1.349-5.99 6.216-.134 1.195-.111 1.97.066 2.183.41.495 8.387.458 9.59-.044zm12.272 18.697c1.954-2.5 10.729-15.341 10.83-15.849.082-.41-1.396-2.768-5.335-8.505-2.996-4.366-5.52-8.128-5.61-8.361-.145-.379.32-.424 4.364-.424h4.527l1.124 1.536c.618.845 2.255 3.167 3.637 5.16 1.458 2.102 2.669 3.597 2.883 3.558.203-.037 1.81-2.359 3.572-5.16l3.203-5.09 4.564-.003c2.832 0 4.564.098 4.564.26 0 .144-2.377 3.97-5.283 8.502-4.649 7.251-5.247 8.307-4.99 8.8.449.862 10.03 15.58 10.483 16.105.38.439.146.462-4.469.45l-4.87-.013-3.277-5.289c-1.803-2.908-3.41-5.245-3.572-5.192-.303.099-2.17 2.688-5.522 7.66l-1.916 2.843-4.841.002-4.841.002.775-.992zm-110.901-49.627c.104-.172 13.18-17.637 29.056-38.81 15.876-21.173 28.952-38.638 29.056-38.81.204-.336-12.324-17.264-40.69-54.985-9.192-12.223-16.933-22.562-17.203-22.975-.405-.62 4.382 1.686 27.402 13.198 15.342 7.672 32.929 16.431 39.084 19.464l11.19 5.516L22.65 110.54c21.402-10.7 38.964-19.403 39.028-19.34.064.064-12.983 17.602-28.993 38.974-16.01 21.373-29.113 39.02-29.117 39.218-.01.398 10.395 14.414 39.078 52.641 10.517 14.017 19.122 25.526 19.122 25.577 0 .051-17.563-8.648-39.029-19.331l-39.029-19.424-26.257 13.133c-34.566 17.289-51.843 25.796-51.61 25.41z" transform="translate(136.348 -74.037)"/><path style="fill:#0fa465;stroke-width:1" d="M-84.353 297.688c.143-.182 2.787-3.998 5.876-8.48l5.617-8.147-.458-.716c-.253-.393-2.823-4.19-5.712-8.436-2.889-4.247-5.252-7.789-5.252-7.871 0-.083 2.065-.151 4.59-.151h4.588l3.57 5.093c1.964 2.801 3.739 5.123 3.944 5.159.23.04 1.593-1.89 3.548-5.027l3.175-5.093 4.697-.072c2.583-.04 4.696.005 4.696.1s-2.337 3.805-5.193 8.244c-2.857 4.44-5.248 8.277-5.313 8.528-.074.282 1.951 3.63 5.299 8.762l5.418 8.305-4.8.072c-2.64.04-4.834-.031-4.877-.159-.211-.635-6.315-10.207-6.558-10.285-.155-.05-1.932 2.293-3.948 5.207l-3.666 5.297h-4.75c-3.761 0-4.696-.068-4.49-.33zm43.462.101c-1.445-.309-3.764-1.46-4.832-2.397-1.243-1.092-2.67-3.944-3.285-6.567-.688-2.931-.695-12.732-.012-15.81.511-2.3 1.623-4.907 2.69-6.306.859-1.126 2.748-2.145 4.778-2.577 2.582-.55 7.784-.419 10.642.268 1.342.322 2.562.51 2.712.418.176-.11.272-2.865.272-7.826v-7.657h9.26v23.923c0 13.158.073 24.112.161 24.342.142.37-.307.418-3.914.418h-4.074l-.714-1.455c-.392-.8-.842-1.455-1-1.455-.156 0-.831.375-1.499.835-2.175 1.497-3.573 1.885-7.084 1.969-1.746.041-3.591-.014-4.1-.123zm9.927-7.464c.98-.303 2.064-.833 2.41-1.179l.628-.629-.004-8.148c-.002-4.481-.1-8.3-.22-8.487-.371-.586-3.009-1.424-4.935-1.568-5.386-.402-7.288 2.349-7.266 10.506.005 1.528.175 3.713.378 4.856.528 2.958 1.435 4.141 3.845 5.013.915.331 3.504.148 5.164-.364zm26.189 7.415c-4.958-.796-7.403-3.163-8.922-8.639-.507-1.83-.574-2.753-.587-8.148-.017-6.445.28-8.816 1.422-11.4 1.134-2.563 3.101-4.223 6.117-5.162 2.102-.654 7.85-.912 12.024-.54 4.007.358 6.052 1.263 7.446 3.295 1.063 1.552 1.364 2.536 1.69 5.543.547 5.018-.734 8.466-3.708 9.98-2.285 1.164-3.667 1.384-9.793 1.556l-5.954.167.028 1.059c.074 2.814 1.442 4.801 3.754 5.453.806.227 3.58.4 7.86.491l6.615.14.074 3.242.074 3.241-8.408-.033c-4.625-.018-9.004-.128-9.732-.245zm9.248-19.411c1.364-.57 1.867-1.539 1.813-3.491-.093-3.346-1.806-4.867-5.478-4.864-4.146.004-5.442 1.349-5.99 6.216-.134 1.195-.111 1.97.066 2.183.41.495 8.387.458 9.59-.044zm12.272 18.697c1.954-2.5 10.729-15.341 10.83-15.849.082-.41-1.396-2.768-5.335-8.505-2.996-4.366-5.52-8.128-5.61-8.361-.145-.379.32-.424 4.364-.424h4.527l1.124 1.536c.618.845 2.255 3.167 3.637 5.16 1.458 2.102 2.669 3.597 2.883 3.558.203-.037 1.81-2.359 3.572-5.16l3.203-5.09 4.564-.003c2.832 0 4.564.098 4.564.26 0 .144-2.377 3.97-5.283 8.502-4.649 7.251-5.247 8.307-4.99 8.8.449.862 10.03 15.58 10.483 16.105.38.439.146.462-4.469.45l-4.87-.013-3.277-5.289c-1.803-2.908-3.41-5.245-3.572-5.192-.303.099-2.17 2.688-5.522 7.66l-1.916 2.843-4.841.002-4.841.002.775-.992zm17.77-63.013c-1.818-.843-13.993-6.839-27.053-13.325l-23.746-11.794-.039-23.899c-.02-13.144-.11-30.685-.199-38.98l-.161-15.081-9.506 19.116c-5.229 10.514-9.594 19.116-9.7 19.116-.107 0-2.432-3.006-5.165-6.68-2.734-3.675-9.632-12.932-15.328-20.572-5.697-7.64-11.258-15.216-12.359-16.835l-2-2.945 2.065-8.251c1.137-4.538 2.122-8.306 2.189-8.373.217-.217 8.049 3.558 29.36 14.152l20.828 10.354 38.93-19.466C44.043 99.844 61.614 91.137 61.678 91.2c.064.065-12.983 17.603-28.993 38.975-16.01 21.373-29.113 39.021-29.117 39.22-.005.198 3.6 5.199 8.012 11.112 28.45 38.136 30.075 40.362 30.086 41.205.013.99-3.309 13.864-3.573 13.848-.149-.009-1.758-.705-3.577-1.547z" transform="translate(136.348 -74.037)"/><path style="fill:#106876;stroke-width:1" d="M-84.353 297.688c.143-.182 2.787-3.998 5.876-8.48l5.617-8.147-.458-.716c-.253-.393-2.823-4.19-5.712-8.436-2.889-4.247-5.252-7.789-5.252-7.871 0-.083 2.065-.151 4.59-.151h4.588l3.57 5.093c1.964 2.801 3.739 5.123 3.944 5.159.23.04 1.593-1.89 3.548-5.027l3.175-5.093 4.697-.072c2.583-.04 4.696.005 4.696.1s-2.337 3.805-5.193 8.244c-2.857 4.44-5.248 8.277-5.313 8.528-.074.282 1.951 3.63 5.299 8.762l5.418 8.305-4.8.072c-2.64.04-4.834-.031-4.877-.159-.211-.635-6.315-10.207-6.558-10.285-.155-.05-1.932 2.293-3.948 5.207l-3.666 5.297h-4.75c-3.761 0-4.696-.068-4.49-.33zm43.462.101c-1.445-.309-3.764-1.46-4.832-2.397-1.243-1.092-2.67-3.944-3.285-6.567-.688-2.931-.695-12.732-.012-15.81.511-2.3 1.623-4.907 2.69-6.306.859-1.126 2.748-2.145 4.778-2.577 2.582-.55 7.784-.419 10.642.268 1.342.322 2.562.51 2.712.418.176-.11.272-2.865.272-7.826v-7.657h9.26v23.923c0 13.158.073 24.112.161 24.342.142.37-.307.418-3.914.418h-4.074l-.714-1.455c-.392-.8-.842-1.455-1-1.455-.156 0-.831.375-1.499.835-2.175 1.497-3.573 1.885-7.084 1.969-1.746.041-3.591-.014-4.1-.123zm9.927-7.464c.98-.303 2.064-.833 2.41-1.179l.628-.629-.004-8.148c-.002-4.481-.1-8.3-.22-8.487-.371-.586-3.009-1.424-4.935-1.568-5.386-.402-7.288 2.349-7.266 10.506.005 1.528.175 3.713.378 4.856.528 2.958 1.435 4.141 3.845 5.013.915.331 3.504.148 5.164-.364zm26.189 7.415c-4.958-.796-7.403-3.163-8.922-8.639-.507-1.83-.574-2.753-.587-8.148-.017-6.445.28-8.816 1.422-11.4 1.134-2.563 3.101-4.223 6.117-5.162 2.102-.654 7.85-.912 12.024-.54 4.007.358 6.052 1.263 7.446 3.295 1.063 1.552 1.364 2.536 1.69 5.543.547 5.018-.734 8.466-3.708 9.98-2.285 1.164-3.667 1.384-9.793 1.556l-5.954.167.028 1.059c.074 2.814 1.442 4.801 3.754 5.453.806.227 3.58.4 7.86.491l6.615.14.074 3.242.074 3.241-8.408-.033c-4.625-.018-9.004-.128-9.732-.245zm9.248-19.411c1.364-.57 1.867-1.539 1.813-3.491-.093-3.346-1.806-4.867-5.478-4.864-4.146.004-5.442 1.349-5.99 6.216-.134 1.195-.111 1.97.066 2.183.41.495 8.387.458 9.59-.044zm12.272 18.697c1.954-2.5 10.729-15.341 10.83-15.849.082-.41-1.396-2.768-5.335-8.505-2.996-4.366-5.52-8.128-5.61-8.361-.145-.379.32-.424 4.364-.424h4.527l1.124 1.536c.618.845 2.255 3.167 3.637 5.16 1.458 2.102 2.669 3.597 2.883 3.558.203-.037 1.81-2.359 3.572-5.16l3.203-5.09 4.564-.003c2.832 0 4.564.098 4.564.26 0 .144-2.377 3.97-5.283 8.502-4.649 7.251-5.247 8.307-4.99 8.8.449.862 10.03 15.58 10.483 16.105.38.439.146.462-4.469.45l-4.87-.013-3.277-5.289c-1.803-2.908-3.41-5.245-3.572-5.192-.303.099-2.17 2.688-5.522 7.66l-1.916 2.843-4.841.002-4.841.002.775-.992zm-1.28-72.5c-1.856-.792-31.173-15.28-31.433-15.534-.153-.15 19.394-39.033 19.588-38.966.275.094 15.08 19.951 18.24 24.465 1.448 2.069 2.647 3.974 2.665 4.233.041.618-6.477 26.804-6.666 26.78-.08-.01-1.156-.45-2.393-.978zm-57.99-64.025c-6.129-8.252-8.763-11.922-9.97-13.89l-.609-.991 3.654-14.818c2.258-9.153 3.774-14.817 3.967-14.817.62 0 4.674 1.9 16.565 7.761 6.657 3.283 12.106 6.064 12.109 6.181.007.323-19.165 38.975-19.332 38.975-.08 0-2.953-3.78-6.384-8.401z" transform="translate(136.348 -74.037)"/><path style="fill:#fff;stroke-width:1" d="M-84.264 297.683c.406-.32 10.72-15.127 11.308-16.233.319-.602.404-.466-8.026-12.81l-3.065-4.488 4.447.004 4.446.004 3.572 5.147c2.165 3.12 3.744 5.15 4.01 5.155.286.006 1.464-1.657 3.412-4.82 1.635-2.656 3.112-4.98 3.282-5.166.231-.253 1.402-.32 4.703-.264l4.395.072-5.27 8.195c-2.9 4.507-5.272 8.346-5.272 8.53 0 .415 10.28 16.224 10.84 16.67.322.257-.584.325-4.432.331-4.372.008-4.853-.036-5.002-.454-.253-.708-5.638-9.391-6.173-9.954-.26-.273-.576-.43-.703-.352-.373.23-7.098 10.039-7.098 10.352 0 .19-1.62.305-4.894.346-3.919.05-4.812-.004-4.48-.265zm44.3.167a7.329 7.329 0 0 1-1.588-.487c-.437-.2-1.1-.438-1.472-.531-1.488-.371-3.252-2.061-4.294-4.113-1.674-3.299-2.111-6.145-1.967-12.825.133-6.14.503-8.2 2.002-11.15 1.552-3.052 3.415-4.157 7.82-4.638 3.064-.335 6.486-.06 9.6.769.91.242 1.748.348 1.862.234.114-.114.242-3.65.285-7.858l.077-7.652h8.709v23.791c0 13.085.072 23.98.16 24.21.142.37-.3.418-3.836.418-3.344 0-3.997-.063-3.997-.39 0-.66-1.144-2.785-1.5-2.785-.183 0-1.059.468-1.944 1.04-.885.572-1.99 1.123-2.456 1.224-.466.101-.921.3-1.011.442-.176.276-5.128.507-6.45.3zm9.687-7.485c2.599-.98 2.472-.501 2.56-9.659.046-4.741-.028-8.272-.18-8.673-.197-.518-.65-.81-1.93-1.245-4.844-1.645-8.748-.52-9.853 2.839-.962 2.925-1.21 8.124-.56 11.765.753 4.226 2.666 5.892 6.493 5.656 1.092-.067 2.653-.375 3.47-.683zm26.567 7.456c-.724-.055-1.438-.197-1.587-.314-.15-.118-.688-.29-1.198-.383-1.41-.257-3.544-1.6-4.61-2.901-2.147-2.62-3.063-6.591-3.063-13.286 0-10.595 1.8-14.52 7.475-16.302 2.078-.653 8.126-.921 12.128-.538 5.868.561 8.057 2.647 8.725 8.31.608 5.156-.611 8.58-3.59 10.074-2.231 1.12-3.596 1.328-9.789 1.489-7.014.182-6.6-.028-5.836 2.955 1.044 4.076 2.784 4.743 12.367 4.743h5.772v2.757c0 1.516.073 2.945.161 3.175.144.376-.632.413-7.74.37-4.344-.026-8.491-.093-9.215-.149zm7.818-19.118c1.6-.445 2.198-1.332 2.317-3.44.202-3.577-1.365-5.25-5.147-5.497-3.684-.241-5.493.918-6.306 4.043-.502 1.925-.546 4.795-.078 4.984.617.249 8.263.174 9.214-.09zm12.151 19.05c0-.145.11-.264.242-.264.341 0 11.198-15.62 11.337-16.31.082-.41-1.437-2.828-5.485-8.731l-5.6-8.164 4.174-.073c2.296-.04 4.301-.025 4.456.034.155.06 1.873 2.385 3.82 5.167 1.945 2.782 3.684 5.058 3.863 5.058.46 0 .598-.193 3.92-5.467l2.974-4.72 4.422-.072c2.431-.04 4.421-.002 4.421.084 0 .086-2.322 3.764-5.16 8.174-2.837 4.41-5.159 8.248-5.159 8.53 0 .542 10.14 16.296 10.586 16.446.144.048.262.197.262.33 0 .139-2.052.243-4.762.243-4.094 0-4.763-.057-4.763-.404 0-.385-5.528-9.376-6.244-10.156-.282-.308-.417-.314-.755-.033-.585.485-6.804 9.518-6.958 10.105-.118.451-.484.488-4.859.488-2.978 0-4.732-.098-4.732-.264z" transform="translate(136.348 -74.037)"/></svg>