<svg version="1.1" id="Layer_1" x="0" y="0" xml:space="preserve" width="234.268" height="234.268" xmlns="http://www.w3.org/2000/svg"><style type="text/css" id="style2">.st0{fill:#33c}</style><path style="fill:#33c;fill-opacity:1;stroke-width:.600001;paint-order:markers stroke fill" id="rect847" d="M0 0h234.268v234.268H0z"/><path class="st0" d="M59.888 93.216c-6.585 0-12.373 1.796-17.162 5.388l-2.994 2.195V66.474l-15.965 4.79v93.197h16.165v-5.787l2.993 2.195c4.99 3.392 10.777 5.189 17.163 5.189 18.36 0 33.328-16.365 33.328-36.521 0-20.156-15.168-36.321-33.528-36.321zm-1.197 56.477c-10.777 0-18.959-8.581-18.959-19.956 0-11.376 8.182-20.157 18.959-20.157s18.959 8.582 18.959 19.957c-.2 11.375-8.182 20.156-18.959 20.156z" id="path4" style="fill:#fff;fill-opacity:1;stroke-width:35.3078"/><path class="st0" d="m126.943 122.153-1.796-.599c-7.584-2.794-10.777-4.59-10.777-8.581 0-4.19 4.19-5.787 8.182-5.787 3.991 0 8.781 1.397 8.781 7.384v3.392h15.965v-3.392c0-13.371-10.178-22.95-24.746-22.95-15.766 0-23.948 10.576-23.948 21.153 0 14.968 12.373 19.358 22.352 22.95l.997.4c7.584 2.794 11.376 4.79 11.376 8.182 0 4.59-4.99 6.186-9.38 6.186-4.989 0-11.176-1.397-11.176-8.381v-3.593H96.808v3.593c0 14.368 10.777 23.948 27.141 23.948 14.568 0 25.345-8.98 25.345-21.554-.2-14.169-12.573-18.759-22.351-22.35z" id="path6" style="fill:#fff;fill-opacity:1;stroke-width:35.3078"/><path class="st0" d="M184.817 155.281h17.162v-6.187h-24.546l10.577-10.377c8.581-8.382 12.772-15.965 12.772-23.748 0-11.575-8.182-23.35-23.948-23.35-11.774 0-24.347 7.384-24.347 23.35v2.794h15.766v-2.595c0-5.388 2.993-8.182 8.78-8.182 3.792 0 7.983 2.195 7.983 7.983 0 4.79-4.79 9.978-8.182 13.37l-15.566 15.567c-5.388 5.388-8.581 12.772-8.581 20.355h49.492v-6.186h-17.362c-.798 0-1.597-.599-1.597-1.597 0-.399.599-1.197 1.597-1.197zm23.948 1.597a2.215 2.215 0 0 1-2.196 2.195 2.215 2.215 0 0 1-2.195-2.195c0-1.198.998-2.196 2.195-2.196 1.198 0 2.196.998 2.196 2.196z" id="path8" style="fill:#fff;fill-opacity:1;stroke-width:35.3078"/></svg>