<svg width="1024" height="1024" viewBox="0 0 270.933 270.933" xmlns="http://www.w3.org/2000/svg"><path style="fill:#f2f2f2;stroke-width:1" d="M74.557 23.072H345.49v270.933H74.557V23.072z" transform="translate(-74.557 -23.072)"/><path style="fill:#007d5c;fill-opacity:1;stroke-width:1" d="M143.036 185.315v-23.969l7.995-7.574c4.396-4.166 7.994-7.774 7.994-8.019 0-.245-3.598-2.719-7.994-5.498l-7.995-5.054v-47.9l4.273 2.678c2.35 1.473 12.583 7.946 22.74 14.384 17.1 10.84 18.556 11.652 19.669 10.97.66-.403 18.28-17.605 39.154-38.225 20.873-20.62 40.244-39.706 43.045-42.415l5.093-4.923-.023 23.945-.024 23.945-29.175 28.669c-16.046 15.768-29.176 28.793-29.178 28.945 0 .152 5.882 4.034 13.073 8.628l13.075 8.353.143 23.762c.08 13.07.002 23.763-.17 23.763-.173 0-3.463-2.02-7.311-4.49a73976.665 73976.665 0 0 0-27.576-17.666l-20.58-13.178-9.744 9.34c-5.36 5.138-10.364 10.012-11.122 10.832-.758.82-6.775 6.706-13.37 13.079l-11.992 11.586z" transform="translate(-74.557 -15.643)"/><path d="M182.282 270.813c-1.066-.224-1.77-.769-1.43-1.108.153-.153.452-.137.787.042.297.159 1.006.289 1.575.289 1.212 0 1.91-.617 1.91-1.69 0-.693-.023-.705-.588-.31-.323.227-1.043.412-1.6.412-1.807 0-2.888-1.818-2.454-4.13.364-1.938 2.505-2.893 4.054-1.808.532.373.588.373.588 0 0-.24.229-.412.55-.412.533 0 .546.105.462 3.678-.072 3.098-.161 3.76-.564 4.205-.607.669-2.178 1.066-3.29.832zm2.254-3.57c.495-.346.588-.66.588-1.97s-.093-1.623-.588-1.969c-1.5-1.051-3.116-.032-3.116 1.966 0 2.05 1.58 3.05 3.116 1.973zm-44.391 1.128c-1.48-.749-1.553-2.588-.141-3.513.648-.424 1.44-.416 2.588.028.38.147.463.033.463-.633 0-1.28-1.603-1.823-2.834-.961-.4.28-.625.312-.751.107-.323-.522.603-1.107 1.958-1.237 1.16-.111 1.407-.043 2.005.554.636.637.68.846.68 3.207 0 2.35-.036 2.525-.528 2.525-.291 0-.53-.113-.53-.25 0-.139-.412-.08-.917.132-1.107.462-1.158.463-1.993.04zm2.399-.726c.354-.19.511-.555.511-1.185 0-.74-.119-.942-.63-1.07-1.224-.307-2.122-.031-2.39.735-.464 1.328 1.1 2.275 2.509 1.52zm29.426.876c-.322-.059-.888-.466-1.257-.904-.529-.628-.67-1.086-.67-2.165.003-2.668 1.736-4.012 3.866-2.996l.896.428v-1.451c0-1.275.065-1.451.53-1.451.507 0 .529.176.529 4.233 0 4.057-.022 4.233-.53 4.233-.315 0-.529-.176-.529-.437 0-.394-.046-.398-.463-.036-.538.468-1.537.698-2.372.546zm2.352-1.304c.363-.329.483-.822.483-1.978 0-1.437-.051-1.566-.78-1.943-1.024-.53-1.395-.51-2.192.117-1.141.898-1.145 3.047-.008 3.911.615.467 1.924.41 2.496-.107zm21.393 1.158c-1.055-.534-1.492-1.543-1.09-2.513.528-1.276 1.832-1.626 3.571-.958.658.252.573-1.383-.09-1.738-.728-.39-1.659-.339-2.322.126-.4.28-.625.312-.752.107-.322-.522.604-1.107 1.959-1.237 1.16-.111 1.407-.043 2.004.554.637.637.681.846.681 3.207 0 2.35-.037 2.525-.529 2.525-.29 0-.53-.113-.53-.25 0-.139-.412-.08-.917.132-1.105.462-1.158.463-1.984.045zm2.391-.73c.61-.326.694-1.627.134-2.092-.209-.172-.832-.276-1.385-.23-.82.067-1.052.215-1.257.802-.464 1.328 1.099 2.275 2.508 1.52zm11.435.88c-.322-.061-.9-.484-1.284-.94-.626-.744-.687-1.002-.593-2.482.071-1.12.262-1.825.593-2.19.701-.776 2.13-.978 3.223-.457l.896.428v-1.451c0-1.275.065-1.451.53-1.451.507 0 .529.176.529 4.233 0 4.057-.022 4.233-.53 4.233-.297 0-.529-.176-.529-.403 0-.352-.074-.356-.595-.027-.76.479-1.498.646-2.24.506zm2.351-1.308c.364-.329.484-.822.484-1.978 0-1.437-.052-1.566-.78-1.943-.43-.222-.95-.404-1.155-.404-.7 0-1.748 1.075-1.915 1.964-.174.93.375 2.37 1 2.622.717.288 1.904.157 2.366-.261zm58.239 1.307c-.323-.06-.888-.469-1.257-.907-.555-.659-.67-1.071-.67-2.384 0-1.402.09-1.678.773-2.361.883-.884 1.972-1.01 3.208-.37l.78.404v-1.462c0-1.286.065-1.462.53-1.462.507 0 .53.176.53 4.233 0 4.057-.023 4.233-.53 4.233-.298 0-.53-.176-.53-.403 0-.352-.073-.356-.594-.027-.76.479-1.499.646-2.24.506zm2.351-1.307c.363-.329.484-.822.484-1.978 0-1.437-.052-1.566-.78-1.943-.43-.222-.95-.404-1.156-.404-.7 0-1.747 1.075-1.914 1.964-.175.93.374 2.37 1 2.622.716.288 1.904.157 2.366-.261zm-150.651.616c-.366-.34-.812-1.063-.993-1.61-.277-.841-.259-1.172.121-2.167.722-1.89 2.76-2.534 4.553-1.44 1.686 1.028 1.782 4.022.171 5.29-.998.784-2.967.747-3.852-.073zm3.478-.875c.868-1.104.638-2.863-.487-3.727-1.677-1.288-3.877 1.284-2.83 3.31.47.91.742 1.063 1.928 1.093.608.015.992-.172 1.39-.676zm6.546 1.314c-.097-.097-.177-2.061-.177-4.366 0-4.012.023-4.189.53-4.189.47 0 .529.177.529 1.603v1.602l.588-.412c.988-.692 2.509-.53 3.4.362.688.687.774.955.774 2.401 0 1.447-.086 1.715-.773 2.402-.892.892-2.413 1.054-3.401.362-.533-.373-.588-.373-.588 0 0 .414-.555.562-.882.235zm3.788-.88c.62-.331 1.164-1.94.949-2.8-.383-1.523-2.014-2.166-3.267-1.288-.495.346-.588.66-.588 1.97 0 1.309.093 1.623.588 1.969.673.471 1.605.531 2.318.15zm10.323-2.119c0-2.674.064-3.175.405-3.175.223 0 .473.176.555.39.132.345.24.345.905 0 1.023-.528 1.921-.49 2.67.116.568.46.632.745.715 3.175.087 2.562.069 2.67-.463 2.67-.522 0-.554-.14-.554-2.461 0-1.561-.116-2.577-.317-2.778-.443-.443-1.57-.396-2.27.094-.533.374-.588.633-.588 2.778 0 2.19-.04 2.366-.529 2.366-.5 0-.53-.176-.53-3.175zm7.908 2.432c-1.597-1.426-1.172-4.634.708-5.349 1.061-.403 2.38-.304 3.038.229.826.668.456 1.295-.425.718-1.54-1.01-3.292.038-3.292 1.97 0 1.85 1.66 2.928 3.221 2.093.823-.441 1.207.122.447.655-1.002.702-2.723.554-3.697-.316zm6.701.33c-1.378-.965-1.767-3.05-.85-4.554.848-1.39 2.763-1.812 4.247-.935 1.848 1.092 1.824 4.555-.039 5.518-.974.504-2.617.49-3.358-.028zm2.85-.643c.63-.337 1.135-1.866.911-2.758-.216-.862-1.3-1.742-2.147-1.742-.959 0-1.936 1.203-1.936 2.384 0 1.87 1.617 2.948 3.172 2.116zm14.29-2.119c0-2.998.03-3.175.53-3.175s.53.177.53 3.175c0 3-.03 3.175-.53 3.175s-.53-.176-.53-3.175zm10.32-.019c0-2.9.042-3.186.463-3.106.404.078.472.482.537 3.195.071 2.97.051 3.105-.463 3.105-.51 0-.537-.16-.537-3.194zm3.492 2.877c-.199-.199-.317-1.188-.317-2.646 0-2.152-.04-2.328-.53-2.328-.352 0-.529-.177-.529-.53 0-.352.177-.529.53-.529.411 0 .529-.176.529-.793 0-.618.117-.794.529-.794.411 0 .529.176.529.794 0 .617.117.793.53.793.352 0 .528.177.528.53 0 .352-.176.529-.529.529-.488 0-.53.176-.53 2.249 0 2.222.009 2.249.662 2.249.412 0 .662.15.662.397 0 .49-1.592.55-2.064.079zm10.001-4.048c0-4.19.022-4.366.53-4.366.507 0 .529.177.529 4.366 0 4.19-.022 4.365-.53 4.365-.507 0-.529-.176-.529-4.365zm14.846 3.996c-.879-.487-1.332-1.415-1.343-2.753-.017-2.124 1.05-3.228 3.12-3.228 1.16 0 2.012.53 2.561 1.59.758 1.466.31 3.44-.985 4.348-.714.5-2.487.523-3.353.043zm3.127-1.121c.783-.996.736-2.58-.101-3.416-1.658-1.658-4.16.407-3.301 2.724.575 1.55 2.43 1.928 3.402.692zm3.23 1.063c-.76-.533-.376-1.096.447-.655.592.316 1.879.381 2.538.128.23-.088.419-.442.419-.786 0-.531-.221-.69-1.455-1.049-1.682-.489-2.25-.958-2.25-1.86 0-1.448 2.058-2.198 3.824-1.393.73.332.78.44.448.962-.173.274-.286.26-.557-.066-.439-.53-2.22-.538-2.656-.013-.473.57.071 1.134 1.426 1.478 1.394.355 1.935.766 2.153 1.634.282 1.12-.828 2.048-2.45 2.048-.747 0-1.53-.178-1.886-.428zm9.282-2.678c.065-2.713.133-3.117.538-3.195.42-.08.463.206.463 3.106 0 3.035-.027 3.194-.538 3.194-.514 0-.534-.135-.463-3.105zm2.853-.07c0-2.674.064-3.175.405-3.175.223 0 .473.176.555.39.132.345.24.345.905 0 1.023-.528 1.921-.49 2.67.116.568.46.632.745.715 3.175.087 2.562.069 2.67-.463 2.67-.522 0-.554-.14-.554-2.461 0-1.561-.116-2.577-.317-2.778-.443-.443-1.57-.396-2.27.094-.533.374-.588.633-.588 2.778 0 2.19-.04 2.367-.529 2.367-.5 0-.53-.177-.53-3.175zm8.88 2.938c-.176-.285-2.53-5.885-2.53-6.02 0-.05.227-.093.505-.093.391 0 .727.563 1.496 2.504.545 1.378 1.073 2.454 1.173 2.392.1-.062.58-1.141 1.066-2.399.806-2.086 1.344-2.821 1.76-2.406.086.086-.413 1.53-1.107 3.208-.95 2.293-1.382 3.051-1.74 3.051-.262 0-.542-.107-.623-.237zm5.73-.175c-2.57-1.8-1.277-5.938 1.854-5.938 1.506 0 2.85 1.43 2.85 3.03v.675h-2.513c-1.62 0-2.514.101-2.514.285 0 .504 1.529 1.831 2.11 1.831.31 0 .907-.178 1.328-.396.56-.29.816-.314.953-.092.565.913-2.895 1.427-4.069.605zm3.646-3.556c0-1.533-2.42-2.163-3.42-.89-.962 1.222-.763 1.419 1.436 1.419 1.808 0 1.984-.047 1.984-.53zm2.716 3.564c-.33-.23-.514-.569-.429-.79.13-.337.22-.336.71.007.744.522 2.4.507 2.842-.026.506-.609.014-1.23-1.27-1.601-1.844-.534-2.188-.818-2.188-1.81 0-.632.176-1.025.588-1.314 1.2-.84 4.128-.229 3.74.782-.13.337-.22.336-.71-.007-1.139-.798-3.13-.249-2.744.757.077.2.715.508 1.419.685.704.177 1.488.51 1.742.74.675.609.605 2.059-.125 2.57-.753.527-2.827.531-3.575.008zm6.297-.092c-.155-.29-.282-1.473-.282-2.63 0-1.88-.056-2.118-.529-2.242-.29-.076-.529-.28-.529-.452 0-.173.238-.377.53-.453.374-.098.528-.36.528-.901 0-.587.123-.763.53-.763.408 0 .529.176.529.775 0 .603.132.795.595.86.778.11.77.854-.01.964-.582.083-.603.17-.53 2.238.072 2 .12 2.162.688 2.296.962.225.809.664-.263.753-.754.063-1.039-.038-1.257-.445zm3.422-2.678c0-2.646.067-3.175.397-3.175.331 0 .397.529.397 3.175 0 2.645-.066 3.175-.397 3.175-.33 0-.397-.53-.397-3.175zm11.489 2.872c-.85-.413-1.434-1.637-1.434-3.006 0-1.06.132-1.374.9-2.142.754-.754 1.09-.9 2.08-.9 2.058 0 3.318 1.575 3.023 3.776-.21 1.563-1.363 2.581-2.899 2.557-.616-.01-1.368-.138-1.67-.285zm3.044-1.188c1.56-1.982-.298-4.905-2.401-3.78-.69.369-1.357 1.968-1.133 2.71.536 1.769 2.514 2.367 3.534 1.07zm3.195-1.684c0-2.646.066-3.175.396-3.175.226 0 .397.237.397.548v.548l.697-.548c.858-.674 1.42-.704 1.42-.074 0 .307-.304.564-.86.728l-.86.253L284.4 266c-.07 2.23-.122 2.448-.595 2.448-.487 0-.52-.197-.52-3.175zm5.005 2.438c-1.566-1.399-1.267-4.277.542-5.212 2.053-1.062 4.039-.006 4.421 2.349l.155.954h-2.548c-2.76 0-3.113.229-2.026 1.316.778.777 1.777.937 2.803.448.632-.301.94-.338 1.07-.128.32.518-.746 1.01-2.193 1.01-1.158 0-1.543-.128-2.224-.737zm3.99-3.149c0-.747-1.076-1.67-1.947-1.67-.905 0-2.021.901-2.021 1.633 0 .425.24.483 1.984.483 1.685 0 1.984-.067 1.984-.446zm2.712 3.563c-.58-.28-.764-.743-.428-1.08.092-.091.416.008.72.221.738.517 2.396.499 2.836-.031.535-.645-.007-1.234-1.558-1.693-.745-.221-1.492-.542-1.66-.713-.511-.519-.357-1.732.285-2.252.744-.603 2.58-.631 3.407-.052.76.533.376 1.096-.447.655-1.246-.666-2.973-.08-2.603.885.082.212.66.521 1.287.686 1.719.453 2.329.938 2.329 1.85 0 1.204-.818 1.85-2.316 1.829-.69-.01-1.524-.147-1.852-.305zm-117.364-7.199c-.202-.526.546-1.122.928-.74.365.365.092 1.118-.407 1.118-.207 0-.442-.17-.521-.378zm10.495-.037c-.22-.575.34-1.115.74-.714.34.338.13 1.129-.3 1.129-.154 0-.352-.187-.44-.415zm43.933.03c-.184-.48.083-.938.548-.938.405 0 .65.506.481.992-.158.453-.848.417-1.03-.053zm33.333-.01c-.091-.24-.04-.561.116-.716.403-.404 1.166-.035 1.061.512-.117.609-.965.756-1.177.204zm-44.609-14.42c-1.476-.445-2.544-1.343-3.226-2.71l-.68-1.365v-25.56h4.763l.015 11.708c.016 12.904.057 13.286 1.5 13.956.47.219.857.49.86.602.01.317-2.136 3.635-2.333 3.609a11.11 11.11 0 0 1-.899-.24zm-61.1-.492c-2.866-.95-4.747-2.61-6.003-5.3-.596-1.275-.695-1.844-.697-4.005-.002-2.315.068-2.662.865-4.282 1.061-2.156 2.93-3.918 5.032-4.744 1.17-.46 2.072-.597 4.022-.61 2.29-.014 2.67.059 4.274.818 2.157 1.022 3.757 2.577 4.683 4.551.618 1.319.7 1.82.7 4.272 0 2.453-.082 2.954-.7 4.273-1.513 3.227-4.659 5.231-8.505 5.418-1.637.08-2.54-.017-3.67-.391zm5.853-4.63c2.605-1.724 3.117-5.87 1.02-8.258-1.102-1.256-2.166-1.764-3.69-1.764-2.691 0-4.734 1.984-4.938 4.794-.062.858.03 1.993.205 2.522 1.046 3.17 4.689 4.502 7.403 2.706zm16.416 4.71c-4.826-1.34-7.597-6.232-6.504-11.478.496-2.375 1.322-3.825 3.083-5.409 1.491-1.34 3.93-2.282 5.907-2.282 1.264 0 4.06.672 4.577 1.1.283.235.345-.753.345-5.433v-5.721h4.763v29.125l-2.183-.077-2.183-.076-.132-.89-.132-.891-.53.598c-1.3 1.47-4.515 2.127-7.01 1.434zm6.17-4.79 1.106-.777.074-3.74.073-3.739-.96-.731c-.726-.555-1.335-.76-2.51-.844-2.014-.146-2.676.039-3.857 1.076-2.358 2.07-2.607 5.628-.558 7.972 1.66 1.9 4.555 2.242 6.632.782zm13.343 4.823c-2.343-.837-3.632-2.55-3.85-5.12-.217-2.543 1.172-4.768 3.632-5.822.52-.223 2.136-.537 3.592-.7 2.618-.291 2.646-.302 2.73-1.034.278-2.397-2.823-3.191-6.74-1.726-.798.299-1.488.502-1.533.451-.046-.05-.266-.906-.49-1.902l-.408-1.81 1.128-.499c1.786-.79 3.809-1.12 5.969-.971 2.341.16 3.763.69 4.998 1.862 1.651 1.567 1.874 2.433 1.882 7.33.008 4.963.229 6.108 1.335 6.926.893.66.867.715-1.111 2.371-1.218 1.02-1.334 1.062-2.087.75-.438-.181-1.08-.692-1.426-1.135l-.63-.805-.942.827c-1.53 1.343-3.969 1.749-6.05 1.007zm4.573-3.993c1.018-.527 1.579-1.661 1.579-3.195v-1.242l-1.878.174c-2.225.207-2.741.444-3.296 1.516-1.143 2.212 1.187 3.992 3.595 2.747zm56.052 4.005c-1.563-.559-2.528-1.408-3.254-2.864-1.592-3.195-.295-6.673 3.02-8.097.51-.219 2.117-.531 3.572-.694l2.646-.296v-1.023c0-.816-.152-1.137-.749-1.581-1.027-.765-3.69-.722-5.818.094-.846.325-1.568.549-1.602.498-.035-.05-.251-.908-.482-1.906l-.418-1.813 1.119-.495c1.764-.781 3.768-1.11 5.98-.982 3.304.192 5.405 1.482 6.587 4.046.252.546.415 2.414.52 5.992.137 4.588.213 5.264.653 5.748.273.302.719.62.99.706.407.13.21.4-1.158 1.594-.907.79-1.77 1.438-1.916 1.437-.559-.002-2.01-1.084-2.296-1.713l-.3-.656-.999.903c-1.56 1.409-4 1.85-6.095 1.102zm4.537-4.005c1.019-.527 1.58-1.661 1.58-3.195v-1.242l-1.867.173c-2.088.194-2.962.636-3.414 1.727-.89 2.151 1.405 3.725 3.701 2.537zm22.035 3.572c-1.825-.595-1.816-.58-2.074-3.364l-.178-1.912 1.594.822c2.165 1.116 4.987 1.37 5.834.523.682-.683.726-1.655.099-2.223-.255-.23-1.307-.731-2.34-1.114-3.529-1.308-5.007-3.186-4.82-6.124.087-1.37.25-1.843.912-2.667 1.234-1.536 2.746-2.256 5.045-2.403 1.922-.124 5.179.48 5.514 1.022.138.224-.5 3.337-.732 3.568-.068.069-.53-.043-1.025-.249-.857-.355-2.326-.544-3.606-.464-.324.02-.788.34-1.03.71-.742 1.132-.222 1.735 2.327 2.704 3.877 1.472 5.447 3.445 5.192 6.522-.16 1.929-1.058 3.251-2.886 4.249-1.913 1.044-5.316 1.218-7.826.4zm-167.035-8.992v-9.26h4.498l.003 1.125.003 1.124.662-.84c1.91-2.423 7.706-2.366 9.643.096l.523.665 1.076-.921c2.13-1.823 5.684-2.174 8.378-.828 1.638.819 2.535 1.873 2.991 3.517.147.526.267 4.022.268 7.77v6.813h-5.026v-6.576c0-6.558-.002-6.578-.63-7.255-1.305-1.408-4.3-1.128-5.37.501-.427.652-.492 1.468-.566 7.034l-.084 6.296h-4.728v-6.094c0-7.965-.206-8.496-3.307-8.496-3.13 0-3.307.445-3.307 8.36v6.23h-5.027zm105.304-.01v-9.271l2.183.077 2.183.076.082.994.082.993.653-.776c1.987-2.361 7.717-2.265 9.626.162l.523.665 1.076-.921c2.093-1.792 5.663-2.17 8.302-.878.809.396 1.715 1.062 2.012 1.48 1.203 1.689 1.324 2.587 1.324 9.824v6.846h-5.027v-6.368c0-7.555-.107-7.92-2.442-8.323-1.238-.214-2.583.218-3.406 1.093-.628.669-.635.736-.717 7.136l-.084 6.462h-4.728l-.006-5.755c-.007-6.294-.182-7.61-1.102-8.308-1.23-.931-3.938-.695-4.903.427-.592.688-.603.818-.603 7.168v6.468h-5.027v-9.271zm50.8.01v-9.26h5.027v18.52h-5.027zm.892-13.326c-.636-.636-1.156-1.405-1.156-1.709 0-.811 1.887-2.692 2.701-2.692 1.296 0 3.074 2.068 2.725 3.168-.212.667-2.146 2.389-2.684 2.389-.237 0-.95-.52-1.586-1.156z" style="fill:#007d5c;fill-opacity:1;stroke-width:.264583" transform="translate(-74.557 -15.643)"/></svg>