<svg width="800" height="800" viewBox="0 0 211.667 211.667" xmlns="http://www.w3.org/2000/svg"><path style="fill:#00fd5d;stroke-width:1" d="M-3.74 141.004V35.17h211.667v211.667H-3.74Zm182.67 52.082 1.519-.305-.182-1.349c-.1-.741-.235-1.438-.3-1.547-.064-.11-.947-.122-1.962-.027-1.69.157-1.898.12-2.497-.443-.648-.608-.654-.657-.654-5.33v-4.717h5.027v-3.175h-5.027v-1.969c0-1.082-.124-2.045-.275-2.138-.151-.094-1.104-.03-2.117.14l-1.841.31v8.214c0 9.023.104 9.817 1.47 11.183 1.39 1.39 3.71 1.781 6.84 1.153zm-54.285-6.508.07-6.548 1.482-.236c2.153-.341 3.327-.051 3.954.978.47.77.516 1.362.517 6.6v5.755h4.234v-6.121c0-4.068-.109-6.484-.324-7.204-.475-1.583-1.987-2.967-3.826-3.502-2.707-.787-8.378-.064-9.773 1.247l-.629.59v14.99h4.224zm25.67 5.004c.545-.847.991-1.611.991-1.698 0-.087-1.718-.197-3.818-.244-3.36-.075-3.907-.15-4.564-.632-.833-.61-1.8-2.338-1.543-2.755.104-.17 2.132-.27 5.424-.27 6.355 0 6.215.064 6.028-2.763-.314-4.742-3.037-7.291-7.79-7.291-2.196 0-4.116.748-5.563 2.167-3.37 3.308-3.17 10.67.364 13.364 1.583 1.208 3.332 1.649 6.567 1.656l2.91.006zm-8.921-9.37c.45-2.106 1.677-3.108 3.805-3.108 1.157 0 1.488.124 2.291.86.702.643.977 1.144 1.09 1.984l.15 1.124h-7.52zm17.453 8.352c.873-1.406 1.706-2.592 1.852-2.637.145-.045.979 1.107 1.852 2.559l1.588 2.64h2.447c1.346 0 2.447-.063 2.447-.14 0-.078-1.19-1.973-2.646-4.212-1.455-2.24-2.645-4.194-2.645-4.345 0-.15 1.13-2.008 2.513-4.128s2.514-3.916 2.514-3.99c0-.076-1.095-.103-2.433-.061l-2.434.076-1.467 2.447c-.807 1.346-1.546 2.447-1.642 2.447-.096 0-.9-1.13-1.787-2.513l-1.612-2.514h-2.382c-1.31 0-2.383.076-2.383.169 0 .092 1.199 1.988 2.664 4.212l2.664 4.044-2.615 3.923c-1.439 2.158-2.704 4.073-2.812 4.255-.152.255.367.33 2.266.327l2.463-.004 1.588-2.556zM74.72 163.485c24.441-11.209 44.633-20.347 44.87-20.306.351.06 20.883 17.266 25.742 21.572 1.613 1.43 2.745 1.917 4.448 1.917 1.797 0 3.665-1.033 4.705-2.603.434-.656.789-1.277.789-1.38 0-.105 5.284-11.15 11.741-24.545 6.458-13.395 11.823-24.786 11.921-25.312.626-3.335-2.821-6.866-6.253-6.405-.544.073-2.511.844-4.37 1.714-1.86.87-13.17 6.066-25.133 11.547l-21.751 9.966-23.625-20.046C84.81 98.579 73.767 89.346 73.264 89.087c-1.89-.972-4.875-.374-6.4 1.282-.387.418-10.358 20.077-22.16 43.686-23.626 47.263-22.13 43.937-20.935 46.571.976 2.15 2.637 3.213 5.046 3.23 1.391.01 3.766-1.044 45.905-20.37zm-33.387 2.526c.082-.214 7.208-14.422 15.836-31.572l15.687-31.182 18.428 15.632c10.136 8.598 18.447 15.735 18.469 15.861.022.126-14.997 7.128-33.377 15.561-38.729 17.77-35.237 16.205-35.043 15.7zm98.02-21.128a1842.662 1842.662 0 0 1-8.248-7.055c-.1-.103 27.676-12.995 29.746-13.807.575-.226.964-1.083-6.848 15.117-3.33 6.904-6.162 12.58-6.294 12.61-.132.032-3.893-3.057-8.357-6.865z" transform="translate(3.74 -35.17)"/><path style="fill:#000100;stroke-width:1" d="M173.82 193.05c-1.222-.39-2.49-1.719-2.879-3.016-.22-.738-.32-3.616-.32-9.284v-8.213l1.841-.31c1.013-.172 1.966-.235 2.117-.141.151.093.275 1.056.275 2.138v1.97h5.027v3.174h-5.027v4.717c0 4.673.006 4.722.654 5.33.599.563.807.6 2.497.443 1.015-.095 1.898-.082 1.962.027.065.11.2.806.3 1.547l.182 1.35-1.519.304c-1.833.368-3.887.354-5.11-.037zm-53.47-7.418v-7.494l.629-.591c1.395-1.31 7.066-2.034 9.773-1.247 1.84.535 3.351 1.919 3.826 3.502.215.72.324 3.136.324 7.204v6.12h-4.232l-.001-5.754c-.001-5.238-.048-5.83-.517-6.6-.627-1.03-1.801-1.32-3.954-.978l-1.481.236-.071 6.548-.07 6.549h-4.225Zm21.784 7.005c-1.66-.574-3.027-1.58-3.761-2.768-.884-1.429-1.44-4.045-1.275-6.003.412-4.93 3.423-7.937 7.945-7.937 4.753 0 7.476 2.55 7.79 7.291.187 2.827.327 2.763-6.028 2.763-3.292 0-5.32.1-5.424.27-.258.417.71 2.146 1.543 2.755.657.481 1.204.557 4.564.632 2.1.047 3.818.157 3.818.244s-.446.85-.992 1.698l-.992 1.54-2.91-.006c-2.094-.005-3.295-.139-4.278-.479zm6.445-10.689c-.112-.84-.387-1.341-1.089-1.984-.803-.736-1.134-.86-2.29-.86-2.13 0-3.356 1.002-3.806 3.108l-.184.86h7.52zm3.95 10.848c.109-.182 1.374-2.097 2.813-4.255l2.615-3.923-2.664-4.044c-1.465-2.224-2.664-4.12-2.664-4.212 0-.093 1.072-.169 2.383-.169h2.382l1.612 2.514c.887 1.382 1.69 2.513 1.787 2.513.096 0 .835-1.101 1.642-2.447l1.467-2.448 2.434-.076c1.338-.041 2.433-.014 2.433.061s-1.131 1.871-2.514 3.991c-1.382 2.12-2.513 3.977-2.513 4.128 0 .15 1.19 2.106 2.646 4.345 1.455 2.239 2.645 4.134 2.645 4.212 0 .077-1.101.14-2.447.14h-2.447l-1.588-2.64c-.873-1.452-1.707-2.604-1.852-2.56-.146.045-.979 1.232-1.852 2.637l-1.588 2.556-2.463.004c-1.9.003-2.418-.072-2.266-.327zm-125.974-9.302c-1.917-.85-3.291-3.037-3.301-5.254-.006-1.146 1.944-5.162 21.451-44.185 11.802-23.609 21.773-43.268 22.16-43.686 1.525-1.656 4.51-2.254 6.4-1.282.503.259 11.546 9.492 24.54 20.517l23.625 20.046 21.751-9.966c11.963-5.48 23.273-10.677 25.132-11.547 1.86-.87 3.827-1.641 4.371-1.714 2.54-.341 5.286 1.502 6.025 4.044.254.874.34 1.765.228 2.36-.098.527-5.463 11.918-11.92 25.313-6.458 13.395-11.742 24.44-11.742 24.544 0 .104-.355.725-.79 1.38-1.039 1.57-2.907 2.604-4.704 2.604-1.703 0-2.835-.487-4.448-1.917-4.86-4.306-25.39-21.512-25.741-21.572-.238-.041-20.43 9.097-44.87 20.306-42.14 19.327-44.515 20.38-45.906 20.37-.807-.005-1.824-.168-2.26-.361zm49.822-33.183c18.38-8.433 33.4-15.435 33.377-15.561-.022-.126-8.333-7.263-18.469-15.86l-18.428-15.633-15.687 31.182c-8.628 17.15-15.754 31.358-15.836 31.572-.194.505-3.686 2.07 35.043-15.7zm77.627-11.173c7.812-16.2 7.423-15.343 6.848-15.117-2.07.812-29.846 13.704-29.746 13.807 1.02 1.041 16.43 13.962 16.604 13.92.132-.031 2.965-5.706 6.294-12.61z" transform="translate(3.74 -35.17)"/></svg>