<svg width="512" height="512" viewBox="0 0 135.467 135.467" xmlns="http://www.w3.org/2000/svg"><path style="fill:#fbfcfb;stroke-width:1" d="M108.622 149.454c-8.937-1.29-16.45-4.91-22.71-10.943-3.538-3.41-5.765-6.352-7.816-10.324-1.843-3.57-2.934-6.553-3.784-10.35-.534-2.386-.615-3.459-.615-8.171s.08-5.784.615-8.17c4.452-19.885 21.93-33.092 42.036-31.765 15.974 1.054 30.05 11.903 35.139 27.08 4.864 14.512 1.145 30.326-9.677 41.148-5.554 5.554-12.278 9.187-20.356 10.999-1.924.431-10.88.778-12.832.496zm11.32-4.567c11.018-2.907 19.834-13.258 22.71-26.664.702-3.267.97-10.529.517-13.993-1.627-12.462-8.465-22.943-18.115-27.769-4.388-2.194-6.235-2.612-11.537-2.612-5.007 0-6.86.378-10.719 2.186-9.345 4.38-16.377 14.216-18.558 25.958-.726 3.914-.667 11.899.118 15.803 2.783 13.839 11.912 24.517 23.206 27.143 2.891.672 2.967.678 6.747.582 2.511-.064 4.183-.252 5.63-.634zM98.965 58.002c0-.142 25.038-20.396 25.345-20.502.106-.037 1.107 1.764 2.224 4.003l2.03 4.07-14.469 6.144c-16.999 7.217-15.13 6.441-15.13 6.285z" transform="translate(-45.783 -25.793)"/><path style="fill:#359c1d;stroke-width:1" d="M45.783 93.526V25.793H181.25V161.26H45.783Zm75.671 55.432c8.078-1.812 14.802-5.445 20.356-10.999 9.664-9.664 13.769-23.52 10.883-36.741-3.809-17.453-18.662-30.32-36.345-31.487-20.106-1.327-37.584 11.88-42.036 31.765-.534 2.386-.615 3.458-.615 8.17s.08 5.785.615 8.17c.85 3.798 1.94 6.781 3.784 10.35 2.051 3.973 4.278 6.914 7.816 10.325 6.26 6.033 13.773 9.654 22.71 10.943 1.952.282 10.908-.065 12.832-.496zm-11.377-3.467c-3.97-.73-6.98-1.836-10.064-3.7-7.812-4.723-13.547-13.514-15.655-23.995-.785-3.904-.844-11.89-.118-15.803 2.18-11.742 9.213-21.578 18.558-25.958 3.86-1.808 5.712-2.186 10.719-2.186 5.302 0 7.149.418 11.537 2.612 9.65 4.826 16.488 15.307 18.115 27.769.453 3.464.185 10.726-.516 13.993-2.877 13.406-11.693 23.757-22.711 26.664-2.003.528-8.207.908-9.865.604zm4.018-93.774 14.47-6.144-2.031-4.07c-1.117-2.239-2.118-4.04-2.224-4.003-.307.106-25.345 20.36-25.345 20.502 0 .156-1.869.932 15.13-6.285z" transform="translate(-45.783 -25.793)"/></svg>