<?xml version="1.0" encoding="UTF-8" standalone="no"?>
<svg
   xml:space="preserve"
   width="255"
   height="255"
   version="1.1"
   id="svg6"
   sodipodi:docname="bb.svg"
   inkscape:version="1.1.1 (3bf5ae0d25, 2021-09-20)"
   xmlns:inkscape="http://www.inkscape.org/namespaces/inkscape"
   xmlns:sodipodi="http://sodipodi.sourceforge.net/DTD/sodipodi-0.dtd"
   xmlns="http://www.w3.org/2000/svg"
   xmlns:svg="http://www.w3.org/2000/svg"><defs
     id="defs10" /><sodipodi:namedview
     id="namedview8"
     pagecolor="#ffffff"
     bordercolor="#666666"
     borderopacity="1.0"
     inkscape:pageshadow="2"
     inkscape:pageopacity="0.0"
     inkscape:pagecheckerboard="0"
     showgrid="false"
     inkscape:zoom="1.6814496"
     inkscape:cx="-56.498868"
     inkscape:cy="163.84672"
     inkscape:window-width="2560"
     inkscape:window-height="1017"
     inkscape:window-x="-8"
     inkscape:window-y="-8"
     inkscape:window-maximized="1"
     inkscape:current-layer="svg6" /><path
     d="M 0,0 H 254.99999 V 255 H 0 Z"
     style="fill:#fff200;fill-opacity:1;fill-rule:evenodd;stroke:none;stroke-width:61.2404"
     id="path2" /><path
     d="m 189.58754,51.755871 21.35861,14.631963 20.90262,-13.967965 0.0613,-28.694595 z M 66.08385,203.82882 44.79857,189.31686 l -21.519946,14.5373 0.213332,28.12393 z M 146.91431,79.705134 167.77293,93.735766 68.661177,160.78893 129.90369,202.12216 158.66495,182.62888 136.32367,167.83291 187.88755,133.273 231.0301,161.8956 126.7957,231.37409 23.946622,162.37959 Z M 107.86908,174.8289 87.010464,160.7996 186.12355,93.743766 124.88104,52.413202 96.118441,71.90382 118.45972,86.703783 66.895848,121.2597 23.751956,92.638435 127.6157,23.159942 230.73544,92.458436 Z"
     style="fill:#1a5dad;fill-opacity:1;fill-rule:evenodd;stroke:none;stroke-width:61.2404"
     id="path4" /></svg>
