<svg width="180" height="180" viewBox="0 0 47.625 47.625" xmlns="http://www.w3.org/2000/svg"><path style="fill:#f5f8f9;stroke-width:1" d="M80.066 122.798V98.986h47.625v47.625H80.066zM92.432 135.7c1.784-1.78 3.245-3.328 3.245-3.44 0-.11-.239-.201-.53-.201-.352 0-.529-.177-.529-.53 0-.29-.095-.529-.212-.529-.116 0-1.664 1.47-3.44 3.265-2.5 2.53-3.227 3.423-3.227 3.969 0 .59.116.704.724.704.572 0 1.402-.677 3.969-3.238zm4.63.133c1.712-1.708 3.112-3.255 3.112-3.44 0-.21-.369-.334-.996-.334-.924 0-1.242.246-4.428 3.44l-3.431 3.439h2.63zm3.721 1.041 2.052-2.064-.678-.637-.679-.637-2.7 2.7-2.701 2.702h1.327c1.305 0 1.363-.036 3.38-2.064zm4.614.545-1.518-1.518-1.519 1.518-1.518 1.519h6.074zm3.583-1.182-2.701-2.701-.678.637-.679.637 2.052 2.064c2.016 2.028 2.074 2.064 3.38 2.064h1.327zm4.027-.739c-3.13-3.136-3.516-3.44-4.384-3.44-.524 0-1.036.084-1.138.186-.102.102 1.276 1.65 3.061 3.44l3.247 3.254h2.646zm7.011 2.736c0-.546-.727-1.44-3.227-3.97-1.776-1.795-3.323-3.264-3.44-3.264-.117 0-.212.238-.212.53 0 .352-.176.529-.53.529-.29 0-.528.089-.528.198 0 .11 1.468 1.657 3.262 3.44 2.538 2.52 3.42 3.24 3.969 3.24.588 0 .706-.117.706-.703zm-25.4-10.692c0-.523-.083-1.035-.185-1.137-.102-.102-1.65 1.275-3.44 3.06l-3.254 3.247v2.646l3.44-3.432c3.136-3.13 3.44-3.516 3.44-4.384zm22.193 1.971c-1.781-1.786-3.336-3.187-3.456-3.113-.119.073-.216.571-.216 1.106 0 .893.277 1.251 3.373 4.357l3.374 3.383.082-1.243.083-1.243zm-12.182 3.518c.7-.746.525-.972-.75-.972-.534 0-1.051.08-1.15.178-.178.18.825 1.409 1.15 1.409.094 0 .432-.277.75-.615zm-12.125-8.51-.638-.68-2.063 2.052c-2.029 2.017-2.064 2.075-2.064 3.38v1.327l2.7-2.7 2.702-2.702zm25.486 1.408-2.06-2.073-.663.662-.662.662 2.64 2.653 2.64 2.653.083-1.242c.082-1.231.065-1.26-1.978-3.315zm-28.733-4.65-1.518-1.518v6.074l1.518-1.518 1.519-1.519zm30.761 1.456v-2.974l-1.515 1.515-1.516 1.516 1.44 1.458c.793.802 1.475 1.458 1.516 1.458.041 0 .075-1.338.075-2.973zm-25.4.063c0-1.3-.29-1.479-1.066-.653l-.614.653.614.653c.776.826 1.066.648 1.066-.653zm19.594-.646c-.778-.828-1.073-.658-1.073.618 0 1.334.239 1.497 1.031.705l.662-.662zm-23.765-4.448-2.708-2.708v1.316c0 1.286.045 1.36 2.044 3.371l2.045 2.057.664-.664.663-.664zm29.571-1.38v-1.328l-2.7 2.701-2.702 2.7.638.68.637.677 2.063-2.051c2.029-2.017 2.064-2.075 2.064-3.38zm-25.4 1.758c0-.904-.266-1.246-3.44-4.412l-3.439-3.432v2.631l3.223 3.23c1.773 1.777 3.32 3.171 3.44 3.097.119-.073.216-.574.216-1.114zm25.4-6.52v-1.324l-3.44 3.432c-3.136 3.13-3.439 3.516-3.439 4.384 0 .523.084 1.035.186 1.137.102.102 1.65-1.275 3.44-3.06l3.253-3.247zm-25.4 2.505c0-.353.177-.53.53-.53.29 0 .529-.081.529-.182 0-.1-1.456-1.648-3.236-3.44-2.588-2.605-3.382-3.256-3.968-3.256-.623 0-.734.109-.734.723 0 .573.677 1.403 3.237 3.969 1.78 1.785 3.328 3.245 3.44 3.245.111 0 .202-.238.202-.53zm22.173-2.736c2.5-2.529 3.227-3.423 3.227-3.968 0-.591-.116-.704-.724-.704-.572 0-1.402.677-3.968 3.237-1.785 1.78-3.245 3.328-3.245 3.44 0 .11.238.202.529.202.353 0 .529.176.529.529 0 .29.095.529.212.529.117 0 1.664-1.47 3.44-3.265zm-16.52 2.021c.103-.102-1.275-1.65-3.06-3.44l-3.246-3.253h-2.646l3.431 3.44c3.13 3.136 3.516 3.439 4.384 3.439.524 0 1.036-.084 1.138-.186zm4.774-.04c.077-.125-.154-.503-.513-.84l-.653-.614-.654.614c-.825.775-.647 1.066.654 1.066.565 0 1.09-.102 1.166-.226zm7.962-3.214 3.432-3.44h-2.646l-3.247 3.255c-1.785 1.79-3.163 3.337-3.06 3.44.101.101.613.185 1.137.185.868 0 1.254-.303 4.384-3.44zm-10.792 1.27.62-.582-2.052-2.064c-2.015-2.027-2.075-2.063-3.376-2.063h-1.324l2.636 2.645c1.45 1.456 2.69 2.646 2.756 2.646.066 0 .4-.262.74-.582zm6.823-2.064 2.636-2.645h-1.312c-1.282 0-1.36.046-3.363 2.039l-2.052 2.039.57.606c.314.334.641.607.728.607.086 0 1.343-1.19 2.793-2.646zm-3.572-1.19 1.437-1.455h-6.049l1.437 1.455c.79.8 1.505 1.455 1.588 1.455.082 0 .797-.655 1.587-1.455z" transform="translate(-80.066 -98.986)"/><path style="fill:#6f9eaf;stroke-width:1" d="M87.739 138.234c0-.546.727-1.44 3.228-3.97 1.775-1.795 3.323-3.264 3.44-3.264.116 0 .211.238.211.53 0 .352.177.529.53.529.29 0 .529.09.529.202 0 .111-1.46 1.659-3.245 3.44-2.567 2.56-3.397 3.237-3.97 3.237-.607 0-.723-.114-.723-.704zm7.011-2.736c3.186-3.193 3.504-3.44 4.428-3.44.627 0 .996.125.996.335 0 .185-1.4 1.732-3.112 3.44l-3.113 3.105h-2.63Zm4.027.739 2.701-2.701.679.637.678.637-2.052 2.064c-2.016 2.028-2.074 2.064-3.379 2.064h-1.327zm3.583 1.182 1.519-1.518 1.518 1.518 1.519 1.519h-6.074zm4.614-.545-2.052-2.064.679-.637.678-.637 2.7 2.7 2.702 2.702h-1.328c-1.305 0-1.363-.036-3.379-2.064zm3.572-1.19c-1.785-1.79-3.163-3.338-3.06-3.44.101-.102.613-.186 1.137-.186.868 0 1.254.304 4.384 3.44l3.432 3.44h-2.646zm4.797.013c-1.794-1.783-3.262-3.33-3.262-3.44 0-.11.238-.199.529-.199.353 0 .529-.176.529-.529 0-.29.095-.529.212-.529.117 0 1.664 1.47 3.44 3.265 2.5 2.53 3.227 3.423 3.227 3.969 0 .586-.118.704-.706.704-.55 0-1.431-.72-3.969-3.241zm-27.604-1.662v-1.323l3.254-3.246c1.79-1.786 3.338-3.163 3.44-3.061.102.102.185.614.185 1.137 0 .868-.303 1.255-3.44 4.384l-3.439 3.432zm28.773-2.172c-3.096-3.106-3.373-3.464-3.373-4.357 0-.535.097-1.033.216-1.106.12-.074 1.675 1.327 3.456 3.113l3.24 3.247-.083 1.243-.082 1.243zm-13.383 1.168c-.701-.746-.526-.973.75-.973.533 0 1.05.081 1.149.18.178.178-.825 1.408-1.15 1.408-.094 0-.432-.277-.75-.615zm-15.39-3.758c0-1.305.035-1.363 2.064-3.38l2.063-2.051.638.678.637.678-2.701 2.701-2.701 2.701zm29.507-1.44-2.64-2.653.661-.662.662-.662 2.061 2.073c2.043 2.055 2.06 2.084 1.978 3.315l-.082 1.242zm-29.507-5.035v-3.037l1.518 1.519 1.519 1.518-1.519 1.519-1.518 1.518zm30.689 1.452-1.44-1.458 1.515-1.516 1.515-1.515v2.974c0 1.635-.034 2.973-.075 2.973-.041 0-.723-.656-1.515-1.458zm-24.876-.799-.614-.653.614-.653c.776-.826 1.066-.648 1.066.653 0 1.3-.29 1.479-1.066.653zm19.771.502c-.262-.263-.228-2.155.042-2.322.124-.077.505.158.847.521l.62.66-.662.663c-.364.364-.745.579-.847.478zm-23.54-4.27c-2-2.011-2.044-2.085-2.044-3.371v-1.316l2.708 2.708 2.708 2.708-.663.664-.664.664zm25.47 1.393-.637-.678 2.701-2.701 2.701-2.7v1.327c0 1.304-.035 1.362-2.064 3.379l-2.063 2.051zm-24.29-4.977-3.224-3.23v-2.631l3.44 3.432c3.173 3.166 3.44 3.508 3.44 4.412 0 .54-.098 1.04-.217 1.114-.12.074-1.667-1.32-3.44-3.097zm22.362 3.092c-.103-.102-.186-.614-.186-1.137 0-.868.303-1.255 3.44-4.384l3.44-3.432v2.646l-3.255 3.246c-1.79 1.786-3.337 3.163-3.44 3.061zm-22.349-7.84c-2.56-2.566-3.237-3.396-3.237-3.969 0-.614.11-.724.734-.724.586 0 1.38.652 3.968 3.258 1.78 1.791 3.236 3.34 3.236 3.44 0 .1-.239.182-.53.182-.352 0-.529.176-.529.529 0 .29-.09.529-.202.529-.112 0-1.66-1.46-3.44-3.245zm22.163 2.716c0-.353-.176-.53-.53-.53-.29 0-.528-.09-.528-.202 0-.111 1.46-1.659 3.245-3.44 2.566-2.56 3.396-3.237 3.968-3.237.608 0 .724.114.724.704 0 .546-.727 1.44-3.227 3.97-1.776 1.795-3.323 3.264-3.44 3.264-.117 0-.212-.238-.212-.53zm-18.389-3.969-3.431-3.44h2.646l3.246 3.255c1.785 1.79 3.163 3.337 3.06 3.44-.101.101-.613.185-1.137.185-.868 0-1.254-.303-4.384-3.44zm7.962 3.214c-.077-.125.154-.503.513-.84l.654-.614.653.614c.825.775.647 1.066-.653 1.066-.565 0-1.09-.102-1.167-.226zm4.773.04c-.102-.102 1.276-1.65 3.061-3.44l3.247-3.254h2.646l-3.432 3.44c-3.13 3.136-3.516 3.44-4.384 3.44-.524 0-1.036-.084-1.138-.186zm-8.766-4.048-2.636-2.646h1.324c1.301 0 1.361.037 3.376 2.064l2.052 2.064-.62.582c-.34.32-.674.582-.74.582-.066 0-1.306-1.19-2.756-2.646zm6.798 2.04-.57-.607 2.052-2.04c2.004-1.992 2.08-2.039 3.363-2.039h1.312l-2.636 2.646c-1.45 1.456-2.707 2.646-2.793 2.646-.087 0-.414-.273-.728-.607zm-3.226-3.23-1.437-1.456h6.049l-1.437 1.456c-.79.8-1.505 1.455-1.587 1.455-.083 0-.797-.655-1.588-1.455z" transform="translate(-80.066 -98.986)"/></svg>