<?xml version="1.0" encoding="UTF-8" standalone="no"?>
<!-- Created with Inkscape (http://www.inkscape.org/) -->

<svg
   width="99.21875mm"
   height="97.895828mm"
   viewBox="0 0 99.21875 97.895828"
   version="1.1"
   id="svg5"
   xml:space="preserve"
   inkscape:version="1.2.2 (b0a8486541, 2022-12-01)"
   sodipodi:docname="anexo.svg"
   xmlns:inkscape="http://www.inkscape.org/namespaces/inkscape"
   xmlns:sodipodi="http://sodipodi.sourceforge.net/DTD/sodipodi-0.dtd"
   xmlns="http://www.w3.org/2000/svg"
   xmlns:svg="http://www.w3.org/2000/svg"><sodipodi:namedview
     id="namedview7"
     pagecolor="#ffffff"
     bordercolor="#000000"
     borderopacity="0.25"
     inkscape:showpageshadow="2"
     inkscape:pageopacity="0.0"
     inkscape:pagecheckerboard="0"
     inkscape:deskcolor="#d1d1d1"
     inkscape:document-units="mm"
     showgrid="false"
     inkscape:zoom="0.75277076"
     inkscape:cx="-23.247449"
     inkscape:cy="247.08717"
     inkscape:window-width="1920"
     inkscape:window-height="1011"
     inkscape:window-x="0"
     inkscape:window-y="32"
     inkscape:window-maximized="1"
     inkscape:current-layer="g802" /><defs
     id="defs2" /><g
     inkscape:label="Layer 1"
     inkscape:groupmode="layer"
     id="layer1"
     transform="translate(-62.354559,-43.953601)"><g
       id="g802"
       transform="translate(0.54499991,1.5169019)"><path
         style="fill:#454e5f;fill-opacity:1;stroke-width:0.362068"
         d="m 85.326975,136.72444 c -5.31915,-0.76491 -10.269183,-4.50241 -12.72478,-9.60781 -1.195631,-2.48584 -1.363324,-3.1848 -1.513806,-6.30992 -0.196619,-4.08316 0.559923,-7.22732 2.475322,-10.2874 0.648451,-1.03599 10.140808,-10.808992 22.191788,-22.847917 16.591991,-16.575385 21.442621,-21.221596 22.868981,-21.905186 1.53965,-0.737888 2.35173,-0.867149 5.43104,-0.864458 4.30605,0.0039 5.86371,0.639024 8.58149,3.499805 2.34798,2.471525 3.2875,5.064149 3.12603,8.62635 -0.21984,4.850422 -0.15657,4.770982 -17.94977,22.538812 -14.43435,14.413764 -15.96975,15.840534 -17.04675,15.840534 -1.668105,0 -2.961027,-1.3668 -2.961027,-3.13019 0,-1.29933 0.620746,-1.97556 15.719037,-17.12422 13.45747,-13.50237 15.77453,-15.981498 16.10474,-17.231174 1.22442,-4.633793 -3.62295,-8.743113 -7.97692,-6.762391 -2.404,1.093627 -42.596769,41.557645 -43.771525,44.066935 -1.272892,2.71889 -1.224679,6.55083 0.116935,9.29297 1.979073,4.04508 5.535697,6.26348 10.031873,6.25726 4.981626,-0.007 3.364676,1.3799 32.817487,-28.14636 24.579,-24.640283 26.51058,-26.666164 27.42347,-28.762173 1.44055,-3.307506 1.85367,-6.149959 1.34918,-9.28299 -1.54393,-9.588182 -10.90015,-15.834653 -20.12056,-13.433043 -4.43333,1.154735 -4.70544,1.391807 -26.62474,23.195102 C 91.424029,85.736819 81.697039,95.162641 81.258927,95.293266 79.436157,95.8367 77.256466,93.630271 77.734506,91.725589 77.847849,91.274021 87.501781,81.362677 99.187697,69.700369 118.8059,50.121812 120.63154,48.398215 123.00066,47.218314 c 3.55725,-1.771632 6.60083,-2.497828 10.46866,-2.497828 6.314,0 11.27158,2.078515 15.80916,6.628149 2.16624,2.172003 3.09196,3.446556 4.22168,5.812545 1.74933,3.663615 2.23642,5.856289 2.23642,10.067657 0,3.851945 -1.08349,7.983728 -2.91726,11.124793 -0.91953,1.575057 -7.88115,8.78699 -27.30933,28.29132 -14.34134,14.39756 -26.898623,26.72709 -27.905065,27.39897 -3.42974,2.28966 -8.022861,3.29243 -12.27795,2.68052 z"
         id="path804" /></g></g></svg>
