<?xml version="1.0" encoding="UTF-8" standalone="no"?>
<!-- Generator: Adobe Illustrator 24.1.1, SVG Export Plug-In . SVG Version: 6.00 Build 0)  -->

<svg
   version="1.1"
   id="Layer_1"
   x="0px"
   y="0px"
   viewBox="0 0 512 512"
   style="enable-background:new 0 0 512 512;"
   xml:space="preserve"
   sodipodi:docname="copy.svg"
   inkscape:version="1.2.2 (b0a8486541, 2022-12-01)"
   xmlns:inkscape="http://www.inkscape.org/namespaces/inkscape"
   xmlns:sodipodi="http://sodipodi.sourceforge.net/DTD/sodipodi-0.dtd"
   xmlns="http://www.w3.org/2000/svg"
   xmlns:svg="http://www.w3.org/2000/svg"><defs
   id="defs11" /><sodipodi:namedview
   id="namedview9"
   pagecolor="#ffffff"
   bordercolor="#000000"
   borderopacity="0.25"
   inkscape:showpageshadow="2"
   inkscape:pageopacity="0.0"
   inkscape:pagecheckerboard="0"
   inkscape:deskcolor="#d1d1d1"
   showgrid="false"
   inkscape:zoom="0.5835012"
   inkscape:cx="204.79821"
   inkscape:cy="346.18609"
   inkscape:window-width="1920"
   inkscape:window-height="1011"
   inkscape:window-x="0"
   inkscape:window-y="32"
   inkscape:window-maximized="1"
   inkscape:current-layer="Layer_1" />
<g
   id="g6"
   style="fill:#454e5f;fill-opacity:1">
	<path
   d="M199.1,142.2v28.4h227.6c15.7,0,28.4,12.8,28.4,28.4v227.6c0,15.7-12.8,28.4-28.4,28.4H199.1c-15.7,0-28.4-12.8-28.4-28.4   l0-227.6c0-15.7,12.8-28.4,28.4-28.4V142.2v-28.4c-47.1,0-85.3,38.2-85.3,85.3v227.6c0,47.1,38.2,85.3,85.3,85.3l227.6,0   c47.1,0,85.3-38.2,85.3-85.3l0-227.6c0-47.1-38.2-85.3-85.3-85.3H199.1V142.2z"
   id="path2"
   style="fill:#454e5f;fill-opacity:1" />
	<path
   d="M398.2,142.2V85.3C398.2,38.2,360,0,312.9,0H85.3C38.2,0,0,38.2,0,85.3v227.6c0,47.1,38.2,85.3,85.3,85.3l56.9,0   c15.7,0,28.4-12.7,28.4-28.4c0-15.7-12.7-28.4-28.4-28.4H85.3c-15.7,0-28.4-12.8-28.4-28.4l0-227.6c0-15.7,12.8-28.4,28.4-28.4   l227.6,0c15.7,0,28.4,12.7,28.4,28.4v56.9c0,15.7,12.7,28.4,28.4,28.4S398.2,157.9,398.2,142.2z"
   id="path4"
   style="fill:#454e5f;fill-opacity:1" />
</g>
</svg>
