<?xml version="1.0" encoding="UTF-8" standalone="no"?>
<svg
   class="svg-icon"
   style="width: 1em; height: 1em;vertical-align: middle;fill: currentColor;overflow: hidden;"
   viewBox="0 0 1024 1024"
   version="1.1"
   id="svg6"
   sodipodi:docname="emoji.svg"
   inkscape:version="1.2.2 (b0a8486541, 2022-12-01)"
   xmlns:inkscape="http://www.inkscape.org/namespaces/inkscape"
   xmlns:sodipodi="http://sodipodi.sourceforge.net/DTD/sodipodi-0.dtd"
   xmlns="http://www.w3.org/2000/svg"
   xmlns:svg="http://www.w3.org/2000/svg">
  <defs
     id="defs10" />
  <sodipodi:namedview
     id="namedview8"
     pagecolor="#ffffff"
     bordercolor="#000000"
     borderopacity="0.25"
     inkscape:showpageshadow="2"
     inkscape:pageopacity="0.0"
     inkscape:pagecheckerboard="0"
     inkscape:deskcolor="#d1d1d1"
     showgrid="false"
     inkscape:zoom="0.2917506"
     inkscape:cx="-1047.1272"
     inkscape:cy="884.31694"
     inkscape:window-width="1920"
     inkscape:window-height="1011"
     inkscape:window-x="0"
     inkscape:window-y="32"
     inkscape:window-maximized="1"
     inkscape:current-layer="svg6" />
  <path
     d="M510.944 960c-247.04 0-448-200.96-448-448s200.992-448 448-448 448 200.96 448 448-200.96 448-448 448z m0-832c-211.744 0-384 172.256-384 384s172.256 384 384 384 384-172.256 384-384-172.256-384-384-384z"
     fill=""
     id="path2"
     style="fill:#454e5f;fill-opacity:1" />
  <path
     d="M512 773.344c-89.184 0-171.904-40.32-226.912-110.624-10.88-13.92-8.448-34.016 5.472-44.896 13.888-10.912 34.016-8.48 44.928 5.472 42.784 54.688 107.136 86.048 176.512 86.048 70.112 0 134.88-31.904 177.664-87.552 10.784-14.016 30.848-16.672 44.864-5.888 14.016 10.784 16.672 30.88 5.888 44.864C685.408 732.32 602.144 773.344 512 773.344zM368 515.2c-26.528 0-48-21.472-48-48v-64c0-26.528 21.472-48 48-48s48 21.472 48 48v64c0 26.496-21.504 48-48 48zM656 515.2c-26.496 0-48-21.472-48-48v-64c0-26.528 21.504-48 48-48s48 21.472 48 48v64c0 26.496-21.504 48-48 48z"
     fill=""
     id="path4"
     style="fill:#454e5f;fill-opacity:1" />
</svg>
