<?xml version="1.0" encoding="UTF-8" standalone="no"?>
<!-- Uploaded to: SVG Repo, www.svgrepo.com, Generator: SVG Repo Mixer Tools -->

<svg
   fill="#000000"
   height="1739.5206"
   width="1753.6295"
   version="1.1"
   viewBox="0 0 1122.3229 1113.2932"
   enable-background="new 0 0 512 512"
   id="svg10"
   sodipodi:docname="microphone-btn-press.svg"
   inkscape:version="1.2.2 (b0a8486541, 2022-12-01)"
   xml:space="preserve"
   xmlns:inkscape="http://www.inkscape.org/namespaces/inkscape"
   xmlns:sodipodi="http://sodipodi.sourceforge.net/DTD/sodipodi-0.dtd"
   xmlns="http://www.w3.org/2000/svg"
   xmlns:svg="http://www.w3.org/2000/svg"><defs
     id="defs14" /><sodipodi:namedview
     id="namedview12"
     pagecolor="#ffffff"
     bordercolor="#000000"
     borderopacity="0.25"
     inkscape:showpageshadow="2"
     inkscape:pageopacity="0.0"
     inkscape:pagecheckerboard="0"
     inkscape:deskcolor="#d1d1d1"
     showgrid="false"
     inkscape:zoom="0.18672038"
     inkscape:cx="897.06328"
     inkscape:cy="990.78631"
     inkscape:window-width="1920"
     inkscape:window-height="1011"
     inkscape:window-x="0"
     inkscape:window-y="32"
     inkscape:window-maximized="1"
     inkscape:current-layer="svg10" /><ellipse
     style="fill:#454e5f;stroke-width:0.05376"
     id="path350"
     cx="561.16144"
     cy="556.64661"
     rx="561.16144"
     ry="556.64661" /><ellipse
     style="fill:#ff6565;stroke-width:0.0507736;fill-opacity:1"
     id="path350-3"
     cx="561.16144"
     cy="556.64661"
     rx="529.98865"
     ry="525.72467" /><g
     id="g3938"
     transform="matrix(2.1357751,0,0,2.1357751,1807.1857,-532.95521)"
     style="fill:#454e5f;fill-opacity:1"><path
       style="fill:#454e5f;fill-opacity:1;stroke-width:0.64"
       d="m -662.84956,630.64734 c -0.79608,-1.01508 -0.77344,-1.03771 0.24164,-0.24164 0.616,0.48311 1.12,0.98711 1.12,1.12 0,0.52675 -0.52556,0.18772 -1.36164,-0.87836 z m 56.40164,0.87836 c 0,-0.13289 0.504,-0.63689 1.12,-1.12 1.01507,-0.79607 1.03771,-0.77344 0.24163,0.24164 -0.83607,1.06608 -1.36163,1.40511 -1.36163,0.87836 z m 45.99836,-0.87836 c -0.79608,-1.01508 -0.77344,-1.03771 0.24163,-0.24164 1.06608,0.83608 1.40511,1.36164 0.87837,1.36164 -0.1329,0 -0.6369,-0.504 -1.12,-1.12 z m 56.40163,0.87836 c 0,-0.13289 0.504,-0.63689 1.12,-1.12 1.01508,-0.79607 1.03772,-0.77344 0.24164,0.24164 -0.83608,1.06608 -1.36164,1.40511 -1.36164,0.87836 z M -664.68792,392.76512 c 0,-0.50723 0.26114,-1.08362 0.58031,-1.28088 0.31918,-0.19726 0.42958,0.21774 0.24536,0.92223 -0.39079,1.49439 -0.82567,1.68329 -0.82567,0.35865 z m 1.28,-2.51941 c 0,-0.1329 0.504,-0.6369 1.12,-1.12 1.01508,-0.79607 1.03771,-0.77344 0.24164,0.24164 -0.83608,1.06608 -1.36164,1.40511 -1.36164,0.87836 z m 57.51836,-0.87836 c -0.79608,-1.01508 -0.77344,-1.03771 0.24164,-0.24164 1.06608,0.83608 1.4051,1.36164 0.87836,1.36164 -0.1329,0 -0.6369,-0.504 -1.12,-1.12 z m 44.88163,0.87836 c 0,-0.1329 0.504,-0.6369 1.12,-1.12 1.01508,-0.79607 1.03772,-0.77344 0.24164,0.24164 -0.83607,1.06608 -1.36164,1.40511 -1.36164,0.87836 z m 57.51836,-0.87836 c -0.79607,-1.01508 -0.77344,-1.03771 0.24164,-0.24164 0.616,0.4831 1.12,0.9871 1.12,1.12 0,0.52675 -0.52556,0.18772 -1.36164,-0.87836 z"
       id="path3942" /><rect
       style="fill:#454e5f;stroke-width:0.0206811"
       id="rect343"
       width="201.97928"
       height="199.49225"
       x="-684.39575"
       y="410.42081"
       ry="17.282322" /></g></svg>
