<svg width="26" height="26" viewBox="0 0 26 26" fill="none" xmlns="http://www.w3.org/2000/svg">
<g clip-path="url(#clip0_1578_953)">
<path d="M24.9165 4.33325V10.8332H18.4165" stroke="#128D7E" stroke-width="2" stroke-linecap="round" stroke-linejoin="round"/>
<path d="M1.0835 21.6667V15.1667H7.5835" stroke="#128D7E" stroke-width="2" stroke-linecap="round" stroke-linejoin="round"/>
<path d="M3.80266 9.74988C4.35209 8.19723 5.28589 6.80906 6.51692 5.71491C7.74795 4.62076 9.23608 3.85629 10.8425 3.49282C12.4489 3.12936 14.1211 3.17875 15.7033 3.63638C17.2854 4.09402 18.7259 4.94498 19.8902 6.10988L24.9168 10.8332M1.0835 15.1665L6.11016 19.8899C7.27447 21.0548 8.7149 21.9057 10.297 22.3634C11.8792 22.821 13.5515 22.8704 15.1578 22.5069C16.7642 22.1435 18.2524 21.379 19.4834 20.2848C20.7144 19.1907 21.6482 17.8025 22.1977 16.2499" stroke="#128D7E" stroke-width="2" stroke-linecap="round" stroke-linejoin="round"/>
</g>
<defs>
<clipPath id="clip0_1578_953">
<rect width="26" height="26" fill="white"/>
</clipPath>
</defs>
</svg>
