<?xml version="1.0" encoding="UTF-8" standalone="no"?>
<!-- Generator: Adobe Illustrator 19.0.0, SVG Export Plug-In . SVG Version: 6.00 Build 0)  -->

<svg
   version="1.1"
   id="Layer_1"
   x="0px"
   y="0px"
   viewBox="0 0 516.00001 516.00001"
   xml:space="preserve"
   sodipodi:docname="pbm-generico.svg"
   width="516"
   height="516"
   inkscape:version="1.1.1 (3bf5ae0d25, 2021-09-20)"
   xmlns:inkscape="http://www.inkscape.org/namespaces/inkscape"
   xmlns:sodipodi="http://sodipodi.sourceforge.net/DTD/sodipodi-0.dtd"
   xmlns="http://www.w3.org/2000/svg"
   xmlns:svg="http://www.w3.org/2000/svg"><defs
   id="defs77" /><sodipodi:namedview
   id="namedview75"
   pagecolor="#ffffff"
   bordercolor="#666666"
   borderopacity="1.0"
   inkscape:pageshadow="2"
   inkscape:pageopacity="0.0"
   inkscape:pagecheckerboard="0"
   showgrid="false"
   inkscape:zoom="0.83789392"
   inkscape:cx="149.18356"
   inkscape:cy="400.40868"
   inkscape:window-width="2560"
   inkscape:window-height="1017"
   inkscape:window-x="-8"
   inkscape:window-y="-8"
   inkscape:window-maximized="1"
   inkscape:current-layer="Layer_1" />
<rect
   style="fill:#21d0c3;fill-opacity:1;stroke-width:0.6;paint-order:markers stroke fill"
   id="rect1018"
   width="516"
   height="516"
   x="0"
   y="0" />



















<g
   id="g2037"
   transform="translate(9.6830615,10.280925)"><path
     style="fill:#dce3e8"
     d="m 133.87794,174.82047 c 50.679,0 91.763,41.083 91.763,91.763 0,50.679 -41.085,91.763 -91.763,91.763 -50.678003,0 -91.763003,-41.083 -91.763003,-91.763 0,-50.68 41.082,-91.763 91.763003,-91.763 z"
     id="path4" /><path
     style="fill:#eef3f7"
     d="m 131.35294,172.47047 c 49.831,0 90.228,40.395 90.228,90.228 0,49.833 -40.397,90.228 -90.228,90.228 -49.833003,0 -90.228003,-40.395 -90.228003,-90.228 0,-49.833 40.394,-90.228 90.228003,-90.228 z"
     id="path6" /><path
     style="fill:#fefefe"
     d="m 131.35294,179.71347 c 45.832,0 82.986,37.154 82.986,82.986 0,45.832 -37.154,82.986 -82.986,82.986 -45.834003,0 -82.986003,-37.154 -82.986003,-82.986 0,-45.832 37.153,-82.986 82.986003,-82.986 z"
     id="path8" /><path
     style="fill:#dce3e8"
     d="m 121.68694,180.73247 9.666,-8.176 v 180.272 l -9.666,-8.187 c 0,0 0,-163.909 0,-163.909 z"
     id="path10" /><path
     style="fill:#eef3f7"
     d="m 141.02094,180.73247 -9.666,-8.176 v 180.272 l 9.666,-8.187 z"
     id="path12" /><path
     style="fill:#dce3e8"
     d="m 210.76394,342.20347 c -16.984,24.048 -11.258,57.311 12.793,74.295 24.048,16.984 57.311,11.258 74.295,-12.793 16.984,-24.048 11.258,-57.311 -12.793,-74.295 -24.048,-16.983 -57.31,-11.257 -74.295,12.793 z"
     id="path14" /><path
     style="fill:#eef3f7"
     d="m 210.49594,340.21747 c -16.699,23.645 -11.068,56.354 12.578,73.053 23.646,16.699 56.354,11.068 73.053,-12.576 16.699,-23.647 11.068,-56.354 -12.578,-73.053 -23.647,-16.699 -56.354,-11.068 -73.053,12.578 z"
     id="path16" /><path
     style="fill:#fefefe"
     d="m 213.93294,342.64447 c -15.359,21.748 -10.18,51.83 11.568,67.189 21.748,15.359 51.83,10.18 67.188,-11.568 15.359,-21.748 10.18,-51.83 -11.568,-67.189 -21.748,-15.362 -51.829,-10.183 -67.188,11.568 z"
     id="path18" /><path
     style="fill:#dce3e8"
     d="m 217.65494,338.40047 -7.119,1.847 85.542,60.413 -0.646,-7.331 z"
     id="path20" /><path
     style="fill:#eef3f7"
     d="m 211.17394,347.57447 -0.64,-7.327 85.542,60.413 -7.124,1.843 z"
     id="path22" /><path
     style="fill:#ed4c54"
     d="m 343.65094,237.43147 v -121.829 c 0,-61.908002 -93.596,-61.910002 -93.596,0 v 121.829 c 0,61.909 93.596,61.908 93.596,0 z"
     id="path24" /><path
     style="fill:#ff5b62"
     d="m 319.49594,74.396468 c -27.731,-13.853 -69.439,-0.124 -69.439,41.206002 v 121.829 c 0,41.33 41.706,55.059 69.439,41.206 9.21,-8.277 15.332,-20.594 15.332,-36.962 v -130.317 c 10e-4,-16.369002 -6.12,-28.685002 -15.332,-36.962002 z"
     id="path26" /><path
     style="fill:#eef3f7"
     d="m 343.65094,237.43147 v -60.916 h -93.596 v 60.916 c 0,61.909 93.596,61.908 93.596,0 z"
     id="path28" /><path
     style="fill:#fefefe"
     d="m 334.82894,241.67747 v -65.159 h -84.772 v 60.916 c 0,41.33 41.706,55.059 69.439,41.206 9.21,-8.278 15.333,-20.594 15.333,-36.963 z"
     id="path30" /><path
     style="fill:#ff878e"
     d="m 261.85494,176.51847 h 6.663 v -68.228 c 0,-1.832 -1.499,-3.331 -3.331,-3.331 h -0.002 c -1.832,0 -3.331,1.499 -3.331,3.331 v 68.228 z"
     id="path32" /><path
     style="fill:#ed4c54"
     d="m 455.50894,196.75447 v 121.829 c 0,61.91 -93.594,61.912 -93.594,0 v -121.829 c 0,-61.913 93.594,-61.908 93.594,0 z"
     id="path34" /><path
     style="fill:#ff5b62"
     d="m 431.35394,359.78747 c -27.733,13.853 -69.439,0.126 -69.439,-41.206 v -121.83 c 0,-41.332 41.706,-55.061 69.439,-41.206 9.212,8.277 15.332,20.594 15.332,36.962 v 130.317 c 10e-4,16.369 -6.122,28.688 -15.332,36.963 z"
     id="path36" /><path
     style="fill:#eef3f7"
     d="m 455.50894,196.75447 v 60.916 h -93.594 v -60.916 c 0,-61.913 93.594,-61.908 93.594,0 z"
     id="path38" /><path
     style="fill:#fefefe"
     d="m 446.68694,192.50847 v 65.16 h -84.772 v -60.916 c 0,-41.332 41.706,-55.061 69.439,-41.206 9.212,8.277 15.333,20.593 15.333,36.962 z"
     id="path40" /><path
     style="fill:#ff878e"
     d="m 373.71094,257.66747 h 6.665 v 68.228 c 0,1.832 -1.499,3.331 -3.331,3.331 v 0 c -1.834,0 -3.332,-1.499 -3.332,-3.331 v -68.228 z"
     id="path42" /></g>
<g
   id="g44"
   transform="translate(2.3869369,1.1934685)">
</g>
<g
   id="g46"
   transform="translate(2.3869369,1.1934685)">
</g>
<g
   id="g48"
   transform="translate(2.3869369,1.1934685)">
</g>
<g
   id="g50"
   transform="translate(2.3869369,1.1934685)">
</g>
<g
   id="g52"
   transform="translate(2.3869369,1.1934685)">
</g>
<g
   id="g54"
   transform="translate(2.3869369,1.1934685)">
</g>
<g
   id="g56"
   transform="translate(2.3869369,1.1934685)">
</g>
<g
   id="g58"
   transform="translate(2.3869369,1.1934685)">
</g>
<g
   id="g60"
   transform="translate(2.3869369,1.1934685)">
</g>
<g
   id="g62"
   transform="translate(2.3869369,1.1934685)">
</g>
<g
   id="g64"
   transform="translate(2.3869369,1.1934685)">
</g>
<g
   id="g66"
   transform="translate(2.3869369,1.1934685)">
</g>
<g
   id="g68"
   transform="translate(2.3869369,1.1934685)">
</g>
<g
   id="g70"
   transform="translate(2.3869369,1.1934685)">
</g>
<g
   id="g72"
   transform="translate(2.3869369,1.1934685)">
</g>
</svg>
