<?xml version="1.0" encoding="UTF-8" standalone="no"?>
<svg
   width="602"
   height="602"
   viewBox="0 0 159.279 159.279"
   version="1.1"
   id="svg8"
   sodipodi:docname="prevsaude.svg"
   inkscape:version="1.1.1 (3bf5ae0d25, 2021-09-20)"
   xmlns:inkscape="http://www.inkscape.org/namespaces/inkscape"
   xmlns:sodipodi="http://sodipodi.sourceforge.net/DTD/sodipodi-0.dtd"
   xmlns="http://www.w3.org/2000/svg"
   xmlns:svg="http://www.w3.org/2000/svg">
  <defs
     id="defs12" />
  <sodipodi:namedview
     id="namedview10"
     pagecolor="#ffffff"
     bordercolor="#666666"
     borderopacity="1.0"
     inkscape:pageshadow="2"
     inkscape:pageopacity="0.0"
     inkscape:pagecheckerboard="0"
     showgrid="false"
     inkscape:zoom="0.6737293"
     inkscape:cx="-178.11308"
     inkscape:cy="250.10045"
     inkscape:window-width="2560"
     inkscape:window-height="1017"
     inkscape:window-x="-8"
     inkscape:window-y="-8"
     inkscape:window-maximized="1"
     inkscape:current-layer="svg8" />
  <path
     style="fill:#f2f2f2;stroke-width:1"
     d="M121.692 187.053v-79.64h159.28v159.28h-159.28z"
     transform="translate(-121.692 -107.413)"
     id="path2" />
  <path
     style="fill:#f7b103;stroke-width:1"
     d="M142.288 203.445c-8.1-1.124-15.202-7.634-17.448-15.995-.73-2.718-.802-7.833-.147-10.53 1.776-7.314 7.06-13.149 14.136-15.607 1.984-.69 2.797-.82 5.761-.926 3.9-.138 6.495.344 9.551 1.774 3.644 1.705 7.405 5.06 9.453 8.431 5.537 9.115 3.428 21.429-4.847 28.293-2.043 1.695-5.797 3.596-8.215 4.162-2.239.523-6.024.706-8.244.398zm6.153-5.13c2.904-.615 5.13-1.87 7.543-4.25 1.705-1.683 2.37-2.578 3.246-4.366 2.779-5.677 2.384-12.111-1.05-17.103-3.001-4.361-7.75-6.974-12.675-6.974-4.228 0-7.563 1.43-10.74 4.606-2.33 2.327-3.712 4.706-4.47 7.686-.513 2.02-.509 6.134.01 8.331 1.393 5.915 6.293 10.776 12.157 12.06 2.095.459 3.85.462 5.98.01zm82.26 4.643c-2.521-.816-4.306-1.9-6.105-3.705-6.646-6.672-5.724-17.678 1.93-23.053 2.766-1.943 4.693-2.513 8.408-2.488 2.627.017 3.287.115 4.831.716 5.767 2.246 9.495 7.637 9.553 13.816.012 1.31-.136 3.036-.33 3.836-1.266 5.25-5.494 9.67-10.493 10.972-2.117.551-5.943.505-7.795-.094zm6.124-3.83c4.002-.942 6.952-4.304 7.691-8.765.745-4.493-1.521-9.264-5.409-11.39-1.203-.659-1.748-.779-3.952-.87-2.33-.096-2.694-.043-4.101.599-1.709.78-3.75 2.623-4.702 4.25-1.906 3.25-1.941 8.084-.084 11.245.874 1.487 2.874 3.43 4.262 4.141 2.163 1.108 3.977 1.336 6.295.79zm-65.127-7.524v-11.346l.81-1.619c1.445-2.892 3.936-4.35 7.505-4.393l2.136-.025v4.233l-1.865.132c-2.017.143-2.981.6-3.753 1.778-.421.642-.48 1.779-.6 11.572l-.132 10.86-2.05.077-2.05.077zm15.61 1.137v-10.186h4.234v20.373h-4.232zm11.646 9.585c-1.356-.717-2.12-1.99-2.12-3.532 0-1.4.24-1.733 7.341-10.201 3.092-3.687 5.936-7.146 6.32-7.685.67-.94.68-1.01.26-1.652l-.44-.67h-13.481v-4.498l8.4.006c7.618.005 8.502.052 9.484.498 2.021.918 2.873 3.596 1.734 5.45-.268.436-3.377 4.187-6.908 8.334-3.531 4.147-6.6 7.809-6.818 8.136-.354.53-.352.663.013 1.22.225.344.79.7 1.254.794.464.093 3.568.169 6.897.169h6.052v4.233h-8.425c-8.254 0-8.448-.012-9.563-.602zm54.952.436c-.103-.103-.187-4.196-.187-9.096 0-8.01.053-9.116.524-10.956.651-2.548 1.64-4.394 3.18-5.933 4.292-4.294 12.819-4.152 16.803.28 1.35 1.501 1.77 2.214 2.596 4.417.52 1.386.56 2.102.65 11.466l.094 9.988h-4.227l-.086-9.459-.087-9.459-.685-1.455c-1.473-3.128-3.52-4.5-6.709-4.495-3.155.004-5.498 1.504-6.814 4.363-.59 1.283-.613 1.61-.74 10.848l-.133 9.525-1.996.076c-1.098.042-2.08-.008-2.183-.11zm-65.436-23.906c-2.128-.86-2.228-3.936-.16-4.918.77-.366 1.099-.388 1.946-.135 2.296.688 2.435 4.239.196 5.02-.971.338-1.217.342-1.982.033z"
     transform="translate(-121.692 -107.413)"
     id="path4" />
  <path
     style="fill:#b0c706;stroke-width:1"
     d="M188.47 178.856c-2.128-.86-2.228-3.936-.16-4.918.77-.366 1.099-.388 1.946-.135 2.296.688 2.435 4.239.196 5.02-.971.338-1.217.342-1.982.033z"
     transform="translate(-121.692 -107.413)"
     id="path6" />
</svg>
