<?xml version="1.0" encoding="UTF-8" standalone="no"?>
<svg
   width="700"
   height="700"
   version="1.1"
   id="svg26"
   sodipodi:docname="banrisul.svg"
   inkscape:version="1.1.1 (3bf5ae0d25, 2021-09-20)"
   xmlns:inkscape="http://www.inkscape.org/namespaces/inkscape"
   xmlns:sodipodi="http://sodipodi.sourceforge.net/DTD/sodipodi-0.dtd"
   xmlns="http://www.w3.org/2000/svg"
   xmlns:svg="http://www.w3.org/2000/svg">
  <defs
     id="defs30" />
  <sodipodi:namedview
     id="namedview28"
     pagecolor="#ffffff"
     bordercolor="#666666"
     borderopacity="1.0"
     inkscape:pageshadow="2"
     inkscape:pageopacity="0.0"
     inkscape:pagecheckerboard="0"
     showgrid="false"
     inkscape:zoom="0.9184512"
     inkscape:cx="486.68889"
     inkscape:cy="292.33997"
     inkscape:window-width="2560"
     inkscape:window-height="1017"
     inkscape:window-x="-8"
     inkscape:window-y="-8"
     inkscape:window-maximized="1"
     inkscape:current-layer="g24" />
  <g
     transform="translate(1275.643,582.76501)"
     id="g24">
    <path
       style="fill:#016bbf;fill-opacity:1;stroke-width:0.6;paint-order:markers stroke fill"
       d="m -1275.643,-582.76501 h 700 V 117.235 h -700 z"
       id="path2" />
    <g
       id="g872"
       transform="translate(-15.493,31.59956)">
      <path
         d="m -1027.634,-345.896 33.139,-0.466 20.225,29.87 3.89,-0.155 0.31,1.4 37.65,0.467 15.403,22.87 c 1.115,2.058 3.13,4.03 1.859,7.001 l -72.803,0.156 c 0.148,-4.166 -0.828,-6.926 -2.334,-9.024 l -32.983,-49.318 z"
         style="fill:#ffffff;fill-opacity:1;fill-rule:evenodd;stroke:#6dbbfd;stroke-width:0.751532;stroke-linecap:butt;stroke-linejoin:miter;stroke-miterlimit:4;stroke-dasharray:none;stroke-opacity:1"
         id="path4" />
      <path
         d="m -915.461,-284.442 -35.628,56.32 c -0.808,1.849 -2.058,1.931 -3.267,2.178 l -74.678,-0.467 0.778,-1.867 4.667,-0.311 34.383,-51.497 c 1.238,-2.91 1.036,-3.42 1.09,-4.356 z m 112.385,-0.095 -35.627,56.32 c -0.809,1.849 -2.059,1.931 -3.267,2.178 l -74.678,-0.467 0.778,-1.867 4.667,-0.31 34.383,-51.497 c 1.238,-2.91 1.036,-3.421 1.089,-4.357 z"
         style="fill:#ffffff;fill-opacity:1;fill-rule:evenodd;stroke:#016bbf;stroke-width:0.751532;stroke-linecap:butt;stroke-linejoin:miter;stroke-miterlimit:4;stroke-dasharray:none;stroke-opacity:1"
         id="path6" />
      <path
         d="m -882.133,-346.476 40.138,0.96 c 9.784,14.558 9.965,14.56 21.938,30.623 l 15.402,22.87 c 1.115,2.058 3.13,4.029 1.859,7 l -72.803,0.156 c 0.148,-4.165 -0.827,-6.926 -2.334,-9.023 -12.079,-16.631 -22.614,-31.718 -36.237,-49.893 9.737,-3.923 21.554,-2.313 32.037,-2.693 z"
         style="fill:#ffffff;fill-opacity:1;fill-rule:evenodd;stroke:#6dbbfd;stroke-width:0.751532;stroke-linecap:butt;stroke-linejoin:miter;stroke-miterlimit:4;stroke-dasharray:none;stroke-opacity:1"
         id="path8" />
      <path
         d="m -935.89,-434.698 39.556,0.96 c 9.643,14.56 9.82,14.56 21.62,30.625 l 15.179,22.871 c 1.099,2.058 3.085,4.03 1.832,7.002 l -71.747,0.155 c 0.146,-4.165 -0.816,-6.926 -2.3,-9.024 -11.904,-16.632 -22.286,-31.72 -35.712,-49.896 9.596,-3.923 21.241,-2.313 31.572,-2.693 z"
         style="fill:#ffffff;fill-opacity:1;fill-rule:evenodd;stroke:#6dbbfd;stroke-width:0.746087;stroke-linecap:butt;stroke-linejoin:miter;stroke-miterlimit:4;stroke-dasharray:none;stroke-opacity:1"
         id="path10" />
      <path
         d="m -858.03,-372.73 -16.579,26.03 c -13.398,0.898 -34.09,-1.518 -39.81,2.87 l -18.014,28.491 -37.226,-0.38 -0.167,-0.909 c 1.022,-0.123 1.728,-0.244 2.488,-0.502 l 37.752,-55.384 z"
         style="fill:#ffffff;fill-opacity:1;fill-rule:evenodd;stroke:#016bbf;stroke-width:0.751532;stroke-linecap:butt;stroke-linejoin:miter;stroke-miterlimit:4;stroke-dasharray:none;stroke-opacity:1"
         id="path12" />
      <path
         d="m -1168.199,-198.48 h 37.277 q 11.068,0 16.476,1.063 5.47,0.992 9.732,4.25 4.326,3.26 7.188,8.714 2.863,5.384 2.863,12.114 0,7.296 -3.562,13.389 -3.499,6.092 -9.542,9.138 8.524,2.763 13.104,9.422 4.58,6.659 4.58,15.655 0,7.084 -2.99,13.814 -2.926,6.66 -8.078,10.697 -5.09,3.967 -12.596,4.888 -4.707,0.567 -22.71,0.708 h -31.742 z m 18.83,17.286 v 24.015 h 12.34 q 11.005,0 13.677,-0.355 4.834,-0.637 7.57,-3.683 2.799,-3.117 2.799,-8.147 0,-4.817 -2.418,-7.792 -2.353,-3.047 -7.06,-3.684 -2.8,-0.354 -16.095,-0.354 h -10.814 z m 0,41.3 v 27.769 h 17.43 q 10.177,0 12.912,-0.638 4.199,-0.85 6.807,-4.108 2.672,-3.33 2.672,-8.855 0,-4.676 -2.036,-7.934 -2.035,-3.26 -5.916,-4.747 -3.817,-1.487 -16.666,-1.487 z"
         style="font-style:normal;font-variant:normal;font-weight:700;font-stretch:normal;font-size:25.5007px;line-height:125%;font-family:Arial;-inkscape-font-specification:'Arial, Bold';text-align:start;letter-spacing:0;word-spacing:0;writing-mode:lr-tb;text-anchor:start;fill:#ffffff;fill-opacity:1;stroke:none;stroke-width:1px;stroke-linecap:butt;stroke-linejoin:miter;stroke-opacity:1"
         id="path14" />
      <path
         d="m -1032.606,-116.602 v -16.577 q -4.378,0.425 -9.476,1.205 -5.098,0.708 -7.737,1.7 -3.24,1.204 -4.979,3.542 -1.679,2.267 -1.679,6.021 0,2.48 0.36,4.038 0.36,1.558 1.8,2.975 1.379,1.417 3.298,2.125 1.92,0.638 5.998,0.638 3.239,0 6.538,-1.559 3.358,-1.558 5.877,-4.108 z m 0,12.326 q -1.74,1.558 -4.318,3.754 -2.58,2.196 -4.858,3.471 -3.18,1.7 -6.598,2.48 -3.419,0.85 -7.497,0.85 -9.597,0 -16.074,-7.013 -6.478,-7.013 -6.478,-17.923 0,-8.713 3.3,-14.238 3.298,-5.526 9.356,-8.713 5.997,-3.188 14.874,-4.534 8.877,-1.346 18.413,-1.984 v -0.425 q 0,-6.588 -4.558,-9.067 -4.558,-2.55 -13.435,-2.55 -5.338,0 -11.396,2.267 -6.058,2.196 -8.697,3.4 h -1.979 v -19.197 q 3.419,-1.063 11.096,-2.48 7.737,-1.487 15.474,-1.487 18.413,0 26.57,6.73 8.217,6.658 8.217,20.968 v 54.12 h -21.412 v -8.43 z"
         style="font-style:normal;font-variant:normal;font-weight:700;font-stretch:normal;font-size:25.5001px;line-height:125%;font-family:sans-serif;-inkscape-font-specification:'sans-serif, Bold';text-align:start;letter-spacing:0;word-spacing:0;writing-mode:lr-tb;text-anchor:start;fill:#ffffff;fill-opacity:1;stroke:none;stroke-width:1px;stroke-linecap:butt;stroke-linejoin:miter;stroke-opacity:1"
         id="path16" />
      <path
         d="m -933.92,-95.438 h -18.762 v -38.395 q 0,-12.185 -1.202,-15.727 -1.202,-3.613 -3.94,-5.596 -2.67,-1.984 -6.476,-1.984 -4.874,0 -8.746,2.834 -3.873,2.834 -5.342,7.509 -1.402,4.675 -1.402,17.285 v 34.074 h -18.762 v -75.232 h 17.427 v 11.05 q 9.28,-12.75 23.369,-12.75 6.21,0 11.35,2.408 5.141,2.338 7.745,6.022 2.671,3.683 3.673,8.359 1.068,4.675 1.068,13.389 z m 36.782,-0.609 h -20.37 v -75.233 h 18.92 v 10.697 q 4.857,-7.58 8.7,-9.988 3.914,-2.409 8.843,-2.409 6.96,0 13.411,3.755 l -6.306,17.356 q -5.147,-3.26 -9.57,-3.26 -4.277,0 -7.249,2.339 -2.972,2.267 -4.712,8.288 -1.667,6.021 -1.667,25.22 z m 71.758,-22.178 17.94,-3.047 q 1.144,5.81 4.643,8.856 3.499,2.975 9.796,2.975 6.934,0 10.433,-2.834 2.353,-1.983 2.353,-5.313 0,-2.267 -1.272,-3.754 -1.336,-1.417 -5.98,-2.621 -21.628,-5.313 -27.416,-9.706 -8.016,-6.092 -8.016,-16.93 0,-9.776 6.934,-16.435 6.934,-6.66 21.501,-6.66 13.868,0 20.61,5.03 6.744,5.03 9.288,14.877 l -16.857,3.471 q -1.082,-4.392 -4.135,-6.73 -2.99,-2.338 -8.588,-2.338 -7.06,0 -10.114,2.196 -2.036,1.559 -2.036,4.038 0,2.126 1.781,3.613 2.418,1.984 16.667,5.597 14.313,3.612 19.974,8.855 5.598,5.313 5.598,14.805 0,10.343 -7.76,17.781 -7.761,7.438 -22.965,7.438 -13.804,0 -21.882,-6.234 -8.016,-6.234 -10.496,-16.93 z m 122.18,22.891 v -11.263 q -3.933,6.021 -10.377,9.492 -6.376,3.471 -13.498,3.471 -7.257,0 -13.023,-3.33 -5.765,-3.329 -8.343,-9.35 -2.577,-6.021 -2.577,-16.647 v -47.605 h 19.06 v 34.57 q 0,15.868 1.017,19.481 1.085,3.542 3.866,5.667 2.781,2.055 7.054,2.055 4.884,0 8.75,-2.763 3.867,-2.834 5.291,-6.943 1.424,-4.18 1.424,-20.33 v -31.737 h 19.06 v 75.232 z m 33.224,0 v -103.852 h 17.875 v 103.852 z"
         style="font-style:normal;font-variant:normal;font-weight:700;font-stretch:normal;font-size:25.5007px;line-height:125%;font-family:Arial;-inkscape-font-specification:'Arial, Bold';text-align:start;letter-spacing:0;word-spacing:0;writing-mode:lr-tb;text-anchor:start;fill:#ffffff;fill-opacity:1;stroke:none;stroke-width:1px;stroke-linecap:butt;stroke-linejoin:miter;stroke-opacity:1"
         id="path18" />
      <ellipse
         ry="13.605"
         rx="11.701"
         cy="-193.866"
         cx="-846.71997"
         style="opacity:1;fill:#ffffff;fill-opacity:1;fill-rule:evenodd;stroke:#016bbf;stroke-width:0.776676;stroke-linecap:round;stroke-linejoin:round;stroke-miterlimit:4;stroke-dasharray:none;stroke-opacity:1"
         id="ellipse20" />
      <path
         style="opacity:1;fill:#ffffff;fill-opacity:1;fill-rule:evenodd;stroke:#016bbf;stroke-width:0.751532;stroke-linecap:round;stroke-linejoin:round;stroke-miterlimit:4;stroke-dasharray:none;stroke-opacity:1"
         d="m -857.397,-173.9 h 22.516 v 78.805 h -22.516 z"
         id="path22" />
    </g>
  </g>
</svg>
