<svg width="120mm" height="120mm" viewBox="0 0 120 120" xmlns="http://www.w3.org/2000/svg"><path style="fill:#001b51;fill-opacity:1;stroke-width:.15875;paint-order:markers stroke fill" d="M-382.041 144.805h120v120h-120z" transform="translate(382.041 -144.805)"/><path d="M-341.156 237.537v-8.863h17.727V246.4h-17.727z" style="fill:#d1d3d4;fill-opacity:1;stroke-width:.264583" transform="translate(382.041 -144.805)"/><path style="fill:#fff;stroke-width:1" d="M-323.429 237.537v-8.863h17.727V246.4h-17.727zm-17.727-45.76c0-17.022-.089-24.61-.3-25.593-.206-.963-.562-1.66-1.143-2.241-.827-.827-1.158-.936-3.915-1.287-1.225-.156-1.257-.184-1.257-1.07v-.91l12.502.003c19.55.004 22.691.465 29.225 4.29 7.113 4.163 10.482 10.991 10.478 21.24-.002 6.044-1.059 10.849-3.417 15.534-3.599 7.152-8.442 11.37-14.947 13.02-3.806.964-7.42 1.211-17.747 1.211h-9.48zm23.416 21.398c2.76-.658 5.343-2.14 7.556-4.34 4.683-4.657 6.929-11.14 6.924-19.98-.005-8.73-2.565-15.192-8.086-20.418-4.497-4.258-8.627-5.535-18.433-5.702l-4.366-.075-.08 22.093c-.058 16.029.004 22.485.227 23.522.454 2.116 2.171 3.76 4.746 4.541 3.44 1.045 8.028 1.188 11.512.359z" transform="translate(382.041 -144.805)"/></svg>