<?xml version="1.0" encoding="UTF-8" standalone="no"?>
<svg
   width="441"
   height="441.655"
   viewBox="0 0 116.68125 116.855"
   version="1.1"
   id="svg6"
   sodipodi:docname="sicredi.svg"
   inkscape:version="1.1.1 (3bf5ae0d25, 2021-09-20)"
   xmlns:inkscape="http://www.inkscape.org/namespaces/inkscape"
   xmlns:sodipodi="http://sodipodi.sourceforge.net/DTD/sodipodi-0.dtd"
   xmlns="http://www.w3.org/2000/svg"
   xmlns:svg="http://www.w3.org/2000/svg">
  <defs
     id="defs10" />
  <sodipodi:namedview
     id="namedview8"
     pagecolor="#ffffff"
     bordercolor="#666666"
     borderopacity="1.0"
     inkscape:pageshadow="2"
     inkscape:pageopacity="0.0"
     inkscape:pagecheckerboard="0"
     showgrid="false"
     inkscape:zoom="0.97134642"
     inkscape:cx="2.0589977"
     inkscape:cy="217.739"
     inkscape:window-width="2560"
     inkscape:window-height="1017"
     inkscape:window-x="-8"
     inkscape:window-y="-8"
     inkscape:window-maximized="1"
     inkscape:current-layer="svg6" />
  <path
     style="fill:#3ea00f;fill-opacity:1;stroke-width:0.15875;paint-order:markers stroke fill"
     d="M -2.2555713e-4,0 H 116.68148 V 116.855 H -2.2555713e-4 Z"
     id="path2" />
  <path
     style="fill:#ffffff;stroke-width:1"
     d="m 30.476384,105.86645 c 1.823,-0.59 2.837,-2.23 3.015,-4.88 0.189,-2.806001 -0.54,-3.617001 -4.69,-5.220001 -1.046,-0.404 -2.037,-0.855 -2.2,-1.002 -0.409,-0.37 -0.29,-1.672 0.199,-2.16 0.33,-0.332 0.502,-0.35 3.86,-0.396 1.934,-0.027 3.516,-0.099 3.516,-0.16 0.001,-0.119 0.26,-1.84 0.409,-2.726 l 0.09,-0.535 -4.208,0.068 c -4.94,0.08 -5.488,0.196 -6.701,1.404 -0.858,0.854 -1.232,1.797 -1.374,3.47 -0.12,1.402 0.115,2.349 0.784,3.16 0.666,0.808 1.31,1.18 3.722,2.157 1.143,0.462 2.205,0.953 2.359,1.090001 0.557,0.492 0.283,1.898 -0.465,2.388 -0.379,0.249 -0.925,0.3 -3.963,0.369 l -3.524,0.08 -0.189,1.36 a 35.64,35.64 0 0 0 -0.202,1.654 c -0.013,0.281 0.186,0.292 4.344,0.225 3.564,-0.057 4.516,-0.12 5.218,-0.347 z m 19.603,0.038 c 0.88,-0.237 0.93,-0.326 1.127,-2.032 l 0.112,-0.965 -2.454,0.083 c -2.723,0.093 -3.083,0.007 -3.48,-0.82 -0.191,-0.398 -0.197,-0.722 -0.036,-1.994 0.39,-3.088001 0.8,-3.402001 4.418,-3.375001 l 2.44,0.018 0.169,-1.317 c 0.092,-0.725 0.139,-1.364 0.104,-1.421 -0.103,-0.166 -0.986,-0.31 -2.849,-0.466 -2.002,-0.167 -3.888,0.013 -4.964,0.474 -1.675,0.719 -2.751,2.404 -3.207,5.026 -0.704,4.054001 0.179,6.115001 2.952,6.890001 1.055,0.294 4.424,0.235 5.667,-0.1 z m 22.002,-0.05 c 0.572,-0.136 1.223,-0.321 1.447,-0.411 l 0.408,-0.164 -0.24,-1.178 -0.24,-1.179 -2.756,0.09 c -3.013,0.097 -3.56,-0.001 -3.876,-0.698 -0.208,-0.455 -0.236,-0.86 -0.061,-0.863 0.72,-0.01 4.16,-0.365 4.838,-0.5 2.08,-0.413 3.094,-1.475001 3.299,-3.452001 0.197,-1.901 -0.625,-3.128 -2.453,-3.66 -1.407,-0.41 -4.579,-0.36 -6.028,0.097 -2.632,0.829 -3.94,3.52 -3.744,7.703001 0.12,2.537 1.092,3.793 3.408,4.399 1.025,0.268 4.558,0.16 5.998,-0.184 z m -5.169,-6.920001 c -0.17,-0.292 0.404,-1.639 0.864,-2.026 0.43,-0.362 0.636,-0.413 1.665,-0.413 0.646,0 1.288,0.044 1.427,0.097 0.297,0.114 0.335,0.828 0.076,1.397 -0.24,0.526 -0.69,0.704 -2.084,0.823 -0.648,0.055 -1.335,0.132 -1.528,0.172 -0.192,0.039 -0.381,0.017 -0.42,-0.05 z m 14.79,6.727001 c 0.567,-0.265 1.288,-0.709 1.603,-0.985 0.316,-0.277 0.618,-0.504 0.673,-0.504 0.054,0 0.098,0.396 0.098,0.88 v 0.88 h 3.014 l 0.09,-0.44 c 0.101,-0.499 2.334,-16.310001 2.334,-16.530001 0,-0.08 -0.855,-0.144 -1.901,-0.144 h -1.902 l -0.09,0.52 c -0.05,0.286 -0.211,1.383 -0.358,2.439 -0.147,1.055 -0.28,1.934 -0.295,1.953 -0.015,0.019 -0.851,-0.033 -1.859,-0.115 -1.946,-0.16 -3.509,-0.014 -4.314,0.403 -1.784,0.922 -2.898,3.744 -2.936,7.435001 -0.022,2.06 0.17,2.924 0.818,3.694 1.038,1.234 3.047,1.44 5.026,0.514 z m -1.847,-3.021 c -0.175,-0.458 -0.101,-2.415 0.139,-3.670001 0.295,-1.54 0.655,-2.178 1.371,-2.426 0.613,-0.212 3.191,-0.28 3.191,-0.085 0,0.069 -0.145,1.166 -0.323,2.44 -0.312,2.240001 -0.339,2.329001 -0.84,2.764001 -1.188,1.035 -3.293,1.616 -3.538,0.977 z m -41.29,2.932 c 0.044,-0.198 0.37,-2.483 0.726,-5.079 0.356,-2.595001 0.706,-5.131001 0.779,-5.637001 0.072,-0.505 0.095,-0.955 0.05,-1 -0.044,-0.044 -0.895,-0.08 -1.89,-0.08 -1.746,0 -1.812,0.013 -1.891,0.36 -0.045,0.198 -0.408,2.735 -0.807,5.638 -0.398,2.903001 -0.764,5.476001 -0.813,5.718001 l -0.09,0.44 h 1.93 c 1.87,0 1.93,-0.011 2.007,-0.36 z m 18.323,0.32 c 0.033,-0.91 0.998,-6.933001 1.137,-7.101001 0.365,-0.44 1.77,-1.043 2.637,-1.132 l 0.852,-0.088 0.267,-0.818 c 0.148,-0.45 0.474,-1.23 0.726,-1.733 0.251,-0.503 0.457,-0.991 0.457,-1.085 0,-0.268 -1.565,-0.016 -2.506,0.403 -0.455,0.203 -1.218,0.663 -1.694,1.023 -0.477,0.36 -0.914,0.654 -0.972,0.654 -0.058,0 -0.106,-0.504 -0.106,-1.12 v -1.119 h -1.444 c -1.01,0 -1.467,0.06 -1.519,0.2 -0.072,0.196 -1.675,11.482001 -1.675,11.796001 0,0.134 3.835,0.253 3.84,0.12 z m 36.465001,-0.003 c 0,-0.023 0.36,-2.596 0.799,-5.717 0.439,-3.122001 0.799,-5.840001 0.8,-6.040001 0,-0.362 -0.016,-0.365 -1.879,-0.32 l -1.88,0.045 -0.826,5.757 c -0.455,3.167001 -0.833001,5.884001 -0.840001,6.038001 -0.011,0.252 0.18,0.28 1.907001,0.28 1.055,0 1.919,-0.02 1.919,-0.043 z M 40.483384,91.817449 c 0.1,-0.46 0.41,-2.607 0.41,-2.83 0,-0.11 -0.676,-0.17 -1.92,-0.17 -1.055,0 -1.92,0.055 -1.92,0.12 -10e-4,0.125 -0.252,1.804 -0.406,2.72 l -0.087,0.52 h 1.923 c 1.865,0 1.926,-0.011 2,-0.36 z m 54.790001,0.24 c 10e-4,-0.124 0.252,-1.803 0.406,-2.72 l 0.088,-0.52 h -1.925 c -1.864,0 -1.926,0.012 -2.003,0.36 -0.069,0.314 -0.406,2.746 -0.406,2.931 0,0.038 0.863,0.069 1.919,0.069 1.056,0 1.92,-0.054 1.92,-0.12 z m -33.463001,-13.065 c 0.143,-0.143 -0.437,-2.086 -1.288,-4.317 -1.762,-4.613 -4.203,-13.718 -4.966,-18.52 -0.602,-3.787 -1.023,-4.748 -2.08,-4.748 -3.23,0 -7.365,12.851 -7.39,22.972 l -0.009,3.33 1.62,0.468 c 3.312,0.959 5.612,1.234 9.678,1.156 2.296,-0.043 4.292,-0.197 4.435,-0.34 z m 16.048,-7.906 c 2.716,-2.48 6.64,-7.385 6.176,-7.72 -0.1,-0.071 -2.706,-0.953 -5.793,-1.959 -4.854,-1.582 -13.177,-5.314 -14.763,-6.62 -0.284,-0.233 -0.964,-0.36 -1.511,-0.283 -2.314,0.328 -1.029,5.033 2.866,10.49 2.254,3.16 8.213,8.863 9.26,8.863 0.4,0 2.095,-1.247 3.765,-2.771 z m -42.206,-4.386 c 4.215,-7.35 9.208,-14.477 13.834,-19.744 3.07,-3.496 2.87,-5.048 -0.651,-5.048 -2.087,0 -8.526,2.002 -11.903,3.7 -2.79,1.404 -8.664,5.234 -10.672,6.96 l -1.466,1.26 0.933,2.805 c 1.59,4.779 6.85,13.13 8.035,12.757 0.233,-0.073 1.083,-1.283 1.89,-2.69 z m 48.82,-13.804 c 4.557,-1.037 4.475,-0.907 4.513,-7.144 0.018,-2.945 -0.12,-6.09 -0.306,-6.991 l -0.34,-1.638 -2.674,2.122 c -3.81,3.023 -8.046,5.673 -13.145,8.227 -3.201,1.603 -4.426,2.436 -4.426,3.01 0,1.053 1.17,2.05 3.023,2.577 2.389,0.68 10.064,0.585 13.355,-0.163 z m -9.95,-12.606 c 3.005,-3.016 5.644,-6.845 7.697,-11.167 1.384,-2.915 1.48,-3.344 0.964,-4.31 -0.93,-1.736 -5.003,-6.03 -7.367,-7.765 -2.541,-1.865 -2.955,-1.637 -2.966,1.633 -0.011,3.437 -1.279,11.953 -2.605,17.504 -0.695,2.907 -1.15,5.578 -1.013,5.936 0.145,0.38 0.787,0.652 1.534,0.652 0.988,0 1.853,-0.572 3.756,-2.483 z m -41.614,-3.595 c 2.612,-0.265 9.023,-0.414 14.247,-0.332 l 9.498,0.15 0.137,-0.96 c 0.196,-1.384 -3.175,-4.812 -7.393,-7.518 -3.904,-2.504 -9.54,-5.073 -13.674,-6.233 l -2.75,-0.772 -1.472,1.697 c -2.634,3.039 -5.671,9.208 -6.757,13.73 l -0.298,1.24 1.856,-0.26 c 1.021,-0.144 3.994,-0.477 6.606,-0.742 z m 32.651,-1.115 c 0.43,-0.521 0.574,-1.965 0.523,-5.289 -0.08,-5.25 -1.36,-10.908 -3.693,-16.34 l -1.436,-3.343 -4.74,10e-4 c -4.41,10e-4 -10.217,1.023 -10.755,1.894 -0.097,0.156 1.076,1.64 2.606,3.296 4.378,4.742 9.402,11.063 12.7,15.98 1.668,2.484 3.296,4.518 3.617,4.518 0.322,0 0.852,-0.323 1.178,-0.717 z"
     id="path4" />
</svg>
