<svg width="937.541" height="937.541" viewBox="0 0 248.058 248.058" xmlns="http://www.w3.org/2000/svg"><path style="fill:#009ad4;stroke-width:1" d="M-21.567 6.817H226.49v248.058H-21.568V6.817z" transform="translate(21.567 -6.817)"/><path style="fill:#f7fafc;stroke-width:1" d="M52.258 174.091c-.244-.88-.446-1.786-.448-2.013-.003-.228-.193-1.09-.422-1.916l-.418-1.502-3.508-.292c-1.929-.16-3.506-.415-3.504-.565.002-.15 1.303-1.017 2.89-1.927 1.588-.91 2.882-1.933 2.877-2.274-.006-.34-.352-2.058-.769-3.815l-.757-3.195 1.593 1.261c.876.694 1.694 1.426 1.818 1.626.123.2.75.738 1.392 1.195l1.167.832 3.012-1.857c1.657-1.022 3.08-1.79 3.161-1.708.082.082-.498 1.622-1.29 3.422l-1.44 3.273.936.827c.515.455 1.753 1.523 2.752 2.374.998.852 1.732 1.631 1.63 1.733-.101.102-1.668.036-3.482-.145-1.814-.181-3.405-.272-3.538-.201-.132.07-.765 1.393-1.408 2.938-1.524 3.667-1.715 3.831-2.244 1.929zm80.78-4.074c-.41-1.956-.88-3.639-1.042-3.739-.163-.1-1.9-.306-3.86-.457-1.96-.15-3.56-.386-3.558-.523.003-.137 1.398-1.056 3.1-2.042 1.908-1.105 3.094-2.057 3.09-2.48-.004-.379-.359-2.083-.788-3.789-.733-2.912-.774-4.025-.113-3.077.158.226 1.44 1.403 2.85 2.615l2.563 2.204 3.17-1.925c1.744-1.059 3.242-1.853 3.33-1.766.087.088-.523 1.675-1.356 3.528l-1.514 3.368 1.823 1.598c1.004.88 2.382 2.097 3.065 2.706l1.24 1.106-1.447-.197a126.41 126.41 0 0 0-3.97-.438l-2.522-.24-1.372 3.218c-.756 1.77-1.502 3.368-1.658 3.552-.157.184-.62-1.265-1.031-3.222zm-22.524-4.45c0-.513-.196-1.629-.433-2.481l-.43-1.55h-2.461c-1.354 0-2.461-.14-2.461-.31 0-.171.93-.833 2.067-1.472 2.232-1.253 2.28-1.363 1.625-3.721-.667-2.402-.291-2.64 1.55-.977.923.835 1.788 1.518 1.921 1.518s1.194-.561 2.357-1.247c2.053-1.21 2.107-1.22 1.827-.31-.16.515-.545 1.44-.857 2.053-.832 1.636-.742 1.917 1.189 3.713l1.757 1.634-2.54-.223-2.54-.224-.92 2.263c-.958 2.364-1.647 2.92-1.65 1.333zM27.2 160.811c.157-.626 2.416-8.552 5.02-17.614 2.605-9.061 4.76-17.134 4.79-17.939.067-1.758-.855-2.586-2.88-2.586-1.107 0-1.37-.15-1.262-.724.111-.595 1.27-.91 6.542-1.779 4.228-.697 6.445-.907 6.52-.618.063.24-.152 1.32-.476 2.4-.325 1.078-.518 1.961-.428 1.961.09 0 1.048-.68 2.13-1.51 3.984-3.058 7.588-3.979 11.321-2.894 5.178 1.506 6.843 6.146 4.913 13.693-1.282 5.012-3.462 9.13-6.373 12.039-3.216 3.213-6.062 4.389-10.656 4.403-3.617.011-5.329-.717-6.795-2.893l-.879-1.304-2.396 8.251-2.396 8.25h-6.98zm21.21-15.455c2.99-1.448 5.431-5.472 7.174-11.825 1.54-5.615 1.126-9.363-1.151-10.4-2.556-1.164-5.78-.194-8.18 2.462-3.758 4.16-6.684 14.446-5.21 18.32.864 2.274 4.271 2.941 7.367 1.443zm106.344 5.212c0-.12 2.419-8.673 5.375-19.007 2.956-10.335 5.375-19.325 5.375-19.977 0-1.515-1.15-2.555-2.824-2.555-1.292 0-1.83-.87-.896-1.448.444-.274 12.518-1.824 12.743-1.635.131.11-6.144 22.167-11.963 42.048l-.816 2.791h-3.497c-1.923 0-3.497-.098-3.497-.217zm17.778-.215c0-.238 2.33-8.563 5.178-18.501s5.287-18.746 5.42-19.574c.3-1.868-.866-3.25-2.743-3.25-.965 0-1.24-.183-1.24-.826 0-.455.232-.836.517-.847.284-.011 3.214-.362 6.511-.78 3.297-.416 6.03-.728 6.074-.692.133.11-12.212 42.972-12.664 43.972-.385.852-.698.93-3.737.93-2.03 0-3.316-.168-3.316-.432zM-2.35 149.26c-1.934-.342-3.576-.68-3.65-.752-.137-.131 1.2-5.165 1.372-5.165.051 0 1.19.555 2.529 1.232 3.285 1.662 7.909 2.661 10.876 2.351 4.491-.47 7.22-2.26 8.706-5.716 1.932-4.492.455-6.78-7.125-11.037-7.165-4.022-8.833-6.107-8.473-10.592.24-2.997 1.308-5.25 3.548-7.49 2.143-2.143 5.071-3.713 8.376-4.492 5.078-1.197 18.101-.517 17.55.916-.13.341-.432 1.394-.67 2.34l-.433 1.72-3.384-1.132c-8.418-2.814-14.271-1.527-16.216 3.565-1.474 3.861-.033 5.865 7.02 9.76 4.518 2.493 7.358 4.779 8.372 6.736 1.116 2.156.848 5.659-.669 8.74-2.261 4.593-6.835 7.856-12.779 9.116-3.515.745-10.433.699-14.95-.1zm69.455.61c0-.065 1.489-5.328 3.308-11.695 1.819-6.366 3.307-12.073 3.307-12.683 0-1.283-.963-2.407-2.063-2.407-2.268 0-2.852-1.482-.727-1.847 5.788-.992 11.65-1.835 11.79-1.694.094.094-1.762 6.929-4.123 15.189l-4.294 15.018-3.599.12c-1.98.065-3.599.065-3.599 0zm67.125-.344c-4.514-.595-7.91-2.94-9.258-6.391-.657-1.683-.658-5.712-.003-8.474 1.432-6.03 5.039-10.955 9.695-13.236 4.778-2.342 11.841-2.562 15.908-.497 2.307 1.171 3.475 3.745 3.192 7.032-.123 1.43-.334 2.78-.47 2.997-.144.235-4.2.397-9.948.397-8.854 0-9.73.063-10.002.723-.163.398-.297 2.584-.297 4.858 0 3.595.124 4.334.951 5.664 1.642 2.64 3.424 3.432 7.731 3.432 2.047 0 4.408-.146 5.247-.325l1.525-.324-.376 1.31c-.206.722-.448 1.384-.536 1.472-.301.3-5.853 1.298-8.34 1.498-1.365.11-3.623.049-5.02-.136zm12.83-21.307c.4-1.041.291-3.352-.208-4.449-.817-1.791-4.132-2.511-6.853-1.487-2.068.778-5.505 4.622-5.505 6.156 0 .284 2.134.434 6.158.434 5.233 0 6.194-.098 6.408-.654zm44.488 21.216c0-.288 1.401-5.42 3.114-11.406 1.713-5.985 3.139-11.509 3.167-12.274.069-1.818-.558-2.508-2.568-2.83-1.613-.258-2.08-.763-1.206-1.303.371-.23 11.88-2.232 12.937-2.251.195-.003.231.314.08.706-.15.393-2.031 6.858-4.18 14.367-2.149 7.51-4.088 14.072-4.31 14.584-.369.854-.674.93-3.718.93-2.399 0-3.316-.145-3.316-.523zm-104.792-1.17c1.222-3.85 6.395-22.533 6.395-23.096 0-1.036-1.217-1.971-2.997-2.302-1.578-.292-1.942-.731-1.06-1.277.612-.378 12.448-2.241 12.692-1.998.157.157-1.208 5.281-1.858 6.975-.136.354.907-.468 2.318-1.827 5.777-5.566 13.517-7.07 16.731-3.25 1.683 2.001 1.406 4.09-2.19 16.479l-3.178 10.956-3.407.12c-2.419.085-3.407-.022-3.407-.37 0-.27 1.228-4.753 2.729-9.963 2.781-9.655 3.304-12.885 2.285-14.115-.719-.867-3.674-.91-5.652-.084-1.854.775-5.786 4.495-7.005 6.628-.779 1.363-2.53 6.916-5.25 16.647l-.376 1.343h-3.523c-3.387 0-3.512-.033-3.247-.866zm-7.942-33.526c-.495-.24-1.112-.947-1.371-1.573-1.382-3.334 3.919-7.405 7.34-5.636 2.108 1.09 2.363 3.191.636 5.244-1.81 2.151-4.54 2.963-6.605 1.965zm123.822-.76c-1.348-1.348-1.367-2.387-.08-4.353.675-1.03 3.653-2.665 4.853-2.665 1.06 0 3.018 1.111 3.313 1.88.792 2.062-.74 4.744-3.328 5.825-2.108.881-3.373.699-4.758-.687zm-61.726-2.738c-.824-3.806-.908-3.866-5.434-3.866-1.222 0-2.218-.14-2.212-.31.005-.17 1.307-1.04 2.894-1.933 1.586-.892 2.88-1.73 2.877-1.86-.003-.131-.358-1.633-.788-3.339-.429-1.705-.737-3.146-.683-3.202.053-.056 1.274.918 2.713 2.164l2.616 2.265 1.279-.776c3.398-2.065 4.193-2.515 4.445-2.516.252-.002.02.58-1.81 4.546l-.667 1.447 2.55 2.383 2.548 2.383-3.403-.265-3.402-.266-.838 2.017c-2.077 5.005-1.866 4.916-2.685 1.128zm-48.162-7.243a214.25 214.25 0 0 0-.88-3.711l-.379-1.507-3.716-.294c-2.045-.162-3.715-.414-3.712-.56.003-.147 1.398-1.074 3.1-2.06 1.703-.986 3.09-2.01 3.082-2.274-.007-.264-.366-1.967-.797-3.783-.43-1.817-.737-3.35-.68-3.405.055-.056 1.111.782 2.346 1.86 3.9 3.407 3.276 3.303 6.829 1.145 1.74-1.056 3.229-1.853 3.31-1.772.08.08-.52 1.69-1.336 3.577l-1.483 3.43 2.191 1.918a808.01 808.01 0 0 0 3.045 2.652c.826.712.757.728-2.248.497-1.705-.13-3.495-.318-3.977-.416-.752-.152-1.072.279-2.242 3.02-.75 1.76-1.497 3.354-1.658 3.543-.161.189-.519-.648-.795-1.86z" transform="translate(21.567 -6.817)"/></svg>