<svg xmlns="http://www.w3.org/2000/svg" width="175.068" height="45.071" viewBox="0 0 175.068 45.071"><defs><style>.a{fill:#ffffff;}</style></defs><path class="a" d="M476.505-367.906h.032l-.022-.025Z" transform="translate(-459.477 397.902)"/><path class="a" d="M516.116-438.425a6.781,6.781,0,0,0,.685,2.043,1.8,1.8,0,0,1,.2.8,1.521,1.521,0,0,1-1.581,1.452l-.043,0-.163,0H513a5.823,5.823,0,0,1,.051.76,5.785,5.785,0,0,1-5.785,5.785v1.854c0,.109,0,.182,0,.217a.821.821,0,0,0,.343.625.745.745,0,0,0,.677-.05,7.588,7.588,0,0,1,2.416-.771,3.338,3.338,0,0,1,3.2,3.329,3.278,3.278,0,0,1-.185,1.083h1.259c1,2.259,2.007,4.544,3.011,6.8h9.238a1.462,1.462,0,0,0,.763-.216l-11.255-25.15A2.018,2.018,0,0,0,516.116-438.425Z" transform="translate(-485.85 459.563)"/><path class="a" d="M370.4-388.341h13.933a2.889,2.889,0,0,0,.231-1.134,2.469,2.469,0,0,0-2.292-2.61,7.133,7.133,0,0,0-2.126.71,1.526,1.526,0,0,1-1.469.022,1.682,1.682,0,0,1-.764-1.418l0-.188v-1.715a5.772,5.772,0,0,1-3.648-1.938h-.032l.011-.025a5.761,5.761,0,0,1-1.4-3.777,5.822,5.822,0,0,1,.088-1h-3.055l-.142,0h0c-.556.036-.887.292-.887.684a1.059,1.059,0,0,0,.121.46,7.752,7.752,0,0,1,.788,2.459,3.223,3.223,0,0,1-3.367,3.049,3.485,3.485,0,0,1-2.718-1.252L357.2-381.536h10.072c1.032-2.285,2.063-4.546,3.067-6.834Z" transform="translate(-357.202 426.607)"/><path class="a" d="M509.749-576.951l-.432-.966h-.672v1.818h0v7.171c0,.115,0,.191,0,.227h0a.87.87,0,0,0,.343.656.711.711,0,0,0,.677-.052,7.362,7.362,0,0,1,2.416-.808,2.691,2.691,0,0,1,1.47.444Z" transform="translate(-487.027 577.917)"/><path class="a" d="M512.041-481.125a7.339,7.339,0,0,1-2.416-.809.7.7,0,0,0-.678-.05.9.9,0,0,0-.348.707c0,.012,0,.058,0,.058l0,.171v3.851A5.786,5.786,0,0,1,514-472.914h2.363l.139,0h.01c.187-.014.8-.1.8-.639a1.058,1.058,0,0,0-.112-.444,8.22,8.22,0,0,1-.771-2.533,3.087,3.087,0,0,1,1.041-2.3l-2.421-5.41A3.226,3.226,0,0,1,512.041-481.125Z" transform="translate(-486.99 497.611)"/><path class="a" d="M422.41-565.833a6.6,6.6,0,0,0-2.225.908c-.862.424-1.573-.229-1.638-1.231,0,.045,0,.076-.006.1,0-.036,0-.115,0-.23v-7.245h0v-1.92h-.786l-.494,1.107-12.7,28.468A2.96,2.96,0,0,0,407-544.558a2.906,2.906,0,0,0,2.9-2.773,8.1,8.1,0,0,0-.908-2.406c-.423-.862.229-1.573,1.23-1.638l.162,0h3.322a5.789,5.789,0,0,1,4.838-3.981v-4.19l0-.163c.065-1,.777-1.472,1.638-1.049a7.551,7.551,0,0,0,2.225.727,2.759,2.759,0,0,0,2.591-2.9A2.758,2.758,0,0,0,422.41-565.833Z" transform="translate(-397.798 575.808)"/><path class="a" d="M487.226-416.339l2.752-6.493,2.921,6.493Z" transform="translate(-468.668 444.966)"/><path class="a" d="M720.4-530.239l2.153-4.586,2.138,4.586Zm-1.987,3.9h8.264l.075.151,1.566,3.19h5.254l-11.034-22.426-11,22.426h5.238l1.581-3.176Z" transform="translate(-660.965 550.06)"/><path class="a" d="M884.619-542.243h-5.991v22.015h5.991a13.061,13.061,0,0,0,8.851-3.231,10.925,10.925,0,0,0,0-15.553,13.007,13.007,0,0,0-8.851-3.245Zm.015,17.593H883.49v-13.212H884.6a7.567,7.567,0,0,1,5.269,1.807,6.233,6.233,0,0,1,1.987,4.806,6.233,6.233,0,0,1-1.972,4.805,7.546,7.546,0,0,1-5.238,1.794Z" transform="translate(-804.207 547.347)"/><path class="a" d="M1007.96-530.239l2.153-4.586,2.137,4.586Zm-1.987,3.9h8.264l.075.151,1.566,3.19h5.254L1010.1-545.422l-11,22.426h5.239l1.581-3.176Z" transform="translate(-907.479 550.06)"/><path class="a" d="M1166.29-520.474h4.862V-527.1h3.628a8.662,8.662,0,0,0,6.006-2.259,7.077,7.077,0,0,0,2.5-5.449,7.125,7.125,0,0,0-2.5-5.463,8.612,8.612,0,0,0-6.006-2.273h-8.49v22.07Zm4.862-11.035v-6.627h3.628a3.646,3.646,0,0,1,2.574.986,3.1,3.1,0,0,1,1.069,2.341,3.057,3.057,0,0,1-1.069,2.341,3.7,3.7,0,0,1-2.574.972Z" transform="translate(-1050.812 547.593)"/><path class="a" d="M1304.109-542.544h-6.067v4.408h6.067v17.662h4.862v-17.662h6.066v-4.408h-10.929Z" transform="translate(-1163.76 547.593)"/><path class="a" d="M1431.9-542.544v22.07h14.557V-524.9h-9.694V-529.3h7.271v-4.408h-7.271v-4.422h9.694v-4.408Z" transform="translate(-1278.516 547.593)"/><path class="a" d="M1549.734-520.474h4.862v-22.07h-4.862Z" transform="translate(-1379.528 547.593)"/><path class="a" d="M815.232-342.524a3.753,3.753,0,0,0-2.622.994,3.124,3.124,0,0,0-1.09,2.387,3.109,3.109,0,0,0,1.09,2.382,3.767,3.767,0,0,0,2.622.99,3.786,3.786,0,0,0,2.627-.99,3.1,3.1,0,0,0,1.095-2.382,2.893,2.893,0,0,0-.073-.671h-3.639v1.346h2.1a2.064,2.064,0,0,1-.8.97,2.28,2.28,0,0,1-1.3.377,2.259,2.259,0,0,1-1.573-.593,1.864,1.864,0,0,1-.652-1.429,1.876,1.876,0,0,1,.652-1.429,2.243,2.243,0,0,1,1.573-.6,2.275,2.275,0,0,1,1.573.6l1.049-.953a3.986,3.986,0,0,0-1.19-.721,3.883,3.883,0,0,0-1.441-.265Z" transform="translate(-746.677 376.121)"/><path class="a" d="M867.355-342.292v6.679h4.41v-1.338h-2.937v-1.334h2.2v-1.334h-2.2v-1.338h2.937v-1.334Z" transform="translate(-794.543 375.922)"/><path class="a" d="M904.918-337.2a.712.712,0,0,1-.743-.675h-1.487a1.867,1.867,0,0,0,.657,1.434,2.261,2.261,0,0,0,1.578.6,2.258,2.258,0,0,0,1.573-.6,1.868,1.868,0,0,0,.657-1.434,1.383,1.383,0,0,0-.31-.928,2.862,2.862,0,0,0-1.428-.878,2.308,2.308,0,0,1-.912-.348.6.6,0,0,1-.319-.547.718.718,0,0,1,.744-.675.716.716,0,0,1,.739.671h1.482a1.866,1.866,0,0,0-.657-1.429,2.259,2.259,0,0,0-1.573-.6,2.262,2.262,0,0,0-1.578.6,1.866,1.866,0,0,0-.657,1.429,1.421,1.421,0,0,0,.3.924,2.932,2.932,0,0,0,1.382.924c.515.162.388.12.917.3a.52.52,0,0,1,.374.551.718.718,0,0,1-.743.675Z" transform="translate(-824.828 376.195)"/><path class="a" d="M939.913-342.292h-1.838v1.334h1.838v5.345h1.473v-5.345h1.838v-1.334h-3.311Z" transform="translate(-855.169 375.922)"/><path class="a" d="M973.122-351.588l.009-.8c-.383.381-.538.576-1.573.174-1.127-.435-1.354-.253-1.788.174l.023.737c.5-.46.638-.592,1.656-.261.962.315,1.281.427,1.678-.025Zm-2.422,5.059.652-1.388.647,1.388Zm-.6,1.181h2.5c.164.336.328.675.493,1.011h1.587l-3.343-6.787-3.334,6.787h1.583c.169-.34.338-.675.5-1.015Z" transform="translate(-880.827 384.638)"/><path class="a" d="M1021.1-342.524a3.753,3.753,0,0,0-2.622.994,3.125,3.125,0,0,0-1.09,2.387,3.11,3.11,0,0,0,1.09,2.382,3.768,3.768,0,0,0,2.622.99,3.787,3.787,0,0,0,2.627-.99,3.1,3.1,0,0,0,1.094-2.382,3.114,3.114,0,0,0-1.094-2.387A3.772,3.772,0,0,0,1021.1-342.524Zm0,1.346a2.259,2.259,0,0,1,1.573.6,1.866,1.866,0,0,1,.657,1.429,1.853,1.853,0,0,1-.657,1.429,2.274,2.274,0,0,1-1.573.592,2.258,2.258,0,0,1-1.573-.592,1.864,1.864,0,0,1-.652-1.429,1.876,1.876,0,0,1,.652-1.429A2.243,2.243,0,0,1,1021.1-341.177Z" transform="translate(-923.161 376.121)"/><path class="a" d="M1092.388-335.613h1.473v-6.679h-1.473Z" transform="translate(-987.457 375.922)"/><path class="a" d="M1107.816-343.163v6.8h1.473v-3.7l4.41,3.82v-6.8h-1.473v3.692Z" transform="translate(-1000.683 376.669)"/><path class="a" d="M1155.331-342.292h-1.838v1.334h1.838v5.345h1.473v-5.345h1.838v-1.334h-3.311Z" transform="translate(-1039.841 375.922)"/><path class="a" d="M1194.028-342.292v6.679h4.41v-1.338H1195.5v-1.334h2.2v-1.334h-2.2v-1.338h2.937v-1.334Z" transform="translate(-1074.59 375.922)"/><path class="a" d="M1229.707-342.292v6.679h4.41v-1.338h-2.937v-5.341Z" transform="translate(-1105.177 375.922)"/><path class="a" d="M1264.429-335.613h1.473v-6.679h-1.473Z" transform="translate(-1134.944 375.922)"/><path class="a" d="M1282.29-342.524a3.753,3.753,0,0,0-2.622.994,3.124,3.124,0,0,0-1.09,2.387,3.109,3.109,0,0,0,1.09,2.382,3.767,3.767,0,0,0,2.622.99,3.786,3.786,0,0,0,2.627-.99,3.1,3.1,0,0,0,1.095-2.382,2.893,2.893,0,0,0-.073-.671H1282.3v1.346h2.1a2.063,2.063,0,0,1-.8.97,2.28,2.28,0,0,1-1.3.377,2.259,2.259,0,0,1-1.573-.593,1.864,1.864,0,0,1-.652-1.429,1.876,1.876,0,0,1,.652-1.429,2.243,2.243,0,0,1,1.573-.6,2.275,2.275,0,0,1,1.573.6l1.049-.953a3.989,3.989,0,0,0-1.19-.721,3.885,3.885,0,0,0-1.441-.265Z" transform="translate(-1147.073 376.121)"/><path class="a" d="M1334.414-342.292v6.679h4.41v-1.338h-2.937v-1.334h2.2v-1.334h-2.2v-1.338h2.937v-1.334Z" transform="translate(-1194.94 375.922)"/><path class="a" d="M1370.093-343.163v6.8h1.473v-3.7l4.41,3.82v-6.8H1374.5v3.692Z" transform="translate(-1225.526 376.669)"/><path class="a" d="M1417.608-342.292h-1.838v1.334h1.838v5.345h1.473v-5.345h1.838v-1.334h-3.311Z" transform="translate(-1264.684 375.922)"/><path class="a" d="M1456.305-342.292v6.679h4.41v-1.338h-2.937v-1.334h2.2v-1.334h-2.2v-1.338h2.937v-1.334Z" transform="translate(-1299.434 375.922)"/></svg>
