<?xml version="1.0" encoding="UTF-8" standalone="no"?>
<!-- Created with Inkscape (http://www.inkscape.org/) -->

<svg
   width="24mm"
   height="24mm"
   viewBox="0 0 24 23.999999"
   version="1.1"
   id="svg5"
   inkscape:version="1.1.1 (3bf5ae0d25, 2021-09-20)"
   sodipodi:docname="assinatura.svg"
   xmlns:inkscape="http://www.inkscape.org/namespaces/inkscape"
   xmlns:sodipodi="http://sodipodi.sourceforge.net/DTD/sodipodi-0.dtd"
   xmlns="http://www.w3.org/2000/svg"
   xmlns:svg="http://www.w3.org/2000/svg">
  <sodipodi:namedview
     id="namedview7"
     pagecolor="#ffffff"
     bordercolor="#666666"
     borderopacity="1.0"
     inkscape:pageshadow="2"
     inkscape:pageopacity="0.0"
     inkscape:pagecheckerboard="0"
     inkscape:document-units="mm"
     showgrid="false"
     inkscape:zoom="1"
     inkscape:cx="-148"
     inkscape:cy="141.5"
     inkscape:window-width="1920"
     inkscape:window-height="1017"
     inkscape:window-x="-8"
     inkscape:window-y="-8"
     inkscape:window-maximized="1"
     inkscape:current-layer="layer1" />
  <defs
     id="defs2" />
  <g
     inkscape:label="Camada 1"
     inkscape:groupmode="layer"
     id="layer1"
     transform="translate(-280.21078,-29.895913)">
    <g
       id="g854"
       transform="matrix(0.26838591,0,0,0.23668962,265.22301,14.553476)"
       style="fill:#ffffff;fill-opacity:1">
      <path
         style="fill:#ffffff;stroke-width:0.264583;fill-opacity:1"
         d="m 61.486171,165.91049 c -2.361147,-0.74413 -3.906808,-2.13508 -5.019035,-4.51666 l -0.617818,-1.32292 -0.0026,-44.60617 -0.0026,-44.606183 0.80614,-1.613228 c 0.904984,-1.811034 2.160696,-3.042661 3.942916,-3.867293 1.196896,-0.553747 1.35245,-0.557123 25.678149,-0.557123 h 24.473957 l 1.19062,0.707316 c 0.65485,0.389025 4.9594,4.496681 9.56568,9.128125 9.87394,9.927889 9.21974,8.833641 9.21974,15.421417 0,4.502531 -0.21896,5.302518 -1.45131,5.302518 -1.31835,0 -1.45911,-0.484355 -1.45911,-5.020853 v -4.189304 l -6.01927,-0.09316 c -5.82356,-0.09013 -6.06658,-0.115383 -7.47447,-0.77659 -2.03842,-0.957326 -2.94817,-1.807948 -3.99032,-3.730974 l -0.90354,-1.667243 -0.0914,-6.151562 -0.0914,-6.151563 H 86.285958 c -16.456734,0 -23.209101,0.08524 -23.853891,0.301122 -1.401599,0.469276 -2.630355,1.519624 -3.171322,2.710871 -0.476642,1.049597 -0.49456,2.675319 -0.49456,44.877587 0,42.01333 0.01979,43.83145 0.488453,44.84688 0.62815,1.36102 1.47832,2.13029 2.914163,2.63689 1.008184,0.35571 4.862386,0.4051 31.213301,0.40001 28.506678,-0.006 30.117998,-0.0308 31.123688,-0.48764 1.3339,-0.60597 2.66335,-2.10131 3.02453,-3.40193 0.18073,-0.6508 0.27806,-7.10713 0.27902,-18.50916 0.002,-19.09085 -0.0585,-18.3413 1.46948,-18.3413 1.49527,0 1.46669,-0.40191 1.385,19.47991 l -0.0749,18.22322 -0.62336,1.19062 c -0.84933,1.62221 -2.28902,3.08082 -3.87456,3.92547 l -1.32291,0.70474 -31.088545,0.0512 c -25.078306,0.0413 -31.30214,-0.0161 -32.193394,-0.29703 z m 57.591369,-89.450371 -6.48027,-6.484755 -0.0722,4.631256 c -0.0644,4.129763 -0.0173,4.738847 0.43487,5.624857 0.5666,1.110178 1.1139,1.654979 2.28321,2.272811 0.6369,0.336526 1.73439,0.421491 5.55422,0.42999 l 4.76048,0.01059 z m -44.0511,80.516511 c -0.291042,-0.16504 -0.616641,-0.42931 -0.723553,-0.58727 -0.408914,-0.60415 -0.171358,-2.10784 0.622405,-3.93972 2.102538,-4.85233 2.440234,-6.00743 1.754794,-6.00229 -1.409436,0.0106 -5.939367,4.15342 -8.910685,8.14924 -1.476439,1.98551 -2.172759,2.37695 -3.121925,1.75503 -1.104209,-0.7235 -0.79512,-1.6174 1.599943,-4.62712 2.706476,-3.40105 6.058612,-6.58486 7.898117,-7.50152 2.529335,-1.26043 5.115962,-0.70316 5.757384,1.24037 0.355338,1.07668 0.08614,2.55522 -0.912855,5.01376 -0.360984,0.88839 -0.656333,1.65066 -0.656333,1.69394 0,0.0433 0.684609,-0.33646 1.521354,-0.84388 1.790372,-1.0857 3.696793,-1.7073 5.236257,-1.7073 1.109986,0 2.030744,0.39766 5.71087,2.46642 1.361178,0.76518 2.277052,1.06103 4.098772,1.32402 2.073865,0.29939 2.390378,0.41788 2.72932,1.02175 0.342984,0.61107 0.333137,0.75981 -0.09342,1.41082 -0.467881,0.71407 -0.514739,0.72494 -2.497805,0.57924 -2.55321,-0.18758 -4.34762,-0.82316 -7.157886,-2.53533 -1.224571,-0.74607 -2.502085,-1.3565 -2.838916,-1.3565 -1.056082,0 -2.781882,0.81057 -5.424543,2.5478 -2.078143,1.36612 -3.700375,2.2581 -4.013208,2.20665 -0.0269,-0.004 -0.287046,-0.14307 -0.578087,-0.30811 z m 23.465848,-4.45312 c -1.019101,-0.62133 -1.750179,-2.13998 -1.511427,-3.13965 0.335812,-1.40608 2.364894,-6.57735 3.375839,-8.60357 1.37541,-2.75672 1.2787,-2.61283 9.974,-14.84063 4.13924,-5.82083 10.65855,-14.98864 14.48735,-20.37291 9.0512,-12.728311 8.91058,-12.547421 9.9094,-12.747184 0.62576,-0.125153 1.13552,-0.593643 2.132,-1.959387 2.21586,-3.036981 3.23738,-3.304011 5.86823,-1.53397 2.06892,1.391976 2.53249,1.981026 2.53975,3.227202 0.007,1.14843 -0.21019,1.624463 -1.59796,3.50737 -0.71963,0.976371 -0.98907,1.60691 -0.98907,2.314554 0,0.534935 -0.25003,1.396378 -0.55563,1.914325 -0.30559,0.51794 -0.55562,0.97425 -0.55562,1.01403 0,0.0398 0.537,0.45796 1.19334,0.9293 1.50905,1.08372 2.07947,2.15053 1.91762,3.58641 -0.0986,0.87468 -0.79259,2.03326 -3.50008,5.84314 -1.85741,2.61367 -3.5645,4.90095 -3.79352,5.08285 -0.64243,0.51023 -1.56475,0.39275 -2.02007,-0.25731 -0.22653,-0.32342 -0.41188,-0.71913 -0.41188,-0.87935 0,-0.16023 1.50026,-2.41739 3.3339,-5.01591 1.83365,-2.59852 3.39025,-4.87145 3.45913,-5.05094 0.13152,-0.34274 -1.71921,-1.75504 -2.04003,-1.55676 -0.10213,0.0631 -1.6091,2.11168 -3.34882,4.55236 -1.73973,2.44068 -8.1896,11.495 -14.33305,20.12071 -6.14346,8.62571 -11.96691,16.52797 -12.94102,17.56057 -1.7108,1.81354 -6.56243,5.95007 -7.68047,6.54844 -0.82765,0.44294 -1.938123,0.35001 -2.911912,-0.24369 z m 4.351092,-4.64558 c 1.35813,-1.1036 3.21539,-2.81325 4.12724,-3.79924 1.53539,-1.66024 7.75263,-10.03647 7.56287,-10.18915 -0.0463,-0.0372 -0.95658,-0.6966 -2.0229,-1.46526 -1.65904,-1.19593 -1.99204,-1.34428 -2.30807,-1.02825 -0.96681,0.9668 -5.77741,8.02566 -6.82983,10.02176 -1.0541,1.99929 -3.34313,7.6398 -3.34313,8.23796 0,0.44238 0.36659,0.21076 2.81382,-1.77782 z m 17.56513,-22.08862 c 12.156,-16.99622 19.13775,-26.884726 19.23153,-27.23835 0.11759,-0.443367 -3.02424,-2.906088 -3.70747,-2.906088 -0.22131,0 -0.92867,0.744141 -1.5719,1.653646 -0.64324,0.909505 -5.90463,8.301392 -11.69199,16.426422 -9.75478,13.69499 -10.48672,14.7983 -10.03236,15.12255 0.26957,0.19237 1.14496,0.83157 1.94533,1.42042 0.80036,0.58886 1.56889,1.0384 1.70783,0.99898 0.13895,-0.0394 1.99251,-2.50434 4.11903,-5.47758 z m 21.2434,-32.047663 0.71503,-0.97718 -0.88689,-0.676466 c -0.48779,-0.372054 -0.99472,-0.67392 -1.1265,-0.670814 -0.23179,0.0055 -1.69482,1.913126 -1.69482,2.209898 0,0.285563 1.96721,1.478738 2.12148,1.286743 0.0862,-0.107249 0.47844,-0.63473 0.8717,-1.172181 z M 65.692604,85.707995 c -0.647832,-0.453761 -0.796808,-1.65477 -0.270539,-2.18104 0.453845,-0.453845 16.373655,-0.453845 16.8275,0 0.526269,0.52627 0.377293,1.727279 -0.270539,2.18104 -0.49889,0.349435 -1.733407,0.411877 -8.143211,0.411877 -6.409804,0 -7.64432,-0.06244 -8.143211,-0.411877 z m -0.173667,-8.935321 c -0.552765,-0.404191 -0.634492,-1.578147 -0.150466,-2.161363 0.280556,-0.33805 1.547307,-0.397689 8.446823,-0.397689 8.684826,0 8.751771,0.01021 8.751771,1.334825 0,1.536634 -0.216778,1.575591 -8.767659,1.575591 -6.066642,0 -7.906732,-0.07808 -8.280469,-0.351364 z"
         id="path856" />
    </g>
  </g>
</svg>
