<svg width="24" height="24" viewBox="0 0 24 24" fill="none" xmlns="http://www.w3.org/2000/svg">
<path d="M11.1051 22.9655C6.03633 22.5067 2.00306 18.7953 1.15062 13.8056C0.774559 11.6034 1.10866 9.25101 2.08597 7.22319C2.6241 6.10656 3.31142 5.14665 4.23188 4.22621C6.00535 2.45273 8.07293 1.4401 10.6824 1.06702C11.2122 0.991282 12.7575 0.991131 13.319 1.06679C15.1702 1.31624 16.8752 1.96995 18.3098 2.98038C23.0559 6.32296 24.4081 12.751 21.4053 17.6955C19.6706 20.552 16.8102 22.4286 13.4775 22.8967C12.8629 22.983 11.6781 23.0174 11.1051 22.9655ZM6.89959 19.3569C7.10028 19.2615 7.30093 18.9297 7.9481 17.6215C8.83591 15.8268 9.70097 14.6174 11.0801 13.2427C11.7802 12.5449 12.7848 11.689 12.9038 11.689C12.9303 11.689 13.1192 12.1507 13.3198 12.7151C13.5205 13.2794 13.7242 13.7848 13.7725 13.8381C13.9796 14.0668 14.3273 14.132 14.5968 13.9927C14.7491 13.9138 14.7401 13.9276 17.479 9.74116C18.8924 7.58072 18.969 7.45251 18.9688 7.24575C18.9686 6.98897 18.8437 6.75683 18.6532 6.6584C18.4706 6.56414 11.2438 4.55593 11.0872 4.55593C10.7874 4.55593 10.4945 4.82568 10.4597 5.13393C10.4409 5.30888 10.4975 5.50425 10.8184 6.38929C11.0286 6.96579 11.2003 7.4523 11.2003 7.47044C11.2003 7.48858 11.0998 7.5521 10.9766 7.61163C10.8534 7.67116 10.5434 7.85692 10.2873 8.02447C7.79227 9.6566 6.11083 12.2367 5.71096 15.0466C5.6263 15.6426 5.61533 16.9258 5.69206 17.5273C5.76802 18.138 5.9211 18.8666 6.0137 19.0569C6.17622 19.3912 6.55569 19.5201 6.89959 19.3569ZM6.98047 15.95C7.05984 14.2893 7.61886 12.7504 8.64176 11.376C9.50768 10.2125 10.776 9.15211 11.9266 8.62986C12.5222 8.35947 12.5551 8.33838 12.6413 8.17175C12.763 7.93662 12.7305 7.72746 12.4523 6.95623C12.3087 6.55837 12.1961 6.22921 12.2021 6.22474C12.2097 6.22021 13.0602 6.45363 14.096 6.74331C15.1319 7.03297 16.268 7.35005 16.6208 7.44789L17.2621 7.62576L15.8729 9.75154C15.1089 10.9207 14.479 11.8831 14.4733 11.8901C14.4657 11.8973 14.3312 11.5341 14.1702 11.0833C14.0092 10.6326 13.8361 10.2192 13.7853 10.1647C13.6281 9.99575 13.4145 9.91079 13.215 9.93755C12.6896 10.008 10.6847 11.6083 9.56472 12.8511C8.6441 13.8728 8.0277 14.7119 7.34039 15.8794L6.95231 16.5385L6.98047 15.95Z" fill="white"/>
</svg>
