<?xml version="1.0" encoding="UTF-8" standalone="no"?>
<!-- Created with Inkscape (http://www.inkscape.org/) -->

<svg
   width="135.15353mm"
   height="135.35115mm"
   viewBox="0 0 135.15353 135.35115"
   version="1.1"
   id="svg5"
   xml:space="preserve"
   inkscape:version="1.2.2 (b0a8486541, 2022-12-01)"
   sodipodi:docname="statistc.svg"
   xmlns:inkscape="http://www.inkscape.org/namespaces/inkscape"
   xmlns:sodipodi="http://sodipodi.sourceforge.net/DTD/sodipodi-0.dtd"
   xmlns="http://www.w3.org/2000/svg"
   xmlns:svg="http://www.w3.org/2000/svg"><sodipodi:namedview
     id="namedview7"
     pagecolor="#ffffff"
     bordercolor="#000000"
     borderopacity="0.25"
     inkscape:showpageshadow="2"
     inkscape:pageopacity="0.0"
     inkscape:pagecheckerboard="0"
     inkscape:deskcolor="#d1d1d1"
     inkscape:document-units="mm"
     showgrid="false"
     inkscape:zoom="0.75277076"
     inkscape:cx="708.71509"
     inkscape:cy="160.73951"
     inkscape:window-width="2560"
     inkscape:window-height="1011"
     inkscape:window-x="0"
     inkscape:window-y="32"
     inkscape:window-maximized="1"
     inkscape:current-layer="g856" /><defs
     id="defs2" /><g
     inkscape:label="Layer 1"
     inkscape:groupmode="layer"
     id="layer1"
     transform="translate(-174.04271,20.75567)"><g
       id="g856"
       transform="translate(164.65174,-30.379918)"><path
         style="fill:#ffffff;fill-opacity:1;stroke-width:0.264583"
         d="m 58.93269,88.786371 c 0.190995,-0.07643 0.419198,-0.06703 0.507119,0.02088 0.08792,0.08792 -0.06835,0.150452 -0.347266,0.138964 -0.308226,-0.0127 -0.370919,-0.07539 -0.159853,-0.159851 z m 3.96875,0 c 0.190994,-0.07643 0.419197,-0.06703 0.507118,0.02088 0.08792,0.08792 -0.06835,0.150452 -0.347265,0.138964 -0.308226,-0.0127 -0.37092,-0.07539 -0.159853,-0.159851 z m -8.979974,-2.134365 c -0.329107,-0.419645 -0.319749,-0.429003 0.0999,-0.0999 0.254661,0.199721 0.463021,0.40808 0.463021,0.463021 0,0.217763 -0.217274,0.07761 -0.562917,-0.363125 z m 13.792083,0.363125 c 0,-0.05494 0.208359,-0.2633 0.46302,-0.463021 0.419646,-0.329107 0.429004,-0.319749 0.0999,0.0999 -0.345644,0.44073 -0.562917,0.580888 -0.562917,0.363125 z M 51.275633,84.006173 c -0.329108,-0.419645 -0.319749,-0.429003 0.0999,-0.0999 0.440729,0.345644 0.580887,0.562917 0.363124,0.562917 -0.05494,0 -0.2633,-0.208359 -0.46302,-0.463021 z m 19.083749,0.363125 c 0,-0.05494 0.208359,-0.2633 0.463021,-0.463021 0.419645,-0.329107 0.429003,-0.319749 0.0999,0.0999 -0.345644,0.44073 -0.562917,0.580888 -0.562917,0.363125 z m -21.145777,-5.34611 c 0.0127,-0.308226 0.07539,-0.370919 0.159851,-0.159853 0.07643,0.190995 0.06703,0.4192 -0.02088,0.507119 -0.08792,0.08792 -0.150453,-0.06835 -0.138964,-0.347266 z m 23.547916,0 c 0.0127,-0.308226 0.07539,-0.370919 0.15985,-0.159853 0.07643,0.190995 0.06703,0.4192 -0.02087,0.507119 -0.08792,0.08792 -0.150453,-0.06835 -0.138965,-0.347266 z m -45.57883,-6.111816 c 0.190996,-0.07643 0.4192,-0.06703 0.507118,0.02088 0.08792,0.08792 -0.06835,0.150453 -0.347265,0.138965 -0.308225,-0.0127 -0.37092,-0.07539 -0.159853,-0.159851 z m 3.96875,0 c 0.190996,-0.07643 0.419199,-0.06703 0.507118,0.02088 0.08792,0.08792 -0.06835,0.150453 -0.347265,0.138965 -0.308225,-0.0127 -0.37092,-0.07539 -0.159853,-0.159851 z m -8.979972,-2.134365 c -0.329108,-0.419645 -0.31975,-0.429003 0.09989,-0.0999 0.254662,0.199721 0.463021,0.40808 0.463021,0.463021 0,0.217763 -0.217272,0.07761 -0.562915,-0.363125 z m -2.645834,-2.645833 c -0.329107,-0.419645 -0.319749,-0.429003 0.0999,-0.0999 0.254662,0.199721 0.463021,0.40808 0.463021,0.463021 0,0.217762 -0.217272,0.07761 -0.562916,-0.363125 z M 58.93269,65.238455 c 0.190995,-0.07643 0.419198,-0.06703 0.507119,0.02088 0.08792,0.08792 -0.06835,0.150453 -0.347266,0.138965 -0.308226,-0.0127 -0.370919,-0.07539 -0.159853,-0.159851 z M 17.463606,63.148189 c 0.0127,-0.308226 0.07539,-0.370919 0.159852,-0.159853 0.07643,0.190994 0.06703,0.419198 -0.02089,0.507119 -0.08792,0.08792 -0.150453,-0.06835 -0.138965,-0.347266 z m 0,-3.96875 c 0.0127,-0.308226 0.07539,-0.370919 0.159852,-0.159853 0.07643,0.190995 0.06703,0.419198 -0.02089,0.507119 -0.08792,0.08792 -0.150453,-0.06835 -0.138965,-0.347266 z m 23.547916,0 c 0.0127,-0.308226 0.07539,-0.370919 0.159851,-0.159853 0.07643,0.190995 0.06703,0.419198 -0.02088,0.507119 -0.08792,0.08792 -0.150452,-0.06835 -0.138964,-0.347266 z m 53.639916,-2.143066 c 0.190995,-0.07643 0.419201,-0.06703 0.507119,0.02088 0.08792,0.08792 -0.06835,0.150453 -0.347266,0.138965 -0.308226,-0.0127 -0.370919,-0.07539 -0.159853,-0.159851 z m 4.812109,-1.77124 c 0,-0.05494 0.208359,-0.2633 0.463021,-0.463021 0.419642,-0.329107 0.429002,-0.319749 0.09989,0.0999 -0.345648,0.44073 -0.562921,0.580887 -0.562921,0.363125 z m -80.168746,-0.79375 c 0,-0.05494 0.208359,-0.2633 0.463021,-0.463021 0.419644,-0.329107 0.429002,-0.319749 0.0999,0.0999 -0.345644,0.44073 -0.562916,0.580887 -0.562916,0.363125 z m 19.545416,-0.363125 c -0.329108,-0.419645 -0.319749,-0.429003 0.0999,-0.0999 0.254661,0.199721 0.46302,0.40808 0.46302,0.463021 0,0.217762 -0.217273,0.0776 -0.562916,-0.363125 z M 102.10938,52.6193 c 0,-0.05494 0.20836,-0.263301 0.46302,-0.463021 0.41965,-0.329108 0.429,-0.319749 0.0999,0.0999 -0.34565,0.440729 -0.56292,0.580887 -0.56292,0.363125 z M 21.940634,51.82555 c 0,-0.05494 0.20836,-0.263301 0.463021,-0.463021 0.419644,-0.329107 0.429002,-0.319749 0.0999,0.0999 -0.345644,0.44073 -0.562916,0.580887 -0.562916,0.363125 z m 14.253749,-0.363125 c -0.329107,-0.419645 -0.319749,-0.429003 0.0999,-0.0999 0.254662,0.19972 0.463021,0.40808 0.463021,0.463021 0,0.217762 -0.217273,0.0776 -0.562917,-0.363125 z m -9.011692,-2.098969 c 0.190996,-0.07643 0.4192,-0.06703 0.507118,0.02088 0.08792,0.08792 -0.06835,0.150453 -0.347265,0.138964 -0.308225,-0.0127 -0.37092,-0.07539 -0.159853,-0.15985 z m 3.96875,0 c 0.190996,-0.07643 0.419199,-0.06703 0.507118,0.02088 0.08792,0.08792 -0.06835,0.150453 -0.347265,0.138964 -0.308225,-0.0127 -0.37092,-0.07539 -0.159853,-0.15985 z M 104.51152,47.27319 c 0.0127,-0.308227 0.0754,-0.37092 0.15985,-0.159853 0.0764,0.190994 0.067,0.419197 -0.0209,0.507118 -0.0879,0.08792 -0.15045,-0.06835 -0.13896,-0.347265 z M 80.963604,43.30444 c 0.0127,-0.308226 0.07539,-0.370919 0.15985,-0.159853 0.07643,0.190994 0.06703,0.419198 -0.02087,0.507119 -0.08792,0.08792 -0.150453,-0.06835 -0.138965,-0.347266 z m 1.831194,-4.708056 c 0,-0.05494 0.208359,-0.263301 0.463021,-0.463021 0.419645,-0.329108 0.429003,-0.319749 0.0999,0.0999 -0.345644,0.440729 -0.562917,0.580887 -0.562917,0.363125 z m 2.645833,-2.645832 c 0,-0.05494 0.20836,-0.263302 0.463021,-0.463021 0.419645,-0.329108 0.429003,-0.319749 0.0999,0.0999 -0.345644,0.440729 -0.562917,0.580887 -0.562917,0.363126 z m 5.242057,-2.462096 c 0.190995,-0.07643 0.419201,-0.06703 0.507119,0.02089 0.08792,0.08792 -0.06835,0.150453 -0.347266,0.138964 -0.308226,-0.01269 -0.370919,-0.07539 -0.159853,-0.159852 z m 35.718752,-0.264583 c 0.19099,-0.07643 0.4192,-0.06703 0.50712,0.02089 0.0879,0.08792 -0.0684,0.150452 -0.34727,0.138964 -0.30823,-0.0127 -0.37092,-0.07539 -0.15985,-0.159853 z m 4.81211,-1.771238 c 0,-0.05494 0.20835,-0.263301 0.46302,-0.463021 0.41964,-0.329107 0.429,-0.319749 0.0999,0.0999 -0.34564,0.440729 -0.56291,0.580887 -0.56291,0.363126 z m 2.64583,-2.645833 c 0,-0.05494 0.20836,-0.263302 0.46302,-0.463021 0.41964,-0.329107 0.429,-0.319749 0.0999,0.0999 -0.34565,0.440729 -0.56292,0.580887 -0.56292,0.363126 z m 2.40214,-5.346112 c 0.0127,-0.308224 0.0754,-0.370919 0.15985,-0.159852 0.0764,0.190996 0.067,0.419199 -0.0209,0.507118 -0.0879,0.08792 -0.15045,-0.06835 -0.13896,-0.347266 z M 112.7136,19.49194 c 0.0127,-0.308224 0.0754,-0.370919 0.15985,-0.159852 0.0764,0.190996 0.067,0.419199 -0.0209,0.507118 -0.0879,0.08792 -0.15046,-0.06835 -0.13897,-0.347266 z m 23.54792,0 c 0.0127,-0.308224 0.0754,-0.370919 0.15985,-0.159852 0.0764,0.190996 0.067,0.419199 -0.0209,0.507118 -0.0879,0.08792 -0.15045,-0.06835 -0.13896,-0.347266 z M 114.5448,14.783886 c 0,-0.05494 0.20836,-0.263302 0.46302,-0.463021 0.41964,-0.329107 0.429,-0.319749 0.0999,0.0999 -0.34564,0.440729 -0.56291,0.580887 -0.56291,0.363126 z m 19.54541,-0.363126 c -0.32911,-0.419644 -0.31975,-0.429002 0.0999,-0.0999 0.44073,0.345644 0.58089,0.562916 0.36312,0.562916 -0.0549,0 -0.2633,-0.20836 -0.46302,-0.463021 z m -16.89958,-2.282707 c 0,-0.05494 0.20836,-0.263302 0.46302,-0.463021 0.41965,-0.329107 0.429,-0.319749 0.0999,0.0999 -0.34565,0.440729 -0.56292,0.580887 -0.56292,0.363126 z m 14.25375,-0.363126 c -0.32911,-0.419644 -0.31975,-0.429002 0.0999,-0.0999 0.44073,0.345644 0.58089,0.562916 0.36313,0.562916 -0.0549,0 -0.2633,-0.20836 -0.46302,-0.463021 z m -9.01169,-2.0989699 c 0.19099,-0.07643 0.4192,-0.067031 0.50712,0.020888 0.0879,0.087919 -0.0684,0.1504528 -0.34727,0.1389643 -0.30823,-0.012696 -0.37092,-0.07539 -0.15985,-0.1598523 z m 3.96875,0 c 0.19099,-0.07643 0.4192,-0.067031 0.50712,0.020888 0.0879,0.087919 -0.0684,0.1504528 -0.34727,0.1389643 -0.30823,-0.012696 -0.37092,-0.07539 -0.15985,-0.1598523 z"
         id="path862" /><path
         style="fill:#ffffff;fill-opacity:1;stroke-width:0.264583"
         d="m 10.265219,143.802 c -0.3291072,-0.41964 -0.3197488,-0.429 0.0999,-0.0999 0.254661,0.19972 0.463021,0.40808 0.463021,0.46302 0,0.21776 -0.217272,0.0776 -0.562916,-0.36313 z m 132.854571,0.36313 c 0,-0.0549 0.20836,-0.2633 0.46303,-0.46302 0.41964,-0.32911 0.429,-0.31975 0.0999,0.0999 -0.34564,0.44073 -0.56292,0.58089 -0.56292,0.36313 z M 10.034385,138.60888 c 0,-0.0549 0.208359,-0.2633 0.463021,-0.46302 0.419644,-0.32911 0.429002,-0.31975 0.0999,0.0999 -0.345644,0.44073 -0.562916,0.58089 -0.562916,0.36313 z m 133.316245,-0.36313 c -0.32911,-0.41964 -0.31975,-0.429 0.0999,-0.0999 0.44073,0.34564 0.58089,0.56291 0.36313,0.56291 -0.0549,0 -0.2633,-0.20835 -0.46302,-0.46302 z M 49.986466,106.32971 c 0,-0.0549 0.20836,-0.2633 0.463021,-0.46302 0.419645,-0.3291 0.429003,-0.31975 0.0999,0.0999 -0.345644,0.44073 -0.562917,0.58089 -0.562917,0.36312 z m 21.662082,-0.36312 c -0.329107,-0.41965 -0.319749,-0.429 0.0999,-0.0999 0.44073,0.34565 0.580888,0.56292 0.363125,0.56292 -0.05494,0 -0.2633,-0.20836 -0.463021,-0.46302 z M 18.236468,90.454714 c 0,-0.05494 0.208359,-0.2633 0.463021,-0.46302 0.419644,-0.329108 0.429002,-0.319749 0.09989,0.0999 -0.345643,0.440729 -0.562915,0.580887 -0.562915,0.363124 z M 39.89855,90.09159 c -0.329107,-0.419645 -0.319749,-0.429004 0.0999,-0.0999 0.254661,0.19972 0.463021,0.40808 0.463021,0.46302 0,0.217763 -0.217273,0.07761 -0.562917,-0.363124 z m 19.811353,-1.299708 c 0.181901,-0.0734 0.479558,-0.0734 0.661459,0 0.181901,0.0734 0.03307,0.133453 -0.33073,0.133453 -0.363802,0 -0.51263,-0.06006 -0.330729,-0.133453 z m 2.116667,0 c 0.181901,-0.0734 0.479557,-0.0734 0.661458,0 0.181901,0.0734 0.03307,0.133453 -0.330729,0.133453 -0.363802,0 -0.51263,-0.06006 -0.330729,-0.133453 z M 49.234491,78.119194 c 0,-0.363802 0.06005,-0.51263 0.133454,-0.330729 0.0734,0.181901 0.0734,0.479557 0,0.661459 -0.0734,0.181901 -0.133454,0.03307 -0.133454,-0.33073 z m 23.547916,0 c 0,-0.363802 0.06005,-0.51263 0.133453,-0.330729 0.0734,0.181901 0.0734,0.479557 0,0.661459 -0.0734,0.181901 -0.133453,0.03307 -0.133453,-0.33073 z M 49.234491,76.002528 c 0,-0.363802 0.06005,-0.51263 0.133454,-0.330729 0.0734,0.181901 0.0734,0.479557 0,0.661458 -0.0734,0.181901 -0.133454,0.03307 -0.133454,-0.330729 z m 23.52703,-0.15434 c 0.0127,-0.308226 0.07539,-0.370919 0.15985,-0.159853 0.07643,0.190995 0.06703,0.419198 -0.02087,0.507119 -0.08792,0.08792 -0.150453,-0.06835 -0.138965,-0.347266 z m 8.974944,-1.268473 c 0,-0.05494 0.208359,-0.2633 0.46302,-0.463021 0.419645,-0.329107 0.429004,-0.319749 0.0999,0.0999 -0.345644,0.44073 -0.562917,0.580888 -0.562917,0.363125 z M 103.39855,74.21659 c -0.32911,-0.419645 -0.31975,-0.429003 0.0999,-0.0999 0.25466,0.199721 0.46302,0.40808 0.46302,0.463021 0,0.217763 -0.21727,0.07761 -0.56291,-0.363125 z M 27.959905,72.916883 c 0.181901,-0.0734 0.479557,-0.0734 0.661458,0 0.181901,0.0734 0.03307,0.133453 -0.330729,0.133453 -0.363802,0 -0.51263,-0.06006 -0.330729,-0.133453 z m 2.116666,0 c 0.181901,-0.0734 0.479558,-0.0734 0.661459,0 0.181901,0.0734 0.03307,0.133453 -0.330729,0.133453 -0.363803,0 -0.512631,-0.06006 -0.33073,-0.133453 z m 49.543227,-8.952896 c 4.436597,-4.438385 8.126068,-8.069792 8.198829,-8.069792 0.07276,0 -3.497649,3.631407 -7.934246,8.069792 -4.436596,4.438385 -8.126068,8.069791 -8.198828,8.069791 -0.07276,0 3.497648,-3.631406 7.934245,-8.069791 z m -5.55625,-5.55625 c 4.436597,-4.438385 8.126069,-8.069791 8.198829,-8.069791 0.07276,0 -3.497649,3.631406 -7.934245,8.069791 -4.436597,4.438385 -8.126068,8.069791 -8.198829,8.069791 -0.07276,0 3.497649,-3.631406 7.934245,-8.069791 z m -14.353645,6.83623 c 0.181901,-0.0734 0.479558,-0.0734 0.661459,0 0.181901,0.0734 0.03307,0.133453 -0.33073,0.133453 -0.363802,0 -0.51263,-0.06006 -0.330729,-0.133453 z m 2.397787,-0.0055 c 0.190994,-0.07643 0.419197,-0.06703 0.507119,0.02088 0.08792,0.08792 -0.06835,0.150453 -0.347266,0.138964 -0.308226,-0.0127 -0.370919,-0.07539 -0.159853,-0.15985 z M 17.484494,62.244195 c 0,-0.363802 0.06005,-0.51263 0.133452,-0.330729 0.0734,0.181901 0.0734,0.479557 0,0.661458 -0.0734,0.181901 -0.133452,0.03307 -0.133452,-0.330729 z m 23.547914,0 c 0,-0.363802 0.06006,-0.51263 0.133454,-0.330729 0.0734,0.181901 0.0734,0.479557 0,0.661458 -0.0734,0.181901 -0.133454,0.03307 -0.133454,-0.330729 z M 17.484494,60.127529 c 0,-0.363802 0.06005,-0.512631 0.133452,-0.33073 0.0734,0.181901 0.0734,0.479558 0,0.661459 -0.0734,0.181901 -0.133452,0.03307 -0.133452,-0.330729 z m 23.547914,0 c 0,-0.363802 0.06006,-0.512631 0.133454,-0.33073 0.0734,0.181901 0.0734,0.479558 0,0.661459 -0.0734,0.181901 -0.133454,0.03307 -0.133454,-0.330729 z m 50.44403,-3.091156 c 0.190995,-0.07643 0.419201,-0.06703 0.507119,0.02088 0.08792,0.08792 -0.06835,0.150453 -0.347266,0.138965 -0.308226,-0.0127 -0.370919,-0.07539 -0.159853,-0.159851 z m 2.10013,0.0055 c 0.181901,-0.0734 0.479558,-0.0734 0.661459,0 0.181901,0.0734 0.03307,0.133453 -0.33073,0.133453 -0.363802,0 -0.51263,-0.06005 -0.330729,-0.133453 z m 19.909892,-6.27466 c 0,-0.05494 0.20836,-0.2633 0.46302,-0.463021 0.41965,-0.329107 0.42901,-0.319748 0.0999,0.0999 -0.34564,0.440729 -0.56292,0.580887 -0.56292,0.363124 z m 21.66209,-0.363124 c -0.32911,-0.419645 -0.31975,-0.429004 0.0999,-0.0999 0.25466,0.199721 0.46302,0.408081 0.46302,0.463021 0,0.217763 -0.21727,0.07761 -0.56291,-0.363124 z M 27.959905,49.368968 c 0.181901,-0.0734 0.479557,-0.0734 0.661458,0 0.181901,0.0734 0.03307,0.133453 -0.330729,0.133453 -0.363802,0 -0.51263,-0.06005 -0.330729,-0.133453 z m 2.116666,0 c 0.181901,-0.0734 0.479558,-0.0734 0.661459,0 0.181901,0.0734 0.03307,0.133453 -0.330729,0.133453 -0.363803,0 -0.512631,-0.06005 -0.33073,-0.133453 z M 80.963604,46.47944 c 0.0127,-0.308226 0.07539,-0.37092 0.15985,-0.159853 0.07643,0.190994 0.06703,0.419197 -0.02087,0.507118 -0.08792,0.08792 -0.150453,-0.06835 -0.138965,-0.347265 z m 23.568806,-0.110244 c 0,-0.363802 0.0601,-0.51263 0.13345,-0.330729 0.0734,0.181901 0.0734,0.479557 0,0.661458 -0.0734,0.181901 -0.13345,0.03307 -0.13345,-0.330729 z M 80.98449,44.252529 c 0,-0.363802 0.06006,-0.51263 0.133453,-0.330729 0.0734,0.181901 0.0734,0.479557 0,0.661459 -0.0734,0.181901 -0.133453,0.03307 -0.133453,-0.33073 z m 23.54792,0 c 0,-0.363802 0.0601,-0.51263 0.13345,-0.330729 0.0734,0.181901 0.0734,0.479557 0,0.661459 -0.0734,0.181901 -0.13345,0.03307 -0.13345,-0.33073 z M 91.459902,33.493968 c 0.181901,-0.0734 0.479557,-0.0734 0.661458,0 0.181901,0.0734 0.03307,0.133452 -0.330729,0.133452 -0.363802,0 -0.51263,-0.06005 -0.330729,-0.133452 z m 2.38125,0 c 0.181901,-0.0734 0.479557,-0.0734 0.661458,0 0.181901,0.0734 0.03307,0.133452 -0.330729,0.133452 -0.363802,0 -0.51263,-0.06005 -0.330729,-0.133452 z m 29.104168,-0.264583 c 0.1819,-0.0734 0.47955,-0.0734 0.66146,0 0.1819,0.0734 0.0331,0.133452 -0.33073,0.133452 -0.36381,0 -0.51263,-0.06005 -0.33073,-0.133452 z m 2.38125,0 c 0.1819,-0.0734 0.47955,-0.0734 0.66145,0 0.18191,0.0734 0.0331,0.133452 -0.33072,0.133452 -0.36381,0 -0.51263,-0.06005 -0.33073,-0.133452 z M 112.73449,22.556697 c 0,-0.363802 0.0601,-0.51263 0.13345,-0.330729 0.0734,0.181901 0.0734,0.479557 0,0.661458 -0.0734,0.181901 -0.13345,0.03307 -0.13345,-0.330729 z m 23.54791,0 c 0,-0.363802 0.0601,-0.51263 0.13346,-0.330729 0.0734,0.181901 0.0734,0.479557 0,0.661458 -0.0734,0.181901 -0.13346,0.03307 -0.13346,-0.330729 z m -23.54791,-2.116666 c 0,-0.363803 0.0601,-0.512631 0.13345,-0.33073 0.0734,0.181901 0.0734,0.479558 0,0.661459 -0.0734,0.181901 -0.13345,0.03307 -0.13345,-0.330729 z m 23.54791,0 c 0,-0.363803 0.0601,-0.512631 0.13346,-0.33073 0.0734,0.181901 0.0734,0.479558 0,0.661459 -0.0734,0.181901 -0.13346,0.03307 -0.13346,-0.330729 z M 123.2099,9.6814693 c 0.1819,-0.073399 0.47956,-0.073399 0.66146,0 0.1819,0.073399 0.0331,0.1334521 -0.33073,0.1334521 -0.3638,0 -0.51263,-0.060053 -0.33073,-0.1334521 z m 2.11667,0 c 0.1819,-0.073399 0.47955,-0.073399 0.66145,0 0.18191,0.073399 0.0331,0.1334521 -0.33072,0.1334521 -0.36381,0 -0.51263,-0.060053 -0.33073,-0.1334521 z"
         id="path860" /><path
         style="fill:#ffffff;fill-opacity:1;stroke-width:0.264583"
         d="m 12.046362,144.78511 c -2.6981534,-0.81125 -3.5717432,-4.47189 -1.533259,-6.42488 0.990233,-0.9487 2.100529,-1.23896 4.739325,-1.23896 h 2.178828 l 0.07188,-22.73488 c 0.07111,-22.49303 0.07768,-22.742646 0.617391,-23.465416 0.300033,-0.401799 0.874311,-0.976024 1.276173,-1.276057 0.705262,-0.526555 1.051181,-0.545515 9.95227,-0.545515 8.901088,0 9.247007,0.01897 9.95227,0.545515 0.401862,0.300033 0.976141,0.874258 1.276173,1.276057 0.539713,0.72277 0.54628,0.972386 0.617392,23.465416 l 0.07188,22.73488 h 3.954537 3.954536 l 0.07463,-14.7975 c 0.07299,-14.47313 0.08659,-14.81351 0.620143,-15.52792 0.300032,-0.40173 0.87431,-0.9759 1.276173,-1.27593 0.705263,-0.52656 1.051181,-0.54552 9.95227,-0.54552 8.901088,0 9.247007,0.019 9.95227,0.54552 0.401862,0.30003 0.97614,0.8742 1.276172,1.27593 0.533556,0.71441 0.547151,1.05479 0.620144,15.52792 l 0.07463,14.7975 h 3.955942 3.955941 l 0.07047,-30.67233 c 0.0701,-30.511367 0.07333,-30.676163 0.615987,-31.402918 0.300032,-0.401825 0.87431,-0.976072 1.276172,-1.276104 0.705263,-0.526555 1.051182,-0.545515 9.95227,-0.545515 8.901088,0 9.247008,0.01897 9.952268,0.545515 0.40187,0.300032 0.97614,0.874279 1.27618,1.276104 0.54265,0.726755 0.54588,0.891551 0.61598,31.402918 l 0.0705,30.67233 h 3.96126 3.96126 l 0.0693,-42.578545 c 0.0692,-42.537817 0.0698,-42.579248 0.61483,-43.30917 0.30003,-0.401841 0.87431,-0.976103 1.27617,-1.276136 0.70527,-0.526555 1.05118,-0.545515 9.95227,-0.545515 8.90109,0 9.24701,0.01897 9.95227,0.545515 0.40186,0.300033 0.97614,0.874295 1.27618,1.276136 0.54498,0.729914 0.54558,0.771649 0.61481,43.279277 l 0.0693,42.548658 2.76398,0.10232 c 2.26463,0.0838 2.89445,0.19973 3.48622,0.64155 1.30316,0.97295 1.78276,1.85658 1.78276,3.28466 0,1.43066 -0.47949,2.31163 -1.79115,3.29095 l -0.73064,0.54551 -64.605092,0.0445 c -36.056243,0.0248 -64.94365,-0.0573 -65.371238,-0.18587 z M 59.379174,88.691486 C 53.655538,87.810233 49.512576,83.139184 49.388844,77.42773 l -0.04077,-1.882093 -5.886339,-2.939713 -5.886341,-2.939717 -0.739775,0.604025 c -4.651861,3.798229 -11.588023,3.465367 -15.812205,-0.758814 -2.257216,-2.257216 -3.3574,-4.985411 -3.3574,-8.325556 0,-6.696919 4.986036,-11.682954 11.682955,-11.682954 6.506006,0 11.571007,4.894569 11.710122,11.316085 l 0.04077,1.882093 5.886339,2.939713 5.886341,2.939717 0.739775,-0.604025 c 3.051339,-2.491407 7.657171,-3.345376 11.219553,-2.080218 l 1.483944,0.527013 7.948086,-7.976526 7.948085,-7.976523 -0.52805,-1.455208 c -1.078129,-2.971114 -0.568515,-7.184292 1.209712,-10.001189 3.153434,-4.995361 9.716479,-6.875536 15.055458,-4.313073 l 1.535141,0.736797 6.882645,-5.159196 6.88265,-5.159196 -0.20928,-1.479675 c -1.08361,-7.661586 4.06903,-13.8240887 11.5587,-13.8240887 6.69692,0 11.68296,4.9860367 11.68296,11.6829557 0,8.718109 -8.94408,14.372461 -16.7831,10.610096 l -1.53514,-0.736797 -6.88265,5.159195 -6.88265,5.159198 0.20928,1.479674 c 0.86961,6.14849 -2.16481,11.305926 -7.826444,13.302149 -2.041575,0.719833 -5.453205,0.722275 -7.465155,0.0053 l -1.483944,-0.528785 -7.948086,7.976525 -7.948086,7.976523 0.528051,1.455209 c 1.078129,2.971114 0.568515,7.184291 -1.209712,10.001188 -2.441266,3.867216 -7.169632,6.027301 -11.67511,5.333603 z"
         id="path858" /></g></g></svg>
