<svg width="30" height="34" viewBox="0 0 30 34" fill="none" xmlns="http://www.w3.org/2000/svg">
<path d="M7.2 15.3714V10.1714V15.3714ZM7.2 10.1714C7.2 6.68669 7.2 4.94394 8.12114 3.74349C8.35817 3.43463 8.63463 3.15817 8.94349 2.92114C10.1439 2 11.8874 2 15.3714 2H16.1143C20.3166 2 22.4174 2 23.7234 3.3052C25.0286 4.61114 25.0286 6.71194 25.0286 10.9143V27.2571H7.2V22.8C7.2 22.8 2 22.8 2 18.3429V14.6286C2 10.1714 7.2 10.1714 7.2 10.1714ZM25.7714 27.2571H6.45714C5.86609 27.2571 5.29924 27.4919 4.88131 27.9099C4.46337 28.3278 4.22857 28.8947 4.22857 29.4857C4.22857 30.0768 4.46337 30.6436 4.88131 31.0615C5.29924 31.4795 5.86609 31.7143 6.45714 31.7143H25.7714C26.3625 31.7143 26.9293 31.4795 27.3473 31.0615C27.7652 30.6436 28 30.0768 28 29.4857C28 28.8947 27.7652 28.3278 27.3473 27.9099C26.9293 27.4919 26.3625 27.2571 25.7714 27.2571V27.2571Z" stroke="white" stroke-width="2.97143" stroke-linecap="round" stroke-linejoin="round"/>
<ellipse rx="1.39286" ry="2.22857" transform="matrix(-1 0 0 1 21.4071 12.4)" fill="white"/>
<ellipse rx="1.39286" ry="2.22857" transform="matrix(-1 0 0 1 14.35 12.4)" fill="white"/>
<ellipse rx="1.39286" ry="2.22857" transform="matrix(-1 0 0 1 17.8786 12.4)" fill="white"/>
<ellipse rx="1.39286" ry="2.22857" transform="matrix(-1 0 0 1 10.8214 12.4)" fill="white"/>
</svg>
