<?xml version="1.0" encoding="UTF-8" standalone="no"?>
<svg
   width="32"
   height="40"
   viewBox="0 0 32 40"
   fill="none"
   version="1.1"
   id="svg17"
   sodipodi:docname="organization.svg"
   inkscape:version="1.1.1 (3bf5ae0d25, 2021-09-20)"
   xmlns:inkscape="http://www.inkscape.org/namespaces/inkscape"
   xmlns:sodipodi="http://sodipodi.sourceforge.net/DTD/sodipodi-0.dtd"
   xmlns="http://www.w3.org/2000/svg"
   xmlns:svg="http://www.w3.org/2000/svg">
  <sodipodi:namedview
     id="namedview19"
     pagecolor="#ffffff"
     bordercolor="#666666"
     borderopacity="1.0"
     inkscape:pageshadow="2"
     inkscape:pageopacity="0.0"
     inkscape:pagecheckerboard="0"
     showgrid="false"
     inkscape:zoom="7.5837202"
     inkscape:cx="-21.361547"
     inkscape:cy="30.262192"
     inkscape:window-width="2560"
     inkscape:window-height="1017"
     inkscape:window-x="-8"
     inkscape:window-y="-8"
     inkscape:window-maximized="1"
     inkscape:current-layer="svg17" />
  <g
     clip-path="url(#clip0_92_1013)"
     id="g10"
     style="fill:#ffffff">
    <path
       d="M27 19H26C26 18.2044 25.6839 17.4413 25.1213 16.8787C24.5587 16.3161 23.7956 16 23 16H17V13H19C19.7956 13 20.5587 12.6839 21.1213 12.1213C21.6839 11.5587 22 10.7956 22 10V6C22 5.20435 21.6839 4.44129 21.1213 3.87868C20.5587 3.31607 19.7956 3 19 3H13C12.2044 3 11.4413 3.31607 10.8787 3.87868C10.3161 4.44129 10 5.20435 10 6V10C10 10.7956 10.3161 11.5587 10.8787 12.1213C11.4413 12.6839 12.2044 13 13 13H15V16H9C8.20435 16 7.44129 16.3161 6.87868 16.8787C6.31607 17.4413 6 18.2044 6 19H5C4.20435 19 3.44129 19.3161 2.87868 19.8787C2.31607 20.4413 2 21.2044 2 22V26C2 26.7956 2.31607 27.5587 2.87868 28.1213C3.44129 28.6839 4.20435 29 5 29H11C11.7956 29 12.5587 28.6839 13.1213 28.1213C13.6839 27.5587 14 26.7956 14 26V22C14 21.2044 13.6839 20.4413 13.1213 19.8787C12.5587 19.3161 11.7956 19 11 19H8C8 18.7348 8.10536 18.4804 8.29289 18.2929C8.48043 18.1054 8.73478 18 9 18H23C23.2652 18 23.5196 18.1054 23.7071 18.2929C23.8946 18.4804 24 18.7348 24 19H21C20.2044 19 19.4413 19.3161 18.8787 19.8787C18.3161 20.4413 18 21.2044 18 22V26C18 26.7956 18.3161 27.5587 18.8787 28.1213C19.4413 28.6839 20.2044 29 21 29H27C27.7956 29 28.5587 28.6839 29.1213 28.1213C29.6839 27.5587 30 26.7956 30 26V22C30 21.2044 29.6839 20.4413 29.1213 19.8787C28.5587 19.3161 27.7956 19 27 19ZM12 10V6C12 5.73478 12.1054 5.48043 12.2929 5.29289C12.4804 5.10536 12.7348 5 13 5H19C19.2652 5 19.5196 5.10536 19.7071 5.29289C19.8946 5.48043 20 5.73478 20 6V10C20 10.2652 19.8946 10.5196 19.7071 10.7071C19.5196 10.8946 19.2652 11 19 11H13C12.7348 11 12.4804 10.8946 12.2929 10.7071C12.1054 10.5196 12 10.2652 12 10ZM11 21C11.2652 21 11.5196 21.1054 11.7071 21.2929C11.8946 21.4804 12 21.7348 12 22V26C12 26.2652 11.8946 26.5196 11.7071 26.7071C11.5196 26.8946 11.2652 27 11 27H5C4.73478 27 4.48043 26.8946 4.29289 26.7071C4.10536 26.5196 4 26.2652 4 26V22C4 21.7348 4.10536 21.4804 4.29289 21.2929C4.48043 21.1054 4.73478 21 5 21H11ZM28 26C28 26.2652 27.8946 26.5196 27.7071 26.7071C27.5196 26.8946 27.2652 27 27 27H21C20.7348 27 20.4804 26.8946 20.2929 26.7071C20.1054 26.5196 20 26.2652 20 26V22C20 21.7348 20.1054 21.4804 20.2929 21.2929C20.4804 21.1054 20.7348 21 21 21H27C27.2652 21 27.5196 21.1054 27.7071 21.2929C27.8946 21.4804 28 21.7348 28 22V26Z"
       fill="black"
       id="path2"
       style="fill:#ffffff" />
    <rect
       x="12"
       y="5"
       width="8"
       height="6"
       fill="black"
       id="rect4"
       style="fill:#ffffff" />
    <rect
       x="4"
       y="21"
       width="8"
       height="6"
       fill="black"
       id="rect6"
       style="fill:#ffffff" />
    <rect
       x="20"
       y="21"
       width="8"
       height="6"
       fill="black"
       id="rect8"
       style="fill:#ffffff" />
  </g>
  <defs
     id="defs15">
    <clipPath
       id="clip0_92_1013">
      <rect
         width="32"
         height="40"
         fill="white"
         id="rect12" />
    </clipPath>
  </defs>
</svg>
