<svg width="20" height="18" viewBox="0 0 20 18" fill="none" xmlns="http://www.w3.org/2000/svg">
<path d="M8 8C10.2091 8 12 6.20914 12 4C12 1.79086 10.2091 0 8 0C5.79086 0 4 1.79086 4 4C4 6.20914 5.79086 8 8 8Z" fill="white"/>
<path d="M8.35 10.01C5.62 9.91002 0 11.27 0 14V15C0 15.55 0.45 16 1 16H9.54C7.07 13.24 8.31 10.11 8.35 10.01Z" fill="white"/>
<path d="M17.4301 14.02C17.9001 13.22 18.1301 12.25 17.9101 11.2C17.5701 9.56003 16.1901 8.25003 14.5301 8.04003C11.9001 7.70003 9.68011 9.91003 10.0301 12.54C10.2501 14.2 11.5501 15.58 13.1901 15.92C14.2401 16.14 15.2101 15.91 16.0101 15.44L17.8701 17.3C18.2601 17.69 18.8901 17.69 19.2801 17.3C19.6701 16.91 19.6701 16.28 19.2801 15.89L17.4301 14.02ZM14.0001 14C12.9001 14 12.0001 13.1 12.0001 12C12.0001 10.9 12.9001 10 14.0001 10C15.1001 10 16.0001 10.9 16.0001 12C16.0001 13.1 15.1001 14 14.0001 14Z" fill="white"/>
</svg>
