<?xml version="1.0" encoding="UTF-8" standalone="no"?>
<svg
   width="32"
   height="40"
   viewBox="0 0 32 40"
   fill="none"
   version="1.1"
   id="svg15"
   sodipodi:docname="unit.svg"
   inkscape:version="1.1.1 (3bf5ae0d25, 2021-09-20)"
   xmlns:inkscape="http://www.inkscape.org/namespaces/inkscape"
   xmlns:sodipodi="http://sodipodi.sourceforge.net/DTD/sodipodi-0.dtd"
   xmlns="http://www.w3.org/2000/svg"
   xmlns:svg="http://www.w3.org/2000/svg">
  <sodipodi:namedview
     id="namedview17"
     pagecolor="#ffffff"
     bordercolor="#666666"
     borderopacity="1.0"
     inkscape:pageshadow="2"
     inkscape:pageopacity="0.0"
     inkscape:pagecheckerboard="0"
     showgrid="false"
     inkscape:zoom="7.5837202"
     inkscape:cx="-20.174795"
     inkscape:cy="28.943578"
     inkscape:window-width="2560"
     inkscape:window-height="1017"
     inkscape:window-x="-8"
     inkscape:window-y="-8"
     inkscape:window-maximized="1"
     inkscape:current-layer="svg15" />
  <g
     clip-path="url(#clip0_94_944)"
     id="g8"
     style="fill:#ffffff">
    <path
       d="M29.832 13.4453L25.832 7.4453C25.7407 7.30833 25.617 7.19602 25.4718 7.11834C25.3267 7.04066 25.1646 7.00001 25 7H7.00001C6.83539 7.00001 6.67332 7.04066 6.52818 7.11834C6.38304 7.19602 6.25933 7.30833 6.16801 7.4453L2.16801 13.4453C2.06761 13.5959 2.00997 13.7709 2.00123 13.9517C1.99249 14.1325 2.03297 14.3123 2.11837 14.4718C2.20377 14.6314 2.33088 14.7648 2.48615 14.8578C2.64142 14.9509 2.81902 15 3.00001 15H29C29.181 15 29.3586 14.9509 29.5139 14.8578C29.6691 14.7648 29.7962 14.6314 29.8816 14.4718C29.967 14.3123 30.0075 14.1325 29.9988 13.9517C29.9901 13.7709 29.9324 13.5959 29.832 13.4453Z"
       fill="black"
       id="path2"
       style="fill:#ffffff" />
    <path
       d="M4 16V29C4 29.2652 4.10536 29.5196 4.29289 29.7071C4.48043 29.8946 4.73478 30 5 30H27C27.2652 30 27.5196 29.8946 27.7071 29.7071C27.8946 29.5196 28 29.2652 28 29V16H4ZM20 27C20 27.2652 19.8946 27.5196 19.7071 27.7071C19.5196 27.8946 19.2652 28 19 28H13C12.7348 28 12.4804 27.8946 12.2929 27.7071C12.1054 27.5196 12 27.2652 12 27V19C12 18.7348 12.1054 18.4804 12.2929 18.2929C12.4804 18.1054 12.7348 18 13 18H19C19.2652 18 19.5196 18.1054 19.7071 18.2929C19.8946 18.4804 20 18.7348 20 19V27Z"
       fill="black"
       id="path4"
       style="fill:#ffffff" />
    <path
       d="M6.168 6.4453C6.25931 6.30833 6.38303 6.19602 6.52817 6.11834C6.67331 6.04066 6.83538 6.00001 7 6H25C25.1646 6.00001 25.3267 6.04066 25.4718 6.11834C25.617 6.19602 25.7407 6.30833 25.832 6.4453L26 6.6973V3C26 2.73478 25.8946 2.48043 25.7071 2.29289C25.5196 2.10536 25.2652 2 25 2H7C6.73478 2 6.48043 2.10536 6.29289 2.29289C6.10536 2.48043 6 2.73478 6 3V6.6973L6.168 6.4453Z"
       fill="black"
       id="path6"
       style="fill:#ffffff" />
  </g>
  <defs
     id="defs13">
    <clipPath
       id="clip0_94_944">
      <rect
         width="32"
         height="40"
         fill="white"
         id="rect10" />
    </clipPath>
  </defs>
</svg>
