<svg width="24" height="24" viewBox="0 0 24 24" fill="none" xmlns="http://www.w3.org/2000/svg">
<path d="M11.2026 22.9466C10.9271 22.8266 10.7471 22.479 10.8163 22.2011C10.8515 22.0603 11.5054 20.8283 11.607 20.7115C11.704 20.6001 11.9236 20.5132 12.1084 20.5132C12.4104 20.5132 12.6505 20.7151 12.738 21.0424L12.7933 21.249L12.4302 21.9559C12.2306 22.3447 12.0203 22.7134 11.963 22.7752C11.7633 22.9906 11.4604 23.0588 11.2026 22.9466ZM13.5414 22.8187C13.4209 22.7752 13.0388 22.5755 12.9563 22.513C12.9503 22.5085 13.0503 22.301 13.1789 22.0523C13.3076 21.8037 13.4261 21.5298 13.4422 21.4437C13.4581 21.3576 13.484 21.2887 13.4991 21.2906C13.5919 21.3023 14.2222 21.7158 14.2933 21.8121C14.3444 21.8815 14.3865 22.0206 14.3974 22.1561C14.4121 22.3428 14.3975 22.4101 14.3149 22.5318C14.1332 22.7992 13.8149 22.9172 13.5414 22.8187ZM9.24769 22.1117C9.04575 22.006 8.8923 21.7128 8.91751 21.4807C8.93981 21.2737 9.66677 19.8935 9.84091 19.7271C9.90524 19.6657 10.0453 19.5921 10.1523 19.5636C10.3248 19.5176 10.3697 19.5218 10.5489 19.601C10.7765 19.7017 10.9041 19.8742 10.9495 20.1425C10.9763 20.3009 10.9518 20.3688 10.6766 20.8985C10.1999 21.8165 10.0937 21.9885 9.93927 22.0925C9.75933 22.2138 9.45873 22.2219 9.24769 22.1117ZM7.27446 21.4522C7.03257 21.2862 6.95074 21.1423 6.95384 20.8883C6.95628 20.6857 7.00589 20.5722 7.46091 19.729C8.01957 18.6937 8.0857 18.6174 8.44901 18.5883C8.62604 18.5743 8.69672 18.59 8.81842 18.6716C9.02452 18.8099 9.17471 19.1098 9.14289 19.3197C9.10438 19.5738 8.1807 21.2741 8.00914 21.4067C7.8016 21.5671 7.47165 21.5875 7.27446 21.4522ZM14.864 21.2146C14.6913 21.1676 13.1329 20.2786 13.0106 20.1573C12.7288 19.8777 12.222 19.7454 11.7835 19.837L11.6313 19.8687L11.5143 19.6137C11.3706 19.3007 11.0934 19.0457 10.7596 18.9192C10.5557 18.842 10.4614 18.8314 10.1704 18.8529L9.82409 18.8786L9.7274 18.6796C9.57841 18.373 9.44799 18.2261 9.18147 18.0647C8.96177 17.9317 8.89737 17.9146 8.55504 17.8982C8.2738 17.8854 8.17344 17.865 8.17344 17.8223C8.17344 17.6856 7.98866 17.2891 7.84878 17.1257C7.67938 16.9278 7.26655 16.708 6.98219 16.6644C6.72397 16.6248 6.37319 16.7102 6.08767 16.8821C5.95206 16.9638 5.83519 17.0305 5.82786 17.0305C5.82068 17.0305 5.7717 16.8945 5.71928 16.7283C5.58454 16.3015 5.38603 16.0882 4.95923 15.9117C4.10589 15.559 3.37056 15.2079 3.28255 15.1111C3.22536 15.0483 3.18579 14.9497 3.18579 14.8698C3.18579 14.673 4.9596 10.8974 5.12502 10.7422C5.20606 10.6661 5.29823 10.6239 5.38327 10.6239C5.46079 10.6239 5.93686 10.8181 6.53276 11.093C7.1122 11.3602 7.65985 11.5843 7.80536 11.6137C8.1347 11.6803 8.51269 11.6432 9.24831 11.474C9.97222 11.3071 10.6834 11.2844 11.1515 11.4135L11.4423 11.4937L10.9618 11.951C10.6975 12.2026 10.3248 12.5397 10.1335 12.7002C9.81058 12.9713 8.79086 13.6751 8.33189 13.9436C8.11997 14.0676 8.05663 14.1933 8.1063 14.3913C8.12179 14.4532 8.32225 14.6923 8.55168 14.9225C8.86288 15.2348 9.03976 15.3752 9.24827 15.4754C10.0619 15.8663 10.8131 15.8288 12.108 15.3325C13.3337 14.8627 13.5935 14.7818 13.9427 14.7608C14.1243 14.7498 14.3371 14.7532 14.4156 14.7679C14.6347 14.8094 18.3585 16.9495 18.4643 17.0947C18.5942 17.273 18.6102 17.6542 18.4953 17.837C18.3716 18.034 18.1656 18.148 17.9328 18.1483C17.7604 18.1484 17.5838 18.0613 16.3642 17.3744C15.6083 16.9488 14.9485 16.6005 14.8981 16.6005C14.7727 16.6005 14.5953 16.748 14.5622 16.8797C14.5038 17.1123 14.6057 17.1949 15.7259 17.8222C16.3134 18.1513 16.8587 18.4679 16.9375 18.5259C17.3518 18.8304 17.3501 19.395 16.9342 19.656C16.8244 19.7249 16.7428 19.7402 16.5576 19.7263C16.3446 19.7105 16.1791 19.6288 14.8949 18.907C13.34 18.0331 13.2506 17.9992 13.0779 18.2187C12.9685 18.3578 12.963 18.5526 13.0655 18.6552C13.1077 18.6974 13.5866 18.9812 14.1296 19.2858C15.5262 20.0691 15.5442 20.0814 15.6337 20.3156C15.7982 20.7464 15.5569 21.1485 15.094 21.2153C15.0121 21.2274 14.9088 21.227 14.864 21.2146ZM5.90621 19.7615C5.72683 19.6836 5.59395 19.4636 5.59395 19.2448C5.59399 18.9995 6.29014 17.6965 6.49559 17.5572C6.67273 17.4371 6.9411 17.4304 7.12341 17.5417C7.26987 17.631 7.39942 17.8639 7.39942 18.0376C7.39942 18.1561 6.81846 19.3178 6.63965 19.5568C6.44878 19.8118 6.18872 19.8843 5.90621 19.7615ZM18.8367 16.467C18.6489 16.3048 15.0237 14.2367 14.7305 14.1245C14.569 14.0627 14.4083 14.0426 14.0855 14.0438C13.5625 14.0457 13.2825 14.1195 12.205 14.5394C11.1452 14.9525 10.8647 15.0272 10.3654 15.0293C9.98774 15.031 9.93378 15.0203 9.66927 14.89C9.51162 14.8124 9.29105 14.6659 9.17921 14.5647L8.97586 14.3806L9.42385 14.0873C10.1034 13.6423 10.67 13.193 11.2666 12.6263C12.3855 11.5635 13.094 11.1829 13.9539 11.1829C14.3779 11.1829 14.7067 11.2661 15.5246 11.5806C16.1771 11.8314 16.6223 11.9546 16.882 11.9561C17.1508 11.9576 17.5408 11.8144 18.115 11.5034C18.7684 11.1495 18.9247 11.1145 19.1158 11.2797C19.2008 11.3531 19.419 11.869 20.0209 13.4188C20.4572 14.5421 20.8142 15.5056 20.8143 15.56C20.8148 15.8231 20.7292 15.8858 19.869 16.2519C19.4185 16.4436 19.0358 16.5998 19.0185 16.5988C19.0012 16.5978 18.9194 16.5385 18.8367 16.467ZM11.3767 9.64717C10.8846 9.57868 10.0211 9.24973 9.58996 8.96649C9.48235 8.89581 9.46411 8.90125 8.71751 9.22905C7.6956 9.6777 7.71129 9.69239 8.12515 8.67462C8.29357 8.26036 8.43145 7.90262 8.43145 7.87965C8.43145 7.8566 8.35786 7.71498 8.26802 7.56478C8.04733 7.19609 7.88937 6.82851 7.77785 6.42435C7.70029 6.14334 7.68441 5.96702 7.68195 5.3568C7.67938 4.72087 7.69216 4.57834 7.77848 4.26038C8.61159 1.19987 12.2088 -0.00314999 14.6948 1.94734C16.3957 3.28181 16.8304 5.73362 15.697 7.59927L15.5298 7.87446L15.8288 8.61089C16.1399 9.37705 16.1696 9.49265 16.0654 9.53263C16.031 9.54548 15.6658 9.40814 15.2537 9.22669L14.5045 8.89677L14.166 9.09319C13.7392 9.34083 13.2214 9.53052 12.7458 9.61347C12.406 9.67277 11.6876 9.69044 11.3767 9.64717ZM10.2927 5.71862C10.6868 5.53905 10.5425 4.9288 10.1059 4.9288C9.72169 4.9288 9.55284 5.383 9.84123 5.6407C9.98844 5.77227 10.1237 5.79564 10.2927 5.71862ZM12.2904 5.61386C12.4915 5.38244 12.3701 4.99968 12.072 4.92486C11.8355 4.86549 11.5702 5.09644 11.5702 5.36166C11.5702 5.72272 12.0499 5.89066 12.2904 5.61386ZM14.0649 5.70036C14.3887 5.53289 14.3441 5.06208 13.9935 4.94637C13.7146 4.85438 13.4621 5.03915 13.4621 5.33534C13.4621 5.67247 13.7646 5.85565 14.0649 5.70036Z" fill="white"/>
</svg>
