<?xml version="1.0" standalone="no"?>
<!DOCTYPE svg PUBLIC "-//W3C//DTD SVG 20010904//EN"
 "http://www.w3.org/TR/2001/REC-SVG-20010904/DTD/svg10.dtd">
<svg version="1.0" xmlns="http://www.w3.org/2000/svg"
 width="512.000000pt" height="512.000000pt" viewBox="0 0 512.000000 512.000000"
 preserveAspectRatio="xMidYMid meet">

<g transform="translate(0.000000,512.000000) scale(0.100000,-0.100000)"
fill="#fff" stroke="none">
<path d="M2135 5109 c-961 -51 -1763 -298 -1811 -556 -26 -139 195 -297 579
-413 784 -237 2079 -272 3002 -80 565 118 924 316 891 493 -37 196 -533 400
-1206 496 -445 64 -978 86 -1455 60z"/>
<path d="M320 3735 c0 -525 1 -547 20 -583 11 -20 25 -44 32 -53 34 -40 134
-110 219 -151 726 -355 2392 -433 3469 -163 394 99 651 229 720 366 19 37 20
62 20 584 l0 546 -62 -44 c-368 -261 -1215 -427 -2178 -427 -959 0 -1814 167
-2176 426 l-64 45 0 -546z m2282 -462 c22 -20 23 -61 1 -85 -34 -38 -103 -11
-103 40 0 54 62 81 102 45z"/>
<path d="M322 2412 l3 -559 30 -43 c109 -158 516 -318 1030 -404 409 -69 672
-89 1175 -89 422 0 616 11 942 53 642 83 1135 256 1264 441 l29 42 3 559 2
558 -62 -46 c-264 -194 -844 -343 -1578 -406 -207 -17 -1002 -18 -1200 0 -754
67 -1306 209 -1578 407 l-62 46 2 -559z m2280 -449 c38 -34 11 -103 -40 -103
-54 0 -81 62 -45 102 20 22 61 23 85 1z"/>
<path d="M320 1111 l0 -548 23 -44 c87 -165 508 -335 1057 -428 387 -65 663
-85 1160 -85 497 0 773 20 1160 85 529 89 933 247 1045 409 l30 43 3 559 2
558 -52 -40 c-276 -210 -926 -371 -1698 -420 -207 -13 -776 -13 -975 0 -659
43 -1201 156 -1530 320 -66 33 -144 78 -172 100 l-53 40 0 -549z m2278 -457
c22 -15 30 -57 14 -80 -15 -23 -46 -32 -71 -22 -31 11 -41 25 -41 60 0 28 31
58 60 58 9 0 26 -7 38 -16z"/>
</g>
</svg>
