<?xml version="1.0" standalone="no"?>
<!DOCTYPE svg PUBLIC "-//W3C//DTD SVG 20010904//EN"
 "http://www.w3.org/TR/2001/REC-SVG-20010904/DTD/svg10.dtd">
<svg version="1.0" xmlns="http://www.w3.org/2000/svg"
 width="512.000000pt" height="512.000000pt" viewBox="0 0 512.000000 512.000000"
 preserveAspectRatio="xMidYMid meet">

<g transform="translate(0.000000,512.000000) scale(0.100000,-0.100000)"
fill="#fff" stroke="none">
<path d="M2365 5114 c-382 -39 -667 -121 -975 -281 -237 -122 -439 -271 -635
-468 -469 -468 -727 -1058 -752 -1715 -10 -288 32 -577 128 -865 74 -222 103
-263 190 -272 83 -8 159 58 159 139 0 22 -24 112 -54 201 -136 404 -160 750
-80 1152 194 978 1022 1717 2024 1806 466 41 937 -73 1377 -334 l103 -60 -51
-17 c-64 -22 -94 -51 -109 -106 -11 -38 -10 -51 4 -89 10 -25 31 -54 47 -66
46 -33 675 -239 729 -239 76 0 135 49 147 123 8 53 -216 723 -255 759 -39 36
-65 48 -109 48 -101 0 -172 -113 -133 -214 5 -14 7 -26 5 -26 -2 0 -53 33
-112 73 -333 227 -701 371 -1103 432 -100 15 -460 28 -545 19z"/>
<path d="M2188 4189 c-64 -33 -78 -76 -78 -229 l0 -130 -27 -12 c-99 -39 -259
-126 -322 -173 -41 -31 -80 -54 -87 -51 -8 3 -58 31 -111 62 -169 98 -222 86
-315 -70 -159 -267 -279 -486 -285 -518 -4 -26 1 -49 16 -81 19 -39 36 -52
137 -112 l116 -69 -9 -70 c-10 -91 -10 -261 0 -352 l9 -70 -116 -69 c-101 -60
-118 -73 -137 -112 -15 -32 -20 -55 -16 -81 6 -34 271 -509 324 -580 68 -91
130 -92 276 -8 53 31 103 59 111 62 7 3 46 -20 87 -51 63 -47 223 -134 322
-173 l27 -12 0 -130 c0 -155 14 -196 80 -230 37 -19 58 -20 370 -20 312 0 333
1 370 20 66 34 80 75 80 230 l0 131 33 11 c70 24 246 121 316 173 41 31 80 54
87 51 8 -3 58 -31 111 -62 117 -68 163 -77 220 -44 46 25 29 -1 220 329 84
146 156 279 159 297 8 42 -10 95 -42 127 -14 14 -71 51 -126 82 l-100 57 9 72
c4 39 8 118 8 176 0 58 -4 137 -8 176 l-9 72 101 57 c55 31 114 72 130 91 35
40 47 91 32 135 -10 30 -266 480 -315 556 -12 18 -38 42 -59 54 -57 32 -103
22 -220 -45 -53 -31 -103 -59 -111 -62 -7 -3 -46 20 -87 51 -70 52 -246 149
-316 173 l-33 11 0 131 c0 155 -14 196 -80 230 -37 19 -58 20 -372 20 -312 -1
-335 -2 -370 -21z m464 -1190 c87 -18 158 -58 223 -123 258 -259 118 -696
-244 -758 -141 -24 -280 21 -386 127 -178 176 -178 455 0 630 113 112 257 155
407 124z"/>
<path d="M4720 3592 c-47 -23 -80 -75 -80 -124 0 -22 25 -112 54 -201 95 -281
133 -528 122 -792 -13 -327 -83 -607 -226 -901 -222 -458 -585 -820 -1045
-1045 -216 -105 -408 -165 -660 -205 -135 -22 -488 -25 -610 -6 -343 56 -610
152 -902 325 l-103 60 50 17 c63 21 85 41 105 95 21 54 7 116 -36 156 -39 36
-670 249 -739 249 -50 0 -100 -25 -125 -63 -37 -58 -34 -76 89 -444 64 -191
122 -355 129 -364 22 -29 81 -59 117 -59 107 0 180 111 140 215 -12 33 -17 35
110 -51 337 -226 705 -370 1105 -430 168 -26 532 -26 700 0 555 84 1049 331
1441 721 218 217 371 429 499 690 92 187 136 307 185 499 125 494 102 974 -71
1459 -22 65 -51 132 -63 150 -25 37 -78 67 -121 67 -16 0 -46 -8 -65 -18z"/>
</g>
</svg>
