<?xml version="1.0" encoding="UTF-8" standalone="no"?>
<svg
   width="680"
   height="680"
   viewBox="0 0 179.91636 179.91711"
   version="1.1"
   id="svg16"
   sodipodi:docname="pharmasystem.svg"
   inkscape:version="1.1.1 (3bf5ae0d25, 2021-09-20)"
   xmlns:inkscape="http://www.inkscape.org/namespaces/inkscape"
   xmlns:sodipodi="http://sodipodi.sourceforge.net/DTD/sodipodi-0.dtd"
   xmlns="http://www.w3.org/2000/svg"
   xmlns:svg="http://www.w3.org/2000/svg">
  <defs
     id="defs20" />
  <sodipodi:namedview
     id="namedview18"
     pagecolor="#ffffff"
     bordercolor="#666666"
     borderopacity="1.0"
     inkscape:pageshadow="2"
     inkscape:pageopacity="0.0"
     inkscape:pagecheckerboard="0"
     showgrid="false"
     inkscape:zoom="0.68252434"
     inkscape:cx="63.001416"
     inkscape:cy="368.48503"
     inkscape:window-width="2560"
     inkscape:window-height="1017"
     inkscape:window-x="-8"
     inkscape:window-y="-8"
     inkscape:window-maximized="1"
     inkscape:current-layer="g843" />
  <path
     style="fill:#fbfcfc;stroke-width:1"
     d="M -3.7135949e-4,89.959097 V 0 H 179.91673 V 179.91711 H 6.2473241e-4 Z"
     id="path2" />
  <g
     id="g843"
     transform="translate(-0.35235858,8.8184311)">
    <g
       id="g914"
       transform="translate(-4.101888e-4,1.6744888)">
      <g
         style="stroke-width:0.769107"
         id="g8"
         transform="matrix(1.3415035,0,0,1.3415035,-30.84187,-22.462484)">
        <path
           style="fill:#5cc354;stroke-width:0.769107"
           d="m 114.928,146.027 c -8.035,-0.816 -15.77,-3.721 -23.363,-8.774 C 81.423,130.504 74.688,121.998 71.037,111.33 66.522,98.134 67.696,85.722 74.603,73.634 c 2.01,-3.517 2.844,-4.683 3.35,-4.683 0.59,0 18.934,17.091 18.934,17.642 0,0.238 -0.827,1.533 -1.837,2.878 -6.905,9.194 -10.65,18.586 -10.639,26.688 0.003,1.572 0.11,3.457 0.24,4.188 1.45,8.199 6.52,14.338 14.137,17.118 2.854,1.042 4.888,1.497 8.607,1.926 2.924,0.337 3.971,0.37 6.114,0.197 7.94,-0.643 16.496,-3.505 24.937,-8.342 1.655,-0.948 2.652,-1.382 3.329,-1.45 0.9,-0.089 1.035,-0.031 1.962,0.833 0.548,0.511 1.726,1.714 2.618,2.674 1.922,2.067 1.93,2.25 0.171,3.603 -8.858,6.812 -20.696,10.23 -31.598,9.121 z m 5.214,-25.356 c -0.81,-0.745 -4.635,-4.289 -8.498,-7.874 -3.863,-3.586 -7.268,-6.711 -7.566,-6.946 a 3.88,3.88 0 0 1 -0.872,-1.064 c -0.391,-0.758 -0.428,-0.686 2.11,-4.112 4.802,-6.483 7.849,-12.754 9.267,-19.078 2.143,-9.556 0.313,-17.252 -5.465,-22.975 -3.569,-3.535 -7.784,-5.665 -13.412,-6.779 -2.648,-0.524 -9.988,-0.529 -13.188,-0.009 -4.337,0.705 -8.728,1.992 -13.122,3.846 -2.778,1.173 -7.049,3.36 -9.12,4.672 -2.662,1.686 -2.7,1.675 -5.873,-1.71 -1.44,-1.535 -2.619,-2.901 -2.619,-3.035 0,-0.791 5.362,-4.468 9.385,-6.435 3.115,-1.524 7.435,-2.992 10.603,-3.603 1.248,-0.241 2.535,-0.54 2.86,-0.663 0.35,-0.133 2.641,-0.224 5.62,-0.224 4.587,0 5.262,0.049 7.656,0.554 5.367,1.133 10.391,2.927 15.637,5.581 12.608,6.381 20.997,16.228 25.579,30.022 3.941,11.867 3.164,22.41 -2.488,33.752 -1.944,3.9 -4.068,7.26 -4.66,7.369 -0.206,0.038 -0.991,-0.514 -1.834,-1.289 z"
           transform="matrix(0.96922,0,0,0.96922,-6.42,-26.744)"
           id="path4" />
        <path
           style="fill:#2956a2;stroke-width:0.769107"
           d="m 112.378,113.412 c -7.52,-6.989 -9.263,-8.712 -9.263,-9.155 0,-0.35 0.645,-1.406 1.8,-2.945 5.712,-7.62 9.116,-15.047 10.254,-22.374 0.398,-2.561 0.337,-7.586 -0.118,-9.665 -1.439,-6.579 -5.806,-11.991 -12.21,-15.133 -4.38,-2.15 -8.504,-2.914 -14.76,-2.736 -7.766,0.22 -14.353,1.98 -22.55,6.024 -1.712,0.845 -3.935,2.054 -4.94,2.688 -1.024,0.645 -2.18,1.2 -2.63,1.263 -0.72,0.1 -0.885,0.024 -1.61,-0.74 -2.696,-2.838 -4.352,-4.81 -4.352,-5.182 0,-0.811 5.19,-4.292 9.493,-6.366 3.374,-1.627 6.225,-2.6 10.481,-3.583 3.098,-0.715 3.142,-0.719 8.591,-0.718 5.271,0 5.573,0.023 8.043,0.61 7.313,1.74 14.555,4.764 20.093,8.391 6.066,3.974 11.618,9.686 15.236,15.676 2.877,4.763 5.617,11.776 6.808,17.424 0.543,2.575 0.589,3.175 0.6,7.94 0.013,4.575 -0.042,5.433 -0.485,7.625 -0.608,3.013 -1.916,7.107 -3.19,9.987 -1.684,3.805 -5.016,9.383 -5.681,9.512 -0.214,0.04 -3.924,-3.257 -9.61,-8.543 z"
           transform="matrix(0.96922,0,0,0.96922,-6.42,-26.744)"
           id="path6" />
      </g>
      <g
         style="stroke-width:0.742417"
         id="g14"
         transform="matrix(1.8223324,0,0,1.8223324,-74.2663,-106.37098)">
        <path
           style="fill:#68cc05;stroke-width:0.742417"
           d="m 98.711,198.457 c 0.103,-0.421 0.742,-3.676 1.422,-7.233 1.697,-8.894 1.396,-8.054 2.847,-7.933 1.483,0.124 1.515,-0.658 -0.364,8.869 l -1.393,7.063 h -1.35 c -1.227,0 -1.332,-0.069 -1.162,-0.766 z m 5.334,0.412 c 0,-0.217 0.48,-2.907 1.068,-5.977 l 1.068,-5.583 h 2.638 l -0.206,1.276 c -0.113,0.703 -0.619,3.345 -1.124,5.872 l -0.918,4.596 -1.263,0.106 c -0.792,0.066 -1.263,-0.042 -1.263,-0.29 z m 5.106,0.212 c 0,-0.078 0.536,-2.706 1.191,-5.839 0.656,-3.133 1.192,-5.75 1.192,-5.815 0,-0.065 0.552,-0.118 1.228,-0.118 0.98,0 1.186,0.109 1.02,0.539 -0.113,0.296 -0.091,0.48 0.05,0.407 2.975,-1.531 4.686,-1.504 6.29,0.102 1.127,1.126 1.24,2.904 0.434,6.844 -0.889,4.341 -0.713,4.022 -2.22,4.022 -0.746,0 -1.356,-0.055 -1.356,-0.123 0,-0.067 0.317,-1.675 0.704,-3.572 0.85,-4.173 0.784,-5.139 -0.402,-5.801 -0.75,-0.42 -1.058,-0.427 -1.973,-0.048 -1.423,0.59 -1.872,1.54 -2.788,5.906 l -0.764,3.638 h -1.303 c -0.717,0 -1.303,-0.064 -1.303,-0.142 z m 12.935,0.076 c 0,-0.058 0.689,-3.628 1.53,-7.934 0.842,-4.306 1.531,-7.867 1.532,-7.914 0.005,-0.261 2.725,-0.031 2.725,0.23 0,0.316 -1.188,6.595 -1.55,8.195 -0.152,0.668 0.382,0.282 2.473,-1.787 2.605,-2.577 2.706,-2.638 4.354,-2.638 h 1.687 l -2.844,2.858 -2.843,2.858 1.917,3.1 1.917,3.098 -1.62,-0.009 -1.618,-0.009 -1.703,-2.879 c -0.936,-1.583 -1.793,-2.881 -1.905,-2.884 -0.111,-0.003 -0.418,1.258 -0.68,2.803 l -0.478,2.808 -1.447,0.105 c -0.796,0.057 -1.447,0.057 -1.447,0 z M 106.62,185.011 c 0.372,-1.697 0.455,-1.787 1.67,-1.787 1.268,0 1.427,0.315 0.987,1.957 -0.169,0.629 -0.444,0.766 -1.534,0.766 -1.272,0 -1.32,-0.04 -1.123,-0.936 z"
           transform="matrix(0.73914,0,0,0.73914,36.846,-1.54)"
           id="path10" />
        <path
           style="fill:#333daf;stroke-width:0.742417"
           d="m 39.715,198.627 c -4.372,-2.197 -3.783,-9.306 0.943,-11.397 1.87,-0.827 4.114,-0.672 5.54,0.382 1.2,0.888 1.34,0.892 1.34,0.037 0,-0.567 0.226,-0.68 1.361,-0.68 0.871,0 1.356,0.153 1.346,0.425 -0.01,0.234 -0.513,2.876 -1.12,5.872 l -1.104,5.447 -1.263,0.105 c -0.747,0.063 -1.263,-0.045 -1.263,-0.264 0,-0.232 -0.373,-0.176 -1.004,0.15 -1.332,0.688 -3.316,0.656 -4.776,-0.077 z m 5.593,-3.145 c 0.909,-0.908 1.038,-1.274 1.038,-2.933 0,-1.586 -0.132,-2.004 -0.809,-2.551 -1.828,-1.48 -4.192,-0.992 -5.49,1.136 -2.373,3.893 2.056,7.554 5.261,4.348 z m 38.66,3.145 c -4.372,-2.197 -3.783,-9.306 0.943,-11.397 1.87,-0.827 4.114,-0.672 5.54,0.382 1.2,0.888 1.34,0.892 1.34,0.037 0,-0.567 0.226,-0.68 1.36,-0.68 0.872,0 1.357,0.153 1.346,0.425 -0.009,0.234 -0.513,2.876 -1.12,5.872 l -1.103,5.447 -1.263,0.105 c -0.747,0.063 -1.263,-0.045 -1.263,-0.264 0,-0.232 -0.374,-0.176 -1.004,0.15 -1.332,0.688 -3.316,0.656 -4.776,-0.077 z m 5.571,-3.125 c 0.747,-0.745 1.023,-1.392 1.148,-2.69 0.143,-1.493 0.055,-1.817 -0.699,-2.57 -0.474,-0.475 -1.275,-0.966 -1.779,-1.093 -1.255,-0.315 -3.068,0.606 -3.909,1.985 -2.351,3.857 2.065,7.54 5.24,4.368 z m -79.264,1.083 c 0.243,-1.264 0.94,-4.88 1.546,-8.038 l 1.104,-5.74 3.094,0.145 c 3.512,0.163 5.013,0.758 5.812,2.303 0.72,1.392 0.65,3.703 -0.15,5.016 -0.906,1.484 -2.412,2.184 -5.252,2.44 l -2.392,0.215 -0.436,2.212 c -0.79,4.005 -0.63,3.745 -2.284,3.745 H 9.832 Z m 8.112,-7.258 c 1.863,-1.466 0.754,-3.86 -1.695,-3.658 -1.214,0.101 -1.313,0.194 -1.563,1.47 a 80.96,80.96 0 0 1 -0.446,2.127 c -0.164,0.705 -0.059,0.766 1.315,0.766 0.994,0 1.791,-0.235 2.389,-0.705 z m 4.645,9.13 c 0.003,-0.234 0.665,-3.795 1.472,-7.914 l 1.469,-7.49 1.3,-0.108 1.3,-0.108 -0.212,1.555 c -0.118,0.855 -0.31,1.937 -0.427,2.404 l -0.213,0.849 1.271,-0.531 c 1.525,-0.637 3.497,-0.396 4.736,0.578 1.282,1.008 1.398,2.541 0.543,7.131 l -0.757,4.06 h -2.743 l 0.215,-1.277 c 0.119,-0.702 0.432,-2.488 0.695,-3.97 0.551,-3.094 0.312,-4.157 -1.007,-4.489 -1.12,-0.28 -2.34,0.265 -3.066,1.372 -0.309,0.471 -0.885,2.546 -1.28,4.61 l -0.716,3.754 H 24.32 c -0.808,0 -1.29,-0.16 -1.288,-0.426 z m 27.693,-0.149 c 0.1,-0.34 0.574,-2.685 1.051,-5.212 1.265,-6.696 1.039,-6.127 2.446,-6.127 1.057,0 1.2,0.093 1.046,0.68 -0.098,0.375 -0.039,0.681 0.13,0.681 0.17,0 0.31,-0.136 0.31,-0.301 0,-0.407 2.141,-1.4 3.019,-1.4 0.406,0 0.648,0.18 0.572,0.425 -0.072,0.234 -0.223,0.846 -0.336,1.361 -0.137,0.628 -0.422,0.936 -0.863,0.936 -0.995,0 -2.206,0.645 -2.701,1.438 -0.244,0.39 -0.782,2.331 -1.197,4.316 l -0.754,3.608 -1.453,0.106 c -1.268,0.092 -1.43,0.027 -1.27,-0.511 z m 8.554,-0.191 c 0.22,-0.93 2.215,-10.866 2.215,-11.031 0,-0.065 0.536,-0.117 1.192,-0.117 0.783,0 1.191,0.16 1.191,0.467 0,0.364 0.303,0.318 1.353,-0.201 1.687,-0.835 3.684,-0.583 4.88,0.614 0.71,0.71 0.886,0.756 1.239,0.331 0.226,-0.272 1.085,-0.752 1.91,-1.067 2.531,-0.967 4.882,-0.096 5.598,2.075 0.338,1.023 0.275,1.911 -0.386,5.458 l -0.79,4.237 H 74.88 l 0.615,-3.149 c 0.339,-1.732 0.62,-3.712 0.626,-4.401 0.02,-2.355 -1.88,-3.058 -3.748,-1.386 -0.927,0.83 -1.134,1.384 -1.813,4.85 l -0.767,3.916 -1.471,0.106 c -1.105,0.08 -1.428,-0.004 -1.3,-0.34 0.43,-1.122 1.375,-7.71 1.179,-8.22 -0.121,-0.316 -0.6,-0.746 -1.065,-0.958 -1.12,-0.51 -2.784,0.162 -3.407,1.375 -0.343,0.666 -1.894,7.289 -1.894,8.084 0,0.067 -0.616,0.123 -1.369,0.123 -1.245,0 -1.351,-0.069 -1.187,-0.766 z"
           transform="matrix(0.73914,0,0,0.73914,36.846,-1.54)"
           id="path12" />
      </g>
    </g>
  </g>
</svg>
