<?xml version="1.0" encoding="UTF-8" standalone="no"?>
<svg
   width="732.862"
   height="732.862"
   viewBox="0 0 193.903 193.903"
   version="1.1"
   id="svg18"
   sodipodi:docname="ailos.svg"
   inkscape:version="1.1.1 (3bf5ae0d25, 2021-09-20)"
   xmlns:inkscape="http://www.inkscape.org/namespaces/inkscape"
   xmlns:sodipodi="http://sodipodi.sourceforge.net/DTD/sodipodi-0.dtd"
   xmlns="http://www.w3.org/2000/svg"
   xmlns:svg="http://www.w3.org/2000/svg">
  <defs
     id="defs22" />
  <sodipodi:namedview
     id="namedview20"
     pagecolor="#ffffff"
     bordercolor="#666666"
     borderopacity="1.0"
     inkscape:pageshadow="2"
     inkscape:pageopacity="0.0"
     inkscape:pagecheckerboard="0"
     showgrid="false"
     inkscape:zoom="0.82784701"
     inkscape:cx="334.60289"
     inkscape:cy="407.68402"
     inkscape:window-width="2560"
     inkscape:window-height="1017"
     inkscape:window-x="-8"
     inkscape:window-y="-8"
     inkscape:window-maximized="1"
     inkscape:current-layer="svg18" />
  <path
     style="fill:#f2f2f2;stroke-width:.999997"
     d="M29.06 128.153V31.2h193.902v193.903H29.06Z"
     transform="translate(-29.06 -31.201)"
     id="path2" />
  <path
     style="fill:#f4a302;stroke-width:0.999997"
     d="m 102.15815,179.822 c -9.92198,-1.015 -16.66298,-2.867 -24.32998,-6.684 -8.398,-4.18 -14.823,-9.198 -21.18,-16.541 l -1.996,-2.308 -2.327,-0.938 c -13.078,-5.276 -24.382,-15.001 -31.73,-27.299 -8.532,-14.278 -11.290001,-31.644 -7.628,-48.012 5.08,-22.706 21.965,-41.13 44.205,-48.236 4.076,-1.303 9.716,-2.458 13.477,-2.762 l 1.648,-0.133 2.714,-1.797 c 9.193,-6.084 18.16,-9.38 29.37698,-10.797 1.252,-0.158 4.088,-0.257 7.368,-0.256 5.697,0 8.216,0.228 12.895,1.167 26.648,5.348 47.437,26.804 51.848,53.513 0.667,4.039 0.872,6.66 0.865,11.052 -0.013,8.617 -1.643,17.02 -4.789,24.696 -0.484,1.182 -0.496,1.294 -0.276,2.714 0.323,2.082 0.313,11.593 -0.015,14.28 -1.56,12.785 -6.274,24.128 -14.105,33.932 -2.187,2.74 -7.327,7.88 -10.066,10.067 -9.55,7.627 -20.801,12.388 -33.06,13.99 -2.307,0.301 -11.056,0.54 -12.895,0.352 z m 6.205,-24.277 c 13.386,-2.087 24.852,-7.892 34.329,-17.378 a 60.532,60.532 0 0 0 16.75,-32.296 c 0.657,-3.777 0.848,-6.137 0.848,-10.47 0,-7.212 -0.962,-13.078 -3.23,-19.682 a 60.94,60.94 0 0 0 -41.157,-38.875 c -5.413,-1.52 -9.649,-2.04 -16.556992,-2.033 -6.253988,0.006 -9.161988,0.351 -14.639988,1.738 -4.457,1.128 -7.67,2.314 -11.827,4.364 -6.316,3.114 -10.79,6.273 -15.77,11.134 -8.44,8.239 -14.361,18.854 -16.883,30.265 -1.018,4.603 -1.26,7.078 -1.268,12.991 -0.008,4.932 0.047,5.994 0.444,8.63 0.554,3.684 1.82,8.754 3.023,12.118 1.984,5.542 5.9,12.515 9.722,17.314 1.928,2.42 7.008,7.5 9.429,9.429 4.414,3.516 10.573,7.09 15.678,9.097 5.326,2.094 10.162,3.239 17.245,4.081 0.373,0.045 3.078,0.055 6.00998,0.024 4.178,-0.045 5.88,-0.143 7.854,-0.45 z M 82.38017,132.368 c -1.299,-0.427 -1.956,-0.848 -2.775,-1.778 -1.28,-1.455 -1.394,-2.04 -1.394,-7.193 0,-2.48 -0.085,-4.733 -0.19,-5.006 l -0.188,-0.498 h -3.76 c -4.217,0 -5.32,-0.15 -7.04,-0.954 -1.54,-0.721 -2.669,-1.864 -3.432,-3.476 -0.545,-1.153 -0.61,-1.475 -0.605,-3.035 0.003,-0.96 0.123,-2.094 0.268,-2.52 0.585,-1.734 16.608,-40.852 17.414,-42.515 2.007,-4.145 4.345,-5.175 6.551,-2.884 1.035,1.074 1.39,1.839 7.079,15.246 2.692,6.346 5.000988,11.652 5.129988,11.791 0.187996,0.203 1.289992,-2.197 5.429992,-11.828 2.858,-6.645 5.448,-12.586 5.757,-13.202 1.185,-2.367 2.88,-3.535 4.446,-3.066 1.302,0.39 2.184,1.378 3.361,3.766 1.121,2.274 16.964,40.968 17.466,42.657 0.43,1.447 0.378,3.953 -0.108,5.253 -0.468,1.249 -1.816,2.826 -3.02,3.531 -1.668,0.978 -2.396,1.102 -7.15,1.221 l -4.46,0.112 -0.097,5.236 c -0.091,4.963 -0.12,5.277 -0.534,6.054 -0.686,1.284 -1.532,2.125 -2.727,2.712 -1.034,0.508 -1.256,0.54 -3.622,0.54 -2.276,0 -2.614,-0.045 -3.475,-0.469 a 6.331,6.331 0 0 1 -2.842,-2.841 c -0.452,-0.92 -0.473,-1.148 -0.567,-6.093 l -0.097,-5.139 H 92.07517 l -0.097,5.042 c -0.091,4.737 -0.124,5.1 -0.543,6.01 -0.564,1.229 -1.609,2.315 -2.85,2.966 -0.857,0.45 -1.23,0.515 -3.2,0.562 -1.459,0.035 -2.498,-0.035 -3.005,-0.202 z m 4.497,-4.666 0.544,-0.467 0.058,-6.895 0.058,-6.895 2.463,-0.054 2.463,-0.055 -0.06,-0.484 c -0.223,-1.826 -0.243,-3.628 -0.05,-4.42 0.124,-0.502 1.233,-3.512 2.465,-6.689 1.527,-3.938 2.201,-5.913 2.12,-6.205 -0.32,-1.147 -11.875,-27.941 -12.078,-28.009 -0.287,-0.095 0.661,-2.342 -9.068,21.473 -4.51,11.038 -8.26,20.434 -8.335,20.88 a 2.871,2.871 0 0 0 1.479,3.006 c 0.82,0.438 0.984,0.45 7.162,0.509 l 6.322,0.06 0.102,6.91 0.101,6.91 0.52,0.446 c 0.433,0.373 0.74,0.447 1.854,0.447 1.133,0 1.419,-0.071 1.88,-0.468 z m 29.28698,0.021 c 0.311,-0.31 0.352,-0.982 0.44,-7.267 l 0.097,-6.926 6.398,-0.097 c 7.04,-0.106 7.066,-0.11 8.121,-1.365 0.414,-0.492 0.508,-0.802 0.508,-1.677 0,-0.967 -0.745,-2.9 -7.486,-19.424 -9.468,-23.208 -9.586,-23.489 -9.846,-23.488 -0.192,0 -12.341,27.954 -12.337,28.385 0,0.094 1.041,2.756 2.311,5.914 2.489,6.187 2.861,7.504 2.655,9.387 -0.073,0.661 -0.15,1.42 -0.173,1.687 l -0.04,0.485 2.472,0.054 2.472,0.054 v 6.675 c 0,6.97 0.05,7.428 0.846,7.833 0.666,0.339 3.154,0.178 3.562,-0.23 z m -14.976,-14.926 c 1.023,-0.575 1.507,-1.511 1.383,-2.672 -0.104,-0.962 -2.669996,-7.592 -2.978996,-7.694 -0.322996,-0.108 -2.959984,6.98 -2.959984,7.955 0,2.243 2.500988,3.566 4.55598,2.411 z"
     id="path4" />
  <path
     style="fill:#07a6d2;stroke-width:0.999997"
     d="m 102.15815,179.822 c -9.92198,-1.015 -16.66298,-2.867 -24.32998,-6.684 -8.398,-4.18 -14.823,-9.198 -21.18,-16.541 l -1.996,-2.308 -2.327,-0.938 c -13.078,-5.276 -24.382,-15.001 -31.73,-27.299 -11.8010015,-19.75 -12.292002,-44.618 -1.281,-64.957 3.49,-6.45 8.726,-13.028 14.163,-17.8 4.792,-4.206 8.997,-7.01 14.776,-9.853 6.726,-3.31 13.381,-5.305 20.65,-6.19 a 469.77,469.77 0 0 0 4.125,-0.52 c 2.145,-0.283 8.832,-0.113 12.124,0.31 7.928,1.017 15.33098,3.3 22.19298,6.843 1.146,0.592 2.084,1.177 2.084,1.3 0,0.165 -0.547,0.149 -2.084,-0.06 -1.403,-0.192 -3.924,-0.29 -7.707996,-0.3 -6.565984,-0.018 -9.294984,0.297 -14.929984,1.724 -4.458,1.128 -7.67,2.314 -11.828,4.364 -6.316,3.114 -10.79,6.273 -15.77,11.134 -8.44,8.239 -14.361,18.854 -16.883,30.265 -1.018,4.603 -1.26,7.078 -1.268,12.991 -0.008,4.932 0.047,5.994 0.444,8.63 0.554,3.684 1.82,8.754 3.023,12.118 1.984,5.542 5.9,12.515 9.722,17.314 1.928,2.42 7.008,7.5 9.429,9.429 7.085,5.644 15.864,9.875 24.585,11.848 4.891,1.107 7.237,1.34 13.475984,1.344 6.218996,0.003 7.978996,-0.159 12.699996,-1.17 15.943,-3.415 30.098,-13.335 38.848,-27.228 1.783,-2.83 4.213,-7.726 5.343,-10.761 5.456,-14.659 5.147,-30.676 -0.868,-45.032 -0.471,-1.126 -0.857,-2.139 -0.857,-2.25 0,-0.644 4.361,4.59 6.551,7.863 5.939,8.874 9.369,18.012 10.831,28.851 0.442,3.275 0.498,11.952 0.1,15.221 -1.56,12.786 -6.275,24.129 -14.106,33.933 -2.187,2.74 -7.327,7.88 -10.066,10.067 -9.55,7.627 -20.801,12.388 -33.06,13.99 -2.307,0.301 -11.056,0.54 -12.895,0.352 z M 82.38017,132.368 c -1.299,-0.427 -1.956,-0.848 -2.775,-1.778 -1.28,-1.455 -1.394,-2.04 -1.394,-7.193 0,-2.48 -0.085,-4.733 -0.19,-5.006 l -0.188,-0.498 h -3.76 c -4.217,0 -5.32,-0.15 -7.04,-0.954 -1.54,-0.721 -2.669,-1.864 -3.432,-3.476 -0.545,-1.153 -0.61,-1.475 -0.605,-3.035 0.003,-0.96 0.123,-2.094 0.268,-2.52 0.585,-1.734 16.608,-40.852 17.414,-42.515 2.007,-4.145 4.345,-5.175 6.551,-2.884 1.035,1.074 1.39,1.839 7.079,15.246 2.692,6.346 5.000988,11.652 5.129988,11.791 0.187996,0.203 1.289992,-2.197 5.429992,-11.828 2.858,-6.645 5.448,-12.586 5.757,-13.202 1.185,-2.367 2.88,-3.535 4.446,-3.066 1.302,0.39 2.184,1.378 3.361,3.766 1.121,2.274 16.964,40.968 17.466,42.657 0.43,1.447 0.378,3.953 -0.108,5.253 -0.468,1.249 -1.816,2.826 -3.02,3.531 -1.668,0.978 -2.396,1.102 -7.15,1.221 l -4.46,0.112 -0.097,5.236 c -0.091,4.963 -0.12,5.277 -0.534,6.054 -0.686,1.284 -1.532,2.125 -2.727,2.712 -1.034,0.508 -1.256,0.54 -3.622,0.54 -2.276,0 -2.614,-0.045 -3.475,-0.469 a 6.331,6.331 0 0 1 -2.842,-2.841 c -0.452,-0.92 -0.473,-1.148 -0.567,-6.093 l -0.097,-5.139 H 92.07517 l -0.097,5.042 c -0.091,4.737 -0.124,5.1 -0.543,6.01 -0.564,1.229 -1.609,2.315 -2.85,2.966 -0.857,0.45 -1.23,0.515 -3.2,0.562 -1.459,0.035 -2.498,-0.035 -3.005,-0.202 z m 4.497,-4.666 0.544,-0.467 0.058,-6.895 0.058,-6.895 2.463,-0.054 2.463,-0.055 -0.06,-0.484 c -0.223,-1.826 -0.243,-3.628 -0.05,-4.42 0.124,-0.502 1.233,-3.512 2.465,-6.689 1.527,-3.938 2.201,-5.913 2.12,-6.205 -0.32,-1.147 -11.875,-27.941 -12.078,-28.009 -0.287,-0.095 0.661,-2.342 -9.068,21.473 -4.51,11.038 -8.26,20.434 -8.335,20.88 a 2.871,2.871 0 0 0 1.479,3.006 c 0.82,0.438 0.984,0.45 7.162,0.509 l 6.322,0.06 0.102,6.91 0.101,6.91 0.52,0.446 c 0.433,0.373 0.74,0.447 1.854,0.447 1.133,0 1.419,-0.071 1.88,-0.468 z m 29.28698,0.021 c 0.311,-0.31 0.352,-0.982 0.44,-7.267 l 0.097,-6.926 6.398,-0.097 c 7.04,-0.106 7.066,-0.11 8.121,-1.365 0.414,-0.492 0.508,-0.802 0.508,-1.677 0,-0.967 -0.745,-2.9 -7.486,-19.424 -9.468,-23.208 -9.586,-23.489 -9.846,-23.488 -0.192,0 -12.341,27.954 -12.337,28.385 0,0.094 1.041,2.756 2.311,5.914 2.489,6.187 2.861,7.504 2.655,9.387 -0.073,0.661 -0.15,1.42 -0.173,1.687 l -0.04,0.485 2.472,0.054 2.472,0.054 v 6.675 c 0,6.97 0.05,7.428 0.846,7.833 0.666,0.339 3.154,0.178 3.562,-0.23 z m -14.976,-14.926 c 1.023,-0.575 1.507,-1.511 1.383,-2.672 -0.104,-0.962 -2.669996,-7.592 -2.978996,-7.694 -0.322996,-0.108 -2.959984,6.98 -2.959984,7.955 0,2.243 2.500988,3.566 4.55598,2.411 z"
     id="path6" />
  <path
     style="fill:#077a8f;stroke-width:0.999997"
     d="m 72.97517,158.033 c -8.993,-0.591 -16.93,-2.768 -25.3,-6.94 -12.796,-6.376 -22.986,-16.645 -29.387,-29.613 -3.375,-6.838 -5.237,-12.964 -6.336,-20.844 -0.478,-3.432 -0.472,-13.027 0.01,-16.482 1.732,-12.392 6.397,-23.338 14.009,-32.867 4.443,-5.563 11.151,-11.4 17.434,-15.17 7.742,-4.645 17.647,-8.002 26.177,-8.871 0.64,-0.066 1.983,-0.258 2.983,-0.428 1.452,-0.246 2.67,-0.286 6.011,-0.197 7.483,0.2 13.203,1.211 19.994992,3.535 4.351988,1.49 10.857988,4.504 10.857988,5.031 0,0.167 -0.493,0.149 -1.89,-0.069 -1.389,-0.216 -3.512,-0.295 -7.998996,-0.298 -7.061984,-0.004 -9.200984,0.242 -15.032984,1.724 -19.096,4.855 -34.806,18.884 -41.915,37.43 -2.54,6.625 -3.803,13.744 -3.803,21.426 0,6.098 0.579,10.445 2.22,16.676 3.526,13.395 12.64,25.902 24.792,34.027 7.323,4.896 15.808,8.211 24.335,9.507 1.173,0.179 2.264,0.366 2.424,0.416 0.533,0.169 -0.179,0.4 -2.815,0.911 -5.103,0.991 -11.753,1.426 -16.77,1.096 z m 71.54998,-21.518 c 0,-0.102 0.492,-0.735 1.093,-1.406 4.202,-4.69 8.585,-12.034 10.91,-18.282 5.456,-14.659 5.147,-30.676 -0.868,-45.032 -0.471,-1.126 -0.857,-2.139 -0.857,-2.25 0,-0.644 4.361,4.59 6.551,7.863 4.997,7.467 8.266,15.267 10.011,23.884 0.267,1.314 0.542,2.95 0.612,3.632 l 0.127,1.242 -1.69,3.35 c -5.15,10.212 -12.845,18.793 -22.67,25.279 -2.864,1.891 -3.218,2.08 -3.218,1.72 z m -62.56698,-4.387 c -1.114,-0.408 -2.498,-1.678 -3.126,-2.868 l -0.524,-0.993 -0.063,-5.078 c -0.045,-3.635 -0.128,-5.133 -0.294,-5.27 -0.133,-0.11 -2.132,-0.221 -4.688,-0.26 -5.09,-0.075 -5.833,-0.247 -7.723,-1.784 -1.484,-1.207 -2.303,-2.914 -2.414,-5.03 -0.06,-1.13 0.009,-1.938 0.227,-2.688 0.44,-1.516 16.635,-41.143 17.556,-42.96 0.976,-1.925 1.602,-2.75 2.497,-3.292 1.777,-1.076 3.665,-0.125 5.015,2.527 0.283,0.556 2.818,6.42 5.632,13.032 2.815,6.612 5.237988,12.144 5.384988,12.292 0.227996,0.23 0.308996,0.173 0.546996,-0.388 3.276996,-7.718 10.739996,-24.876 11.039996,-25.38 0.933,-1.567 2.162,-2.52 3.248,-2.52 1.575,0 2.844,1.21 4.17,3.974 1.252,2.611 17.118,41.595 17.454,42.885 0.8,3.072 -0.28,6.256 -2.68,7.899 -1.831,1.253 -2.285,1.345 -7.015,1.417 -2.346,0.036 -4.455,0.107 -4.686,0.157 -0.415,0.091 -0.42,0.146 -0.484,5.183 l -0.066,5.09 -0.544,1.108 c -0.303,0.618 -0.93,1.448 -1.416,1.876 -1.254,1.104 -2.237,1.379 -4.927,1.379 -2.134,0 -2.328,-0.033 -3.448,-0.593 -1.335,-0.668 -2.023,-1.385 -2.684,-2.8 -0.437,-0.936 -0.453,-1.141 -0.455,-5.924 -10e-4,-3.593 -0.066,-5.018 -0.235,-5.187 -0.334,-0.334 -14.90598,-0.334 -15.23998,0 -0.169,0.168 -0.233,1.558 -0.233,5.034 0,5.492 -0.155,6.263 -1.552,7.702 -1.368,1.41 -2.071,1.653 -4.944,1.708 -1.877,0.036 -2.727,-0.028 -3.33,-0.248 z m 5.158,-4.469 c 0.39,-0.495 0.402,-0.726 0.402,-7.268 v -6.756 l 0.436,-0.102 c 0.24,-0.055 1.397,-0.122 2.57,-0.149 1.763,-0.04 2.127,-0.098 2.098,-0.338 -0.018,-0.16 -0.137,-0.836 -0.262,-1.5 -0.354,-1.872 -0.035,-3.088 2.542,-9.706 l 2.335,-6 -5.848,-13.743 c -6.306,-14.818 -6.304,-14.813 -6.601,-14.813 -0.273,0 -0.015,-0.613 -9.147,21.718 -8.832,21.596 -8.762,21.395 -7.942,22.875 0.215,0.39 0.725,0.86 1.207,1.115 0.816,0.432 0.964,0.441 6.896,0.441 3.334,0 6.2,0.053 6.368,0.118 0.272,0.104 0.307,0.894 0.307,6.892 v 6.775 l 0.476,0.476 c 0.43,0.43 0.633,0.476 2.119,0.476 1.543,0 1.667,-0.03 2.044,-0.51 z m 28.79898,0.391 c 0.725,-0.278 0.783,-0.789 0.883,-7.733 l 0.096,-6.787 6.4,-0.097 c 5.95,-0.09 6.444,-0.124 7.056,-0.484 1.119,-0.659 1.477,-1.318 1.458,-2.681 -0.015,-1.116 -0.58,-2.573 -8.266,-21.363 -4.538,-11.092 -8.407,-20.493 -8.6,-20.893 -0.192,-0.4 -0.452,-0.727 -0.579,-0.727 -0.126,0 -2.992,6.426 -6.37,14.281 l -6.141,14.282 2.471,6.127 2.472,6.126 0.008,2.036 c 0.004,1.12 -0.064,2.32 -0.153,2.666 l -0.16,0.63 h 2.4 c 1.609,0 2.477,0.077 2.633,0.233 0.172,0.172 0.233,1.977 0.233,6.92 0,6.598 0.006,6.692 0.421,7.135 0.37,0.394 0.605,0.45 1.924,0.45 0.825,0 1.642,-0.055 1.813,-0.12 z m -14.503,-15.217 c 0.868,-0.536 1.231,-1.287 1.229,-2.54 -10e-4,-0.823 -0.284,-1.727 -1.406,-4.519 -0.859,-2.135 -1.506996,-3.49 -1.668996,-3.49 -0.162996,0 -0.783992,1.333 -1.622988,3.49 -1.930996,4.96 -1.890996,6.12 0.251,7.236 1.021992,0.532 2.173984,0.469 3.217984,-0.177 z"
     id="path8" />
  <path
     style="fill:#8f6d0e;stroke-width:0.999997"
     d="m 51.12417,152.712 c -29.294,-12.813 -45.1440025,-44.367 -37.848,-75.343 5.568,-23.636 23.998,-42.461 47.364,-48.379 3.717,-0.941 7.114,-1.556 9.717,-1.758 0.96,-0.074 1.868,-0.233 2.017,-0.352 0.39,-0.311 9.25,-0.276 11.944,0.047 8.273,0.993 15.98498,3.324 23.02598,6.96 1.146,0.591 2.084,1.196 2.084,1.344 0,0.194 -0.093,0.219 -0.34,0.088 -1.45,-0.767 -13.22798,-1.002 -17.59598,-0.35 -13.714,2.046 -25.42,7.842 -34.879,17.272 -7.306,7.284 -12.6,16.2 -15.526,26.146 -1.658,5.636 -2.3,10.267 -2.32,16.724 -0.02,6.156 0.499,10.463 1.917,15.9 0.362,1.39 0.477,2.456 0.565,5.235 0.392,12.4 4.104,24.084 10.875,34.232 1.86,2.787 2.131,3.287 1.779,3.279 -0.229,-0.005 -1.48,-0.475 -2.78,-1.044 z m 93.59598,-16.498 c 0,-0.075 0.448,-0.628 0.997,-1.228 3.962,-4.335 8.507,-11.97 10.811,-18.16 5.456,-14.658 5.147,-30.675 -0.868,-45.03 -0.471,-1.127 -0.857,-2.14 -0.857,-2.251 0,-0.357 1.338,1.06 3.306,3.5 7.131,8.841 11.895,19.471 13.672,30.508 l 0.33,2.044 -1.396,2.84 c -4.503,9.164 -11.194,17.319 -19.196,23.392 -3.306,2.51 -6.8,4.763 -6.8,4.385 z m -62.66798,-4.336 c -1.124,-0.452 -1.802,-0.975 -2.51,-1.936 -0.957,-1.303 -1.137,-2.508 -1.137,-7.609 0,-4.009 -0.04,-4.607 -0.307,-4.71 -0.169,-0.065 -2.07,-0.118 -4.225,-0.118 -4.28,0 -5.439,-0.18 -7.147,-1.109 -2.638,-1.436 -3.994,-4.792 -3.195,-7.907 0.357,-1.39 16.446,-40.878 17.589,-43.168 1.074,-2.153 1.763,-2.98 2.823,-3.384 0.726,-0.277 1,-0.295 1.621,-0.11 0.923,0.277 1.937,1.367 2.725,2.926 0.421,0.835 9.732996,22.525 10.809988,25.18 0.057,0.139 0.273,0.226 0.481996,0.194 0.303,-0.047 1.482996,-2.626 5.861996,-12.808 3.015,-7.011 5.794,-13.218 6.174,-13.791 0.478,-0.72 0.957,-1.17 1.544,-1.455 1.054,-0.51 1.366,-0.513 2.38,-0.022 0.97,0.47 1.794,1.566 2.805,3.733 0.784,1.681 16.455,39.996 17.11,41.832 0.456,1.283 0.543,3.815 0.169,4.945 -0.665,2.007 -2.187,3.578 -4.255,4.393 -0.999,0.394 -1.501,0.439 -5.653,0.508 -2.556,0.042 -4.642,0.157 -4.75,0.262 -0.116,0.111 -0.234,2.334 -0.291,5.462 l -0.097,5.275 -0.532,0.905 c -1.29,2.195 -3.009,2.966 -6.327,2.838 -1.75,-0.067 -2.207,-0.155 -3.03,-0.584 -1.151,-0.6 -1.838,-1.294 -2.455,-2.48 -0.437,-0.84 -0.456,-1.063 -0.514,-6.006 -0.039,-3.243 -0.137,-5.224 -0.267,-5.38 -0.16,-0.194 -1.86,-0.249 -7.727996,-0.249 -4.136984,0 -7.659984,0.053 -7.829984,0.118 -0.267,0.103 -0.306,0.719 -0.306,4.91 0,5.355 -0.133,6.187 -1.217,7.596 -0.344,0.447 -1.105,1.084 -1.691,1.415 -1.008,0.568 -1.194,0.604 -3.394,0.65 -1.909,0.04 -2.49,-0.016 -3.236,-0.316 z m 5.21,-3.983 0.45,-0.522 v -13.552 l 2.375,-0.003 c 1.307,0 2.504,-0.084 2.661,-0.183 0.242,-0.153 0.249,-0.317 0.049,-1.067 -0.314,-1.17 -0.298,-3.261 0.034,-4.467 0.146,-0.533 1.236,-3.453 2.421,-6.487 1.185,-3.035 2.155,-5.627 2.155,-5.76 0,-0.217 -11.134,-26.538 -11.95,-28.25 -0.46,-0.965 -0.83,-0.849 -1.452,0.456 -0.966,2.028 -16.795,41.013 -16.918,41.667 -0.168,0.895 0.192,2.137 0.815,2.81 1.058,1.14 1.294,1.177 8.127,1.248 l 6.254,0.065 v 6.688 c 0,4.413 0.071,6.82 0.209,7.079 0.36,0.672 1.297,0.957 2.88,0.875 1.278,-0.066 1.492,-0.134 1.89,-0.597 z m 28.54298,0.448 c 1.154,-0.402 1.186,-0.621 1.186,-7.905 v -6.588 l 6.254,-0.063 6.253,-0.063 0.865,-0.484 c 0.476,-0.267 1.073,-0.79 1.326,-1.164 0.397,-0.586 0.45,-0.851 0.378,-1.939 -0.074,-1.125 -0.973,-3.435 -8.367,-21.506 -4.556,-11.135 -8.458,-20.586 -8.67,-21.002 -0.253,-0.496 -0.497,-0.735 -0.708,-0.695 -0.223,0.043 -2.175,4.358 -6.387,14.119 -3.336,7.731 -6.118,14.252 -6.184,14.49 -0.082,0.301 0.584,2.188 2.157,6.109 1.251,3.12 2.394,6.11 2.538,6.643 0.327,1.2 0.342,2.854 0.038,4.169 -0.193,0.836 -0.185,1.027 0.049,1.175 0.153,0.097 1.3,0.178 2.55,0.18 l 2.271,0.002 0.056,6.767 c 0.053,6.451 0.073,6.786 0.443,7.197 0.213,0.237 0.562,0.502 0.776,0.59 0.572,0.234 2.467,0.215 3.176,-0.032 z m -14.588,-15.117 c 1.144,-0.554 1.712,-1.52 1.703,-2.894 -0.006,-0.86 -0.282,-1.763 -1.429,-4.655 -0.781,-1.973 -1.498996,-3.672 -1.593996,-3.776 -0.394,-0.43 -0.855996,0.358 -2.159984,3.686 -1.171,2.99 -1.367,3.662 -1.38,4.744 -0.02,1.518 0.412,2.26 1.678996,2.887 1.044992,0.518 2.121984,0.52 3.179984,0.008 z"
     id="path10" />
  <path
     style="fill:#01a346;stroke-width:0.999997"
     d="m 51.12417,152.712 c -29.294,-12.813 -45.1440025,-44.367 -37.848,-75.343 6.366,-27.027 29.298,-47.25 56.833,-50.118 3.278,-0.341 9.902,-0.391 13.045,-0.098 8.117,0.757 16.025988,3.005 23.16798,6.585 1.304,0.654 2.329,1.232 2.276,1.285 -0.052,0.052 -0.868,-0.019 -1.814,-0.158 -2.713,-0.398 -12.36398,-0.333 -15.29198,0.104 -13.714,2.046 -25.42,7.842 -34.879,17.272 -7.306,7.284 -12.6,16.2 -15.526,26.146 -1.658,5.636 -2.3,10.267 -2.32,16.724 -0.02,6.156 0.499,10.463 1.917,15.9 0.362,1.39 0.477,2.456 0.565,5.235 0.392,12.4 4.104,24.084 10.875,34.232 1.86,2.787 2.131,3.287 1.779,3.279 -0.229,-0.005 -1.48,-0.475 -2.78,-1.044 z m 30.928,-20.834 c -1.124,-0.452 -1.802,-0.975 -2.51,-1.936 -0.957,-1.303 -1.137,-2.508 -1.137,-7.61 0,-4.008 -0.04,-4.606 -0.307,-4.709 -0.169,-0.065 -2.07,-0.118 -4.225,-0.118 -4.28,0 -5.439,-0.18 -7.147,-1.109 -2.638,-1.436 -3.994,-4.792 -3.195,-7.907 0.357,-1.39 16.446,-40.878 17.589,-43.168 1.074,-2.153 1.763,-2.98 2.823,-3.384 0.726,-0.277 1,-0.295 1.621,-0.11 0.923,0.277 1.937,1.367 2.725,2.926 0.421,0.835 9.732996,22.525 10.809988,25.18 0.057,0.139 0.273,0.226 0.481996,0.194 0.303,-0.047 1.482996,-2.626 5.861996,-12.808 3.015,-7.011 5.794,-13.218 6.174,-13.791 0.478,-0.72 0.957,-1.17 1.544,-1.455 1.054,-0.51 1.366,-0.513 2.38,-0.022 0.97,0.47 1.794,1.566 2.805,3.733 0.784,1.681 16.455,39.996 17.11,41.832 0.456,1.283 0.543,3.815 0.169,4.945 -0.665,2.007 -2.187,3.578 -4.255,4.393 -0.999,0.394 -1.501,0.439 -5.653,0.508 -2.556,0.042 -4.642,0.157 -4.75,0.262 -0.116,0.111 -0.234,2.334 -0.291,5.462 l -0.097,5.275 -0.532,0.905 c -1.29,2.195 -3.009,2.966 -6.327,2.838 -1.75,-0.067 -2.207,-0.155 -3.03,-0.584 -1.151,-0.6 -1.838,-1.294 -2.455,-2.48 -0.437,-0.84 -0.456,-1.063 -0.514,-6.006 -0.039,-3.243 -0.137,-5.224 -0.267,-5.38 -0.16,-0.194 -1.86,-0.249 -7.727996,-0.249 -4.136984,0 -7.659984,0.053 -7.829984,0.118 -0.267,0.103 -0.306,0.719 -0.306,4.91 0,5.355 -0.133,6.187 -1.217,7.596 -0.344,0.447 -1.105,1.084 -1.691,1.415 -1.008,0.568 -1.194,0.604 -3.394,0.65 -1.909,0.04 -2.49,-0.016 -3.236,-0.316 z m 5.21,-3.983 0.45,-0.522 v -13.552 l 2.375,-0.003 c 1.307,0 2.504,-0.084 2.661,-0.183 0.242,-0.153 0.249,-0.317 0.049,-1.067 -0.314,-1.17 -0.298,-3.261 0.034,-4.467 0.146,-0.533 1.236,-3.453 2.421,-6.487 1.185,-3.035 2.155,-5.627 2.155,-5.76 0,-0.217 -11.134,-26.538 -11.95,-28.25 -0.46,-0.965 -0.83,-0.849 -1.452,0.456 -0.966,2.028 -16.795,41.013 -16.918,41.667 -0.168,0.895 0.192,2.137 0.815,2.81 1.058,1.14 1.294,1.177 8.127,1.248 l 6.254,0.065 v 6.688 c 0,4.413 0.071,6.82 0.209,7.079 0.36,0.672 1.297,0.957 2.88,0.875 1.278,-0.066 1.492,-0.134 1.89,-0.597 z m 28.54298,0.448 c 1.154,-0.402 1.186,-0.621 1.186,-7.905 v -6.588 l 6.254,-0.063 6.253,-0.063 0.865,-0.484 c 0.476,-0.267 1.073,-0.79 1.326,-1.164 0.397,-0.586 0.45,-0.851 0.378,-1.939 -0.074,-1.125 -0.973,-3.435 -8.367,-21.506 -4.556,-11.135 -8.458,-20.586 -8.67,-21.002 -0.253,-0.496 -0.497,-0.735 -0.708,-0.695 -0.223,0.043 -2.175,4.358 -6.387,14.119 -3.336,7.731 -6.118,14.252 -6.184,14.49 -0.082,0.301 0.584,2.188 2.157,6.109 1.251,3.12 2.394,6.11 2.538,6.643 0.327,1.2 0.342,2.854 0.038,4.169 -0.193,0.836 -0.185,1.027 0.049,1.175 0.153,0.097 1.3,0.178 2.55,0.18 l 2.271,0.002 0.056,6.767 c 0.053,6.451 0.073,6.786 0.443,7.197 0.213,0.237 0.562,0.502 0.776,0.59 0.572,0.234 2.467,0.215 3.176,-0.032 z m -14.588,-15.117 c 1.144,-0.554 1.712,-1.52 1.703,-2.894 -0.006,-0.86 -0.282,-1.763 -1.429,-4.655 -0.781,-1.973 -1.498996,-3.672 -1.593996,-3.776 -0.394,-0.43 -0.855996,0.358 -2.159984,3.686 -1.171,2.99 -1.367,3.662 -1.38,4.744 -0.02,1.518 0.412,2.26 1.678996,2.887 1.044992,0.518 2.121984,0.52 3.179984,0.008 z"
     id="path12" />
  <path
     style="fill:#005678;stroke-width:0.999997"
     d="m 82.05217,131.879 c -1.124,-0.453 -1.802,-0.976 -2.51,-1.937 -0.957,-1.303 -1.137,-2.508 -1.137,-7.61 0,-4.008 -0.04,-4.606 -0.307,-4.709 -0.169,-0.065 -2.07,-0.118 -4.225,-0.118 -4.28,0 -5.439,-0.18 -7.147,-1.109 -2.638,-1.436 -3.994,-4.792 -3.195,-7.907 0.357,-1.39 16.446,-40.878 17.589,-43.168 1.074,-2.153 1.763,-2.98 2.823,-3.384 0.726,-0.277 1,-0.295 1.621,-0.11 0.923,0.277 1.937,1.367 2.725,2.926 0.421,0.835 9.732996,22.525 10.809988,25.18 0.057,0.139 0.273,0.226 0.481996,0.194 0.303,-0.047 1.482996,-2.626 5.861996,-12.808 3.015,-7.011 5.794,-13.218 6.174,-13.791 0.478,-0.72 0.957,-1.17 1.544,-1.455 1.054,-0.51 1.366,-0.513 2.38,-0.022 0.97,0.47 1.794,1.566 2.805,3.733 0.784,1.681 16.455,39.996 17.11,41.832 0.456,1.283 0.543,3.815 0.169,4.945 -0.665,2.007 -2.187,3.578 -4.255,4.393 -0.999,0.394 -1.501,0.439 -5.653,0.508 -2.556,0.042 -4.642,0.157 -4.75,0.262 -0.116,0.111 -0.234,2.334 -0.291,5.462 l -0.097,5.275 -0.532,0.905 c -1.29,2.195 -3.009,2.966 -6.327,2.838 -1.75,-0.067 -2.207,-0.155 -3.03,-0.584 -1.151,-0.6 -1.838,-1.294 -2.455,-2.48 -0.437,-0.84 -0.456,-1.063 -0.514,-6.006 -0.039,-3.243 -0.137,-5.224 -0.267,-5.38 -0.16,-0.194 -1.86,-0.249 -7.727996,-0.249 -4.136984,0 -7.659984,0.053 -7.829984,0.118 -0.267,0.103 -0.306,0.719 -0.306,4.91 0,5.355 -0.133,6.187 -1.217,7.596 -0.344,0.447 -1.105,1.084 -1.691,1.415 -1.008,0.568 -1.194,0.604 -3.394,0.65 -1.909,0.04 -2.49,-0.016 -3.236,-0.316 z m 5.21,-3.984 0.45,-0.522 v -13.552 l 2.375,-0.003 c 1.307,0 2.504,-0.084 2.661,-0.183 0.242,-0.153 0.249,-0.317 0.049,-1.067 -0.314,-1.17 -0.298,-3.261 0.034,-4.467 0.146,-0.533 1.236,-3.453 2.421,-6.487 1.185,-3.035 2.155,-5.627 2.155,-5.76 0,-0.217 -11.134,-26.538 -11.95,-28.25 -0.46,-0.965 -0.83,-0.849 -1.452,0.456 -0.966,2.028 -16.795,41.013 -16.918,41.667 -0.168,0.895 0.192,2.137 0.815,2.81 1.058,1.14 1.294,1.177 8.127,1.248 l 6.254,0.065 v 6.688 c 0,4.413 0.071,6.82 0.209,7.079 0.36,0.672 1.297,0.957 2.88,0.875 1.278,-0.066 1.492,-0.134 1.89,-0.597 z m 28.54298,0.448 c 1.154,-0.402 1.186,-0.621 1.186,-7.905 v -6.588 l 6.254,-0.063 6.253,-0.063 0.865,-0.484 c 0.476,-0.267 1.073,-0.79 1.326,-1.164 0.397,-0.586 0.45,-0.851 0.378,-1.939 -0.074,-1.125 -0.973,-3.435 -8.367,-21.506 -4.556,-11.135 -8.458,-20.586 -8.67,-21.002 -0.253,-0.496 -0.497,-0.735 -0.708,-0.695 -0.223,0.043 -2.175,4.358 -6.387,14.119 -3.336,7.731 -6.118,14.252 -6.184,14.49 -0.082,0.301 0.584,2.188 2.157,6.109 1.251,3.12 2.394,6.11 2.538,6.643 0.327,1.2 0.342,2.854 0.038,4.169 -0.193,0.836 -0.185,1.027 0.049,1.175 0.153,0.097 1.3,0.178 2.55,0.18 l 2.271,0.002 0.056,6.767 c 0.053,6.451 0.073,6.786 0.443,7.197 0.213,0.237 0.562,0.502 0.776,0.59 0.572,0.234 2.467,0.215 3.176,-0.032 z m -14.588,-15.117 c 1.144,-0.554 1.712,-1.52 1.703,-2.894 -0.006,-0.86 -0.282,-1.763 -1.429,-4.655 -0.781,-1.973 -1.498996,-3.672 -1.593996,-3.776 -0.394,-0.43 -0.855996,0.358 -2.159984,3.686 -1.171,2.99 -1.367,3.662 -1.38,4.744 -0.02,1.518 0.412,2.26 1.678996,2.887 1.044992,0.518 2.121984,0.52 3.179984,0.008 z M 48.54417,61.433 c 0,-0.168 0.4,-1.473 0.888,-2.899 3.916,-11.433 10.846,-21.556 20.013,-29.232 2.866,-2.4 2.67,-2.338 7.506,-2.344 2.24,-0.003 5.031,0.085 6.204,0.194 8.189,0.764 16.416984,3.12 23.26898,6.662 l 2.133,1.102 -0.97,-0.094 c -4.673,-0.458 -8.241992,-0.566 -11.48998,-0.348 -8.731,0.587 -15.685,2.401 -23.218,6.06 -8.87,4.308 -16.711,10.867 -22.588,18.897 -1.735,2.371 -1.747,2.385 -1.747,2.002 z"
     id="path14" />
  <path
     style="fill:#006c32;stroke-width:0.999997"
     d="m 48.54417,61.433 c 0,-0.168 0.4,-1.473 0.888,-2.899 3.916,-11.433 10.846,-21.556 20.013,-29.232 2.866,-2.4 2.67,-2.338 7.506,-2.344 2.24,-0.003 5.031,0.085 6.204,0.194 8.189,0.764 16.416984,3.12 23.26898,6.662 l 2.133,1.102 -0.97,-0.094 c -4.673,-0.458 -8.241992,-0.566 -11.48998,-0.348 -8.731,0.587 -15.685,2.401 -23.218,6.06 -8.87,4.308 -16.711,10.867 -22.588,18.897 -1.735,2.371 -1.747,2.385 -1.747,2.002 z"
     id="path16" />
</svg>
