<?xml version="1.0" encoding="UTF-8" standalone="no"?>
<svg
   height="620.25323"
   viewBox="0 0 99.240518 99.311001"
   width="620.25323"
   version="1.1"
   id="svg8"
   sodipodi:docname="banco-da-amazonia.svg"
   inkscape:version="1.1.1 (3bf5ae0d25, 2021-09-20)"
   xmlns:inkscape="http://www.inkscape.org/namespaces/inkscape"
   xmlns:sodipodi="http://sodipodi.sourceforge.net/DTD/sodipodi-0.dtd"
   xmlns="http://www.w3.org/2000/svg"
   xmlns:svg="http://www.w3.org/2000/svg">
  <defs
     id="defs12" />
  <sodipodi:namedview
     id="namedview10"
     pagecolor="#ffffff"
     bordercolor="#666666"
     borderopacity="1.0"
     inkscape:pageshadow="2"
     inkscape:pageopacity="0.0"
     inkscape:pagecheckerboard="0"
     showgrid="false"
     inkscape:zoom="0.474"
     inkscape:cx="-69.620253"
     inkscape:cy="418.77637"
     inkscape:window-width="2560"
     inkscape:window-height="1017"
     inkscape:window-x="-8"
     inkscape:window-y="-8"
     inkscape:window-maximized="1"
     inkscape:current-layer="svg8" />
  <rect
     style="fill:#278428;fill-opacity:1;stroke-width:0.096068;paint-order:markers stroke fill"
     id="rect3265"
     width="99.310997"
     height="99.310997"
     x="-0.14204545"
     y="0" />
  <path
     d="m 71.474162,54.021951 c -4.570283,-0.38256 -8.646434,-1.95705 -11.698898,-3.48461 -2.309494,-1.17246 -4.031873,-2.29355 -4.90856,-2.84967 l -7.569614,11.51381 c 0.274518,0.26744 0.415319,0.44455 0.415319,0.44455 2.546819,1.64179 4.952837,2.909 7.231337,3.83439 6.534416,2.68408 12.025663,2.63803 16.531301,1.22471 11.235759,-3.5342 16.374561,-15.64133 16.374561,-15.64133 -5.566518,4.30816 -11.275609,5.37524 -16.375446,4.95815 z m -57.903832,5.02634 c 7.07194,-6.05446 13.522229,-7.5891 18.877988,-7.12862 l 6.816018,-10.27937 C 19.34938,38.651591 13.57033,59.048291 13.57033,59.048291 Z"
     fill="#fc0"
     id="path2"
     style="fill:#ffcc00;fill-opacity:1;stroke-width:0.999999" />
  <path
     d="m 54.942861,63.481311 -3.634265,9.73477 h 20.165566 v -8.51006 c -4.506524,1.41332 -9.996886,1.45937 -16.531301,-1.22471 z m -3.634265,-39.97692 -12.043374,18.13591 -6.816018,10.27937 -14.276709,21.49388 h 19.761757 l 9.361952,-14.21118 7.569614,-11.51382 13.810916,-20.97761 -8.90147,23.82729 c 3.052464,1.52756 7.128615,3.10205 11.698898,3.4846 v -30.51844 z"
     fill="#278428"
     id="path4"
     style="fill:#f9f9f9;stroke-width:0.999999" />
</svg>
