<?xml version="1.0" encoding="UTF-8" standalone="no"?>
<svg
   width="280"
   height="280"
   viewBox="0 0 74.083429 74.083964"
   version="1.1"
   id="svg8"
   sodipodi:docname="asaas.svg"
   inkscape:version="1.1.1 (3bf5ae0d25, 2021-09-20)"
   xmlns:inkscape="http://www.inkscape.org/namespaces/inkscape"
   xmlns:sodipodi="http://sodipodi.sourceforge.net/DTD/sodipodi-0.dtd"
   xmlns="http://www.w3.org/2000/svg"
   xmlns:svg="http://www.w3.org/2000/svg">
  <defs
     id="defs12" />
  <sodipodi:namedview
     id="namedview10"
     pagecolor="#ffffff"
     bordercolor="#666666"
     borderopacity="1.0"
     inkscape:pageshadow="2"
     inkscape:pageopacity="0.0"
     inkscape:pagecheckerboard="0"
     showgrid="false"
     inkscape:zoom="2.379253"
     inkscape:cx="56.740497"
     inkscape:cy="176.31584"
     inkscape:window-width="2560"
     inkscape:window-height="1017"
     inkscape:window-x="-8"
     inkscape:window-y="-8"
     inkscape:window-maximized="1"
     inkscape:current-layer="svg8" />
  <path
     style="fill:#1da9da;fill-opacity:1;stroke-width:0.15875;paint-order:markers stroke fill"
     d="M -2.677497e-4,-1e-6 H 74.083697 V 74.083965 H -2.677497e-4 Z"
     id="path2" />
  <g
     style="fill:#ffffff;fill-opacity:1"
     id="g6"
     transform="translate(-0.35777623,3.8924041)">
    <path
       style="fill:#ffffff;fill-opacity:1;stroke-width:1"
       d="m 148.327,148.21 c -0.244,-0.294 0.351,-1.487 2.91,-5.832 1.77,-3.004 3.174,-5.496 3.12,-5.537 -0.055,-0.04 -0.948,-0.63 -1.985,-1.31 -3.078,-2.017 -4.335,-4.104 -4.692,-7.789 -0.063,-0.653 -0.542,-1.335 -1.982,-2.819 -2.883,-2.974 -4.148,-6.348 -3.572,-9.528 0.253,-1.394 0.23,-1.496 -0.6,-2.737 -2.59,-3.862 -3.145,-9.477 -1.09,-11.004 l 0.731,-0.542 0.428,0.649 c 0.236,0.357 1.693,1.902 3.238,3.433 2.801,2.774 6.227,5.29 11.52,8.46 3.079,1.844 5.12,3.898 6.348,6.389 2.006,4.066 1.543,7.276 -1.984,13.763 -1.183,2.176 -2.095,4.013 -2.027,4.082 0.785,0.784 11.75,0.816 12.53,0.036 0.086,-0.086 -0.435,-1.206 -1.157,-2.49 -3.413,-6.058 -4.159,-8.208 -3.973,-11.46 0.249,-4.367 2.596,-7.335 8.831,-11.173 2.052,-1.263 4.73,-3.036 5.953,-3.94 2.244,-1.661 5.94,-5.171 7.17,-6.81 0.586,-0.78 0.738,-0.852 1.231,-0.588 1.088,0.582 1.433,1.742 1.3,4.365 -0.137,2.71 -0.769,4.663 -2.192,6.777 -0.852,1.266 -0.88,1.388 -0.655,2.772 0.553,3.398 -0.677,6.684 -3.575,9.555 -1.862,1.845 -1.905,1.918 -2.046,3.47 -0.08,0.872 -0.386,2.133 -0.683,2.803 -0.707,1.6 -2.685,3.687 -4.451,4.697 -0.78,0.446 -1.417,0.908 -1.417,1.026 0,0.119 1.247,2.311 2.77,4.873 3.606,6.062 3.625,6.1 3.25,6.475 -0.334,0.333 -3.333,0.414 -3.792,0.102 -0.157,-0.107 -1.155,-1.653 -2.217,-3.436 -1.062,-1.782 -1.945,-3.24 -1.963,-3.24 -0.017,0 -0.954,0.176 -2.08,0.391 -3.568,0.683 -7.377,0.775 -11.049,0.267 -1.819,-0.252 -3.524,-0.474 -3.79,-0.492 -0.352,-0.025 -0.99,0.83 -2.344,3.14 -1.023,1.747 -1.996,3.263 -2.163,3.37 -0.555,0.357 -3.523,0.228 -3.851,-0.168 z"
       transform="translate(-127.494,-91.7)"
       id="path4" />
  </g>
</svg>
