<?xml version="1.0" encoding="UTF-8" standalone="no"?>
<svg
   xml:space="preserve"
   width="700.00092"
   height="700.00092"
   version="1.1"
   id="svg8"
   sodipodi:docname="banestes.svg"
   inkscape:version="1.1.1 (3bf5ae0d25, 2021-09-20)"
   xmlns:inkscape="http://www.inkscape.org/namespaces/inkscape"
   xmlns:sodipodi="http://sodipodi.sourceforge.net/DTD/sodipodi-0.dtd"
   xmlns="http://www.w3.org/2000/svg"
   xmlns:svg="http://www.w3.org/2000/svg"><defs
     id="defs12" /><sodipodi:namedview
     id="namedview10"
     pagecolor="#ffffff"
     bordercolor="#666666"
     borderopacity="1.0"
     inkscape:pageshadow="2"
     inkscape:pageopacity="0.0"
     inkscape:pagecheckerboard="0"
     showgrid="false"
     inkscape:zoom="1.2250178"
     inkscape:cx="351.01532"
     inkscape:cy="350.60716"
     inkscape:window-width="2560"
     inkscape:window-height="1017"
     inkscape:window-x="-8"
     inkscape:window-y="-8"
     inkscape:window-maximized="1"
     inkscape:current-layer="svg8" /><path
     style="fill:#004b8d;fill-opacity:1;stroke-width:0.600001;paint-order:markers stroke fill"
     d="M 0,0 H 700.00091 V 700.00091 H 0 Z"
     id="path2" /><path
     d="m 527.04066,435.03572 c -10.52644,9.75208 -23.2096,16.95876 -41.06069,23.36235 l -213.50379,74.3052 V 348.76123 l 157.25084,-90.65596 0.12704,-0.0726 c 3.25171,-1.95858 6.00885,-3.86877 8.68129,-5.723 0.50364,-0.34029 1.01333,-0.70025 1.51847,-1.04206 37.28872,1.66518 65.76456,11.78327 86.99894,30.89572 22.34903,21.11036 33.20972,46.11671 33.20972,76.42258 0,30.34671 -10.89245,55.35458 -33.22182,76.44981 z M 406.8562,251.16023 272.47618,328.64756 V 251.16023 Z M 255.04705,512.75293 187.91526,397.76364 255.04705,358.8642 Z M 341.19752,45.876441 c 43.45636,0 75.54235,10.142289 98.06833,30.997048 22.03596,20.384397 33.21577,46.103101 33.21577,76.446781 0,32.54728 -13.4439,60.9959 -37.91637,80.40781 h -179.5182 v 104.98615 l -70.35476,40.74913 V 45.877954 Z m 197.74891,223.529629 -0.14519,-0.12553 c -20.49027,-18.46363 -47.46579,-29.85064 -80.39117,-33.94929 20.22408,-21.81666 31.5037,-50.7538 31.5037,-82.00947 0,-35.40726 -13.06277,-65.428799 -38.81323,-89.243364 C 425.21093,40.106559 389.25315,28.448826 341.19752,28.448826 H 167.25409 V 396.95903 l 92.59489,158.59841 231.94776,-80.71785 c 19.96092,-7.16887 34.9248,-15.74127 47.1512,-27.07988 25.71417,-24.25317 38.74669,-54.25353 38.74669,-89.17228 0,-34.90666 -13.03252,-64.91156 -38.7482,-89.18136 z"
     style="fill:#f9f9f9;fill-opacity:1;fill-rule:evenodd;stroke:none;stroke-width:1.51242"
     id="path4" /><path
     d="m 438.36748,667.51433 v -62.39186 h -18.64814 v -12.87825 h 51.50848 v 12.87825 h -18.65418 v 62.39186 z M 142.38991,654.85689 h -9.32559 v -20.19988 h 7.99466 c 6.44442,0 14.43907,1.76953 14.43907,10.21035 0,7.3307 -6.44291,9.77023 -13.10814,9.98953 z m -9.32559,-50.39837 h 7.55303 c 5.77291,0 12.87977,1.77709 12.87977,9.09872 0,7.32919 -6.43384,9.77326 -13.09302,9.99709 h -7.33978 z m 25.5357,23.97791 c 5.55361,-2.66489 9.1078,-9.54791 9.1078,-15.98326 0,-2.89174 -0.44768,-5.5536 -1.55175,-7.99465 -4.22419,-9.32558 -15.3193,-11.98895 -25.31034,-12.2143 H 119.082 v 74.82093 h 23.09465 c 8.21093,0 15.31931,-1.98732 20.20745,-5.98767 4.65825,-3.77803 7.32162,-9.3271 7.32162,-15.76698 0,-4.21966 -1.11314,-8.66163 -4.44349,-12.21279 -1.77255,-1.77256 -3.99581,-3.55117 -6.66221,-4.66128 z m 38.64536,4.44197 8.20488,-25.5357 8.21849,25.5357 z m 16.42337,-40.63418 h -16.21314 l -25.74593,74.82093 h 14.42849 l 7.32465,-22.19779 h 24.20174 l 7.1114,22.19779 h 15.31779 z m 81.26989,75.27011 -35.08815,-47.95581 v 47.50663 h -13.76302 v -74.81942 h 11.53523 l 33.31256,45.5193 v -45.52081 h 13.76454 v 75.27011 z m 98.57953,0.89687 c -7.99919,-0.22686 -15.77,-2.45315 -21.7728,-7.55605 l -1.53964,-1.55477 9.09569,-9.54639 1.5578,1.55325 c 3.5557,3.105 8.66163,3.99582 12.87372,3.99582 6.44291,0 10.44023,-2.88873 10.88035,-7.98558 0.4507,-6.22512 -7.33222,-9.55245 -11.76663,-11.55489 -5.99523,-2.66488 -11.54884,-5.32977 -15.54465,-9.31953 -4.65977,-4.22419 -6.21908,-9.99105 -5.99524,-15.77152 1.11466,-12.87372 12.43512,-19.75523 23.76617,-19.75523 4.87907,0 9.32407,0.66395 13.53918,2.66186 v 13.76453 c -5.99825,-2.88418 -9.77023,-3.775 -13.32442,-3.775 h -0.21476 c -5.55209,0 -9.11082,2.88873 -9.55396,7.32768 -0.4507,6.21907 7.77082,9.55244 12.21128,11.54733 6.66675,3.10802 11.54733,5.7729 15.09849,9.3286 4.66128,4.43442 6.21605,10.20733 5.7714,15.75942 -1.11012,13.76907 -12.42907,20.88047 -25.08349,20.88047 z m -73.94372,-1.34605 v -74.81942 h 43.07826 v 12.87674 h -28.86908 v 17.54105 h 22.43222 v 12.65593 h -22.43222 v 18.87198 h 28.86908 v 12.87372 z m 224.47337,-8.65105 c 7.54849,-0.66244 13.76454,-2.2172 18.20349,-4.44197 2.89477,-1.5578 5.33128,-4.21814 4.89117,-8.21698 -0.66547,-5.55361 -6.88756,-7.99012 -11.32349,-9.99105 -5.55512,-2.44104 -11.32349,-5.1029 -15.54163,-9.10023 -4.66582,-4.6643 -6.2221,-10.21186 -5.99675,-15.99233 0.89233,-12.65139 11.98745,-19.75523 23.7571,-19.75523 8.21395,0 15.32081,2.66186 20.86534,8.21244 l -9.09418,9.3271 c 0,0 -5.32674,-4.88815 -11.77116,-4.88815 -5.54907,0 -9.32861,2.88873 -9.54942,7.32768 -0.44617,6.21907 7.77384,9.55244 12.20976,11.54733 6.65768,3.10802 11.54733,5.7729 15.32989,9.10023 3.77047,3.77651 6.87244,9.10779 6.43233,15.77454 -1.10256,13.98232 -13.98989,20.41767 -25.75198,22.86628 -6.00279,1.10255 -12.88128,1.7665 -21.98454,1.7665 v -13.31534 c 3.99582,0 8.6571,-0.22082 9.32407,-0.22082 z m -48.39895,-4.22267 v -18.87198 h 22.42314 v -12.65593 h -22.42314 v -17.54105 h 29.08081 v -12.87825 h -43.07069 v 72.83512 c 14.65535,4.21058 28.41988,6.43535 45.29244,6.87243 v -13.0915 a 148.04777,148.04777 0 0 1 -31.30256,-4.66733 z"
     style="fill:#f9f9f9;fill-opacity:1;fill-rule:nonzero;stroke:none;stroke-width:1.51242"
     id="path6" /></svg>
