<?xml version="1.0" encoding="UTF-8" standalone="no"?>
<svg
   width="408"
   height="408"
   viewBox="0 0 306.00024 305.9995"
   version="1.1"
   id="svg8"
   sodipodi:docname="banif.svg"
   inkscape:version="1.1.1 (3bf5ae0d25, 2021-09-20)"
   xmlns:inkscape="http://www.inkscape.org/namespaces/inkscape"
   xmlns:sodipodi="http://sodipodi.sourceforge.net/DTD/sodipodi-0.dtd"
   xmlns="http://www.w3.org/2000/svg"
   xmlns:svg="http://www.w3.org/2000/svg">
  <defs
     id="defs12" />
  <sodipodi:namedview
     id="namedview10"
     pagecolor="#ffffff"
     bordercolor="#666666"
     borderopacity="1.0"
     inkscape:pageshadow="2"
     inkscape:pageopacity="0.0"
     inkscape:pagecheckerboard="0"
     showgrid="false"
     inkscape:zoom="1.5149035"
     inkscape:cx="411.24733"
     inkscape:cy="241.92961"
     inkscape:window-width="2560"
     inkscape:window-height="1017"
     inkscape:window-x="-8"
     inkscape:window-y="-8"
     inkscape:window-maximized="1"
     inkscape:current-layer="svg8" />
  <path
     style="fill:#7d288f;fill-opacity:1;stroke-width:0.45;paint-order:markers stroke fill"
     d="M 0,-3.7e-4 H 306.00024 V 305.99987 H 0 Z"
     id="path2" />
  <path
     style="fill:#ffffff;fill-opacity:1;fill-rule:evenodd;stroke:none;stroke-width:1"
     d="m 230.729,258.97663 h -15.34 v -47.673 a 6.853,6.853 0 0 1 6.852,-6.852 h 8.488 z m -25.121,0 h -15.34 v -18.64 l -25.633,-18.73 v 30.519 a 6.855,6.855 0 0 1 -6.855,6.851 h -8.487 v -54.525 h 9.848 c 1.502,0 2.89,0.482 4.019,1.3 l 27.109,19.792 v -14.24 a 6.854,6.854 0 0 1 6.855,-6.852 h 8.484 z m -81.321,-6.532 H 96.544 l -0.926,2.058 c -1.189,2.64 -3.802,4.456 -6.84,4.456 l -11.25,0.018 24.586,-54.525 h 16.495 l 24.167,54.525 h -11.118 a 6.852,6.852 0 0 1 -6.176,-3.883 z m -22.49,-11.679 h 17.234 l -8.617,-19.15 z m 172.013,0.009 h -17.964 v 11.35 a 6.853,6.853 0 0 1 -6.852,6.852 h -8.487 v -47.673 a 6.853,6.853 0 0 1 6.855,-6.852 h 36.164 v 13.22 h -27.68 v 11.155 h 23.594 v 6.318 a 5.63,5.63 0 0 1 -5.63,5.63 z m -213.8,-29.93 c 0.102,-3.675 -2.45,-6.408 -6.735,-6.408 H 38.018 v 13.236 H 53.07 c 4.797,0 6.94,-3.153 6.94,-6.828 z m 2.353,27.948 c 0,-4.441 -2.737,-8.557 -7.682,-8.557 H 38.018 v 16.139 h 16.977 c 3.79,0 7.368,-3.467 7.368,-7.582 z m 14.16,-0.202 c 0,10.843 -9.692,20.386 -21.914,20.386 H 29.748 a 6.853,6.853 0 0 1 -6.855,-6.851 v -60.708 H 52.5 c 12.117,0 21.916,8.025 21.916,18.977 0,6.074 -2.95,10.521 -5.901,13.013 4.11,2.821 8.007,8.569 8.007,15.183"
     id="path4" />
  <path
     style="fill:#ffffff;fill-opacity:1;fill-rule:evenodd;stroke:none"
     d="m 165.383,156.93463 c -2.445,-11.367 -12.09,-20.05 -23.926,-21.055 a 22.29,22.29 0 0 0 -5.437,0.118 c -0.957,12.316 -8.754,22.707 -19.563,27.449 a 32.728,32.728 0 0 0 8.977,-22.567 32.655,32.655 0 0 1 4.625,-16.808 12.588,12.588 0 0 0 -8.575,10.851 6.735,6.735 0 0 1 -6.917,6.145 c 2.726,-1.695 3.953,-5.07 2.707,-8.152 -0.97,3.171 -6.313,5.472 -11.387,1.312 l -1.582,-1.297 a 6.739,6.739 0 0 0 7.3,-6.121 c 0.606,-6.926 6.712,-12.05 13.637,-11.441 3.266,0.285 6.235,1.734 8.285,3.98 5.88,-6.789 14.582,-9.957 24.13,-11.305 5.574,-0.789 8.628,-3.867 8.628,-8.632 a 8.647,8.647 0 0 0 -8.648,-8.649 c -2.63,0 -4.996,1.203 -6.582,3.055 a 19.25,19.25 0 0 1 -10.39,6.37 c -0.161,-3.112 0.675,-6.89 2.593,-10.827 2.848,-5.848 7.402,-10.711 12.02,-13.336 -3.102,3.172 -5.735,7.832 -7.172,13.016 2.398,-4.77 5.945,-8.77 9.57,-11.27 0.453,-0.348 0.77,-0.906 0.77,-1.523 a 1.93,1.93 0 0 0 -1.118,-1.735 c -0.504,-0.25 -1.23,-0.281 -2.136,-0.183 -1.942,0.199 -3.41,-0.606 -3.41,-0.606 0,0 0.367,-0.098 1.234,-0.535 0.867,-0.438 2.164,-2.121 -0.91,-2.223 -3.07,-0.101 -4.676,-1.695 -4.676,-1.695 0,0 2.254,-0.422 3.523,-3.918 1.27,-3.496 3.36,-5.375 6,-5.113 2.64,0.258 5.871,3.144 7.38,5.457 1.51,2.308 -3.548,4.34 -1.513,4.625 2.036,0.289 2.739,-0.922 4.559,-3.215 2.977,-3.758 8.824,-7.274 8.824,-7.274 0,0 -0.16,-1.789 1.684,-3.386 1.844,-1.602 7.14,-6.137 7.867,-7.778 0.094,-0.21 0.238,-0.78 -0.16,-1.218 -9.7,-9.086 -23.906,-10.98 -35.485,-5.305 12.5,-8.965 30.004,-7.281 40.536,4.414 10.53,11.695 10.37,29.281 0.152,40.773 7.082,-11.289 6.422,-26.21 -2.398,-36.894 l -5.305,9.457 c -0.703,1.293 -2.18,2.855 -3.02,3.754 -2.554,2.555 -3.035,6.445 -1.582,9.535 2.239,5.125 3.504,12.07 3.145,19.523 -0.149,3.149 -0.594,7.024 -1.23,9.883 3.327,-1.406 8.34,-2.863 11.702,-0.675 5.747,3.73 1.27,15.648 -3.968,25.632 l -6.559,13.293 c 0,0 6.485,-17.437 6.961,-26.566 0.379,-7.2 -6.527,-3.89 -10.754,-0.887 -8.148,10.403 -12.808,22.977 -12.808,36.637 0,2.336 0.14,4.644 0.402,6.91 z m -20.316,15.918 c -24.95,5.438 -49.11,4.574 -49.11,4.574 v -153.503 h 114.504 v 105.765 c -12.055,25.84 -39.93,37.61 -65.394,43.164 z m 17.937,-48.55 a 35.206,35.206 0 0 1 -14.11,3.823 c 1.692,0.801 3.09,1.668 4.676,2.864 4.196,3.164 7.2,7.207 8.817,11.406 a 59.863,59.863 0 0 1 -0.414,-7.04 c 0,-3.85 0.324,-7.41 1.031,-11.054"
     id="path6" />
</svg>
