<?xml version="1.0" encoding="UTF-8" standalone="no"?>
<svg
   width="730"
   height="730"
   viewBox="0 0 167.80929 167.70911"
   version="1.1"
   id="svg6"
   sodipodi:docname="brasilprev.svg"
   inkscape:version="1.1.1 (3bf5ae0d25, 2021-09-20)"
   xmlns:inkscape="http://www.inkscape.org/namespaces/inkscape"
   xmlns:sodipodi="http://sodipodi.sourceforge.net/DTD/sodipodi-0.dtd"
   xmlns="http://www.w3.org/2000/svg"
   xmlns:svg="http://www.w3.org/2000/svg">
  <defs
     id="defs10" />
  <sodipodi:namedview
     id="namedview8"
     pagecolor="#ffffff"
     bordercolor="#666666"
     borderopacity="1.0"
     inkscape:pageshadow="2"
     inkscape:pageopacity="0.0"
     inkscape:pagecheckerboard="0"
     showgrid="false"
     inkscape:zoom="0.58770666"
     inkscape:cx="-151.43609"
     inkscape:cy="487.48809"
     inkscape:window-width="2560"
     inkscape:window-height="1017"
     inkscape:window-x="-8"
     inkscape:window-y="-8"
     inkscape:window-maximized="1"
     inkscape:current-layer="svg6" />
  <path
     style="fill:#e7cd02;fill-opacity:1;stroke-width:0.137926;paint-order:markers stroke fill"
     d="M 0,-0.05009463 H 167.80929 V 167.7592 H 0 Z"
     id="path2" />
  <path
     d="M 19.397145,58.694056 H 148.41214 v 4.918 H 19.397145 Z m 0,45.401994 H 148.41214 v 4.919 H 19.397145 Z m 38.617,-20.979994 -1.54,4.703 h 3.073 z m -25.6,-7.714 c 2.894,-0.046 6.235,0.775 6.483,4.296 0.128,1.823 -0.93,3.764 -2.758,4.274 3.288,0.885 3.763,5.511 2.053,7.201 -2.336,2.31 -6.027,2.207 -8.943,2.303 h -5.439 l 0.051,-18.074 z m -3.36,14.765 h 2.166 c 1.003,0 1.73,-0.188 2.188,-0.558 0.453,-0.37 0.662,-0.943 0.62,-1.726 -0.039,-0.703 -0.27,-1.233 -0.696,-1.585 -0.427,-0.352 -1.051,-0.53 -1.867,-0.53 h -2.542 l 0.003,1.538 c 10e-4,0.192 0.003,0.417 0.013,0.675 0.01,0.258 0.032,0.666 0.062,1.224 z m -0.166,-7.553 h 1.567 c 1.323,0 2.27,-0.165 2.84,-0.49 0.565,-0.324 0.827,-0.852 0.78,-1.583 -0.045,-0.698 -0.297,-1.187 -0.756,-1.468 -0.46,-0.276 -1.257,-0.416 -2.39,-0.416 h -2.023 c -0.006,0.096 -0.006,0.348 -0.01,0.765 -0.001,0.416 -0.001,0.78 -0.004,1.094 z m 86.029995,-3.956 c 3.071,-0.187 4.9,1.465 5.007,3.539 0.103,2.005 -0.705,3.4 -3.078,4.32 l 3.796,6.961 h -4.349 l -4.221,-8.373 1.76,-0.009 c 0.99,-0.004 1.764,-0.855 1.798,-1.881 0.05,-1.492 -0.928,-2.04 -2.295,-2.038 h -1.495 l 0.024,12.302 h -4.071 l 0.007,-14.82 h 7.117 z m -38.263995,0.087 h 4.08 v 14.722 h -4.08 z m 5.293,0 h 4.08 v 12.241 h 5.046 v 2.44 l -9.126,0.041 z m 38.889005,14.772 -0.012,-15.076 h 10.48499 l 0.01,2.549 -6.316,-0.03 -0.006,3.36 5.723,-0.03 -0.042,2.6 h -5.687 l -0.034,3.936 6.33,0.022 0.01,2.669 z m 11.05599,-15.095 h 4.135 l 2.666,9.358 3.428,-9.358 h 4.135 l -5.386,15.071 h -4.625 z m -34.743995,5.003 h 1.503 c 1.183,0 2.012005,-0.218 2.492005,-0.662 0.477,-0.442 0.716,-1.01 0.716,-1.698 0,-0.672 -0.21,-1.242 -0.623,-1.707 -0.415,-0.466 -1.194,-0.702 -2.340005,-0.702 h -1.748 z m -5.018,-7.908 h 8.144005 c 1.831,0 4.04,0.613 5.071,1.456 1.323,1.083 1.614,2.366 1.681,3.626 0.202,3.765 -2.816,5.7 -6.835,5.7 h -3.043005 v 7.174 h -5.018 z m -27.292,15.375 h 4.775 c 0.804,0 1.95,-0.588 1.498,-1.858 -0.131,-0.37 -0.458,-0.775 -1.122,-1.134 -0.853,-0.463 -2.158,-0.887 -3.185,-1.444 -0.957,-0.518 -1.897,-1.405 -2.277,-2.114 -0.71,-1.325 -0.628,-3.297 0.614,-4.464 0.796,-0.748 2.201,-1.2 3.664,-1.116 l 6.395,0.012 -0.015,2.495 -5.362,0.023 c -1.08,0.005 -1.83,1.127 -1.222,1.837 1.187,1.387 3.927,1.959 5.107,2.73 2.12,1.388 2.567,4.244 1.051,6.052 -1.056,1.26 -2.91,1.513 -4.872,1.52 l -6.356,0.024 v -0.008 h -2.222 l -0.902,-3.258 h -4.541 l -1.393,3.258 -6.14,-0.024 -4.166,-8.318 1.761,-0.009 c 0.99,-0.004 1.764,-0.692 1.797,-1.718 0.05,-1.491 -0.928,-2.203 -2.294,-2.201 h -1.496 l 0.024,12.302 h -4.071 l 0.007,-14.82 h 7.117 c 3.072,-0.187 4.902,1.464 5.007,3.538 0.103,2.006 -0.759,3.51 -3.132,4.428 l 2.365,4.21 4.512,-12.093 5.047,0.011 z"
     fill-rule="evenodd"
     clip-rule="evenodd"
     style="fill:#284185;fill-opacity:1;stroke-width:1"
     id="path4" />
</svg>
