<?xml version="1.0" encoding="UTF-8" standalone="no"?>
<svg
   width="160"
   height="159.99998"
   version="1.1"
   id="svg6"
   sodipodi:docname="btg.svg"
   inkscape:version="1.1.1 (3bf5ae0d25, 2021-09-20)"
   xmlns:inkscape="http://www.inkscape.org/namespaces/inkscape"
   xmlns:sodipodi="http://sodipodi.sourceforge.net/DTD/sodipodi-0.dtd"
   xmlns="http://www.w3.org/2000/svg"
   xmlns:svg="http://www.w3.org/2000/svg">
  <defs
     id="defs10" />
  <sodipodi:namedview
     id="namedview8"
     pagecolor="#ffffff"
     bordercolor="#666666"
     borderopacity="1.0"
     inkscape:pageshadow="2"
     inkscape:pageopacity="0.0"
     inkscape:pagecheckerboard="0"
     showgrid="false"
     inkscape:zoom="3.8651038"
     inkscape:cx="31.823208"
     inkscape:cy="96.116436"
     inkscape:window-width="2560"
     inkscape:window-height="1017"
     inkscape:window-x="-8"
     inkscape:window-y="-8"
     inkscape:window-maximized="1"
     inkscape:current-layer="svg6" />
  <path
     style="fill:#001e61;fill-opacity:1;stroke-width:0.600001;paint-order:markers stroke fill"
     d="M 0,-2.6293945e-6 H 160 V 159.99999 H 0 Z"
     id="path2" />
  <path
     fill="#001e61"
     fill-rule="evenodd"
     d="m 109.2175,76.054992 1.492,-7.43 h -12.847 v -10.149 l -9.019,1.392 v 30.315 c 0,10.479998 4.022,13.597998 14.987,13.597998 h 4.801 l 1.493,-7.363998 h -5.645 c -4.995,0 -6.618,-1.258 -6.618,-6.832 v -13.53 z m -61.963,-21.096 v 32.571 c 0,12.073 5.45,17.113998 17.323,17.113998 12.328,0 17.778,-4.907998 17.778,-17.047998 v -3.117 c 0,-11.41 -5.061,-16.982 -16.09,-16.982 -3.505,0 -7.333,0.73 -9.929,2.785 v -16.782 l -9.082,1.458 z m 17.648,19.834 c 6.229,0 8.436,2.521 8.436,10.016 v 2.787 c 0,7.296 -2.207,9.818 -8.565,9.818 -6.358,0 -8.566,-2.522 -8.566,-9.885 v -3.78 c 0,-6.7 2.207,-8.956 8.695,-8.956 z m 66.116,-7.296 c -11.874,0 -17.324,5.107 -17.324,16.782 v 1.791 c 0,11.077 4.736,16.449998 15.895,16.449998 3.57,0 7.138,-0.662 9.668,-2.719998 v 1.328998 c 0,6.235 -2.66,8.29 -8.889,8.29 h -3.73 c -2.13,0.038 -3.1,0.426 -4.384,2.579 l -0.007,-0.003 c -10.698,17.31 -29.272,27.884 -49.513,27.884 -32.296,0 -58.57,-26.86 -58.57,-59.879998 0,-33.017 26.274,-59.878 58.57,-59.878 22.685,0 43.322,13.431 52.977,34.333 h 2.691 c -9.84,-22.382 -31.655,-36.829 -55.669,-36.829 -33.64,0 -61.01,27.982 -61.01,62.375 0,34.392998 27.37,62.374998 61.01,62.374998 19.784,0 38.042,-9.698 49.425,-25.792 h 8.728 c 11.485,0 17.39,-4.444 17.39,-15.787 V 83.681992 c 0,-11.277 -5.645,-16.185 -17.26,-16.185 z m 8.305,19.7 c 0,6.236 -2.142,8.16 -8.305,8.16 -6.943,0 -8.305,-2.455 -8.305,-9.684 v -1.128 c 0,-7.165 1.232,-9.752 8.305,-9.752 6.942,0 8.305,2.521 8.305,9.818 z"
     style="fill:#ffffff;stroke-width:1"
     id="path4" />
</svg>
