<?xml version="1.0" encoding="UTF-8" standalone="no"?>
<!-- Created with Inkscape (http://www.inkscape.org/) -->

<svg
   width="192.54327mm"
   height="192.54326mm"
   viewBox="0 0 192.54327 192.54326"
   version="1.1"
   id="svg5"
   inkscape:version="1.1.1 (3bf5ae0d25, 2021-09-20)"
   sodipodi:docname="itau.svg"
   xmlns:inkscape="http://www.inkscape.org/namespaces/inkscape"
   xmlns:sodipodi="http://sodipodi.sourceforge.net/DTD/sodipodi-0.dtd"
   xmlns="http://www.w3.org/2000/svg"
   xmlns:svg="http://www.w3.org/2000/svg">
  <sodipodi:namedview
     id="namedview7"
     pagecolor="#ffffff"
     bordercolor="#666666"
     borderopacity="1.0"
     inkscape:pageshadow="2"
     inkscape:pageopacity="0.0"
     inkscape:pagecheckerboard="0"
     inkscape:document-units="mm"
     showgrid="false"
     inkscape:zoom="0.38217593"
     inkscape:cx="-167.46214"
     inkscape:cy="480.14537"
     inkscape:window-width="2560"
     inkscape:window-height="1017"
     inkscape:window-x="-8"
     inkscape:window-y="-8"
     inkscape:window-maximized="1"
     inkscape:current-layer="layer1" />
  <defs
     id="defs2" />
  <g
     inkscape:label="Camada 1"
     inkscape:groupmode="layer"
     id="layer1"
     transform="translate(2.8100984,-6.1898984)">
    <path
       style="fill:#1a5493;fill-opacity:1;stroke-width:0.158751;paint-order:markers stroke fill"
       d="M -2.8100984,6.1898984 H 189.73317 V 198.73316 H -2.8100984 Z"
       id="path7" />
    <path
       d="M 18.155452,170.17561 H 32.07774 V 109.78925 H 18.155452 Z m 76.306332,-46.57609 h -0.795259 l -0.78473,0.0266 -0.774185,0.0319 -0.747861,0.0479 -0.737324,0.0427 -0.726804,0.0693 -0.716258,0.0799 -0.705711,0.0798 -0.68468,0.10119 -0.668853,0.10121 -0.663587,0.11197 -0.647786,0.12253 -0.626727,0.12782 -0.616199,0.1333 -0.605661,0.14917 -0.58986,0.14915 -0.574049,0.15443 -0.558281,0.15973 -0.53718,0.17049 -0.526669,0.17048 -0.516123,0.17049 -0.489809,0.18106 -0.479254,0.18105 -0.463461,0.19183 -0.447651,0.18107 -0.431874,0.19183 -0.416046,0.19183 -0.405527,0.19183 -0.379203,0.19183 -0.368667,0.19183 -0.347591,0.19711 -0.337063,0.19183 2.622755,8.8968 0.300211,-0.18106 0.315996,-0.18105 0.321253,-0.18106 0.337079,-0.17049 0.3476,-0.17049 0.358112,-0.1705 0.368666,-0.17049 0.379204,-0.15444 0.39498,-0.15971 0.400262,-0.15973 0.405526,-0.15971 0.410816,-0.14387 0.416047,-0.1386 0.426609,-0.14387 0.431858,-0.13859 0.43713,-0.12254 0.447651,-0.12781 0.447676,-0.11176 0.458196,-0.11197 0.44765,-0.1012 0.463462,-0.1012 0.468734,-0.0906 0.458196,-0.0798 0.468717,-0.0799 0.458196,-0.0693 0.473999,-0.0532 0.468717,-0.0585 0.458205,-0.0319 0.468725,-0.0372 0.458205,-0.0319 0.47399,-0.0105 h 0.458205 l 0.737316,0.0105 0.716258,0.0319 0.668852,0.0585 0.626727,0.0693 0.605662,0.1012 0.574075,0.11176 0.537189,0.1331 0.50032,0.14915 0.484528,0.1705 0.447668,0.18104 0.41079,0.19183 0.379204,0.20241 0.35812,0.21842 0.337067,0.22376 0.315998,0.23971 0.279117,0.23442 0.25807,0.25039 0.24226,0.26103 0.21593,0.2504 0.18951,0.26104 0.16859,0.27171 0.15803,0.26104 0.13162,0.25572 0.12105,0.26104 0.10542,0.26104 0.0737,0.25039 0.0685,0.2504 0.058,0.23441 0.0421,0.23972 0.0264,0.22374 0.0211,0.21843 v 0.68724 l -1.66949,0.0169 -1.632649,0.0427 -1.590519,0.0798 -1.543121,0.11197 -1.500988,0.14916 -1.453582,0.19184 -1.421978,0.21307 -1.364061,0.26107 -1.321919,0.28233 -1.263976,0.33032 -1.23238,0.36225 -1.174454,0.39424 -1.116528,0.4315 -1.074395,0.4635 -1.032255,0.50077 -0.974319,0.53275 -0.916393,0.5647 -0.863723,0.59668 -0.816316,0.63397 -0.747862,0.6819 -0.705737,0.70162 -0.637249,0.73572 -0.584595,0.78101 -0.537189,0.80389 -0.458196,0.83749 -0.410808,0.88328 -0.3476,0.90567 -0.279119,0.95093 -0.226466,0.97333 -0.168583,1.00796 -0.08958,1.0527 -0.03168,1.0756 0.01053,0.64514 0.04203,0.64515 0.07901,0.64517 0.115989,0.63395 0.142183,0.63397 0.168591,0.63397 0.200076,0.62278 0.236995,0.61157 0.258061,0.59987 0.300211,0.58867 0.326534,0.5775 0.347574,0.56577 0.379204,0.55461 0.416073,0.53219 0.447649,0.52103 0.468743,0.4981 0.500321,0.47521 0.526669,0.45283 0.563511,0.43046 0.579339,0.40755 0.616181,0.38463 0.647803,0.36228 0.674117,0.32817 0.705737,0.29461 0.726779,0.27169 0.747861,0.23761 0.795251,0.20409 0.805797,0.16944 0.8374,0.13583 0.863722,0.10225 0.895327,0.0565 0.916393,0.0224 0.558255,-0.0105 0.552992,-0.0224 0.537189,-0.023 0.537206,-0.0452 0.521387,-0.0564 0.526669,-0.0683 0.516123,-0.0788 0.516123,-0.0906 0.500329,-0.11343 0.495056,-0.11304 0.489801,-0.12464 0.484526,-0.13585 0.468734,-0.14704 0.468717,-0.15867 0.458197,-0.18105 0.447659,-0.18106 0.43713,-0.19225 0.437138,-0.20409 0.426585,-0.20345 0.416072,-0.2264 0.400262,-0.2376 0.389724,-0.23814 0.39498,-0.25998 0.368696,-0.26051 0.368652,-0.27171 0.358127,-0.28287 0.34758,-0.29463 0.32654,-0.30577 0.32125,-0.30527 0.31602,-0.31698 0.30018,-0.3287 0.28968,-0.33937 h 0.15802 l 1.52205,4.69827 h 11.32848 v -26.7634 l -0.0148,-1.01753 -0.0527,-0.99623 -0.079,-0.98558 -0.11049,-0.97491 -0.14746,-0.95895 -0.1895,-0.94294 -0.21064,-0.91631 -0.25807,-0.89501 -0.30546,-0.87903 -0.32126,-0.85238 -0.38446,-0.82576 -0.41079,-0.80444 -0.45819,-0.7778 -0.49507,-0.75117 -0.54772,-0.72454 -0.57935,-0.68723 -0.62672,-0.6606 -0.68465,-0.61798 -0.7268,-0.59134 -0.77419,-0.55405 -0.81632,-0.52209 -0.87426,-0.47414 -0.9164,-0.44218 -0.97432,-0.39423 -1.01644,-0.36225 -1.08492,-0.30901 -1.13233,-0.27168 -1.18496,-0.22376 -1.242929,-0.1705 -1.300862,-0.12252 -1.353522,-0.0798 z m 7.942016,29.87782 v 0.27169 l -0.0105,0.28287 -0.0211,0.2829 -0.0211,0.29461 -0.0368,0.28289 -0.0315,0.29461 -0.0474,0.28287 -0.0632,0.28288 -0.0264,0.10184 -0.0421,0.14767 -0.0316,0.13584 -0.0368,0.0906 -0.0421,0.11302 -0.0474,0.11346 -0.12106,0.28288 -0.13691,0.2717 -0.14219,0.2717 -0.15801,0.27168 -0.16859,0.26052 -0.17916,0.27171 -0.18951,0.25997 -0.20006,0.24933 -0.21593,0.2488 -0.21064,0.24931 -0.236997,0.23761 -0.242275,0.23759 -0.247524,0.22641 -0.258065,0.21525 -0.279127,0.21522 -0.279129,0.20344 -0.294946,0.19289 -0.289649,0.19226 -0.310731,0.16985 -0.315996,0.16944 -0.32127,0.15888 -0.337062,0.13583 -0.337071,0.13585 -0.358121,0.12465 -0.358137,0.10182 -0.35812,0.10184 -0.379204,0.0795 -0.379187,0.0675 -0.38446,0.057 -0.40027,0.0335 -0.405526,0.034 h -0.758399 l -0.347584,-0.0225 -0.33707,-0.0227 -0.337063,-0.0452 -0.321269,-0.0565 -0.315996,-0.0564 -0.310731,-0.0795 -0.305451,-0.0906 -0.279136,-0.0906 -0.289656,-0.11344 -0.2686,-0.12422 -0.258061,-0.13586 -0.25807,-0.13584 -0.231739,-0.15866 -0.237004,-0.16987 -0.210629,-0.16943 -0.215929,-0.19289 -0.189511,-0.20344 -0.189719,-0.20408 -0.168591,-0.22643 -0.158027,-0.23761 -0.152738,-0.23758 -0.13691,-0.26052 -0.121058,-0.26051 -0.100136,-0.27169 -0.100144,-0.29408 -0.07901,-0.29462 -0.06839,-0.30525 -0.05787,-0.32869 -0.0315,-0.32818 -0.02114,-0.33937 -0.01053,-0.35107 0.01053,-0.39634 0.03167,-0.37346 0.05795,-0.37346 0.06309,-0.36226 0.08957,-0.33989 0.115775,-0.33935 0.131621,-0.31699 0.147464,-0.31698 0.168591,-0.30579 0.179155,-0.28289 0.200067,-0.28343 0.221201,-0.2717 0.236995,-0.25998 0.258062,-0.23815 0.268607,-0.23758 0.289648,-0.22641 0.305476,-0.22643 0.310732,-0.20344 0.337053,-0.19288 0.3476,-0.19226 0.358138,-0.18105 0.379178,-0.16987 0.379204,-0.15824 0.405526,-0.14704 0.421328,-0.14767 0.426593,-0.12423 0.437139,-0.12464 0.458187,-0.12465 0.458205,-0.10183 0.484519,-0.10183 0.479255,-0.0906 0.505602,-0.0794 0.468726,-0.0683 0.489791,-0.0675 0.495065,-0.0565 0.516132,-0.057 0.510866,-0.0335 0.537181,-0.0452 0.537189,-0.0227 0.553015,-0.0225 0.331791,-0.0127 0.337061,-0.0106 0.3476,-0.0105 h 1.7327 z m 51.19146,-28.55129 v 26.92109 l -0.0211,0.38463 -0.0369,0.37398 -0.0527,0.36228 -0.058,0.36226 -0.079,0.33936 -0.10014,0.33989 -0.12106,0.31698 -0.10014,0.25997 -0.12633,0.26051 -0.13162,0.26052 -0.1369,0.26051 -0.14218,0.24879 -0.15803,0.26052 -0.16859,0.2605 -0.17916,0.2488 -0.1895,0.24933 -0.18972,0.24879 -0.21591,0.24931 -0.21064,0.23761 -0.2212,0.22643 -0.23699,0.2264 -0.24752,0.21523 -0.25807,0.21469 -0.2686,0.20408 -0.26862,0.20345 -0.28963,0.18105 -0.28968,0.18105 -0.31598,0.15888 -0.31073,0.15824 -0.32655,0.14768 -0.33704,0.12421 -0.34234,0.12466 -0.35815,0.10183 -0.37392,0.0906 -0.3792,0.0682 -0.37919,0.0675 -0.40552,0.034 -0.40027,0.034 h -0.42659 l -0.51612,-0.0105 -0.50034,-0.034 -0.49506,-0.0565 -0.46872,-0.0906 -0.44767,-0.10225 -0.43712,-0.13584 -0.41081,-0.15824 -0.39499,-0.18107 -0.3792,-0.19223 -0.35811,-0.22643 -0.3476,-0.24931 -0.32653,-0.27171 -0.30019,-0.28289 -0.30022,-0.31697 -0.26859,-0.32818 -0.25806,-0.35106 -0.24754,-0.37346 -0.22119,-0.39636 -0.20535,-0.41874 -0.20007,-0.43046 -0.1686,-0.45283 -0.16858,-0.4752 -0.1422,-0.49811 -0.12632,-0.50983 -0.11071,-0.53169 -0.10014,-0.54339 -0.079,-0.56632 -0.0685,-0.58867 -0.0527,-0.59988 -0.0368,-0.62276 -0.0211,-0.63398 -0.0105,-0.65632 v -23.9424 h -13.58768 v 27.12352 l 0.0211,0.64516 0.0264,0.62277 0.0315,0.62277 0.0474,0.61107 0.0527,0.59984 0.0685,0.5775 0.0685,0.5775 0.0895,0.55458 0.0896,0.5434 0.10014,0.53221 0.12106,0.52049 0.12634,0.50983 0.13162,0.49813 0.13689,0.48638 0.15275,0.46455 0.15804,0.46403 0.17915,0.45283 0.16858,0.44163 0.18973,0.42992 0.1895,0.41874 0.18951,0.40755 0.21593,0.39637 0.21064,0.39635 0.21063,0.37345 0.22645,0.37346 0.237,0.36226 0.24227,0.33989 0.24754,0.33936 0.25807,0.32871 0.25805,0.31699 0.26861,0.30525 0.27913,0.30579 0.28966,0.28289 0.28966,0.28342 0.29493,0.25997 0.31072,0.26052 0.30547,0.24931 0.32127,0.23761 0.32652,0.22642 0.33707,0.21522 0.33179,0.20346 0.34761,0.19225 0.3476,0.19288 0.35811,0.16944 0.36867,0.16986 0.36865,0.14703 0.38447,0.14768 0.38972,0.13584 0.3792,0.12423 0.40554,0.12466 0.38972,0.10183 0.41607,0.10224 0.40026,0.0906 0.41606,0.0906 0.4266,0.0675 0.42134,0.0682 0.42659,0.0564 0.43713,0.0452 0.43711,0.0452 0.44766,0.034 0.44766,0.0105 0.4582,0.0224 h 0.86373 l 0.38972,-0.0105 0.3792,-0.0105 0.37921,-0.0227 0.38447,-0.0335 0.36865,-0.034 0.36866,-0.034 0.35812,-0.0564 0.3476,-0.0452 0.3476,-0.0682 0.34759,-0.0564 0.3318,-0.0795 0.32654,-0.0675 0.32653,-0.0906 0.32125,-0.0906 0.31599,-0.0906 0.6004,-0.2041 0.59514,-0.2147 0.55825,-0.22641 0.54774,-0.22641 0.52664,-0.24932 0.50561,-0.24879 0.47926,-0.27172 0.45819,-0.27168 0.43714,-0.28342 0.42659,-0.28289 0.40552,-0.29408 0.38972,-0.29461 0.36867,-0.3058 0.34759,-0.31697 0.32655,-0.31699 0.31072,-0.32817 0.30019,-0.31698 0.28442,-0.31698 0.25279,-0.3058 0.24752,-0.29406 0.23701,-0.28288 0.21062,-0.28343 0.18951,-0.25998 0.17916,-0.2717 1.74851,6.43021 h 11.03343 V 124.92772 Z M 45.138391,109.79083 v 15.11392 h -6.345722 v 10.31389 h 6.346253 v 18.40571 l 0.01053,0.56633 0.01053,0.55457 0.01053,0.55459 0.02217,0.53223 0.03381,0.53219 0.04477,0.5205 0.04477,0.5093 0.05573,0.50982 0.05573,0.48641 0.06737,0.48694 0.07901,0.47571 0.08957,0.46401 0.08958,0.45286 0.100136,0.45282 0.100564,0.42991 0.11218,0.43045 0.122752,0.41876 0.134359,0.40754 0.134368,0.39635 0.145984,0.38466 0.156342,0.38516 0.156966,0.36226 0.167538,0.36228 0.179155,0.33936 0.179154,0.33989 0.190556,0.32815 0.201138,0.31699 0.212761,0.31699 0.21277,0.29462 0.223838,0.28288 0.234889,0.28288 0.234906,0.2605 0.223812,0.22643 0.223838,0.22642 0.23489,0.21521 0.235419,0.21468 0.257001,0.2041 0.25806,0.20344 0.279146,0.20409 0.280188,0.19226 0.279651,0.19224 0.3023,0.18106 0.301777,0.16986 0.313377,0.18105 0.324941,0.15867 0.324429,0.15824 0.347591,0.15887 0.334948,0.13584 0.358137,0.14704 0.358121,0.12466 0.369189,0.12401 0.369711,0.11345 0.380265,0.11302 0.391839,0.0906 0.391307,0.0906 0.405526,0.0795 0.40027,0.0795 0.416047,0.0675 0.410808,0.0452 0.426592,0.0452 0.426593,0.0452 0.43713,0.0227 0.43713,0.0105 0.447659,0.0105 0.737316,-0.0105 0.679398,-0.0225 0.64253,-0.034 0.579331,-0.0452 0.547709,-0.0564 0.505611,-0.0682 0.479254,-0.0795 0.43713,-0.0906 0.426593,-0.0906 0.389724,-0.10183 0.368657,-0.11302 0.368667,-0.11346 0.695191,-0.24881 0.684672,-0.26052 V 159.4421 l -0.179155,0.0676 -0.236995,0.0683 -0.279127,0.0675 -0.347592,0.0565 -0.389733,0.0571 -0.43713,0.0335 -0.468734,0.034 -0.505585,0.0105 -0.447676,-0.0105 -0.416047,-0.0225 -0.40027,-0.0452 -0.379204,-0.0683 -0.358112,-0.0795 -0.337079,-0.0906 -0.326517,-0.11301 -0.300211,-0.13586 -0.279128,-0.14705 -0.268608,-0.15887 -0.258061,-0.19225 -0.226448,-0.19225 -0.221202,-0.21523 -0.200067,-0.22643 -0.189503,-0.24931 -0.1686,-0.27169 -0.158028,-0.27172 -0.147464,-0.30525 -0.131612,-0.30579 -0.126339,-0.32818 -0.100145,-0.35106 -0.100135,-0.35108 -0.07901,-0.38464 -0.07901,-0.38518 -0.05265,-0.40753 -0.05795,-0.42994 -0.04203,-0.43045 -0.03681,-0.45283 -0.02114,-0.47521 -0.02114,-0.47574 -0.01053,-0.49811 v -16.54885 h 8.637239 v -10.31388 h -8.637252 v -15.1139 z m 103.321919,-0.0105 -8.39498,12.20513 h 9.71164 l 11.83405,-12.20513 z"
       fill-rule="evenodd"
       fill="#fff212"
       id="path9"
       style="stroke-width:0.250722" />
  </g>
</svg>
