<svg width="74.604" height="74.328" xmlns="http://www.w3.org/2000/svg"><g fill="none"><path style="fill:#00c5ff;fill-opacity:.866667;stroke-width:.6;paint-order:markers stroke fill" d="M-104.551-74.328h74.604V0h-74.604z" transform="translate(104.551 74.328)"/><path d="M-69.16-28.768c-3.28 0-5.946-2.614-5.946-5.83s2.666-5.83 5.947-5.83c3.28 0 5.946 2.614 5.946 5.83s-2.666 5.83-5.946 5.83m0-20.046c-7.996 0-14.5 6.377-14.5 14.216v21.784h8.553v-8.797l.673.259c1.683.644 3.456.97 5.274.97 7.995 0 14.5-6.376 14.5-14.216 0-7.839-6.505-14.216-14.5-14.216" fill="#414141" style="fill:#fff" transform="translate(106.462 73.978)"/><path fill="#00C5FF" style="fill:#000" transform="translate(22.802 13.164)" d="M0 0v8h8V0z"/></g></svg>