<?xml version="1.0" encoding="UTF-8" standalone="no"?>
<svg
   version="1.1"
   id="layer"
   x="0"
   y="0"
   xml:space="preserve"
   width="1033.1289"
   height="1033.1289"
   sodipodi:docname="porto_seguro.svg"
   inkscape:version="1.1.1 (3bf5ae0d25, 2021-09-20)"
   xmlns:inkscape="http://www.inkscape.org/namespaces/inkscape"
   xmlns:sodipodi="http://sodipodi.sourceforge.net/DTD/sodipodi-0.dtd"
   xmlns="http://www.w3.org/2000/svg"
   xmlns:svg="http://www.w3.org/2000/svg"><defs
     id="defs9" /><sodipodi:namedview
     id="namedview7"
     pagecolor="#ffffff"
     bordercolor="#666666"
     borderopacity="1.0"
     inkscape:pageshadow="2"
     inkscape:pageopacity="0.0"
     inkscape:pagecheckerboard="0"
     showgrid="false"
     inkscape:zoom="0.27954585"
     inkscape:cx="178.86153"
     inkscape:cy="681.46244"
     inkscape:window-width="2560"
     inkscape:window-height="1017"
     inkscape:window-x="-8"
     inkscape:window-y="-8"
     inkscape:window-maximized="1"
     inkscape:current-layer="g18" /><style
     type="text/css"
     id="style2">.st0{fill:#009ee2}.st1{fill:#fff}</style><g
     id="g18"
     transform="translate(-228.42657,188.20144)"><path
       style="fill:#009ee2;fill-opacity:1;stroke-width:0.599999;paint-order:markers stroke fill"
       id="rect1088"
       d="M 228.42657,-188.20144 H 1261.5555 V 844.92742 H 228.42657 Z" /><path
       d="m 1159.1865,412.75353 c -34.7736,-44.34894 -119.9437,-53.42032 -166.30853,-53.42032 -192.51474,0 -376.46208,35.78154 -545.79441,101.29702 1.51189,-50.39652 0,-100.28908 -5.54362,-150.18165 129.01511,-37.7974 356.30347,-68.03531 505.98115,-54.93221 140.10231,12.59912 192.51471,90.20977 211.66541,157.23716 z M 1096.6948,285.25032 C 1057.8895,248.46086 1028.1555,222.25465 909.7237,205.11984 791.29185,187.98501 541.32507,213.68725 430.4527,241.9093 422.38924,198.06431 411.80597,154.7233 398.70288,112.39022 474.29769,99.287129 552.4123,92.2316 632.54277,92.2316 c 77.61066,0 153.70942,6.551557 227.28836,19.1507 156.22927,26.71016 206.12177,114.40011 236.86367,173.86802 z M 314.03671,-79.620551 C 716.70499,-90.203824 942.9854,86.184016 987.83831,134.56469 948.52901,101.80695 872.93422,74.088866 807.92271,61.489725 727.79223,45.866791 645.14191,38.30733 560.47575,38.30733 c -61.98774,0 -122.96754,4.535669 -182.93942,12.599122 -15.62291,-39.3093 -43.84497,-92.729618 -63.49962,-130.527003 z M 1096.6948,667.75997 c 65.0115,-134.05477 49.3886,-157.23716 -77.6106,-141.61425 -197.55443,24.19034 -447.01725,108.8565 -634.99631,210.6575 34.26964,-66.52341 50.9005,-133.5508 57.95601,-193.52267 181.93147,-79.62652 382.00569,-125.99133 592.1592,-130.02305 219.7288,-4.53569 137.0786,163.78872 62.4917,254.50247 z"
       style="fill:#ffffff;stroke-width:1"
       id="path1036" /></g></svg>
