<?xml version="1.0" encoding="UTF-8" standalone="no"?>
<svg
   class="logo-icon"
   width="355"
   height="355"
   version="1.1"
   id="svg6"
   sodipodi:docname="santander.svg"
   inkscape:version="1.1.1 (3bf5ae0d25, 2021-09-20)"
   xmlns:inkscape="http://www.inkscape.org/namespaces/inkscape"
   xmlns:sodipodi="http://sodipodi.sourceforge.net/DTD/sodipodi-0.dtd"
   xmlns="http://www.w3.org/2000/svg"
   xmlns:svg="http://www.w3.org/2000/svg">
  <defs
     id="defs10" />
  <sodipodi:namedview
     id="namedview8"
     pagecolor="#ffffff"
     bordercolor="#666666"
     borderopacity="1.0"
     inkscape:pageshadow="2"
     inkscape:pageopacity="0.0"
     inkscape:pagecheckerboard="0"
     showgrid="false"
     inkscape:zoom="1.1825512"
     inkscape:cx="385.58249"
     inkscape:cy="155.65476"
     inkscape:window-width="2560"
     inkscape:window-height="1017"
     inkscape:window-x="-8"
     inkscape:window-y="-8"
     inkscape:window-maximized="1"
     inkscape:current-layer="svg6" />
  <path
     style="fill:#ec0000;fill-opacity:1;fill-rule:evenodd;stroke-width:1.23733"
     d="M 0,0 H 355 V 355 H 0 Z"
     id="path2" />
  <path
     d="m 52.875,294.512 c 0.08,-1.94 0.435,-3.84 1.069,-5.621 3.206,1.425 6.69,2.137 10.212,2.177 5.186,0 8.075,-1.663 8.075,-4.988 0,-3.325 -2.137,-4.75 -7.362,-7.046 l -2.85,-1.227 c -5.265,-2.295 -8.827,-5.264 -8.827,-11.162 0,-6.373 4.393,-10.45 13.458,-10.45 3.483,-0.04 6.927,0.514 10.212,1.623 -0.118,1.9 -0.514,3.76 -1.108,5.581 a 28.682,28.682 0 0 0 -9.144,-1.623 c -4.868,0 -7.085,1.9 -7.085,4.869 0,2.969 2.177,4.592 6.096,6.254 l 3.008,1.267 c 7.085,3.008 10.054,6.214 10.054,11.637 0,6.413 -4.869,10.846 -14.329,10.846 -4.592,0 -8.352,-0.673 -11.48,-2.137 z m 55.812,-26.68 v 27.907 h -5.62 l -0.317,-3.365 c -1.584,2.454 -3.959,3.998 -7.877,3.998 -7.363,0 -12.271,-5.344 -12.271,-14.725 0,-9.817 5.264,-15.398 15.596,-15.398 3.958,0 7.243,0.435 10.49,1.583 z m -6.175,21.534 V 271.83 a 23.457,23.457 0 0 0 -4.393,-0.316 c -6.373,0 -9.303,3.918 -9.303,10.173 0,5.7 2.296,9.697 7.759,9.697 a 9.78,9.78 0 0 0 5.937,-2.018 z m 37.604,-12.39 v 18.763 h -6.135 v -17.694 c 0,-4.394 -1.465,-6.531 -7.6,-6.531 -1.623,0.04 -3.246,0.158 -4.869,0.435 v 23.79 h -6.135 v -27.907 c 3.919,-0.95 8.194,-1.543 11.162,-1.543 10.252,-0.04 13.577,3.918 13.577,10.687 z m 17.021,14.171 a 14.19,14.19 0 0 0 4.79,-0.831 c -0.158,1.662 -0.396,3.562 -0.713,5.185 -1.662,0.633 -3.404,0.91 -5.185,0.871 -5.977,0 -9.777,-2.731 -9.777,-9.54 v -29.291 a 21.512,21.512 0 0 1 6.135,-0.91 v 10.568 h 9.698 a 47.5,47.5 0 0 1 -0.554,5.265 h -9.144 v 13.695 c 0,3.603 1.782,4.988 4.75,4.988 z m 32.934,-23.354 v 27.906 h -5.621 l -0.357,-3.365 c -1.583,2.455 -3.958,3.998 -7.877,3.998 -7.362,0 -12.27,-5.343 -12.27,-14.725 0,-9.816 5.264,-15.398 15.595,-15.398 3.998,0.04 7.284,0.475 10.53,1.584 z m -6.136,21.573 V 271.83 a 23.457,23.457 0 0 0 -4.394,-0.316 c -6.373,0 -9.341,3.918 -9.341,10.173 0,5.7 2.296,9.697 7.758,9.697 a 9.808,9.808 0 0 0 5.977,-2.018 z m 37.565,-12.39 v 18.763 h -6.136 v -17.694 c 0,-4.394 -1.464,-6.531 -7.6,-6.531 -1.623,0.04 -3.246,0.158 -4.829,0.435 v 23.79 h -6.175 v -27.907 c 3.919,-0.95 8.194,-1.543 11.163,-1.543 10.291,-0.04 13.577,3.918 13.577,10.687 z m 31.152,-20.346 v 39.07 h -5.621 l -0.317,-3.563 c -1.583,2.612 -3.958,4.235 -7.996,4.235 -7.362,0 -12.27,-5.344 -12.27,-14.725 0,-9.817 5.264,-15.398 15.556,-15.398 1.544,0 3.087,0.158 4.592,0.435 v -9.183 c 1.9,-0.673 4.077,-0.87 6.056,-0.87 z m -6.056,32.617 v -17.18 a 22.757,22.757 0 0 0 -4.909,-0.553 c -6.096,0 -8.985,3.8 -8.985,10.173 0,5.7 2.296,9.697 7.758,9.697 a 9.882,9.882 0 0 0 6.136,-2.137 z m 36.97,-5.463 h -19.593 c 0.791,4.988 3.68,7.363 9.143,7.363 3.404,0 6.73,-0.713 9.817,-2.138 -0.238,1.623 -0.554,3.76 -0.95,5.582 -2.81,1.266 -5.74,1.781 -9.025,1.781 -10.292,0 -15.24,-5.7 -15.24,-15.24 0,-8.312 3.84,-14.923 13.617,-14.923 8.748,0 12.548,5.74 12.548,12.786 0,1.623 -0.119,3.206 -0.317,4.79 z m -19.712,-5.145 h 13.854 c 0,-4.592 -2.454,-7.244 -6.69,-7.244 -4.393,0 -6.69,2.494 -7.164,7.244 z m 41.206,-12.152 c 0,1.78 -0.158,3.522 -0.554,5.264 a 45.36,45.36 0 0 0 -4.631,-0.237 c -1.505,0 -3.009,0.118 -4.513,0.316 v 23.909 h -6.135 v -27.907 c 2.612,-0.87 7.046,-1.543 10.49,-1.543 1.74,-0.04 3.562,0.04 5.343,0.198 z M 222.475,112.676 c -0.316,-8.196 -2.68,-16.235 -6.778,-23.485 L 178.657,25.199 C 175.82,20.313 173.929,15.112 172.826,9.595 l -1.576,2.68 a 51.562,51.562 0 0 0 0,51.382 l 29.631,51.383 a 51.562,51.562 0 0 1 0,51.382 l -1.576,2.68 c -1.103,-5.517 -2.995,-10.718 -5.832,-15.446 l -27.11,-47.127 -17.337,-29.947 c -2.837,-4.886 -4.729,-10.088 -5.832,-15.446 l -1.576,2.679 c -9.142,15.761 -9.142,35.306 -0.158,51.225 l 29.79,51.382 a 51.562,51.562 0 0 1 0,51.383 l -1.577,2.68 c -1.103,-5.517 -3.152,-10.719 -5.831,-15.447 l -37.04,-64.307 c -4.886,-8.511 -7.25,-18.126 -6.777,-27.898 -39.72,10.245 -67.144,32.311 -67.144,57.845 0,35.463 52.958,64.15 118.369,64.15 65.41,0 118.369,-28.687 118.369,-64.15 0,-25.534 -27.425,-47.6 -67.144,-58.002 z"
     style="fill:#ffffff;fill-opacity:1;stroke-width:1"
     id="path4" />
</svg>
