<?xml version="1.0" encoding="UTF-8" standalone="no"?>
<svg
   xml:space="preserve"
   width="870"
   height="870"
   version="1.1"
   id="svg16"
   sodipodi:docname="sicoob.svg"
   inkscape:version="1.1.1 (3bf5ae0d25, 2021-09-20)"
   xmlns:inkscape="http://www.inkscape.org/namespaces/inkscape"
   xmlns:sodipodi="http://sodipodi.sourceforge.net/DTD/sodipodi-0.dtd"
   xmlns="http://www.w3.org/2000/svg"
   xmlns:svg="http://www.w3.org/2000/svg"><defs
     id="defs20" /><sodipodi:namedview
     id="namedview18"
     pagecolor="#ffffff"
     bordercolor="#666666"
     borderopacity="1.0"
     inkscape:pageshadow="2"
     inkscape:pageopacity="0.0"
     inkscape:pagecheckerboard="0"
     showgrid="false"
     inkscape:zoom="0.4988604"
     inkscape:cx="266.60765"
     inkscape:cy="401.91605"
     inkscape:window-width="2560"
     inkscape:window-height="1017"
     inkscape:window-x="-8"
     inkscape:window-y="-8"
     inkscape:window-maximized="1"
     inkscape:current-layer="svg16" /><path
     style="fill:#003c44;fill-opacity:1;stroke-width:0.599998;paint-order:markers stroke fill"
     d="M -5e-6,-5e-6 H 870 V 870 H -5e-6 Z"
     id="path2" /><g
     id="g843"
     transform="matrix(1.2001847,0,0,1.2001847,-89.068409,-91.736141)"
     style="stroke-width:0.833205"><g
       style="stroke-width:1.37034"
       id="g6"
       transform="translate(0.00167824,-0.00714127)"><path
         d="M 0,0 3.667,6.334 0.703,11.462 H -11.79 a 1.922,1.922 0 0 1 -0.783,-0.244 1.855,1.855 0 0 1 -0.931,-1.616 c 0,-0.282 0.062,-0.563 0.196,-0.832 l 9.166,-15.928 2.972,5.14 h 0.002 L 0,0"
         style="fill:#75c044;fill-opacity:1;fill-rule:nonzero;stroke:none;stroke-width:1.37034"
         transform="matrix(13.98004,0,0,-13.98004,385.686,387.763)"
         id="path4" /></g><g
       style="stroke-width:1.37034"
       id="g10"
       transform="translate(0.00167824,-0.00714127)"><path
         d="m 0,0 7.796,-13.48 h 5.923 l 6.231,10.826 c 0.113,0.236 0.184,0.507 0.184,0.795 0,0.988 -0.779,1.796 -1.759,1.859 z"
         style="fill:#00ae9d;fill-opacity:1;fill-rule:nonzero;stroke:none;stroke-width:1.37034"
         transform="matrix(13.98004,0,0,-13.98004,395.507,227.529)"
         id="path8" /></g><g
       style="stroke-width:1.37034"
       id="g14"
       transform="translate(0.00167824,-0.00714127)"><path
         d="m 0,0 h -15.149 l -2.974,-5.139 6.274,-10.807 a 1.85,1.85 0 0 1 0.599,-0.564 c 0.292,-0.169 0.611,-0.25 0.929,-0.25 0.608,0 1.204,0.305 1.56,0.845 L 0.441,0 Z"
         style="fill:#bfd730;fill-opacity:1;fill-rule:nonzero;stroke:none;stroke-width:1.37034"
         transform="matrix(13.98004,0,0,-13.98004,581.13,415.978)"
         id="path12" /></g></g></svg>
