<?xml version="1.0" encoding="UTF-8" standalone="no"?>
<svg
   width="460"
   height="460"
   viewBox="0 0 121.708 121.70804"
   version="1.1"
   id="svg6"
   sodipodi:docname="unicred.svg"
   inkscape:version="1.1.1 (3bf5ae0d25, 2021-09-20)"
   xmlns:inkscape="http://www.inkscape.org/namespaces/inkscape"
   xmlns:sodipodi="http://sodipodi.sourceforge.net/DTD/sodipodi-0.dtd"
   xmlns="http://www.w3.org/2000/svg"
   xmlns:svg="http://www.w3.org/2000/svg">
  <defs
     id="defs10" />
  <sodipodi:namedview
     id="namedview8"
     pagecolor="#ffffff"
     bordercolor="#666666"
     borderopacity="1.0"
     inkscape:pageshadow="2"
     inkscape:pageopacity="0.0"
     inkscape:pagecheckerboard="0"
     showgrid="false"
     inkscape:zoom="1.0129488"
     inkscape:cx="85.887858"
     inkscape:cy="227.55346"
     inkscape:window-width="2560"
     inkscape:window-height="1017"
     inkscape:window-x="-8"
     inkscape:window-y="-8"
     inkscape:window-maximized="1"
     inkscape:current-layer="svg6" />
  <path
     style="fill:#436951;fill-opacity:1;stroke-width:0.158749;paint-order:markers stroke fill"
     d="M 4.9999984e-6,0 H 121.70801 V 121.70802 H 4.9999984e-6 Z"
     id="path2" />
  <path
     style="fill:#b8a753;stroke-width:1"
     d="m 16.27863,90.48751 c -0.176,-0.21 -0.28,-0.567 -0.231,-0.79 0.048,-0.224 4.047,-4.447 8.885,-9.384 4.839,-4.938 8.798,-9.047 8.798,-9.131 0,-0.085 -3.962,-0.154 -8.805,-0.154 -7.635,0 -8.885,-0.056 -9.408,-0.423 -0.405,-0.283 -0.576,-0.634 -0.522,-1.067 0.056,-0.442 5.786,-6.485 18.205,-19.2 9.969,-10.205 18.482,-18.773 18.918,-19.04 0.745,-0.455 1.705,-0.485 15.558,-0.486 12.136,0 14.89,0.065 15.478,0.37 0.522,0.27 3.777,5.386 12.08,18.983 6.25199,10.237 11.41299,18.925 11.46899,19.308 0.074,0.5 -0.07,0.816 -0.511,1.125 -0.537,0.377 -1.753,0.43 -9.81499,0.43 -5.612,0 -9.201,0.098 -9.201,0.25 0,0.138 2.395,4.156 5.324,8.93 2.928,4.774 5.324,8.947 5.324,9.274 0,1.423 0.308,1.39 -12.653,1.39 -8.079,0 -12.2,-0.094 -12.625,-0.288 -0.688,-0.313 -11.829,-18.319 -11.829,-19.116 0,-0.395 0.516,-0.44 5.006,-0.44 5.01,0 5.842,-0.085 5.842,-0.594 0,-0.525 -11.78,-19.58 -12.332,-19.948 -0.307,-0.205 -0.736,-0.304 -0.953,-0.22 -0.524,0.2 -19.788,19.848 -19.788,20.182 0,0.493 0.859,0.58 5.71,0.58 3.758,0 4.873,0.077 4.873,0.335 0,0.185 -4.256,4.655 -9.458,9.934 l -9.46,9.598 -6.78,-0.012 c -5.594,-0.009 -6.836,-0.079 -7.1,-0.396 z m 56.547,-41.684 c 0.041,-0.218 -2.16,-4.088 -4.892,-8.6 -4.839,-7.99 -4.989,-8.201 -5.806,-8.201 -0.75,0 -1.686,0.864 -8.93,8.244 -4.45,4.534 -8.09,8.434 -8.09,8.667 0,0.384 1.296,0.417 13.82,0.355 12.04,-0.06 13.831,-0.12 13.898,-0.465 z"
     id="path4" />
</svg>
