<?xml version="1.0" encoding="UTF-8" standalone="no"?>
<svg
   width="612.28265"
   height="612.28345"
   viewBox="0 0 161.99979 162.00022"
   version="1.1"
   id="svg8"
   sodipodi:docname="unobank.svg"
   inkscape:version="1.1.1 (3bf5ae0d25, 2021-09-20)"
   xmlns:inkscape="http://www.inkscape.org/namespaces/inkscape"
   xmlns:sodipodi="http://sodipodi.sourceforge.net/DTD/sodipodi-0.dtd"
   xmlns="http://www.w3.org/2000/svg"
   xmlns:svg="http://www.w3.org/2000/svg">
  <defs
     id="defs12" />
  <sodipodi:namedview
     id="namedview10"
     pagecolor="#ffffff"
     bordercolor="#666666"
     borderopacity="1.0"
     inkscape:pageshadow="2"
     inkscape:pageopacity="0.0"
     inkscape:pagecheckerboard="0"
     inkscape:document-units="mm"
     showgrid="false"
     inkscape:zoom="0.70639959"
     inkscape:cx="447.33888"
     inkscape:cy="368.77145"
     inkscape:window-width="2560"
     inkscape:window-height="1017"
     inkscape:window-x="-8"
     inkscape:window-y="-8"
     inkscape:window-maximized="1"
     inkscape:current-layer="svg8" />
  <path
     style="fill:#f9f9f9;stroke-width:0.15875;paint-order:markers stroke fill"
     d="M -1.0447984e-4,5e-6 H 161.99989 V 162.00021 H -1.0447984e-4 Z"
     id="path2" />
  <g
     style="stroke-width:0.525641"
     id="g6"
     transform="translate(1.075875,0.92916604)">
    <path
       style="fill:#56bf56;stroke-width:0.525641"
       d="m 203.631,183.439 -17.53,-9.847 0.068,-20.096 0.067,-20.095 17.198,-9.866 c 9.46,-5.426 17.396,-9.933 17.637,-10.014 0.28,-0.094 6.44,3.469 17.065,9.87 l 16.628,10.018 0.067,20.094 0.068,20.094 -10.916,6.472 c -6.003,3.56 -13.466,7.992 -16.583,9.85 -3.117,1.859 -5.796,3.377 -5.953,3.373 -0.157,-0.003 -8.174,-4.437 -17.816,-9.853 z m 28.57,-9.062 c 6.152,-3.45 11.394,-6.457 11.648,-6.682 0.43,-0.378 0.464,-1.38 0.464,-13.847 v -13.44 l -0.86,-0.641 c -1.372,-1.024 -16.269,-10.233 -16.553,-10.233 -0.142,0 -0.33,0.188 -0.419,0.418 -0.088,0.23 -0.16,7.732 -0.16,16.67 v 16.252 l -2.665,1.983 c -1.465,1.09 -2.756,1.983 -2.868,1.983 -0.112,0 -1.443,-0.867 -2.958,-1.926 l -2.754,-1.926 -0.137,-16.529 c -0.076,-9.09 -0.165,-16.558 -0.199,-16.595 -0.033,-0.036 -0.164,-0.066 -0.29,-0.066 -0.343,0 -16.54,9.563 -16.766,9.898 -0.107,0.159 -0.196,6.573 -0.199,14.254 l -0.004,13.966 0.992,0.586 c 7.54,4.455 21.737,12.33 22.086,12.252 0.25,-0.056 5.489,-2.926 11.641,-6.377 z"
       transform="matrix(1.90244,0,0,1.90244,-339.564,-211.774)"
       id="path4" />
  </g>
</svg>
