<svg width="180mm" height="180mm" viewBox="0 0 180 180" xmlns="http://www.w3.org/2000/svg"><path style="fill:#f2f2f2;stroke-width:.15875;paint-order:markers stroke fill" d="M166.147-28.223h180v180h-180z" transform="translate(-166.147 28.223)"/><g style="stroke-width:.88133"><path style="fill:#335b91;stroke-width:.88133" d="M437.326 101.2c.004-.246 7.422-4.036 7.899-4.036.941 0-.207.83-3.383 2.448-3.228 1.643-4.523 2.098-4.516 1.587zm-6.353-.828c0-.382.506-.672 3.97-2.279a340.654 340.654 0 0 0 6.408-3.07c1.854-.918 3.169-1.427 3.268-1.267.091.148.124.305.073.35-.652.578-12.916 6.498-13.46 6.498-.142 0-.258-.105-.258-.232zm17.463-.668c0-.308 7.301-3.863 7.934-3.863.583 0-.041.529-1.758 1.488-2.506 1.402-6.176 2.813-6.176 2.375zm-22.352-.944c-.175-.283 1.775-1.305 8.329-4.366a449.846 449.846 0 0 0 7.609-3.645c1.783-.884 3.324-1.526 3.423-1.426.462.461-.716 1.091-12.37 6.614-3.573 1.694-6.573 3.08-6.665 3.08-.092 0-.24-.116-.326-.257zm20.434-1.748c-.11-.11-.199-.88-.199-1.712 0-1.68-.12-1.839-1.799-2.368-.626-.198-1.201-.462-1.28-.589-.247-.4.454-.98 1.4-1.157 1.371-.257 1.68-.717 1.68-2.507 0-1.943.37-2.033 1.558-.378.942 1.311 1.152 1.365 3.056.788.719-.218 1.405-.299 1.524-.18.119.12-.201.805-.712 1.523-.51.719-.929 1.436-.929 1.595 0 .158.436.848.97 1.532 1.224 1.571.981 1.867-1.088 1.326l-1.565-.408-1.21 1.368c-.664.752-1.297 1.278-1.406 1.167zm-24.54-.36c0-.295 2.359-1.477 12.17-6.098 2.402-1.131 7.301-3.5 10.888-5.264 3.588-1.764 6.713-3.207 6.946-3.207 1.003 0 .255.625-2.025 1.692-1.346.63-5.483 2.642-9.194 4.47-8.782 4.327-17.439 8.41-18.19 8.581-.355.08-.595.01-.595-.174zm26.987-1.075c0-.146.179-.265.397-.265.218 0 .397.12.397.265 0 .145-.179.264-.397.264-.218 0-.397-.119-.397-.264zm-30.54-1.029c-.08-.129.002-.347.182-.486.18-.138 4.674-2.307 9.985-4.819 5.312-2.512 11.775-5.627 14.363-6.922 4.276-2.14 6.053-2.802 5.615-2.093-.194.313-5.128 2.855-10.585 5.45-10.485 4.989-19.216 9.105-19.31 9.105-.058 0-.171-.106-.25-.235zm34.509-.791c0-.4.517-.681 6.417-3.477 5.234-2.48 6.793-3.021 5.738-1.992-.407.397-11.483 5.701-11.905 5.701-.137 0-.25-.104-.25-.232zm31.882-1.094c-1.848-.395-2.822-1.415-3.316-3.473-.388-1.616-.016-3.758.841-4.847 1.153-1.466 3.534-1.959 5.229-1.082 1.03.533 1.051.485 1.144-2.633l.07-2.382h2.911V92.27l-1.314.083c-1.007.064-1.392-.024-1.65-.375-.317-.435-.361-.434-.849.007-.652.59-2.041.898-3.066.68zm2.899-2.807c.704-.27 1.269-1.646 1.083-2.638-.477-2.54-4.114-2.05-4.114.553 0 1.612 1.527 2.662 3.03 2.085zm9.5 2.828c-1.524-.373-2.674-1.3-3.384-2.726-.374-.75-.68-1.609-.679-1.908.005-1.866 1.462-4.134 3.095-4.816.47-.196 1.458-.357 2.195-.357 1.729 0 2.845.48 3.896 1.677 2.11 2.402 1.605 5.886-1.075 7.428-1.259.724-2.84.999-4.049.702zm2.43-3.313c1.32-1.32.55-3.672-1.203-3.672-1.753 0-2.523 2.351-1.202 3.672.824.824 1.58.824 2.405 0zm13.021 3.183c-1.259-.449-2.304-1.132-2.495-1.63-.182-.475 1.108-2.491 1.595-2.491.194 0 .564.234.822.52 1.092 1.206 3.327 1.227 3.706.034.279-.879-.303-1.542-1.776-2.023-2.106-.688-2.82-1.12-3.387-2.05-1.03-1.69-.49-4.072 1.22-5.376.9-.687 1.198-.762 3.004-.757 2.193.006 3.725.578 3.724 1.39 0 .251-.239.847-.53 1.323-.518.851-.542.86-1.308.463-1.43-.739-2.924-.46-2.924.545 0 .695.754 1.296 1.985 1.581 2.313.538 3.571 1.971 3.571 4.068 0 3.509-3.582 5.697-7.207 4.403zm10.719-.126c-1.91-.895-2.207-1.695-2.126-5.715l.07-3.44 1.144-.082c1.761-.127 1.898.117 1.898 3.381 0 3.117.264 3.713 1.642 3.713 1.15 0 1.39-.617 1.533-3.943l.133-3.068h2.91l.071 3.307c.081 3.755-.232 4.753-1.776 5.66-1.287.755-4.084.85-5.5.187zm9.186-.296c-.403-.752-.06-13.53.37-13.815.393-.26 2.062-.248 2.481.018.26.165.32 1.788.265 7.206l-.07 6.993-1.373.08c-1.174.067-1.417-.003-1.673-.482zm-117.208-.278c0-.156 1.637-1.06 3.638-2.012l13.825-6.57c5.602-2.664 10.722-5.15 11.377-5.526 1.373-.789 1.587-.831 1.587-.313 0 .207-.684.749-1.521 1.203-2.561 1.39-28.17 13.501-28.55 13.501-.196 0-.356-.127-.356-.283zm37.882-2.264c.1-.506 13.845-7.09 14.263-6.832.28.173-.165.912-.55.912-.11 0-2.209.966-4.664 2.145-5.27 2.531-8.86 4.205-9.02 4.205-.063 0-.076-.193-.029-.43zm-40.377-.333c-.241-.39-.664-.172 11.094-5.737 1.746-.826 4.544-2.155 6.218-2.952a842.292 842.292 0 0 1 4.63-2.19c.873-.408 3.118-1.468 4.99-2.355 1.87-.887 3.581-1.613 3.802-1.613.862 0-.305.816-3.07 2.144-6.458 3.104-27.28 12.937-27.395 12.937-.068 0-.19-.105-.269-.234zm35.725-1.312c-.19-.309.204-.604 1.632-1.223 1.115-.483 1.603-.442 1.263.108-.39.63-2.655 1.503-2.895 1.115zm-37.992-1.596c0-.403.546-.707 5.423-3.016 2.62-1.24 8.454-4.01 12.965-6.155 13.207-6.28 13.62-6.472 13.932-6.472.201 0 .246-.427.14-1.323-.178-1.502-.084-1.554 1.42-.787 1.165.595 1.54.502 2.612-.644 1.088-1.163 1.382-.922 1.188.975l-.17 1.662 1.353.736c1.928 1.05 1.87 1.163-.892 1.708-1.028.203-1.062.245-1.329 1.653-.34 1.791-.778 1.856-1.723.253-.7-1.187-.707-1.19-2.043-1.108-.737.046-1.411-.034-1.5-.176-.087-.142.154-.63.537-1.086.383-.455.636-.887.563-.96-.13-.13-5.591 2.413-23.287 10.842-4.768 2.272-8.787 4.13-8.93 4.13-.142 0-.26-.105-.26-.232zm43.127-.785c0-.382.89-1.05 1.653-1.24 1.1-.275.9.306-.32.929-1.168.595-1.333.634-1.333.31zm-.794-2.293c0-1.4-.042-1.487-1.048-2.183-.576-.399-1.013-.842-.971-.986.042-.143.603-.35 1.246-.46 1.242-.211 1.831-.745 1.831-1.66 0-.308.16-.779.355-1.046.34-.464.375-.457.794.14.241.345.439.74.439.878s.19.461.423.719c.34.374.684.437 1.72.315 1.567-.186 1.714.215.503 1.375-.87.833-.976 1.502-.397 2.514.817 1.429.242 1.716-1.488.744l-1.03-.58-.87.844c-1.246 1.207-1.507 1.1-1.507-.614zm-44.186-.148c0-.156 1.638-1.06 3.638-2.01 2.001-.949 9.252-4.393 16.113-7.654 6.86-3.26 12.605-5.928 12.766-5.928.392 0 .37.403-.039.723-.564.441-31.755 15.152-32.127 15.152-.193 0-.35-.128-.35-.283zm50.123-.008c-.202-.327-.207-.322.863-.866 1.024-.521 1.137-.53 1.137-.083 0 .47-1.776 1.312-2 .949zm3.219-1.516c-.075-.12.043-.805.26-1.521l.397-1.302-1.204-1.059c-.663-.582-1.204-1.13-1.203-1.22.001-.088.654-.228 1.45-.31.797-.083 1.56-.218 1.694-.301.134-.083.388-.747.562-1.475.175-.728.462-1.324.638-1.324s.61.625.965 1.39c.643 1.381.653 1.389 1.97 1.462 2.2.123 2.262.239.801 1.513l-1.314 1.147.449 1.403c.247.772.36 1.494.25 1.603-.11.11-.732-.154-1.384-.586-.651-.432-1.303-.783-1.449-.78-.145.004-.732.36-1.303.793-1.097.83-1.359.923-1.58.567zm-55.043-1.547a.795.795 0 0 1 .17-.781c.32-.316 10.217-5.079 25.565-12.302 3.686-1.735 8.21-3.92 10.054-4.857 3.266-1.659 19.544-9.433 23.143-11.053 1.677-.755 1.831-.78 2.24-.371.385.385.391.486.051.823-.213.211-5.328 2.72-11.367 5.574-6.04 2.854-11.755 5.604-12.7 6.11-.946.508-4.578 2.273-8.07 3.924a13004.74 13004.74 0 0 0-17.276 8.19c-6.01 2.852-11.087 5.186-11.283 5.186-.196 0-.433-.2-.527-.443zm43.506-1.139c0-.27 1.889-1.328 2.37-1.328.63 0 .208.728-.66 1.142-1.05.5-1.71.573-1.71.186zm17.613-.24c-.19-.306.322-.716 1.509-1.212.946-.396 1.552-.18.917.326-.372.296-1.954 1.12-2.151 1.12-.072 0-.195-.105-.275-.234zm-62.24-1.767c-.094-.248-.06-.629.076-.845.137-.217 3.616-1.986 7.731-3.931 4.116-1.945 8.22-4.06 9.12-4.698 2.263-1.605 4.445-2.654 7.153-3.439 1.994-.578 11.394-4.806 13.058-5.873 1.28-.82 22.395-10.698 22.87-10.698.79 0 .955.82.258 1.282-.326.216-2.281 1.19-4.346 2.162-15.107 7.119-29.82 14.344-31.345 15.394-1.41.97-4.074 2.193-6.539 3.003-1.019.334-5.22 2.218-9.338 4.186-4.118 1.968-7.72 3.653-8.005 3.743-.35.112-.575.019-.692-.286zm41.716-.473c0-.354 14.331-7.33 15.037-7.32 1.102.017-.624 1.007-7.25 4.16-4.064 1.935-7.48 3.517-7.588 3.518-.11 0-.199-.161-.199-.358zm8.202.006c0-.382 7.578-4.065 7.835-3.808.363.364-.434.889-3.763 2.478-3.722 1.777-4.072 1.892-4.072 1.33zm11.262-1.208c-.079-.127.004-.35.184-.495.6-.48 4.39-2.13 4.543-1.976.334.333.086.56-1.37 1.257-2.552 1.22-3.207 1.456-3.357 1.214zm-61.786-1.608c-.71-.44-.117-1.21 1.576-2.048 13.571-6.71 21.836-10.712 23.02-11.144 1.76-.643 5.715-2.502 14.154-6.651 13.762-6.768 19.484-9.375 19.94-9.086.239.15.433.438.433.64 0 .428-.64.762-9.657 5.032-10.603 5.021-20.573 9.972-22.917 11.38-2.837 1.704-7.48 3.885-11.082 5.205-1.6.587-4.934 2.042-7.408 3.234-6.788 3.27-7.7 3.66-8.06 3.438zm100.663.069c-1.214-.293-2.274-.98-2.782-1.802-.484-.783-.534-1.235-.467-4.271l.074-3.396 1.297-.082c.859-.054 1.372.035 1.517.265.121.19.222 1.54.224 3 .003 1.968.11 2.805.416 3.24.47.672 1.367.762 2.118.214.443-.324.531-.803.646-3.506l.132-3.13h2.91l.075 3.164c.045 1.89-.043 3.45-.217 3.872-.801 1.934-3.474 3.027-5.943 2.432zm20.637-.313c-.582-.27-1.37-.832-1.75-1.25-3.121-3.436 0-8.85 4.729-8.202 2.264.31 3.465 1.405 4.085 3.723.496 1.854.078 2.087-3.36 1.878-2.938-.18-3.465-.017-3.212.99.294 1.17 2.288 1.477 3.394.521.369-.318.615-.33 1.408-.068 1.208.399 1.416.914.684 1.694-1.155 1.229-4.104 1.581-5.978.714zm3.699-6.103c.249-.404-.854-1.333-1.582-1.333-.728 0-1.831.93-1.582 1.333.087.14.799.255 1.582.255s1.495-.115 1.582-.255zm21.343 6.322c-1.967-.788-3.214-2.566-3.214-4.584 0-3.019 2.054-5.014 5.16-5.014 1.846 0 2.875.455 4.049 1.792 2.004 2.282 1.174 6.184-1.602 7.528-1.23.595-3.278.724-4.393.278zm3.19-3.09c1.441-1.666.074-4.267-1.91-3.637-.863.274-1.417 1.809-1.052 2.914.16.488.435.944.608 1.015.733.298 1.977.143 2.354-.293zm-69.578 2.549c-4.148-2.054-5.053-8.241-1.695-11.585.75-.747 1.666-1.36 2.326-1.555 1.472-.437 3.885-.408 5.005.06.915.382.918.389.918 2.116 0 .954-.082 1.734-.181 1.734-.1 0-.7-.251-1.332-.557-3.616-1.75-6.735 2.874-4.022 5.964 1.07 1.219 2.462 1.461 4.031.701.628-.303 1.223-.552 1.323-.552.1 0 .18.78.18 1.733 0 1.728-.002 1.735-.917 2.117-1.403.586-4.277.496-5.636-.176zm50.263.242c-.22-.22-.318-1.588-.318-4.445 0-2.858.098-4.225.318-4.445.411-.411 2.393-.411 2.804 0 .22.22.318 1.587.318 4.445 0 2.857-.098 4.225-.318 4.445-.174.174-.805.317-1.402.317-.597 0-1.228-.143-1.402-.317zm5.096-.01c-.074-.195-.103-2.314-.063-4.71l.073-4.355 1.246-.08c1.022-.066 1.307.017 1.585.462.423.678.582.677 1.505-.005a2.306 2.306 0 0 1 1.643-.463c.742.07.914.205.98.763.043.372-.044.997-.193 1.389-.222.584-.435.712-1.188.712a2.57 2.57 0 0 0-1.64.62c-.669.576-.731.807-.874 3.241l-.153 2.621-1.392.08c-.98.056-1.433-.025-1.529-.275zm-46.689-4.554V64.09h1.456c.8 0 1.457.09 1.459.199.002.109.107.361.233.56.186.293.381.25 1.033-.233.47-.348 1.224-.607 1.817-.626.9-.028 1.023.044 1.093.645.135 1.162-.376 2.101-1.144 2.101-.885 0-2.122.647-2.386 1.247-.114.26-.277 1.544-.363 2.854l-.155 2.381-1.521.08-1.522.08zm19.844 4.365c0-.145.906-1.583 2.014-3.196 1.107-1.613 1.93-3.015 1.83-3.116-.1-.1-.918-.243-1.815-.315l-1.632-.133v-2.116l3.948-.074c2.334-.043 4.054.033 4.208.186.17.17-.06.745-.665 1.661-2.322 3.518-2.891 4.52-2.685 4.725.121.12.935.256 1.808.3l1.588.08v2.117l-4.3.073c-2.736.046-4.299-.023-4.299-.192zm-48.154-1.351c0-.27 5.849-3.16 6.393-3.16.832 0-.27.83-2.698 2.032-2.772 1.37-3.695 1.653-3.695 1.128zm-15.032-.793c.09-.272 10.36-5.277 10.828-5.277.342 0 .288.42-.096.737-.528.435-10.033 4.819-10.449 4.819-.207 0-.335-.126-.283-.28zm-45.956-1.046c-.468-.758.34-1.336 4.968-3.549 2.653-1.269 5.949-2.977 7.325-3.795 3.63-2.16 8.208-4.368 12.514-6.038 4.866-1.887 6.518-2.623 11.972-5.336 3.909-1.945 8.367-4.09 17.315-8.33 1.64-.778 2.345-.99 2.646-.801 1.102.693.577 1.03-7.714 4.954-4.553 2.154-9.112 4.364-10.13 4.91-1.02.547-3.698 1.862-5.954 2.923-2.256 1.06-4.577 2.248-5.16 2.638-2.795 1.877-11.761 6.154-15.551 7.419-.906.302-3.895 1.612-6.643 2.91-2.749 1.3-5.093 2.362-5.21 2.362-.117 0-.287-.12-.378-.267zm59.93-1.604c0-.268 6.876-3.686 7.417-3.686.14 0 .255.157.255.35 0 .337-6.671 3.629-7.342 3.622-.182-.002-.33-.13-.33-.286zm-15.294-.577c.158-.541 9.87-5.18 10.185-4.866.1.1.01.344-.199.54-.407.383-9.442 4.657-9.844 4.657-.13 0-.195-.149-.142-.33zm13.441-1.256-.62-1.323h-1.526c-.84 0-1.603-.124-1.696-.275-.094-.152.316-.72.91-1.263 1.2-1.097 1.256-1.338.68-2.968-.22-.623-.332-1.2-.25-1.283.083-.082.727.174 1.432.57.704.397 1.396.72 1.536.72.14 0 .705-.357 1.254-.793 1.22-.97 1.853-1.047 1.615-.199-.092.328-.238 1.083-.326 1.678-.156 1.063-.137 1.093 1.078 1.806.68.398 1.19.864 1.132 1.034-.057.171-.67.392-1.364.491-1.844.264-1.91.316-2.262 1.784-.177.739-.469 1.343-.648 1.343-.179 0-.604-.595-.945-1.322zm-19.579.296c0-.127.15-.35.331-.496.484-.386 14.927-7.209 15.261-7.209.384 0 .358.406-.047.725-.435.343-15.026 7.213-15.319 7.213a.23.23 0 0 1-.226-.233zm-38.629-1.05c0-.713.566-1.09 4.233-2.817 1.82-.857 4.082-2.056 5.028-2.665 3.404-2.192 11.135-5.835 16.536-7.792 1.31-.474 5.417-2.349 9.128-4.166 13.731-6.722 18.344-8.83 18.975-8.671 1.361.342.599.976-3.563 2.963a1222.79 1222.79 0 0 0-9.591 4.651 807.113 807.113 0 0 1-8.363 4.05c-1.617.763-3.64 1.864-4.498 2.448-4.043 2.75-10.536 5.865-16.64 7.98-1.6.554-4.565 1.795-6.587 2.758-3.895 1.853-4.658 2.06-4.658 1.262zm63.372-2.957c.192-.31 3.152-1.846 3.56-1.846.15 0 .272.163.272.361 0 .198-.7.675-1.554 1.058-1.603.72-2.571.901-2.278.427zm67.77-.213c-.581-.642-.557-1.972.046-2.518.612-.554 1.996-.566 2.54-.022.569.569.53 2.045-.068 2.586-.642.581-1.972.557-2.518-.046zm-130.564-1.037c.074-.649.488-.93 3.788-2.585 2.037-1.021 4.484-2.347 5.437-2.947 3.37-2.12 10.501-5.422 15.438-7.148 1.44-.503 6.262-2.71 10.715-4.903 7.857-3.87 12.512-6.102 13.705-6.572.42-.165.74-.1 1.152.233.746.604.657.67-3.452 2.558-1.82.835-5.51 2.62-8.203 3.964a594.627 594.627 0 0 1-9.211 4.488c-2.375 1.124-5.21 2.572-6.302 3.217-3.521 2.082-10.871 5.535-13.723 6.447-.582.186-2.773 1.157-4.869 2.157-2.095 1-3.978 1.818-4.184 1.818-.253 0-.348-.237-.291-.727zm61.864-2.18c0-.332 3.585-2.151 3.805-1.931.387.388.064.683-1.55 1.415-1.836.832-2.255.928-2.255.516zm-6.086-1.13c0-.33 8.014-4.176 8.688-4.169.957.01-.21.763-3.934 2.539-4.227 2.014-4.754 2.195-4.754 1.63zm-54.908-.472c-.397-.643.789-1.643 3.394-2.863 1.484-.695 3.72-1.878 4.966-2.628 2.773-1.67 6.406-3.391 9.84-4.664 3.02-1.119 8.852-3.828 18.968-8.81 6.089-3 7.369-3.54 7.916-3.347.36.127.699.368.755.537.057.174-1.193.915-2.89 1.712a205.6 205.6 0 0 0-5.635 2.77c-1.456.752-5.578 2.75-9.16 4.44-3.584 1.69-7.215 3.499-8.07 4.02-2.116 1.29-7.056 3.661-9.845 4.727-1.262.482-3.981 1.665-6.043 2.63-2.062.963-3.811 1.752-3.887 1.752-.076 0-.215-.124-.309-.276zm114.572-2.53c-1.242-.681-1.756-1.212-2.28-2.354-1.01-2.198-.381-4.873 1.512-6.434.865-.713 1.237-.842 2.433-.842 2.027 0 2.436.292 2.436 1.739v1.19l-1.262-.167c-1.79-.238-2.574.413-2.574 2.133 0 1.653.764 2.326 2.5 2.202l1.204-.085.079 1.081c.098 1.336-.262 1.673-1.97 1.844-.895.09-1.525-.003-2.078-.307zm8.118-.262c-2.736-1.364-3.68-4.654-2.02-7.043 2.348-3.379 7.438-2.979 9.145.718 1.244 2.696-.182 5.708-3.178 6.71-1.39.466-2.446.363-3.947-.385zm3.573-2.8c1.291-1.212.504-3.662-1.174-3.653-.875.005-1.212.207-1.614.97-.456.867-.369 1.783.244 2.562.678.862 1.704.91 2.544.122zm-36.085 2.704c-.465-.283-1.03-.797-1.255-1.141-1.024-1.562-.959-5.032.122-6.55 1.144-1.607 3.311-2.074 5.352-1.154.807.364 1.112.406 1.193.163.068-.204.644-.325 1.548-.325h1.44l-.073 4.564-.073 4.564-1.303.083c-.98.062-1.362-.023-1.54-.341-.213-.38-.325-.369-1.11.116-1.147.709-3.156.72-4.3.021zm4.827-2.777c1.413-1.414.42-3.849-1.569-3.849-.677 0-1.062.183-1.467.697-1.736 2.208 1.069 5.119 3.036 3.152zm-18.612 2.713c-.336-.336-.479-11.92-.157-12.758.135-.352.706-.418 3.58-.418 3.776 0 4.796.259 5.74 1.459.835 1.062.78 2.752-.125 3.828l-.699.83.847.712c2.261 1.901 1.249 5.549-1.773 6.388-1.404.39-7.014.359-7.413-.041zm6.342-3.03c1.148-1.04.276-2.209-1.647-2.209-1.165 0-1.316.068-1.465.662a3.24 3.24 0 0 0 0 1.323c.148.587.305.661 1.397.661.774 0 1.41-.163 1.715-.438zm-.633-5.267c1.158-.811.312-2.233-1.329-2.233-.967 0-1.491.998-1.042 1.984.356.78 1.449.895 2.37.25zm18.437 8.287c-.075-.195-.103-2.255-.063-4.578l.073-4.223 1.343-.078c1.155-.067 1.378 0 1.594.482l.25.561.757-.596c1.016-.799 3.192-.988 4.368-.38 1.35.698 1.637 1.741 1.552 5.644l-.074 3.363h-3.175l-.133-3.097c-.13-3.052-.275-3.554-1.058-3.659-1.663-.224-2.1.531-2.332 4.024l-.182 2.732-1.392.08c-.98.057-1.432-.025-1.528-.275zm-98.812-1.863c0-.791.985-1.6 3.261-2.679a64.234 64.234 0 0 0 4.667-2.5c1.231-.742 3.136-1.667 4.233-2.055 3.17-1.122 12.164-5.261 22.128-10.182 3.247-1.604 3.821-1.808 4.432-1.576.386.147.702.368.702.492 0 .263-7.62 4.1-16.272 8.192-3.347 1.584-6.68 3.305-7.408 3.825-2.883 2.06-5.873 3.457-8.996 4.204-.728.174-2.362.834-3.633 1.467-2.405 1.198-3.114 1.383-3.114.812zm3.175-5.227c0-.892 1.12-1.76 4.092-3.17l13.843-6.575c5.863-2.784 10.983-5.06 11.377-5.059.395.003.897.124 1.115.27.341.228.323.31-.132.583-.968.581-29.78 14.225-30.04 14.225-.14 0-.255-.124-.255-.274zm7.11-7.644c2.457-2.158 7.585-4.763 11.526-5.855 2.026-.561 2.795-.64 2.795-.286 0 .303-14.407 7.183-15.01 7.168-.333-.008-.135-.303.689-1.027z" transform="translate(-456.691 12.26) scale(1.13465)"/></g></svg>