<svg width="720" height="720" xmlns:xlink="http://www.w3.org/1999/xlink" xmlns="http://www.w3.org/2000/svg"><defs><path id="a" d="M32.055 0C14.352 0 0 14.327 0 32c0 17.673 14.352 32 32.055 32C49.76 64 64.11 49.673 64.11 32a31.972 31.972 0 0 0-9.388-22.627A32.083 32.083 0 0 0 32.055 0Zm-4.007 48h-.788c-6.193 0-11.232-4.916-11.232-10.96V26.96c0-6.044 5.04-10.96 11.232-10.96h.788v3.733h-.788c-4.043-.042-7.357 3.191-7.408 7.227v10.08c.051 4.036 3.365 7.269 7.408 7.227h.788zm20.035-19.173v8.213c0 6.044-5.04 10.96-11.233 10.96h-.788v-3.733h.788c4.043.042 7.357-3.191 7.408-7.227V26.96c-.05-4.036-3.365-7.269-7.408-7.227h-.788V16h.788c6.193 0 11.233 4.916 11.233 10.96z"/></defs><g style="fill:none;fill-rule:nonzero" transform="translate(84.503 297.193) scale(1.94133)"><path style="fill:#2d0dc3;fill-opacity:1;stroke-width:.309067;paint-order:markers stroke fill" d="M-43.528-153.087h370.88v370.88h-370.88z"/><path style="fill:#fff;fill-opacity:1;stroke-width:.309067;paint-order:markers stroke fill" d="M47.144-59.416h189.535v183.537H47.144z"/><use xlink:href="#a" style="fill:#2d0dc3;fill-opacity:1;stroke-width:.185871" width="100%" height="100%" transform="translate(-30.547 -139.81) scale(5.38008)"/></g></svg>