<svg width="330mm" height="330mm" viewBox="0 0 330 330" xmlns="http://www.w3.org/2000/svg"><path style="fill:#00b6d2;fill-opacity:1;stroke-width:.15875;paint-order:markers stroke fill" d="M36.017-103.681h330v330h-330z" transform="translate(-36.017 103.681)"/><path style="fill:#fff;stroke-width:.15875;paint-order:markers stroke fill" d="M117.28-16.544h169.379v167.421H117.28z" transform="translate(-36.809 99.306)"/><path style="fill:#00b6d2;stroke-width:1" d="M195.017 189.853c-18.83-.98-38.637-6.829-54.99-16.239-19.937-11.472-36.475-28.333-47.501-48.428C71.347 86.588 72.297 39.316 95.01 1.63c7.91-13.125 19.231-25.774 31.317-34.99 18.458-14.074 39.547-22.381 63.442-24.991 4.25-.464 19.827-.464 24.077 0 23.905 2.61 44.977 10.912 63.442 24.992 9.724 7.414 19.91 18.076 26.914 28.173 26.794 38.62 29.467 89.222 6.887 130.373-16.628 30.306-45.173 52.476-78.457 60.938-8.384 2.131-16.114 3.298-24.871 3.752-5.534.287-6.843.285-12.744-.023zm11.505-46.433c7.995-1.061 16.258-4.22 23.2-8.87 2.353-1.576 3.563-2.541 7.717-6.159l1.103-.96.317.994c.174.547.868 2.066 1.542 3.376.967 1.877 1.73 2.89 3.608 4.789 4.257 4.304 9.326 6.456 15.213 6.456 5.832 0 10.904-2.125 15.105-6.326 4.505-4.507 6.574-9.862 6.245-16.164-.184-3.546-.652-5.29-2.343-8.731-1.207-2.46-1.655-3.067-3.902-5.292-2.885-2.86-5.719-4.543-9.416-5.595-2.542-.723-8.063-.862-10.4-.262-.771.198-1.468.296-1.547.216-.08-.08.075-1.373.345-2.874.684-3.816.693-14.526.015-18.208-1.056-5.733-2.308-9.715-4.534-14.424-4.87-10.298-12.112-18.347-21.515-23.907-5.948-3.517-17.464-9.552-18.974-9.944-6.359-1.647-12.937 1.433-15.799 7.397-.996 2.077-1.106 2.514-1.219 4.847-.222 4.615.894 7.663 3.892 10.633 1.533 1.518 2.627 2.201 9.279 5.797 4.147 2.243 8.521 4.71 9.72 5.482 8.895 5.73 13.914 17.079 12.116 27.392-1.981 11.359-9.623 19.658-20.955 22.76-1.7.464-2.834.569-6.305.582-7.005.027-8.43-.462-20.506-7.033-4.438-2.415-8.716-4.582-9.506-4.815-1.882-.556-5.82-.558-7.71-.003-2.39.702-4.393 1.931-6.076 3.73-2.655 2.839-3.695 5.517-3.695 9.516 0 3.005.648 5.199 2.24 7.576 1.492 2.228 3.32 3.619 8.246 6.272 2.297 1.237 6.298 3.395 8.89 4.796 2.594 1.4 5.97 3.04 7.502 3.643 9.021 3.55 18.184 4.63 28.107 3.313zm-3.524-42.483c6.102-1.984 10.036-8.297 9.177-14.73-.496-3.71-2.63-7.354-5.435-9.28-.603-.413-4.549-2.63-8.769-4.924-9.14-4.97-10.205-5.663-12.985-8.444-4.605-4.604-7.306-10.333-8.047-17.066-.668-6.076 1.098-12.852 4.773-18.309 1.452-2.156 4.932-5.64 7.077-7.084 5.344-3.599 12.465-5.47 18.318-4.816 3.204.358 6.211 1.15 8.654 2.279 1.061.49 5.258 2.694 9.325 4.898 4.067 2.203 8.008 4.239 8.758 4.524.75.284 2.272.586 3.383.67 9.827.737 17.243-8.775 14.058-18.031-.89-2.591-2.534-4.911-4.496-6.35-1.284-.94-13.172-7.504-17.73-9.788-7.098-3.557-14.073-5.307-22.37-5.611-14.72-.54-28.343 4.444-39.51 14.457l-2.34 2.097-.327-1.108c-.456-1.539-2.003-4.571-3.08-6.038-1.35-1.84-4.089-4.29-6.188-5.537-12.236-7.27-28.105-.81-31.804 12.945-.714 2.655-.774 7.796-.122 10.487 1.466 6.056 6.16 11.75 11.9 14.437 3.797 1.777 9.593 2.383 13.645 1.428.93-.22 1.718-.366 1.75-.327.031.04-.164 1.323-.434 2.85-.663 3.743-.915 10.977-.512 14.685 1.365 12.571 6.322 23.516 14.83 32.75 2.078 2.255 6.04 5.59 9.106 7.661 2.609 1.764 18.73 10.637 20.4 11.228 2.722.964 6.119.981 8.995.047z" transform="translate(-36.809 99.306)"/></svg>