<svg width="200mm" height="200mm" viewBox="0 0 200 200" xmlns="http://www.w3.org/2000/svg"><path style="fill:#171d2b;fill-opacity:1;stroke-width:.15875;paint-order:markers stroke fill" d="M17.122 38.684h200v200h-200z" transform="translate(-17.122 -38.684)"/><path style="fill:#19d6fc;stroke-width:1" d="M47.553 213.446c-.225-.272-.217-.427.034-.627.184-.147 3.668-1.944 7.743-3.995 13.678-6.884 25.627-13.794 37.835-21.877 4.257-2.819 11.744-8.065 14.359-10.061.924-.706 1.278-.846 1.555-.617.295.245.358 3.499.358 18.407 0 11.977-.093 18.282-.274 18.62-.268.502-.89.512-30.792.512-25.487 0-30.567-.06-30.818-.362zm87.337.045c-.243-.243-.318-7.103-.318-29.265V155.28l4.406-4.536c21.062-21.682 35.265-43.102 44.149-66.58 1.119-2.959 1.792-4.394 2.087-4.453.404-.08.43 3.293.35 45.64-.085 45.588-.087 45.736-.651 48.299-1.76 7.995-4.474 14.266-8.584 19.84-8.636 11.717-21.202 18.764-35.751 20.052-3.91.347-5.304.334-5.688-.05zm-94.774-76.266c0-26.716.04-27.62 1.45-33.42 2.99-12.297 10.943-23.214 21.844-29.986 6.29-3.908 13.98-6.428 21.698-7.111 3.919-.347 96.267-.366 96.814-.02.473.299-.352 1.56-4.589 7.018-8.048 10.368-19.215 21.82-30.218 30.99-27.015 22.513-61.377 41.37-101.18 55.527-2.67.95-5.07 1.727-5.336 1.727-.464 0-.483-.97-.483-24.725z" transform="translate(-17.122 -38.684)"/></svg>