<svg width="33" height="33" viewBox="0 0 33 33" fill="none" xmlns="http://www.w3.org/2000/svg">
<path d="M30.6827 13.6541H2.11807C1.31138 13.6541 0.657372 14.3081 0.657372 15.1148V28.292C0.657372 29.0987 1.31131 29.7527 2.11807 29.7527H30.6827C31.4894 29.7527 32.1434 29.0988 32.1434 28.292V15.1149C32.1434 14.3081 31.4894 13.6541 30.6827 13.6541Z" fill="#10BB67"/>
<path d="M32.0078 4.27395L31.315 3.58108C30.8686 3.13468 30.1447 3.13468 29.6983 3.58108L27.5504 5.72898L29.8599 8.03853L32.0078 5.89063C32.4543 5.44416 32.4543 4.72042 32.0078 4.27395Z" fill="white"/>
<path d="M27.5504 5.72898L13.8317 19.4477L12.677 22.912L16.1413 21.7572L29.8599 8.03853L27.5504 5.72898Z" fill="#0D70B2"/>
<path d="M19.353 12.9968H2.11806C0.950168 12.9968 0 13.9469 0 15.1149V28.2921C0 29.46 0.950168 30.4102 2.11806 30.4102H30.6827C31.8506 30.4102 32.8008 29.46 32.8008 28.2921V15.1149C32.8008 13.9469 31.8506 12.9968 30.6827 12.9968H25.8314L32.4726 6.35553C32.8127 6.01535 33 5.56321 33 5.08232C33 4.60144 32.8127 4.1493 32.4726 3.80918L31.7798 3.11631C31.0777 2.41428 29.9354 2.41428 29.2334 3.11631L19.353 12.9968ZM27.5504 6.65859L28.9302 8.03846L15.7861 21.1826L13.7163 21.8726L14.4062 19.8028L27.5504 6.65859ZM30.163 4.04598C30.3524 3.85668 30.6607 3.85655 30.85 4.04598L31.5429 4.73885C31.6347 4.83063 31.6852 4.95258 31.6852 5.08232C31.6852 5.21213 31.6347 5.33408 31.5429 5.42586L29.8598 7.10892L28.678 5.92711L28.48 5.72911L30.163 4.04598ZM31.486 28.2921C31.486 28.735 31.1256 29.0954 30.6827 29.0954H2.11806C1.67514 29.0954 1.31478 28.7351 1.31478 28.2921V15.1149C1.31478 14.672 1.67514 14.3116 2.11806 14.3116H18.0382L13.3669 18.9829C13.2947 19.0551 13.2403 19.1432 13.2081 19.2399L12.0533 22.7042C11.9746 22.9404 12.036 23.2008 12.2121 23.3769C12.3374 23.5022 12.5055 23.5694 12.6771 23.5694C12.7466 23.5694 12.8168 23.5584 12.8849 23.5356L16.3492 22.381C16.446 22.3487 16.534 22.2943 16.6062 22.2221L24.5166 14.3116H30.6827C31.1256 14.3116 31.486 14.672 31.486 15.115V28.2921Z" fill="#4D3D36"/>
<path d="M29.0732 26.3047H28.6813C28.3182 26.3047 28.024 26.5991 28.024 26.9621C28.024 27.3251 28.3182 27.6195 28.6813 27.6195H29.0732C29.4363 27.6195 29.7305 27.3251 29.7305 26.9621C29.7305 26.5991 29.4363 26.3047 29.0732 26.3047Z" fill="#4D3D36"/>
<path d="M26.0683 26.3047H11.1091C10.7461 26.3047 10.4518 26.5991 10.4518 26.9621C10.4518 27.3251 10.7461 27.6195 11.1091 27.6195H26.0683C26.4313 27.6195 26.7256 27.3251 26.7256 26.9621C26.7257 26.5991 26.4314 26.3047 26.0683 26.3047Z" fill="#4D3D36"/>
<path d="M29.0732 22.5159H19.2746C18.9116 22.5159 18.6173 22.8103 18.6173 23.1733C18.6173 23.5363 18.9116 23.8306 19.2746 23.8306H29.0732C29.4363 23.8306 29.7306 23.5363 29.7306 23.1733C29.7306 22.8103 29.4363 22.5159 29.0732 22.5159Z" fill="#4D3D36"/>
<path d="M6.93433 20.3808V17.9434C7.7748 18.0034 8.08694 18.3877 8.37511 18.3877C8.73528 18.3877 8.90343 17.9314 8.90343 17.7033C8.90343 17.115 7.75082 16.8629 6.93433 16.8389V16.5147C6.93433 16.3706 6.75418 16.2385 6.57416 16.2385C6.37004 16.2385 6.22592 16.3706 6.22592 16.5147V16.8629C5.08523 16.983 3.94467 17.5833 3.94467 19.0962C3.94467 20.6331 5.14537 21.0653 6.22592 21.4496V24.2711C5.00125 24.1751 4.67705 23.3345 4.28086 23.3345C3.9807 23.3345 3.72856 23.7307 3.72856 24.0189C3.72856 24.6072 4.73712 25.4117 6.22599 25.4357V25.8079C6.22599 25.952 6.3701 26.0841 6.57423 26.0841C6.75437 26.0841 6.93439 25.952 6.93439 25.8079V25.3997C8.23112 25.2195 9.11961 24.4031 9.11961 22.9262C9.11961 21.2933 7.97892 20.765 6.93433 20.3808ZM6.29798 20.1527C5.66164 19.9126 5.14537 19.6605 5.14537 18.976C5.14537 18.3517 5.62567 18.0516 6.29798 17.9675V20.1527ZM6.86227 24.2469V21.7135C7.4506 21.9656 7.91885 22.3018 7.91885 23.0583C7.91891 23.7427 7.51067 24.1269 6.86227 24.2469Z" fill="#4D3D36"/>
</svg>
