<svg width="39" height="39" viewBox="0 0 39 39" fill="none" xmlns="http://www.w3.org/2000/svg">
<g clip-path="url(#clip0)">
<path d="M37.2273 24.8182H1.77275C0.797748 24.8182 0 24.0204 0 23.0454V3.54542C0 2.57042 0.797748 1.77267 1.77275 1.77267H37.2273C38.2023 1.77267 39.0001 2.57042 39.0001 3.54542V23.0454C39 24.0204 38.2023 24.8182 37.2273 24.8182Z" fill="#0E9347"/>
<path d="M32.7953 17.7272C30.7567 17.7272 28.8953 18.7022 27.8317 20.2977C26.9453 19.8546 25.9703 19.5 24.8181 19.5C21.7158 19.5 19.1453 21.8046 18.7022 24.8181H37.2272C38.1135 24.8181 38.8226 24.1977 38.9999 23.3113C38.6453 20.2091 35.9863 17.7272 32.7953 17.7272Z" fill="#0D8944"/>
<path d="M33.6817 23.0454H5.318C5.318 21.0954 3.72258 19.5 1.77258 19.5V7.09089C3.72258 7.09089 5.318 5.49547 5.318 3.54547H33.6817C33.6817 5.49547 35.2771 7.09089 37.2271 7.09089V19.5C35.2771 19.5 33.6817 21.0954 33.6817 23.0454Z" fill="#3BB54A"/>
<path d="M32.7954 17.7272C30.7568 17.7272 28.8954 18.7022 27.8318 20.2977C26.9454 19.8546 25.9704 19.5 24.8182 19.5C22.3364 19.5 20.2091 20.9182 19.2341 23.0454H33.6818C33.6818 21.0954 35.1887 19.5886 37.1387 19.5C35.9864 18.4363 34.4796 17.7272 32.7954 17.7272Z" fill="#0E9347"/>
<path d="M19.5001 21.2727C23.4163 21.2727 26.591 17.7011 26.591 13.2954C26.591 8.88971 23.4163 5.31818 19.5001 5.31818C15.5839 5.31818 12.4092 8.88971 12.4092 13.2954C12.4092 17.7011 15.5839 21.2727 19.5001 21.2727Z" fill="#0E9347"/>
<path d="M8.86338 15.0682C9.84245 15.0682 10.6361 14.2745 10.6361 13.2955C10.6361 12.3164 9.84245 11.5227 8.86338 11.5227C7.88432 11.5227 7.09064 12.3164 7.09064 13.2955C7.09064 14.2745 7.88432 15.0682 8.86338 15.0682Z" fill="#0E9347"/>
<path d="M30.1364 15.0682C31.1154 15.0682 31.9091 14.2745 31.9091 13.2955C31.9091 12.3164 31.1154 11.5227 30.1364 11.5227C29.1573 11.5227 28.3636 12.3164 28.3636 13.2955C28.3636 14.2745 29.1573 15.0682 30.1364 15.0682Z" fill="#0E9347"/>
<path d="M20.3866 12.4091H18.6138C18.082 12.4091 17.7275 12.0545 17.7275 11.5228C17.7275 10.9909 18.0821 10.6364 18.6138 10.6364H21.2729C21.8048 10.6364 22.1593 10.2818 22.1593 9.75009C22.1593 9.21826 21.8047 8.86375 21.2729 8.86375H20.3866C20.3866 8.33192 20.032 7.97742 19.5003 7.97742C18.9684 7.97742 18.6139 8.332 18.6139 8.86375C17.1071 8.86375 15.9548 10.016 15.9548 11.5228C15.9548 13.0297 17.1071 14.1819 18.6139 14.1819H20.3867C20.9185 14.1819 21.273 14.5365 21.273 15.0683C21.273 15.6001 20.9184 15.9546 20.3867 15.9546H17.7276C17.1957 15.9546 16.8412 16.3092 16.8412 16.8409C16.8412 17.3728 17.1958 17.7273 17.7276 17.7273H18.6139C18.6139 18.2591 18.9685 18.6136 19.5003 18.6136C20.0321 18.6136 20.3866 18.259 20.3866 17.7273C21.8934 17.7273 23.0457 16.575 23.0457 15.0682C23.0457 13.5613 21.8934 12.4091 20.3866 12.4091Z" fill="#89C763"/>
<path d="M23.0453 31.9092C26.472 31.9092 29.2499 29.1313 29.2499 25.7046C29.2499 22.2779 26.472 19.5 23.0453 19.5C19.6186 19.5 16.8407 22.2779 16.8407 25.7046C16.8407 29.1313 19.6186 31.9092 23.0453 31.9092Z" fill="#FFCA5D"/>
<path d="M31.0227 30.1364C34.4494 30.1364 37.2273 27.3585 37.2273 23.9318C37.2273 20.5051 34.4494 17.7272 31.0227 17.7272C27.596 17.7272 24.8181 20.5051 24.8181 23.9318C24.8181 27.3585 27.596 30.1364 31.0227 30.1364Z" fill="#F6B545"/>
<path d="M31.0227 17.7272C27.5659 17.7272 24.8181 20.475 24.8181 23.9318C24.8181 27.3886 27.5659 30.1364 31.0227 30.1364C34.4796 30.1364 37.2273 27.3886 37.2273 23.9318C37.2273 20.475 34.4796 17.7272 31.0227 17.7272ZM31.0227 28.3636C28.5409 28.3636 26.5909 26.4136 26.5909 23.9318C26.5909 21.45 28.5409 19.5 31.0227 19.5C33.5046 19.5 35.4546 21.45 35.4546 23.9318C35.4546 26.4136 33.5046 28.3636 31.0227 28.3636Z" fill="#FFCB5B"/>
<path d="M31.0226 30.0478C34.4794 30.1364 37.2272 27.3 37.2272 23.9319H37.1385C36.6953 23.9319 36.3408 24.2864 36.2522 24.7296C36.0749 25.9705 35.4544 27.1228 34.5681 27.9205C33.859 28.6296 32.884 29.0728 31.8203 29.25C31.3771 29.25 31.0226 29.6046 31.0226 30.0478Z" fill="#F6B545"/>
<path d="M31.0227 17.8159C27.5659 17.7273 24.8181 20.5637 24.8181 23.9318H24.9068C25.35 23.9318 25.7046 23.5773 25.7931 23.1341C25.9704 21.8932 26.5909 20.7409 27.4772 19.9432C28.1863 19.2341 29.1613 18.7909 30.225 18.6136C30.6681 18.6137 31.0227 18.2591 31.0227 17.8159Z" fill="#FFE27A"/>
<path d="M27.2111 24.5523C27.2111 22.0704 29.1611 20.1204 31.643 20.1204C32.7066 20.1204 33.6816 20.475 34.4793 21.1841C33.593 20.1204 32.4407 19.5 31.0226 19.5C28.5407 19.5 26.5907 21.45 26.5907 23.9318C26.5907 25.35 27.2111 26.5023 28.1861 27.3C27.5657 26.5909 27.2111 25.6159 27.2111 24.5523Z" fill="#F19920"/>
<path d="M33.682 26.6796C33.5933 26.6796 33.5047 26.6796 33.4161 26.591C33.2388 26.4137 33.2388 26.1478 33.4161 25.9705C33.9479 25.4387 34.2138 24.641 34.2138 23.9319C34.2138 23.666 34.3911 23.4887 34.657 23.4887C34.9229 23.4887 35.1002 23.666 35.1002 23.9319C35.1002 24.9069 34.7456 25.8819 34.1252 26.591C33.9479 26.6796 33.7706 26.6796 33.682 26.6796Z" fill="#FFCB5B"/>
<path d="M31.0225 26.5909C30.4907 26.5909 30.1362 26.2363 30.1362 25.7045V22.1591C30.1362 21.6273 30.4908 21.2728 31.0225 21.2728C31.5543 21.2728 31.9088 21.6273 31.9088 22.1591V25.7045C31.9088 26.2363 31.5543 26.5909 31.0225 26.5909Z" fill="#F19920"/>
<path d="M34.3021 29.1613C33.6817 26.9454 32.0862 25.1727 30.0475 24.375C29.693 22.3363 28.3634 20.5637 26.6794 19.5C25.6157 20.6523 24.9066 22.1591 24.9066 23.8432C24.9066 27.3 27.6544 30.0477 31.1112 30.0477C32.2635 30.1363 33.3271 29.7818 34.3021 29.1613Z" fill="#F19920"/>
<path d="M28.1862 27.3C27.5658 26.5022 27.1226 25.5272 27.1226 24.4636C27.1226 23.2227 27.6544 22.0705 28.5407 21.2727C28.3635 21.0068 28.1861 20.8295 28.0089 20.6523C27.1226 21.45 26.5907 22.6023 26.5907 23.9319C26.5908 25.35 27.2112 26.5022 28.1862 27.3Z" fill="#E78825"/>
<path d="M30.1362 24.4637V25.7046C30.1362 26.2364 30.4908 26.5909 31.0225 26.5909C31.5543 26.5909 31.9089 26.2364 31.9089 25.7046V25.5273C31.3771 25.0841 30.7567 24.7296 30.1362 24.4637Z" fill="#E78825"/>
<path d="M34.3022 29.1613C34.125 28.5409 33.9477 28.009 33.5931 27.4772C32.8841 28.009 31.9977 28.3635 31.0227 28.3635C28.5409 28.3635 26.5909 26.4135 26.5909 23.9317C26.5909 22.6021 27.1227 21.4499 28.0091 20.6521C27.5659 20.209 27.1227 19.8544 26.5909 19.5885C25.5272 20.7407 24.8181 22.2476 24.8181 23.9316C24.8181 27.3885 27.5659 30.1362 31.0227 30.1362C32.2636 30.1363 33.3272 29.7818 34.3022 29.1613Z" fill="#F6B545"/>
<path d="M34.0362 28.3637C33.4158 28.8069 32.6181 29.0728 31.8203 29.25C31.3772 29.3387 31.0226 29.6932 31.0226 30.1364C32.2635 30.1364 33.3272 29.7818 34.3022 29.1614C34.2136 28.8955 34.1249 28.6296 34.0362 28.3637Z" fill="#F19920"/>
<path d="M26.5909 19.5887C25.5272 20.7409 24.8181 22.2478 24.8181 23.9319H24.9068C25.35 23.9319 25.7046 23.5773 25.7931 23.1341C25.9704 21.8932 26.5909 20.8295 27.3886 20.0319C27.1227 19.9432 26.8568 19.7659 26.5909 19.5887Z" fill="#FFCB5B"/>
<path d="M23.0453 31.9092C26.472 31.9092 29.2499 29.1313 29.2499 25.7046C29.2499 22.2779 26.472 19.5 23.0453 19.5C19.6186 19.5 16.8407 22.2779 16.8407 25.7046C16.8407 29.1313 19.6186 31.9092 23.0453 31.9092Z" fill="#F6B545"/>
<path d="M22.1593 30.1363C22.1593 30.7568 22.2479 31.2886 22.4252 31.9091C22.6024 31.9091 22.8684 31.9091 23.0456 31.9091C26.5024 31.9091 29.2502 29.1613 29.2502 25.7045C29.2502 25.0841 29.1615 24.5523 28.9843 23.9318C28.807 23.9318 28.5411 23.9318 28.3639 23.9318C24.907 23.9318 22.1593 26.6796 22.1593 30.1363Z" fill="#F19920"/>
<path d="M23.0453 19.5C19.5885 19.5 16.8407 22.2477 16.8407 25.7046C16.8407 29.1614 19.5885 31.9092 23.0453 31.9092C26.5021 31.9092 29.2499 29.1613 29.2499 25.7046C29.2499 22.2478 26.5021 19.5 23.0453 19.5ZM23.0453 30.1363C20.5635 30.1363 18.6135 28.1863 18.6135 25.7045C18.6135 23.2227 20.5635 21.2727 23.0453 21.2727C25.5271 21.2727 27.4771 23.2227 27.4771 25.7045C27.4771 28.1863 25.5271 30.1363 23.0453 30.1363Z" fill="#FFCB5B"/>
<path d="M23.0452 31.8204C26.502 31.909 29.2497 29.0727 29.2497 25.7045H29.1611C28.7179 25.7045 28.3633 26.0591 28.2747 26.5023C28.0975 27.7432 27.477 28.8954 26.5907 29.6932C25.8816 30.4023 24.9066 30.8454 23.8429 31.0228C23.3997 31.0227 23.0452 31.3772 23.0452 31.8204Z" fill="#F6B545"/>
<path d="M23.0453 19.5887C19.5885 19.5 16.8407 22.3364 16.8407 25.7046H16.9294C17.3726 25.7046 17.7271 25.35 17.8157 24.9069C17.993 23.6659 18.6135 22.5137 19.4998 21.7159C20.2089 21.0069 21.1839 20.5637 22.2476 20.3864C22.6908 20.3864 23.0453 20.0319 23.0453 19.5887Z" fill="#FFE27A"/>
<path d="M19.2342 26.325C19.2342 23.8432 21.1842 21.8932 23.666 21.8932C24.7297 21.8932 25.7047 22.2478 26.5024 22.9568C25.616 21.8932 24.4637 21.2728 23.0455 21.2728C20.5637 21.2728 18.6137 23.2228 18.6137 25.7046C18.6137 27.1228 19.2341 28.275 20.2091 29.0728C19.5888 28.3637 19.2342 27.3887 19.2342 26.325Z" fill="#F19920"/>
<path d="M25.7046 28.4522C25.6159 28.4522 25.5273 28.4522 25.4387 28.3635C25.2614 28.1863 25.2614 27.9204 25.4387 27.7431C25.9705 27.2113 26.2364 26.4135 26.2364 25.7045C26.2364 25.4385 26.4137 25.2613 26.6796 25.2613C26.9455 25.2613 27.1227 25.4385 27.1227 25.7045C27.1227 26.6795 26.7682 27.6545 26.1477 28.3635C25.9704 28.4522 25.7932 28.4522 25.7046 28.4522Z" fill="#FFCB5B"/>
<path d="M23.0456 28.3637C22.5138 28.3637 22.1593 28.0091 22.1593 27.4773V23.9319C22.1593 23.4001 22.5139 23.0456 23.0456 23.0456C23.5774 23.0456 23.9319 23.4001 23.9319 23.9319V27.4773C23.932 28.0091 23.5774 28.3637 23.0456 28.3637Z" fill="#F19920"/>
<path d="M27.1233 24.0204C27.3005 24.5523 27.4779 25.0841 27.4779 25.7045C27.4779 28.1863 25.5279 30.1363 23.046 30.1363C22.7801 30.1363 22.4256 30.1363 22.1597 30.0477V30.1363C22.1597 30.7568 22.2484 31.2886 22.4256 31.9091C22.6029 31.9091 22.8688 31.9091 23.046 31.9091C26.5029 31.9091 29.2506 29.1613 29.2506 25.7045C29.2506 25.0841 29.162 24.5523 28.9847 23.9318C28.8074 23.9318 28.5415 23.9318 28.3643 23.9318C27.921 23.9318 27.5665 23.9318 27.1233 24.0204Z" fill="#F6B545"/>
<path d="M27.4776 37.2273C30.9043 37.2273 33.6822 34.4494 33.6822 31.0227C33.6822 27.596 30.9043 24.8181 27.4776 24.8181C24.0509 24.8181 21.273 27.596 21.273 31.0227C21.273 34.4494 24.0509 37.2273 27.4776 37.2273Z" fill="#F6B545"/>
<path d="M27.4772 24.8181C24.0203 24.8181 21.2726 27.5659 21.2726 31.0227C21.2726 34.4796 24.0203 37.2273 27.4772 37.2273C30.934 37.2273 33.6817 34.4796 33.6817 31.0227C33.6817 27.5659 30.934 24.8181 27.4772 24.8181ZM27.4772 35.4546C24.9953 35.4546 23.0453 33.5046 23.0453 31.0227C23.0453 28.5409 24.9953 26.5909 27.4772 26.5909C29.959 26.5909 31.909 28.5409 31.909 31.0227C31.909 33.5046 29.959 35.4546 27.4772 35.4546Z" fill="#FFCB5B"/>
<path d="M27.4774 37.1387C30.9342 37.2273 33.682 34.3909 33.682 31.0228H33.5933C33.1502 31.0228 32.7956 31.3773 32.707 31.8205C32.5297 33.0614 31.9093 34.2137 31.0229 35.0114C30.3138 35.7205 29.3388 36.1637 28.2752 36.341C27.832 36.3409 27.4774 36.6954 27.4774 37.1387Z" fill="#F6B545"/>
<path d="M27.4772 24.9069C24.0203 24.8182 21.2726 27.6546 21.2726 31.0228H21.3612C21.8044 31.0228 22.159 30.6682 22.2476 30.225C22.4248 28.9841 23.0453 27.8319 23.9317 27.0341C24.6408 26.325 25.6158 25.8819 26.6794 25.7045C27.1227 25.7046 27.4772 25.35 27.4772 24.9069Z" fill="#FFE27A"/>
<path d="M23.6657 31.6432C23.6657 29.1614 25.6157 27.2114 28.0975 27.2114C29.1612 27.2114 30.1362 27.5659 30.9338 28.275C30.0475 27.2114 28.8952 26.5909 27.477 26.5909C24.9952 26.5909 23.0452 28.5409 23.0452 31.0228C23.0452 32.4409 23.6656 33.5932 24.6406 34.3909C24.0202 33.6819 23.6657 32.7069 23.6657 31.6432Z" fill="#F19920"/>
<path d="M30.1364 33.7704C30.0478 33.7704 29.9592 33.7704 29.8705 33.6818C29.6933 33.5045 29.6933 33.2386 29.8705 33.0614C30.4024 32.5295 30.6683 31.7318 30.6683 31.0227C30.6683 30.7568 30.8455 30.5795 31.1114 30.5795C31.3774 30.5795 31.5546 30.7568 31.5546 31.0227C31.5546 31.9977 31.2 32.9727 30.5796 33.6818C30.4024 33.7704 30.2251 33.7704 30.1364 33.7704Z" fill="#FFCB5B"/>
<path d="M27.4771 33.6819C26.9452 33.6819 26.5907 33.3273 26.5907 32.7955V29.25C26.5907 28.7182 26.9453 28.3637 27.4771 28.3637C28.0089 28.3637 28.3634 28.7183 28.3634 29.25V32.7955C28.3635 33.3273 28.0089 33.6819 27.4771 33.6819Z" fill="#F19920"/>
</g>
<defs>
<clipPath id="clip0">
<rect width="39" height="39" fill="white"/>
</clipPath>
</defs>
</svg>
