<?xml version="1.0" encoding="UTF-8" standalone="no"?>
<svg
   xml:space="preserve"
   width="360"
   height="360"
   version="1.1"
   id="svg10"
   sodipodi:docname="neon.svg"
   inkscape:version="1.1.1 (3bf5ae0d25, 2021-09-20)"
   xmlns:inkscape="http://www.inkscape.org/namespaces/inkscape"
   xmlns:sodipodi="http://sodipodi.sourceforge.net/DTD/sodipodi-0.dtd"
   xmlns="http://www.w3.org/2000/svg"
   xmlns:svg="http://www.w3.org/2000/svg"><defs
     id="defs14" /><sodipodi:namedview
     id="namedview12"
     pagecolor="#ffffff"
     bordercolor="#666666"
     borderopacity="1.0"
     inkscape:pageshadow="2"
     inkscape:pageopacity="0.0"
     inkscape:pagecheckerboard="0"
     showgrid="false"
     inkscape:zoom="1.1902913"
     inkscape:cx="-21.843393"
     inkscape:cy="145.76264"
     inkscape:window-width="2560"
     inkscape:window-height="1017"
     inkscape:window-x="-8"
     inkscape:window-y="-8"
     inkscape:window-maximized="1"
     inkscape:current-layer="g8" /><g
     style="stroke-width:1.03427"
     id="g8"
     transform="translate(8.58992e-4,6.5887697e-4)"><path
       style="fill:#00b7e7;fill-opacity:1;stroke-width:0.6;paint-order:markers stroke fill"
       d="M -8.58488e-4,-6.5831546e-4 H 359.99914 V 359.99934 H -8.58488e-4 Z"
       id="path2" /><g
       style="fill:#ffffff;stroke-width:0.350707"
       id="g6"
       transform="translate(1.2414295,0.98697598)"><path
         d="M 26.888,102.787 C 12.041,102.79 0.003,90.756 0.001,75.909 a 26.88,26.88 0 0 1 7.865,-19.006 5.606,5.606 0 0 1 7.928,-0.005 5.605,5.605 0 0 1 0.005,7.928 c -6.119,6.125 -6.115,16.05 0.009,22.169 6.123,6.12 16.049,6.116 22.169,-0.007 6.117,-6.121 6.117,-16.041 0,-22.162 a 5.605,5.605 0 0 1 0.006,-7.928 5.606,5.606 0 0 1 7.928,0.005 c 10.494,10.503 10.487,27.524 -0.016,38.018 a 26.88,26.88 0 0 1 -19,7.866 h -0.007"
         style="fill:#ffffff;stroke:none;stroke-width:0.350707"
         transform="matrix(3.80185,0,0,-3.80185,76.53,467.59)"
         id="path4" /></g></g></svg>
