<?xml version="1.0" encoding="UTF-8" standalone="no"?>
<svg
   width="966"
   height="966.00006"
   xml:space="preserve"
   version="1.1"
   id="svg26"
   sodipodi:docname="paypal.svg"
   inkscape:version="1.1.1 (3bf5ae0d25, 2021-09-20)"
   xmlns:inkscape="http://www.inkscape.org/namespaces/inkscape"
   xmlns:sodipodi="http://sodipodi.sourceforge.net/DTD/sodipodi-0.dtd"
   xmlns="http://www.w3.org/2000/svg"
   xmlns:svg="http://www.w3.org/2000/svg"><defs
     id="defs30" /><sodipodi:namedview
     id="namedview28"
     pagecolor="#ffffff"
     bordercolor="#666666"
     borderopacity="1.0"
     inkscape:pageshadow="2"
     inkscape:pageopacity="0.0"
     inkscape:pagecheckerboard="0"
     showgrid="false"
     inkscape:zoom="0.44741376"
     inkscape:cx="766.62818"
     inkscape:cy="550.94416"
     inkscape:window-width="2560"
     inkscape:window-height="1017"
     inkscape:window-x="-8"
     inkscape:window-y="-8"
     inkscape:window-maximized="1"
     inkscape:current-layer="svg26" /><path
     style="fill:#ececec;stroke-width:0.600001;paint-order:markers stroke fill"
     d="M 0,0 H 966 V 966.00004 H 0 Z"
     id="path2" /><g
     style="stroke-width:0.556264"
     id="g24"><g
       style="stroke-width:0.556264"
       id="g14"><path
         style="fill:#009cde;stroke-width:0.556264"
         d="M 98.396,6.933 H 91.37 c -0.479,0 -0.89,0.35 -0.964,0.824 l -2.841,18.015 a 0.585,0.585 0 0 0 0.579,0.676 h 3.604 a 0.682,0.682 0 0 0 0.674,-0.576 l 0.807,-5.107 a 0.975,0.975 0 0 1 0.964,-0.824 h 2.223 c 4.628,0 7.298,-2.239 7.996,-6.678 0.314,-1.941 0.014,-3.467 -0.896,-4.535 -0.998,-1.175 -2.77,-1.795 -5.12,-1.795 z m 0.811,6.579 c -0.384,2.522 -2.31,2.522 -4.173,2.522 h -1.061 l 0.744,-4.708 a 0.586,0.586 0 0 1 0.578,-0.495 h 0.485 c 1.269,0 2.467,0 3.084,0.723 0.37,0.432 0.483,1.072 0.343,1.958 z"
         transform="matrix(9.33419,0,0,9.33419,-288.077,608.172)"
         id="path4" /><path
         style="fill:#003087;stroke-width:0.556264"
         d="m 48.288,6.933 h -7.025 c -0.481,0 -0.89,0.35 -0.965,0.824 l -2.841,18.015 a 0.585,0.585 0 0 0 0.579,0.676 h 3.354 c 0.48,0 0.889,-0.349 0.964,-0.823 l 0.767,-4.86 a 0.977,0.977 0 0 1 0.964,-0.824 h 2.223 c 4.627,0 7.298,-2.239 7.997,-6.678 0.314,-1.941 0.012,-3.467 -0.896,-4.535 -1,-1.175 -2.771,-1.795 -5.121,-1.795 z m 0.811,6.579 c -0.384,2.522 -2.31,2.522 -4.173,2.522 h -1.06 l 0.743,-4.708 a 0.587,0.587 0 0 1 0.579,-0.495 h 0.486 c 1.268,0 2.466,0 3.083,0.723 0.369,0.432 0.481,1.072 0.342,1.958 z m 20.187,-0.08 h -3.363 a 0.585,0.585 0 0 0 -0.579,0.494 l -0.147,0.94 -0.236,-0.341 c -0.728,-1.058 -2.352,-1.41 -3.973,-1.41 -3.716,0 -6.891,2.816 -7.509,6.766 -0.322,1.971 0.135,3.854 1.252,5.169 1.026,1.208 2.492,1.71 4.237,1.71 2.995,0 4.657,-1.924 4.657,-1.924 l -0.15,0.935 a 0.586,0.586 0 0 0 0.578,0.677 h 3.03 c 0.48,0 0.889,-0.349 0.965,-0.822 l 1.817,-11.517 a 0.585,0.585 0 0 0 -0.579,-0.677 z m -4.688,6.547 c -0.325,1.923 -1.851,3.212 -3.797,3.212 -0.976,0 -1.757,-0.314 -2.259,-0.907 -0.498,-0.59 -0.685,-1.429 -0.527,-2.363 0.303,-1.905 1.854,-3.237 3.771,-3.237 0.955,0 1.73,0.316 2.243,0.917 0.514,0.604 0.717,1.449 0.569,2.378 z"
         transform="matrix(9.33419,0,0,9.33419,-288.077,608.172)"
         id="path6" /><path
         style="fill:#009cde;stroke-width:0.556264"
         d="m 119.394,13.432 h -3.363 a 0.585,0.585 0 0 0 -0.578,0.494 l -0.148,0.94 -0.235,-0.341 c -0.729,-1.058 -2.352,-1.41 -3.973,-1.41 -3.718,0 -6.893,2.816 -7.51,6.766 -0.321,1.971 0.135,3.854 1.252,5.169 1.026,1.208 2.492,1.71 4.237,1.71 2.995,0 4.657,-1.924 4.657,-1.924 l -0.15,0.935 a 0.586,0.586 0 0 0 0.578,0.677 h 3.03 a 0.977,0.977 0 0 0 0.964,-0.822 l 1.818,-11.517 a 0.585,0.585 0 0 0 -0.579,-0.677 z m -4.688,6.547 c -0.325,1.923 -1.851,3.212 -3.797,3.212 -0.976,0 -1.757,-0.314 -2.26,-0.907 -0.496,-0.59 -0.685,-1.429 -0.526,-2.363 0.304,-1.905 1.853,-3.237 3.77,-3.237 0.956,0 1.731,0.316 2.243,0.917 0.515,0.604 0.718,1.449 0.57,2.378 z"
         transform="matrix(9.33419,0,0,9.33419,-288.077,608.172)"
         id="path8" /><path
         style="fill:#003087;stroke-width:0.556264"
         d="m 87.204,13.432 h -3.382 a 0.979,0.979 0 0 0 -0.808,0.427 l -4.664,6.87 -1.978,-6.601 a 0.974,0.974 0 0 0 -0.935,-0.696 h -3.324 a 0.587,0.587 0 0 0 -0.555,0.774 l 3.724,10.929 -3.502,4.941 A 0.586,0.586 0 0 0 72.259,31 h 3.379 A 0.978,0.978 0 0 0 76.44,30.58 L 87.686,14.351 a 0.586,0.586 0 0 0 -0.482,-0.919 z"
         transform="matrix(9.33419,0,0,9.33419,-288.077,608.172)"
         id="path10" /><path
         style="fill:#009cde;stroke-width:0.556264"
         d="m 123.359,7.427 -2.883,18.344 a 0.584,0.584 0 0 0 0.578,0.676 h 2.9 c 0.48,0 0.889,-0.349 0.964,-0.822 l 2.843,-18.016 a 0.586,0.586 0 0 0 -0.578,-0.677 h -3.246 a 0.588,0.588 0 0 0 -0.578,0.495 z"
         transform="matrix(9.33419,0,0,9.33419,-288.077,608.172)"
         id="path12" /></g><g
       style="stroke-width:0.556264"
       id="g22"><path
         style="fill:#009cde;stroke-width:0.556264"
         d="M 23.675,7.876 C 24.053,5.464 23.673,3.823 22.368,2.337 20.932,0.701 18.338,0 15.019,0 H 5.384 A 1.38,1.38 0 0 0 4.022,1.164 L 0.01,26.604 A 0.827,0.827 0 0 0 0.827,27.56 H 6.775 L 6.364,30.164 A 0.724,0.724 0 0 0 7.08,31 h 5.014 c 0.593,0 1.098,-0.432 1.191,-1.018 l 0.049,-0.255 0.944,-5.989 0.061,-0.331 a 1.208,1.208 0 0 1 1.191,-1.019 h 0.75 c 4.857,0 8.66,-1.972 9.771,-7.68 0.465,-2.384 0.225,-4.375 -1.003,-5.774 A 4.814,4.814 0 0 0 23.675,7.876"
         transform="matrix(17.75976,0,0,17.75976,271.343,61.312)"
         id="path16" /><path
         style="fill:#012169;stroke-width:0.556264"
         d="M 23.675,7.876 C 24.053,5.464 23.673,3.823 22.368,2.337 20.932,0.701 18.338,0 15.019,0 H 5.384 A 1.38,1.38 0 0 0 4.022,1.164 L 0.01,26.604 A 0.827,0.827 0 0 0 0.827,27.56 H 6.775 L 8.269,18.085 8.223,18.383 A 1.373,1.373 0 0 1 9.58,17.219 h 2.827 c 5.552,0 9.899,-2.256 11.17,-8.779 0.037,-0.193 0.069,-0.379 0.098,-0.564"
         transform="matrix(17.75976,0,0,17.75976,271.343,61.312)"
         id="path18" /><path
         style="fill:#003087;stroke-width:0.556264"
         d="M 9.875,7.908 A 1.205,1.205 0 0 1 11.066,6.89 h 7.553 c 0.895,0 1.729,0.059 2.492,0.182 a 10.708,10.708 0 0 1 1.236,0.274 6.82,6.82 0 0 1 1.33,0.53 C 24.055,5.464 23.675,3.823 22.37,2.337 20.932,0.701 18.338,0 15.019,0 H 5.384 A 1.38,1.38 0 0 0 4.022,1.164 L 0.01,26.604 a 0.827,0.827 0 0 0 0.817,0.956 h 5.948 l 1.494,-9.475 z"
         transform="matrix(17.75976,0,0,17.75976,271.343,61.312)"
         id="path20" /></g></g></svg>
