<svg width="120mm" height="120mm" viewBox="0 0 120 120" xmlns="http://www.w3.org/2000/svg"><g transform="translate(-47.64 -80.827)"><path style="fill:#004f32;fill-opacity:1;stroke-width:.15875;paint-order:markers stroke fill" d="M47.64 80.827h120v120h-120z"/><circle style="fill:#fff;stroke-width:.15875;paint-order:markers stroke fill" cx="107.64" cy="140.827" r="52.615"/><path style="fill:#004f32;stroke-width:1" d="M92.822 182.317c-5.814-.92-11.365-2.9-16.864-6.015l-1.915-1.085-.003-11.046c-.002-7.19.09-11.046.261-11.046.146 0 .266.208.266.463.002.817 4.846 4.421 8.73 6.494 4.696 2.507 9.273 3.691 14.288 3.697 8.477.009 13.464-2.567 16.272-8.405 2.051-4.265 2.062-4.361 2.178-19.381l.102-13.295h16.637l-.017 9.062c-.01 4.984-.118 12.336-.24 16.338-.235 7.722-.453 9.097-2.087 13.162-3.516 8.747-11.333 15.767-21.55 19.353-3.976 1.396-7.02 1.885-11.469 1.844-2.16-.02-4.225-.083-4.589-.14zM82.38 143.666c.155-13.538.232-15.574.682-17.855 1.958-9.928 8.26-17.715 18.36-22.686 6.591-3.244 10.444-4.105 17.462-3.903 3.894.111 4.906.236 7.54.926 4.08 1.07 7.997 2.626 11.46 4.553 1.574.876 2.973 1.592 3.109 1.592.15 0 .248 4.324.248 10.98 0 7.367-.09 10.98-.273 10.98-.15 0-.336-.164-.414-.366-.344-.897-6.31-5.1-9.587-6.754-7.71-3.893-16.937-4.417-23.552-1.338-2.113.984-4.876 3.714-6.082 6.01-.477.91-1.159 2.8-1.514 4.202-.643 2.534-.647 2.622-.647 15.743v13.195H82.205z"/></g></svg>