<?xml version="1.0" encoding="UTF-8" standalone="no"?>
<!-- Created with Inkscape (http://www.inkscape.org/) -->

<svg
   width="135.46666mm"
   height="135.46666mm"
   viewBox="0 0 135.46666 135.46666"
   version="1.1"
   id="svg1199"
   inkscape:version="1.1.1 (3bf5ae0d25, 2021-09-20)"
   sodipodi:docname="infinitepay.svg"
   xmlns:inkscape="http://www.inkscape.org/namespaces/inkscape"
   xmlns:sodipodi="http://sodipodi.sourceforge.net/DTD/sodipodi-0.dtd"
   xmlns="http://www.w3.org/2000/svg"
   xmlns:svg="http://www.w3.org/2000/svg">
  <sodipodi:namedview
     id="namedview1201"
     pagecolor="#ffffff"
     bordercolor="#666666"
     borderopacity="1.0"
     inkscape:pageshadow="2"
     inkscape:pageopacity="0.0"
     inkscape:pagecheckerboard="0"
     inkscape:document-units="mm"
     showgrid="false"
     inkscape:zoom="0.74118967"
     inkscape:cx="218.56753"
     inkscape:cy="313.68489"
     inkscape:window-width="2560"
     inkscape:window-height="1017"
     inkscape:window-x="-8"
     inkscape:window-y="-8"
     inkscape:window-maximized="1"
     inkscape:current-layer="layer1" />
  <defs
     id="defs1196" />
  <g
     inkscape:label="Camada 1"
     inkscape:groupmode="layer"
     id="layer1"
     transform="translate(-47.211378,-65.77388)">
    <g
       id="g1290"
       transform="translate(29.271631,11.780048)">
      <path
         style="fill:#00ebec;stroke-width:0.264583"
         d="m 86.775321,160.22422 c 0.08598,-0.086 1.109646,-0.38402 2.274802,-0.66232 12.596057,-3.00848 25.162237,-15.98181 30.240347,-31.22015 1.59465,-4.78523 2.11738,-7.71983 2.28575,-12.8323 0.15922,-4.83465 -0.0894,-7.60555 -1.00873,-11.24087 -0.30054,-1.1885 -0.49199,-2.21537 -0.42543,-2.28192 0.0665,-0.0666 0.5532,0.88503 1.08143,2.11464 4.13474,9.62474 3.49491,20.93808 -1.79739,31.78107 -5.83621,11.95737 -16.17354,20.7224 -27.729776,23.51207 -2.909228,0.70229 -5.175681,1.08446 -4.921003,0.82978 z"
         id="path1302" />
      <path
         style="fill:#faaf01;stroke-width:0.264583"
         d="m 64.823059,153.47769 c -5.369776,-3.77105 -10.959731,-10.37917 -14.329634,-16.93968 -5.736084,-11.16698 -6.503827,-22.25839 -2.15153,-31.08272 2.250889,-4.56371 5.399052,-8.094127 9.871212,-11.069798 2.252347,-1.498661 7.29249,-4.026506 7.538246,-3.780747 0.07109,0.07109 -0.345787,0.371602 -0.926394,0.667805 -3.137469,1.600616 -7.437657,5.603383 -9.739532,9.0659 -6.895157,10.37179 -7.210615,25.86958 -0.784145,38.52352 2.052643,4.04172 6.960928,10.57986 10.352732,13.79049 1.247844,1.18119 2.22004,2.14762 2.160432,2.14762 -0.05961,0 -0.955733,-0.59508 -1.991387,-1.32239 z"
         id="path1300" />
      <path
         style="fill:#f1233a;stroke-width:0.264583"
         d="m 57.854649,144.54747 c -5.312346,-7.10508 -8.16792,-15.8863 -8.163343,-25.10322 0.0084,-16.90666 9.933337,-29.021719 26.498991,-32.346475 4.4421,-0.891538 5.130808,-0.902923 2.570303,-0.0425 -8.841555,2.971094 -15.556354,9.137324 -19.913242,18.286425 -2.431402,5.10574 -3.772014,9.91675 -4.425479,15.88159 -0.370091,3.37819 -0.1603,9.81778 0.425847,13.07158 0.531204,2.94879 2.276932,8.26461 3.323537,10.12031 0.430882,0.76399 0.747339,1.38906 0.703238,1.38906 -0.0441,0 -0.503036,-0.56554 -1.019852,-1.25677 z"
         id="path1298" />
      <path
         style="fill:#1c1efb;stroke-width:0.264583"
         d="m 90.763962,158.63233 c 0.980974,-0.50972 2.619274,-1.71511 3.640666,-2.67864 3.760695,-3.54765 6.289702,-8.5154 8.871072,-17.42549 1.9767,-6.82297 3.39427,-9.29836 8.4073,-14.68096 1.77459,-1.90542 3.91045,-4.26326 4.74635,-5.23964 2.62579,-3.06706 4.38949,-7.50419 4.45989,-11.22017 l 0.0266,-1.40298 0.29056,1.05834 c 0.16941,0.6171 0.29235,3.48508 0.29486,6.87916 0.004,5.06865 -0.0733,6.17983 -0.596,8.59896 -3.47514,16.08203 -14.59515,30.31905 -27.901494,35.72247 -3.340227,1.35639 -4.483872,1.55499 -2.239774,0.38895 z"
         id="path1296" />
      <path
         style="fill:#01b625;stroke-width:0.264583"
         d="m 85.871514,160.1811 c 0.181902,-0.0734 0.479558,-0.0734 0.661459,0 0.181901,0.0734 0.03307,0.13345 -0.330729,0.13345 -0.363802,0 -0.512631,-0.06 -0.33073,-0.13345 z m 1.86862,-0.005 c 0.190995,-0.0764 0.419201,-0.067 0.507119,0.0209 0.08792,0.0879 -0.06835,0.15045 -0.347266,0.13897 -0.308226,-0.0127 -0.370919,-0.0754 -0.159853,-0.15986 z m 21.216276,-10.27031 c 0.34177,-0.36381 0.68094,-0.66146 0.7537,-0.66146 0.0728,0 -0.14734,0.29765 -0.48912,0.66146 -0.34177,0.3638 -0.68094,0.66145 -0.7537,0.66145 -0.0728,0 0.14734,-0.29765 0.48912,-0.66145 z m 2.38125,-2.07362 c 0,-0.0779 0.66239,-0.89334 1.47198,-1.81212 2.15738,-2.44836 4.96433,-6.74401 6.60151,-10.1027 5.30628,-10.88586 5.9517,-22.18008 1.81745,-31.80367 -0.52543,-1.22308 -1.05115,-2.16456 -1.16827,-2.09217 -0.11712,0.0724 -0.28635,-0.2026 -0.37606,-0.61108 -0.0897,-0.40847 -0.58742,-1.451308 -1.10601,-2.317411 l -0.94289,-1.574731 0.84107,0.79375 c 2.15986,2.038352 4.77675,6.279412 6.08281,9.858092 1.23692,3.38923 1.70325,6.3128 1.69832,10.64712 -0.0109,9.59936 -3.14471,17.27372 -10.03712,24.58004 -1.77926,1.8861 -4.88279,4.70494 -4.88279,4.43488 z M 61.860578,91.427744 c 2.861728,-2.979486 6.858955,-5.080328 11.641666,-6.118566 1.805395,-0.391919 3.292636,-0.481653 7.540625,-0.454972 7.05427,0.0443 8.049027,0.354089 3.139307,0.977635 -9.488542,1.205064 -11.296784,1.665849 -18.617431,4.744194 -1.527969,0.642511 -3.313906,1.437888 -3.96875,1.767501 l -1.190625,0.599297 z"
         id="path1294" />
      <path
         style="fill:#000000;stroke-width:0.264583"
         d="M 17.939747,121.72716 V 53.993832 h 67.73333 67.733333 v 67.733328 67.73333 H 85.673077 17.939747 Z m 72.815113,37.98175 c 7.206964,-1.63488 12.20554,-4.36253 19.20536,-10.4801 9.96406,-8.7082 13.9527,-14.69873 15.70378,-23.58545 1.14708,-5.8214 0.72785,-12.45228 -1.10475,-17.47373 -1.30474,-3.57506 -3.91784,-7.81155 -6.08055,-9.858092 l -0.83881,-0.79375 0.93615,1.5875 c 1.22423,2.076012 2.28662,5.784082 2.28662,7.981012 0,3.91041 -1.70019,8.32887 -4.43331,11.5213 -0.8359,0.97638 -2.97176,3.33422 -4.74635,5.23964 -5.01303,5.3826 -6.4306,7.85799 -8.4073,14.68096 -2.58128,8.9098 -5.110398,13.87786 -8.870709,17.42515 -2.116725,1.99681 -4.335037,3.23078 -7.012122,3.90062 -1.829964,0.45787 -1.837865,0.46361 -0.661459,0.48048 0.654844,0.009 2.465396,-0.2721 4.02345,-0.62554 z m -25.605408,-6.60322 c -4.439086,-4.08469 -7.105938,-8.07922 -8.790701,-13.16709 -1.403551,-4.23863 -1.906098,-7.12363 -2.089222,-11.99373 -0.647827,-17.22868 7.391966,-32.812475 20.158757,-39.074374 3.385785,-1.66067 6.186016,-2.507535 10.247055,-3.098985 l 3.246694,-0.472847 -1.322916,-0.240438 c -2.41485,-0.438893 -10.592591,-0.277802 -13.096875,0.257993 -4.748151,1.015873 -8.759343,3.11876 -11.641666,6.103201 -0.800364,0.82872 -2.467239,2.16783 -3.704166,2.975796 -3.013869,1.968669 -6.948165,5.950314 -8.675563,8.779974 -2.678919,4.38836 -3.842758,8.79727 -3.849589,14.58322 -0.0053,4.50233 0.465664,7.38326 1.953744,11.95079 2.36379,7.25545 6.607156,13.988 12.329051,19.56137 2.294336,2.23478 6.712312,5.79409 7.191882,5.79409 0.09485,0 -0.785569,-0.88154 -1.956485,-1.95897 z"
         id="path1292" />
    </g>
  </g>
</svg>
