<?xml version="1.0" encoding="UTF-8" standalone="no"?>
<!-- Created with Inkscape (http://www.inkscape.org/) -->

<svg
   width="135.46666mm"
   height="135.46666mm"
   viewBox="0 0 135.46666 135.46666"
   version="1.1"
   id="svg5"
   inkscape:version="1.1.1 (3bf5ae0d25, 2021-09-20)"
   sodipodi:docname="volus.svg"
   xmlns:inkscape="http://www.inkscape.org/namespaces/inkscape"
   xmlns:sodipodi="http://sodipodi.sourceforge.net/DTD/sodipodi-0.dtd"
   xmlns="http://www.w3.org/2000/svg"
   xmlns:svg="http://www.w3.org/2000/svg">
  <sodipodi:namedview
     id="namedview7"
     pagecolor="#ffffff"
     bordercolor="#666666"
     borderopacity="1.0"
     inkscape:pageshadow="2"
     inkscape:pageopacity="0.0"
     inkscape:pagecheckerboard="0"
     inkscape:document-units="mm"
     showgrid="false"
     inkscape:zoom="0.74118967"
     inkscape:cx="52.61811"
     inkscape:cy="350.11281"
     inkscape:window-width="2560"
     inkscape:window-height="1017"
     inkscape:window-x="-8"
     inkscape:window-y="-8"
     inkscape:window-maximized="1"
     inkscape:current-layer="layer1" />
  <defs
     id="defs2" />
  <g
     inkscape:label="Camada 1"
     inkscape:groupmode="layer"
     id="layer1"
     transform="translate(-256.39648,-45.783498)">
    <g
       id="g890"
       transform="translate(222.75,-8.2103365)">
      <path
         style="fill:#f7f7f7;stroke-width:0.264583"
         d="m 118.221,137.93172 c -0.14373,-0.23256 12.69895,-5.62742 13.38745,-5.62372 0.41276,0.002 0.46302,0.31843 0.46302,2.91291 v 2.91042 h -6.86355 c -3.77495,0 -6.91907,-0.0898 -6.98692,-0.19961 z"
         id="path896" />
      <path
         style="fill:#74c66c;stroke-width:0.264583"
         d="m 81.482533,138.14964 c -5.254948,-1.68021 -8.49889,-6.46659 -8.077742,-11.91857 0.488966,-6.32988 5.270317,-10.62036 11.835433,-10.62036 5.089478,0 8.901896,2.30375 10.94364,6.61298 0.78754,1.66215 0.830255,1.916 0.829101,4.92743 -0.0011,3.04993 -0.03544,3.24507 -0.869892,4.95357 -1.517647,3.10729 -4.185343,5.2833 -7.595557,6.19562 -1.878319,0.50249 -5.246865,0.43065 -7.064983,-0.15067 z m 6.081294,-5.4563 c 2.223145,-0.92866 3.48561,-2.93602 3.48561,-5.54222 0,-2.5632 -1.319969,-4.73431 -3.416644,-5.61975 -1.350518,-0.57033 -3.6855,-0.4944 -4.971489,0.16166 -4.467312,2.27905 -4.171891,9.26422 0.47016,11.11685 1.006223,0.40158 3.338845,0.34024 4.432363,-0.11654 z m 54.297233,5.56788 c -1.8524,-0.41739 -4.07792,-1.25917 -4.8351,-1.82883 -0.43998,-0.33102 -0.39982,-0.48398 0.63962,-2.43598 0.60999,-1.14553 1.14715,-2.13088 1.19369,-2.18966 0.0465,-0.0588 0.94934,0.29791 2.00622,0.79264 1.85891,0.87016 2.02807,0.89954 5.18473,0.90062 l 3.26312,0.001 0.65301,-0.75809 c 0.35916,-0.41695 0.61634,-0.94854 0.57151,-1.18132 -0.16867,-0.87584 -1.7156,-1.5533 -4.55756,-1.99593 -5.23436,-0.81524 -7.66363,-2.32093 -8.34814,-5.1743 -0.81045,-3.37831 0.79576,-6.51233 4.0966,-7.99323 1.79608,-0.8058 7.05626,-1.01346 9.74133,-0.38456 2.01484,0.47191 4.41388,1.42995 4.41388,1.76265 0,0.20007 -1.78197,4.23348 -1.94032,4.39184 -0.0383,0.0383 -0.80114,-0.22573 -1.6951,-0.58681 -2.22591,-0.89909 -5.41219,-1.33063 -6.88247,-0.93214 -2.14704,0.58191 -2.48517,2.53734 -0.54614,3.15838 0.48266,0.15459 2.03156,0.46321 3.44199,0.68581 4.94545,0.78054 7.20437,2.19785 8.03011,5.0383 1.04167,3.58321 -1.06241,7.12927 -5.03267,8.48171 -1.83669,0.62566 -7.10489,0.76456 -9.39831,0.24779 z M 56.641623,137.41166 C 55.33204,133.9852 46.61106,109.56283 46.61106,109.32191 c 0,-0.22543 0.891554,-0.29059 3.239533,-0.23674 l 3.239533,0.0743 3.547756,9.85941 c 1.951265,5.42268 3.588201,9.81897 3.637634,9.76953 0.04943,-0.0494 1.581911,-4.18851 3.405502,-9.19795 1.823593,-5.00944 3.446279,-9.4355 3.605971,-9.83568 l 0.290351,-0.7276 h 3.127285 c 1.720009,0 3.180435,0.0893 3.245393,0.19843 0.06496,0.10914 -2.224588,6.62782 -5.087879,14.48594 l -5.205984,14.2875 -3.366706,0.0741 -3.366706,0.0741 z m 45.002767,-14.8501 v -15.56977 l 2.6061,-0.96669 c 1.43336,-0.53167 2.74305,-0.96668 2.91042,-0.96668 0.22612,0 0.30431,4.24928 0.30431,16.53645 v 16.53646 h -2.91041 -2.91042 z m 13.54908,13.30333 c -0.32537,-0.2279 -0.85788,-0.91251 -1.18335,-1.52136 -0.57611,-1.07769 -0.59177,-1.32411 -0.59177,-9.30907 v -8.20209 l 2.83169,-0.075 2.83169,-0.075 0.0787,6.88109 c 0.0773,6.75701 0.0896,6.89195 0.68124,7.48317 0.78305,0.78246 2.23005,0.73626 4.55686,-0.14549 l 1.71979,-0.65172 0.0706,-6.78361 0.0706,-6.7836 2.83978,0.0751 2.83979,0.075 v 6.44759 6.44758 l -7.92309,3.27585 c -4.3577,1.80172 -7.99237,3.27586 -8.07706,3.27586 -0.0847,0 -0.42019,-0.18646 -0.74556,-0.41436 z M 83.077356,113.39068 c -0.07392,-0.0739 -0.06296,-0.57386 0.02434,-1.111 0.152961,-0.94104 0.24484,-1.01323 2.522823,-1.98227 3.362629,-1.43043 3.31987,-1.44475 3.31987,1.11101 v 2.11666 h -2.866318 c -1.576478,0 -2.9268,-0.0605 -3.000717,-0.1344 z"
         id="path894" />
      <path
         style="fill:#313131;stroke-width:0.264583"
         d="M 33.646477,121.72716 V 53.993835 h 67.733333 67.73333 v 67.733325 67.73333 H 101.37981 33.646477 Z m 54.901039,16.57315 c 3.410214,-0.91232 6.07791,-3.08833 7.595557,-6.19562 0.834456,-1.7085 0.868723,-1.90364 0.869892,-4.95357 0.0011,-3.01143 -0.04156,-3.26528 -0.829101,-4.92743 -2.041744,-4.30923 -5.854162,-6.61298 -10.94364,-6.61298 -6.565116,0 -11.346467,4.29048 -11.835433,10.62036 -0.421148,5.45198 2.822794,10.23836 8.077742,11.91857 1.818118,0.58132 5.186664,0.65316 7.064983,0.15067 z m -5.416052,-5.49043 c -3.639712,-1.4526 -4.874535,-6.52866 -2.337052,-9.60707 1.12281,-1.36216 2.62105,-2.05773 4.432308,-2.05773 3.498374,0 5.822717,2.39753 5.822717,6.00604 0,2.6062 -1.262465,4.61356 -3.48561,5.54222 -1.093518,0.45678 -3.42614,0.51812 -4.432363,0.11654 z m 68.127906,5.20356 c 3.97026,-1.35245 6.07434,-4.89851 5.03267,-8.48172 -0.82574,-2.84045 -3.08466,-4.25775 -8.03011,-5.03829 -1.41043,-0.22261 -2.95933,-0.53123 -3.44199,-0.68582 -1.93903,-0.62104 -1.6009,-2.57647 0.54614,-3.15838 1.47028,-0.39848 4.65656,0.0331 6.88247,0.93214 0.89396,0.36109 1.65676,0.62515 1.6951,0.58681 0.15835,-0.15836 1.94032,-4.19176 1.94032,-4.39184 0,-0.3327 -2.39904,-1.29073 -4.41388,-1.76265 -2.68507,-0.6289 -7.94525,-0.42124 -9.74133,0.38456 -3.30084,1.48091 -4.90705,4.61492 -4.0966,7.99323 0.68451,2.85337 3.11378,4.35907 8.34814,5.17431 2.84196,0.44262 4.38889,1.12008 4.55756,1.99593 0.0448,0.23277 -0.21235,0.76437 -0.57151,1.18132 l -0.65301,0.75808 -3.26312,-10e-4 c -3.15666,-0.001 -3.32582,-0.0305 -5.18473,-0.90062 -1.05688,-0.49472 -1.95968,-0.85141 -2.00622,-0.79263 -0.0465,0.0588 -0.5837,1.04412 -1.19369,2.18965 -1.03944,1.95201 -1.0796,2.10496 -0.63962,2.43599 0.75718,0.56966 2.9827,1.41144 4.8351,1.82883 2.29342,0.51676 7.56162,0.37787 9.39831,-0.24779 z m -82.397231,-14.3019 c 2.863291,-7.85812 5.152836,-14.3768 5.087879,-14.48594 -0.06496,-0.10914 -1.525384,-0.19843 -3.245393,-0.19843 H 67.57734 l -0.290351,0.7276 c -0.159692,0.40018 -1.782378,4.82624 -3.605971,9.83568 -1.823591,5.00944 -3.356068,9.14852 -3.405502,9.19795 -0.04943,0.0494 -1.686369,-4.34685 -3.637634,-9.76953 l -3.547756,-9.85941 -3.239533,-0.0743 c -2.347979,-0.0539 -3.239533,0.0113 -3.239533,0.23674 0,0.24092 8.72098,24.66329 10.030563,28.08975 l 0.28112,0.73553 3.366706,-0.0741 3.366706,-0.0741 z m 38.603081,-2.11667 c 0,-12.28717 -0.0782,-16.53645 -0.30431,-16.53645 -0.16737,0 -1.47706,0.43501 -2.91042,0.96668 l -2.6061,0.96669 v 15.56977 15.56977 h 2.91042 2.91041 z m 24.60625,13.64166 c 0,-1.59214 -0.11467,-2.96567 -0.25482,-3.05229 -0.14016,-0.0866 -2.96789,0.96621 -6.28385,2.33962 -7.30817,3.02692 -7.48424,3.10656 -7.48424,3.38536 0,0.12216 3.15515,0.22211 7.01145,0.22211 h 7.01146 z m -8.05538,-2.23314 7.92309,-3.27585 v -6.44758 -6.44759 l -2.83979,-0.075 -2.83978,-0.0751 -0.0706,6.7836 -0.0706,6.78361 -1.71979,0.65172 c -2.32681,0.88175 -3.77381,0.92795 -4.55686,0.14549 -0.59165,-0.59122 -0.60394,-0.72616 -0.68124,-7.48317 l -0.0787,-6.88109 -2.83169,0.075 -2.83169,0.075 v 8.20209 c 0,7.98496 0.0157,8.23138 0.59177,9.30907 0.52058,0.97382 1.47909,1.93572 1.92891,1.93572 0.0847,0 3.71936,-1.47414 8.07706,-3.27586 z M 88.944391,111.40842 c 0,-2.55576 0.04276,-2.54144 -3.319865,-1.11101 -2.277983,0.96904 -2.369862,1.04123 -2.522823,1.98227 -0.08731,0.53714 -0.09827,1.03709 -0.02434,1.111 0.07392,0.0739 1.424238,0.1344 3.000716,0.1344 h 2.866313 z"
         id="path892" />
    </g>
  </g>
</svg>
