<svg width="72" height="61" viewBox="0 0 72 61" fill="none" xmlns="http://www.w3.org/2000/svg">
<path fill-rule="evenodd" clip-rule="evenodd" d="M59.6864 6.08082C64.9363 10.565 67.2242 17.3826 68.8376 24.0957C70.576 31.3291 72.8661 39.3636 69.2478 45.8638C65.6575 52.3137 57.2671 53.5929 50.6251 56.814C44.1488 59.9548 35.1867 55.8158 29.6402 58.9704C21.7052 58.9447 13.6823 63.149 9.08784 56.6794C4.51425 50.2392 10.5044 41.3295 9.06722 33.5624C7.56311 25.4339 -2.5689 18.5225 0.615668 10.894C3.74357 3.40123 14.5862 3.54434 22.4471 1.51156C28.6345 -0.0884766 34.7754 -0.358308 41.1187 0.420019C47.7022 1.2278 54.643 1.773 59.6864 6.08082Z" fill="#27B8C2" fill-opacity="0.3"/>
<path d="M53.0756 43.4551H33.9643C33.6592 43.4547 33.3667 43.3334 33.1509 43.1176C32.9352 42.9019 32.8138 42.6094 32.8135 42.3042V28.5636C32.8138 28.2585 32.9352 27.966 33.1509 27.7502C33.3667 27.5345 33.6592 27.4131 33.9643 27.4128H53.0756C53.3807 27.4131 53.6733 27.5345 53.889 27.7502C54.1048 27.966 54.2261 28.2585 54.2265 28.5636V42.3042C54.2261 42.6094 54.1048 42.9019 53.889 43.1176C53.6733 43.3334 53.3807 43.4547 53.0756 43.4551Z" fill="#E6E6E6"/>
<path d="M34.3178 42.5375H52.7225C52.8705 42.5375 53.0124 42.4788 53.1171 42.3741C53.2217 42.2695 53.2805 42.1275 53.2805 41.9796V28.888C53.2805 28.7401 53.2217 28.5981 53.1171 28.4935C53.0124 28.3888 52.8705 28.33 52.7225 28.33H34.3178C34.1698 28.33 34.0278 28.3888 33.9232 28.4935C33.8186 28.5981 33.7598 28.7401 33.7598 28.888V41.9796C33.7598 42.1275 33.8186 42.2695 33.9232 42.3741C34.0278 42.4788 34.1698 42.5375 34.3178 42.5375Z" fill="white"/>
<path d="M27.475 25.0081H8.36375C8.05863 25.0077 7.7661 24.8864 7.55035 24.6706C7.3346 24.4549 7.21324 24.1623 7.21289 23.8572V10.1166C7.21324 9.81152 7.3346 9.519 7.55035 9.30324C7.7661 9.08749 8.05863 8.96613 8.36375 8.96578H27.475C27.7801 8.96613 28.0727 9.08749 28.2884 9.30324C28.5042 9.519 28.6255 9.81152 28.6259 10.1166V23.8572C28.6255 24.1623 28.5042 24.4549 28.2884 24.6706C28.0727 24.8864 27.7801 25.0077 27.475 25.0081Z" fill="#E6E6E6"/>
<path d="M8.71717 24.0907H27.1219C27.2699 24.0907 27.4118 24.0319 27.5165 23.9273C27.6211 23.8227 27.6799 23.6807 27.6799 23.5327V10.4412C27.6799 10.2932 27.6211 10.1513 27.5165 10.0467C27.4118 9.94202 27.2699 9.88323 27.1219 9.88323H8.71717C8.56918 9.88323 8.42726 9.94202 8.32261 10.0467C8.21797 10.1513 8.15918 10.2932 8.15918 10.4412V23.5327C8.15918 23.6807 8.21797 23.8227 8.32261 23.9273C8.42726 24.0319 8.56918 24.0907 8.71717 24.0907Z" fill="white"/>
<path d="M50.5287 32.3979H38.7724C38.7173 32.3979 38.6627 32.4088 38.6117 32.4299C38.5608 32.451 38.5145 32.4819 38.4755 32.5209C38.4365 32.5599 38.4056 32.6062 38.3845 32.6571C38.3634 32.708 38.3525 32.7626 38.3525 32.8178C38.3525 32.8729 38.3634 32.9275 38.3845 32.9784C38.4056 33.0294 38.4365 33.0757 38.4755 33.1147C38.5145 33.1537 38.5608 33.1846 38.6117 33.2057C38.6627 33.2268 38.7173 33.2376 38.7724 33.2376H50.5287C50.64 33.2376 50.7468 33.1934 50.8256 33.1147C50.9043 33.0359 50.9485 32.9291 50.9485 32.8178C50.9485 32.7064 50.9043 32.5996 50.8256 32.5209C50.7468 32.4421 50.64 32.3979 50.5287 32.3979Z" fill="#E6E6E6"/>
<path d="M38.7724 34.9818C38.7173 34.9818 38.6627 34.9926 38.6117 35.0137C38.5608 35.0348 38.5145 35.0658 38.4755 35.1047C38.4365 35.1437 38.4056 35.19 38.3845 35.241C38.3634 35.2919 38.3525 35.3465 38.3525 35.4016C38.3525 35.4568 38.3634 35.5114 38.3845 35.5623C38.4056 35.6132 38.4365 35.6595 38.4755 35.6985C38.5145 35.7375 38.5608 35.7684 38.6117 35.7895C38.6627 35.8106 38.7173 35.8215 38.7724 35.8215H50.5287C50.64 35.8215 50.7468 35.7773 50.8256 35.6985C50.9043 35.6198 50.9485 35.513 50.9485 35.4016C50.9485 35.2903 50.9043 35.1835 50.8256 35.1047C50.7468 35.026 50.64 34.9818 50.5287 34.9818H38.7724Z" fill="#E6E6E6"/>
<path d="M38.7724 37.5655C38.6611 37.5655 38.5543 37.6097 38.4755 37.6884C38.3968 37.7672 38.3525 37.874 38.3525 37.9853C38.3525 38.0967 38.3968 38.2035 38.4755 38.2822C38.5543 38.361 38.6611 38.4052 38.7724 38.4052H50.5287C50.64 38.4052 50.7468 38.361 50.8256 38.2822C50.9043 38.2035 50.9485 38.0967 50.9485 37.9853C50.9485 37.874 50.9043 37.7672 50.8256 37.6884C50.7468 37.6097 50.64 37.5655 50.5287 37.5655H38.7724Z" fill="#E6E6E6"/>
<path d="M36.544 33.3666C36.8294 33.3666 37.0607 33.1353 37.0607 32.85C37.0607 32.5646 36.8294 32.3333 36.544 32.3333C36.2587 32.3333 36.0273 32.5646 36.0273 32.85C36.0273 33.1353 36.2587 33.3666 36.544 33.3666Z" fill="#6C63FF"/>
<path d="M36.544 35.9505C36.8294 35.9505 37.0607 35.7192 37.0607 35.4338C37.0607 35.1485 36.8294 34.9172 36.544 34.9172C36.2587 34.9172 36.0273 35.1485 36.0273 35.4338C36.0273 35.7192 36.2587 35.9505 36.544 35.9505Z" fill="#E6E6E6"/>
<path d="M36.544 38.5342C36.8294 38.5342 37.0607 38.3029 37.0607 38.0175C37.0607 37.7322 36.8294 37.5008 36.544 37.5008C36.2587 37.5008 36.0273 37.7322 36.0273 38.0175C36.0273 38.3029 36.2587 38.5342 36.544 38.5342Z" fill="#E6E6E6"/>
<path d="M45.8455 32.8178C45.8455 32.8729 45.8347 32.9275 45.8136 32.9784C45.7925 33.0294 45.7615 33.0757 45.7226 33.1147C45.6836 33.1537 45.6373 33.1846 45.5863 33.2057C45.5354 33.2268 45.4808 33.2376 45.4257 33.2376H38.7875C38.6838 33.2392 38.583 33.2032 38.5038 33.1363C38.4245 33.0694 38.3721 32.9761 38.3562 32.8736C38.3483 32.8143 38.3532 32.754 38.3706 32.6967C38.3879 32.6395 38.4172 32.5865 38.4566 32.5415C38.496 32.4965 38.5446 32.4604 38.599 32.4356C38.6535 32.4109 38.7126 32.398 38.7724 32.3979H45.4257C45.537 32.3979 45.6438 32.4421 45.7226 32.5209C45.8013 32.5996 45.8455 32.7064 45.8455 32.8178V32.8178Z" fill="#6C63FF"/>
<path d="M43.52 25.6472C44.4474 25.6472 45.1992 24.8954 45.1992 23.968C45.1992 23.0406 44.4474 22.2888 43.52 22.2888C42.5926 22.2888 41.8408 23.0406 41.8408 23.968C41.8408 24.8954 42.5926 25.6472 43.52 25.6472Z" fill="#E6E6E6"/>
<path d="M44.3486 24.1028C44.4229 23.6451 44.1121 23.2139 43.6544 23.1396C43.1967 23.0653 42.7654 23.3761 42.6911 23.8339C42.6169 24.2916 42.9277 24.7228 43.3854 24.7971C43.8431 24.8714 44.2744 24.5605 44.3486 24.1028Z" fill="white"/>
<path d="M10.0782 16.588C9.96785 16.588 9.86202 16.6318 9.78398 16.7098C9.70595 16.7879 9.66211 16.8937 9.66211 17.0041C9.66211 17.1144 9.70595 17.2203 9.78398 17.2983C9.86202 17.3763 9.96785 17.4202 10.0782 17.4202H25.7619C25.8722 17.4202 25.9781 17.3763 26.0561 17.2983C26.1341 17.2203 26.178 17.1144 26.178 17.0041C26.178 16.8937 26.1341 16.7879 26.0561 16.7098C25.9781 16.6318 25.8722 16.588 25.7619 16.588H10.0782Z" fill="#E6E6E6"/>
<path d="M10.0782 19.1487C9.96785 19.1487 9.86202 19.1925 9.78398 19.2705C9.70595 19.3486 9.66211 19.4544 9.66211 19.5648C9.66211 19.6751 9.70595 19.781 9.78398 19.859C9.86202 19.937 9.96785 19.9809 10.0782 19.9809H25.7619C25.8722 19.9809 25.9781 19.937 26.0561 19.859C26.1341 19.781 26.178 19.6751 26.178 19.5648C26.178 19.4544 26.1341 19.3486 26.0561 19.2705C25.9781 19.1925 25.8722 19.1487 25.7619 19.1487H10.0782Z" fill="#E6E6E6"/>
<path d="M17.0869 21.8373C16.9766 21.8373 16.8708 21.8811 16.7928 21.9591C16.7147 22.0371 16.6709 22.1429 16.6709 22.2533C16.6709 22.3636 16.7147 22.4694 16.7928 22.5475C16.8708 22.6255 16.9766 22.6693 17.0869 22.6693H18.751C18.8614 22.6693 18.9672 22.6255 19.0452 22.5475C19.1232 22.4694 19.1671 22.3636 19.1671 22.2533C19.1671 22.1429 19.1232 22.0371 19.0452 21.9591C18.9672 21.8811 18.8614 21.8373 18.751 21.8373H17.0869Z" fill="#6C63FF"/>
<path d="M15.6896 11.3045C15.6556 11.3045 15.6231 11.318 15.5991 11.342C15.5751 11.366 15.5616 11.3985 15.5615 11.4325V14.6825C15.5616 14.7165 15.5751 14.749 15.5991 14.773C15.6231 14.797 15.6556 14.8105 15.6896 14.8106H20.1501C20.184 14.8105 20.2166 14.797 20.2406 14.773C20.2646 14.749 20.2781 14.7165 20.2781 14.6825V11.4325C20.2781 11.3985 20.2646 11.366 20.2406 11.342C20.2166 11.318 20.184 11.3045 20.1501 11.3045L15.6896 11.3045Z" fill="#6C63FF"/>
<path d="M17.9199 13.4021C18.3087 13.4021 18.6239 13.0869 18.6239 12.6981C18.6239 12.3092 18.3087 11.994 17.9199 11.994C17.531 11.994 17.2158 12.3092 17.2158 12.6981C17.2158 13.0869 17.531 13.4021 17.9199 13.4021Z" fill="white"/>
<path d="M19.0709 14.4903C19.0712 14.6016 19.0449 14.7113 18.9941 14.8104H16.8436C16.7888 14.703 16.7625 14.5834 16.7671 14.463C16.7718 14.3426 16.8073 14.2253 16.8703 14.1226C16.9332 14.0198 17.0215 13.9349 17.1266 13.876C17.2318 13.8171 17.3503 13.7862 17.4708 13.7863H18.3669C18.5535 13.7862 18.7325 13.8602 18.8646 13.9921C18.9966 14.124 19.0708 14.3029 19.0709 14.4895V14.4903Z" fill="white"/>
<path d="M17.9199 13.4021C18.3087 13.4021 18.6239 13.0869 18.6239 12.6981C18.6239 12.3092 18.3087 11.994 17.9199 11.994C17.531 11.994 17.2158 12.3092 17.2158 12.6981C17.2158 13.0869 17.531 13.4021 17.9199 13.4021Z" fill="white"/>
<path d="M19.0709 14.4903C19.0712 14.6016 19.0449 14.7113 18.9941 14.8104H16.8436C16.7888 14.703 16.7625 14.5834 16.7671 14.463C16.7718 14.3426 16.8073 14.2253 16.8703 14.1226C16.9332 14.0198 17.0215 13.9349 17.1266 13.876C17.2318 13.8171 17.3503 13.7862 17.4708 13.7863H18.3669C18.5535 13.7862 18.7325 13.8602 18.8646 13.9921C18.9966 14.124 19.0708 14.3029 19.0709 14.4895V14.4903Z" fill="white"/>
<path d="M17.92 7.19224C18.839 7.19224 19.5841 6.44719 19.5841 5.52813C19.5841 4.60906 18.839 3.86401 17.92 3.86401C17.0009 3.86401 16.2559 4.60906 16.2559 5.52813C16.2559 6.44719 17.0009 7.19224 17.92 7.19224Z" fill="#E6E6E6"/>
<path d="M17.9199 6.36033C18.3795 6.36033 18.752 5.9878 18.752 5.52827C18.752 5.06874 18.3795 4.69621 17.9199 4.69621C17.4604 4.69621 17.0879 5.06874 17.0879 5.52827C17.0879 5.9878 17.4604 6.36033 17.9199 6.36033Z" fill="#6C63FF"/>
<path d="M59.3942 53.4719L58.5969 53.4718L58.2178 50.3967L59.3945 50.3968L59.3942 53.4719Z" fill="#FFB8B8"/>
<path d="M58.0257 53.2445H59.5633V54.2126H57.0576C57.0576 54.0855 57.0827 53.9596 57.1313 53.8421C57.18 53.7247 57.2513 53.6179 57.3412 53.528C57.4311 53.4381 57.5378 53.3668 57.6552 53.3182C57.7727 53.2695 57.8986 53.2445 58.0257 53.2445Z" fill="#2F2E41"/>
<path d="M63.692 53.4719L62.8947 53.4718L62.5156 50.3967L63.6923 50.3968L63.692 53.4719Z" fill="#FFB8B8"/>
<path d="M62.3245 53.2445H63.8621V54.2126H61.3564C61.3564 54.0855 61.3815 53.9596 61.4301 53.8421C61.4788 53.7247 61.5501 53.6179 61.64 53.528C61.7299 53.4381 61.8366 53.3668 61.9541 53.3182C62.0715 53.2695 62.1974 53.2445 62.3245 53.2445Z" fill="#2F2E41"/>
<path d="M61.3564 31.6072C62.3023 31.6072 63.0692 30.8403 63.0692 29.8944C63.0692 28.9484 62.3023 28.1815 61.3564 28.1815C60.4104 28.1815 59.6436 28.9484 59.6436 29.8944C59.6436 30.8403 60.4104 31.6072 61.3564 31.6072Z" fill="#FFB8B8"/>
<path d="M55.4989 41.0667C55.5108 40.9718 55.5435 40.8808 55.5944 40.7999C55.6454 40.719 55.7135 40.6503 55.7939 40.5986C55.8743 40.5468 55.965 40.5134 56.0598 40.5005C56.1545 40.4877 56.2509 40.4958 56.3422 40.5242L57.2994 39.3767L58.1386 39.7883L56.764 41.3898C56.7061 41.54 56.5951 41.6637 56.4521 41.7375C56.309 41.8113 56.1439 41.83 55.9879 41.7902C55.832 41.7504 55.6961 41.6547 55.6059 41.5214C55.5158 41.388 55.4777 41.2262 55.4989 41.0667Z" fill="#FFB8B8"/>
<path d="M63.7383 42.2273C63.6975 42.1409 63.6762 42.0465 63.6758 41.9509C63.6754 41.8553 63.696 41.7608 63.7361 41.674C63.7762 41.5872 63.8348 41.5103 63.9079 41.4486C63.9809 41.387 64.0666 41.3421 64.1589 41.3171L64.3511 39.8352L65.2801 39.7323L64.9793 41.8213C65.011 41.9791 64.9837 42.143 64.9026 42.282C64.8214 42.421 64.6921 42.5255 64.5392 42.5755C64.3862 42.6256 64.2202 42.6178 64.0726 42.5536C63.925 42.4894 63.806 42.3733 63.7383 42.2273L63.7383 42.2273Z" fill="#FFB8B8"/>
<path d="M63.1144 33.1305C63.2055 33.0135 63.3258 32.9226 63.4633 32.867C63.6007 32.8114 63.7504 32.7931 63.8972 32.8138C64.044 32.8345 64.1827 32.8936 64.2994 32.9851C64.4161 33.0766 64.5066 33.1972 64.5617 33.3349L65.9658 36.8391C66.1093 37.1972 66.1551 37.587 66.0984 37.9686L65.6411 41.0486C65.6352 41.0883 65.6207 41.1263 65.5988 41.16C65.5769 41.1936 65.5479 41.2221 65.5139 41.2436C65.4799 41.265 65.4417 41.2789 65.4019 41.2842C65.3621 41.2895 65.3216 41.2861 65.2832 41.2743L64.6806 41.0893C64.6182 41.0701 64.5645 41.0297 64.5288 40.975C64.4932 40.9203 64.4778 40.8549 64.4854 40.7901C64.6981 38.9768 64.417 37.1397 63.6719 35.473L63.0099 33.9923C62.9475 33.8527 62.9242 33.6987 62.9426 33.5469C62.9611 33.3951 63.0204 33.2511 63.1144 33.1305Z" fill="#6C63FF"/>
<path d="M61.7736 31.6077C62.0314 31.6133 62.2875 31.5642 62.525 31.4638C62.7625 31.3633 62.9761 31.2137 63.1517 31.0249C63.3273 30.836 63.4609 30.6121 63.5438 30.3679C63.6267 30.1237 63.657 29.8647 63.6327 29.608C63.6084 29.3512 63.53 29.1025 63.4027 28.8783C63.2754 28.654 63.1021 28.4591 62.8942 28.3066C62.6862 28.1541 62.4484 28.0473 62.1962 27.9932C61.944 27.9391 61.6833 27.9391 61.4311 27.9929C61.0544 27.7642 60.6164 27.6103 60.1774 27.6494C59.7384 27.6886 59.3042 27.9492 59.1401 28.3582C58.9759 28.7672 59.1523 29.3064 59.5605 29.4726C59.8221 29.5792 60.1177 29.5275 60.3969 29.4845C60.6762 29.4416 60.9808 29.4135 61.2239 29.5576C61.4669 29.7017 61.5762 30.0881 61.3585 30.2683C61.2431 30.3675 61.1607 30.4996 61.1223 30.6469C61.0839 30.7942 61.0912 30.9497 61.1434 31.0927C61.2528 31.3756 61.5514 31.6029 61.7736 31.6077Z" fill="#2F2E41"/>
<path d="M63.8991 40.9992L64.203 52.5315C64.204 52.5699 64.197 52.6082 64.1826 52.6438C64.1681 52.6794 64.1464 52.7117 64.1189 52.7385C64.0914 52.7654 64.0586 52.7863 64.0226 52.7999C63.9866 52.8134 63.9482 52.8194 63.9098 52.8175L62.9088 52.7664C62.8449 52.7631 62.7841 52.738 62.7365 52.6953C62.6889 52.6525 62.6575 52.5947 62.6475 52.5316L61.4568 45.0413C61.4517 45.0092 61.4356 44.9799 61.4112 44.9585C61.3869 44.937 61.3558 44.9248 61.3233 44.9237C61.2909 44.9227 61.2591 44.9331 61.2335 44.953C61.2078 44.9729 61.1899 45.0011 61.1829 45.0327L59.5711 52.2446C59.5625 52.2831 59.5458 52.3194 59.5221 52.351C59.4984 52.3826 59.4683 52.4088 59.4337 52.4279C59.3992 52.447 59.3609 52.4586 59.3216 52.4618C59.2822 52.465 59.2426 52.4598 59.2054 52.4466L58.2119 52.3859C58.1544 52.3655 58.1052 52.3268 58.0718 52.2757C58.0385 52.2247 58.0227 52.1641 58.0271 52.1032L58.8943 40.8901L63.8991 40.9992Z" fill="#2F2E41"/>
<path d="M64.7149 35.5219C64.8825 33.7743 63.5976 32.1936 61.8464 32.0692C61.0919 32.0157 59.9205 31.9965 59.5343 32.9855C58.3711 35.9648 60.4074 35.8924 59.7058 38.4736C59.0042 41.0548 58.3846 41.2027 59.3472 41.3891C60.3099 41.5755 64.6389 42.6758 64.4611 40.859C64.3519 39.7423 64.5477 37.2651 64.7149 35.5219Z" fill="#6C63FF"/>
<path d="M59.7394 32.6823C59.8777 32.6288 60.0276 32.6127 60.1741 32.6356C60.3206 32.6586 60.4584 32.7197 60.5737 32.813C60.6889 32.9062 60.7776 33.0282 60.8307 33.1666C60.8837 33.3051 60.8993 33.4551 60.8759 33.6015L60.3291 37.0185C60.2356 37.6029 59.9885 38.1518 59.6131 38.6093L57.8374 40.7732C57.8119 40.8043 57.78 40.8294 57.7439 40.847C57.7078 40.8646 57.6683 40.8742 57.6281 40.8751C57.5879 40.8761 57.548 40.8683 57.5112 40.8524C57.4743 40.8365 57.4413 40.8128 57.4144 40.7829L56.9926 40.3145C56.9489 40.266 56.9236 40.2037 56.9211 40.1385C56.9186 40.0732 56.9391 40.0092 56.9789 39.9575L57.1031 39.7963C58.1362 38.4556 58.7879 36.8608 58.9895 35.1803L59.2068 33.3679C59.225 33.2161 59.2842 33.072 59.3781 32.9513C59.4719 32.8305 59.5968 32.7375 59.7394 32.6823Z" fill="#6C63FF"/>
<path d="M68.7808 54.3781H50.7856C50.7671 54.3781 50.7493 54.3708 50.7363 54.3577C50.7232 54.3446 50.7158 54.3269 50.7158 54.3084C50.7158 54.2899 50.7232 54.2721 50.7363 54.2591C50.7493 54.246 50.7671 54.2386 50.7856 54.2386H68.7808C68.7993 54.2386 68.8171 54.246 68.8302 54.2591C68.8432 54.2721 68.8506 54.2899 68.8506 54.3084C68.8506 54.3269 68.8432 54.3446 68.8302 54.3577C68.8171 54.3708 68.7993 54.3781 68.7808 54.3781Z" fill="#CCCCCC"/>
</svg>
