<svg width="24" height="24" viewBox="0 0 24 24" fill="none" xmlns="http://www.w3.org/2000/svg">
<path fill-rule="evenodd" clip-rule="evenodd" d="M22.0837 5.15845C22.1257 5.38552 22.1502 5.61931 22.1502 5.85825C22.1502 6.09758 22.1257 6.33058 22.0833 6.55844L23.0078 7.09249C22.7839 7.9438 22.3393 8.70611 21.7313 9.30819L20.8044 8.77296C20.4507 9.07559 20.0409 9.31334 19.5927 9.47157V10.5413C19.1848 10.6524 18.7568 10.7173 18.3141 10.7173C17.8715 10.7173 17.4442 10.6528 17.0356 10.5413V9.47157C16.5874 9.31334 16.178 9.07598 15.8239 8.77296L14.897 9.30819C14.2898 8.7065 13.8448 7.9438 13.6205 7.09249L14.5453 6.55844C14.5034 6.33137 14.4785 6.09798 14.4785 5.85864C14.4785 5.61931 14.5034 5.38631 14.5453 5.15884L13.6205 4.6248C13.8448 3.77349 14.2898 3.01118 14.897 2.40909L15.8243 2.94433C16.1783 2.6417 16.5878 2.40395 17.036 2.24571V1.17604C17.4446 1.06488 17.8719 1 18.3145 1C18.7572 1 19.1848 1.06409 19.5931 1.17604V2.24532C20.0413 2.40356 20.4511 2.64091 20.8048 2.94393L21.7317 2.4087C22.3397 3.01079 22.7843 3.77309 23.0082 4.6244L22.0837 5.15845ZM16.5241 5.85864C16.5241 6.84723 17.326 7.64869 18.3149 7.64869C19.3027 7.64869 20.1046 6.84683 20.1046 5.85825C20.1046 4.86967 19.3027 4.0682 18.3149 4.0682C17.326 4.0682 16.5241 4.87006 16.5241 5.85864ZM15.43 14.0952C15.5075 14.617 15.5229 15.1515 15.4719 15.6879L16.7049 16.1606C16.6215 16.75 16.4731 17.3351 16.2544 17.9048C16.0352 18.474 15.7539 19.0085 15.4185 19.5014L14.1898 19.0298C13.8686 19.4626 13.4995 19.8495 13.0928 20.1854L13.6241 21.3777C12.6668 22.1012 11.5504 22.6076 10.3565 22.8421L9.82207 21.6423C9.30028 21.7198 8.76584 21.7353 8.22942 21.6846L7.7559 22.9185C7.16291 22.835 6.57981 22.6843 6.01213 22.4663C5.44209 22.2476 4.90804 21.9671 4.41395 21.6344L4.88707 20.401C4.4539 20.0797 4.06701 19.711 3.73116 19.3044L2.525 19.8416C2.16699 19.3657 1.85883 18.8475 1.61 18.2897C1.36157 17.7319 1.18237 17.1559 1.06844 16.5712L2.27459 16.034C2.19706 15.5122 2.18163 14.9778 2.23266 14.4414L1 13.9683C1.08347 13.3792 1.23221 12.7945 1.44939 12.2249C1.66855 11.6552 1.94981 11.1208 2.28527 10.6279L3.51477 11.0994C3.83599 10.667 4.20468 10.2798 4.61174 9.94391L4.08086 8.7516C5.03858 8.02806 6.15415 7.52171 7.34804 7.28712L7.88249 8.48734C8.40427 8.40981 8.93871 8.39438 9.47513 8.44541L9.94866 7.21156C10.5416 7.29503 11.1247 7.44575 11.6924 7.66372C12.2625 7.88248 12.7965 8.16335 13.2906 8.49565L12.8175 9.72831C13.2503 10.0495 13.6371 10.4182 13.973 10.8245L15.1799 10.2873C15.5376 10.7632 15.8461 11.2818 16.0946 11.8392C16.343 12.397 16.5222 12.9733 16.6361 13.5576L15.43 14.0952ZM7.56878 18.4072C9.4158 19.1157 11.4867 18.194 12.1952 16.3473C12.9033 14.5015 11.9808 12.4302 10.1346 11.7221C8.28876 11.0144 6.21784 11.9361 5.50934 13.7823C4.80123 15.6285 5.72414 17.6991 7.56878 18.4072Z" fill="white"/>
</svg>
