<?xml version="1.0" encoding="UTF-8" standalone="no"?>
<!-- Created with Inkscape (http://www.inkscape.org/) -->

<svg
   width="72mm"
   height="72mm"
   viewBox="0 0 72 72.000001"
   version="1.1"
   id="svg5"
   inkscape:version="1.1.1 (3bf5ae0d25, 2021-09-20)"
   sodipodi:docname="resultado-periodo.svg"
   xmlns:inkscape="http://www.inkscape.org/namespaces/inkscape"
   xmlns:sodipodi="http://sodipodi.sourceforge.net/DTD/sodipodi-0.dtd"
   xmlns="http://www.w3.org/2000/svg"
   xmlns:svg="http://www.w3.org/2000/svg">
  <sodipodi:namedview
     id="namedview7"
     pagecolor="#ffffff"
     bordercolor="#666666"
     borderopacity="1.0"
     inkscape:pageshadow="2"
     inkscape:pageopacity="0.0"
     inkscape:pagecheckerboard="0"
     inkscape:document-units="mm"
     showgrid="false"
     inkscape:zoom="0.76435185"
     inkscape:cx="-134.75469"
     inkscape:cy="160.26651"
     inkscape:window-width="2560"
     inkscape:window-height="1017"
     inkscape:window-x="-8"
     inkscape:window-y="-8"
     inkscape:window-maximized="1"
     inkscape:current-layer="g926" />
  <defs
     id="defs2" />
  <g
     inkscape:label="Camada 1"
     inkscape:groupmode="layer"
     id="layer1"
     transform="translate(-19.441021,-56.133338)">
    <g
       id="g926"
       transform="translate(135.69231,-9.6923077)">
      <rect
         style="fill:#ffffff;stroke-width:0.15875;paint-order:markers stroke fill"
         id="rect1364"
         width="72"
         height="72"
         x="-116.25129"
         y="65.825645" />
      <path
         style="fill:#3462ba;stroke-width:1"
         d="m -103.40308,135.18971 c -0.43656,-0.26966 -1.03187,-0.7579 -1.32291,-1.08497 -0.51765,-0.58173 -0.53205,-1.06618 -0.66146,-22.24978 -0.10532,-17.240088 -0.2022,-21.725203 -0.47515,-21.998934 -0.2311,-0.231747 -1.47278,-0.386955 -3.80902,-0.476122 -3.37749,-0.128908 -3.47958,-0.150314 -3.99108,-0.836863 -0.34463,-0.462569 -0.46906,-0.916958 -0.36227,-1.322917 0.18575,-0.706134 6.00562,-7.110715 6.7871,-7.468988 0.58013,-0.265961 1.32125,0.188336 1.32125,0.809908 0,0.20722 -1.25743,1.740054 -2.79429,3.406299 -1.53686,1.666245 -2.72045,3.148998 -2.63022,3.295007 0.0928,0.150184 1.36544,0.265471 2.93047,0.265471 h 2.7664 l 0.9883,0.905607 0.9883,0.905607 0.13229,21.650115 c 0.0728,11.90757 0.22589,21.79454 0.34029,21.97106 0.42068,0.64908 2.29525,0.86674 7.46492,0.86674 5.16967,0 7.04424,-0.21766 7.46492,-0.86674 0.1144,-0.17652 0.26753,-10.05206 0.34029,-21.94565 l 0.13229,-21.624706 0.86379,-0.864871 c 0.85194,-0.853008 0.90456,-0.866685 3.83646,-0.997162 1.93565,-0.08614 2.97266,-0.235482 2.97266,-0.428094 0,-0.424507 -15.21527,-16.769823 -15.61042,-16.769823 -0.18117,0 -2.03045,1.845469 -4.109512,4.101041 -2.079058,2.255573 -3.975428,4.101042 -4.214148,4.101042 -0.5202,0 -1.06904,-0.502384 -1.06904,-0.978548 0,-0.550734 8.2667,-9.346336 8.94411,-9.516356 0.33803,-0.08484 0.85053,-0.04898 1.13889,0.07969 0.80185,0.357795 17.43358,18.398617 17.61127,19.103348 0.10077,0.399683 -0.0297,0.867499 -0.36902,1.322917 -0.51136,0.686348 -0.61436,0.707993 -3.98228,0.836863 -1.90153,0.07276 -3.55606,0.231433 -3.67672,0.352606 -0.12065,0.121173 -0.27891,9.884292 -0.35167,21.695833 -0.12654,20.54155 -0.15427,21.51183 -0.63762,22.31047 -0.27794,0.45923 -0.94899,1.08431 -1.49124,1.38907 -0.9302,0.5228 -1.37246,0.55405 -7.82904,0.55311 -6.1993,-8.9e-4 -6.91782,-0.0471 -7.63689,-0.49128 z m 37.18617,-0.23533 c -2.15503,-1.98511 -16.71931,-18.00736 -16.85643,-18.54387 -0.10267,-0.40168 0.0259,-0.86522 0.36689,-1.32291 0.51135,-0.68635 0.61435,-0.708 3.98227,-0.83687 1.90154,-0.0728 3.55606,-0.23143 3.67672,-0.3526 0.12066,-0.12118 0.27891,-9.8843 0.35167,-21.695832 0.12463,-20.231719 0.1604,-21.521491 0.61765,-22.269269 0.26694,-0.436563 0.80272,-1.031875 1.19062,-1.322917 0.65755,-0.493362 1.18473,-0.534467 7.79131,-0.607504 6.82663,-0.07547 7.12291,-0.05761 8.09362,0.487959 1.83314,1.030281 1.88597,1.26613 1.88597,8.419288 0,6.018892 -0.0279,6.38092 -0.51079,6.639382 -0.38557,0.206349 -0.6126,0.171566 -0.92605,-0.141881 -0.35259,-0.352591 -0.41525,-1.310683 -0.41525,-6.349476 0,-5.581448 -0.0315,-5.965684 -0.52916,-6.463393 -0.50129,-0.501289 -0.88195,-0.529166 -7.22547,-0.529166 -5.36483,0 -6.79843,0.07465 -7.2099,0.375457 -0.49927,0.364992 -0.51728,0.980657 -0.64588,22.087733 l -0.13229,21.712269 -0.86379,0.86487 c -0.85195,0.85301 -0.90457,0.86669 -3.83646,0.99717 -1.86702,0.0831 -2.97267,0.23838 -2.97267,0.41752 0,0.4125 15.21675,16.78039 15.60024,16.78039 0.38487,0 15.62059,-16.36512 15.62059,-16.77852 0,-0.18153 -1.09313,-0.33575 -2.97267,-0.41939 -2.93184,-0.13048 -2.98452,-0.14417 -3.83645,-0.99712 l -0.86379,-0.86483 -0.0729,-13.86 c -0.0652,-12.397061 -0.0284,-13.904544 0.3491,-14.28204 0.31599,-0.315993 0.5481,-0.35458 0.9237,-0.153563 0.48098,0.257412 0.50477,0.829547 0.57694,13.877062 0.0592,10.710441 0.1483,13.681791 0.41814,13.952351 0.23105,0.23166 1.4732,0.3869 3.80901,0.47605 3.37749,0.12891 3.47958,0.15032 3.99109,0.83687 0.34181,0.45878 0.46944,0.92027 0.36585,1.32291 -0.1368,0.5318 -15.13572,17.00904 -17.00053,18.67616 -0.88808,0.79393 -1.78221,0.75077 -2.74086,-0.13229 z m -1.65342,-11.62322 c -0.59391,-0.15633 -0.86695,-1.06808 -0.46492,-1.5525 0.24699,-0.2976 1.04952,-0.38418 3.56134,-0.38418 2.51181,0 3.31434,0.0866 3.56133,0.38418 0.43806,0.52783 0.11636,1.37771 -0.59353,1.56802 -0.66371,0.17793 -5.37511,0.16587 -6.06422,-0.0155 z M -96.20928,84.80559 c -0.23096,-0.176263 -0.45577,-0.796727 -0.49957,-1.378811 -0.0781,-1.038 -0.10085,-1.059877 -1.18352,-1.138685 -1.24889,-0.09091 -1.797402,-0.570027 -1.548902,-1.352968 0.11408,-0.359461 0.486842,-0.585382 1.146332,-0.69477 1.54278,-0.255896 1.63874,-0.323189 1.63874,-1.149258 0,-1.171273 0.25545,-1.617444 0.92604,-1.617444 0.67059,0 0.92604,0.446171 0.92604,1.617444 0,0.826069 0.096,0.893362 1.63873,1.149258 0.65949,0.109388 1.03225,0.335309 1.14634,0.69477 0.2485,0.782941 -0.30001,1.26206 -1.54891,1.352968 -1.09472,0.07969 -1.10454,0.08966 -1.18517,1.203633 -0.0924,1.276556 -0.73972,1.860627 -1.45615,1.313863 z"
         id="path928" />
    </g>
  </g>
</svg>
