<?xml version="1.0" encoding="UTF-8" standalone="no"?>
<!-- Created with Inkscape (http://www.inkscape.org/) -->

<svg
   width="198.90437mm"
   height="198.90399mm"
   viewBox="0 0 198.90437 198.90399"
   version="1.1"
   id="svg5"
   inkscape:version="1.1.1 (3bf5ae0d25, 2021-09-20)"
   sodipodi:docname="calcss.svg"
   xmlns:inkscape="http://www.inkscape.org/namespaces/inkscape"
   xmlns:sodipodi="http://sodipodi.sourceforge.net/DTD/sodipodi-0.dtd"
   xmlns="http://www.w3.org/2000/svg"
   xmlns:svg="http://www.w3.org/2000/svg">
  <sodipodi:namedview
     id="namedview7"
     pagecolor="#ffffff"
     bordercolor="#666666"
     borderopacity="1.0"
     inkscape:pageshadow="2"
     inkscape:pageopacity="0.0"
     inkscape:pagecheckerboard="0"
     inkscape:document-units="mm"
     showgrid="false"
     inkscape:zoom="1.0482005"
     inkscape:cx="452.20356"
     inkscape:cy="398.30166"
     inkscape:window-width="2560"
     inkscape:window-height="1017"
     inkscape:window-x="-8"
     inkscape:window-y="-8"
     inkscape:window-maximized="1"
     inkscape:current-layer="layer1" />
  <defs
     id="defs2" />
  <g
     inkscape:label="Camada 1"
     inkscape:groupmode="layer"
     id="layer1"
     transform="translate(-4.5435009,-34.07626)">
    <rect
       style="fill:#ffe680;stroke-width:0.15875;paint-order:markers stroke fill"
       id="rect1194"
       width="198.90437"
       height="198.90399"
       x="4.5435009"
       y="34.07626" />
    <g
       id="g962"
       transform="translate(-66.133185,31.047258)">
      <path
         style="fill:#f9f3f3;stroke-width:1"
         d="m 125.89248,163.07847 c 1.80714,-0.83817 3.01375,-1.9708 3.92622,-3.68552 l 0.70398,-1.32292 0.0819,-7.07761 0.0819,-7.0776 h -7.94858 -7.94858 l -0.0779,6.28385 -0.0779,6.28386 0.007,-6.35 0.007,-6.35 8.00364,-0.07 8.00365,-0.07 v -5.81695 -5.81696 h 23.95186 23.95187 l -0.0732,3.90261 -0.0732,3.9026 -13.95677,0.0685 -13.95677,0.0685 v 3.96641 3.96641 h 14.02291 14.02292 v 7.9375 7.9375 l -27.05365,-0.003 -27.05364,-0.003 1.45521,-0.67494 z m 96.37389,-59.04958 -0.0656,-59.861981 4.0349,0.05851 4.0349,0.05851 -3.90203,0.08086 -3.90203,0.08086 -0.0673,59.722621 -0.0673,59.72261 z m -105.40348,57.41458 c -0.3291,-0.41965 -0.31975,-0.42901 0.0999,-0.0999 0.25466,0.19972 0.46302,0.40808 0.46302,0.46302 0,0.21776 -0.21727,0.0776 -0.56292,-0.36312 z M 130.65812,49.39243 c 0.003,-11.316027 0.0556,-11.887779 1.337,-14.618229 0.82562,-1.759291 3.21532,-4.120773 5.15786,-5.096964 4.753,-2.388542 9.76811,-1.646373 13.69488,2.026657 2.58631,2.419186 3.61961,5.152941 3.61961,9.576171 v 2.886844 h 12.03855 12.03854 v 7.9375 7.937499 h -23.94479 -23.94479 l 0.003,-10.649478 z m 99.52196,-7.871354 c 0,-0.363802 0.06,-0.51263 0.13345,-0.330729 0.0734,0.181901 0.0734,0.479557 0,0.661458 -0.0734,0.181901 -0.13345,0.03307 -0.13345,-0.330729 z"
         id="path988" />
      <path
         style="fill:#e7e2ee;stroke-width:1"
         d="m 123.99078,163.57783 c 0.191,-0.0764 0.4192,-0.067 0.50712,0.0209 0.0879,0.0879 -0.0683,0.15045 -0.34726,0.13896 -0.30823,-0.0127 -0.37092,-0.0754 -0.15986,-0.15985 z m 54.55378,-7.75676 v -7.9375 h -14.02292 -14.02292 v -3.96641 -3.96641 l 13.95677,-0.0685 13.95677,-0.0685 0.0669,-47.823436 0.0669,-47.823435 H 166.5068 154.46754 v -2.886844 c 0,-4.42323 -1.0333,-7.156985 -3.61961,-9.576171 -1.63855,-1.532667 -3.28947,-2.496448 -5.11805,-2.987833 -1.31758,-0.354066 0.10279,-0.390903 15.68298,-0.406738 l 17.13177,-0.01741 v 7.9375 7.937499 h 21.82812 21.82812 v 59.795828 59.79583 h -21.82812 -21.82812 z m 27.78124,-11.90625 v -3.96875 h -13.89062 -13.89062 v 3.96875 3.96875 h 13.89062 13.89062 z m 0,-16.00729 v -4.10104 h -10.05416 -10.05417 v 4.10104 4.10104 h 10.05417 10.05416 z m 0,-16.00729 v -3.96875 h -9.92187 -9.92187 v 3.96875 3.96875 h 9.92187 9.92187 z m 0,-15.875 v -3.96875 h -9.92187 -9.92187 v 3.96875 3.96875 h 9.92187 9.92187 z m 0,-15.874999 v -3.96875 h -9.92187 -9.92187 v 3.96875 3.96875 h 9.92187 9.92187 z m 0,-16.010474 v -4.104222 l -9.98802,0.06933 -9.98802,0.06933 -0.0739,3.691424 c -0.0407,2.030286 -0.0147,3.845989 0.0578,4.034896 0.10481,0.273129 2.16545,0.343471 10.06198,0.343471 h 9.93017 z m -79.11041,98.195993 c 0,-0.0549 0.20836,-0.2633 0.46302,-0.46302 0.41965,-0.32911 0.42901,-0.31975 0.0999,0.0999 -0.34564,0.44073 -0.56292,0.58089 -0.56292,0.36313 z m 1.45521,-1.48761 c 0.26339,-0.29104 0.53842,-0.52916 0.61118,-0.52916 0.0728,0 -0.0832,0.23812 -0.3466,0.52916 -0.26339,0.29105 -0.53842,0.52917 -0.61118,0.52917 -0.0728,0 0.0832,-0.23812 0.3466,-0.52917 z m 1.74068,-3.8585 c 0.0127,-0.30823 0.0754,-0.37092 0.15985,-0.15986 0.0764,0.191 0.067,0.4192 -0.0209,0.50712 -0.0879,0.0879 -0.15046,-0.0683 -0.13897,-0.34726 z m -7.6938,-44.95712 v -3.83646 h 3.96875 3.96875 v 3.83646 3.83646 h -3.96875 -3.96875 z m 15.87499,0 v -3.83646 h 1.98438 1.98437 v 3.83646 3.83646 h -1.98437 -1.98438 z M 122.71748,96.02524 v -3.96875 h 3.96875 3.96875 v 3.96875 3.96875 h -3.96875 -3.96875 z m 15.87499,0 v -3.96875 h 1.98438 1.98437 v 3.96875 3.96875 h -1.98437 -1.98438 z M 106.69974,71.948158 c 0,-6.621198 0.0343,-9.329869 0.0763,-6.019271 0.042,3.310599 0.042,8.727943 0,12.038541 -0.042,3.310599 -0.0763,0.601927 -0.0763,-6.01927 z M 230.21037,43.108576 c 0,-0.654844 0.0516,-0.922734 0.11466,-0.595313 0.0631,0.327422 0.0631,0.863204 0,1.190625 -0.0631,0.327422 -0.11466,0.05953 -0.11466,-0.595312 z m -3.66908,-10.120312 -0.50403,-0.595313 0.59531,0.504029 c 0.32743,0.277215 0.59532,0.545105 0.59532,0.595312 0,0.211734 -0.21294,0.05542 -0.6866,-0.504028 z m -1.32292,-1.322917 -0.50402,-0.595312 0.59531,0.504028 c 0.32742,0.277215 0.59531,0.545106 0.59531,0.595312 0,0.211734 -0.21293,0.05542 -0.6866,-0.504028 z m -7.56509,-3.289594 c 0.19099,-0.07643 0.4192,-0.06703 0.50712,0.02089 0.0879,0.08792 -0.0684,0.150453 -0.34727,0.138964 -0.30822,-0.0127 -0.37092,-0.07539 -0.15985,-0.159852 z"
         id="path986" />
      <path
         style="fill:#cccce2;stroke-width:1"
         d="m 120.54586,163.40297 c -2.44922,-0.68952 -4.30962,-2.43208 -5.2562,-4.92327 -0.45381,-1.19434 -0.50968,-2.06623 -0.50968,-7.95313 v -6.61175 h 7.95726 7.95726 l -0.0859,6.81302 c -0.0847,6.72156 -0.0952,6.83256 -0.77981,8.26823 -0.38164,0.80036 -1.09602,1.86081 -1.5875,2.35654 -1.86906,1.88524 -5.16378,2.76308 -7.69542,2.05036 z m 57.9987,-19.48815 v -3.96875 h 13.89062 13.89062 v 3.96875 3.96875 h -13.89062 -13.89062 z m 7.78001,-16.00729 c 2.7e-4,-2.32833 0.0408,-3.24541 0.09,-2.03796 0.0491,1.20746 0.0489,3.11246 -5.3e-4,4.23333 -0.0495,1.12088 -0.0897,0.13296 -0.0893,-2.19537 z m -43.76335,-15.86387 v -3.82533 l -2.05052,-0.0865 c -1.12778,-0.0476 -0.23481,-0.1082 1.98438,-0.13466 l 4.03489,-0.0481 v 3.95998 3.95998 h -1.98437 -1.98438 z m 12.17084,-0.14342 v -3.96875 h 3.83646 3.83645 v 3.96875 3.96875 h -3.83645 -3.83646 z m 31.75,0 v -3.96875 h 9.92187 9.92187 v 3.96875 3.96875 h -9.92187 -9.92187 z m -61.84636,-3.90083 c 1.12779,-0.0496 2.97326,-0.0496 4.10105,0 1.12778,0.0496 0.20505,0.0902 -2.05052,0.0902 -2.25558,0 -3.17831,-0.0406 -2.05053,-0.0902 z m 17.92552,-11.97417 v -3.96875 h 1.98438 1.98437 v 3.96875 3.96875 h -1.98437 -1.98438 z m 43.92084,0 v -3.96875 h 9.92187 9.92187 v 3.96875 3.96875 h -9.92187 -9.92187 z m 0,-15.874999 v -3.96875 h 9.92187 9.92187 v 3.96875 3.96875 h -9.92187 -9.92187 z m -0.14366,-16.007291 0.0114,-3.96875 10.05416,-0.0049 10.05417,-0.0049 -9.98097,0.07422 -9.98096,0.07422 -0.0846,3.899429 -0.0846,3.899429 0.0114,-3.96875 z m -7.79384,-27.91354 v -7.9375 l 19.11614,0.002 c 11.52906,0.0012 19.79872,0.107914 20.83594,0.26886 2.30915,0.358314 5.60963,2.005707 7.245,3.616249 2.82101,2.77818 4.09462,5.587169 4.32571,9.540496 l 0.14306,2.447395 h -25.83293 -25.83292 z"
         id="path984" />
      <path
         style="fill:#9fdef4;stroke-width:1"
         d="m 114.77998,72.212741 v -3.96875 h 13.89062 13.89062 v 3.96875 3.96875 H 128.6706 114.77998 Z m 9.85572,-12.104655 c 9.85904,-0.03843 25.99201,-0.03843 35.85104,0 9.85904,0.03843 1.79256,0.06987 -17.92552,0.06987 -19.71807,0 -27.78455,-0.03144 -17.92552,-0.06987 z"
         id="path982" />
      <path
         style="fill:#7dc6e2;stroke-width:1"
         d="m 106.64235,110.15796 c -0.0354,-7.72497 0.0146,-22.101769 0.11129,-31.948435 l 0.17574,-17.903033 h 17.80885 17.80885 l 0.0732,3.902604 0.0732,3.902604 13.96383,0.06849 13.96382,0.06849 -0.0732,3.90026 -0.0732,3.900262 -13.97,0.06849 -13.97,0.06849 0.0794,3.9668 0.0794,3.9668 -17.92386,-3.95e-4 -17.92386,-3.96e-4 -0.0695,20.042189 c -0.0595,17.16665 -0.0787,18.02703 -0.13396,5.99678 z m 35.91887,-37.945219 v -3.96875 H 128.6706 114.77998 v 3.96875 3.96875 h 13.89062 13.89062 z m 35.8406,0 c 0,-6.621197 0.0344,-9.329869 0.0763,-6.01927 0.042,3.310598 0.042,8.727942 0,12.038541 -0.042,3.310599 -0.0763,0.601927 -0.0763,-6.019271 z"
         id="path980" />
      <path
         style="fill:#d4789b;stroke-width:1"
         d="m 191.46041,131.81042 c 2.81085,-0.0429 7.33523,-0.0428 10.05416,1.4e-4 2.71894,0.043 0.41915,0.0781 -5.11064,0.078 -5.52979,-8e-5 -7.75438,-0.0352 -4.94352,-0.0781 z m 0,-7.9375 c 2.81085,-0.0429 7.33523,-0.0428 10.05416,1.4e-4 2.71894,0.043 0.41915,0.0781 -5.11064,0.078 -5.52979,-8e-5 -7.75438,-0.0352 -4.94352,-0.0781 z"
         id="path978" />
      <path
         style="fill:#66a6d6;stroke-width:1"
         d="m 154.57329,112.03253 c 2.7e-4,-2.18281 0.0414,-3.04057 0.0911,-1.90613 0.0497,1.13443 0.0494,2.92037 -8e-4,3.96875 -0.0501,1.04837 -0.0908,0.12019 -0.0904,-2.06262 z M 142.73761,83.942601 c -0.097,-0.09701 -0.17639,-1.881899 -0.17639,-3.966411 v -3.790021 l 13.95677,-0.06849 13.95677,-0.06848 0.0732,-3.900262 0.0732,-3.90026 -13.96382,-0.06849 -13.96383,-0.06849 -0.0732,-3.902604 -0.0732,-3.902604 H 160.41356 178.28 v 11.906249 11.90625 h -17.68298 c -9.72565,0 -17.76236,-0.07937 -17.85938,-0.17639 z"
         id="path976" />
      <path
         style="fill:#86c684;stroke-width:1"
         d="m 106.68371,127.90753 c 3.7e-4,-2.18281 0.0413,-3.04057 0.0911,-1.90613 0.0497,1.13443 0.0494,2.92037 -6.6e-4,3.96874 -0.0501,1.04838 -0.0908,0.1202 -0.0904,-2.06261 z m 79.79835,-63.632288 v -3.96875 h 9.92187 9.92187 v 3.96875 3.968749 h -9.92187 -9.92187 z"
         id="path974" />
      <path
         style="fill:#637174;stroke-width:1"
         d="m 142.55981,131.81062 35.71735,-0.0685 0.0697,-23.81156 0.0697,-23.811563 -0.002,23.878653 -0.002,23.87866 -35.7849,0.001 -35.7849,0.001 35.71734,-0.0685 z M 124.6357,115.9369 c 1.12779,-0.0496 2.97326,-0.0496 4.10105,0 1.12778,0.0496 0.20505,0.0902 -2.05052,0.0902 -2.25558,0 -3.17831,-0.0406 -2.05053,-0.0902 z m 15.875,0 c 1.12779,-0.0496 2.97326,-0.0496 4.10105,0 1.12778,0.0496 0.20505,0.0902 -2.05053,0.0902 -2.25557,0 -3.1783,-0.0406 -2.05052,-0.0902 z m 17.98482,0.003 3.89575,-0.0845 0.0837,-3.96202 0.0837,-3.96201 -0.0107,4.03519 -0.0107,4.03511 -3.96875,0.0114 -3.96875,0.0114 3.89575,-0.0845 z"
         id="path972" />
      <path
         style="fill:#c42659;stroke-width:1"
         d="m 186.48206,127.90753 v -3.83646 h 9.92187 9.92187 v 3.83646 3.83646 h -9.92187 -9.92187 z M 154.46747,96.02524 v -3.96875 h 3.96875 3.96875 v 3.96875 3.96875 h -3.96875 -3.96875 z"
         id="path970" />
      <path
         style="fill:#005764;stroke-width:1"
         d="m 106.84246,104.02889 2e-5,-19.909899 h 17.85937 17.85937 v 3.968749 3.96875 h -1.98437 -1.98438 v 3.96875 3.96875 h 1.98438 1.98437 v 3.96875 3.96875 h -1.98437 -1.98438 v 4.10104 4.10104 h 1.98438 1.98437 l -1e-5,3.90261 -2e-5,3.9026 h -17.85937 -17.85938 z m 23.81252,8.00364 v -4.10104 h -3.96875 -3.96875 v 4.10104 4.10104 h 3.96875 3.96875 z m 0,-16.00729 v -3.96875 h -3.96875 -3.96875 v 3.96875 3.96875 h 3.96875 3.96875 z m 15.98149,15.875 c 0,-2.25557 0.0406,-3.17831 0.0902,-2.05052 0.0496,1.12778 0.0496,2.97325 0,4.10104 -0.0496,1.12779 -0.0902,0.20505 -0.0902,-2.05052 z m 0,-15.875 c 0,-2.255573 0.0406,-3.178307 0.0902,-2.050521 0.0496,1.127787 0.0496,2.973255 0,4.101042 -0.0496,1.127786 -0.0902,0.205052 -0.0902,-2.050521 z"
         id="path968" />
      <path
         style="fill:#002f33;stroke-width:1"
         d="m 106.84248,127.9406 v -3.80338 l 0.82682,-0.16537 c 1.06039,-0.21208 33.50496,-0.21075 34.29661,10e-4 0.58238,0.15607 0.59531,0.24224 0.59531,3.96513 v 3.80568 h -17.85937 -17.85937 z m 35.71873,-7.8933 1e-5,-3.89147 2.05053,-0.0773 2.05052,-0.0773 0.073,-4.03489 0.073,-4.0349 h -2.12356 -2.12356 v -3.96875 -3.96875 h 2.11667 2.11667 v -3.96875 -3.96875 h -2.11667 -2.11667 v -3.96875 -3.968749 h 17.85938 17.85937 l -2e-5,19.909899 -1e-5,19.90989 h -17.85938 -17.85937 z m 20.04909,-8.08091 0.073,-4.0349 h -4.10793 -4.10794 v 4.10793 4.10793 l 4.0349,-0.073 4.0349,-0.073 z m -0.20533,-15.94115 v -3.96875 h -3.96875 -3.96875 v 3.96875 3.96875 h 3.96875 3.96875 z"
         id="path966" />
      <path
         style="fill:#080909;stroke-width:1"
         d="m 142.56122,127.9406 v -3.80338 l 0.82683,-0.16537 c 1.06039,-0.21208 33.50496,-0.21075 34.29661,10e-4 0.58237,0.15607 0.59531,0.24224 0.59531,3.96513 v 3.80568 H 160.4206 142.56122 Z"
         id="path964" />
    </g>
  </g>
</svg>
