<?xml version="1.0" encoding="UTF-8" standalone="no"?>
<!-- Created with Inkscape (http://www.inkscape.org/) -->

<svg
   width="180.97192mm"
   height="180.972mm"
   viewBox="0 0 180.97192 180.972"
   version="1.1"
   id="svg5"
   inkscape:version="1.1.1 (3bf5ae0d25, 2021-09-20)"
   sodipodi:docname="book_money.svg"
   xmlns:inkscape="http://www.inkscape.org/namespaces/inkscape"
   xmlns:sodipodi="http://sodipodi.sourceforge.net/DTD/sodipodi-0.dtd"
   xmlns="http://www.w3.org/2000/svg"
   xmlns:svg="http://www.w3.org/2000/svg">
  <sodipodi:namedview
     id="namedview7"
     pagecolor="#ffffff"
     bordercolor="#666666"
     borderopacity="1.0"
     inkscape:pageshadow="2"
     inkscape:pageopacity="0.0"
     inkscape:pagecheckerboard="0"
     inkscape:document-units="mm"
     showgrid="false"
     inkscape:zoom="0.74118967"
     inkscape:cx="476.26136"
     inkscape:cy="449.9523"
     inkscape:window-width="2560"
     inkscape:window-height="1017"
     inkscape:window-x="-8"
     inkscape:window-y="-8"
     inkscape:window-maximized="1"
     inkscape:current-layer="layer1" />
  <defs
     id="defs2" />
  <g
     inkscape:label="Camada 1"
     inkscape:groupmode="layer"
     id="layer1"
     transform="translate(-13.577344,-16.777643)">
    <rect
       style="fill:#ffdd55;stroke-width:0.15875;paint-order:markers stroke fill"
       id="rect858"
       width="180.97192"
       height="180.972"
       x="13.577344"
       y="16.777643" />
    <g
       id="g1088"
       transform="translate(9.2472281,-11.46118)">
      <path
         style="fill:#e5e6e7;stroke-width:1"
         d="m 48.169437,178.47843 c -0.345067,-0.34507 -0.373316,-2.01674 -0.220998,-13.07787 0.09605,-6.97522 0.174641,-34.57121 0.174641,-61.3244 V 55.433984 l 43.722394,0.06847 43.722396,0.06847 1.27234,0.631768 c 1.62538,0.807067 3.37424,2.55593 4.18131,4.181311 l 0.63177,1.272337 v 55.43021 55.43021 l -0.64893,1.32291 c -0.89007,1.81453 -2.86469,3.6779 -4.57354,4.3159 -1.35866,0.50726 -2.43106,0.52213 -44.628931,0.61913 -38.109203,0.0876 -43.283732,0.0525 -43.632452,-0.29626 z"
         id="path1106" />
      <path
         style="fill:#aacfeb;stroke-width:1"
         d="m 48.445194,178.42157 c -0.509717,-0.50972 -0.466003,-122.269567 0.04405,-122.692872 0.273176,-0.226717 11.275599,-0.28515 43.325518,-0.230098 49.287918,0.08466 44.316798,-0.199344 47.213488,2.69735 2.90075,2.900742 2.61329,-2.30306 2.69739,48.83039 0.0412,25.05734 -0.0305,45.52099 -0.16376,46.7338 -0.14538,1.32303 -0.47653,2.637 -0.85616,3.39714 -0.75772,1.51718 -2.48431,3.15041 -4.15368,3.92908 l -1.24875,0.58247 -36.909374,0.13229 -36.909377,0.13229 v 3.83646 3.83646 h 36.644787 c 35.485004,0 36.686434,-0.0161 37.960254,-0.50732 1.71792,-0.66253 3.64456,-2.48804 4.34549,-4.1174 0.30718,-0.71404 0.67115,-1.36787 0.80884,-1.45297 0.4324,-0.26724 0.6145,1.64026 0.48883,5.12054 -0.10426,2.88711 -0.21652,3.56586 -0.80096,4.84244 -0.86264,1.88427 -2.48867,3.51444 -4.39872,4.40994 l -1.49435,0.7006 -43.135704,0.0708 c -33.618406,0.0551 -43.206767,-2.6e-4 -43.457811,-0.25135 z m 77.932226,-38.11784 0.07,-8.13594 H 101.30815 76.168912 v 8.20342 8.20343 l 25.069278,-0.0675 25.06927,-0.0675 z"
         id="path1104" />
      <path
         style="fill:#fdd121;stroke-width:1"
         d="m 48.570168,178.2996 c -0.100377,-0.10038 -0.182504,-27.59199 -0.182504,-61.09247 0,-48.419699 0.06782,-60.960668 0.330729,-61.157238 0.2038,-0.152375 16.882262,-0.190194 43.45781,-0.09854 l 43.127087,0.148734 1.32291,0.704744 c 1.58554,0.844648 3.02523,2.303255 3.87456,3.925464 l 0.62336,1.190625 v 46.698961 46.69895 l -0.57687,1.24872 c -0.79975,1.73115 -2.69564,3.49605 -4.46781,4.1591 -1.44595,0.541 -1.74554,0.5453 -37.927644,0.5453 -30.755173,0 -36.517845,0.0575 -36.774398,0.36657 -0.206923,0.24933 -0.280755,1.62449 -0.230836,4.29948 l 0.07339,3.93291 36.883564,0.0671 36.883574,0.0671 1.48102,-0.67621 c 1.73551,-0.79242 3.29033,-2.20662 4.05419,-3.68754 0.54212,-1.05102 0.54483,-1.05236 0.79843,-0.39687 0.14418,0.37269 0.18818,1.97393 0.10152,3.69496 -0.13475,2.676 -0.24875,3.23187 -0.95857,4.67372 -0.93393,1.89707 -2.15966,3.0688 -4.22228,4.03625 l -1.46728,0.68821 -43.010728,0.0723 c -23.655897,0.0397 -43.092849,-0.01 -43.193227,-0.11024 z m 55.648322,-29.46306 h 22.41101 l 0.13802,-8.26823 c 0.0891,-5.34065 0.0441,-8.38533 -0.12727,-8.59896 -0.37903,-0.47251 -50.210715,-0.48552 -50.683004,-0.0132 -0.465051,0.46505 -0.452568,16.3687 0.01323,16.856 0.251357,0.26296 0.991468,0.30741 3.083867,0.18521 1.514226,-0.0884 12.83809,-0.16079 25.164147,-0.16079 z m -0.0754,-25.55985 c -0.0879,-0.0879 -0.31612,-0.0973 -0.50712,-0.0209 -0.21106,0.0845 -0.14837,0.14716 0.15986,0.15985 0.27891,0.0115 0.43518,-0.051 0.34726,-0.13896 z m -19.507511,-5.4963 c 0,-0.0549 -0.20836,-0.2633 -0.463021,-0.46302 -0.419645,-0.3291 -0.429004,-0.31975 -0.0999,0.0999 0.345643,0.44073 0.562917,0.58089 0.562917,0.36312 z m -2.916791,-2.74437 c -2.514862,-2.64737 -2.864524,-2.98748 -2.244127,-2.18281 0.640355,0.83055 3.915106,4.23333 4.074057,4.23333 0.06488,0 -0.758592,-0.92273 -1.82993,-2.05052 z M 78.658123,111.398 c -0.238371,-0.3638 -0.486267,-0.66146 -0.550881,-0.66146 -0.129665,0 0.119853,0.47931 0.516511,0.99219 0.455573,0.58905 0.480415,0.35002 0.03437,-0.33073 z M 128.73715,98.251514 c -0.0845,-0.211066 -0.14715,-0.148373 -0.15985,0.159853 -0.0115,0.278913 0.0511,0.435184 0.13897,0.347266 0.0879,-0.08792 0.0973,-0.316124 0.0209,-0.507119 z M 73.974792,92.417229 c -0.06329,-0.329117 -0.11747,-0.122147 -0.120407,0.459936 -0.0029,0.582083 0.04885,0.851363 0.115067,0.598398 0.06622,-0.252966 0.06862,-0.729216 0.0053,-1.058334 z m 0.260807,-1.717841 c -0.06708,-0.257432 -0.126381,-0.110869 -0.131773,0.325694 -0.0054,0.436562 0.04949,0.647187 0.12197,0.468056 0.07247,-0.179131 0.07689,-0.536319 0.0098,-0.79375 z m 0.26197,-1.179124 c -0.08446,-0.211066 -0.147156,-0.148373 -0.159851,0.159854 -0.01148,0.278913 0.05104,0.435184 0.138964,0.347265 0.08792,-0.08792 0.09732,-0.316124 0.02088,-0.507119 z m 0.264583,-1.058333 c -0.08446,-0.211066 -0.147156,-0.148373 -0.159851,0.159853 -0.01148,0.278913 0.05104,0.435184 0.138965,0.347266 0.08792,-0.08792 0.09732,-0.316124 0.02087,-0.507119 z m 1.134073,-2.993099 c 0,-0.145521 -0.115414,-0.08599 -0.256479,0.132292 -0.141066,0.218281 -0.25648,0.515937 -0.25648,0.661458 0,0.145521 0.115414,0.08599 0.25648,-0.132291 0.141065,-0.218282 0.256479,-0.515938 0.256479,-0.661459 z m 0.90729,-1.918229 c 0.240525,-0.472943 0.377788,-0.859896 0.305028,-0.859896 -0.152395,0 -0.939631,1.466803 -0.939631,1.750751 0,0.276257 0.143476,0.07485 0.634603,-0.890855 z M 120.8835,76.472999 c -1.08412,-1.091406 -2.03066,-1.984375 -2.10342,-1.984375 -0.0728,0 0.75471,0.892969 1.83883,1.984375 1.08413,1.091407 2.03067,1.984375 2.10343,1.984375 0.0728,0 -0.75472,-0.892968 -1.83884,-1.984375 z m -2.38125,-2.084269 c 0,-0.05494 -0.20836,-0.263302 -0.46302,-0.463021 -0.41965,-0.329108 -0.42901,-0.319749 -0.0999,0.09989 0.34564,0.440729 0.56292,0.580887 0.56292,0.363126 z m -1.18975,-0.957016 c -0.0894,-0.144738 -0.4239,-0.390854 -0.74322,-0.546924 -0.50017,-0.244464 -0.48897,-0.208833 0.0809,0.257277 0.74077,0.605907 0.90115,0.676044 0.66234,0.289647 z M 89.816218,70.849821 c -0.121036,-0.121037 -1.741056,0.682148 -1.741056,0.863193 0,0.06667 0.415224,-0.07679 0.922718,-0.318798 0.507497,-0.242008 0.875747,-0.486986 0.818338,-0.544395 z m 1.698527,-0.59453 c 0.218281,-0.141064 0.277812,-0.25648 0.132291,-0.25648 -0.14552,0 -0.443177,0.115416 -0.661458,0.25648 -0.218281,0.141064 -0.277812,0.25648 -0.132291,0.25648 0.14552,0 0.443177,-0.115416 0.661458,-0.25648 z m 2.838761,-0.953602 c -0.0879,-0.08792 -0.31613,-0.09732 -0.50712,-0.02089 -0.21107,0.08446 -0.14837,0.147157 0.15985,0.159852 0.27892,0.01149 0.43519,-0.05104 0.34727,-0.138964 z m 1.05833,-0.264583 c -0.0879,-0.08792 -0.31612,-0.09732 -0.50712,-0.02089 -0.21106,0.08446 -0.14837,0.147156 0.15986,0.159852 0.27891,0.01149 0.43518,-0.05105 0.34726,-0.138964 z m 1.46072,-0.27996 c -0.1819,-0.0734 -0.47956,-0.0734 -0.66146,0 -0.1819,0.0734 -0.0331,0.133452 0.33073,0.133452 0.3638,0 0.51263,-0.06005 0.33073,-0.133452 z m 1.98438,-0.271739 c -0.25467,-0.06655 -0.67138,-0.06655 -0.92605,0 -0.25466,0.06655 -0.0463,0.121 0.46303,0.121 0.50932,0 0.71768,-0.05445 0.46302,-0.121 z"
         id="path1102" />
      <path
         style="fill:#59a8e5;stroke-width:1"
         d="m 48.570168,178.2996 c -0.100377,-0.10038 -0.182504,-27.59199 -0.182504,-61.09247 0,-48.419699 0.06782,-60.960668 0.330729,-61.157238 0.2038,-0.152375 16.882262,-0.190194 43.45781,-0.09854 l 43.127087,0.148734 1.32291,0.704744 c 1.58554,0.844648 3.02523,2.303255 3.87456,3.925464 l 0.62336,1.190625 v 46.698961 46.69895 l -0.57687,1.24872 c -0.79975,1.73115 -2.69564,3.49605 -4.46781,4.1591 -1.44595,0.541 -1.74554,0.5453 -37.927644,0.5453 -30.755173,0 -36.517845,0.0575 -36.774398,0.36657 -0.206923,0.24933 -0.280755,1.62449 -0.230836,4.29948 l 0.07339,3.93291 36.883564,0.0671 36.883574,0.0671 1.48102,-0.67621 c 1.73551,-0.79242 3.29033,-2.20662 4.05419,-3.68754 0.54212,-1.05102 0.54483,-1.05236 0.79843,-0.39687 0.14418,0.37269 0.18818,1.97393 0.10152,3.69496 -0.13475,2.676 -0.24875,3.23187 -0.95857,4.67372 -0.93393,1.89707 -2.15966,3.0688 -4.22228,4.03625 l -1.46728,0.68821 -43.010728,0.0723 c -23.655897,0.0397 -43.092849,-0.01 -43.193227,-0.11024 z m 55.648322,-29.46306 h 22.41101 l 0.13802,-8.26823 c 0.0891,-5.34065 0.0441,-8.38533 -0.12727,-8.59896 -0.37903,-0.47251 -50.210715,-0.48552 -50.683004,-0.0132 -0.465051,0.46505 -0.452568,16.3687 0.01323,16.856 0.251357,0.26296 0.991468,0.30741 3.083867,0.18521 1.514226,-0.0884 12.83809,-0.16079 25.164147,-0.16079 z m -0.0754,-25.55985 c -0.0879,-0.0879 -0.31612,-0.0973 -0.50712,-0.0209 -0.21106,0.0845 -0.14837,0.14716 0.15986,0.15985 0.27891,0.0115 0.43518,-0.051 0.34726,-0.13896 z m -19.507511,-5.4963 c 0,-0.0549 -0.20836,-0.2633 -0.463021,-0.46302 -0.419645,-0.3291 -0.429004,-0.31975 -0.0999,0.0999 0.345643,0.44073 0.562917,0.58089 0.562917,0.36312 z m -2.916791,-2.74437 c -2.514862,-2.64737 -2.864524,-2.98748 -2.244127,-2.18281 0.640355,0.83055 3.915106,4.23333 4.074057,4.23333 0.06488,0 -0.758592,-0.92273 -1.82993,-2.05052 z m 24.348042,-0.76421 c 4.73976,-1.19935 9.28833,-4.792 11.86605,-9.37229 4.61732,-8.204433 1.956,-19.293038 -5.88987,-24.540678 -9.47486,-6.337171 -21.759482,-3.382912 -27.367231,6.581388 -3.190292,5.668775 -2.992482,13.02155 0.509262,18.92978 4.009525,6.76496 13.021245,10.39083 20.881789,8.4018 z m -6.957534,-5.55391 c -0.10242,-0.10242 -0.18622,-0.57263 -0.18622,-1.04491 0,-0.7965 -0.0771,-0.87172 -1.06491,-1.0386 -2.47332,-0.41787 -4.98956,-3.10589 -5.09849,-5.44656 l -0.0543,-1.16691 2.17059,-0.07666 2.17059,-0.07665 0.41184,0.7964 c 0.59863,1.15763 1.14257,1.34127 3.972864,1.34127 2.34716,0 2.59297,-0.05 3.1924,-0.64944 0.35719,-0.35718 0.64943,-0.89838 0.64943,-1.20265 0,-0.304262 -0.29224,-0.845454 -0.64943,-1.202642 -0.61119,-0.611187 -0.82544,-0.650115 -3.63802,-0.661045 -4.273844,-0.01662 -6.038334,-0.804725 -7.546754,-3.370792 -0.62732,-1.067173 -0.73351,-1.538065 -0.73351,-3.252927 0,-1.769227 0.0943,-2.15832 0.80146,-3.307292 0.93309,-1.516025 2.83346,-2.896695 4.3366,-3.15065 0.98036,-0.165629 1.05556,-0.242017 1.13106,-1.148847 l 0.0809,-0.971421 h 2.248964 2.24896 l 0.0809,0.971421 c 0.0755,0.90683 0.15071,0.983218 1.13106,1.148847 2.45911,0.415464 4.97512,3.109798 5.08375,5.444064 l 0.0543,1.166918 -2.17059,0.07665 -2.17058,0.07665 -0.41184,-0.796409 c -0.59864,-1.157626 -1.14258,-1.341263 -3.97287,-1.341263 -2.347164,0 -2.592974,0.05001 -3.192404,0.649433 -0.35718,0.357187 -0.64943,0.898379 -0.64943,1.20265 0,0.304271 0.29225,0.845463 0.64943,1.202651 0.61119,0.611187 0.82544,0.650115 3.638034,0.661045 4.27384,0.01662 6.03832,0.804725 7.54675,3.370792 0.62732,1.067173 0.7335,1.538065 0.7335,3.252927 0,1.76922 -0.0943,2.15832 -0.80146,3.30729 -0.93309,1.51602 -2.83346,2.89669 -4.3366,3.15065 -0.98035,0.16563 -1.05556,0.24201 -1.13106,1.14884 l -0.0809,0.97142 -2.12889,0.076 c -1.17088,0.0418 -2.212684,-0.008 -2.315104,-0.11024 z m -20.451173,2.6801 c -0.238371,-0.3638 -0.486267,-0.66146 -0.550881,-0.66146 -0.129665,0 0.119853,0.47931 0.516511,0.99219 0.455573,0.58905 0.480415,0.35002 0.03437,-0.33073 z M 128.73715,98.251514 c -0.0845,-0.211066 -0.14715,-0.148373 -0.15985,0.159853 -0.0115,0.278913 0.0511,0.435184 0.13897,0.347266 0.0879,-0.08792 0.0973,-0.316124 0.0209,-0.507119 z M 73.974792,92.417229 c -0.06329,-0.329117 -0.11747,-0.122147 -0.120407,0.459936 -0.0029,0.582083 0.04885,0.851363 0.115067,0.598398 0.06622,-0.252966 0.06862,-0.729216 0.0053,-1.058334 z m 0.260807,-1.717841 c -0.06708,-0.257432 -0.126381,-0.110869 -0.131773,0.325694 -0.0054,0.436562 0.04949,0.647187 0.12197,0.468056 0.07247,-0.179131 0.07689,-0.536319 0.0098,-0.79375 z m 0.26197,-1.179124 c -0.08446,-0.211066 -0.147156,-0.148373 -0.159851,0.159854 -0.01148,0.278913 0.05104,0.435184 0.138964,0.347265 0.08792,-0.08792 0.09732,-0.316124 0.02088,-0.507119 z m 0.264583,-1.058333 c -0.08446,-0.211066 -0.147156,-0.148373 -0.159851,0.159853 -0.01148,0.278913 0.05104,0.435184 0.138965,0.347266 0.08792,-0.08792 0.09732,-0.316124 0.02087,-0.507119 z m 1.134073,-2.993099 c 0,-0.145521 -0.115414,-0.08599 -0.256479,0.132292 -0.141066,0.218281 -0.25648,0.515937 -0.25648,0.661458 0,0.145521 0.115414,0.08599 0.25648,-0.132291 0.141065,-0.218282 0.256479,-0.515938 0.256479,-0.661459 z m 0.90729,-1.918229 c 0.240525,-0.472943 0.377788,-0.859896 0.305028,-0.859896 -0.152395,0 -0.939631,1.466803 -0.939631,1.750751 0,0.276257 0.143476,0.07485 0.634603,-0.890855 z M 120.8835,76.472999 c -1.08412,-1.091406 -2.03066,-1.984375 -2.10342,-1.984375 -0.0728,0 0.75471,0.892969 1.83883,1.984375 1.08413,1.091407 2.03067,1.984375 2.10343,1.984375 0.0728,0 -0.75472,-0.892968 -1.83884,-1.984375 z m -2.38125,-2.084269 c 0,-0.05494 -0.20836,-0.263302 -0.46302,-0.463021 -0.41965,-0.329108 -0.42901,-0.319749 -0.0999,0.09989 0.34564,0.440729 0.56292,0.580887 0.56292,0.363126 z m -1.18975,-0.957016 c -0.0894,-0.144738 -0.4239,-0.390854 -0.74322,-0.546924 -0.50017,-0.244464 -0.48897,-0.208833 0.0809,0.257277 0.74077,0.605907 0.90115,0.676044 0.66234,0.289647 z M 89.816218,70.849821 c -0.121036,-0.121037 -1.741056,0.682148 -1.741056,0.863193 0,0.06667 0.415224,-0.07679 0.922718,-0.318798 0.507497,-0.242008 0.875747,-0.486986 0.818338,-0.544395 z m 1.698527,-0.59453 c 0.218281,-0.141064 0.277812,-0.25648 0.132291,-0.25648 -0.14552,0 -0.443177,0.115416 -0.661458,0.25648 -0.218281,0.141064 -0.277812,0.25648 -0.132291,0.25648 0.14552,0 0.443177,-0.115416 0.661458,-0.25648 z m 2.838761,-0.953602 c -0.0879,-0.08792 -0.31613,-0.09732 -0.50712,-0.02089 -0.21107,0.08446 -0.14837,0.147157 0.15985,0.159852 0.27892,0.01149 0.43519,-0.05104 0.34727,-0.138964 z m 1.05833,-0.264583 c -0.0879,-0.08792 -0.31612,-0.09732 -0.50712,-0.02089 -0.21106,0.08446 -0.14837,0.147156 0.15986,0.159852 0.27891,0.01149 0.43518,-0.05105 0.34726,-0.138964 z m 1.46072,-0.27996 c -0.1819,-0.0734 -0.47956,-0.0734 -0.66146,0 -0.1819,0.0734 -0.0331,0.133452 0.33073,0.133452 0.3638,0 0.51263,-0.06005 0.33073,-0.133452 z m 1.98438,-0.271739 c -0.25467,-0.06655 -0.67138,-0.06655 -0.92605,0 -0.25466,0.06655 -0.0463,0.121 0.46303,0.121 0.50932,0 0.71768,-0.05445 0.46302,-0.121 z"
         id="path1100" />
      <path
         style="fill:#fca731;stroke-width:1"
         d="m 48.742149,165.40345 c 0.09607,-6.97682 0.174681,-34.39446 0.174681,-60.92809 V 56.232375 h 6.102855 6.102853 l -0.05483,56.912835 c -0.0466,48.36869 5.3e-4,56.94783 0.313291,57.14595 0.207568,0.13144 16.127703,0.23487 36.501867,0.23716 39.331094,0.004 37.548454,0.0689 39.908404,-1.44461 1.01106,-0.64844 2.39979,-2.0407 2.90956,-2.91696 0.24302,-0.41774 0.29,0.16726 0.22309,2.77812 -0.076,2.96395 -0.15679,3.44463 -0.77855,4.63021 -0.82842,1.57964 -2.0315,2.76498 -3.65146,3.59765 -1.5433,0.79327 1.0699,0.74708 -47.468947,0.83912 l -40.457492,0.0767 z M 80.31538,152.89481 c -0.09775,-0.0977 -0.177718,-0.93178 -0.177718,-1.85341 v -1.67569 h 23.132148 c 20.67644,0 23.17628,-0.0441 23.54791,-0.41578 0.35436,-0.35436 0.41578,-1.33318 0.41578,-6.62667 v -6.2109 l 1.78593,0.0782 1.78594,0.0782 v 8.33438 8.33437 l -25.15613,0.0675 c -13.835881,0.0371 -25.236115,-0.0125 -25.33386,-0.11024 z m 21.38583,-25.4996 c -2.539394,-0.39573 -6.062574,-1.49289 -8.135654,-2.53353 -2.286915,-1.14798 -5.345313,-3.21724 -6.42975,-4.35025 l -0.780436,-0.81539 0.705615,0.26784 c 0.388088,0.14731 1.400119,0.61775 2.248958,1.04541 3.937253,1.98368 8.240883,2.82028 13.503407,2.62498 5.3579,-0.19883 9.31872,-1.48007 13.73213,-4.44204 5.80161,-3.89363 9.95912,-9.70358 11.92003,-16.65777 0.38936,-1.38087 0.48421,-2.658352 0.48129,-6.482295 -0.004,-5.35877 -0.40163,-7.415863 -2.17309,-11.244791 -0.50493,-1.091406 -1.0961,-2.401094 -1.31369,-2.910417 l -0.39562,-0.926041 0.82344,0.780436 c 2.3607,2.237401 5.15907,7.429886 6.28119,11.65498 0.61651,2.321337 0.70269,3.148801 0.70269,6.746878 0,3.59807 -0.0862,4.42553 -0.70269,6.74687 -2.59921,9.78675 -10.2097,17.38689 -19.88449,19.85744 -2.98163,0.76139 -7.89128,1.05721 -10.58333,0.63769 z m -4.940284,-4.35455 C 89.468873,121.81342 82.578118,117.28696 78.311857,110.9217 69.473682,97.735127 74.271255,78.99092 88.344973,71.72213 c 7.660613,-3.956551 16.765187,-4.329887 24.132147,-0.989547 4.41195,2.000475 9.15714,6.135839 11.93628,10.4023 6.91913,10.622073 5.44917,24.888357 -3.5073,34.039137 -6.1488,6.28219 -15.48533,9.32409 -24.145174,7.86664 z m 9.305904,-8.76885 c 4.73976,-1.19935 9.28833,-4.792 11.86605,-9.37229 4.61732,-8.204433 1.956,-19.293038 -5.88987,-24.540678 -9.47486,-6.337171 -21.759482,-3.382912 -27.367231,6.581388 -3.190292,5.668775 -2.992482,13.02155 0.509262,18.92978 4.009525,6.76496 13.021245,10.39083 20.881789,8.4018 z m -6.957534,-5.55391 c -0.10242,-0.10242 -0.18622,-0.57263 -0.18622,-1.04491 0,-0.7965 -0.0771,-0.87172 -1.06491,-1.0386 -2.47332,-0.41787 -4.98956,-3.10589 -5.09849,-5.44656 l -0.0543,-1.16691 2.17059,-0.07666 2.17059,-0.07665 0.41184,0.7964 c 0.59863,1.15763 1.14257,1.34127 3.972864,1.34127 2.34716,0 2.59297,-0.05 3.1924,-0.64944 0.35719,-0.35718 0.64943,-0.89838 0.64943,-1.20265 0,-0.304262 -0.29224,-0.845454 -0.64943,-1.202642 -0.61119,-0.611187 -0.82544,-0.650115 -3.63802,-0.661045 -4.273844,-0.01662 -6.038334,-0.804725 -7.546754,-3.370792 -0.62732,-1.067173 -0.73351,-1.538065 -0.73351,-3.252927 0,-1.769227 0.0943,-2.15832 0.80146,-3.307292 0.93309,-1.516025 2.83346,-2.896695 4.3366,-3.15065 0.98036,-0.165629 1.05556,-0.242017 1.13106,-1.148847 l 0.0809,-0.971421 h 2.248964 2.24896 l 0.0809,0.971421 c 0.0755,0.90683 0.15071,0.983218 1.13106,1.148847 2.45911,0.415464 4.97512,3.109798 5.08375,5.444064 l 0.0543,1.166918 -2.17059,0.07665 -2.17058,0.07665 -0.41184,-0.796409 c -0.59864,-1.157626 -1.14258,-1.341263 -3.97287,-1.341263 -2.347164,0 -2.592974,0.05001 -3.192404,0.649433 -0.35718,0.357187 -0.64943,0.898379 -0.64943,1.20265 0,0.304271 0.29225,0.845463 0.64943,1.202651 0.61119,0.611187 0.82544,0.650115 3.638034,0.661045 4.27384,0.01662 6.03832,0.804725 7.54675,3.370792 0.62732,1.067173 0.7335,1.538065 0.7335,3.252927 0,1.76922 -0.0943,2.15832 -0.80146,3.30729 -0.93309,1.51602 -2.83346,2.89669 -4.3366,3.15065 -0.98035,0.16563 -1.05556,0.24201 -1.13106,1.14884 l -0.0809,0.97142 -2.12889,0.076 c -1.17088,0.0418 -2.212684,-0.008 -2.315104,-0.11024 z"
         id="path1098" />
      <path
         style="fill:#3a98e0;stroke-width:1"
         d="m 48.742149,165.40345 c 0.09607,-6.97682 0.174681,-34.39446 0.174681,-60.92809 V 56.232375 h 6.102855 6.102853 l -0.05483,56.912835 c -0.0466,48.36869 5.3e-4,56.94783 0.313291,57.14595 0.207568,0.13144 16.127703,0.23487 36.501867,0.23716 39.331094,0.004 37.548454,0.0689 39.908404,-1.44461 1.01106,-0.64844 2.39979,-2.0407 2.90956,-2.91696 0.24302,-0.41774 0.29,0.16726 0.22309,2.77812 -0.076,2.96395 -0.15679,3.44463 -0.77855,4.63021 -0.82842,1.57964 -2.0315,2.76498 -3.65146,3.59765 -1.5433,0.79327 1.0699,0.74708 -47.468947,0.83912 l -40.457492,0.0767 z M 80.31538,152.89481 c -0.09775,-0.0977 -0.177718,-0.93178 -0.177718,-1.85341 v -1.67569 h 23.132148 c 20.67644,0 23.17628,-0.0441 23.54791,-0.41578 0.35436,-0.35436 0.41578,-1.33318 0.41578,-6.62667 v -6.2109 l 1.78593,0.0782 1.78594,0.0782 v 8.33438 8.33437 l -25.15613,0.0675 c -13.835881,0.0371 -25.236115,-0.0125 -25.33386,-0.11024 z m 21.38583,-25.4996 c -2.539394,-0.39573 -6.062574,-1.49289 -8.135654,-2.53353 -2.286915,-1.14798 -5.345313,-3.21724 -6.42975,-4.35025 l -0.780436,-0.81539 0.705615,0.26784 c 0.388088,0.14731 1.400119,0.61775 2.248958,1.04541 3.937253,1.98368 8.240883,2.82028 13.503407,2.62498 5.3579,-0.19883 9.31872,-1.48007 13.73213,-4.44204 5.80161,-3.89363 9.95912,-9.70358 11.92003,-16.65777 0.38936,-1.38087 0.48421,-2.658352 0.48129,-6.482295 -0.004,-5.35877 -0.40163,-7.415863 -2.17309,-11.244791 -0.50493,-1.091406 -1.0961,-2.401094 -1.31369,-2.910417 l -0.39562,-0.926041 0.82344,0.780436 c 2.3607,2.237401 5.15907,7.429886 6.28119,11.65498 0.61651,2.321337 0.70269,3.148801 0.70269,6.746878 0,3.59807 -0.0862,4.42553 -0.70269,6.74687 -2.59921,9.78675 -10.2097,17.38689 -19.88449,19.85744 -2.98163,0.76139 -7.89128,1.05721 -10.58333,0.63769 z m -5.027094,-4.6427 c -3.31033,-0.60035 -8.193486,-2.4146 -8.698533,-3.23179 -0.204015,-0.3301 3.528311,-6.66751 3.926737,-6.66751 0.187182,0 0.980226,0.27818 1.762316,0.61819 1.93369,0.84064 3.45933,1.23126 5.65532,1.44798 l 1.852084,0.18279 v 3.96874 3.96875 l -1.190624,0.0484 c -0.65485,0.0266 -2.14313,-0.12438 -3.3073,-0.33551 z m 16.643154,-6.12899 c -0.82396,-1.41883 -1.6613,-2.84339 -1.86074,-3.16569 -0.52976,-0.85611 -0.47422,-0.98961 0.74819,-1.79857 1.65124,-1.09274 3.48473,-2.89053 4.60124,-4.51165 0.54477,-0.79099 1.08108,-1.43815 1.1918,-1.43815 0.41581,0 6.39496,3.58616 6.52132,3.91134 0.50175,1.29127 -7.61259,9.58241 -9.37808,9.58241 -0.17909,0 -0.99976,-1.16086 -1.82373,-2.57969 z m -36.088294,-8.0567 c -1.484273,-2.41932 -2.882924,-7.41405 -2.985791,-10.662572 l -0.05865,-1.852083 h 3.96875 3.96875 l 0.182782,1.852083 c 0.21672,2.195982 0.607346,3.721632 1.447988,5.655322 0.340003,0.78209 0.618188,1.57389 0.618188,1.75957 0,0.25415 -3.794839,2.63197 -6.412071,4.01776 -0.106899,0.0566 -0.435374,-0.28993 -0.729948,-0.77008 z m 22.14556,-0.11285 c -0.10278,-0.10278 -0.18687,-0.56423 -0.18687,-1.02544 0,-0.80014 -0.0733,-0.85893 -1.59869,-1.28304 -2.05111,-0.57026 -3.75237,-2.17222 -4.30415,-4.05292 -0.20621,-0.70285 -0.31891,-1.42673 -0.25044,-1.60863 0.083,-0.2204 0.73065,-0.33073 1.94146,-0.33073 1.74723,0 1.83258,0.0302 2.22338,0.7859 0.60045,1.16113 1.13989,1.33076 4.232024,1.33076 2.62808,0 2.84907,-0.0415 3.45698,-0.64943 0.78817,-0.78816 0.84781,-1.957088 0.14424,-2.826985 -0.4713,-0.582729 -0.7344,-0.633945 -3.92268,-0.763614 -2.975114,-0.121 -3.585834,-0.225621 -4.717894,-0.808197 -0.71522,-0.368064 -1.67929,-1.165976 -2.14239,-1.773139 -2.688433,-3.524771 -0.97249,-8.555415 3.32586,-9.750464 1.53367,-0.4264 1.58766,-0.47158 1.66483,-1.393283 l 0.0798,-0.952592 h 1.984374 1.98438 l 0.0798,0.952592 c 0.0775,0.925447 0.12642,0.965565 1.71692,1.407766 2.0395,0.567031 3.67722,2.128964 4.24699,4.050453 0.49771,1.678517 0.26383,1.923563 -1.83593,1.923563 -1.596,0 -1.70106,-0.03956 -2.08701,-0.785907 -0.60045,-1.16113 -1.13989,-1.330759 -4.23202,-1.330759 -2.628084,0 -2.849064,0.04151 -3.456984,0.649433 -0.78816,0.788162 -0.84781,1.957088 -0.14424,2.826985 0.4713,0.582729 0.73441,0.633944 3.922684,0.763614 2.97511,0.120999 3.58584,0.225621 4.71789,0.808196 0.71522,0.368065 1.67929,1.165977 2.14239,1.77314 2.68844,3.524771 0.97249,8.555418 -3.32586,9.750468 -1.53367,0.4264 -1.58766,0.47158 -1.66483,1.39328 l -0.0798,0.95259 -1.86365,0.0766 c -1.025,0.0421 -1.947734,-0.008 -2.050524,-0.11024 z M 120.5027,95.596248 c -0.0578,-0.185809 -0.17622,-1.127604 -0.2632,-2.092878 -0.15628,-1.734208 -0.91623,-4.45181 -1.63271,-5.838586 -0.20302,-0.392957 -0.36913,-0.88958 -0.36913,-1.103609 0,-0.423693 6.32822,-4.179742 6.67793,-3.963614 0.35642,0.220284 1.56715,2.773513 2.20685,4.653888 0.69977,2.056948 1.5187,6.63254 1.38966,7.764428 l -0.088,0.771705 -3.90818,0.07325 c -2.99033,0.05605 -3.93285,-0.0061 -4.01324,-0.264584 z M 81.195995,84.279895 c -1.673489,-0.9892 -3.077395,-1.969785 -3.119789,-2.179076 -0.09319,-0.460036 1.924592,-3.288318 3.613748,-5.065318 1.577075,-1.65909 5.290523,-4.44595 5.789263,-4.344712 0.338296,0.06867 4.035528,6.070242 4.035528,6.550715 0,0.102436 -0.647168,0.631968 -1.438153,1.17674 -1.621121,1.116509 -3.418914,2.95 -4.511654,4.601244 -0.404302,0.610941 -0.868101,1.099137 -1.030666,1.084881 -0.162562,-0.01426 -1.664787,-0.835271 -3.338277,-1.824474 z m 28.303745,-5.678114 c -1.27699,-0.694886 -4.10602,-1.470625 -6.07874,-1.666832 l -1.98438,-0.197366 v -3.96875 -3.96875 l 2.05014,0.07465 c 1.12758,0.04106 3.1658,0.357664 4.52937,0.703564 2.38527,0.605072 6.28442,2.202678 6.59249,2.701154 0.0817,0.132258 -0.68502,1.695458 -1.70391,3.473777 -1.93113,3.370473 -2.13398,3.540174 -3.40497,2.848548 z"
         id="path1096" />
      <path
         style="fill:#ec8702;stroke-width:1"
         d="m 48.774538,177.92452 c -0.09878,-0.15983 -0.09208,-3.85298 0.01489,-8.207 l 0.194495,-7.9164 h 5.774348 5.774348 l 0.148786,4.16719 c 0.08183,2.29195 0.176951,5.95312 0.211376,8.13594 l 0.06259,3.96875 -6.000614,0.0711 c -4.144567,0.0491 -6.056169,-0.0188 -6.180219,-0.21954 z m 47.899578,-55.17201 c -3.31033,-0.60035 -8.193486,-2.4146 -8.698533,-3.23179 -0.204015,-0.3301 3.528311,-6.66751 3.926737,-6.66751 0.187182,0 0.980226,0.27818 1.762316,0.61819 1.93369,0.84064 3.45933,1.23126 5.65532,1.44798 l 1.852084,0.18279 v 3.96874 3.96875 l -1.190624,0.0484 c -0.65485,0.0266 -2.14313,-0.12438 -3.3073,-0.33551 z m 16.643154,-6.12899 c -0.82396,-1.41883 -1.6613,-2.84339 -1.86074,-3.16569 -0.52976,-0.85611 -0.47422,-0.98961 0.74819,-1.79857 1.65124,-1.09274 3.48473,-2.89053 4.60124,-4.51165 0.54477,-0.79099 1.08108,-1.43815 1.1918,-1.43815 0.41581,0 6.39496,3.58616 6.52132,3.91134 0.50175,1.29127 -7.61259,9.58241 -9.37808,9.58241 -0.17909,0 -0.99976,-1.16086 -1.82373,-2.57969 z m -36.088294,-8.0567 c -1.484273,-2.41932 -2.882924,-7.41405 -2.985791,-10.662572 l -0.05865,-1.852083 h 3.96875 3.96875 l 0.182782,1.852083 c 0.21672,2.195982 0.607346,3.721632 1.447988,5.655322 0.340003,0.78209 0.618188,1.57389 0.618188,1.75957 0,0.25415 -3.794839,2.63197 -6.412071,4.01776 -0.106899,0.0566 -0.435374,-0.28993 -0.729948,-0.77008 z m 22.14556,-0.11285 c -0.10278,-0.10278 -0.18687,-0.56423 -0.18687,-1.02544 0,-0.80014 -0.0733,-0.85893 -1.59869,-1.28304 -2.05111,-0.57026 -3.75237,-2.17222 -4.30415,-4.05292 -0.20621,-0.70285 -0.31891,-1.42673 -0.25044,-1.60863 0.083,-0.2204 0.73065,-0.33073 1.94146,-0.33073 1.74723,0 1.83258,0.0302 2.22338,0.7859 0.60045,1.16113 1.13989,1.33076 4.232024,1.33076 2.62808,0 2.84907,-0.0415 3.45698,-0.64943 0.78817,-0.78816 0.84781,-1.957088 0.14424,-2.826985 -0.4713,-0.582729 -0.7344,-0.633945 -3.92268,-0.763614 -2.975114,-0.121 -3.585834,-0.225621 -4.717894,-0.808197 -0.71522,-0.368064 -1.67929,-1.165976 -2.14239,-1.773139 -2.688433,-3.524771 -0.97249,-8.555415 3.32586,-9.750464 1.53367,-0.4264 1.58766,-0.47158 1.66483,-1.393283 l 0.0798,-0.952592 h 1.984374 1.98438 l 0.0798,0.952592 c 0.0775,0.925447 0.12642,0.965565 1.71692,1.407766 2.0395,0.567031 3.67722,2.128964 4.24699,4.050453 0.49771,1.678517 0.26383,1.923563 -1.83593,1.923563 -1.596,0 -1.70106,-0.03956 -2.08701,-0.785907 -0.60045,-1.16113 -1.13989,-1.330759 -4.23202,-1.330759 -2.628084,0 -2.849064,0.04151 -3.456984,0.649433 -0.78816,0.788162 -0.84781,1.957088 -0.14424,2.826985 0.4713,0.582729 0.73441,0.633944 3.922684,0.763614 2.97511,0.120999 3.58584,0.225621 4.71789,0.808196 0.71522,0.368065 1.67929,1.165977 2.14239,1.77314 2.68844,3.524771 0.97249,8.555418 -3.32586,9.750468 -1.53367,0.4264 -1.58766,0.47158 -1.66483,1.39328 l -0.0798,0.95259 -1.86365,0.0766 c -1.025,0.0421 -1.947734,-0.008 -2.050524,-0.11024 z M 120.5027,95.596248 c -0.0578,-0.185809 -0.17622,-1.127604 -0.2632,-2.092878 -0.15628,-1.734208 -0.91623,-4.45181 -1.63271,-5.838586 -0.20302,-0.392957 -0.36913,-0.88958 -0.36913,-1.103609 0,-0.423693 6.32822,-4.179742 6.67793,-3.963614 0.35642,0.220284 1.56715,2.773513 2.20685,4.653888 0.69977,2.056948 1.5187,6.63254 1.38966,7.764428 l -0.088,0.771705 -3.90818,0.07325 c -2.99033,0.05605 -3.93285,-0.0061 -4.01324,-0.264584 z M 81.195995,84.279895 c -1.673489,-0.9892 -3.077395,-1.969785 -3.119789,-2.179076 -0.09319,-0.460036 1.924592,-3.288318 3.613748,-5.065318 1.577075,-1.65909 5.290523,-4.44595 5.789263,-4.344712 0.338296,0.06867 4.035528,6.070242 4.035528,6.550715 0,0.102436 -0.647168,0.631968 -1.438153,1.17674 -1.621121,1.116509 -3.418914,2.95 -4.511654,4.601244 -0.404302,0.610941 -0.868101,1.099137 -1.030666,1.084881 -0.162562,-0.01426 -1.664787,-0.835271 -3.338277,-1.824474 z m 28.303745,-5.678114 c -1.27699,-0.694886 -4.10602,-1.470625 -6.07874,-1.666832 l -1.98438,-0.197366 v -3.96875 -3.96875 l 2.05014,0.07465 c 1.12758,0.04106 3.1658,0.357664 4.52937,0.703564 2.38527,0.605072 6.28442,2.202678 6.59249,2.701154 0.0817,0.132258 -0.68502,1.695458 -1.70391,3.473777 -1.93113,3.370473 -2.13398,3.540174 -3.40497,2.848548 z"
         id="path1094" />
      <path
         style="fill:#fe5521;stroke-width:1"
         d="m 48.774538,177.92452 c -0.09878,-0.15983 -0.09208,-3.85298 0.01489,-8.207 l 0.194495,-7.9164 h 5.774348 5.774348 l 0.148786,4.16719 c 0.08183,2.29195 0.176951,5.95312 0.211376,8.13594 l 0.06259,3.96875 -6.000614,0.0711 c -4.144567,0.0491 -6.056169,-0.0188 -6.180219,-0.21954 z m 50.677708,-70.11579 c 0,-0.97046 -0.47812,-1.49431 -1.51522,-1.66015 -1.68287,-0.2691 -3.34163,-1.51542 -4.13448,-3.10644 -0.38516,-0.77293 -0.7003,-1.67961 -0.7003,-2.01484 0,-0.57513 0.0991,-0.60951 1.7579,-0.60951 1.70248,0 1.78493,0.0313 2.61557,0.99219 l 0.85768,0.99219 h 2.919364 c 2.72553,0 2.96469,-0.0426 3.60213,-0.64144 0.93481,-0.87821 0.94062,-2.331381 0.0128,-3.203016 -0.61625,-0.578935 -0.95224,-0.641089 -4.19023,-0.77514 -3.328644,-0.137805 -3.590374,-0.189087 -4.808434,-0.942157 -4.546241,-2.810724 -3.15449,-10.31414 2.06799,-11.14925 1.0371,-0.165838 1.51522,-0.689687 1.51522,-1.660149 0,-0.500306 0.15674,-0.546561 1.852084,-0.546561 1.69534,0 1.85208,0.04626 1.85208,0.546561 0,0.970462 0.47812,1.494311 1.51522,1.660149 1.68287,0.269102 3.34164,1.515419 4.13448,3.106444 0.38517,0.772929 0.7003,1.679606 0.7003,2.014836 0,0.575133 -0.0991,0.60951 -1.75789,0.60951 -1.70249,0 -1.78494,-0.03128 -2.61558,-0.992188 l -0.85768,-0.992187 h -2.91936 c -2.725534,0 -2.964684,0.04259 -3.602134,0.641432 -0.93481,0.87821 -0.94062,2.331384 -0.0128,3.203019 0.61624,0.578935 0.95223,0.641088 4.190224,0.775139 3.32864,0.137806 3.59037,0.189088 4.80843,0.942158 4.54624,2.810724 3.15449,10.31414 -2.06799,11.14925 -1.0371,0.16584 -1.51522,0.68969 -1.51522,1.66015 0,0.50031 -0.15674,0.54656 -1.85208,0.54656 -1.695344,0 -1.852084,-0.0463 -1.852084,-0.54656 z"
         id="path1092" />
      <path
         style="fill:#1a70b1;stroke-width:1"
         d="m 48.774538,177.92452 c -0.09878,-0.15983 -0.09208,-3.85298 0.01489,-8.207 l 0.194495,-7.9164 h 5.774348 5.774348 l 0.148786,4.16719 c 0.08183,2.29195 0.176951,5.95312 0.211376,8.13594 l 0.06259,3.96875 -6.000614,0.0711 c -4.144567,0.0491 -6.056169,-0.0188 -6.180219,-0.21954 z"
         id="path1090" />
    </g>
  </g>
</svg>
