<?xml version="1.0" encoding="UTF-8" standalone="no"?>
<!-- Created with Inkscape (http://www.inkscape.org/) -->

<svg
   width="246.83849mm"
   height="246.425mm"
   viewBox="0 0 246.83848 246.425"
   version="1.1"
   id="svg5"
   inkscape:version="1.1.1 (3bf5ae0d25, 2021-09-20)"
   sodipodi:docname="crediario-4.svg"
   xmlns:inkscape="http://www.inkscape.org/namespaces/inkscape"
   xmlns:sodipodi="http://sodipodi.sourceforge.net/DTD/sodipodi-0.dtd"
   xmlns="http://www.w3.org/2000/svg"
   xmlns:svg="http://www.w3.org/2000/svg">
  <sodipodi:namedview
     id="namedview7"
     pagecolor="#ffffff"
     bordercolor="#666666"
     borderopacity="1.0"
     inkscape:pageshadow="2"
     inkscape:pageopacity="0.0"
     inkscape:pagecheckerboard="0"
     inkscape:document-units="mm"
     showgrid="false"
     inkscape:zoom="0.74118967"
     inkscape:cx="492.45155"
     inkscape:cy="441.85721"
     inkscape:window-width="2560"
     inkscape:window-height="1017"
     inkscape:window-x="-8"
     inkscape:window-y="-8"
     inkscape:window-maximized="1"
     inkscape:current-layer="layer1" />
  <defs
     id="defs2" />
  <g
     inkscape:label="Camada 1"
     inkscape:groupmode="layer"
     id="layer1"
     transform="translate(24.895205,30.321785)">
    <rect
       style="fill:#008080;stroke-width:0.15875;paint-order:markers stroke fill"
       id="rect858"
       width="246.83849"
       height="246.425"
       x="-24.895205"
       y="-30.321785" />
    <rect
       style="fill:#ffffff;stroke-width:0.15875;paint-order:markers stroke fill"
       id="rect1522"
       width="39.288906"
       height="72.453987"
       x="123.8495"
       y="1.4416256" />
    <rect
       style="fill:#ffffff;stroke-width:0.15875;paint-order:markers stroke fill"
       id="rect1342"
       width="92.455528"
       height="64.254807"
       x="13.924465"
       y="9.2838411" />
    <g
       id="g1120"
       transform="translate(-6.4254777,-4.9975962)">
      <path
         style="fill:#fdf3d5;stroke-width:1"
         d="m 68.042336,173.4559 -0.672038,-0.79375 0.79375,0.67204 c 0.745927,0.63155 0.954348,0.91546 0.672038,0.91546 -0.06694,0 -0.424131,-0.35719 -0.79375,-0.79375 z M 119.05224,92.228818 c 0,-42.653772 0.0808,-77.471549 0.17948,-77.372836 0.23167,0.231674 0.22709,154.518578 -0.005,154.750268 -0.0962,0.0962 -0.17489,-34.72366 -0.17489,-77.377432 z M 38.038608,154.48016 c -7.30654,-1.44608 -11.449804,-9.38931 -8.419584,-16.14154 2.500327,-5.57147 8.785269,-8.25977 14.64433,-6.26391 2.704255,0.92119 5.976958,4.19445 6.895994,6.89716 1.428266,4.20027 0.565509,8.60476 -2.29957,11.73961 -1.916897,2.09739 -3.991095,3.2664 -6.710828,3.78218 -2.069753,0.39253 -2.058684,0.39256 -4.110342,-0.0135 z m 5.194042,-6.43266 c 3.794767,-2.55729 3.794767,-7.48008 0,-10.03737 -0.859337,-0.57911 -1.700788,-0.80215 -3.026241,-0.80215 -5.944143,0 -8.029125,7.46808 -3.026241,10.83952 0.859338,0.57911 1.700789,0.80215 3.026241,0.80215 1.325453,0 2.166904,-0.22304 3.026241,-0.80215 z m 149.93078,6.24081 c 0.0169,-0.41097 0.10052,-0.49456 0.21313,-0.21314 0.10191,0.25466 0.0894,0.55894 -0.0278,0.67616 -0.11723,0.11722 -0.20061,-0.0911 -0.18529,-0.46302 z M 88.362847,153.73414 c -2.592483,-1.02277 -5.332222,-3.82665 -6.320748,-6.46871 -2.244816,-5.99982 0.704328,-12.78872 6.505798,-14.97628 2.888167,-1.08904 6.936179,-0.91013 9.536454,0.42149 3.180539,1.62877 5.555059,4.93217 6.077149,8.45444 0.74525,5.02786 -1.56118,9.68467 -5.99245,12.09906 -2.577599,1.40441 -6.911206,1.61212 -9.806203,0.47 z m 7.409649,-5.67824 c 2.393005,-1.62867 3.347999,-3.93641 2.672733,-6.45866 -0.758726,-2.83401 -2.77839,-4.38579 -5.710957,-4.38794 -3.28664,-0.002 -5.784808,2.51075 -5.784808,5.81952 0,2.12429 0.90121,3.74273 2.794593,5.01868 1.636684,1.10297 4.414506,1.10683 6.028439,0.008 z m 65.940934,3.50729 c -3.63979,-1.02861 -6.05859,-3.0989 -7.7041,-6.59409 -1.22097,-2.59343 -1.28687,-6.74937 -0.14645,-9.2342 1.01906,-2.22036 3.4022,-4.73562 5.56825,-5.87693 1.56281,-0.82346 2.18377,-0.93687 5.12944,-0.93687 2.9518,0 3.56171,0.11193 5.11528,0.93874 2.28564,1.21642 4.52078,3.54229 5.53593,5.76064 1.14617,2.50466 1.14213,7.05933 -0.008,9.39664 -2.52956,5.13912 -8.39575,7.98571 -13.49002,6.54607 z m 5.72713,-6.0948 c 2.74937,-1.42176 3.82303,-5.03921 2.34655,-7.90617 -2.18789,-4.24836 -8.40706,-4.1861 -10.48432,0.10494 -0.90413,1.86768 -0.92377,3.16261 -0.076,5.00888 1.49399,3.25346 5.01035,4.44888 8.21373,2.79235 z m 24.66453,1.76436 c 0.0169,-0.41096 0.10052,-0.49456 0.21314,-0.21313 0.1019,0.25466 0.0894,0.55893 -0.0278,0.67615 -0.11722,0.11723 -0.2006,-0.0911 -0.18528,-0.46302 z m -1.05833,-7.05555 c 0.0169,-0.41097 0.10052,-0.49456 0.21313,-0.21314 0.10191,0.25466 0.0894,0.55893 -0.0278,0.67616 -0.11723,0.11722 -0.2006,-0.0911 -0.18529,-0.46302 z m -1.41111,-9.525 c 0.0169,-0.41097 0.10052,-0.49456 0.21313,-0.21314 0.10191,0.25466 0.0894,0.55893 -0.0278,0.67616 -0.11723,0.11722 -0.20061,-0.0911 -0.18529,-0.46302 z m -1.05834,-7.05556 c 0.0169,-0.41097 0.10053,-0.49456 0.21314,-0.21313 0.10191,0.25465 0.0894,0.55893 -0.0278,0.67615 -0.11722,0.11723 -0.2006,-0.0911 -0.18528,-0.46302 z M 38.747728,118.77535 c -0.384848,-0.43657 -0.876073,-1.20992 -1.091612,-1.71857 -0.226709,-0.53501 -0.787872,-1.0242 -1.331358,-1.1606 -2.916993,-0.73212 -5.458593,-3.62879 -5.738322,-6.53999 -0.144791,-1.50687 -0.04949,-1.84554 0.742139,-2.63716 1.188468,-1.18847 2.791698,-1.20564 3.954981,-0.0424 0.47625,0.47625 0.865909,1.16295 0.865909,1.52601 0,0.36305 0.404605,1.0402 0.899123,1.50478 1.280699,1.20315 5.105889,1.40679 6.773793,0.3606 2.361652,-1.48133 1.255836,-3.1453 -3.19127,-4.80204 -8.109321,-3.02109 -10.451678,-5.402107 -10.052288,-10.218218 0.23322,-2.812334 1.56517,-4.568864 4.700308,-6.198613 1.716547,-0.892319 2.491556,-1.504205 2.569643,-2.028793 0.153321,-1.030005 1.707355,-2.1763 2.950412,-2.1763 1.209039,0 2.758612,1.384353 2.758612,2.464481 0,0.402964 0.277812,0.815378 0.617361,0.916477 4.07495,1.213281 7.361234,5.235025 6.636667,8.121929 -0.30995,1.234944 -1.596478,2.255446 -2.8434,2.255446 -1.480125,0 -2.227395,-0.615396 -2.7901,-2.297723 -0.657839,-1.96675 -2.150467,-2.71896 -5.069405,-2.554732 -1.813333,0.102027 -2.378891,0.289313 -3.124167,1.034592 -0.65665,0.65665 -0.843984,1.118048 -0.672856,1.657226 0.285979,0.90104 2.485577,2.209804 5.129233,3.051902 2.925883,0.931996 5.825667,2.488476 7.203981,3.866786 1.135259,1.13526 2.324452,3.92913 2.319051,5.44834 -0.0096,2.69933 -2.444963,5.85872 -5.488483,7.12019 -1.350414,0.55971 -1.917882,0.98922 -1.917882,1.45159 0,0.36117 -0.389659,1.04633 -0.865909,1.52258 -1.13794,1.13795 -2.975001,1.17155 -3.944161,0.0722 z m 52.872334,0.24877 c -0.427934,-0.29974 -0.904681,-1.03362 -1.059441,-1.63085 -0.231507,-0.89342 -0.601723,-1.20538 -2.088819,-1.76011 -4.125238,-1.53885 -6.722226,-6.68878 -4.49575,-8.91525 1.582921,-1.58293 3.950808,-0.83167 4.685665,1.48661 0.704063,2.22114 3.307313,3.27891 6.184822,2.51305 4.256613,-1.13291 3.362022,-3.93053 -1.79989,-5.62871 -6.64561,-2.18629 -9.290568,-4.50107 -9.855891,-8.625534 -0.435465,-3.177064 1.875727,-6.586541 5.36188,-7.90986 1.40147,-0.531989 1.781898,-0.861053 2.009094,-1.737836 0.710614,-2.742339 4.307396,-2.852392 5.28041,-0.161565 0.348484,0.963708 0.829172,1.372122 2.49459,2.11952 1.22252,0.548633 2.548698,1.493295 3.255318,2.318823 1.31163,1.532347 2.06494,4.107906 1.57692,5.391492 -0.37471,0.985559 -1.67238,1.918529 -2.66848,1.918529 -0.979804,0 -2.614915,-1.290486 -2.614915,-2.063775 0,-0.907796 -1.013989,-2.170133 -2.064071,-2.569615 -2.446905,-0.930868 -6.45161,-0.05444 -6.951758,1.521393 -0.478938,1.509003 0.970379,2.582156 5.840829,4.324868 1.455208,0.52069 3.294112,1.32515 4.086451,1.78768 1.359354,0.79352 4.009374,3.3944 4.042804,3.96783 0.008,0.14496 0.15627,0.97794 0.32849,1.85106 0.48888,2.47852 -0.16145,4.43731 -2.12517,6.40103 -1.02397,1.02396 -2.225557,1.82808 -3.142003,2.10265 -1.224682,0.36693 -1.578808,0.68169 -2.026903,1.80159 -0.812528,2.03071 -2.596127,2.65833 -4.254182,1.49698 z m 68.114928,-2.34383 c -0.42275,-0.20438 -0.95848,-0.82993 -1.19052,-1.3901 -0.32684,-0.78907 -0.71712,-1.0657 -1.73262,-1.22809 -3.27505,-0.5237 -6.40587,-3.33788 -6.91167,-6.21266 -0.20195,-1.14781 -0.0967,-1.44692 0.83758,-2.38125 1.72234,-1.72234 3.79084,-1.20091 4.79797,1.20948 0.35531,0.85039 0.84576,1.28995 1.78521,1.6 3.60432,1.18953 8.33543,-1.69264 6.36058,-3.87483 -0.55993,-0.61871 -2.01719,-1.06999 -7.43787,-2.30332 -3.23897,-0.73695 -5.89096,-2.267029 -7.10255,-4.097868 -1.31991,-1.994514 -1.54457,-5.225633 -0.50503,-7.263306 0.81145,-1.590559 3.29687,-3.893764 4.53796,-4.205256 0.60769,-0.15252 0.80321,-0.453817 0.80321,-1.237717 0,-1.394449 1.40043,-2.767944 2.82222,-2.767944 1.15209,0 2.82223,1.320814 2.82223,2.231933 0,0.312544 0.54138,0.586684 1.44348,0.730935 3.70158,0.591908 7.02318,3.78044 7.02318,6.741816 0,1.016652 -1.32135,2.569474 -2.29305,2.694739 -1.44376,0.186118 -2.51035,-0.383498 -3.21163,-1.715188 -0.38539,-0.731852 -1.09044,-1.527856 -1.56677,-1.768902 -1.23972,-0.627366 -3.46127,-0.536434 -5.09938,0.208728 -1.85229,0.842589 -2.42952,1.573089 -2.14351,2.71266 0.28621,1.140361 1.62064,1.721129 6.04751,2.631994 4.4986,0.925622 6.59392,1.882538 8.25556,3.770256 1.72388,1.95844 2.3245,4.30411 1.7184,6.71114 -0.44865,1.78172 -2.72745,4.37742 -4.79393,5.46056 -0.90179,0.47268 -1.14653,0.82491 -1.14653,1.65009 0,1.88794 -2.21543,3.0129 -4.12003,2.0921 z m 27.78399,-0.1392 c 0.0169,-0.41097 0.10052,-0.49456 0.21314,-0.21314 0.1019,0.25466 0.0894,0.55893 -0.0278,0.67616 -0.11722,0.11722 -0.2006,-0.0911 -0.18528,-0.46302 z m -1.41111,-9.525 c 0.0169,-0.41097 0.10052,-0.49456 0.21313,-0.21314 0.10191,0.25466 0.0894,0.55893 -0.0278,0.67616 -0.11722,0.11722 -0.2006,-0.0911 -0.18529,-0.46302 z m -1.05833,-7.055558 c 0.0169,-0.410969 0.10052,-0.494559 0.21313,-0.213138 0.10191,0.254656 0.0894,0.558936 -0.0278,0.676156 -0.11723,0.11723 -0.20061,-0.0911 -0.18529,-0.463018 z m -1.05834,-7.055556 c 0.0169,-0.410968 0.10052,-0.494559 0.21314,-0.213137 0.1019,0.254659 0.0894,0.558934 -0.0278,0.676158 -0.11722,0.117225 -0.2006,-0.09114 -0.18528,-0.463021 z m -1.41111,-9.524999 c 0.0169,-0.410969 0.10052,-0.49456 0.21314,-0.213138 0.1019,0.25466 0.0894,0.55893 -0.0278,0.676158 -0.11722,0.117225 -0.2006,-0.09114 -0.18528,-0.46302 z m -1.05833,-7.055556 c 0.0169,-0.410968 0.10052,-0.494559 0.21313,-0.213138 0.10191,0.25466 0.0894,0.558931 -0.0278,0.676159 -0.11723,0.117224 -0.2006,-0.09114 -0.18529,-0.463021 z M 88.095992,72.738703 c 2.667882,-0.05993 7.033507,-0.05993 9.701389,0 2.667879,0.05993 0.485069,0.108966 -4.850695,0.108966 -5.335764,0 -7.518576,-0.04903 -4.850694,-0.108966 z m 57.701218,-0.682815 c 0.25466,-0.101907 0.55893,-0.08938 0.67616,0.02783 0.11722,0.117224 -0.0911,0.200603 -0.46303,0.185286 -0.41096,-0.01693 -0.49455,-0.100521 -0.21313,-0.213134 z m -5.27052,-1.434709 c -0.43881,-0.559526 -0.42634,-0.572004 0.13319,-0.133195 0.58764,0.460859 0.77452,0.750556 0.48417,0.750556 -0.0733,0 -0.35107,-0.277812 -0.61736,-0.617361 z m 14.79552,0.0236 c 0.25466,-0.101907 0.55893,-0.08938 0.67615,0.02783 0.11723,0.117225 -0.0911,0.200604 -0.46302,0.185286 -0.41096,-0.01693 -0.49456,-0.10052 -0.21313,-0.213134 z m 7.05555,-1.058333 c 0.25466,-0.101907 0.55894,-0.08938 0.67616,0.02783 0.11722,0.117224 -0.0911,0.200604 -0.46302,0.185286 -0.41097,-0.01693 -0.49456,-0.100521 -0.21314,-0.213134 z m 18.08567,-0.317578 c 0.0169,-0.410968 0.10052,-0.494559 0.21313,-0.213138 0.10191,0.25466 0.0894,0.558931 -0.0278,0.676159 -0.11723,0.117225 -0.20061,-0.09114 -0.18529,-0.463021 z M 78.296429,45.132985 c 0,-12.708819 0.0441,-17.907882 0.09801,-11.553472 0.0539,6.35441 0.0539,16.752535 0,23.106944 -0.0539,6.35441 -0.09801,1.155347 -0.09801,-11.553472 z m 60.186441,19.902547 c 0.0169,-0.410968 0.10052,-0.494559 0.21314,-0.213137 0.1019,0.254659 0.0894,0.55893 -0.0278,0.676158 -0.11722,0.117225 -0.2006,-0.09114 -0.18529,-0.463021 z m 40.56944,-5.291666 c 0.0169,-0.410969 0.10053,-0.494559 0.21314,-0.213138 0.10191,0.25466 0.0894,0.558931 -0.0278,0.676159 -0.11722,0.117224 -0.2006,-0.09114 -0.18528,-0.463021 z M 167.05787,59.03831 c 0.0169,-0.410968 0.10052,-0.494559 0.21313,-0.213138 0.10191,0.25466 0.0894,0.558931 -0.0278,0.676159 -0.11722,0.117225 -0.2006,-0.09114 -0.18529,-0.463021 z m -29.63333,-1.058333 c 0.0169,-0.410969 0.10052,-0.494559 0.21313,-0.213138 0.10191,0.25466 0.0894,0.558931 -0.0278,0.676159 -0.11723,0.117224 -0.20061,-0.09114 -0.18529,-0.463021 z M 30.857798,55.122801 c -2.11069,-0.805084 -2.731424,-3.057129 -1.250758,-4.537794 l 0.86591,-0.865911 h 9.733459 9.73346 l 0.865907,0.865911 c 1.15013,1.150126 1.132692,2.640859 -0.04383,3.746902 l -0.90974,0.855243 -9.232621,0.06874 c -5.077942,0.03781 -9.470746,-0.02208 -9.761788,-0.133096 z M 83.19485,55.013733 c -0.985717,-0.397785 -1.88983,-1.710224 -1.88983,-2.743334 0,-0.450716 0.38966,-1.209142 0.86591,-1.685392 l 0.865908,-0.865911 h 9.733459 9.733463 l 0.8659,0.865911 c 1.4978,1.497792 1.02389,3.702928 -0.94317,4.388651 -1.33732,0.466192 -18.089215,0.501103 -19.23164,0.04008 z m 57.43833,-1.172234 c -1.0123,-1.07755 -0.99701,-2.725043 0.0343,-3.693901 0.67571,-0.634799 2.26448,-0.973275 10.13423,-2.159036 10.17835,-1.533606 10.64543,-1.518313 11.55445,0.378273 0.55232,1.152384 0.11884,2.500892 -1.04303,3.244706 -0.74971,0.479961 -16.7079,3.046444 -18.94255,3.046444 -0.55815,0 -1.29617,-0.34683 -1.73739,-0.816486 z m 37.3608,-1.153189 c 0.0169,-0.410968 0.10052,-0.494559 0.21314,-0.213137 0.1019,0.254659 0.0894,0.55893 -0.0278,0.676158 -0.11722,0.117225 -0.2006,-0.09114 -0.18528,-0.463021 z m -11.99444,-0.705555 c 0.0169,-0.410969 0.10052,-0.494559 0.21313,-0.213138 0.10191,0.25466 0.0894,0.558931 -0.0278,0.676159 -0.11723,0.117224 -0.20061,-0.09114 -0.18529,-0.463021 z M 136.3662,50.924421 c 0.0169,-0.410968 0.10052,-0.494559 0.21314,-0.213137 0.10191,0.254659 0.0894,0.55893 -0.0278,0.676158 -0.11722,0.117225 -0.2006,-0.09114 -0.18528,-0.463021 z m 40.56945,-5.291666 c 0.0169,-0.410969 0.10052,-0.494559 0.21313,-0.213138 0.10191,0.25466 0.0894,0.558931 -0.0278,0.676159 -0.11723,0.117224 -0.20061,-0.09114 -0.18529,-0.463021 z M 164.9412,44.927199 c 0.0169,-0.410968 0.10052,-0.494559 0.21314,-0.213137 0.1019,0.254659 0.0894,0.55893 -0.0278,0.676158 -0.11722,0.117225 -0.2006,-0.09114 -0.18528,-0.463021 z M 29.508181,42.55261 c -1.017507,-1.083088 -0.977805,-2.532606 0.09886,-3.60927 l 0.86591,-0.86591 h 9.733459 9.73346 l 0.865907,0.86591 c 1.111116,1.111116 1.131796,2.641872 0.04942,3.658708 -0.798188,0.749857 -1.037943,0.767048 -10.698228,0.767048 -9.873136,0 -9.882409,-7.05e-4 -10.648791,-0.816486 z M 82.03618,42.439576 c -0.969917,-1.23305 -0.923477,-2.438012 0.13475,-3.496236 l 0.865908,-0.86591 h 9.832318 c 9.821474,0 9.833164,0.0011 10.599374,0.816486 1.01891,1.08458 0.99703,2.725018 -0.0494,3.708132 -0.79834,0.749995 -1.03698,0.767048 -10.734119,0.767048 H 82.76734 Z m 56.83311,-0.239744 c -0.99279,-1.056774 -0.97769,-2.532715 0.0363,-3.54668 0.84886,-0.848861 1.21655,-0.922446 13.72234,-2.746272 6.15628,-0.897823 7.19688,-0.782998 7.99499,0.882198 0.54575,1.138686 0.0533,2.840648 -0.98223,3.394865 -0.73672,0.394279 -16.78089,2.832375 -18.63878,2.832375 -0.97125,0 -1.58702,-0.235754 -2.13259,-0.816486 z m -3.9142,-0.80041 c 0.0169,-0.410969 0.10052,-0.49456 0.21314,-0.213138 0.1019,0.254659 0.0894,0.55893 -0.0278,0.676158 -0.11722,0.117225 -0.2006,-0.09114 -0.18528,-0.46302 z m 40.56945,-5.291667 c 0.0169,-0.410969 0.10052,-0.494559 0.21313,-0.213138 0.10191,0.25466 0.0894,0.558931 -0.0278,0.676159 -0.11723,0.117224 -0.20061,-0.09114 -0.18529,-0.463021 z m -11.99445,-0.705556 c 0.0169,-0.410968 0.10052,-0.494559 0.21314,-0.213137 0.1019,0.254659 0.0894,0.55893 -0.0278,0.676158 -0.11722,0.117225 -0.2006,-0.09114 -0.18528,-0.463021 z m -29.63333,-1.058333 c 0.0169,-0.410968 0.10052,-0.494559 0.21313,-0.213138 0.10191,0.25466 0.0894,0.558931 -0.0278,0.676159 -0.11722,0.117224 -0.2006,-0.09114 -0.18529,-0.463021 z M 29.472292,30.79791 c -0.927655,-1.179321 -0.927655,-2.253306 0,-3.432627 l 0.73116,-0.92952 h 9.967068 c 9.962325,0 9.967434,3.88e-4 10.734119,0.816487 1.01891,1.084581 0.997038,2.725016 -0.04944,3.70813 -0.798336,0.749996 -1.036983,0.76705 -10.734118,0.76705 h -9.91763 z m 52.698638,0.06361 c -1.058227,-1.058225 -1.104667,-2.26319 -0.13475,-3.496238 l 0.73116,-0.92952 h 9.967069 c 9.962321,0 9.967431,3.88e-4 10.734121,0.816487 1.01891,1.084581 0.99703,2.725016 -0.0494,3.70813 -0.79778,0.749479 -1.04059,0.76705 -10.599372,0.76705 h -9.78288 z m 55.25282,-0.0474 c -1.61526,-1.359149 -1.38886,-3.289021 0.5021,-4.280144 0.38806,-0.203394 4.7835,-0.973677 9.76766,-1.71174 9.91207,-1.4678 10.52992,-1.443146 11.24927,0.448888 0.48619,1.278787 0.15309,2.441707 -0.89634,3.129322 -0.53519,0.350673 -4.28612,1.079619 -9.96037,1.935676 -5.00604,0.755245 -9.20877,1.377252 -9.3394,1.382238 -0.13064,0.005 -0.72595,-0.401922 -1.32292,-0.90424 z m 37.04245,-1.761927 c 0.0169,-0.410966 0.10052,-0.494559 0.21314,-0.213136 0.1019,0.254661 0.0894,0.558932 -0.0278,0.676157 -0.11722,0.117225 -0.2006,-0.09113 -0.18528,-0.463021 z m -11.99444,-0.705555 c 0.0169,-0.410966 0.10052,-0.494559 0.21313,-0.213137 0.10191,0.254662 0.0894,0.558932 -0.0278,0.676158 -0.11723,0.117225 -0.2006,-0.09114 -0.18529,-0.463021 z M 132.83843,27.28831 c 0.0169,-0.410966 0.10052,-0.49456 0.21313,-0.213137 0.10191,0.254661 0.0894,0.558932 -0.0278,0.676157 -0.11723,0.117225 -0.20061,-0.09113 -0.18529,-0.46302 z m 40.56944,-5.291667 c 0.0169,-0.410966 0.10052,-0.494559 0.21313,-0.213137 0.10191,0.254662 0.0894,0.558933 -0.0278,0.676158 -0.11722,0.117225 -0.2006,-0.09114 -0.18529,-0.463021 z m -11.99444,-0.705556 c 0.0169,-0.410966 0.10052,-0.494559 0.21313,-0.213136 0.10191,0.254661 0.0894,0.558932 -0.0278,0.676157 -0.11723,0.117225 -0.20061,-0.09113 -0.18529,-0.463021 z m -73.296346,-3.93863 c 2.679482,-0.06001 6.965732,-0.05985 9.525,3.44e-4 2.559266,0.0602 0.366963,0.10929 -4.871787,0.109101 -5.23875,-1.89e-4 -7.332697,-0.04944 -4.653213,-0.109445 z M 150.7361,15.258665 c 0.25465,-0.101908 0.55893,-0.08937 0.67615,0.02785 0.11723,0.117225 -0.0911,0.200603 -0.46302,0.185285 -0.41097,-0.01693 -0.49456,-0.10052 -0.21313,-0.213135 z m 21.26066,-2.787022 c 0.0169,-0.410966 0.10052,-0.494559 0.21313,-0.213137 0.10191,0.254662 0.0894,0.558933 -0.0278,0.676158 -0.11723,0.117225 -0.2006,-0.09113 -0.18529,-0.463021 z M 130.27498,6.4392204 c 0.25466,-0.1019073 0.55894,-0.089374 0.67616,0.027852 0.11723,0.1172252 -0.0911,0.2006039 -0.46302,0.1852859 -0.41097,-0.016926 -0.49456,-0.1005208 -0.21314,-0.2131366 z M 153.9111,2.9114427 c 0.25465,-0.1019073 0.55893,-0.089374 0.67615,0.027852 0.11723,0.1172252 -0.0911,0.2006039 -0.46302,0.1852859 -0.41097,-0.016926 -0.49456,-0.1005208 -0.21313,-0.2131367 z m 7.05555,-1.0583334 c 0.25466,-0.1019072 0.55893,-0.089374 0.67616,0.027852 0.11722,0.1172252 -0.0911,0.2006039 -0.46302,0.1852859 -0.41097,-0.016926 -0.49456,-0.1005209 -0.21314,-0.2131367 z"
         id="path1138" />
      <path
         style="fill:#c2dcfd;stroke-width:1"
         d="m 29.560259,175.04356 c 5.980312,-0.0542 15.664062,-0.0542 21.519445,8e-5 5.855381,0.0543 0.962399,0.0987 -10.873295,0.0986 -11.835694,-5e-5 -16.626462,-0.0445 -10.64615,-0.0987 z m 118.331561,0.0308 c 0.24254,-0.0979 0.63941,-0.0979 0.88195,0 0.24253,0.0979 0.0441,0.17793 -0.44097,0.17793 -0.48507,0 -0.68351,-0.0801 -0.44098,-0.17793 z M 13.952316,170.51609 c 0.01693,-0.41097 0.10052,-0.49456 0.213136,-0.21314 0.101908,0.25466 0.08938,0.55893 -0.02785,0.67616 -0.117226,0.11722 -0.200604,-0.0911 -0.185286,-0.46302 z m 19.747614,-1.59002 c -2.184048,-0.42827 -6.261916,-2.45563 -8.020319,-3.9874 -2.050755,-1.78645 -4.208834,-5.15075 -5.049097,-7.8712 -0.700419,-2.2677 -0.708827,-3.17713 -0.708827,-76.66933 V 6.0237244 L 19.127937,5.8656119 C 18.691375,5.77865 28.256062,5.7279213 40.382798,5.7528814 l 22.048611,0.045382 1.297887,0.8070529 c 0.761876,0.4737509 1.599607,1.4303276 2.028472,2.3162415 l 0.730585,1.5091892 v 79.440005 79.440008 l -15.610416,-0.0386 c -8.585729,-0.0213 -16.315832,-0.17698 -17.178007,-0.34604 z m 8.44902,-14.43241 c 2.719733,-0.51578 4.793931,-1.68479 6.710828,-3.78218 2.865079,-3.13485 3.727836,-7.53934 2.29957,-11.73961 -0.919036,-2.70271 -4.191739,-5.97597 -6.895994,-6.89716 -7.722533,-2.63064 -15.639815,2.9222 -15.639815,10.9691 0,6.17252 4.741546,11.12202 11.270136,11.76441 0.216052,0.0213 1.230926,-0.12029 2.255275,-0.31456 z m 0.542939,-35.79048 c 0.47625,-0.47625 0.865909,-1.16141 0.865909,-1.52258 0,-0.46237 0.567468,-0.89188 1.917882,-1.45159 3.04352,-1.26147 5.478887,-4.42086 5.488483,-7.12019 0.0054,-1.51921 -1.183792,-4.31308 -2.319051,-5.44834 -1.378314,-1.37831 -4.278098,-2.93479 -7.203981,-3.866786 -2.643656,-0.842098 -4.843254,-2.150862 -5.129233,-3.051902 -0.171128,-0.539178 0.01621,-1.000576 0.672856,-1.657226 0.745276,-0.745279 1.310834,-0.932565 3.124167,-1.034592 2.918938,-0.164228 4.411566,0.587982 5.069405,2.554732 0.258735,0.773543 0.74468,1.606981 1.079876,1.852083 0.920919,0.673393 2.711353,0.538473 3.578804,-0.269681 2.793037,-2.60211 -0.43144,-8.104744 -5.661847,-9.662054 -0.339549,-0.101099 -0.617361,-0.513513 -0.617361,-0.916477 0,-1.080128 -1.549573,-2.464481 -2.758612,-2.464481 -1.243057,0 -2.797091,1.146295 -2.950412,2.1763 -0.07809,0.524588 -0.853096,1.136474 -2.569643,2.028793 -3.135138,1.629749 -4.467088,3.386279 -4.700308,6.198613 -0.39939,4.816111 1.942967,7.197128 10.052288,10.218218 4.447106,1.65674 5.552922,3.32071 3.19127,4.80204 -1.667904,1.04619 -5.493094,0.84255 -6.773793,-0.3606 -0.494518,-0.46458 -0.899123,-1.14173 -0.899123,-1.50478 0,-0.36306 -0.389659,-1.04976 -0.865909,-1.52601 -1.163283,-1.16328 -2.766513,-1.14611 -3.954981,0.0424 -2.38602,2.38602 0.72797,8.10589 4.996183,9.17715 0.543486,0.1364 1.104649,0.62559 1.331358,1.1606 1.09827,2.5918 3.353162,3.32902 5.035773,1.6464 z m 7.937114,-46.052047 c 1.418449,-0.394056 3.286424,-2.163438 3.84327,-3.64042 0.25,-0.663109 0.374414,-8.608758 0.374414,-23.912025 0,-24.90996 0.04936,-24.260613 -1.985024,-26.111452 -1.742843,-1.585597 -2.776573,-1.72422 -12.796091,-1.715947 -8.368455,0.0069 -9.536896,0.07824 -10.795274,0.659017 -1.632523,0.753458 -2.79281,1.91272 -3.327889,3.324951 -0.252466,0.66633 -0.376277,8.534425 -0.376277,23.912025 0,18.676348 0.08991,23.12906 0.485718,24.054117 0.615462,1.438427 2.285428,3.01891 3.608028,3.414695 1.425478,0.426572 19.441255,0.439491 20.969125,0.01503 z M 15.511965,7.3857634 c 0.351185,-0.3880556 0.717894,-0.7055556 0.814908,-0.7055556 0.09701,0 -0.110945,0.3175 -0.46213,0.7055556 -0.351186,0.3880555 -0.717894,0.7055555 -0.814908,0.7055555 -0.09701,0 0.110945,-0.3175 0.46213,-0.7055555 z"
         id="path1136" />
      <path
         style="fill:#a3cbfe;stroke-width:1"
         d="m 17.275854,174.46452 c -0.582083,-0.25919 -1.35124,-0.79993 -1.709237,-1.20165 -1.68022,-1.88544 -1.610189,1.68736 -1.626668,-82.987774 l -0.01548,-79.564832 0.79375,-1.5712088 c 0.906389,-1.7941749 2.723879,-3.1644029 4.197309,-3.1644029 h 1.006163 V 80.373601 c 0,73.516779 0.0084,74.426169 0.708827,76.693869 0.840263,2.72045 2.998342,6.08475 5.049097,7.8712 1.868178,1.6274 5.849074,3.54955 8.313143,4.01395 1.102021,0.2077 8.342252,0.35814 17.236161,0.35814 h 15.335928 l -0.239149,0.97014 c -0.358743,1.45531 -1.305411,2.92401 -2.420637,3.75549 -0.984952,0.73434 -1.238518,0.74328 -23.283334,0.82091 -17.962531,0.0632 -22.492911,-0.013 -23.345869,-0.39278 z"
         id="path1134" />
      <path
         style="fill:#e9dca5;stroke-width:1"
         d="m 82.124149,175.04356 c 5.98031,-0.0542 15.664059,-0.0542 21.519441,8e-5 5.85538,0.0543 0.9624,0.0987 -10.873293,0.0986 -11.835694,-5e-5 -16.626462,-0.0445 -10.646148,-0.0987 z m 9.857249,-20.44983 c 0.536243,-0.0811 1.329993,-0.0789 1.763889,0.005 0.433895,0.0837 -0.0048,0.15008 -0.97499,0.14744 -0.970139,-0.003 -1.325142,-0.0712 -0.788899,-0.15225 z m 8.902792,-3.27464 c 0.35118,-0.38805 0.71789,-0.70555 0.81491,-0.70555 0.097,0 -0.11095,0.3175 -0.46214,0.70555 -0.35118,0.38806 -0.71789,0.70556 -0.81491,0.70556 -0.097,0 0.11095,-0.3175 0.46214,-0.70556 z m 63.23541,-5.17252 c 0.24254,-0.0979 0.63941,-0.0979 0.88195,0 0.24253,0.0979 0.0441,0.17794 -0.44098,0.17794 -0.48507,0 -0.6835,-0.0801 -0.44097,-0.17794 z m -59.81525,-2.05942 c 0.007,-0.58208 0.0863,-0.7775 0.1757,-0.43426 0.0894,0.34324 0.0836,0.81949 -0.0131,1.05834 -0.0966,0.23884 -0.16982,-0.042 -0.16263,-0.62408 z m -23.263145,-1.05833 c 0.0039,-0.77611 0.07616,-1.05207 0.160543,-0.61325 0.08438,0.43882 0.08118,1.07382 -0.0071,1.41111 -0.0883,0.33729 -0.157338,-0.0218 -0.153423,-0.79786 z m 23.263145,-1.05834 c 0.007,-0.58208 0.0863,-0.7775 0.1757,-0.43425 0.0894,0.34324 0.0836,0.81949 -0.0131,1.05833 -0.0966,0.23884 -0.16982,-0.042 -0.16263,-0.62408 z m 64.27965,-5.90902 -0.67204,-0.79375 0.79375,0.67203 c 0.43657,0.36962 0.79375,0.72681 0.79375,0.79375 0,0.28231 -0.28391,0.0739 -0.91546,-0.67203 z m -67.73333,-1.41111 -0.67204,-0.79375 0.79375,0.67203 c 0.74593,0.63155 0.95435,0.91547 0.67204,0.91547 -0.0669,0 -0.42413,-0.35719 -0.79375,-0.79375 z m 71.79709,-2.64584 -0.85524,-0.97014 0.97014,0.85525 c 0.90674,0.79935 1.13192,1.08503 0.85524,1.08503 -0.0632,0 -0.49975,-0.43656 -0.97014,-0.97014 z m -16.37746,-0.0882 c 0.35118,-0.38806 0.71789,-0.70556 0.81491,-0.70556 0.097,0 -0.11095,0.3175 -0.46214,0.70556 -0.35118,0.38805 -0.71789,0.70555 -0.81491,0.70555 -0.097,0 0.11095,-0.3175 0.46214,-0.70555 z m -64.288902,-0.60593 c 0.536243,-0.0811 1.329993,-0.0789 1.763889,0.005 0.433895,0.0837 -0.0048,0.15008 -0.97499,0.14743 -0.970139,-0.003 -1.325142,-0.0712 -0.788899,-0.15224 z M 89.845971,116.5349 c -0.250183,-0.27147 -0.299241,-0.49358 -0.109012,-0.49358 0.366338,0 0.896662,0.67106 0.687416,0.86983 -0.06794,0.0645 -0.328218,-0.10477 -0.578404,-0.37625 z m 74.064749,-2.25747 c 0,-0.48507 0.0801,-0.68351 0.17794,-0.44097 0.0979,0.24253 0.0979,0.63941 0,0.88194 -0.0979,0.24254 -0.17794,0.0441 -0.17794,-0.44097 z m -78.923727,-0.79375 -1.03614,-1.14653 1.146528,1.03614 c 1.068726,0.96583 1.308682,1.25692 1.03614,1.25692 -0.06071,0 -0.576651,-0.51594 -1.146528,-1.14653 z m 15.720807,0.66055 c 0,-0.0732 0.27781,-0.35106 0.61736,-0.61736 0.55953,-0.43881 0.572,-0.42633 0.13319,0.1332 -0.46086,0.58764 -0.75055,0.77451 -0.75055,0.48416 z m -7.849308,-3.27544 c 0.242535,-0.0979 0.63941,-0.0979 0.881944,0 0.242535,0.0979 0.0441,0.17794 -0.440972,0.17794 -0.485069,0 -0.683507,-0.0801 -0.440972,-0.17794 z M 158.14443,108.392 c 0.25466,-0.10191 0.55893,-0.0894 0.67616,0.0278 0.11722,0.11723 -0.0911,0.20061 -0.46302,0.18529 -0.41097,-0.0169 -0.49456,-0.10052 -0.21314,-0.21314 z m 1.41111,0 c 0.25466,-0.10191 0.55893,-0.0894 0.67616,0.0278 0.11722,0.11723 -0.0911,0.20061 -0.46302,0.18529 -0.41097,-0.0169 -0.49456,-0.10052 -0.21314,-0.21314 z m -56.3226,-0.81735 c 0,-0.48507 0.0801,-0.68351 0.17794,-0.44097 0.0979,0.24253 0.0979,0.63941 0,0.88194 -0.0979,0.24254 -0.17794,0.0441 -0.17794,-0.44097 z m -2.37095,-4.6743 -1.036137,-1.14653 1.146527,1.03614 c 1.06873,0.96583 1.30868,1.25691 1.03614,1.25691 -0.0607,0 -0.57665,-0.51593 -1.14653,-1.14652 z m 66.82858,-2.64584 c -0.43881,-0.559524 -0.42633,-0.572002 0.1332,-0.13319 0.58764,0.46086 0.77452,0.75055 0.48416,0.75055 -0.0733,0 -0.35106,-0.27781 -0.61736,-0.61736 z M 98.193353,97.43229 c -0.43881,-0.559527 -0.426332,-0.572004 0.133194,-0.133195 0.339549,0.266295 0.617361,0.544107 0.617361,0.617361 0,0.290351 -0.289697,0.103474 -0.750555,-0.484166 z m 3.925557,0.484166 c 0,-0.07325 0.27781,-0.351066 0.61736,-0.617361 0.55953,-0.438809 0.572,-0.426332 0.13319,0.133195 -0.46085,0.58764 -0.75055,0.774517 -0.75055,0.484166 z M 89.373908,97.079512 c -0.43881,-0.559526 -0.426332,-0.572004 0.133195,-0.133194 0.58764,0.460858 0.774517,0.750555 0.484166,0.750555 -0.07325,0 -0.351067,-0.277812 -0.617361,-0.617361 z m 8.186741,-0.999536 c 0.01693,-0.410968 0.100521,-0.494559 0.213134,-0.213137 0.101907,0.254659 0.08938,0.558934 -0.02783,0.676158 -0.117228,0.117225 -0.200603,-0.09114 -0.185286,-0.463021 z m -8.819444,-0.352777 c 0.01693,-0.410969 0.10052,-0.49456 0.213134,-0.213138 0.101907,0.25466 0.08938,0.558934 -0.02783,0.676158 -0.117228,0.117225 -0.200604,-0.09114 -0.185286,-0.46302 z m 14.463885,-1.058334 c 0.0169,-0.410968 0.10052,-0.494559 0.21314,-0.213137 0.1019,0.254659 0.0894,0.558934 -0.0278,0.676158 -0.11722,0.117225 -0.2006,-0.09114 -0.18528,-0.463021 z m 44.47785,-0.852547 c 0,-0.48507 0.0801,-0.683507 0.17794,-0.440972 0.0979,0.242534 0.0979,0.639409 0,0.881944 -0.0979,0.242535 -0.17794,0.0441 -0.17794,-0.440972 z M 84.127242,91.589264 c 0,-0.06071 0.515937,-0.576651 1.146528,-1.146528 l 1.146527,-1.03614 -1.03614,1.146527 c -0.965828,1.068727 -1.256915,1.308683 -1.256915,1.036141 z m 81.817738,-3.681974 -0.85524,-0.970139 0.97014,0.855243 c 0.90674,0.799356 1.13192,1.085035 0.85524,1.085035 -0.0632,0 -0.49975,-0.436562 -0.97014,-0.970139 z M 89.970755,87.715686 c 0.132479,-0.347917 0.329738,-0.543708 0.438355,-0.435091 0.108617,0.108616 2.26e-4,0.393273 -0.24087,0.632576 -0.34841,0.345814 -0.38893,0.305294 -0.197485,-0.197485 z M 105.4703,71.23854 c 0.35118,-0.388055 0.71789,-0.705555 0.81491,-0.705555 0.097,0 -0.11095,0.3175 -0.46214,0.705555 -0.35118,0.388056 -0.71789,0.705556 -0.8149,0.705556 -0.097,0 0.11094,-0.3175 0.46213,-0.705556 z m 62.32097,-7.408333 c 0,-0.485069 0.0801,-0.683507 0.17794,-0.440972 0.0979,0.242535 0.0979,0.63941 0,0.881944 -0.0979,0.242535 -0.17794,0.0441 -0.17794,-0.440972 z m -62.35449,-44.890972 -0.67204,-0.79375 0.79375,0.672038 c 0.43656,0.36962 0.79375,0.726808 0.79375,0.79375 0,0.282311 -0.28391,0.07389 -0.91546,-0.672038 z m 11.64167,-11.6416661 -0.67204,-0.79375 0.79375,0.6720375 c 0.43656,0.3696204 0.79375,0.7268079 0.79375,0.79375 0,0.2823114 -0.28391,0.073892 -0.91546,-0.6720375 z m -3.38402,-1.563904 c 0.25466,-0.1019073 0.55893,-0.089374 0.67616,0.027852 0.11722,0.1172252 -0.0911,0.2006039 -0.46302,0.1852859 -0.41097,-0.016926 -0.49456,-0.1005209 -0.21314,-0.2131367 z"
         id="path1132" />
      <path
         style="fill:#b1e39e;stroke-width:1"
         d="m 158.47866,166.31805 c -5.36221,-1.47565 -9.89987,-5.6511 -11.87329,-10.92553 -0.39378,-1.05248 -1.27211,-5.61425 -1.95182,-10.13726 -2.0512,-13.64911 -5.08052,-33.98147 -12.89367,-86.540331 -4.09573,-27.551944 -7.59995,-50.3722559 -7.78715,-50.7118045 -0.27915,-0.5063469 -0.19709,-0.6170041 0.45638,-0.6153753 0.43821,0.00109 9.91927,-1.3631968 21.06903,-3.0317535 22.33811,-3.3428898 21.83253,-3.3180808 23.97419,-1.1764268 0.58754,0.5875384 1.22157,1.6552259 1.40896,2.3726398 0.18739,0.7174134 5.50843,35.9912623 11.82454,78.3863313 6.3161,42.39507 11.55738,77.40009 11.64729,77.78893 0.15571,0.67349 -0.55046,0.81222 -14.90274,2.92771 -15.35783,2.26371 -18.02104,2.47488 -20.97172,1.66287 z m 11.13167,-15.48061 c 2.15153,-1.05265 4.36019,-3.25062 5.59574,-5.56869 0.6899,-1.29437 0.81799,-2.05861 0.81881,-4.88577 0.001,-3.93797 -0.74637,-5.88119 -3.21015,-8.34496 -2.3001,-2.3001 -4.0496,-3.04576 -7.5486,-3.21735 -3.79367,-0.18602 -6.2984,0.65882 -8.60797,2.90346 -5.30909,5.15985 -4.89418,13.25575 0.91916,17.93502 3.15909,2.54281 8.22925,3.03929 12.03301,1.17829 z m -6.31584,-34.82319 c 0.50232,-0.59697 0.91331,-1.44461 0.91331,-1.88365 0,-0.50897 0.31938,-0.94377 0.8813,-1.1998 1.60327,-0.7305 4.00618,-3.25766 4.61615,-4.85486 1.46495,-3.83593 -0.94724,-8.3842 -5.32106,-10.033052 -0.58209,-0.219434 -2.64584,-0.722337 -4.58612,-1.117561 -1.94027,-0.395224 -3.95963,-0.940576 -4.48746,-1.211894 -1.12762,-0.579635 -1.76947,-1.622273 -1.47349,-2.393586 0.31512,-0.821186 2.27869,-1.911728 3.91259,-2.172999 2.22506,-0.355801 3.86751,0.343479 4.71678,2.008181 1.57773,3.092612 5.63086,2.36051 5.61606,-1.014406 -0.0126,-2.883171 -2.66858,-5.635028 -6.32672,-6.555221 -1.05754,-0.266023 -1.99056,-0.705704 -2.07338,-0.977074 -0.89851,-2.944287 -5.70521,-2.572756 -5.70521,0.440979 0,0.760959 -0.26327,1.120182 -1.14653,1.564368 -5.49147,2.761658 -6.6596,9.357378 -2.30852,13.034896 1.69617,1.433599 3.64998,2.197829 7.74936,3.031169 4.09206,0.83185 5.43205,1.39265 5.7544,2.40827 0.52574,1.65647 -1.75471,3.223 -4.72535,3.24601 -2.0734,0.0161 -3.02624,-0.44545 -3.73019,-1.80675 -1.34855,-2.60779 -4.14937,-2.85349 -5.4161,-0.47512 -0.83841,1.57418 -0.21101,3.53278 1.81579,5.6685 1.06643,1.12374 4.1761,2.55678 5.54815,2.55678 0.38926,0 0.69232,0.23866 0.69232,0.5452 0,1.00749 1.64543,2.27702 2.95122,2.27702 0.92856,0 1.43723,-0.25887 2.1327,-1.0854 z m -9.25556,-44.965515 c 9.45977,-1.375896 11.14046,-1.831834 12.43833,-3.374273 1.815,-2.157007 1.84184,-1.760619 -1.74959,-25.839307 -1.82762,-12.253207 -3.40658,-22.623511 -3.5088,-23.045119 -0.25535,-1.053127 -1.82646,-2.855623 -3.0328,-3.479443 -0.54933,-0.284073 -1.72308,-0.516496 -2.60831,-0.516496 -1.92179,0 -17.88996,2.329202 -19.4458,2.836468 -2.08138,0.678608 -3.67416,2.963885 -3.67416,5.271559 0,0.798399 1.44144,11.167274 3.20319,23.041943 3.5376,23.844183 3.60785,24.136307 6.14542,25.553254 0.77611,0.433369 1.91512,0.790557 2.53114,0.79375 0.61601,0.0032 4.98163,-0.555858 9.70138,-1.242336 z M 119.13409,13.382986 c 0,-0.679098 0.0726,-0.95691 0.16133,-0.617362 0.0887,0.339549 0.0887,0.895174 0,1.234723 -0.0887,0.339548 -0.16133,0.06174 -0.16133,-0.617361 z"
         id="path1130" />
      <path
         style="fill:#fec168;stroke-width:1"
         d="m 86.243909,168.92572 c -4.297063,-0.83301 -9.309855,-4.49931 -11.558718,-8.45391 -2.354326,-4.14007 -2.199616,1.5066 -2.199616,-80.282158 0,-58.991201 -0.09018,-74.1940013 -0.440972,-74.3410331 -0.242535,-0.1016564 9.242778,-0.1545731 21.078472,-0.1175928 19.282175,0.060247 21.629475,0.1279366 22.577775,0.6510796 1.37128,0.7564808 2.50319,1.9859268 2.97512,3.2314846 0.26245,0.6927057 0.37627,24.9958747 0.37627,80.3451377 v 79.352032 l -15.61041,-0.0386 c -8.585734,-0.0213 -16.324796,-0.17714 -17.197921,-0.34639 z m 11.46382,-15.26752 c 2.409511,-1.10312 4.592761,-3.30334 5.769811,-5.81469 1.33163,-2.84115 1.33163,-6.78823 0,-9.62939 -1.19201,-2.54326 -3.36089,-4.70859 -5.892546,-5.88289 -2.913313,-1.35133 -6.835499,-1.33373 -9.644256,0.0433 -7.178477,3.51932 -9.045444,12.62366 -3.771889,18.39377 1.697436,1.85726 3.845806,3.18545 6.090616,3.7654 1.832882,0.47352 5.423514,0.0515 7.448264,-0.87549 z m -2.317203,-35.01862 c 0.402138,-0.51124 0.736434,-1.18593 0.742883,-1.49931 0.0072,-0.35212 0.981114,-1.04147 2.549296,-1.80451 2.087695,-1.01582 2.720255,-1.53214 3.568025,-2.91235 1.41167,-2.29827 1.59404,-4.51547 0.56767,-6.90134 -1.27049,-2.95334 -2.925304,-4.12774 -9.048581,-6.421716 -3.62453,-1.357863 -4.779761,-2.223449 -4.634978,-3.472882 0.224349,-1.936034 4.476323,-2.854053 6.985723,-1.508249 0.89426,0.479598 1.287844,0.974704 1.465549,1.843596 0.490572,2.398635 3.362907,3.288788 5.077997,1.573699 1.13525,-1.135249 1.12324,-2.712494 -0.0384,-5.043621 -0.9498,-1.906006 -2.983715,-3.566714 -5.307515,-4.333639 -0.821034,-0.270965 -1.196499,-0.612732 -1.196499,-1.089113 0,-1.124486 -1.567144,-2.426049 -2.921081,-2.426049 -1.267319,0 -2.274316,0.844201 -2.970593,2.490346 -0.253214,0.59865 -0.840486,1.041019 -1.743019,1.312944 -3.116605,0.939003 -5.418084,3.967706 -5.418084,7.130097 0,4.531907 2.442033,6.941017 9.696866,9.566127 3.69958,1.33866 4.844831,2.1777 4.698312,3.44211 -0.0759,0.65496 -0.472091,1.11125 -1.342401,1.54602 -2.630896,1.31428 -6.517788,0.40588 -7.167643,-1.67514 -0.821726,-2.63141 -3.291805,-3.50735 -5.019224,-1.77993 -2.402843,2.40284 0.189008,7.52162 4.676214,9.2353 0.913261,0.34877 1.582053,0.86188 1.720625,1.32008 0.720188,2.38141 3.651316,3.19694 5.058868,1.40753 z m 8.703564,-46.309344 c 0.7953,-0.361185 1.82718,-1.191137 2.29305,-1.844336 l 0.84705,-1.187637 V 45.132985 20.967708 l -0.84705,-1.187637 c -1.66928,-2.340495 -2.53762,-2.500095 -13.649552,-2.508782 -9.672345,-0.0076 -9.947399,0.01177 -11.446672,0.804607 -1.049983,0.555244 -1.793297,1.298559 -2.348541,2.348542 l -0.812355,1.536186 v 23.172361 23.17236 l 0.812355,1.536188 c 0.555244,1.049983 1.298558,1.793297 2.348541,2.348541 1.499273,0.792836 1.774327,0.812168 11.446672,0.804608 8.901472,-0.0069 10.057712,-0.07461 11.356502,-0.664446 z"
         id="path1128" />
      <path
         style="fill:#94d5a3;stroke-width:1"
         d="m 145.56322,174.35673 c -2.74559,-1.35277 -1.68276,4.60637 -14.49577,-81.276356 -6.41434,-42.993867 -11.66243,-78.966954 -11.66243,-79.940192 0,-1.256645 0.23322,-2.116954 0.80467,-2.968221 0.93133,-1.3873664 3.23689,-2.7860918 3.71321,-2.2526988 0.26335,0.2949123 5.40581,34.3444578 18.08777,119.7637178 3.6513,24.59328 3.9701,26.41 5.04743,28.76319 1.4498,3.16678 3.44303,5.55545 6.10727,7.31887 5.6271,3.7245 7.02204,3.77493 26.04539,0.94159 8.23338,-1.22628 15.0624,-2.13698 15.1756,-2.02378 0.37073,0.37072 -0.25786,2.74029 -1.02705,3.87163 -0.41409,0.60907 -1.30853,1.38562 -1.98762,1.72567 -1.23615,0.61897 -40.75656,6.69406 -43.39167,6.67018 -0.6791,-0.006 -1.76666,-0.27328 -2.4168,-0.5936 z m 14.71902,-30.005 c -0.43881,-0.55952 -0.42633,-0.572 0.1332,-0.13319 0.58763,0.46086 0.77451,0.75056 0.48416,0.75056 -0.0733,0 -0.35107,-0.27782 -0.61736,-0.61737 z m 7.80611,0.48417 c 0,-0.0733 0.27781,-0.35107 0.61736,-0.61736 0.55953,-0.43881 0.57201,-0.42633 0.1332,0.13319 -0.46086,0.58764 -0.75056,0.77452 -0.75056,0.48417 z m 2.18544,-4.6293 c 0.007,-0.58209 0.0863,-0.77751 0.1757,-0.43426 0.0894,0.34324 0.0836,0.81949 -0.0131,1.05833 -0.0966,0.23884 -0.16981,-0.042 -0.16262,-0.62407 z m -11.68259,-0.0294 c 0.0169,-0.41097 0.10052,-0.49456 0.21314,-0.21314 0.10191,0.25466 0.0894,0.55893 -0.0278,0.67616 -0.11722,0.11722 -0.2006,-0.0911 -0.18528,-0.46302 z"
         id="path1126" />
      <path
         style="fill:#fda85e;stroke-width:1"
         d="m 69.716002,174.36091 c -0.650141,-0.32263 -1.602641,-1.22211 -2.116667,-1.99886 l -0.934593,-1.41226 V 90.490692 10.031597 l 0.72463,-1.2335238 c 0.903327,-1.537717 2.76581,-2.8234209 4.090039,-2.8234209 h 1.006164 V 80.160255 c 0,81.821235 -0.154739,76.171435 2.199616,80.311555 2.324064,4.08684 7.290406,7.63716 11.871452,8.4866 1.078988,0.20007 8.528138,0.35235 17.236157,0.35235 h 15.33593 l -0.23915,0.97014 c -0.35874,1.45531 -1.30541,2.92401 -2.42063,3.75549 -0.98475,0.73419 -1.24311,0.74336 -23.283338,0.82677 -20.178345,0.0764 -22.399402,0.0288 -23.46961,-0.50225 z"
         id="path1124" />
      <path
         style="fill:#5c525f;stroke-width:1"
         d="m 37.546473,148.0373 c -2.015003,-1.06556 -3.284336,-3.31501 -3.058794,-5.42064 0.223306,-2.08475 1.492534,-3.95449 3.215608,-4.73703 1.914861,-0.86964 3.258756,-0.83785 5.1624,0.1221 1.756758,0.88589 3.161555,3.11961 3.161555,5.02709 0,1.90748 -1.404797,4.1412 -3.161555,5.02708 -1.998937,1.00801 -3.387046,1.00315 -5.319214,-0.0186 z m 52.674811,0.0739 c -4.163967,-2.06114 -4.147284,-8.1515 0.02787,-10.17265 1.938169,-0.93825 3.225694,-0.92255 5.180429,0.0632 1.756759,0.88589 3.161556,3.11961 3.161556,5.02709 0,1.90748 -1.404797,4.1412 -3.161556,5.02708 -1.95895,0.98784 -3.295696,1.00204 -5.208291,0.0553 z m 72.028746,-2.56048 c -1.28349,-0.58235 -2.89509,-2.40908 -3.20113,-3.62844 -0.12089,-0.48166 -0.14197,-1.56618 -0.0469,-2.41003 0.7838,-6.95385 11.20298,-6.3081 11.20298,0.69433 0,2.00981 -0.83137,3.60844 -2.53136,4.86751 -1.19095,0.88207 -3.98827,1.1279 -5.42363,0.47663 z"
         id="path1122" />
    </g>
  </g>
</svg>
