<?xml version="1.0" encoding="UTF-8" standalone="no"?>
<svg
   height="110"
   version="1.0"
   viewBox="0 0 110 110"
   width="110"
   xml:space="preserve"
   id="svg64"
   sodipodi:docname="currency.svg"
   inkscape:version="1.1.1 (3bf5ae0d25, 2021-09-20)"
   xmlns:inkscape="http://www.inkscape.org/namespaces/inkscape"
   xmlns:sodipodi="http://sodipodi.sourceforge.net/DTD/sodipodi-0.dtd"
   xmlns="http://www.w3.org/2000/svg"
   xmlns:svg="http://www.w3.org/2000/svg"><defs
     id="defs68" /><sodipodi:namedview
     id="namedview66"
     pagecolor="#ffffff"
     bordercolor="#666666"
     borderopacity="1.0"
     inkscape:pageshadow="2"
     inkscape:pageopacity="0.0"
     inkscape:pagecheckerboard="0"
     showgrid="false"
     inkscape:zoom="2.7577164"
     inkscape:cx="30.097366"
     inkscape:cy="94.462214"
     inkscape:window-width="2560"
     inkscape:window-height="1017"
     inkscape:window-x="-8"
     inkscape:window-y="-8"
     inkscape:window-maximized="1"
     inkscape:current-layer="Multicolor" /><g
     id="Artboard"
     transform="translate(0.36261886)" /><g
     id="Multicolor"
     transform="translate(0.36261886)"><rect
       style="fill:#e04f5f;fill-opacity:1;stroke-width:0.6;paint-order:markers stroke fill"
       id="rect907"
       width="110"
       height="110"
       x="-0.36261886"
       y="0" /><g
       id="g61"
       transform="translate(-0.36261886,-0.48200113)"><rect
         height="18"
         style="fill:#4ac3af"
         width="64"
         x="23"
         y="68.982002"
         id="rect5" /><polygon
         points="23,68.982 31,52.982 79,52.982 87,68.982 "
         style="fill:#8ce3d4"
         id="polygon7" /><polygon
         points="28,66.982 34,54.982 76,54.982 82,66.982 "
         style="fill:#0d9681"
         id="polygon9" /><circle
         cx="71"
         cy="60.981998"
         r="1"
         style="fill:#c2f8f0"
         id="circle11" /><circle
         cx="39"
         cy="60.981998"
         r="1"
         style="fill:#c2f8f0"
         id="circle13" /><ellipse
         cx="55"
         cy="60.981998"
         rx="6"
         ry="5"
         style="fill:#c2f8f0"
         id="ellipse15" /><g
         id="g19"><path
           d="m 54.96,57.501 c 0.272,0 0.488,0.18 0.488,0.407 v 0.109 c 0.507,0.062 0.957,0.188 1.361,0.376 0.178,0.086 0.338,0.235 0.338,0.47 0,0.297 -0.281,0.524 -0.638,0.524 -0.113,0 -0.225,-0.023 -0.328,-0.071 -0.263,-0.117 -0.525,-0.211 -0.779,-0.266 v 1.19 c 1.426,0.321 2.036,0.806 2.036,1.683 0,0.876 -0.807,1.44 -1.99,1.55 v 0.415 c 0,0.227 -0.216,0.407 -0.488,0.407 -0.272,0 -0.488,-0.18 -0.488,-0.407 v -0.423 c -0.667,-0.07 -1.295,-0.266 -1.849,-0.548 -0.197,-0.102 -0.319,-0.258 -0.319,-0.47 0,-0.305 0.282,-0.532 0.648,-0.532 0.122,0 0.253,0.039 0.366,0.102 0.394,0.211 0.77,0.36 1.201,0.438 V 61.21 c -1.351,-0.305 -2.018,-0.736 -2.018,-1.667 0,-0.861 0.788,-1.44 1.971,-1.542 v -0.094 c 10e-4,-0.226 0.216,-0.406 0.488,-0.406 z m -0.44,2.536 V 58.98 c -0.45,0.055 -0.647,0.243 -0.647,0.493 -10e-4,0.243 0.13,0.408 0.647,0.564 z m 0.882,1.37 v 1.088 c 0.441,-0.055 0.666,-0.227 0.666,-0.509 0,-0.258 -0.16,-0.43 -0.666,-0.579 z"
           style="fill:#17b198"
           id="path17" /></g><rect
         height="2"
         style="fill:#c2f8f0"
         width="64"
         x="23"
         y="70.982002"
         id="rect21" /><rect
         height="2"
         style="fill:#c2f8f0"
         width="64"
         x="23"
         y="74.982002"
         id="rect23" /><rect
         height="2"
         style="fill:#c2f8f0"
         width="64"
         x="23"
         y="78.982002"
         id="rect25" /><rect
         height="2"
         style="fill:#c2f8f0"
         width="64"
         x="23"
         y="82.982002"
         id="rect27" /><polygon
         points="23,70.982 44.527,70.982 46.527,68.982 23,68.982 "
         style="fill:#8ce3d4"
         id="polygon29" /><polygon
         points="23,74.982 40.527,74.982 42.527,72.982 23,72.982 "
         style="fill:#8ce3d4"
         id="polygon31" /><polygon
         points="23,84.982 23,86.982 28.527,86.982 30.527,84.982 "
         style="fill:#8ce3d4"
         id="polygon33" /><polygon
         points="23,78.982 36.527,78.982 38.527,76.982 23,76.982 "
         style="fill:#8ce3d4"
         id="polygon35" /><polygon
         points="23,82.982 32.527,82.982 34.527,80.982 23,80.982 "
         style="fill:#8ce3d4"
         id="polygon37" /><polygon
         points="34,54.982 60.527,54.982 62.527,52.982 31,52.982 23,68.982 46.527,68.982 48.527,66.982 28,66.982 "
         style="fill:#c2f8f0"
         id="polygon39" /><path
         d="m 49,60.982 c 0,-2.761 2.686,-5 6,-5 1.331,0 2.556,0.365 3.551,0.976 l 1.976,-1.976 H 34 l -6,12 h 20.527 l 2.364,-2.364 C 49.729,63.706 49,62.416 49,60.982 Z m -10,1 c -0.552,0 -1,-0.448 -1,-1 0,-0.552 0.448,-1 1,-1 0.552,0 1,0.448 1,1 0,0.552 -0.448,1 -1,1 z"
         style="fill:#17b198"
         id="path41" /><circle
         cx="39"
         cy="60.981998"
         r="1"
         style="fill:#ffffff"
         id="circle43" /><path
         d="m 49,60.982 c 0,1.435 0.729,2.725 1.891,3.636 l 1.715,-1.715 c -0.184,-0.102 -0.301,-0.251 -0.301,-0.455 0,-0.305 0.282,-0.532 0.648,-0.532 0.122,0 0.253,0.039 0.366,0.102 0.04,0.021 0.079,0.034 0.118,0.054 l 0.906,-0.906 c -1.227,-0.303 -1.84,-0.734 -1.84,-1.622 0,-0.861 0.788,-1.44 1.971,-1.542 v -0.094 c 0,-0.227 0.216,-0.407 0.488,-0.407 0.272,0 0.488,0.18 0.488,0.407 v 0.109 c 0.507,0.062 0.957,0.188 1.361,0.376 0.066,0.032 0.126,0.076 0.18,0.126 l 1.562,-1.562 C 57.558,56.346 56.333,55.981 55.002,55.981 51.686,55.982 49,58.22 49,60.982 Z"
         style="fill:#ffffff"
         id="path45" /><path
         d="m 55.402,59.051 v 1.056 L 56.19,59.319 C 56.187,59.318 56.184,59.318 56.181,59.317 55.918,59.2 55.655,59.106 55.402,59.051 Z"
         style="fill:#ffffff"
         id="path47" /><path
         d="m 53.872,59.474 c 0,0.243 0.131,0.407 0.647,0.563 V 58.98 c -0.45,0.055 -0.647,0.243 -0.647,0.494 z"
         style="fill:#ffffff"
         id="path49" /><polygon
         points="23,72.982 42.527,72.982 44.527,70.982 23,70.982 "
         style="fill:#ffffff"
         id="polygon51" /><polygon
         points="23,76.982 38.527,76.982 40.527,74.982 23,74.982 "
         style="fill:#ffffff"
         id="polygon53" /><polygon
         points="23,80.982 34.527,80.982 36.527,78.982 23,78.982 "
         style="fill:#ffffff"
         id="polygon55" /><polygon
         points="23,84.982 30.527,84.982 32.527,82.982 23,82.982 "
         style="fill:#ffffff"
         id="polygon57" /><polygon
         points="33.758,52.982 42.242,52.982 55,40.224 65,50.224 78.13,37.094 82.356,41.319 87,23.982 69.663,28.626 73.888,32.851 65,41.739 55,31.739 "
         style="fill:#fbe158"
         id="polygon59" /></g></g></svg>
