<?xml version="1.0" encoding="UTF-8" standalone="no"?>
<svg
   id="Layer_1"
   version="1.1"
   viewBox="0 0 381.81223 381.81223"
   xml:space="preserve"
   sodipodi:docname="money.svg"
   width="381.81223"
   height="381.81223"
   inkscape:version="1.1.1 (3bf5ae0d25, 2021-09-20)"
   xmlns:inkscape="http://www.inkscape.org/namespaces/inkscape"
   xmlns:sodipodi="http://sodipodi.sourceforge.net/DTD/sodipodi-0.dtd"
   xmlns="http://www.w3.org/2000/svg"
   xmlns:svg="http://www.w3.org/2000/svg"><defs
     id="defs79" /><sodipodi:namedview
     id="namedview77"
     pagecolor="#ffffff"
     bordercolor="#666666"
     borderopacity="1.0"
     inkscape:pageshadow="2"
     inkscape:pageopacity="0.0"
     inkscape:pagecheckerboard="0"
     showgrid="false"
     inkscape:zoom="1.1849563"
     inkscape:cx="-64.981301"
     inkscape:cy="218.15151"
     inkscape:window-width="2560"
     inkscape:window-height="1017"
     inkscape:window-x="-8"
     inkscape:window-y="-8"
     inkscape:window-maximized="1"
     inkscape:current-layer="g74" /><style
     type="text/css"
     id="style2">
	.st0{fill:#62BEE7;}
	.st1{fill:#474E5E;}
	.st2{fill:#F3EEE4;}
	.st3{fill:#FFFFFF;}
	.st4{fill:#E8DCCA;}
	.st5{opacity:0.1;fill:#231F20;}
	.st6{fill:#506268;}
	.st7{fill:#EB5151;}
	.st8{fill:#C64444;}
	.st9{fill:#9CCB5B;}
	.st10{fill:#404A4C;}
	.st11{fill:#676767;}
	.st12{fill:#E0E1E5;}
	.st13{fill:#9D9EA0;}
	.st14{fill:#B3B4B7;}
	.st15{opacity:0.1;}
	.st16{fill:#231F20;}
	.st17{fill:#FACC20;}
	.st18{fill:#FDEF34;}
	.st19{fill:#F7A90B;}
	.st20{fill:#20B8EA;}
	.st21{fill:#00A8EA;}
	.st22{fill:#33D3F4;}
	.st23{opacity:0.25;fill:#FFFFFF;}
	.st24{fill:#CACBCE;}
	.st25{fill:#2E3545;}
	.st26{fill:#8DAF4A;}
	.st27{fill:#F9C2AF;}
	.st28{fill:#AFDDF4;}
	.st29{fill:#677177;}
	.st30{fill:#FFEDB3;}
	.st31{fill:#695652;}
	.st32{fill:#30A7BF;}
	.st33{fill:#4D5556;}
	.st34{opacity:0.35;}
	.st35{fill:#FFCB04;}
	.st36{fill:#99E9FA;}
	.st37{opacity:0.2;}
	.st38{opacity:3.000000e-02;}
	.st39{fill:#9ECA5B;}
	.st40{fill:#98BA56;}
	.st41{fill:#40EEFF;}
	.st42{fill:#FF6A52;}
	.st43{opacity:0.1;fill:#FFFFFF;}
	.st44{opacity:0.4;}
	.st45{fill:#57606D;}
	.st46{fill:#BACA5B;}
	.st47{opacity:0.25;}
	.st48{opacity:5.000000e-02;fill:#231F20;}
	.st49{opacity:0.2;fill:#FFFFFF;}
	.st50{opacity:0.3;}
	.st51{fill:#FFD82F;}
	.st52{fill:#F4C121;}
	.st53{fill:#EF9D0A;}
	.st54{fill:#F9E532;}
	.st55{fill:#F4C01E;}
	.st56{fill:#FFE14D;}
	.st57{fill:#B7C156;}
	.st58{fill:#DBA92C;}
	.st59{fill:#363D4D;}
	.st60{fill:#3F4656;}
	.st61{fill:#463E33;}
	.st62{fill:none;}
	.st63{opacity:4.000000e-02;}
	.st64{fill:#4DB6AC;}
	.st65{fill:#CADE49;}
	.st66{fill:#9FD343;}
	.st67{fill:#AAD643;}
	.st68{fill:#82C736;}
	.st69{opacity:0.3;fill:#FFFFFF;}
	.st70{fill:#FFD640;}
	.st71{opacity:0.5;}
	.st72{opacity:0.6;}
</style><g
     id="g74"
     transform="translate(158.94292,158.73193)"><rect
       style="fill:#eb5151;fill-opacity:1;stroke-width:0.599997;paint-order:markers stroke fill"
       id="rect918"
       width="381.81223"
       height="381.81223"
       x="-158.94292"
       y="-158.73193" /><g
       id="g72"
       transform="matrix(5.9335188,0,0,5.9335188,-157.69107,-158.73194)"
       style="stroke-width:0.168534"><g
         id="g8"
         style="stroke-width:0.168534"><path
           class="st18"
           d="m 46.8,31.3 c 0,-8.4 -7,-15.1 -15.5,-14.7 -7.3,0.3 -13.4,6.2 -14,13.4 -0.5,5.4 2,10.2 5.9,13.1 1.7,1.2 2.6,3.2 2.6,5.3 v 0 h 12.4 v 0 c 0,-2.1 1,-4 2.6,-5.3 3.6,-2.7 6,-7 6,-11.8 z"
           id="path6"
           style="stroke-width:0.168534" /></g><g
         id="g12"
         style="stroke-width:0.168534"><circle
           class="st17"
           cx="32"
           cy="32.900002"
           r="9.5"
           id="circle10"
           style="stroke-width:0.168534" /></g><g
         id="g16"
         style="stroke-width:0.168534"><path
           class="st4"
           d="m 26.6,53 c 1.5,1.5 2.4,2.4 3.9,3.9 h 3.1 C 35.1,55.4 36,54.5 37.5,53 Z"
           id="path14"
           style="stroke-width:0.168534" /></g><g
         class="st15"
         id="g20"
         style="stroke-width:0.168534"><path
           class="st16"
           d="M 35.8,34.6 C 35.6,34.2 35.2,33 32.6,32.5 v -3.2 c 0.6,0.2 1,0.6 1.2,1.3 0.2,0.5 0.5,0.8 1,0.8 0.3,0 1.9,-0.5 0.2,-2.5 -0.3,-0.3 -0.7,-0.9 -2.4,-1.1 v -1.3 h -1 v 1.3 c -3,0.3 -3.3,2.2 -3.3,3.1 0,2.6 2.6,3.1 3.3,3.3 v 3.5 c -1.2,-0.3 -1.5,-1.6 -1.6,-2 -0.2,-0.6 -0.7,-0.6 -0.9,-0.6 -0.8,0 -1,0.7 -1,1 0,0.3 0.2,1.9 2,2.8 0.4,0.2 1,0.4 1.6,0.4 v 1.2 h 1 v -1.2 c 0.7,-0.1 1.3,-0.3 1.9,-0.6 1.3,-0.8 1.7,-2.5 1.2,-4.1 z m -4.2,-2.4 c -0.8,-0.4 -1.3,-0.5 -1.4,-1.5 0,-0.4 0.1,-1.1 1.4,-1.5 z m 0.9,5.6 v -3.3 c 1.6,0.5 1.6,1.2 1.6,1.6 0,0.4 -0.1,1.4 -1.6,1.7 z"
           id="path18"
           style="stroke-width:0.168534" /></g><g
         id="g58"
         style="stroke-width:0.168534"><g
           id="g30"
           style="stroke-width:0.168534"><g
             id="g24"
             style="stroke-width:0.168534"><path
               class="st19"
               d="m 55.3,32.9 h -4.7 c -0.4,0 -0.8,-0.3 -0.8,-0.8 0,-0.4 0.3,-0.8 0.8,-0.8 h 4.7 c 0.4,0 0.8,0.3 0.8,0.8 0,0.4 -0.4,0.8 -0.8,0.8 z"
               id="path22"
               style="stroke-width:0.168534" /></g><g
             id="g28"
             style="stroke-width:0.168534"><path
               class="st19"
               d="M 13.4,32.9 H 8.7 c -0.4,0 -0.8,-0.3 -0.8,-0.8 0,-0.4 0.3,-0.8 0.8,-0.8 h 4.7 c 0.4,0 0.8,0.3 0.8,0.8 -0.1,0.4 -0.4,0.8 -0.8,0.8 z"
               id="path26"
               style="stroke-width:0.168534" /></g></g><g
           id="g40"
           style="stroke-width:0.168534"><g
             id="g34"
             style="stroke-width:0.168534"><path
               class="st19"
               d="m 45.2,19.7 c -0.2,0 -0.4,-0.1 -0.6,-0.2 -0.3,-0.3 -0.3,-0.8 0,-1.1 l 3.3,-3.3 c 0.3,-0.3 0.8,-0.3 1.1,0 0.3,0.3 0.3,0.8 0,1.1 l -3.3,3.3 c -0.1,0.1 -0.3,0.2 -0.5,0.2 z"
               id="path32"
               style="stroke-width:0.168534" /></g><g
             id="g38"
             style="stroke-width:0.168534"><path
               class="st19"
               d="m 15.5,49.3 c -0.2,0 -0.4,-0.1 -0.6,-0.2 -0.3,-0.3 -0.3,-0.8 0,-1.1 l 3.3,-3.3 c 0.3,-0.3 0.8,-0.3 1.1,0 0.3,0.3 0.3,0.8 0,1.1 L 16,49.1 c -0.1,0.2 -0.3,0.2 -0.5,0.2 z"
               id="path36"
               style="stroke-width:0.168534" /></g></g><g
           id="g46"
           style="stroke-width:0.168534"><g
             id="g44"
             style="stroke-width:0.168534"><path
               class="st19"
               d="m 32,14.2 c -0.4,0 -0.8,-0.3 -0.8,-0.8 V 8.8 C 31.2,8.3 31.6,8 32,8 c 0.4,0 0.8,0.3 0.8,0.8 v 4.7 c 0,0.4 -0.4,0.7 -0.8,0.7 z"
               id="path42"
               style="stroke-width:0.168534" /></g></g><g
           id="g56"
           style="stroke-width:0.168534"><g
             id="g50"
             style="stroke-width:0.168534"><path
               class="st19"
               d="m 18.8,19.7 c -0.2,0 -0.4,-0.1 -0.6,-0.2 L 15,16.2 c -0.3,-0.3 -0.3,-0.8 0,-1.1 0.3,-0.3 0.8,-0.3 1.1,0 l 3.3,3.3 c 0.3,0.3 0.3,0.8 0,1.1 -0.2,0.1 -0.4,0.2 -0.6,0.2 z"
               id="path48"
               style="stroke-width:0.168534" /></g><g
             id="g54"
             style="stroke-width:0.168534"><path
               class="st19"
               d="m 48.5,49.3 c -0.2,0 -0.4,-0.1 -0.6,-0.2 l -3.3,-3.3 c -0.3,-0.3 -0.3,-0.8 0,-1.1 0.3,-0.3 0.8,-0.3 1.1,0 L 49,48 c 0.3,0.3 0.3,0.8 0,1.1 -0.1,0.2 -0.3,0.2 -0.5,0.2 z"
               id="path52"
               style="stroke-width:0.168534" /></g></g></g><g
         id="g62"
         style="stroke-width:0.168534"><path
           class="st31"
           d="M 38.7,48.4 H 25.3 c -1.3,0 -2.3,1 -2.3,2.3 0,1.3 1,2.3 2.3,2.3 h 13.3 c 1.3,0 2.3,-1 2.3,-2.3 0.1,-1.3 -1,-2.3 -2.2,-2.3 z"
           id="path60"
           style="stroke-width:0.168534" /></g><path
         class="st69"
         d="M 25.3,43.1 C 21.4,40.2 18.9,35.3 19.4,30 20,22.8 25.9,17.1 33.1,16.6 c -0.6,0 -1.2,-0.1 -1.8,0 -7.3,0.3 -13.4,6.2 -14,13.4 -0.5,5.4 2,10.2 5.9,13.1 1.7,1.2 2.6,3.2 2.6,5.3 h 2.1 c 0,-2.1 -1,-4 -2.6,-5.3 z"
         id="path64"
         style="stroke-width:0.168534" /><path
         class="st5"
         d="m 31.3,16.6 c -0.1,0 -0.2,0 -0.3,0 7.7,0.5 13.7,6.9 13.7,14.7 0,4.8 -2.3,9.1 -5.9,11.8 -1.7,1.2 -2.6,3.2 -2.6,5.3 v 0 h 2.1 v 0 c 0,-2.1 1,-4 2.6,-5.3 3.6,-2.7 5.9,-7 5.9,-11.8 0,-8.4 -7,-15.1 -15.5,-14.7 z"
         id="path66"
         style="stroke-width:0.168534" /><g
         id="g70"
         style="stroke-width:0.168534"><path
           class="st7"
           d="m 35.8,33.9 c -0.2,-0.4 -0.6,-1.6 -3.2,-2.1 v -3.2 c 0.6,0.2 1,0.6 1.2,1.3 0.2,0.5 0.5,0.8 1,0.8 0.3,0 1.9,-0.5 0.2,-2.5 -0.3,-0.3 -0.7,-0.9 -2.4,-1.1 v -1.3 h -1 v 1.3 c -3,0.3 -3.3,2.2 -3.3,3.1 0,2.6 2.6,3.1 3.3,3.3 V 37 c -1.2,-0.3 -1.5,-1.6 -1.6,-2 -0.2,-0.6 -0.7,-0.6 -0.9,-0.6 -0.8,0 -1,0.7 -1,1 0,0.3 0.2,1.9 2,2.8 0.4,0.2 1,0.4 1.6,0.4 v 1.2 h 1 v -1.2 c 0.7,-0.1 1.3,-0.3 1.9,-0.6 1.3,-0.8 1.7,-2.5 1.2,-4.1 z M 31.6,31.5 C 30.8,31.1 30.3,31 30.2,30 c 0,-0.4 0.1,-1.1 1.4,-1.5 z m 0.9,5.6 v -3.3 c 1.6,0.5 1.6,1.2 1.6,1.6 0,0.5 -0.1,1.4 -1.6,1.7 z"
           id="path68"
           style="stroke-width:0.168534" /></g></g></g></svg>
