<svg width="30" height="30" viewBox="0 0 30 30" fill="none" xmlns="http://www.w3.org/2000/svg">
<g clip-path="url(#clip0)">
<path fill-rule="evenodd" clip-rule="evenodd" d="M23.9962 18.7032L28.9339 23.6409C30.2805 25.1372 30.2805 27.3815 28.9339 28.8778C27.4376 30.3741 25.1932 30.3741 23.697 28.8778L18.7593 23.9401C16.9638 24.8379 14.8691 25.4364 12.7743 25.4364C5.74188 25.4364 0.0560913 19.7506 0.0560913 12.7182C0.0560913 5.68579 5.74188 0 12.7743 0C19.8067 0 25.4925 5.68579 25.4925 12.7182C25.4925 14.813 24.894 16.9077 23.9962 18.7032ZM3.04861 12.7182C3.04861 18.1047 7.38776 22.4439 12.7743 22.4439C18.1608 22.4439 22.5 18.1047 22.5 12.7182C22.5 7.33167 18.1608 2.99252 12.7743 2.99252C7.38776 2.99252 3.04861 7.33167 3.04861 12.7182ZM12.7416 20.5736C17.0348 20.5736 20.5151 17.0932 20.5151 12.8C20.5151 8.50683 17.0348 5.0265 12.7416 5.0265C8.44835 5.0265 4.96802 8.50683 4.96802 12.8C4.96802 17.0932 8.44835 20.5736 12.7416 20.5736Z" fill="white"/>
</g>
<defs>
<clipPath id="clip0">
<rect width="30" height="30" fill="white"/>
</clipPath>
</defs>
</svg>
