<?xml version="1.0" encoding="UTF-8" standalone="no"?>
<svg
   width="751.15076"
   height="751.17261"
   viewBox="0 0 198.74269 198.74787"
   version="1.1"
   id="svg8"
   sodipodi:docname="sofisa.svg"
   inkscape:version="1.1.1 (3bf5ae0d25, 2021-09-20)"
   xmlns:inkscape="http://www.inkscape.org/namespaces/inkscape"
   xmlns:sodipodi="http://sodipodi.sourceforge.net/DTD/sodipodi-0.dtd"
   xmlns="http://www.w3.org/2000/svg"
   xmlns:svg="http://www.w3.org/2000/svg">
  <defs
     id="defs12" />
  <sodipodi:namedview
     id="namedview10"
     pagecolor="#ffffff"
     bordercolor="#666666"
     borderopacity="1.0"
     inkscape:pageshadow="2"
     inkscape:pageopacity="0.0"
     inkscape:pagecheckerboard="0"
     showgrid="false"
     inkscape:zoom="0.58551825"
     inkscape:cx="8.5394434"
     inkscape:cy="567.87299"
     inkscape:window-width="2560"
     inkscape:window-height="1017"
     inkscape:window-x="-8"
     inkscape:window-y="-8"
     inkscape:window-maximized="1"
     inkscape:current-layer="svg8" />
  <path
     style="fill:#f9f9f9;stroke-width:0.158749;paint-order:markers stroke fill"
     d="M 0,-2.0632008e-4 H 198.7427 V 198.74827 H 0 Z"
     id="path2" />
  <g
     id="g837"
     transform="matrix(1.4572182,0,0,1.4572182,2.644467,-0.72073132)"
     style="stroke-width:0.686239">
    <path
       style="fill:#fbae29;stroke-width:0.686239"
       d="m 60.925,119.46379 c -7.15,-0.743 -14.813,-3.368 -21.262,-7.283 -6.153,-3.736 -11.81,-9.248 -15.984,-15.577996 -10.589,-16.053 -11.119,-37.18 -1.35,-53.777 7.397,-12.57 19.561,-21.265 33.966,-24.279 4.097,-0.857 11.528,-1.173 15.877,-0.675 11.424,1.31 21.523,6.072 29.717,14.015 8.341,8.085 13.525,18.172 15.125,29.429 0.524,3.685 0.516,11.156 -0.016,14.739 -1.854,12.485 -8.16,23.793 -17.708,31.753996 -10.685,8.91 -24.472,13.098 -38.365,11.655 z m 12.101,-11.502 c 16.262,-2.768 28.98,-15.048996 32.534,-31.417996 0.848,-3.902 0.849,-11.802 0.002,-15.699 -1.672,-7.7 -4.986,-14.052 -10.233,-19.615 -10.733,-11.38 -27.15,-15.38 -41.961,-10.225 -5.974,2.08 -10.316,4.85 -15.073,9.621 -4.795,4.807 -7.601,9.29 -9.62,15.363 -1.62,4.877 -1.881,6.644 -1.881,12.7 0,4.718 0.08,5.786 0.619,8.203 2.67,11.983 10.43,21.97 21.323,27.440996 4.225,2.122 9.97,3.714 14.967,4.146 1.98,0.172 6.869,-0.1 9.323,-0.517 z"
       id="path4" />
    <path
       style="fill:#00a88f;stroke-width:0.686239"
       d="m 63.439,98.950794 c -7.551,-0.958 -13.67,-3.968 -18.758,-9.227 -2.365,-2.445 -4.07,-4.793 -5.408,-7.448 -5.833,-11.573 -3.54,-25.797 5.645,-35.02 10.265,-10.308 26.176,-11.933 38.364,-3.919 2.176,1.43 5.982,5.08 7.66,7.342 5.71,7.706 7.402,18.405 4.35,27.518 -4.072,12.162 -15.11,20.353 -27.999,20.776 -1.61,0.052 -3.345,0.043 -3.854,-0.022 z"
       id="path6" />
  </g>
</svg>
