<svg xmlns="http://www.w3.org/2000/svg" width="44.8" height="44.8" viewBox="0 0 44.8 44.8"><defs><style>.a{fill:#9e9e9e;}</style></defs><g transform="translate(0 0)"><path class="a" d="M38.238,6.562A22.4,22.4,0,1,0,6.562,38.238,22.4,22.4,0,1,0,38.238,6.562Zm-1.8,29.876A19.852,19.852,0,0,1,8.362,8.362,19.852,19.852,0,1,1,36.438,36.438Z"/><path class="a" d="M149.041,129.3a1.269,1.269,0,0,0-1.8,0l-8.07,8.07-8.07-8.07a1.273,1.273,0,0,0-1.8,1.8l8.07,8.07-8.07,8.07a1.277,1.277,0,0,0,.9,2.178,1.242,1.242,0,0,0,.9-.377l8.07-8.07,8.07,8.07a1.281,1.281,0,0,0,.9.377,1.227,1.227,0,0,0,.9-.377,1.269,1.269,0,0,0,0-1.8l-8.051-8.07,8.07-8.07A1.269,1.269,0,0,0,149.041,129.3Z" transform="translate(-116.77 -116.77)"/></g></svg>