<svg width="280mm" height="280mm" viewBox="0 0 280 280" xmlns="http://www.w3.org/2000/svg"><path style="fill:#fbef01;stroke-width:1" d="M-74.223 162.277v-140h280v280h-280z" transform="translate(74.223 -22.277)"/><path style="fill:#2d3492;stroke-width:1" d="M52.08 238.571c-6.802-.7-10.893-3.195-12.577-7.67-1.137-3.026-1.326-4.523-1.325-10.517 0-4.806.422-12.741.71-13.344.046-.099 1.617-.18 3.491-.18 3.056 0 3.419.04 3.523.394.064.216.064 3.955 0 8.309-.117 8.06-.004 10.448.64 13.416.238 1.102 1.457 2.71 2.725 3.596 2.308 1.613 6.63 2.518 9.79 2.05 5.038-.744 8.109-2.796 9.362-6.255.935-2.582 1.08-4.325 1.094-13.209.01-6.927.05-8.119.277-8.306.145-.12.37-.168.499-.106.129.06 1.615.112 3.304.112h3.07v30.896l-1.19.149c-1.401.175-4.237-.174-4.932-.606-.271-.17-.565-.607-.663-.989-.32-1.245-.416-1.326-1.39-1.186-.496.07-2.051.606-3.456 1.19-3.287 1.363-4.23 1.642-6.985 2.061-2.07.315-4.142.383-5.967.195zm77.36-.235c-6.239-.689-10.016-2.93-10.923-6.48-.857-3.358.416-6.441 3.427-8.3 2.619-1.615 6.515-2.47 14.456-3.175 9.409-.834 11.814-1.263 13.69-2.446 1.217-.767 1.338-1.254.752-3.027-.804-2.43-3.031-4.305-5.874-4.945-2.802-.63-9.025-.385-12.087.477-1.782.502-2.973 1.278-4.268 2.78-1.285 1.492-1.83 1.823-3.338 2.023-.952.127-4.873-.234-5.05-.465-.129-.168.51-1.786 1.05-2.66.685-1.108 2.437-2.644 3.99-3.498 3.78-2.08 11.086-3.167 18.008-2.682 8.413.59 12.182 1.955 14.172 5.132 1.336 2.133 1.545 3.629 1.606 11.491.054 6.911.21 9.121.883 12.455.238 1.178.432 2.287.432 2.464 0 .267-.573.324-3.271.324-1.907 0-3.414-.099-3.611-.236-.187-.13-.461-.543-.61-.918-.318-.8-1.36-1.757-2.133-1.958-.39-.101-1.013.085-2.2.662-4.62 2.241-13.4 3.612-19.101 2.982zm10.925-3.078c4.77-.76 8.49-3.513 9.945-7.36.657-1.736 1.069-4.349.78-4.947-.313-.646-2.712-.597-8.037.165-2.641.377-6.285.85-8.097 1.05-4.283.471-5.77.962-6.996 2.306-.964 1.057-1.604 2.361-1.604 3.269 0 2.053 3.356 4.483 7.313 5.294 2.552.523 4.423.585 6.696.223zm-168.025 2.396c0-.236 1.182-2.923 1.977-4.496 1.591-3.148 5.747-10.58 9.644-17.244 5.966-10.204 8.063-13.871 9.042-15.815 2.192-4.352 3.082-5.206 5.896-5.656 4.095-.656 6.462.7 10.21 5.851 1.715 2.357 2.49 3.634 7.26 11.953 1.736 3.026 4.437 7.512 6.005 9.97 4.551 7.14 7.781 12.66 8.53 14.581l.278.713-1.076.147c-.59.08-2.193.145-3.56.144-4.129-.003-4.306-.187-9.15-9.428-1.035-1.972-2.006-3.648-2.16-3.725-.154-.076-6.223-.14-13.487-.14-11.432 0-13.294.047-13.85.35-1.422.772-4.787 6.122-6.807 10.82l-.91 2.115-3.92.005c-2.157.003-3.922-.062-3.922-.145zm39.096-17.364c.374-.301.205-1.03-.707-3.05-3.515-7.786-8.69-16.47-10.085-16.925-.652-.213-.838.053-3.2 4.597-6.189 11.9-7.015 13.658-6.921 14.718l.056.64 8.282.126c9.51.145 12.29.122 12.575-.106zm78.619 1.967V207.14l.417-.137c.23-.074 1.202-.201 2.16-.281 2.424-.203 3.016.046 4.475 1.878.644.808 1.304 1.47 1.467 1.47.163 0 .741-.471 1.284-1.047 1.145-1.212 2.432-2.01 4.294-2.663 1.916-.67 5.508-.67 7.626.003 1.709.543 2.598 1.05 2.59 1.477-.011.64-1.169 3.047-1.59 3.308-.989.612-3.026.818-6.335.642-5.397-.287-5.93-.166-6.898 1.57-1.202 2.159-1.67 6.047-1.937 16.077-.11 4.16-.21 7.576-.22 7.591-.011.015-1.666.1-3.677.187l-3.656.16v-15.118z" transform="translate(74.223 -22.277)"/><path style="fill:#ea1b23;stroke-width:1" d="M-111.286 163.163c.003-.094-.059-31.86-.138-70.59-.08-39.21-.057-70.47.05-70.534.107-.063 81.145-.19 180.086-.283l179.891-.166.112 48.314c.061 26.573.062 58.414 0 70.758l-.111 22.444h-.622c-1.805 0-9.743-1.63-23.304-4.784-11.713-2.724-15.558-3.548-22.815-4.888-13.292-2.454-32.976-5.494-43.298-6.688-29.905-3.46-46.693-4.635-75.35-5.274-27.285-.609-61.24.91-90.101 4.028-12.383 1.338-18.926 2.16-30.748 3.864-20.227 2.915-34.31 5.509-51.133 9.42-7.71 1.792-12.15 2.74-17.527 3.74-4.611.858-5.002.908-4.992.639zm239.598-60.182c.37-.374-2.824-7.263-5.063-10.919-3.429-5.597-9.985-12.916-15.029-16.778-9.377-7.178-18.716-11.152-30.5-12.98-4.155-.644-13.164-.694-17.367-.096-9.557 1.36-17.292 4.095-25.05 8.861-9.383 5.764-18.362 15.062-22.99 23.807-1.076 2.031-2.605 5.957-2.804 7.199-.112.697-.078.738.754.898.94.18 8.312-.204 13.599-.71 10.67-1.02 15.854-1.313 30.522-1.724 14.167-.397 22.647-.146 43.024 1.271 18.248 1.27 30.353 1.728 30.904 1.171z" transform="translate(74.223 -22.277)"/><path style="fill:#2d3492;stroke-width:1" d="M246.944 127.178a595.482 595.482 0 0 0-15.361-4.444c-3.516-.952-5.582-1.48-14.345-3.668-19.789-4.942-49.26-10.532-65.284-12.384-14.616-1.688-22.139-2.836-22.702-3.463-.094-.105-.389-.794-.655-1.531-2.73-7.548-9.268-17.043-15.92-23.12-10.18-9.3-21.878-14.76-35.833-16.724-2.897-.407-13.135-.401-16.265.01-13.314 1.75-25.23 7.246-35.063 16.172-8.229 7.47-13.873 15.425-16.231 22.876-.39 1.233-.823 2.241-.961 2.241-.139 0-2.492.359-5.229.797-2.737.438-7.619 1.213-10.85 1.722-3.23.51-6.787 1.076-7.906 1.259-3.958.648-7.718 1.248-10.73 1.712-2.997.462-5.077.792-20.895 3.317-11.413 1.822-16.578 3.03-38.29 8.952-17.798 4.856-25.368 6.774-25.64 6.497-.055-.055-.12-6.953-.144-15.33-.025-8.376-.124-18.684-.22-22.907-.096-4.223-.205-21.01-.243-37.303l-.07-29.624h86.632c47.647.001 98.118-.1 112.157-.223 14.04-.123 56.226-.268 93.747-.323l68.22-.1-.075 31.781c-.042 17.768.043 40.472.193 51.493.148 10.841.233 20.446.189 21.344l-.08 1.632z" transform="translate(74.223 -22.277)"/></svg>