<svg width="512" height="512" viewBox="0 0 135.467 135.467" xmlns="http://www.w3.org/2000/svg"><path style="fill:#f8c705;stroke-width:1" d="M76.126 196.334v-67.733h135.467v135.466H76.126Zm115.727 40.063c.088-.23.16-18.105.16-39.722v-39.303l-2.296-2.347-2.297-2.347h-32.865c-29.724 0-32.88.04-33.025.418-.088.23-.16 2.718-.16 5.528 0 4.415-.057 5.132-.419 5.27-.23.089-1.51.163-2.844.164-9.93.015-19.5 6.15-24.133 15.475-4.534 9.124-3.93 19.333 1.65 27.893 1.745 2.679 6.797 7.948 9.695 10.113 3.748 2.8 9.1 4.987 13.18 5.385 3.194.312 2.87-.244 2.87 4.933v4.525l2.164 2.217 2.164 2.216h32.998c29.845 0 33.013-.04 33.158-.418zm-66.713-7.165c-.262-.106-.33-7.68-.33-36.624v-36.49h59.531v36.484c0 33.024-.04 36.5-.419 36.644-.5.193-58.305.178-58.782-.014zm23.328-6.071c.376-.144.418-2.139.418-19.838 0-21.769-.044-21.171 1.684-22.404.825-.589.907-.593 13.53-.724l12.7-.133.071-6.47.071-6.47-1.518-1.533-1.518-1.534h-27.969l-1.972.662c-3.976 1.335-7.512 4.324-9.428 7.97-1.852 3.525-1.79 2.618-1.79 26.174v21.202l1.697 1.63 1.697 1.629h5.954c3.275 0 6.143-.073 6.373-.161zm-12.215-6.365c-.507-.204-.472-38.298.037-40.208 1.17-4.397 4.91-8.091 9.186-9.077.69-.16 6.03-.27 13.142-.275l11.98-.006-.074 3.242-.074 3.24-11.112.133-11.113.132-1.323.704c-1.685.897-2.854 2.12-3.624 3.794l-.61 1.323-.074 18.378c-.057 14.082-.15 18.427-.397 18.583-.35.223-5.406.255-5.944.038zm30.295-13.158c3.612-1.846 5.185-6.265 3.494-9.817-.856-1.798-5.04-6.024-6.683-6.751-3.732-1.651-7.91-.29-9.848 3.21-.692 1.25-.788 1.682-.783 3.54.003 1.71.125 2.346.632 3.308.706 1.34 4.453 5.307 5.798 6.138 2.277 1.407 5.088 1.548 7.39.372zm-8.42-6.065c-2.335-1.235-3.022-4.334-1.389-6.274.94-1.118 1.955-1.58 3.472-1.58 4.367 0 5.743 6.016 1.811 7.92-1.464.708-2.461.691-3.893-.066zm-41.52 19.132c-5.63-.548-11.065-3.119-15.098-7.143-5.253-5.242-8.023-13.045-7.143-20.122.74-5.943 2.767-10.292 6.761-14.504 4.577-4.826 10.13-7.339 16.868-7.634l3.374-.148v6.611l-2.712.166c-5.618.345-9.34 2.072-13.012 6.037-3.067 3.313-4.638 7.379-4.645 12.024-.012 6.927 3.804 13.09 10.064 16.254 2.228 1.127 4.331 1.644 7.394 1.82l2.779.159.074 3.154c.056 2.345-.012 3.209-.264 3.37-.387.245-1.59.233-4.44-.044zm-.74-10.186c-3.583-.79-5.718-2.221-6.95-4.661-3.457-6.849-1.15-15.077 5.421-19.333 1.762-1.14 4.45-2.066 6.003-2.066h1.033l-.069 13.163-.068 13.163-1.853.05c-1.018.028-2.6-.114-3.516-.316z" transform="translate(-76.126 -128.6)"/><path style="fill:#31302b;stroke-width:1" d="m123.533 234.599-2.163-2.217v-4.525c0-5.177.323-4.621-2.87-4.933-4.08-.398-9.433-2.585-13.181-5.385-2.898-2.165-7.95-7.434-9.696-10.113-5.58-8.56-6.183-18.769-1.65-27.893 4.634-9.324 14.204-15.46 24.134-15.475 1.334-.002 2.614-.075 2.844-.164.362-.138.419-.855.419-5.27 0-2.81.072-5.297.16-5.528.146-.378 3.301-.418 33.025-.418h32.865l2.297 2.347 2.297 2.347v39.303c0 21.617-.073 39.492-.161 39.722-.145.378-3.313.418-33.158.418h-32.998zm60.39-5.353c.378-.145.418-3.62.418-36.644v-36.485h-59.532v36.49c0 28.946.069 36.519.331 36.625.477.192 58.282.207 58.782.014zm-49.48-7.554-1.696-1.63v-21.2c0-23.557-.062-22.65 1.79-26.175 1.916-3.646 5.452-6.635 9.428-7.97l1.972-.662h27.969l1.518 1.534 1.518 1.534-.071 6.47-.071 6.47-12.7.132c-12.623.131-12.705.135-13.53.724-1.728 1.233-1.684.635-1.684 22.404 0 17.7-.042 19.694-.418 19.838-.23.088-3.098.16-6.373.16h-5.954zm7.754-4.933c.247-.157.34-4.502.397-18.583l.075-18.378.609-1.323c.77-1.674 1.939-2.897 3.624-3.794l1.323-.704 11.113-.132 11.112-.133.074-3.24.075-3.242-11.98.006c-7.113.004-12.453.115-13.142.274-4.278.986-8.016 4.68-9.187 9.077-.509 1.91-.544 40.004-.037 40.209.538.217 5.594.185 5.944-.038zm18.946-12.588c-1.717-.561-2.695-1.274-5.01-3.651-2.875-2.95-3.4-3.982-3.405-6.7-.004-1.858.091-2.29.783-3.54 1.939-3.5 6.116-4.861 9.848-3.21 1.643.727 5.827 4.953 6.683 6.75 1.249 2.624.656 6.155-1.391 8.292-1.849 1.93-5.142 2.833-7.508 2.06zm.88-6.533c3.93-1.903 2.555-7.918-1.812-7.918-1.517 0-2.531.461-3.472 1.579-1.633 1.94-.946 5.039 1.39 6.274 1.432.757 2.429.774 3.893.065zm-40.975 19.11c.252-.16.32-1.024.264-3.37l-.074-3.153-2.779-.16c-3.063-.175-5.166-.692-7.394-1.819-6.26-3.164-10.075-9.327-10.064-16.254.008-4.645 1.578-8.711 4.645-12.024 3.672-3.965 7.394-5.692 13.012-6.037l2.712-.166v-6.611l-3.374.148c-6.738.295-12.29 2.808-16.868 7.634-3.994 4.212-6.021 8.561-6.76 14.504-.881 7.077 1.889 14.88 7.142 20.122 4.033 4.024 9.467 6.595 15.097 7.143 2.85.277 4.054.289 4.44.043zm.258-23.126.069-13.163h-1.033c-1.553 0-4.241.926-6.003 2.066-4.421 2.864-6.998 7.464-6.988 12.476.007 3.655 1.398 7.602 3.223 9.145 1.97 1.666 5.608 2.777 8.811 2.69l1.852-.05z" transform="translate(-76.126 -128.6)"/></svg>