<?xml version="1.0" encoding="UTF-8" standalone="no"?>
<svg
   width="725"
   height="725"
   version="1.1"
   id="svg6"
   sodipodi:docname="nubank.svg"
   inkscape:version="1.1.1 (3bf5ae0d25, 2021-09-20)"
   xmlns:inkscape="http://www.inkscape.org/namespaces/inkscape"
   xmlns:sodipodi="http://sodipodi.sourceforge.net/DTD/sodipodi-0.dtd"
   xmlns="http://www.w3.org/2000/svg"
   xmlns:svg="http://www.w3.org/2000/svg">
  <defs
     id="defs10" />
  <sodipodi:namedview
     id="namedview8"
     pagecolor="#ffffff"
     bordercolor="#666666"
     borderopacity="1.0"
     inkscape:pageshadow="2"
     inkscape:pageopacity="0.0"
     inkscape:pagecheckerboard="0"
     showgrid="false"
     inkscape:zoom="0.41689467"
     inkscape:cx="410.17555"
     inkscape:cy="660.83839"
     inkscape:window-width="2560"
     inkscape:window-height="1017"
     inkscape:window-x="-8"
     inkscape:window-y="-8"
     inkscape:window-maximized="1"
     inkscape:current-layer="svg6" />
  <path
     style="opacity:1;vector-effect:none;fill:#820ad1;fill-opacity:1;fill-rule:evenodd;stroke:none;stroke-width:0.347153;stroke-linecap:butt;stroke-linejoin:miter;stroke-miterlimit:4;stroke-dasharray:none;stroke-dashoffset:0;stroke-opacity:1;paint-order:fill markers stroke"
     d="M 0,0 H 725 V 725 H 0 Z"
     id="path2" />
  <path
     d="m 219.734,263.402 c 14.158,-14.945 32.94,-23.675 55.003,-23.675 42.984,0 71.482,31.53 76.934,78.766 1.768,15.34 1.752,36.966 1.734,62.015 v 101.649 h -59.11 v -69.405 c 0,0 -0.12,-59.401 -0.482,-70.503 -1.586,-48.351 -30.077,-78.733 -74.082,-78.766 -13.276,14.093 -20.39,31.324 -21.439,57.67 -0.144,3.675 -0.108,16.7 -0.06,33.867 0.024,8.894 0.053,18.9 0.06,29.294 0.045,45.24 0,97.853 0,97.853 h -59.11 V 375.353 c 0,-3.66 -0.068,-7.35 -0.134,-11.057 -0.134,-7.454 -0.269,-14.965 0.133,-22.403 0.668,-12.4 2.803,-24.588 8.562,-35.912 13.182,-25.94 40.192,-42.643 68.986,-42.643 1.006,0 2.012,0.023 3.008,0.062 z m 366.645,122.345 c 0.402,-7.437 0.267,-14.95 0.133,-22.403 -0.067,-3.706 -0.133,-7.397 -0.133,-11.057 V 245.473 h -59.11 c 0,0 -0.044,52.614 0,97.852 0.01,10.394 0.035,20.4 0.06,29.294 0.047,17.168 0.083,30.193 -0.06,33.867 -1.05,26.348 -8.164,43.578 -21.44,57.671 -44.004,-0.03 -72.494,-30.415 -74.08,-78.766 -0.362,-11.101 -0.515,-38.65 -0.515,-70.558 v -69.405 l -59.066,0.054 v 101.649 c -0.02,25.05 -0.033,46.675 1.734,62.015 5.44,47.235 33.939,78.766 76.922,78.766 22.065,0 40.846,-8.73 55.005,-23.675 0.995,0.04 2,0.062 3.006,0.062 28.794,0 55.804,-16.702 68.986,-42.643 5.76,-11.324 7.894,-23.512 8.561,-35.911 z"
     class="Path-xrtkpd-0 eqfYiR"
     style="fill:#ffffff;stroke-width:7.73768"
     id="path4" />
</svg>
