<?xml version="1.0" encoding="UTF-8" standalone="no"?>
<!-- Created with Inkscape (http://www.inkscape.org/) -->

<svg
   width="138.86179mm"
   height="135.41563mm"
   viewBox="0 0 138.86179 135.41563"
   version="1.1"
   id="svg5"
   inkscape:version="1.1.1 (3bf5ae0d25, 2021-09-20)"
   sodipodi:docname="business.svg"
   xmlns:inkscape="http://www.inkscape.org/namespaces/inkscape"
   xmlns:sodipodi="http://sodipodi.sourceforge.net/DTD/sodipodi-0.dtd"
   xmlns="http://www.w3.org/2000/svg"
   xmlns:svg="http://www.w3.org/2000/svg">
  <sodipodi:namedview
     id="namedview7"
     pagecolor="#ffffff"
     bordercolor="#666666"
     borderopacity="1.0"
     inkscape:pageshadow="2"
     inkscape:pageopacity="0.0"
     inkscape:pagecheckerboard="0"
     inkscape:document-units="mm"
     showgrid="false"
     inkscape:zoom="1.0482005"
     inkscape:cx="379.69835"
     inkscape:cy="283.81975"
     inkscape:window-width="2560"
     inkscape:window-height="1017"
     inkscape:window-x="-8"
     inkscape:window-y="-8"
     inkscape:window-maximized="1"
     inkscape:current-layer="g890" />
  <defs
     id="defs2" />
  <g
     inkscape:label="Camada 1"
     inkscape:groupmode="layer"
     id="layer1"
     transform="translate(-16.868841,-44.712589)">
    <rect
       style="fill:#0daffd;fill-opacity:1;stroke-width:0.15875;paint-order:markers stroke fill"
       id="rect956"
       width="138.86179"
       height="135.29208"
       x="16.868841"
       y="44.712589" />
    <g
       id="g890"
       transform="translate(1.9672413,0.35697226)">
      <path
         style="fill:#dadada;stroke-width:1"
         d="m 50.668481,129.60353 c -0.102465,-11.24148 -0.141105,-21.45109 -0.08586,-22.68802 0.05524,-1.23693 0.124669,3.25768 0.154289,9.98802 l 0.05386,12.23698 h 5.96515 5.965152 l 0.649431,-0.64943 0.649433,-0.64943 0.05721,-10.39693 c 0.03146,-5.7183 0.0946,-8.94537 0.140311,-7.17127 l 0.0831,3.22566 0.984168,0.10331 0.984168,0.1033 -0.992188,0.0445 -0.992187,0.0445 v 17.07876 c 0,18.29412 0.007,18.19281 -1.308261,18.89673 -0.304769,0.1631 -2.838969,0.27242 -6.31525,0.27242 H 50.85479 Z m 12.523945,-24.20937 c -0.329107,-0.41965 -0.319748,-0.42901 0.0999,-0.0999 0.254661,0.19972 0.46302,0.40808 0.46302,0.46302 0,0.21776 -0.217273,0.0776 -0.562917,-0.36312 z"
         id="path912" />
      <path
         style="fill:#f7cc94;stroke-width:1"
         d="m 105.29492,153.18325 c -7.406193,-0.75285 -18.475653,-3.78014 -30.28112,-8.28131 -4.995825,-1.90481 -6.40408,-2.26768 -8.800504,-2.26768 H 64.28451 v -14.41979 -14.41979 h 0.756904 c 0.416298,0 1.993876,-0.40892 3.505729,-0.90871 4.716925,-1.55933 9.19226,-1.81797 14.331674,-0.82826 1.694844,0.32638 29.634183,6.66029 35.777563,8.11086 4.39726,1.03827 7.25953,2.50801 8.34214,4.28359 0.63472,1.04098 0.69778,3.31522 0.12276,4.42718 -0.29204,0.56474 -0.76961,0.894 -1.78593,1.23128 -1.20397,0.39956 -2.93759,0.47952 -13.11882,0.60504 l -11.73152,0.14464 -0.50546,0.62462 c -0.65805,0.8132 -0.64011,1.64637 0.0545,2.52938 l 0.55992,0.71183 11.94165,-0.0885 c 11.5309,-0.0854 12.00222,-0.10879 13.70317,-0.67923 3.55066,-1.19078 5.5146,-3.22301 6.08647,-6.29811 l 0.29422,-1.58208 4.4434,-2.84034 c 5.31405,-3.39688 5.98733,-3.70595 8.05187,-3.69623 2.97285,0.014 5.53059,1.89504 6.35597,4.67438 0.48897,1.64654 0.49284,2.6496 0.0164,4.23289 -0.56293,1.87045 -1.38757,2.76514 -5.81692,6.311 -12.36724,9.90043 -25.06648,16.91719 -33.17731,18.3316 -2.4355,0.42472 -3.7564,0.44155 -7.19787,0.0917 z m 39.70839,-72.880411 c 0.0127,-0.308226 0.0754,-0.370919 0.15985,-0.159853 0.0764,0.190995 0.067,0.419198 -0.0209,0.507119 -0.0879,0.08792 -0.15046,-0.06835 -0.13897,-0.347266 z m -7.95839,-16.646701 c -0.64268,-0.654844 -1.10898,-1.190625 -1.03622,-1.190625 0.0728,0 0.65813,0.535781 1.30081,1.190625 0.64268,0.654844 1.10898,1.190625 1.03622,1.190625 -0.0728,0 -0.65813,-0.535781 -1.30081,-1.190625 z"
         id="path908" />
      <path
         style="fill:#f0be80;stroke-width:1"
         d="m 100.03401,134.0143 c -0.69457,-0.88301 -0.71251,-1.71618 -0.0545,-2.52938 l 0.50546,-0.62462 11.73152,-0.14896 c 13.76283,-0.17476 12.85711,-0.0173 17.76332,-3.0877 1.2802,-0.80117 2.39193,-1.39238 2.47051,-1.3138 0.0786,0.0786 0.008,0.79229 -0.15672,1.58603 -0.60889,2.93297 -2.57244,4.8922 -6.08541,6.07197 -1.66297,0.55849 -2.20043,0.58482 -13.67265,0.66981 l -11.94165,0.0885 z M 90.234564,85.065339 c 0.0127,-0.308226 0.07539,-0.370919 0.159851,-0.159853 0.07643,0.190995 0.06703,0.419198 -0.02088,0.507119 -0.08792,0.08792 -0.150452,-0.06835 -0.138964,-0.347266 z m 54.768746,0 c 0.0127,-0.308226 0.0754,-0.370919 0.15985,-0.159853 0.0764,0.190995 0.067,0.419198 -0.0209,0.507119 -0.0879,0.08792 -0.15046,-0.06835 -0.13897,-0.347266 z M 116.07669,55.675702 c 0.18191,-0.0734 0.47956,-0.0734 0.66146,0 0.1819,0.0734 0.0331,0.133452 -0.33073,0.133452 -0.3638,0 -0.51263,-0.06005 -0.33073,-0.133452 z m 2.64584,0 c 0.1819,-0.0734 0.47956,-0.0734 0.66146,0 0.1819,0.0734 0.0331,0.133452 -0.33073,0.133452 -0.3638,0 -0.51263,-0.06005 -0.33073,-0.133452 z"
         id="path906" />
      <path
         style="fill:#fdc209;stroke-width:1"
         d="m 118.92426,107.95693 c -5.57206,-0.61632 -11.54768,-3.35465 -15.48142,-7.09438 l -1.45521,-1.383442 1.71979,1.353692 c 2.18955,1.72345 5.88215,3.551 8.59896,4.25583 2.7225,0.70629 7.63104,0.77263 10.27997,0.13893 4.18219,-1.0005 7.48114,-2.75791 10.4233,-5.552663 4.89644,-4.651147 7.20657,-9.963393 7.20657,-16.571885 0,-6.453214 -2.3176,-11.914732 -6.9114,-16.287044 -2.8149,-2.679178 -5.06258,-4.008061 -8.9599,-5.297314 -2.06446,-0.682933 -2.5854,-0.745149 -6.35,-0.758388 -3.13671,-0.01103 -4.49791,0.09521 -5.78881,0.451807 -4.10264,1.133306 -6.82909,2.6252 -9.73925,5.329258 -2.3476,2.18134 -4.01104,4.440521 -5.212231,7.078941 -1.538896,3.380189 -1.881579,5.150691 -1.881579,9.721365 0,3.919913 -0.01328,4.020659 -0.349025,2.645833 -0.506418,-2.073767 -0.483092,-8.386775 0.03963,-10.726313 1.307944,-5.853931 3.815515,-10.352343 8.021755,-14.390507 2.49026,-2.390745 4.16355,-3.315962 7.63347,-4.220783 7.49608,-1.954687 15.7344,-0.618764 22.15942,3.593361 2.56847,1.683847 6.40637,5.583888 7.96599,8.09499 4.79702,7.723541 5.59932,16.450608 2.29907,25.008431 -1.5849,4.109812 -5.00496,8.669401 -8.55993,11.412041 -3.14316,2.42493 -9.99625,3.82461 -15.65917,3.19824 z"
         id="path902" />
      <path
         style="fill:#fd9a13;stroke-width:1"
         d="m 113.58319,110.25025 c -5.98371,-0.9805 -11.00022,-3.57818 -15.31364,-7.92981 C 90.190789,94.17012 88.067958,82.118773 92.852362,71.566997 95.090089,66.631796 99.39469,61.98611 104.36888,59.13795 c 1.26007,-0.721498 1.20834,-0.648065 -1.08865,1.545597 -4.37981,4.182782 -6.888521,8.633671 -8.216576,14.57761 -0.522721,2.339538 -0.546047,8.652546 -0.03963,10.726313 0.335735,1.374826 0.349025,1.27408 0.349025,-2.645833 0,-4.570674 0.342683,-6.341176 1.881579,-9.721365 2.252462,-4.947541 6.778902,-9.322642 11.702712,-11.31146 3.27029,-1.32093 4.68797,-1.563842 9.03758,-1.548546 3.7646,0.01324 4.28554,0.07545 6.35,0.758388 3.89732,1.289253 6.145,2.618136 8.9599,5.297314 4.5938,4.372312 6.9114,9.83383 6.9114,16.287044 0,6.608492 -2.31013,11.920738 -7.20657,16.571885 -2.94216,2.794753 -6.24111,4.552163 -10.4233,5.552663 -2.64893,0.6337 -7.55747,0.56736 -10.27997,-0.13893 -2.71681,-0.70483 -6.40941,-2.53238 -8.59896,-4.25583 l -1.71979,-1.353692 1.45521,1.383442 c 7.02491,6.67843 18.05621,9.01635 27.36164,5.79888 0.86062,-0.29757 1.61488,-0.49093 1.67612,-0.42969 0.30085,0.30085 -5.63685,2.88283 -8.00338,3.48023 -3.27814,0.82753 -7.77335,1.04964 -10.89403,0.53828 z m 5.82831,-11.127313 c 0.55419,-0.513609 0.70009,-0.893239 0.70009,-1.82163 v -1.172802 l 1.38906,-0.450911 c 0.76399,-0.248002 1.76451,-0.681025 2.22339,-0.962274 1.14088,-0.699249 2.70669,-2.477997 3.18133,-3.613957 0.57828,-1.384038 0.48906,-3.73947 -0.19694,-5.198872 -0.88808,-1.889318 -2.56222,-3.227681 -5.60465,-4.480559 l -0.99219,-0.408586 V 78.0716 c 0,-3.384544 -0.16618,-3.274491 2.70416,-1.79085 1.14244,0.590518 1.70926,0.739335 2.31187,0.60698 1.59593,-0.350522 2.39268,-2.435947 1.44668,-3.786547 -0.499,-0.71242 -3.54221,-2.290183 -5.24374,-2.718635 -1.20926,-0.304493 -1.21897,-0.315886 -1.21897,-1.430074 0,-2.319468 -2.37544,-3.358475 -3.9891,-1.744814 -0.59328,0.593278 -0.7734,1.016361 -0.7734,1.816632 0,1.034089 -0.0139,1.048296 -1.58379,1.620714 -5.51394,2.010481 -7.27414,7.429785 -3.72584,11.471076 0.80204,0.913479 4.15819,2.839013 4.94831,2.839013 0.28455,0 0.36132,0.650275 0.36132,3.060539 0,3.520641 0.17439,3.397525 -2.70458,1.909418 -1.36918,-0.707718 -1.60365,-0.752943 -2.45199,-0.472964 -0.9257,0.305509 -1.7226,1.34633 -1.7226,2.249882 0,1.437468 2.50194,3.26081 5.6224,4.09744 1.23011,0.329809 1.25677,0.359106 1.25677,1.381255 0,2.202579 2.4946,3.395265 4.06241,1.942272 z m 0.70009,-10.602761 v -2.255753 l 0.77769,0.402159 c 0.91843,0.474937 1.60356,1.37355 1.60356,2.10322 0,0.664776 -1.27145,2.006126 -1.90158,2.006126 -0.42566,0 -0.47967,-0.253986 -0.47967,-2.255752 z m -5.84436,-9.195662 c -1.70983,-1.152253 -1.58302,-2.794529 0.2906,-3.763415 l 0.79126,-0.409176 v 2.388045 c 0,1.313423 -0.0419,2.388044 -0.0932,2.388044 -0.0512,0 -0.49616,-0.271573 -0.9887,-0.603498 z"
         id="path898" />
      <path
         style="fill:#d07406;stroke-width:1"
         d="m 116.12249,98.998363 c -0.59355,-0.593542 -0.7734,-1.016249 -0.7734,-1.817698 0,-1.022149 -0.0267,-1.051446 -1.25677,-1.381255 -3.12046,-0.83663 -5.6224,-2.659972 -5.6224,-4.09744 0,-0.903552 0.7969,-1.944373 1.7226,-2.249882 0.84834,-0.279979 1.08281,-0.234754 2.45199,0.472964 2.87897,1.488107 2.70458,1.611223 2.70458,-1.909418 0,-2.410264 -0.0768,-3.060539 -0.36132,-3.060539 -0.19874,0 -1.20167,-0.420401 -2.22874,-0.934228 -3.17477,-1.588269 -4.69444,-3.908771 -4.50529,-6.879425 0.18666,-2.931377 2.18095,-5.282036 5.51156,-6.496436 1.56991,-0.572418 1.58379,-0.586625 1.58379,-1.620714 0,-0.800271 0.18012,-1.223354 0.7734,-1.816632 1.61366,-1.613661 3.9891,-0.574654 3.9891,1.744814 0,1.114188 0.01,1.125581 1.21897,1.430074 1.70153,0.428452 4.74474,2.006215 5.24374,2.718635 0.946,1.3506 0.14925,3.436025 -1.44668,3.786547 -0.60261,0.132355 -1.16943,-0.01646 -2.31187,-0.60698 -2.87034,-1.483641 -2.70416,-1.593694 -2.70416,1.79085 v 2.941746 l 0.99219,0.408586 c 3.04243,1.252878 4.71657,2.591241 5.60465,4.480559 0.686,1.459402 0.77522,3.814834 0.19694,5.198872 -0.47464,1.13596 -2.04045,2.914708 -3.18133,3.613957 -0.45888,0.281249 -1.4594,0.714272 -2.22339,0.962274 l -1.38906,0.450911 v 1.172802 c 0,2.306754 -2.37081,3.315353 -3.9891,1.697056 z m 5.65939,-8.964517 c 0.39103,-0.408143 0.71096,-0.976966 0.71096,-1.264044 0,-0.72967 -0.68513,-1.628283 -1.60356,-2.10322 l -0.77769,-0.402159 v 2.255753 c 0,2.001766 0.054,2.255752 0.47967,2.255752 0.26381,0 0.79959,-0.333936 1.19062,-0.742082 z m -6.43279,-12.493878 v -2.388045 l -0.79126,0.409176 c -1.87362,0.968886 -2.00043,2.611162 -0.2906,3.763415 0.49254,0.331925 0.93746,0.603498 0.9887,0.603498 0.0512,0 0.0932,-1.074621 0.0932,-2.388044 z"
         id="path896" />
      <path
         style="fill:#666666;stroke-width:1"
         d="m 50.526177,140.18517 v -9.94562 l -0.773398,0.77339 -0.773395,0.7734 h -14.68268 c -10.304317,0 -14.711163,0.0855 -14.778202,0.28657 -0.124951,0.37486 -1.711793,-6.12978 -2.199945,-9.01782 -0.555308,-3.28534 -0.923186,-7.66081 -0.923186,-10.9802 0,-2.78753 0.377681,-8.07542 0.666138,-9.32657 l 0.137252,-0.59531 h 16.014276 16.014277 l 0.609063,0.60906 0.609063,0.60907 0.193942,23.22625 c 0.106667,12.77444 0.124833,23.29536 0.04037,23.37982 -0.08447,0.0845 -0.153572,-4.32195 -0.153572,-9.79204 z m -16.028087,3.00569 c -0.593521,-0.26957 -1.337257,-0.81828 -1.652748,-1.21936 -1.806796,-2.29697 -1.009621,-5.56382 1.652748,-6.773 1.40876,-0.63983 2.374503,-0.62632 3.777459,0.0528 3.236354,1.56669 3.236354,6.31998 0,7.88667 -1.402956,0.67916 -2.368699,0.69267 -3.777459,0.0529 z m 63.76873,-40.57483 -0.777103,-0.85989 0.859893,0.7771 c 0.47295,0.42741 0.8599,0.81436 0.8599,0.8599 0,0.2044 -0.21832,0.0244 -0.94269,-0.77711 z m 39.04269,-0.29833 c 0,-0.0549 0.20836,-0.2633 0.46302,-0.46302 0.41964,-0.32911 0.429,-0.31975 0.0999,0.0999 -0.34564,0.44073 -0.56291,0.58089 -0.56291,0.36313 z M 97.886592,63.953118 c 0,-0.05494 0.208359,-0.263301 0.463018,-0.463021 0.41965,-0.329107 0.42901,-0.319749 0.0999,0.0999 -0.34565,0.440729 -0.562918,0.580887 -0.562918,0.363126 z"
         id="path894" />
      <path
         style="fill:#595a5a;stroke-width:1"
         d="m 28.674525,150.68489 c -3.541878,-4.9635 -7.863328,-13.70799 -8.979922,-18.17094 l -0.18204,-0.72761 h 14.73341 14.733411 l 0.773395,-0.7734 0.773398,-0.77339 v 10.1835 c 0,6.78877 -0.0953,10.36157 -0.285879,10.71767 -0.63331,1.18335 -1.504344,1.28312 -11.201629,1.28312 h -9.123254 z m 9.601024,-7.54688 c 3.236354,-1.56669 3.236354,-6.31998 0,-7.88667 -1.402956,-0.67916 -2.368699,-0.69267 -3.777459,-0.0528 -3.502348,1.59068 -3.502348,6.40167 0,7.99236 1.40876,0.63982 2.374503,0.62631 3.777459,-0.0529 z"
         id="path892" />
      <rect
         style="fill:#ffffff;fill-opacity:1;stroke-width:0.15875;paint-order:markers stroke fill"
         id="rect2613"
         width="14.022924"
         height="25.280922"
         x="50.526176"
         y="104.95863" />
    </g>
  </g>
</svg>
