<svg xmlns="http://www.w3.org/2000/svg" width="57.269" height="83.554" viewBox="0 0 57.269 83.554"><defs><style>.a{fill:#3b86ff;}</style></defs><g transform="translate(-121 -257)"><path class="a" d="M194.635,176.416a1.88,1.88,0,0,0-.677-.023,4.489,4.489,0,0,1-3.97-4.452,1.975,1.975,0,1,0-3.949,0,8.448,8.448,0,0,0,6.211,8.134v1.975a1.975,1.975,0,1,0,3.949,0v-1.855a8.432,8.432,0,0,0-1.728-16.685,4.483,4.483,0,1,1,4.483-4.483,1.975,1.975,0,1,0,3.949,0,8.448,8.448,0,0,0-6.7-8.254v-1.8a1.975,1.975,0,1,0-3.949,0v1.918a8.432,8.432,0,0,0,2.221,16.566,4.481,4.481,0,0,1,.164,8.958Zm0,0" transform="translate(-44.837 146.284)"/><path class="a" d="M104.195,135.126a28.634,28.634,0,1,0,28.634-28.634A28.634,28.634,0,0,0,104.195,135.126Zm28.634-24.685a24.685,24.685,0,1,1-24.685,24.685A24.684,24.684,0,0,1,132.829,110.441Zm0,0" transform="translate(16.805 176.793)"/><path class="a" d="M216.152,20.734V1.975a1.975,1.975,0,1,0-3.949,0V20.734a1.975,1.975,0,1,0,3.949,0Zm0,0" transform="translate(-64.543 257)"/><path class="a" d="M276.152,50.86V41.975a1.975,1.975,0,1,0-3.949,0V50.86a1.975,1.975,0,1,0,3.949,0Zm0,0" transform="translate(-109.734 226.873)"/><path class="a" d="M156.152,50.86V41.975a1.975,1.975,0,0,0-3.949,0V50.86a1.975,1.975,0,0,0,3.949,0Zm0,0" transform="translate(-19.353 226.873)"/></g></svg>