<?xml version="1.0" encoding="UTF-8" standalone="no"?>
<svg
   data-name="Layer 1"
   id="Layer_1"
   viewBox="0 0 150.92923 150.87206"
   version="1.1"
   sodipodi:docname="convenio-6.svg"
   inkscape:version="1.1.1 (3bf5ae0d25, 2021-09-20)"
   width="150.92923"
   height="150.87206"
   xmlns:inkscape="http://www.inkscape.org/namespaces/inkscape"
   xmlns:sodipodi="http://sodipodi.sourceforge.net/DTD/sodipodi-0.dtd"
   xmlns="http://www.w3.org/2000/svg"
   xmlns:svg="http://www.w3.org/2000/svg">
  <sodipodi:namedview
     id="namedview45"
     pagecolor="#ffffff"
     bordercolor="#666666"
     borderopacity="1.0"
     inkscape:pageshadow="2"
     inkscape:pageopacity="0.0"
     inkscape:pagecheckerboard="0"
     showgrid="false"
     inkscape:zoom="4.2022346"
     inkscape:cx="101.13667"
     inkscape:cy="86.263627"
     inkscape:window-width="2560"
     inkscape:window-height="1017"
     inkscape:window-x="-8"
     inkscape:window-y="-8"
     inkscape:window-maximized="1"
     inkscape:current-layer="Layer_1" />
  <defs
     id="defs4">
    <style
       id="style2">.cls-1{fill:#f0dc6a;}.cls-2{fill:#525354;}.cls-3{fill:#fff;}.cls-4{fill:#d7dadb;}.cls-5{fill:#52b1b1;}</style>
  </defs>
  <title
     id="title6" />
  <rect
     style="fill:#f0dc6a;fill-opacity:1;stroke-width:0.6;paint-order:markers stroke fill"
     id="rect908"
     width="150.92923"
     height="150.87206"
     x="0"
     y="0"
     rx="0"
     ry="0" />
  <rect
     class="cls-2"
     height="107.66548"
     rx="0.99999994"
     ry="0.99999994"
     width="71.221909"
     x="37.841602"
     y="25.186243"
     id="rect10"
     style="stroke-width:1" />
  <rect
     class="cls-3"
     height="107.66548"
     rx="0.99999994"
     ry="0.99999994"
     width="71.221909"
     x="36.728764"
     y="24.087618"
     id="rect12"
     style="stroke-width:1" />
  <rect
     class="cls-2"
     height="4.3945098"
     rx="0.99999994"
     ry="0.99999994"
     width="35.610958"
     x="64.438538"
     y="37.040436"
     id="rect14"
     style="stroke-width:1" />
  <rect
     class="cls-2"
     height="4.3945098"
     rx="0.99999994"
     ry="0.99999994"
     width="22.256851"
     x="64.438538"
     y="46.060165"
     id="rect16"
     style="stroke-width:1" />
  <rect
     class="cls-4"
     height="8.7890196"
     rx="0.99999994"
     ry="0.99999994"
     width="8.9027395"
     x="47.501087"
     y="39.347549"
     id="rect18"
     style="stroke-width:1" />
  <path
     class="cls-5"
     d="m 49.392909,43.577267 -1.69152,-1.669913 a 1.2129982,1.197504 0 0 0 -1.713778,0 l -1.012687,0.999751 a 1.2129982,1.197504 0 0 0 0,1.691886 l 4.45137,4.394509 a 1.2129982,1.197504 0 0 0 1.713777,0 l 1.836188,-1.834707 5.953712,-5.877657 a 1.2129982,1.197504 0 0 0 0,-1.691887 l -1.057204,-1.043695 a 1.2129982,1.197504 0 0 0 -1.713774,0 l -5.096821,5.031713 a 1.2129982,1.197504 0 0 1 -1.669263,0 z"
     id="path20"
     style="stroke-width:1" />
  <rect
     class="cls-2"
     height="4.3945098"
     rx="0.99999994"
     ry="0.99999994"
     width="35.610958"
     x="64.438538"
     y="59.749069"
     id="rect22"
     style="stroke-width:1" />
  <rect
     class="cls-2"
     height="4.3945098"
     rx="0.99999994"
     ry="0.99999994"
     width="22.256851"
     x="64.438538"
     y="68.768791"
     id="rect24"
     style="stroke-width:1" />
  <rect
     class="cls-4"
     height="8.7890196"
     rx="0.99999994"
     ry="0.99999994"
     width="8.9027395"
     x="47.501087"
     y="62.05619"
     id="rect26"
     style="stroke-width:1" />
  <path
     class="cls-5"
     d="m 49.392909,66.274911 -1.69152,-1.669912 a 1.2129982,1.197504 0 0 0 -1.713778,0 l -1.012687,0.99975 a 1.2129982,1.197504 0 0 0 0,1.691887 l 4.45137,4.394514 a 1.2129982,1.197504 0 0 0 1.713777,0 l 1.869579,-1.8457 5.953705,-5.877656 a 1.2129982,1.197504 0 0 0 0,-1.691887 l -1.090588,-1.021725 a 1.2129982,1.197504 0 0 0 -1.713774,0 l -5.052307,5.020729 a 1.2129982,1.197504 0 0 1 -1.713777,0 z"
     id="path28"
     style="stroke-width:1" />
  <rect
     class="cls-2"
     height="4.3945098"
     rx="0.99999994"
     ry="0.99999994"
     width="35.610958"
     x="64.438538"
     y="82.446709"
     id="rect30"
     style="stroke-width:1" />
  <rect
     class="cls-2"
     height="4.3945098"
     rx="0.99999994"
     ry="0.99999994"
     width="22.256851"
     x="64.438538"
     y="91.466438"
     id="rect32"
     style="stroke-width:1" />
  <rect
     class="cls-4"
     height="8.7890196"
     rx="0.99999994"
     ry="0.99999994"
     width="8.9027395"
     x="47.501087"
     y="84.764832"
     id="rect34"
     style="stroke-width:1" />
  <path
     class="cls-5"
     d="m 49.392909,88.98355 -1.69152,-1.66992 a 1.2129982,1.197504 0 0 0 -1.713778,0 l -1.012687,0.99974 a 1.2129982,1.197504 0 0 0 0,1.6919 l 4.45137,4.3945 a 1.2129982,1.197504 0 0 0 1.713777,0 l 1.869579,-1.84569 5.953705,-5.87766 a 1.2129982,1.197504 0 0 0 0,-1.69188 l -1.090588,-1.03272 a 1.2129982,1.197504 0 0 0 -1.713774,0 l -5.096821,5.03173 a 1.2129982,1.197504 0 0 1 -1.669263,0 z"
     id="path36"
     style="stroke-width:1" />
  <rect
     class="cls-2"
     height="4.3945098"
     rx="0.99999994"
     ry="0.99999994"
     width="35.610958"
     x="64.438538"
     y="105.15534"
     id="rect38"
     style="stroke-width:1" />
  <rect
     class="cls-2"
     height="4.3945098"
     rx="0.99999994"
     ry="0.99999994"
     width="22.256851"
     x="64.438538"
     y="114.17507"
     id="rect40"
     style="stroke-width:1" />
  <rect
     class="cls-4"
     height="8.7890196"
     rx="0.99999994"
     ry="0.99999994"
     width="8.9027395"
     x="47.501087"
     y="107.46246"
     id="rect42"
     style="stroke-width:1" />
</svg>
