<?xml version="1.0" encoding="UTF-8" standalone="no"?>
<svg
   width="32"
   height="32"
   viewBox="0 0 32 32"
   fill="none"
   version="1.1"
   id="svg4"
   sodipodi:docname="key.svg"
   inkscape:version="1.1.1 (3bf5ae0d25, 2021-09-20)"
   xmlns:inkscape="http://www.inkscape.org/namespaces/inkscape"
   xmlns:sodipodi="http://sodipodi.sourceforge.net/DTD/sodipodi-0.dtd"
   xmlns="http://www.w3.org/2000/svg"
   xmlns:svg="http://www.w3.org/2000/svg">
  <defs
     id="defs8" />
  <sodipodi:namedview
     id="namedview6"
     pagecolor="#ffffff"
     bordercolor="#666666"
     borderopacity="1.0"
     inkscape:pageshadow="2"
     inkscape:pageopacity="0.0"
     inkscape:pagecheckerboard="0"
     showgrid="false"
     inkscape:zoom="9.4796503"
     inkscape:cx="-17.827662"
     inkscape:cy="25.581112"
     inkscape:window-width="2560"
     inkscape:window-height="1017"
     inkscape:window-x="-8"
     inkscape:window-y="-8"
     inkscape:window-maximized="1"
     inkscape:current-layer="svg4" />
  <path
     d="M22.4359 0C19.9862 0 17.5366 0.9379 15.6717 2.80273C13.1558 5.31862 12.251 9.07031 13.3214 12.4579L0.212397 25.5779C0.102077 25.6772 0.0468566 25.8207 0.0468566 25.9641L0.00274658 31.4483C0.00274658 31.5917 0.0579066 31.7352 0.168287 31.8344C0.267557 31.9448 0.411007 32 0.554467 32C2.1979 32 3.84245 31.9781 5.48578 31.9603C5.9092 31.9569 6.5903 32.02 6.5903 31.4041V28.3255H9.66896C9.82346 28.3255 9.97789 28.2482 10.0772 28.1379C10.1875 28.0386 10.2428 27.8951 10.2428 27.7517V24.651L13.3324 24.6621C13.4759 24.6621 13.6193 24.5958 13.7186 24.4966C13.829 24.3972 13.8841 24.2538 13.8841 24.1103V21.0096H16.9848C17.1283 21.0096 17.2717 20.9434 17.382 20.8442L19.5448 18.6814C22.9324 19.7407 26.6841 18.8469 29.2 16.331C32.9297 12.6014 32.9297 6.53239 29.2 2.80273C27.3352 0.9379 24.8855 0 22.4359 0ZM26.6179 8.52963C25.7462 9.40133 24.3338 9.40133 23.4731 8.52963C22.6013 7.66898 22.6013 6.25653 23.4731 5.38483C24.3338 4.51306 25.7462 4.51306 26.6179 5.38483C27.4896 6.25653 27.4896 7.66898 26.6179 8.52963Z"
     fill="black"
     id="path2"
     style="fill:#ffffff" />
</svg>
