<svg xmlns="http://www.w3.org/2000/svg" width="83.706" height="78.855" viewBox="0 0 83.706 78.855"><defs><style>.a{fill:#3b86ff;}</style></defs><g transform="translate(-125 -258.739)"><path class="a" d="M65.909,14.2h-48.1a8.732,8.732,0,0,0-8.728,8.728V62.739L3.57,57.223A2.089,2.089,0,0,0,.615,60.178l9.1,9.1a2.1,2.1,0,0,0,2.972,0l9.1-9.1a2.089,2.089,0,0,0-2.955-2.955L13.3,62.757V22.928a4.541,4.541,0,0,1,4.543-4.543H65.926a4.541,4.541,0,0,1,4.543,4.543v5.807a2.1,2.1,0,1,0,4.2,0V22.928A8.817,8.817,0,0,0,65.909,14.2Z" transform="translate(125 244.539)"/><path class="a" d="M115.081,150.639l-9.1,9.1a2.1,2.1,0,0,0,2.972,2.955l5.534-5.534v39.812a4.541,4.541,0,0,1-4.543,4.543h-48.1a4.541,4.541,0,0,1-4.543-4.543v-5.807a2.1,2.1,0,0,0-4.2,0v5.807a8.732,8.732,0,0,0,8.728,8.728h48.078a8.732,8.732,0,0,0,8.728-8.728V157.164l5.534,5.534a2.089,2.089,0,0,0,2.955-2.955l-9.1-9.1A2.125,2.125,0,0,0,115.081,150.639Z" transform="translate(80.969 131.891)"/><path class="a" d="M198.333,136.7a2.1,2.1,0,0,0-2.1,2.1v3.211h-.273a7.644,7.644,0,0,0,0,15.269h4.714a3.473,3.473,0,0,1,0,6.9H192.2a2.1,2.1,0,1,0,0,4.2h4.031v3.262a2.1,2.1,0,1,0,4.2,0v-3.279h.359a7.647,7.647,0,0,0-.1-15.269h-4.714a3.473,3.473,0,0,1,0-6.9h8.318a2.1,2.1,0,1,0,0-4.2h-3.86v-3.211A2.107,2.107,0,0,0,198.333,136.7Z" transform="translate(-31.471 142.961)"/></g></svg>