<svg width="32" height="32" viewBox="0 0 32 32" fill="none" xmlns="http://www.w3.org/2000/svg">
<g clip-path="url(#clip0_265_1332)">
<path d="M15.8756 0H16.0756C16.7569 0.055625 17.3044 0.621875 17.31 1.30937C17.3181 1.79375 17.3094 2.27812 17.3125 2.7625C16.4287 2.6375 15.5294 2.63875 14.6456 2.76187C14.6481 2.27875 14.6412 1.795 14.6475 1.31187C14.6531 0.625 15.1962 0.06 15.8756 0Z" fill="#FFA000"/>
<path d="M7.7738 1.1625C8.29005 1.44 8.57005 2.05 8.43693 2.6225C8.36068 2.99437 8.12755 3.23687 7.87005 3.49562C7.03005 4.36562 6.30568 5.35 5.7188 6.40687C4.6738 8.28812 4.08443 10.4125 3.99505 12.5619C3.97068 12.9387 4.02693 13.3875 3.85693 13.73C3.6163 14.2669 3.02443 14.5862 2.44318 14.4931C1.80818 14.4006 1.31193 13.8331 1.31443 13.1894C1.30818 11.3831 1.59943 9.57437 2.17318 7.86187C2.9313 5.59562 4.19005 3.50437 5.83005 1.76687C6.00193 1.58875 6.17068 1.3925 6.36943 1.24437C6.7738 0.950621 7.33755 0.921246 7.7738 1.1625Z" fill="#4CAF50"/>
<path d="M24.7475 1.0025C25.1356 0.979373 25.5088 1.13062 25.78 1.40687C27.1619 2.79125 28.3019 4.415 29.1213 6.19187C30.1313 8.37687 30.6513 10.7831 30.6431 13.19C30.6444 13.8175 30.1744 14.3744 29.5588 14.4856C28.9919 14.5962 28.4038 14.3106 28.1356 13.8012C27.9225 13.4219 27.9894 12.9775 27.9631 12.5594C27.9144 11.4456 27.7363 10.3375 27.4263 9.26625C26.795 7.075 25.61 5.05125 24.0163 3.42125C23.8575 3.25562 23.7069 3.10125 23.6106 2.88937C23.4306 2.50312 23.4519 2.035 23.6675 1.66687C23.89 1.2825 24.3019 1.02312 24.7475 1.0025Z" fill="#4CAF50"/>
<path d="M17.3125 2.76249C19.5363 3.07499 21.61 4.22749 23.0656 5.93499C24.2438 7.30561 25.01 9.01874 25.235 10.8125C25.3425 11.6144 25.3063 12.3781 25.3125 13.1875C25.3163 14.125 25.3044 15.0631 25.3194 16C25.385 18.455 26.5125 20.8375 28.3688 22.445C28.7475 22.7606 29.0513 23.1462 29.1988 23.6219C29.4744 24.4625 29.2288 25.4175 28.5856 26.0225C28.145 26.4456 27.55 26.6725 26.94 26.6662C25.065 26.6669 23.1894 26.6662 21.3144 26.6662C17.7575 26.6675 14.2006 26.6675 10.6438 26.6662C8.7625 26.6662 6.8775 26.6675 4.9975 26.6656C4.20625 26.6725 3.45187 26.2656 3.02312 25.6019C2.5525 24.89 2.52375 23.935 2.94437 23.1937C3.11125 22.8862 3.3525 22.6519 3.61375 22.4262C5.04562 21.1675 6.05438 19.4475 6.4475 17.5819C6.58125 16.9587 6.6425 16.3244 6.645 15.6875C6.64812 14.4575 6.64375 13.2275 6.64687 11.9975C6.64812 11.1869 6.75187 10.3775 6.96125 9.59436C7.45062 7.75249 8.52125 6.07936 9.98188 4.85686C11.3044 3.74061 12.9338 3.00999 14.6456 2.76186C15.5294 2.63874 16.4288 2.63749 17.3125 2.76249Z" fill="#FFC107"/>
<path d="M10.6438 26.6663C14.2007 26.6675 17.7575 26.6675 21.3144 26.6663C21.3057 27.2369 21.2238 27.8031 21.0413 28.3444C20.6519 29.5281 19.8344 30.5588 18.7725 31.21C17.9994 31.69 17.1138 31.9488 16.2075 32H15.7638C15.0644 31.9606 14.3775 31.8038 13.7425 31.5075C12.7338 31.0431 11.8819 30.2556 11.3357 29.2894C10.8807 28.4919 10.6494 27.5838 10.6438 26.6663Z" fill="#FFA000"/>
</g>
<defs>
<clipPath id="clip0_265_1332">
<rect width="32" height="32" fill="white"/>
</clipPath>
</defs>
</svg>
