<svg width="32" height="32" viewBox="0 0 32 32" fill="none" xmlns="http://www.w3.org/2000/svg">
<g clip-path="url(#clip0_257_2738)">
<path d="M0 0H5.97625C5.97 0.624375 5.97562 1.24937 5.97437 1.87375C4.60812 1.87687 3.24188 1.87375 1.875 1.875C1.87375 3.24188 1.87687 4.60812 1.87375 5.97437C1.24937 5.97375 0.624375 5.97438 0 5.97375V0Z" fill="#FE4945"/>
<path d="M5.97625 0H26.0263C26.0256 0.624375 26.0263 1.24937 26.0256 1.87375C27.3919 1.87625 28.7581 1.87437 30.125 1.875C30.1256 3.24188 30.1237 4.60812 30.1262 5.97437C30.7506 5.97375 31.3756 5.97438 32 5.97375V26.0263C31.3756 26.0256 30.7506 26.0263 30.1262 26.0256C30.1237 27.3919 30.1256 28.7581 30.125 30.125C28.7581 30.1256 27.3919 30.1237 26.0256 30.1262C26.0263 30.7506 26.0256 31.3756 26.0263 32H5.97375C5.97438 31.3756 5.97375 30.7506 5.97437 30.1262C4.60812 30.1231 3.24188 30.1262 1.875 30.125C1.87375 28.7581 1.87687 27.3919 1.87375 26.0256C1.24937 26.0263 0.624375 26.0263 0 26.0256V5.97375C0.624375 5.97438 1.24937 5.97375 1.87375 5.97437C1.87687 4.60812 1.87375 3.24188 1.875 1.875C3.24188 1.87375 4.60812 1.87687 5.97437 1.87375C5.97562 1.24937 5.97 0.624375 5.97625 0Z" fill="#FEFFFF"/>
<path d="M26.0263 0H32V5.97375C31.3756 5.97438 30.7506 5.97375 30.1263 5.97437C30.1238 4.60812 30.1256 3.24188 30.125 1.875C28.7581 1.87437 27.3919 1.87625 26.0256 1.87375C26.0263 1.24937 26.0256 0.624375 26.0263 0Z" fill="#FA185E"/>
<path d="M15.0631 1.64494C15.3762 1.64431 15.6875 1.64994 16 1.63931C16.0012 2.47244 15.9975 3.30556 16.0019 4.13806V4.15931C15.6887 4.15994 15.375 4.16931 15.0625 4.19494C15.0631 3.34494 15.0612 2.49494 15.0631 1.64494Z" fill="#393D9D"/>
<path d="M15.9999 1.63932C16.3118 1.62932 16.6237 1.63557 16.9368 1.63369C16.9381 2.48494 16.9374 3.33557 16.9374 4.18682C16.6256 4.16307 16.3149 4.14369 16.0018 4.13807C15.9974 3.30557 16.0012 2.47244 15.9999 1.63932Z" fill="#350D65"/>
<path d="M16.0019 4.13803C16.315 4.14366 16.6256 4.16303 16.9375 4.18678C18.4813 4.30241 19.9982 4.73053 21.3757 5.43678C23.2513 6.39178 24.8613 7.85553 25.9925 9.63053C27.0338 11.2555 27.6663 13.1368 27.8125 15.0618C27.8706 15.7005 27.8713 16.298 27.8125 16.9368C27.6782 18.708 27.1306 20.4487 26.2306 21.9793C25.1844 23.7693 23.6625 25.2743 21.8613 26.2999C20.3581 27.1605 18.665 27.683 16.9375 27.8124C16.625 27.8355 16.3138 27.8562 16.0007 27.8612V27.8405C16.0007 26.3499 15.9975 24.8593 16.0025 23.3687C17.85 23.3837 19.6675 22.6574 21.0156 21.3987C21.9825 20.4968 22.7063 19.343 23.0756 18.0718C23.4338 16.8537 23.4706 15.5499 23.1775 14.3137C22.8613 12.9568 22.1469 11.698 21.1475 10.728C19.7938 9.38991 17.8988 8.60866 15.9938 8.63178C16.01 7.14116 15.9931 5.64991 16.0019 4.15928V4.13803Z" fill="#FA185E"/>
<path d="M15.0625 4.19514C15.375 4.16952 15.6887 4.16014 16.0019 4.15952C15.9931 5.65014 16.01 7.14139 15.9937 8.63202C14.765 8.64702 13.5531 8.94451 12.4756 9.53889C11.0368 10.3251 9.87435 11.5976 9.23123 13.1064C8.65623 14.4383 8.49748 15.9383 8.76498 17.3626C9.04998 18.9014 9.84435 20.3164 10.9837 21.3864C12.0131 22.3389 13.3062 22.997 14.6887 23.2445C15.1231 23.327 15.5612 23.3526 16.0025 23.3689C15.9975 24.8595 16.0006 26.3501 16.0006 27.8408C15.6875 27.8395 15.3744 27.8301 15.0625 27.8045C13.5087 27.682 11.9769 27.2495 10.5912 26.5351C8.70373 25.5676 7.08935 24.0833 5.9631 22.2864C4.95248 20.6801 4.3406 18.8295 4.19498 16.937C4.14623 16.3133 4.14685 15.6858 4.19435 15.062C4.31685 13.4901 4.75685 11.9464 5.48498 10.5483C6.43248 8.71952 7.86685 7.15014 9.59935 6.03701C11.2312 4.98264 13.1256 4.34577 15.0625 4.19514Z" fill="#FE4945"/>
<path d="M15.9938 8.63184C15.9844 9.46934 15.9819 10.3112 15.995 11.1487C15.5156 11.1668 15.0481 11.2693 14.6238 11.4981C13.9956 11.8281 13.495 12.3943 13.245 13.0575C12.9638 13.7962 12.9925 14.6412 13.3325 15.355C13.6138 15.9575 14.0994 16.44 14.6875 16.7456C13.5781 17.0381 12.5856 17.7356 11.9181 18.6668C11.3481 19.4587 11.0244 20.4118 10.9838 21.3862C9.84439 20.3162 9.05001 18.9012 8.76501 17.3625C8.49751 15.9381 8.65626 14.4381 9.23126 13.1062C9.87438 11.5975 11.0369 10.325 12.4756 9.53871C13.5531 8.94434 14.765 8.64684 15.9938 8.63184Z" fill="#FEFFFF"/>
<path d="M15.9938 8.632C17.8988 8.60887 19.7938 9.39012 21.1475 10.7282C22.1469 11.6982 22.8613 12.957 23.1775 14.3139C23.4707 15.5501 23.4338 16.8539 23.0757 18.072C22.7063 19.3432 21.9825 20.497 21.0157 21.3989C20.9857 20.2845 20.5588 19.1957 19.8388 18.347C19.1894 17.5714 18.3057 17.0132 17.3338 16.7382C17.9613 16.4195 18.4613 15.8814 18.73 15.2307C19.1232 14.2839 18.985 13.1439 18.36 12.3282C17.8763 11.6782 17.1225 11.2501 16.3169 11.1664C16.21 11.1545 16.1025 11.1482 15.995 11.1489C15.9819 10.3114 15.9844 9.4695 15.9938 8.632Z" fill="#BCE4F4"/>
<path d="M15.995 11.1488C16.1025 11.1482 16.21 11.1544 16.3169 11.1663C16.2113 11.1638 16.1069 11.1657 16.0013 11.1669C15.9994 15.2344 15.9981 19.3019 16.0025 23.3688C15.5613 23.3526 15.1231 23.3269 14.6888 23.2444C13.3063 22.9969 12.0131 22.3388 10.9838 21.3863C11.0244 20.4119 11.3481 19.4588 11.9181 18.6669C12.5856 17.7357 13.5781 17.0382 14.6875 16.7457C14.0994 16.4401 13.6138 15.9576 13.3325 15.3551C12.9925 14.6413 12.9638 13.7963 13.245 13.0576C13.495 12.3944 13.9956 11.8282 14.6238 11.4982C15.0481 11.2694 15.5156 11.1669 15.995 11.1488Z" fill="#393D9D"/>
<path d="M16.0012 11.1669C16.1069 11.1656 16.2112 11.1638 16.3169 11.1663C17.1225 11.25 17.8762 11.6781 18.36 12.3281C18.985 13.1438 19.1231 14.2838 18.73 15.2306C18.4612 15.8813 17.9612 16.4194 17.3337 16.7381C18.3056 17.0131 19.1894 17.5713 19.8387 18.3469C20.5587 19.1956 20.9856 20.2844 21.0156 21.3988C19.6675 22.6575 17.85 23.3838 16.0025 23.3688C15.9981 19.3019 15.9994 15.2344 16.0012 11.1669Z" fill="#350D65"/>
<path d="M1.64685 15.0631C2.49623 15.06 3.3456 15.0625 4.19435 15.0619C4.14685 15.6856 4.14623 16.3131 4.19498 16.9369C3.3456 16.9363 2.49623 16.9381 1.64685 16.9363C1.64685 16.3119 1.64685 15.6875 1.64685 15.0631Z" fill="#393D9D"/>
<path d="M27.8125 15.0618C28.6594 15.0624 29.5062 15.0605 30.3531 15.0624C30.3531 15.6868 30.3531 16.3111 30.3531 16.9361C29.5062 16.938 28.6594 16.9361 27.8125 16.9368C27.8712 16.298 27.8706 15.7005 27.8125 15.0618Z" fill="#350D65"/>
<path d="M0 26.0257C0.624375 26.0264 1.24937 26.0264 1.87375 26.0257C1.87687 27.392 1.87375 28.7582 1.875 30.1251C3.24188 30.1264 4.60812 30.1232 5.97437 30.1264C5.97375 30.7507 5.97438 31.3757 5.97375 32.0001H0V26.0257Z" fill="#FE4945"/>
<path d="M30.1263 26.0257C30.7506 26.0264 31.3756 26.0257 32 26.0264V32.0001H26.0263C26.0256 31.3757 26.0263 30.7507 26.0256 30.1264C27.3919 30.1239 28.7581 30.1257 30.125 30.1251C30.1256 28.7582 30.1238 27.392 30.1263 26.0257Z" fill="#FA185E"/>
<path d="M15.0625 27.8044C15.3744 27.83 15.6875 27.8394 16.0006 27.8406V27.8612C15.9994 28.6937 16 29.5262 16 30.3581C15.6875 30.3469 15.3762 30.3531 15.0631 30.3525C15.0612 29.5031 15.0631 28.6537 15.0625 27.8044Z" fill="#393D9D"/>
<path d="M16.9375 27.8125C16.9369 28.6631 16.9382 29.5137 16.9369 30.3644C16.6238 30.3625 16.3119 30.3694 16 30.3581C16 29.5263 15.9994 28.6937 16.0007 27.8612C16.3138 27.8562 16.625 27.8356 16.9375 27.8125Z" fill="#350D65"/>
</g>
<defs>
<clipPath id="clip0_257_2738">
<rect width="32" height="32" fill="white"/>
</clipPath>
</defs>
</svg>
