<svg width="33" height="32" viewBox="0 0 33 32" fill="none" xmlns="http://www.w3.org/2000/svg">
<g clip-path="url(#clip0_265_1723)">
<path d="M0.5 0H3.7325C3.66438 0.09625 3.58 0.186875 3.57125 0.31C3.54438 0.6 3.5675 0.89625 3.56375 1.1875C3.56375 10.8544 3.56438 20.5206 3.56313 30.1875C3.57 30.4869 3.53063 30.8075 3.5925 31.1006C3.66625 31.305 3.88063 31.2937 4.06 31.3025C4.90813 31.2994 5.75563 31.2969 6.60375 31.3031C7.00625 31.2981 7.40938 31.29 7.8125 31.2931C11.9794 31.2944 16.1456 31.2919 20.3125 31.2944C20.6788 31.3006 21.0444 31.2837 21.4106 31.2825C22.1713 31.7162 22.9819 31.9487 23.8556 32H0.5V0Z" fill="white"/>
<path d="M3.7326 0H6.61573C6.40198 0.32 6.46073 0.63625 6.4576 1C6.47448 1.76813 6.43385 2.53875 6.48323 3.305C6.19385 3.4325 5.94135 3.62875 5.7751 3.90062C5.4626 4.39687 5.47948 5.07625 5.8226 5.55312C5.9876 5.79 6.22073 5.96 6.48198 6.07688C6.4576 6.47 6.45948 6.86312 6.45198 7.25688C6.27198 7.375 6.14135 7.52 6.16385 7.75125C6.1826 7.95562 6.31635 8.06625 6.4826 8.16C6.4426 9.01437 6.45323 9.88062 6.47635 10.7356C6.2526 10.7438 5.95635 10.7044 5.7576 10.8194C5.55635 10.9537 5.55948 11.1556 5.5501 11.3744C5.5551 13.6231 5.55135 15.8756 5.5526 18.125C5.55697 18.4344 5.52885 18.7531 5.5726 19.0594C5.59698 19.2306 5.7276 19.3694 5.89573 19.4075C6.0751 19.445 6.26823 19.44 6.45073 19.44C6.46635 20.1462 6.46573 20.8544 6.45073 21.5606C6.25448 21.5631 6.03635 21.5431 5.84573 21.5975C5.55198 21.7106 5.45948 22.095 5.6651 22.3331C5.83948 22.5581 6.2001 22.4906 6.45073 22.5019C6.46448 22.9212 6.46448 23.3375 6.45135 23.7569C6.2476 23.7619 6.0051 23.7319 5.8126 23.8094C5.5451 23.9388 5.4701 24.2981 5.66073 24.5263C5.7801 24.675 5.9426 24.695 6.1226 24.6969C7.50385 24.6844 8.88635 24.6906 10.2682 24.6925C9.92635 24.7437 9.59385 24.7375 9.2501 24.7337C8.5626 24.7256 7.87448 24.7394 7.1876 24.7269C6.94635 24.7219 6.70697 24.7356 6.46635 24.7531C6.43698 25.3344 6.4901 25.9125 6.44385 26.4931C6.19135 26.5144 5.9376 26.5269 5.68635 26.5588C5.64135 26.5669 5.60322 26.595 5.57135 26.6437C5.51823 26.8981 5.55198 27.1775 5.54448 27.4375C5.55073 27.7062 5.52698 27.98 5.55635 28.2475C5.56635 28.3469 5.60385 28.3913 5.69948 28.4169C5.94698 28.4488 6.20322 28.4244 6.4526 28.43C6.46885 29.1825 6.45823 29.9362 6.4551 30.6887C6.44697 30.9112 6.51135 31.1044 6.60385 31.3031C5.75573 31.2969 4.90823 31.2994 4.0601 31.3025C3.88073 31.2937 3.66635 31.305 3.5926 31.1006C3.53073 30.8075 3.5701 30.4869 3.56323 30.1875C3.56448 20.5206 3.56385 10.8544 3.56385 1.1875C3.5676 0.89625 3.54448 0.6 3.57135 0.31C3.5801 0.186875 3.66448 0.09625 3.7326 0Z" fill="#D8ECFE"/>
<path d="M6.61565 0H26.5394L26.5594 0.030625C26.7813 0.3275 26.6925 0.715 26.7057 1.0625C26.7019 7.47813 26.705 13.8962 26.7038 20.3125C26.7013 20.8687 26.7182 21.4231 26.6825 21.9794C25.3369 21.2256 23.6819 21.1069 22.2363 21.6388C21.9075 21.5281 21.5894 21.565 21.25 21.5625C18.1863 21.5619 15.1232 21.5637 12.0594 21.5619C11.8825 21.5644 11.7232 21.5863 11.6075 21.7337C11.4113 21.9688 11.5007 22.34 11.7825 22.4587C12.0063 22.5269 12.2675 22.4956 12.5 22.5006C15.2425 22.5 17.985 22.4987 20.7269 22.5012C20.2888 22.8575 19.905 23.2831 19.5988 23.7575C17.0888 23.7594 14.5688 23.7581 12.0588 23.7581C11.885 23.7612 11.7282 23.7838 11.6119 23.9256C11.4107 24.16 11.4969 24.535 11.7813 24.6556C11.9857 24.7194 12.225 24.6931 12.4375 24.6969C14.6638 24.6938 16.89 24.6981 19.1163 24.695C18.7132 25.7144 18.6375 26.8569 18.8969 27.9219C19.2338 29.3294 20.1638 30.5537 21.4107 31.2825C21.0444 31.2837 20.6788 31.3006 20.3125 31.2944C16.1457 31.2919 11.9794 31.2944 7.81253 31.2931C7.4094 31.29 7.00628 31.2981 6.60378 31.3031C6.51128 31.1044 6.4469 30.9112 6.45503 30.6887C6.45815 29.9362 6.46878 29.1825 6.45253 28.43C6.89628 28.4275 7.34065 28.4356 7.7844 28.4256C9.73065 28.405 11.6788 28.4225 13.625 28.4163C13.9044 28.4088 14.1932 28.44 14.4694 28.3988C14.6132 28.3444 14.58 28.1881 14.5925 28.0637C14.5844 27.6244 14.6038 27.1831 14.5838 26.7444C14.5719 26.5775 14.46 26.5562 14.3175 26.555C12.14 26.55 9.96065 26.5619 7.78378 26.5487C7.08565 26.5544 6.38378 26.53 5.68628 26.5588C5.93753 26.5269 6.19128 26.5144 6.44378 26.4931C6.49003 25.9125 6.4369 25.3344 6.46628 24.7531C6.7069 24.7356 6.94628 24.7219 7.18753 24.7269C7.8744 24.7394 8.56253 24.7256 9.25003 24.7337C9.59378 24.7375 9.92628 24.7437 10.2682 24.6925C10.5463 24.665 10.7394 24.4031 10.6794 24.1287C10.6282 23.895 10.4269 23.7563 10.1919 23.7606C8.94753 23.7531 7.69628 23.7631 6.45128 23.7569C6.4644 23.3375 6.4644 22.9212 6.45065 22.5019C7.65503 22.4988 8.8594 22.4988 10.0632 22.5019C10.245 22.4944 10.4138 22.5031 10.5507 22.3638C10.7482 22.1731 10.7325 21.8387 10.5182 21.6675C10.3882 21.5556 10.225 21.5669 10.0638 21.56C8.8594 21.5644 7.65503 21.5637 6.45065 21.5606C6.46565 20.8544 6.46628 20.1462 6.45065 19.44C6.61315 19.4375 6.77503 19.4338 6.93753 19.4331C12.4794 19.4338 18.0207 19.4331 23.5625 19.4338C23.8382 19.4281 24.135 19.4613 24.405 19.4006C24.6438 19.3225 24.72 19.1119 24.7188 18.8769C24.72 16.355 24.7182 13.8331 24.72 11.3106C24.72 11.0744 24.66 10.8588 24.4182 10.7719C24.145 10.7081 23.8419 10.7438 23.5625 10.7375C17.8675 10.7369 12.1713 10.74 6.47628 10.7356C6.45315 9.88062 6.44253 9.01437 6.48253 8.16C6.81003 8.18437 7.14065 8.17437 7.4694 8.17375C7.48128 8.37187 7.44565 8.6275 7.59565 8.78C7.77565 8.98187 8.1019 8.985 8.28565 8.78563C8.44378 8.62688 8.40565 8.38 8.41815 8.17562C8.8569 8.17937 9.25315 8.19875 9.63878 7.95125C10.2257 7.59375 10.4863 6.84375 10.2432 6.19875C10.0463 5.65625 9.5194 5.26312 8.94003 5.24312C8.31378 5.22625 7.68565 5.24563 7.0594 5.23688C6.89315 5.23563 6.73815 5.18813 6.6269 5.06C6.42128 4.8325 6.45003 4.445 6.69565 4.2575C6.84315 4.13875 7.0069 4.14813 7.18565 4.14375C7.83315 4.14688 8.48003 4.14563 9.12753 4.14687C9.3269 4.1475 9.5069 4.11562 9.62565 3.94062C9.81128 3.67562 9.66628 3.28938 9.34815 3.22312C9.04128 3.18812 8.72628 3.21563 8.41753 3.20875C8.40628 3.00063 8.44503 2.75312 8.28253 2.59125C8.0994 2.39562 7.7769 2.39875 7.59753 2.5975C7.4469 2.74813 7.4794 3.01063 7.47003 3.20813C7.13128 3.205 6.80815 3.18688 6.48315 3.305C6.43378 2.53875 6.4744 1.76813 6.45753 1C6.46065 0.63625 6.4019 0.32 6.61565 0Z" fill="#EAF6FF"/>
<path d="M26.5393 0H32.4999V32H24.353C25.2818 31.9381 26.1862 31.6656 26.9699 31.1575C27.9499 30.5312 28.7143 29.5794 29.1112 28.4862C29.4937 27.44 29.5368 26.2769 29.2349 25.205C28.8568 23.8438 27.9168 22.6631 26.6824 21.9794C26.718 21.4231 26.7012 20.8687 26.7037 20.3125C26.7049 13.8962 26.7018 7.47813 26.7055 1.0625C26.6924 0.715 26.7812 0.3275 26.5593 0.030625L26.5393 0Z" fill="white"/>
<path d="M8.28245 2.5912C8.44495 2.75307 8.4062 3.00057 8.41745 3.2087C8.7262 3.21557 9.0412 3.18807 9.34807 3.22307C9.6662 3.28932 9.8112 3.67557 9.62557 3.94057C9.50682 4.11557 9.32682 4.14745 9.12745 4.14682C8.47995 4.14557 7.83307 4.14682 7.18557 4.1437C7.00682 4.14807 6.84307 4.1387 6.69557 4.25745C6.44995 4.44495 6.4212 4.83245 6.62682 5.05995C6.73807 5.18807 6.89307 5.23557 7.05932 5.23682C7.68557 5.24557 8.3137 5.2262 8.93995 5.24307C9.51932 5.26307 10.0462 5.6562 10.2431 6.1987C10.4862 6.8437 10.2256 7.5937 9.6387 7.9512C9.25307 8.1987 8.85682 8.17932 8.41807 8.17557C8.40557 8.37995 8.4437 8.62682 8.28557 8.78557C8.10182 8.98495 7.77557 8.98182 7.59557 8.77995C7.44557 8.62745 7.4812 8.37182 7.46932 8.1737C7.14057 8.17432 6.80995 8.18432 6.48245 8.15995C6.3162 8.0662 6.18245 7.95557 6.1637 7.7512C6.1412 7.51995 6.27182 7.37495 6.45182 7.25682C7.2562 7.20807 8.0687 7.25745 8.87495 7.23245C9.1462 7.22807 9.36995 7.0212 9.3937 6.75057C9.41932 6.47745 9.21557 6.21307 8.93932 6.1862C8.54495 6.15682 8.14557 6.18307 7.74995 6.17495C7.30182 6.16245 6.90682 6.22682 6.48182 6.07682C6.22057 5.95995 5.98745 5.78995 5.82245 5.55307C5.47932 5.0762 5.46245 4.39682 5.77495 3.90057C5.9412 3.6287 6.1937 3.43245 6.48307 3.30495C6.80807 3.18682 7.1312 3.20495 7.46995 3.20807C7.47932 3.01057 7.44682 2.74807 7.59745 2.59745C7.77682 2.3987 8.09932 2.39557 8.28245 2.5912Z" fill="#47A920"/>
<path d="M15.0574 3.33068C15.7149 3.33256 16.373 3.32568 17.0305 3.33631C16.9637 3.53256 16.9193 3.72818 16.9249 3.93756C16.9387 4.38943 16.8749 4.79318 17.0237 5.23006C16.3687 5.24193 15.7124 5.23381 15.0574 5.23631C14.8968 5.24006 14.7549 5.18756 14.7568 5.00193C14.7505 4.52256 14.7499 4.04006 14.7574 3.56068C14.7562 3.37318 14.898 3.32943 15.0574 3.33068Z" fill="#0182FC"/>
<path d="M17.0307 3.3363C17.1663 3.33943 17.3019 3.34568 17.4376 3.34693C19.7494 3.3438 22.0663 3.34818 24.3769 3.34443C24.4963 3.35755 24.6213 3.32755 24.6926 3.44505C24.7476 3.7038 24.7107 3.9863 24.7188 4.25005C24.7088 4.5363 24.7482 4.83943 24.6932 5.12068C24.6244 5.23568 24.4938 5.21255 24.3782 5.22318C22.3776 5.21818 20.3757 5.22255 18.3751 5.22068C17.9238 5.2238 17.4744 5.21255 17.0238 5.23005C16.8751 4.79318 16.9388 4.38943 16.9251 3.93755C16.9194 3.72818 16.9638 3.53255 17.0307 3.3363Z" fill="#0593FC"/>
<path d="M6.4819 6.0769C6.9069 6.2269 7.3019 6.16253 7.75003 6.17503C8.14565 6.18315 8.54503 6.1569 8.9394 6.18628C9.21565 6.21315 9.4194 6.47753 9.39378 6.75065C9.37003 7.02128 9.14628 7.22815 8.87503 7.23253C8.06878 7.25753 7.25628 7.20815 6.4519 7.2569C6.4594 6.86315 6.45753 6.47003 6.4819 6.0769Z" fill="#EAF6FF"/>
<path d="M19.7482 6.51062C21.2075 6.51437 22.6688 6.5125 24.1282 6.51125C24.2863 6.51812 24.4325 6.51875 24.5575 6.63C24.7632 6.80625 24.77 7.13687 24.5719 7.32187C24.445 7.44625 24.2938 7.44437 24.1269 7.45187C22.8157 7.44812 21.4994 7.45 20.1875 7.45C19.945 7.44687 19.6869 7.47187 19.4488 7.42375C19.1344 7.33 19.0263 6.92375 19.24 6.67812C19.3757 6.51625 19.5525 6.51625 19.7482 6.51062Z" fill="#8AC9FE"/>
<path d="M6.47627 10.7357C12.1713 10.74 17.8675 10.7369 23.5625 10.7375C23.8419 10.7438 24.145 10.7082 24.4181 10.7719C24.66 10.8588 24.72 11.0744 24.72 11.3107C24.7181 13.8332 24.72 16.355 24.7188 18.8769C24.72 19.1119 24.6438 19.3225 24.405 19.4007C24.135 19.4613 23.8381 19.4282 23.5625 19.4338C18.0206 19.4332 12.4794 19.4338 6.93752 19.4332C6.77502 19.4338 6.61314 19.4375 6.45064 19.44C6.26814 19.44 6.07502 19.445 5.89564 19.4075C5.72752 19.3694 5.59689 19.2307 5.57252 19.0594C5.52877 18.7532 5.55689 18.4344 5.55252 18.125C5.55127 15.8757 5.55502 13.6232 5.55002 11.3744C5.55939 11.1557 5.55627 10.9538 5.75752 10.8194C5.95627 10.7044 6.25252 10.7438 6.47627 10.7357Z" fill="#B3DAFE"/>
<path d="M6.49253 11.6774C6.88753 11.6724 7.28253 11.6749 7.67691 11.6749C7.67066 12.2237 7.67066 12.7724 7.67691 13.3212C7.28191 13.3199 6.88753 13.3231 6.49253 13.3174C6.48816 12.7712 6.48753 12.2243 6.49253 11.6774Z" fill="#F3F0F3"/>
<path d="M7.67681 11.675C7.85181 11.6732 8.02618 11.6775 8.20118 11.6769C8.20431 12.2244 8.20431 12.7719 8.20118 13.3188C8.02618 13.3182 7.85181 13.3232 7.67681 13.3213C7.67056 12.7725 7.67056 12.2238 7.67681 11.675Z" fill="white"/>
<path d="M9.14177 11.6775C11.8655 11.6731 14.5899 11.6743 17.3136 11.6768C17.3186 12.2243 17.3193 12.7718 17.3136 13.3187C14.5899 13.3218 11.8655 13.3225 9.14177 13.3187C9.13927 12.7718 9.13927 12.2243 9.14177 11.6775Z" fill="white"/>
<path d="M18.2588 11.6819C20.097 11.6694 21.9363 11.6725 23.7745 11.68C23.7863 12.2257 23.7863 12.7713 23.7745 13.3163C21.9363 13.3238 20.097 13.3275 18.2582 13.3144C18.2507 12.7707 18.2501 12.2257 18.2588 11.6819Z" fill="#8AC9FE"/>
<path d="M6.49307 14.26C6.88807 14.2556 7.28307 14.2581 7.67807 14.2575C7.66994 14.8081 7.67119 15.3587 7.67682 15.9094C7.28182 15.9087 6.88744 15.9119 6.49244 15.9062C6.48807 15.3575 6.48682 14.8087 6.49307 14.26Z" fill="#F3F0F3"/>
<path d="M7.67814 14.2576C7.85252 14.2563 8.02689 14.2607 8.20127 14.2594C8.20502 14.8088 8.20439 15.3576 8.20127 15.9069C8.02627 15.9063 7.85189 15.9107 7.67689 15.9094C7.67127 15.3588 7.67002 14.8082 7.67814 14.2576Z" fill="white"/>
<path d="M9.15065 14.2688C9.36878 14.2457 9.59315 14.2588 9.81253 14.2582C12.3132 14.2594 14.8138 14.2563 17.3144 14.2594C17.3182 14.8094 17.32 15.3588 17.3132 15.9082C14.5894 15.9088 11.8657 15.91 9.14253 15.9075C9.1469 15.3625 9.1244 14.8132 9.15065 14.2688Z" fill="white"/>
<path d="M18.2682 14.2718C18.4882 14.245 18.7157 14.2581 18.9376 14.2581C20.5495 14.2625 22.162 14.2537 23.7732 14.2618C23.7876 14.8081 23.7851 15.355 23.7757 15.9012C21.9364 15.9106 20.0964 15.9118 18.257 15.9006C18.2607 15.3593 18.2332 14.8112 18.2682 14.2718Z" fill="#8AC9FE"/>
<path d="M6.49253 16.8494C6.88753 16.8438 7.28191 16.8469 7.67691 16.8463C7.67066 17.3963 7.67066 17.9463 7.67691 18.4963C7.28253 18.4963 6.88753 18.4988 6.49253 18.4938C6.48753 17.9456 6.48816 17.3975 6.49253 16.8494Z" fill="#F3F0F3"/>
<path d="M7.67681 16.8463C7.85181 16.8444 8.02618 16.8488 8.20118 16.8482C8.20493 17.3969 8.20431 17.9457 8.20118 18.4944C8.02681 18.4938 7.85181 18.4982 7.67681 18.4963C7.67056 17.9463 7.67056 17.3963 7.67681 16.8463Z" fill="white"/>
<path d="M9.14132 16.8482C11.8657 16.845 14.5907 16.845 17.3151 16.8482C17.3182 17.3969 17.3188 17.9457 17.3151 18.4944C14.5907 18.4969 11.8657 18.4969 9.14132 18.4944C9.14007 17.9457 9.13945 17.3969 9.14132 16.8482Z" fill="white"/>
<path d="M18.2575 16.8513C18.5263 16.8444 18.7938 16.8406 19.0625 16.8438C20.6332 16.8506 22.2044 16.835 23.775 16.8506C23.7857 17.3975 23.7869 17.945 23.7744 18.4919C21.9357 18.4969 20.0969 18.4975 18.2582 18.4919C18.2507 17.945 18.2513 17.3981 18.2575 16.8513Z" fill="#8AC9FE"/>
<path d="M26.6825 21.9793C27.9169 22.6631 28.8569 23.8437 29.235 25.2049C29.5369 26.2768 29.4938 27.4399 29.1113 28.4862C28.7144 29.5793 27.95 30.5312 26.97 31.1574C26.1863 31.6656 25.2819 31.9381 24.3532 31.9999H23.8557C22.9819 31.9487 22.1713 31.7162 21.4107 31.2824C20.1638 30.5537 19.2338 29.3293 18.8969 27.9218C18.6375 26.8568 18.7132 25.7143 19.1163 24.6949C19.2469 24.3662 19.4069 24.0543 19.5988 23.7574C19.905 23.2831 20.2888 22.8574 20.7269 22.5012C21.1813 22.1349 21.6907 21.8443 22.2363 21.6387C23.6819 21.1068 25.3369 21.2256 26.6825 21.9793Z" fill="#FEDF30"/>
<path d="M6.45054 21.5607C7.65492 21.5638 8.85929 21.5644 10.0637 21.5601C10.2249 21.5669 10.388 21.5557 10.518 21.6676C10.7324 21.8388 10.748 22.1732 10.5505 22.3638C10.4137 22.5032 10.2449 22.4944 10.063 22.5019C8.85929 22.4988 7.65492 22.4988 6.45054 22.5019C6.19992 22.4907 5.83929 22.5582 5.66492 22.3332C5.45929 22.0951 5.55179 21.7107 5.84554 21.5976C6.03617 21.5432 6.25429 21.5632 6.45054 21.5607Z" fill="#60B7FF"/>
<path d="M12.0593 21.5619C15.1231 21.5638 18.1862 21.5619 21.25 21.5626C21.5893 21.5651 21.9075 21.5282 22.2362 21.6388C21.6906 21.8444 21.1812 22.1351 20.7268 22.5013C17.985 22.4988 15.2425 22.5001 12.5 22.5007C12.2675 22.4957 12.0062 22.5269 11.7825 22.4588C11.5006 22.3401 11.4112 21.9688 11.6075 21.7338C11.7231 21.5863 11.8825 21.5644 12.0593 21.5619Z" fill="#60B7FF"/>
<path d="M23.5795 23.1412C24.147 23.0725 24.7376 23.1043 25.2751 23.3118C24.0426 23.7868 23.0932 24.9012 22.9726 26.2362C22.8088 26.0818 22.6182 25.815 22.3726 25.8218C22.107 25.8137 21.8832 26.0425 21.8957 26.3075C21.8995 26.4787 22.0001 26.585 22.1101 26.7012C22.4482 27.0387 22.7907 27.3725 23.1232 27.7156C23.292 28.39 23.7076 28.9493 24.2332 29.3912C24.5457 29.6531 24.9007 29.8331 25.2695 30.0012C24.7882 30.1837 24.2576 30.2312 23.7476 30.1881C22.7557 30.0993 21.8226 29.5656 21.2345 28.7637C20.3507 27.5943 20.3095 25.9037 21.132 24.6912C21.6813 23.8581 22.5907 23.2787 23.5795 23.1412Z" fill="#47A920"/>
<path d="M25.2749 23.3119C26.3099 23.6844 27.143 24.5375 27.468 25.5919C27.7712 26.5388 27.648 27.5988 27.1405 28.4531C26.7193 29.1731 26.0487 29.7125 25.2693 30.0013C24.9005 29.8331 24.5455 29.6531 24.233 29.3913C23.7074 28.9494 23.2918 28.39 23.123 27.7156C23.288 27.8725 23.4405 28.0575 23.6293 28.185C23.8274 28.2944 24.0487 28.2369 24.2024 28.0806C24.8205 27.4706 25.4312 26.8475 26.0499 26.2375C26.1693 26.1113 26.2824 25.9994 26.2843 25.8131C26.2918 25.5519 26.0724 25.3325 25.8124 25.3363C25.6237 25.335 25.5112 25.45 25.3843 25.5706C24.8749 26.0869 24.3593 26.5975 23.8474 27.1106C23.5562 26.8188 23.2637 26.5281 22.9724 26.2363C23.093 24.9013 24.0424 23.7869 25.2749 23.3119Z" fill="#4FC123"/>
<path d="M6.45133 23.7569C7.69633 23.7632 8.94758 23.7532 10.192 23.7607C10.427 23.7563 10.6282 23.8951 10.6795 24.1288C10.7395 24.4032 10.5463 24.6651 10.2682 24.6926C8.88633 24.6907 7.50383 24.6844 6.12258 24.6969C5.94258 24.6951 5.78008 24.6751 5.6607 24.5263C5.47008 24.2982 5.54508 23.9388 5.81258 23.8094C6.00508 23.7319 6.24758 23.7619 6.45133 23.7569Z" fill="#60B7FF"/>
<path d="M12.0587 23.7581C14.5687 23.7581 17.0887 23.7593 19.5987 23.7574C19.4068 24.0543 19.2468 24.3662 19.1162 24.6949C16.8899 24.6981 14.6637 24.6937 12.4374 24.6968C12.2249 24.6931 11.9855 24.7193 11.7812 24.6556C11.4968 24.5349 11.4105 24.1599 11.6118 23.9256C11.728 23.7837 11.8849 23.7612 12.0587 23.7581Z" fill="#60B7FF"/>
<path d="M25.8124 25.3362C26.0724 25.3325 26.2918 25.5519 26.2843 25.8131C26.2824 25.9994 26.1693 26.1112 26.0499 26.2375C25.4311 26.8475 24.8205 27.4706 24.2024 28.0806C24.0486 28.2369 23.8274 28.2944 23.6293 28.185C23.4405 28.0575 23.288 27.8725 23.123 27.7156C22.7905 27.3725 22.448 27.0387 22.1099 26.7012C21.9999 26.585 21.8993 26.4787 21.8955 26.3075C21.883 26.0425 22.1068 25.8137 22.3724 25.8219C22.618 25.815 22.8086 26.0819 22.9724 26.2362C23.2636 26.5281 23.5561 26.8187 23.8474 27.1106C24.3593 26.5975 24.8749 26.0869 25.3843 25.5706C25.5111 25.45 25.6236 25.335 25.8124 25.3362Z" fill="white"/>
<path d="M5.68617 26.5588C6.38367 26.53 7.08554 26.5544 7.78367 26.5488C7.69492 27.1581 7.69429 27.8163 7.78429 28.4256C7.34054 28.4356 6.89617 28.4275 6.45242 28.43C6.20304 28.4244 5.94679 28.4488 5.69929 28.4169C5.60367 28.3913 5.56617 28.3469 5.55617 28.2475C5.52679 27.98 5.55054 27.7063 5.54429 27.4375C5.55179 27.1775 5.51804 26.8981 5.57117 26.6438C5.60304 26.595 5.64117 26.5669 5.68617 26.5588Z" fill="#47A920"/>
<path d="M7.78376 26.5487C9.96063 26.5618 12.14 26.55 14.3175 26.555C14.46 26.5562 14.5719 26.5775 14.5838 26.7443C14.6038 27.1831 14.5844 27.6243 14.5925 28.0637C14.58 28.1881 14.6131 28.3443 14.4694 28.3987C14.1931 28.44 13.9044 28.4087 13.625 28.4162C11.6788 28.4225 9.73063 28.405 7.78438 28.4256C7.69438 27.8162 7.69501 27.1581 7.78376 26.5487Z" fill="#4FC123"/>
</g>
<defs>
<clipPath id="clip0_265_1723">
<rect width="32" height="32" fill="white" transform="translate(0.5)"/>
</clipPath>
</defs>
</svg>
