<svg width="32" height="32" viewBox="0 0 32 32" fill="none" xmlns="http://www.w3.org/2000/svg">
<g clip-path="url(#clip0_265_2786)">
<path d="M20.4492 0.629326C23.162 1.41004 25.6528 2.92861 27.5935 4.9779C29.5177 6.99647 30.8999 9.52361 31.5506 12.2365C32.1449 14.6993 32.1442 17.305 31.5492 19.7679C30.902 22.4629 29.5328 24.9729 27.6278 26.985C25.6663 29.0643 23.147 30.6058 20.3949 31.385C16.5642 32.4843 12.3435 32.0908 8.79061 30.2815C6.6599 29.2058 4.77418 27.6443 3.31918 25.7515C1.79775 23.7815 0.747039 21.4522 0.28561 19.005C-0.186532 16.5229 -0.0665324 13.9258 0.644182 11.5008C1.4149 8.85575 2.88847 6.42576 4.86918 4.51218C6.37275 3.05218 8.16918 1.88861 10.1206 1.12075C13.3863 -0.179245 17.0742 -0.346388 20.4492 0.629326Z" fill="#FF435B"/>
<path d="M14.7492 3.49435C17.237 3.2422 19.787 3.74506 21.9842 4.94292C24.1499 6.11435 25.9527 7.93363 27.1049 10.1093C28.0563 11.8929 28.5599 13.9079 28.567 15.9293C28.5835 18.0858 28.0342 20.2401 26.9785 22.1215C25.942 23.9808 24.4277 25.5672 22.617 26.6879C20.8263 27.8036 18.7499 28.4515 16.642 28.5515C14.492 28.6615 12.3192 28.2165 10.3935 27.2501C8.39059 26.2529 6.66702 24.7122 5.45059 22.8351C4.39202 21.2086 3.72202 19.3365 3.50917 17.4079C3.27202 15.2801 3.57631 13.0979 4.41131 11.1251C5.26202 9.0972 6.65774 7.30935 8.40988 5.98149C10.2427 4.5872 12.4563 3.7172 14.7492 3.49435Z" fill="#F7FAFF"/>
<path d="M16.7086 7.79433C17.025 8.02291 17.2079 8.39005 17.1943 8.78219C17.1936 11.0293 17.1957 13.2793 17.1936 15.5258C18.3915 16.7308 19.5972 17.9279 20.7972 19.1315C20.9729 19.3115 21.1657 19.4808 21.3236 19.6772C21.6079 20.0343 21.63 20.575 21.3929 20.9615C21.18 21.32 20.7715 21.5336 20.3557 21.5086C20.0515 21.4972 19.7815 21.3608 19.5707 21.1443C18.1329 19.7043 16.6865 18.26 15.2493 16.8208C15.0057 16.5765 14.8965 16.2729 14.905 15.9293C14.9065 13.5486 14.905 11.1658 14.905 8.78505C14.8943 8.39862 15.0629 8.03219 15.3765 7.80433C15.7629 7.51862 16.3179 7.51433 16.7086 7.79433Z" fill="#303E43"/>
</g>
<defs>
<clipPath id="clip0_265_2786">
<rect width="32" height="32" fill="white"/>
</clipPath>
</defs>
</svg>
