<svg width="33" height="32" viewBox="0 0 33 32" fill="none" xmlns="http://www.w3.org/2000/svg">
<g clip-path="url(#clip0_464_2470)">
<path d="M15.6112 0H17.5263C17.8719 0.050625 18.2156 0.0925 18.5625 0.125625C21.0906 0.438125 23.5369 1.36062 25.64 2.7975C26.2931 3.2375 26.9081 3.73 27.4937 4.25625C27.7388 4.47687 27.9269 4.73375 28.15 4.97437C29.2069 6.07687 30.1081 7.33313 30.8081 8.69063C31.6737 10.3794 32.2306 12.2362 32.4144 14.1256C32.4369 14.3506 32.4706 14.5744 32.5 14.7987V16.6506C32.4481 16.9956 32.4062 17.34 32.3731 17.6881C32.0713 20.0969 31.2231 22.4325 29.9125 24.4756C28.4719 26.7325 26.4481 28.6369 24.0806 29.8931C22.1656 30.915 20.04 31.5106 17.8769 31.6725C17.3569 31.7094 16.8363 31.7388 16.3144 31.7069C15.5212 31.6537 14.725 31.6087 13.9388 31.4844C12.4244 31.25 10.9487 30.7838 9.57187 30.1112C9.3675 30.0156 9.1575 29.865 8.93437 29.8256C8.71625 29.8325 8.49625 29.9163 8.285 29.9688C5.9225 30.5869 3.55875 31.2013 1.19563 31.8169C0.986875 31.8713 0.7825 31.9394 0.575625 32H0.5V31.9194C0.6125 31.59 0.71375 31.2612 0.7975 30.9231C1.39688 28.75 1.99187 26.575 2.59437 24.4031C2.66375 24.1 2.82938 23.8475 2.63875 23.5531C1.10063 20.8425 0.400625 17.6688 0.680625 14.5625C0.873125 12.3656 1.53313 10.2156 2.595 8.28375C3.85125 5.98625 5.67875 3.99125 7.87313 2.56063C9.89375 1.23375 12.2262 0.393125 14.6269 0.11625C14.9569 0.085 15.2837 0.04625 15.6112 0Z" fill="#E4F8F0"/>
<path d="M19.6193 2.95063C21.4925 3.37563 23.2525 4.23688 24.755 5.43125C26.3343 6.69 27.6543 8.26375 28.5431 10.0819C29.4243 11.8756 29.865 13.8769 29.8331 15.875C29.8012 18.1913 29.1543 20.4875 27.9881 22.4881C27.0456 24.1088 25.7693 25.5275 24.24 26.6144C22.5468 27.8219 20.5587 28.5969 18.4981 28.8713C16.5612 29.135 14.5756 28.9975 12.705 28.4244C11.5143 28.0706 10.3975 27.5325 9.34622 26.8756C7.67684 27.3044 6.00997 27.745 4.34059 28.1725C4.78622 26.5531 5.23372 24.9344 5.67934 23.315C5.47809 22.9963 5.27184 22.6813 5.08559 22.3531C4.12497 20.6813 3.53872 18.7969 3.38497 16.8744C3.22247 14.8138 3.51684 12.7144 4.29997 10.7975C4.99372 9.09063 6.06809 7.5475 7.41434 6.29C9.09122 4.71875 11.1781 3.59563 13.405 3.03375C15.435 2.52063 17.5775 2.48 19.6193 2.95063Z" fill="#4CAF50"/>
<path d="M11.3751 8.47878C11.6157 8.50941 11.9095 8.45628 12.1295 8.56066C12.3513 8.67878 12.4801 8.95191 12.5788 9.17128C13.007 10.1838 13.4157 11.205 13.8526 12.2132C13.9345 12.3988 13.9438 12.6044 13.8557 12.7894C13.647 13.2169 13.3457 13.6144 13.0276 13.9663C12.8876 14.1307 12.7163 14.295 12.6188 14.4888C12.527 14.6875 12.5982 14.87 12.7038 15.0444C13.4151 16.2307 14.3263 17.3525 15.422 18.2038C16.1413 18.7719 16.9363 19.2382 17.7795 19.5982C18.0188 19.6982 18.302 19.8663 18.5657 19.8544C18.8388 19.8332 18.9901 19.5913 19.1532 19.4044C19.5032 19.0007 19.8257 18.5757 20.1588 18.1582C20.282 18.015 20.4245 17.8194 20.6213 17.7844C20.857 17.7669 21.1138 17.895 21.3288 17.9825C22.0863 18.32 22.832 18.6869 23.5745 19.0544C23.8607 19.2457 24.177 19.3675 24.4813 19.5232C24.6682 19.6207 24.6563 19.8175 24.6582 20.0007C24.6376 20.5019 24.5207 21.0019 24.3451 21.4713C24.1476 21.97 23.6626 22.3725 23.2257 22.6632C22.7795 22.9482 22.2845 23.1982 21.7657 23.3175C20.8582 23.475 19.9238 23.4375 19.0495 23.1338C17.8151 22.7044 16.597 22.2607 15.467 21.5957C14.6382 21.1132 13.8882 20.5282 13.187 19.8763C12.0632 18.825 11.0538 17.6 10.1176 16.3807C9.57196 15.6194 9.08634 14.7932 8.77384 13.9075C8.49759 13.1175 8.38446 12.2813 8.53946 11.4525C8.71509 10.4894 9.24571 9.61691 9.91196 8.91191C10.3088 8.51316 10.8363 8.44378 11.3751 8.47878Z" fill="#FEFEFE"/>
</g>
<defs>
<clipPath id="clip0_464_2470">
<rect width="32" height="32" fill="white" transform="translate(0.5)"/>
</clipPath>
</defs>
</svg>
