<?xml version="1.0" standalone="no"?>
<!DOCTYPE svg PUBLIC "-//W3C//DTD SVG 20010904//EN"
 "http://www.w3.org/TR/2001/REC-SVG-20010904/DTD/svg10.dtd">
<svg version="1.0" xmlns="http://www.w3.org/2000/svg"
 width="512.000000pt" height="512.000000pt" viewBox="0 0 512.000000 512.000000"
 preserveAspectRatio="xMidYMid meet">

<g transform="translate(0.000000,512.000000) scale(0.100000,-0.100000)"
fill="#fff" stroke="none">
<path d="M186 5004 c-34 -11 -64 -31 -102 -68 -91 -92 -84 73 -84 -1861 0
-1885 -4 -1761 66 -1843 20 -24 59 -55 88 -70 l51 -27 803 -3 c441 -1 802 -6
802 -10 0 -5 -39 -107 -86 -228 -47 -120 -95 -243 -106 -271 l-19 -53 -144 0
c-193 0 -185 10 -185 -227 0 -181 8 -222 45 -237 22 -8 2468 -8 2490 0 37 15
45 56 45 237 0 237 8 227 -185 227 l-144 0 -19 53 c-11 28 -59 151 -106 271
-47 121 -86 223 -86 228 0 4 189 8 419 8 l420 0 25 23 c36 32 39 74 6 107 -20
20 -33 20 -1970 20 -2147 0 -1999 -4 -2040 62 -20 33 -20 46 -20 1733 0 1687
0 1700 20 1733 41 67 -142 62 2390 62 2532 0 2349 5 2390 -62 20 -33 20 -46
20 -1733 0 -1687 0 -1700 -20 -1733 -34 -56 -64 -62 -295 -62 -192 0 -206 -1
-225 -20 -30 -30 -27 -83 7 -110 26 -21 35 -21 253 -18 223 3 226 3 276 30 29
15 68 46 88 70 70 82 66 -42 66 1843 0 1933 7 1769 -84 1861 -93 92 150 84
-2480 83 -2033 0 -2327 -2 -2370 -15z m3066 -4154 c59 -151 108 -276 108 -277
0 -2 -245 -3 -544 -3 l-545 0 -20 -26 c-27 -35 -26 -57 3 -91 l24 -28 711 -3
711 -2 0 -85 0 -85 -1140 0 -1140 0 0 85 0 84 286 3 286 3 19 24 c25 30 24 76
-1 101 -18 18 -33 20 -136 20 -89 0 -115 3 -111 13 3 6 45 116 95 242 49 127
97 247 105 268 l16 37 583 -2 582 -3 108 -275z"/>
<path d="M445 4691 c-45 -11 -74 -32 -98 -71 l-22 -35 0 -1361 0 -1361 28 -36
c55 -73 -144 -67 2210 -67 l2124 0 33 23 c19 12 43 38 54 57 21 35 21 41 21
1390 0 1337 0 1355 -20 1388 -11 18 -36 43 -55 55 l-35 22 -1448 0 -1449 0
-24 -28 c-29 -34 -30 -56 -3 -91 l20 -26 1432 -2 1432 -3 3 -1317 2 -1318
-1975 0 c-1086 0 -1975 3 -1975 8 0 13 58 221 65 231 3 6 11 11 17 11 6 0 36
12 68 26 l57 25 162 -85 c89 -48 174 -86 189 -86 22 0 58 30 180 153 84 85
152 161 152 170 0 10 -16 49 -35 87 -19 38 -35 74 -35 80 0 6 46 10 124 10
118 0 125 -1 131 -21 11 -33 75 -98 119 -121 56 -29 146 -29 202 0 23 12 57
39 76 62 130 151 23 383 -177 383 -86 0 -172 -51 -211 -125 l-15 -28 -170 0
c-140 0 -171 3 -175 15 -6 16 44 152 59 162 5 3 86 30 180 59 94 29 177 60
186 69 10 10 17 40 19 85 l4 70 153 0 153 0 12 -30 c17 -42 90 -104 138 -118
116 -35 242 24 289 135 18 43 17 135 -3 181 -71 172 -307 192 -413 34 l-35
-52 -148 0 -148 0 0 64 c0 96 -6 101 -215 166 l-176 55 -30 70 c-48 114 -53
110 146 112 l170 3 30 -47 c46 -73 102 -107 183 -111 45 -3 80 1 102 10 128
54 185 203 124 326 -81 163 -311 175 -407 21 l-30 -49 -128 0 -128 0 41 78
c30 60 39 85 33 103 -10 31 -270 294 -306 309 -26 11 -41 5 -201 -78 -162 -84
-175 -89 -198 -76 -14 7 -46 21 -72 29 -52 18 -45 4 -87 172 -12 45 -21 84
-21 87 0 3 180 6 400 6 387 0 401 1 420 20 35 35 25 92 -21 115 -24 13 -107
15 -526 14 -274 -1 -511 -4 -528 -8z m109 -193 c8 -29 29 -107 45 -172 17 -65
36 -125 42 -132 6 -7 34 -21 62 -30 29 -9 85 -32 125 -51 46 -21 81 -32 93
-28 11 4 88 42 172 86 l152 79 88 -88 89 -89 -86 -166 -86 -167 16 -37 c9 -21
32 -78 51 -128 19 -49 40 -96 47 -103 6 -6 88 -36 181 -65 l170 -53 3 -126 3
-127 -148 -46 c-81 -25 -157 -49 -168 -52 -34 -9 -53 -33 -71 -87 -9 -28 -30
-77 -46 -110 -16 -32 -30 -70 -30 -85 -1 -16 33 -93 80 -182 l81 -155 -89 -89
-90 -90 -159 83 c-87 45 -165 82 -173 82 -8 0 -48 -15 -89 -34 -41 -19 -93
-40 -116 -47 -24 -6 -50 -20 -58 -29 -9 -10 -35 -91 -58 -181 l-43 -164 -37
-3 -37 -3 0 273 0 273 78 17 c156 32 275 94 386 203 90 87 155 192 197 315 31
89 33 104 33 230 0 99 -5 152 -18 199 -81 293 -314 511 -606 565 l-65 12 -3
264 c-1 146 0 270 3 277 2 7 18 13 34 13 28 0 32 -4 45 -52z m1497 -597 c37
-38 39 -82 4 -116 -52 -53 -145 -16 -145 57 1 80 85 115 141 59z m-1480 -77
c275 -81 465 -350 446 -633 -17 -249 -166 -453 -397 -543 -36 -15 -84 -29
-107 -33 l-43 -7 0 90 0 90 33 7 c104 22 236 126 287 225 129 253 -2 555 -275
634 l-40 12 -3 87 c-3 86 -2 87 21 87 13 0 48 -7 78 -16z m-31 -339 c38 -20
99 -85 122 -130 29 -56 35 -158 14 -223 -20 -60 -83 -135 -137 -162 -73 -38
-69 -52 -69 261 l0 280 23 -7 c12 -3 33 -12 47 -19z m1914 -196 c57 -45 19
-149 -54 -149 -37 0 -90 47 -90 80 0 76 84 116 144 69z m-396 -625 c29 -33 28
-76 -2 -110 -67 -79 -189 19 -130 104 33 48 92 50 132 6z"/>
<path d="M2832 4347 c-29 -31 -28 -72 3 -102 l24 -25 299 0 c288 0 300 1 326
21 33 26 36 79 6 109 -19 19 -33 20 -328 20 l-309 0 -21 -23z"/>
<path d="M2835 4025 c-32 -31 -33 -74 -2 -103 22 -21 32 -22 209 -22 172 0
187 1 212 21 34 27 35 71 1 104 -24 25 -26 25 -210 25 -184 0 -186 0 -210 -25z"/>
<path d="M3493 4038 c-46 -22 -45 -114 2 -132 9 -3 222 -6 474 -6 l458 0 21
23 c31 33 29 80 -4 106 -26 21 -36 21 -478 20 -296 0 -459 -4 -473 -11z"/>
<path d="M2853 3720 c-44 -18 -57 -86 -23 -120 19 -19 33 -20 388 -20 345 0
370 1 385 18 24 27 22 85 -4 108 -20 18 -43 19 -373 21 -193 1 -361 -2 -373
-7z"/>
<path d="M3843 3720 c-44 -18 -57 -86 -23 -120 18 -18 33 -20 129 -20 106 0
110 1 130 26 34 43 26 86 -20 109 -31 17 -179 20 -216 5z"/>
<path d="M2832 3377 c-27 -29 -28 -67 -3 -98 l19 -24 304 -3 c297 -3 305 -2
331 18 34 27 37 80 7 110 -19 19 -33 20 -328 20 l-309 0 -21 -23z"/>
<path d="M2836 3059 c-36 -28 -36 -80 0 -108 25 -20 40 -21 209 -21 169 0 184
1 209 21 34 27 35 71 1 104 -24 25 -26 25 -208 25 -171 0 -186 -1 -211 -21z"/>
<path d="M3488 3066 c-41 -31 -37 -113 7 -130 9 -3 222 -6 474 -6 l458 0 21
23 c31 33 29 80 -4 106 -26 21 -36 21 -483 21 -358 -1 -460 -3 -473 -14z"/>
<path d="M2853 2750 c-44 -18 -57 -86 -23 -120 19 -19 33 -20 383 -20 410 0
407 0 407 69 0 26 -7 44 -21 57 -20 18 -43 19 -373 21 -193 1 -361 -2 -373 -7z"/>
<path d="M3843 2750 c-44 -18 -57 -86 -23 -120 18 -18 33 -20 129 -20 106 0
110 1 130 26 34 43 26 86 -20 109 -31 17 -179 20 -216 5z"/>
</g>
</svg>
