<?xml version="1.0" encoding="UTF-8" standalone="no"?>
<!-- Created with Inkscape (http://www.inkscape.org/) -->

<svg
   width="55.182209mm"
   height="55.182209mm"
   viewBox="0 0 55.182209 55.182209"
   version="1.1"
   id="svg5"
   xml:space="preserve"
   inkscape:version="1.2.2 (b0a8486541, 2022-12-01)"
   sodipodi:docname="check-green.svg"
   xmlns:inkscape="http://www.inkscape.org/namespaces/inkscape"
   xmlns:sodipodi="http://sodipodi.sourceforge.net/DTD/sodipodi-0.dtd"
   xmlns="http://www.w3.org/2000/svg"
   xmlns:svg="http://www.w3.org/2000/svg"><sodipodi:namedview
     id="namedview7"
     pagecolor="#ffffff"
     bordercolor="#000000"
     borderopacity="0.25"
     inkscape:showpageshadow="2"
     inkscape:pageopacity="0.0"
     inkscape:pagecheckerboard="0"
     inkscape:deskcolor="#d1d1d1"
     inkscape:document-units="mm"
     showgrid="false"
     inkscape:zoom="1.0645786"
     inkscape:cx="65.284046"
     inkscape:cy="91.115863"
     inkscape:window-width="2560"
     inkscape:window-height="1011"
     inkscape:window-x="0"
     inkscape:window-y="32"
     inkscape:window-maximized="1"
     inkscape:current-layer="layer1" /><defs
     id="defs2"><clipPath
       id="clip0_4826_8961"><rect
         width="20"
         height="20"
         fill="#ffffff"
         id="rect208"
         x="0"
         y="0" /></clipPath></defs><g
     inkscape:label="Layer 1"
     inkscape:groupmode="layer"
     id="layer1"
     transform="translate(-132.82603,-137.09535)"><g
       id="g345"><g
         style="fill:none"
         id="g191"
         transform="matrix(3.448888,0,0,3.448888,132.82603,137.09535)"><rect
           width="16"
           height="16"
           rx="2"
           fill="#04a26c"
           id="rect182"
           x="0"
           y="0" /></g><g
         style="fill:none"
         id="g202"
         transform="matrix(3.7308199,0,0,3.7308199,141.79218,149.73403)"><path
           d="M 3.70312,6.875 1.10938,4.28125 C 0.953125,4.125 0.953125,3.85938 1.10938,3.70312 l 0.5625,-0.5625 c 0.15624,-0.15624 0.40624,-0.15624 0.5625,0 L 4,4.89062 l 3.75,-3.75 c 0.15625,-0.156245 0.40625,-0.156245 0.5625,0 l 0.5625,0.5625 c 0.15625,0.15626 0.15625,0.42188 0,0.57813 L 4.28125,6.875 C 4.125,7.03125 3.85938,7.03125 3.70312,6.875 Z"
           fill="#ffffff"
           id="path193" /></g></g></g></svg>
