<svg xmlns="http://www.w3.org/2000/svg" width="62.634" height="59.893" viewBox="0 0 62.634 59.893"><defs><style>.a{fill:#3b86ff;}</style></defs><g transform="translate(-114 -269)"><path class="a" d="M57.363,36.088a2.53,2.53,0,0,0-2.53,2.53v2.548A24.886,24.886,0,0,1,29.947,66.039h-.015a24.886,24.886,0,0,1,.014-49.773h.015a24.731,24.731,0,0,1,10.115,2.154A2.53,2.53,0,0,0,42.135,13.8a29.757,29.757,0,0,0-12.171-2.592h-.018A29.947,29.947,0,0,0,29.929,71.1h.018A29.947,29.947,0,0,0,59.893,41.168v-2.55A2.53,2.53,0,0,0,57.363,36.088Z" transform="translate(114 257.794)"/><path class="a" d="M199.581,34.487a2.53,2.53,0,0,0-3.578,0L167.634,62.856,161.2,56.42A2.53,2.53,0,0,0,157.62,60l8.225,8.225a2.53,2.53,0,0,0,3.578,0l30.158-30.158A2.53,2.53,0,0,0,199.581,34.487Z" transform="translate(-23.688 238.011)"/></g></svg>