<?xml version="1.0" encoding="UTF-8" standalone="no"?>
<!-- Created with Inkscape (http://www.inkscape.org/) -->

<svg
   width="135.46666mm"
   height="135.46666mm"
   viewBox="0 0 135.46666 135.46666"
   version="1.1"
   id="svg5"
   inkscape:version="1.1.1 (3bf5ae0d25, 2021-09-20)"
   sodipodi:docname="credishop.svg"
   xmlns:inkscape="http://www.inkscape.org/namespaces/inkscape"
   xmlns:sodipodi="http://sodipodi.sourceforge.net/DTD/sodipodi-0.dtd"
   xmlns="http://www.w3.org/2000/svg"
   xmlns:svg="http://www.w3.org/2000/svg">
  <sodipodi:namedview
     id="namedview7"
     pagecolor="#ffffff"
     bordercolor="#666666"
     borderopacity="1.0"
     inkscape:pageshadow="2"
     inkscape:pageopacity="0.0"
     inkscape:pagecheckerboard="0"
     inkscape:document-units="mm"
     showgrid="false"
     inkscape:zoom="0.74118967"
     inkscape:cx="29.682011"
     inkscape:cy="382.49319"
     inkscape:window-width="2560"
     inkscape:window-height="1017"
     inkscape:window-x="-8"
     inkscape:window-y="-8"
     inkscape:window-maximized="1"
     inkscape:current-layer="layer1" />
  <defs
     id="defs2" />
  <g
     inkscape:label="Camada 1"
     inkscape:groupmode="layer"
     id="layer1"
     transform="translate(-97.187347,-47.568354)">
    <g
       id="g1082"
       transform="translate(56.401443,-1.0709134)">
      <path
         style="fill:#f8f7f9;stroke-width:0.264583"
         d="m 55.867153,135.14409 c 3.02804,-0.31757 15.826684,-1.00033 25.135416,-1.34087 10.753497,-0.3934 41.656261,-0.39285 52.387501,10e-4 9.53084,0.34973 22.14437,1.02019 25.10761,1.33458 1.1067,0.11741 -21.97892,0.21348 -51.30136,0.21348 -29.322449,0 -52.420573,-0.0936 -51.329167,-0.20812 z m -1.190625,-6.84892 c -2.28836,-0.55957 -4.276596,-2.29064 -4.857371,-4.22909 -0.429907,-1.4349 -0.373429,-4.2146 0.114742,-5.6473 0.539364,-1.58295 2.231925,-3.49213 3.800621,-4.28705 1.677539,-0.85007 4.261036,-1.2851 6.365966,-1.07194 1.93156,0.19561 3.704167,0.6035 3.704167,0.85235 0,0.0907 -0.196115,0.78714 -0.43581,1.54754 l -0.43581,1.38255 -0.878609,-0.36711 c -1.344646,-0.56183 -4.408743,-0.47532 -5.653317,0.15962 -2.688371,1.3715 -3.763527,5.51839 -1.980221,7.63773 1.163969,1.3833 4.046705,1.68013 6.58145,0.67769 0.452957,-0.17914 0.487026,-0.10996 0.33073,0.67152 -0.09584,0.47917 -0.174246,1.20367 -0.174246,1.60998 0,0.67325 -0.118461,0.76416 -1.33594,1.02526 -1.483086,0.31807 -3.927739,0.33624 -5.146352,0.0383 z m 58.472912,-0.0987 c -1.25873,-0.3156 -1.31981,-0.3719 -1.25884,-1.16034 0.1107,-1.43146 0.54525,-2.27473 1.06408,-2.06492 0.25264,0.10216 1.17688,0.31248 2.05387,0.46738 1.76988,0.31261 3.68231,-0.0947 4.17485,-0.88911 0.49651,-0.80087 -0.008,-1.75709 -1.19775,-2.27089 -3.40757,-1.47137 -4.4446,-2.47517 -4.43352,-4.29148 0.0129,-2.11681 1.31242,-3.77535 3.56606,-4.5513 1.24876,-0.42996 5.98975,-0.43957 7.06531,-0.0143 l 0.71531,0.28281 -0.48672,1.40029 c -0.322,0.92638 -0.60885,1.36194 -0.8476,1.28698 -0.19848,-0.0623 -1.32921,-0.16326 -2.51273,-0.22432 -2.43115,-0.12542 -3.27211,0.15941 -3.27211,1.10828 0,0.77716 0.32723,1.04638 2.58978,2.13068 1.00122,0.47982 2.06482,1.18314 2.36356,1.56292 1.69701,2.1574 0.45185,5.7772 -2.37702,6.91021 -1.44819,0.58002 -5.45477,0.75634 -7.20653,0.31712 z m 27.46755,-0.28076 c -0.93685,-0.4473 -1.60821,-1.01216 -2.11666,-1.78088 -0.68066,-1.02906 -0.74411,-1.33201 -0.73848,-3.52579 0.005,-2.0155 0.11509,-2.63313 0.68617,-3.8552 1.1681,-2.49973 2.88245,-3.78166 5.66235,-4.2341 3.19094,-0.51934 5.93725,0.56954 7.0063,2.7779 0.51229,1.05825 0.57711,1.53674 0.47728,3.52319 -0.24825,4.93956 -2.68107,7.42514 -7.48826,7.65066 -1.83062,0.0859 -2.30208,0.0108 -3.4887,-0.55578 z m 5.20849,-2.77366 c 1.56123,-1.14436 2.49856,-4.29708 1.85622,-6.24339 -0.42697,-1.29372 -1.31106,-1.83963 -2.68156,-1.65581 -2.07337,0.2781 -3.39236,2.30278 -3.40218,5.22243 -0.006,1.85395 0.39168,2.75038 1.41156,3.17996 0.75386,0.31753 2.00008,0.0948 2.81596,-0.50319 z m -83.598091,2.93835 c 0.0056,-0.10914 0.641367,-3.175 1.41275,-6.81302 l 1.402514,-6.61458 3.680479,0.0143 c 3.004476,0.0117 3.864856,0.10329 4.684321,0.4987 1.160807,0.5601 1.774283,1.57198 1.774283,2.92655 0,1.71187 -0.945738,2.79752 -2.973282,3.41315 -0.431771,0.1311 -0.429329,0.19249 0.04013,1.00906 0.274929,0.4782 0.695058,1.76242 0.933619,2.85383 0.238559,1.0914 0.496414,2.19273 0.573011,2.44739 0.12342,0.41035 -0.07288,0.46302 -1.72561,0.46302 -1.718222,0 -1.875311,-0.0468 -1.997614,-0.59531 -0.07301,-0.32742 -0.317556,-1.42429 -0.543441,-2.43749 -0.439312,-1.9705 -0.656212,-2.24848 -1.759371,-2.25481 -0.633147,-0.004 -0.735126,0.13192 -0.992186,1.31886 -0.157579,0.72761 -0.415436,1.91823 -0.573016,2.64584 l -0.286507,1.32291 H 64.04731 c -1.006588,0 -1.825553,-0.0893 -1.819923,-0.19843 z m 8.716912,-8.39681 c 0.638855,-0.57816 0.692762,-1.52634 0.114078,-2.00661 -0.230555,-0.19134 -0.964305,-0.35475 -1.630555,-0.36312 -1.312207,-0.0165 -1.305028,-0.0256 -1.743171,2.20034 l -0.175707,0.89265 1.451044,-0.12033 c 0.893704,-0.0741 1.655871,-0.3057 1.984311,-0.60293 z m 3.715631,8.26452 c 0.004,-0.1819 0.635154,-3.24776 1.402451,-6.81302 l 1.395087,-6.48229 4.815257,-0.0721 c 5.331278,-0.0798 4.98103,-0.20666 4.583631,1.65962 l -0.169018,0.79375 -3.022534,0.13229 c -3.356877,0.14692 -2.990104,-0.0786 -3.550383,2.18281 l -0.180268,0.7276 h 2.888043 2.888043 l -0.320103,1.25677 -0.320103,1.25678 -2.812447,0.0749 c -3.085182,0.0822 -2.899164,-0.0307 -3.254732,1.97558 l -0.175845,0.99218 h 3.095411 3.09541 l -0.186071,1.12448 c -0.102335,0.61847 -0.238889,1.21378 -0.303453,1.32292 -0.06456,0.10914 -2.313016,0.19844 -4.996563,0.19844 -3.730879,0 -4.877443,-0.0778 -4.871813,-0.33073 z m 11.198566,-0.11006 c 0.161007,-0.54559 2.816987,-13.03781 2.816987,-13.24951 0,-0.0747 1.661144,-0.0829 3.691429,-0.0181 3.452149,0.11017 3.790834,0.16865 5.22491,0.90206 2.060038,1.05354 2.841116,2.40578 2.818466,4.87945 -0.0314,3.42549 -1.349452,5.748 -4.001143,7.05013 -1.456052,0.71501 -1.697281,0.74792 -6.104903,0.83281 -4.348263,0.0837 -4.58144,0.0629 -4.445746,-0.39688 z m 8.331464,-2.8449 c 1.171546,-0.60583 2.142445,-2.18959 2.334046,-3.80737 0.302522,-2.55432 -0.806736,-3.75486 -3.46936,-3.75486 -1.02173,0 -1.213659,0.0859 -1.329713,0.59531 -0.577887,2.53646 -1.46195,6.93141 -1.46195,7.26781 0,0.34245 0.262181,0.38868 1.544598,0.2724 0.849529,-0.077 1.921599,-0.33502 2.382379,-0.57329 z m 6.951398,-2.99817 c 0.70963,-3.45612 1.35254,-6.55174 1.42868,-6.87916 0.12754,-0.54845 0.2863,-0.59532 2.01634,-0.59532 1.65608,0 1.86426,0.0547 1.76245,0.46302 -0.0635,0.25467 -0.70247,3.35021 -1.41993,6.87899 l -1.30446,6.41596 -1.88666,1.8e-4 -1.886655,1.9e-4 z m 22.60032,5.42396 c 0.0908,-0.47294 0.72132,-3.5388 1.40105,-6.81302 l 1.23588,-5.95312 1.78594,-0.0782 c 2.07223,-0.0908 2.04819,-0.14022 1.38906,2.85636 -0.55687,2.53169 -0.66335,2.38125 1.68536,2.38125 h 2.08225 l 0.31613,-1.65365 c 0.17387,-0.9095 0.43207,-2.10013 0.57378,-2.64583 l 0.25767,-0.99219 h 1.66549 c 0.91602,0 1.72627,0.0608 1.80055,0.13506 0.11076,0.11075 -1.93146,10.55011 -2.53183,12.94218 -0.16329,0.65059 -0.25389,0.6811 -2.02302,0.6811 -1.78522,0 -1.8471,-0.0215 -1.71395,-0.59532 0.37412,-1.61233 0.93028,-4.50941 0.93028,-4.84594 0,-0.29757 -0.45,-0.37958 -2.08285,-0.37958 h -2.08285 l -0.17892,1.12448 c -0.0984,0.61847 -0.36128,1.92815 -0.58418,2.91042 l -0.40529,1.78594 h -1.84286 -1.84287 z m 27.50849,0.26458 c 0.24851,-1.03386 2.7774,-12.96758 2.7774,-13.10644 0,-0.0729 1.53813,-0.0702 3.41808,0.006 2.94247,0.11934 3.57607,0.22587 4.55342,0.76562 1.40363,0.77517 1.96666,2.02123 1.70418,3.77156 -0.40144,2.67701 -2.75114,4.39607 -6.00876,4.39607 h -1.79444 l -0.25304,0.99218 c -0.13918,0.54571 -0.33125,1.40891 -0.42683,1.91823 -0.36067,1.9219 -0.27496,1.85209 -2.27382,1.85209 -1.77343,0 -1.83417,-0.0213 -1.69619,-0.59532 z m 7.78662,-7.20065 c 0.79421,-0.41071 1.20729,-1.42832 0.93195,-2.29586 -0.30709,-0.96754 -2.61861,-1.41811 -2.86089,-0.55765 -0.0717,0.25466 -0.20767,0.87974 -0.30216,1.38906 -0.0945,0.50932 -0.23046,1.1344 -0.30216,1.38906 -0.1069,0.37966 0.0419,0.46302 0.82664,0.46302 0.52635,0 1.29433,-0.17443 1.70662,-0.38763 z"
         id="path1088" />
      <path
         style="fill:#1a579d;stroke-width:0.264583"
         d="M 40.785904,116.3726 V 48.639267 h 67.733326 67.73333 V 116.3726 184.10593 H 108.51923 40.785904 Z m 117.276556,18.74891 c -1.34607,-0.12544 -3.54527,-0.31738 -4.88712,-0.42652 l -2.43972,-0.19844 7.92983,-2.88287 c 4.3614,-1.58559 8.13818,-3.06256 8.39284,-3.28216 0.25467,-0.2196 0.46302,-0.65777 0.46302,-0.9737 0,-0.44078 -8.85923,-25.06123 -10.35906,-28.788564 -0.6476,-1.609412 0.43373,-1.929855 -25.41198,7.530644 -20.00581,7.32287 -24.13539,8.91781 -24.36239,9.40932 -0.22629,0.48998 0.25736,2.04252 2.81026,9.02105 1.69598,4.63607 3.08359,8.49077 3.08359,8.56601 0,0.0752 -5.56617,0.21715 -12.36927,0.31535 -18.694528,0.26987 -38.30116,1.02382 -45.045307,1.73216 -1.091406,0.11463 22.006718,0.20783 51.329167,0.20711 31.57989,-7.9e-4 52.31584,-0.0943 50.86614,-0.22939 z m -98.23958,-6.86459 c 1.217479,-0.2611 1.33594,-0.35201 1.33594,-1.02526 0,-0.40631 0.07841,-1.13081 0.174246,-1.60998 0.156296,-0.78148 0.122227,-0.85066 -0.33073,-0.67152 -2.534745,1.00244 -5.417481,0.70561 -6.58145,-0.67769 -1.783306,-2.11934 -0.70815,-6.26623 1.980221,-7.63773 1.244574,-0.63494 4.308671,-0.72145 5.653317,-0.15962 l 0.878609,0.36711 0.43581,-1.38255 c 0.239695,-0.7604 0.43581,-1.45679 0.43581,-1.54754 0,-0.24885 -1.772607,-0.65674 -3.704167,-0.85235 -2.10493,-0.21316 -4.688427,0.22187 -6.365966,1.07194 -1.568696,0.79492 -3.261257,2.7041 -3.800621,4.28705 -0.488171,1.4327 -0.544649,4.2124 -0.114742,5.6473 0.580775,1.93845 2.569011,3.66952 4.857371,4.22909 1.218613,0.29799 3.663266,0.27982 5.146352,-0.0383 z m 6.341098,-1.30099 c 0.15758,-0.7276 0.415437,-1.91823 0.573016,-2.64583 0.25706,-1.18695 0.359039,-1.3225 0.992186,-1.31887 1.103159,0.006 1.320059,0.28432 1.759371,2.25482 0.225885,1.01319 0.470434,2.11006 0.543441,2.43748 0.122303,0.5485 0.279392,0.59532 1.997614,0.59532 1.652733,0 1.84903,-0.0527 1.72561,-0.46302 -0.0766,-0.25467 -0.334452,-1.35599 -0.573011,-2.4474 -0.238561,-1.09141 -0.65869,-2.37563 -0.933619,-2.85383 -0.469461,-0.81657 -0.471903,-0.87795 -0.04013,-1.00905 2.027544,-0.61563 2.973282,-1.70129 2.973282,-3.41316 0,-1.35456 -0.613476,-2.36645 -1.774283,-2.92655 -0.819465,-0.3954 -1.679845,-0.487 -4.684321,-0.4987 l -3.680479,-0.0143 -1.402514,6.61458 c -0.771383,3.63802 -1.40712,6.70388 -1.41275,6.81302 -0.0056,0.10914 0.813335,0.19844 1.819923,0.19844 h 1.830159 z m 1.520675,-7.44172 c 0.438143,-2.2259 0.430964,-2.21684 1.743171,-2.20034 1.376841,0.0173 2.049745,0.44378 2.049745,1.29908 0,0.93757 -0.906169,1.53995 -2.517579,1.67358 l -1.451044,0.12033 z m 16.843655,8.5662 c 0.06456,-0.10914 0.201118,-0.70445 0.303453,-1.32292 l 0.186071,-1.12448 h -3.09541 -3.095411 l 0.175845,-0.99218 c 0.355568,-2.00628 0.16955,-1.89337 3.254732,-1.97558 l 2.812447,-0.0749 0.320103,-1.25678 0.320103,-1.25677 h -2.888043 -2.888043 l 0.180268,-0.7276 c 0.560279,-2.26138 0.193506,-2.03589 3.550383,-2.18281 l 3.022534,-0.13229 0.169018,-0.79375 c 0.397399,-1.86628 0.747647,-1.73946 -4.583631,-1.65962 l -4.815257,0.0721 -1.395087,6.48229 c -0.767297,3.56526 -1.3984,6.63112 -1.402451,6.81302 -0.0056,0.25289 1.140934,0.33073 4.871813,0.33073 2.683547,0 4.931999,-0.0893 4.996563,-0.19844 z m 11.880839,-0.67828 c 2.651691,-1.30213 3.969783,-3.62464 4.001143,-7.05013 0.0226,-2.47367 -0.758428,-3.82591 -2.818466,-4.87945 -1.434076,-0.73341 -1.772761,-0.79189 -5.22491,-0.90206 -2.030285,-0.0648 -3.691429,-0.0567 -3.691429,0.0181 0,0.2117 -2.65598,12.70392 -2.816987,13.24951 -0.135694,0.45981 0.09748,0.48062 4.445746,0.39688 4.407622,-0.0849 4.648851,-0.1178 6.104903,-0.83281 z m -6.146162,-2.10808 c 0,-0.3364 0.884063,-4.73135 1.46195,-7.26781 0.116054,-0.50938 0.307983,-0.59531 1.329713,-0.59531 2.662624,0 3.771882,1.20054 3.46936,3.75486 -0.191601,1.61778 -1.1625,3.20154 -2.334046,3.80737 -0.46078,0.23827 -1.53285,0.49626 -2.382379,0.57329 -1.282417,0.11628 -1.544598,0.07 -1.544598,-0.2724 z m 14.665915,-3.43153 c 0.71746,-3.52878 1.35642,-6.62432 1.41993,-6.87899 0.10181,-0.40832 -0.10637,-0.46302 -1.76245,-0.46302 -1.73004,0 -1.8888,0.0469 -2.01634,0.59532 -0.0761,0.32742 -0.71905,3.42304 -1.42868,6.87916 l -1.290235,6.28386 1.886655,-1.9e-4 1.88666,-1.8e-4 z"
         id="path1086" />
      <path
         style="fill:#e00416;stroke-width:0.264583"
         d="m 145.69319,134.3461 c -6.19812,-0.36965 -19.33738,-0.77559 -25.10429,-0.77559 -3.10944,0 -6.00207,-0.0697 -6.42807,-0.15491 -0.75232,-0.15046 -0.86457,-0.40129 -3.90964,-8.73644 -2.59146,-7.09349 -3.08782,-8.68385 -2.86253,-9.17165 0.22596,-0.48925 4.39013,-2.09731 24.36161,-9.40761 25.84571,-9.460499 24.76438,-9.140056 25.41198,-7.530644 1.49983,3.727334 10.35906,28.347784 10.35906,28.788564 0,0.31593 -0.20835,0.75343 -0.46302,0.97221 -0.65709,0.56451 -16.51362,6.30687 -17.28593,6.26001 -0.35178,-0.0213 -2.1874,-0.13111 -4.07917,-0.24394 z m -25.33722,-6.46674 c 2.82887,-1.13301 4.07403,-4.75281 2.37702,-6.91021 -0.29874,-0.37978 -1.36234,-1.0831 -2.36356,-1.56292 -2.26255,-1.0843 -2.58978,-1.35352 -2.58978,-2.13068 0,-0.94887 0.84096,-1.2337 3.27211,-1.10828 1.18352,0.061 2.31425,0.16199 2.51273,0.22431 0.23875,0.075 0.5256,-0.36059 0.8476,-1.28698 l 0.48672,-1.40028 -0.71531,-0.28282 c -1.07556,-0.42525 -5.81655,-0.41564 -7.06531,0.0143 -2.25364,0.77596 -3.55316,2.4345 -3.56606,4.5513 -0.0111,1.81632 1.02595,2.82012 4.43352,4.29148 1.18992,0.5138 1.69426,1.47003 1.19775,2.27089 -0.49254,0.79444 -2.40497,1.20173 -4.17485,0.88912 -0.87699,-0.1549 -1.80123,-0.36523 -2.05387,-0.46739 -0.51883,-0.2098 -0.95338,0.63347 -1.06408,2.06493 -0.061,0.78844 1.1e-4,0.84474 1.25884,1.16034 1.75176,0.43921 5.75834,0.2629 7.20653,-0.31713 z m 27.05998,-0.0402 c 2.68521,-1.19913 3.99622,-3.40141 4.178,-7.01834 0.0998,-1.98645 0.035,-2.46494 -0.47728,-3.52319 -1.06905,-2.20836 -3.81536,-3.29724 -7.0063,-2.7779 -2.7799,0.45244 -4.49425,1.73437 -5.66235,4.2341 -0.57108,1.22207 -0.681,1.8397 -0.68617,3.8552 -0.006,2.19378 0.0578,2.49673 0.73848,3.52579 1.14652,1.73341 2.8983,2.46365 5.60536,2.33666 1.36439,-0.064 2.54088,-0.28874 3.31026,-0.63232 z m -4.40643,-2.19393 c -1.01988,-0.42958 -1.4178,-1.32601 -1.41156,-3.17996 0.01,-2.91965 1.32881,-4.94433 3.40218,-5.22243 2.05577,-0.27573 3.16347,1.28478 2.82649,3.98189 -0.38432,3.07598 -2.78309,5.27725 -4.81711,4.4205 z m -15.342,0.84766 c 0.2229,-0.98227 0.48578,-2.29195 0.58418,-2.91042 l 0.17892,-1.12448 h 2.08285 c 1.63285,0 2.08285,0.082 2.08285,0.37958 0,0.33653 -0.55616,3.23361 -0.93028,4.84594 -0.13315,0.57382 -0.0713,0.59532 1.71395,0.59532 1.76913,0 1.85973,-0.0305 2.02302,-0.6811 0.60037,-2.39207 2.64259,-12.83143 2.53183,-12.94218 -0.0743,-0.0743 -0.88453,-0.13506 -1.80055,-0.13506 h -1.66549 l -0.25767,0.99219 c -0.14171,0.5457 -0.39991,1.73633 -0.57378,2.64583 l -0.31613,1.65365 h -2.08225 c -2.34871,0 -2.24223,0.15044 -1.68536,-2.38125 0.65913,-2.99658 0.68317,-2.94714 -1.38906,-2.85636 l -1.78594,0.0782 -1.23588,5.95312 c -0.67973,3.27422 -1.31021,6.34008 -1.40105,6.81302 l -0.16518,0.8599 h 1.84287 1.84286 z m 27.24851,1.32292 c 0.0717,-0.25467 0.20857,-0.87974 0.30415,-1.38907 0.0956,-0.50932 0.28765,-1.37252 0.42683,-1.91823 l 0.25304,-0.99218 h 1.79444 c 3.25762,0 5.60732,-1.71906 6.00876,-4.39606 0.26248,-1.75034 -0.30055,-2.99639 -1.70418,-3.77156 -0.97735,-0.53975 -1.61095,-0.64628 -4.55342,-0.76562 -1.87995,-0.0763 -3.41808,-0.079 -3.41808,-0.006 0,0.13886 -2.52889,12.07258 -2.7774,13.10644 -0.13798,0.574 -0.0772,0.59532 1.69619,0.59532 1.52566,0 1.86153,-0.079 1.96967,-0.46302 z m 1.5875,-7.40834 c 0.0717,-0.25466 0.20767,-0.87974 0.30216,-1.38906 0.0945,-0.50932 0.23046,-1.1344 0.30216,-1.38906 0.24228,-0.86046 2.5538,-0.40989 2.86089,0.55765 0.46057,1.45115 -0.75114,2.68349 -2.63857,2.68349 -0.78472,0 -0.93354,-0.0834 -0.82664,-0.46302 z"
         id="path1084" />
    </g>
  </g>
</svg>
