<?xml version="1.0" encoding="UTF-8" standalone="no"?>
<!-- Created with Inkscape (http://www.inkscape.org/) -->

<svg
   width="44mm"
   height="44mm"
   viewBox="0 0 44 44"
   version="1.1"
   id="svg5"
   inkscape:version="1.1.1 (3bf5ae0d25, 2021-09-20)"
   sodipodi:docname="credpar.svg"
   xmlns:inkscape="http://www.inkscape.org/namespaces/inkscape"
   xmlns:sodipodi="http://sodipodi.sourceforge.net/DTD/sodipodi-0.dtd"
   xmlns="http://www.w3.org/2000/svg"
   xmlns:svg="http://www.w3.org/2000/svg">
  <sodipodi:namedview
     id="namedview7"
     pagecolor="#ffffff"
     bordercolor="#666666"
     borderopacity="1.0"
     inkscape:pageshadow="2"
     inkscape:pageopacity="0.0"
     inkscape:pagecheckerboard="0"
     inkscape:document-units="mm"
     showgrid="false"
     inkscape:zoom="2.096401"
     inkscape:cx="-56.286942"
     inkscape:cy="82.283877"
     inkscape:window-width="2560"
     inkscape:window-height="1017"
     inkscape:window-x="-8"
     inkscape:window-y="-8"
     inkscape:window-maximized="1"
     inkscape:current-layer="g854" />
  <defs
     id="defs2" />
  <g
     inkscape:label="Camada 1"
     inkscape:groupmode="layer"
     id="layer1"
     transform="translate(-53.11079,-84.702736)">
    <g
       id="g854"
       transform="translate(58.90024,-2.3203125)">
      <rect
         style="fill:#ef6b34;fill-opacity:1;stroke-width:0.264583"
         id="rect1541"
         width="44"
         height="44"
         x="-5.7894497"
         y="87.023048" />
      <rect
         style="fill:#ffffff;stroke-width:0.235729"
         id="rect1667"
         width="37.095284"
         height="15.31968"
         x="-2.3243783"
         y="100.88398" />
      <path
         style="fill:#ef6b34;stroke-width:0.0846667"
         d="m -1.3713412,114.16731 v -1.143 H 16.196991 33.765324 v 1.143 1.143 H 16.196991 -1.3713412 Z"
         id="path860"
         sodipodi:nodetypes="ccccccccc" />
      <path
         style="fill:#373435;stroke-width:0.0846667"
         d="M -1.4560083,106.84364 V 101.7213 H 16.154658 33.765324 v 5.12234 5.12233 H 16.154658 -1.4560083 Z m 6.0702839,2.56116 0.158318,-0.52916 -1.123988,-0.0465 c -1.248265,-0.0516 -1.517114,-0.1553 -1.650784,-0.63658 -0.09124,-0.32852 0.133547,-1.45721 0.416398,-2.09076 0.441797,-0.98958 0.987624,-1.24784 2.637266,-1.24784 h 0.91116 l 0.112733,-0.4445 c 0.062,-0.24447 0.132203,-0.49674 0.155999,-0.56059 0.03592,-0.0964 -0.192743,-0.10941 -1.34556,-0.0768 -1.746785,0.0494 -2.159744,0.18155 -2.887442,0.92391 -0.8491809,0.86628 -1.47533497,2.52237 -1.40751197,3.72267 0.03458,0.61192 0.169156,0.8843 0.59342407,1.20106 0.327076,0.2442 0.671852,0.29609 2.0301879,0.30557 l 1.241483,0.009 z m 1.523222,-0.33866 0.254853,-0.86784 0.644321,-0.0247 c 1.003313,-0.0384 1.118777,0.16388 0.852759,1.49397 l -0.05501,0.27504 0.535259,-0.0255 0.53526,-0.0255 0.110802,-0.635 c 0.124473,-0.71336 0.09151,-0.97566 -0.155936,-1.24083 l -0.170297,-0.1825 0.173558,-0.0551 c 0.263475,-0.0836 0.8145117,-0.7555 0.9266847,-1.1299 0.12425,-0.41471 0.127403,-0.82215 0.0081,-1.04509 -0.177392,-0.33147 -0.5740297,-0.4106 -2.0579917,-0.4106 h -1.392915 l -0.129494,0.40216 c -0.181339,0.56319 -1.238781,4.22208 -1.238781,4.28636 0,0.029 0.203397,0.0528 0.451993,0.0528 h 0.451993 z m 0.709803,-2.41273 c 0.08985,-0.31418 0.163358,-0.58088 0.163358,-0.59267 0,-0.0461 1.518011,-0.0184 1.644075,0.03 0.215774,0.0828 0.16797,0.57249 -0.08527,0.87344 -0.217418,0.25839 -0.225942,0.2605 -1.052358,0.2605 h -0.833164 z m 5.8255304,3.13084 c 0.04407,-0.0823 0.106802,-0.2919 0.139402,-0.46567 l 0.05927,-0.31594 h -0.859937 c -0.800132,0 -0.874391,-0.0145 -1.067756,-0.20782 -0.206257,-0.20626 -0.255148,-0.417 -0.156427,-0.67426 0.04346,-0.11324 0.233347,-0.13392 1.229763,-0.13392 1.305599,0 1.216942,0.0396 1.375062,-0.61384 l 0.05634,-0.23283 h -1.192652 -1.192652 l 0.05686,-0.1905 c 0.09543,-0.31976 0.289163,-0.5715 0.57299,-0.74456 0.22365,-0.13637 0.427946,-0.16503 1.178171,-0.16529 l 0.907605,-3.4e-4 0.117403,-0.40216 0.117403,-0.40217 -1.025008,-0.0242 c -1.216262,-0.0288 -1.558067,0.0696 -2.112152,0.60816 -1.1606737,1.12804 -1.5444474,3.26724 -0.686945,3.82909 0.288956,0.18934 0.727929,0.26193 1.665277,0.27539 0.62574,0.009 0.75003,-0.0121 0.817985,-0.13913 z m 3.630649,-0.0615 c 0.500688,-0.20333 1.053567,-0.8497 1.363401,-1.59396 0.275554,-0.6619 0.473615,-1.65194 0.390091,-1.94991 -0.248997,-0.8883 -0.46567,-0.98628 -2.181086,-0.98628 h -1.301519 l -0.677799,2.30716 c -0.37279,1.26895 -0.659443,2.34098 -0.637009,2.38229 0.02264,0.0417 0.628588,0.0555 1.362111,0.0311 0.975374,-0.0325 1.415705,-0.0824 1.68181,-0.19041 z m -1.533861,-1.96899 c 0.205437,-0.68685 0.396326,-1.3536 0.424197,-1.48166 0.04991,-0.2293 0.0605,-0.23284 0.698586,-0.23284 0.756268,0 0.991273,0.11909 1.070719,0.54257 0.06798,0.36238 -0.155696,1.24501 -0.437277,1.72549 -0.323908,0.5527 -0.618087,0.69458 -1.440966,0.69496 l -0.688781,3.4e-4 0.373522,-1.24883 z m 3.814106,2.07434 c 0.03762,-0.0582 0.164025,-0.42969 0.280906,-0.8255 l 0.212512,-0.71967 1.057591,-0.0423 c 0.906843,-0.0363 1.101557,-0.0697 1.366044,-0.23415 0.607075,-0.37751 1.00388,-1.10711 1.00388,-1.8458 0,-0.90449 -0.406701,-1.06913 -2.435398,-0.98591 l -1.038397,0.0426 -0.137853,0.47446 c -0.07582,0.26096 -0.377554,1.29179 -0.670522,2.29075 -0.292968,0.99895 -0.513882,1.84667 -0.490919,1.88383 0.06749,0.1092 0.777456,0.0773 0.852156,-0.0383 z m 0.787998,-2.4895 c -1.69e-4,-0.0394 0.0816,-0.34789 0.181667,-0.6855 l 0.181936,-0.61384 h 0.781632 c 0.588938,0 0.807427,0.0311 0.886263,0.12608 0.146018,0.17594 0.03942,0.66619 -0.207241,0.95309 -0.188635,0.21941 -0.248354,0.2349 -1.012225,0.26251 -0.44647,0.0161 -0.811885,-0.003 -0.812032,-0.0423 z m 3.210742,2.00266 0.356341,-0.508 h 0.789868 c 0.887298,0 0.89265,0.004 0.89265,0.64193 v 0.37407 h 0.559467 0.559466 l -0.06059,-0.8255 c -0.03333,-0.45402 -0.123162,-1.5113 -0.199633,-2.3495 l -0.139039,-1.524 -0.511745,-0.0247 -0.511745,-0.0247 -1.435588,2.13746 c -0.789574,1.1756 -1.506005,2.24402 -1.592069,2.37425 l -0.156481,0.23679 h 0.54638 0.54638 z m 1.334115,-2.16315 c 0.31593,-0.47474 0.502269,-0.68597 0.541483,-0.61383 0.03288,0.0605 0.07479,0.38621 0.09313,0.72382 l 0.03334,0.61383 h -0.574821 -0.574821 z m 3.106929,2.52299 c 0.02361,-0.0815 0.144,-0.48553 0.267531,-0.89786 l 0.224602,-0.74969 0.636363,0.0321 c 0.959737,0.0485 1.078162,0.26339 0.822535,1.49276 l -0.05812,0.2795 0.538999,-0.0255 0.538999,-0.0255 0.103153,-0.59267 c 0.119854,-0.68862 0.07912,-1.00325 -0.158563,-1.22469 -0.170176,-0.15854 -0.17002,-0.15917 0.07105,-0.28455 0.784779,-0.40819 1.230899,-1.6883 0.770765,-2.21166 -0.253946,-0.28884 -0.812385,-0.38543 -2.22835,-0.38543 -0.998534,0 -1.130827,0.0167 -1.170769,0.14817 -0.149712,0.49261 -1.321047,4.53879 -1.321047,4.56334 0,0.0164 0.206983,0.0298 0.459961,0.0298 0.365259,0 0.4688,-0.0305 0.50289,-0.14816 z m 0.752267,-2.58234 c 0.02195,-0.0582 0.10367,-0.32622 0.181608,-0.59559 l 0.141706,-0.48976 0.864616,0.0241 0.864618,0.0241 -0.0084,0.37437 c -0.0066,0.29599 -0.05637,0.41565 -0.237554,0.5715 -0.205351,0.17664 -0.313233,0.19713 -1.037843,0.19713 -0.611774,0 -0.798956,-0.0258 -0.768769,-0.10584 z m 4.503081,-1.26767 c 0.177391,-0.25326 0.165888,-0.45507 -0.03753,-0.65849 -0.469169,-0.46917 -1.15208,0.19952 -0.706544,0.69183 0.19572,0.21627 0.581347,0.19899 0.744077,-0.0333 z m -0.666485,-0.0295 c -0.07318,-0.0732 -0.133048,-0.2038 -0.133048,-0.29029 0,-0.18655 0.216484,-0.42333 0.387048,-0.42333 0.127497,0 0.459619,0.29229 0.459619,0.4045 0,0.0362 -0.05931,0.1505 -0.131801,0.254 -0.154261,0.22023 -0.393991,0.24295 -0.581818,0.0551 z m 0.304999,-0.14408 c 0.08844,0.0732 0.116057,0.0406 0.130044,-0.15361 0.01515,-0.21033 -0.01287,-0.2466 -0.1905,-0.2466 -0.178779,0 -0.208074,0.0389 -0.206961,0.27517 9.31e-4,0.19803 0.02286,0.24109 0.07821,0.15361 0.0571,-0.0902 0.105845,-0.0976 0.189203,-0.0286 z m -0.141714,-0.23087 c -0.02878,-0.0466 0.0093,-0.0847 0.08467,-0.0847 0.07535,0 0.113447,0.0381 0.08467,0.0847 -0.02878,0.0466 -0.06688,0.0847 -0.08467,0.0847 -0.01779,0 -0.05589,-0.0381 -0.08467,-0.0847 z"
         id="path856" />
    </g>
  </g>
</svg>
