<?xml version="1.0" encoding="UTF-8" standalone="no"?>
<!-- Created with Inkscape (http://www.inkscape.org/) -->

<svg
   width="124.35416mm"
   height="124.35416mm"
   viewBox="0 0 124.35416 124.35417"
   version="1.1"
   id="svg5"
   inkscape:version="1.1.1 (3bf5ae0d25, 2021-09-20)"
   sodipodi:docname="maes-de-goias.svg"
   xmlns:inkscape="http://www.inkscape.org/namespaces/inkscape"
   xmlns:sodipodi="http://sodipodi.sourceforge.net/DTD/sodipodi-0.dtd"
   xmlns="http://www.w3.org/2000/svg"
   xmlns:svg="http://www.w3.org/2000/svg">
  <sodipodi:namedview
     id="namedview7"
     pagecolor="#ffffff"
     bordercolor="#666666"
     borderopacity="1.0"
     inkscape:pageshadow="2"
     inkscape:pageopacity="0.0"
     inkscape:pagecheckerboard="0"
     inkscape:document-units="mm"
     showgrid="false"
     inkscape:zoom="0.74118967"
     inkscape:cx="40.475469"
     inkscape:cy="240.82904"
     inkscape:window-width="2560"
     inkscape:window-height="1017"
     inkscape:window-x="-8"
     inkscape:window-y="-8"
     inkscape:window-maximized="1"
     inkscape:current-layer="layer1" />
  <defs
     id="defs2" />
  <g
     inkscape:label="Camada 1"
     inkscape:groupmode="layer"
     id="layer1"
     transform="translate(-173.78085,-62.048884)">
    <g
       id="g872"
       transform="translate(168.13341,-1.0709135)">
      <path
         style="fill:#f7fdfa;stroke-width:0.264583"
         d="m 24.708468,144.22425 c -1.144719,-0.21733 -2.886049,-0.82692 -4.146916,-1.4517 -3.905215,-1.93511 -6.394296,-5.06003 -7.512275,-9.43128 -0.635184,-2.48355 -0.657195,-4.03693 -0.09263,-6.53695 1.26854,-5.61735 5.329909,-9.77669 10.922866,-11.18635 2.640706,-0.66556 7.49681,-0.42903 10.064709,0.49024 1.911183,0.68418 5.374817,2.77196 5.239723,3.15836 -0.0367,0.10496 -1.049705,1.37711 -2.251138,2.82701 l -2.184419,2.63618 -1.348782,-0.90766 c -2.658996,-1.78937 -6.203021,-2.18144 -8.611582,-0.95269 -1.474697,0.75234 -3.143557,2.71727 -3.680288,4.33322 -0.592321,1.78331 -0.420666,4.95022 0.348448,6.42862 0.646355,1.24243 2.198781,2.7819 3.505836,3.47658 1.253562,0.66624 5.490167,0.68909 6.945312,0.0375 l 0.992188,-0.44432 v -1.73329 -1.73329 H 30.121395 27.34327 v -2.91042 -2.91042 h 6.482291 6.482292 v 6.30388 c 0,7.3075 0.249978,6.64021 -3.175,8.47534 -3.779298,2.02497 -8.442623,2.78746 -12.424388,2.03149 z m 27.902512,0.11232 c -3.033681,-0.52967 -5.215374,-1.65964 -7.105213,-3.68003 -4.117901,-4.40237 -3.899175,-11.44915 0.484042,-15.59462 4.776433,-4.51735 12.724513,-4.53328 17.234508,-0.0345 4.196534,4.18606 4.548261,10.44253 0.850992,15.13748 -2.381686,3.02436 -7.457342,4.87133 -11.464329,4.17172 z m 3.525827,-5.64594 c 4.690943,-3.61942 6.509355,-6.90347 5.211836,-9.4126 -1.132123,-2.18929 -4.582943,-2.50123 -6.328783,-0.5721 l -0.500284,0.55281 -1.021207,-0.9226 c -0.889738,-0.80382 -1.197822,-0.9226 -2.393133,-0.9226 -1.62039,0 -2.906783,0.73978 -3.52013,2.02436 -1.17561,2.46217 0.243467,5.1035 4.761291,8.86218 1.018646,0.84748 1.950423,1.54268 2.070618,1.54488 0.120192,0.002 0.894099,-0.51725 1.719792,-1.15433 z m 27.420579,5.2352 c -2.638922,-0.93698 -4.213643,-3.26884 -4.180985,-6.19125 0.0333,-2.97943 1.30471,-4.97758 3.894954,-6.12132 1.734712,-0.76597 6.174251,-0.98785 8.306705,-0.41515 0.839099,0.22535 1.457415,0.27601 1.549535,0.12696 0.08431,-0.13641 -0.05255,-0.787 -0.304126,-1.44574 -0.367868,-0.96325 -0.671208,-1.2948 -1.549534,-1.69365 -1.442771,-0.65516 -3.768926,-0.64716 -6.385203,0.022 -1.138737,0.29124 -2.112232,0.48773 -2.16332,0.43664 -0.243036,-0.24303 -1.423774,-4.77453 -1.316739,-5.05346 0.06713,-0.17494 1.056516,-0.60678 2.198637,-0.95966 1.82477,-0.56379 2.573893,-0.64087 6.177626,-0.63561 3.619852,0.005 4.274251,0.0754 5.577245,0.59743 2.007997,0.80451 3.505718,2.15665 4.394877,3.96766 l 0.743502,1.51433 v 7.9375 7.9375 l -3.42511,0.038 c -1.883812,0.0209 -3.591496,-0.0258 -3.794855,-0.10387 -0.246642,-0.0946 -0.335216,-0.43764 -0.266038,-1.0302 0.05704,-0.48857 0.08005,-0.88831 0.05113,-0.88831 -0.02892,0 -0.666039,0.41283 -1.415828,0.9174 -0.74979,0.50457 -1.803551,1.03968 -2.341692,1.18915 -1.377492,0.38258 -4.48374,0.30353 -5.750781,-0.14635 z m 7.81505,-4.80488 c 1.056841,-0.52796 1.85106,-1.89241 1.851673,-3.18114 5.3e-4,-1.12726 -0.816967,-1.46252 -3.243529,-1.33017 -1.522256,0.083 -1.895811,0.20464 -2.507528,0.81636 -1.021201,1.0212 -1.01315,2.63843 0.01754,3.525 0.901033,0.77504 2.527996,0.84626 3.881837,0.16995 z m 17.727084,5.05836 c -2.01417,-0.38352 -6.87917,-2.49462 -6.87917,-2.98512 0,-0.26002 2.64907,-4.52023 2.81075,-4.52023 0.0757,0 0.63518,0.2872 1.24318,0.63823 1.52519,0.88057 4.4829,1.74302 5.97754,1.74302 1.513,0 2.22326,-0.4528 2.09835,-1.33774 -0.0814,-0.57674 -0.47735,-0.77601 -3.66315,-1.84357 -1.96453,-0.65831 -3.93154,-1.39139 -4.37112,-1.62907 -1.13175,-0.61193 -2.21992,-1.76486 -2.66014,-2.81843 -0.53746,-1.28634 -0.47433,-4.17004 0.11994,-5.47831 0.64875,-1.4282 2.66935,-3.16134 4.35266,-3.73342 1.8219,-0.61917 5.79056,-0.60987 8.11491,0.019 2.07969,0.5627 4.49791,1.67203 4.49791,2.06336 0,0.15657 -0.53572,1.26748 -1.1905,2.46869 l -1.19051,2.18401 -1.8977,-0.79733 c -1.93935,-0.81482 -4.39417,-1.2083 -5.61956,-0.90075 -0.50433,0.12658 -0.68506,0.34332 -0.68506,0.82156 0,0.78134 0.65336,1.16089 3.43959,1.99809 5.75999,1.73075 7.67291,3.47247 7.67291,6.98619 0,3.0859 -1.22079,5.09517 -3.8888,6.40051 -1.33729,0.65427 -1.81512,0.73701 -4.55725,0.78907 -1.68483,0.032 -3.36098,0.002 -3.72478,-0.0678 z m -39.621353,-0.27225 c -0.257022,-0.10371 -0.33073,-2.54618 -0.33073,-10.95931 v -10.82587 h 3.836459 3.836458 v 10.9802 10.98021 l -3.505729,-0.0209 c -1.928151,-0.0115 -3.654557,-0.0809 -3.836458,-0.15434 z m 26.656769,-21.64297 c 0,-0.0673 0.241991,-0.76914 0.537755,-1.55964 l 0.537758,-1.43729 h 1.84509 c 1.014801,0 1.889701,0.0768 1.944211,0.17059 0.0545,0.0938 -0.14074,0.79566 -0.43391,1.55965 l -0.53302,1.38906 h -1.948942 c -1.071917,0 -1.948942,-0.0551 -1.948942,-0.12237 z m -34.141331,-3.11878 c -2.82285,-1.42347 -2.82285,-5.32339 0,-6.74687 1.274122,-0.6425 3.423742,-0.79345 4.972766,-0.3492 0.743548,0.21325 0.85815,0.18183 0.85815,-0.23527 0,-1.51834 -2.118929,-2.2121 -4.665808,-1.52763 l -1.358514,0.36509 -0.407879,-1.46541 c -0.224332,-0.80598 -0.357507,-1.54692 -0.295944,-1.64653 0.244861,-0.39619 3.00809,-0.8738 5.008353,-0.86565 2.511415,0.0102 4.233617,0.65418 5.135002,1.92006 0.794239,1.11541 1.117245,3.45827 1.026085,7.44256 l -0.07567,3.30729 -2.182813,0.0768 c -2.045951,0.072 -2.182812,0.043 -2.182812,-0.46302 0,-0.29693 -0.02977,-0.53937 -0.06615,-0.53876 -0.03638,5.3e-4 -0.651872,0.29826 -1.367758,0.66146 -1.611979,0.81781 -2.867393,0.83638 -4.397012,0.065 z m 5.301749,-2.84427 c 0.637366,-0.63736 0.704895,-1.99262 0.110652,-2.22065 -0.876581,-0.33637 -2.232893,-0.15502 -2.756485,0.36857 -0.590833,0.59083 -0.661725,1.11002 -0.255275,1.86948 0.382968,0.71558 2.178899,0.70481 2.901108,-0.0174 z m 10.583333,3.03303 c -2.712262,-0.84217 -4.311152,-3.14456 -4.311152,-6.20803 0,-4.14858 3.04478,-6.95585 7.091372,-6.5382 3.388498,0.34972 5.454695,2.82778 5.533081,6.636 l 0.02109,1.02384 -3.704167,-0.0251 c -4.902697,-0.0333 -5.300334,0.1095 -3.980775,1.42905 0.852509,0.85251 2.909562,0.91561 3.920681,0.12027 0.369998,-0.29104 0.750226,-0.52917 0.844946,-0.52917 0.350483,0 2.257857,1.68723 2.257857,1.99726 0,0.50932 -1.792396,1.74073 -3.111675,2.13778 -1.499103,0.45116 -3.014318,0.43665 -4.561242,-0.0437 z m 3.032075,-7.14389 c 1.111623,-0.84788 1.786972,-2.16827 1.440317,-2.816 -0.412067,-0.76995 -1.118915,-1.01734 -1.843315,-0.64513 -0.527896,0.27123 -0.752559,0.26262 -1.240015,-0.0476 -0.522988,-0.33278 -0.675671,-0.32615 -1.25677,0.0546 -1.101204,0.72154 -0.756174,2.04163 0.919998,3.51994 0.845857,0.74601 0.918544,0.74359 1.979785,-0.0658 z m 9.587301,7.27661 c -1.467324,-0.36888 -3.623543,-1.33874 -3.623543,-1.62986 0,-0.29715 1.32012,-2.59422 1.49089,-2.59422 0.06473,0 0.618963,0.2559 1.23163,0.56866 0.705929,0.36038 1.646946,0.57843 2.569146,0.59532 1.285388,0.0235 1.455209,-0.0348 1.455209,-0.49996 0,-0.42775 -0.422193,-0.66233 -2.248959,-1.24957 -1.739709,-0.55926 -2.450404,-0.94075 -3.138588,-1.68477 -0.844788,-0.91332 -0.883806,-1.04232 -0.774094,-2.55908 0.103161,-1.4262 0.217033,-1.6903 1.063086,-2.46565 1.042722,-0.95558 2.398347,-1.43246 4.078496,-1.43472 1.187235,-0.002 4.473712,0.9161 4.722532,1.3187 0.13794,0.22319 -1.059492,2.91315 -1.296787,2.91315 -0.05442,0 -0.617958,-0.23551 -1.252315,-0.52335 -1.432663,-0.65009 -3.088838,-0.70571 -3.316896,-0.1114 -0.206383,0.53782 0.176274,0.77732 2.251446,1.40917 3.181852,0.96881 4.183951,2.11714 3.952205,4.52895 -0.137216,1.42804 -0.791996,2.37109 -2.129356,3.0668 -0.935027,0.48641 -3.723545,0.6813 -5.034102,0.35183 z m -49.54115,-0.32453 c -0.07044,-0.18358 -0.09647,-3.84475 -0.05784,-8.13594 l 0.07024,-7.80215 2.390293,-0.0753 2.390296,-0.0753 1.843037,3.05089 c 1.013672,1.67799 1.941433,3.01854 2.061695,2.97899 0.120261,-0.0395 1.02471,-1.37854 2.009888,-2.97556 l 1.791232,-2.90368 2.421884,-0.0761 2.421882,-0.0761 v 8.21201 8.21201 h -2.248958 -2.248958 l -0.0013,-4.69635 -0.0013,-4.69635 -2.049121,3.10308 c -1.127019,1.7067 -2.108814,3.10569 -2.181765,3.10886 -0.07295,0.003 -1.025453,-1.38002 -2.116666,-3.07376 l -1.984177,-3.07953 -0.07225,4.66703 -0.07225,4.66702 H 43.20391 c -1.461355,0 -2.158611,-0.10357 -2.24695,-0.33378 z m 60.438557,-0.958 c -0.94282,-0.94283 -1.0272,-1.1461 -1.0272,-2.47442 0,-1.86454 0.77291,-3.09366 2.27452,-3.61702 1.27433,-0.44415 2.16305,-0.26435 3.26134,0.65979 l 0.81414,0.68506 v -2.27248 c 0,-1.3386 0.10873,-2.27248 0.26458,-2.27248 0.16735,0 0.26459,1.89618 0.26459,5.15938 0,3.26319 -0.0972,5.15937 -0.26459,5.15937 -0.14552,0 -0.26723,-0.38695 -0.27047,-0.8599 -0.006,-0.85628 -0.008,-0.85752 -0.46302,-0.29555 -0.66064,0.81558 -1.46067,1.15545 -2.71983,1.15545 -0.93296,0 -1.26823,-0.16138 -2.13406,-1.0272 z m 3.74396,0.0967 c 2.70673,-1.39971 1.63496,-5.68406 -1.42192,-5.68406 -1.92812,0 -3.12572,1.85107 -2.55908,3.95543 0.48781,1.81159 2.2994,2.59822 3.981,1.72863 z m 5.8049,0.47964 c -0.92416,-0.63695 -1.26662,-1.12515 -1.58613,-2.2611 -0.59193,-2.10446 0.79223,-4.33918 2.85937,-4.61644 1.77562,-0.23816 3.17029,0.92903 3.6193,3.02894 l 0.18386,0.8599 h -2.91582 c -1.60371,0 -2.98725,0.11556 -3.07455,0.25681 -0.18729,0.30304 0.45386,1.62675 1.01248,2.09036 0.76225,0.63262 2.20065,0.66325 3.33678,0.0711 1.26719,-0.6605 1.53306,-0.1601 0.30147,0.56742 -0.98881,0.58411 -2.89144,0.58566 -3.73676,0.003 z m 4.23962,-3.8486 c -0.002,-0.65166 -1.07069,-2.06869 -1.75704,-2.32964 -1.38348,-0.526 -2.89255,0.39283 -3.39163,2.06506 -0.176,0.5897 -0.15258,0.59531 2.48599,0.59531 1.95507,0 2.6634,-0.088 2.66268,-0.33073 z m -53.114116,-9.38099 c -0.722141,-0.13909 -0.745104,-0.64851 -0.09386,-2.0824 0.702205,-1.54609 1.693289,-1.91183 3.682027,-1.35878 0.827783,0.23019 1.711679,0.49787 1.964211,0.59483 0.307215,0.11796 0.653182,-0.0415 1.045519,-0.48201 0.443981,-0.49845 0.717981,-0.60656 1.12835,-0.44522 0.29809,0.1172 0.745075,0.27654 0.993301,0.35411 0.418227,0.13068 0.421241,0.2293 0.04111,1.34493 -0.470278,1.38019 -1.433094,2.26126 -2.471063,2.26126 -0.394155,0 -1.402188,-0.23586 -2.240073,-0.52413 -1.502159,-0.51682 -2.528165,-0.40771 -2.528165,0.26886 0,0.25809 -0.435396,0.27771 -1.521354,0.0686 z"
         id="path876" />
      <path
         style="fill:#005b27;stroke-width:0.264583"
         d="M 5.6474409,125.29688 V 63.119797 H 67.824521 130.0016 v 62.177083 62.17708 H 67.824521 5.6474409 Z m 27.5166651,18.50919 c 2.071174,-0.57413 5.525021,-2.27808 6.548437,-3.23066 0.5852,-0.54469 0.595313,-0.6612 0.595313,-6.85799 v -6.30388 h -6.482292 -6.482291 v 2.91042 2.91042 h 2.778125 2.778125 v 1.73329 1.73329 l -0.992188,0.44432 c -1.455145,0.65164 -5.69175,0.62879 -6.945312,-0.0375 -1.307055,-0.69468 -2.859481,-2.23415 -3.505836,-3.47658 -0.769114,-1.4784 -0.940769,-4.64531 -0.348448,-6.42862 0.536731,-1.61595 2.205591,-3.58088 3.680288,-4.33322 2.408561,-1.22875 5.952586,-0.83668 8.611582,0.95269 l 1.348782,0.90766 2.184419,-2.63618 c 1.201433,-1.4499 2.214443,-2.72205 2.251138,-2.82701 0.135094,-0.3864 -3.32854,-2.47418 -5.239723,-3.15836 -1.612397,-0.57721 -2.552459,-0.72478 -5.169918,-0.81155 -5.32068,-0.17638 -8.622206,1.01663 -11.873802,4.2906 -2.118446,2.13302 -3.27278,4.2454 -3.943855,7.21706 -0.564568,2.50002 -0.542557,4.0534 0.09263,6.53695 1.117979,4.37125 3.60706,7.49617 7.512275,9.43128 3.804629,1.88526 8.222801,2.24759 12.602554,1.03352 z m 25.720428,-0.11481 c 5.447394,-1.86252 8.652316,-7.32379 7.510787,-12.79859 -1.016032,-4.87291 -4.697957,-8.29071 -9.783082,-9.08128 -8.129889,-1.26392 -15.277964,5.42629 -13.924927,13.03298 1.308634,7.35707 8.718062,11.40409 16.197222,8.84689 z m -6.538137,-5.39118 c -4.517824,-3.75868 -5.936901,-6.40001 -4.761291,-8.86218 0.613347,-1.28458 1.89974,-2.02436 3.52013,-2.02436 1.195311,0 1.503395,0.11878 2.393133,0.9226 l 1.021207,0.9226 0.500284,-0.55281 c 1.249305,-1.38047 3.473961,-1.70603 5.040784,-0.73768 2.580737,1.59499 2.164878,4.96524 -1.004732,8.14269 -1.511498,1.51524 -4.276217,3.74066 -4.638897,3.73402 -0.120195,-0.002 -1.051972,-0.6974 -2.070618,-1.54488 z m 36.961771,5.7721 c 0.538141,-0.14947 1.591902,-0.68458 2.341692,-1.18915 0.749789,-0.50457 1.386911,-0.9174 1.415828,-0.9174 0.02892,0 0.0059,0.39974 -0.05113,0.88831 -0.06918,0.59256 0.01939,0.93556 0.266038,1.0302 0.203359,0.078 1.911043,0.12478 3.794855,0.10387 l 3.425109,-0.038 v -7.9375 -7.9375 l -0.743501,-1.51434 c -0.889159,-1.81102 -2.38688,-3.16315 -4.394877,-3.96767 -1.302994,-0.52205 -1.957393,-0.59215 -5.577245,-0.59742 -3.603733,-0.005 -4.352856,0.0718 -6.177626,0.63561 -1.142121,0.35287 -2.131507,0.78472 -2.198637,0.95966 -0.107035,0.27892 1.073703,4.81042 1.316739,5.05346 0.05109,0.0511 1.024583,-0.1454 2.16332,-0.43664 2.616277,-0.66914 4.942432,-0.67714 6.385203,-0.022 0.878326,0.39885 1.181666,0.7304 1.549534,1.69365 0.251577,0.65874 0.388433,1.30932 0.304126,1.44573 -0.09212,0.14906 -0.710436,0.0984 -1.549535,-0.12695 -2.132454,-0.5727 -6.571993,-0.35082 -8.306705,0.41515 -2.590244,1.14373 -3.861657,3.14189 -3.894954,6.12132 -0.03266,2.92241 1.542063,5.25427 4.180985,6.19125 1.267042,0.44988 4.37329,0.52892 5.750782,0.14634 z M 87.490599,138.951 c -1.030697,-0.88657 -1.038748,-2.5038 -0.01754,-3.525 0.611716,-0.61172 0.985271,-0.73334 2.507527,-0.81636 2.426563,-0.13235 3.244064,0.20291 3.24353,1.33017 -2.28e-4,0.47654 -0.208587,1.28316 -0.463021,1.79248 -0.898173,1.79794 -3.813408,2.47204 -5.270489,1.21871 z m 29.890951,4.50703 c 2.66801,-1.30534 3.8888,-3.31461 3.8888,-6.4005 0,-3.51373 -1.91292,-5.25544 -7.67291,-6.9862 -2.78623,-0.8372 -3.43959,-1.21674 -3.43959,-1.99808 0,-0.47824 0.18073,-0.69499 0.68506,-0.82157 1.22539,-0.30755 3.68021,0.0859 5.61956,0.90076 l 1.8977,0.79733 1.19051,-2.18401 c 0.65478,-1.20121 1.1905,-2.31212 1.1905,-2.46869 0,-0.39134 -2.41822,-1.50066 -4.49791,-2.06337 -2.32435,-0.6289 -6.29301,-0.6382 -8.11491,-0.019 -1.68331,0.57207 -3.70391,2.30521 -4.35266,3.73342 -0.59427,1.30827 -0.6574,4.19196 -0.11994,5.4783 0.44022,1.05357 1.52839,2.20651 2.66014,2.81843 0.43958,0.23768 2.40659,0.97077 4.37112,1.62908 3.1858,1.06756 3.58174,1.26682 3.66315,1.84356 0.12491,0.88494 -0.58535,1.33774 -2.09835,1.33774 -1.49464,0 -4.45235,-0.86245 -5.97754,-1.74301 -0.608,-0.35104 -1.16743,-0.63824 -1.24318,-0.63824 -0.16168,0 -2.81075,4.26021 -2.81075,4.52023 0,0.27416 3.41805,1.98094 4.89479,2.44418 2.00546,0.6291 2.4031,0.6715 5.70916,0.60873 2.74213,-0.0521 3.21996,-0.13479 4.55725,-0.78907 z M 76.820354,133.10208 v -10.9802 h -3.836458 -3.836459 v 10.82587 c 0,8.41313 0.07371,10.8556 0.33073,10.95931 0.181901,0.0734 1.908307,0.14286 3.836458,0.15434 l 3.505729,0.0209 z M 100.56584,120.9974 c 0.29317,-0.76399 0.48843,-1.46583 0.43391,-1.55965 -0.0545,-0.0938 -0.92941,-0.17059 -1.944211,-0.17059 h -1.84509 l -0.537758,1.43729 c -0.295764,0.7905 -0.537755,1.49234 -0.537755,1.55964 0,0.0673 0.877025,0.12237 1.948942,0.12237 h 1.948942 z m -34.175223,-1.91712 c 0.715886,-0.3632 1.331378,-0.66085 1.367758,-0.66146 0.03638,-5.3e-4 0.06615,0.24183 0.06615,0.53876 0,0.50602 0.136861,0.53505 2.182812,0.46302 l 2.182813,-0.0768 0.07567,-3.30729 c 0.09116,-3.98429 -0.231846,-6.32715 -1.026085,-7.44256 -0.901385,-1.26588 -2.623587,-1.90984 -5.135002,-1.92006 -2.000263,-0.008 -4.763492,0.46946 -5.008353,0.86565 -0.06156,0.0996 0.07161,0.84055 0.295944,1.64653 l 0.407879,1.46541 1.358514,-0.36509 c 2.546879,-0.68447 4.665808,0.009 4.665808,1.52763 0,0.4171 -0.114602,0.44852 -0.85815,0.23527 -1.549024,-0.44425 -3.698644,-0.2933 -4.972766,0.3492 -2.82285,1.42348 -2.82285,5.3234 0,6.74687 1.529619,0.77135 2.785033,0.75278 4.397012,-0.065 z m -1.996371,-2.76184 c -0.40645,-0.75946 -0.335558,-1.27865 0.255275,-1.86948 0.523592,-0.52359 1.879904,-0.70494 2.756485,-0.36857 0.594243,0.22803 0.526714,1.58329 -0.110652,2.22065 -0.722209,0.72221 -2.51814,0.73298 -2.901108,0.0174 z m 18.045683,3.05931 c 1.319278,-0.39705 3.111674,-1.62846 3.111674,-2.13778 0,-0.31004 -1.907373,-1.99726 -2.257856,-1.99726 -0.09472,0 -0.474948,0.23813 -0.844947,0.52917 -1.011118,0.79534 -3.068171,0.73224 -3.92068,-0.12027 -1.319559,-1.31956 -0.921922,-1.4623 3.980775,-1.42905 l 3.704167,0.0251 -0.02109,-1.02384 c -0.03613,-1.75554 -0.357296,-2.88955 -1.162714,-4.10551 -1.937805,-2.92556 -6.479674,-3.47634 -9.232918,-1.11967 -2.991789,2.56086 -3.030712,7.71666 -0.07672,10.16354 1.741826,1.4428 4.379757,1.91995 6.720298,1.21555 z m -3.508952,-7.12172 c -1.676172,-1.47831 -2.021202,-2.7984 -0.919998,-3.51994 0.581099,-0.38075 0.733782,-0.38738 1.25677,-0.0546 0.487456,0.31018 0.712119,0.31879 1.240015,0.0476 0.7244,-0.37221 1.431248,-0.12482 1.843315,0.64513 0.346655,0.64773 -0.328694,1.96812 -1.440317,2.816 -1.061241,0.80944 -1.133928,0.81186 -1.979785,0.0658 z m 16.601188,6.85893 c 1.33736,-0.69571 1.99214,-1.63876 2.129356,-3.0668 0.231746,-2.41181 -0.770353,-3.56014 -3.952205,-4.52895 -2.075172,-0.63185 -2.457829,-0.87135 -2.251446,-1.40917 0.228058,-0.59431 1.884233,-0.53869 3.316896,0.1114 0.634357,0.28784 1.197898,0.52335 1.252315,0.52335 0.237295,0 1.434727,-2.68996 1.296787,-2.91315 -0.24882,-0.4026 -3.535297,-1.3203 -4.722532,-1.3187 -1.680149,0.002 -3.035774,0.47914 -4.078496,1.43472 -0.846053,0.77535 -0.959925,1.03945 -1.063086,2.46565 -0.109712,1.51676 -0.07069,1.64576 0.774094,2.55908 0.688184,0.74402 1.398879,1.12551 3.138588,1.68477 1.826766,0.58724 2.248959,0.82182 2.248959,1.24957 0,0.46515 -0.169821,0.5235 -1.455209,0.49996 -0.9222,-0.0169 -1.863217,-0.23494 -2.569146,-0.59532 -0.612667,-0.31276 -1.1669,-0.56866 -1.23163,-0.56866 -0.17077,0 -1.49089,2.29707 -1.49089,2.59422 0,0.29112 2.156219,1.26098 3.623543,1.62986 1.310557,0.32947 4.099075,0.13458 5.034102,-0.35183 z m -50.137184,-4.30594 0.07225,-4.66703 1.984026,3.07953 c 1.091213,1.69374 2.043713,3.07693 2.116667,3.07376 0.07295,-0.003 1.054745,-1.40216 2.181764,-3.10886 l 2.049121,-3.10308 0.0013,4.69635 0.0013,4.69635 h 2.248958 2.248959 v -8.21201 -8.21201 l -2.421882,0.0761 -2.421885,0.0761 -1.791232,2.90368 c -0.985178,1.59702 -1.889627,2.93603 -2.009888,2.97556 -0.120261,0.0396 -1.048023,-1.301 -2.061694,-2.97899 l -1.843037,-3.05089 -2.390296,0.0753 -2.390143,0.0753 -0.07024,7.80215 c -0.03863,4.29119 -0.01259,7.95236 0.05784,8.13594 0.08834,0.23021 0.785595,0.33378 2.24695,0.33378 h 2.118865 z m 59.819329,4.10689 c 0.31785,-0.16255 0.78363,-0.5495 1.03505,-0.8599 0.45522,-0.56197 0.45717,-0.56073 0.46302,0.29555 0.003,0.47295 0.12495,0.8599 0.27047,0.8599 0.16735,0 0.26459,-1.89618 0.26459,-5.15937 0,-3.2632 -0.0972,-5.15938 -0.26459,-5.15938 -0.15585,0 -0.26458,0.93388 -0.26458,2.27248 v 2.27248 l -0.81414,-0.68506 c -1.09829,-0.92414 -1.98701,-1.10394 -3.26134,-0.65979 -1.50161,0.52336 -2.27452,1.75248 -2.27452,3.61702 0,1.32832 0.0844,1.53159 1.0272,2.47442 0.86583,0.86582 1.2011,1.0272 2.13406,1.0272 0.60878,0 1.36692,-0.133 1.68478,-0.29555 z m -2.91437,-0.7517 c -1.58528,-0.96661 -1.73064,-3.43004 -0.29272,-4.96064 0.84604,-0.90057 2.58598,-0.84316 3.66488,0.12091 1.54047,1.37654 1.2551,4.03197 -0.53267,4.95646 -1.03749,0.53651 -1.82096,0.5043 -2.83949,-0.11673 z m 12.38115,0.59333 c 1.23159,-0.72752 0.96572,-1.22792 -0.30147,-0.56742 -1.13613,0.59218 -2.57453,0.56155 -3.33678,-0.0711 -0.55862,-0.46361 -1.19977,-1.78732 -1.01248,-2.09036 0.0873,-0.14125 1.47084,-0.25681 3.07455,-0.25681 h 2.91582 l -0.18386,-0.8599 c -0.62843,-2.939 -3.45897,-4.05626 -5.44818,-2.15048 -2.41668,2.31532 -0.89942,6.44996 2.3669,6.44996 0.63639,0 1.50287,-0.20426 1.9255,-0.45392 z m -4.64581,-4.11014 c 0.32765,-1.09784 0.89105,-1.73656 1.79488,-2.03485 1.18558,-0.39127 2.14131,-0.0183 2.8245,1.10221 0.8928,1.46433 0.80396,1.52795 -2.13339,1.52795 -2.63857,0 -2.66199,-0.006 -2.48599,-0.59531 z m -46.444092,-9.18496 c 0,-0.67657 1.026006,-0.78568 2.528165,-0.26886 0.837885,0.28827 1.845918,0.52413 2.240073,0.52413 1.037969,0 2.000785,-0.88107 2.471063,-2.26126 0.380135,-1.11563 0.377121,-1.21425 -0.04111,-1.34493 -0.248226,-0.0776 -0.695211,-0.23691 -0.993301,-0.35411 -0.410369,-0.16134 -0.684369,-0.0532 -1.12835,0.44522 -0.392337,0.44047 -0.738304,0.59997 -1.045519,0.48201 -0.252532,-0.097 -1.136428,-0.36464 -1.964211,-0.59483 -1.988738,-0.55305 -2.979822,-0.18731 -3.682027,1.35878 -0.651245,1.43389 -0.628282,1.94331 0.09386,2.0824 1.085958,0.20916 1.521354,0.18954 1.521354,-0.0686 z"
         id="path874" />
    </g>
  </g>
</svg>
