<svg width="34" height="34" viewBox="0 0 34 34" fill="none" xmlns="http://www.w3.org/2000/svg">
<path d="M34 8.03516V20.9844C34 22.638 32.6653 23.9727 31.0117 23.9727H6.97266C5.31907 23.9727 3.98438 22.638 3.98438 20.9844V8.03516L5.97656 6.04297H32.0078L34 8.03516Z" fill="#FEA832"/>
<path d="M34 8.03516V20.9844C34 22.638 32.6653 23.9727 31.0117 23.9727H18.9922V6.04297H32.0078L34 8.03516Z" fill="#FE9923"/>
<path d="M34 5.04688V8.03516H3.98438V5.04688C3.98438 3.39329 5.31907 2.05859 6.97266 2.05859H31.0117C32.6653 2.05859 34 3.39329 34 5.04688Z" fill="#994C0F"/>
<path d="M30.0156 13.0156V14.0117L28.0234 16.0039H1.99219L0 14.0117V13.0156C0 11.362 1.3347 10.0273 2.98828 10.0273H27.0273C28.6809 10.0273 30.0156 11.362 30.0156 13.0156Z" fill="#32D736"/>
<path d="M30.0156 13.0156V14.0117L28.0234 16.0039H15.0078V10.0273H27.0273C28.6809 10.0273 30.0156 11.362 30.0156 13.0156Z" fill="#10BB67"/>
<path d="M34 5.04688V8.03516H18.9922V2.05859H31.0117C32.6653 2.05859 34 3.39329 34 5.04688Z" fill="#713708"/>
<path d="M30.0156 14.0117V17.9961L28.0234 19.9883H1.99219L0 17.9961V14.0117H30.0156Z" fill="#0D70B2"/>
<path d="M30.0156 14.0117V17.9961L28.0234 19.9883H15.0078V14.0117H30.0156Z" fill="#095C92"/>
<path d="M30.0156 17.9961V28.9531C30.0156 30.6067 28.6809 31.9414 27.0273 31.9414H2.98828C1.3347 31.9414 0 30.6067 0 28.9531V17.9961H30.0156Z" fill="#32D736"/>
<path d="M30.0156 17.9961V28.9531C30.0156 30.6067 28.6809 31.9414 27.0273 31.9414H15.0078V17.9961H30.0156Z" fill="#10BB67"/>
<path d="M6.97266 27.957C5.32485 27.957 3.98438 26.6166 3.98438 24.9688C3.98438 23.3209 5.32485 21.9805 6.97266 21.9805C8.62046 21.9805 9.96094 23.3209 9.96094 24.9688C9.96094 26.6166 8.62046 27.957 6.97266 27.957Z" fill="#FD003A"/>
<path d="M10.957 27.957C9.30923 27.957 7.96875 26.6166 7.96875 24.9688C7.96875 23.3209 9.30923 21.9805 10.957 21.9805C12.6048 21.9805 13.9453 23.3209 13.9453 24.9688C13.9453 26.6166 12.6048 27.957 10.957 27.957Z" fill="#FEA832"/>
<path d="M25.0352 23.9727H17C16.4494 23.9727 16.0039 23.5271 16.0039 22.9766C16.0039 22.426 16.4494 21.9805 17 21.9805H25.0352C25.5857 21.9805 26.0312 22.426 26.0312 22.9766C26.0312 23.5271 25.5857 23.9727 25.0352 23.9727Z" fill="#0D70B2"/>
<path d="M25.0352 27.957H17C16.4494 27.957 16.0039 27.5115 16.0039 26.9609C16.0039 26.4104 16.4494 25.9648 17 25.9648H25.0352C25.5857 25.9648 26.0312 26.4104 26.0312 26.9609C26.0312 27.5115 25.5857 27.957 25.0352 27.957Z" fill="#0D70B2"/>
</svg>
