<?xml version="1.0" encoding="UTF-8" standalone="no"?>
<svg
   version="1.1"
   id="svg859"
   x="0"
   y="0"
   viewBox="0 0 165.60001 165.6"
   xml:space="preserve"
   sodipodi:docname="pix.svg"
   width="165.60001"
   height="165.60001"
   inkscape:version="1.1.1 (3bf5ae0d25, 2021-09-20)"
   xmlns:inkscape="http://www.inkscape.org/namespaces/inkscape"
   xmlns:sodipodi="http://sodipodi.sourceforge.net/DTD/sodipodi-0.dtd"
   xmlns="http://www.w3.org/2000/svg"
   xmlns:svg="http://www.w3.org/2000/svg"><defs
     id="defs37" /><sodipodi:namedview
     id="namedview35"
     pagecolor="#ffffff"
     bordercolor="#666666"
     borderopacity="1.0"
     inkscape:pageshadow="2"
     inkscape:pageopacity="0.0"
     inkscape:pagecheckerboard="0"
     showgrid="false"
     inkscape:zoom="2.37"
     inkscape:cx="250.63291"
     inkscape:cy="68.565401"
     inkscape:window-width="2560"
     inkscape:window-height="1017"
     inkscape:window-x="-8"
     inkscape:window-y="-8"
     inkscape:window-maximized="1"
     inkscape:current-layer="layer1" /><style
     id="style2">.st0{fill:none;stroke:#939598;stroke-width:2.9764;stroke-linecap:round;stroke-linejoin:round;stroke-miterlimit:10}.st1{fill:#32bcad}.st2{fill:#939598}</style><g
     id="layer1"
     transform="translate(-535.65,-40.95)"><path
       id="path2376"
       class="st1"
       d="m 664.8,167.6 c -6.5,0 -12.6,-2.5 -17.2,-7.1 l -24.8,-24.8 c -1.7,-1.7 -4.8,-1.7 -6.5,0 l -24.9,24.9 c -4.6,4.6 -10.7,7.1 -17.2,7.1 h -4.9 l 31.5,31.5 c 9.8,9.8 25.8,9.8 35.6,0 L 668,167.6 Z" /><path
       id="path2380"
       class="st1"
       d="m 574.1,79.8 c 6.5,0 12.6,2.5 17.2,7.1 l 24.9,24.9 c 1.8,1.8 4.7,1.8 6.5,0 L 647.6,87 c 4.6,-4.6 10.7,-7.1 17.2,-7.1 h 3 L 636.2,48.3 c -9.8,-9.8 -25.8,-9.8 -35.6,0 l -31.5,31.5 z" /><path
       id="path2384"
       class="st1"
       d="M 693.9,106 674.8,86.9 c -0.4,0.2 -0.9,0.3 -1.4,0.3 h -8.7 c -4.5,0 -8.9,1.8 -12,5 L 627.9,117 c -2.3,2.3 -5.4,3.5 -8.4,3.5 -3.1,0 -6.1,-1.2 -8.4,-3.5 L 586.2,92.1 c -3.2,-3.2 -7.6,-5 -12,-5 h -10.7 c -0.5,0 -0.9,-0.1 -1.3,-0.3 L 543,106 c -9.8,9.8 -9.8,25.8 0,35.6 l 19.1,19.1 c 0.4,-0.2 0.8,-0.3 1.3,-0.3 h 10.7 c 4.5,0 8.9,-1.8 12,-5 L 611,130.5 c 4.5,-4.5 12.4,-4.5 16.9,0 l 24.8,24.8 c 3.2,3.2 7.6,5 12,5 h 8.7 c 0.5,0 0.9,0.1 1.4,0.3 l 19.1,-19.1 c 9.8,-9.8 9.8,-25.7 0,-35.5" /></g></svg>
