<?xml version="1.0" encoding="UTF-8" standalone="no"?>
<svg
   id="Layer_1"
   data-name="Layer 1"
   viewBox="0 0 520 520"
   version="1.1"
   sodipodi:docname="banknotes.svg"
   width="520"
   height="520"
   inkscape:version="1.1.1 (3bf5ae0d25, 2021-09-20)"
   xmlns:inkscape="http://www.inkscape.org/namespaces/inkscape"
   xmlns:sodipodi="http://sodipodi.sourceforge.net/DTD/sodipodi-0.dtd"
   xmlns="http://www.w3.org/2000/svg"
   xmlns:svg="http://www.w3.org/2000/svg"
   xmlns:rdf="http://www.w3.org/1999/02/22-rdf-syntax-ns#"
   xmlns:cc="http://creativecommons.org/ns#"
   xmlns:dc="http://purl.org/dc/elements/1.1/">
  <defs
     id="defs11" />
  <sodipodi:namedview
     id="namedview9"
     pagecolor="#ffffff"
     bordercolor="#666666"
     borderopacity="1.0"
     inkscape:pageshadow="2"
     inkscape:pageopacity="0.0"
     inkscape:pagecheckerboard="0"
     showgrid="false"
     inkscape:zoom="0.83789063"
     inkscape:cx="226.75991"
     inkscape:cy="405.18415"
     inkscape:window-width="2560"
     inkscape:window-height="1017"
     inkscape:window-x="-8"
     inkscape:window-y="-8"
     inkscape:window-maximized="1"
     inkscape:current-layer="Layer_1" />
  <title
     id="title2">dollar</title>
  <rect
     style="fill:#2b77c1;fill-opacity:1;stroke-width:0.6;paint-order:markers stroke fill"
     id="rect951"
     width="520"
     height="520"
     x="0"
     y="0" />
  <path
     d="m 225.46347,320.81695 a 41.24,41.24 0 0 0 22.73,12.4 v -61.7 c -1,-0.39 -2.32,-0.84 -4,-1.33 -1.68,-0.49 -3.49,-0.93 -5.46,-1.33 q -10.93,-3 -21.55,-6.94 a 70.35,70.35 0 0 1 -19,-10.62 49,49 0 0 1 -13.43,-16.53 q -5,-9.9 -5,-24.66 0,-15 5.75,-26.57 a 59,59 0 0 1 15.2,-19.33 69.56,69.56 0 0 1 21.84,-12.1 98.45,98.45 0 0 1 25.65,-5.14 v -22.73 h 17.41 v 22.73 a 106.56,106.56 0 0 1 24.95,5.75 67.34,67.34 0 0 1 20.51,11.81 58.53,58.53 0 0 1 14.46,18.75 q 5.6,11.21 6.5,26.57 h -41.91 a 31.12,31.12 0 0 0 -7.39,-20.08 q -7.08,-8.25 -17.12,-8.27 v 52.25 q 3.54,0.88 7.23,1.77 c 2.47,0.59 5.06,1.29 7.83,2.08 q 21.84,5.9 33.65,14.61 11.81,8.71 17.41,18.18 a 47,47 0 0 1 6.64,18.9 156.72,156.72 0 0 1 1,16.82 q 0,6.49 -3.24,16.38 -3.24,9.89 -11.63,19.29 -8.41,9.44 -22.58,16.82 -14.17,7.38 -36.3,8.85 v 25.09 h -17.42 v -25.09 q -33.06,-2.36 -51.65,-20.36 -18.59,-18 -21.55,-52.83 h 41.62 q -0.3,16.82 8.85,26.56 z m 13,-137.83 a 25.63,25.63 0 0 0 -8.56,4.57 22.07,22.07 0 0 0 -6,7.67 24.4,24.4 0 0 0 -2.21,10.79 q 0,9.73 6.19,15 6.19,5.27 20.31,8.59 v -48.11 a 32.44,32.44 0 0 0 -9.74,1.49 z m 38.23,147.73 a 34.87,34.87 0 0 0 10.32,-5.47 29.06,29.06 0 0 0 7.53,-8.7 24.31,24.31 0 0 0 2.95,-12.25 q 0,-11.52 -7.22,-17.27 -7.22,-5.75 -24.65,-10.47 v 56.67 a 54,54 0 0 0 11.06,-2.52 z"
     fill="#ffffff"
     id="path6" />
  <metadata
     id="metadata828">
    <rdf:RDF>
      <cc:Work
         rdf:about="">
        <dc:title>dollar</dc:title>
      </cc:Work>
    </rdf:RDF>
  </metadata>
</svg>
