<?xml version="1.0" encoding="UTF-8" standalone="no"?>
<svg
   version="1.1"
   viewBox="0 0 500 500.00001"
   xml:space="preserve"
   id="svg46"
   sodipodi:docname="cofre.svg"
   width="500"
   height="500"
   inkscape:version="1.1.1 (3bf5ae0d25, 2021-09-20)"
   xmlns:inkscape="http://www.inkscape.org/namespaces/inkscape"
   xmlns:sodipodi="http://sodipodi.sourceforge.net/DTD/sodipodi-0.dtd"
   xmlns="http://www.w3.org/2000/svg"
   xmlns:svg="http://www.w3.org/2000/svg"><defs
     id="defs50" /><sodipodi:namedview
     id="namedview48"
     pagecolor="#ffffff"
     bordercolor="#666666"
     borderopacity="1.0"
     inkscape:pageshadow="2"
     inkscape:pageopacity="0.0"
     inkscape:pagecheckerboard="0"
     showgrid="false"
     inkscape:zoom="0.85798801"
     inkscape:cx="-41.958628"
     inkscape:cy="375.87938"
     inkscape:window-width="2560"
     inkscape:window-height="1017"
     inkscape:window-x="-8"
     inkscape:window-y="-8"
     inkscape:window-maximized="1"
     inkscape:current-layer="g42" /><g
     id="money-safe-box"><g
       id="g42"><rect
         style="fill:#ff9554;fill-opacity:1;stroke-width:0.6;paint-order:markers stroke fill"
         id="rect889"
         width="500"
         height="500"
         x="0"
         y="0" /><g
         id="_x32_"><path
           d="M 340.112,129.661 H 159.884 c -17.09,0 -31.072,13.981 -31.072,31.075 V 325.42 c 0,17.087 13.983,31.074 31.072,31.074 h 4.611 c 0.534,7.725 6.901,13.842 14.765,13.842 7.859,0 14.226,-6.117 14.752,-13.842 h 111.973 c 0.526,7.725 6.893,13.848 14.76,13.848 7.855,0 14.218,-6.124 14.752,-13.848 h 4.615 c 17.098,0 31.072,-13.987 31.072,-31.074 V 160.736 c 10e-4,-17.094 -13.973,-31.075 -31.072,-31.075 z m -0.017,97.418 v 51.26 c 0,4.186 -3.389,7.579 -7.585,7.579 -4.18,0 -7.577,-3.393 -7.577,-7.579 v -51.26 c -4.145,-2.549 -6.91,-7.118 -6.91,-12.344 0,-8.004 6.487,-14.5 14.496,-14.5 8.004,0 14.504,6.496 14.504,14.5 0,5.227 -2.778,9.795 -6.928,12.344 z"
           style="fill:#59616a"
           id="path4" /><path
           d="m 227.733,315.587 c -40.046,0 -72.503,-32.466 -72.503,-72.512 0,-40.042 32.457,-72.502 72.503,-72.502 40.042,0 72.499,32.459 72.499,72.502 0,40.046 -32.457,72.512 -72.499,72.512 z"
           style="fill:#a8b6c0"
           id="path6" /><g
           id="g28"><path
             d="m 228.421,198.458 c 1.718,0 3.107,-1.391 3.107,-3.1 v -15.891 c 0,-1.716 -1.389,-3.107 -3.107,-3.107 -1.718,0 -3.107,1.391 -3.107,3.107 v 15.891 c 0,1.709 1.389,3.1 3.107,3.1 z"
             style="fill:#f7f7f7"
             id="path8" /><path
             d="m 194.003,189.635 c -1.008,-1.389 -2.953,-1.693 -4.346,-0.682 -1.389,1.004 -1.697,2.949 -0.684,4.335 l 9.338,12.855 c 0.607,0.84 1.556,1.284 2.521,1.284 0.632,0 1.265,-0.19 1.82,-0.59 1.393,-1.01 1.697,-2.955 0.684,-4.342 z"
             style="fill:#f7f7f7"
             id="path10" /><path
             d="m 184.729,224.84 -15.107,-4.917 c -1.632,-0.521 -3.389,0.374 -3.919,1.996 -0.534,1.637 0.359,3.393 1.992,3.921 l 15.115,4.908 c 0.321,0.105 0.645,0.151 0.966,0.151 1.312,0 2.53,-0.833 2.949,-2.145 0.526,-1.63 -0.359,-3.388 -1.996,-3.914 z"
             style="fill:#f7f7f7"
             id="path12" /><path
             d="m 182.81,253.853 -15.115,4.912 c -1.624,0.53 -2.525,2.289 -1.992,3.915 0.428,1.308 1.641,2.15 2.953,2.15 0.325,0 0.645,-0.049 0.966,-0.152 l 15.107,-4.908 c 1.637,-0.53 2.521,-2.288 1.995,-3.917 -0.525,-1.635 -2.281,-2.532 -3.914,-2 z"
             style="fill:#f7f7f7"
             id="path14" /><path
             d="m 198.31,278.455 -9.338,12.857 c -1.013,1.387 -0.697,3.329 0.684,4.342 0.56,0.397 1.192,0.588 1.825,0.588 0.961,0 1.915,-0.44 2.521,-1.28 l 9.333,-12.848 c 1.013,-1.389 0.71,-3.342 -0.684,-4.344 -1.388,-1.012 -3.332,-0.702 -4.341,0.685 z"
             style="fill:#f7f7f7"
             id="path16" /><path
             d="m 228.421,286.143 c -1.714,0 -3.107,1.391 -3.107,3.107 v 15.891 c 0,1.716 1.393,3.1 3.107,3.1 1.718,0 3.111,-1.385 3.111,-3.1 l -0.004,-15.891 c 0,-1.716 -1.389,-3.107 -3.107,-3.107 z"
             style="fill:#f7f7f7"
             id="path18" /><path
             d="m 258.528,278.455 c -1.008,-1.387 -2.949,-1.697 -4.338,-0.686 -1.385,1.011 -1.701,2.949 -0.684,4.344 l 9.338,12.855 c 0.607,0.833 1.555,1.273 2.517,1.273 0.632,0 1.273,-0.19 1.82,-0.588 1.393,-1.015 1.701,-2.955 0.692,-4.342 z"
             style="fill:#f7f7f7"
             id="path20" /><path
             d="m 289.134,258.765 -15.103,-4.912 c -1.632,-0.532 -3.393,0.365 -3.919,1.993 -0.517,1.628 0.363,3.385 1.992,3.917 l 15.12,4.914 c 0.316,0.102 0.641,0.143 0.957,0.143 1.308,0 2.526,-0.833 2.949,-2.141 0.53,-1.634 -0.355,-3.39 -1.996,-3.914 z"
             style="fill:#f7f7f7"
             id="path22" /><path
             d="m 273.07,230.9 c 0.32,0 0.645,-0.047 0.961,-0.151 l 15.103,-4.908 c 1.641,-0.534 2.525,-2.284 1.995,-3.93 -0.529,-1.628 -2.273,-2.515 -3.906,-1.987 l -15.12,4.908 c -1.628,0.53 -2.509,2.289 -1.992,3.917 0.43,1.311 1.647,2.151 2.959,2.151 z"
             style="fill:#f7f7f7"
             id="path24" /><path
             d="m 256.011,207.421 c 0.961,0 1.906,-0.438 2.517,-1.278 l 9.338,-12.855 c 1.017,-1.387 0.701,-3.331 -0.692,-4.335 -1.389,-1.011 -3.321,-0.701 -4.329,0.686 l -9.338,12.857 c -1.009,1.387 -0.701,3.325 0.684,4.342 0.546,0.393 1.187,0.583 1.82,0.583 z"
             style="fill:#f7f7f7"
             id="path26" /></g><polygon
           points="259.13,199.627 257.857,224.502 235.297,206.881 "
           style="fill:#59616a"
           id="polygon30" /><linearGradient
           gradientUnits="userSpaceOnUse"
           id="SVGID_1_"
           x1="189.4046"
           x2="266.05341"
           y1="243.0769"
           y2="243.0769"><stop
             offset="0.5"
             style="stop-color:#FFFFFF"
             id="stop32" /><stop
             offset="0.5"
             style="stop-color:#EBEBEB"
             id="stop34" /></linearGradient><path
           d="m 227.733,204.757 c -21.166,0 -38.328,17.154 -38.328,38.318 0,21.169 17.162,38.322 38.328,38.322 21.162,0 38.32,-17.154 38.32,-38.322 0,-21.165 -17.158,-38.318 -38.32,-38.318 z"
           style="fill:url(#SVGID_1_)"
           id="path37" /><path
           d="m 340.095,227.079 v 51.26 c 0,4.186 -3.389,7.579 -7.585,7.579 -4.18,0 -7.577,-3.393 -7.577,-7.579 v -51.26 c -4.145,-2.549 -6.91,-7.118 -6.91,-12.344 0,-8.004 6.487,-14.5 14.496,-14.5 8.004,0 14.504,6.496 14.504,14.5 0,5.227 -2.778,9.795 -6.928,12.344 z"
           style="fill:#ffffff"
           id="path39" /></g></g></g><g
     id="Layer_1" /></svg>
