<?xml version="1.0" encoding="UTF-8" standalone="no"?>
<svg
   id="Layer_1"
   version="1.1"
   viewBox="0 0 546.71246 546.71246"
   xml:space="preserve"
   sodipodi:docname="coin.svg"
   width="546.71246"
   height="546.71246"
   inkscape:version="1.1.1 (3bf5ae0d25, 2021-09-20)"
   xmlns:inkscape="http://www.inkscape.org/namespaces/inkscape"
   xmlns:sodipodi="http://sodipodi.sourceforge.net/DTD/sodipodi-0.dtd"
   xmlns="http://www.w3.org/2000/svg"
   xmlns:svg="http://www.w3.org/2000/svg"><defs
     id="defs79" /><sodipodi:namedview
     id="namedview77"
     pagecolor="#ffffff"
     bordercolor="#666666"
     borderopacity="1.0"
     inkscape:pageshadow="2"
     inkscape:pageopacity="0.0"
     inkscape:pagecheckerboard="0"
     showgrid="false"
     inkscape:zoom="0.29623907"
     inkscape:cx="-216.04172"
     inkscape:cy="683.56952"
     inkscape:window-width="2560"
     inkscape:window-height="1017"
     inkscape:window-x="-8"
     inkscape:window-y="-8"
     inkscape:window-maximized="1"
     inkscape:current-layer="g74" /><style
     type="text/css"
     id="style2">
	.st0{fill:#62BEE7;}
	.st1{fill:#474E5E;}
	.st2{fill:#F3EEE4;}
	.st3{fill:#FFFFFF;}
	.st4{fill:#E8DCCA;}
	.st5{opacity:0.1;fill:#231F20;}
	.st6{fill:#506268;}
	.st7{fill:#EB5151;}
	.st8{fill:#C64444;}
	.st9{fill:#9CCB5B;}
	.st10{fill:#404A4C;}
	.st11{fill:#676767;}
	.st12{fill:#E0E1E5;}
	.st13{fill:#9D9EA0;}
	.st14{fill:#B3B4B7;}
	.st15{opacity:0.1;}
	.st16{fill:#231F20;}
	.st17{fill:#FACC20;}
	.st18{fill:#FDEF34;}
	.st19{fill:#F7A90B;}
	.st20{fill:#20B8EA;}
	.st21{fill:#00A8EA;}
	.st22{fill:#33D3F4;}
	.st23{opacity:0.25;fill:#FFFFFF;}
	.st24{fill:#CACBCE;}
	.st25{fill:#2E3545;}
	.st26{fill:#8DAF4A;}
	.st27{fill:#F9C2AF;}
	.st28{fill:#AFDDF4;}
	.st29{fill:#677177;}
	.st30{fill:#FFEDB3;}
	.st31{fill:#695652;}
	.st32{fill:#30A7BF;}
	.st33{fill:#4D5556;}
	.st34{opacity:0.35;}
	.st35{fill:#FFCB04;}
	.st36{fill:#99E9FA;}
	.st37{opacity:0.2;}
	.st38{opacity:3.000000e-02;}
	.st39{fill:#9ECA5B;}
	.st40{fill:#98BA56;}
	.st41{fill:#40EEFF;}
	.st42{fill:#FF6A52;}
	.st43{opacity:0.1;fill:#FFFFFF;}
	.st44{opacity:0.4;}
	.st45{fill:#57606D;}
	.st46{fill:#BACA5B;}
	.st47{opacity:0.25;}
	.st48{opacity:5.000000e-02;fill:#231F20;}
	.st49{opacity:0.2;fill:#FFFFFF;}
	.st50{opacity:0.3;}
	.st51{fill:#FFD82F;}
	.st52{fill:#F4C121;}
	.st53{fill:#EF9D0A;}
	.st54{fill:#F9E532;}
	.st55{fill:#F4C01E;}
	.st56{fill:#FFE14D;}
	.st57{fill:#B7C156;}
	.st58{fill:#DBA92C;}
	.st59{fill:#363D4D;}
	.st60{fill:#3F4656;}
	.st61{fill:#463E33;}
	.st62{fill:none;}
	.st63{opacity:4.000000e-02;}
	.st64{fill:#4DB6AC;}
	.st65{fill:#CADE49;}
	.st66{fill:#9FD343;}
	.st67{fill:#AAD643;}
	.st68{fill:#82C736;}
	.st69{opacity:0.3;fill:#FFFFFF;}
	.st70{fill:#FFD640;}
	.st71{opacity:0.5;}
	.st72{opacity:0.6;}
</style><g
     id="g74"
     transform="translate(241.0672,240.85623)"><rect
       style="fill:#474e5e;fill-opacity:1;stroke-width:0.6;paint-order:markers stroke fill"
       id="rect918"
       width="546.71246"
       height="546.71246"
       x="-241.0672"
       y="-240.85623" /><g
       id="g72"
       transform="matrix(8.410961,0,0,8.410961,-239.29269,-240.85624)"
       style="stroke-width:0.118893"><g
         id="g8"
         style="stroke-width:0.118893"><path
           class="st3"
           d="M 33,28.9 25.7,39 c -0.1,0.2 -0.4,0.3 -0.6,0.3 -0.2,0 -0.3,0 -0.4,-0.1 C 24.4,39 24.3,38.5 24.5,38.1 L 31.8,28 c 0.2,-0.3 0.7,-0.4 1.1,-0.2 0.3,0.3 0.3,0.8 0.1,1.1 z"
           id="path6"
           style="stroke-width:0.118893" /></g><g
         id="g12"
         style="stroke-width:0.118893"><path
           class="st3"
           d="m 42.8,14 c -0.1,0 -0.2,0 -0.3,-0.1 -0.2,-0.2 -0.2,-0.5 -0.1,-0.7 L 44,11.3 c 0.2,-0.2 0.5,-0.2 0.7,-0.1 0.2,0.2 0.2,0.5 0.1,0.7 l -1.6,1.9 C 43,13.9 42.9,14 42.8,14 Z"
           id="path10"
           style="stroke-width:0.118893" /></g><g
         id="g16"
         style="stroke-width:0.118893"><path
           class="st21"
           d="m 52.7,45.8 c -3.3,-5.2 -8.5,-8.7 -14.5,-9.7 0,0 0,-0.1 0,-0.1 -3.2,-5.4 -8.5,-9.1 -14.8,-10.3 0,0 -0.1,0 -0.1,0 -3.1,-5.3 -8.2,-9 -14.2,-10.2 9,-8.6 23.3,-9.9 34,-2.4 10.7,7.5 14.6,21.3 9.6,32.7 z"
           id="path14"
           style="stroke-width:0.118893" /></g><g
         id="g20"
         style="stroke-width:0.118893"><path
           class="st41"
           d="M 38.1,36 C 34.9,30.6 29.6,26.9 23.3,25.7 31,16.2 43.1,13 43.1,13 c 0,0 1.3,12.5 -5,23 z"
           id="path18"
           style="stroke-width:0.118893" /></g><g
         id="g24"
         style="stroke-width:0.118893"><path
           class="st19"
           d="m 26.3,55 v 0.4 H 12.6 v -4.6 h 9.5 c 0,0 0,0 0,0 0.7,1.9 2.3,3.5 4.2,4.2 z"
           id="path22"
           style="stroke-width:0.118893" /></g><g
         id="g28"
         style="stroke-width:0.118893"><path
           class="st19"
           d="M 26.3,41.6 V 42 c -2,0.7 -3.5,2.2 -4.2,4.2 h -9.5 v -4.6 z"
           id="path26"
           style="stroke-width:0.118893" /></g><g
         class="st15"
         id="g32"
         style="stroke-width:0.118893"><rect
           class="st16"
           height="0.40000001"
           width="13.7"
           x="12.6"
           y="41.599998"
           id="rect30"
           style="stroke-width:0.118893" /></g><g
         class="st15"
         id="g36"
         style="stroke-width:0.118893"><rect
           class="st16"
           height="0.40000001"
           width="13.7"
           x="12.6"
           y="50.799999"
           id="rect34"
           style="stroke-width:0.118893" /></g><g
         id="g40"
         style="stroke-width:0.118893"><path
           class="st17"
           d="m 21.7,48.5 c 0,0.8 0.1,1.6 0.4,2.3 0,0 0,0 0,0 h -6.5 v -4.6 h 6.5 c -0.2,0.7 -0.4,1.5 -0.4,2.3 z"
           id="path38"
           style="stroke-width:0.118893" /></g><g
         id="g44"
         style="stroke-width:0.118893"><rect
           class="st17"
           height="4.5999999"
           width="13.7"
           x="15.7"
           y="37.099998"
           id="rect42"
           style="stroke-width:0.118893" /></g><g
         class="st15"
         id="g48"
         style="stroke-width:0.118893"><rect
           class="st16"
           height="0.40000001"
           width="13.7"
           x="15.7"
           y="46.200001"
           id="rect46"
           style="stroke-width:0.118893" /></g><g
         id="g52"
         style="stroke-width:0.118893"><circle
           class="st18"
           cx="28.6"
           cy="48.5"
           r="7.3000002"
           id="circle50"
           style="stroke-width:0.118893" /></g><g
         id="g56"
         style="stroke-width:0.118893"><circle
           class="st17"
           cx="28.6"
           cy="48.5"
           r="5.5999999"
           id="circle54"
           style="stroke-width:0.118893" /></g><g
         class="st50"
         id="g60"
         style="stroke-width:0.118893"><path
           class="st16"
           d="m 30.7,49.3 c -0.1,-0.2 -0.4,-0.9 -1.8,-1.2 v -1.8 c 0.4,0.1 0.6,0.4 0.7,0.7 0.1,0.3 0.3,0.5 0.5,0.5 0.1,0 1.1,-0.3 0.1,-1.4 -0.1,-0.2 -0.4,-0.5 -1.4,-0.6 v -0.7 h -0.5 v 0.7 c -1.7,0.2 -1.8,1.3 -1.8,1.8 0,1.5 1.5,1.7 1.8,1.8 v 2 C 27.6,50.9 27.5,50.2 27.4,50 27.3,49.7 27,49.7 26.9,49.7 c -0.4,0 -0.6,0.4 -0.6,0.5 0,0.2 0.1,1 1.1,1.6 0.2,0.1 0.5,0.2 0.9,0.2 v 0.7 h 0.6 V 52 c 0.4,0 0.8,-0.1 1.1,-0.3 0.8,-0.5 1,-1.5 0.7,-2.4 z M 28.3,48 c -0.4,-0.2 -0.8,-0.3 -0.8,-0.8 0,-0.2 0.1,-0.6 0.8,-0.8 z m 0.6,3.1 v -1.9 c 0.9,0.3 0.9,0.7 0.9,0.9 0,0.3 -0.1,0.8 -0.9,1 z"
           id="path58"
           style="stroke-width:0.118893" /></g><g
         id="g64"
         style="stroke-width:0.118893"><path
           class="st58"
           d="m 30.7,49.1 c -0.1,-0.2 -0.4,-0.9 -1.8,-1.2 v -1.8 c 0.4,0.1 0.6,0.4 0.7,0.7 0.1,0.3 0.3,0.5 0.5,0.5 0.1,0 1.1,-0.3 0.1,-1.4 -0.1,-0.2 -0.4,-0.5 -1.4,-0.6 v -0.7 h -0.5 v 0.7 c -1.7,0.2 -1.8,1.3 -1.8,1.8 0,1.5 1.5,1.7 1.8,1.8 v 2 C 27.6,50.7 27.5,50 27.4,49.8 27.3,49.5 27,49.5 26.9,49.5 c -0.4,0 -0.6,0.4 -0.6,0.5 0,0.2 0.1,1 1.1,1.6 0.2,0.1 0.5,0.2 0.9,0.2 v 0.7 h 0.6 v -0.7 c 0.4,0 0.8,-0.1 1.1,-0.3 0.8,-0.5 1,-1.5 0.7,-2.4 z m -2.4,-1.3 c -0.4,-0.2 -0.8,-0.3 -0.8,-0.8 0,-0.2 0.1,-0.6 0.8,-0.8 z m 0.6,3.1 V 49 c 0.9,0.3 0.9,0.7 0.9,0.9 0,0.3 -0.1,0.8 -0.9,1 z"
           id="path62"
           style="stroke-width:0.118893" /></g><g
         class="st34"
         id="g70"
         style="stroke-width:0.118893"><path
           class="st3"
           d="m 30.9,41.5 -9.3,9.3 c -0.2,-0.5 -0.3,-1.1 -0.3,-1.6 l 8,-8 c 0.5,0 1.1,0.2 1.6,0.3 z"
           id="path66"
           style="stroke-width:0.118893" /><path
           class="st3"
           d="M 34.8,44.6 24.7,54.7 C 24,54.2 23.3,53.7 22.8,53 L 33.1,42.7 c 0.7,0.5 1.3,1.2 1.7,1.9 z"
           id="path68"
           style="stroke-width:0.118893" /></g></g></g></svg>
