<?xml version="1.0" encoding="UTF-8" standalone="no"?>
<!-- Generator: Adobe Illustrator 19.0.0, SVG Export Plug-In . SVG Version: 6.00 Build 0)  -->

<svg
   version="1.1"
   id="Layer_1"
   x="0px"
   y="0px"
   viewBox="0 0 516 516"
   xml:space="preserve"
   sodipodi:docname="default-carteira.svg"
   width="516"
   height="516"
   inkscape:version="1.1.1 (3bf5ae0d25, 2021-09-20)"
   xmlns:inkscape="http://www.inkscape.org/namespaces/inkscape"
   xmlns:sodipodi="http://sodipodi.sourceforge.net/DTD/sodipodi-0.dtd"
   xmlns="http://www.w3.org/2000/svg"
   xmlns:svg="http://www.w3.org/2000/svg"><defs
   id="defs57" /><sodipodi:namedview
   id="namedview55"
   pagecolor="#ffffff"
   bordercolor="#666666"
   borderopacity="1.0"
   inkscape:pageshadow="2"
   inkscape:pageopacity="0.0"
   inkscape:pagecheckerboard="0"
   showgrid="false"
   inkscape:zoom="0.70710678"
   inkscape:cx="154.14928"
   inkscape:cy="152.02796"
   inkscape:window-width="2560"
   inkscape:window-height="1017"
   inkscape:window-x="-8"
   inkscape:window-y="-8"
   inkscape:window-maximized="1"
   inkscape:current-layer="Layer_1" />

<rect
   style="fill:#0575a5;fill-opacity:1;stroke-width:0.6;paint-order:markers stroke fill"
   id="rect896"
   width="516"
   height="516"
   x="0"
   y="0" /><path
   style="fill:#025e90"
   d="m 512.24221,280.161 -167.174,-167.155 c -0.182,-0.22 -0.399,-0.438 -0.625,-0.655 -0.069,-0.069 -0.141,-0.143 -0.218,-0.22 -1.72,-1.608 -3.878,-2.412 -6.103,-2.412 h -96.404 -65.024 c -2.268,0 -4.608,0.878 -6.326,2.634 -0.73,0.712 -1.265,1.536 -1.69,2.404 l -0.031,-0.028 c -0.036,0.079 -0.051,0.161 -0.084,0.243 -0.174,0.381 -0.31,0.783 -0.428,1.183 -0.064,0.218 -0.148,0.435 -0.197,0.653 -0.125,0.612 -0.205,1.224 -0.205,1.833 0,2.34 0.878,4.611 2.634,6.367 l 8.12,8.113 v 0.806 c 0,2.724 0.067,5.366 0.169,7.954 0.028,0.804 0.077,1.585 0.123,2.378 0.095,1.802 0.215,3.574 0.364,5.32 0.069,0.842 0.148,1.684 0.228,2.522 0.179,1.787 0.397,3.533 0.64,5.256 0.087,0.643 0.164,1.3 0.261,1.93 0.348,2.276 0.748,4.503 1.211,6.676 0.118,0.573 0.264,1.114 0.392,1.679 0.366,1.62 0.758,3.22 1.188,4.787 0.21,0.773 0.435,1.531 0.66,2.289 0.415,1.377 0.85,2.732 1.313,4.065 0.248,0.732 0.494,1.457 0.758,2.173 0.604,1.613 1.242,3.197 1.917,4.754 0.161,0.376 0.302,0.758 0.471,1.132 0.835,1.871 1.741,3.697 2.696,5.507 0.338,0.643 0.701,1.277 1.062,1.915 0.678,1.221 1.377,2.437 2.115,3.638 0.417,0.678 0.842,1.354 1.277,2.03 0.788,1.226 1.615,2.435 2.465,3.638 0.399,0.558 0.778,1.124 1.185,1.679 1.257,1.713 2.57,3.41 3.96,5.089 0.294,0.353 0.614,0.709 0.911,1.065 1.157,1.37 2.35,2.734 3.592,4.088 0.507,0.55 1.029,1.098 1.549,1.646 0.563,0.594 1.096,1.193 1.672,1.784 l 37.988,38.024 c -0.632,7.127 -8.323,10.906 -15.864,16.755 -38.612,29.955 -54.303,56.256 -54.303,104.42 v 6.287 h -1.795 c -2.268,0 -4.608,0.842 -6.326,2.598 -1.756,1.756 -2.634,4.017 -2.634,6.362 0,2.227 0.878,4.572 2.634,6.328 l 111.14,111.142 c 122.13,-11.407 219.303,-108.566 230.736,-230.676 z"
   id="path4" />
<path
   style="fill:#ffffff"
   d="m 282.02821,238.303 c 38.62,-29.921 54.29,-56.266 54.29,-104.361 v -6.3 h -157.813 v 6.3 c 0,48.095 15.667,74.44 54.29,104.361 7.846,6.159 15.974,9.961 15.974,17.741 0,7.739 -8.125,11.543 -15.974,17.654 -38.62,29.975 -54.29,56.269 -54.29,104.412 v 6.295 h 157.814 v -6.295 c 0,-48.143 -15.67,-74.437 -54.29,-104.412 -7.844,-6.111 -15.969,-9.915 -15.969,-17.654 -10e-4,-7.778 8.125,-11.582 15.968,-17.741 z"
   id="path6" />
<g
   id="g14"
   transform="translate(1.4142135)">
	<path
   style="fill:#34495e"
   d="m 189.169,133.921 c 0,1.395 0.479,2.729 1.546,3.799 1.047,1.068 2.417,1.58 3.796,1.58 h 122.962 c 1.357,0 2.721,-0.512 3.781,-1.58 1.016,-1.07 1.579,-2.404 1.579,-3.799 v -6.28 H 189.169 Z"
   id="path8" />
	<path
   style="fill:#34495e"
   d="m 175.296,127.642 h 161.408 c 2.296,0 4.588,-0.881 6.315,-2.634 1.789,-1.766 2.647,-4.032 2.647,-6.359 0,-2.266 -0.858,-4.577 -2.647,-6.292 -1.728,-1.764 -4.017,-2.642 -6.315,-2.642 H 175.296 c -2.278,0 -4.603,0.878 -6.331,2.642 -1.748,1.715 -2.634,4.027 -2.634,6.292 0,2.327 0.886,4.593 2.634,6.359 1.726,1.753 4.05,2.634 6.331,2.634 z"
   id="path10" />
	<path
   style="fill:#34495e"
   d="M 336.701,384.404 H 175.293 c -2.278,0 -4.603,0.835 -6.331,2.598 -1.748,1.756 -2.634,4.024 -2.634,6.349 0,2.26 0.886,4.577 2.634,6.341 1.728,1.715 4.052,2.593 6.331,2.593 h 161.408 c 2.296,0 4.588,-0.878 6.315,-2.593 1.789,-1.761 2.647,-4.081 2.647,-6.341 0,-2.324 -0.858,-4.595 -2.647,-6.349 -1.727,-1.763 -4.016,-2.598 -6.315,-2.598 z"
   id="path12" />
</g>
<rect
   x="190.58322"
   y="127.642"
   style="fill:#1a1b1c"
   width="133.658"
   height="6.2800002"
   id="rect16" />
<path
   style="fill:#cee2f2"
   d="m 282.02821,238.303 c 38.62,-29.921 54.29,-56.266 54.29,-104.361 v -6.3 h -157.813 v 6.3 c 0,48.095 15.667,74.44 54.29,104.361 7.846,6.159 15.974,9.961 15.974,17.741 0,7.739 -8.125,11.543 -15.974,17.654 -38.62,29.975 -54.29,56.269 -54.29,104.412 v 6.295 h 157.814 v -6.295 c 0,-48.143 -15.67,-74.437 -54.29,-104.412 -7.844,-6.111 -15.969,-9.915 -15.969,-17.654 -10e-4,-7.778 8.125,-11.582 15.968,-17.741 z m -22.218,17.741 c 0,9.83 8.63,15.252 15.506,20.393 0.906,0.694 1.882,1.434 2.916,2.26 38.042,30.075 46.024,56.694 46.024,99.412 h -133.678 c 0,-42.721 7.977,-69.338 46.019,-99.412 1.037,-0.827 2.004,-1.564 2.911,-2.26 6.881,-5.143 15.519,-10.563 15.519,-20.393 0,-9.864 -8.635,-15.286 -15.519,-20.426 -0.906,-0.694 -1.874,-1.482 -2.911,-2.222 -38.042,-30.164 -46.019,-56.689 -46.019,-99.451 h 133.678 c 0,42.765 -7.979,69.286 -46.024,99.451 -1.032,0.742 -2.01,1.528 -2.916,2.222 -6.876,5.14 -15.506,10.562 -15.506,20.426 z"
   id="path18" />
<rect
   x="190.58322"
   y="127.642"
   style="fill:#b8d1e6"
   width="133.658"
   height="6.2800002"
   id="rect20" />
<path
   style="fill:#ff9d4d"
   d="m 323.41621,358.426 c -24.054,-0.374 -43.656,-3.948 -61.929,-10.616 0.512,-0.438 1.257,-0.837 2.099,-1.047 0,0 7.818,-2.03 11.159,-5.294 3.343,-3.279 5.015,-7.306 5.015,-12.088 0,-4.27 -1.321,-7.759 -3.976,-10.506 -0.512,-0.517 -1.257,-0.975 -1.756,-1.644 -1.912,-2.57 -1.579,-13.893 0.202,-14.861 0.169,-0.092 0.822,-0.282 0.822,-0.282 1.556,-0.174 2.388,-1.523 1.848,-2.99 0,0 -1.638,-4.439 -4.511,-6.799 -2.857,-2.368 -8.781,-3.681 -8.781,-3.681 -1.539,-0.346 -2.793,-1.503 -2.793,-2.57 0,-1.06 -0.886,-1.925 -1.72,-2.34 -1.331,-0.653 -1.216,-14.999 -0.064,-25.713 0.399,-3.715 1.272,-6.907 2.245,-8.625 2.76,-5.908 8.886,-9.905 14.031,-13.752 0.906,-0.694 1.882,-1.49 2.908,-2.214 13.161,-10.452 22.733,-20.444 29.609,-30.843 -15.782,2.307 -32.758,3.564 -50.422,3.564 -17.669,0 -34.632,-1.257 -50.422,-3.564 6.881,10.399 16.445,20.39 29.609,30.843 1.024,0.727 2.01,1.521 2.908,2.214 5.148,3.845 11.279,7.841 14.031,13.752 0.975,1.718 1.833,4.91 2.248,8.625 1.152,10.263 1.446,25.277 -0.108,25.969 -1.034,0.463 -1.495,1.651 -1.495,2.084 0,1.068 -1.254,2.232 -2.788,2.586 0,0 -6.659,1.518 -9.818,4.452 -3.146,2.941 -4.726,6.579 -4.726,10.913 0,4.265 1.39,7.895 4.186,10.895 2.78,2.99 10.46,5.737 10.46,5.737 1.475,0.532 2.685,2.248 2.685,3.82 v 10.865 c 0,1.564 -1.119,2.22 -2.483,1.446 0,0 -0.658,-0.374 -2.007,-1.905 -1.336,-1.523 -1.787,-2.788 -1.787,-2.788 -0.525,-1.482 -2.235,-2.57 -3.789,-2.422 l -6.267,0.589 c -1.556,0.148 -2.435,1.482 -1.948,2.97 0,0 1.987,6.021 5.056,9.011 0.719,2.888 0.896,6.561 0.12,9.533 -14.833,4.142 -30.892,6.39 -49.672,6.676 -0.532,6.216 -0.832,12.677 -0.832,19.684 h 133.678 c 0.012,-7.007 -0.298,-13.469 -0.825,-19.684 z m -62.595,-58.827 c 0,-1.579 1.065,-2.135 2.373,-1.265 l 1.874,2.171 c 0.689,1.426 2.514,2.429 4.081,2.255 l 0.612,-0.069 c 1.748,2.527 2.253,12.022 1.833,13.548 -3.709,-1.805 -8.051,-3.159 -8.051,-3.159 -1.495,-0.479 -2.721,-2.15 -2.721,-3.715 z m 0,26.56 c 0,-1.572 1.213,-2.429 2.696,-1.91 0,0 2.022,0.724 3.231,1.994 1.203,1.285 1.805,2.811 1.805,4.572 0,1.974 -0.714,3.699 -2.148,5.156 -1.434,1.459 -2.859,1.902 -2.859,1.902 -1.495,0.466 -2.721,-0.428 -2.721,-1.999 v -9.715 z m -9.2,-17.106 c 0,0 -0.899,-0.435 -1.874,-1.651 -0.97,-1.188 -1.467,-2.488 -1.467,-3.886 0,-1.531 0.535,-2.934 1.615,-4.193 1.06,-1.262 1.684,-1.551 1.684,-1.551 1.431,-0.63 2.606,0.136 2.606,1.7 v 7.985 c 10e-4,1.576 -1.151,2.283 -2.564,1.596 z m -7.872,35.121 c 3.412,1.828 7.654,2.829 7.654,2.829 0.737,0.177 1.403,0.474 1.902,0.806 -3.364,1.229 -6.776,2.353 -10.245,3.372 -0.371,-2.46 0.046,-5.179 0.689,-7.007 z"
   id="path22" />
<g
   id="g24"
   transform="translate(1.4142135)">
</g>
<g
   id="g26"
   transform="translate(1.4142135)">
</g>
<g
   id="g28"
   transform="translate(1.4142135)">
</g>
<g
   id="g30"
   transform="translate(1.4142135)">
</g>
<g
   id="g32"
   transform="translate(1.4142135)">
</g>
<g
   id="g34"
   transform="translate(1.4142135)">
</g>
<g
   id="g36"
   transform="translate(1.4142135)">
</g>
<g
   id="g38"
   transform="translate(1.4142135)">
</g>
<g
   id="g40"
   transform="translate(1.4142135)">
</g>
<g
   id="g42"
   transform="translate(1.4142135)">
</g>
<g
   id="g44"
   transform="translate(1.4142135)">
</g>
<g
   id="g46"
   transform="translate(1.4142135)">
</g>
<g
   id="g48"
   transform="translate(1.4142135)">
</g>
<g
   id="g50"
   transform="translate(1.4142135)">
</g>
<g
   id="g52"
   transform="translate(1.4142135)">
</g>
</svg>
