<?xml version="1.0" encoding="UTF-8" standalone="no"?>
<svg
   id="Layer_1"
   version="1.1"
   viewBox="0 0 1244.6876 1244.6875"
   xml:space="preserve"
   sodipodi:docname="piggy-bank.svg"
   width="1244.6876"
   height="1244.6875"
   inkscape:version="1.1.1 (3bf5ae0d25, 2021-09-20)"
   xmlns:inkscape="http://www.inkscape.org/namespaces/inkscape"
   xmlns:sodipodi="http://sodipodi.sourceforge.net/DTD/sodipodi-0.dtd"
   xmlns="http://www.w3.org/2000/svg"
   xmlns:svg="http://www.w3.org/2000/svg"><defs
     id="defs43" /><sodipodi:namedview
     id="namedview41"
     pagecolor="#ffffff"
     bordercolor="#666666"
     borderopacity="1.0"
     inkscape:pageshadow="2"
     inkscape:pageopacity="0.0"
     inkscape:pagecheckerboard="0"
     showgrid="false"
     inkscape:zoom="0.29623907"
     inkscape:cx="-654.87648"
     inkscape:cy="680.19387"
     inkscape:window-width="2560"
     inkscape:window-height="1017"
     inkscape:window-x="-8"
     inkscape:window-y="-8"
     inkscape:window-maximized="1"
     inkscape:current-layer="g38" /><style
     type="text/css"
     id="style2">
	.st0{fill:#62BEE7;}
	.st1{fill:#474E5E;}
	.st2{fill:#F3EEE4;}
	.st3{fill:#FFFFFF;}
	.st4{fill:#E8DCCA;}
	.st5{opacity:0.1;fill:#231F20;}
	.st6{fill:#506268;}
	.st7{fill:#EB5151;}
	.st8{fill:#C64444;}
	.st9{fill:#9CCB5B;}
	.st10{fill:#404A4C;}
	.st11{fill:#676767;}
	.st12{fill:#E0E1E5;}
	.st13{fill:#9D9EA0;}
	.st14{fill:#B3B4B7;}
	.st15{opacity:0.1;}
	.st16{fill:#231F20;}
	.st17{fill:#FACC20;}
	.st18{fill:#FDEF34;}
	.st19{fill:#F7A90B;}
	.st20{fill:#20B8EA;}
	.st21{fill:#00A8EA;}
	.st22{fill:#33D3F4;}
	.st23{opacity:0.25;fill:#FFFFFF;}
	.st24{fill:#CACBCE;}
	.st25{fill:#2E3545;}
	.st26{fill:#8DAF4A;}
	.st27{fill:#F9C2AF;}
	.st28{fill:#AFDDF4;}
	.st29{fill:#677177;}
	.st30{fill:#FFEDB3;}
	.st31{fill:#695652;}
	.st32{fill:#30A7BF;}
	.st33{fill:#4D5556;}
	.st34{opacity:0.35;}
	.st35{fill:#FFCB04;}
	.st36{fill:#99E9FA;}
	.st37{opacity:0.2;}
	.st38{opacity:3.000000e-02;}
	.st39{fill:#9ECA5B;}
	.st40{fill:#98BA56;}
	.st41{fill:#40EEFF;}
	.st42{fill:#FF6A52;}
	.st43{opacity:0.1;fill:#FFFFFF;}
	.st44{opacity:0.4;}
	.st45{fill:#57606D;}
	.st46{fill:#BACA5B;}
	.st47{opacity:0.25;}
	.st48{opacity:5.000000e-02;fill:#231F20;}
	.st49{opacity:0.2;fill:#FFFFFF;}
	.st50{opacity:0.3;}
	.st51{fill:#FFD82F;}
	.st52{fill:#F4C121;}
	.st53{fill:#EF9D0A;}
	.st54{fill:#F9E532;}
	.st55{fill:#F4C01E;}
	.st56{fill:#FFE14D;}
	.st57{fill:#B7C156;}
	.st58{fill:#DBA92C;}
	.st59{fill:#363D4D;}
	.st60{fill:#3F4656;}
	.st61{fill:#463E33;}
	.st62{fill:none;}
	.st63{opacity:4.000000e-02;}
	.st64{fill:#4DB6AC;}
	.st65{fill:#CADE49;}
	.st66{fill:#9FD343;}
	.st67{fill:#AAD643;}
	.st68{fill:#82C736;}
	.st69{opacity:0.3;fill:#FFFFFF;}
	.st70{fill:#FFD640;}
	.st71{opacity:0.5;}
	.st72{opacity:0.6;}
</style><g
     id="g38"
     transform="translate(591.12097,589.9115)"><rect
       style="fill:#474e5e;fill-opacity:1;stroke-width:0.600001;paint-order:markers stroke fill"
       id="rect996"
       width="1244.6876"
       height="1244.6875"
       x="-591.12097"
       y="-589.9115" /><g
       id="g36"
       transform="matrix(19.263857,0,0,19.263857,-587.05671,-589.91149)"
       style="stroke-width:0.0519107"><circle
         class="st1"
         cx="31.200001"
         cy="32.700001"
         r="11.9"
         id="circle6"
         style="stroke-width:0.0519107" /><path
         class="st25"
         d="M 39.7,24.2 22.8,41.1 c 4.7,4.7 12.2,4.7 16.8,0 4.7,-4.7 4.7,-12.2 0.1,-16.9 z"
         id="path8"
         style="stroke-width:0.0519107" /><g
         id="g12"
         style="stroke-width:0.0519107"><path
           class="st3"
           d="M 35.5,33.8 C 35.3,33.4 34.8,32.1 32,31.5 v -3.4 c 0.7,0.2 1.1,0.7 1.3,1.4 0.2,0.6 0.5,0.9 1,0.9 0.3,0 2,-0.5 0.2,-2.7 -0.3,-0.4 -0.8,-1 -2.6,-1.2 v -1.4 h -1 v 1.4 c -3.2,0.3 -3.5,2.4 -3.5,3.4 0,2.8 2.8,3.3 3.5,3.5 v 3.8 c -1.3,-0.3 -1.6,-1.7 -1.8,-2.1 -0.2,-0.6 -0.7,-0.7 -1,-0.7 -0.8,0 -1.1,0.8 -1.1,1 0,0.4 0.2,2 2.1,3 0.5,0.2 1,0.4 1.7,0.5 v 1.3 H 32 v -1.3 c 0.8,-0.1 1.4,-0.3 2,-0.6 1.6,-0.9 2.1,-2.8 1.5,-4.5 z M 31,31.3 c -0.8,-0.4 -1.4,-0.5 -1.5,-1.6 0,-0.5 0.2,-1.2 1.5,-1.6 z m 1,6 v -3.6 c 1.7,0.6 1.7,1.3 1.7,1.8 0.1,0.4 0,1.4 -1.7,1.8 z"
           id="path10"
           style="stroke-width:0.0519107" /></g><g
         id="g34"
         style="stroke-width:0.0519107"><g
           id="g30"
           style="stroke-width:0.0519107"><path
             class="st42"
             d="m 25.5,42.1 -6.4,10.5 c -3.3,-2 -6.1,-4.9 -8,-8.2 l 10.7,-6.1 c 0.9,1.5 2.2,2.8 3.7,3.8 z"
             id="path14"
             style="stroke-width:0.0519107" /><path
             class="st7"
             d="M 31.2,43.7 V 56 c -4.4,0 -8.6,-1.3 -12.1,-3.4 l 6.4,-10.5 c 1.7,1 3.6,1.6 5.7,1.6 z"
             id="path16"
             style="stroke-width:0.0519107" /><path
             class="st19"
             d="M 21.8,38.2 11.1,44.3 C 9.1,40.9 8,37 8,32.8 v 0 h 12.3 v 0 c 0,2 0.5,3.8 1.5,5.4 z"
             id="path18"
             style="stroke-width:0.0519107" /><path
             class="st21"
             d="m 31.2,9.6 v 12.3 c -2.1,0 -4,0.6 -5.6,1.6 L 19.3,12.9 c 3.5,-2.1 7.5,-3.3 11.9,-3.3 z"
             id="path20"
             style="stroke-width:0.0519107" /><path
             class="st18"
             d="m 25.6,23.4 c -1.6,1 -3,2.4 -3.9,4.1 L 10.9,21.6 c 2,-3.6 4.9,-6.6 8.4,-8.7 z"
             id="path22"
             style="stroke-width:0.0519107" /><path
             class="st17"
             d="m 21.7,27.5 c -0.9,1.6 -1.4,3.3 -1.4,5.2 H 8 c 0,-4 1.1,-7.9 2.9,-11.2 z"
             id="path24"
             style="stroke-width:0.0519107" /><path
             class="st8"
             d="M 43.3,52.6 C 39.8,54.8 35.6,56 31.2,56 V 43.7 c 2.1,0 4,-0.6 5.7,-1.6 z"
             id="path26"
             style="stroke-width:0.0519107" /><path
             class="st22"
             d="m 56,32.8 c 0,8.9 -4.7,16.8 -11.8,21.1 L 43.4,52.6 37,42.1 c 3.1,-1.9 5.2,-5.4 5.2,-9.3 0,-6 -4.9,-10.9 -10.9,-10.9 V 8 C 44.9,8 56,19.1 56,32.8 Z"
             id="path28"
             style="stroke-width:0.0519107" /></g><path
           class="st5"
           d="m 31.2,15.4 c -9.6,0 -17.4,7.8 -17.4,17.4 0,9.6 7.8,17.4 17.4,17.4 9.6,0 17.4,-7.8 17.4,-17.4 0,-9.6 -7.8,-17.4 -17.4,-17.4 z m 0,30.4 c -7.2,0 -13,-5.8 -13,-13 0,-7.2 5.8,-13 13,-13 7.2,0 13,5.8 13,13 0.1,7.2 -5.8,13 -13,13 z"
           id="path32"
           style="stroke-width:0.0519107" /></g></g></g></svg>
