<?xml version="1.0" encoding="UTF-8" standalone="no"?>
<!-- Created with Inkscape (http://www.inkscape.org/) -->

<svg
   width="80mm"
   height="80mm"
   viewBox="0 0 79.999999 80.000001"
   version="1.1"
   id="svg5"
   inkscape:version="1.1.1 (3bf5ae0d25, 2021-09-20)"
   sodipodi:docname="99pay.svg"
   xmlns:inkscape="http://www.inkscape.org/namespaces/inkscape"
   xmlns:sodipodi="http://sodipodi.sourceforge.net/DTD/sodipodi-0.dtd"
   xmlns="http://www.w3.org/2000/svg"
   xmlns:svg="http://www.w3.org/2000/svg">
  <sodipodi:namedview
     id="namedview7"
     pagecolor="#ffffff"
     bordercolor="#666666"
     borderopacity="1.0"
     inkscape:pageshadow="2"
     inkscape:pageopacity="0.0"
     inkscape:pagecheckerboard="0"
     inkscape:document-units="mm"
     showgrid="false"
     inkscape:zoom="1.5287037"
     inkscape:cx="219.79406"
     inkscape:cy="203.11326"
     inkscape:window-width="2560"
     inkscape:window-height="1017"
     inkscape:window-x="-8"
     inkscape:window-y="-8"
     inkscape:window-maximized="1"
     inkscape:current-layer="g854" />
  <defs
     id="defs2" />
  <g
     inkscape:label="Camada 1"
     inkscape:groupmode="layer"
     id="layer1"
     transform="translate(38.989815,-57.745219)">
    <g
       id="g854"
       transform="translate(6.3709902,0.78234362)">
      <rect
         style="fill:#14ccad;stroke-width:0.15875;paint-order:markers stroke fill;fill-opacity:1"
         id="rect1161"
         width="80"
         height="80"
         x="-45.360806"
         y="56.962875" />
      <path
         style="fill:#040404;stroke-width:0.999996"
         d="m -33.918374,111.28464 v -9.69968 l 5.823973,0.0985 5.823981,0.0984 1.955147,0.98114 c 1.430976,0.71811 2.180619,1.30702 2.796144,2.1967 0.785998,1.13607 0.840987,1.38485 0.840987,3.8049 0,2.35743 -0.06929,2.69406 -0.773306,3.75791 -1.539679,2.3266 -4.237576,3.40341 -8.547635,3.41158 l -2.312709,0.005 v 2.52296 2.52298 h -2.803296 -2.803286 z m 10.781539,-0.21893 c 1.037228,-0.67964 1.390226,-1.74546 1.005645,-3.03646 -0.465199,-1.56167 -1.156508,-1.90237 -3.860189,-1.90237 h -2.320413 v 2.83932 2.8393 l 2.218995,-0.12844 c 1.444231,-0.0836 2.476312,-0.29706 2.955962,-0.61134 z m 6.745883,8.31652 c 0.390113,-0.89193 2.314238,-5.24778 4.275825,-9.67967 l 3.5665162,-8.05798 2.6852528,-9.5e-4 2.6852623,-9.5e-4 4.14054951,9.30045 c 2.27729319,5.11525 4.20635229,9.47194 4.28677189,9.68153 0.1185981,0.30903 -0.3964066,0.3659 -2.7231701,0.30081 l -2.86938166,-0.0804 -0.71809174,-1.75205 -0.7180918,-1.75207 h -4.1257782 -4.1257792 l -0.700373,1.75207 -0.700362,1.75205 -2.834227,0.0799 -2.834222,0.0799 z m 12.7480985,-6.45192 c 0,-0.42138 -2.064309,-5.40179 -2.2389686,-5.40179 -0.1001239,0 -0.7017986,1.26149 -1.3370583,2.80329 l -1.1550312,2.8033 h 2.3655338 c 1.3010306,0 2.3655243,-0.0924 2.3655243,-0.2048 z m 14.2967685,4.62539 v -3.4286 l -3.6442803,-6.08005 c -2.0043514,-3.34404 -3.644282,-6.15768 -3.644282,-6.25256 0,-0.0949 1.2864724,-0.13654 2.8588264,-0.0926 l 2.8587976,0.0799 2.1551663,3.59337 c 1.185341,1.97632 2.246987,3.59334 2.359217,3.59334 0.112211,0 1.173845,-1.61702 2.359117,-3.59334 l 2.155032,-3.59337 2.61281,-0.0811 c 2.338599,-0.0726 2.594046,-0.0322 2.434148,0.38449 -0.09815,0.25604 -1.753557,3.08718 -3.678467,6.29142 l -3.499834,5.82586 v 3.39091 3.39091 h -2.663115 -2.663116 z"
         id="path856"
         sodipodi:nodetypes="ccccsssccccccccssscccsscscccsscccccccccccssscssccssscssscscscccccc" />
      <path
         style="fill:#040404;stroke-width:1"
         d="m -22.583032,93.926523 c 0.119943,-0.312504 1.260827,-2.119036 2.535345,-4.014523 1.274535,-1.895478 2.313257,-3.582481 2.308281,-3.748861 -0.0043,-0.166401 -0.842156,-0.668203 -1.860413,-1.115144 -5.518149,-2.422051 -6.70484,-10.094965 -2.262131,-14.626403 5.470871,-5.58013 15.0068063,-2.123862 15.5686024,5.642779 0.089627,1.240145 -0.055396,2.889189 -0.3265745,3.710782 -0.2684176,0.813305 -2.4396008,4.457915 -4.8248629,8.099129 l -4.336829,6.620412 h -3.509718 c -2.941688,0 -3.474429,-0.09195 -3.2917,-0.568171 z m 9.615276,-15.194476 c 1.659725,-1.972497 1.175894,-4.217659 -1.115231,-5.174959 -3.605976,-1.506668 -6.435566,3.175456 -3.374298,5.583465 1.495275,1.176173 3.293805,1.01253 4.489529,-0.408506 z M -2.4782305,94.26943 c -0.1238628,-0.123855 0.8834162,-1.917351 2.23845688,-3.985472 1.35504052,-2.06812 2.46372492,-3.917901 2.46372492,-4.110622 0,-0.192721 -0.5805246,-0.560328 -1.29004662,-0.816892 C -2.2522868,84.204286 -4.4700338,80.707601 -4.4658,76.8428 c 0.00897,-8.074923 9.1032826,-12.07306 15.389864,-6.765771 2.521846,2.129003 3.664455,6.83504 2.434646,10.027536 -0.243905,0.633158 -2.374138,4.127322 -4.7338364,7.764798 l -4.2903817,6.613587 -3.2937317,0.0054 c -1.81155822,0.0027 -3.3951099,-0.09546 -3.5189907,-0.219411 z M 7.0380962,78.970802 c 2.044304,-2.044303 0.576642,-5.735125 -2.2805974,-5.735125 -0.9832272,0 -1.6784351,0.281425 -2.3225214,0.940158 -2.17012062,2.219461 -0.7702013,5.736864 2.2832638,5.736864 0.9513655,0 1.6695529,-0.291596 2.319855,-0.941897 z"
         id="path1038"
         sodipodi:nodetypes="cccssccccsccccccssccsscccccsscss" />
    </g>
  </g>
</svg>
