<svg version="1.1" id="Layer_1" xmlns="http://www.w3.org/2000/svg" xmlns:xlink="http://www.w3.org/1999/xlink" x="0px" y="0px"
	 width="100%" viewBox="0 0 512 512" enable-background="new 0 0 512 512" xml:space="preserve">
<path fill="#FE3E6D" opacity="1.000000" stroke="none" 
	d="
M343.000000,513.000000 
	C228.694443,513.000000 114.888878,513.000000 1.041656,513.000000 
	C1.041656,342.402740 1.041656,171.805481 1.041656,1.104111 
	C171.555573,1.104111 342.111206,1.104111 512.833435,1.104111 
	C512.833435,171.666534 512.833435,342.333252 512.833435,513.000000 
	C456.472137,513.000000 399.986053,513.000000 343.000000,513.000000 
M388.580444,258.223358 
	C387.709534,257.836792 386.841278,257.120911 385.967285,257.113800 
	C375.407410,257.027832 364.846100,256.994019 354.287140,257.116699 
	C353.192749,257.129425 352.111023,258.234314 350.408691,259.188171 
	C345.771729,260.851501 344.615753,264.577087 344.175598,269.029236 
	C341.635651,294.721619 328.857819,315.022705 308.999237,330.394592 
	C270.343445,360.316742 214.209900,352.193848 184.900253,312.883392 
	C155.829498,273.893280 161.427505,220.151718 201.759811,187.630417 
	C214.762360,177.145966 229.979492,171.496368 246.606003,169.652390 
	C253.634674,168.872879 255.913742,166.279587 255.945511,159.283691 
	C255.990158,149.452209 255.966415,139.620392 255.961868,129.788727 
	C255.957520,120.407478 252.797516,117.417717 243.468079,118.362846 
	C206.476929,122.110329 175.287155,137.486862 150.793579,165.592789 
	C124.256126,196.044037 112.659157,231.740875 116.411034,271.848511 
	C120.205566,312.412079 138.504532,345.526886 170.747421,370.684204 
	C186.054581,382.627502 203.194748,390.888031 222.014877,395.665039 
	C225.830933,396.633575 229.636215,397.644623 234.210785,399.049774 
	C236.194916,399.350494 238.179062,399.651215 241.010330,399.943115 
	C242.987823,399.916351 244.965332,399.889587 247.491913,400.290192 
	C248.994949,400.192749 250.497971,400.095337 252.876495,399.827545 
	C255.250580,399.883759 257.624664,399.939941 260.687927,400.426361 
	C264.452698,399.990448 268.217499,399.554535 272.768646,398.837982 
	C308.837097,393.792694 338.848389,377.561279 362.601349,349.945404 
	C375.152039,335.353577 384.113068,318.701508 389.624969,300.286987 
	C392.092712,292.042542 394.058502,283.630493 395.873810,275.212921 
	C397.719452,266.654602 395.655029,262.231964 388.580444,258.223358 
M329.510284,123.954231 
	C323.677399,127.673347 318.289551,131.567917 314.037750,137.453156 
	C299.075195,158.163849 304.841095,194.063278 332.886932,204.802414 
	C339.545654,207.352127 346.891876,209.301819 353.935577,209.346100 
	C362.618439,209.400711 370.450165,205.532700 377.479614,199.853806 
	C396.130554,184.786331 401.044769,159.772354 388.765839,139.896240 
	C376.415405,119.904381 352.065338,113.137108 329.510284,123.954231 
z"/>
<path fill="#FFFEFE" opacity="1.000000" stroke="none" 
	d="
M246.942825,399.862793 
	C244.965332,399.889587 242.987823,399.916351 240.345367,399.580414 
	C237.602432,399.023834 235.524445,398.829987 233.446457,398.636108 
	C229.636215,397.644623 225.830933,396.633575 222.014877,395.665039 
	C203.194748,390.888031 186.054581,382.627502 170.747421,370.684204 
	C138.504532,345.526886 120.205566,312.412079 116.411034,271.848511 
	C112.659157,231.740875 124.256126,196.044037 150.793579,165.592789 
	C175.287155,137.486862 206.476929,122.110329 243.468079,118.362846 
	C252.797516,117.417717 255.957520,120.407478 255.961868,129.788727 
	C255.966415,139.620392 255.990158,149.452209 255.945511,159.283691 
	C255.913742,166.279587 253.634674,168.872879 246.606003,169.652390 
	C229.979492,171.496368 214.762360,177.145966 201.759811,187.630417 
	C161.427505,220.151718 155.829498,273.893280 184.900253,312.883392 
	C214.209900,352.193848 270.343445,360.316742 308.999237,330.394592 
	C328.857819,315.022705 341.635651,294.721619 344.175598,269.029236 
	C344.615753,264.577087 345.771729,260.851501 351.182739,259.033142 
	C364.298004,258.874237 376.639221,258.870392 388.980469,258.866547 
	C395.655029,262.231964 397.719452,266.654602 395.873810,275.212921 
	C394.058502,283.630493 392.092712,292.042542 389.624969,300.286987 
	C384.113068,318.701508 375.152039,335.353577 362.601349,349.945404 
	C338.848389,377.561279 308.837097,393.792694 271.947205,398.953522 
	C267.416748,399.378082 263.707764,399.687103 259.998749,399.996124 
	C257.624664,399.939941 255.250580,399.883759 252.024231,399.823303 
	C249.762253,399.833649 248.352539,399.848206 246.942825,399.862793 
z"/>
<path fill="#FFFEFE" opacity="1.000000" stroke="none" 
	d="
M329.841736,123.783310 
	C352.065338,113.137108 376.415405,119.904381 388.765839,139.896240 
	C401.044769,159.772354 396.130554,184.786331 377.479614,199.853806 
	C370.450165,205.532700 362.618439,209.400711 353.935577,209.346100 
	C346.891876,209.301819 339.545654,207.352127 332.886932,204.802414 
	C304.841095,194.063278 299.075195,158.163849 314.037750,137.453156 
	C318.289551,131.567917 323.677399,127.673347 329.841736,123.783310 
z"/>
<path fill="#FE275C" opacity="1.000000" stroke="none" 
	d="
M388.780457,258.544952 
	C376.639221,258.870392 364.298004,258.874237 351.490112,258.855286 
	C352.111023,258.234314 353.192749,257.129425 354.287140,257.116699 
	C364.846100,256.994019 375.407410,257.027832 385.967285,257.113800 
	C386.841278,257.120911 387.709534,257.836792 388.780457,258.544952 
z"/>
<path fill="#FE275C" opacity="1.000000" stroke="none" 
	d="
M260.343323,400.211243 
	C263.707764,399.687103 267.416748,399.378082 271.554016,399.093811 
	C268.217499,399.554535 264.452698,399.990448 260.343323,400.211243 
z"/>
<path fill="#FE275C" opacity="1.000000" stroke="none" 
	d="
M233.828613,398.842957 
	C235.524445,398.829987 237.602432,399.023834 239.921814,399.584808 
	C238.179062,399.651215 236.194916,399.350494 233.828613,398.842957 
z"/>
<path fill="#FE275C" opacity="1.000000" stroke="none" 
	d="
M247.217377,400.076477 
	C248.352539,399.848206 249.762253,399.833649 251.586487,399.908478 
	C250.497971,400.095337 248.994949,400.192749 247.217377,400.076477 
z"/>
</svg>