<?xml version="1.0" encoding="UTF-8" standalone="no"?>
<svg
   width="630"
   height="630"
   version="1.1"
   id="svg12"
   sodipodi:docname="caixa.svg"
   inkscape:version="1.1.1 (3bf5ae0d25, 2021-09-20)"
   xmlns:inkscape="http://www.inkscape.org/namespaces/inkscape"
   xmlns:sodipodi="http://sodipodi.sourceforge.net/DTD/sodipodi-0.dtd"
   xmlns="http://www.w3.org/2000/svg"
   xmlns:svg="http://www.w3.org/2000/svg">
  <defs
     id="defs16" />
  <sodipodi:namedview
     id="namedview14"
     pagecolor="#ffffff"
     bordercolor="#666666"
     borderopacity="1.0"
     inkscape:pageshadow="2"
     inkscape:pageopacity="0.0"
     inkscape:pagecheckerboard="0"
     showgrid="false"
     inkscape:zoom="0.72653616"
     inkscape:cx="-167.92007"
     inkscape:cy="381.94933"
     inkscape:window-width="2560"
     inkscape:window-height="1017"
     inkscape:window-x="-8"
     inkscape:window-y="-8"
     inkscape:window-maximized="1"
     inkscape:current-layer="svg12" />
  <path
     style="fill:#f9f9f9;fill-opacity:1;stroke-width:0.600001;paint-order:markers stroke fill"
     d="M 1e-5,-1.5e-5 H 629.99999 V 630.00002 H 1e-5 Z"
     id="path2" />
  <g
     style="stroke-width:0.0947909"
     id="g10"
     transform="translate(-4.0382656,20.117453)">
    <path
       d="m 1316.6,1748.61 h 60.99 l 41.79,-69.21 h -61 l -41.78,69.21"
       style="fill:#0070af;fill-opacity:1;fill-rule:evenodd;stroke:none;stroke-width:0.0947909"
       transform="matrix(3.15708,0,0,-3.17267,-3944.03,5859.714)"
       id="path4" />
    <path
       d="m 1322.94,1759.24 h 63.04 l 54.75,68.92 h -63.04 l -54.75,-68.92 m -63.03,-80.26 h 63.03 l 54.75,69.76 h -63.04 l -54.74,-69.76"
       style="fill:#f6822a;fill-opacity:1;fill-rule:evenodd;stroke:none;stroke-width:0.0947909"
       transform="matrix(3.15708,0,0,-3.17267,-3944.03,5859.714)"
       id="path6" />
    <path
       d="m 1282.64,1829 h 58.83 l 40.31,-69.76 h -58.84 l -40.3,69.76"
       style="fill:#0070af;fill-opacity:1;fill-rule:evenodd;stroke:none;stroke-width:0.0947909"
       transform="matrix(3.15708,0,0,-3.17267,-3944.03,5859.714)"
       id="path8" />
  </g>
</svg>
