<?xml version="1.0" encoding="UTF-8" standalone="no"?>
<!-- Created with Inkscape (http://www.inkscape.org/) -->

<svg
   width="52.916752mm"
   height="52.918945mm"
   viewBox="0 0 52.916752 52.918945"
   version="1.1"
   id="svg5"
   xml:space="preserve"
   inkscape:version="1.2.2 (b0a8486541, 2022-12-01)"
   sodipodi:docname="carrefour-banco.svg"
   xmlns:inkscape="http://www.inkscape.org/namespaces/inkscape"
   xmlns:sodipodi="http://sodipodi.sourceforge.net/DTD/sodipodi-0.dtd"
   xmlns="http://www.w3.org/2000/svg"
   xmlns:svg="http://www.w3.org/2000/svg"><sodipodi:namedview
     id="namedview7"
     pagecolor="#ffffff"
     bordercolor="#000000"
     borderopacity="0.25"
     inkscape:showpageshadow="2"
     inkscape:pageopacity="0.0"
     inkscape:pagecheckerboard="0"
     inkscape:deskcolor="#d1d1d1"
     inkscape:document-units="mm"
     showgrid="false"
     inkscape:zoom="0.75277076"
     inkscape:cx="-634.32325"
     inkscape:cy="189.96487"
     inkscape:window-width="2560"
     inkscape:window-height="1011"
     inkscape:window-x="0"
     inkscape:window-y="32"
     inkscape:window-maximized="1"
     inkscape:current-layer="layer1" /><defs
     id="defs2" /><g
     inkscape:label="Layer 1"
     inkscape:groupmode="layer"
     id="layer1"
     transform="translate(-270.90774,-91.404679)"><g
       id="g870"
       transform="translate(119.16607,-12.887281)"><path
         style="fill:#f8fbfc;stroke-width:0.264583"
         d="m 151.74188,150.26332 2.1e-4,-6.94532 0.56238,1.13616 c 0.9765,1.97277 3.39908,2.73795 5.19728,1.64159 1.61272,-0.98328 1.80426,-2.77775 0.2965,-2.77775 -0.54566,0 -0.63262,0.1263 -0.63262,0.91886 0,0.76045 -0.1236,0.96245 -0.71695,1.1718 -1.09526,0.38643 -1.92554,-0.13032 -2.46064,-1.53145 -0.58169,-1.52313 -0.36211,-3.27387 0.53155,-4.23815 1.10494,-1.19225 2.6057,-0.8024 2.63105,0.68346 0.0127,0.74615 0.11049,0.87882 0.64761,0.87882 1.50653,0 1.3176,-1.78003 -0.2965,-2.79346 -0.64154,-0.40281 -1.17986,-0.51632 -2.08182,-0.43898 -1.49137,0.12788 -2.43968,0.78393 -3.14267,2.1741 l -0.53517,1.05834 -2.1e-4,-18.45469 -2.1e-4,-18.45469 12.76615,9.9e-4 c 12.57608,9.7e-4 12.75432,0.008 11.97239,0.49564 -1.88679,1.17582 -2.96343,3.03338 -3.77228,6.50842 -0.62828,2.69926 -0.61095,11.45593 0.0278,14.02933 0.85727,3.45395 2.07703,5.54903 3.7316,6.40946 1.67714,0.87216 5.08434,0.20334 6.4541,-1.26692 0.78601,-0.84368 0.72124,-1.29005 -0.39509,-2.72292 -2.1898,-2.8107 -0.8623,-6.34428 2.38344,-6.34428 2.25032,0 3.46544,1.525 3.45479,4.33584 -0.006,1.46848 -0.15645,2.02913 -0.98511,3.66026 -0.53819,1.0594 -0.86256,1.8864 -0.72082,1.83778 0.39626,-0.1359 12.18997,-11.40516 12.46544,-11.9111 0.41849,-0.76864 0.26659,-1.73425 -0.39687,-2.52272 -1.01542,-1.20676 -12.06344,-11.80129 -12.18239,-11.68234 -0.059,0.059 0.32461,0.97755 0.85255,2.04113 0.80701,1.62581 0.96222,2.21687 0.97451,3.71119 0.0166,2.01842 -0.40825,2.91075 -1.7857,3.75063 -2.26867,1.3833 -5.21115,-0.42181 -5.21115,-3.19686 0,-0.83609 0.66114,-2.12895 1.97007,-3.85248 0.60404,-0.79537 -0.68964,-2.18704 -2.70007,-2.90457 -0.85142,-0.30387 0.75789,-0.35488 11.51178,-0.36487 l 12.50156,-0.0116 v 18.25849 c 0,17.95811 -0.008,18.25326 -0.50957,17.94027 -0.39774,-0.2484 -0.66551,-0.24717 -1.22023,0.006 -0.54583,0.2487 -0.79769,0.2516 -1.08578,0.0125 -0.28134,-0.2335 -0.53845,-0.23687 -1.02871,-0.0135 -0.72908,0.33218 -0.86469,0.96529 -0.25675,1.19858 0.59422,0.22802 0.56254,3.48948 -0.0371,3.82508 -0.74326,0.41597 -0.1222,0.84175 1.22777,0.84175 1.48304,0 1.77863,-0.24791 1.04478,-0.87625 -0.57436,-0.49179 -0.69721,-2.05123 -0.25353,-3.21821 0.2269,-0.59679 0.33573,-0.64992 0.81066,-0.39574 0.40828,0.2185 0.64576,0.21294 0.92855,-0.0217 0.32877,-0.27286 0.37996,0.74055 0.37996,7.52226 v 7.83761 l -7.07761,-0.008 c -4.93768,-0.006 -6.9376,-0.0896 -6.61457,-0.27773 0.71964,-0.41915 1.25676,-1.68963 1.25676,-2.97269 0,-2.06474 -1.45198,-3.17467 -3.33853,-2.55205 -1.74796,0.57688 -2.32116,3.43061 -1.00358,4.99647 l 0.68498,0.81405 -1.54487,-0.0168 c -1.2329,-0.0134 -1.42018,-0.0667 -0.9274,-0.26426 0.97956,-0.39261 0.54243,-0.92134 -0.68493,-0.82845 -0.86942,0.0658 -1.15202,-0.0329 -1.49454,-0.5219 -0.48285,-0.68937 -0.54976,-1.86957 -0.14849,-2.61935 0.29854,-0.55783 1.54478,-0.70394 2.01274,-0.23598 0.19134,0.19135 0.37951,0.15083 0.61448,-0.13229 0.75685,-0.91194 -1.21398,-1.79107 -2.66648,-1.18943 -1.00868,0.41781 -1.55755,1.4882 -1.55755,3.03752 0,1.00019 0.14148,1.36559 0.7734,1.99751 l 0.7734,0.7734 -4.41142,2.6e-4 -4.41142,2.7e-4 v -2.83566 -2.83566 l -1.13368,-0.22477 c -1.36392,-0.27029 -2.89573,0.35211 -3.43948,1.39764 -0.54467,1.04731 -0.27237,3.41911 0.4607,4.01271 0.59336,0.48047 0.5794,0.48521 -1.42923,0.48521 h -2.02844 l 0.69006,-0.59531 c 0.86749,-0.74838 1.26345,-2.36485 0.90692,-3.7024 -0.31978,-1.19968 -1.46003,-1.91147 -2.64512,-1.65118 -0.75743,0.16636 -0.77444,0.1464 -0.77444,-0.90926 0,-0.97492 -0.064,-1.07935 -0.66145,-1.07935 h -0.66146 v 3.69102 c 0,3.23613 0.0571,3.72425 0.46302,3.9607 0.32352,0.18844 -1.54968,0.27211 -6.21771,0.27773 l -6.68073,0.008 z m 25.92896,4.57337 c 0,-1.81017 0.0719,-2.14585 0.51,-2.3803 1.07115,-0.57327 1.34208,-0.11561 1.34208,2.267 v 2.22065 h 0.82611 0.82612 l -0.11563,-2.41849 c -0.1017,-2.12716 -0.18881,-2.47774 -0.72314,-2.91041 -0.72826,-0.58971 -1.23326,-0.61473 -2.20252,-0.10911 -0.40018,0.20875 -0.72761,0.26755 -0.72761,0.13066 0,-0.13689 -0.26789,-0.24915 -0.59531,-0.24945 -0.58488,-5.3e-4 -0.59385,0.0481 -0.51214,2.77812 0.0822,2.7452 0.0909,2.77868 0.7276,2.77868 0.62892,0 0.64444,-0.0507 0.64444,-2.10735 z m -14.68965,-8.52172 c 0.52098,-0.23737 0.75403,-0.23737 0.99141,0 0.43631,0.43632 1.13549,0.38568 1.54865,-0.11216 0.29566,-0.35624 0.28,-0.462 -0.0999,-0.6746 -0.35735,-0.19998 -0.45052,-0.63493 -0.45052,-2.10309 0,-1.61244 -0.0837,-1.93465 -0.64943,-2.50039 -1.21187,-1.21187 -4.26186,-0.63732 -4.06198,0.76517 0.11288,0.79207 1.16641,0.92183 1.4041,0.17294 0.2666,-0.83998 1.56005,-0.63435 1.66402,0.26454 0.0728,0.62933 0.0105,0.66158 -1.28227,0.66408 -1.10531,0.002 -1.45273,0.11865 -1.86244,0.62462 -0.68573,0.84684 -0.63251,1.78151 0.14576,2.55978 0.7086,0.7086 1.5934,0.82171 2.65259,0.33911 z m -1.31396,-1.179 c -0.23705,-0.23704 -0.36461,-0.60397 -0.28348,-0.81539 0.0811,-0.21142 0.1475,-0.43419 0.1475,-0.49505 0,-0.0609 0.41672,-0.11065 0.92605,-0.11065 0.80786,0 0.92604,0.0832 0.92604,0.65215 0,0.37397 -0.2183,0.76898 -0.51178,0.92604 -0.66394,0.35533 -0.6961,0.35114 -1.20433,-0.1571 z m 18.52565,1.10595 c 0.64511,-0.26955 0.91754,-0.5529 0.91754,-0.95435 0,-0.44283 -0.10391,-0.52653 -0.46302,-0.37296 -1.18458,0.50661 -1.88758,0.44247 -2.56399,-0.23394 -1.05596,-1.05596 -0.87066,-1.23038 1.30722,-1.23038 h 1.98437 l -0.008,-0.85989 c -0.0188,-1.92183 -2.05489,-2.90358 -3.969,-1.91375 -2.11279,1.09257 -2.05435,4.6279 0.0919,5.56138 1.08635,0.47249 1.58015,0.4732 2.70336,0.004 z m -2.60093,-3.75245 c -0.37209,-0.3721 0.38615,-1.15584 1.11822,-1.15584 0.69124,0 1.07733,0.38703 1.07733,1.07997 0,0.2712 -1.93341,0.338 -2.19555,0.0759 z m 12.94899,3.70327 c 2.74686,-1.30346 2.04207,-5.52315 -0.97244,-5.82212 -2.02353,-0.20069 -3.50316,1.08761 -3.50316,3.05018 0,1.31259 0.6329,2.33435 1.74578,2.81843 1.10841,0.48214 1.63472,0.47317 2.72982,-0.0465 z m -2.12519,-1.03116 c -0.5929,-0.59291 -0.80583,-2.11761 -0.42434,-3.03861 0.25767,-0.62205 0.49124,-0.78934 1.10211,-0.78934 0.64004,0 0.84459,0.16618 1.17353,0.95345 0.82725,1.97987 -0.57251,4.15328 -1.8513,2.8745 z m 8.18837,1.08704 c 0.44545,-0.32671 0.57089,-0.32501 0.9455,0.0129 0.28046,0.25295 0.67563,0.32836 1.12698,0.21508 0.89958,-0.22578 1.14586,-0.64458 0.60964,-1.03667 -0.31971,-0.23378 -0.44521,-0.85986 -0.50345,-2.51167 -0.0902,-2.55954 -0.46966,-3.08875 -1.71229,-2.38832 -0.90366,0.50935 -1.04497,0.95316 -0.36048,1.13216 0.4397,0.11499 0.53998,0.356 0.53998,1.29773 0,1.39298 -0.61702,2.39581 -1.40376,2.28151 -0.68105,-0.0989 -0.91579,-0.8492 -0.95111,-3.03993 -0.0226,-1.40391 -0.10323,-1.66021 -0.5685,-1.80788 -0.31915,-0.10129 -0.80884,0.003 -1.19062,0.25285 -0.7104,0.46548 -0.85566,0.94189 -0.28718,0.94189 0.25929,0 0.3998,0.53785 0.4976,1.90474 0.11792,1.64801 0.23169,1.9868 0.84406,2.51354 0.80845,0.6954 1.66911,0.77817 2.41363,0.23212 z m -27.20026,-0.35093 c 0.0599,-0.1819 -0.0773,-0.33073 -0.30489,-0.33073 -0.54104,0 -0.79607,-1.07346 -0.57841,-2.43465 0.22912,-1.43285 0.35142,-1.5889 0.98116,-1.25187 0.63765,0.34126 1.28995,-0.0829 1.28995,-0.83875 0,-0.62346 -1.07418,-0.91813 -1.84435,-0.50595 -0.43613,0.23341 -0.66218,0.22954 -0.95852,-0.0164 -0.29341,-0.24351 -0.5469,-0.24936 -1.04142,-0.024 -0.72908,0.33219 -0.86469,0.9653 -0.25675,1.19859 0.59422,0.22802 0.56254,3.48948 -0.0371,3.82508 -0.24468,0.13693 -0.34978,0.37919 -0.24093,0.55532 0.25803,0.41749 2.84588,0.26471 2.99131,-0.1766 z m 5.02708,0 c 0.06,-0.1819 -0.0741,-0.33073 -0.29794,-0.33073 -0.51024,0 -0.81725,-1.48163 -0.55766,-2.6913 0.2637,-1.22878 0.35083,-1.31774 0.96742,-0.98775 0.71989,0.38527 1.40973,-0.24527 1.15307,-1.05395 -0.20696,-0.65204 -1.25747,-0.76182 -1.78487,-0.18652 -0.29251,0.31907 -0.40735,0.31309 -0.80526,-0.042 -0.37354,-0.33332 -0.59295,-0.35541 -1.12448,-0.11323 -0.71862,0.32742 -0.90412,1.10598 -0.26351,1.10598 0.60418,0 0.57025,3.58085 -0.0371,3.92076 -0.24469,0.13693 -0.34979,0.37919 -0.24093,0.55532 0.25802,0.4175 2.84587,0.26471 2.9913,-0.1766 z m 10.77232,0.21171 c 0.0854,-0.13822 -0.0862,-0.38053 -0.38126,-0.53847 -0.46482,-0.24877 -0.53658,-0.54895 -0.53658,-2.24466 0,-1.93876 0.007,-1.95829 0.72761,-2.04121 0.97632,-0.11234 0.96456,-0.8503 -0.0153,-0.96268 -0.66123,-0.0758 -0.73398,-0.17767 -0.66146,-0.92604 0.061,-0.62982 0.22576,-0.86138 0.65634,-0.9227 0.42957,-0.0612 0.59674,0.0726 0.66146,0.52916 0.10425,0.73548 0.95,0.82865 1.37701,0.15169 0.40043,-0.6348 -0.48659,-1.49226 -1.75697,-1.69842 -0.82987,-0.13466 -1.07631,-0.0442 -1.77012,0.64958 -0.48628,0.48628 -0.80602,1.07979 -0.80602,1.49614 0,0.37956 -0.1786,0.75864 -0.39688,0.84241 -0.21828,0.0838 -0.39687,0.31815 -0.39687,0.52086 0,0.20271 0.17859,0.36857 0.39687,0.36857 0.56989,0 0.57248,3.75822 0.003,4.23091 -0.21667,0.17983 -0.32871,0.43254 -0.24896,0.56157 0.19498,0.3155 2.95199,0.30087 3.14826,-0.0167 z m -16.07552,-16.08671 c -1.3516,-1.85596 -2.45417,-3.94707 -3.10398,-5.88698 -0.79708,-2.37954 -1.00168,-7.30459 -0.41769,-10.05417 0.48513,-2.28406 2.02808,-5.65522 3.41649,-7.4646 0.52623,-0.68579 0.87093,-1.29996 0.76598,-1.36482 -0.10494,-0.0649 -3.023,2.63937 -6.48457,6.0094 -7.31885,7.12529 -7.20877,6.92384 -5.01386,9.176 2.51042,2.57591 11.29359,10.84194 11.52023,10.84194 0.12796,0 -0.17921,-0.56555 -0.6826,-1.25677 z m 4.00832,26.94973 c 0.32836,-0.20804 1.35978,-0.10581 1.35978,0.13477 0,0.0558 -0.38696,0.0996 -0.8599,0.0974 -0.58463,-0.003 -0.74465,-0.0771 -0.49988,-0.23216 z M 165.5,154.4629 c 0,-1.98842 0.39662,-2.54724 1.46305,-2.06134 0.57591,0.2624 0.65362,0.4652 0.65362,1.70577 0,1.58936 -0.30548,2.04296 -1.37583,2.04296 -0.73395,0 -0.74084,-0.0157 -0.74084,-1.68739 z m 6.09473,1.17562 c -0.76874,-1.43639 0.0216,-3.55078 1.27304,-3.40593 0.6475,0.0749 0.70822,0.18851 0.78172,1.46238 0.0438,0.75962 -0.0496,1.62283 -0.20774,1.91823 -0.36922,0.68988 -1.48319,0.70515 -1.84702,0.0253 z m 17.18206,-0.16691 c -0.82797,-2.17773 0.55222,-4.3569 1.71134,-2.70203 0.83027,1.18539 0.29275,3.38071 -0.82777,3.38071 -0.42802,0 -0.70701,-0.21429 -0.88357,-0.67868 z"
         id="path876" /><path
         style="fill:#30abdb;stroke-width:0.264583"
         d="m 164.64011,156.92285 c -0.40596,-0.23645 -0.46302,-0.72457 -0.46302,-3.9607 v -3.69102 h 0.66146 c 0.59745,0 0.66145,0.10443 0.66145,1.07935 0,1.05566 0.017,1.07562 0.77444,0.90926 1.87805,-0.41248 3.18978,1.40612 2.66869,3.69993 -0.32762,1.44218 -1.3133,2.25119 -2.73028,2.24091 -0.61035,-0.004 -1.31808,-0.1294 -1.57274,-0.27773 z m 2.65906,-1.09006 c 0.17463,-0.17462 0.3175,-0.95108 0.3175,-1.72546 0,-1.24057 -0.0777,-1.44337 -0.65362,-1.70577 -1.06643,-0.4859 -1.46305,0.0729 -1.46305,2.06134 0,1.67171 0.007,1.68739 0.74084,1.68739 0.40746,0 0.88371,-0.14287 1.05833,-0.3175 z m 3.50863,0.91294 c -0.48677,-0.39417 -0.64971,-0.8276 -0.72951,-1.94054 -0.12725,-1.77486 0.27367,-2.60333 1.56616,-3.23635 0.77134,-0.37778 1.22308,-0.43252 2.11458,-0.25621 l 1.13368,0.22419 v 2.76976 c 0,2.31717 -0.0644,2.75548 -0.39446,2.68237 -0.50562,-0.11202 -0.97039,-0.0887 -2.12836,0.10655 -0.69718,0.11758 -1.09491,0.0285 -1.56209,-0.34977 z m 2.63395,-1.13253 c 0.15809,-0.2954 0.25158,-1.15861 0.20774,-1.91823 -0.0735,-1.27387 -0.13422,-1.38744 -0.78172,-1.46238 -1.25148,-0.14485 -2.04178,1.96954 -1.27304,3.40593 0.36383,0.67983 1.4778,0.66456 1.84702,-0.0253 z m 9.5004,0.82203 c -0.63192,-0.63192 -0.7734,-0.99732 -0.7734,-1.99751 0,-1.54932 0.54887,-2.61971 1.55755,-3.03752 1.4525,-0.60164 3.42333,0.27749 2.66648,1.18943 -0.23497,0.28312 -0.42314,0.32364 -0.61448,0.13229 -0.46796,-0.46796 -1.7142,-0.32185 -2.01274,0.23598 -0.40127,0.74978 -0.33436,1.92998 0.14849,2.61935 0.34252,0.48902 0.62512,0.5877 1.49454,0.5219 1.2699,-0.0961 1.65399,0.44289 0.6009,0.84327 -1.26374,0.48047 -2.24132,0.31883 -3.06734,-0.50719 z m 4.93866,-0.0406 c -1.31758,-1.56586 -0.74438,-4.4196 1.00358,-4.99647 1.88655,-0.62262 3.33853,0.4873 3.33853,2.55205 0,2.11813 -0.95792,3.25847 -2.73721,3.25847 -0.70242,0 -1.08187,-0.19247 -1.6049,-0.81405 z m 2.71214,-0.91819 c 0.42532,-0.93348 0.38366,-2.0094 -0.10482,-2.70681 -1.15912,-1.65487 -2.53931,0.5243 -1.71134,2.70203 0.35094,0.92305 1.39652,0.9258 1.81616,0.005 z m -14.29415,-1.31103 c -0.0817,-2.72999 -0.0727,-2.77867 0.51214,-2.77812 0.32742,2.6e-4 0.59531,0.11256 0.59531,0.24945 0,0.13689 0.32743,0.0781 0.72761,-0.13066 0.96926,-0.50562 1.47426,-0.4806 2.20252,0.10911 0.53433,0.43267 0.62144,0.78325 0.72314,2.91041 l 0.11563,2.41849 h -0.82612 -0.82611 v -2.22065 c 0,-2.38261 -0.27093,-2.84027 -1.34208,-2.267 -0.43808,0.23445 -0.51,0.57013 -0.51,2.3803 0,2.05661 -0.0155,2.10735 -0.64444,2.10735 -0.63667,0 -0.64544,-0.0335 -0.7276,-2.77868 z m -11.92328,-7.71529 c 0.18191,-0.0734 0.47956,-0.0734 0.66146,0 0.1819,0.0734 0.0331,0.13345 -0.33073,0.13345 -0.3638,0 -0.51263,-0.0601 -0.33073,-0.13345 z m 14.16025,-0.008 c 0.25743,-0.0671 0.61462,-0.0627 0.79375,0.01 0.17913,0.0725 -0.0315,0.12736 -0.46806,0.12197 -0.43656,-0.005 -0.58312,-0.0647 -0.32569,-0.13177 z m 10.31875,0 c 0.25743,-0.0671 0.61462,-0.0627 0.79375,0.01 0.17913,0.0725 -0.0315,0.12736 -0.46806,0.12197 -0.43656,-0.005 -0.58312,-0.0647 -0.32569,-0.13177 z m -12.27576,-0.80883 c -0.32911,-0.41965 -0.31975,-0.42901 0.0999,-0.0999 0.25466,0.19972 0.46302,0.40808 0.46302,0.46302 0,0.21776 -0.21727,0.0776 -0.56291,-0.36312 z m -11.83073,-1.12448 c 0,-0.3638 0.06,-0.51263 0.13345,-0.33073 0.0734,0.1819 0.0734,0.47956 0,0.66146 -0.0734,0.1819 -0.13345,0.0331 -0.13345,-0.33073 z m 33.91734,-1.5875 c 0,-1.23693 0.0456,-1.74295 0.10128,-1.12448 0.0557,0.61846 0.0557,1.63049 0,2.24896 -0.0557,0.61846 -0.10128,0.11244 -0.10128,-1.12448 z m -5.30483,0.26458 c 0,-0.80036 0.0496,-1.12779 0.11022,-0.7276 0.0606,0.40018 0.0606,1.05502 0,1.45521 -0.0606,0.40018 -0.11022,0.0728 -0.11022,-0.72761 z m -31.08515,0.34843 c 0.191,-0.0764 0.4192,-0.067 0.50712,0.0209 0.0879,0.0879 -0.0684,0.15046 -0.34726,0.13897 -0.30823,-0.0127 -0.37092,-0.0754 -0.15986,-0.15985 z m 2.45175,-1.5611 c 0.0127,-0.30823 0.0754,-0.37092 0.15985,-0.15986 0.0764,0.191 0.067,0.4192 -0.0209,0.50712 -0.0879,0.0879 -0.15046,-0.0684 -0.13897,-0.34726 z m -3.12916,-0.37483 c 0.0589,-0.21828 0.39534,-0.41886 0.74775,-0.44573 0.50522,-0.0385 0.52881,-0.0181 0.11157,0.0968 -0.29105,0.0801 -0.62753,0.28066 -0.74775,0.44572 -0.14443,0.19831 -0.18228,0.16548 -0.11157,-0.0968 z m 7.23924,-0.0484 c 0.0764,-0.12364 0.24977,-0.15631 0.38523,-0.0726 0.34618,0.21395 0.3072,0.29738 -0.13893,0.29738 -0.21188,0 -0.32272,-0.10116 -0.2463,-0.2248 z m 5.02708,0 c 0.0764,-0.12364 0.24977,-0.15631 0.38524,-0.0726 0.34617,0.21395 0.30719,0.29738 -0.13894,0.29738 -0.21188,0 -0.32271,-0.10116 -0.2463,-0.2248 z m 28.83958,0 c 0.0764,-0.12364 0.24977,-0.15631 0.38524,-0.0726 0.34618,0.21395 0.3072,0.29738 -0.13893,0.29738 -0.21189,0 -0.32272,-0.10116 -0.24631,-0.2248 z m -24.2889,-0.39691 c 0.19099,-0.0764 0.4192,-0.067 0.50712,0.0209 0.0879,0.0879 -0.0684,0.15046 -0.34727,0.13897 -0.30823,-0.0127 -0.37092,-0.0754 -0.15985,-0.15985 z m 10.58333,0 c 0.191,-0.0764 0.4192,-0.067 0.50712,0.0209 0.0879,0.0879 -0.0683,0.15046 -0.34727,0.13897 -0.30822,-0.0127 -0.37091,-0.0754 -0.15985,-0.15985 z m 13.01419,-0.18783 c 0,-0.0572 0.18478,-0.17489 0.41062,-0.26155 0.23546,-0.0904 0.34166,-0.046 0.24897,0.10398 -0.15538,0.25141 -0.65959,0.37186 -0.65959,0.15757 z m -17.39131,-0.60854 c 0.25743,-0.0671 0.61461,-0.0627 0.79375,0.01 0.17913,0.0725 -0.0315,0.12736 -0.46806,0.12197 -0.43656,-0.005 -0.58313,-0.0647 -0.32569,-0.13177 z m 2.33095,-1.55848 c 0.0127,-0.30823 0.0754,-0.37092 0.15985,-0.15986 0.0764,0.191 0.067,0.4192 -0.0209,0.50712 -0.0879,0.0879 -0.15045,-0.0683 -0.13897,-0.34726 z m -22.38986,-12.29477 c -7.30259,-6.95429 -7.52689,-7.19925 -7.54051,-8.23487 -0.0106,-0.80502 0.52183,-1.39885 6.2822,-7.00688 3.46157,-3.37003 6.37963,-6.07426 6.48457,-6.0094 0.10495,0.0649 -0.23975,0.67903 -0.76598,1.36482 -1.38841,1.80938 -2.93136,5.18054 -3.41649,7.4646 -0.58399,2.74958 -0.37939,7.67463 0.41769,10.05417 0.64981,1.93991 1.75238,4.03102 3.10398,5.88698 0.50339,0.69122 0.81056,1.25677 0.6826,1.25677 -0.12796,0 -2.48958,-2.14929 -5.24806,-4.77619 z m 18.10189,1.66734 c -0.32911,-0.41965 -0.31975,-0.42901 0.0999,-0.0999 0.25466,0.19972 0.46302,0.40808 0.46302,0.46302 0,0.21776 -0.21728,0.0776 -0.56292,-0.36312 z m 7.70667,-0.46302 c 0.49365,-0.50933 0.95708,-0.92605 1.02984,-0.92605 0.0728,0 -0.2716,0.41672 -0.76526,0.92605 -0.49365,0.50932 -0.95708,0.92604 -1.02984,0.92604 -0.0728,0 0.2716,-0.41672 0.76526,-0.92604 z m 7.01146,-6.74688 c 0.86401,-0.87312 1.63046,-1.5875 1.70322,-1.5875 0.0728,0 -0.57463,0.71438 -1.43864,1.5875 -0.86402,0.87313 -1.63047,1.5875 -1.70323,1.5875 -0.0728,0 0.57463,-0.71437 1.43865,-1.5875 z m -25.22594,0.26458 c 0,-0.3638 0.0601,-0.51263 0.13346,-0.33073 0.0734,0.18191 0.0734,0.47956 0,0.66146 -0.0734,0.1819 -0.13346,0.0331 -0.13346,-0.33073 z m 0.01,-5.95312 c 0.005,-0.43656 0.0647,-0.58313 0.13177,-0.3257 0.0671,0.25744 0.0627,0.61462 -0.01,0.79376 -0.0725,0.17913 -0.12736,-0.0315 -0.12197,-0.46806 z m 21.10084,-3.77031 -0.9118,-0.99219 0.99219,0.9118 c 0.5457,0.50149 0.99219,0.94797 0.99219,0.99218 0,0.20205 -0.2239,0.0117 -1.07258,-0.91179 z m -6.0092,-5.63016 c -0.47524,-0.43229 -0.7654,-0.78599 -0.64482,-0.78599 0.1206,0 0.56147,0.35719 0.97972,0.79375 0.97245,1.01501 0.78469,1.01067 -0.3349,-0.008 z"
         id="path874" /><path
         style="fill:#315ca2;stroke-width:0.264583"
         d="m 154.3875,146.34231 c -2.56221,-1.07114 -3.35865,-4.68131 -1.54218,-6.99058 0.61115,-0.77694 1.95741,-1.45769 2.88276,-1.45769 1.68696,0 3.48239,1.80868 2.89148,2.91281 -0.15506,0.28973 -0.44175,0.52678 -0.63709,0.52678 -0.54629,0 -1.01118,-0.71062 -0.83273,-1.27287 0.21969,-0.69218 -0.42884,-1.16251 -1.46202,-1.06029 -2.92143,0.28904 -2.67321,6.56649 0.25964,6.56649 0.88201,0 1.21827,-0.35644 1.21827,-1.29136 0,-0.90906 0.78539,-1.34393 1.37049,-0.75883 0.57919,0.57918 0.25169,1.64108 -0.73194,2.37327 -0.82131,0.61137 -2.50347,0.83403 -3.41668,0.45227 z m 6.57509,-0.0157 c -0.81344,-0.29808 -1.41252,-1.52363 -1.14965,-2.35185 0.22842,-0.71971 1.83904,-1.41318 2.82443,-1.21611 0.64335,0.12869 0.74597,0.0664 0.74597,-0.45272 0,-1.28699 -1.42006,-1.71178 -1.85941,-0.55622 -0.3135,0.82457 -1.14437,0.77677 -1.26585,-0.0728 -0.11724,-0.82002 1.27554,-1.50648 2.67555,-1.3187 1.55139,0.20808 1.82904,0.6272 1.90127,2.86998 0.078,2.42351 0.059,2.33875 0.52451,2.33875 0.23669,0 0.32904,0.15512 0.23627,0.39688 -0.16722,0.43579 -1.55738,0.54989 -1.80563,0.1482 -0.0911,-0.1474 -0.525,-0.0935 -1.06545,0.13229 -0.50147,0.20953 -0.94536,0.37156 -0.98641,0.36008 -0.0411,-0.0115 -0.39008,-0.13648 -0.7756,-0.27775 z m 2.10325,-1.07719 c 0.91524,-0.91525 -0.10268,-2.15931 -1.26001,-1.53993 -0.90971,0.48686 -0.52662,1.85743 0.51917,1.85743 0.23284,0 0.56621,-0.14287 0.74084,-0.3175 z m 31.87139,1.17532 c -0.96373,-0.16295 -1.39139,-1.06224 -1.39139,-2.92584 0,-1.46317 -0.0699,-1.70395 -0.52917,-1.82407 -0.29104,-0.0761 -0.52917,-0.22897 -0.52917,-0.33971 0,-0.31266 0.60619,-0.73473 1.19063,-0.82901 0.95869,-0.15464 1.19062,0.24493 1.19062,2.05111 0,2.03411 0.30839,2.74512 1.19063,2.74512 0.82077,0 1.19062,-0.69579 1.19062,-2.23987 0,-0.8371 -0.12373,-1.26381 -0.39687,-1.36862 -1.01738,-0.3904 0.12897,-1.5083 1.2469,-1.21596 0.40637,0.10627 0.47289,0.43358 0.47289,2.32676 0,1.91109 0.0709,2.25276 0.53494,2.57779 0.41903,0.29349 0.46203,0.43306 0.19844,0.64408 -0.6462,0.51732 -1.44459,0.62012 -1.77009,0.22791 -0.2637,-0.31774 -0.4611,-0.32727 -1.16184,-0.0561 -0.46428,0.17966 -1.111,0.28155 -1.43714,0.22641 z m -28.49266,-0.29867 c -0.0797,-0.12903 0.0323,-0.38174 0.24897,-0.56157 0.5671,-0.47064 0.56453,-3.96633 -0.003,-3.96633 -0.61651,0 -0.46716,-0.7836 0.19844,-1.04118 0.4008,-0.1551 0.78189,-0.1123 1.16636,0.13102 0.48713,0.30829 0.61825,0.30452 0.89229,-0.0257 0.41368,-0.49845 1.16008,-0.49541 1.57657,0.006 0.69478,0.83716 -0.47908,1.66461 -1.25737,0.88632 -0.43204,-0.43202 -0.8565,0.77334 -0.8565,2.43227 0,1.03156 0.10961,1.35504 0.53658,1.58355 0.29512,0.15794 0.46668,0.40025 0.38126,0.53847 -0.19626,0.31756 -2.68883,0.332 -2.88369,0.0167 z m 5.02709,0 c -0.0798,-0.12903 0.0323,-0.38174 0.24897,-0.56157 0.56709,-0.47064 0.56452,-3.96633 -0.003,-3.96633 -0.61645,0 -0.46719,-0.78353 0.19844,-1.04169 0.3906,-0.15149 0.77273,-0.11774 1.11124,0.0982 0.4216,0.26888 0.6497,0.25226 1.24769,-0.0909 0.67253,-0.38598 0.76757,-0.38418 1.1739,0.0222 0.24318,0.24317 0.37006,0.62995 0.28197,0.85952 -0.18767,0.48904 -0.99592,0.55075 -1.43695,0.10972 -0.43204,-0.43203 -0.8565,0.77333 -0.8565,2.43226 0,1.03156 0.10961,1.35504 0.53658,1.58355 0.29512,0.15794 0.46669,0.40025 0.38126,0.53847 -0.19626,0.31756 -2.68882,0.332 -2.88368,0.0167 z m 5.40041,-0.493 c -2.21241,-1.99447 -0.37952,-5.78666 2.53282,-5.24031 1.08074,0.20275 2.02575,1.31183 1.91655,2.24928 -0.0754,0.6471 -0.16053,0.67924 -1.99696,0.75366 -2.09162,0.0848 -2.38793,0.3786 -1.38906,1.37747 0.56124,0.56124 2.22215,0.73607 2.51354,0.26458 0.23687,-0.38325 0.66146,-0.32466 0.66146,0.0913 0,0.70318 -0.94372,1.23163 -2.19947,1.23163 -0.97169,0 -1.40218,-0.15362 -2.03888,-0.7276 z m 2.91543,-3.51141 c 0,-0.3135 -0.27328,-0.65935 -0.66038,-0.83572 -0.54566,-0.24862 -0.7525,-0.21753 -1.19062,0.17897 -0.8853,0.80118 -0.66894,1.19159 0.66038,1.19159 1.01844,0 1.19062,-0.0773 1.19062,-0.53484 z m 2.38125,3.84214 c 0,-0.21829 0.11907,-0.39688 0.26459,-0.39688 0.15434,0 0.26458,-0.88194 0.26458,-2.11667 0,-1.70509 -0.0772,-2.11666 -0.39687,-2.11666 -0.21829,0 -0.39688,-0.1786 -0.39688,-0.39688 0,-0.21828 0.16338,-0.39687 0.36306,-0.39687 0.21631,0 0.42858,-0.40974 0.52515,-1.0137 0.0892,-0.55753 0.3948,-1.22428 0.6792,-1.48166 0.58622,-0.53052 2.06102,-0.61581 2.89846,-0.16763 0.61527,0.32929 0.77277,1.47024 0.23049,1.66966 -0.54016,0.19864 -0.99219,-0.075 -0.99219,-0.60061 0,-0.60289 -0.3436,-0.84191 -0.90217,-0.62757 -0.28491,0.10933 -0.42075,0.494 -0.42075,1.19148 0,0.97427 0.0442,1.03003 0.8158,1.03003 1.01229,0 0.92146,0.62323 -0.1086,0.74518 -0.69591,0.0824 -0.7072,0.11525 -0.7072,2.05882 0,1.51157 0.0931,2.01085 0.39688,2.1274 0.21828,0.0838 0.39687,0.31815 0.39687,0.52086 0,0.27036 -0.38775,0.36857 -1.45521,0.36857 -1.11713,0 -1.45521,-0.0922 -1.45521,-0.39687 z m 5.1242,-0.072 c -1.90028,-1.53929 -1.36417,-4.68649 0.91464,-5.36924 2.27005,-0.68012 4.16153,0.8547 3.92355,3.18372 -0.17121,1.67565 -1.29028,2.65667 -3.02125,2.64854 -0.78526,-0.004 -1.46315,-0.17644 -1.81694,-0.46302 z m 2.93059,-0.91289 c 0.85122,-1.21527 0.11894,-3.90988 -1.06253,-3.90988 -0.76849,0 -1.43601,1.01804 -1.43601,2.19009 0,1.3653 0.59432,2.30783 1.45521,2.30783 0.35259,0 0.81335,-0.25969 1.04333,-0.58804 z m 10.0877,1.14719 c -0.0797,-0.12903 0.0323,-0.38174 0.24897,-0.56157 0.58249,-0.48342 0.5629,-3.96633 -0.0223,-3.96633 -0.61256,0 -0.35096,-0.82727 0.34255,-1.08329 0.41119,-0.15179 0.71272,-0.092 1.0038,0.19908 0.37834,0.37835 0.45885,0.37732 0.8883,-0.0113 0.56053,-0.50728 1.13093,-0.54724 1.56829,-0.10988 0.42041,0.42041 0.4009,0.61963 -0.11082,1.13136 -0.39471,0.3947 -0.46574,0.39446 -0.90499,-0.003 -0.44303,-0.40094 -0.49681,-0.39372 -0.7623,0.10235 -0.44733,0.83584 -0.36718,3.46425 0.11123,3.64783 0.21828,0.0838 0.39688,0.31815 0.39688,0.52087 0,0.2653 -0.36627,0.36856 -1.3073,0.36856 -0.71902,0 -1.37255,-0.10557 -1.4523,-0.2346 z m -23.89937,-14.47525 c -2.82665,-1.44145 -4.64335,-8.16256 -4.17681,-15.45265 0.62661,-9.79111 3.89356,-13.65991 9.3456,-11.0673 1.16828,0.55555 2.08701,1.82785 1.74025,2.40997 -0.10581,0.17762 -0.54454,0.76598 -0.97495,1.30745 -2.07404,2.60919 -0.57143,6.28753 2.56969,6.29056 3.59134,0.003 4.77829,-4.80292 2.16231,-8.75594 -1.48901,-2.25005 -0.318,-1.22542 9.70564,8.49234 3.67195,3.55991 3.92643,2.84764 -3.65739,10.23646 -3.47999,3.39049 -6.41429,6.16525 -6.52068,6.16612 -0.10639,8e-4 0.2324,-0.77311 0.75285,-1.71996 1.59723,-2.9058 1.51975,-5.95042 -0.18799,-7.38739 -2.36719,-1.99185 -5.79539,-0.33287 -5.79539,2.80452 0,1.09255 0.51277,2.15405 1.97701,4.09271 0.36467,0.48282 -0.56985,1.65059 -1.85434,2.31718 -1.38794,0.72027 -3.9338,0.8534 -5.0858,0.26593 z"
         id="path872" /></g></g></svg>
