<?xml version="1.0" encoding="UTF-8" standalone="no"?>
<svg
   width="350"
   height="350"
   version="1.1"
   id="svg6"
   sodipodi:docname="meliuz.svg"
   inkscape:version="1.1.1 (3bf5ae0d25, 2021-09-20)"
   xmlns:inkscape="http://www.inkscape.org/namespaces/inkscape"
   xmlns:sodipodi="http://sodipodi.sourceforge.net/DTD/sodipodi-0.dtd"
   xmlns="http://www.w3.org/2000/svg"
   xmlns:svg="http://www.w3.org/2000/svg">
  <defs
     id="defs10" />
  <sodipodi:namedview
     id="namedview8"
     pagecolor="#ffffff"
     bordercolor="#666666"
     borderopacity="1.0"
     inkscape:pageshadow="2"
     inkscape:pageopacity="0.0"
     inkscape:pagecheckerboard="0"
     showgrid="false"
     inkscape:zoom="1.2244164"
     inkscape:cx="-80.038131"
     inkscape:cy="230.72216"
     inkscape:window-width="2560"
     inkscape:window-height="1017"
     inkscape:window-x="-8"
     inkscape:window-y="-8"
     inkscape:window-maximized="1"
     inkscape:current-layer="svg6" />
  <path
     style="fill:#ff3859;fill-opacity:1;stroke-width:0.6;paint-order:markers stroke fill"
     d="M 0,0 H 350 V 350 H 0 Z"
     id="path2" />
  <path
     d="m 286.14848,203.42025 c 8.843,0 13.265,2.064 20.93,5.011 4.126,1.474 0,-4.127 -2.948,-6.78 -3.538,-2.358 -6.19,-4.127 -12.971,-5.306 -6.78,-1.179 -14.74,-1.768 -22.404,0.59 5.896,-7.665 10.907,-11.497 20.34,-17.982 l 6.78,-4.127 c 3.538,-2.358 5.012,-4.717 3.243,-10.612 -5.011,-1.18 -10.023,-1.77 -15.034,-2.064 l 1.18,-8.254 c 0.294,-1.474 -3.833,-1.769 -5.307,-0.59 -1.474,1.18 -2.063,4.717 -2.358,8.844 -6.78,0 -13.265,0.885 -19.456,2.064 -3.537,0.59 -2.948,2.948 -2.948,4.716 0,1.769 2.358,3.832 4.717,3.538 11.791,-2.948 20.34,-2.359 26.53,-1.474 -5.6,3.537 -12.38,8.254 -16.508,11.791 -6.19,5.306 -9.433,8.844 -12.97,15.034 -0.59,0.885 -2.064,3.538 -1.474,5.896 0.59,2.063 1.769,3.537 2.948,3.243 2.063,0 10.317,-2.654 20.045,-3.538 l -0.295,9.728 c 0,1.769 4.422,1.769 5.896,0 1.769,-1.474 2.064,-5.306 2.064,-9.728 z m -37.438,-39.501 c -0.59,-0.59 -2.948,-1.18 -4.422,-1.474 -2.358,0 -4.127,0.884 -4.422,2.948 -0.884,6.78 -1.179,16.803 -2.358,25.057 -1.18,8.843 -6.485,11.79 -10.023,11.201 -5.895,-1.179 -7.37,-7.664 -7.074,-17.687 0.294,-10.612 3.537,-20.93 1.768,-21.52 -7.664,-1.473 -12.97,8.55 -12.38,26.532 0,9.728 2.947,18.571 12.38,22.109 8.844,3.242 17.687,-4.422 18.572,-7.37 l 0.884,7.664 c 0.884,1.474 4.422,0 5.896,-0.884 1.768,-0.59 2.948,-1.769 2.653,-3.832 -1.18,-10.023 -1.18,-15.624 -1.18,-25.941 v -16.803 z m -54.83,-8.549 a 5.896,5.896 0 0 0 3.537,3.832 c 1.474,0.59 2.653,0.59 3.832,0.295 l 2.359,-0.884 0.884,-0.59 c 2.064,-0.59 3.538,-3.242 2.948,-5.6 -0.59,-2.654 -3.537,-3.833 -7.96,-2.654 -4.126,1.18 -6.19,2.948 -5.895,5.896 z m -2.358,53.651 c 0.59,2.358 3.242,3.537 6.485,2.948 2.948,0 5.306,-1.18 5.306,-2.948 l -1.18,-8.549 c -1.768,-10.907 -1.768,-20.93 0,-31.247 0.59,-2.063 -1.473,-3.832 -3.831,-4.422 -2.948,-0.59 -5.306,0.885 -5.896,3.832 -1.769,8.844 -2.653,25.647 -0.884,40.386 z m -57.189,-49.819 a 170.975,170.975 0 0 1 4.422,-2.653 l 7.37,-4.127 c 3.537,-2.358 2.653,-6.19 -1.77,-7.37 -3.831,-0.884 -18.276,10.318 -17.686,13.56 0,3.243 3.242,3.243 7.664,0.59 z m 51.293,1.769 c 4.716,-16.508 2.948,-39.501 -5.896,-41.86 -8.843,-2.063 -18.277,15.33 -20.045,30.658 a 103.175,103.175 0 0 0 1.179,35.374 c 0,1.474 0.59,2.064 1.179,5.012 -2.948,5.895 -12.38,13.56 -21.225,13.56 -7.664,0 -11.79,-5.601 -12.675,-11.792 h 5.895 c 3.538,-0.294 6.78,-0.884 10.023,-2.358 6.78,-3.242 10.612,-10.023 8.844,-15.918 -1.769,-5.306 -5.306,-8.844 -11.792,-10.318 a 21.814,21.814 0 0 0 -24.467,16.508 c -2.948,12.086 2.948,27.415 13.265,31.542 8.55,3.538 16.508,2.359 23.583,-2.063 a 35.374,35.374 0 0 0 11.202,-11.202 c 5.011,10.023 11.202,20.635 23.583,27.71 17.687,10.022 38.912,4.422 48.64,-6.486 0.884,-0.884 0.59,-2.063 -0.59,-2.358 l -2.358,0.59 c -0.885,0 -21.225,10.022 -40.091,2.653 -10.023,-4.127 -19.456,-17.687 -22.11,-28.005 7.37,-10.612 9.729,-17.097 13.856,-31.247 z m -45.987,20.93 a 18.571,18.571 0 0 1 -12.675,3.832 c 0,-3.243 0.294,-5.896 0.884,-7.664 1.474,-6.486 6.485,-9.728 11.791,-7.96 4.717,1.77 5.012,7.665 0,11.792 z m 31.542,-30.953 c 2.064,-9.138 5.307,-15.918 7.075,-16.213 1.474,0 2.359,2.064 2.359,5.896 0,4.127 -0.59,9.728 -2.064,15.918 a 94.331,94.331 0 0 1 -8.844,26.53 c -2.358,-10.611 -0.884,-21.224 1.474,-32.425 z m -92.857003,53.651 c 2.948,-1.179 3.537,-4.127 3.537,-6.78 0.885,-10.612 8.844,-32.426 16.803,-41.27 0,-0.884 -4.422,22.699 -2.948,35.67 2.064,12.97 7.665003,29.478 29.479003,33.31 5.011,0.884 10.907,-0.884 11.202,-2.063 0.295,-1.474 -2.948,-1.474 -7.075,-2.654 -11.792,-3.242 -18.277,-11.791 -21.52,-23.877 -3.537,-12.381 -1.179,-34.785 1.474,-46.281 0.295,-2.359 2.064,-4.717 2.948,-7.37 0.295,-1.474 -0.294,-2.948 -2.063,-2.948 -1.18,-0.59 -2.948,-0.295 -4.717,0 -3.537,0.884 -9.728003,4.717 -15.329003,12.381 a 141.497,141.497 0 0 0 -12.97,25.941 208.708,208.708 0 0 1 -5.896,-38.912 c 0.59,-5.895 1.769,-5.6 2.064,-8.548 0.294,-4.422 -0.59,-7.37 -4.422,-7.96 -3.538,-0.294 -6.78,1.77 -8.844,5.012 -2.358,2.948 -7.664,13.56 -12.38,36.553 -4.717,22.993 -6.486,40.975 -6.486,45.692 0,5.011 1.474,7.664 5.306,7.96 4.127,0.294 7.37,-2.064 7.37,-5.897 a 239.366,239.366 0 0 1 7.96,-65.737 188.663,188.663 0 0 0 10.022,54.24 c 1.179,3.243 3.537,5.012 6.78,3.833 z"
     style="fill:#ffffff;fill-rule:evenodd;stroke-width:5.95131"
     id="path4" />
</svg>
