<svg width="30" height="31" viewBox="0 0 30 31" fill="none" xmlns="http://www.w3.org/2000/svg">
<path d="M14.4727 1.63477C14.1152 1.75195 13.875 1.92773 13.2891 2.50195L12.668 3.12305L11.8535 2.90039C11.1914 2.72461 10.9746 2.68945 10.6641 2.71289C10.1777 2.74805 9.77344 2.93555 9.42773 3.28711C9.11133 3.61523 9.06445 3.71484 8.79492 4.70508L8.58398 5.4668L7.79297 5.67773C6.66211 5.98242 6.30469 6.2168 6 6.87891C5.75977 7.40039 5.75977 7.67578 6.01172 8.66602L6.23438 9.55078L5.60742 10.1836C4.83984 10.9629 4.7168 11.1973 4.7168 11.8652C4.7168 12.5449 4.875 12.8438 5.63086 13.623L6.22852 14.2383L6.01172 15.0703C5.76562 16.043 5.75977 16.1426 5.92383 16.6758C6.02344 17.0039 6.10547 17.127 6.375 17.4023C6.74414 17.7656 6.87891 17.8301 7.91602 18.1055L8.58984 18.2871L8.7832 19.0312C8.89453 19.4414 9.0293 19.875 9.09375 19.998C9.26953 20.3555 9.5918 20.666 9.97266 20.8594C10.4707 21.1055 10.916 21.0996 11.8945 20.8359L12.627 20.6426L13.2539 21.252C14.0332 22.0078 14.3438 22.1719 15 22.1719C15.6562 22.1719 15.9668 22.0078 16.7461 21.252L17.373 20.6426L18.1055 20.8418C19.3477 21.1816 20.0508 21.0586 20.6309 20.4023C20.8828 20.1152 21 19.8281 21.2461 18.9199L21.4102 18.293L22.2012 18.0762C22.6406 17.959 23.1094 17.8008 23.2441 17.7188C23.625 17.4961 23.9473 17.0859 24.082 16.6523C24.2402 16.1543 24.2285 16.0137 24.0176 15.1992C23.9121 14.8125 23.8184 14.4434 23.8008 14.3672C23.7773 14.2617 23.8887 14.1152 24.3691 13.623C25.125 12.8438 25.2832 12.5391 25.2832 11.8652C25.2832 11.1973 25.1602 10.9629 24.3926 10.1836L23.7656 9.55078L23.9883 8.66602C24.2402 7.67578 24.2402 7.40039 24 6.87891C23.6953 6.2168 23.3379 5.98242 22.207 5.67773L21.416 5.4668L21.2051 4.70508C20.9355 3.71484 20.8887 3.61523 20.5723 3.28711C20.2266 2.93555 19.8223 2.74805 19.3359 2.71289C19.0254 2.68945 18.8086 2.72461 18.1465 2.90039L17.332 3.12305L16.7109 2.50195C15.9492 1.75195 15.7266 1.62891 15.0879 1.60547C14.8301 1.59375 14.5547 1.60547 14.4727 1.63477ZM18.5508 8.70703C18.6621 8.75977 18.8086 8.88281 18.8789 8.97656C19.0078 9.16406 19.0781 9.56836 19.0195 9.81445C18.9844 9.94922 15.4688 14.2441 14.918 14.8125C14.625 15.1172 14.3438 15.2109 13.9922 15.1172C13.7754 15.0586 13.5469 14.8535 12.4336 13.752C11.7129 13.0371 11.0859 12.3809 11.0391 12.293C10.8516 11.9355 10.9922 11.3613 11.3203 11.1211C11.5137 10.9863 11.918 10.9219 12.1699 10.9863C12.2695 11.0098 12.6738 11.3613 13.2422 11.9297L14.1504 12.832L15.8203 10.834C16.7344 9.73242 17.5605 8.7832 17.6602 8.72461C17.8828 8.58984 18.2812 8.57812 18.5508 8.70703Z" fill="white"/>
<path d="M6.35156 19.0078C6.16992 19.5586 4.62891 25.5234 4.62891 25.6992C4.62891 26.1211 4.99805 26.5254 5.42578 26.584C5.625 26.6074 5.95312 26.5078 7.44727 25.9629C8.42578 25.6055 9.26367 25.3125 9.29883 25.3125C9.33398 25.3125 9.91406 25.9687 10.5879 26.7773C11.3555 27.7031 11.8711 28.2715 11.9883 28.3301C12.4043 28.5293 12.9199 28.3887 13.1895 28.0078C13.2773 27.8848 14.502 23.4375 14.4609 23.4082C14.4492 23.4023 14.2734 23.3496 14.0684 23.291C13.5996 23.1504 13.084 22.8281 12.627 22.377L12.2754 22.0371L11.8359 22.1484C10.5645 22.4766 9.52148 22.248 8.67773 21.4687C8.14453 20.9766 7.9043 20.543 7.64648 19.6113C7.57617 19.377 7.52344 19.2773 7.45312 19.2715C7.40039 19.2715 7.13086 19.1953 6.86719 19.1074C6.55078 19.002 6.36914 18.9668 6.35156 19.0078Z" fill="white"/>
<path d="M23.3203 19.0488C23.1739 19.1074 22.916 19.1836 22.752 19.2246L22.4473 19.2949L22.3535 19.623C22.0957 20.5371 21.8555 20.9766 21.3223 21.4687C20.4785 22.2539 19.3887 22.4824 18.1582 22.1426L17.7422 22.0254L17.3203 22.4297C16.8399 22.8867 16.418 23.1445 15.9082 23.2969C15.7149 23.3555 15.5508 23.4082 15.5391 23.4141C15.4922 23.4375 16.7227 27.8848 16.8106 28.0078C17.0801 28.3887 17.5957 28.5293 18.0117 28.3301C18.1289 28.2715 18.6446 27.7031 19.4121 26.7773C20.086 25.9687 20.666 25.3125 20.7129 25.3125C20.7539 25.3125 21.5508 25.5937 22.4766 25.9395C24.3399 26.6309 24.6211 26.6895 24.9434 26.4492C25.2071 26.25 25.3711 25.9687 25.3711 25.6992C25.3711 25.4766 23.6953 19.0605 23.6192 18.9785C23.6016 18.9609 23.4668 18.9902 23.3203 19.0488Z" fill="white"/>
</svg>
