<svg width="30" height="30" viewBox="0 0 30 30" fill="none" xmlns="http://www.w3.org/2000/svg">
<g clip-path="url(#clip0_6_214)">
<path d="M21.8965 0.0878925C20.543 0.345705 19.4356 0.949221 18.4922 1.93946C17.3613 3.12305 16.8164 4.48828 16.8164 6.14062C16.8164 6.91992 16.9102 7.49414 17.1504 8.19727C17.2324 8.43164 17.2734 8.64258 17.2441 8.66602C17.1973 8.70703 15.2227 9.96094 15.0762 10.043C15.0352 10.0664 14.7481 9.81445 14.3731 9.44531C13.1895 8.26172 11.8535 7.54102 10.2539 7.22461C9.46876 7.06641 7.9922 7.08398 7.2129 7.25977C3.9668 7.98047 1.56446 10.4824 1.0254 13.7051C0.873055 14.6074 0.92579 16.043 1.14259 16.875C1.41212 17.918 1.88673 18.8965 2.51954 19.7344C2.85938 20.1855 3.4336 20.7891 3.47462 20.7363C3.48634 20.7246 3.60938 20.5488 3.74415 20.3438C4.64063 19.0137 6.18751 18.0059 7.72266 17.748C8.41993 17.6367 8.44337 17.625 8.11524 17.5664C7.95704 17.5371 7.57618 17.3965 7.28321 17.25C6.35743 16.8047 5.67774 15.9844 5.41993 15C5.3086 14.584 5.3086 13.6582 5.41993 13.2422C5.75977 11.9648 6.79688 10.9688 8.08595 10.6875C9.90821 10.2949 11.7363 11.4258 12.2168 13.2422C12.3281 13.6582 12.3281 14.584 12.2168 15C12.0117 15.7852 11.4727 16.5527 10.8164 16.998C10.418 17.2676 9.6504 17.5781 9.37501 17.5781C9.25782 17.5781 9.2461 17.5898 9.31641 17.6367C9.36329 17.666 9.48634 17.6953 9.58595 17.6953C10.166 17.6953 11.502 18.1934 12.2285 18.668C12.7266 18.9961 13.5469 19.8105 13.8691 20.2969C14.0215 20.5254 14.1563 20.7246 14.168 20.7422C14.1797 20.7598 14.2676 20.6836 14.3613 20.5781L14.5313 20.3848L16.7461 22.0547C17.959 22.9688 18.9492 23.7422 18.9434 23.7656C18.9375 23.7949 18.8613 24.0176 18.7734 24.2578C18.5449 24.8906 18.5098 25.9629 18.6856 26.6602C19.0078 27.9375 19.8281 28.9512 21.0059 29.5313C22.3711 30.2051 23.8945 30.1406 25.2422 29.3496C25.6992 29.0742 26.4141 28.3535 26.707 27.8613C27.1113 27.1758 27.2637 26.6367 27.293 25.7754C27.3164 25.1602 27.2988 24.9609 27.1934 24.5508C26.8711 23.2793 26.0508 22.2598 24.8731 21.6797C24.1816 21.334 23.7656 21.2402 22.9395 21.2461C21.9199 21.2461 21.1172 21.5098 20.3438 22.0898L20.0332 22.3242L17.8184 20.6543L15.6035 18.9844L15.8906 18.416C16.4531 17.2852 16.6992 16.2539 16.6992 15C16.6992 13.8867 16.5176 12.9785 16.1074 12.0059C16.0078 11.7773 15.9375 11.584 15.9492 11.5781C16.4414 11.2559 18.2227 10.1367 18.2402 10.1367C18.252 10.1367 18.4512 10.3184 18.6856 10.5469C19.4824 11.3145 20.4316 11.8477 21.5391 12.1348C21.9785 12.252 22.2012 12.2695 22.9688 12.2695C23.7539 12.2637 23.9531 12.2461 24.4453 12.1113C25.5996 11.8066 26.5664 11.2324 27.3867 10.3652C28.5176 9.17578 29.0625 7.81055 29.0625 6.15234C29.0625 4.49414 28.5176 3.12891 27.3867 1.93946C26.5606 1.07227 25.582 0.492189 24.4453 0.193361C23.7188 0.00586128 22.5762 -0.0410137 21.8965 0.0878925Z" fill="white"/>
<path d="M8.24414 12.4629C7.86914 12.5918 7.40039 13.0137 7.23047 13.3887C7.03711 13.7988 7.03711 14.4434 7.23047 14.8535C7.5 15.4395 8.18555 15.8789 8.81836 15.8789C9.45117 15.8789 10.1367 15.4395 10.4062 14.8535C10.5996 14.4434 10.5996 13.7988 10.4062 13.3887C10.0371 12.5918 9.08789 12.1816 8.24414 12.4629Z" fill="white"/>
<path d="M7.93945 19.4941C7.10156 19.6699 6.33984 20.0859 5.72461 20.7012C5.4082 21.0176 4.92188 21.6914 4.92188 21.8086C4.92188 21.8848 5.91797 22.3477 6.45117 22.5176C7.32422 22.8047 7.81641 22.8809 8.81836 22.8809C9.88477 22.875 10.6055 22.752 11.4844 22.4121C12.1055 22.1777 12.7148 21.873 12.7148 21.8027C12.7148 21.7734 12.5801 21.5508 12.4219 21.3047C11.4551 19.8633 9.63867 19.1309 7.93945 19.4941Z" fill="white"/>
</g>
<defs>
<clipPath id="clip0_6_214">
<rect width="30" height="30" fill="white"/>
</clipPath>
</defs>
</svg>
