<svg width="30" height="30" viewBox="0 0 30 30" fill="none" xmlns="http://www.w3.org/2000/svg">
<path d="M14.1445 2.92969C12.3164 3.16992 10.7226 4.47656 10.1367 6.22266C9.06443 9.42188 11.4199 12.7148 14.7832 12.7148C15.7969 12.7148 16.6875 12.4453 17.5136 11.8887C18.1054 11.4902 18.457 11.1445 18.8613 10.5527C19.4004 9.76758 19.6875 8.82422 19.6875 7.83398C19.6875 6.43359 19.1601 5.20313 18.1406 4.23633C17.3906 3.52149 16.4179 3.06445 15.3515 2.93555C14.8066 2.86524 14.666 2.86524 14.1445 2.92969Z" fill="white"/>
<path d="M11.3672 12.791C10.8867 12.8848 9.88477 13.1894 9.30469 13.4238C8.13867 13.8867 6.78516 14.6484 6.45117 15.0293C6.02344 15.5156 5.98242 15.6797 5.36133 19.2773C4.96875 21.5508 4.91602 21.9141 4.97461 22.1191C5.09766 22.5762 5.23828 22.7051 6.32813 23.4375C6.91407 23.8301 7.42969 24.1641 7.47657 24.1816C7.54688 24.2051 7.5586 23.7305 7.5586 20.7305V17.25L7.71094 16.9394C7.89844 16.5644 8.21485 16.3183 8.63086 16.2305C8.84766 16.1836 10.6875 16.1719 14.9707 16.1836L21.0059 16.2012L21.2402 16.3301C21.5449 16.4941 21.7617 16.7285 21.9082 17.0508C22.0254 17.3086 22.0313 17.4199 22.0313 20.666C22.0313 22.5117 22.0488 24.0234 22.0664 24.0234C22.0898 24.0234 22.6172 23.7012 23.2441 23.3086C24.4805 22.5293 24.6094 22.4062 24.6094 21.9668C24.6094 21.8262 24.3867 20.4082 24.1172 18.8203C23.5781 15.6621 23.543 15.5332 23.0625 15.0058C22.377 14.2617 20.1328 13.2129 18.4277 12.8379L17.959 12.7324L17.5488 12.9551C15.9141 13.8398 13.9102 13.8691 12.2109 13.0254C11.666 12.7558 11.6133 12.7383 11.3672 12.791Z" fill="white"/>
<path d="M8.51367 16.9395C8.13867 17.1797 8.14453 17.1094 8.14453 21.3867V25.2539H6.97266H5.80078V25.541C5.80078 25.8867 5.97656 26.1738 6.26953 26.3203C6.46289 26.4199 6.99023 26.4258 14.7949 26.4258C22.5996 26.4258 23.127 26.4199 23.3145 26.3203C23.6016 26.1738 23.7305 25.9688 23.7715 25.5879L23.8066 25.2539H22.6289H21.4512L21.4336 21.3105C21.416 17.5723 21.4102 17.3613 21.3047 17.1914C21.0645 16.793 21.5215 16.8164 14.7832 16.8164C8.77734 16.8164 8.70117 16.8223 8.51367 16.9395ZM15.5098 19.7227C15.6504 19.7754 15.7617 19.834 15.7617 19.8574C15.7617 19.8984 14.3672 23.2734 14.3379 23.3027C14.3262 23.3145 14.1914 23.2676 14.0449 23.2031C13.8281 23.1035 13.7812 23.0625 13.8164 22.9805C14.1387 22.1602 15.2109 19.6289 15.2285 19.6289C15.2461 19.6289 15.375 19.6699 15.5098 19.7227ZM13.0078 19.8926L13.207 20.0977L12.5684 20.7422L11.9238 21.3867L12.5684 22.0312L13.2129 22.6758L12.9902 22.8926L12.7734 23.1152L11.9121 22.248L11.0449 21.3867L11.8945 20.5371C12.3633 20.0684 12.7559 19.6875 12.7734 19.6875C12.7969 19.6875 12.8965 19.7812 13.0078 19.8926ZM17.6953 20.5371L18.5449 21.3867L17.6777 22.248L16.8164 23.1152L16.5996 22.8926L16.377 22.6758L17.0215 22.0312L17.666 21.3867L17.0215 20.7422L16.3828 20.0977L16.582 19.8926C16.6934 19.7812 16.793 19.6875 16.8164 19.6875C16.834 19.6875 17.2266 20.0684 17.6953 20.5371Z" fill="white"/>
</svg>
