<svg width="30" height="30" viewBox="0 0 30 30" fill="none" xmlns="http://www.w3.org/2000/svg">
<path fill-rule="evenodd" clip-rule="evenodd" d="M27.6047 6.44806C27.6572 6.7319 27.6878 7.02414 27.6878 7.32281C27.6878 7.62198 27.6572 7.91323 27.6042 8.19805L28.7599 8.86561C28.48 9.92975 27.9242 10.8826 27.1641 11.6352L26.0056 10.9662C25.5635 11.3445 25.0512 11.6417 24.4909 11.8395V13.1766C23.9811 13.3155 23.4461 13.3966 22.8927 13.3966C22.3394 13.3966 21.8054 13.316 21.2946 13.1766V11.8395C20.7343 11.6417 20.2225 11.345 19.7799 10.9662L18.6213 11.6352C17.8623 10.8831 17.306 9.92975 17.0256 8.86561L18.1817 8.19805C18.1293 7.91422 18.0982 7.62247 18.0982 7.32331C18.0982 7.02414 18.1293 6.73289 18.1817 6.44856L17.0256 5.781C17.306 4.71686 17.8623 3.76398 18.6213 3.01137L19.7804 3.68041C20.223 3.30213 20.7348 3.00494 21.295 2.80714V1.47005C21.8059 1.3311 22.3399 1.25 22.8932 1.25C23.4466 1.25 23.9811 1.33011 24.4914 1.47005V2.80665C25.0517 3.00444 25.564 3.30114 26.0061 3.67992L27.1646 3.01087C27.9247 3.76348 28.4805 4.71636 28.7604 5.7805L27.6047 6.44806ZM20.6552 7.32331C20.6552 8.55903 21.6575 9.56086 22.8937 9.56086C24.1285 9.56086 25.1308 8.55854 25.1308 7.32281C25.1308 6.08708 24.1285 5.08525 22.8937 5.08525C21.6575 5.08525 20.6552 6.08758 20.6552 7.32331ZM19.2875 17.619C19.3844 18.2713 19.4037 18.9393 19.3399 19.6099L20.8812 20.2008C20.7769 20.9376 20.5915 21.6689 20.318 22.381C20.0441 23.0925 19.6925 23.7606 19.2732 24.3767L17.7373 23.7873C17.3358 24.3283 16.8744 24.8119 16.3661 25.2317L17.0302 26.7221C15.8335 27.6265 14.4381 28.2594 12.9457 28.5527L12.2776 27.0529C11.6254 27.1498 10.9574 27.1691 10.2868 27.1058L9.69493 28.6481C8.95369 28.5438 8.22482 28.3554 7.51523 28.0829C6.80267 27.8095 6.13511 27.4589 5.5175 27.043L6.1089 25.5012C5.56744 25.0997 5.08383 24.6388 4.66401 24.1305L3.15631 24.802C2.7088 24.2071 2.3236 23.5593 2.01256 22.8621C1.70202 22.1649 1.47802 21.4449 1.33561 20.714L2.8433 20.0425C2.74638 19.3903 2.7271 18.7222 2.79089 18.0517L1.25006 17.4603C1.3544 16.724 1.54033 15.9932 1.8118 15.2811C2.08575 14.569 2.43733 13.901 2.85665 13.2849L4.39352 13.8743C4.79505 13.3338 5.25591 12.8497 5.76474 12.4299L5.10114 10.9395C6.29829 10.0351 7.69275 9.40213 9.18512 9.1089L9.85317 10.6092C10.5054 10.5123 11.1735 10.493 11.844 10.5568L12.4359 9.01445C13.1771 9.11879 13.906 9.30719 14.6156 9.57965C15.3281 9.85311 15.9957 10.2042 16.6133 10.6196L16.0219 12.1604C16.5629 12.5619 17.0465 13.0228 17.4663 13.5306L18.975 12.8591C19.422 13.454 19.8077 14.1022 20.1183 14.799C20.4288 15.4962 20.6528 16.2167 20.7952 16.947L19.2875 17.619ZM9.46104 23.009C11.7698 23.8946 14.3585 22.7424 15.2441 20.4342C16.1292 18.1269 14.9761 15.5377 12.6683 14.6526C10.361 13.768 7.77236 14.9201 6.88673 17.2279C6.0016 19.5357 7.15524 22.1238 9.46104 23.009Z" fill="white"/>
</svg>
