<?xml version="1.0" encoding="UTF-8" standalone="no"?>
<svg
   style="fill:none"
   width="710"
   height="709.99994"
   version="1.1"
   id="svg14"
   sodipodi:docname="digio.svg"
   inkscape:version="1.1.1 (3bf5ae0d25, 2021-09-20)"
   xmlns:inkscape="http://www.inkscape.org/namespaces/inkscape"
   xmlns:sodipodi="http://sodipodi.sourceforge.net/DTD/sodipodi-0.dtd"
   xmlns="http://www.w3.org/2000/svg"
   xmlns:svg="http://www.w3.org/2000/svg">
  <defs
     id="defs18" />
  <sodipodi:namedview
     id="namedview16"
     pagecolor="#ffffff"
     bordercolor="#666666"
     borderopacity="1.0"
     inkscape:pageshadow="2"
     inkscape:pageopacity="0.0"
     inkscape:pagecheckerboard="0"
     showgrid="false"
     inkscape:zoom="0.6059322"
     inkscape:cx="247.55245"
     inkscape:cy="429.91608"
     inkscape:window-width="2560"
     inkscape:window-height="1017"
     inkscape:window-x="-8"
     inkscape:window-y="-8"
     inkscape:window-maximized="1"
     inkscape:current-layer="svg14" />
  <path
     style="fill:#202e55;fill-opacity:1;stroke-width:0.6;paint-order:markers stroke fill"
     d="M 0,0 H 710 V 709.99993 H 0 Z"
     id="path2" />
  <path
     d="m 200.967,241.701 a 10.885,10.885 0 0 0 -10.732,-11.927 h -0.131 a 10.77,10.77 0 0 0 -10.536,12.11 v 42.585 a 65.006,65.006 0 0 0 -42.87,-16.393 c -1.516,0 -3.075,0.051 -4.62,0.153 a 62.658,62.658 0 0 0 -46.666,24.496 64.553,64.553 0 0 0 51.002,104.662 68.147,68.147 0 0 0 43.19,-15.956 v 4.167 a 10.547,10.547 0 0 0 10.638,11.862 h 0.087 a 10.736,10.736 0 0 0 10.681,-12.015 c -0.007,-54.098 -0.028,-99.14 -0.043,-143.744 z m -21.42,91.074 a 43.306,43.306 0 0 1 -43.243,43.257 43.23503,43.23503 0 1 1 -0.102,-86.47 v -1.457 1.457 a 43.402,43.402 0 0 1 43.308,43.206 z m 76.583,-14.419 a 10.869,10.869 0 0 0 -2.731,-8.292 10.87,10.87 0 0 0 -7.952,-3.605 h -0.167 a 10.926,10.926 0 0 0 -10.616,12.08 v 66.638 a 10.848,10.848 0 0 0 2.58,8.55 10.85,10.85 0 0 0 8.123,3.711 h 0.117 a 10.739,10.739 0 0 0 8.031,-3.612 10.755,10.755 0 0 0 2.635,-8.402 c 0.03,-25.042 0.03,-45.443 -0.021,-67.067 z"
     style="fill:#ffffff;fill-opacity:1;stroke-width:4.75527"
     id="path4" />
  <path
     d="m 245.79,268.01 h -0.336 a 13.033,13.033 0 0 0 -12.867,12.504 12.665,12.665 0 0 0 3.643,9.289 12.894,12.894 0 0 0 9.209,4 h 0.066 a 12.897,12.897 0 0 0 0.32,-25.785 z"
     style="fill:#3fece2;fill-opacity:1;stroke-width:4.75527"
     id="path6" />
  <path
     d="m 406.06,373.642 a 3.562,3.562 0 0 1 0,-4.889 64.793,64.793 0 0 0 -4.503,-78.032 c -0.306,-0.35 -0.59,-0.729 -0.903,-1.159 h 2.718 c 1.195,0 5.828,0 6.717,-0.051 a 10.199,10.199 0 0 0 9.946,-7.286 10.09,10.09 0 0 0 -1.109,-9.471 12.295,12.295 0 0 0 -10.28,-4.773 h -5.21 c -8.414,0 -17.121,-0.065 -25.69,-0.065 -9.88,0 -18.499,0.05 -26.375,0.152 a 66.302,66.302 0 0 0 -15.088,1.997 64.498,64.498 0 0 0 -48.402,69.653 67.223,67.223 0 0 0 21.422,41.465 64.187,64.187 0 0 0 42.986,16.226 65.163,65.163 0 0 0 36.306,-11.002 40.8,40.8 0 0 1 6.907,23.453 43.715,43.715 0 0 1 -36.43,42.405 40.803,40.803 0 0 1 -6.856,0.568 43.17,43.17 0 0 1 -40.553,-28.743 43.52,43.52 0 0 1 -1.29,-4.758 c -0.254,-1.042 -0.502,-2.135 -0.787,-3.191 a 11.124,11.124 0 0 0 -10.447,-8.386 c -0.61,0 -1.217,0.053 -1.815,0.167 a 10.542,10.542 0 0 0 -8.787,11.76 33.576,33.576 0 0 0 1.414,7.17 62.454,62.454 0 0 0 53.187,46.586 77.36,77.36 0 0 0 10.783,0.786 60.538,60.538 0 0 0 52.984,-30.39 63.08,63.08 0 0 0 10.47,-35.147 68.3,68.3 0 0 0 -11.316,-35.045 z m -53.676,2.368 h -0.138 A 43.233,43.233 0 0 1 309.08,332.706 43.236,43.236 0 0 1 352.384,289.54 v -1.457 l 0.05,1.457 a 43.236,43.236 0 1 1 -0.05,86.47 z M 470.49,318.356 a 10.869,10.869 0 0 0 -0.494,-4.432 10.87,10.87 0 0 0 -10.186,-7.465 h -0.169 a 10.919,10.919 0 0 0 -7.962,3.709 10.93,10.93 0 0 0 -2.66,8.37 v 66.64 a 10.848,10.848 0 0 0 6.24,11.28 c 1.402,0.64 2.923,0.975 4.462,0.981 h 0.118 a 10.739,10.739 0 0 0 8.03,-3.612 10.75,10.75 0 0 0 2.634,-8.403 c 0.038,-25.04 0.038,-45.442 -0.013,-67.066 z"
     style="fill:#ffffff;fill-opacity:1;stroke-width:4.75527"
     id="path8" />
  <path
     d="m 460.158,268.01 h -0.334 a 13.038,13.038 0 0 0 -12.868,12.504 12.758,12.758 0 0 0 3.593,9.289 12.9,12.9 0 0 0 9.209,4 h 0.065 a 12.896,12.896 0 0 0 0.335,-25.785 z"
     style="fill:#3fece2;fill-opacity:1;stroke-width:4.75527"
     id="path10" />
  <path
     d="m 613.62,286.874 a 64.748,64.748 0 0 0 -58.319,-17.687 64.758,64.758 0 0 0 12.14,128.28 h 0.143 a 64.942,64.942 0 0 0 46.031,-18.732 63.9,63.9 0 0 0 18.945,-45.66 64.664,64.664 0 0 0 -18.94,-46.2 z m -45.774,89.136 a 43.248,43.248 0 0 1 -43.061,-43.33 43.306,43.306 0 0 1 43.16,-43.125 h 0.105 a 43.24,43.24 0 0 1 30.477,12.755 43.244,43.244 0 0 1 12.582,30.553 43.345,43.345 0 0 1 -12.734,30.488 43.345,43.345 0 0 1 -30.524,12.652 z"
     style="fill:#ffffff;fill-opacity:1;stroke-width:4.75527"
     id="path12" />
</svg>
