<?xml version="1.0" encoding="UTF-8" standalone="no"?>
<svg
   width="569"
   height="569"
   viewBox="0 0 150.54799 150.54811"
   version="1.1"
   id="svg10"
   sodipodi:docname="genialinvestimentos.svg"
   inkscape:version="1.1.1 (3bf5ae0d25, 2021-09-20)"
   xmlns:inkscape="http://www.inkscape.org/namespaces/inkscape"
   xmlns:sodipodi="http://sodipodi.sourceforge.net/DTD/sodipodi-0.dtd"
   xmlns="http://www.w3.org/2000/svg"
   xmlns:svg="http://www.w3.org/2000/svg">
  <defs
     id="defs14" />
  <sodipodi:namedview
     id="namedview12"
     pagecolor="#ffffff"
     bordercolor="#666666"
     borderopacity="1.0"
     inkscape:pageshadow="2"
     inkscape:pageopacity="0.0"
     inkscape:pagecheckerboard="0"
     showgrid="false"
     inkscape:zoom="0.75887968"
     inkscape:cx="314.93794"
     inkscape:cy="447.37"
     inkscape:window-width="2560"
     inkscape:window-height="1017"
     inkscape:window-x="-8"
     inkscape:window-y="-8"
     inkscape:window-maximized="1"
     inkscape:current-layer="svg10" />
  <path
     style="fill:#2c3f8f;fill-opacity:1;stroke-width:0.15875;paint-order:markers stroke fill"
     d="M 0,0 H 150.54805 V 150.54804 H 0 Z"
     id="path2" />
  <g
     style="stroke-width:0.609367"
     id="g8"
     transform="translate(0.001)">
    <path
       style="fill:#5c94cb;stroke-width:0.609367"
       d="m 326.686,111.448 c -1.434,-0.623 -1.809,-1.61 -1.81,-4.761 0,-3.598 0.093,-3.512 -3.986,-3.63 -3.417,-0.1 -4.167,-0.366 -4.87,-1.727 -0.742,-1.432 -0.313,-2.931 1.111,-3.891 0.821,-0.553 1.002,-0.568 7.034,-0.568 5.858,0 6.217,0.027 6.689,0.498 0.47,0.47 0.498,0.83 0.497,6.29 0,5.37 -0.038,5.852 -0.504,6.616 -0.518,0.85 -1.79,1.55 -2.788,1.533 -0.312,-0.006 -0.93,-0.168 -1.373,-0.36 z"
       transform="matrix(1.64104,0,0,1.64104,-430.65,-149.468)"
       id="path4" />
    <path
       style="fill:#ffffff;stroke-width:0.609367"
       d="m 298.969,170.701 a 17.4,17.4 0 0 1 -0.872,-0.345 18.478,18.478 0 0 0 -1.495,-0.513 c -4.735,-1.422 -9.078,-5.45 -10.321,-9.575 -0.165,-0.548 -0.409,-1.22 -0.54,-1.494 -0.133,-0.274 -0.265,-1.334 -0.295,-2.356 l -0.054,-1.857 2.577,-0.098 c 1.417,-0.054 3.054,-0.027 3.639,0.06 l 1.063,0.16 0.149,1.597 c 0.353,3.783 3.037,6.46 7.643,7.627 0.822,0.208 2.565,0.34 4.36,0.329 8.454,-0.052 13.074,-3.977 12.071,-10.256 -0.443,-2.773 -1.647,-4.604 -3.727,-5.664 -1.875,-0.956 -2.938,-1.151 -7.473,-1.373 -3.166,-0.155 -4.859,-0.356 -6.185,-0.737 -6.2,-1.777 -11.207,-6.43 -13.017,-12.094 -0.307,-0.959 -0.676,-2.007 -0.821,-2.328 -0.344,-0.762 -0.342,-5.798 0.003,-6.554 0.146,-0.32 0.525,-1.396 0.84,-2.39 1.467,-4.609 5.218,-8.878 9.59,-10.914 3.113,-1.45 4.535,-1.722 8.968,-1.719 3.851,0.003 4.065,0.031 6.352,0.82 1.301,0.449 3.151,1.276 4.11,1.838 2.082,1.22 5.38,4.482 6.568,6.494 2.038,3.454 2.92,8.05 2.279,11.889 -0.648,3.883 -2.258,6.981 -5.165,9.936 -0.998,1.013 -1.814,1.98 -1.814,2.147 0,0.167 0.454,0.619 1.01,1.003 1.513,1.05 3.594,3.411 4.314,4.9 1.89,3.902 1.889,8.954 -0.005,12.862 -1.541,3.182 -4.98,6.081 -8.771,7.395 -1.047,0.363 -2.128,0.79 -2.402,0.95 -0.508,0.296 -11.813,0.53 -12.58,0.26 z m 9.433,-30.848 c 7.342,-1.954 11.152,-9.67 7.998,-16.196 -2.087,-4.32 -6.31,-6.884 -11.328,-6.877 -4.406,0.006 -7.72,1.64 -10.226,5.044 -4.83,6.562 -1.33,15.76 6.863,18.035 1.54,0.428 5.076,0.425 6.693,-0.006 z"
       transform="matrix(1.64104,0,0,1.64104,-430.65,-149.468)"
       id="path6" />
  </g>
</svg>
