<?xml version="1.0" encoding="UTF-8" standalone="no"?>
<svg
   width="760"
   height="760"
   viewBox="0 0 201.08319 201.08355"
   version="1.1"
   id="svg8"
   sodipodi:docname="hasflare.svg"
   inkscape:version="1.1.1 (3bf5ae0d25, 2021-09-20)"
   xmlns:inkscape="http://www.inkscape.org/namespaces/inkscape"
   xmlns:sodipodi="http://sodipodi.sourceforge.net/DTD/sodipodi-0.dtd"
   xmlns="http://www.w3.org/2000/svg"
   xmlns:svg="http://www.w3.org/2000/svg">
  <defs
     id="defs12" />
  <sodipodi:namedview
     id="namedview10"
     pagecolor="#ffffff"
     bordercolor="#666666"
     borderopacity="1.0"
     inkscape:pageshadow="2"
     inkscape:pageopacity="0.0"
     inkscape:pagecheckerboard="0"
     showgrid="false"
     inkscape:zoom="0.79730123"
     inkscape:cx="380.03203"
     inkscape:cy="453.40455"
     inkscape:window-width="2560"
     inkscape:window-height="1017"
     inkscape:window-x="-8"
     inkscape:window-y="-8"
     inkscape:window-maximized="1"
     inkscape:current-layer="g6" />
  <g
     style="stroke-width:0.492908"
     id="g6"
     transform="translate(0.00113505,-1.0666817e-4)">
    <path
       style="fill:#f9f9f9;fill-opacity:1;stroke-width:0.15875;paint-order:markers stroke fill"
       d="M -0.00131376,1.0500225e-4 H 201.08223 V 201.08366 H -0.00131376 Z"
       id="path2" />
    <path
       style="fill:#0c39e7;fill-opacity:1;stroke-width:1"
       d="m 52.121043,160.68424 c -3.530077,-2.15051 -3.379947,-0.28403 -3.379947,-42.67742 V 79.591871 l 1.744751,-1.902996 c 3.150695,-3.436753 8.305825,-2.949846 10.458361,0.990045 0.870346,1.592592 0.959613,4.286812 1.099598,32.83986 l 0.15013,31.10323 1.334937,1.75084 c 1.860392,2.43859 3.952064,2.8626 14.136539,2.86666 10.042461,0.004 12.308609,-0.47068 14.580842,-3.06143 l 1.584477,-1.80561 v -14.22986 c 0,-11.39769 0.156216,-14.53418 0.779052,-15.74334 2.134276,-4.12248 11.083227,-3.87497 12.690017,0.34895 0.2678,0.70602 0.48691,7.56127 0.48691,15.23208 0,15.90767 0.12578,16.49398 3.92772,18.21845 2.04906,0.93121 3.70252,1.0225 18.88591,1.03468 15.73116,0.0122 16.73744,0.073 18.41726,1.09554 1.80765,1.10365 3.32315,3.82425 3.32315,5.97273 0,0.65529 -0.48488,2.18905 -1.07526,3.40835 -2.06732,4.27058 1.03468,4.0251 -51.14554,4.02307 -44.953708,0 -46.329221,-0.0304 -47.998907,-1.04888 z m 90.122467,-36.0007 c -3.35966,-2.04704 -3.32314,-1.66969 -3.32314,-34.91328 0,-32.947387 0.0365,-32.535545 -3.13244,-34.688081 -1.22538,-0.831799 -2.85652,-0.996131 -11.36117,-1.150318 -11.11365,-0.19882 -13.16272,0.156216 -15.25845,2.645529 l -1.37957,1.643312 v 13.394006 c 0,15.260483 -0.26171,16.609622 -3.45501,17.94253 -3.64369,1.521585 -7.794577,0.659353 -9.665112,-2.014579 -0.706016,-1.006274 -0.837887,-3.339371 -0.837887,-14.789806 0,-14.806036 -0.146072,-15.64798 -3.0594,-17.621983 -1.383628,-0.939325 -2.97622,-1.040764 -19.930735,-1.288275 L 52.413188,53.574796 50.577142,51.568332 c -1.554046,-1.69606 -1.836046,-2.395989 -1.834017,-4.560697 0,-1.590563 0.399669,-3.20953 1.048879,-4.276668 2.172823,-3.562538 -0.535598,-3.381976 50.506476,-3.381976 50.57343,0 48.31134,-0.137958 50.69921,3.104033 1.04685,1.422175 1.07729,2.422363 1.21727,39.467886 0.1339,34.753 0.069,38.1715 -0.76079,39.91828 -1.74069,3.666 -5.80434,4.92182 -9.21066,2.84435 z"
       id="path4" />
  </g>
</svg>
