<?xml version="1.0" encoding="UTF-8" standalone="no"?>
<svg
   width="255"
   height="255"
   version="1.1"
   id="svg42"
   sodipodi:docname="hitbtc.svg"
   inkscape:version="1.1.1 (3bf5ae0d25, 2021-09-20)"
   xmlns:inkscape="http://www.inkscape.org/namespaces/inkscape"
   xmlns:sodipodi="http://sodipodi.sourceforge.net/DTD/sodipodi-0.dtd"
   xmlns="http://www.w3.org/2000/svg"
   xmlns:svg="http://www.w3.org/2000/svg">
  <defs
     id="defs46" />
  <sodipodi:namedview
     id="namedview44"
     pagecolor="#ffffff"
     bordercolor="#666666"
     borderopacity="1.0"
     inkscape:pageshadow="2"
     inkscape:pageopacity="0.0"
     inkscape:pagecheckerboard="0"
     showgrid="false"
     inkscape:zoom="2.5813075"
     inkscape:cx="66.245498"
     inkscape:cy="130.74769"
     inkscape:window-width="2560"
     inkscape:window-height="1017"
     inkscape:window-x="-8"
     inkscape:window-y="-8"
     inkscape:window-maximized="1"
     inkscape:current-layer="svg42" />
  <path
     style="fill:#f2f2f2;stroke-width:0.599998;paint-order:markers stroke fill"
     d="M 0,0 H 255 V 255 H 0 Z"
     id="path2" />
  <g
     id="g882"
     transform="translate(-0.54371,10.7145)">
    <path
       d="m 102.411,67.383 -8.714,33.275 -58.362,7.59 z"
       fill="#57bae5"
       style="stroke-width:0.999998"
       id="path4" />
    <path
       d="m 118.258,201.606 14.546,-60.436 -18.903,-7.8 z"
       fill="#005472"
       style="stroke-width:0.999998"
       id="path6" />
    <path
       d="M 93.697,100.622 78.307,132.246 35.335,108.247 Z"
       fill="#34afe4"
       style="stroke-width:0.999998"
       id="path8" />
    <path
       d="M 118.258,201.606 113.936,133.37 78.307,132.14 Z"
       fill="#0076a7"
       style="stroke-width:0.999998"
       id="path10" />
    <path
       d="m 93.697,100.622 20.239,32.713 -35.629,-1.195 z"
       fill="#009de2"
       style="stroke-width:0.999998"
       id="path12" />
    <path
       d="m 102.41134,67.382995 48.45379,6.078684 -57.167739,27.195961 z m 101.58078,-15.144004 -30.60424,35.417996 2.14335,-32.747591 z m 16.7603,-20.273991 -16.7603,20.273991 13.21147,1.616298 z"
       style="stroke-width:0.999996"
       fill="#7acdf2"
       id="path14" />
    <path
       d="m 187.442,70.615 29.62,-16.795 -13.07,-1.581 z"
       fill="#00abe7"
       style="stroke-width:0.999998"
       id="path16" />
    <path
       d="m 132.804,141.17 1.441,-40.653 -20.344,32.853 z"
       fill="#0076a7"
       style="stroke-width:0.999998"
       id="path18" />
    <path
       d="M 134.245,100.517 113.901,133.37 93.697,100.658 Z"
       fill="#008dbe"
       style="stroke-width:0.999998"
       id="path20" />
    <path
       d="M 150.865,73.462 134.21,100.517 H 93.697 Z"
       fill="#57bae5"
       style="stroke-width:0.999998"
       id="path22" />
    <path
       d="m 134.21,100.517 -1.406,40.653 37.175,38.019 z"
       fill="#00698d"
       style="stroke-width:0.999998"
       id="path24" />
    <path
       d="m 189.41,157.93 -19.642,-48.664 0.211,69.958 z m -16.022,-70.273 -3.514,21.574 -35.664,-8.714 z"
       fill="#09a1cb"
       style="stroke-width:0.999998"
       id="path26" />
    <path
       d="m 191.378,116.961 -21.61,-7.695 3.514,-21.574 z"
       fill="#8bdaff"
       style="stroke-width:0.999998"
       id="path28" />
    <path
       d="m 199.108,156.596 -23.542,-37.738 h 13.458 z"
       fill="#7acdf2"
       style="stroke-width:0.999998"
       id="path30" />
    <path
       d="m 155.292,65.415 18.096,22.242 2.143,-32.748 z"
       fill="#57bae5"
       style="stroke-width:0.999998"
       id="path32" />
    <path
       d="m 169.768,109.266 -35.558,-8.749 35.77,78.672 z"
       fill="#008dbe"
       style="stroke-width:0.999998"
       id="path34" />
    <path
       d="m 189.41,157.93 7.836,4.393 -27.196,16.866 z"
       fill="#0076a7"
       style="stroke-width:0.999998"
       id="path36" />
    <path
       d="m 199.108,156.139 -29.34,-46.873 19.642,48.7 z"
       fill="#57bae5"
       style="stroke-width:0.999998"
       id="path38" />
    <path
       d="m 155.292,65.415 -21.082,35.137 39.178,-12.86 z"
       fill="#7acdf2"
       style="stroke-width:0.999998"
       id="path40" />
  </g>
</svg>
