<?xml version="1.0" encoding="UTF-8" standalone="no"?>
<svg
   width="294"
   height="294"
   viewBox="0 0 77.788006 77.787409"
   version="1.1"
   id="svg8"
   sodipodi:docname="socopa.svg"
   inkscape:version="1.1.1 (3bf5ae0d25, 2021-09-20)"
   xmlns:inkscape="http://www.inkscape.org/namespaces/inkscape"
   xmlns:sodipodi="http://sodipodi.sourceforge.net/DTD/sodipodi-0.dtd"
   xmlns="http://www.w3.org/2000/svg"
   xmlns:svg="http://www.w3.org/2000/svg">
  <defs
     id="defs12" />
  <sodipodi:namedview
     id="namedview10"
     pagecolor="#ffffff"
     bordercolor="#666666"
     borderopacity="1.0"
     inkscape:pageshadow="2"
     inkscape:pageopacity="0.0"
     inkscape:pagecheckerboard="0"
     showgrid="false"
     inkscape:zoom="1.5638329"
     inkscape:cx="-44.122362"
     inkscape:cy="132.68681"
     inkscape:window-width="2560"
     inkscape:window-height="1017"
     inkscape:window-x="-8"
     inkscape:window-y="-8"
     inkscape:window-maximized="1"
     inkscape:current-layer="svg8" />
  <path
     style="fill:#f2f2f2;stroke-width:0.15875;paint-order:markers stroke fill"
     d="M 0,-2.9657889e-4 H 77.788006 V 77.787706 H 0 Z"
     id="path2" />
  <path
     style="fill:#fafafa;stroke-width:1"
     d="m 54.463178,67.071975 c 5.254,-0.937 10.085,-4.66 12.373,-9.534 1.728,-3.68 1.66,-2.716 1.76,-25.394 0.05,-11.347 0.023,-20.905 -0.061,-21.238 l -0.152,-0.607 -22.946,0.071 -22.947,0.072 -1.952,0.713 c -4.807,1.755 -8.626,5.579 -10.518,10.532 l -0.7589996,1.984 -0.075,21.548 c -0.041,11.852 -0.015,21.704 0.058,21.895 0.202,0.525 42.2529996,0.486 45.2199996,-0.042 z m -35.137,-7.478 c -2.178,-0.553 -2.56,-1.813 -2.466,-8.141 l 0.074,-5.027 16.537,-0.133 c 17.945,-0.144 17.347,-0.091 19.016,-1.67 3.372,-3.189 1.987,-8.745 -2.48,-9.948 -0.671,-0.18 -4.863,-0.286 -11.456,-0.287 -11.487,-0.002 -11.54,-0.009 -12.393,-1.659 -0.552,-1.067 -0.544,-2.918 0.017,-3.772 1.06,-1.618 0.745,-1.581 13.502,-1.581 11.531,0 11.671,0.006 13.373,0.615 5.503,1.971 8.721,6.575 8.724,12.481 0.002,4.61 -2.705,9.268 -6.504,11.193 -3.086,1.564 -3.328,1.587 -17.83,1.752 l -13.362,0.152 -0.143,2.013 c -0.165,2.325 -0.658,3.275 -1.986,3.83 -0.898,0.376 -1.654,0.428 -2.622,0.182 z m 1.652,-6.488 c 0.071,-2.684 0.107,-2.846 0.661,-2.974 0.323,-0.074 7.076,-0.165 15.007,-0.201 l 14.42,-0.066 1.767,-0.837 c 2.224,-1.054 3.98,-2.66 4.848,-4.433 2.982,-6.094 -0.71,-13.002 -7.573,-14.172 -1.065,-0.182 -5.204,-0.26 -11.213,-0.213 -8.257,0.066 -9.525,0.129 -9.525,0.473 0,0.343 1.39,0.417 10.318,0.55 11.308,0.167 11.785,0.228 14.209,1.834 2.445,1.62 3.742,4.094 3.742,7.14 0,3.947 -2.207,6.897 -6.177,8.26 -1.686,0.58 -2.01,0.592 -16.602,0.678 l -14.883,0.087 v 3.445 c 0,3.138 0.041,3.437 0.463,3.356 0.4,-0.077 0.473,-0.47 0.538,-2.927 z m 6.54,-9.36 -1.985,-0.393 c -3.307,-0.659 -6.81,-3.312 -8.329,-6.31 -2.466,-4.865 -1.733,-10.983 1.798,-15.016 1.211,-1.384 3.681,-2.897 5.847,-3.583 1.857,-0.588 2.025,-0.593 18.026,-0.593 14.984,0 16.202,0.033 16.863,0.466 2.21,1.448 2.264,4.545 0.106,6.13 -0.731,0.536 -1.086,0.55 -16.801,0.68 l -16.055,0.132 -0.98,0.61 c -2.077,1.291 -2.998,3.098 -2.8,5.493 0.158,1.896 1.3,3.735 2.865,4.613 l 1.18,0.661 11.245,0.132 c 12.668,0.15 12.25,0.08 13.094,2.186 0.517,1.294 0.368,2.474 -0.446,3.508 -1.115,1.418 -1.425,1.453 -12.706,1.42 -5.716,-0.018 -10.631,-0.078 -10.922,-0.136 z m 21.034,-3.382 c 0,-0.313 -1.657,-0.39 -10.253,-0.482 -9.8,-0.104 -10.333,-0.135 -12.09,-0.711 -1.534,-0.504 -2.106,-0.874 -3.484,-2.252 -2.024,-2.023 -2.617,-3.645 -2.426,-6.627 0.227,-3.537 2.225,-6.19 5.723,-7.602 1.487,-0.6 1.582,-0.604 16.643,-0.685 14.806,-0.08 15.147,-0.093 15.147,-0.597 0,-0.504 -0.306,-0.515 -14.37,-0.515 -9.265,0 -14.93,0.103 -15.942,0.29 -3.332,0.613 -6.03,2.6 -7.444,5.478 -0.672,1.368 -0.74,1.767 -0.73,4.286 0.01,2.268 0.117,3.008 0.583,4.027 1.126,2.461 3.769,4.692 6.4,5.401 0.856,0.231 4.274,0.331 11.726,0.344 8.883,0.015 10.517,-0.04 10.517,-0.355 z"
     id="path4" />
  <path
     style="fill:#0e0e0e;stroke-width:1"
     d="m 9.7135207,67.063886 c -0.105,-0.105 -0.188,-9.487 -0.186,-20.85 0.004,-16.645 0.076,-20.998 0.374,-22.4 1.2880003,-6.079 6.1590003,-11.137 12.2150003,-12.686 1.955,-0.5 3,-0.523 24.094,-0.523 h 22.05 l -0.004,20.969 c -0.004,23.302 0.038,22.67 -1.783,26.392 -1.328,2.715 -4.437,5.822 -7.211,7.208 -3.977,1.986 -2.618,1.886 -27.258,1.988 -12.156,0.05 -22.1870003,0.006 -22.2910003,-0.098 z m 12.7530003,-7.53 c 1.367,-0.769 1.69,-1.41 1.859,-3.685 l 0.147,-1.984 13.361,-0.15 c 14.48,-0.16 14.535,-0.166 17.6,-1.716 1.617,-0.819 3.762,-2.775 4.74,-4.324 1.216,-1.926 2.002,-4.766 1.999,-7.218 -0.01,-6.125 -3.198,-10.672 -8.939,-12.75 -1.42,-0.513 -2.183,-0.551 -12.946,-0.637 -10.847,-0.086 -11.496,-0.065 -12.595,0.421 -2.736,1.21 -2.95,5.245 -0.356,6.73 0.423,0.242 3.521,0.364 11.688,0.462 10.877,0.13 11.136,0.144 12.221,0.725 3.934,2.102 3.934,7.824 0,9.927 -1.107,0.591 -1.14,0.593 -17.778,0.725 l -16.668,0.132 v 5.736 c 0,5.385 0.033,5.781 0.548,6.482 a 3.945,3.945 0 0 0 5.12,1.123 z m -2.059,-6.926 -0.037,-3.109 h 14.365 c 15.481,0 15.9,-0.032 18.657,-1.43 1.552,-0.785 3.35,-2.692 4.099,-4.344 0.826,-1.825 0.802,-5.23 -0.05,-7.127 -0.876,-1.949 -3.211,-4.058 -5.37,-4.849 -1.619,-0.594 -1.985,-0.615 -11.923,-0.708 -6.126,-0.058 -10.253,-0.196 -10.253,-0.344 0,-0.15 3.755,-0.246 9.46,-0.243 10.328,0.005 12.085,0.185 14.261,1.46 1.93,1.131 2.945,2.191 3.84,4.007 1.152,2.341 1.345,5.298 0.492,7.558 -1.111,2.947 -3.974,5.276 -7.362,5.99 -0.927,0.195 -6.079,0.296 -15.213,0.299 -7.597,0.002 -13.961,0.099 -14.144,0.215 -0.204,0.13 -0.419,1.27 -0.558,2.972 l -0.227,2.762 z m 29.843,-8.864 c 2.634,-1.343 2.803,-4.944 0.31,-6.609 -0.897,-0.599 -0.923,-0.6 -11.395,-0.6 -11.707,0 -12.45,-0.088 -13.962,-1.648 -0.962,-0.993 -1.657,-2.735 -1.657,-4.154 0,-1.6 1.178,-3.616 2.605,-4.455 l 1.231,-0.724 15.875,-0.132 c 15.357,-0.128 15.905,-0.15 16.801,-0.67 2.434,-1.415 2.417,-5.161 -0.03,-6.606 -0.87,-0.513 -1.371,-0.529 -16.903,-0.529 -16.863,0 -17.281,0.026 -20.009,1.232 -2.511,1.111 -5.104,3.657 -6.308,6.194 -1.215,2.56 -1.562,6.535 -0.816,9.34 1.284,4.821 5,8.341 9.935,9.41 1.311,0.284 4.296,0.377 12.567,0.393 9.831,0.019 10.933,-0.023 11.756,-0.442 z m -23.332,-3.528 c -2.768,-0.652 -5.326,-2.708 -6.508,-5.23 -0.604,-1.287 -0.701,-1.842 -0.701,-4.008 0,-2.163 0.097,-2.72 0.697,-4 0.896,-1.911 2.24,-3.386 3.911,-4.296 2.57,-1.399 3.65,-1.484 18.99,-1.489 8.725,-0.003 14.134,0.093 14.231,0.25 0.1,0.161 -5.39,0.282 -15,0.33 -15.124,0.077 -15.16,0.079 -16.665,0.687 -1.915,0.774 -4.01,2.65 -4.9,4.389 -0.808,1.577 -1.117,4.872 -0.628,6.685 0.718,2.656 3.336,5.219 6.216,6.083 1.397,0.42 2.968,0.505 11.669,0.631 l 10.054,0.146 -10.186,0.028 c -5.603,0.016 -10.634,-0.077 -11.18,-0.206 z"
     id="path6" />
</svg>
