<?xml version="1.0" encoding="UTF-8"?>
<svg version="1.1" xmlns="http://www.w3.org/2000/svg" width="512" height="512">
<path d="M0 0 C0.69334946 -0.00686325 1.38669891 -0.0137265 2.10105896 -0.02079773 C4.38276917 -0.03903173 6.66378952 -0.03523331 8.94555664 -0.02954102 C10.53829674 -0.03410458 12.13103486 -0.03941067 13.72377014 -0.04542542 C17.05844126 -0.05434989 20.39287281 -0.0519412 23.72753906 -0.04199219 C27.99253259 -0.03050502 32.25669786 -0.05071278 36.5215826 -0.07990932 C39.809954 -0.09829109 43.09812765 -0.09797495 46.38653755 -0.0922718 C47.95855432 -0.09211882 49.53058469 -0.09814423 51.10255241 -0.11056328 C53.30456765 -0.12550931 55.50506229 -0.11477202 57.70703125 -0.09765625 C59.58303261 -0.097407 59.58303261 -0.097407 61.49693298 -0.09715271 C66.48577003 0.63369433 69.6515905 2.81931742 72.77490234 6.72705078 C74.20195383 10.06841733 74.25914326 12.60698814 74.21118164 16.23608398 C74.20151367 17.52836914 74.1918457 18.8206543 74.18188477 20.15209961 C74.15682274 21.50692344 74.13142795 22.86174115 74.10571289 24.21655273 C74.09065302 25.59088718 74.0769669 26.96523742 74.06469727 28.33959961 C74.02937917 31.69481905 73.9800514 35.04923439 73.91821289 38.40405273 C74.64854736 38.52917236 75.37888184 38.65429199 76.13134766 38.78320312 C80.66645873 39.79352178 84.67355702 41.85594175 88.85571289 43.84155273 C89.78561035 44.28241211 90.71550781 44.72327148 91.67358398 45.17749023 C99.76727679 49.12576947 106.82591879 53.89958568 113.91821289 59.40405273 C114.90821289 60.06405273 115.89821289 60.72405273 116.91821289 61.40405273 C117.78603394 60.8587793 117.78603394 60.8587793 118.67138672 60.30249023 C121.34281257 58.64397891 124.03588312 57.02423475 126.73071289 55.40405273 C128.09486328 54.54553711 128.09486328 54.54553711 129.48657227 53.66967773 C136.04065393 49.77891548 141.29921812 48.0866 148.91821289 49.40405273 C156.63005496 52.02286577 159.19037056 58.14259252 162.91821289 65.02905273 C163.89077896 66.77068466 164.86337519 68.51230051 165.83770752 70.25294495 C166.85100565 72.06814179 167.85663777 73.88743724 168.86157227 75.70727539 C172.21393316 81.75788286 175.70025137 87.73176913 179.16821289 93.71655273 C180.40273908 95.85839268 181.63712461 98.00031371 182.87133789 100.14233398 C184.40788093 102.80878663 185.94996851 105.45474908 187.58374023 108.06298828 C189.96957225 112.24845172 189.42652158 116.7304367 188.91821289 121.40405273 C185.98472956 128.90073236 177.70131023 132.90789536 171.04321289 136.71655273 C170.25946289 137.17094727 169.47571289 137.6253418 168.66821289 138.09350586 C166.75440795 139.20211238 164.83778117 140.30546609 162.91821289 141.40405273 C163.08063477 142.57967773 163.24305664 143.75530273 163.41040039 144.96655273 C164.16326728 151.76629747 164.06331009 158.57100371 164.04321289 165.40405273 C164.04708008 166.71889648 164.05094727 168.03374023 164.05493164 169.38842773 C164.04814734 176.14559321 163.84324798 182.70856064 162.91821289 189.40405273 C163.49788818 189.74138428 164.07756348 190.07871582 164.67480469 190.42626953 C167.32315265 191.97345532 169.96441496 193.53236441 172.60571289 195.09155273 C173.51772461 195.62200195 174.42973633 196.15245117 175.36938477 196.69897461 C186.9764644 203.57880727 186.9764644 203.57880727 188.91821289 209.40405273 C190.18816588 218.02044266 187.29906461 223.19939901 182.91821289 230.40405273 C181.80742997 232.38729566 180.71867603 234.38180484 179.62988281 236.37719727 C177.42600079 240.40484383 175.17296325 244.40471922 172.91821289 248.40405273 C172.35440918 249.4042041 171.79060547 250.40435547 171.2097168 251.43481445 C169.39479525 254.63955407 167.56481668 257.8352582 165.73071289 261.02905273 C165.16094727 262.03605225 164.59118164 263.04305176 164.00415039 264.08056641 C155.19712076 279.31108345 155.19712076 279.31108345 148.91821289 281.40405273 C139.93608661 282.60610754 134.23724834 280.12822246 126.73071289 275.40405273 C125.77874023 274.83170898 124.82676758 274.25936523 123.84594727 273.66967773 C121.5227393 272.26874831 119.2152538 270.84734038 116.91821289 269.40405273 C116.40814697 269.79294678 115.89808105 270.18184082 115.37255859 270.58251953 C106.04219205 277.64701772 96.33949435 283.36799122 85.79321289 288.40405273 C84.96329834 288.80213135 84.13338379 289.20020996 83.27832031 289.61035156 C82.49690674 289.97539795 81.71549316 290.34044434 80.91040039 290.71655273 C80.21285645 291.04268555 79.5153125 291.36881836 78.79663086 291.70483398 C76.91821289 292.40405273 76.91821289 292.40405273 73.91821289 292.40405273 C73.93916016 293.25112793 73.96010742 294.09820312 73.98168945 294.97094727 C74.05015344 298.13545667 74.10015277 301.29958664 74.13793945 304.46459961 C74.15796608 305.83028641 74.18519621 307.19588842 74.2199707 308.5612793 C74.26887721 310.53192375 74.28912636 312.50321256 74.30883789 314.47436523 C74.32978516 315.65788574 74.35073242 316.84140625 74.37231445 318.06079102 C73.81343843 322.17544064 72.55990208 324.22399112 69.91821289 327.40405273 C65.86301106 330.43919014 62.84910207 330.78643652 57.83642578 330.80810547 C57.14307632 330.81496872 56.44972687 330.82183197 55.73536682 330.8289032 C53.45365661 330.84713719 51.17263626 330.84333878 48.89086914 330.83764648 C47.29812904 330.84221005 45.70539092 330.84751614 44.11265564 330.85353088 C40.77798452 330.86245536 37.44355297 330.86004667 34.10888672 330.85009766 C29.84389319 330.83861049 25.57972792 330.85881825 21.31484318 330.88801479 C18.02647178 330.90639656 14.73829813 330.90608042 11.44988823 330.90037727 C9.87787146 330.90022429 8.30584109 330.9062497 6.73387337 330.91866875 C4.53185813 330.93361478 2.3313635 330.92287749 0.12939453 330.90576172 C-1.12127304 330.90559555 -2.37194061 330.90542938 -3.6605072 330.90525818 C-8.64934425 330.17441114 -11.81516472 327.98878804 -14.93847656 324.08105469 C-16.36552805 320.73968813 -16.42271748 318.20111732 -16.37475586 314.57202148 C-16.36508789 313.27973633 -16.35541992 311.98745117 -16.34545898 310.65600586 C-16.32039695 309.30118203 -16.29500217 307.94636432 -16.26928711 306.59155273 C-16.25422724 305.21721828 -16.24054111 303.84286805 -16.22827148 302.46850586 C-16.19295339 299.11328642 -16.14362562 295.75887108 -16.08178711 292.40405273 C-16.81212158 292.27893311 -17.54245605 292.15381348 -18.29492188 292.02490234 C-22.83003295 291.01458369 -26.83713124 288.95216372 -31.01928711 286.96655273 C-32.4141333 286.30526367 -32.4141333 286.30526367 -33.8371582 285.63061523 C-41.93085101 281.682336 -48.98949301 276.90851979 -56.08178711 271.40405273 C-57.07178711 270.74405273 -58.06178711 270.08405273 -59.08178711 269.40405273 C-59.94960815 269.94932617 -59.94960815 269.94932617 -60.83496094 270.50561523 C-63.50638679 272.16412656 -66.19945733 273.78387072 -68.89428711 275.40405273 C-69.8037207 275.97639648 -70.7131543 276.54874023 -71.65014648 277.13842773 C-78.2219766 281.03972618 -83.44286668 282.47244459 -91.08178711 281.40405273 C-99.94395659 277.93624729 -104.22640805 267.19567175 -108.58178711 259.40405273 C-109.99669674 256.89320534 -111.41600668 254.38485774 -112.83569336 251.87670898 C-113.19051285 251.24869888 -113.54533234 250.62068878 -113.91090393 249.97364807 C-117.89267495 242.94133079 -122.02349672 235.99827405 -126.18334961 229.07006836 C-126.68479492 228.23024414 -127.18624023 227.39041992 -127.70288086 226.52514648 C-128.35921509 225.43351196 -128.35921509 225.43351196 -129.02880859 224.31982422 C-131.66008079 219.53253164 -131.54293581 214.72434234 -131.08178711 209.40405273 C-128.07902054 201.89713631 -119.89588133 197.91794138 -113.20678711 194.09155273 C-112.42303711 193.6371582 -111.63928711 193.18276367 -110.83178711 192.71459961 C-108.91798217 191.60599309 -107.00135539 190.50263938 -105.08178711 189.40405273 C-105.24420898 188.22842773 -105.40663086 187.05280273 -105.57397461 185.84155273 C-106.3268415 179.041808 -106.22688431 172.23710176 -106.20678711 165.40405273 C-106.21258789 163.43178711 -106.21258789 163.43178711 -106.21850586 161.41967773 C-106.21172156 154.66251226 -106.0068222 148.09954483 -105.08178711 141.40405273 C-105.6614624 141.06672119 -106.2411377 140.72938965 -106.83837891 140.38183594 C-109.48672686 138.83465015 -112.12798918 137.27574106 -114.76928711 135.71655273 C-115.68129883 135.18610352 -116.59331055 134.6556543 -117.53295898 134.10913086 C-129.14003862 127.2292982 -129.14003862 127.2292982 -131.08178711 121.40405273 C-132.3517401 112.7876628 -129.46263883 107.60870646 -125.08178711 100.40405273 C-123.97082759 98.42049449 -122.8818655 96.42565687 -121.79248047 94.43017578 C-115.14538831 82.2766802 -108.12328581 70.33206326 -101.08178711 58.40405273 C-100.58670654 57.52144775 -100.09162598 56.63884277 -99.58154297 55.72949219 C-97.40591944 52.35608928 -94.80399367 50.67951803 -91.08178711 49.40405273 C-82.17608717 48.01188694 -76.31295117 50.73518407 -68.89428711 55.40405273 C-67.46632813 56.26256836 -67.46632813 56.26256836 -66.00952148 57.13842773 C-63.68631352 58.53935716 -61.37882801 59.96076509 -59.08178711 61.40405273 C-58.57172119 61.01515869 -58.06165527 60.62626465 -57.53613281 60.22558594 C-48.20576627 53.16108775 -38.50306856 47.44011425 -27.95678711 42.40405273 C-27.12687256 42.00597412 -26.29695801 41.60789551 -25.44189453 41.19775391 C-24.66048096 40.83270752 -23.87906738 40.46766113 -23.07397461 40.09155273 C-22.02765869 39.60235352 -22.02765869 39.60235352 -20.96020508 39.10327148 C-19.08178711 38.40405273 -19.08178711 38.40405273 -16.08178711 38.40405273 C-16.11320801 37.13343994 -16.11320801 37.13343994 -16.14526367 35.8371582 C-16.21372766 32.6726488 -16.26372698 29.50851883 -16.30151367 26.34350586 C-16.3215403 24.97781906 -16.34877043 23.61221705 -16.38354492 22.24682617 C-16.43245143 20.27618172 -16.45270058 18.30489291 -16.47241211 16.33374023 C-16.50383301 14.55845947 -16.50383301 14.55845947 -16.53588867 12.74731445 C-15.97701265 8.63266482 -14.7234763 6.58411435 -12.08178711 3.40405273 C-8.02658528 0.36891533 -5.01267629 0.02166895 0 0 Z M-7.06616211 138.67358398 C-15.08916152 149.54194947 -16.15518001 161.32445319 -15.08178711 174.40405273 C-12.57959122 186.52897909 -4.88947453 196.16404314 4.91821289 203.40405273 C16.22434605 209.69355727 28.5243254 211.3426498 41.23071289 208.72045898 C52.72374724 204.78605376 62.61061939 197.14746485 68.55883789 186.45483398 C73.69427582 175.40183683 75.3161269 162.09313557 71.29321289 150.34155273 C65.77157514 137.78366132 57.09311226 128.62325247 44.36352539 123.27905273 C25.03401719 116.3624236 5.87887321 123.71437359 -7.06616211 138.67358398 Z " fill="#FFFFFF" transform="translate(227.081787109375,90.595947265625)"/>
<path d="M0 0 C1.46002945 0.00456207 1.46002945 0.00456207 2.94955444 0.00921631 C19.21088104 0.08393675 34.91399168 1.1027072 50.875 4.4375 C51.89174805 4.64648926 52.90849609 4.85547852 53.95605469 5.07080078 C90.35517897 12.80604926 124.81055191 28.57244684 154.875 50.4375 C154.84390137 49.81842773 154.81280273 49.19935547 154.78076172 48.56152344 C154.54977501 43.14603393 155.13459215 39.25683794 157.875 34.4375 C161.42788056 30.97811629 164.89832588 28.58914189 169.9453125 28.33203125 C174.85538097 28.5567293 178.66713838 29.56965687 182.16308594 33.13012695 C184.2810664 35.98480941 185.31192937 38.72540992 186.52734375 42.0703125 C186.77723053 42.75578659 187.02711731 43.44126068 187.28457642 44.14750671 C188.16125932 46.57299828 189.02004581 49.00426482 189.875 51.4375 C190.20821259 52.38394379 190.54142517 53.33038757 190.88473511 54.30551147 C193.16170735 60.79974105 195.3902748 67.30933436 197.59082031 73.82983398 C198.36743851 76.12125024 199.1510421 78.41031014 199.94140625 80.69702148 C201.09950813 84.04925821 202.2355314 87.40828822 203.3671875 90.76953125 C203.72021942 91.77812698 204.07325134 92.78672272 204.4369812 93.82588196 C206.97584426 101.48695878 208.87427891 109.43894218 205.125 116.9375 C201.29259319 121.19572979 198.41807401 123.16007374 192.62548828 123.79199219 C185.77675632 123.68733636 179.28673722 120.94282343 172.8671875 118.765625 C171.41352155 118.28117315 169.95958799 117.79752366 168.50540161 117.31463623 C165.46860491 116.30329036 162.43475112 115.2836856 159.40283203 114.2578125 C155.52971456 112.94784136 151.65064869 111.65666011 147.7692852 110.37135696 C144.76947585 109.37607184 141.77269301 108.37192291 138.77676773 107.36501312 C137.34794718 106.88574376 135.91829605 106.40894284 134.48778915 105.93473053 C132.48470071 105.26898935 130.48590515 104.59164143 128.48779297 103.91113281 C127.35276337 103.52918762 126.21773376 103.14724243 125.04830933 102.75372314 C120.51470787 100.87327893 116.8753218 98.83795052 114 94.8125 C112.47909775 90.24979326 112.17040164 86.19934604 112.875 81.4375 C115.55690279 76.16947666 118.44337462 73.27431871 124.0078125 71.359375 C124.95398438 71.05515625 125.90015625 70.7509375 126.875 70.4375 C72.37424506 36.88026661 11.86650491 23.45664126 -51.23046875 37.53125 C-99.30145871 49.08222843 -144.86948148 77.04824004 -175.125 116.4375 C-175.77251221 117.27837158 -175.77251221 117.27837158 -176.43310547 118.13623047 C-183.36044421 127.18824819 -189.50811507 136.52304497 -195.125 146.4375 C-195.63691895 147.32574463 -195.63691895 147.32574463 -196.15917969 148.23193359 C-208.88177612 170.42038526 -217.04789382 195.24053331 -221.125 220.4375 C-221.30305176 221.51531738 -221.48110352 222.59313477 -221.66455078 223.70361328 C-223.2276146 234.09470507 -223.52349188 244.32057887 -223.5 254.8125 C-223.49978851 255.68812592 -223.49957703 256.56375183 -223.49935913 257.46591187 C-223.46421603 272.09959831 -222.38492274 286.13080537 -219.125 300.4375 C-218.94308105 301.26330566 -218.76116211 302.08911133 -218.57373047 302.93994141 C-216.13459588 313.75801555 -212.63781388 324.1566614 -208.71582031 334.52392578 C-206.2512602 341.23695191 -204.76794057 346.7234426 -207.3125 353.6875 C-209.66399209 357.2552811 -212.30942157 359.52971079 -216.125 361.4375 C-221.43635952 361.96690021 -225.79772741 362.10113629 -230.625 359.6875 C-236.14163228 354.72253095 -237.98939343 349.04344267 -240.4375 342.1875 C-240.83340332 341.08083984 -241.22930664 339.97417969 -241.63720703 338.83398438 C-249.57430167 316.10869351 -255.14062709 291.97022594 -255.36328125 267.8203125 C-255.37797203 266.49007553 -255.37797203 266.49007553 -255.39295959 265.13296509 C-255.5702298 244.90518776 -255.2688152 225.32402866 -251.125 205.4375 C-250.91069336 204.40334961 -250.69638672 203.36919922 -250.47558594 202.30371094 C-240.01099042 153.57555799 -215.41285099 111.21774929 -181.125 75.4375 C-180.34511719 74.61636719 -179.56523437 73.79523438 -178.76171875 72.94921875 C-173.25650075 67.28754695 -167.30810737 62.33884196 -161.125 57.4375 C-160.05261957 56.56343877 -158.98102952 55.6884071 -157.91015625 54.8125 C-149.0802614 47.65222538 -139.81881143 41.36875997 -130.125 35.4375 C-129.48369141 35.04320801 -128.84238281 34.64891602 -128.18164062 34.24267578 C-105.95690629 20.74086179 -80.84212423 11.25585594 -55.5 5.625 C-54.68015625 5.44219482 -53.8603125 5.25938965 -53.015625 5.07104492 C-35.42586422 1.43508806 -17.93771981 -0.12018379 0 0 Z " fill="#FFFFFF" transform="translate(255.125,-0.4375)"/>
<path d="M0 0 C11.02897481 5.51448741 13.25469157 18.76107508 16.8984375 29.59277344 C19.81350183 38.60931549 22.06705953 47.72725087 24 57 C24.31541748 58.46904785 24.31541748 58.46904785 24.63720703 59.96777344 C30.99699979 90.83517611 30.41669728 125.20571306 24 156 C23.67854004 157.55122559 23.67854004 157.55122559 23.35058594 159.13378906 C20.18436618 173.87721994 15.60398019 188.01162403 10 202 C9.68836914 202.78036621 9.37673828 203.56073242 9.05566406 204.36474609 C-0.36280649 227.55212359 -13.92942407 248.86411052 -30 268 C-30.43248047 268.52126465 -30.86496094 269.0425293 -31.31054688 269.57958984 C-40.79091549 280.98789351 -50.67051934 291.644347 -62.32421875 300.875 C-64.0407509 302.23820217 -65.73369869 303.63196233 -67.39453125 305.0625 C-111.29244493 342.66953156 -169.46650758 361.49391644 -226.75 361.375 C-227.73833832 361.37445618 -228.72667664 361.37391235 -229.7449646 361.37335205 C-246.13353305 361.3320223 -261.91165384 360.36139797 -278 357 C-279.52512207 356.68651611 -279.52512207 356.68651611 -281.08105469 356.36669922 C-317.48017897 348.63145074 -351.93555191 332.86505316 -382 311 C-381.9378833 311.9132605 -381.9378833 311.9132605 -381.87451172 312.8449707 C-381.5324319 318.76563453 -382.47044707 323.17008546 -386 328 C-390.12952869 331.57892487 -393.55184615 332.80883671 -399 333 C-404.67420065 332.20362096 -407.09091018 330.28069686 -410.57501221 326.04928589 C-412.92343954 322.67199451 -414.12638217 319.08679798 -415.3671875 315.19140625 C-415.64820313 314.35553482 -415.92921875 313.51966339 -416.21875 312.65846252 C-417.1201979 309.96482883 -417.99823495 307.26425786 -418.875 304.5625 C-419.48974286 302.7031812 -420.10579736 300.84429556 -420.72314453 298.98583984 C-421.93718137 295.32604391 -423.14284316 291.66363443 -424.34375 287.99951172 C-425.73872863 283.7620239 -427.1942389 279.55148583 -428.6875 275.34765625 C-429.06535645 274.2712085 -429.44321289 273.19476074 -429.83251953 272.08569336 C-430.4989345 270.19304363 -431.17598096 268.3040822 -431.86669922 266.42016602 C-433.98064659 260.29349143 -434.76017265 254.47667094 -434 248 C-431.4257316 242.85146319 -428.45397599 239.817992 -423 238 C-414.84654351 237.11053202 -407.6000678 240.09165275 -399.9921875 242.671875 C-398.53852155 243.15632685 -397.08458799 243.63997634 -395.63040161 244.12286377 C-392.59360491 245.13420964 -389.55975112 246.1538144 -386.52783203 247.1796875 C-382.65471456 248.48965864 -378.77564869 249.78083989 -374.8942852 251.06614304 C-371.89447585 252.06142816 -368.89769301 253.06557709 -365.90176773 254.07248688 C-364.47294718 254.55175624 -363.04329605 255.02855716 -361.61278915 255.50276947 C-359.60970071 256.16851065 -357.61090515 256.84585857 -355.61279297 257.52636719 C-353.91024857 258.09928497 -353.91024857 258.09928497 -352.17330933 258.68377686 C-347.63970787 260.56422107 -344.0003218 262.59954948 -341.125 266.625 C-339.60409775 271.18770674 -339.29540164 275.23815396 -340 280 C-342.68190279 285.26802334 -345.56837462 288.16318129 -351.1328125 290.078125 C-352.07898438 290.38234375 -353.02515625 290.6865625 -354 291 C-349.02732197 294.04708781 -344.02788115 297.04486138 -339 300 C-338.4126709 300.34659668 -337.8253418 300.69319336 -337.22021484 301.05029297 C-288.11106163 329.65798309 -227.19611562 336.81840351 -172.41235352 322.98168945 C-125.59290333 310.40952816 -81.74258724 283.7214815 -52 245 C-51.5683252 244.43941895 -51.13665039 243.87883789 -50.69189453 243.30126953 C-43.76295014 234.24715369 -37.63019424 224.9087211 -32 215 C-31.66403809 214.42378906 -31.32807617 213.84757813 -30.98193359 213.25390625 C-14.62666221 185.12060667 -4.08944274 149.99062149 -3.76171875 117.34765625 C-3.75197021 116.5385379 -3.74222168 115.72941956 -3.73217773 114.89578247 C-3.55668104 96.54211865 -3.90261224 78.9820444 -8 61 C-8.18191895 60.17419434 -8.36383789 59.34838867 -8.55126953 58.49755859 C-10.99040412 47.67948445 -14.48718612 37.2808386 -18.40917969 26.91357422 C-20.8737398 20.20054809 -22.35705943 14.7140574 -19.8125 7.75 C-14.7163438 0.01790094 -8.69224591 -0.8962344 0 0 Z " fill="#FFFFFF" transform="translate(484,151)"/>
</svg>
