<svg xmlns="http://www.w3.org/2000/svg" version="1.1" xmlns:xlink="http://www.w3.org/1999/xlink" width="512" height="512" x="0" y="0" viewBox="0 0 32 32" style="enable-background:new 0 0 512 512" xml:space="preserve" class=""><g><g data-name="Layer 13"><path d="M22.61 21.08 16 23.91l-6.61-2.83a1 1 0 1 0-.78 1.84l7 3a1 1 0 0 0 .78 0l7-3a1 1 0 0 0-.78-1.84z" fill="#ffffff" opacity="1" data-original="#000000" class=""></path><path d="M22.61 25.08 16 27.91l-6.61-2.83a1 1 0 1 0-.78 1.84l7 3a1 1 0 0 0 .78 0l7-3a1 1 0 0 0-.78-1.84zM24.49 10a8.5 8.5 0 0 0-17 0A6 6 0 0 0 6 21.65V18a3 3 0 0 1 1.82-2.76l7-3a3 3 0 0 1 2.36 0l7 3A3 3 0 0 1 26 18v3.65A6 6 0 0 0 24.49 10z" fill="#ffffff" opacity="1" data-original="#000000" class=""></path><path d="m8.61 18.92 7 3a1 1 0 0 0 .78 0l7-3a1 1 0 0 0 0-1.84l-7-3a1 1 0 0 0-.78 0l-7 3a1 1 0 0 0 0 1.84z" fill="#ffffff" opacity="1" data-original="#000000" class=""></path></g></g></svg>