<svg xmlns="http://www.w3.org/2000/svg" version="1.1" xmlns:xlink="http://www.w3.org/1999/xlink" width="512" height="512" x="0" y="0" viewBox="0 0 64 64" style="enable-background:new 0 0 512 512" xml:space="preserve" class=""><g><path d="M54.388 19.15H21.813c-1.097 0-1.99.893-1.99 1.989v18.864c0 1.097.893 1.989 1.99 1.989h20.699c.007 0 .012-.004.019-.004s.013.004.019.004h11.837a1.992 1.992 0 0 0 1.989-1.989V21.14a1.992 1.992 0 0 0-1.989-1.989zM23.707 31.478h11.584a1 1 0 1 1 0 2H23.707a1 1 0 1 1 0-2zm17.576 6.072H23.708a1 1 0 1 1 0-2h17.576a1 1 0 1 1 0 2zm12.21-9.144a1 1 0 0 1-1 1h-7.332a1 1 0 0 1-1-1v-5.295a1 1 0 0 1 1-1h7.332a1 1 0 0 1 1 1zM18.771 5.197c0 .959.78 1.739 1.739 1.739h8.132a1.74 1.74 0 0 0 1.739-1.739V4h-11.61z" fill="#ffffff" opacity="1" data-original="#000000" class=""></path><path d="M41.532 54.966V43.993H21.813c-2.2 0-3.99-1.79-3.99-3.989V21.14a3.994 3.994 0 0 1 3.99-3.989h19.718V9.034A5.04 5.04 0 0 0 36.497 4h-4.116v1.197a3.743 3.743 0 0 1-3.739 3.739H20.51a3.743 3.743 0 0 1-3.739-3.739V4h-4.125c-2.77 0-5.024 2.259-5.024 5.034v45.932c0 2.775 2.254 5.034 5.024 5.034h23.851a5.04 5.04 0 0 0 5.034-5.034zM26.649 56.63h-4.146a1 1 0 1 1 0-2h4.146a1 1 0 1 1 0 2zM46.162 24.112h5.332v3.295h-5.332z" fill="#ffffff" opacity="1" data-original="#000000" class=""></path></g></svg>