<?xml version="1.0" encoding="UTF-8" standalone="no"?>
<svg
   id="Layer_1"
   version="1.1"
   viewBox="0 0 578.94299 578.94299"
   xml:space="preserve"
   sodipodi:docname="default-carteira-1.svg"
   width="578.94299"
   height="578.94299"
   inkscape:version="1.1.1 (3bf5ae0d25, 2021-09-20)"
   xmlns:inkscape="http://www.inkscape.org/namespaces/inkscape"
   xmlns:sodipodi="http://sodipodi.sourceforge.net/DTD/sodipodi-0.dtd"
   xmlns="http://www.w3.org/2000/svg"
   xmlns:svg="http://www.w3.org/2000/svg"><defs
     id="defs49" /><sodipodi:namedview
     id="namedview47"
     pagecolor="#ffffff"
     bordercolor="#666666"
     borderopacity="1.0"
     inkscape:pageshadow="2"
     inkscape:pageopacity="0.0"
     inkscape:pagecheckerboard="0"
     showgrid="false"
     inkscape:zoom="0.41894531"
     inkscape:cx="-539.44988"
     inkscape:cy="318.65734"
     inkscape:window-width="2560"
     inkscape:window-height="1017"
     inkscape:window-x="-8"
     inkscape:window-y="-8"
     inkscape:window-maximized="1"
     inkscape:current-layer="g44" /><style
     type="text/css"
     id="style2">
	.st0{fill:#62BEE7;}
	.st1{fill:#474E5E;}
	.st2{fill:#F3EEE4;}
	.st3{fill:#FFFFFF;}
	.st4{fill:#E8DCCA;}
	.st5{opacity:0.1;fill:#231F20;}
	.st6{fill:#506268;}
	.st7{fill:#EB5151;}
	.st8{fill:#C64444;}
	.st9{fill:#9CCB5B;}
	.st10{fill:#404A4C;}
	.st11{fill:#676767;}
	.st12{fill:#E0E1E5;}
	.st13{fill:#9D9EA0;}
	.st14{fill:#B3B4B7;}
	.st15{opacity:0.1;}
	.st16{fill:#231F20;}
	.st17{fill:#FACC20;}
	.st18{fill:#FDEF34;}
	.st19{fill:#F7A90B;}
	.st20{fill:#20B8EA;}
	.st21{fill:#00A8EA;}
	.st22{fill:#33D3F4;}
	.st23{opacity:0.25;fill:#FFFFFF;}
	.st24{fill:#CACBCE;}
	.st25{fill:#2E3545;}
	.st26{fill:#8DAF4A;}
	.st27{fill:#F9C2AF;}
	.st28{fill:#AFDDF4;}
	.st29{fill:#677177;}
	.st30{fill:#FFEDB3;}
	.st31{fill:#695652;}
	.st32{fill:#30A7BF;}
	.st33{fill:#4D5556;}
	.st34{opacity:0.35;}
	.st35{fill:#FFCB04;}
	.st36{fill:#99E9FA;}
	.st37{opacity:0.2;}
	.st38{opacity:3.000000e-02;}
	.st39{fill:#9ECA5B;}
	.st40{fill:#98BA56;}
	.st41{fill:#40EEFF;}
	.st42{fill:#FF6A52;}
	.st43{opacity:0.1;fill:#FFFFFF;}
	.st44{opacity:0.4;}
	.st45{fill:#57606D;}
	.st46{fill:#BACA5B;}
	.st47{opacity:0.25;}
	.st48{opacity:5.000000e-02;fill:#231F20;}
	.st49{opacity:0.2;fill:#FFFFFF;}
	.st50{opacity:0.3;}
	.st51{fill:#FFD82F;}
	.st52{fill:#F4C121;}
	.st53{fill:#EF9D0A;}
	.st54{fill:#F9E532;}
	.st55{fill:#F4C01E;}
	.st56{fill:#FFE14D;}
	.st57{fill:#B7C156;}
	.st58{fill:#DBA92C;}
	.st59{fill:#363D4D;}
	.st60{fill:#3F4656;}
	.st61{fill:#463E33;}
	.st62{fill:none;}
	.st63{opacity:4.000000e-02;}
	.st64{fill:#4DB6AC;}
	.st65{fill:#CADE49;}
	.st66{fill:#9FD343;}
	.st67{fill:#AAD643;}
	.st68{fill:#82C736;}
	.st69{opacity:0.3;fill:#FFFFFF;}
	.st70{fill:#FFD640;}
	.st71{opacity:0.5;}
	.st72{opacity:0.6;}
</style><g
     id="g44"
     transform="translate(257.41907,256.9715)"><rect
       style="fill:#ffcb04;fill-opacity:1;stroke-width:0.6;paint-order:markers stroke fill"
       id="rect888"
       width="578.94299"
       height="578.94299"
       x="-257.41907"
       y="-256.9715" /><g
       id="g42"
       transform="matrix(8.9068154,0,0,8.9068154,-253.43279,-256.9715)"
       style="stroke-width:0.112273"><g
         id="g8"
         style="stroke-width:0.112273"><path
           class="st25"
           d="M 52.9,27.9 V 37 h -3.1 v -8 c 0,-1.2 -0.9,-2.1 -2.1,-2.1 H 15 v 6.9 l -3.9,-5.6 0.2,-1.3 c 0.4,-1.8 2,-3.2 4,-3.2 h 33.3 c 2.4,0 4.3,1.9 4.3,4.2 z"
           id="path6"
           style="stroke-width:0.112273" /></g><g
         id="g12"
         style="stroke-width:0.112273"><path
           class="st21"
           d="m 49.3,20.9 -9.3,6 H 22.6 L 22.5,26.8 20.8,24.1 19,21.3 c -0.3,-0.5 -0.2,-1.1 0.3,-1.4 L 40.2,6.6 c 0.5,-0.3 1.1,-0.2 1.4,0.3 l 1.8,2.8 1.7,2.7 4.5,7.1 c 0.3,0.5 0.2,1.1 -0.3,1.4 z"
           id="path10"
           style="stroke-width:0.112273" /></g><g
         id="g16"
         style="stroke-width:0.112273"><polyline
           class="st3"
           points="45.2,12.4 22.6,26.7 20.9,24.1 43.5,9.8    "
           id="polyline14"
           style="stroke-width:0.112273" /></g><g
         id="g20"
         style="stroke-width:0.112273"><path
           class="st25"
           d="m 49.7,43.6 h 3.1 v 6.3 c 0,1.2 -0.9,2.1 -2.1,2.1 h -1 z"
           id="path18"
           style="stroke-width:0.112273" /></g><g
         id="g26"
         style="stroke-width:0.112273"><path
           class="st1"
           d="m 39,37.5 c -0.7,0.7 -1.2,1.7 -1.2,2.8 0,2.2 1.8,3.9 3.9,3.9 h 8.6 v 8.1 c 0,1.2 -0.9,2.1 -2.1,2.1 h -35 c -1.2,0 -2.1,-0.9 -2.1,-2.1 v -24 c 0,-1.2 0.9,-2.1 2.1,-2.1 h 35.1 c 1.2,0 2.1,0.9 2.1,2.1 v 8.1 h -8.6 c -1.1,0 -2.1,0.4 -2.8,1.1 z"
           id="path22"
           style="stroke-width:0.112273" /><path
           class="st25"
           d="M 13.8,51.8 V 28.9 h 33.8 v 4.8 h -5.9 c -1.8,0 -3.4,0.7 -4.7,1.9 -1.3,1.3 -1.9,2.9 -1.9,4.7 0,3.7 3,6.6 6.6,6.6 h 5.9 v 4.8 H 13.8 Z"
           id="path24"
           style="stroke-width:0.112273" /></g><g
         id="g30"
         style="stroke-width:0.112273"><path
           class="st45"
           d="m 48,53.2 h -1.3 c -0.1,0 -0.1,-0.1 -0.1,-0.1 0,0 0.1,-0.1 0.1,-0.1 H 48 c 0.1,0 0.1,0.1 0.1,0.1 0,0 0,0.1 -0.1,0.1 z m -2.7,0 H 44 c -0.1,0 -0.1,-0.1 -0.1,-0.1 0,0 0,-0.1 0.1,-0.1 h 1.3 c 0.1,0 0.1,0.1 0.1,0.1 0,0 0,0.1 -0.1,0.1 z m -2.6,0 h -1.3 c -0.1,0 -0.1,-0.1 -0.1,-0.1 0,0 0.1,-0.1 0.1,-0.1 h 1.3 c 0.1,0 0.1,0.1 0.1,0.1 0,0 -0.1,0.1 -0.1,0.1 z m -2.7,0 h -1.3 c -0.1,0 -0.1,-0.1 -0.1,-0.1 0,0 0.1,-0.1 0.1,-0.1 H 40 c 0.1,0 0.1,0.1 0.1,0.1 0,0 0,0.1 -0.1,0.1 z m -2.7,0 H 36 c -0.1,0 -0.1,-0.1 -0.1,-0.1 0,0 0,-0.1 0.1,-0.1 h 1.3 c 0.1,0 0.1,0.1 0.1,0.1 0,0 0,0.1 -0.1,0.1 z m -2.7,0 h -1.3 c -0.1,0 -0.1,-0.1 -0.1,-0.1 0,0 0.1,-0.1 0.1,-0.1 h 1.3 c 0.1,0 0.1,0.1 0.1,0.1 0,0 0,0.1 -0.1,0.1 z m -2.6,0 h -1.3 c -0.1,0 -0.1,-0.1 -0.1,-0.1 0,0 0.1,-0.1 0.1,-0.1 H 32 c 0.1,0 0.1,0.1 0.1,0.1 0,0 -0.1,0.1 -0.1,0.1 z m -2.7,0 H 28 c -0.1,0 -0.1,-0.1 -0.1,-0.1 0,0 0,-0.1 0.1,-0.1 h 1.3 c 0.1,0 0.1,0.1 0.1,0.1 0,0 0,0.1 -0.1,0.1 z m -2.7,0 h -1.3 c -0.1,0 -0.1,-0.1 -0.1,-0.1 0,0 0.1,-0.1 0.1,-0.1 h 1.3 c 0.1,0 0.1,0.1 0.1,0.1 0,0 0,0.1 -0.1,0.1 z m -2.7,0 h -1.3 c -0.1,0 -0.1,-0.1 -0.1,-0.1 0,0 0.1,-0.1 0.1,-0.1 h 1.3 c 0.1,0 0.1,0.1 0.1,0.1 0,0 0,0.1 -0.1,0.1 z m -2.6,0 H 20 c -0.1,0 -0.1,-0.1 -0.1,-0.1 0,0 0.1,-0.1 0.1,-0.1 h 1.3 c 0.1,0 0.1,0.1 0.1,0.1 0,0 -0.1,0.1 -0.1,0.1 z m -2.7,0 h -1.3 c -0.1,0 -0.1,-0.1 -0.1,-0.1 0,0 0.1,-0.1 0.1,-0.1 h 1.3 c 0.1,0 0.1,0.1 0.1,0.1 0,0 0,0.1 -0.1,0.1 z m -2.7,0 h -1.3 c -0.1,0 -0.1,-0.1 -0.1,-0.1 0,0 0.1,-0.1 0.1,-0.1 h 1.3 c 0.1,0 0.1,0.1 0.1,0.1 0,0 0,0.1 -0.1,0.1 z m -2.7,0 v 0 c -0.5,0 -0.9,-0.4 -0.9,-0.9 v -0.1 c 0,-0.1 0.1,-0.1 0.1,-0.1 0,0 0.1,0.1 0.1,0.1 v 0.1 c 0,0.4 0.3,0.6 0.6,0.6 0.1,0 0.1,0.1 0.1,0.1 0,0 0.1,0.2 0,0.2 z M 49,52.6 c 0,0 0,0 0,0 -0.1,0 -0.1,-0.1 -0.1,-0.1 0,0 0,-0.1 0,-0.1 v -1.2 c 0,-0.1 0.1,-0.1 0.1,-0.1 0,0 0.1,0.1 0.1,0.1 v 1.2 c 0,0.1 0,0.1 0,0.2 0,0 0,0 -0.1,0 z M 12.5,51 c -0.1,0 -0.1,-0.1 -0.1,-0.1 v -1.3 c 0,-0.1 0.1,-0.1 0.1,-0.1 0,0 0.1,0.1 0.1,0.1 v 1.3 c 0,0 -0.1,0.1 -0.1,0.1 z M 49.1,50 C 49,50 49,49.9 49,49.9 v -1.3 c 0,-0.1 0.1,-0.1 0.1,-0.1 0,0 0.1,0.1 0.1,0.1 v 1.3 c 0,0 -0.1,0.1 -0.1,0.1 z M 12.5,48.3 c -0.1,0 -0.1,-0.1 -0.1,-0.1 v -1.3 c 0,-0.1 0.1,-0.1 0.1,-0.1 0,0 0.1,0.1 0.1,0.1 v 1.3 c 0,0.1 -0.1,0.1 -0.1,0.1 z m 36.6,-1 C 49,47.3 49,47.2 49,47.2 v -1.3 c 0,-0.1 0.1,-0.1 0.1,-0.1 0,0 0.1,0.1 0.1,0.1 v 1.3 c 0,0 -0.1,0.1 -0.1,0.1 z M 12.5,45.7 c -0.1,0 -0.1,-0.1 -0.1,-0.1 v -1.3 c 0,-0.1 0.1,-0.1 0.1,-0.1 0,0 0.1,0.1 0.1,0.1 v 1.3 c 0,0 -0.1,0.1 -0.1,0.1 z M 49.1,44.6 C 49,44.6 49,44.5 49,44.5 v -1.3 c 0,-0.1 0.1,-0.1 0.1,-0.1 0,0 0.1,0.1 0.1,0.1 v 1.3 c 0,0.1 -0.1,0.1 -0.1,0.1 z M 12.5,43 c -0.1,0 -0.1,-0.1 -0.1,-0.1 v -1.3 c 0,-0.1 0.1,-0.1 0.1,-0.1 0,0 0.1,0.1 0.1,0.1 v 1.3 c 0,0 -0.1,0.1 -0.1,0.1 z M 49.1,41.9 C 49,41.9 49,41.8 49,41.8 v -1.3 c 0,-0.1 0.1,-0.1 0.1,-0.1 0,0 0.1,0.1 0.1,0.1 v 1.3 c 0,0.1 -0.1,0.1 -0.1,0.1 z M 12.5,40.3 c -0.1,0 -0.1,-0.1 -0.1,-0.1 v -1.3 c 0,-0.1 0.1,-0.1 0.1,-0.1 0,0 0.1,0.1 0.1,0.1 v 1.3 c 0,0.1 -0.1,0.1 -0.1,0.1 z m 36.6,-1 C 49,39.3 49,39.2 49,39.2 v -1.3 c 0,-0.1 0.1,-0.1 0.1,-0.1 0,0 0.1,0.1 0.1,0.1 v 1.3 c 0,0 -0.1,0.1 -0.1,0.1 z M 12.5,37.6 c -0.1,0 -0.1,-0.1 -0.1,-0.1 v -1.3 c 0,-0.1 0.1,-0.1 0.1,-0.1 0,0 0.1,0.1 0.1,0.1 v 1.3 c 0,0.1 -0.1,0.1 -0.1,0.1 z m 36.6,-1 C 49,36.6 49,36.5 49,36.5 v -1.3 c 0,-0.1 0.1,-0.1 0.1,-0.1 0,0 0.1,0.1 0.1,0.1 v 1.3 c 0,0 -0.1,0.1 -0.1,0.1 z M 12.5,35 c -0.1,0 -0.1,-0.1 -0.1,-0.1 v -1.3 c 0,-0.1 0.1,-0.1 0.1,-0.1 0,0 0.1,0.1 0.1,0.1 v 1.3 c 0,0 -0.1,0.1 -0.1,0.1 z M 49.1,33.9 C 49,33.9 49,33.8 49,33.8 v -1.3 c 0,-0.1 0.1,-0.1 0.1,-0.1 0,0 0.1,0.1 0.1,0.1 v 1.3 c 0,0.1 -0.1,0.1 -0.1,0.1 z M 12.5,32.3 c -0.1,0 -0.1,-0.1 -0.1,-0.1 v -1.3 c 0,-0.1 0.1,-0.1 0.1,-0.1 0,0 0.1,0.1 0.1,0.1 v 1.3 c 0,0 -0.1,0.1 -0.1,0.1 z M 49.1,31.2 C 49,31.2 49,31.1 49,31.1 v -1.3 c 0,-0.1 0.1,-0.1 0.1,-0.1 0,0 0.1,0.1 0.1,0.1 v 1.3 c 0,0.1 -0.1,0.1 -0.1,0.1 z M 12.5,29.6 c -0.1,0 -0.1,-0.1 -0.1,-0.1 v -1.2 c 0,-0.1 0,-0.1 0,-0.2 0,-0.1 0.1,-0.1 0.1,-0.1 0.1,0 0.1,0.1 0.1,0.1 0,0 0,0.1 0,0.1 v 1.2 c 0,0.2 -0.1,0.2 -0.1,0.2 z m 36.6,-1 C 49,28.6 49,28.5 49,28.5 v -0.1 c 0,-0.4 -0.3,-0.6 -0.6,-0.6 -0.1,0 -0.1,-0.1 -0.1,-0.1 0,0 0.1,-0.1 0.1,-0.1 v 0 c 0.5,0 0.9,0.4 0.9,0.9 v 0.1 c -0.1,-0.1 -0.2,0 -0.2,0 z M 47,27.7 h -1.3 c -0.1,0 -0.1,-0.1 -0.1,-0.1 0,0 0.1,-0.1 0.1,-0.1 H 47 c 0.1,0 0.1,0.1 0.1,0.1 0,0 -0.1,0.1 -0.1,0.1 z m -2.7,0 H 43 c -0.1,0 -0.1,-0.1 -0.1,-0.1 0,0 0.1,-0.1 0.1,-0.1 h 1.3 c 0.1,0 0.1,0.1 0.1,0.1 0,0 -0.1,0.1 -0.1,0.1 z m -2.7,0 h -1.3 c -0.1,0 -0.1,-0.1 -0.1,-0.1 0,0 0.1,-0.1 0.1,-0.1 h 1.3 c 0.1,0 0.1,0.1 0.1,0.1 0,0 0,0.1 -0.1,0.1 z m -2.7,0 h -1.3 c -0.1,0 -0.1,-0.1 -0.1,-0.1 0,0 0.1,-0.1 0.1,-0.1 h 1.3 c 0.1,0 0.1,0.1 0.1,0.1 0,0 0,0.1 -0.1,0.1 z m -2.6,0 H 35 c -0.1,0 -0.1,-0.1 -0.1,-0.1 0,0 0.1,-0.1 0.1,-0.1 h 1.3 c 0.1,0 0.1,0.1 0.1,0.1 0,0 -0.1,0.1 -0.1,0.1 z m -2.7,0 h -1.3 c -0.1,0 -0.1,-0.1 -0.1,-0.1 0,0 0.1,-0.1 0.1,-0.1 h 1.3 c 0.1,0 0.1,0.1 0.1,0.1 0,0 -0.1,0.1 -0.1,0.1 z m -2.7,0 h -1.3 c -0.1,0 -0.1,-0.1 -0.1,-0.1 0,0 0.1,-0.1 0.1,-0.1 h 1.3 c 0.1,0 0.1,0.1 0.1,0.1 0,0 0,0.1 -0.1,0.1 z m -2.7,0 h -1.3 c -0.1,0 -0.1,-0.1 -0.1,-0.1 0,0 0.1,-0.1 0.1,-0.1 h 1.3 c 0.1,0 0.1,0.1 0.1,0.1 0,0 0,0.1 -0.1,0.1 z m -2.6,0 h -1.3 c -0.1,0 -0.1,-0.1 -0.1,-0.1 0,0 0.1,-0.1 0.1,-0.1 h 1.3 c 0.1,0 0.1,0.1 0.1,0.1 0,0 -0.1,0.1 -0.1,0.1 z m -2.7,0 h -1.3 c -0.1,0 -0.1,-0.1 -0.1,-0.1 0,0 0.1,-0.1 0.1,-0.1 h 1.3 c 0.1,0 0.1,0.1 0.1,0.1 0,0 -0.1,0.1 -0.1,0.1 z m -2.7,0 h -1.3 c -0.1,0 -0.1,-0.1 -0.1,-0.1 0,0 0.1,-0.1 0.1,-0.1 h 1.3 c 0.1,0 0.1,0.1 0.1,0.1 0,0 0,0.1 -0.1,0.1 z m -2.7,0 h -1.3 c -0.1,0 -0.1,-0.1 -0.1,-0.1 0,0 0.1,-0.1 0.1,-0.1 h 1.3 c 0.1,0 0.1,0.1 0.1,0.1 0,0 0,0.1 -0.1,0.1 z m -2.6,0 h -1.3 c -0.1,0 -0.1,-0.1 -0.1,-0.1 0,0 0.1,-0.1 0.1,-0.1 h 1.3 c 0.1,0 0.1,0.1 0.1,0.1 0,0 -0.1,0.1 -0.1,0.1 z"
           id="path28"
           style="stroke-width:0.112273" /></g><g
         id="g34"
         style="stroke-width:0.112273"><path
           class="st7"
           d="M 52.9,44.3 H 41.1 c -2.2,0 -3.9,-1.8 -3.9,-3.9 v 0 c 0,-2.2 1.8,-3.9 3.9,-3.9 h 11.8 z"
           id="path32"
           style="stroke-width:0.112273" /></g><path
         class="st43"
         d="m 48.5,37.7 c 0,-0.4 0,-0.9 -0.1,-1.3 h -7.3 c -2.2,0 -3.9,1.8 -3.9,3.9 v 0 c 0,1.3 0.6,2.4 1.6,3.2 0.9,0.5 2,0.8 3.1,0.8 3.6,0 6.6,-3 6.6,-6.6 z"
         id="path36"
         style="stroke-width:0.112273" /><circle
         class="st3"
         cx="41.900002"
         cy="40.299999"
         r="2.2"
         id="circle38"
         style="stroke-width:0.112273" /><path
         class="st5"
         d="m 43.1,38.4 c 0.2,0.3 0.4,0.8 0.4,1.2 0,1.2 -1,2.2 -2.2,2.2 -0.4,0 -0.9,-0.1 -1.2,-0.4 0.4,0.6 1.1,1 1.9,1 1.2,0 2.2,-1 2.2,-2.2 -0.1,-0.7 -0.5,-1.4 -1.1,-1.8 z"
         id="path40"
         style="stroke-width:0.112273" /></g></g></svg>
