<?xml version="1.0" encoding="UTF-8" standalone="no"?>
<!-- Generator: Adobe Illustrator 17.1.0, SVG Export Plug-In . SVG Version: 6.00 Build 0)  -->

<svg
   version="1.1"
   id="checklist"
   x="0px"
   y="0px"
   viewBox="0 0 935.95001 935.40594"
   enable-background="new 0 0 1010 1010"
   xml:space="preserve"
   sodipodi:docname="crediario-5.svg"
   inkscape:version="1.1.1 (3bf5ae0d25, 2021-09-20)"
   width="935.95001"
   height="935.40594"
   xmlns:inkscape="http://www.inkscape.org/namespaces/inkscape"
   xmlns:sodipodi="http://sodipodi.sourceforge.net/DTD/sodipodi-0.dtd"
   xmlns="http://www.w3.org/2000/svg"
   xmlns:svg="http://www.w3.org/2000/svg"><defs
   id="defs80" /><sodipodi:namedview
   id="namedview78"
   pagecolor="#ffffff"
   bordercolor="#666666"
   borderopacity="1.0"
   inkscape:pageshadow="2"
   inkscape:pageopacity="0.0"
   inkscape:pagecheckerboard="0"
   showgrid="false"
   inkscape:zoom="0.82376238"
   inkscape:cx="549.91586"
   inkscape:cy="493.46755"
   inkscape:window-width="2560"
   inkscape:window-height="1017"
   inkscape:window-x="-8"
   inkscape:window-y="-8"
   inkscape:window-maximized="1"
   inkscape:current-layer="checklist-checklist" />
<g
   id="checklist-checklist"
   transform="translate(-45.450165,-97.818871)">
	
	<rect
   style="fill:#fc6e51;fill-opacity:1;stroke-width:0.6;paint-order:markers stroke fill"
   id="rect881"
   width="935.95001"
   height="935.40594"
   x="45.450165"
   y="97.818871"
   rx="0"
   ry="0" /><g
   id="checklist-checklist_1_"
   transform="translate(8.4349209,60.521843)">
		<g
   id="g15">
			<g
   id="g7">
				<path
   fill="#ffffff"
   d="m 587.1016,286.0547 h 109.463 c 10.08,0 18.2469,8.1767 18.2469,18.2471 v 465.2509 c 0,10.0801 -8.167,18.2471 -18.2469,18.2471 H 313.416 c -10.0806,0 -18.2471,-8.167 -18.2471,-18.2471 V 304.3018 c 0,-10.0704 8.1665,-18.2471 18.2471,-18.2471 h 109.4824"
   id="path3" />
				<path
   fill="#454545"
   d="M 696.5645,797.9004 H 313.416 c -15.6289,0 -28.3476,-12.7246 -28.3476,-28.3477 V 304.3018 c 0,-15.6231 12.7187,-28.3467 28.3476,-28.3467 h 109.4824 v 20.1997 H 313.416 c -4.4931,0 -8.1474,3.6494 -8.1474,8.147 v 465.2509 c 0,4.4981 3.6543,8.1475 8.1474,8.1475 h 383.1485 c 4.4882,0 8.1474,-3.6494 8.1474,-8.1475 V 304.3018 c 0,-4.4976 -3.6592,-8.147 -8.1474,-8.147 h -109.463 v -20.1997 h 109.463 c 15.6337,0 28.3476,12.7236 28.3476,28.3467 v 465.2509 c 0,15.6231 -12.7139,28.3477 -28.3476,28.3477 z"
   id="path5" />
			</g>
			<g
   id="g13">
				<path
   fill="#ffb933"
   d="m 568.855,267.8076 c 0,0 -27.3609,-5.9375 -27.3609,-9.1133 0,-20.1709 -16.3535,-36.4941 -36.4941,-36.4941 -20.1602,0 -36.4941,16.3232 -36.4941,36.4941 0,3.1758 -27.3604,9.1133 -27.3604,9.1133 -10.0806,0 -18.2471,8.1768 -18.2471,18.2471 v 36.4941 c 0,10.0703 8.1665,18.2471 18.2471,18.2471 H 568.855 c 10.0605,0 18.2466,-8.1768 18.2466,-18.2471 v -36.4941 c 0,-10.0703 -8.1861,-18.2471 -18.2466,-18.2471 z"
   id="path9" />
				<path
   fill="#454545"
   d="M 568.855,350.896 H 441.1455 c -15.6289,0 -28.3476,-12.7236 -28.3476,-28.3472 v -36.4941 c 0,-15.2285 12.0629,-27.686 27.1342,-28.3272 7.1656,-1.5781 14.5728,-3.5805 18.8584,-5.0302 2.9492,-22.8633 22.5474,-40.5977 46.2095,-40.5977 23.6621,0 43.2607,17.7344 46.2095,40.5977 4.2856,1.4497 11.6928,3.4521 18.8589,5.0302 15.0703,0.6412 27.1337,13.0987 27.1337,28.3272 v 36.4941 c 0,15.6236 -12.7187,28.3472 -28.3471,28.3472 z M 505,232.2998 c -14.5532,0 -26.394,11.8359 -26.394,26.3945 0,8.354 -5.336,12.4766 -35.3204,18.9766 -0.7006,0.1582 -1.4204,0.2368 -2.1401,0.2368 -4.4932,0 -8.1475,3.6494 -8.1475,8.147 v 36.4941 c 0,4.4981 3.6543,8.1475 8.1475,8.1475 H 568.855 c 4.4927,0 8.147,-3.6494 8.147,-8.1475 v -36.4941 c 0,-4.4976 -3.6543,-8.147 -8.147,-8.147 -0.7202,0 -1.44,-0.0786 -2.1402,-0.2368 -29.9843,-6.5 -35.3203,-10.6226 -35.3203,-18.9766 0,-14.5586 -11.8408,-26.3945 -26.3945,-26.3945 z"
   id="path11" />
			</g>
		</g>
		<g
   id="g73">
			<g
   id="g23">
				<circle
   fill="#acaf48"
   cx="373.70001"
   cy="446.56049"
   r="40.400101"
   id="circle17" />
				<g
   id="g21">
					<polygon
   fill="#454545"
   points="373.7002,470.9414 346.3594,443.6016 360.6411,429.3188 373.7002,442.3779 406.959,409.1191 421.2412,423.4009 "
   id="polygon19" />
				</g>
			</g>
			<g
   id="g31">
				<circle
   fill="#acaf48"
   cx="373.70001"
   cy="567.75983"
   r="40.400101"
   id="circle25" />
				<g
   id="g29">
					<polygon
   fill="#454545"
   points="373.7002,592.1426 346.3594,564.8008 360.6411,550.5195 373.7002,563.5781 406.959,530.3184 421.2412,544.6016 "
   id="polygon27" />
				</g>
			</g>
			<g
   id="g39">
				<circle
   fill="#acaf48"
   cx="373.70001"
   cy="688.96002"
   r="40.400101"
   id="circle33" />
				<g
   id="g37">
					<polygon
   fill="#454545"
   points="373.7002,713.3418 346.3594,686.001 360.6411,671.7187 373.7002,684.7773 406.959,651.5195 421.2412,665.8008 "
   id="polygon35" />
				</g>
			</g>
			<g
   id="g43">
				<polygon
   fill="#454545"
   points="474.7002,416.2598 676.7002,416.2598 676.7002,436.46 474.7002,436.46 "
   id="polygon41" />
			</g>
			<g
   id="g47">
				<polygon
   fill="#454545"
   points="474.7002,456.6602 595.9004,456.6602 595.9004,476.8594 474.7002,476.8594 "
   id="polygon45" />
			</g>
			<g
   id="g51">
				<polygon
   fill="#454545"
   points="474.7002,537.46 535.2998,537.46 535.2998,557.6602 474.7002,557.6602 "
   id="polygon49" />
			</g>
			<g
   id="g55">
				<polygon
   fill="#454545"
   points="555.5,537.46 676.7002,537.46 676.7002,557.6602 555.5,557.6602 "
   id="polygon53" />
			</g>
			<g
   id="g59">
				<polygon
   fill="#454545"
   points="474.7002,577.8594 636.2998,577.8594 636.2998,598.0605 474.7002,598.0605 "
   id="polygon57" />
			</g>
			<g
   id="g63">
				<polygon
   fill="#454545"
   points="474.7002,658.6602 676.7002,658.6602 676.7002,678.8594 474.7002,678.8594 "
   id="polygon61" />
			</g>
			<g
   id="g67">
				<polygon
   fill="#454545"
   points="474.7002,699.0605 535.2998,699.0605 535.2998,719.2598 474.7002,719.2598 "
   id="polygon65" />
			</g>
			<g
   id="g71">
				<polygon
   fill="#454545"
   points="555.5,699.0605 616.0996,699.0605 616.0996,719.2598 555.5,719.2598 "
   id="polygon69" />
			</g>
		</g>
	</g>
</g>
</svg>
