<?xml version="1.0" encoding="UTF-8" standalone="no"?>
<!-- Created with Inkscape (http://www.inkscape.org/) -->

<svg
   width="190.26562mm"
   height="190.129mm"
   viewBox="0 0 190.26562 190.129"
   version="1.1"
   id="svg5"
   inkscape:version="1.1.1 (3bf5ae0d25, 2021-09-20)"
   sodipodi:docname="crediario-6.svg"
   xmlns:inkscape="http://www.inkscape.org/namespaces/inkscape"
   xmlns:sodipodi="http://sodipodi.sourceforge.net/DTD/sodipodi-0.dtd"
   xmlns="http://www.w3.org/2000/svg"
   xmlns:svg="http://www.w3.org/2000/svg">
  <sodipodi:namedview
     id="namedview7"
     pagecolor="#ffffff"
     bordercolor="#666666"
     borderopacity="1.0"
     inkscape:pageshadow="2"
     inkscape:pageopacity="0.0"
     inkscape:pagecheckerboard="0"
     inkscape:document-units="mm"
     showgrid="false"
     inkscape:zoom="0.74118967"
     inkscape:cx="365.62841"
     inkscape:cy="383.84237"
     inkscape:window-width="2560"
     inkscape:window-height="1017"
     inkscape:window-x="-8"
     inkscape:window-y="-8"
     inkscape:window-maximized="1"
     inkscape:current-layer="layer1" />
  <defs
     id="defs2" />
  <g
     inkscape:label="Camada 1"
     inkscape:groupmode="layer"
     id="layer1"
     transform="translate(-8.2103367,-47.120193)">
    <rect
       style="fill:#c6afe9;stroke-width:0.15875;paint-order:markers stroke fill"
       id="rect1129"
       width="190.26562"
       height="190.129"
       x="8.2103367"
       y="47.120193" />
    <g
       id="g854"
       transform="translate(-16.890044,20.45753)">
      <path
         style="fill:#eef4fd;stroke-width:1"
         d="M 69.49928,132.3105 V 92.358416 h 25.399999 25.400001 v 6.746875 6.746879 h -1.98438 -1.98437 l -0.0108,3.50572 -0.0109,3.50573 -1.32958,0.62396 c -4.11922,1.93311 -6.95007,7.4793 -6.11352,11.97761 0.60142,3.23397 2.40383,6.09215 4.91178,7.78889 1.4988,1.01401 4.22313,1.96683 5.62359,1.96683 h 0.89817 v 3.55341 3.55341 l -0.7457,-0.21387 c -1.55523,-0.44603 -2.69388,-1.67133 -2.69388,-2.89887 0,-0.53923 -0.11358,-0.55449 -4.12587,-0.55449 h -4.12587 l 0.18742,1.38906 c 0.53619,3.97418 3.13076,7.61748 6.47579,9.0933 l 1.05937,0.46739 v 3.38867 3.38866 h 1.98437 1.98438 v 7.9375 7.9375 H 94.899279 69.49928 Z m 49.88498,-5.22008 c -3.13696,-0.79684 -3.41244,-5.32083 -0.39746,-6.52718 0.58223,-0.23297 1.11573,-0.42357 1.18554,-0.42357 0.0698,0 0.12694,1.60734 0.12694,3.57187 0,1.96453 -0.0893,3.55806 -0.19844,3.54118 -0.10914,-0.0169 -0.4316,-0.0899 -0.71658,-0.1623 z"
         id="path870"
         sodipodi:nodetypes="ccccccccccsssscccssscsscccccccccccssssc" />
      <path
         style="fill:#cee3fa;stroke-width:1"
         d="m 120.29928,164.32508 v -7.9375 h 1.98437 1.98438 v -3.3994 -3.3994 l 1.11844,-0.5032 c 1.76133,-0.79245 4.23489,-3.28129 5.19064,-5.2227 3.41171,-6.93017 -0.87296,-15.21238 -8.49189,-16.41474 l -1.78594,-0.28185 v -3.54199 -3.542 l 0.7276,0.17889 c 1.48978,0.36629 2.21212,1.16632 2.81665,3.11962 0.12777,0.41283 0.55527,0.46302 3.94397,0.46302 2.09037,0 3.86032,-0.0596 3.93323,-0.13256 0.32033,-0.32034 -0.37891,-3.51024 -1.10122,-5.02371 -0.91173,-1.91035 -3.45111,-4.46709 -5.23304,-5.26881 l -1.11844,-0.5032 v -3.53169 -3.53169 h -1.98438 -1.98437 v -6.745556 -6.745552 l -25.466147,-0.06881 c -14.006379,-0.03784 -2.57638,-0.09797 25.399997,-0.133615 l 50.86615,-0.06481 v 28.070293 28.07029 L 159.2795,160.2485 147.45973,172.26258 H 133.8795 120.29928 Z m -8.35102,-17.52865 -0.77711,-0.85989 0.8599,0.7771 c 0.80154,0.72437 0.98151,0.94269 0.7771,0.94269 -0.0455,0 -0.43248,-0.38695 -0.85989,-0.8599 z m 8.35102,-8.00364 c 0,-3.92161 0.0293,-3.98076 1.57727,-3.18029 1.84944,0.95638 2.44987,3.27166 1.32636,5.11444 -0.4717,0.77369 -1.85954,1.63772 -2.63055,1.63772 -0.17423,0 -0.27308,-1.29291 -0.27308,-3.57187 z m -11.62078,0.7717 c 0.0127,-0.30822 0.0754,-0.37092 0.15985,-0.15985 0.0764,0.19099 0.067,0.4192 -0.0209,0.50712 -0.0879,0.0879 -0.15046,-0.0684 -0.13897,-0.34727 z m 3.91411,-7.18785 c -0.32911,-0.41964 -0.31975,-0.429 0.0999,-0.0999 0.25466,0.19972 0.46302,0.40808 0.46302,0.46302 0,0.21776 -0.21727,0.0776 -0.56292,-0.36313 z m -3.89322,-7.73906 c 0,-0.3638 0.0601,-0.51263 0.13345,-0.33073 0.0734,0.1819 0.0734,0.47956 0,0.66146 -0.0734,0.1819 -0.13345,0.0331 -0.13345,-0.33073 z m -0.0209,-1.74184 c 0.0127,-0.30822 0.0754,-0.37092 0.15985,-0.15985 0.0764,0.19099 0.067,0.4192 -0.0209,0.50712 -0.0879,0.0879 -0.15046,-0.0683 -0.13897,-0.34727 z m 2.62494,-6.54303 c 0,-0.0455 0.38695,-0.43249 0.85989,-0.8599 l 0.8599,-0.7771 -0.77711,0.85989 c -0.72437,0.80155 -0.94268,0.98151 -0.94268,0.77711 z M 69.49928,72.518333 v -6.610918 l -8.532812,-0.07361 -8.532812,-0.07361 8.665104,-0.06235 8.665104,-0.06235 v 6.746875 c 0,3.710781 -0.05953,6.746874 -0.132292,6.746874 -0.07276,0 -0.132292,-2.974913 -0.132292,-6.610917 z m 7.998894,-0.07689 -0.06139,-6.820093 3.902604,0.07322 3.902604,0.07322 0.0071,6.746874 0.0071,6.746875 -0.07778,-6.680729 -0.07778,-6.680729 H 81.40553 77.71045 l -0.07544,6.680729 -0.07544,6.680729 z M 94.977519,65.7032 c 1.134436,-0.04972 2.920373,-0.04941 3.96875,6.61e-4 1.048374,0.05009 0.120198,0.09076 -2.062615,0.09039 -2.182812,-3.7e-4 -3.040573,-0.04135 -1.906135,-0.09107 z m 15.610421,0 c 1.13443,-0.04972 2.92037,-0.04941 3.96874,6.61e-4 1.04838,0.05009 0.1202,0.09076 -2.06261,0.09039 -2.18281,-3.7e-4 -3.04057,-0.04135 -1.90613,-0.09107 z"
         id="path868" />
      <path
         style="fill:#79e0f4;stroke-width:1"
         d="M 69.299986,132.24435 69.234697,92.093833 H 60.900323 52.565948 V 78.996959 65.900084 h 8.466666 8.466666 v 6.614583 6.614583 h 4.101042 4.101041 v -6.614583 -6.614583 h 3.704167 3.704166 v 6.614583 6.614583 h 3.96875 3.96875 v -6.614583 -6.614583 h 3.836458 3.836456 v 6.614583 6.614583 h 3.96875 3.96875 v -6.614583 -6.614583 h 3.83646 3.83646 v 6.614583 6.614583 h 1.98437 1.98438 v 6.482292 6.482291 H 94.900131 69.500982 l -0.06785,40.150517 -0.06785,40.15052 z m 94.787834,23.0849 c 3.78144,-3.78354 6.93488,-6.87917 7.00764,-6.87917 0.0728,0 -2.96162,3.09563 -6.74306,6.87917 -3.78144,3.78354 -6.93488,6.87916 -7.00764,6.87916 -0.0728,0 2.96161,-3.09562 6.74306,-6.87916 z m -1.19063,-82.807318 v -6.607319 l -3.77031,-0.08128 -3.77031,-0.08128 3.9026,-0.05828 3.90261,-0.05828 v 6.746875 c 0,3.710781 -0.0595,6.746874 -0.1323,6.746874 -0.0728,0 -0.13229,-2.973293 -0.13229,-6.607318 z M 147.28678,72.38964 v -6.475027 l -3.77032,-0.08128 -3.77031,-0.08128 3.90261,-0.05828 3.9026,-0.05828 v 6.614583 c 0,3.638021 -0.0595,6.614583 -0.13229,6.614583 -0.0728,0 -0.13229,-2.913762 -0.13229,-6.475027 z M 126.19835,65.7032 c 1.13444,-0.04972 2.92037,-0.04941 3.96875,6.61e-4 1.04838,0.05009 0.1202,0.09076 -2.06261,0.09039 -2.18282,-3.7e-4 -3.04058,-0.04135 -1.90614,-0.09107 z m 49.06811,-0.0011 c 2.36472,-0.04385 6.23425,-0.04385 8.59896,0 2.36471,0.04385 0.42995,0.07973 -4.29948,0.07973 -4.72943,0 -6.66419,-0.03588 -4.29948,-0.07973 z"
         id="path866" />
      <path
         style="fill:#fdeb39;stroke-width:1"
         d="m 108.83078,138.85893 c 0.0675,-0.10914 1.835,-0.19843 3.92787,-0.19843 2.09288,0 3.86042,0.0893 3.92787,0.19843 0.0675,0.10915 -1.70009,0.19844 -3.92787,0.19844 -2.22778,0 -3.99532,-0.0893 -3.92787,-0.19844 z m 7.80611,-15.0151 c 0,-0.3638 0.0601,-0.51263 0.13345,-0.33073 0.0734,0.1819 0.0734,0.47956 0,0.66146 -0.0734,0.1819 -0.13345,0.0331 -0.13345,-0.33073 z m -7.95839,-0.15434 c 0.0127,-0.30822 0.0754,-0.37092 0.15985,-0.15985 0.0764,0.19099 0.067,0.4192 -0.0209,0.50712 -0.0879,0.0879 -0.15046,-0.0683 -0.13897,-0.34727 z M 69.763864,66.561543 V 53.993835 h 3.836458 3.836458 V 66.561543 79.12925 h -3.836458 -3.836458 z m 15.609992,8.929687 c -2.35e-4,-2.000912 -0.07903,-7.65638 -0.175111,-12.567708 l -0.174684,-8.929687 h 4.011568 4.011567 V 66.561543 79.12925 H 89.210738 85.37428 l -5.29e-4,-3.63802 z M 100.72011,66.561543 V 53.993835 h 3.96875 3.96875 V 66.561543 79.12925 h -3.96875 -3.96875 z m 15.61042,0 V 53.993835 h 3.96875 3.96875 V 66.561543 79.12925 h -3.96875 -3.96875 z m 15.61041,0 V 53.993835 h 3.96875 3.96875 V 66.561543 79.12925 h -3.96875 -3.96875 z m 15.61042,0 V 53.993835 h 3.96875 3.96875 V 66.561543 79.12925 h -3.96875 -3.96875 z m 15.61042,8.77444 c 0,-2.086296 -0.0788,-7.741765 -0.17509,-12.567707 l -0.17508,-8.774441 h 4.14383 4.14384 V 66.561543 79.12925 h -3.96875 -3.96875 z"
         id="path864" />
      <path
         style="fill:#28cbe6;stroke-width:1"
         d="m 145.63313,92.158656 -25.33385,-0.06747 V 85.610219 79.12925 h 1.98437 1.98438 v -6.614583 -6.614583 h 3.83646 3.83645 v 6.614583 6.614583 h 3.96875 3.96875 v -6.614583 -6.614583 h 3.69955 3.69954 l 0.0708,6.548438 0.0708,6.548437 4.03489,0.07304 4.0349,0.07304 V 72.521565 65.90009 h 3.70417 3.70416 v 6.614583 6.614583 h 4.10104 4.10105 V 72.514673 65.90009 h 8.46666 8.46667 v 13.089695 13.089693 l -8.53281,0.07333 c -4.69305,0.04033 -19.93305,0.04297 -33.86667,0.0058 z"
         id="path862" />
      <path
         style="fill:#f44e22;stroke-width:1"
         d="m 116.33053,152.9716 v -3.41598 l -1.2002,-0.58101 c -3.07284,-1.48753 -5.78933,-5.27437 -6.1264,-8.54031 l -0.15577,-1.50922 h 3.88178 c 3.46778,0 3.89655,0.0494 4.02028,0.46302 0.5014,1.67623 1.95706,2.97656 3.3321,2.97656 2.15203,0 3.65383,-1.55981 3.65555,-3.79677 8e-4,-1.1028 -0.1233,-1.40751 -0.883,-2.16721 -0.93864,-0.93865 -1.07166,-0.984 -4.11079,-1.40147 -3.89522,-0.53506 -7.10931,-2.93005 -8.84254,-6.58906 -0.7933,-1.67472 -0.84705,-1.97288 -0.84705,-4.69861 0,-2.72573 0.0537,-3.02389 0.84705,-4.69861 1.03842,-2.1922 2.98636,-4.2994 4.95078,-5.35556 l 1.47636,-0.79375 7.9e-4,-3.50573 0.001,-3.50572 h 3.96875 3.96875 v 3.53169 3.53169 l 1.11844,0.5032 c 0.61515,0.27677 1.86609,1.2022 2.77986,2.05652 2.06755,1.93302 3.25032,4.23062 3.44844,6.69876 l 0.13521,1.68437 -3.89819,-0.0734 -3.8982,-0.0734 -0.36111,-1.05833 c -0.4409,-1.29219 -1.40151,-2.16792 -2.63105,-2.39858 -1.21068,-0.22712 -2.02881,-0.002 -3.01801,0.83031 -1.61574,1.35956 -1.63318,3.73207 -0.0387,5.25971 0.65982,0.63215 1.08558,0.76819 3.01689,0.96394 3.35099,0.33966 5.53181,1.33578 7.60784,3.47498 3.63263,3.74319 4.2658,9.74319 1.49033,14.12272 -0.90466,1.4275 -3.10263,3.42051 -4.54522,4.12138 l -1.20656,0.58619 v 3.38686 3.38686 h -3.96875 -3.96875 z"
         id="path860" />
      <path
         style="fill:#2c6893;stroke-width:1"
         d="M 52.565948,140.77716 V 92.093833 h 8.334375 8.334374 v 40.084377 40.08437 h 25.532291 25.532292 v 8.59896 8.59895 H 86.432613 52.565948 Z m 106.692052,19.71146 11.83893,-11.90625 0.0673,-28.17812 0.0673,-28.178125 8.4006,-0.0057 8.4006,-0.0057 -8.33445,0.07553 -8.33446,0.07552 v 28.109365 28.10936 l -11.9724,11.90515 -11.97239,11.90515 11.83893,-11.90625 z"
         id="path858" />
      <path
         style="fill:#2c5076;stroke-width:1"
         d="m 120.29928,180.86154 v -8.59896 h 13.69109 13.6911 l 11.8412,-11.839 11.84119,-11.839 V 120.4715 92.358416 h 8.33437 8.33438 v 48.551044 48.55103 h -33.86667 -33.86666 z"
         id="path856" />
    </g>
  </g>
</svg>
