<svg width="24" height="26" viewBox="0 0 24 26" fill="none" xmlns="http://www.w3.org/2000/svg">
<path fill-rule="evenodd" clip-rule="evenodd" d="M9.02216 3.42218C9.22845 3.21589 9.50824 3.09999 9.79997 3.09999H14.2C14.4917 3.09999 14.7715 3.21589 14.9778 3.42218C15.1841 3.62847 15.3 3.90826 15.3 4.19999V5.29999H8.69997V4.19999C8.69997 3.90826 8.81587 3.62847 9.02216 3.42218ZM17.5 4.19999V5.29999H19.7L19.7054 5.30001H21.9C22.5075 5.30001 23 5.79249 23 6.40001C23 7.00752 22.5075 7.50001 21.9 7.50001H20.8V21.8C20.8 22.6752 20.4523 23.5146 19.8334 24.1334C19.2146 24.7523 18.3752 25.1 17.5 25.1H6.49997C5.62476 25.1 4.78539 24.7523 4.16652 24.1334C3.54765 23.5146 3.19997 22.6752 3.19997 21.8V7.50001H2.1C1.49249 7.50001 1 7.00752 1 6.40001C1 5.79249 1.49249 5.30001 2.1 5.30001H4.2946L4.29997 5.29999H6.49997V4.19999C6.49997 3.32478 6.84765 2.48541 7.46652 1.86654C8.08539 1.24767 8.92476 0.899994 9.79997 0.899994H14.2C15.0752 0.899994 15.9146 1.24767 16.5334 1.86654C17.1523 2.48541 17.5 3.32478 17.5 4.19999ZM5.39997 7.50001V21.8C5.39997 22.0917 5.51587 22.3715 5.72216 22.5778C5.92845 22.7841 6.20824 22.9 6.49997 22.9H17.5C17.7917 22.9 18.0715 22.7841 18.2778 22.5778C18.4841 22.3715 18.6 22.0917 18.6 21.8V7.49999L5.39997 7.50001ZM9.79997 10.8C10.4075 10.8 10.9 11.2925 10.9 11.9V18.5C10.9 19.1075 10.4075 19.6 9.79997 19.6C9.19246 19.6 8.69998 19.1075 8.69998 18.5V11.9C8.69998 11.2925 9.19246 10.8 9.79997 10.8ZM15.2999 11.9C15.2999 11.2925 14.8074 10.8 14.1999 10.8C13.5924 10.8 13.0999 11.2925 13.0999 11.9V18.5C13.0999 19.1075 13.5924 19.6 14.1999 19.6C14.8074 19.6 15.2999 19.1075 15.2999 18.5V11.9Z" fill="#454E5F"/>
</svg>
