<?xml version="1.0" encoding="UTF-8" standalone="no"?>
<!-- Generator: Adobe Illustrator 19.0.0, SVG Export Plug-In . SVG Version: 6.00 Build 0)  -->

<svg
   version="1.1"
   id="Layer_1"
   x="0px"
   y="0px"
   viewBox="0 0 512 512"
   xml:space="preserve"
   sodipodi:docname="newspaper_78326.svg"
   width="512"
   height="512"
   inkscape:version="1.1.1 (3bf5ae0d25, 2021-09-20)"
   xmlns:inkscape="http://www.inkscape.org/namespaces/inkscape"
   xmlns:sodipodi="http://sodipodi.sourceforge.net/DTD/sodipodi-0.dtd"
   xmlns="http://www.w3.org/2000/svg"
   xmlns:svg="http://www.w3.org/2000/svg"><defs
   id="defs103" /><sodipodi:namedview
   id="namedview101"
   pagecolor="#ffffff"
   bordercolor="#666666"
   borderopacity="1.0"
   inkscape:pageshadow="2"
   inkscape:pageopacity="0.0"
   inkscape:pagecheckerboard="0"
   showgrid="false"
   inkscape:zoom="1.625"
   inkscape:cx="266.46154"
   inkscape:cy="226.15385"
   inkscape:window-width="2560"
   inkscape:window-height="1017"
   inkscape:window-x="-8"
   inkscape:window-y="-8"
   inkscape:window-maximized="1"
   inkscape:current-layer="Layer_1" />
<rect
   style="fill:#2b4457"
   width="512"
   height="512"
   id="rect2"
   x="0"
   y="0" />
<path
   style="fill:#cccbca"
   d="m 398.999,201.889 v 181.622 c 0,9.226 -7.493,16.719 -16.691,16.719 -9.239,0 -16.75,-7.493 -16.75,-16.719 V 201.889 Z"
   id="path4" />
<path
   style="fill:#ffffff"
   d="M 365.56,383.514 V 152.248 L 325.074,111.764 H 112.998 v 271.749 c 0,4.28 1.626,8.553 4.895,11.825 3.264,3.264 7.56,4.895 11.812,4.895 H 382.31 c -9.241,0 -16.75,-7.493 -16.75,-16.719 z"
   id="path6" />
<g
   id="g22">
	<rect
   x="137.992"
   y="273.43399"
   style="fill:#cccbca"
   width="96.601997"
   height="4.4720001"
   id="rect8" />
	<rect
   x="137.992"
   y="287.94901"
   style="fill:#cccbca"
   width="96.601997"
   height="4.4439998"
   id="rect10" />
	<rect
   x="137.992"
   y="302.43799"
   style="fill:#cccbca"
   width="96.601997"
   height="4.4520001"
   id="rect12" />
	<rect
   x="137.992"
   y="316.92801"
   style="fill:#cccbca"
   width="96.601997"
   height="4.454"
   id="rect14" />
	<rect
   x="137.992"
   y="331.392"
   style="fill:#cccbca"
   width="96.601997"
   height="4.4619999"
   id="rect16" />
	<rect
   x="137.992"
   y="345.90701"
   style="fill:#cccbca"
   width="96.601997"
   height="4.4619999"
   id="rect18" />
	<rect
   x="137.992"
   y="360.397"
   style="fill:#cccbca"
   width="96.601997"
   height="4.4439998"
   id="rect20" />
</g>
<rect
   x="137.992"
   y="215.50101"
   style="fill:#21d8de"
   width="96.601997"
   height="47.928001"
   id="rect24" />
<g
   id="g42">
	<rect
   x="244.582"
   y="215.50101"
   style="fill:#cccbca"
   width="96.625"
   height="4.454"
   id="rect26" />
	<rect
   x="244.582"
   y="229.99001"
   style="fill:#cccbca"
   width="96.625"
   height="4.447"
   id="rect28" />
	<rect
   x="244.582"
   y="244.48"
   style="fill:#cccbca"
   width="96.625"
   height="4.454"
   id="rect30" />
	<rect
   x="244.582"
   y="258.97"
   style="fill:#cccbca"
   width="96.625"
   height="4.4650002"
   id="rect32" />
	<rect
   x="244.582"
   y="273.43399"
   style="fill:#cccbca"
   width="96.625"
   height="4.4720001"
   id="rect34" />
	<rect
   x="244.582"
   y="287.94901"
   style="fill:#cccbca"
   width="96.625"
   height="4.4439998"
   id="rect36" />
	<rect
   x="244.582"
   y="302.43799"
   style="fill:#cccbca"
   width="96.625"
   height="4.4520001"
   id="rect38" />
	<rect
   x="244.582"
   y="316.92801"
   style="fill:#cccbca"
   width="96.625"
   height="47.928001"
   id="rect40" />
</g>
<g
   id="g58">
	<rect
   x="249.011"
   y="328.65302"
   style="fill:#ffffff"
   width="9.382"
   height="31.886999"
   id="rect44" />
	<rect
   x="262.06699"
   y="347.08499"
   style="fill:#ffffff"
   width="9.3769999"
   height="13.448"
   id="rect46" />
	<rect
   x="275.14899"
   y="332.57001"
   style="fill:#ffffff"
   width="9.3900003"
   height="27.973"
   id="rect48" />
	<rect
   x="288.20499"
   y="338.048"
   style="fill:#ffffff"
   width="9.3999996"
   height="22.5"
   id="rect50" />
	<rect
   x="301.28601"
   y="324.45401"
   style="fill:#ffffff"
   width="9.3800001"
   height="36.07"
   id="rect52" />
	<rect
   x="314.34201"
   y="354.35501"
   style="fill:#ffffff"
   width="9.382"
   height="6.1929998"
   id="rect54" />
	<rect
   x="327.39801"
   y="331.392"
   style="fill:#ffffff"
   width="9.3769999"
   height="29.135"
   id="rect56" />
</g>
<rect
   x="137.349"
   y="156.106"
   style="fill:#ff6d3b"
   width="203.853"
   height="29.862"
   id="rect60" />
<g
   id="g66">
	<rect
   x="137.349"
   y="194.765"
   style="fill:#2b4457"
   width="203.853"
   height="2.8080001"
   id="rect62" />
	<rect
   x="137.349"
   y="144.48599"
   style="fill:#2b4457"
   width="203.853"
   height="2.813"
   id="rect64" />
</g>
<polygon
   style="fill:#cccbca"
   points="325.071,152.248 325.071,111.764 365.56,152.248 "
   id="polygon68" />
<g
   id="g70">
</g>
<g
   id="g72">
</g>
<g
   id="g74">
</g>
<g
   id="g76">
</g>
<g
   id="g78">
</g>
<g
   id="g80">
</g>
<g
   id="g82">
</g>
<g
   id="g84">
</g>
<g
   id="g86">
</g>
<g
   id="g88">
</g>
<g
   id="g90">
</g>
<g
   id="g92">
</g>
<g
   id="g94">
</g>
<g
   id="g96">
</g>
<g
   id="g98">
</g>
</svg>
