<?xml version="1.0" encoding="UTF-8" standalone="no"?>
<!-- Generator: Adobe Illustrator 19.0.0, SVG Export Plug-In . SVG Version: 6.00 Build 0)  -->

<svg
   version="1.1"
   id="Layer_1"
   x="0px"
   y="0px"
   viewBox="0 0 509.53799 508.34461"
   xml:space="preserve"
   sodipodi:docname="convenio.svg"
   inkscape:version="1.1.1 (3bf5ae0d25, 2021-09-20)"
   width="509.53799"
   height="508.3446"
   xmlns:inkscape="http://www.inkscape.org/namespaces/inkscape"
   xmlns:sodipodi="http://sodipodi.sourceforge.net/DTD/sodipodi-0.dtd"
   xmlns="http://www.w3.org/2000/svg"
   xmlns:svg="http://www.w3.org/2000/svg"><defs
   id="defs71" /><sodipodi:namedview
   id="namedview69"
   pagecolor="#ffffff"
   bordercolor="#666666"
   borderopacity="1.0"
   inkscape:pageshadow="2"
   inkscape:pageopacity="0.0"
   inkscape:pagecheckerboard="0"
   showgrid="false"
   inkscape:zoom="1.625"
   inkscape:cx="234.46154"
   inkscape:cy="265.53846"
   inkscape:window-width="2560"
   inkscape:window-height="1017"
   inkscape:window-x="-8"
   inkscape:window-y="-8"
   inkscape:window-maximized="1"
   inkscape:current-layer="Layer_1" />

<rect
   style="fill:#ff8e31;fill-opacity:1;stroke-width:0.6;paint-order:markers stroke fill"
   id="rect95"
   width="509.53799"
   height="508.3446"
   x="0"
   y="0"
   rx="0"
   ry="0" /><path
   style="fill:#ed7425"
   d="m 507.51643,260.66302 -127.773,-127.77201 -0.036,-0.036 -30.2,-6.323 -25.569,-25.572 h -140.8 l -8.778,20.851 0.548,1.093 -47.572,9.951 v 188.92501 h 0.036 l 160.778,160.786 c 114.651,-15.508 205.142,-106.859 219.366,-221.903 z"
   id="path4" />
<polygon
   style="fill:#f2f9ff"
   points="129.802,348.808 382.193,348.808 382.193,159.91 329.321,148.831 182.671,148.831 129.802,159.91 "
   id="polygon6"
   transform="translate(-2.4615667,-27.039985)" />
<polygon
   style="fill:#03628a"
   points="259.955,204.618 299.185,306.145 291.361,328.284 272.924,313.738 252.047,206.902 "
   id="polygon8"
   transform="translate(-2.4615667,-27.039985)" />
<polygon
   style="fill:#0575a5"
   points="265.556,205.763 286.177,347.169 256,384 225.83,347.169 246.441,205.763 "
   id="polygon10"
   transform="translate(-2.4615667,-27.039985)" />
<polygon
   style="fill:#03628a"
   points="270.405,175.985 273.974,186.493 265.556,205.763 246.441,205.763 238.016,186.493 241.603,175.985 "
   id="polygon12"
   transform="translate(-2.4615667,-27.039985)" />
<polygon
   style="fill:#b8d1e6"
   points="185.608,128 326.377,128 335.165,148.831 176.822,148.831 "
   id="polygon14"
   transform="translate(-2.4615667,-27.039985)" />
<g
   id="g22"
   transform="translate(-2.4615667,-27.039985)">
	<polygon
   style="fill:#cee2f2"
   points="176.822,148.831 214.646,225.457 255.987,175.985 185.608,128 "
   id="polygon16" />
	<polygon
   style="fill:#cee2f2"
   points="326.377,128 255.987,175.985 297.352,225.457 335.165,148.831 "
   id="polygon18" />
	<rect
   x="292.64999"
   y="249.86"
   style="fill:#cee2f2"
   width="65.18"
   height="8.151"
   id="rect20" />
</g>
<g
   id="g28"
   transform="translate(-2.4615667,-27.039985)">
	<polygon
   style="fill:#ff8e31"
   points="312.678,249.859 321.587,249.859 321.587,240.346 321.587,231.857 321.587,230.971 320.745,230.971 313.533,230.971 312.678,230.971 "
   id="polygon24" />
	<polygon
   style="fill:#ff8e31"
   points="313.533,227.999 320.745,227.999 321.587,227.999 321.587,219.092 312.678,219.092 312.678,227.999 "
   id="polygon26" />
</g>
<rect
   x="311.06842"
   y="200.96001"
   style="fill:#cee2f2"
   width="7.211"
   height="2.9719999"
   id="rect30" />
<polygon
   style="fill:#ff9d4d"
   points="321.587,240.346 323.709,239.089 323.709,231.857 321.587,231.857 "
   id="polygon32"
   transform="translate(-2.4615667,-27.039985)" />
<rect
   x="321.24841"
   y="203.93001"
   style="fill:#ff8e31"
   width="1.052"
   height="38.150002"
   id="rect34" />
<path
   style="fill:#ff9d4d"
   d="m 321.24743,236.50202 v 3.412 c -0.737,-0.228 -1.277,-0.906 -1.277,-1.72 0,-0.799 0.54,-1.477 1.277,-1.692 z"
   id="path36" />
<g
   id="g38"
   transform="translate(-2.4615667,-27.039985)">
</g>
<g
   id="g40"
   transform="translate(-2.4615667,-27.039985)">
</g>
<g
   id="g42"
   transform="translate(-2.4615667,-27.039985)">
</g>
<g
   id="g44"
   transform="translate(-2.4615667,-27.039985)">
</g>
<g
   id="g46"
   transform="translate(-2.4615667,-27.039985)">
</g>
<g
   id="g48"
   transform="translate(-2.4615667,-27.039985)">
</g>
<g
   id="g50"
   transform="translate(-2.4615667,-27.039985)">
</g>
<g
   id="g52"
   transform="translate(-2.4615667,-27.039985)">
</g>
<g
   id="g54"
   transform="translate(-2.4615667,-27.039985)">
</g>
<g
   id="g56"
   transform="translate(-2.4615667,-27.039985)">
</g>
<g
   id="g58"
   transform="translate(-2.4615667,-27.039985)">
</g>
<g
   id="g60"
   transform="translate(-2.4615667,-27.039985)">
</g>
<g
   id="g62"
   transform="translate(-2.4615667,-27.039985)">
</g>
<g
   id="g64"
   transform="translate(-2.4615667,-27.039985)">
</g>
<g
   id="g66"
   transform="translate(-2.4615667,-27.039985)">
</g>
</svg>
