<?xml version="1.0" encoding="UTF-8" standalone="no"?>
<svg
   width="270"
   height="270"
   viewBox="0 0 71.43736 71.437155"
   version="1.1"
   id="svg10"
   sodipodi:docname="bbm.svg"
   inkscape:version="1.1.1 (3bf5ae0d25, 2021-09-20)"
   xmlns:inkscape="http://www.inkscape.org/namespaces/inkscape"
   xmlns:sodipodi="http://sodipodi.sourceforge.net/DTD/sodipodi-0.dtd"
   xmlns="http://www.w3.org/2000/svg"
   xmlns:svg="http://www.w3.org/2000/svg">
  <defs
     id="defs14" />
  <sodipodi:namedview
     id="namedview12"
     pagecolor="#ffffff"
     bordercolor="#666666"
     borderopacity="1.0"
     inkscape:pageshadow="2"
     inkscape:pageopacity="0.0"
     inkscape:pagecheckerboard="0"
     showgrid="false"
     inkscape:zoom="1.6140623"
     inkscape:cx="-97.270101"
     inkscape:cy="145.90515"
     inkscape:window-width="2560"
     inkscape:window-height="1017"
     inkscape:window-x="-8"
     inkscape:window-y="-8"
     inkscape:window-maximized="1"
     inkscape:current-layer="svg10" />
  <path
     style="fill:#9b2332;fill-opacity:1;stroke-width:0.15875;paint-order:markers stroke fill"
     d="M 0,-1.0090092e-4 H 71.437359 V 71.437258 H 0 Z"
     id="path2" />
  <g
     style="fill:#ffffff;stroke-width:0.575429"
     id="g8"
     transform="translate(-9.997988e-4,-1.0090092e-4)">
    <path
       style="fill:#ffffff;stroke-width:0.575429"
       d="m 155.707,155.66 c 1.577,-0.47 2.414,-1.501 2.415,-2.98 10e-4,-1.152 -0.372,-1.808 -1.307,-2.291 l -0.764,-0.395 0.904,-0.904 c 1.036,-1.036 1.183,-2.123 0.455,-3.356 -0.726,-1.23 -2.009,-1.57 -5.906,-1.57 h -3.435 v 11.906 h 3.127 c 2.057,0 3.6,-0.14 4.51,-0.41 z m -4.198,-3.294 v -1.323 h 1.19 c 1.16,0 2.25,0.641 2.25,1.323 0,0.682 -1.09,1.323 -2.25,1.323 h -1.19 z m 0,-4.595 v -1.226 h 1.037 c 1.427,0 1.873,0.22 1.873,0.922 0,0.8 -0.547,1.212 -1.841,1.386 l -1.07,0.143 z m 10.597,3.811 c -0.02,-2.395 0.025,-4.292 0.102,-4.216 0.076,0.077 0.715,2.037 1.42,4.356 l 1.28,4.216 h 2.857 l 1.375,-4.234 1.375,-4.233 0.022,4.3 0.022,4.3 h 2.91 v -11.907 h -4.473 l -1.263,3.886 -1.263,3.886 -1.207,-3.82 -1.208,-3.82 -2.437,-0.076 -2.436,-0.076 v 11.952 l 1.481,-0.079 1.481,-0.08 z m -5.64,-9.088 c 0.995,-0.53 1.657,-1.662 1.657,-2.832 0,-1.1 -0.386,-1.76 -1.308,-2.238 l -0.764,-0.395 0.904,-0.904 c 1.093,-1.093 1.212,-2.345 0.33,-3.467 -0.945,-1.202 -1.961,-1.459 -5.768,-1.459 h -3.448 v 11.965 l 3.77,-0.107 c 2.904,-0.083 3.968,-0.213 4.626,-0.563 z m -4.957,-3.093 v -1.323 h 1.19 c 1.16,0 2.25,0.641 2.25,1.323 0,0.682 -1.09,1.323 -2.25,1.323 h -1.19 z m 0,-4.63 v -1.19 h 1.037 c 1.493,0 1.873,0.215 1.873,1.06 0,0.592 -0.166,0.798 -0.833,1.03 -0.458,0.16 -1.113,0.29 -1.455,0.29 -0.56,0 -0.622,-0.116 -0.622,-1.19 z"
       transform="matrix(1.73783,0,0,1.73783,-243.319,-213.552)"
       id="path4" />
    <path
       style="fill:#ffffff;stroke-width:0.575429"
       d="m 148.07,150.117 v -5.953 h 3.434 c 3.897,0 5.18,0.34 5.906,1.57 0.728,1.233 0.58,2.32 -0.455,3.356 l -0.904,0.904 0.764,0.395 c 0.935,0.483 1.309,1.139 1.307,2.29 -0.003,2.489 -1.846,3.391 -6.926,3.391 h -3.127 z m 6.35,3.043 c 0.29,-0.291 0.528,-0.649 0.528,-0.794 0,-0.682 -1.09,-1.323 -2.248,-1.323 h -1.191 v 2.646 h 1.19 c 0.838,0 1.348,-0.157 1.72,-0.53 z m -0.387,-4.771 c 0.513,-0.427 0.493,-1.482 -0.032,-1.683 -0.23,-0.089 -0.885,-0.16 -1.455,-0.16 h -1.037 v 2.45 l 1.069,-0.143 c 0.587,-0.08 1.242,-0.288 1.455,-0.464 z m 5.149,1.731 v -5.976 l 2.436,0.076 2.437,0.076 1.208,3.82 1.208,3.82 1.262,-3.886 1.263,-3.886 h 4.473 v 11.906 h -2.91 l -0.022,-4.3 -0.022,-4.299 -1.375,4.234 -1.375,4.233 h -2.857 l -1.28,-4.216 c -0.705,-2.32 -1.344,-4.28 -1.42,-4.356 -0.077,-0.076 -0.122,1.82 -0.102,4.216 l 0.038,4.356 -1.48,0.08 -1.482,0.079 z m -11.113,-12.938 v -5.983 h 3.448 c 3.807,0 4.823,0.257 5.768,1.46 0.882,1.12 0.763,2.373 -0.33,3.466 l -0.904,0.904 0.764,0.395 c 1.334,0.69 1.71,2.284 0.907,3.838 -0.711,1.376 -1.692,1.675 -5.882,1.795 l -3.77,0.107 z m 6.35,3.013 c 0.291,-0.29 0.53,-0.648 0.53,-0.794 0,-0.682 -1.09,-1.323 -2.25,-1.323 h -1.19 v 2.646 h 1.19 c 0.838,0 1.348,-0.157 1.72,-0.529 z m -0.833,-4.524 c 0.667,-0.232 0.833,-0.438 0.833,-1.03 0,-0.845 -0.38,-1.06 -1.873,-1.06 h -1.037 v 1.19 c 0,1.074 0.061,1.19 0.622,1.19 0.342,0 0.997,-0.13 1.455,-0.29 z"
       transform="matrix(1.73783,0,0,1.73783,-243.319,-213.552)"
       id="path6" />
  </g>
</svg>
