<?xml version="1.0" encoding="UTF-8" standalone="no"?>
<svg
   width="1166.6638"
   height="1166.6639"
   viewBox="0 0 308.67988 308.67974"
   version="1.1"
   id="svg6"
   sodipodi:docname="beblue.svg"
   inkscape:version="1.1.1 (3bf5ae0d25, 2021-09-20)"
   xmlns:inkscape="http://www.inkscape.org/namespaces/inkscape"
   xmlns:sodipodi="http://sodipodi.sourceforge.net/DTD/sodipodi-0.dtd"
   xmlns="http://www.w3.org/2000/svg"
   xmlns:svg="http://www.w3.org/2000/svg">
  <defs
     id="defs10" />
  <sodipodi:namedview
     id="namedview8"
     pagecolor="#ffffff"
     bordercolor="#666666"
     borderopacity="1.0"
     inkscape:pageshadow="2"
     inkscape:pageopacity="0.0"
     inkscape:pagecheckerboard="0"
     showgrid="false"
     inkscape:zoom="0.29662144"
     inkscape:cx="-300.04574"
     inkscape:cy="389.38521"
     inkscape:window-width="2560"
     inkscape:window-height="1017"
     inkscape:window-x="-8"
     inkscape:window-y="-8"
     inkscape:window-maximized="1"
     inkscape:current-layer="svg6" />
  <path
     style="fill:#1bbefe;fill-opacity:1;stroke-width:0.158749;paint-order:markers stroke fill"
     d="M 0,0 H 308.6798 V 308.67982 H 0 Z"
     id="path2" />
  <path
     style="fill:#ffffff;stroke-width:0.999998"
     d="m 168.8719,264.48175 c 7.71294,-2.16516 13.26919,-8.46372 15.97983,-18.1253 1.27096,-4.53551 1.35812,-9.51535 1.35812,-79.97786 V 91.237119 l -8.86862,-0.210887 c -6.59663,-0.154652 -9.02608,0.03375 -9.47598,0.745144 -0.3318,0.525819 -0.61018,34.164164 -0.61861,74.759054 -0.006,55.61589 -0.22777,74.28384 -0.8998,75.75446 -1.4228,3.12679 -4.19249,4.07156 -11.92793,4.07156 -7.35303,0 -9.30727,-0.69169 -11.16873,-3.94504 -0.72827,-1.27095 -1.01789,-18.26587 -1.30752,-76.40399 L 141.5715,91.239931 H 123.71616 V 243.75267 l 1.72367,4.77456 c 3.26739,9.05418 8.18253,14.1296 15.61147,16.13166 5.27788,1.42 22.52023,1.31031 27.8206,-0.17705 z M 141.03443,61.223272 c 0.7114,-0.449897 0.90261,-2.879349 0.74515,-9.475983 l -0.20809,-8.868624 -8.86862,-0.210888 c -6.59664,-0.154651 -9.02609,0.03375 -9.47599,0.745145 -0.88011,1.389062 -0.76482,15.30498 0.14059,16.997723 0.68891,1.287835 1.61683,1.439674 8.7449,1.428427 4.3837,-0.0057 8.39904,-0.281186 8.92486,-0.61861 z m 44.64117,0 c 0.70859,-0.449897 0.8998,-2.879349 0.74233,-9.475983 l -0.20808,-8.868624 -8.86862,-0.210888 c -6.59664,-0.154651 -9.02609,0.03375 -9.47599,0.745145 -0.98415,1.552149 -0.7592,16.519708 0.26432,17.546037 1.02352,1.023519 15.99388,1.248469 17.54603,0.264315 z"
     id="path4" />
</svg>
