<?xml version="1.0" encoding="UTF-8" standalone="no"?>
<svg
   width="900"
   height="900"
   viewBox="0 0 238.12489 238.12453"
   version="1.1"
   id="svg10"
   sodipodi:docname="braziliex.svg"
   inkscape:version="1.1.1 (3bf5ae0d25, 2021-09-20)"
   xmlns:inkscape="http://www.inkscape.org/namespaces/inkscape"
   xmlns:sodipodi="http://sodipodi.sourceforge.net/DTD/sodipodi-0.dtd"
   xmlns="http://www.w3.org/2000/svg"
   xmlns:svg="http://www.w3.org/2000/svg">
  <defs
     id="defs14" />
  <sodipodi:namedview
     id="namedview12"
     pagecolor="#ffffff"
     bordercolor="#666666"
     borderopacity="1.0"
     inkscape:pageshadow="2"
     inkscape:pageopacity="0.0"
     inkscape:pagecheckerboard="0"
     showgrid="false"
     inkscape:zoom="0.5015954"
     inkscape:cx="153.51018"
     inkscape:cy="491.43194"
     inkscape:window-width="2560"
     inkscape:window-height="1017"
     inkscape:window-x="-8"
     inkscape:window-y="-8"
     inkscape:window-maximized="1"
     inkscape:current-layer="svg10" />
  <path
     style="fill:#f2f2f2;stroke-width:0.15875;paint-order:markers stroke fill"
     d="M 0,-1.872856e-4 H 238.12489 V 238.12472 H 0 Z"
     id="path2" />
  <g
     id="g834"
     transform="translate(-5.0895574,5.91706)">
    <path
       style="fill:#f6bb1c;stroke-width:1"
       d="m 162.987,113.32283 c 0,-10.288 0.043,-12.375 0.254,-12.55 0.173,-0.144 1.148,-0.194 3.068,-0.16 l 2.814,0.05 0.047,12.5 0.047,12.5 h -6.229 z"
       id="path4" />
    <path
       style="fill:#527bbe;stroke-width:1"
       d="m 23.519,113.11783 0.002,-12.454 5.815,-0.004 5.815,-0.004 -5.768,0.052 -5.768,0.052 -0.049,12.406 -0.049,12.406 z m 31.816,7.657 c -0.02,-2.739 0.024,-5.018 0.1,-5.065 0.075,-0.047 0.116,1.411 0.09,3.24 -0.088,6.208 -0.151,6.819 -0.19,1.825 z m 68.681,2.739 -0.039,-2.242 -6.624,-0.048 c -5.19,-0.037 -6.634,-0.098 -6.67,-0.281 -0.027,-0.129 -0.006,-0.15 0.045,-0.046 0.061,0.123 2.363,0.188 6.677,0.188 5.262,0 6.602,0.048 6.676,0.24 0.05,0.132 0.066,1.183 0.033,2.335 l -0.058,2.095 z m 51.06,-10.35 v -12.5 l 9.07,0.049 9.072,0.05 -0.051,2.24 -0.052,2.24 -5.906,0.048 -5.907,0.048 v 5.118 l 5.632,0.048 5.632,0.049 0.051,2.243 0.052,2.244 h -5.394 c -2.966,0 -5.524,0.05 -5.683,0.111 -0.247,0.095 -0.29,0.537 -0.29,3.022 v 2.91 h 5.942 c 4.007,0 5.98,0.064 6.062,0.196 0.066,0.107 0.142,1.137 0.168,2.29 l 0.048,2.093 h -18.447 z m 21.312,11.538 c 2.32,-2.717 9.639,-11.792 9.636,-11.95 -0.002,-0.101 -0.928,-1.296 -2.06,-2.656 -6.07,-7.295 -7.46,-9.003 -7.46,-9.164 0,-0.108 1.528,-0.177 3.929,-0.177 h 3.93 l 0.603,0.784 c 2.343,3.042 5.014,6.175 5.257,6.169 0.16,-0.004 1.52,-1.57 3.02,-3.48 l 2.73,-3.473 h 3.818 c 2.589,0 3.818,0.063 3.818,0.196 0,0.108 -2.06,2.741 -4.578,5.852 -2.518,3.11 -4.579,5.787 -4.579,5.948 0,0.16 2.294,3.035 5.098,6.387 2.804,3.353 5.157,6.192 5.23,6.31 0.1,0.162 -0.855,0.215 -3.877,0.215 h -4.01 l -3.19,-3.889 c -1.754,-2.14 -3.314,-3.914 -3.467,-3.943 -0.174,-0.033 -1.462,1.422 -3.442,3.89 l -3.165,3.942 h -8.062 z m -147.228,-11.767 0.002,-12.271 5.86,-0.004 5.86,-0.004 -5.813,0.052 -5.813,0.052 -0.05,12.223 -0.048,12.222 z m 21.422,12.167 c -0.066,-0.108 -0.081,-0.235 -0.033,-0.283 0.048,-0.048 0.136,0.04 0.196,0.195 0.123,0.323 0.018,0.38 -0.163,0.088 z m 28.601,-0.087 c -0.176,-0.46 -0.124,-0.58 0.092,-0.208 0.107,0.184 0.156,0.373 0.108,0.42 -0.047,0.047 -0.137,-0.048 -0.2,-0.212 z m 29.05,-11.745 c -0.024,-6.665 0.006,-12.249 0.068,-12.408 0.167,-0.435 6.02,-0.435 6.188,0 0.06,0.16 0.091,5.743 0.067,12.408 l -0.044,12.119 -0.093,-12.271 -0.094,-12.271 h -5.86 l -0.094,12.27 -0.094,12.272 z m 30.947,10.058 -0.038,-2.06 h -6.217 c -3.419,0 -6.254,-0.062 -6.3,-0.138 -0.048,-0.075 2.753,-0.114 6.223,-0.086 4.95,0.04 6.328,0.101 6.4,0.287 0.05,0.13 0.063,1.096 0.03,2.147 l -0.06,1.91 z m -58.651,1.247 c 0.105,-0.196 0.281,-0.412 0.392,-0.48 0.11,-0.07 0.06,0.091 -0.114,0.355 -0.367,0.56 -0.556,0.645 -0.278,0.125 z m -37.06,-0.11 c -0.176,-0.46 -0.124,-0.579 0.092,-0.207 0.107,0.184 0.156,0.373 0.109,0.42 -0.048,0.047 -0.138,-0.049 -0.2,-0.212 z m -22.183,-0.026 c 0.1,-0.101 0.595,-0.545 1.1,-0.986 0.676,-0.592 0.771,-0.642 0.365,-0.194 a 7.807,7.807 0 0 1 -1.099,0.986 c -0.302,0.208 -0.467,0.296 -0.366,0.194 z m 30.683,-0.699 c 0,-0.1 0.08,-0.306 0.178,-0.458 0.097,-0.15 0.177,-0.192 0.177,-0.091 0,0.1 -0.08,0.307 -0.177,0.458 -0.098,0.15 -0.178,0.192 -0.178,0.091 z m 26.482,-0.373 c -0.177,-0.46 -0.125,-0.58 0.091,-0.208 0.107,0.184 0.156,0.373 0.109,0.42 -0.047,0.047 -0.137,-0.048 -0.2,-0.212 z m -29.017,-0.735 c -0.552,-1.135 -0.49,-1.294 0.078,-0.202 0.254,0.489 0.43,0.92 0.392,0.958 -0.038,0.038 -0.25,-0.302 -0.47,-0.756 z m -6.697,0.185 c -0.177,-0.46 -0.125,-0.579 0.091,-0.208 0.107,0.184 0.156,0.373 0.109,0.42 -0.047,0.048 -0.137,-0.048 -0.2,-0.212 z m 34.981,-1.098 c -0.176,-0.461 -0.124,-0.58 0.092,-0.209 0.106,0.184 0.155,0.373 0.108,0.42 -0.047,0.048 -0.137,-0.048 -0.2,-0.211 z m -35.615,-0.367 c -0.307,-0.674 -0.248,-0.818 0.084,-0.205 0.155,0.286 0.247,0.554 0.205,0.596 -0.042,0.042 -0.172,-0.134 -0.289,-0.391 z m 17.199,0.224 c -0.007,-0.082 0.073,-0.309 0.177,-0.503 0.18,-0.339 0.44,-0.355 5.758,-0.355 3.063,0 5.607,0.062 5.654,0.138 0.047,0.075 -2.448,0.114 -5.545,0.086 l -5.63,-0.05 -0.2,0.417 c -0.111,0.229 -0.207,0.35 -0.214,0.267 z m -49.426,-0.528 c -0.246,-0.246 -0.322,-5.556 -0.082,-5.704 0.075,-0.047 0.137,1.205 0.137,2.782 v 2.867 l 2.198,0.1 2.198,0.101 -2.116,0.037 c -1.445,0.025 -2.185,-0.033 -2.335,-0.183 z m 5.229,-0.085 a 0.707,0.707 0 0 1 0.458,0 c 0.126,0.051 0.023,0.093 -0.23,0.093 -0.25,0 -0.354,-0.042 -0.228,-0.093 z m 37.963,0.03 c 0,-0.1 0.08,-0.307 0.177,-0.458 0.098,-0.151 0.178,-0.192 0.178,-0.091 0,0.1 -0.08,0.306 -0.178,0.457 -0.097,0.152 -0.177,0.193 -0.177,0.092 z m -4.738,-0.74 c -0.307,-0.674 -0.248,-0.818 0.084,-0.205 0.155,0.286 0.247,0.554 0.205,0.596 -0.042,0.042 -0.172,-0.134 -0.289,-0.391 z m 78.035,-9.479 -0.044,-10.036 -3.005,0.054 c -1.652,0.03 -2.966,-0.007 -2.92,-0.083 0.048,-0.075 1.403,-0.137 3.011,-0.137 2.172,0 2.948,0.06 3.013,0.229 0.049,0.126 0.066,4.68 0.039,10.119 l -0.05,9.89 z m -109.291,9.395 c 0.182,-0.202 0.373,-0.366 0.423,-0.366 0.05,0 -0.058,0.164 -0.24,0.366 -0.182,0.201 -0.373,0.366 -0.423,0.366 -0.05,0 0.057,-0.165 0.24,-0.366 z m 59.827,-0.283 c -0.307,-0.673 -0.248,-0.817 0.084,-0.205 0.155,0.286 0.247,0.554 0.205,0.596 -0.042,0.042 -0.172,-0.134 -0.289,-0.39 z m -52.557,-0.175 c 0.004,-0.302 0.045,-0.404 0.091,-0.225 0.046,0.178 0.043,0.425 -0.007,0.549 -0.05,0.124 -0.088,-0.022 -0.084,-0.324 z m 29.09,0.366 c 0,-0.1 0.08,-0.306 0.178,-0.458 0.097,-0.15 0.177,-0.192 0.177,-0.091 0,0.1 -0.08,0.307 -0.177,0.458 -0.098,0.15 -0.178,0.192 -0.178,0.091 z m 0.366,-0.915 c 0,-0.101 0.08,-0.307 0.178,-0.458 0.098,-0.151 0.178,-0.193 0.178,-0.092 0,0.1 -0.08,0.307 -0.178,0.458 -0.098,0.151 -0.178,0.192 -0.178,0.092 z m -6.301,-0.74 c -0.177,-0.46 -0.125,-0.58 0.091,-0.208 0.107,0.184 0.156,0.373 0.109,0.42 -0.047,0.047 -0.137,-0.048 -0.2,-0.212 z m 28.754,0 c -0.177,-0.46 -0.125,-0.58 0.091,-0.208 0.107,0.184 0.156,0.373 0.109,0.42 -0.047,0.047 -0.137,-0.048 -0.2,-0.212 z m -35.828,-0.45 c -0.108,-0.202 -0.155,-0.367 -0.104,-0.367 0.05,0 0.18,0.165 0.287,0.366 0.108,0.202 0.155,0.366 0.105,0.366 -0.05,0 -0.18,-0.164 -0.288,-0.366 z m 6.502,-0.734 c -0.156,-0.302 -0.243,-0.549 -0.193,-0.549 0.05,0 0.22,0.247 0.376,0.55 0.156,0.302 0.243,0.549 0.193,0.549 -0.05,0 -0.22,-0.247 -0.376,-0.55 z m -22.59,0 c 0,-0.251 0.042,-0.354 0.092,-0.228 a 0.702,0.702 0 0 1 0,0.457 c -0.05,0.126 -0.092,0.023 -0.092,-0.229 z m 15.342,-0.299 a 5.757,5.757 0 0 0 -0.994,-0.823 c -0.302,-0.188 -0.441,-0.342 -0.31,-0.342 0.229,0 2.072,1.635 1.853,1.643 -0.058,0.002 -0.305,-0.212 -0.55,-0.478 z m 14.854,0.391 c 0,-0.1 0.08,-0.307 0.178,-0.458 0.097,-0.15 0.177,-0.192 0.177,-0.091 0,0.1 -0.08,0.306 -0.177,0.457 -0.098,0.152 -0.178,0.193 -0.178,0.092 z m 38.455,-0.16 c 0,-0.039 0.145,-0.183 0.32,-0.321 0.291,-0.228 0.298,-0.222 0.07,0.069 -0.24,0.305 -0.39,0.402 -0.39,0.251 z m -17.468,-0.396 c -0.176,-0.461 -0.124,-0.58 0.092,-0.209 0.107,0.184 0.156,0.373 0.108,0.42 -0.047,0.047 -0.137,-0.048 -0.2,-0.211 z m -58.171,-0.268 c -0.108,-0.202 -0.155,-0.366 -0.105,-0.366 0.05,0 0.18,0.164 0.288,0.366 0.107,0.201 0.155,0.366 0.104,0.366 -0.05,0 -0.18,-0.165 -0.287,-0.366 z m 6.79,0.06 a 3.015,3.015 0 0 0 -0.12,-0.549 c -0.1,-0.319 -0.094,-0.32 0.105,-0.008 0.116,0.18 0.17,0.428 0.12,0.55 -0.065,0.16 -0.094,0.162 -0.105,0.008 z m 37.467,-0.197 c -0.046,-0.076 1,-0.116 2.325,-0.09 4.38,0.086 4.838,0.155 1.276,0.191 -1.934,0.02 -3.554,-0.026 -3.6,-0.101 z m 24.883,-0.665 c 0.173,-0.264 0.35,-0.48 0.391,-0.48 0.133,0 -0.293,0.706 -0.505,0.836 -0.11,0.069 -0.06,-0.092 0.114,-0.356 z m -40.593,-0.068 c -0.228,-0.29 -0.221,-0.297 0.07,-0.07 0.176,0.14 0.32,0.283 0.32,0.321 0,0.151 -0.15,0.054 -0.39,-0.25 z m 22.665,-0.144 c -0.177,-0.461 -0.125,-0.58 0.091,-0.209 0.107,0.184 0.156,0.373 0.109,0.42 -0.047,0.048 -0.137,-0.048 -0.2,-0.211 z m -53.445,-0.21 c 0.133,-0.053 0.29,-0.046 0.351,0.014 0.061,0.061 -0.047,0.105 -0.24,0.097 -0.213,-0.01 -0.257,-0.053 -0.11,-0.111 z m 8.187,-0.538 c -0.173,-0.265 -0.224,-0.425 -0.114,-0.357 0.212,0.131 0.638,0.837 0.506,0.837 -0.043,0 -0.219,-0.216 -0.392,-0.48 z m 22.044,0.16 c -0.228,-0.291 -0.222,-0.298 0.069,-0.07 0.176,0.139 0.32,0.283 0.32,0.32 0,0.152 -0.15,0.055 -0.39,-0.25 z m -0.77,-0.535 c -0.244,-0.243 -0.114,-0.602 0.29,-0.797 0.387,-0.188 0.391,-0.184 0.068,0.076 -0.197,0.158 -0.297,0.398 -0.235,0.56 0.117,0.303 0.074,0.359 -0.124,0.161 z m 43.65,-1.251 c 0.51,-0.756 0.968,-1.374 1.018,-1.374 0.05,0 -0.325,0.618 -0.835,1.374 -0.51,0.755 -0.968,1.373 -1.019,1.373 -0.05,0 0.326,-0.618 0.836,-1.373 z m -65.59,0.687 c -0.228,-0.29 -0.222,-0.297 0.069,-0.07 0.176,0.139 0.32,0.283 0.32,0.321 0,0.15 -0.15,0.054 -0.39,-0.251 z m 51.418,-0.328 c -0.176,-0.46 -0.124,-0.58 0.092,-0.208 0.106,0.184 0.155,0.373 0.108,0.42 -0.047,0.047 -0.137,-0.048 -0.2,-0.212 z m -52.151,-0.222 c -0.228,-0.29 -0.221,-0.297 0.069,-0.069 0.176,0.138 0.32,0.282 0.32,0.32 0,0.151 -0.15,0.054 -0.39,-0.25 z m 24.657,-0.961 c 0.393,-0.403 0.756,-0.733 0.806,-0.733 0.05,0 -0.23,0.33 -0.623,0.733 -0.394,0.403 -0.757,0.732 -0.807,0.732 -0.05,0 0.23,-0.33 0.624,-0.732 z m -26.893,-0.122 c -0.221,-0.222 -0.132,-0.338 1.023,-1.317 l 1.145,-0.971 -1.094,1.032 c -0.876,0.825 -1.04,1.065 -0.824,1.202 0.148,0.093 0.18,0.171 0.07,0.173 a 0.505,0.505 0 0 1 -0.32,-0.12 z m 53.655,-0.343 c -0.177,-0.46 -0.125,-0.58 0.091,-0.208 0.107,0.183 0.156,0.372 0.109,0.42 -0.048,0.047 -0.137,-0.049 -0.2,-0.212 z m -10.365,0.007 c 0,-0.101 0.08,-0.307 0.177,-0.458 0.098,-0.151 0.178,-0.193 0.178,-0.092 0,0.1 -0.08,0.307 -0.178,0.458 -0.097,0.151 -0.177,0.192 -0.177,0.092 z m 3.771,-0.74 c -0.176,-0.46 -0.124,-0.58 0.092,-0.208 0.107,0.184 0.155,0.373 0.108,0.42 -0.047,0.047 -0.137,-0.048 -0.2,-0.212 z m 30.466,-0.257 c 0.105,-0.196 0.281,-0.412 0.392,-0.48 0.11,-0.07 0.06,0.091 -0.114,0.355 -0.366,0.56 -0.556,0.645 -0.278,0.125 z m -61.817,-0.065 c -0.05,-0.13 -0.068,-1.428 -0.04,-2.884 l 0.052,-2.648 0.09,2.885 c 0.05,1.587 0.069,2.885 0.04,2.885 -0.028,0 -0.092,-0.107 -0.142,-0.238 z m 3.914,0.112 c 0.132,-0.052 0.29,-0.046 0.35,0.015 0.062,0.06 -0.046,0.104 -0.24,0.096 -0.213,-0.009 -0.256,-0.052 -0.11,-0.11 z m 8.38,-0.111 c 0.068,-0.18 0.17,-0.283 0.227,-0.226 0.056,0.056 0,0.204 -0.125,0.328 -0.181,0.18 -0.202,0.159 -0.103,-0.102 z m -7.598,-0.002 c 0.042,-0.03 0.324,-0.2 0.626,-0.377 l 0.55,-0.322 -0.433,0.377 c -0.238,0.207 -0.52,0.377 -0.626,0.377 -0.106,0 -0.159,-0.025 -0.117,-0.055 z m 32.7,-0.227 c -0.177,-0.46 -0.125,-0.58 0.09,-0.208 0.107,0.184 0.156,0.373 0.11,0.42 -0.048,0.047 -0.138,-0.048 -0.2,-0.212 z m -62.996,-0.023 c -0.227,-0.227 -0.138,-4.917 0.098,-5.153 0.146,-0.145 0.81,-0.207 1.969,-0.184 l 1.749,0.036 -1.831,0.101 -1.832,0.102 v 2.61 c 0,1.436 -0.007,2.61 -0.015,2.61 a 0.89,0.89 0 0 1 -0.138,-0.122 z m 4.056,-0.003 c 0.133,-0.053 0.29,-0.046 0.351,0.014 0.061,0.061 -0.047,0.104 -0.24,0.097 -0.213,-0.01 -0.257,-0.053 -0.11,-0.111 z m 43.446,0.033 c 0,-0.1 0.08,-0.306 0.178,-0.457 0.097,-0.152 0.177,-0.193 0.177,-0.092 0,0.1 -0.08,0.307 -0.177,0.458 -0.098,0.15 -0.178,0.192 -0.178,0.091 z m -42.862,-0.163 c 0,-0.04 0.128,-0.121 0.284,-0.181 0.163,-0.063 0.237,-0.032 0.173,0.072 -0.108,0.174 -0.457,0.257 -0.457,0.109 z m 51.945,-0.21 c -0.177,-0.46 -0.125,-0.58 0.091,-0.208 0.107,0.184 0.156,0.373 0.109,0.42 -0.047,0.047 -0.137,-0.048 -0.2,-0.212 z m -50.917,-0.442 c 0.111,-0.156 0.294,-0.448 0.406,-0.65 0.112,-0.201 0.206,-0.268 0.209,-0.147 0.003,0.12 -0.18,0.412 -0.407,0.65 -0.226,0.237 -0.32,0.303 -0.208,0.147 z m 26.096,-0.138 c 0.134,-0.222 0.282,-0.364 0.33,-0.316 0.049,0.048 -0.06,0.23 -0.242,0.404 -0.315,0.302 -0.32,0.298 -0.088,-0.088 z m 6.59,0.022 c 0.009,-0.213 0.052,-0.256 0.11,-0.11 0.053,0.132 0.047,0.29 -0.014,0.35 -0.06,0.062 -0.104,-0.046 -0.096,-0.24 z m -26.006,-0.534 c 0.02,-0.347 0.324,-0.93 0.335,-0.64 0.005,0.15 -0.07,0.398 -0.167,0.549 -0.098,0.15 -0.173,0.192 -0.168,0.091 z m 43.688,-0.19 c -0.177,-0.46 -0.125,-0.58 0.091,-0.208 0.107,0.184 0.156,0.373 0.109,0.42 -0.048,0.047 -0.138,-0.048 -0.2,-0.212 z m 6.227,0 c -0.177,-0.46 -0.125,-0.58 0.091,-0.208 0.107,0.184 0.156,0.373 0.109,0.42 -0.048,0.047 -0.138,-0.048 -0.2,-0.212 z m -30.096,-0.817 c 0,-0.554 0.034,-0.78 0.076,-0.503 0.042,0.277 0.042,0.73 0,1.007 -0.041,0.277 -0.076,0.05 -0.076,-0.504 z m 6.416,-0.274 c 0,-0.706 0.033,-0.972 0.073,-0.592 0.04,0.38 0.04,0.957 -10e-4,1.282 -0.04,0.326 -0.073,0.015 -0.072,-0.69 z m -32.245,0.091 c 0,-0.453 0.036,-0.639 0.08,-0.412 a 2.61,2.61 0 0 1 0,0.824 c -0.044,0.227 -0.08,0.041 -0.08,-0.412 z m 49.331,0.085 c -0.176,-0.461 -0.124,-0.58 0.092,-0.209 0.107,0.184 0.155,0.373 0.108,0.42 -0.047,0.048 -0.137,-0.048 -0.2,-0.211 z m -42.912,-1 c 0,-0.655 0.034,-0.923 0.074,-0.596 0.04,0.327 0.04,0.863 0,1.19 -0.04,0.328 -0.074,0.06 -0.074,-0.595 z m 35.844,0.824 c 0,-0.101 0.08,-0.307 0.178,-0.458 0.097,-0.151 0.177,-0.193 0.177,-0.092 0,0.1 -0.08,0.307 -0.177,0.458 -0.098,0.151 -0.178,0.192 -0.178,0.092 z m 6.222,-0.322 c 0,-0.05 0.116,-0.188 0.258,-0.306 0.2,-0.165 0.29,-0.16 0.396,0.023 0.075,0.131 0.07,0.177 -0.013,0.102 -0.082,-0.074 -0.26,-0.044 -0.396,0.069 -0.135,0.112 -0.245,0.162 -0.245,0.112 z m -49.281,-1.373 -0.444,-0.503 0.504,0.444 c 0.47,0.415 0.587,0.563 0.444,0.563 -0.033,0 -0.26,-0.227 -0.504,-0.504 z m 32.812,0.03 c 0.009,-0.212 0.052,-0.256 0.11,-0.11 0.053,0.132 0.047,0.29 -0.014,0.351 -0.06,0.061 -0.104,-0.047 -0.096,-0.24 z m 44.979,-0.413 0.102,-0.39 -6.11,-0.05 -6.11,-0.052 6.095,-0.043 c 5.39,-0.038 6.108,-0.01 6.205,0.244 0.06,0.158 0.022,0.376 -0.087,0.484 -0.14,0.141 -0.168,0.086 -0.095,-0.193 z m -22.536,-0.127 c -0.176,-0.46 -0.124,-0.58 0.092,-0.208 0.107,0.183 0.156,0.372 0.108,0.42 -0.047,0.047 -0.137,-0.049 -0.2,-0.212 z m -48.267,-0.024 a 3.016,3.016 0 0 0 -0.12,-0.55 c -0.1,-0.318 -0.095,-0.319 0.105,-0.007 0.115,0.18 0.17,0.427 0.12,0.549 -0.066,0.16 -0.095,0.162 -0.105,0.008 z m 14.231,-0.38 a 14.976,14.976 0 0 1 1.832,0.002 c 0.475,0.037 0.04,0.068 -0.968,0.067 -1.007,0 -1.396,-0.031 -0.864,-0.068 z m 22.94,-0.139 c 0,-0.1 0.079,-0.306 0.177,-0.458 0.097,-0.15 0.177,-0.192 0.177,-0.091 0,0.1 -0.08,0.307 -0.177,0.458 -0.098,0.15 -0.178,0.192 -0.178,0.091 z m 21.275,-1.954 c -0.02,-1.074 0.014,-2.084 0.075,-2.243 0.1,-0.26 1.295,-0.29 11.63,-0.29 9.907,0 11.518,0.037 11.518,0.264 0,0.145 -0.084,0.316 -0.187,0.38 -0.104,0.064 -0.165,0.007 -0.138,-0.127 0.042,-0.199 -1.977,-0.242 -11.305,-0.242 h -11.355 l -0.1,2.106 -0.101,2.106 z m -10.911,0.848 c -0.177,-0.46 -0.125,-0.579 0.091,-0.208 0.107,0.184 0.156,0.373 0.109,0.42 -0.047,0.047 -0.137,-0.048 -0.2,-0.212 z m -23.557,-0.908 c -0.445,-0.454 -0.768,-0.824 -0.717,-0.824 0.05,0 0.455,0.37 0.9,0.824 0.445,0.453 0.768,0.824 0.717,0.824 -0.05,0 -0.455,-0.371 -0.9,-0.824 z m -25.558,-0.138 -0.724,-0.778 0.779,0.724 c 0.723,0.673 0.862,0.833 0.724,0.833 -0.03,0 -0.38,-0.35 -0.779,-0.779 z m -1.731,-1.144 c -0.453,-0.243 -0.76,-0.445 -0.68,-0.45 0.195,-0.011 1.596,0.709 1.596,0.82 0,0.121 0.007,0.124 -0.916,-0.37 z m -1.866,-0.766 c 0.132,-0.053 0.29,-0.047 0.351,0.014 0.06,0.06 -0.047,0.104 -0.24,0.096 -0.214,-0.009 -0.257,-0.052 -0.111,-0.11 z m -1.11,-0.18 a 0.707,0.707 0 0 1 0.458,0 c 0.125,0.051 0.022,0.093 -0.23,0.093 -0.251,0 -0.354,-0.042 -0.228,-0.093 z m 25.824,0 a 0.707,0.707 0 0 1 0.457,0 c 0.126,0.051 0.023,0.093 -0.229,0.093 -0.251,0 -0.354,-0.042 -0.228,-0.093 z m 23.03,-0.062 -3.663,-0.103 3.607,-0.04 c 2.25,-0.025 3.649,0.029 3.72,0.143 0.061,0.101 0.087,0.166 0.056,0.144 -0.031,-0.022 -1.705,-0.087 -3.72,-0.144 z"
       id="path6" />
    <path
       style="fill:#35a752;stroke-width:1"
       d="m 23.612,113.21883 v -12.464 l 5.999,0.003 c 4.44,0.002 6.313,0.07 7.21,0.26 3.443,0.73 5.656,3.05 5.656,5.93 0,1.705 -0.306,2.378 -1.696,3.74 -0.692,0.68 -1.211,1.312 -1.153,1.406 0.058,0.094 0.346,0.224 0.64,0.288 0.846,0.186 2.477,1.466 3.095,2.43 1.19,1.854 1.384,4.164 0.539,6.435 -0.543,1.459 -2.22,3.08 -3.916,3.786 l -1.264,0.526 -7.555,0.061 -7.555,0.062 z m 12.769,7.475 c 1.054,-0.525 1.53,-1.285 1.556,-2.482 0.028,-1.269 -0.393,-1.95 -1.559,-2.52 -0.942,-0.46 -1.077,-0.476 -3.803,-0.427 l -2.827,0.05 -0.05,2.723 c -0.038,1.988 0.01,2.798 0.18,3.001 0.195,0.235 0.656,0.264 2.932,0.183 2.357,-0.083 2.812,-0.15 3.57,-0.529 z m -1.6,-10.388 c 0.89,-0.476 1.323,-1.14 1.419,-2.165 0.097,-1.047 -0.39,-1.92 -1.398,-2.51 -0.781,-0.456 -4.412,-0.678 -4.87,-0.298 -0.22,0.183 -0.276,0.716 -0.276,2.649 0,1.33 0.055,2.474 0.122,2.541 0.068,0.067 1.078,0.122 2.247,0.122 1.718,0 2.245,-0.065 2.756,-0.339 z m 14.36,15.068 c 0.062,-0.16 0.112,-5.764 0.112,-12.454 v -12.165 h 6.019 c 3.31,0 6.457,0.083 6.992,0.185 2.277,0.432 4.482,2.056 5.44,4.008 0.454,0.923 0.505,1.222 0.505,2.95 0,1.729 -0.05,2.016 -0.487,2.846 -0.522,0.988 -1.767,2.248 -2.697,2.73 -0.314,0.161 -0.57,0.372 -0.57,0.468 0,0.095 0.358,0.532 0.795,0.97 0.975,0.974 1.752,2.296 3.039,5.165 0.542,1.21 1.343,2.931 1.78,3.827 0.438,0.896 0.796,1.658 0.796,1.694 0,0.036 -1.51,0.065 -3.356,0.065 h -3.356 l -0.89,-2.06 c -2.318,-5.37 -3.639,-7.435 -5.013,-7.842 -0.365,-0.108 -1.158,-0.17 -1.763,-0.138 l -1.098,0.059 -0.05,4.99 -0.048,4.991 h -3.13 c -2.78,0 -3.118,-0.032 -3.02,-0.29 z m 10.926,-14.545 c 0.357,-0.099 0.929,-0.468 1.27,-0.82 0.53,-0.548 0.632,-0.797 0.695,-1.697 0.062,-0.88 0.002,-1.161 -0.357,-1.696 -0.652,-0.97 -1.56,-1.326 -3.645,-1.427 -0.983,-0.047 -2,-0.032 -2.26,0.033 l -0.473,0.119 v 2.713 c 0,1.492 0.055,2.768 0.122,2.835 0.19,0.19 3.921,0.142 4.648,-0.06 z m 11.164,14.688 c 0,-0.08 0.077,-0.225 0.17,-0.32 0.095,-0.096 1.133,-2.565 2.308,-5.486 a 19169.217,19169.217 0 0 1 7.545,-18.731 c 0.071,-0.18 0.911,-0.22 3.677,-0.183 l 3.586,0.05 1.584,3.571 c 0.872,1.965 2.35,5.302 3.283,7.418 4.65,10.533 5.93,13.388 6.097,13.598 0.145,0.182 -0.515,0.229 -3.182,0.227 l -3.365,-0.003 -1.01,-2.424 -1.01,-2.424 H 79.58 l -0.799,2.197 c -0.44,1.21 -0.832,2.301 -0.872,2.427 -0.055,0.172 -0.895,0.229 -3.376,0.229 -1.816,0 -3.302,-0.066 -3.302,-0.147 z m 17.54,-9.24 c 0.134,-0.164 -0.33,-1.479 -1.634,-4.624 -1.002,-2.418 -1.893,-4.467 -1.98,-4.553 -0.086,-0.087 -0.275,0.035 -0.423,0.275 -0.502,0.812 -3.292,8.567 -3.183,8.85 0.092,0.239 0.624,0.281 3.57,0.281 2.55,0 3.513,-0.06 3.65,-0.229 z m 17.905,-0.607 c 3.953,-5.89 6.667,-10.102 6.608,-10.257 -0.085,-0.22 -1.08,-0.262 -6.248,-0.262 h -6.147 l 0.052,-2.152 0.051,-2.152 11.253,-0.047 c 6.19,-0.026 11.319,0.018 11.399,0.098 0.08,0.08 -1.399,2.458 -3.286,5.285 -8.354,12.511 -9.78,14.707 -9.666,14.89 0.081,0.132 2.247,0.195 6.703,0.195 h 6.582 v 4.395 h -24.01 z m 21.652,-2.232 c 0.026,-6.723 0.086,-12.33 0.134,-12.458 0.066,-0.18 0.763,-0.222 2.975,-0.184 l 2.888,0.051 0.047,12.408 0.047,12.408 h -6.138 z m 11.994,-0.183 0.047,-12.408 2.976,-0.05 2.976,-0.05 v 9.906 c 0,6.478 0.066,10.029 0.19,10.26 0.182,0.34 0.447,0.355 6.41,0.355 h 6.22 v 1.908 c 0,1.05 0.05,2.038 0.112,2.198 0.1,0.262 -0.805,0.29 -9.434,0.29 h -9.544 z"
       id="path8" />
  </g>
</svg>
