<?xml version="1.0" encoding="UTF-8" standalone="no"?>
<svg
   width="650"
   height="650"
   viewBox="0 0 171.97888 171.97907"
   version="1.1"
   id="svg16"
   sodipodi:docname="metlife.svg"
   inkscape:version="1.1.1 (3bf5ae0d25, 2021-09-20)"
   xmlns:inkscape="http://www.inkscape.org/namespaces/inkscape"
   xmlns:sodipodi="http://sodipodi.sourceforge.net/DTD/sodipodi-0.dtd"
   xmlns="http://www.w3.org/2000/svg"
   xmlns:svg="http://www.w3.org/2000/svg">
  <defs
     id="defs20" />
  <sodipodi:namedview
     id="namedview18"
     pagecolor="#ffffff"
     bordercolor="#666666"
     borderopacity="1.0"
     inkscape:pageshadow="2"
     inkscape:pageopacity="0.0"
     inkscape:pagecheckerboard="0"
     showgrid="false"
     inkscape:zoom="0.46659571"
     inkscape:cx="-295.75926"
     inkscape:cy="611.87875"
     inkscape:window-width="2560"
     inkscape:window-height="1017"
     inkscape:window-x="-8"
     inkscape:window-y="-8"
     inkscape:window-maximized="1"
     inkscape:current-layer="svg16" />
  <path
     style="fill:#f2f2f2;stroke-width:0.15875;paint-order:markers stroke fill"
     d="M -9.8624002e-5,0 H 171.97897 V 171.97907 H -9.8624002e-5 Z"
     id="path2" />
  <g
     style="stroke-width:0.0831362"
     id="g6"
     transform="translate(-1.0854798,7.2904163)">
    <path
       d="m 0,0 a 23.23,23.23 0 0 0 4.702,-14.051 c 0,-1.273 -0.103,-2.522 -0.3,-3.741 h 8.544 c 0.743,0 1.345,0.604 1.345,1.349 V 7.178 c 0,0.88 -0.829,1.531 -1.678,1.307 A 23.274,23.274 0 0 1 0,0"
       style="fill:#99d538;fill-opacity:1;fill-rule:nonzero;stroke:none;stroke-width:0.0831362"
       transform="matrix(4.24337,0,0,-4.24337,87.9,64.662)"
       id="path4" />
  </g>
  <g
     style="stroke-width:0.0831362"
     id="g10"
     transform="translate(-1.0854798,7.2904163)">
    <path
       d="M 0,0 A 23.529,23.529 0 0 0 -0.3,3.741 23.24,23.24 0 0 0 4.402,17.792 23.267,23.267 0 0 1 -8.211,26.276 1.343,1.343 0 0 1 -9.889,24.97 V 1.348 C -9.889,0.604 -9.286,0 -8.543,0 Z"
       style="fill:#239de0;fill-opacity:1;fill-rule:nonzero;stroke:none;stroke-width:0.0831362"
       transform="matrix(4.24337,0,0,-4.24337,69.219,140.158)"
       id="path8" />
  </g>
  <g
     style="stroke-width:0.0831362"
     id="g14"
     transform="translate(-1.0854798,7.2904163)">
    <path
       d="m 0,0 a 23.23,23.23 0 0 1 -4.702,-14.051 c 0,-1.273 0.103,-2.522 0.3,-3.741 h 8.804 c 0.197,1.219 0.3,2.468 0.3,3.741 A 23.23,23.23 0 0 1 0,0"
       style="fill:#1563a9;fill-opacity:1;fill-rule:nonzero;stroke:none;stroke-width:0.0831362"
       transform="matrix(4.24337,0,0,-4.24337,87.9,64.662)"
       id="path12" />
  </g>
</svg>
