<svg width="211.32" height="210.491" xmlns="http://www.w3.org/2000/svg"><g style="fill:none;fill-rule:evenodd;stroke:none;stroke-width:1"><g style="stroke-width:8.92306"><path style="fill:#dfe14f;fill-opacity:1;stroke-width:.282523;paint-order:markers stroke fill" d="M23.988-99.001h99.505V.113H23.988z" transform="translate(-50.944 210.25) scale(2.12372)"/><g style="stroke-width:7.24837"><path style="fill:#fefefe;stroke-width:7.24838" d="M187.532-46.238c1.102-.289 1.781-1.003 2.168-2.28.122-.404 1.21-5.245 1.184-5.27-.044-.043-.792-.165-1.244-.203-1.525-.128-3.066.486-3.939 1.57-.788.978-1.05 2.424-.58 3.198.296.486.723.689 1.444.686.696-.002 1.128-.166 1.58-.598l.269-.256-.135.514c-.153.58-.289.874-.535 1.16-.203.235-.637.46-1.03.535-.54.102-1.48-.022-1.94-.257l-.122-.062-.126.475-.148.55c-.025.085.302.192.913.298.483.084 1.83.048 2.24-.06zm-.83-3.39-.174-.159.003-.55c.002-.449.023-.606.11-.853.244-.695.732-1.27 1.332-1.567.308-.154.413-.181.755-.2.224-.013.417-.003.443.022.029.03-.023.317-.145.81-.242.981-.3 1.153-.526 1.593-.366.71-.807 1.06-1.34 1.062-.257.001-.299-.013-.457-.158zm-5.928 1.2c.136-.029.359-.105.496-.17.274-.13.79-.585.945-.837.055-.089.106-.155.114-.148.011.012-.04.347-.142.91l-.027.152.767-.003c.86-.003.824.012.824-.354 0-.378.143-1.153.555-3.017l.411-1.856-.114-.042a4.197 4.197 0 0 0-.494-.108c-1.518-.257-2.68-.03-3.8.745a3.793 3.793 0 0 0-1.418 1.901c-.142.412-.153.486-.155 1.071-.002.594.005.644.129.907.214.456.509.708.97.83.31.082.613.088.939.019zm-.033-1.04a.724.724 0 0 1-.268-.166c-.207-.253-.22-.853-.032-1.466.283-.925 1.086-1.704 1.894-1.837.364-.06.67-.023.669.08 0 .04-.093.447-.206.903-.158.64-.257.936-.44 1.304-.464.945-1.06 1.38-1.617 1.181zm19.078.883c.368-.139.77-.448 1.028-.793.12-.16.22-.274.22-.252 0 .022-.032.204-.07.405-.04.2-.07.426-.07.5v.136l.762-.003.764-.003.029-.407c.042-.585.13-1.058.57-3.03.333-1.495.38-1.763.324-1.806-.146-.11-1.018-.22-1.703-.216-.576.005-.745.024-1.137.13-1.586.425-2.724 1.557-3.025 3.008-.265 1.28.152 2.187 1.117 2.427.27.068.89.018 1.19-.096zm-.31-.93c-.323-.1-.466-.359-.464-.841.002-.465.077-.772.303-1.245.433-.91 1.434-1.553 2.208-1.42.224.04.228-.04-.046 1.062-.15.604-.258.928-.416 1.245-.435.876-1.073 1.359-1.584 1.2zm-25.582.92c.014-.058.13-.608.259-1.223.129-.615.245-1.152.257-1.194.02-.067.151-.08 1.037-.104.752-.02 1.086-.047 1.294-.106.795-.226 1.434-.708 1.728-1.305.457-.93.37-1.921-.223-2.51-.241-.24-.703-.475-1.056-.54-.286-.052-3.413-.052-3.413 0 0 .018-.336 1.608-.746 3.532a483.815 483.815 0 0 0-.747 3.53c0 .016.356.029.792.027.784-.003.793-.004.818-.108zm.77-3.61c-.001-.02.109-.554.243-1.188l.245-1.153.394-.001c.85-.003 1.3.17 1.498.575.09.185.101.263.076.505-.058.556-.33.92-.83 1.112-.342.13-1.624.249-1.627.15zm20.275 3.507c1.005-.281 1.573-.767 1.777-1.52.11-.405.082-.998-.06-1.27-.132-.256-.478-.551-.77-.659l-.237-.087.184-.06c.79-.254 1.306-.837 1.426-1.609.122-.777-.259-1.354-1.089-1.654-.283-.103-.356-.107-2.01-.118-1.387-.008-1.72.001-1.738.05-.012.035-.349 1.59-.747 3.459a823.428 823.428 0 0 1-.753 3.508l-.028.112 1.838-.024c1.716-.023 1.862-.032 2.207-.128zm-2.26-.89c0-.036.1-.534.222-1.107l.222-1.042.63.021c.664.023.86.067 1.108.249.238.175.307.35.28.716-.038.54-.307.878-.858 1.078-.35.127-1.604.192-1.604.084zm.655-3.145c.001-.022.092-.47.203-.996l.2-.954.603-.002c.684-.002.937.063 1.167.302.124.13.136.17.136.475 0 .283-.02.37-.131.557-.142.241-.356.407-.686.53-.231.085-1.495.16-1.492.088zm11.62 4.113c0-.01.158-.759.35-1.666.37-1.73.47-2.047.765-2.382.308-.35.909-.482 1.254-.273.336.203.326.414-.122 2.56l-.365 1.747.746.01c.41.006.75.004.757-.003.007-.007.186-.82.398-1.806.338-1.571.387-1.854.39-2.282.004-.56-.066-.752-.375-1.021-.219-.191-.392-.263-.779-.323a2.206 2.206 0 0 0-1.914.652c-.146.153-.265.26-.265.24a6.3 6.3 0 0 1 .07-.405c.038-.2.07-.37.07-.376 0-.007-.322-.01-.715-.01l-.716.003-.059.385c-.052.343-.952 4.688-1.012 4.89-.023.075.034.081.749.079.425-.002.773-.01.773-.02zm5.99-.111c.015-.058.133-.63.264-1.27.13-.64.251-1.2.27-1.243.024-.058.23.299.733 1.265l.7 1.346.852-.003c.468-.002.852-.015.852-.03 0-.013-.359-.642-.797-1.396a70.938 70.938 0 0 1-.82-1.432c-.014-.037.493-.534 1.287-1.26.72-.66 1.31-1.21 1.31-1.22 0-.012-.396-.02-.88-.018l-.88.003-1.092 1.05c-.6.577-1.097 1.034-1.104 1.015-.007-.018.188-.985.432-2.148.244-1.162.444-2.142.444-2.176 0-.05-.153-.062-.746-.06-.735.003-.747.004-.77.107-.014.058-.352 1.656-.751 3.552l-.788 3.738-.061.29.76-.002c.75-.003.759-.004.785-.108z" transform="translate(-405.693 286.483) scale(2.6144)"/><path style="fill:#a4d9d8;stroke-width:7.24838" d="M200.46-48.974c0-.008.068-.077.151-.152l.152-.137-.137.151c-.128.142-.166.174-.166.138zm-4.247-.36c0-.01.036-.047.081-.082.074-.058.076-.056.018.018-.061.077-.1.102-.1.064zm17.315-2.716c0-.01.036-.047.081-.082.074-.058.076-.056.018.018-.061.077-.1.102-.1.064zm-1.494-.178c0-.008.068-.076.152-.152l.151-.137-.137.152c-.127.141-.166.173-.166.137zm-30.92-.059a.371.371 0 0 1 .108-.093c.013 0-.015.042-.061.093a.371.371 0 0 1-.108.093c-.013 0 .015-.042.061-.093zm17.385-.505c.088-.09.17-.164.182-.164.013 0-.048.074-.135.163-.087.09-.169.164-.182.164-.012 0 .048-.073.135-.163zm14.795-.65c0-.009.069-.077.152-.152l.152-.138-.137.152c-.128.142-.167.173-.167.137zm1.82-.057c0-.01.037-.046.082-.082.074-.058.076-.056.018.018-.061.078-.1.103-.1.064zm-36.873-1.558-.114-.128.129.113a.81.81 0 0 1 .128.127c0 .037-.038.007-.143-.112z" transform="translate(-405.693 286.483) scale(2.6144)"/><path style="fill:#a5a7a7;stroke-width:7.24838" d="M185.656-46.145c.034-.014.074-.012.09.003.015.016-.013.027-.062.025-.054-.002-.065-.013-.028-.028zm13.161-2.329c.034-.013.074-.012.09.004.015.015-.012.026-.062.024-.054-.002-.065-.013-.028-.028zm-15.105-.239c0-.064.01-.09.023-.058a.18.18 0 0 1 0 .116c-.012.033-.023.006-.023-.058zm1.576-.273-.113-.128.128.113a.86.86 0 0 1 .128.127c0 .037-.037.007-.143-.112zm1.789-.47a.384.384 0 0 1 .163 0c.045.012.008.022-.082.022s-.126-.01-.081-.021zm13.43-.412a.555.555 0 0 1 .132-.116c.013 0-.026.052-.086.116a.555.555 0 0 1-.133.117c-.013 0 .026-.052.086-.117zm-12.485.023a.371.371 0 0 1 .108-.094c.012 0-.015.042-.062.094a.371.371 0 0 1-.107.093c-.013 0 .014-.042.06-.093zm-3.137-.315c0-.14.01-.198.02-.128s.01.186 0 .256-.02.013-.02-.128zm1.585-.122c0-.102.01-.139.021-.08a.507.507 0 0 1 0 .185c-.012.045-.022-.002-.021-.105zm10.96-.183c.002-.054.013-.066.028-.028.013.033.012.073-.004.089-.016.015-.027-.012-.025-.061zm1.586-.1c.002-.053.014-.064.029-.027.013.033.011.073-.004.089-.016.015-.027-.012-.025-.061zm14.092-1.111c0-.01.036-.047.081-.082.074-.058.076-.057.018.017-.061.078-.1.103-.1.065zm-1.26-.374a1 1 0 0 1 .181-.163c.013 0-.048.073-.135.163-.087.09-.169.164-.182.164-.012 0 .048-.074.135-.164zm-4.237-.333c0-.09.01-.127.021-.082a.382.382 0 0 1 0 .163c-.011.045-.02.008-.02-.081zm-32.155.178a.268.268 0 0 1 .14 0c.032.013-.006.023-.082.023-.077-.001-.103-.011-.058-.023zm24.35-.121c0-.01.037-.046.082-.082.074-.058.076-.056.018.018-.061.078-.1.102-.1.064zm-13.838-.397c.1-.103.193-.187.206-.187.013 0-.059.084-.16.186-.1.103-.192.187-.205.187-.013 0 .059-.084.16-.186zm28.213.065c0-.01.037-.046.082-.081.074-.059.075-.057.017.017-.06.078-.099.103-.099.064zm-34.397-.066c.087-.09.169-.164.182-.164.013 0-.048.074-.135.164a.99.99 0 0 1-.182.163c-.013 0 .048-.073.135-.163zm2.652-.251c.033-.014.074-.012.09.003.015.016-.013.027-.062.025-.054-.002-.065-.013-.028-.028zm.326-.001c.034-.014.074-.012.09.003.015.015-.012.027-.061.025-.055-.002-.066-.013-.029-.028zm5.996-.023a.268.268 0 0 1 .14.002c.031.012-.006.022-.083.021-.077 0-.103-.01-.057-.023zm12.393-.044c.034-.014.074-.012.09.003.015.015-.013.027-.062.025-.054-.002-.065-.013-.028-.028zm5.738-.02a.18.18 0 0 1 .116 0c.032.012.006.023-.058.023s-.09-.01-.058-.023zm6.219-.201c.087-.09.168-.164.181-.164.013 0-.048.073-.135.163-.087.09-.169.164-.181.164-.013 0 .047-.074.135-.163zm1.586.14c0-.01.037-.047.082-.083.074-.058.076-.056.018.018-.061.078-.1.102-.1.064zm-35.933-.392c.002-.054.013-.065.028-.028.014.034.012.074-.004.09-.015.015-.026-.013-.024-.062zm3.858-.483a.18.18 0 0 1 .117 0c.032.013.006.023-.058.024-.064 0-.09-.01-.058-.024zm.491-.003a.268.268 0 0 1 .14.001c.032.013-.006.023-.082.022-.077 0-.103-.01-.058-.023zm5.95-.022a.511.511 0 0 1 .187 0c.045.012-.003.02-.105.02-.103 0-.14-.009-.081-.02zm8.237-.137c0-.09.01-.126.021-.081a.382.382 0 0 1 0 .162c-.012.045-.021.009-.021-.08zm4.038.094a.18.18 0 0 1 .116 0c.032.013.006.023-.058.023s-.09-.01-.058-.023zm.49-.003a.384.384 0 0 1 .163 0c.045.011.008.02-.082.021-.09 0-.126-.009-.081-.02zm5.835-.021a.268.268 0 0 1 .14 0c.031.014-.006.023-.083.023-.077-.001-.103-.011-.057-.023zm-31.525-.443c.034-.014.074-.013.09.003.015.015-.013.026-.062.024-.054-.002-.065-.013-.028-.028zm20.75-.614-.09-.105.106.088c.099.083.126.12.089.12a.511.511 0 0 1-.105-.103z" transform="translate(-405.693 286.483) scale(2.6144)"/><path style="fill:#749999;stroke-width:7.24838" d="M185.796-46.146c.034-.013.074-.012.09.004.015.015-.013.026-.062.024-.054-.002-.065-.013-.028-.028zm.884-.002a.18.18 0 0 1 .117 0c.032.012.006.023-.059.023-.064 0-.09-.01-.058-.023zm-6.44-2.26a.667.667 0 0 1 .21 0c.057.011.01.02-.106.02-.115.001-.163-.008-.105-.02zm18.762-.068a.511.511 0 0 1 .186 0c.045.012-.003.022-.105.021-.103 0-.14-.01-.081-.02zm-4.852-.12c.034-.014.074-.012.09.003.015.015-.012.026-.062.025-.054-.002-.065-.013-.028-.028zm8.279-.115c0-.077.011-.103.023-.057a.262.262 0 0 1-.002.14c-.013.03-.022-.006-.021-.083zm-18.72-.168c.001-.055.013-.066.027-.029.014.034.012.074-.004.09-.015.015-.026-.012-.024-.061zm9.155-.646c.122-.01.321-.01.443-.001.122.009.022.017-.221.018-.244 0-.344-.007-.222-.017zm4.575-.657c0-.128.01-.175.02-.104a.83.83 0 0 1 0 .232c-.011.058-.02 0-.02-.128zm-2.244-.69c0-.077.011-.103.023-.058a.262.262 0 0 1-.002.14c-.013.032-.022-.005-.021-.082zm-20.737-.24c.02-.02.402-.032.85-.026l.812.01-.849.026c-.467.014-.833.01-.813-.01zm4.312-2.656c0-.115.01-.162.02-.105a.663.663 0 0 1 0 .21c-.01.058-.02.01-.02-.105zm16.933-.182c.002-.054.013-.065.028-.028.014.034.012.074-.004.09-.015.015-.026-.013-.024-.062zM182.83-54a.384.384 0 0 1 .163-.001c.045.011.008.02-.082.021-.09 0-.126-.009-.082-.02zm18.715-.069a.384.384 0 0 1 .163 0c.045.011.008.02-.082.021-.09 0-.126-.01-.081-.02zm-9.073-1.576c.02-.02.728-.033 1.573-.029l1.537.007-1.572.029c-.865.016-1.557.013-1.538-.007zm-17.86.042a55.793 55.793 0 0 1 1.587-.005c.445.006.094.013-.779.016-.872.004-1.236-.001-.808-.01z" transform="translate(-405.693 286.483) scale(2.6144)"/><path style="fill:#5f6161;stroke-width:7.24838" d="M186.073-46.149c.11-.01.288-.01.397-.001.109.01.02.017-.198.018-.219.001-.308-.007-.199-.017zm2.742-.814a.371.371 0 0 1 .108-.093c.013 0-.015.042-.061.093a.371.371 0 0 1-.108.094c-.013 0 .015-.042.061-.094zm-2.741-.163c.084-.01.21-.01.28 0 .07.01.001.019-.152.019-.154 0-.212-.008-.128-.019zm1.551-.455c0-.01.037-.046.082-.082.074-.058.075-.056.017.018-.06.078-.099.102-.099.064zm-1.362-.987c.033-.013.074-.012.09.004.015.015-.013.026-.062.024-.055-.002-.066-.013-.028-.028zm.56-.002c.034-.013.074-.012.09.004.015.015-.013.026-.062.024-.054-.002-.065-.013-.028-.028zm7.138-.025a.18.18 0 0 1 .116 0c.032.013.006.023-.058.024-.064 0-.09-.01-.058-.024zm3.926-.297c-.058-.074-.057-.075.017-.018.078.06.103.099.064.099-.01 0-.046-.037-.081-.081zm4.54-.028c0-.064.01-.09.024-.059a.178.178 0 0 1 0 .117c-.013.032-.024.006-.024-.058zm-18.719-.099c.002-.054.014-.065.028-.028.014.033.012.074-.004.09-.015.015-.026-.013-.024-.062zm4.29-.006c0-.01.037-.047.082-.082.074-.058.076-.056.018.018-.061.077-.1.102-.1.064zm.187-.187c0-.01.037-.046.082-.082.074-.058.075-.056.017.018-.06.078-.099.102-.099.064zm5.356-.312a.18.18 0 0 1 .116 0c.032.012.006.023-.058.023s-.09-.01-.058-.023zm-11.211-.111c-.015-.024-.01-.054.013-.068.021-.014.04.006.04.043 0 .079-.015.086-.053.025zm-.539-.164a.555.555 0 0 1 .133-.117c.013 0-.026.052-.086.116a.555.555 0 0 1-.133.117c-.013 0 .026-.052.086-.116zm-3.065-.338c0-.167.008-.235.018-.152.01.084.01.22 0 .303-.01.083-.018.015-.018-.151zm16.086.203c0-.01.037-.047.082-.082.074-.058.076-.056.018.018-.061.077-.1.102-.1.064zm-14.55-.348c0-.09.01-.127.021-.082a.382.382 0 0 1 0 .163c-.012.045-.021.008-.021-.081zm13.115-1.479c.122-.01.322-.01.444-.001.122.009.022.017-.222.018-.244 0-.344-.007-.222-.017zm19.87-.055c0-.01.037-.047.082-.082.074-.058.076-.057.018.017-.061.078-.1.103-.1.065zm.56-.514c0-.01.037-.047.082-.082.074-.058.076-.057.018.017-.061.078-.1.103-.1.065zm-4.655-.408c0-.102.01-.139.021-.081a.507.507 0 0 1 0 .186c-.012.045-.021-.003-.02-.105zm-3.045.011a.556.556 0 0 1 .133-.117c.013 0-.026.053-.086.117a.556.556 0 0 1-.133.117c-.013 0 .026-.053.086-.117zm-12.757.039a.128.128 0 0 1-.03-.082c0-.03.014-.029.036.006.023.036.203.061.501.07l.465.014-.47.011c-.26.006-.485-.002-.502-.02zm19.43-.25c.088-.09.17-.163.183-.163.012 0-.048.073-.135.163-.088.09-.17.164-.182.164-.013 0 .048-.074.135-.163zm1.541.14c0-.01.037-.046.082-.082.074-.058.075-.056.017.018-.06.078-.099.103-.099.064zm-8.528-.327c-.008-.107.014-.116.05-.021.015.037.01.078-.009.09-.02.011-.038-.02-.042-.069zm.174-.154c0-.01.037-.047.082-.082.074-.058.075-.057.017.018-.06.077-.1.102-.1.064zm-28.787-.32c0-.077.011-.103.023-.057a.263.263 0 0 1-.002.14c-.013.03-.023-.006-.022-.083zm38.214-.18c0-.01.037-.047.082-.082.074-.058.076-.056.018.018-.061.077-.1.102-.1.064zm-10.87-.063c.002-.054.013-.065.028-.028.013.033.012.073-.004.089-.016.015-.027-.012-.025-.061zm-15.834-.133c.033-.014.074-.012.09.003.015.015-.013.027-.062.025-.055-.002-.066-.013-.028-.028zm.933-.004c.034-.013.074-.012.09.004.015.015-.013.026-.062.024-.054-.002-.065-.013-.028-.028zm12.648-.046c.034-.013.074-.012.09.004.015.015-.013.026-.062.024-.054-.002-.065-.013-.028-.028z" transform="translate(-405.693 286.483) scale(2.6144)"/><path style="fill:#010202;stroke-width:7.24838" d="M185.268-46.208c-.476-.088-.863-.2-.862-.247.004-.135.272-.98.308-.97l.376.127c.674.232 1.366.25 1.952.054.668-.224 1.023-.688 1.284-1.685.075-.284.131-.523.124-.53-.007-.006-.136.115-.288.269-.5.507-1.19.724-1.937.611-.824-.124-1.248-.595-1.296-1.44-.11-1.97 1.524-3.683 3.755-3.934a4.34 4.34 0 0 1 1.007-.003c.72.07 1.11.144 1.138.217.035.088-1.037 4.857-1.202 5.351-.393 1.175-1.01 1.817-2.025 2.106-.33.093-1.952.145-2.334.074zm2.276-3.29c.432-.148.868-.675 1.158-1.399.128-.32.571-2.025.535-2.061a1.501 1.501 0 0 0-.269-.04c-.308-.032-.657.04-1.003.204-.322.153-.87.669-1.078 1.013-.31.514-.484 1.27-.409 1.772.034.228.204.474.373.542.157.062.46.049.693-.031zm-7.698 1.037a1.462 1.462 0 0 1-1.025-1.016c-.101-.348-.065-1.303.065-1.708.442-1.373 1.613-2.365 3.185-2.698.367-.078.556-.09 1.097-.072.606.021 1.403.131 1.48.204.018.018-.155.88-.385 1.918-.408 1.846-.558 2.681-.558 3.099v.208l-.747.002c-.567.002-.747-.011-.747-.055 0-.032.042-.298.093-.591.05-.293.084-.54.075-.55-.009-.008-.073.08-.142.198-.203.346-.589.697-.98.891-.323.16-.39.177-.808.191-.25.01-.521 0-.603-.021zm1.503-1.009c.506-.212.985-.865 1.28-1.742.053-.161.171-.61.261-.998.129-.555.15-.713.104-.743-.108-.068-.63-.038-.919.053-.377.118-.692.327-1.008.668-.326.353-.504.66-.658 1.135-.147.456-.173 1.08-.055 1.303.08.15.252.321.364.361.137.05.472.03.631-.037zm17.174.918c-.49-.153-.81-.469-.957-.944-.174-.56-.097-1.442.182-2.11.466-1.112 1.546-1.981 2.882-2.32.458-.117 1.655-.12 2.268-.007.25.046.467.103.48.126.015.022-.163.899-.395 1.947-.379 1.717-.563 2.74-.563 3.128v.137l-.747.003-.748.003.03-.198c.016-.109.058-.355.093-.547.09-.488.084-.513-.074-.265-.462.728-1.12 1.11-1.907 1.107a2.4 2.4 0 0 1-.544-.06zm1.686-1.057c.577-.332 1.022-1.106 1.32-2.297.1-.402.196-.815.213-.917.03-.175.024-.19-.092-.218a2.053 2.053 0 0 0-.45-.006c-1.12.084-2.187 1.376-2.187 2.648 0 .487.13.778.397.887.212.086.553.045.8-.097zm-27.844 1.042c0-.044.332-1.632.738-3.528l.736-3.447 1.63-.02c1.848-.022 2.005-.002 2.487.306.507.325.758.765.792 1.385.052.944-.34 1.747-1.084 2.225-.604.387-1.098.493-2.333.497l-.898.004-.276 1.327-.277 1.327-.758.003c-.692.003-.758-.004-.757-.079zm3.676-3.679c.672-.16 1.02-.504 1.134-1.121.092-.5-.15-.907-.646-1.09-.347-.13-1.345-.134-1.384-.007-.014.045-.121.532-.239 1.083-.117.55-.225 1.048-.24 1.106-.026.104-.023.105.528.102.324-.002.675-.032.847-.073zm14.944 3.65c0-.038 1.4-6.637 1.47-6.932l.026-.105 1.607-.006c1.732-.006 1.923.012 2.39.23.67.313.94.952.735 1.739a1.846 1.846 0 0 1-1.252 1.308l-.309.099c-.04.013.035.06.177.109.752.262 1.08.848.944 1.69-.172 1.08-1.02 1.692-2.56 1.851-.612.063-3.228.076-3.228.016zm3.268-1.033c.41-.132.667-.33.813-.628.328-.67.127-1.215-.52-1.41-.123-.037-.48-.08-.793-.093-.569-.026-.57-.026-.618.086-.047.107-.47 2.039-.47 2.145 0 .092 1.23.014 1.588-.1zm.23-3.082c.667-.11 1.114-.463 1.217-.962.076-.363.027-.563-.187-.765-.232-.22-.467-.273-1.185-.27l-.582.001-.056.268c-.03.148-.124.593-.208.99-.084.397-.143.738-.132.757.031.051.785.039 1.133-.019zm9.01 4.084c0-.017.219-1.07.486-2.342.267-1.27.51-2.462.54-2.648l.056-.338.673-.002c.483-.002.672.013.672.052 0 .03-.033.23-.073.446-.04.216-.066.4-.057.41.009.008.096-.082.193-.202.232-.287.575-.54.906-.67.217-.086.366-.107.782-.111.49-.005.53.002.822.144.21.102.347.207.432.328.322.462.305.789-.157 2.972-.205.97-.384 1.81-.398 1.867-.024.103-.036.105-.747.107-.398.002-.723-.006-.723-.018 0-.01.168-.823.374-1.804.205-.981.373-1.868.373-1.971a.682.682 0 0 0-.33-.592c-.125-.068-.224-.082-.45-.065-.517.039-.91.375-1.132.967-.053.14-.25.98-.438 1.863l-.342 1.607-.731.015c-.402.009-.73.002-.73-.015zm5.976-.027c.001-.02.364-1.744.807-3.832l.804-3.796.737-.016c.688-.014.736-.01.713.067-.058.197-.917 4.365-.905 4.397.007.019.52-.459 1.14-1.061l1.128-1.096.86.01.86.01-1.255 1.144a96.706 96.706 0 0 0-1.324 1.219c-.06.066.027.237.766 1.51l.834 1.436-.818.015c-.45.009-.833 0-.85-.02-.018-.02-.345-.637-.727-1.371-.381-.735-.705-1.336-.72-1.336-.014 0-.152.613-.305 1.363l-.28 1.362-.733.016c-.404.008-.733-.001-.732-.021z" transform="translate(-405.693 286.483) scale(2.6144)"/></g><g style="stroke-width:8.87322"><path style="fill:#fefefe;stroke-width:8.87323" d="M65.612-88.928c7.554-1.634 13.565-7.249 15.516-14.494.568-2.11.638-2.693.638-5.358 0-2.665-.07-3.248-.638-5.353-1.003-3.72-3.29-7.326-6.249-9.85-3.682-3.144-8.774-5.092-13.263-5.076-2.74.011-5.759.76-8.666 2.154-6.171 2.958-10.427 8.73-11.383 15.44-.195 1.369-.195 4.295 0 5.662a20.233 20.233 0 0 0 4.107 9.593c1.396 1.783 3.845 3.955 5.671 5.03 1.727 1.017 4.972 2.115 7.295 2.469.727.11 1.62.139 3.342.105 2.047-.04 2.513-.08 3.63-.322z" transform="translate(-27.493 309.445) scale(2.13565)"/><path style="fill:#a4d9d8;stroke-width:8.87323" d="M63.424-88.636c.075-.03.165-.027.2.007.034.034-.027.06-.137.055-.122-.004-.147-.029-.063-.063zm-6.663-2.048c-5.609-.878-9.953-5.132-11.022-10.793-.259-1.372-.165-3.998.191-5.35.685-2.6 1.69-4.365 3.549-6.24 1.79-1.807 4.134-3.072 6.76-3.65 1.226-.269 3.879-.281 5.092-.023 2.71.578 5.033 1.822 6.857 3.673.4.404.705.75.68.766a19.72 19.72 0 0 1-.969.337c-3.155 1.05-5.589 3.95-6.132 7.31-.175 1.08-.074 3.025.205 3.96.816 2.732 2.748 4.926 5.312 6.032l.76.328-.551.497c-1.55 1.397-3.701 2.485-5.93 2.998-1.232.284-3.508.358-4.802.155zm-9.505-3.731-.571-.597.6.567c.33.312.6.58.6.596 0 .078-.1-.012-.63-.566zm28.608-.053c.256-.273.48-.496.496-.496.078 0-.004.093-.465.527l-.496.466zM47.26-122.919c.312-.317.59-.575.62-.575.028 0-.203.258-.515.574-.312.316-.591.575-.62.575-.028 0 .203-.258.515-.574zm28.61-.105c-.254-.256-.438-.467-.41-.467.03 0 .26.21.514.467s.438.467.409.467c-.029 0-.26-.21-.513-.467zm-15.578-6.001c.076-.03.166-.027.2.007.035.034-.027.06-.137.055-.121-.004-.146-.029-.063-.062zm2.506-.01c.076-.03.166-.026.2.008.035.034-.027.06-.137.055-.122-.004-.146-.029-.063-.062z" transform="translate(-27.493 309.445) scale(2.13565)"/><path style="fill:#dae25f;stroke-width:8.87323" d="M78.926-103.251c.001-.287.02-.391.045-.233.024.158.024.392-.001.52-.025.129-.045 0-.044-.287zm-1.596-6.765c-.39-.418-1.42-1.12-2.245-1.527-1.073-.531-2.013-.784-3.402-.915l-1.235-.116-.534-.654c-1.7-2.082-4.55-3.882-7.28-4.597-5.078-1.33-10.442.115-14.122 3.805-1.091 1.094-1.679 1.856-2.424 3.146-.374.646-.51.809-.563.672-.145-.376.038-3.425.272-4.532 1.359-6.43 6.168-11.24 12.671-12.673 1.54-.34 4.756-.352 6.296-.023 7.441 1.586 12.675 7.72 12.95 15.177.028.773.013 1.655-.036 1.96l-.087.556z" transform="translate(-27.493 309.445) scale(2.13565)"/><path style="fill:#f3df3c;stroke-width:8.87323" d="M69.616-95.362c-1.594-.279-3.114-1.08-4.293-2.266-1.146-1.151-1.817-2.39-2.158-3.985-.242-1.132-.144-2.9.22-3.976.722-2.14 2.073-3.713 4.045-4.71 3.434-1.737 7.758-.712 9.947 2.358 1.09 1.528 1.52 2.856 1.52 4.69 0 2.282-.826 4.241-2.42 5.745-1.025.965-2.175 1.617-3.484 1.975-.763.21-2.616.302-3.377.169z" transform="translate(-27.493 309.445) scale(2.13565)"/><path style="fill:#a5a7a7;stroke-width:8.87323" d="m123.716-44.32-.09-.105.106.088a.516.516 0 0 1 .105.104c0 .038-.038.01-.121-.088zm8.055.01c0-.01.037-.046.082-.081.074-.059.075-.057.017.017-.06.078-.099.103-.099.064zm-8.335-.29-.09-.104.106.089a.514.514 0 0 1 .105.104c0 .037-.038.01-.121-.088zm31.009-.83c.033-.014.074-.012.089.003.016.015-.012.026-.061.025-.055-.002-.066-.013-.028-.028zm13.16-2.329c.035-.013.075-.012.09.003.016.016-.012.027-.06.025-.055-.002-.066-.013-.03-.028zm-15.104-.239c0-.064.01-.09.023-.058a.178.178 0 0 1 0 .116c-.013.032-.023.006-.023-.058zm1.575-.273-.113-.128.129.113a.81.81 0 0 1 .128.127c0 .037-.038.007-.144-.112zm1.79-.47a.384.384 0 0 1 .163 0c.044.012.008.021-.082.022-.09 0-.127-.01-.082-.021zm13.429-.412a.556.556 0 0 1 .133-.117c.013 0-.026.053-.086.117a.556.556 0 0 1-.133.117c-.013 0 .026-.053.086-.117zm-12.485.022a.371.371 0 0 1 .108-.093c.013 0-.015.042-.061.093a.37.37 0 0 1-.108.094c-.013 0 .015-.042.061-.094zm-3.136-.314c0-.14.009-.198.02-.128.01.07.01.186 0 .256-.011.07-.02.013-.02-.128zm1.585-.122c0-.102.01-.139.02-.081a.507.507 0 0 1 0 .186c-.012.045-.021-.003-.02-.105zm10.96-.183c.001-.055.013-.066.027-.029.014.034.012.074-.004.09-.015.015-.026-.012-.024-.061zm1.586-.1c.002-.054.013-.065.028-.028.014.034.012.074-.004.09-.015.015-.026-.012-.024-.061zm14.091-1.112c0-.01.037-.046.082-.081.074-.058.076-.057.017.017-.06.078-.099.103-.099.064zm-1.26-.373c.087-.09.169-.164.182-.164.012 0-.048.074-.135.164-.087.09-.17.163-.182.163-.013 0 .048-.073.135-.163zm-4.236-.334c0-.09.01-.126.021-.081a.382.382 0 0 1 0 .163c-.012.045-.021.008-.021-.082zm-32.155.178a.268.268 0 0 1 .14.002c.031.012-.006.022-.083.021-.077 0-.103-.01-.057-.023zm24.35-.12c0-.01.037-.047.081-.082.074-.058.076-.056.018.018-.06.077-.1.102-.1.064zm-13.838-.398c.1-.102.193-.187.205-.187.013 0-.058.084-.159.187-.1.103-.192.187-.205.187-.013 0 .058-.084.159-.187zm28.213.066c0-.01.036-.046.081-.082.074-.058.076-.056.018.018-.061.078-.1.102-.1.064zm-34.397-.066c.087-.09.169-.164.181-.164.013 0-.047.074-.135.163-.087.09-.168.164-.181.164-.013 0 .048-.074.135-.163zm2.651-.251c.034-.014.074-.012.09.003.015.015-.012.027-.062.025-.054-.002-.065-.013-.028-.028zm.327-.002c.034-.013.074-.012.09.004.015.015-.013.026-.062.024-.054-.002-.065-.013-.028-.028zm5.995-.022a.268.268 0 0 1 .14.001c.032.013-.006.023-.082.022-.077 0-.103-.01-.058-.023zm12.394-.045c.033-.013.073-.012.089.004.016.015-.012.026-.061.024-.055-.002-.066-.013-.028-.028zm5.737-.02a.18.18 0 0 1 .117 0c.032.013.006.024-.058.024-.065 0-.09-.01-.059-.023zm6.22-.2c.086-.09.168-.164.18-.164.014 0-.047.073-.134.163-.087.09-.169.164-.182.164-.013 0 .048-.074.135-.164zm1.586.139c0-.01.037-.047.082-.082.074-.058.075-.056.017.018-.06.077-.099.102-.099.064zm-60.043-.276a.371.371 0 0 1 .108-.093c.013 0-.015.042-.061.093a.371.371 0 0 1-.108.094c-.013 0 .015-.042.061-.094zm8.518-.147c-.114-.115-.196-.209-.183-.209.013 0 .116.094.23.209.113.114.195.208.182.208-.013 0-.116-.093-.23-.208zm15.592.032c.002-.054.013-.065.028-.028.013.034.012.074-.004.09-.016.015-.027-.013-.025-.062zm-23.876-.118a.371.371 0 0 1 .107-.094c.013 0-.014.042-.06.093a.371.371 0 0 1-.109.094c-.012 0 .015-.042.062-.093zm27.734-.365a.18.18 0 0 1 .117 0c.032.012.006.023-.059.023-.064 0-.09-.01-.058-.023zm.491-.003a.268.268 0 0 1 .14.001c.032.013-.006.022-.083.022s-.102-.011-.057-.023zm5.95-.022a.511.511 0 0 1 .187 0c.045.011-.003.02-.106.02-.102 0-.139-.01-.08-.02zm8.236-.137c0-.09.01-.126.022-.082a.382.382 0 0 1 0 .163c-.012.045-.022.008-.022-.081zm4.038.094a.18.18 0 0 1 .117 0c.032.012.006.023-.058.023-.065 0-.09-.01-.059-.023zm.49-.003a.384.384 0 0 1 .164 0c.045.01.008.02-.082.02-.09.001-.127-.008-.082-.02zm5.835-.022a.268.268 0 0 1 .14.002c.032.012-.006.022-.082.021-.077 0-.103-.01-.058-.023zm-31.524-.443c.033-.013.074-.012.09.004.015.015-.013.026-.062.024-.055-.002-.066-.013-.028-.028zm20.75-.614-.09-.104.106.088c.098.083.126.12.088.12a.511.511 0 0 1-.105-.104z" transform="translate(-27.493 309.445) scale(2.13565)"/><path style="fill:#749999;stroke-width:8.87323" d="M59.978-88.624c.076-.03.165-.027.2.007.035.035-.027.06-.137.056-.122-.005-.146-.03-.063-.063zm3.133-.011c.075-.03.165-.027.2.007.034.035-.027.06-.137.055-.122-.004-.147-.029-.063-.062zm-5.639-1.958c.076-.03.166-.027.2.007.035.035-.027.06-.137.055-.121-.004-.146-.029-.063-.062zm-11.961-12.64c0-.23.022-.311.047-.182.025.13.024.317-.002.417-.026.1-.047-.006-.046-.236zm0-.938c0-.229.022-.31.047-.181.025.13.024.317-.002.416-.026.1-.047-.006-.046-.235zm-4.09-2.805c.004-.121.03-.146.062-.063.03.075.027.165-.008.2-.035.034-.06-.027-.055-.137zm40.303-.355c.004-.121.03-.146.063-.063.03.075.026.165-.009.2-.035.034-.06-.027-.055-.137zm0-2.916c.004-.12.03-.146.063-.063.03.075.026.165-.009.2-.035.035-.06-.027-.055-.136zm-40.304-.06c.005-.122.03-.147.063-.064.03.075.027.165-.008.2-.035.034-.06-.027-.055-.137zm19.23-18.72a.855.855 0 0 1 .366-.001c.1.025.018.047-.183.048-.201 0-.283-.02-.183-.047zm1.566-.007a.855.855 0 0 1 .366-.001c.1.025.018.047-.183.048-.2 0-.283-.02-.183-.047z" transform="translate(-27.493 309.445) scale(2.13565)"/><path style="fill:#5f6161;stroke-width:8.87323" d="M60.285-88.623a.393.393 0 0 1 .26 0c.073.028.014.052-.13.052-.143 0-.202-.023-.13-.052zm2.351-.012a.599.599 0 0 1 .313.003c.071.028-.013.05-.184.049-.173-.002-.23-.025-.13-.052zm-3.493-.09c.075-.03.165-.027.2.007.035.035-.027.06-.137.055-.122-.004-.146-.029-.063-.062zm4.803-.018c.075-.03.165-.027.2.008.035.034-.027.06-.137.055-.122-.004-.147-.03-.063-.063zm-5.543-1.753a3.92 3.92 0 0 1 .73-.004c.218.022.066.041-.336.043-.402.002-.58-.016-.394-.04zm-1.244-.096c.075-.03.165-.027.2.007.035.035-.027.06-.137.056-.122-.005-.146-.03-.063-.063zm3.126-.01a.406.406 0 0 1 .26 0c.073.028.014.052-.13.053-.143 0-.202-.023-.13-.052zm.737-.108c.076-.03.166-.027.2.007.035.035-.027.06-.137.055-.122-.004-.146-.029-.063-.062zM49.44-92.55c-.13-.164-.127-.168.039-.039.174.136.23.221.143.221-.022 0-.103-.081-.182-.181zm-1.302-1.088-.199-.233.235.197c.22.186.282.27.199.27-.02 0-.126-.105-.235-.234zm26.948-.176c.104-.115.213-.209.242-.21.028 0-.033.095-.137.21-.104.115-.213.209-.241.209-.029 0 .033-.094.136-.209zm1.41-1.41c.135-.144.269-.262.297-.262.03 0-.058.117-.193.26-.135.144-.268.262-.297.262-.029 0 .058-.117.193-.26zm-30.029-.074-.199-.233.235.197c.221.186.283.27.2.27-.021 0-.126-.105-.236-.234zm23.327-.026c.075-.03.165-.027.2.008.035.034-.027.06-.137.055-.122-.005-.146-.03-.063-.063zm-5.006-.925c-.13-.165-.126-.169.04-.04.174.135.229.22.143.221-.022 0-.104-.082-.183-.181zm-.835-.83c-.13-.165-.126-.169.04-.04.1.078.182.16.182.182 0 .085-.085.03-.222-.142zM76.6-97.62c.195-.201.378-.366.407-.366.028 0-.107.164-.302.366-.195.2-.378.365-.407.365-.028 0 .108-.164.302-.365zm-31.002-4.06c.004-.122.03-.147.063-.064.03.075.026.165-.009.2-.035.034-.06-.027-.055-.137zm16.098-.884c0-.229.022-.31.047-.18.025.129.024.316-.002.416-.026.1-.047-.006-.045-.236zm17.218-.01c0-.143.024-.202.053-.13a.402.402 0 0 1 0 .26c-.03.071-.053.013-.053-.13zm-33.408-.035c.002-.172.025-.23.051-.128a.587.587 0 0 1-.004.312c-.029.07-.05-.012-.048-.184zm17.449-.584c0-.344.02-.472.043-.285a2.76 2.76 0 0 1-.001.625c-.024.157-.043.004-.042-.34zm-1.26-.62c.002-.23.023-.31.048-.181s.024.316-.002.416c-.026.1-.047-.006-.045-.235zm17.219-.115c0-.143.024-.202.053-.13a.402.402 0 0 1 0 .26c-.03.072-.053.013-.053-.13zm-33.408-.868c.002-.171.025-.23.051-.128a.587.587 0 0 1-.004.312c-.029.071-.05-.012-.048-.184zm16.276.037c.004-.122.03-.147.063-.064.03.076.026.165-.009.2-.035.035-.06-.027-.055-.136zm-20.352-2.573c0-.143.023-.202.052-.13a.4.4 0 0 1 0 .26c-.029.072-.052.013-.052-.13zm40.307-.407c.002-.172.026-.23.052-.128a.587.587 0 0 1-.005.312c-.028.07-.05-.012-.048-.184zm-17.144-.341c0-.022.082-.104.183-.183.165-.13.169-.127.039.04-.136.173-.222.228-.222.143zm12-.812-.254-.285.288.251c.157.139.287.267.287.286 0 .081-.085.015-.321-.252zm-12.261-.814c.224-.23.431-.418.46-.418.029 0-.131.188-.356.418-.224.23-.431.418-.46.418-.028 0 .132-.188.356-.418zm17.405-.115c.002-.172.026-.23.052-.129a.587.587 0 0 1-.005.313c-.028.07-.05-.013-.048-.184zm-40.307-.114c0-.143.023-.202.052-.13a.4.4 0 0 1 0 .26c-.029.072-.052.013-.052-.13zm4.055-.073c0-.09.048-.133.106-.097.059.036.08.109.046.162-.09.145-.152.118-.152-.065zm32.18-.215c.002-.172.025-.23.052-.128a.587.587 0 0 1-.005.312c-.028.07-.05-.012-.048-.184zm-.709-.076-.199-.233.235.197c.13.109.235.214.235.234 0 .083-.084.022-.271-.198zm-31.543-1.264c0-.344.02-.472.044-.285a2.77 2.77 0 0 1-.002.625c-.023.156-.042.004-.042-.34zm24.485.412c.076-.03.166-.027.2.007.035.035-.027.06-.137.055-.121-.004-.146-.029-.063-.062zm1.984-.007c.076-.03.166-.027.2.007.035.035-.027.06-.137.055-.121-.004-.146-.029-.063-.062zm.94-1.149c.075-.03.165-.027.2.007.035.035-.027.06-.137.055-.122-.005-.146-.029-.063-.062zm-.626-.102c.075-.03.165-.027.2.007.034.035-.028.06-.138.056-.121-.004-.146-.03-.063-.063zm-1.795-.108c-.028-.046.122-.067.333-.048.646.059.722.101.208.116-.27.008-.513-.023-.54-.068zm7.264-.725c.002-.172.025-.23.052-.129a.587.587 0 0 1-.005.313c-.028.07-.05-.013-.048-.184zm-32.16.013c.003-.172.026-.23.052-.129a.587.587 0 0 1-.004.313c-.029.07-.05-.013-.048-.184zm2.956-.792c.341-.345.643-.627.672-.627.029 0-.227.282-.568.626-.34.345-.643.628-.672.628-.028 0 .227-.282.568-.627zm20.566-.101-.623-.649.653.62c.606.575.7.677.623.677-.016 0-.31-.291-.653-.648zm8.521.038c.005-.121.03-.146.063-.063.03.075.027.165-.008.2-.035.034-.06-.027-.055-.137zm-31.95.013c.004-.122.03-.147.063-.064.03.076.026.165-.009.2-.035.035-.06-.027-.055-.136zm31.846-.637c.004-.121.03-.146.063-.063.03.075.026.165-.009.2-.035.034-.06-.027-.055-.137zm-27.991-.19c0-.02.082-.103.183-.182.165-.13.17-.126.04.04-.137.173-.223.229-.223.143zm18.468-.21c-.13-.164-.126-.168.04-.039.1.078.182.16.182.182 0 .085-.086.03-.222-.142zm-22.114-.005c.004-.122.03-.146.063-.063.03.075.026.165-.01.2-.034.034-.058-.027-.054-.137zm11.242-1.82a.396.396 0 0 1 .261 0c.072.028.013.052-.13.053-.144 0-.203-.023-.13-.052zm3.237-.011c.072-.03.19-.03.26-.001.073.028.014.052-.13.053-.143 0-.202-.023-.13-.052zm-1.877-.105c.246-.023.622-.024.835-.002.214.022.014.04-.446.041-.46.001-.634-.016-.389-.039zm-2.293-1.028c.075-.03.165-.027.2.007.035.035-.027.06-.137.055-.122-.004-.147-.029-.063-.062zm5.22-.019c.076-.03.166-.027.2.007.035.035-.026.06-.137.055-.121-.004-.146-.029-.063-.062zm-4.49-.088c.076-.03.166-.027.2.007.035.035-.026.06-.136.056-.122-.004-.147-.03-.064-.063zm3.649-.01a.4.4 0 0 1 .26-.002c.072.029.014.053-.13.053-.143 0-.202-.023-.13-.052zm-2.241-.105c.332-.022.849-.023 1.148-.004.3.02.028.038-.604.04-.632.002-.877-.014-.544-.036zm16.036-3.287c-.13-.165-.126-.169.04-.04.173.136.229.221.143.222-.023 0-.104-.082-.183-.182zm-27.813-.445c.104-.115.213-.21.241-.21.029 0-.033.094-.136.21-.104.114-.213.208-.242.208-.028 0 .033-.093.137-.208zm2.663.159c0-.023.082-.104.182-.183.166-.13.17-.126.04.04-.137.173-.222.229-.222.143zm24.684-.285-.2-.234.236.198c.129.108.235.214.235.233 0 .084-.085.023-.271-.197zm2.664-.166-.253-.285.287.251c.158.138.287.267.287.285 0 .082-.084.016-.32-.25zm-26.356-.659c.104-.115.212-.209.24-.209.03 0-.032.094-.136.209-.104.115-.212.209-.241.209-.029 0 .033-.094.137-.209zm24.999-.69-.253-.285.287.251c.158.139.287.267.287.286 0 .081-.085.015-.321-.251zm-26.983-.031c.104-.115.212-.21.241-.21.029 0-.033.094-.137.21-.104.114-.212.208-.24.208-.03 0 .032-.093.136-.208zm23.9-.218-.198-.233.235.197c.22.186.282.27.198.27-.02 0-.125-.105-.234-.233zm-21.029.168c0-.023.082-.104.183-.183.165-.13.17-.126.04.04-.137.173-.223.229-.223.143zm8.02-3.81c.076-.03.166-.027.2.007.035.035-.027.06-.137.056-.121-.004-.146-.03-.063-.063zm5.012-.018c.076-.03.166-.027.2.007.035.035-.027.06-.137.056-.122-.004-.146-.03-.063-.063zm-4.287-.086a.393.393 0 0 1 .26 0c.073.028.014.052-.13.052-.143 0-.202-.023-.13-.052zm3.445-.013c.072-.03.19-.03.261-.001.072.028.014.052-.13.053-.144 0-.202-.023-.13-.052zm-1.98-.105c.245-.022.62-.023.835-.002.214.023.013.04-.447.042-.46.001-.634-.016-.389-.04zm-1.563-1.134c.075-.03.165-.027.2.007.035.035-.027.06-.137.055-.122-.004-.147-.029-.063-.062zm3.759-.013c.075-.03.165-.027.2.007.034.034-.027.059-.137.055-.122-.004-.147-.03-.063-.063zm-2.041-.1c.158-.025.393-.025.522-.001.128.024-.002.044-.289.044s-.392-.02-.233-.044z" transform="translate(-27.493 309.445) scale(2.13565)"/><path style="fill:#010202;stroke-width:8.87323" d="m60.31-88.615-1.346-.151c-2.566-.29-5.999-1.46-8.05-2.747-1.239-.777-3.208-2.476-4.356-3.759-6.115-6.834-6.821-16.937-1.714-24.526 2.037-3.026 4.814-5.456 7.99-6.992 1.5-.725 3.926-1.561 5.414-1.866 1.592-.326 4.903-.36 6.5-.066 2.145.394 5.118 1.49 6.97 2.572 4.625 2.698 8.019 7.102 9.374 12.16.49 1.832.65 3.114.65 5.21s-.16 3.38-.65 5.214c-2.045 7.649-8.625 13.55-16.427 14.73-1.08.164-3.687.296-4.354.221zm.94-2.084c2.269-.44 4.693-1.634 6.305-3.105l.614-.56-.614-.247c-2.787-1.12-4.816-3.426-5.578-6.34-.21-.807-.291-2.194-.187-3.227.366-3.624 2.885-6.694 6.43-7.84.417-.135.757-.276.757-.313 0-.139-1.846-1.83-2.506-2.296-1.476-1.043-3.426-1.857-5.3-2.215-1.117-.212-3.41-.228-4.514-.03-4.935.882-9.027 4.43-10.534 9.134-.51 1.597-.67 2.795-.603 4.556.127 3.352 1.411 6.33 3.758 8.715 2.177 2.212 4.958 3.565 8.093 3.937.977.117 2.824.036 3.879-.169zm11.652-4.773c2.694-.689 4.77-2.632 5.694-5.332.312-.91.34-1.097.345-2.343.007-1.534-.138-2.232-.72-3.46-.471-.99-.897-1.593-1.643-2.323-.808-.79-1.97-1.497-3.09-1.88-1.266-.433-2.985-.502-4.339-.174-2.392.58-4.486 2.318-5.51 4.574-.465 1.024-.646 1.925-.646 3.217 0 2.261.759 4.083 2.351 5.643 1.116 1.094 2.208 1.715 3.685 2.097 1.034.267 2.787.259 3.873-.019zm4.816-16.612c-.036-1.3-.116-2.262-.23-2.772-.477-2.116-1.322-4.115-2.465-5.828-.907-1.36-3.04-3.468-4.432-4.381-5.54-3.634-12.505-3.603-17.96.08a16.364 16.364 0 0 0-6.842 10.05c-.271 1.24-.43 3.293-.332 4.303l.08.827.558-.982c2.214-3.886 5.974-6.532 10.34-7.275 1.423-.242 4.216-.18 5.547.124 1.785.408 3.765 1.28 5.22 2.298.892.624 2.553 2.182 2.98 2.794l.285.41h.743c1.84-.003 4.076.808 5.598 2.032.64.515.8.601.874.471.05-.087.066-1.055.036-2.15z" transform="translate(-27.493 309.445) scale(2.13565)"/></g></g></g></svg>