<svg width="175mm" height="175mm" viewBox="0 0 175 175" xmlns="http://www.w3.org/2000/svg"><path style="fill:#6903a2;fill-opacity:1;stroke-width:.15875;paint-order:markers stroke fill" d="M17.5 19.038h175v175h-175z" transform="translate(-17.5 -19.038)"/><g style="stroke-width:.847971"><path style="fill:#fdfcfc;stroke-width:.847971" d="M104.104 182.59c-2.372-.1-8.681-.614-9.704-.79l-.841-.146.82-2.29c.452-1.258.838-2.316.86-2.35.02-.035.501.174 1.068.462.566.29 1.334.526 1.705.526 1.62 0 3.446-1.8 3.446-3.396 0-.906-.772-2.395-1.423-2.745-.309-.166-.996-.43-1.527-.588l-.966-.287 1.242-3.305a1203.6 1203.6 0 0 1 1.43-3.792c.174-.451.244-.437 1 .199 1.624 1.366 4.605.653 5.42-1.297.485-1.162.478-1.569-.045-2.67-.534-1.126-1.861-1.963-3.112-1.963-.528 0-.96-.08-.96-.177 0-.098.324-1.05.72-2.117l.722-1.94h2.52c2.222 0 2.707-.089 4.107-.754 1.622-.77 3.622-2.649 3.963-3.724.177-.558.208-.544.625.287.898 1.787 3.1 2.56 4.795 1.683 1.74-.9 2.367-2.891 1.46-4.644-.817-1.582-3.256-2.127-4.976-1.112l-.913.539-.174-1.087c-.402-2.515-2.323-5.208-4.377-6.134-.585-.264-1.064-.56-1.064-.659 0-.098 2.25-6.122 5-13.387 4.898-12.943 5.013-13.208 5.692-13.158.381.028 2.03.7 3.666 1.494 10.454 5.077 17.505 14.12 20.23 25.948.32 1.39.431 3.177.427 6.903-.005 4.754-.05 5.195-.817 8.11-1.731 6.578-4.007 10.838-8.639 16.169-.712.82-1.46 1.555-1.663 1.632-.202.078-.808-.095-1.346-.383-1.154-.619-1.879-.656-3.067-.16-1.305.545-2.02 1.607-2.02 2.996 0 .645.116 1.39.258 1.656.334.624.217.715-3.037 2.351-3.004 1.51-6.428 2.713-9.525 3.346-2.27.463-6.818.937-8.334.868-.51-.023-1.7-.074-2.646-.114zm6.856-5.322c1.035-.768 1.382-1.619 1.259-3.087-.088-1.051-.27-1.45-.926-2.036-2.995-2.677-7.406.814-5.33 4.218.987 1.62 3.437 2.063 4.997.905zm10.865-.004c.367-.268.891-.938 1.165-1.488.423-.852.452-1.152.193-2.014-.364-1.215-1.56-2.29-2.806-2.525-1.89-.354-4.102 1.44-4.102 3.325 0 2.634 3.384 4.282 5.55 2.702zm-5.133-13.352c2.981-2.732-.332-7.075-4.051-5.31-1.143.542-2.039 2.301-1.756 3.448.446 1.81 1.623 2.695 3.608 2.712 1.061.009 1.409-.126 2.199-.85zm14.39-12.591c2.033-1.09 2.353-3.573.676-5.249-1.607-1.607-4.21-1.23-5.44.79-1.778 2.915 1.654 6.127 4.764 4.459z" transform="translate(-43.642 -63.131) scale(1.17929)"/><path style="fill:#ee191e;stroke-width:.847971" d="M85.43 177.5c-2.595-1.179-2.555-4.736.067-5.896 1.388-.614 2.685-.445 3.801.494 1.941 1.633 1.315 4.687-1.152 5.621-1.02.386-1.461.35-2.715-.219zm11.02.038c-1.284-.654-1.943-1.664-1.943-2.976 0-1.332.665-2.33 1.992-2.991 1.284-.639 2.645-.372 3.88.76.844.773.947 1.011.947 2.19 0 1.5-.686 2.484-2.175 3.118-1.116.475-1.607.457-2.701-.1zm10.913-.042c-2.643-1.22-2.595-4.702.08-5.886 2.385-1.055 4.863.449 4.863 2.952 0 2.512-2.564 4.034-4.943 2.934zm11.138.142c-1.79-.807-2.58-2.717-1.784-4.317.683-1.374 1.676-2.022 3.099-2.022 4.297 0 4.651 5.997.39 6.585-.489.067-1.256-.043-1.705-.246zm9.204-1.541c-.175-.175-.318-.88-.318-1.569 0-1.05.139-1.397.86-2.157 1.12-1.179 2.493-1.464 3.851-.8.538.263.978.65.978.86 0 .333-4.49 3.983-4.9 3.983-.084 0-.297-.143-.471-.317zm-59.482-12.194c-1.216-1.113-1.482-2.766-.658-4.079 1.813-2.887 6.376-1.709 6.376 1.647 0 2.105-1.29 3.301-3.562 3.301-.996 0-1.374-.152-2.156-.869zm11.325.333c-2.173-1.324-1.98-4.56.336-5.658 1.878-.891 4.062-.18 4.789 1.562.512 1.226.478 1.956-.138 2.966-1 1.64-3.297 2.161-4.987 1.13zm11.029.091c-.981-.609-1.554-1.705-1.554-2.973 0-.862.181-1.285.876-2.043.727-.794 1.098-.977 2.183-1.078 2.194-.205 3.808 1.259 3.816 3.462.003.838-.182 1.208-1.023 2.05-.916.916-1.168 1.027-2.315 1.02-.719-.004-1.596-.197-1.983-.438zm10.96-.073c-3.052-1.861-1.484-6.326 2.113-6.017 3.378.291 4.427 4.631 1.486 6.152-1.034.535-2.596.476-3.599-.135zm10.97.12c-.755-.426-1.427-1.474-1.527-2.38-.134-1.224.052-1.78.909-2.716.836-.911 1.018-.988 2.362-.988 1.789 0 2.788.65 3.322 2.158.455 1.289.253 2.209-.73 3.309-.629.703-.966.847-2.177.928-.958.065-1.674-.039-2.158-.312zm-17.592-12.958c-2.123-.923-2.524-3.74-.763-5.354 2.204-2.02 5.726-.602 5.767 2.321.034 2.508-2.575 4.089-5.004 3.033zm11.173.154c-1.477-.651-2.393-2.478-1.99-3.972.476-1.77 2.295-2.79 4.235-2.378 1.03.22 2.282 1.452 2.547 2.509.267 1.065-.334 2.654-1.25 3.307-.885.63-2.702.903-3.542.534zm10.787-.154c-2.347-1.02-2.542-4.48-.325-5.79 1.572-.928 3.95-.357 4.848 1.165.946 1.601.172 3.917-1.549 4.636-1.127.47-1.87.468-2.974-.011zm10.793-.092c-1.002-.537-1.868-1.918-1.868-2.979 0-.868.997-2.377 1.86-2.813 1.536-.778 4.029-.107 4.774 1.285.455.851.39 2.48-.13 3.275-.603.92-1.962 1.714-2.937 1.715-.438 0-1.203-.217-1.699-.483zm-20.39-13.76c-9.159-4.016-16.513-11.61-19.972-20.622-4.791-12.482-2.318-26.26 6.564-36.572 5.133-5.959 12.915-10.446 21.346-12.308 3.079-.68 10.525-.805 16.396-.275 2.688.242 4.913.466 4.945.498.031.032-1.342 3.746-3.052 8.254a6049.894 6049.894 0 0 0-5.209 13.784l-2.1 5.586-2.513.15c-3.438.205-4.823.737-6.638 2.55-1.838 1.837-2.489 3.523-2.294 5.946.218 2.716 1.976 5.368 4.384 6.613l.776.401-5.06 13.5c-2.782 7.424-5.118 13.494-5.19 13.49-.074-.005-1.145-.452-2.382-.995z" transform="translate(-43.642 -63.131) scale(1.17929)"/><path style="fill:#6903a2;stroke-width:.847971" d="M40.164 127.73V56.294h41.677l9.218 8.905 9.218 8.906.834-.48c1.14-.656.87-.403-1.15 1.076-3.426 2.507-7.33 6.75-9.728 10.571-1.143 1.821-2.778 5.398-3.596 7.865-4.674 14.103.381 30.196 12.397 39.465 3.486 2.69 6.137 4.188 10.123 5.723 2.558.985 3.83 1.876 4.827 3.382 1.09 1.646 1.415 3.011 1.205 5.075-.45 4.444-3.931 7.144-9.212 7.144h-2.018l-.835 2.197c-.562 1.48-1.018 2.279-1.397 2.447-.31.138-.845.667-1.188 1.176-.517.766-.597 1.132-.46 2.117.09.655.18 1.31.198 1.455.017.146-.603 1.964-1.379 4.041-1.144 3.064-1.52 3.805-1.994 3.924-.921.231-2.238 1.765-2.406 2.805-.1.613.006 1.267.307 1.901.453.956.45.992-.368 3.157-.455 1.205-.827 2.318-.827 2.474 0 .454 7.262 1.013 13.097 1.008 5.831-.005 8-.31 12.558-1.765 2.494-.795 6.553-2.676 8.782-4.07 4.048-2.53 8.41-6.76 11.067-10.732 4.164-6.226 6.163-12.729 6.168-20.073.008-9.503-3.425-17.98-10.096-24.93-4.205-4.381-9.126-7.628-14.376-9.484-2.491-.881-3.563-1.64-4.664-3.303-2.601-3.926-1.086-9.118 3.281-11.244 1.097-.534 1.742-.64 4.081-.676 1.528-.023 2.213.01 1.521.074-1.139.104-1.643.434-1.007.66.137.048 1.956 1.754 4.043 3.792 2.086 2.037 5.516 5.366 7.622 7.397 8.296 8.004 17.666 17.053 22.878 22.093 2.038 1.97 6.918 6.678 10.844 10.462 3.927 3.783 8.422 8.119 9.988 9.634l2.849 2.756v45.95H40.165Zm49.429 49.12c.835-.834.944-1.1.944-2.288 0-1.186-.11-1.455-.935-2.28-2.947-2.946-7.665.547-5.51 4.08 1.155 1.897 3.854 2.136 5.501.489zm-17.894-12.087c1.984-.55 3.045-2.803 2.18-4.626-.62-1.305-1.769-1.977-3.385-1.978-1.144 0-1.403.114-2.315 1.026-.882.882-1.027 1.192-1.027 2.19 0 1.659.909 2.878 2.513 3.37 1.059.326.931.324 2.034.018zm10.814.01c2.067-.575 3.184-2.925 2.25-4.732-.945-1.828-3.465-2.447-5.203-1.28-1.026.69-1.739 2.353-1.47 3.428.258 1.025 1.427 2.282 2.38 2.557 1.115.323.98.322 2.043.026zm11.953-.44c1.42-.715 1.982-3.072 1.093-4.578-1.402-2.373-5.253-2.056-6.283.517-.746 1.866.118 3.675 2.085 4.36 1.108.386 1.896.31 3.105-.298zm4.046-13.059c2.504-1.547 1.932-5.254-.944-6.116-2.153-.645-4.489 1.027-4.482 3.21.008 2.707 3.083 4.354 5.426 2.906zm10.733.124c2.594-1.342 2.327-5.037-.44-6.094-1.501-.574-2.927-.22-3.93.972-.92 1.094-1.1 1.984-.656 3.257.688 1.975 3.09 2.866 5.026 1.865z" transform="translate(-43.642 -63.131) scale(1.17929)"/></g></svg>