<svg width="30" height="30" viewBox="0 0 30 30" fill="none" xmlns="http://www.w3.org/2000/svg">
<path d="M7.5 16.9336C8.30901 16.9336 8.96484 16.2778 8.96484 15.4688C8.96484 14.6597 8.30901 14.0039 7.5 14.0039C6.69099 14.0039 6.03516 14.6597 6.03516 15.4688C6.03516 16.2778 6.69099 16.9336 7.5 16.9336Z" fill="white"/>
<path d="M7.5 18.6914C6.43383 18.6914 5.56641 19.5588 5.56641 20.625V22.0898H9.43359V20.625C9.43359 19.5588 8.56617 18.6914 7.5 18.6914Z" fill="white"/>
<path d="M23.0273 18.1055C18.2133 18.1055 14.2969 14.189 14.2969 9.375C14.2969 8.58457 14.4031 7.81857 14.6009 7.08984H2.63672C1.18283 7.08984 0 8.27268 0 9.72656V24.9609C0 26.4148 1.18283 27.5977 2.63672 27.5977H24.4922C25.9461 27.5977 27.1289 26.4148 27.1289 24.9609V17.08C25.9053 17.734 24.509 18.1055 23.0273 18.1055ZM14.5312 18.3398H17.8125C18.2979 18.3398 18.6914 18.7334 18.6914 19.2188C18.6914 19.7041 18.2979 20.0977 17.8125 20.0977H14.5312C14.0459 20.0977 13.6523 19.7041 13.6523 19.2188C13.6523 18.7334 14.0459 18.3398 14.5312 18.3398ZM11.1914 22.9688C11.1914 23.4541 10.7979 23.8477 10.3125 23.8477H4.6875C4.20211 23.8477 3.80859 23.4541 3.80859 22.9688V20.625C3.80859 19.4544 4.35703 18.41 5.20969 17.7332C4.63371 17.1507 4.27734 16.3507 4.27734 15.4688C4.27734 13.6918 5.72303 12.2461 7.5 12.2461C9.27697 12.2461 10.7227 13.6918 10.7227 15.4688C10.7227 16.3507 10.3663 17.1507 9.79031 17.7332C10.643 18.41 11.1914 19.4544 11.1914 20.625V22.9688ZM19.2188 23.8477H14.5312C14.0459 23.8477 13.6523 23.4541 13.6523 22.9688C13.6523 22.4834 14.0459 22.0898 14.5312 22.0898H19.2188C19.7041 22.0898 20.0977 22.4834 20.0977 22.9688C20.0977 23.4541 19.7041 23.8477 19.2188 23.8477Z" fill="white"/>
<path d="M23.0273 2.40234C19.1826 2.40234 16.0547 5.53025 16.0547 9.375C16.0547 13.2197 19.1826 16.3477 23.0273 16.3477C26.8721 16.3477 30 13.2197 30 9.375C30 5.53025 26.8721 2.40234 23.0273 2.40234ZM25.1088 8.53143L22.765 11.3439C22.597 11.5455 22.3489 11.6602 22.0899 11.6602C22.0562 11.6602 22.0224 11.6582 21.9885 11.6543C21.6939 11.6201 21.4363 11.4396 21.3037 11.1743L20.3662 9.2993C20.1491 8.86518 20.3251 8.33719 20.7592 8.12016C21.1934 7.90295 21.7213 8.07902 21.9384 8.5132L22.2749 9.18621L23.7584 7.40607C24.0691 7.03318 24.6234 6.98279 24.9962 7.29352C25.3692 7.6043 25.4196 8.15848 25.1088 8.53143Z" fill="white"/>
</svg>
