<svg xml:space="preserve" width="318.667" height="317.383" xmlns="http://www.w3.org/2000/svg"><defs><linearGradient x1="186.5" y1="457" x2="425.5" y2="457" gradientUnits="userSpaceOnUse" spreadMethod="pad" id="a" gradientTransform="translate(186.5 -96)"><stop style="stop-opacity:1;stop-color:#d4ab5e" offset="0"/><stop style="stop-opacity:1;stop-color:#977a42" offset="1"/></linearGradient><linearGradient x1="186.5" y1="337.914" x2="425.5" y2="337.914" gradientUnits="userSpaceOnUse" spreadMethod="pad" id="b" gradientTransform="translate(186.5 -96)"><stop style="stop-opacity:1;stop-color:#003569" offset="0"/><stop style="stop-opacity:1;stop-color:#00001c" offset="1"/></linearGradient></defs><path d="M425.5 398h-239v118h239z" style="fill:url(#a);fill-opacity:1;fill-rule:evenodd;stroke:none" transform="matrix(1.33333 0 0 -1.33333 -248.667 688)"/><path d="M425.5 277.963h-239v119.901h239z" style="fill:url(#b);fill-opacity:1;fill-rule:evenodd;stroke:none" transform="matrix(1.33333 0 0 -1.33333 -248.667 688)"/><path d="M197.617 381.122c1.149.24 2.653.42 4.567.42 2.352 0 4.074-.6 5.168-1.68 1.012-.96 1.64-2.43 1.64-4.23 0-1.83-.492-3.27-1.449-4.32-1.257-1.47-3.308-2.22-5.632-2.22-.711 0-1.368.03-1.915.18v-8.1h-2.379v19.95m2.38-9.72c.52-.15 1.203-.21 1.968-.21 2.899 0 4.621 1.56 4.621 4.29 0 2.7-1.722 3.99-4.347 3.99-1.04 0-1.833-.12-2.243-.21zm26.65-.75h-7.137v-7.29h7.985v-2.19h-10.391v20.22h9.981v-2.19h-7.575v-6.39h7.137zm8.053 10.44c1.203.27 2.954.45 4.567.45 2.543 0 4.211-.54 5.36-1.68.902-.87 1.449-2.25 1.449-3.84 0-2.64-1.559-4.41-3.473-5.13v-.09c1.395-.54 2.242-1.98 2.707-4.08.602-2.82 1.04-4.77 1.395-5.55h-2.461c-.301.57-.711 2.31-1.203 4.83-.547 2.79-1.56 3.84-3.72 3.93h-2.242v-8.76H234.7v19.92m2.38-9.18h2.433c2.543 0 4.156 1.53 4.156 3.84 0 2.61-1.722 3.75-4.238 3.75-1.148 0-1.941-.12-2.352-.24zm16.005-7.56c1.066-.75 2.598-1.32 4.238-1.32 2.434 0 3.856 1.38 3.856 3.45 0 1.86-.984 2.97-3.473 3.99-3.008 1.2-4.867 2.94-4.867 5.76 0 3.15 2.379 5.49 5.96 5.49 1.86 0 3.255-.48 4.048-.99l-.656-2.13c-.574.39-1.805.96-3.473.96-2.516 0-3.473-1.65-3.473-3.03 0-1.89 1.121-2.82 3.664-3.9 3.118-1.35 4.676-2.97 4.676-5.94 0-3.12-2.078-5.85-6.426-5.85-1.777 0-3.719.6-4.703 1.32zm24.673-3.51c-4.507 0-7.63 4.14-7.63 10.26 0 6.42 3.325 10.62 7.856 10.62 4.658 0 7.654-4.23 7.654-10.23 0-6.93-3.55-10.65-7.855-10.65h-.025m.1 2.13c3.475 0 5.439 3.81 5.439 8.4 0 4.02-1.763 8.22-5.414 8.22-3.65 0-5.463-4.05-5.463-8.43 0-4.26 1.964-8.19 5.413-8.19h.025zm15.512-1.8v20.22h2.626l5.881-10.23c1.34-2.37 2.435-4.47 3.283-6.57l.082.03c-.219 2.7-.274 5.16-.274 8.28v8.49h2.244v-20.22h-2.408l-5.853 10.26c-1.287 2.25-2.518 4.56-3.42 6.75l-.082-.03c.136-2.55.164-4.98.164-8.34v-8.64h-2.243zm22.116.528v20.219h2.626l5.882-10.23c1.34-2.37 2.435-4.47 3.283-6.57l.082.03c-.218 2.7-.274 5.16-.274 8.28v8.49h2.243v-20.22h-2.407l-5.854 10.26c-1.286 2.25-2.517 4.56-3.42 6.75l-.082-.03c.137-2.55.164-4.98.164-8.34v-8.64h-2.243zm25.93 5.832-1.914-6.36h-2.461l6.262 20.22h2.87l6.29-20.22h-2.542l-1.969 6.36h-6.536m6.044 2.04-1.833 5.82c-.383 1.32-.656 2.52-.93 3.69h-.082a51.655 51.655 0 0 0-.902-3.66l-1.805-5.85h5.552Zm11.377 11.82h2.406v-18.03h7.876v-2.19h-10.282zm18.582 0v-20.22h-2.406v20.22Zm13.898-2.22h-5.605v2.22h13.645v-2.22h-5.633v-18h-2.407zm22.733-8.52h-7.136v-7.29h7.984v-2.19h-10.39v20.22h9.98v-2.19h-7.574v-6.39h7.137v-2.16m-.438 15.36-3.527-3.54h-1.941l2.57 3.54z" style="fill:#e2c275;fill-opacity:1;fill-rule:nonzero;stroke:none" transform="matrix(1.33333 0 0 -1.33333 -248.667 688)"/><path d="M280.367 491.786h53.451c3.723 0 6.825-1.33 9.397-3.9 2.658-2.571 3.987-5.761 3.987-9.484v-53.447c0-3.634-1.329-6.825-3.987-9.395-2.572-2.57-5.674-3.9-9.397-3.9h-53.45c-3.723 0-6.914 1.33-9.485 3.9-2.569 2.57-3.9 5.761-3.9 9.395v53.447c0 3.723 1.331 6.913 3.9 9.484 2.571 2.57 5.762 3.9 9.484 3.9z" style="fill:#342509;fill-opacity:1;fill-rule:evenodd;stroke:none" transform="matrix(1.33333 0 0 -1.33333 -248.667 688)"/><path d="M280.374 491.654h52.474c3.654 0 6.699-1.305 9.223-3.828 2.61-2.524 3.915-5.657 3.915-9.31v-52.47c0-3.568-1.305-6.7-3.915-9.224-2.524-2.524-5.569-3.828-9.223-3.828h-52.474c-3.655 0-6.788 1.304-9.311 3.828-2.523 2.523-3.829 5.656-3.829 9.223v52.47c0 3.654 1.306 6.787 3.829 9.31 2.523 2.524 5.656 3.829 9.31 3.829z" style="fill:#ecbf6b;fill-opacity:1;fill-rule:evenodd;stroke:none" transform="matrix(1.33333 0 0 -1.33333 -248.667 688)"/><path d="M327.365 447.016h4.264l5.22 5.308h-5.743l-3.74-5.308m-1.567-1.306h-6.091v-11.398c0-3.045.783-5.309 2.262-6.787 1.305-1.305 3.046-1.915 5.221-1.915 3.046 0 5.309 1.219 6.7 3.568h.088v-3.133h5.394v19.665h-6.09v-11.485c0-.522-.088-.957-.175-1.218-.696-1.654-1.915-2.524-3.742-2.524-2.35 0-3.567 1.653-3.567 4.873v10.354m-15.662-6.525c-4.007 0-7.053-.61-9.14-1.915-2.176-1.305-3.308-3.22-3.308-5.743 0-1.566.61-2.958 1.74-4.089 1.306-1.218 2.96-1.828 4.96-1.828 2.698 0 4.7.871 6.095 2.524h.174v-2.089h5.57v11.574c0 2.61-.697 4.611-2.001 6.09-1.567 1.653-3.916 2.524-7.053 2.524-3.22 0-5.917-.61-8.005-1.915l1.13-3.828c1.741 1.043 3.656 1.566 5.83 1.566 2.7 0 4.008-.87 4.008-2.698v-.173m-14.884 6.525h-3.742v6.614h-5.916v-6.614h-2.785v-4.524h2.785v-7.918c0-2.698.522-4.699 1.653-5.83 1.13-1.218 2.784-1.828 4.785-1.828 1.305 0 2.35.175 3.307.522l-.087 4.613c-.174-.175-.523-.262-1.131-.262-.957 0-1.654.349-2.089 1.044-.348.522-.522 1.392-.522 2.698v6.96h3.742v4.525m8.093-13.66c0 2.348 2.348 3.393 6.965 3.306v-2.088l-.088-1.132c-.262-.783-.785-1.391-1.482-1.827-.697-.609-1.567-.87-2.524-.87-1.915 0-2.871.87-2.871 2.61m-29.586 20.275v-26.279h6.178v26.279z" style="fill:#342509;fill-opacity:1;fill-rule:evenodd;stroke:none" transform="matrix(1.33333 0 0 -1.33333 -248.667 688)"/></svg>