<svg height="1889.764" width="1889.764" xml:space="preserve" xmlns="http://www.w3.org/2000/svg"><path style="fill:#f2f2f2;stroke-width:4.5;paint-order:markers stroke fill" transform="translate(641.17 1169.366) scale(.13333)" d="M-4808.778-8770.241H9364.451V5402.988H-4808.778z"/><g style="stroke-width:.745848"><path style="fill:#1a75be;fill-opacity:1;fill-rule:evenodd;stroke:none;stroke-width:.745848" d="M3586.66 4646.124h1930.61l-965.314-1689.68z" transform="matrix(.17877 0 0 -.17877 553.818 979.553)"/><path style="fill:#29388d;fill-opacity:1;fill-rule:evenodd;stroke:none;stroke-width:.745848" d="M3586.66 1266.785h1930.61l-965.314 1689.66zm-965.294 1689.68 965.295 1689.659 965.295-1689.66z" transform="matrix(.17877 0 0 -.17877 553.818 979.553)"/><path style="fill:#272264;fill-opacity:1;fill-rule:evenodd;stroke:none;stroke-width:.745848" d="m2621.366 2956.445 965.295-1689.66 965.295 1689.66z" transform="matrix(.17877 0 0 -.17877 553.818 979.553)"/><path style="fill:#28aae4;fill-opacity:1;fill-rule:evenodd;stroke:none;stroke-width:.745848" d="m6482.546 2956.465-965.295 1689.659-965.295-1689.66Z" transform="matrix(.17877 0 0 -.17877 553.818 979.553)"/><path style="fill:#1a75be;fill-opacity:1;fill-rule:evenodd;stroke:none;stroke-width:.745848" d="m6482.546 2956.445-965.295-1689.66-965.295 1689.66Zm-7277.698 327.349h2624.57L517.133 1029.45Z" transform="matrix(.17877 0 0 -.17877 553.818 979.553)"/><path style="fill:#29388d;fill-opacity:1;fill-rule:evenodd;stroke:none;stroke-width:.745848" d="M-795.152-1224.887h2624.57L517.133 1029.449Zm-1312.282 2254.355L-795.16 3283.794 517.113 1029.468Z" transform="matrix(.17877 0 0 -.17877 553.818 979.553)"/><path style="fill:#272264;fill-opacity:1;fill-rule:evenodd;stroke:none;stroke-width:.745848" d="M-2107.434 1029.449-795.16-1224.887 517.113 1029.449Z" transform="matrix(.17877 0 0 -.17877 553.818 979.553)"/><path style="fill:#28aae4;fill-opacity:1;fill-rule:evenodd;stroke:none;stroke-width:.745848" d="M3141.684 1029.468 1829.398 3283.794 517.113 1029.468Z" transform="matrix(.17877 0 0 -.17877 553.818 979.553)"/><path style="fill:#1a75be;fill-opacity:1;fill-rule:evenodd;stroke:none;stroke-width:.745848" d="M3141.684 1029.449 1829.398-1224.887 517.113 1029.449Zm355.239-243.033h1328.096L4160.97-354.332z" transform="matrix(.17877 0 0 -.17877 553.818 979.553)"/><path style="fill:#29388d;fill-opacity:1;fill-rule:evenodd;stroke:none;stroke-width:.745848" d="M3496.923-1495.075h1328.096L4160.97-354.332z" transform="matrix(.17877 0 0 -.17877 553.818 979.553)"/><path style="fill:#29388d;fill-opacity:1;fill-rule:evenodd;stroke:none;stroke-width:.745848" d="m2832.895-354.332 664.028 1140.729 664.048-1140.73z" transform="matrix(.17877 0 0 -.17877 553.818 979.553)"/><path style="fill:#272264;fill-opacity:1;fill-rule:evenodd;stroke:none;stroke-width:.745848" d="m2832.895-354.332 664.028-1140.743L4160.97-354.332z" transform="matrix(.17877 0 0 -.17877 553.818 979.553)"/><path style="fill:#28aae4;fill-opacity:1;fill-rule:evenodd;stroke:none;stroke-width:.745848" d="M5489.047-354.332 4825 786.397l-664.028-1140.73Z" transform="matrix(.17877 0 0 -.17877 553.818 979.553)"/><path style="fill:#1a75be;fill-opacity:1;fill-rule:evenodd;stroke:none;stroke-width:.745848" d="M5489.047-354.332 4825-1495.075 4160.971-354.332Z" transform="matrix(.17877 0 0 -.17877 553.818 979.553)"/></g><path style="fill:#2e3192;fill-opacity:1;fill-rule:evenodd;stroke:none;stroke-width:1" d="M-848.228-3245.773c89.813 79.957 246.813-67.04 135.61-166.232-36.758-32.788-107.086-38.702-147.598 11.308-28.886 35.646-25.836 92.898-5.863 131.98zM-623.735-2000.8c79.821 11.852 301.796 35.476 369.981-37.982 72.574-78.188 33.242-227.941-104.659-235.608-61.096-3.39-205.167-5.171-264.279 2.575zm1.656 617.95c444.766 68.367 400.796-233.123 226.443-253.764-43.528-5.16-186.725-3.505-228.156 4.9zm-420.326-1262.632c183.72-5.274 374.37-.613 559.826-.737 196.978-.137 350.11-5.932 485.584 91.786 121.138 87.375 195.289 181.44 197.875 373.485 3.867 286.474-157.59 325.761-189.46 383.863 16.74 40.943 16.446 19.621 55.778 69.32 21.288 26.901 39.91 58.77 50.503 84.788 79.447 195.141 17.954 440.582-175.475 555.833-150.91 89.893-253.425 77.86-449.575 77.825-178.571-.023-357.653 1.44-536.11.363zm1943.132 830.41c329.06 94.95 425.622-415.925 133.704-494.692-84.925-22.91-158.848-4.843-214.285 31.881-43.676 28.932-88.929 89.643-98.66 146.963-27.764 163.453 25.303 271.423 179.24 315.848zm313.035-744.623 2.053-96.063h384.702l-2.676 1178.071-384.079 3.868c-13.678-31.972-7.95-50.3-7.95-90.823-43.506 35.715-74.071 59.384-124.892 82-239.974 106.745-537.642 12.044-682.45-253.902-138.15-253.72-94.463-692.623 210.237-876.275 150.41-90.652 391.099-107.8 539.331 14.824 45.967 38.039 18 37.948 65.724 38.3zm1004.967 986.082-4.514 95.121-389.908 4.072-3.425-1181.338h394.172l-.442 524.361c-.182 101.96-27.764 319.66 187.803 320.43 105.725.386 153.189-49.766 172.356-132.422l10.547-712.051 380.551-.34 12.363 511.998c-.136 254.264 9.833 637.946-352.651 694.823-251.849 39.503-312.174-57.274-406.852-124.654zm2058.961-805.424-37.268 30.78c-52.25 33.22-253.515 158.894-290.239 145.965l-44.98-44.867c-113.256-107.937-396.94-58.84-386.154 202.139 4.128 99.691 73.912 191.739 164.428 214.58 150.082 37.88 209.511-39.15 279.091-101.869 37.518 14.756 143.186 79.334 181.951 102.958 29.771 18.135 56.06 32.266 86.547 48.678 54.405 29.295 63.171 34.523 26.935 91.389-62.604 98.251-221.611 199.462-350.507 232.522-158.338 40.626-350.088 6.352-485.698-71.133-344.69-196.944-390.248-702.479-117.94-977.894 350.145-354.149 922.628-108.935 973.834 126.752zm622.385 550.412c135.848 39.48 267.851-45.048 289.514-166.47 68.162-383.477-416.345-391.757-458.354-123.486-23.59 150.66 39.491 252.359 168.84 289.956zm-97.502 368.098c-135.383-49.902-180.851-53.475-292.326-166.844-27.764-28.229-47.646-52.046-73.005-87.477-308.873-431.655 87.749-1096.208 677.833-950.652 501.18 123.61 578.528 692.702 364.628 961.325-47.747 59.996-95.949 111.418-156.285 154.232-118.065 83.666-360.239 148.607-520.845 89.416zm62.457-2268.148c55.55 30.878 168.25 24.299 220.217-5.157 163.317-92.57 164.111-357.681-29.658-443.664-259.549-115.182-482.987 286.22-190.559 448.82zm722.077-312.493c45.706 153.486-48.315 385.69-123.622 475.973l-11.795 13.313c-113.642 126.516-196.661 177.27-380.96 214.526-326.94 66.098-659.131-153.756-724.004-506.293-105.816-574.941 568.921-938.21 1014.913-590.913 165.245 128.607 178.968 237.396 225.468 393.393zM4005.96-4242.66c39.286 101.971 68.933 184.091 107.664 289.637 29.646 80.782 203.568 516.464 211.836 588.857l-412.421.124-219.299-651.19-233.883 651.19H3034.28l445.39-1172.835h407.601zm-1723.369 513.986c117.702 73.564 287.29-15.613 327.213-115.192 46.67-116.396 3.481-277.329-102.38-323.24-318.978-138.357-474.662 282.278-224.833 438.432zm719.57-377.866c19.53 53.996 18.305 233.558 3.176 299.808-22.536 98.64-50.73 147.985-95.575 213.473-19.053 27.83-20.255 30.852-36.893 50.097-94.815 109.62-192.907 159.999-333.065 199.399-179.57 50.48-376.763-8.359-504.706-91.968-117.679-76.906-204.86-193.463-252.041-353.802-155.809-529.486 479.46-1007.498 968.934-672.956 140.215 95.845 187.622 182.988 250.17 355.95zm-2089.56 469.683-1.078 345.276c177.256 15.594 384.146 21.299 389.193-164.282 5.569-204.395-212.198-218.328-388.116-180.994zm-.636-408.257c136.45 17.131 250.329-7.58 380.608 23.2 325.976 77.012 505.273 401.714 403.348 737.33-62.82 206.846-223.767 328.109-421.755 382.298-117.339 32.13-608.549 10.264-780.11 13.213l2.608-1647.45 414.269-1.13zM52.227-3406.742c58.295 146.236-51.626 283.547-172.13 316.653-142.493 39.14-284.454-40.262-320.078-160.357-92.603-312.262 358.231-492.4 492.208-156.296zm-244.272 181.1c58.295 0 105.555-48.383 105.555-108.039 0-59.667-47.26-108.027-105.555-108.027-58.295 0-105.555 48.36-105.555 108.027 0 59.656 47.26 108.039 105.555 108.039zM-674.92-3116.56c-53.169 19.213-103.593 38.005-149.923 37.166-154.856-2.824-244.646-124.404-210.304-323.538 63.251-266.062 361.18-156.847 370.57-116.696v-56.8h150.422v679.677l-160.663-.715-.102-219.094" transform="matrix(.13333 0 0 -.13333 641.17 1174.863)"/></svg>