<?xml version="1.0" encoding="UTF-8" standalone="no"?>
<!-- Created with Inkscape (http://www.inkscape.org/) -->

<svg
   width="211.66667mm"
   height="211.66666mm"
   viewBox="0 0 211.66667 211.66665"
   version="1.1"
   id="svg5"
   inkscape:version="1.1.1 (3bf5ae0d25, 2021-09-20)"
   sodipodi:docname="c6.svg"
   xmlns:inkscape="http://www.inkscape.org/namespaces/inkscape"
   xmlns:sodipodi="http://sodipodi.sourceforge.net/DTD/sodipodi-0.dtd"
   xmlns="http://www.w3.org/2000/svg"
   xmlns:svg="http://www.w3.org/2000/svg">
  <sodipodi:namedview
     id="namedview7"
     pagecolor="#ffffff"
     bordercolor="#666666"
     borderopacity="1.0"
     inkscape:pageshadow="2"
     inkscape:pageopacity="0.0"
     inkscape:pagecheckerboard="0"
     inkscape:document-units="mm"
     showgrid="false"
     inkscape:zoom="0.74118967"
     inkscape:cx="500.54664"
     inkscape:cy="432.41293"
     inkscape:window-width="2560"
     inkscape:window-height="1017"
     inkscape:window-x="-8"
     inkscape:window-y="-8"
     inkscape:window-maximized="1"
     inkscape:current-layer="g854" />
  <defs
     id="defs2" />
  <g
     inkscape:label="Camada 1"
     inkscape:groupmode="layer"
     id="layer1"
     transform="translate(10.486034,-19.523099)">
    <g
       id="g854"
       transform="translate(2.1418242,0.71394254)">
      <path
         style="fill:#1e1e1e;stroke-width:0.264583"
         d="M -12.627858,124.64248 V 18.809156 H 93.205482 199.03882 V 124.64248 230.47582 H 93.205482 -12.627858 Z m 81.60894,36.80137 c 13.52104,-2.79613 24.06597,-12.00088 28.18378,-24.60185 0.64955,-1.9877 1.86146,-7.35511 1.86146,-8.2442 0,-0.15494 -4.80146,-0.25115 -12.53454,-0.25115 h -12.53453 l -0.60212,1.87261 c -1.47087,4.57439 -5.23421,8.21072 -9.70184,9.37439 -4.69585,1.22311 -9.87132,-0.12529 -13.17988,-3.43386 -3.04998,-3.04998 -4.46685,-6.92094 -4.45772,-12.17876 0.009,-5.39098 1.36796,-9.12822 4.43243,-12.19269 2.90512,-2.9051 5.77082,-3.94684 10.32389,-3.7529 3.33687,0.14213 4.3935,0.47623 7.08852,2.24134 2.66181,1.74334 4.77619,4.40559 5.78829,7.2881 l 0.34838,0.99219 h 12.38226 c 7.05738,0 12.38227,-0.10126 12.38227,-0.23546 0,-0.1295 -0.23764,-1.39043 -0.5281,-2.80205 -2.86927,-13.94489 -12.48637,-24.324041 -26.19482,-28.270473 -5.75593,-1.657036 -15.0644,-1.96981 -21.03437,-0.706779 -7.9316,1.67804 -14.1917,4.90238 -19.56367,10.076519 -5.46619,5.264883 -8.84133,11.395553 -10.52086,19.110263 -0.50189,2.30536 -0.58686,3.50021 -0.58686,8.25194 0,4.75172 0.085,5.94657 0.58686,8.25193 1.67953,7.71472 5.05467,13.84539 10.52086,19.11027 6.02709,5.80513 13.65604,9.38263 22.60637,10.60098 3.044,0.41436 11.95435,0.11582 14.93394,-0.50036 z m 71.788378,0.35593 c 12.74893,-1.89303 21.70539,-10.10665 23.74976,-21.77997 0.46124,-2.63373 0.50471,-7.24992 0.0932,-9.90194 -0.67972,-4.38087 -2.77979,-8.65747 -5.89738,-12.00949 -4.73726,-5.09348 -10.63399,-7.5883 -18.8291,-7.96633 l -3.98721,-0.18393 6.68109,-10.847923 6.68109,-10.847915 -12.07444,-0.06885 c -9.44521,-0.05386 -12.14083,0.0038 -12.37936,0.264584 -0.35268,0.385638 -11.33816,18.338834 -13.16525,21.515514 -3.17778,5.52503 -5.95025,12.40064 -6.92857,17.1825 -0.96509,4.71721 -0.90785,11.34578 0.13067,15.13123 1.2295,4.48156 3.08898,7.69401 6.45488,11.15152 4.40685,4.5268 9.94137,7.27824 16.8316,8.36769 3.13876,0.49629 9.27349,0.49304 12.63898,-0.007 z m -9.3782,-18.20665 c -2.35499,-0.77245 -4.41841,-2.59455 -5.43053,-4.79544 -0.51806,-1.12652 -0.6082,-1.75498 -0.60718,-4.23333 0.001,-2.50465 0.0861,-3.08144 0.61028,-4.13706 1.45885,-2.93791 4.08482,-4.78602 7.28784,-5.12903 4.22582,-0.45255 7.77017,1.35466 9.48387,4.83568 0.82001,1.66566 0.87307,1.94264 0.87307,4.55714 0,2.50616 -0.0731,2.9325 -0.73302,4.27634 -0.86292,1.75715 -2.64886,3.49539 -4.37652,4.25962 -1.57368,0.69611 -5.48713,0.89767 -7.10781,0.36608 z"
         id="path856" />
    </g>
  </g>
</svg>
