<?xml version="1.0" encoding="UTF-8" standalone="no"?>
<svg
   width="600"
   height="600"
   viewBox="0 0 158.74957 158.75002"
   version="1.1"
   id="svg20"
   sodipodi:docname="contasuper.svg"
   inkscape:version="1.1.1 (3bf5ae0d25, 2021-09-20)"
   xmlns:inkscape="http://www.inkscape.org/namespaces/inkscape"
   xmlns:sodipodi="http://sodipodi.sourceforge.net/DTD/sodipodi-0.dtd"
   xmlns="http://www.w3.org/2000/svg"
   xmlns:svg="http://www.w3.org/2000/svg">
  <defs
     id="defs24" />
  <sodipodi:namedview
     id="namedview22"
     pagecolor="#ffffff"
     bordercolor="#666666"
     borderopacity="1.0"
     inkscape:pageshadow="2"
     inkscape:pageopacity="0.0"
     inkscape:pagecheckerboard="0"
     showgrid="false"
     inkscape:zoom="0.74486018"
     inkscape:cx="-166.4742"
     inkscape:cy="367.18301"
     inkscape:window-width="2560"
     inkscape:window-height="1017"
     inkscape:window-x="-8"
     inkscape:window-y="-8"
     inkscape:window-maximized="1"
     inkscape:current-layer="g18" />
  <g
     style="stroke-width:1.8595"
     id="g18"
     transform="translate(-7.8226928e-4,-2.8006e-4)">
    <path
       style="fill:#6904a1;fill-opacity:1;stroke-width:0.158751;paint-order:markers stroke fill"
       d="M 5.5726928e-4,2.8006e-4 H 158.75058 V 158.7503 H 5.5726928e-4 Z"
       id="path2" />
    <path
       style="fill:#ffffff;fill-opacity:1;stroke-width:0.295196;paint-order:markers stroke fill"
       d="M 415.536,36.187 H 613.644 V 226.322 H 415.536 Z"
       id="path4"
       transform="matrix(0.53778,0,0,0.53778,-197.739,4.288)" />
    <g
       style="stroke-width:1.8595"
       id="g16">
      <path
         style="fill:#6904a1;fill-opacity:1;stroke-width:0.295196;paint-order:markers stroke fill"
         d="M 89.648,48.913 H 366.914 V 156.209 H 89.648 Z"
         transform="matrix(0.53778,0,0,0.53778,-45.077,-22.985)"
         id="path6" />
      <path
         style="fill:#6904a1;fill-opacity:1;stroke-width:0.295196;paint-order:markers stroke fill"
         d="m 270.183,49.713 h 95.931 v 268.312 h -95.931 z"
         transform="matrix(0.53778,0,0,0.53778,-45.077,-22.985)"
         id="path8" />
      <path
         style="fill:#fdfcfc;stroke-width:1.8595"
         d="m 111.975,289.132 c -4.669,-0.38 -10.062,-0.958 -10.2,-1.095 -0.067,-0.068 0.357,-1.422 0.942,-3.01 0.585,-1.587 1.12,-3.04 1.188,-3.228 0.093,-0.254 0.319,-0.198 0.88,0.217 2.148,1.588 5,1.004 6.618,-1.355 0.524,-0.763 0.603,-1.155 0.517,-2.552 -0.152,-2.474 -1.485,-3.978 -3.75,-4.234 -0.672,-0.076 -1.222,-0.21 -1.222,-0.299 0,-0.088 0.853,-2.513 1.894,-5.388 1.738,-4.795 1.925,-5.183 2.267,-4.696 0.56,0.8 2.297,1.583 3.51,1.583 1.438,0 2.652,-0.54 3.513,-1.563 2.576,-3.061 0.555,-7.515 -3.426,-7.552 -1.123,-0.01 -1.375,-0.092 -1.272,-0.41 a 163.7,163.7 0 0 1 1.014,-2.778 l 0.885,-2.381 3.42,-0.146 c 3.113,-0.132 3.58,-0.22 5.182,-0.97 2.155,-1.008 3.988,-2.653 5.048,-4.53 l 0.797,-1.414 0.336,0.975 c 1.008,2.933 4.833,3.963 7.152,1.926 1.238,-1.087 1.695,-2.042 1.695,-3.544 0,-3.832 -4.433,-5.965 -7.416,-3.568 l -1.05,0.845 -0.004,-0.873 c -0.012,-3.48 -2.61,-7.553 -5.991,-9.399 l -1.365,-0.744 6.656,-18.323 c 6.595,-18.154 6.663,-18.321 7.318,-18.171 1.26,0.288 7.623,3.513 9.94,5.038 13.473,8.873 21.742,23.537 22.51,39.92 0.607,12.95 -4.664,27.042 -13.514,36.13 l -1.8,1.846 -0.783,-0.659 c -0.43,-0.363 -1.078,-0.733 -1.439,-0.824 -1.14,-0.286 -3.165,0.052 -4.038,0.674 -1.737,1.237 -2.41,4.043 -1.376,5.738 l 0.502,0.823 -2.025,1.219 c -5.115,3.08 -11.067,5.243 -17.634,6.408 -2.9,0.515 -11.216,0.71 -15.479,0.364 z m 10.98,-6.361 c 1.515,-0.42 2.502,-1.21 3.068,-2.456 1.43,-3.15 -0.717,-6.516 -4.15,-6.504 -3.49,0.011 -5.712,3.735 -4.006,6.717 0.858,1.502 1.79,2.102 3.898,2.51 0.073,0.014 0.608,-0.106 1.19,-0.267 z m 15.479,-0.378 c 1.563,-0.79 2.38,-2.22 2.38,-4.165 0,-2.471 -1.578,-4.157 -4.088,-4.366 -1.773,-0.147 -2.787,0.23 -3.839,1.429 -1.04,1.185 -1.439,2.695 -1.071,4.06 0.792,2.941 3.945,4.39 6.618,3.042 z m -7.145,-17.847 c 1.99,-1.015 2.93,-3.76 2.02,-5.896 -0.764,-1.79 -2.912,-3 -4.822,-2.713 -3.587,0.538 -5.27,4.814 -2.939,7.468 1.497,1.705 3.756,2.154 5.741,1.141 z m 19.248,-17.605 c 1.312,-0.548 1.902,-1.112 2.48,-2.371 0.617,-1.344 0.615,-2.362 -0.009,-3.735 -1.526,-3.361 -6.252,-3.662 -8.096,-0.516 -2.245,3.83 1.567,8.317 5.625,6.622 z"
         transform="matrix(0.53778,0,0,0.53778,-45.077,-22.985)"
         id="path10" />
      <path
         style="fill:#e12932;stroke-width:1.8595"
         d="m 190.22,249.908 c -0.985,-0.547 -1.442,-1.024 -1.967,-2.052 -1.534,-3.008 0.694,-6.577 4.108,-6.577 4.79,0 6.293,6.303 2.067,8.665 -0.736,0.411 -3.446,0.388 -4.209,-0.036 z m 14.035,-0.328 c -1.273,-0.865 -1.51,-1.185 -1.935,-2.627 -0.456,-1.543 0.148,-3.453 1.453,-4.6 1.106,-0.97 1.842,-1.178 3.584,-1.01 2.365,0.226 3.724,1.712 3.88,4.239 0.085,1.4 0.006,1.79 -0.524,2.57 -1.015,1.494 -2.177,2.123 -3.922,2.123 -1.195,0 -1.725,-0.145 -2.536,-0.695 z m 14.418,0.098 c -1.087,-0.722 -2.09,-2.602 -2.09,-3.915 0,-1.406 1.04,-3.184 2.269,-3.884 3.23,-1.838 7.33,0.719 6.924,4.318 -0.17,1.497 -1.209,3.076 -2.396,3.64 -1.37,0.65 -3.603,0.575 -4.707,-0.16 z m 14.688,0.097 c -3.084,-1.881 -3.127,-5.837 -0.085,-7.924 1.302,-0.893 3.73,-0.735 5.132,0.333 2.5,1.908 2.313,5.68 -0.373,7.49 -1.16,0.78 -3.477,0.83 -4.674,0.1 z m 12.465,-2.133 c -1.47,-2.843 0.874,-6.348 4.254,-6.358 1.335,-0.004 2.964,0.75 3.205,1.484 0.135,0.41 -6.26,5.655 -6.895,5.655 -0.088,0 -0.342,-0.351 -0.564,-0.78 z m -76.539,-15.319 c -1.654,-0.476 -3.24,-2.577 -3.24,-4.293 0,-2.317 2.417,-4.755 4.694,-4.737 1.178,0.01 2.85,0.918 3.672,1.996 0.662,0.868 0.763,1.23 0.763,2.74 0,1.536 -0.093,1.857 -0.791,2.73 -1.197,1.496 -3.201,2.11 -5.098,1.564 z m 14.268,0.05 c -0.339,-0.072 -1.074,-0.59 -1.634,-1.15 -1.102,-1.101 -1.543,-2.66 -1.216,-4.297 0.848,-4.24 6.73,-4.833 8.595,-0.867 0.691,1.47 0.701,2.147 0.054,3.658 -0.708,1.651 -2.004,2.577 -3.775,2.695 -0.774,0.051 -1.685,0.034 -2.024,-0.039 z m 14.544,-0.016 c -1.05,-0.199 -2.84,-2.21 -3.028,-3.399 -0.201,-1.28 0.145,-2.894 0.812,-3.787 0.621,-0.833 2.592,-1.866 3.577,-1.876 0.95,-0.01 2.527,0.653 3.318,1.394 1.38,1.293 1.76,3.686 0.861,5.422 -1.02,1.971 -2.923,2.743 -5.54,2.246 z m 13.804,-0.31 c -2.107,-0.984 -3.154,-4.014 -2.093,-6.06 0.578,-1.116 1.883,-2.13 3.151,-2.45 3.861,-0.972 6.916,3.211 4.983,6.824 -1.008,1.883 -3.896,2.69 -6.041,1.687 z m 14.602,0.126 c -1.615,-0.72 -2.778,-2.55 -2.778,-4.368 0,-1.088 1.064,-2.926 2.082,-3.597 2.99,-1.97 6.837,-0.13 7.113,3.398 0.27,3.441 -3.28,5.967 -6.417,4.567 z m -23.113,-17.635 c -1.99,-0.797 -2.98,-2.253 -2.983,-4.39 -0.006,-3.032 2.284,-4.917 5.406,-4.45 3.017,0.453 4.596,4.111 2.971,6.884 -1.042,1.777 -3.56,2.69 -5.394,1.956 z m 14.196,-0.077 c -1.782,-0.791 -2.857,-2.42 -2.856,-4.323 0.002,-2.078 1.304,-3.81 3.263,-4.337 1.786,-0.48 3.241,-0.1 4.527,1.187 1.191,1.19 1.601,2.55 1.284,4.25 -0.48,2.574 -3.802,4.295 -6.218,3.223 z m 14.12,-0.208 c -2.238,-1.108 -3.259,-3.894 -2.192,-5.984 1.733,-3.398 6.432,-3.593 8.154,-0.338 1.376,2.603 0.192,5.676 -2.54,6.59 -1.306,0.436 -2.13,0.372 -3.421,-0.268 z m 14.905,0.25 c -2.635,-0.92 -3.783,-4.02 -2.433,-6.572 1.755,-3.32 6.628,-3.031 8.183,0.484 1.586,3.587 -2.008,7.392 -5.75,6.087 z m -25.797,-18.371 c -2.13,-0.983 -5.77,-2.807 -6.879,-3.445 -6.256,-3.604 -12.915,-10.18 -16.846,-16.634 -1.16,-1.904 -3.224,-5.938 -3.823,-7.468 -0.128,-0.328 -0.34,-0.863 -0.47,-1.19 -0.339,-0.847 -0.709,-1.997 -1.086,-3.374 a 40.176,40.176 0 0 0 -0.552,-1.852 c -0.124,-0.364 -0.493,-1.971 -0.82,-3.572 -0.512,-2.516 -0.593,-3.736 -0.594,-8.996 0,-3.564 0.122,-6.633 0.297,-7.408 0.164,-0.728 0.44,-2.038 0.613,-2.91 0.436,-2.206 2.195,-7.65 3.176,-9.828 2.88,-6.397 6.586,-11.588 11.864,-16.617 1.84,-1.754 6.172,-5.064 7.844,-5.995 7.832,-4.357 12.502,-5.92 21.321,-7.138 2.419,-0.334 10.062,-0.194 14.927,0.273 1.456,0.14 3.688,0.337 4.961,0.438 2.908,0.23 3.092,0.415 2.347,2.352 -0.523,1.36 -0.828,2.185 -2.123,5.757 a 192.91,192.91 0 0 1 -1.222,3.24 69.28,69.28 0 0 0 -0.932,2.514 c -0.283,0.88 -2.106,5.921 -3.157,8.731 a 125.345,125.345 0 0 0 -1.32,3.705 c -0.265,0.8 -0.802,2.288 -1.196,3.307 a 192.044,192.044 0 0 0 -1.24,3.307 c -0.29,0.8 -0.635,1.662 -0.769,1.915 a 2.48,2.48 0 0 0 -0.243,0.976 c 0,0.285 -0.12,0.591 -0.265,0.681 -0.146,0.09 -0.265,0.376 -0.265,0.636 0,0.982 -0.85,1.364 -2.803,1.26 -4.13,-0.218 -7.346,0.969 -9.808,3.62 -2.037,2.194 -2.764,4.065 -2.787,7.169 -0.017,2.26 0.151,2.98 1.204,5.16 0.667,1.38 3.018,3.767 4.32,4.385 0.5,0.237 0.964,0.572 1.03,0.744 0.192,0.5 -13.021,36.549 -13.423,36.62 -0.195,0.036 -0.771,-0.128 -1.28,-0.363 z"
         id="path12"
         transform="matrix(0.53778,0,0,0.53778,-45.077,-22.985)" />
      <path
         style="fill:#6904a1;stroke-width:1.8595"
         d="M 88.79,182.013 V 46.546 h 41.804 c 37.363,0 41.804,0.043 41.804,0.405 0,0.223 0.19,0.478 0.423,0.568 0.548,0.21 1.693,1.356 1.693,1.693 0,0.144 0.19,0.334 0.424,0.423 0.547,0.21 1.693,1.356 1.693,1.694 0,0.143 0.19,0.334 0.423,0.423 0.548,0.21 1.694,1.356 1.694,1.693 0,0.144 0.19,0.334 0.423,0.424 0.548,0.21 1.693,1.356 1.693,1.693 0,0.144 0.19,0.334 0.424,0.423 0.547,0.21 1.693,1.356 1.693,1.694 0,0.143 0.19,0.334 0.423,0.423 0.548,0.21 1.694,1.356 1.694,1.693 0,0.144 0.19,0.334 0.423,0.424 0.548,0.21 1.693,1.356 1.693,1.693 0,0.144 0.19,0.334 0.424,0.423 0.547,0.21 1.693,1.356 1.693,1.694 0,0.143 0.19,0.334 0.423,0.423 0.548,0.21 1.694,1.356 1.694,1.693 0,0.144 0.19,0.334 0.423,0.424 0.548,0.21 1.693,1.356 1.693,1.693 0,0.144 0.19,0.334 0.424,0.423 0.547,0.21 1.693,1.356 1.693,1.694 0,0.143 0.19,0.334 0.423,0.423 0.548,0.21 1.694,1.356 1.694,1.693 0,0.144 0.19,0.334 0.423,0.424 0.548,0.21 1.693,1.356 1.693,1.693 0,0.144 0.19,0.334 0.424,0.423 0.547,0.21 1.693,1.356 1.693,1.694 0,0.143 0.19,0.334 0.423,0.423 0.548,0.21 1.694,1.356 1.694,1.693 0,0.144 0.19,0.334 0.423,0.424 0.548,0.21 1.693,1.356 1.693,1.693 0,0.144 0.19,0.334 0.424,0.423 0.547,0.21 1.693,1.356 1.693,1.694 0,0.143 0.19,0.334 0.423,0.423 0.548,0.21 1.694,1.356 1.694,1.693 0,0.144 0.19,0.334 0.423,0.424 0.548,0.21 1.693,1.356 1.693,1.693 0,0.144 0.19,0.334 0.424,0.423 0.547,0.21 1.693,1.356 1.693,1.694 0,0.143 0.19,0.334 0.423,0.423 0.548,0.21 1.694,1.356 1.694,1.693 0,0.144 0.19,0.334 0.423,0.424 0.548,0.21 1.693,1.356 1.693,1.693 0,0.144 0.19,0.334 0.424,0.423 0.547,0.21 1.693,1.356 1.693,1.694 0,0.143 0.19,0.334 0.423,0.423 0.55,0.211 1.57,1.236 1.784,1.792 0.13,0.337 0.371,0.397 1.067,0.267 1.179,-0.221 1.55,0.322 0.476,0.696 -0.494,0.172 -0.764,0.436 -0.724,0.706 0.083,0.568 0.678,0.76 0.678,0.218 0,-0.542 1.142,-0.558 1.588,-0.022 0.18,0.219 0.5,0.397 0.71,0.397 0.208,0 0.306,0.12 0.216,0.265 -0.212,0.343 -1.376,0.343 -1.588,0 -0.295,-0.479 -0.7,-0.276 -0.529,0.265 0.138,0.435 0.048,0.529 -0.511,0.529 -0.374,0 -0.68,0.119 -0.68,0.264 0,0.146 -0.24,0.265 -0.532,0.265 -0.293,0 -0.74,0.105 -0.992,0.234 -0.253,0.128 -0.758,0.351 -1.121,0.495 -1.801,0.713 -4.595,2.042 -6.116,2.91 -0.525,0.3 -1.24,0.704 -1.587,0.9 -0.348,0.196 -0.691,0.421 -0.764,0.502 -0.073,0.08 -0.906,0.673 -1.852,1.317 -6.965,4.74 -12.993,11.871 -16.683,19.733 -3.962,8.442 -5.747,18.466 -4.731,26.56 2.006,15.988 9.643,28.672 22.34,37.107 2.758,1.832 8.747,4.823 10.384,5.186 2.491,0.553 4.956,2.786 6.344,5.748 0.607,1.297 0.731,1.914 0.717,3.554 -0.036,4.083 -0.774,6.173 -2.948,8.347 -2.266,2.266 -5.301,3.29 -9.766,3.293 l -2.148,0.002 -0.99,2.78 c -0.895,2.51 -1.096,2.851 -2.071,3.506 -1.535,1.031 -2.166,2.235 -2.14,4.086 0.01,0.831 0.161,1.68 0.334,1.889 0.25,0.302 -0.085,1.474 -1.65,5.758 -1.755,4.808 -2.036,5.398 -2.642,5.56 -2.755,0.737 -4.092,3.944 -2.795,6.703 l 0.55,1.171 -1.08,2.947 c -0.593,1.621 -1.08,3.097 -1.08,3.28 0,1.037 20.856,1.846 25.665,0.995 16.468,-2.914 29.577,-12.463 36.968,-26.929 2.508,-4.907 4.124,-10.089 4.986,-15.98 0.651,-4.455 0.408,-12.15 -0.525,-16.579 -3.404,-16.167 -13.683,-29.043 -28.652,-35.894 -1.486,-0.68 -2.784,-1.237 -2.884,-1.237 -0.655,0 -3.292,-1.627 -4.347,-2.681 -4.178,-4.18 -4.05,-11.108 0.284,-15.16 2.158,-2.02 3.744,-2.581 7.664,-2.717 3.625,-0.125 4.498,-0.377 4.498,-1.3 0,-0.33 0.119,-0.674 0.265,-0.764 0.145,-0.09 0.264,-0.396 0.264,-0.68 0,-0.285 0.105,-0.724 0.234,-0.977 0.128,-0.253 0.38,-0.817 0.56,-1.253 0.18,-0.437 0.431,-1 0.56,-1.253 0.128,-0.253 0.234,-0.7 0.234,-0.993 0,-0.293 0.119,-0.532 0.264,-0.532 0.146,0 0.265,-0.216 0.265,-0.48 0,-0.264 0.304,-1.11 0.676,-1.881 0.372,-0.771 0.619,-1.46 0.548,-1.53 -0.07,-0.071 0.101,-0.538 0.382,-1.038 0.28,-0.5 0.51,-1.143 0.51,-1.43 0,-0.286 0.11,-0.52 0.243,-0.52 0.548,0 1.08,0.344 1.08,0.697 0,0.208 0.19,0.45 0.424,0.54 0.545,0.209 1.57,1.233 1.779,1.779 0.089,0.233 0.28,0.423 0.423,0.423 0.337,0 1.483,1.146 1.693,1.693 0.09,0.233 0.28,0.424 0.424,0.424 0.337,0 1.483,1.145 1.693,1.693 0.09,0.233 0.28,0.423 0.423,0.423 0.338,0 1.483,1.146 1.694,1.694 0.089,0.233 0.28,0.423 0.423,0.423 0.337,0 1.483,1.146 1.693,1.693 0.09,0.233 0.28,0.424 0.424,0.424 0.337,0 1.483,1.145 1.693,1.693 0.09,0.233 0.28,0.423 0.423,0.423 0.338,0 1.483,1.146 1.694,1.694 0.089,0.233 0.28,0.423 0.423,0.423 0.337,0 1.483,1.146 1.693,1.693 0.09,0.233 0.28,0.424 0.424,0.424 0.337,0 1.483,1.145 1.693,1.693 0.09,0.233 0.28,0.423 0.423,0.423 0.338,0 1.483,1.146 1.694,1.694 0.089,0.233 0.28,0.423 0.423,0.423 0.337,0 1.483,1.146 1.693,1.693 0.09,0.233 0.28,0.424 0.424,0.424 0.337,0 1.483,1.145 1.693,1.693 0.09,0.233 0.28,0.423 0.423,0.423 0.338,0 1.483,1.146 1.694,1.694 0.089,0.233 0.28,0.423 0.423,0.423 0.337,0 1.483,1.146 1.693,1.693 0.09,0.233 0.28,0.424 0.424,0.424 0.337,0 1.483,1.145 1.693,1.693 0.09,0.233 0.28,0.423 0.423,0.423 0.338,0 1.483,1.146 1.694,1.694 0.089,0.233 0.28,0.423 0.423,0.423 0.337,0 1.483,1.146 1.693,1.693 0.09,0.233 0.28,0.424 0.424,0.424 0.337,0 1.483,1.145 1.693,1.693 0.09,0.233 0.28,0.423 0.423,0.423 0.338,0 1.483,1.146 1.694,1.694 0.089,0.233 0.28,0.423 0.423,0.423 0.337,0 1.483,1.146 1.693,1.693 0.09,0.233 0.28,0.424 0.424,0.424 0.337,0 1.483,1.145 1.693,1.693 0.09,0.233 0.28,0.423 0.423,0.423 0.338,0 1.483,1.146 1.694,1.694 0.089,0.233 0.28,0.423 0.423,0.423 0.337,0 1.483,1.146 1.693,1.693 0.09,0.233 0.28,0.424 0.424,0.424 0.337,0 1.483,1.145 1.693,1.693 0.09,0.233 0.28,0.423 0.423,0.423 0.338,0 1.483,1.146 1.694,1.694 0.089,0.233 0.28,0.423 0.423,0.423 0.337,0 1.483,1.146 1.693,1.693 0.09,0.233 0.28,0.424 0.424,0.424 0.337,0 1.483,1.145 1.693,1.693 0.09,0.233 0.28,0.423 0.423,0.423 0.338,0 1.483,1.146 1.694,1.694 0.089,0.233 0.28,0.423 0.423,0.423 0.337,0 1.483,1.146 1.693,1.693 0.09,0.233 0.28,0.424 0.424,0.424 0.337,0 1.483,1.145 1.693,1.693 0.09,0.233 0.28,0.423 0.423,0.423 0.338,0 1.483,1.146 1.694,1.694 0.089,0.233 0.28,0.423 0.423,0.423 0.337,0 1.483,1.146 1.693,1.693 0.09,0.233 0.28,0.424 0.424,0.424 0.337,0 1.483,1.145 1.693,1.693 0.09,0.233 0.28,0.423 0.423,0.423 0.338,0 1.483,1.146 1.694,1.694 0.089,0.233 0.28,0.423 0.423,0.423 0.337,0 1.483,1.146 1.693,1.693 0.09,0.233 0.28,0.424 0.424,0.424 0.337,0 1.483,1.145 1.693,1.693 0.09,0.233 0.28,0.423 0.423,0.423 0.338,0 1.483,1.146 1.694,1.694 0.089,0.233 0.28,0.423 0.423,0.423 0.337,0 1.483,1.146 1.693,1.693 0.09,0.233 0.28,0.424 0.424,0.424 0.337,0 1.483,1.145 1.693,1.693 0.09,0.233 0.28,0.423 0.423,0.423 0.338,0 1.483,1.146 1.694,1.694 0.089,0.233 0.28,0.423 0.423,0.423 0.337,0 1.483,1.146 1.693,1.693 0.09,0.233 0.28,0.424 0.424,0.424 0.337,0 1.483,1.145 1.693,1.693 0.09,0.233 0.28,0.423 0.423,0.423 0.338,0 1.483,1.146 1.694,1.694 0.089,0.233 0.28,0.423 0.423,0.423 0.337,0 1.483,1.146 1.693,1.693 0.09,0.233 0.28,0.424 0.424,0.424 0.337,0 1.483,1.145 1.693,1.693 0.09,0.233 0.28,0.423 0.423,0.423 0.338,0 1.483,1.146 1.694,1.694 0.089,0.233 0.28,0.423 0.423,0.423 0.337,0 1.483,1.146 1.693,1.693 0.09,0.233 0.28,0.424 0.424,0.424 0.337,0 1.483,1.145 1.693,1.693 0.09,0.233 0.28,0.423 0.423,0.423 0.338,0 1.483,1.146 1.694,1.694 0.089,0.233 0.28,0.423 0.423,0.423 0.337,0 1.483,1.146 1.693,1.693 0.09,0.233 0.28,0.424 0.424,0.424 0.337,0 1.483,1.145 1.693,1.693 0.09,0.233 0.345,0.423 0.568,0.423 0.362,0 0.405,4.44 0.405,41.804 V 317.48 H 88.789 Z m 105.05,68.263 c 1.065,-0.295 2.466,-1.622 2.883,-2.73 0.36,-0.955 0.36,-2.585 0,-3.538 -0.673,-1.774 -2.29,-2.779 -4.508,-2.8 -1.28,-0.012 -1.69,0.107 -2.495,0.72 -1.433,1.094 -1.974,2.15 -1.974,3.85 0,2.048 0.85,3.43 2.644,4.3 1.057,0.513 2.101,0.573 3.451,0.198 z m -21.31,-17.965 c 2.875,-1.331 3.813,-4.391 2.127,-6.939 -1.59,-2.402 -5.017,-2.793 -7.112,-0.81 -1.066,1.008 -1.497,1.962 -1.497,3.31 0,2.212 1.196,3.883 3.307,4.621 1.176,0.411 1.995,0.364 3.175,-0.182 z m 14.077,0.184 c 2.146,-0.922 3.253,-2.482 3.253,-4.584 0,-1.365 -0.274,-2.029 -1.289,-3.126 -1.004,-1.085 -1.951,-1.5 -3.394,-1.485 -1.679,0.017 -2.927,0.668 -3.876,2.02 -1.713,2.442 -0.979,5.414 1.671,6.765 1.556,0.793 2.495,0.9 3.635,0.41 z m 14.516,-0.033 c 2.05,-0.785 3.025,-2.274 3.025,-4.624 0,-1.187 -0.145,-1.776 -0.603,-2.457 -1.328,-1.97 -4.332,-2.712 -6.249,-1.544 -1.333,0.813 -1.673,1.234 -2.163,2.68 -0.79,2.338 0.188,4.62 2.452,5.717 1.277,0.619 2.337,0.687 3.538,0.228 z m 6.164,-18.183 c 2.607,-1.467 3.111,-4.909 1.061,-7.238 -3.541,-4.023 -9.858,0.051 -7.782,5.02 0.454,1.085 0.803,1.467 2.022,2.21 1.212,0.739 3.394,0.743 4.699,0.008 z m 14.311,0.019 c 2.73,-1.393 3.293,-5.111 1.12,-7.394 -2,-2.1 -4.825,-2.058 -6.826,0.1 -1.197,1.29 -1.586,2.847 -1.128,4.508 0.782,2.83 4.098,4.182 6.834,2.786 z m 27,-84.027 c 0,-0.227 -0.121,-0.338 -0.27,-0.246 -0.147,0.091 -0.2,0.277 -0.116,0.412 0.227,0.367 0.386,0.299 0.386,-0.166 z m 1.058,-3.175 c 0,-0.227 -0.121,-0.338 -0.269,-0.246 -0.148,0.091 -0.2,0.277 -0.117,0.412 0.227,0.367 0.386,0.299 0.386,-0.166 z m 109.67,105.452 c 0.09,-0.145 0.216,-0.265 0.28,-0.265 0.064,0 0.117,0.12 0.117,0.265 a 0.273,0.273 0 0 1 -0.28,0.265 c -0.155,0 -0.207,-0.12 -0.117,-0.265 z m -2.117,-2.117 c 0.09,-0.145 0.216,-0.264 0.28,-0.264 0.065,0 0.117,0.119 0.117,0.264 a 0.273,0.273 0 0 1 -0.28,0.265 c -0.154,0 -0.207,-0.12 -0.117,-0.265 z m -2.116,-2.116 c 0.09,-0.146 0.216,-0.265 0.28,-0.265 0.064,0 0.116,0.12 0.116,0.265 0,0.145 -0.126,0.264 -0.28,0.264 -0.154,0 -0.206,-0.119 -0.116,-0.264 z m -2.117,-2.117 c 0.09,-0.145 0.216,-0.265 0.28,-0.265 0.064,0 0.117,0.12 0.117,0.265 a 0.273,0.273 0 0 1 -0.28,0.265 c -0.155,0 -0.207,-0.12 -0.117,-0.265 z m -2.117,-2.117 c 0.09,-0.145 0.216,-0.264 0.28,-0.264 0.065,0 0.117,0.119 0.117,0.264 a 0.273,0.273 0 0 1 -0.28,0.265 c -0.154,0 -0.207,-0.12 -0.117,-0.265 z m -2.116,-2.116 c 0.09,-0.146 0.216,-0.265 0.28,-0.265 0.064,0 0.116,0.12 0.116,0.265 0,0.145 -0.126,0.264 -0.28,0.264 -0.154,0 -0.206,-0.119 -0.116,-0.264 z m -2.117,-2.117 c 0.09,-0.145 0.216,-0.265 0.28,-0.265 0.064,0 0.117,0.12 0.117,0.265 a 0.273,0.273 0 0 1 -0.28,0.265 c -0.155,0 -0.207,-0.12 -0.117,-0.265 z m -2.117,-2.117 c 0.09,-0.145 0.216,-0.264 0.28,-0.264 0.065,0 0.117,0.119 0.117,0.264 a 0.273,0.273 0 0 1 -0.28,0.265 c -0.154,0 -0.207,-0.12 -0.117,-0.265 z m -2.116,-2.116 c 0.09,-0.146 0.216,-0.265 0.28,-0.265 0.064,0 0.116,0.12 0.116,0.265 0,0.145 -0.126,0.264 -0.28,0.264 -0.154,0 -0.206,-0.119 -0.116,-0.264 z m -2.117,-2.117 c 0.09,-0.145 0.216,-0.265 0.28,-0.265 0.064,0 0.117,0.12 0.117,0.265 a 0.273,0.273 0 0 1 -0.28,0.265 c -0.155,0 -0.207,-0.12 -0.117,-0.265 z m -2.117,-2.117 c 0.09,-0.145 0.216,-0.264 0.28,-0.264 0.065,0 0.117,0.119 0.117,0.264 a 0.273,0.273 0 0 1 -0.28,0.265 c -0.154,0 -0.207,-0.12 -0.117,-0.265 z m -2.116,-2.116 c 0.09,-0.146 0.216,-0.265 0.28,-0.265 0.064,0 0.116,0.12 0.116,0.265 0,0.145 -0.126,0.264 -0.28,0.264 -0.154,0 -0.206,-0.119 -0.116,-0.264 z m -2.117,-2.117 c 0.09,-0.145 0.216,-0.265 0.28,-0.265 0.064,0 0.117,0.12 0.117,0.265 a 0.273,0.273 0 0 1 -0.28,0.265 c -0.155,0 -0.207,-0.12 -0.117,-0.265 z m -2.117,-2.117 c 0.09,-0.145 0.216,-0.264 0.28,-0.264 0.065,0 0.117,0.119 0.117,0.264 a 0.273,0.273 0 0 1 -0.28,0.265 c -0.154,0 -0.207,-0.12 -0.117,-0.265 z m -2.116,-2.116 c 0.09,-0.146 0.216,-0.265 0.28,-0.265 0.064,0 0.116,0.12 0.116,0.265 0,0.145 -0.126,0.264 -0.28,0.264 -0.154,0 -0.206,-0.119 -0.116,-0.264 z m -2.117,-2.117 c 0.09,-0.145 0.216,-0.265 0.28,-0.265 0.064,0 0.117,0.12 0.117,0.265 a 0.273,0.273 0 0 1 -0.28,0.265 c -0.155,0 -0.207,-0.12 -0.117,-0.265 z m -2.117,-2.117 c 0.09,-0.145 0.216,-0.264 0.28,-0.264 0.065,0 0.117,0.119 0.117,0.264 a 0.273,0.273 0 0 1 -0.28,0.265 c -0.154,0 -0.207,-0.12 -0.117,-0.265 z m -2.116,-2.116 c 0.09,-0.146 0.216,-0.265 0.28,-0.265 0.064,0 0.116,0.12 0.116,0.265 0,0.145 -0.126,0.264 -0.28,0.264 -0.154,0 -0.206,-0.119 -0.116,-0.264 z m -2.117,-2.117 c 0.09,-0.145 0.216,-0.265 0.28,-0.265 0.064,0 0.117,0.12 0.117,0.265 a 0.273,0.273 0 0 1 -0.28,0.265 c -0.155,0 -0.207,-0.12 -0.117,-0.265 z m -2.117,-2.117 c 0.09,-0.145 0.216,-0.264 0.28,-0.264 0.065,0 0.117,0.119 0.117,0.264 a 0.273,0.273 0 0 1 -0.28,0.265 c -0.154,0 -0.207,-0.12 -0.117,-0.265 z m -2.116,-2.116 c 0.09,-0.146 0.216,-0.265 0.28,-0.265 0.064,0 0.116,0.12 0.116,0.265 0,0.145 -0.126,0.264 -0.28,0.264 -0.154,0 -0.206,-0.119 -0.116,-0.264 z m -2.117,-2.117 c 0.09,-0.145 0.216,-0.265 0.28,-0.265 0.064,0 0.117,0.12 0.117,0.265 a 0.273,0.273 0 0 1 -0.28,0.265 c -0.155,0 -0.207,-0.12 -0.117,-0.265 z m -2.117,-2.117 c 0.09,-0.145 0.216,-0.264 0.28,-0.264 0.065,0 0.117,0.119 0.117,0.264 a 0.273,0.273 0 0 1 -0.28,0.265 c -0.154,0 -0.207,-0.12 -0.117,-0.265 z m -2.116,-2.116 c 0.09,-0.146 0.216,-0.265 0.28,-0.265 0.064,0 0.116,0.12 0.116,0.265 0,0.145 -0.126,0.264 -0.28,0.264 -0.154,0 -0.206,-0.119 -0.116,-0.264 z m -2.117,-2.117 c 0.09,-0.145 0.216,-0.265 0.28,-0.265 0.064,0 0.117,0.12 0.117,0.265 a 0.273,0.273 0 0 1 -0.28,0.265 c -0.155,0 -0.207,-0.12 -0.117,-0.265 z m -2.117,-2.117 c 0.09,-0.145 0.216,-0.264 0.28,-0.264 0.065,0 0.117,0.119 0.117,0.264 a 0.273,0.273 0 0 1 -0.28,0.265 c -0.154,0 -0.207,-0.12 -0.117,-0.265 z m -2.116,-2.116 c 0.09,-0.146 0.216,-0.265 0.28,-0.265 0.064,0 0.116,0.12 0.116,0.265 0,0.145 -0.126,0.264 -0.28,0.264 -0.154,0 -0.206,-0.119 -0.116,-0.264 z m -2.117,-2.117 c 0.09,-0.145 0.216,-0.265 0.28,-0.265 0.064,0 0.117,0.12 0.117,0.265 a 0.273,0.273 0 0 1 -0.28,0.265 c -0.155,0 -0.207,-0.12 -0.117,-0.265 z m -2.117,-2.117 c 0.09,-0.145 0.216,-0.264 0.28,-0.264 0.065,0 0.117,0.119 0.117,0.264 a 0.273,0.273 0 0 1 -0.28,0.265 c -0.154,0 -0.207,-0.12 -0.117,-0.265 z m -2.116,-2.116 c 0.09,-0.146 0.216,-0.265 0.28,-0.265 0.064,0 0.116,0.12 0.116,0.265 0,0.145 -0.126,0.264 -0.28,0.264 -0.154,0 -0.206,-0.119 -0.116,-0.264 z m -2.117,-2.117 c 0.09,-0.145 0.216,-0.265 0.28,-0.265 0.064,0 0.117,0.12 0.117,0.265 a 0.273,0.273 0 0 1 -0.28,0.265 c -0.155,0 -0.207,-0.12 -0.117,-0.265 z m -2.117,-2.117 c 0.09,-0.145 0.216,-0.264 0.28,-0.264 0.065,0 0.117,0.119 0.117,0.264 a 0.273,0.273 0 0 1 -0.28,0.265 c -0.154,0 -0.207,-0.12 -0.117,-0.265 z m -2.116,-2.116 c 0.09,-0.146 0.216,-0.265 0.28,-0.265 0.064,0 0.116,0.12 0.116,0.265 0,0.145 -0.126,0.264 -0.28,0.264 -0.154,0 -0.206,-0.119 -0.116,-0.264 z m -2.117,-2.117 c 0.09,-0.145 0.216,-0.265 0.28,-0.265 0.064,0 0.117,0.12 0.117,0.265 a 0.273,0.273 0 0 1 -0.28,0.265 c -0.155,0 -0.207,-0.12 -0.117,-0.265 z m -2.117,-2.117 c 0.09,-0.145 0.216,-0.264 0.28,-0.264 0.065,0 0.117,0.119 0.117,0.264 a 0.273,0.273 0 0 1 -0.28,0.265 c -0.154,0 -0.207,-0.12 -0.117,-0.265 z m -2.116,-2.116 c 0.09,-0.146 0.216,-0.265 0.28,-0.265 0.064,0 0.116,0.12 0.116,0.265 0,0.145 -0.126,0.264 -0.28,0.264 -0.154,0 -0.206,-0.119 -0.116,-0.264 z m -2.117,-2.117 c 0.09,-0.145 0.216,-0.265 0.28,-0.265 0.064,0 0.117,0.12 0.117,0.265 a 0.273,0.273 0 0 1 -0.28,0.265 c -0.155,0 -0.207,-0.12 -0.117,-0.265 z m -2.117,-2.117 c 0.09,-0.145 0.216,-0.264 0.28,-0.264 0.065,0 0.117,0.119 0.117,0.264 a 0.273,0.273 0 0 1 -0.28,0.265 c -0.154,0 -0.207,-0.12 -0.117,-0.265 z m -2.116,-2.116 c 0.09,-0.146 0.216,-0.265 0.28,-0.265 0.064,0 0.116,0.12 0.116,0.265 0,0.145 -0.126,0.264 -0.28,0.264 -0.154,0 -0.206,-0.119 -0.116,-0.264 z m -2.117,-2.117 c 0.09,-0.145 0.216,-0.265 0.28,-0.265 0.064,0 0.117,0.12 0.117,0.265 a 0.273,0.273 0 0 1 -0.28,0.265 c -0.155,0 -0.207,-0.12 -0.117,-0.265 z m -2.117,-2.117 c 0.09,-0.145 0.216,-0.264 0.28,-0.264 0.065,0 0.117,0.119 0.117,0.264 a 0.273,0.273 0 0 1 -0.28,0.265 c -0.154,0 -0.207,-0.12 -0.117,-0.265 z m -2.116,-2.116 c 0.09,-0.146 0.216,-0.265 0.28,-0.265 0.064,0 0.116,0.12 0.116,0.265 0,0.145 -0.126,0.264 -0.28,0.264 -0.154,0 -0.206,-0.119 -0.116,-0.264 z m -2.117,-2.117 c 0.09,-0.145 0.216,-0.265 0.28,-0.265 0.064,0 0.117,0.12 0.117,0.265 a 0.273,0.273 0 0 1 -0.28,0.265 c -0.155,0 -0.207,-0.12 -0.117,-0.265 z m -2.117,-2.117 c 0.09,-0.145 0.216,-0.264 0.28,-0.264 0.065,0 0.117,0.119 0.117,0.264 a 0.273,0.273 0 0 1 -0.28,0.265 c -0.154,0 -0.207,-0.12 -0.117,-0.265 z m -2.116,-2.116 c 0.09,-0.146 0.216,-0.265 0.28,-0.265 0.064,0 0.116,0.12 0.116,0.265 0,0.145 -0.126,0.264 -0.28,0.264 -0.154,0 -0.206,-0.119 -0.116,-0.264 z m -2.117,-2.117 c 0.09,-0.145 0.216,-0.265 0.28,-0.265 0.064,0 0.117,0.12 0.117,0.265 a 0.273,0.273 0 0 1 -0.28,0.265 c -0.155,0 -0.207,-0.12 -0.117,-0.265 z m -2.117,-2.117 c 0.09,-0.145 0.216,-0.264 0.28,-0.264 0.065,0 0.117,0.119 0.117,0.264 a 0.273,0.273 0 0 1 -0.28,0.265 c -0.154,0 -0.207,-0.12 -0.117,-0.265 z m -2.116,-2.116 c 0.09,-0.146 0.216,-0.265 0.28,-0.265 0.064,0 0.116,0.12 0.116,0.265 0,0.145 -0.126,0.264 -0.28,0.264 -0.154,0 -0.206,-0.119 -0.116,-0.264 z m -2.117,-2.117 c 0.09,-0.145 0.216,-0.265 0.28,-0.265 0.064,0 0.117,0.12 0.117,0.265 a 0.273,0.273 0 0 1 -0.28,0.265 c -0.155,0 -0.207,-0.12 -0.117,-0.265 z m -2.117,-2.117 c 0.09,-0.145 0.216,-0.264 0.28,-0.264 0.065,0 0.117,0.119 0.117,0.264 a 0.273,0.273 0 0 1 -0.28,0.265 c -0.154,0 -0.207,-0.12 -0.117,-0.265 z m -2.116,-2.116 c 0.09,-0.146 0.216,-0.265 0.28,-0.265 0.064,0 0.116,0.12 0.116,0.265 0,0.145 -0.126,0.264 -0.28,0.264 -0.154,0 -0.206,-0.119 -0.116,-0.264 z m -2.117,-2.117 c 0.09,-0.145 0.216,-0.265 0.28,-0.265 0.064,0 0.117,0.12 0.117,0.265 a 0.273,0.273 0 0 1 -0.28,0.265 c -0.155,0 -0.207,-0.12 -0.117,-0.265 z M 226.902,98.933 c -0.21,-0.13 -0.322,-0.295 -0.25,-0.368 0.073,-0.073 0.305,-0.026 0.514,0.104 0.21,0.13 0.322,0.295 0.25,0.368 -0.073,0.073 -0.304,0.026 -0.514,-0.104 z m -3.043,-1.852 c 0.09,-0.145 0.216,-0.264 0.28,-0.264 0.065,0 0.117,0.119 0.117,0.264 a 0.273,0.273 0 0 1 -0.28,0.265 c -0.154,0 -0.207,-0.12 -0.117,-0.265 z m -2.116,-2.116 c 0.09,-0.146 0.216,-0.265 0.28,-0.265 0.064,0 0.116,0.12 0.116,0.265 0,0.145 -0.126,0.264 -0.28,0.264 -0.154,0 -0.206,-0.119 -0.116,-0.264 z m -2.117,-2.117 c 0.09,-0.146 0.216,-0.265 0.28,-0.265 0.064,0 0.117,0.12 0.117,0.265 0,0.145 -0.126,0.265 -0.28,0.265 -0.155,0 -0.207,-0.12 -0.117,-0.265 z m -2.117,-2.117 c 0.09,-0.145 0.216,-0.264 0.28,-0.264 0.065,0 0.117,0.119 0.117,0.264 a 0.273,0.273 0 0 1 -0.28,0.265 c -0.154,0 -0.207,-0.12 -0.117,-0.265 z m -2.116,-2.116 c 0.09,-0.146 0.216,-0.265 0.28,-0.265 0.064,0 0.116,0.12 0.116,0.265 0,0.145 -0.126,0.264 -0.28,0.264 -0.154,0 -0.206,-0.119 -0.116,-0.264 z m -2.117,-2.117 c 0.09,-0.146 0.216,-0.265 0.28,-0.265 0.064,0 0.117,0.12 0.117,0.265 0,0.145 -0.126,0.265 -0.28,0.265 -0.155,0 -0.207,-0.12 -0.117,-0.265 z m -2.117,-2.117 c 0.09,-0.145 0.216,-0.264 0.28,-0.264 0.065,0 0.117,0.119 0.117,0.264 a 0.273,0.273 0 0 1 -0.28,0.265 c -0.154,0 -0.207,-0.12 -0.117,-0.265 z m -2.116,-2.116 c 0.09,-0.146 0.216,-0.265 0.28,-0.265 0.064,0 0.116,0.12 0.116,0.265 0,0.145 -0.126,0.264 -0.28,0.264 -0.154,0 -0.206,-0.119 -0.116,-0.264 z m -2.117,-2.117 c 0.09,-0.146 0.216,-0.265 0.28,-0.265 0.064,0 0.117,0.12 0.117,0.265 0,0.145 -0.126,0.265 -0.28,0.265 -0.155,0 -0.207,-0.12 -0.117,-0.265 z m -2.117,-2.117 c 0.09,-0.145 0.216,-0.264 0.28,-0.264 0.065,0 0.117,0.119 0.117,0.264 a 0.273,0.273 0 0 1 -0.28,0.265 c -0.154,0 -0.207,-0.12 -0.117,-0.265 z m -2.116,-2.116 c 0.09,-0.146 0.216,-0.265 0.28,-0.265 0.064,0 0.116,0.12 0.116,0.265 0,0.145 -0.126,0.264 -0.28,0.264 -0.154,0 -0.206,-0.119 -0.116,-0.264 z m -2.117,-2.117 c 0.09,-0.146 0.216,-0.265 0.28,-0.265 0.064,0 0.117,0.12 0.117,0.265 0,0.145 -0.126,0.265 -0.28,0.265 -0.155,0 -0.207,-0.12 -0.117,-0.265 z m -2.117,-2.117 c 0.09,-0.145 0.216,-0.264 0.28,-0.264 0.065,0 0.117,0.119 0.117,0.264 a 0.273,0.273 0 0 1 -0.28,0.265 c -0.154,0 -0.207,-0.12 -0.117,-0.265 z m -2.116,-2.116 c 0.09,-0.146 0.216,-0.265 0.28,-0.265 0.064,0 0.116,0.12 0.116,0.265 0,0.145 -0.126,0.264 -0.28,0.264 -0.154,0 -0.206,-0.119 -0.116,-0.264 z m -2.117,-2.117 c 0.09,-0.146 0.216,-0.265 0.28,-0.265 0.064,0 0.117,0.12 0.117,0.265 0,0.145 -0.126,0.265 -0.28,0.265 -0.155,0 -0.207,-0.12 -0.117,-0.265 z m -2.117,-2.117 c 0.09,-0.145 0.216,-0.264 0.28,-0.264 0.065,0 0.117,0.119 0.117,0.264 a 0.273,0.273 0 0 1 -0.28,0.265 c -0.154,0 -0.207,-0.12 -0.117,-0.265 z m -2.116,-2.116 c 0.09,-0.146 0.216,-0.265 0.28,-0.265 0.064,0 0.116,0.12 0.116,0.265 0,0.145 -0.126,0.264 -0.28,0.264 -0.154,0 -0.206,-0.119 -0.116,-0.264 z m -2.117,-2.117 c 0.09,-0.146 0.216,-0.265 0.28,-0.265 0.064,0 0.117,0.12 0.117,0.265 0,0.145 -0.126,0.265 -0.28,0.265 -0.155,0 -0.207,-0.12 -0.117,-0.265 z m -2.117,-2.117 c 0.09,-0.145 0.216,-0.264 0.28,-0.264 0.065,0 0.117,0.119 0.117,0.264 a 0.273,0.273 0 0 1 -0.28,0.265 c -0.154,0 -0.207,-0.12 -0.117,-0.265 z m -2.116,-2.116 c 0.09,-0.146 0.216,-0.265 0.28,-0.265 0.064,0 0.116,0.12 0.116,0.265 0,0.145 -0.126,0.264 -0.28,0.264 -0.154,0 -0.206,-0.119 -0.116,-0.264 z m -2.117,-2.117 c 0.09,-0.146 0.216,-0.265 0.28,-0.265 0.064,0 0.117,0.12 0.117,0.265 0,0.145 -0.126,0.265 -0.28,0.265 -0.155,0 -0.207,-0.12 -0.117,-0.265 z m -2.117,-2.117 c 0.09,-0.145 0.216,-0.264 0.28,-0.264 0.065,0 0.117,0.119 0.117,0.264 a 0.273,0.273 0 0 1 -0.28,0.265 c -0.154,0 -0.207,-0.12 -0.117,-0.265 z m -2.116,-2.116 c 0.09,-0.146 0.216,-0.265 0.28,-0.265 0.064,0 0.116,0.12 0.116,0.265 0,0.145 -0.126,0.264 -0.28,0.264 -0.154,0 -0.206,-0.119 -0.116,-0.264 z m -2.117,-2.117 c 0.09,-0.146 0.216,-0.265 0.28,-0.265 0.064,0 0.117,0.12 0.117,0.265 0,0.145 -0.126,0.265 -0.28,0.265 -0.155,0 -0.207,-0.12 -0.117,-0.265 z"
         transform="matrix(0.53778,0,0,0.53778,-45.077,-22.985)"
         id="path14" />
    </g>
  </g>
</svg>
