<svg id="Layer_1" enable-background="new 0 0 256 256" height="512" viewBox="0 0 256 256" width="512" xmlns="http://www.w3.org/2000/svg"><g id="Layer_62"><g><circle cx="209" cy="42.9" fill="#f5c84c" r="3.1"/><circle cx="187" cy="225.9" fill="#70d6f9" r="3.1"/><circle cx="47" cy="160.9" fill="#70d6f9" r="3.1"/><path d="m65 198.9c-4.3.8-7.8 4.1-8.6 8.5 0 .1-.1.2-.2.2s-.1-.1-.2-.2c-.9-4.3-4.3-7.7-8.6-8.5-.1 0-.2-.1-.2-.2s.1-.1.2-.2c4.3-.8 7.8-4.1 8.6-8.5 0-.1.1-.2.2-.2s.1.1.2.2c.9 4.3 4.3 7.7 8.6 8.5.1 0 .2.1.2.2s-.1.2-.2.2z" fill="#f5c84c"/><path d="m202.9 17h-2.1v-2.1c0-1.6-1.3-2.9-2.9-2.9s-2.9 1.3-2.9 2.9v2.1h-2.1c-1.6 0-2.9 1.3-2.9 2.9s1.3 2.9 2.9 2.9h2.1v2.2c0 1.6 1.3 2.9 2.9 2.9s2.9-1.3 2.9-2.9v-2.1h2.1c1.6 0 2.9-1.3 2.9-2.9 0-1.7-1.3-3-2.9-3z" fill="#fc657e"/><g fill="#3a70bf"><path d="m77.2 49.8h-4.4c-5.4 0-9.8 4.4-9.8 9.8v111.3c0 5.4 4.4 9.8 9.8 9.8h4.4z"/><path d="m184.2 49.8h4.4c5.4 0 9.8 4.4 9.8 9.8v111.3c0 5.4-4.4 9.8-9.8 9.8h-4.4z"/><path d="m93 199.1h-3.3c-2.1 0-4.1-.5-6-1.5v8.4c0 3.4 2.8 6.2 6.2 6.2h3.1z"/><path d="m171.6 199.1h-3.3v13h3.1c3.4 0 6.2-2.8 6.2-6.2v-8.4c-1.9 1.1-3.9 1.6-6 1.6z"/></g><path d="m171.6 31.3h-18.8v20.5h-44.3v-20.5h-18.7c-6.9 0-12.6 5.6-12.6 12.6v142.6c0 6.9 5.6 12.6 12.6 12.6h81.8c6.9 0 12.6-5.6 12.6-12.6v-142.6c-.1-6.9-5.7-12.5-12.6-12.6z" fill="#5290db"/><circle cx="99.9" cy="119.6" fill="#edf4fc" r="7.1"/><circle cx="161.4" cy="119.6" fill="#fc657e" r="7.1"/><circle cx="140.9" cy="119.6" fill="#edf4fc" r="7.1"/><circle cx="120.4" cy="119.6" fill="#edf4fc" r="7.1"/><circle cx="99.9" cy="143.8" fill="#edf4fc" r="7.1"/><circle cx="161.4" cy="143.8" fill="#f5c84c" r="7.1"/><circle cx="140.9" cy="143.8" fill="#edf4fc" r="7.1"/><circle cx="120.4" cy="143.8" fill="#edf4fc" r="7.1"/><circle cx="99.9" cy="168" fill="#edf4fc" r="7.1"/><circle cx="161.4" cy="168" fill="#87d147" r="7.1"/><circle cx="140.9" cy="168" fill="#edf4fc" r="7.1"/><circle cx="120.4" cy="168" fill="#edf4fc" r="7.1"/><path d="m95.5 70.7h70.3c2.5 0 4.5 2 4.5 4.5v19.2c0 2.5-2 4.5-4.5 4.5h-70.3c-2.5.1-4.5-1.9-4.5-4.4v-19.3c0-2.5 2-4.5 4.5-4.5z" fill="#f5c84c"/><path d="m91 90v4.4c0 2.5 2 4.5 4.5 4.5h70.3c2.5 0 4.5-2 4.5-4.5v-4.4z" fill="#fc8c48"/><path d="m152.8 51.8v-47.8c0-.5-.4-1-1-1-.2 0-.3 0-.4.1l-5.5 2.8c-.3.1-.6.1-.9 0l-6.5-3.3c-.3-.1-.6-.1-.9 0l-6.5 3.3c-.3.1-.6.1-.9 0l-6.5-3.3c-.3-.1-.6-.1-.9 0l-6.5 3.3c-.3.1-.6.1-.9 0l-5.4-2.8c-.5-.2-1.1 0-1.3.4-.1.1-.1.3-.1.4v47.8h44.2z" fill="#edf4fc"/><path d="m93 199.1v49.6c0 2.6 2.1 4.8 4.8 4.8h65.7c2.6 0 4.8-2.1 4.8-4.8v-49.6z" fill="#3caadc"/><path d="m114.8 220.7c3.9 0 7.5 2 9.6 5.4 3.3-5.3 1.6-12.2-3.7-15.5s-12.2-1.6-15.5 3.7c-2.2 3.6-2.2 8.2 0 11.9 2-3.5 5.7-5.5 9.6-5.5z" fill="#fc657e"/><path d="m126 232c0-2.1-.6-4.1-1.7-5.9-3.2 5.3-10.2 7-15.5 3.7-1.5-.9-2.8-2.2-3.7-3.7-3.3 5.3-1.6 12.2 3.7 15.5s12.2 1.6 15.5-3.7c1.2-1.8 1.7-3.8 1.7-5.9z" fill="#f5c84c"/><path d="m114.8 231.4c3.9 0 7.5-2 9.6-5.4-3.2-5.3-10.2-7-15.5-3.7-1.5.9-2.8 2.2-3.7 3.7 2 3.4 5.7 5.4 9.6 5.4z" fill="#fc8c48"/><path d="m153.6 1c-1-.6-2.3-.7-3.4-.1l-4.8 2.4-5.8-2.9c-1-.5-2.2-.5-3.1 0l-5.8 2.9-5.8-2.9c-1-.5-2.2-.5-3.1 0l-5.8 2.9-4.8-2.4c-1.7-.9-3.8-.2-4.7 1.5-.2.5-.4 1-.4 1.6v24.8h-16.3c-8.3 0-15.1 6.8-15.1 15.1v3.3h-1.9c-6.8 0-12.3 5.5-12.3 12.3v111.3c0 6.8 5.5 12.3 12.3 12.3h1.9v3.3c0 5 2.5 9.7 6.6 12.5v7c0 4.8 3.9 8.7 8.7 8.7h.6v34.1c0 4 3.3 7.3 7.3 7.3h65.7c4 0 7.3-3.3 7.3-7.3v-34.1h.6c4.8 0 8.7-3.9 8.7-8.7v-7c4.1-2.8 6.6-7.5 6.6-12.5v-3.3h1.9c6.8 0 12.3-5.5 12.3-12.3v-111.2c0-6.8-5.5-12.3-12.3-12.3h-1.9v-3.3c0-8.3-6.8-15.1-15.1-15.1h-16.3v-24.9c-.1-1.2-.7-2.3-1.8-3zm-42.6 5.4 3.3 1.7c1 .5 2.1.5 3.1 0l5.8-2.9 5.8 2.9c1 .5 2.2.5 3.1 0l5.8-2.9 5.8 2.9c1 .5 2.2.5 3.1 0l3.3-1.7v42.9h-39.1zm-38.2 171.8c-4 0-7.3-3.3-7.3-7.3v-111.3c0-4 3.3-7.3 7.3-7.3h1.9v125.9zm17.2 31.5c-2 0-3.7-1.6-3.7-3.7v-4.8c1.4.3 2.8.4 4.2.4v8zm75.8 39c0 1.3-1 2.3-2.3 2.3h-65.7c-1.3 0-2.3-1-2.3-2.3v-47.1h45v32.9c0 1.4 1.1 2.5 2.5 2.5s2.5-1.1 2.5-2.5v-32.9h4.8v32.9c0 1.4 1.1 2.5 2.5 2.5s2.5-1.1 2.5-2.5v-32.9h10.5zm9.2-47.5v4.8c0 2-1.6 3.7-3.7 3.7h-.6v-8c1.5 0 2.9-.2 4.3-.5zm13.5-148.9c4 0 7.3 3.3 7.3 7.3v111.3c0 4-3.3 7.3-7.3 7.3h-1.9v-125.9zm-16.9-18.5c5.6 0 10.1 4.5 10.1 10.1v142.6c0 5.6-4.5 10.1-10.1 10.1h-81.8c-5.6 0-10.1-4.5-10.1-10.1v-142.6c0-5.6 4.5-10.1 10.1-10.1h16.2v15.5h-1.8c-1.4 0-2.5 1.1-2.5 2.5s1.1 2.5 2.5 2.5h52.8c1.4 0 2.5-1.1 2.5-2.5s-1.1-2.5-2.5-2.5h-1.8v-15.5z"/><path d="m125.4 63.7h10.6c1.4 0 2.5-1.1 2.5-2.5s-1.1-2.5-2.5-2.5h-10.6c-1.4 0-2.5 1.1-2.5 2.5s1.1 2.5 2.5 2.5z"/><path d="m135.9 183.7h-10.6c-1.4 0-2.5 1.1-2.5 2.5s1.1 2.5 2.5 2.5h10.6c1.4 0 2.5-1.1 2.5-2.5s-1.1-2.5-2.5-2.5z"/><path d="m118 32.2h2.4c1.4 0 2.5-1.1 2.5-2.5s-1.1-2.5-2.5-2.5h-2.4c-1.4 0-2.5 1.1-2.5 2.5s1.1 2.5 2.5 2.5z"/><path d="m128.6 32.2h13.6c1.4 0 2.5-1.1 2.5-2.5s-1.1-2.5-2.5-2.5h-13.6c-1.4 0-2.5 1.1-2.5 2.5s1.1 2.5 2.5 2.5z"/><path d="m118 22.4h2.4c1.4 0 2.5-1.1 2.5-2.5s-1.1-2.5-2.5-2.5h-2.4c-1.4 0-2.5 1.1-2.5 2.5s1.1 2.5 2.5 2.5z"/><path d="m128.6 22.4h13.6c1.4 0 2.5-1.1 2.5-2.5s-1.1-2.5-2.5-2.5h-13.6c-1.4 0-2.5 1.1-2.5 2.5s1.1 2.5 2.5 2.5z"/><path d="m118 41.9h2.4c1.4 0 2.5-1.1 2.5-2.5s-1.1-2.5-2.5-2.5h-2.4c-1.4 0-2.5 1.1-2.5 2.5s1.1 2.5 2.5 2.5z"/><path d="m128.6 41.9h13.6c1.4 0 2.5-1.1 2.5-2.5s-1.1-2.5-2.5-2.5h-13.6c-1.4 0-2.5 1.1-2.5 2.5s1.1 2.5 2.5 2.5z"/><path d="m114.8 206.4c-7.6 0-13.8 6.1-13.8 13.7 0 2.1.5 4.1 1.3 6-3.3 6.9-.4 15.1 6.5 18.4s15.1.4 18.4-6.5c1.8-3.8 1.8-8.1 0-11.9 3.3-6.8.4-15-6.5-18.3-1.8-1-3.9-1.4-5.9-1.4zm-6.5 19.7c3.2-3.6 8.7-3.8 12.3-.6l.6.6c-3.2 3.6-8.7 3.8-12.3.6-.2-.2-.4-.4-.6-.6zm6.5-14.7c4.8 0 8.8 3.9 8.8 8.8 0 .4 0 .8-.1 1.1-5.1-4.1-12.3-4.1-17.4 0-.6-4.8 2.8-9.2 7.6-9.8.3-.1.7-.1 1.1-.1zm0 29.3c-4.8 0-8.8-3.9-8.8-8.8 0-.4 0-.8.1-1.1 5.1 4.1 12.3 4.1 17.4 0 .6 4.8-2.8 9.2-7.6 9.8-.4.1-.7.1-1.1.1z"/><path d="m99.9 110c-5.3 0-9.6 4.3-9.6 9.6s4.3 9.6 9.6 9.6 9.6-4.3 9.6-9.6-4.3-9.6-9.6-9.6zm0 14.1c-2.5 0-4.6-2-4.6-4.6s2-4.6 4.6-4.6c2.5 0 4.6 2 4.6 4.6s-2.1 4.6-4.6 4.6z"/><path d="m161.4 110c-5.3 0-9.6 4.3-9.6 9.6s4.3 9.6 9.6 9.6 9.6-4.3 9.6-9.6c0-5.3-4.3-9.6-9.6-9.6zm0 14.1c-2.5 0-4.6-2-4.6-4.6 0-2.5 2-4.6 4.6-4.6 2.5 0 4.6 2 4.6 4.6s-2.1 4.6-4.6 4.6z"/><path d="m140.9 110c-5.3 0-9.6 4.3-9.6 9.6s4.3 9.6 9.6 9.6 9.6-4.3 9.6-9.6c0-5.3-4.3-9.6-9.6-9.6zm0 14.1c-2.5 0-4.6-2-4.6-4.6 0-2.5 2-4.6 4.6-4.6 2.5 0 4.6 2 4.6 4.6s-2.1 4.6-4.6 4.6z"/><path d="m120.4 129.1c5.3 0 9.6-4.3 9.6-9.6s-4.3-9.6-9.6-9.6-9.6 4.3-9.6 9.6c.1 5.4 4.3 9.6 9.6 9.6zm0-14.1c2.5 0 4.6 2 4.6 4.6s-2 4.6-4.6 4.6-4.6-2-4.6-4.6c.1-2.5 2.1-4.6 4.6-4.6z"/><path d="m99.9 134.2c-5.3 0-9.6 4.3-9.6 9.6s4.3 9.6 9.6 9.6 9.6-4.3 9.6-9.6-4.3-9.6-9.6-9.6zm0 14.1c-2.5 0-4.6-2-4.6-4.6s2-4.6 4.6-4.6c2.5 0 4.6 2 4.6 4.6s-2.1 4.6-4.6 4.6z"/><path d="m161.4 134.2c-5.3 0-9.6 4.3-9.6 9.6s4.3 9.6 9.6 9.6 9.6-4.3 9.6-9.6c0-5.3-4.3-9.6-9.6-9.6zm0 14.1c-2.5 0-4.6-2-4.6-4.6 0-2.5 2-4.6 4.6-4.6 2.5 0 4.6 2 4.6 4.6s-2.1 4.6-4.6 4.6z"/><path d="m140.9 134.2c-5.3 0-9.6 4.3-9.6 9.6s4.3 9.6 9.6 9.6 9.6-4.3 9.6-9.6c0-5.3-4.3-9.6-9.6-9.6zm0 14.1c-2.5 0-4.6-2-4.6-4.6 0-2.5 2-4.6 4.6-4.6 2.5 0 4.6 2 4.6 4.6s-2.1 4.6-4.6 4.6z"/><path d="m120.4 153.3c5.3 0 9.6-4.3 9.6-9.6s-4.3-9.6-9.6-9.6-9.6 4.3-9.6 9.6c.1 5.4 4.3 9.6 9.6 9.6zm0-14.1c2.5 0 4.6 2 4.6 4.6 0 2.5-2 4.6-4.6 4.6s-4.6-2-4.6-4.6c.1-2.5 2.1-4.6 4.6-4.6z"/><path d="m99.9 158.4c-5.3 0-9.6 4.3-9.6 9.6s4.3 9.6 9.6 9.6 9.6-4.3 9.6-9.6-4.3-9.6-9.6-9.6zm0 14.1c-2.5 0-4.6-2-4.6-4.6 0-2.5 2-4.6 4.6-4.6 2.5 0 4.6 2 4.6 4.6s-2.1 4.6-4.6 4.6z"/><path d="m161.4 158.4c-5.3 0-9.6 4.3-9.6 9.6s4.3 9.6 9.6 9.6 9.6-4.3 9.6-9.6-4.3-9.6-9.6-9.6zm0 14.1c-2.5 0-4.6-2-4.6-4.6 0-2.5 2-4.6 4.6-4.6 2.5 0 4.6 2 4.6 4.6 0 2.6-2.1 4.6-4.6 4.6z"/><path d="m140.9 158.4c-5.3 0-9.6 4.3-9.6 9.6s4.3 9.6 9.6 9.6 9.6-4.3 9.6-9.6-4.3-9.6-9.6-9.6zm0 14.1c-2.5 0-4.6-2-4.6-4.6 0-2.5 2-4.6 4.6-4.6 2.5 0 4.6 2 4.6 4.6 0 2.6-2.1 4.6-4.6 4.6z"/><path d="m130 168c0-5.3-4.3-9.6-9.6-9.6s-9.6 4.3-9.6 9.6 4.3 9.6 9.6 9.6c5.3-.1 9.6-4.3 9.6-9.6zm-9.6 4.5c-2.5 0-4.6-2-4.6-4.6 0-2.5 2-4.6 4.6-4.6 2.5 0 4.6 2 4.6 4.6s-2.1 4.6-4.6 4.6z"/><path d="m88.5 75.2v19.2c0 3.9 3.2 7 7 7h70.3c3.9 0 7-3.2 7-7v-19.2c0-3.9-3.2-7-7-7h-70.3c-3.9 0-7 3.1-7 7zm77.3 21.3h-70.3c-1.1 0-2-.9-2-2v-1.9h74.4v1.9c0 1.1-.9 2-2.1 2zm2.1-21.3v12.3h-74.4v-12.3c0-1.1.9-2 2-2h70.3c1.2 0 2.1.9 2.1 2z"/></g></g></svg>