<?xml version="1.0" encoding="UTF-8" standalone="no"?>
<!-- Generator: Adobe Illustrator 17.1.0, SVG Export Plug-In . SVG Version: 6.00 Build 0)  -->

<svg
   version="1.1"
   id="hand-package"
   x="0px"
   y="0px"
   viewBox="0 0 669.53845 669.53845"
   enable-background="new 0 0 1024 1024"
   xml:space="preserve"
   sodipodi:docname="hand-package_icon-icons.com_72240.svg"
   width="669.53845"
   height="669.53845"
   inkscape:version="1.1.1 (3bf5ae0d25, 2021-09-20)"
   xmlns:inkscape="http://www.inkscape.org/namespaces/inkscape"
   xmlns:sodipodi="http://sodipodi.sourceforge.net/DTD/sodipodi-0.dtd"
   xmlns="http://www.w3.org/2000/svg"
   xmlns:svg="http://www.w3.org/2000/svg"><defs
   id="defs59" /><sodipodi:namedview
   id="namedview57"
   pagecolor="#ffffff"
   bordercolor="#666666"
   borderopacity="1.0"
   inkscape:pageshadow="2"
   inkscape:pageopacity="0.0"
   inkscape:pagecheckerboard="0"
   showgrid="false"
   inkscape:zoom="0.8125"
   inkscape:cx="468.92308"
   inkscape:cy="499.07692"
   inkscape:window-width="2560"
   inkscape:window-height="1017"
   inkscape:window-x="-8"
   inkscape:window-y="-8"
   inkscape:window-maximized="1"
   inkscape:current-layer="hand-package" />
<g
   id="g54"
   transform="scale(0.65384615)"
   style="stroke-width:1.52941">
	<g
   id="hand-package-label"
   style="stroke-width:1.52941">
		<rect
   fill="#4ec0b5"
   width="1024"
   height="1024"
   id="rect2"
   x="0"
   y="0"
   style="stroke-width:2.3391" />
	</g>
	<g
   id="hand-package-hand-package"
   style="stroke-width:1.52941">
		<g
   id="hand-package-package"
   style="stroke-width:1.52941">
			<g
   id="g7"
   style="stroke-width:1.52941">
				<path
   fill="#ffffff"
   d="M 738.1797,586.2598 H 367.4199 c -5.6601,0 -10.2402,-4.5801 -10.2402,-10.2403 V 284.1401 c 0,-5.6601 4.5801,-10.2397 10.2402,-10.2397 h 391.5606 c 5.6591,0 10.2392,4.5796 10.2392,10.2397 v 273.5103 c 0,5.6601 -4.5801,10.2402 -10.2392,10.2402 -5.6602,0 -10.2403,-4.5801 -10.2403,-10.2402 V 294.3799 h -371.08 v 271.4004 h 360.5195 c 5.6601,0 10.2402,4.5801 10.2402,10.2392 0,5.6602 -4.5801,10.2403 -10.2402,10.2403 z"
   id="path5"
   style="stroke-width:2.3391" />
			</g>
			<g
   id="g11"
   style="stroke-width:1.52941">
				<path
   fill="#ffffff"
   d="m 373.4697,582.5605 c -1.5595,0 -3.1499,-0.3603 -4.6396,-1.121 -5.0401,-2.5694 -7.0401,-8.7295 -4.4702,-13.7696 l 72.0503,-141.3095 c 1.75,-3.4302 5.2695,-5.5904 9.1201,-5.5904 h 246.5898 c 4.0596,0 7.7393,2.3999 9.3701,6.1201 l 60.1602,136.73 c 2.2793,5.1699 -0.0703,11.2197 -5.25,13.4903 -5.2002,2.2802 -11.2305,-0.0704 -13.4902,-5.25 L 685.4395,441.25 H 451.7998 l -69.2002,135.7197 c -1.8096,3.5498 -5.3994,5.5908 -9.1299,5.5908 z"
   id="path9"
   style="stroke-width:2.3391" />
			</g>
			<g
   id="g15"
   style="stroke-width:1.52941">
				<path
   fill="#ffffff"
   d="m 692.1094,441.25 c -1.4199,0 -2.8594,-0.29 -4.2295,-0.9199 -5.1494,-2.3399 -7.4199,-8.4199 -5.0801,-13.5601 l 66.8604,-146.8696 c 2.3495,-5.1406 8.4296,-7.4307 13.5594,-5.0801 5.1505,2.3399 7.4199,8.4199 5.0801,13.5596 L 701.4395,435.25 c -1.7198,3.7695 -5.4395,6 -9.3301,6 z"
   id="path13"
   style="stroke-width:2.3391" />
			</g>
			<g
   id="g19"
   style="stroke-width:1.52941">
				<path
   fill="#ffffff"
   d="m 445.54,441.25 c -3.6699,0 -7.2099,-1.9697 -9.0498,-5.4297 L 358.3799,288.9502 c -2.6602,-4.9902 -0.7598,-11.2002 4.23,-13.8501 4.9799,-2.6899 11.1899,-0.7603 13.8501,4.23 l 78.1098,146.8701 c 2.6602,4.9897 0.7603,11.2002 -4.23,13.8496 -1.5297,0.8203 -3.1796,1.2002 -4.7998,1.2002 z"
   id="path17"
   style="stroke-width:2.3391" />
			</g>
		</g>
		<g
   id="hand-package-hand"
   style="stroke-width:1.52941">
			<g
   id="g24"
   style="stroke-width:1.52941">
				<path
   fill="#ffffff"
   d="m 560.52,750.0996 c -41.7397,0 -93.7602,-24.5801 -135.56,-44.3193 -26.21,-12.3799 -50.9698,-24.0801 -61.8999,-24.0801 -5.6602,0 -10.2398,-4.5801 -10.2398,-10.2402 0,-5.6602 4.5796,-10.2403 10.2398,-10.2403 15.52,0 39.8501,11.4903 70.6499,26.0401 39.9502,18.8701 89.6699,42.3603 126.81,42.3603 69.3501,0 227.9604,-88.4795 227.9604,-118.8398 0,-22.3799 -9.9307,-32.7997 -31.25,-32.7997 -7.0606,0 -26.3301,16.1699 -40.4004,27.9795 -29.4102,24.6601 -62.6602,52.6201 -91.1299,44.4599 -5.0498,-1.4502 -8.1807,-6.4902 -7.25,-11.6601 1.7695,-9.75 -0.25,-17.92 -6.1504,-24.9903 -17.3701,-20.789 -63.8599,-27.5097 -83.6602,-27.5097 -5.6596,0 -10.2397,-4.5801 -10.2397,-10.2403 0,-5.6591 4.5801,-10.2392 10.2397,-10.2392 19.5401,0 75.4903,6.2596 99.3799,34.8603 7.5,8.9795 11.3604,19.2198 11.541,30.5694 C 657.62,628.9005 682.83,607.7403 703.6601,590.2696 725.4805,571.96 742.7197,557.5 757.2305,557.5 c 32.8789,0 51.7296,19.4199 51.7296,53.2803 C 808.96,658.6797 632.7197,750.0996 560.52,750.0996 Z"
   id="path22"
   style="stroke-width:2.3391" />
			</g>
			<g
   id="g28"
   style="stroke-width:1.52941">
				<path
   fill="#ffffff"
   d="M 362.9697,709.8203 H 225.2803 c -5.6602,0 -10.2403,-4.5801 -10.2403,-10.2402 V 483.2197 c 0,-5.6592 4.5801,-10.2392 10.2403,-10.2392 h 137.6894 c 5.6602,0 10.2403,4.58 10.2403,10.2392 v 216.3604 c 0,5.6601 -4.5801,10.2402 -10.2403,10.2402 z M 235.52,689.3398 H 352.73 V 493.46 H 235.52 Z"
   id="path26"
   style="stroke-width:2.3391" />
			</g>
			<g
   id="g32"
   style="stroke-width:1.52941">
				<path
   fill="#ffffff"
   d="M 628.5303,650.8203 H 471.1602 c -5.6602,0 -10.2403,-4.5801 -10.2403,-10.2402 0,-5.6602 4.5801,-10.2403 10.2403,-10.2403 h 157.3701 c 5.6592,0 10.2392,4.5801 10.2392,10.2403 0,5.6601 -4.58,10.2402 -10.2392,10.2402 z"
   id="path30"
   style="stroke-width:2.3391" />
			</g>
			<g
   id="g50"
   style="stroke-width:1.52941">
				<g
   id="g36"
   style="stroke-width:1.52941">
					<path
   fill="#ffffff"
   d="M 361.6797,533.0605 H 237.21 c -5.6602,0 -10.2403,-4.58 -10.2403,-10.2402 0,-5.6601 4.5801,-10.2402 10.2403,-10.2402 h 124.4697 c 5.6601,0 10.2402,4.5801 10.2402,10.2402 0,5.6602 -4.5801,10.2402 -10.2402,10.2402 z"
   id="path34"
   style="stroke-width:2.3391" />
				</g>
				<g
   id="g40"
   style="stroke-width:1.52941">
					<path
   fill="#ffffff"
   d="M 361.6797,576.8799 H 237.21 c -5.6602,0 -10.2403,-4.5801 -10.2403,-10.2393 0,-5.6601 4.5801,-10.2402 10.2403,-10.2402 h 124.4697 c 5.6601,0 10.2402,4.5801 10.2402,10.2402 0,5.6592 -4.5801,10.2393 -10.2402,10.2393 z"
   id="path38"
   style="stroke-width:2.3391" />
				</g>
				<g
   id="g44"
   style="stroke-width:1.52941">
					<path
   fill="#ffffff"
   d="M 361.6797,620.6602 H 237.21 c -5.6602,0 -10.2403,-4.5801 -10.2403,-10.2403 0,-5.6601 4.5801,-10.2402 10.2403,-10.2402 h 124.4697 c 5.6601,0 10.2402,4.5801 10.2402,10.2402 0,5.6602 -4.5801,10.2403 -10.2402,10.2403 z"
   id="path42"
   style="stroke-width:2.3391" />
				</g>
				<g
   id="g48"
   style="stroke-width:1.52941">
					<path
   fill="#ffffff"
   d="M 361.6797,664.4805 H 237.21 c -5.6602,0 -10.2403,-4.5801 -10.2403,-10.2404 0,-5.6601 4.5801,-10.2402 10.2403,-10.2402 h 124.4697 c 5.6601,0 10.2402,4.5801 10.2402,10.2402 0,5.6603 -4.5801,10.2404 -10.2402,10.2404 z"
   id="path46"
   style="stroke-width:2.3391" />
				</g>
			</g>
		</g>
	</g>
</g>
</svg>
