<svg width="62" height="58" viewBox="0 0 62 58" fill="none" xmlns="http://www.w3.org/2000/svg">
<path d="M49.254 41.0923C49.254 41.0923 56.9046 41.4878 55.1226 43.8962C53.3406 46.3046 48.6582 42.4835 48.6582 42.4835L49.254 41.0923Z" fill="#FFB8B8"/>
<path d="M35.1551 18.1528L36.7123 18.5421C36.7123 18.5421 37.6207 21.2673 38.2695 23.7329C38.9184 26.1985 40.2161 33.5954 40.2161 33.5954L50.2768 40.6462L49.0768 43.3304L35.6742 38.0482L32.6895 26.3283L35.1551 18.1528Z" fill="#D9D9D9"/>
<path opacity="0.2" d="M36.6211 22.99L36.0407 35.1442L37.2519 38.7578L33.7041 36.1561L36.6211 22.99Z" fill="black"/>
<path d="M38.7238 44.5609C38.7238 44.5609 40.4108 49.1029 40.6703 52.2173C40.9298 55.3318 41.1894 57.7974 41.1894 57.7974H33.2734L31.7162 55.4616V57.7974H22.5026C22.5026 57.7974 19.9072 49.3624 20.9453 48.3242C21.9835 47.2861 31.846 42.8739 31.846 42.8739L38.7238 44.5609Z" fill="#2F2E41"/>
<path d="M53.8074 57.6792H8.00195V57.8368H53.8074V57.6792Z" fill="#E7E7E7"/>
<path d="M28.7975 13.2216C31.5209 13.2216 33.7287 11.0138 33.7287 8.29032C33.7287 5.56686 31.5209 3.35907 28.7975 3.35907C26.074 3.35907 23.8662 5.56686 23.8662 8.29032C23.8662 11.0138 26.074 13.2216 28.7975 13.2216Z" fill="#FFB8B8"/>
<path d="M25.0338 10.3666L24.6445 16.0765L29.5758 22.6947L32.0414 16.4658C32.0414 16.4658 29.8353 15.0383 31.133 12.0536L25.0338 10.3666Z" fill="#FFB8B8"/>
<path d="M39.4369 45.6639C39.4369 46.8323 36.1927 48.6487 36.1927 48.6487V49.2976L34.895 49.9464L32.0402 44.2369L31.2621 50.4652C31.2621 50.4652 25.5518 51.3742 23.7353 50.4652C21.9181 49.5569 21.0099 49.9464 18.4145 49.0382C15.8191 48.13 19.4528 35.9312 19.4528 35.9312L16.8574 17.1147L22.5275 14.2796L22.8263 14.1298L23.606 13.9863L24.8012 13.7656L28.796 16.4658L29.1177 18.153L29.3156 19.1913L30.3531 18.0229L31.1368 15.4457L36.7122 18.5425L35.1552 30.9998C35.1552 30.9998 39.4369 44.4963 39.4369 45.6639Z" fill="#D9D9D9"/>
<path d="M20.3621 49.6868C20.3621 49.6868 26.3316 54.4883 23.4766 55.3967C20.6217 56.3051 19.0645 50.4654 19.0645 50.4654L20.3621 49.6868Z" fill="#FFB8B8"/>
<path d="M18.1556 17.3742L16.8579 17.1147C16.8579 17.1147 14.9114 18.1528 14.7816 20.2291C14.6518 22.3055 12.9648 36.8397 12.9648 36.8397L18.4152 51.5036L22.8273 49.8166L18.5449 36.061L21.7892 24.1222L18.1556 17.3742Z" fill="#D9D9D9"/>
<path d="M29.3676 21.3344C29.6288 21.3344 29.8406 21.1226 29.8406 20.8614C29.8406 20.6001 29.6288 20.3883 29.3676 20.3883C29.1063 20.3883 28.8945 20.6001 28.8945 20.8614C28.8945 21.1226 29.1063 21.3344 29.3676 21.3344Z" fill="#2F2E41"/>
<path d="M29.3676 24.4091C29.6288 24.4091 29.8406 24.1973 29.8406 23.9361C29.8406 23.6748 29.6288 23.463 29.3676 23.463C29.1063 23.463 28.8945 23.6748 28.8945 23.9361C28.8945 24.1973 29.1063 24.4091 29.3676 24.4091Z" fill="#2F2E41"/>
<path d="M32.0482 44.6707C32.3095 44.6707 32.5213 44.4589 32.5213 44.1977C32.5213 43.9364 32.3095 43.7247 32.0482 43.7247C31.787 43.7247 31.5752 43.9364 31.5752 44.1977C31.5752 44.4589 31.787 44.6707 32.0482 44.6707Z" fill="#2F2E41"/>
<path d="M24.6344 3.23847L23.7228 2.87353C23.7228 2.87353 25.6288 0.775128 28.2806 0.957603L27.5348 0.136484C27.5348 0.136484 29.3579 -0.593389 31.0153 1.32254C31.8866 2.3297 32.8947 3.51356 33.5231 4.84717H34.4993L34.0919 5.74431L35.5179 6.64145L34.0542 6.4803C34.1414 6.97158 34.1548 7.47314 34.0939 7.96837C34.0311 8.46376 33.7783 8.91537 33.3889 9.22791C33.3889 9.22791 32.2584 6.88786 32.2584 6.52292V7.43527C32.2584 7.43527 31.3468 6.61416 31.3468 6.06675L30.8496 6.70539H27.5348L28.032 5.88428L26.126 6.15798L26.8719 5.1544L23.9208 9.29856C23.9208 9.29856 22.2311 4.60699 24.6344 3.23847Z" fill="#2F2E41"/>
<path d="M53.9571 38.1223C58.3113 38.1223 61.8411 34.5925 61.8411 30.2384C61.8411 25.8842 58.3113 22.3545 53.9571 22.3545C49.603 22.3545 46.0732 25.8842 46.0732 30.2384C46.0732 34.5925 49.603 38.1223 53.9571 38.1223Z" fill="#3F3D56"/>
<path opacity="0.1" d="M53.9569 37.0185C57.7015 37.0185 60.7371 33.9829 60.7371 30.2383C60.7371 26.4938 57.7015 23.4582 53.9569 23.4582C50.2123 23.4582 47.1768 26.4938 47.1768 30.2383C47.1768 33.9829 50.2123 37.0185 53.9569 37.0185Z" fill="white"/>
<path d="M53.6323 34.2392V33.2524C53.1335 33.2427 52.6174 33.0667 52.3164 32.8225L52.5228 32.1679C52.8805 32.4359 53.3143 32.5831 53.7613 32.588C54.372 32.588 54.7848 32.1874 54.7848 31.6305C54.7848 31.0931 54.4494 30.7609 53.8129 30.4677C52.9356 30.0769 52.3938 29.6275 52.3938 28.7774C52.3938 27.9665 52.9012 27.3509 53.6925 27.2044V26.2175H54.2258V27.1653C54.6234 27.1707 55.0112 27.2893 55.3439 27.5072L55.1288 28.1521C54.8098 27.9337 54.4318 27.8178 54.0452 27.8199C53.3829 27.8199 53.1335 28.2693 53.1335 28.6602C53.1335 29.1683 53.4517 29.4223 54.2 29.7741C55.0858 30.1844 55.5331 30.6925 55.5331 31.5621C55.5331 32.3339 55.0601 33.057 54.1742 33.223V34.2392H53.6323Z" fill="white"/>
<path opacity="0.2" d="M19.71 39.8035L22.8631 49.6531L20.3403 39.404L19.71 39.8035Z" fill="black"/>
<path d="M3.63322 20.5615H1.63176C1.54452 20.5614 1.46089 20.5267 1.39921 20.465C1.33753 20.4033 1.30283 20.3197 1.30273 20.2324V17.3554C1.30283 17.2681 1.33753 17.1845 1.39921 17.1228C1.46089 17.0611 1.54452 17.0264 1.63176 17.0263H3.63322C3.72045 17.0264 3.80409 17.0611 3.86577 17.1228C3.92745 17.1845 3.96215 17.2681 3.96224 17.3554V20.2324C3.96215 20.3197 3.92745 20.4033 3.86577 20.465C3.80409 20.5267 3.72045 20.5614 3.63322 20.5615ZM1.63176 17.184C1.58633 17.1841 1.54278 17.2021 1.51066 17.2343C1.47854 17.2664 1.46047 17.3099 1.46041 17.3554V20.2324C1.46047 20.2779 1.47854 20.3214 1.51066 20.3535C1.54278 20.3857 1.58633 20.4037 1.63176 20.4038H3.63322C3.67865 20.4037 3.7222 20.3857 3.75432 20.3535C3.78644 20.3214 3.80451 20.2779 3.80457 20.2324V17.3554C3.80451 17.3099 3.78644 17.2664 3.75432 17.2343C3.7222 17.2021 3.67865 17.1841 3.63322 17.184H1.63176Z" fill="#3F3D56"/>
<path d="M7.28914 20.5615H5.4817C5.36875 20.5614 5.26046 20.5164 5.18059 20.4366C5.10072 20.3567 5.0558 20.2484 5.05566 20.1355V14.3251C5.0558 14.2121 5.10072 14.1039 5.18059 14.024C5.26046 13.9441 5.36875 13.8992 5.4817 13.8991H7.28914C7.40209 13.8992 7.51038 13.9441 7.59025 14.024C7.67011 14.1039 7.71504 14.2121 7.71517 14.3251V20.1355C7.71504 20.2484 7.67011 20.3567 7.59025 20.4366C7.51038 20.5164 7.40209 20.5614 7.28914 20.5615ZM5.4817 14.0567C5.41055 14.0568 5.34234 14.0851 5.29203 14.1354C5.24172 14.1857 5.21342 14.2539 5.21334 14.3251V20.1355C5.21342 20.2066 5.24172 20.2748 5.29203 20.3251C5.34234 20.3754 5.41055 20.4037 5.4817 20.4038H7.28914C7.36029 20.4037 7.4285 20.3754 7.47881 20.3251C7.52912 20.2748 7.55742 20.2066 7.5575 20.1355V14.3251C7.55742 14.2539 7.52912 14.1857 7.47881 14.1354C7.4285 14.0851 7.36029 14.0568 7.28914 14.0567L5.4817 14.0567Z" fill="#3F3D56"/>
<path d="M10.9723 20.5615H9.30442C9.17296 20.5613 9.04693 20.509 8.95398 20.4161C8.86103 20.3231 8.80874 20.1971 8.80859 20.0657V11.5178C8.80874 11.3863 8.86103 11.2603 8.95398 11.1673C9.04693 11.0744 9.17296 11.0221 9.30442 11.022H10.9723C11.1037 11.0221 11.2298 11.0744 11.3227 11.1673C11.4157 11.2603 11.468 11.3863 11.4681 11.5178V20.0657C11.468 20.1971 11.4157 20.3231 11.3227 20.4161C11.2298 20.509 11.1037 20.5613 10.9723 20.5615ZM9.30442 11.1796C9.21477 11.1797 9.12882 11.2154 9.06542 11.2788C9.00203 11.3422 8.96637 11.4281 8.96627 11.5178V20.0657C8.96637 20.1553 9.00203 20.2413 9.06542 20.3047C9.12882 20.368 9.21477 20.4037 9.30442 20.4038H10.9723C11.0619 20.4037 11.1479 20.368 11.2113 20.3047C11.2747 20.2413 11.3103 20.1553 11.3104 20.0657V11.5178C11.3103 11.4281 11.2747 11.3422 11.2113 11.2788C11.1479 11.2154 11.0619 11.1797 10.9723 11.1796H9.30442Z" fill="#3F3D56"/>
<path d="M3.38488 17.5743H1.88379V20.0136H3.38488V17.5743Z" fill="white"/>
<path d="M7.13684 14.4783H5.63574V20.0136H7.13684V14.4783Z" fill="white"/>
<path d="M10.8898 11.6012H9.38867V20.0136H10.8898V11.6012Z" fill="white"/>
<path d="M57 11.495H46.5144C46.504 11.495 46.4938 11.493 46.4842 11.489C46.4746 11.4851 46.466 11.4792 46.4586 11.4719C46.4513 11.4646 46.4455 11.4559 46.4415 11.4463C46.4376 11.4368 46.4355 11.4265 46.4355 11.4162V0.7729C46.4355 0.751991 46.4438 0.731938 46.4586 0.717153C46.4734 0.702367 46.4935 0.694061 46.5144 0.694061C46.5353 0.694061 46.5553 0.702367 46.5701 0.717153C46.5849 0.731938 46.5932 0.751991 46.5932 0.7729V11.3373H57C57.0209 11.3373 57.0409 11.3456 57.0557 11.3604C57.0705 11.3752 57.0788 11.3953 57.0788 11.4162C57.0788 11.4371 57.0705 11.4571 57.0557 11.4719C57.0409 11.4867 57.0209 11.495 57 11.495Z" fill="#D8D8DB"/>
<path d="M12.5354 21.6653H0.078839C0.068485 21.6653 0.0582321 21.6632 0.0486657 21.6593C0.0390993 21.6553 0.0304068 21.6495 0.0230854 21.6422C0.0157639 21.6349 0.00995678 21.6262 0.0059957 21.6166C0.00203462 21.607 -2.69044e-06 21.5968 2.6665e-09 21.5864V9.20869C2.6665e-09 9.18778 0.00830618 9.16773 0.0230914 9.15294C0.0378766 9.13816 0.0579296 9.12985 0.078839 9.12985C0.0997485 9.12985 0.119802 9.13816 0.134587 9.15294C0.149372 9.16773 0.157678 9.18778 0.157678 9.20869V21.5076H12.5354C12.5563 21.5076 12.5764 21.5159 12.5912 21.5307C12.6059 21.5455 12.6142 21.5655 12.6142 21.5864C12.6142 21.6073 12.6059 21.6274 12.5912 21.6422C12.5764 21.657 12.5563 21.6653 12.5354 21.6653Z" fill="#DADADA"/>
<path d="M50.1333 10.5069H48.1318C48.0446 10.5069 47.9609 10.4722 47.8992 10.4105C47.8375 10.3488 47.8028 10.2652 47.8027 10.1779V7.30084C47.8028 7.2136 47.8375 7.12996 47.8992 7.06828C47.9609 7.0066 48.0446 6.97191 48.1318 6.97182H50.1333C50.2205 6.97192 50.3041 7.00662 50.3658 7.0683C50.4275 7.12998 50.4621 7.21361 50.4622 7.30084V10.1779C50.4621 10.2652 50.4275 10.3488 50.3658 10.4105C50.3041 10.4721 50.2205 10.5068 50.1333 10.5069ZM48.1318 7.1295C48.0864 7.12955 48.0428 7.14762 48.0107 7.17974C47.9786 7.21186 47.9605 7.25541 47.9604 7.30084V10.1779C47.9605 10.2234 47.9786 10.2669 48.0107 10.299C48.0428 10.3312 48.0864 10.3492 48.1318 10.3493H50.1333C50.1787 10.3492 50.2222 10.3311 50.2543 10.299C50.2865 10.2669 50.3045 10.2234 50.3046 10.1779V7.30084C50.3045 7.25542 50.2865 7.21187 50.2543 7.17975C50.2222 7.14762 50.1787 7.12955 50.1333 7.1295H48.1318Z" fill="#3F3D56"/>
<path d="M54.2323 10.507H52.3901C52.2818 10.5068 52.1779 10.4637 52.1013 10.3871C52.0247 10.3105 51.9816 10.2066 51.9814 10.0983V4.88703C51.9816 4.77868 52.0247 4.67481 52.1013 4.59819C52.1779 4.52158 52.2818 4.47848 52.3901 4.47836H54.2323C54.3406 4.47848 54.4445 4.52158 54.5211 4.59819C54.5977 4.67481 54.6408 4.77868 54.641 4.88703V10.0983C54.6408 10.2066 54.5977 10.3105 54.5211 10.3871C54.4445 10.4637 54.3406 10.5068 54.2323 10.507ZM52.3901 4.63604C52.3236 4.63611 52.2598 4.66258 52.2127 4.70963C52.1657 4.75669 52.1392 4.82049 52.1391 4.88703V10.0983C52.1392 10.1648 52.1656 10.2286 52.2127 10.2757C52.2598 10.3227 52.3236 10.3492 52.3901 10.3493H54.2323C54.2988 10.3492 54.3626 10.3227 54.4097 10.2757C54.4567 10.2286 54.4832 10.1648 54.4833 10.0983V4.88703C54.4832 4.82049 54.4567 4.75669 54.4097 4.70963C54.3626 4.66258 54.2988 4.63611 54.2323 4.63604H52.3901Z" fill="#3F3D56"/>
<path d="M49.8468 7.54701H48.3457V9.98629H49.8468V7.54701Z" fill="white"/>
<path d="M54.0616 5.13281H52.5605V9.85241H54.0616V5.13281Z" fill="white"/>
<path d="M49.1168 6.13392C49.5087 6.13392 49.8263 5.81624 49.8263 5.42436C49.8263 5.03249 49.5087 4.71481 49.1168 4.71481C48.7249 4.71481 48.4072 5.03249 48.4072 5.42436C48.4072 5.81624 48.7249 6.13392 49.1168 6.13392Z" fill="white"/>
<path d="M53.2955 3.4534C53.6874 3.4534 54.005 3.13573 54.005 2.74385C54.005 2.35198 53.6874 2.0343 53.2955 2.0343C52.9036 2.0343 52.5859 2.35198 52.5859 2.74385C52.5859 3.13573 52.9036 3.4534 53.2955 3.4534Z" fill="white"/>
</svg>
