<?xml version="1.0" encoding="UTF-8" standalone="no"?>
<svg
   width="300mm"
   height="300mm"
   viewBox="0 0 299.99982 300"
   version="1.1"
   id="svg14"
   sodipodi:docname="sicredi.svg"
   inkscape:version="1.1.1 (3bf5ae0d25, 2021-09-20)"
   xmlns:inkscape="http://www.inkscape.org/namespaces/inkscape"
   xmlns:sodipodi="http://sodipodi.sourceforge.net/DTD/sodipodi-0.dtd"
   xmlns="http://www.w3.org/2000/svg"
   xmlns:svg="http://www.w3.org/2000/svg">
  <defs
     id="defs18" />
  <sodipodi:namedview
     id="namedview16"
     pagecolor="#ffffff"
     bordercolor="#666666"
     borderopacity="1.0"
     inkscape:pageshadow="2"
     inkscape:pageopacity="0.0"
     inkscape:pagecheckerboard="0"
     inkscape:document-units="mm"
     showgrid="false"
     inkscape:zoom="0.40537946"
     inkscape:cx="-281.21799"
     inkscape:cy="497.06514"
     inkscape:window-width="2560"
     inkscape:window-height="1017"
     inkscape:window-x="-8"
     inkscape:window-y="-8"
     inkscape:window-maximized="1"
     inkscape:current-layer="svg14" />
  <path
     style="fill:#f2f2f2;stroke-width:0.158751;paint-order:markers stroke fill"
     d="M 0,-5e-6 H 300 V 300 H 0 Z"
     id="path2" />
  <g
     id="g840"
     transform="translate(0,11.275997)">
    <g
       style="stroke-width:0.428807"
       id="g8"
       transform="translate(4.8889509)">
      <path
         style="fill:#43b351;stroke-width:0.428807"
         d="m -18.14,127.982 c -3.052,-0.269 -8.417,-1.271 -9.151,-1.71 -0.218,-0.13 -0.257,-0.712 -0.245,-3.684 0.026,-6.398 1.168,-12.332 3.406,-17.7 1.113,-2.668 1.765,-3.785 2.792,-4.785 1.039,-1.01 1.792,-1.166 2.417,-0.5 0.551,0.586 0.55,0.585 1.182,4.17 1.382,7.844 3.09,13.806 6.088,21.264 0.531,1.321 0.93,2.436 0.887,2.478 -0.302,0.291 -5.58,0.626 -7.376,0.467 z m 18.776,-6.745 c -1.792,-1.274 -5.95,-5.247 -7.345,-7.015 -2.307,-2.928 -4.656,-6.965 -5.062,-8.698 -0.48,-2.056 -0.045,-3.152 1.251,-3.152 0.572,0 1.133,0.226 2.708,1.091 a 81.237,81.237 0 0 0 17.685,7.192 c 1.609,0.446 2.95,0.812 2.982,0.812 0.683,-0.001 -3.624,5.43 -5.926,7.472 -1.713,1.52 -4.174,3.32 -4.54,3.32 -0.174,0 -0.963,-0.46 -1.753,-1.022 z m -43.192,-4.943 c -3.314,-3.735 -6.302,-9.142 -7.491,-13.556 l -0.317,-1.177 0.602,-0.493 c 1.769,-1.448 5.89,-4.291 7.932,-5.474 6.2,-3.59 13.357,-6.14 17.254,-6.143 1.412,-0.002 2.268,0.285 2.69,0.902 0.41,0.6 0.128,1.463 -0.83,2.546 l -2.638,2.971 c -5.215,5.875 -10.055,12.645 -14.369,20.103 -0.59,1.02 -1.164,1.855 -1.274,1.854 -0.11,-0.002 -0.812,-0.691 -1.559,-1.533 z m 45.21,-14.941 c -1.896,-0.188 -4.214,-0.705 -5.098,-1.137 -0.871,-0.426 -1.576,-1.24 -1.576,-1.823 -0.001,-0.723 0.64,-1.335 2.044,-1.951 6.415,-2.818 11.97,-6.056 17.448,-10.171 1.09,-0.82 2.04,-1.436 2.111,-1.37 0.07,0.067 0.256,1.163 0.411,2.436 0.223,1.817 0.262,3.187 0.186,6.378 -0.124,5.172 -0.174,5.468 -0.975,5.832 -2.88,1.306 -10.298,2.227 -14.55,1.806 z M -2.535,89.954 c -0.564,-0.598 -0.515,-1.187 0.377,-4.514 1.945,-7.25 2.862,-12.8 3.451,-20.886 0.096,-1.317 0.208,-2.427 0.249,-2.467 0.26,-0.25 4.673,3.208 6.65,5.21 1.773,1.795 4.15,4.836 4.153,5.315 0.008,0.988 -2.706,6.387 -4.57,9.09 -2.419,3.51 -6.036,7.24 -7.876,8.124 -1.054,0.506 -2.028,0.557 -2.434,0.128 z m -48.112,-5.52 c 0,-0.424 1.16,-4.132 1.714,-5.474 1.84,-4.463 6.157,-10.884 7.317,-10.885 0.227,0 1.371,0.266 2.543,0.592 7.91,2.198 16.127,6.474 20.636,10.74 1.487,1.407 2.14,2.394 2.14,3.239 0.003,1.417 -0.65,1.597 -4.522,1.25 -8.512,-0.76 -16.373,-0.626 -26.16,0.447 -3.556,0.39 -3.668,0.393 -3.668,0.092 z m 42.206,-1.13 c -0.538,-0.213 -0.967,-0.743 -2.632,-3.25 -4.305,-6.479 -9.53,-12.809 -15.355,-18.605 -1.576,-1.568 -2.153,-2.245 -2.02,-2.373 0.299,-0.288 3.861,-1.273 6.048,-1.673 1.684,-0.307 2.641,-0.37 5.814,-0.379 2.089,-0.006 4.01,0.047 4.271,0.116 0.543,0.146 0.931,0.801 2.11,3.565 3.44,8.065 5.085,18.583 3.405,21.759 -0.472,0.89 -0.925,1.123 -1.64,0.84 z"
         transform="matrix(2.33205,0,0,2.33205,182.927,-107.557)"
         id="path4" />
      <path
         style="fill:#348b46;stroke-width:0.428807"
         d="m -27.36,125.678 c -0.157,-0.393 -0.124,-4.026 0.059,-6.315 0.453,-5.68 1.846,-11.284 3.932,-15.816 1.278,-2.778 2.58,-4.225 3.704,-4.117 0.892,0.086 1.095,0.588 1.758,4.36 0.336,1.914 0.895,4.675 1.242,6.134 0.347,1.46 0.666,2.854 0.709,3.099 0.063,0.36 -0.213,0.824 -1.431,2.406 -2.36,3.065 -4.284,5.273 -6.536,7.498 -2.58,2.549 -3.29,3.118 -3.437,2.751 z m 27.942,-4.696 c -6.191,-4.425 -12.742,-13.578 -12.32,-17.214 0.122,-1.05 0.38,-1.281 1.329,-1.192 0.556,0.052 1.333,0.377 2.678,1.121 1.042,0.577 3.386,1.745 5.209,2.596 l 3.314,1.547 0.275,1.198 c 0.498,2.164 0.979,5.216 1.149,7.287 0.201,2.449 0.23,5.768 0.05,5.768 -0.071,0 -0.83,-0.5 -1.684,-1.111 z m -42.662,-18.16 c -2.758,-0.227 -7.474,-0.97 -7.733,-1.218 -0.25,-0.239 3.189,-2.84 6.455,-4.885 6.27,-3.926 13.628,-6.792 18.106,-7.052 1.892,-0.11 2.785,0.088 3.213,0.715 0.488,0.713 0.092,1.436 -2.128,3.89 -1.998,2.207 -4.51,5.19 -6.175,7.333 -0.474,0.61 -0.977,1.154 -1.117,1.208 -0.579,0.223 -7.95,0.23 -10.62,0.01 z m 44.882,-1.645 c -4.203,-0.374 -6.648,-1.415 -6.65,-2.833 0,-0.739 0.703,-1.25 3.21,-2.332 a 68.282,68.282 0 0 0 4.38,-2.122 c 1.186,-0.639 2.48,-1.322 2.876,-1.518 l 0.72,-0.357 2.131,1.194 c 3.25,1.82 8.264,5.573 7.999,5.987 -0.16,0.25 -3.194,1.117 -5.18,1.48 -3.406,0.622 -6.364,0.778 -9.486,0.5 z M -2.44,89.884 c -0.469,-0.542 -0.405,-1.221 0.39,-4.169 a 143.37,143.37 0 0 0 1.46,-6.033 c 0.361,-1.687 0.722,-3.122 0.802,-3.19 0.282,-0.239 4.141,-1.811 5.87,-2.391 1.946,-0.653 5.87,-1.547 6.047,-1.378 0.307,0.295 -2.585,6.068 -4.352,8.684 -2.172,3.218 -5.36,6.647 -7.382,7.94 -1.107,0.707 -2.463,0.965 -2.834,0.537 z m -18.775,-6.18 c -1.234,-0.121 -4.142,-0.282 -6.46,-0.359 l -4.217,-0.138 -0.413,-0.481 c -1.433,-1.666 -4.081,-5.181 -5.263,-6.984 -1.612,-2.46 -4.219,-7.387 -3.953,-7.472 0.292,-0.094 4.92,1.256 7.084,2.066 2.652,0.993 6.787,2.915 8.809,4.094 5.44,3.171 9.162,6.5 9.157,8.19 -0.003,0.745 -0.132,0.948 -0.745,1.173 -0.575,0.21 -1.054,0.2 -3.999,-0.089 z m 12.658,-0.662 c -0.254,-0.132 -0.721,-0.63 -1.037,-1.107 -1.518,-2.286 -4.4,-6.378 -5.74,-8.154 -0.822,-1.086 -1.493,-2.136 -1.494,-2.332 0,-0.584 1.311,-5.51 1.945,-7.301 1.105,-3.127 2.75,-6.647 3.03,-6.481 0.225,0.134 1.811,3.768 2.607,5.977 1.547,4.29 2.467,8.457 2.8,12.672 0.291,3.682 -0.045,5.925 -0.996,6.645 -0.518,0.392 -0.517,0.392 -1.115,0.081 z"
         transform="matrix(2.33205,0,0,2.33205,182.927,-107.557)"
         id="path6" />
    </g>
    <g
       style="stroke-width:1.15267"
       id="g12"
       transform="translate(4.888692)">
      <path
         style="fill:#43b351;stroke-width:1.15267"
         d="m 105.32,116.156 c -10.692,-0.95 -14.354,-6.903 -12.07,-19.623 0.669,-3.731 1.633,-6.533 3.043,-8.844 0.315,-0.518 1.237,-1.588 2.049,-2.378 1.278,-1.244 1.716,-1.55 3.283,-2.287 a 18.642,18.642 0 0 1 3.787,-1.307 c 1.927,-0.444 2.112,-0.456 7.157,-0.463 3.28,-0.004 5.749,0.07 6.733,0.203 2.294,0.31 5.339,0.865 5.602,1.02 0.188,0.112 0.146,0.73 -0.234,3.43 -0.254,1.812 -0.502,3.427 -0.55,3.59 -0.084,0.28 -0.483,0.297 -6.678,0.284 -6.996,-0.015 -7.624,0.042 -9.234,0.833 -2.631,1.293 -4.045,5.254 -4.061,11.38 -0.007,2.779 0.018,3.033 0.376,3.674 0.497,0.889 1.083,1.32 2.279,1.674 1.557,0.462 9.902,0.315 13.955,-0.246 0.705,-0.097 0.733,-0.084 0.734,0.34 0,0.45 -0.79,6.184 -0.945,6.847 -0.095,0.41 -1.277,0.808 -3.792,1.28 -3.227,0.604 -8.326,0.87 -11.434,0.593 z m 63.654,0.013 c -3.57,-0.281 -6.038,-0.858 -8.12,-1.895 -2.937,-1.464 -4.767,-3.739 -5.736,-7.13 -0.362,-1.265 -0.399,-1.743 -0.402,-5.207 -0.005,-4.07 0.176,-5.63 1.03,-8.919 0.928,-3.568 2.07,-5.692 4.127,-7.672 1.638,-1.576 2.796,-2.266 5.054,-3.01 2.726,-0.897 4.137,-1.084 8.934,-1.185 3.493,-0.073 4.702,-0.038 6.288,0.184 5.744,0.803 8.884,2.977 9.697,6.713 0.263,1.21 0.102,4.925 -0.27,6.22 -1.277,4.448 -4.395,6.62 -10.722,7.467 -1.123,0.15 -4.434,0.448 -7.356,0.66 -3.325,0.242 -5.39,0.459 -5.516,0.58 -0.154,0.15 -0.153,0.419 0.006,1.143 0.496,2.256 1.826,3.258 4.651,3.503 1.762,0.152 8.35,-0.039 11.962,-0.347 1.281,-0.11 2.519,-0.206 2.75,-0.215 0.397,-0.015 0.434,0.07 0.727,1.643 0.17,0.912 0.476,2.31 0.682,3.107 0.206,0.797 0.335,1.547 0.288,1.667 -0.226,0.568 -5.68,1.865 -9.875,2.349 -2.297,0.264 -6.809,0.454 -8.2,0.344 z m 2.91,-20.308 c 2.041,-0.187 4.114,-0.45 4.606,-0.587 1.785,-0.495 2.648,-1.667 2.776,-3.769 0.092,-1.504 -0.142,-1.997 -1.136,-2.394 -0.904,-0.362 -6.334,-0.225 -7.496,0.19 -1.833,0.653 -2.929,2.15 -3.687,5.036 -0.481,1.83 -0.405,2.078 0.599,1.945 0.345,-0.046 2.297,-0.235 4.338,-0.421 z m 29.119,20.196 c -2.25,-0.335 -3.664,-0.986 -5.056,-2.328 -3.027,-2.915 -3.84,-8.858 -2.381,-17.381 1.058,-6.181 3.056,-10.494 5.9,-12.736 1.345,-1.06 3.126,-1.837 5.137,-2.24 1.545,-0.31 2.116,-0.333 6.19,-0.255 2.47,0.047 5.344,0.195 6.388,0.33 1.487,0.19 1.946,0.2 2.114,0.043 0.125,-0.118 0.626,-2.968 1.2,-6.831 l 0.986,-6.63 5.394,-0.05 5.395,-0.05 v 0.365 c 0,0.376 -6.604,45.81 -6.778,46.627 l -0.098,0.46 -4.258,-0.04 -4.259,-0.04 -0.05,-2.401 c -0.029,-1.321 -0.123,-2.47 -0.209,-2.552 -0.094,-0.09 -0.696,0.278 -1.504,0.923 -3.998,3.185 -7.446,4.638 -11.528,4.856 -0.855,0.046 -2.017,0.014 -2.583,-0.07 z m 6.97,-8.967 c 2.213,-0.347 5.151,-1.908 7.379,-3.92 l 1.076,-0.97 0.947,-6.63 c 0.52,-3.645 0.905,-6.732 0.854,-6.858 -0.146,-0.365 -8.108,-0.18 -9.41,0.219 -1.27,0.388 -2.564,1.646 -3.1,3.013 -1.173,3 -2.282,11.688 -1.735,13.606 0.436,1.529 1.485,1.934 3.99,1.54 z m -174.252,8.336 c -0.122,-0.19 1.078,-8.49 1.252,-8.658 0.064,-0.061 4.35,-0.148 9.525,-0.193 10.018,-0.086 10.382,-0.114 12.04,-0.937 1.248,-0.62 2.005,-2.097 2.218,-4.33 0.126,-1.323 -0.16,-2.099 -1,-2.709 -0.32,-0.232 -3.145,-1.401 -6.28,-2.599 -6.199,-2.368 -7.577,-2.978 -9.156,-4.053 -3.5,-2.382 -4.968,-5.93 -4.433,-10.716 0.77,-6.906 3.54,-10.627 9.052,-12.168 3.05,-0.853 4.536,-0.954 15.61,-1.058 5.655,-0.053 10.309,-0.032 10.39,0.047 0.08,0.079 -0.139,2.08 -0.49,4.456 l -0.636,4.313 -9.662,0.103 c -7.019,0.075 -9.84,0.16 -10.314,0.311 -1.499,0.477 -2.348,1.744 -2.703,4.036 -0.309,1.995 0.121,2.93 1.695,3.692 0.315,0.152 3.108,1.203 6.205,2.335 3.097,1.132 6.22,2.362 6.939,2.733 4.482,2.316 6.269,5.41 6.014,10.417 -0.263,5.176 -1.58,8.889 -3.984,11.226 -2.328,2.266 -5.452,3.31 -11.137,3.724 -3.07,0.223 -21.004,0.247 -21.145,0.028 z M 73.683,115.3 c 0,-0.304 4.586,-32.164 4.723,-32.806 l 0.097,-0.457 5.338,-0.006 5.338,-0.006 -0.007,0.54 c -0.004,0.296 -1.064,7.816 -2.355,16.712 l -2.346,16.173 -5.394,0.05 c -4.706,0.043 -5.394,0.017 -5.394,-0.2 z m 53.26,0.025 c -0.084,-0.13 4.317,-31.356 4.636,-32.894 l 0.095,-0.459 4.258,0.04 4.258,0.04 0.05,3.109 c 0.035,2.075 0.113,3.11 0.237,3.11 0.102,0 0.875,-0.559 1.719,-1.24 2.88,-2.327 5.703,-3.92 8.125,-4.582 1.375,-0.376 5.242,-0.669 5.127,-0.389 -0.037,0.089 -0.638,1.25 -1.337,2.582 a 42.821,42.821 0 0 0 -2.165,4.967 l -0.893,2.547 -1.973,0.11 c -2.062,0.114 -3.458,0.472 -5.25,1.349 -1.39,0.68 -3.005,1.909 -3.276,2.494 -0.137,0.295 -0.822,4.694 -1.521,9.774 -0.7,5.08 -1.323,9.317 -1.385,9.414 -0.148,0.23 -10.558,0.258 -10.706,0.028 z m 105.726,-0.083 c -0.013,-0.467 4.682,-32.713 4.806,-33.01 l 0.156,-0.373 5.259,-0.006 c 2.892,-0.003 5.29,0.05 5.327,0.118 0.07,0.126 -4.61,32.79 -4.753,33.176 -0.06,0.16 -1.305,0.209 -5.434,0.213 -2.947,0.003 -5.359,-0.05 -5.36,-0.118 z M 79.31,76.817 c -0.116,-0.11 1.106,-8.42 1.275,-8.672 0.106,-0.158 1.363,-0.209 5.313,-0.213 4.382,-0.005 5.19,0.031 5.271,0.237 0.083,0.205 -0.778,6.872 -1.065,8.258 l -0.095,0.456 -5.309,0.006 c -2.92,0.004 -5.345,-0.029 -5.39,-0.072 z m 159.013,-0.522 c 0,-0.736 1.037,-7.773 1.203,-8.162 l 0.16,-0.374 5.188,-0.006 c 4.611,-0.005 5.2,0.024 5.295,0.262 0.088,0.219 -0.784,7.01 -1.068,8.317 l -0.081,0.373 -5.348,0.006 -5.348,0.006 z"
         transform="matrix(0.86755,0,0,0.86755,21.968,151.157)"
         id="path10" />
    </g>
  </g>
</svg>
