<?xml version="1.0" encoding="UTF-8" standalone="no"?>
<svg
   version="1.1"
   id="svg11"
   width="300"
   height="300"
   sodipodi:docname="stone.svg"
   inkscape:version="1.1.1 (3bf5ae0d25, 2021-09-20)"
   xmlns:inkscape="http://www.inkscape.org/namespaces/inkscape"
   xmlns:sodipodi="http://sodipodi.sourceforge.net/DTD/sodipodi-0.dtd"
   xmlns="http://www.w3.org/2000/svg"
   xmlns:svg="http://www.w3.org/2000/svg">
  <sodipodi:namedview
     id="namedview12"
     pagecolor="#ffffff"
     bordercolor="#666666"
     borderopacity="1.0"
     inkscape:pageshadow="2"
     inkscape:pageopacity="0.0"
     inkscape:pagecheckerboard="0"
     showgrid="false"
     inkscape:zoom="1.5286269"
     inkscape:cx="-62.801459"
     inkscape:cy="148.82637"
     inkscape:window-width="2560"
     inkscape:window-height="1017"
     inkscape:window-x="-8"
     inkscape:window-y="-8"
     inkscape:window-maximized="1"
     inkscape:current-layer="svg11" />
  <defs
     id="defs4">
    <style
       id="style2">.cls-1{fill:#0db14b;fill-rule:evenodd}</style>
  </defs>
  <path
     style="fill:#f9f9f9;stroke-width:0.600001;paint-order:markers stroke fill"
     id="rect1064"
     d="M 0,5e-6 H 300 V 300 H 0 Z" />
  <g
     id="g941"
     data-name="Camada 2"
     transform="matrix(10.324268,0,0,10.364959,996.03979,-541.78851)"
     style="stroke-width:0.0966686">
    <g
       id="g939"
       data-name="Camada 1"
       style="stroke-width:0.0966686">
      <path
         id="path937"
         data-name="Caminho 289"
         class="cls-1"
         d="m -84.072,76.853 -8.88,-8.87 a 1.75,1.75 0 0 1 0,-2.47 l 8.88,-8.87 a 0.77,0.77 0 0 1 1.09,0 0.83,0.83 0 0 1 0.23,0.54 v 19.13 a 0.78,0.78 0 0 1 -0.78,0.77 0.74,0.74 0 0 1 -0.54,-0.23 z m 4,-20.45 a 10.36,10.36 0 0 1 0,20.67 0.76,0.76 0 0 1 -0.82,-0.7 v -4.21 a 0.76,0.76 0 0 1 0.64,-0.76 c 5.414,-0.754 5.414,-8.577 0,-9.33 a 0.75,0.75 0 0 1 -0.64,-0.76 v -4.14 a 0.77,0.77 0 0 1 0.75,-0.77 z"
         style="stroke-width:0.0966686" />
    </g>
  </g>
</svg>
