<svg width="135" height="127" viewBox="0 0 135 127" fill="none" xmlns="http://www.w3.org/2000/svg">
<path d="M81.5168 7.08919L12.1403 21.9248L32.7075 117.458L102.084 102.623L81.5168 7.08919Z" fill="#E0E0E0"/>
<g opacity="0.5">
<path opacity="0.5" d="M80.693 8.95485L13.6612 23.2891L33.5333 115.593L100.565 101.259L80.693 8.95485Z" fill="url(#paint0_linear)"/>
</g>
<path d="M79.9852 9.81685L14.6599 23.7861L34.0929 114.051L99.4182 100.082L79.9852 9.81685Z" fill="#FAFAFA"/>
<path d="M62.7692 9.40448L30.3621 16.3345L32.0465 24.1582L64.4535 17.2282L62.7692 9.40448Z" fill="url(#paint1_linear)"/>
<path d="M44.9195 5.22796C42.4175 5.76357 40.8344 8.26686 41.3848 10.8187C41.9353 13.3705 44.408 15.0081 46.9052 14.4725C49.4023 13.9369 50.9902 11.4336 50.4398 8.88177C49.8894 6.32993 47.4215 4.69235 44.9195 5.22796ZM46.4895 12.5259C45.9607 12.6515 45.4064 12.6175 44.8971 12.428C44.3878 12.2385 43.9466 11.9022 43.6299 11.4619C43.3131 11.0216 43.135 10.4972 43.1183 9.95571C43.1017 9.41417 43.2472 8.87995 43.5363 8.42114C43.8254 7.96232 44.245 7.59968 44.7417 7.37944C45.2384 7.1592 45.7896 7.09133 46.3251 7.18448C46.8607 7.27763 47.3562 7.52758 47.7487 7.90248C48.1411 8.27738 48.4127 8.76025 48.5288 9.28954C48.609 9.63553 48.6198 9.99391 48.5606 10.3441C48.5014 10.6943 48.3734 11.0293 48.1839 11.33C47.9944 11.6308 47.7472 11.8912 47.4564 12.0964C47.1656 12.3016 46.8371 12.4476 46.4895 12.5259Z" fill="url(#paint2_linear)"/>
<path d="M62.3555 9.14226L30.6311 15.9263L32.2412 23.4051L63.9656 16.6211L62.3555 9.14226Z" fill="#2D5DB9"/>
<path d="M44.9195 5.22857C44.0426 5.41615 43.2412 5.85866 42.6167 6.50016C41.9921 7.14166 41.5724 7.95333 41.4107 8.83253C41.249 9.71174 41.3525 10.619 41.7081 11.4396C42.0638 12.2601 42.6556 12.9572 43.4087 13.4426C44.1618 13.928 45.0424 14.1799 45.9392 14.1665C46.836 14.153 47.7086 13.8749 48.4468 13.3672C49.185 12.8595 49.7555 12.1451 50.0863 11.3143C50.417 10.4834 50.4932 9.57349 50.3051 8.69952C50.1802 8.11916 49.9418 7.56902 49.6035 7.08049C49.2652 6.59197 48.8337 6.17463 48.3336 5.85232C47.8335 5.53001 47.2746 5.30903 46.6888 5.20201C46.103 5.09498 45.5018 5.10401 44.9195 5.22857ZM46.4197 12.2028C45.9136 12.3111 45.3866 12.2673 44.9054 12.077C44.4242 11.8868 44.0105 11.5585 43.7165 11.1339C43.4225 10.7093 43.2614 10.2073 43.2537 9.69139C43.2459 9.17552 43.3919 8.66894 43.673 8.23574C43.9542 7.80253 44.3579 7.46214 44.8332 7.25763C45.3084 7.05312 45.8339 6.99366 46.343 7.08678C46.8522 7.1799 47.3222 7.42141 47.6937 7.78077C48.0651 8.14014 48.3213 8.60121 48.4298 9.10568C48.5753 9.78203 48.4452 10.4883 48.0683 11.0691C47.6913 11.6499 47.0984 12.0577 46.4197 12.2028Z" fill="#2D5DB9"/>
<path d="M113.745 18.918H42.7893V116.626H113.745V18.918Z" fill="#E0E0E0"/>
<g opacity="0.5">
<path opacity="0.5" d="M112.546 20.5703H43.989V114.975H112.546V20.5703Z" fill="url(#paint3_linear)"/>
</g>
<path d="M111.673 21.2656H44.8611V113.585H111.673V21.2656Z" fill="white"/>
<path d="M94.9271 17.2627H61.7825V25.2645H94.9271V17.2627Z" fill="url(#paint4_linear)"/>
<path d="M78.3546 9.45215C75.7958 9.45215 73.7208 11.5687 73.7208 14.1804C73.7208 16.7921 75.7958 18.9087 78.3546 18.9087C80.9134 18.9087 82.9884 16.7921 82.9884 14.1804C82.9884 11.5687 80.9134 9.45215 78.3546 9.45215ZM78.3546 16.9086C77.8106 16.9215 77.2751 16.7725 76.8165 16.4806C76.3578 16.1888 75.9969 15.7673 75.7797 15.2701C75.5625 14.7728 75.499 14.2224 75.5971 13.6889C75.6953 13.1555 75.9508 12.6634 76.3309 12.2753C76.711 11.8873 77.1985 11.6209 77.7313 11.5103C78.264 11.3997 78.8177 11.4498 79.3216 11.6543C79.8256 11.8587 80.2571 12.2082 80.5608 12.6582C80.8646 13.1081 81.0269 13.6381 81.0271 14.1804C81.0323 14.8932 80.754 15.579 80.2532 16.0878C79.7524 16.5967 79.0697 16.8871 78.3546 16.8957V16.9086Z" fill="url(#paint5_linear)"/>
<path d="M94.578 16.9194H62.1316V24.5685H94.578V16.9194Z" fill="#2D5DB9"/>
<path d="M78.3547 9.45215C77.4579 9.45215 76.5811 9.71721 75.8354 10.2138C75.0896 10.7104 74.5084 11.4163 74.1652 12.2421C73.8219 13.068 73.7321 13.9767 73.9071 14.8534C74.0821 15.7301 74.514 16.5354 75.1482 17.1674C75.7824 17.7995 76.5904 18.23 77.4701 18.4043C78.3497 18.5787 79.2615 18.4892 80.0901 18.1472C80.9188 17.8051 81.627 17.2258 82.1253 16.4826C82.6236 15.7393 82.8895 14.8655 82.8895 13.9717C82.8895 12.773 82.4118 11.6235 81.5613 10.7759C80.7109 9.92831 79.5574 9.45215 78.3547 9.45215ZM78.3547 16.5801C77.8375 16.5795 77.3321 16.4261 76.9022 16.1394C76.4724 15.8527 76.1374 15.4455 75.9396 14.9691C75.7418 14.4928 75.6901 13.9688 75.7909 13.4632C75.8918 12.9576 76.1406 12.4931 76.5062 12.1283C76.8717 11.7636 77.3374 11.515 77.8446 11.4139C78.3518 11.3128 78.8777 11.3637 79.3558 11.5602C79.834 11.7567 80.243 12.0901 80.5313 12.5181C80.8195 12.9461 80.974 13.4497 80.9753 13.9652C80.9751 14.3079 80.9071 14.6472 80.7753 14.9637C80.6434 15.2802 80.4503 15.5677 80.207 15.8098C79.9636 16.0518 79.6748 16.2438 79.357 16.3746C79.0392 16.5054 78.6986 16.5725 78.3547 16.572V16.5801Z" fill="#2D5DB9"/>
<g opacity="0.5">
<path opacity="0.5" d="M4.0076 119.267H3.39712V122.718H4.0076V119.267Z" fill="#47E6B1"/>
<path opacity="0.5" d="M5.43477 121.297V120.689H1.97159V121.297H5.43477Z" fill="#47E6B1"/>
</g>
<g opacity="0.5">
<path opacity="0.5" d="M74.833 0H74.2225V3.45153H74.833V0Z" fill="#47E6B1"/>
<path opacity="0.5" d="M76.2602 2.02932V1.4209L72.797 1.4209V2.02932H76.2602Z" fill="#47E6B1"/>
</g>
<path opacity="0.5" d="M126.112 125.012C125.943 124.939 125.808 124.807 125.731 124.641C125.654 124.475 125.641 124.286 125.695 124.111C125.703 124.084 125.709 124.057 125.711 124.029C125.716 123.948 125.694 123.869 125.65 123.802C125.606 123.734 125.542 123.683 125.466 123.655C125.391 123.628 125.308 123.625 125.231 123.647C125.153 123.67 125.086 123.717 125.037 123.781C125.02 123.804 125.006 123.828 124.995 123.854C124.921 124.022 124.789 124.157 124.622 124.233C124.455 124.31 124.266 124.323 124.09 124.27C124.064 124.261 124.036 124.256 124.008 124.254C123.927 124.249 123.847 124.27 123.78 124.314C123.712 124.358 123.661 124.422 123.633 124.497C123.605 124.573 123.602 124.655 123.625 124.732C123.648 124.809 123.695 124.877 123.759 124.925C123.782 124.942 123.806 124.956 123.832 124.967C124.001 125.04 124.136 125.172 124.213 125.339C124.29 125.505 124.303 125.693 124.25 125.868C124.241 125.895 124.235 125.923 124.233 125.951C124.228 126.031 124.25 126.111 124.294 126.178C124.338 126.245 124.402 126.296 124.478 126.324C124.554 126.352 124.636 126.355 124.713 126.332C124.791 126.309 124.859 126.263 124.907 126.199C124.924 126.176 124.938 126.152 124.949 126.126C125.023 125.958 125.155 125.823 125.322 125.746C125.489 125.669 125.678 125.657 125.854 125.71C125.881 125.718 125.908 125.724 125.936 125.726C126.017 125.731 126.097 125.71 126.164 125.666C126.232 125.622 126.283 125.558 126.311 125.482C126.339 125.407 126.342 125.325 126.319 125.248C126.296 125.171 126.249 125.103 126.185 125.055C126.162 125.038 126.138 125.024 126.112 125.012Z" fill="#4D8AF0"/>
<path opacity="0.5" d="M23.1078 91.8303C22.9394 91.7573 22.8039 91.6251 22.7269 91.4589C22.65 91.2927 22.637 91.1041 22.6905 90.929C22.6992 90.9022 22.7046 90.8745 22.7068 90.8465C22.7116 90.7663 22.6905 90.6868 22.6464 90.6196C22.6023 90.5523 22.5377 90.501 22.4621 90.4733C22.3866 90.4455 22.304 90.4427 22.2267 90.4653C22.1494 90.488 22.0815 90.5348 22.033 90.5989C22.0161 90.6214 22.0019 90.6459 21.9908 90.6717C21.9175 90.8395 21.7848 90.9746 21.6181 91.0513C21.4513 91.128 21.2621 91.1409 21.0864 91.0876C21.0595 91.079 21.0317 91.0735 21.0036 91.0714C20.9232 91.0666 20.8434 91.0877 20.7759 91.1316C20.7085 91.1755 20.657 91.2399 20.6291 91.3152C20.6013 91.3905 20.5985 91.4728 20.6212 91.5499C20.6439 91.6269 20.6909 91.6946 20.7552 91.7429C20.7778 91.7598 20.8023 91.7739 20.8282 91.785C20.9966 91.8581 21.1322 91.9903 21.2091 92.1565C21.2861 92.3227 21.299 92.5112 21.2455 92.6863C21.2369 92.7131 21.2314 92.7408 21.2293 92.7689C21.2244 92.849 21.2456 92.9286 21.2897 92.9958C21.3337 93.063 21.3983 93.1143 21.4739 93.1421C21.5495 93.1698 21.6321 93.1726 21.7094 93.15C21.7866 93.1274 21.8546 93.0805 21.9031 93.0164C21.92 92.9939 21.9341 92.9695 21.9453 92.9436C22.0186 92.7758 22.1512 92.6407 22.318 92.564C22.4848 92.4873 22.674 92.4744 22.8497 92.5278C22.8765 92.5364 22.9043 92.5418 22.9325 92.5439C23.0129 92.5488 23.0927 92.5277 23.1602 92.4837C23.2276 92.4398 23.2791 92.3754 23.3069 92.3001C23.3348 92.2248 23.3376 92.1425 23.3149 92.0655C23.2922 91.9884 23.2452 91.9207 23.1809 91.8724C23.1583 91.8556 23.1337 91.8414 23.1078 91.8303Z" fill="#FDD835"/>
<path opacity="0.5" d="M108.901 11.0325C108.733 10.9594 108.598 10.8272 108.521 10.661C108.444 10.4948 108.431 10.3062 108.484 10.1311C108.493 10.1044 108.498 10.0767 108.5 10.0486C108.505 9.96848 108.484 9.88891 108.44 9.8217C108.396 9.75448 108.331 9.70319 108.256 9.67542C108.18 9.64765 108.098 9.64487 108.02 9.66749C107.943 9.69012 107.875 9.73694 107.827 9.80104C107.81 9.82358 107.796 9.84802 107.784 9.87386C107.711 10.0417 107.578 10.1768 107.412 10.2535C107.245 10.3301 107.056 10.343 106.88 10.2897C106.853 10.2811 106.825 10.2757 106.797 10.2735C106.717 10.2687 106.637 10.2898 106.57 10.3337C106.502 10.3776 106.451 10.442 106.423 10.5174C106.395 10.5927 106.392 10.675 106.415 10.752C106.438 10.829 106.485 10.8967 106.549 10.9451C106.571 10.9619 106.596 10.976 106.622 10.9871C106.79 11.0602 106.926 11.1924 107.003 11.3586C107.08 11.5248 107.093 11.7134 107.039 11.8885C107.031 11.9152 107.025 11.9429 107.023 11.971C107.018 12.0511 107.039 12.1307 107.083 12.1979C107.127 12.2651 107.192 12.3164 107.268 12.3442C107.343 12.372 107.426 12.3747 107.503 12.3521C107.58 12.3295 107.648 12.2827 107.697 12.2186C107.714 12.196 107.728 12.1716 107.739 12.1458C107.812 11.9779 107.945 11.8428 108.112 11.7661C108.278 11.6895 108.468 11.6766 108.643 11.7299C108.67 11.7385 108.698 11.7439 108.726 11.7461C108.807 11.7509 108.886 11.7298 108.954 11.6859C109.021 11.642 109.073 11.5776 109.101 11.5023C109.128 11.4269 109.131 11.3446 109.109 11.2676C109.086 11.1906 109.039 11.1229 108.975 11.0745C108.952 11.0577 108.927 11.0436 108.901 11.0325Z" fill="#FDD835"/>
<path opacity="0.5" d="M132.86 52.1044C133.535 52.1044 134.082 51.5589 134.082 50.886C134.082 50.213 133.535 49.6675 132.86 49.6675C132.185 49.6675 131.637 50.213 131.637 50.886C131.637 51.5589 132.185 52.1044 132.86 52.1044Z" fill="#F55F44"/>
<path opacity="0.5" d="M38.3796 122.038C39.0548 122.038 39.6022 121.493 39.6022 120.82C39.6022 120.147 39.0548 119.601 38.3796 119.601C37.7044 119.601 37.157 120.147 37.157 120.82C37.157 121.493 37.7044 122.038 38.3796 122.038Z" fill="#F55F44"/>
<path opacity="0.5" d="M120.304 78.4423C120.98 78.4423 121.527 77.8968 121.527 77.2238C121.527 76.5509 120.98 76.0054 120.304 76.0054C119.629 76.0054 119.082 76.5509 119.082 77.2238C119.082 77.8968 119.629 78.4423 120.304 78.4423Z" fill="#F55F44"/>
<path opacity="0.5" d="M15.0659 16.8095C15.7411 16.8095 16.2885 16.264 16.2885 15.591C16.2885 14.9181 15.7411 14.3726 15.0659 14.3726C14.3907 14.3726 13.8433 14.9181 13.8433 15.591C13.8433 16.264 14.3907 16.8095 15.0659 16.8095Z" fill="#4D8AF0"/>
<path opacity="0.5" d="M2.1403 50.0483C2.81551 50.0483 3.36288 49.5027 3.36288 48.8298C3.36288 48.1569 2.81551 47.6113 2.1403 47.6113C1.46508 47.6113 0.917709 48.1569 0.917709 48.8298C0.917709 49.5027 1.46508 50.0483 2.1403 50.0483Z" fill="#47E6B1"/>
<g clip-path="url(#clip0)">
<path d="M69.7678 73.04L75.4725 67.3353L77.0571 68.92L71.3524 74.6247L69.7678 73.04Z" fill="#83A3AB"/>
<path d="M69.4509 72.7231L75.1556 67.0184L76.1064 67.9692L70.4017 73.6739L69.4509 72.7231Z" fill="#93B7C0"/>
<path d="M59.5727 80.7046L54.8181 89.263C56.3911 90.836 58.9506 90.8361 60.5237 89.263L62.4256 87.3612L59.5727 80.7046Z" fill="#93B7C0"/>
<path d="M56.72 81.6553L54.8182 83.5571C53.2451 85.1302 53.2452 87.6897 54.8182 89.2627L61.4747 82.6062L56.72 81.6553Z" fill="#ACD5DF"/>
<path d="M62.4255 87.3609L75.1607 74.6258L72.3079 71.7729L64.0385 76.2387L59.5727 84.5082L62.4255 87.3609Z" fill="#2D5DB9"/>
<path d="M56.7166 81.6523L69.4499 68.9191L72.3022 71.7715L59.569 84.5047L56.7166 81.6523Z" fill="#3B88F5"/>
<path d="M95.1955 48.8853L79.4576 54.1312L74.2117 69.8691C80.0062 75.6636 89.401 75.6636 95.1955 69.8691C100.99 64.0745 100.99 54.6798 95.1955 48.8853Z" fill="#93B7C0"/>
<path d="M74.2118 48.8855C68.4172 54.68 68.4172 64.0748 74.2118 69.8693L95.1956 48.8855C89.4011 43.0909 80.0063 43.0909 74.2118 48.8855Z" fill="#ACD5DF"/>
<path d="M91.3918 52.689L81.3595 56.0331L78.0153 66.0654C81.7091 69.7592 87.6979 69.7592 91.3918 66.0654C95.0857 62.3717 95.0856 56.3828 91.3918 52.689Z" fill="#C4F3FF"/>
<path d="M78.0155 52.6893C74.3217 56.383 74.3217 62.3719 78.0155 66.0657L91.3919 52.6893C87.6981 48.9955 81.7093 48.9955 78.0155 52.6893Z" fill="white"/>
</g>
<defs>
<linearGradient id="paint0_linear" x1="67.0483" y1="108.426" x2="47.304" y2="16.0948" gradientUnits="userSpaceOnUse">
<stop stop-color="#808080" stop-opacity="0.25"/>
<stop offset="0.54" stop-color="#808080" stop-opacity="0.12"/>
<stop offset="1" stop-color="#808080" stop-opacity="0.1"/>
</linearGradient>
<linearGradient id="paint1_linear" x1="17829.3" y1="-2313.79" x2="17746.6" y2="-2700.79" gradientUnits="userSpaceOnUse">
<stop stop-color="#808080" stop-opacity="0.25"/>
<stop offset="0.54" stop-color="#808080" stop-opacity="0.12"/>
<stop offset="1" stop-color="#808080" stop-opacity="0.1"/>
</linearGradient>
<linearGradient id="paint2_linear" x1="5206.86" y1="263.916" x2="5091.4" y2="-275.979" gradientUnits="userSpaceOnUse">
<stop stop-color="#808080" stop-opacity="0.25"/>
<stop offset="0.54" stop-color="#808080" stop-opacity="0.12"/>
<stop offset="1" stop-color="#808080" stop-opacity="0.1"/>
</linearGradient>
<linearGradient id="paint3_linear" x1="32704.8" y1="67098.2" x2="32704.8" y2="12021.3" gradientUnits="userSpaceOnUse">
<stop stop-color="#808080" stop-opacity="0.25"/>
<stop offset="0.54" stop-color="#808080" stop-opacity="0.12"/>
<stop offset="1" stop-color="#808080" stop-opacity="0.1"/>
</linearGradient>
<linearGradient id="paint4_linear" x1="15869.8" y1="1266.58" x2="15869.8" y2="870.895" gradientUnits="userSpaceOnUse">
<stop stop-color="#808080" stop-opacity="0.25"/>
<stop offset="0.54" stop-color="#808080" stop-opacity="0.12"/>
<stop offset="1" stop-color="#808080" stop-opacity="0.1"/>
</linearGradient>
<linearGradient id="paint5_linear" x1="6253.93" y1="1677.49" x2="6253.93" y2="1124.85" gradientUnits="userSpaceOnUse">
<stop stop-color="#808080" stop-opacity="0.25"/>
<stop offset="0.54" stop-color="#808080" stop-opacity="0.12"/>
<stop offset="1" stop-color="#808080" stop-opacity="0.1"/>
</linearGradient>
<clipPath id="clip0">
<rect width="45.9031" height="45.9031" fill="white" transform="translate(53.6382 44.5396)"/>
</clipPath>
</defs>
</svg>
