<svg width="26" height="28" viewBox="0 0 26 28" fill="none" xmlns="http://www.w3.org/2000/svg">
<path fill-rule="evenodd" clip-rule="evenodd" d="M9.70923 3.55919C9.94991 3.31851 10.2763 3.18331 10.6167 3.18331H15.3834C15.7237 3.18331 16.0501 3.31851 16.2908 3.55919C16.5315 3.79986 16.6667 4.12628 16.6667 4.46664V5.74997H9.33335V4.46664C9.33335 4.12628 9.46856 3.79986 9.70923 3.55919ZM18.8667 4.46664V5.74997H21.3417L21.3473 5.74999H23.725C24.3326 5.74999 24.825 6.24247 24.825 6.84999C24.825 7.4575 24.3326 7.94999 23.725 7.94999H22.4417V23.5333C22.4417 24.4571 22.0747 25.3431 21.4214 25.9964C20.7682 26.6496 19.8822 27.0166 18.9584 27.0166H7.04169C6.11785 27.0166 5.23185 26.6496 4.5786 25.9964C3.92535 25.3431 3.55835 24.4571 3.55835 23.5333V7.94999H2.27505C1.66754 7.94999 1.17505 7.4575 1.17505 6.84999C1.17505 6.24247 1.66754 5.74999 2.27505 5.74999H4.65278L4.65835 5.74997H7.13335V4.46664C7.13335 3.5428 7.50035 2.6568 8.1536 2.00355C8.80685 1.3503 9.69285 0.983307 10.6167 0.983307H15.3834C16.3072 0.983307 17.1932 1.3503 17.8464 2.00355C18.4997 2.6568 18.8667 3.5428 18.8667 4.46664ZM5.75835 7.94999V23.5333C5.75835 23.8737 5.89356 24.2001 6.13423 24.4408C6.37491 24.6814 6.70133 24.8166 7.04169 24.8166H18.9584C19.2987 24.8166 19.6251 24.6814 19.8658 24.4408C20.1065 24.2001 20.2417 23.8737 20.2417 23.5333V7.94997L5.75835 7.94999ZM10.6167 11.7083C11.2242 11.7083 11.7167 12.2008 11.7167 12.8083V19.9583C11.7167 20.5658 11.2242 21.0583 10.6167 21.0583C10.0092 21.0583 9.51669 20.5658 9.51669 19.9583V12.8083C9.51669 12.2008 10.0092 11.7083 10.6167 11.7083ZM16.4833 12.8083C16.4833 12.2008 15.9908 11.7083 15.3833 11.7083C14.7758 11.7083 14.2833 12.2008 14.2833 12.8083V19.9583C14.2833 20.5658 14.7758 21.0583 15.3833 21.0583C15.9908 21.0583 16.4833 20.5658 16.4833 19.9583V12.8083Z" fill="#279532"/>
</svg>
