<svg width="24" height="14" viewBox="0 0 24 14" fill="none" xmlns="http://www.w3.org/2000/svg">
<path d="M12 0C7.11539 0 2.88039 2.8448 0.799988 7C2.88039 11.1552 7.11539 14 12 14C16.8846 14 21.1196 11.1552 23.2 7C21.1196 2.8448 16.8846 0 12 0ZM17.523 3.7128C18.839 4.5528 19.9548 5.677 20.792 7C19.9574 8.32286 18.8412 9.44528 17.523 10.2872C15.8739 11.3409 13.9577 11.9008 12.0007 11.9008C10.0437 11.9008 8.12751 11.3409 6.47839 10.2872C5.16079 9.44452 4.04474 8.32226 3.20939 7C4.09893 5.59039 5.30745 4.40969 6.73739 3.5532C6.42965 4.39915 6.33038 5.30681 6.44799 6.19928C6.5656 7.09174 6.89662 7.9427 7.41301 8.68004C7.92939 9.41738 8.61592 10.0194 9.4144 10.435C10.2129 10.8506 11.0998 11.0676 12 11.0676C12.9002 11.0676 13.7871 10.8506 14.5856 10.435C15.3841 10.0194 16.0706 9.41738 16.587 8.68004C17.1034 7.9427 17.4344 7.09174 17.552 6.19928C17.6696 5.30681 17.5703 4.39915 17.2626 3.5532C17.3494 3.605 17.4362 3.6582 17.5216 3.7128H17.523ZM12 4.9C11.9998 5.45714 11.7783 5.99139 11.3842 6.38521C10.9901 6.77904 10.4557 7.00019 9.89859 7C9.34145 6.99981 8.8072 6.77831 8.41337 6.38422C8.01955 5.99014 7.7984 5.45574 7.79859 4.8986C7.79877 4.34146 8.02027 3.80721 8.41436 3.41339C8.80845 3.01956 9.34285 2.79841 9.89999 2.7986C10.4571 2.79879 10.9914 3.02029 11.3852 3.41438C11.779 3.80846 12.0002 4.34286 12 4.9Z" fill="white"/>
</svg>
