<?xml version="1.0" encoding="UTF-8" standalone="no"?>
<!-- Created with Inkscape (http://www.inkscape.org/) -->

<svg
   width="189.90866mm"
   height="189.55168mm"
   viewBox="0 0 189.90866 189.55168"
   version="1.1"
   id="svg5"
   inkscape:version="1.1.1 (3bf5ae0d25, 2021-09-20)"
   sodipodi:docname="caixa_.svg"
   xmlns:inkscape="http://www.inkscape.org/namespaces/inkscape"
   xmlns:sodipodi="http://sodipodi.sourceforge.net/DTD/sodipodi-0.dtd"
   xmlns="http://www.w3.org/2000/svg"
   xmlns:svg="http://www.w3.org/2000/svg">
  <sodipodi:namedview
     id="namedview7"
     pagecolor="#ffffff"
     bordercolor="#666666"
     borderopacity="1.0"
     inkscape:pageshadow="2"
     inkscape:pageopacity="0.0"
     inkscape:pagecheckerboard="0"
     inkscape:document-units="mm"
     showgrid="false"
     inkscape:zoom="0.74118967"
     inkscape:cx="304.9152"
     inkscape:cy="347.41445"
     inkscape:window-width="2560"
     inkscape:window-height="1017"
     inkscape:window-x="-8"
     inkscape:window-y="-8"
     inkscape:window-maximized="1"
     inkscape:current-layer="layer1" />
  <defs
     id="defs2" />
  <g
     inkscape:label="Camada 1"
     inkscape:groupmode="layer"
     id="layer1"
     transform="translate(-23.864182,-20.116005)">
    <rect
       style="fill:#cccccc;fill-opacity:1;stroke-width:0.264583"
       id="rect1670"
       width="189.90866"
       height="189.55168"
       x="23.864182"
       y="20.116005" />
    <g
       id="g1268"
       transform="translate(24.98798,-6.7824521)">
      <path
         style="fill:#eae8ea;stroke-width:0.264583"
         d="m 145.86971,180.91835 c 0.26339,-0.29105 0.53842,-0.52917 0.61118,-0.52917 0.0728,0 -0.0832,0.23812 -0.34659,0.52917 -0.26339,0.29104 -0.53843,0.52916 -0.61119,0.52916 -0.0728,0 0.0832,-0.23812 0.3466,-0.52916 z M 46.811769,169.44332 c -0.213508,-0.25726 -0.281426,-2.3729 -0.231483,-7.21067 l 0.07068,-6.84659 40.964136,-0.067 40.964138,-0.067 1.94622,2.06885 c 1.07042,1.13786 2.4335,2.40653 3.02906,2.81925 l 1.08283,0.7504 -0.0724,4.39148 -0.0724,4.39148 -43.689352,0.0669 c -36.823056,0.0564 -43.736836,0.01 -43.99151,-0.29716 z m 46.640114,-5.22805 c 0.968618,-0.44133 1.422275,-1.69967 0.92937,-2.57784 -0.212228,-0.37811 -0.679924,-0.83627 -1.039329,-1.01813 -0.811284,-0.41051 -4.120977,-0.43954 -5.249772,-0.046 -1.475293,0.51429 -1.830726,2.16814 -0.707379,3.29149 0.593291,0.59329 0.855244,0.64943 3.030257,0.64943 1.309454,0 2.676038,-0.13451 3.036853,-0.29891 z m 52.645507,2.68016 c 0,-1.38245 0.0446,-1.948 0.0991,-1.25677 0.0545,0.69122 0.0545,1.82232 0,2.51354 -0.0545,0.69122 -0.0991,0.12568 -0.0991,-1.25677 z m 15.11815,-7.9375 c 0.26339,-0.29104 0.53843,-0.52917 0.61119,-0.52917 0.0728,0 -0.0832,0.23813 -0.3466,0.52917 -0.26339,0.29104 -0.53842,0.52917 -0.61118,0.52917 -0.0728,0 0.0832,-0.23813 0.34659,-0.52917 z m 1.85209,-1.85208 c 0.26339,-0.29105 0.53842,-0.52917 0.61118,-0.52917 0.0728,0 -0.0832,0.23812 -0.3466,0.52917 -0.26339,0.29104 -0.53842,0.52916 -0.61118,0.52916 -0.0728,0 0.0832,-0.23812 0.3466,-0.52916 z m -5.19313,-31.41927 c -0.3291,-0.41965 -0.31975,-0.42901 0.0999,-0.0999 0.44073,0.34564 0.58089,0.56292 0.36312,0.56292 -0.0549,0 -0.2633,-0.20836 -0.46302,-0.46302 z M 44.260462,102.99856 c 4.5e-5,-7.567085 0.0339,-10.624594 0.07524,-6.794468 0.04134,3.830128 0.0413,10.021378 -8.1e-5,13.758328 -0.04138,3.73696 -0.07521,0.60322 -0.07516,-6.96386 z M 64.450582,85.073038 64.378049,64.898559 63.532055,63.112622 62.68606,61.326685 h 6.567416 c 7.309797,0 8.177368,0.147779 9.774126,1.664899 0.491254,0.466753 1.11416,1.324892 1.384236,1.906975 0.464256,1.000591 0.491363,2.13018 0.496858,20.703645 l 0.0058,19.645316 H 72.718811 64.523115 Z M 75.70638,96.208466 c 1.379871,-0.734923 1.647105,-2.218941 0.589944,-3.2761 -0.616818,-0.61682 -0.80768,-0.649433 -3.800777,-0.649433 -2.787499,0 -3.231835,0.06331 -3.848483,0.54837 -1.118066,0.87947 -0.855977,2.894505 0.444635,3.418533 0.868074,0.349755 5.939872,0.318035 6.614681,-0.04137 z m 0.734181,-9.974114 c 0.656048,-0.811138 0.64302,-1.905783 -0.03129,-2.629575 -0.740604,-0.794945 -1.393087,-0.909682 -4.579377,-0.805254 -3.261254,0.106884 -3.879966,0.441259 -3.879966,2.096881 0,0.772152 0.163663,1.126858 0.72291,1.566762 0.666967,0.524637 0.97595,0.561954 3.992719,0.482227 3.065253,-0.08101 3.301415,-0.125494 3.775008,-0.711041 z m -0.144237,-9.417518 c 0.79367,-0.793668 0.8285,-1.697389 0.101063,-2.622177 -0.541888,-0.6889 -0.588799,-0.69714 -3.96875,-0.69714 -3.067603,0 -3.474958,0.05458 -3.949546,0.529167 -0.707914,0.707914 -0.686054,2.047854 0.04612,2.827218 0.541216,0.576096 0.769149,0.612365 3.848486,0.612365 3.12247,0 3.303103,-0.02991 3.922627,-0.649433 z m 21.404304,28.090336 c -0.07291,-0.19 -0.09938,-2.06638 -0.05882,-4.16974 l 0.07374,-3.824289 h 12.832292 12.83229 v 4.101039 4.10104 l -12.77347,0.0687 c -10.31379,0.0555 -12.798999,0.002 -12.906032,-0.27675 z M 46.254092,85.006892 c 0.341774,-0.363802 0.680939,-0.661458 0.753699,-0.661458 0.07276,0 -0.147342,0.297656 -0.489116,0.661458 -0.341774,0.363802 -0.680939,0.661458 -0.753699,0.661458 -0.07276,0 0.147342,-0.297656 0.489116,-0.661458 z M 60.38215,81.170434 c 0,-2.110052 0.04109,-2.973255 0.09131,-1.918229 0.05022,1.055026 0.05022,2.781432 0,3.836458 -0.05022,1.055026 -0.09131,0.191823 -0.09131,-1.918229 z m 48.16213,-4.233333 c 0,-3.274219 0.038,-4.613672 0.0844,-2.976563 0.0464,1.637109 0.0464,4.316016 0,5.953125 -0.0464,1.637109 -0.0844,0.297656 -0.0844,-2.976562 z m 4.12023,0 v -5.820833 h 2.51354 2.51354 v 5.820833 5.820833 h -2.51354 -2.51354 z M 44.632843,76.738663 c -0.329108,-0.419645 -0.319749,-0.429003 0.09989,-0.0999 0.254661,0.199721 0.46302,0.40808 0.46302,0.463021 0,0.217762 -0.217272,0.07761 -0.562915,-0.363125 z m -0.385594,-5.622395 c 0,-2.692136 0.03929,-3.793464 0.08731,-2.447396 0.04802,1.346067 0.04802,3.548724 0,4.894791 -0.04802,1.346068 -0.08731,0.24474 -0.08731,-2.447395 z m 4.169605,-1.516325 c 0.100008,-4.121008 0.302856,-4.910951 1.638499,-6.380778 1.719275,-1.891999 5.102768,-2.358492 7.383309,-1.017959 2.422683,1.424085 3.171673,3.455436 3.046321,8.261989 l -0.07568,2.902031 -6.043638,0.07117 -6.043638,0.07118 z M 93.466236,59.34231 c 1.32e-4,-4.074583 0.03686,-5.704489 0.08162,-3.622013 0.04476,2.082476 0.04465,5.416226 -2.44e-4,7.408333 -0.04489,1.992107 -0.08151,0.288263 -0.08138,-3.78632 z M 81.93909,60.069914 c -0.329108,-0.419644 -0.319749,-0.429002 0.0999,-0.09989 0.440729,0.345644 0.580887,0.562916 0.363124,0.562916 -0.05494,0 -0.2633,-0.20836 -0.46302,-0.463021 z m -22.900954,-2.91019 c 3.174923,-0.04224 8.29461,-0.04218 11.377083,1.14e-4 3.082472,0.0423 0.484809,0.07685 -5.772587,0.07679 -6.257395,-6.3e-5 -8.779418,-0.03467 -5.604496,-0.07691 z m 76.487684,-8.334601 -0.50402,-0.595313 0.59531,0.504028 c 0.32742,0.277216 0.59531,0.545106 0.59531,0.595313 0,0.211733 -0.21293,0.05542 -0.6866,-0.504028 z"
         id="path1282" />
      <path
         style="fill:#7bb0f9;stroke-width:0.264583"
         d="m 89.57961,160.3517 c 0.618464,-0.0557 1.630495,-0.0557 2.248959,0 0.618463,0.0557 0.112448,0.10128 -1.124479,0.10128 -1.236928,0 -1.742943,-0.0456 -1.12448,-0.10128 z m 72.29739,-2.02283 c 0,-0.0549 0.20836,-0.2633 0.46302,-0.46302 0.41965,-0.32911 0.42901,-0.31975 0.0999,0.0999 -0.34564,0.44073 -0.56292,0.58089 -0.56292,0.36313 z m -92.385082,-3.27352 c 9.943147,-0.0384 26.135646,-0.0384 35.983332,1e-5 9.84768,0.0384 1.71238,0.0699 -18.078452,0.0699 -19.790832,-1e-5 -27.848029,-0.0315 -17.90488,-0.0699 z M 38.578513,141.56158 c -0.0015,-0.10914 2.038615,-5.15151 4.533509,-11.20526 l 4.536171,-11.00681 3.73472,-0.17086 c 2.054096,-0.094 21.374254,-0.1713 42.933683,-0.17183 l 39.198964,-9.7e-4 0.9122,2.18281 0.91219,2.18281 -0.95283,0.64141 c -5.39764,3.63344 -8.89184,9.48084 -9.69596,16.22578 l -0.18138,1.52135 h -42.9643 c -23.630368,0 -42.965503,-0.0893 -42.966967,-0.19843 z m 30.958911,-5.6224 c 0.707914,-0.70791 0.686054,-2.04785 -0.04612,-2.82722 -0.52873,-0.5628 -0.794639,-0.61236 -3.285654,-0.61236 -1.490699,0 -2.903098,0.074 -3.138664,0.16435 -0.630214,0.24184 -1.259811,1.61542 -1.052523,2.29627 0.417015,1.36971 0.783405,1.50813 3.992094,1.50813 2.648923,0 3.063891,-0.0622 3.530867,-0.52917 z m 16.404166,0 c 0.707914,-0.70791 0.686054,-2.04785 -0.04612,-2.82722 -0.52873,-0.5628 -0.794639,-0.61236 -3.285654,-0.61236 -1.490699,0 -2.903098,0.074 -3.138664,0.16435 -0.630214,0.24184 -1.259811,1.61542 -1.052523,2.29627 0.417015,1.36971 0.783404,1.50813 3.992094,1.50813 2.648923,0 3.06389,-0.0622 3.530867,-0.52917 z m 16.40417,0 c 0.70791,-0.70791 0.68605,-2.04785 -0.0461,-2.82722 -0.52873,-0.5628 -0.79464,-0.61236 -3.285658,-0.61236 -1.490699,0 -2.903098,0.074 -3.138664,0.16435 -0.630214,0.24184 -1.259811,1.61542 -1.052523,2.29627 0.417015,1.36971 0.783404,1.50813 3.992094,1.50813 2.648921,0 3.063891,-0.0622 3.530871,-0.52917 z m 16.40416,0 c 0.70792,-0.70791 0.68606,-2.04785 -0.0461,-2.82722 -0.52873,-0.5628 -0.79464,-0.61236 -3.28565,-0.61236 -1.4907,0 -2.9031,0.074 -3.13867,0.16435 -0.63021,0.24184 -1.25981,1.61542 -1.05252,2.29627 0.41702,1.36971 0.78341,1.50813 3.99209,1.50813 2.64893,0 3.0639,-0.0622 3.53087,-0.52917 z m -49.295694,-8.77737 c 0.784857,-0.73733 0.801261,-1.96766 0.03708,-2.7811 -0.531921,-0.5662 -0.788995,-0.61236 -3.410272,-0.61236 -3.383992,0 -4.057774,0.3295 -4.057774,1.98437 0,1.65015 0.677206,1.98438 4.020695,1.98438 2.50853,0 2.861241,-0.0595 3.410273,-0.57529 z m 16.404166,0 c 0.784857,-0.73733 0.801261,-1.96766 0.03708,-2.7811 -0.53119,-0.56542 -0.790334,-0.61236 -3.380713,-0.61236 -3.068127,0 -3.789143,0.2559 -4.089172,1.45132 -0.180549,0.71935 0.391392,2.11076 0.962001,2.34035 0.184962,0.0744 1.578779,0.1447 3.097368,0.15619 2.486737,0.0188 2.821916,-0.0363 3.373438,-0.5544 z m 16.404168,0 c 0.78485,-0.73733 0.80126,-1.96766 0.0371,-2.7811 -0.53119,-0.56542 -0.79034,-0.61236 -3.380717,-0.61236 -3.068127,0 -3.789143,0.2559 -4.089173,1.45132 -0.180549,0.71935 0.391393,2.11076 0.962002,2.34035 0.184962,0.0744 1.578779,0.1447 3.097368,0.15619 2.48674,0.0188 2.82192,-0.0363 3.37344,-0.5544 z m 16.40416,0 c 0.78486,-0.73733 0.80126,-1.96766 0.0371,-2.7811 -0.53119,-0.56542 -0.79033,-0.61236 -3.38071,-0.61236 -3.06813,0 -3.78914,0.2559 -4.08917,1.45132 -0.18055,0.71935 0.39139,2.11076 0.962,2.34035 0.18496,0.0744 1.57878,0.1447 3.09737,0.15619 2.48673,0.0188 2.82191,-0.0363 3.37343,-0.5544 z M 104.26398,96.582645 c 3.45612,-0.04178 9.11159,-0.04178 12.56771,0 3.45612,0.04178 0.62839,0.07596 -6.28385,0.07596 -6.91224,0 -9.73997,-0.03418 -6.28386,-0.07596 z M 51.876487,82.829776 c 0.545703,-0.05708 1.438672,-0.05708 1.984375,0 0.545703,0.05708 0.09922,0.103785 -0.992187,0.103785 -1.091406,0 -1.537891,-0.0467 -0.992188,-0.103785 z m 43.673052,-0.0053 c 2.446716,-0.04371 6.375781,-0.04363 8.731251,1.82e-4 2.35547,0.04381 0.35361,0.07957 -4.448576,0.07946 -4.802187,-1e-4 -6.729391,-0.03594 -4.282675,-0.07965 z m 28.425901,0.0013 c 1.20055,-0.04903 3.16508,-0.04903 4.36563,0 1.20054,0.04903 0.21828,0.08914 -2.18282,0.08914 -2.40109,0 -3.38335,-0.04011 -2.18281,-0.08914 z"
         id="path1280" />
      <path
         style="fill:#fcbd66;stroke-width:0.264583"
         d="m 142.43013,159.86983 c -2.99819,-0.7495 -5.87488,-2.40681 -8.22805,-4.74031 -3.51483,-3.48545 -5.0761,-6.94734 -5.31355,-11.78201 -0.17215,-3.5052 0.29967,-5.85934 1.79586,-8.96028 0.90156,-1.86854 1.51723,-2.69639 3.38129,-4.54655 3.69936,-3.67178 7.52061,-5.31153 12.46549,-5.34914 3.01497,-0.0229 5.18329,0.41336 7.63874,1.53696 1.7119,0.78336 2.16648,0.80505 2.98143,0.14226 0.62085,-0.50493 0.63022,-0.50388 1.55066,0.17359 0.50933,0.37487 1.24164,0.97161 1.62738,1.32609 0.67827,0.62329 0.6872,0.66911 0.27175,1.39299 -0.48796,0.85023 -0.45237,0.94732 1.55015,4.22893 3.3741,5.52927 3.35762,12.72695 -0.0422,18.42829 -1.21334,2.03471 -3.99718,4.82084 -5.97526,5.98016 -3.11039,1.82295 -5.10391,2.38424 -8.80891,2.48021 -2.31307,0.0599 -3.78452,-0.0336 -4.89479,-0.31119 z m 5.52057,-2.78319 c 0.60942,-0.47937 0.69714,-0.74072 0.69714,-2.07711 v -1.52875 l 1.30549,-0.81154 c 5.57538,-3.46585 3.87604,-11.31274 -2.64967,-12.23515 -2.54555,-0.35981 -3.69596,-1.88516 -2.77091,-3.674 0.49864,-0.96426 1.14619,-1.35008 2.26596,-1.35008 0.98233,0 2.37829,1.23817 2.37829,2.10946 0,0.92434 0.75779,2.10477 1.46516,2.28231 0.90064,0.22604 2.10636,-0.3183 2.46927,-1.11481 0.38741,-0.85026 0.37868,-1.06021 -0.1129,-2.71553 -0.47566,-1.60174 -1.86042,-3.27049 -3.34046,-4.02555 -1.0005,-0.51041 -1.01023,-0.53062 -1.01023,-2.0975 0,-1.90287 -0.54896,-2.64046 -1.96517,-2.64046 -1.34251,0 -2.00358,0.96258 -2.00358,2.91742 0,1.35811 -0.0645,1.5396 -0.59532,1.67516 -1.02595,0.26199 -2.50426,1.70106 -3.21727,3.13187 -1.17368,2.35527 -0.84475,5.13417 0.84079,7.10335 1.15554,1.34999 2.6152,2.09574 4.66535,2.38356 1.93479,0.27161 2.80436,1.05773 2.80436,2.53521 0,1.15614 -1.19601,2.47843 -2.24174,2.47843 -1.51569,0 -2.78534,-1.23411 -2.78534,-2.70737 0,-0.85226 -1.02042,-1.79055 -1.9473,-1.79055 -2.66949,0 -2.70448,4.10417 -0.0569,6.67546 0.53469,0.51928 1.32343,1.08965 1.75277,1.26749 0.74019,0.3066 0.78061,0.40449 0.78061,1.89076 0,1.31141 0.10607,1.67351 0.64943,2.21686 0.79367,0.79367 1.69739,0.8285 2.62218,0.10106 z"
         id="path1278" />
      <path
         style="fill:#e25f6a;stroke-width:0.264583"
         d="m 147.95414,173.7746 c 0,-1.67349 0.043,-2.3581 0.0955,-1.52136 0.0525,0.83675 0.0525,2.20597 0,3.04271 -0.0525,0.83674 -0.0955,0.15214 -0.0955,-1.52135 z m -13.22151,-8.73125 c 0,-2.4011 0.0401,-3.38336 0.0891,-2.18282 0.049,1.20055 0.049,3.16508 0,4.36563 -0.049,1.20055 -0.0891,0.21828 -0.0891,-2.18281 z m 12.66347,-0.71252 c 0.25743,-0.0671 0.61462,-0.0627 0.79375,0.01 0.17913,0.0725 -0.0315,0.12736 -0.46805,0.12197 -0.43657,-0.005 -0.58313,-0.0647 -0.3257,-0.13177 z m -60.165344,-0.54425 c -0.329107,-0.41965 -0.319749,-0.42901 0.0999,-0.0999 0.254662,0.19972 0.463021,0.40808 0.463021,0.46302 0,0.21776 -0.217273,0.0776 -0.562917,-0.36312 z m 7.198389,-1.27882 c 0.0127,-0.30823 0.07539,-0.37092 0.159851,-0.15986 0.07643,0.191 0.06703,0.4192 -0.02088,0.50712 -0.08792,0.0879 -0.150453,-0.0684 -0.138965,-0.34726 z m 51.511455,-2.15408 c 0.47555,-0.0589 1.18992,-0.0577 1.5875,0.003 0.39757,0.0604 0.008,0.10855 -0.86464,0.10706 -0.87312,-0.002 -1.19841,-0.0509 -0.72286,-0.10976 z m -12.12367,-5.29835 -0.9118,-0.99219 0.99219,0.9118 c 0.5457,0.50149 0.99218,0.94797 0.99218,0.99218 0,0.20205 -0.22389,0.0117 -1.07257,-0.91179 z m -7.79097,0.19843 -2.91041,-0.15998 2.82865,-0.0523 c 1.65937,-0.0307 2.89625,0.0571 2.99218,0.21228 0.0899,0.14552 0.12673,0.24105 0.0818,0.21229 -0.045,-0.0288 -1.39145,-0.1243 -2.99218,-0.21229 z m -77.845656,-0.1948 c 0.695615,-0.0547 1.767177,-0.054 2.38125,0.002 0.614073,0.0555 0.04493,0.10023 -1.264754,0.0994 -1.309688,-8e-4 -1.812111,-0.0462 -1.116496,-0.10089 z m 105.026836,-8.00728 c 0,-0.50932 0.0545,-0.71768 0.121,-0.46302 0.0666,0.25466 0.0666,0.67138 0,0.92604 -0.0665,0.25466 -0.121,0.0463 -0.121,-0.46302 z m -24.38216,-1.74184 c 0.0127,-0.30823 0.0754,-0.37092 0.15985,-0.15985 0.0764,0.19099 0.067,0.4192 -0.0209,0.50712 -0.0879,0.0879 -0.15045,-0.0684 -0.13896,-0.34727 z m 35.73963,-1.16858 c 0,-0.3638 0.0601,-0.51263 0.13345,-0.33073 0.0734,0.18191 0.0734,0.47956 0,0.66146 -0.0734,0.1819 -0.13345,0.0331 -0.13345,-0.33073 z m -35.94943,-1.71979 c 0.002,-0.7276 0.0534,-0.99385 0.11418,-0.59167 0.0608,0.40218 0.0592,0.99749 -0.004,1.32291 -0.0628,0.32543 -0.11256,-0.004 -0.11058,-0.73124 z m 22.65846,-0.0661 -0.64143,-0.72761 0.72761,0.64143 c 0.68005,0.59952 0.84894,0.81378 0.64143,0.81378 -0.0474,0 -0.37482,-0.32742 -0.72761,-0.7276 z m 13.27008,-1.80799 c 0.0127,-0.30822 0.0754,-0.37092 0.15986,-0.15985 0.0764,0.19099 0.067,0.4192 -0.0209,0.50712 -0.0879,0.0879 -0.15045,-0.0684 -0.13896,-0.34727 z m -35.71874,-1.05833 c 0.0127,-0.30823 0.0754,-0.37092 0.15985,-0.15986 0.0764,0.191 0.067,0.41921 -0.0209,0.50712 -0.0879,0.0879 -0.15045,-0.0684 -0.13896,-0.34726 z m 24.37235,-1.83004 c 0.005,-0.43656 0.0647,-0.58312 0.13178,-0.32569 0.0671,0.25743 0.0627,0.61462 -0.01,0.79375 -0.0725,0.17913 -0.12736,-0.0315 -0.12197,-0.46806 z m -4.84783,-1.65364 c -0.3291,-0.41965 -0.31975,-0.42901 0.0999,-0.0999 0.44073,0.34564 0.58089,0.56292 0.36312,0.56292 -0.0549,0 -0.2633,-0.20836 -0.46302,-0.46302 z m -6.31625,-2.84427 c 0.34178,-0.36381 0.68094,-0.66146 0.7537,-0.66146 0.0728,0 -0.14734,0.29765 -0.48911,0.66146 -0.34178,0.3638 -0.68094,0.66145 -0.7537,0.66145 -0.0728,0 0.14734,-0.29765 0.48911,-0.66145 z m -8.06979,-3.57188 c 0.71667,-0.7276 1.36256,-1.32292 1.43532,-1.32292 0.0728,0 -0.45407,0.59532 -1.17073,1.32292 -0.71667,0.72761 -1.36256,1.32292 -1.43532,1.32292 -0.0728,0 0.45407,-0.59531 1.17073,-1.32292 z m 26.36782,0.26458 c 0,-0.3638 0.0601,-0.51263 0.13345,-0.33072 0.0734,0.1819 0.0734,0.47955 0,0.66145 -0.0734,0.1819 -0.13345,0.0331 -0.13345,-0.33073 z m -4.7331,-3.35835 c 0.25744,-0.0671 0.61462,-0.0627 0.79375,0.01 0.17913,0.0725 -0.0315,0.12736 -0.46805,0.12197 -0.43656,-0.005 -0.58313,-0.0647 -0.3257,-0.13178 z m -10.72066,-2.10854 c 0.18191,-0.0734 0.47956,-0.0734 0.66146,0 0.1819,0.0734 0.0331,0.13345 -0.33073,0.13345 -0.3638,0 -0.51263,-0.0601 -0.33073,-0.13345 z m 3.175,0 c 0.18191,-0.0734 0.47956,-0.0734 0.66146,0 0.1819,0.0734 0.0331,0.13345 -0.33073,0.13345 -0.3638,0 -0.51263,-0.0601 -0.33073,-0.13345 z m 0.54571,-3.97426 c 0.19099,-0.0764 0.4192,-0.067 0.50712,0.0209 0.0879,0.0879 -0.0684,0.15046 -0.34727,0.13897 -0.30823,-0.0127 -0.37092,-0.0754 -0.15985,-0.15985 z m -75.887608,-15.09697 8.200453,-0.0757 0.07047,-19.37696 0.07047,-19.376961 -0.0026,19.446874 -0.0026,19.446877 -8.268314,0.006 -8.268313,0.006 8.20045,-0.0757 z m 31.553358,-0.002 c 3.45612,-0.0418 9.11159,-0.0418 12.56771,0 3.45612,0.0418 0.62839,0.076 -6.28385,0.076 -6.91224,0 -9.73997,-0.0342 -6.28386,-0.076 z M 71.067647,96.320898 c 0.768863,-0.05362 1.959488,-0.05305 2.645833,0.0013 0.686345,0.05431 0.05728,0.09817 -1.397931,0.09748 -1.455209,-7.94e-4 -2.016765,-0.04512 -1.247902,-0.09873 z m -0.263083,-3.969546 c 0.915207,-0.05181 2.343957,-0.05139 3.175,0.0011 0.83104,0.05234 0.08223,0.09473 -1.664015,0.09421 -1.74625,-5.3e-4 -2.426195,-0.04334 -1.510985,-0.09516 z m 0,-5.55625 c 0.915207,-0.05181 2.343957,-0.05139 3.175,0.0011 0.83104,0.05234 0.08223,0.09473 -1.664015,0.09421 -1.74625,-5.29e-4 -2.426195,-0.04334 -1.510985,-0.09516 z m 63.927506,-1.722064 -0.50402,-0.595313 0.59531,0.504029 c 0.32742,0.277214 0.59531,0.545105 0.59531,0.595312 0,0.211733 -0.21293,0.05542 -0.6866,-0.504028 z M 85.002203,75.878767 c 0,-5.020468 0.03558,-7.074296 0.07906,-4.564062 0.04349,2.510234 0.04349,6.61789 0,9.128125 -0.04349,2.510234 -0.07906,0.456406 -0.07906,-4.564063 z m -13.943425,6.948689 c 0.763984,-0.05345 2.014141,-0.05345 2.778125,0 0.763984,0.05344 0.138906,0.09718 -1.389063,0.09718 -1.527968,0 -2.153046,-0.04373 -1.389062,-0.09718 z m 44.118652,0.0021 2.51416,-0.0908 V 76.937101 71.13543 l -2.4474,-0.09009 -2.44739,-0.09009 2.51354,0.01436 2.51354,0.01436 v 5.953125 5.953124 l -2.5803,0.01516 -2.58031,0.01516 2.51416,-0.09089 z m 6.60761,-6.024763 0.008,-5.820833 5.42396,-0.0081 5.42396,-0.0081 -5.35277,0.07955 -5.35276,0.07955 -0.0788,5.749334 -0.0788,5.749335 0.008,-5.820833 z m -21.48981,-5.885977 c 1.56435,-0.04678 4.1242,-0.04678 5.68855,0 1.56435,0.04678 0.28442,0.08505 -2.84427,0.08505 -3.1287,0 -4.408624,-0.03827 -2.84428,-0.08505 z m 34.85886,-0.960793 c 0,-0.05494 0.20836,-0.263301 0.46302,-0.46302 0.41964,-0.329108 0.429,-0.31975 0.0999,0.09989 -0.34564,0.44073 -0.56291,0.580888 -0.56291,0.363126 z m -35.851043,-3.053437 -1.5875,-0.153959 v -7.540625 -7.540625 h 17.594793 17.59479 l 0.0706,7.408333 c 0.0641,6.730055 0.0292,7.438614 -0.3813,7.739063 -0.3511,0.256966 -3.93695,0.320809 -16.07788,0.28625 -8.5943,-0.02446 -16.34037,-0.11376 -17.213493,-0.198437 z M 128.9007,60.778315 c 0.87353,-0.68712 0.95581,-2.103374 0.16797,-2.891214 -0.51502,-0.515024 -0.88194,-0.529166 -13.72902,-0.529166 -12.19936,0 -13.24339,0.03525 -13.77421,0.465082 -0.86192,0.697944 -0.81705,2.10429 0.0921,2.886302 l 0.71773,0.617366 h 12.91415 c 12.66426,0 12.92764,-0.01061 13.61129,-0.54837 z m -82.382025,0.200996 c 0,-0.04554 0.386953,-0.432488 0.859896,-0.859896 l 0.859896,-0.777105 -0.777106,0.859896 c -0.724371,0.801543 -0.942686,0.981512 -0.942686,0.777105 z"
         id="path1276" />
      <path
         style="fill:#378bd5;stroke-width:0.264583"
         d="M 42.886754,178.3505 C 42.453,177.6887 42.412191,176.44205 42.345436,161.81405 l -0.0722,-15.8207 h 39.027051 39.027053 l 0.14771,0.7276 c 0.0812,0.40018 0.32164,1.41042 0.53421,2.24496 0.21257,0.83455 0.38649,1.63822 0.38649,1.78594 0,0.18043 -12.30987,0.27049 -37.504682,0.27439 -35.897228,0.006 -37.550046,0.0267 -38.563019,0.49426 -1.224392,0.5651 -2.094607,1.43454 -2.495917,2.49372 -0.176717,0.4664 -0.282208,3.66729 -0.282208,8.56293 0,7.60632 0.01605,7.84666 0.592469,8.87226 0.331037,0.589 1.07098,1.33458 1.676891,1.68967 l 1.084423,0.63552 h 44.607966 c 30.953957,0 44.835947,-0.0864 45.352797,-0.28221 1.64385,-0.62284 2.97687,-2.65114 2.98797,-4.54644 0.007,-1.13302 -0.0515,-1.11651 2.17221,-0.61716 0.91853,0.20627 2.42883,0.45779 3.35622,0.55892 l 1.68616,0.18389 -0.79109,0.38314 c -1.14685,0.55543 -1.3906,1.35496 -1.3906,4.56121 0,2.53555 -0.0655,2.94552 -0.57359,3.59148 -1.21774,1.5481 1.91153,1.45883 -51.137856,1.45883 H 43.355874 Z M 146.20044,164.33895 c 0.1819,-0.0734 0.47956,-0.0734 0.66146,0 0.1819,0.0734 0.0331,0.13345 -0.33073,0.13345 -0.3638,0 -0.51263,-0.06 -0.33073,-0.13345 z m -21.58791,-23.63727 c 0,-0.3638 0.06,-0.51263 0.13345,-0.33073 0.0734,0.1819 0.0734,0.47956 0,0.66146 -0.0734,0.1819 -0.13345,0.0331 -0.13345,-0.33073 z m -62.727134,-6.23976 c 0.0127,-0.30822 0.07539,-0.37091 0.159851,-0.15985 0.07643,0.191 0.06703,0.4192 -0.02088,0.50712 -0.08792,0.0879 -0.150452,-0.0684 -0.138964,-0.34727 z m 16.404166,0 c 0.0127,-0.30822 0.07539,-0.37091 0.159851,-0.15985 0.07643,0.191 0.06703,0.4192 -0.02088,0.50712 -0.08792,0.0879 -0.150452,-0.0684 -0.138964,-0.34727 z m 16.404166,0 c 0.0127,-0.30822 0.07539,-0.37091 0.159851,-0.15985 0.07643,0.191 0.06703,0.4192 -0.02088,0.50712 -0.08792,0.0879 -0.150452,-0.0684 -0.138964,-0.34727 z m 16.404162,0 c 0.0127,-0.30822 0.0754,-0.37091 0.15985,-0.15985 0.0764,0.191 0.067,0.4192 -0.0209,0.50712 -0.0879,0.0879 -0.15045,-0.0684 -0.13897,-0.34727 z m 19.95516,-7.78316 c 0.56838,-0.58208 1.09296,-1.05833 1.16572,-1.05833 0.0728,0 -0.33275,0.47625 -0.90114,1.05833 -0.56839,0.58209 -1.09297,1.05834 -1.16573,1.05834 -0.0728,0 0.33276,-0.47625 0.90115,-1.05834 z m -68.693126,0.33073 c -0.329107,-0.41964 -0.319749,-0.429 0.0999,-0.0999 0.254662,0.19972 0.463021,0.40808 0.463021,0.46302 0,0.21776 -0.217273,0.0776 -0.562917,-0.36313 z m -0.474528,-1.27881 c 0.0127,-0.30823 0.07539,-0.37092 0.159851,-0.15986 0.07643,0.191 0.06703,0.4192 -0.02088,0.50712 -0.08792,0.0879 -0.150452,-0.0683 -0.138964,-0.34726 z m 16.404166,0 c 0.0127,-0.30823 0.07539,-0.37092 0.159851,-0.15986 0.07643,0.191 0.06703,0.4192 -0.02088,0.50712 -0.08792,0.0879 -0.150452,-0.0683 -0.138964,-0.34726 z m 16.404166,0 c 0.0127,-0.30823 0.07539,-0.37092 0.159851,-0.15986 0.07643,0.191 0.06703,0.4192 -0.02088,0.50712 -0.08792,0.0879 -0.150452,-0.0683 -0.138964,-0.34726 z m 16.404162,0 c 0.0127,-0.30823 0.0754,-0.37092 0.15985,-0.15986 0.0764,0.191 0.067,0.4192 -0.0209,0.50712 -0.0879,0.0879 -0.15045,-0.0683 -0.13897,-0.34726 z m -48.968799,-1.00389 c 0,-0.0549 0.208359,-0.2633 0.463021,-0.46303 0.419645,-0.3291 0.429003,-0.31974 0.0999,0.0999 -0.345644,0.44073 -0.562917,0.58089 -0.562917,0.36313 z m 16.404166,0 c 0,-0.0549 0.208359,-0.2633 0.463021,-0.46303 0.419645,-0.3291 0.429003,-0.31974 0.0999,0.0999 -0.345644,0.44073 -0.562917,0.58089 -0.562917,0.36313 z m 16.404166,0 c 0,-0.0549 0.208359,-0.2633 0.46302,-0.46303 0.419645,-0.3291 0.429004,-0.31974 0.0999,0.0999 -0.345644,0.44073 -0.562917,0.58089 -0.562917,0.36313 z m 16.404167,0 c 0,-0.0549 0.20836,-0.2633 0.46302,-0.46303 0.41964,-0.3291 0.429,-0.31974 0.0999,0.0999 -0.34565,0.44073 -0.56292,0.58089 -0.56292,0.36313 z m -62.498942,-5.65173 c 0.768863,-0.0536 1.959488,-0.053 2.645834,0.001 0.686345,0.0542 0.05728,0.0981 -1.397932,0.0974 -1.455208,-6.9e-4 -2.016764,-0.0451 -1.247902,-0.0987 z m 4.555193,-17.12586 c 0,-11.726702 0.04637,-13.185143 0.445879,-14.022914 0.245234,-0.51426 0.611758,-0.935019 0.814499,-0.935019 0.202741,0 0.840133,-0.47625 1.416428,-1.058334 1.007299,-1.017415 1.113905,-1.058333 2.757377,-1.058333 h 1.709567 v 10.186458 10.186462 h -1.178176 c -1.543783,0 -2.417787,0.42293 -2.80479,1.35723 -0.404027,0.97541 0.03944,2.15293 0.97059,2.57719 0.462537,0.21075 5.011864,0.29891 15.424559,0.29891 14.540301,0 14.779309,-0.008 15.465676,-0.54837 0.537728,-0.42298 0.69714,-0.78159 0.69714,-1.5683 0,-1.39554 -0.913554,-2.11666 -2.681515,-2.11666 H 85.14784 V 95.061058 84.8746 h 2.248958 c 2.04434,0 2.248958,0.0464 2.248958,0.509963 0,0.28048 0.313714,0.75673 0.69714,1.058334 0.69115,0.543657 0.867005,0.54837 20.466084,0.54837 h 19.76894 l 0.89902,0.604475 c 0.51368,0.345379 1.03438,0.997474 1.21482,1.521354 0.22639,0.657309 0.32002,4.456075 0.33073,13.418444 l 0.0149,12.50156 H 93.217631 53.397841 Z m 71.335919,7.02547 c 0.59898,-0.27201 1.43242,-0.94432 1.85208,-1.49403 l 0.76304,-0.99947 0.0836,-4.78199 c 0.046,-2.6301 0.0103,-5.172404 -0.0792,-5.64957 -0.20269,-1.080484 -1.57023,-2.671032 -2.70371,-3.144631 -1.09763,-0.458618 -26.843873,-0.528442 -28.041237,-0.07605 -0.91245,0.344746 -2.119371,1.458124 -2.620534,2.417423 -0.461301,0.883002 -0.535691,10.067168 -0.09105,11.240708 0.40131,1.05917 1.271524,1.92862 2.495918,2.49372 0.983789,0.45404 1.980795,0.48845 14.155213,0.48845 12.22655,0 13.16924,-0.0329 14.18592,-0.49456 z"
         id="path1274" />
      <path
         style="fill:#067bc6;stroke-width:0.264583"
         d="m 38.92475,178.54781 c -1.717718,-1.04736 -1.666491,-0.51062 -1.666491,-17.46085 V 145.7272 l 43.829317,0.0669 43.829314,0.0669 0.5811,2.11666 c 0.31961,1.16417 0.67118,2.32503 0.78128,2.57969 0.1826,0.42236 -0.0185,0.46302 -2.29066,0.46302 h -2.49085 l -0.43284,-1.78594 c -0.23806,-0.98226 -0.50141,-2.11336 -0.58521,-2.51354 l -0.15237,-0.7276 H 81.306341 42.285342 v 15.55447 c 0,14.73672 0.02632,15.6061 0.500645,16.53646 l 0.500645,0.98198 -1.757416,-0.001 c -1.276024,-7.9e-4 -1.98944,-0.14246 -2.604466,-0.51746 z m 103.63767,-0.11061 c 0,-0.0549 0.20836,-0.2633 0.46302,-0.46302 0.41965,-0.32911 0.429,-0.31975 0.0999,0.0999 -0.34565,0.44073 -0.56292,0.58089 -0.56292,0.36313 z m 1.4208,-4.92719 c 0,-1.52797 0.0437,-2.15304 0.0972,-1.38906 0.0534,0.76398 0.0534,2.01414 0,2.77812 -0.0534,0.76399 -0.0972,0.13891 -0.0972,-1.38906 z m -0.0979,-4.66639 c -0.36381,-0.053 -1.64373,-0.29012 -2.84427,-0.52687 l -2.18282,-0.43045 v -2.45206 -2.45207 l 1.65365,0.51486 c 0.9095,0.28317 2.48708,0.59811 3.50573,0.69986 l 1.85208,0.185 0.0764,2.3151 0.0764,2.31511 -0.73791,-0.036 c -0.40585,-0.0198 -1.03556,-0.0794 -1.39936,-0.13245 z M 48.370758,102.19167 c 0,-14.091781 -0.01233,-13.976224 1.57884,-14.799049 0.795342,-0.411289 4.250289,-0.576921 4.232618,-0.202917 -0.0052,0.109141 -0.179532,0.496094 -0.3875,0.859896 -0.313482,0.548381 -0.379726,2.911724 -0.387499,13.82448 l -0.0094,13.16302 H 50.8843 48.370758 Z m 16.848349,7.09094 c 4.100602,-0.041 10.887164,-0.041 15.081249,-7e-5 4.194085,0.041 0.839046,0.0745 -7.455641,0.0745 -8.294687,3e-5 -11.726211,-0.0335 -7.625608,-0.0745 z m 38.648003,10e-6 c 3.6744,-0.0415 9.68706,-0.0415 13.36146,0 3.6744,0.0415 0.66807,0.0754 -6.68073,0.0754 -7.3488,0 -10.35513,-0.0339 -6.68073,-0.0754 z m -16.652213,-3.95126 c 0.190995,-0.0764 0.419198,-0.067 0.507119,0.0209 0.08792,0.0879 -0.06835,0.15045 -0.347266,0.13896 -0.308226,-0.0127 -0.370919,-0.0754 -0.159853,-0.15985 z M 85.003565,95.061058 c 7.4e-5,-5.675312 0.03511,-7.959381 0.07786,-5.075708 0.04275,2.883672 0.04269,7.52711 -1.35e-4,10.31875 -0.04282,2.79164 -0.0778,0.43227 -0.07772,-5.243042 z M 56.308258,85.130881 c 0,-0.140954 0.178594,-0.256281 0.396875,-0.256281 0.218281,0 0.396875,0.04679 0.396875,0.103984 0,0.05719 -0.178594,0.172516 -0.396875,0.256281 -0.218281,0.08376 -0.396875,0.03697 -0.396875,-0.103984 z"
         id="path1272" />
      <path
         style="fill:#020303;stroke-width:0.264583"
         d="m 38.214787,182.603 c -0.904626,-0.27896 -1.711816,-0.81793 -2.690111,-1.79623 -2.309314,-2.30931 -2.235167,-1.62139 -2.235167,-20.73724 v -16.51944 l 5.55625,-13.46923 5.556249,-13.46923 0.0026,-13.95029 0.0026,-13.950282 0.617819,-1.322916 c 0.852552,-1.825546 1.745626,-2.807944 3.252117,-3.577389 1.079579,-0.551397 1.733963,-0.670121 4.105736,-0.744895 2.573439,-0.08113 2.86999,-0.04042 3.373438,0.463021 0.686264,0.686266 0.710832,1.884662 0.05523,2.694292 -0.435951,0.538377 -0.800196,0.631674 -2.976562,0.76241 -1.363904,0.08193 -2.746484,0.298852 -3.072399,0.482044 -1.382308,0.77697 -1.391818,0.87757 -1.391818,14.724045 v 12.84543 h 42.340536 42.340535 l -0.0734,-13.11737 -0.0733,-13.117359 -0.9883,-0.905552 -0.9883,-0.905552 h -19.54357 c -13.586684,0 -19.799243,-0.08913 -20.38239,-0.292412 -1.414571,-0.493123 -1.760691,-1.76861 -0.808443,-2.979198 l 0.54837,-0.69714 h 8.97663 8.976633 v -6.085416 -6.085417 l -5.88698,-0.0044 c -5.601597,-0.0041 -5.937324,-0.033 -6.925466,-0.595313 -0.647403,-0.368412 -1.270145,-1.030095 -1.653645,-1.757054 -0.604079,-1.145082 -0.615162,-1.308517 -0.615162,-9.070476 0,-6.514678 0.07155,-8.075628 0.406966,-8.878389 0.548201,-1.312031 1.112319,-1.902077 2.371159,-2.480138 0.993775,-0.456343 2.147755,-0.485988 18.917708,-0.485988 16.76995,0 17.92393,0.02965 18.91771,0.485988 2.57904,1.184301 2.75225,1.883717 2.76651,11.17072 0.0124,8.078204 -0.0808,8.814048 -1.28116,10.116417 -1.21721,1.320645 -1.41818,1.359081 -7.83535,1.498585 l -6.08542,0.132292 -0.0711,6.01927 -0.0711,6.019271 4.83362,0.0026 c 4.50644,0.0024 4.92315,0.04437 6.15653,0.61994 0.7276,0.339545 1.78097,1.125437 2.34081,1.746427 1.96572,2.18042 1.87751,1.419108 2.02481,17.474804 l 0.13229,14.41979 0.88289,2.11666 c 0.48559,1.16417 0.92672,2.16093 0.98029,2.21501 0.0536,0.0541 1.08502,-0.17477 2.29211,-0.50859 6.63232,-1.83412 17.31083,0.64256 16.51098,3.82941 -0.43416,1.72984 -1.38515,1.80523 -5.28589,0.41904 -6.41284,-2.27892 -13.62631,-0.62914 -18.41165,4.2109 -1.0977,1.11025 -2.39791,2.70119 -2.88936,3.53544 -6.47541,10.99213 -0.0804,24.82414 12.52611,27.09318 5.25453,0.94575 11.0456,-0.7664 15.07238,-4.45621 6.62631,-6.07181 7.86754,-15.96605 2.92707,-23.33259 -1.3203,-1.96869 -1.50196,-3.0357 -0.66014,-3.87752 0.77074,-0.77074 1.99791,-0.68431 2.8174,0.19844 1.92206,2.07039 3.81171,6.32066 4.45808,10.02722 0.50237,2.8808 0.50052,4.45974 -0.009,7.37956 -1.49063,8.54791 -7.89171,15.4191 -16.3793,17.58225 -3.59657,0.91661 -9.24824,0.69221 -12.35595,-0.49061 l -0.69864,-0.2659 -0.0976,3.77588 c -0.0935,3.61606 -0.12907,3.82338 -0.84022,4.898 -0.46641,0.70479 -1.15428,1.30903 -1.84956,1.6247 -1.07317,0.48723 -2.45887,0.50276 -45.367037,0.5084 -39.240205,0.005 -44.370527,-0.0403 -45.234064,-0.40116 -1.31203,-0.5482 -1.902076,-1.11232 -2.480137,-2.37116 -0.435472,-0.94832 -0.485989,-1.84216 -0.485989,-8.59896 0,-8.67936 0.09613,-9.15297 2.131039,-10.49968 l 1.125863,-0.74511 40.328905,-0.0703 c 38.15412,-0.0665 40.31819,-0.095 40.13032,-0.52916 -0.10923,-0.25238 -0.46008,-1.41137 -0.77969,-2.57554 l -0.5811,-2.11666 -43.829313,-0.0669 -43.829317,-0.0669 v 15.35976 c 0,16.95023 -0.05123,16.41349 1.666491,17.46085 0.832345,0.50751 1.730326,0.51649 51.726333,0.51746 55.583356,0.001 51.773876,0.10968 52.859776,-1.50684 0.40301,-0.59992 0.51651,-1.35908 0.59573,-3.98452 0.0943,-3.12539 0.12293,-3.2631 0.78675,-3.78526 0.75785,-0.59613 1.68934,-0.51739 2.49773,0.21111 0.39797,0.35865 0.46302,0.92458 0.46302,4.02848 0,3.35064 -0.0492,3.70996 -0.68203,4.97986 -0.73655,1.47806 -1.67511,2.3955 -3.3882,3.31195 l -1.08915,0.58267 -51.593745,0.0494 c -45.303508,0.0434 -51.751318,8e-4 -52.886177,-0.34913 z m 96.613073,-17.29507 0.0706,-4.36563 -1.75203,-1.29341 c -0.96361,-0.71138 -2.36462,-2.04826 -3.11335,-2.97086 l -1.36132,-1.67745 -40.658049,-0.006 c -22.361926,-0.003 -40.846378,0.0666 -41.076562,0.1549 -0.367185,0.1409 -0.418514,1.02788 -0.418514,7.23194 0,3.88924 0.07972,7.15107 0.177164,7.24851 0.09744,0.0974 19.951113,0.14705 44.11927,0.11025 l 43.942101,-0.0669 z m -46.675147,-1.04061 c -0.694312,-0.29917 -1.417373,-1.2892 -1.417373,-1.9407 0,-0.26528 0.292245,-0.77457 0.649433,-1.13176 0.603318,-0.60332 0.838141,-0.64943 3.307291,-0.64943 3.055308,0 3.716192,0.34561 3.716192,1.94337 0,1.44981 -0.697513,1.85023 -3.38487,1.94317 -1.267018,0.0438 -2.558822,-0.0303 -2.870673,-0.16465 z m 36.773787,-24.5043 c 0.0928,-1.09835 0.47665,-2.91405 0.85291,-4.0349 1.67515,-4.9902 4.27554,-8.42027 8.96675,-11.82766 l 0.72879,-0.52934 -0.88793,-2.18264 -0.88792,-2.18263 H 90.666363 c -34.180172,0 -43.059598,0.068 -43.163298,0.33073 -0.07181,0.1819 -2.122856,5.15276 -4.557888,11.04635 -2.435032,5.89359 -4.485351,10.86445 -4.556265,11.04635 -0.102827,0.26377 8.62846,0.33073 43.119923,0.33073 h 43.248855 z m -62.222123,-3.90704 c -0.825667,-0.87888 -0.760135,-2.11424 0.150133,-2.83026 0.65582,-0.51586 0.984985,-0.56213 3.430743,-0.48222 2.981137,0.0974 3.384539,0.28721 3.672705,1.72804 0.135834,0.67917 0.03853,0.96804 -0.511233,1.51781 -0.641649,0.64165 -0.82994,0.679 -3.423028,0.679 -2.526205,0 -2.789698,-0.0486 -3.31932,-0.61237 z m 16.404166,0 c -0.772075,-0.82184 -0.733449,-1.89936 0.09789,-2.7307 0.648917,-0.64892 0.772557,-0.66994 3.430744,-0.58328 3.037538,0.099 3.435826,0.28395 3.724944,1.72954 0.135834,0.67917 0.03853,0.96804 -0.511233,1.51781 -0.641649,0.64165 -0.82994,0.679 -3.423029,0.679 -2.526204,0 -2.789697,-0.0486 -3.319319,-0.61237 z m 16.404166,0 c -0.772076,-0.82184 -0.733449,-1.89936 0.09789,-2.7307 0.649737,-0.64974 0.770337,-0.67004 3.463419,-0.58328 2.557602,0.0824 2.832382,0.14197 3.295572,0.71451 0.68729,0.84954 0.63476,1.78354 -0.1441,2.5624 -0.60603,0.60603 -0.83282,0.64944 -3.393465,0.64944 -2.526204,0 -2.789697,-0.0486 -3.319319,-0.61237 z m 16.404161,0 c -0.77207,-0.82184 -0.73344,-1.89936 0.0979,-2.7307 0.64974,-0.64974 0.77033,-0.67004 3.46342,-0.58328 2.5576,0.0824 2.83237,0.14197 3.29557,0.71451 0.68729,0.84954 0.63476,1.78354 -0.1441,2.5624 -0.60603,0.60603 -0.83283,0.64944 -3.39347,0.64944 -2.5262,0 -2.78969,-0.0486 -3.31932,-0.61237 z m -49.090639,-8.66725 c -0.96411,-0.75837 -0.96411,-2.11364 0,-2.87201 0.598765,-0.47099 1.067162,-0.54837 3.319317,-0.54837 2.431264,0 2.669463,0.0473 3.27161,0.64943 0.82769,0.82769 0.82769,1.8422 0,2.66989 -0.602147,0.60214 -0.840346,0.64943 -3.27161,0.64943 -2.252155,0 -2.720552,-0.0774 -3.319317,-0.54837 z m 16.404166,0 c -0.505627,-0.39773 -0.69714,-0.79222 -0.69714,-1.43601 0,-0.64379 0.191513,-1.03828 0.69714,-1.436 0.598765,-0.47099 1.067162,-0.54837 3.319317,-0.54837 2.431264,0 2.669463,0.0473 3.271609,0.64943 0.827691,0.82769 0.827691,1.8422 0,2.66989 -0.602146,0.60214 -0.840345,0.64943 -3.271609,0.64943 -2.252155,0 -2.720552,-0.0774 -3.319317,-0.54837 z m 16.404166,0 c -0.505627,-0.39773 -0.69714,-0.79222 -0.69714,-1.43601 0,-0.64379 0.191513,-1.03828 0.69714,-1.436 0.598765,-0.47099 1.067162,-0.54837 3.319316,-0.54837 2.431261,0 2.669461,0.0473 3.271611,0.64943 0.35719,0.35719 0.64943,0.95791 0.64943,1.33494 0,0.37703 -0.29224,0.97776 -0.64943,1.33495 -0.60215,0.60214 -0.84035,0.64943 -3.271611,0.64943 -2.252154,0 -2.720551,-0.0774 -3.319316,-0.54837 z m 16.404167,0 c -0.96411,-0.75837 -0.96411,-2.11364 0,-2.87201 0.59876,-0.47099 1.06716,-0.54837 3.31932,-0.54837 2.43126,0 2.66946,0.0473 3.27161,0.64943 0.35718,0.35719 0.64943,0.95791 0.64943,1.33494 0,0.37703 -0.29225,0.97776 -0.64943,1.33495 -0.60215,0.60214 -0.84035,0.64943 -3.27161,0.64943 -2.25216,0 -2.72056,-0.0774 -3.31932,-0.54837 z m 5.78515,-50.251629 v -5.953125 l -2.57969,-0.07573 -2.57968,-0.07573 v 6.104579 6.104577 l 2.57968,-0.07573 2.57969,-0.07573 z m 14.77054,-10.120312 c 0.41052,-0.300449 0.44543,-1.009008 0.3813,-7.739063 l -0.0706,-7.408333 H 115.31034 97.715547 v 7.540625 7.540625 l 1.5875,0.153959 c 0.873123,0.08468 8.619193,0.173974 17.213493,0.198437 12.14093,0.03456 15.72678,-0.02928 16.07788,-0.28625 z m -30.93689,-6.10747 c -0.90914,-0.782012 -0.95401,-2.188358 -0.0921,-2.886302 0.53082,-0.429831 1.57485,-0.465082 13.77421,-0.465082 12.84708,0 13.214,0.01414 13.72902,0.529166 0.78784,0.78784 0.70556,2.204094 -0.16797,2.891214 -0.68365,0.537759 -0.94703,0.54837 -13.61129,0.54837 h -12.91415 z m 44.17622,96.622041 c -0.77472,-0.38308 -1.15466,-1.32977 -1.15466,-2.877 0,-1.20542 -0.0648,-1.33637 -0.8599,-1.73755 -1.98481,-1.00147 -3.28825,-2.8833 -3.55456,-5.13186 -0.1343,-1.1339 -0.0726,-1.36189 0.53175,-1.96628 0.38333,-0.38333 0.98479,-0.68366 1.36917,-0.68366 0.95655,0 1.98437,1.10066 1.98437,2.125 0,2.06381 2.84154,3.16339 4.32955,1.67538 1.04282,-1.04283 0.9894,-2.714 -0.11652,-3.64457 -0.44772,-0.37673 -1.14049,-0.68497 -1.53947,-0.68497 -1.5732,0 -3.49999,-0.8125 -4.64712,-1.95963 -2.01775,-2.01776 -2.50927,-5.00182 -1.23521,-7.49918 0.57124,-1.11973 2.30677,-2.82262 3.14922,-3.09 0.44097,-0.13996 0.54647,-0.4559 0.63935,-1.91455 0.0908,-1.42599 0.22328,-1.83765 0.72107,-2.24075 0.83529,-0.67637 1.7729,-0.6191 2.54761,0.15562 0.5372,0.5372 0.65097,0.91444 0.65828,2.18282 l 0.009,1.53338 1.37238,0.79375 c 1.81417,1.04926 2.90362,2.77969 3.05336,4.84978 0.0922,1.2746 0.024,1.57805 -0.45103,2.00798 -0.69688,0.63066 -1.97056,0.65392 -2.63987,0.0482 -0.27851,-0.25204 -0.58827,-0.89477 -0.68836,-1.42828 -0.26348,-1.40447 -0.60044,-1.90618 -1.54543,-2.30103 -1.13759,-0.47531 -2.16801,-0.22746 -2.9581,0.7115 -1.45425,1.72828 -0.1826,4.18164 2.16746,4.18164 2.07637,0 4.75565,1.80713 5.6728,3.82621 0.64266,1.4148 0.64033,3.90244 -0.005,5.3233 -0.57415,1.26416 -2.10537,2.8316 -3.21531,3.29135 -0.73682,0.3052 -0.78061,0.40893 -0.78061,1.84943 0,1.06857 -0.13881,1.69013 -0.46302,2.07328 -0.56853,0.67189 -1.59635,0.90389 -2.35107,0.53069 z M 56.966626,108.68368 c -0.265089,-0.29291 -0.481979,-0.89484 -0.481979,-1.33761 0,-1.20455 0.801027,-1.83655 2.55749,-2.01783 l 1.499454,-0.15476 V 91.331494 77.489503 l -7.564331,-0.07776 -7.564331,-0.07776 -0.523735,-0.647192 c -0.491397,-0.607232 -0.518523,-0.991159 -0.439315,-6.21771 0.08277,-5.461763 0.09888,-5.601507 0.824849,-7.158014 0.971813,-2.083598 3.009595,-4.130103 5.052736,-5.074364 l 1.615169,-0.746469 h 12.699999 12.7 l 1.772896,0.839892 c 2.174647,1.030217 3.842967,2.653154 4.863063,4.73077 l 0.772374,1.573087 0.0725,20.30677 0.07249,20.306777 0.853548,0.002 c 1.332987,0.002 2.805338,0.5016 3.09939,1.05104 0.424574,0.79332 0.312918,1.81268 -0.261469,2.38707 -0.516969,0.51697 -0.881944,0.52917 -15.833992,0.52917 -15.001515,0 -15.314377,-0.0106 -15.786805,-0.53259 z M 81.114701,86.205121 c 0.0746,-21.065504 0.08737,-20.872127 -1.50626,-22.795129 -0.43729,-0.52767 -1.333052,-1.21228 -1.990579,-1.521354 -1.122929,-0.527838 -1.613302,-0.561953 -8.077554,-0.561953 -3.785129,0 -6.88205,0.07524 -6.88205,0.167207 0,0.09196 0.233666,0.545289 0.519258,1.007387 1.305081,2.111663 1.332825,2.600664 1.332825,23.491014 v 19.527347 l 8.268229,-0.0699 8.268228,-0.0699 z M 68.52521,95.639318 c -0.718894,-0.765228 -0.738775,-1.86998 -0.04612,-2.562635 0.474239,-0.474239 0.881943,-0.529167 3.927742,-0.529167 3.06982,0 3.4452,0.05152 3.880556,0.532583 0.682736,0.754414 0.623104,2.081435 -0.120597,2.683647 -0.512101,0.414676 -1.087827,0.487937 -3.834434,0.487937 -3.036126,0 -3.266702,-0.03709 -3.807148,-0.612365 z m -0.04612,-9.441801 c -0.713759,-0.713759 -0.676236,-1.886262 0.0832,-2.599714 0.558932,-0.525087 0.891138,-0.575286 3.807147,-0.575286 2.710575,0 3.286109,0.07395 3.797356,0.487937 0.743701,0.602212 0.803333,1.929233 0.120597,2.683647 -0.435356,0.481063 -0.810736,0.532582 -3.880556,0.532582 -3.045799,0 -3.453503,-0.05493 -3.927742,-0.529166 z m 0.612608,-8.99768 c -1.240819,-0.499938 -1.491417,-2.053815 -0.492342,-3.052887 0.614945,-0.614946 0.81257,-0.649433 3.72156,-0.649433 1.689669,0 3.308125,0.126302 3.596566,0.280671 1.269045,0.679172 1.149749,2.777521 -0.192683,3.389174 -0.765762,0.348904 -5.786728,0.373486 -6.633101,0.03248 z M 60.54159,70.022485 c 0,-4.011022 -0.256598,-5.107115 -1.549069,-6.617078 -2.865557,-3.347759 -8.26958,-2.55079 -10.124654,1.493152 -0.397592,0.866726 -0.48654,1.740936 -0.491299,4.828646 l -0.0058,3.770312 h 6.085417 6.085416 z m 35.983332,39.002875 c -0.977583,-0.36733 -1.952882,-1.29812 -2.406272,-2.29646 -0.420351,-0.92559 -0.493374,-1.77424 -0.498335,-5.7914 -0.0062,-5.029537 0.189241,-5.9404 1.53602,-7.158369 1.283166,-1.160439 1.893901,-1.208387 15.391505,-1.208387 13.49673,0 14.09447,0.0469 15.40071,1.208387 1.28032,1.138438 1.5206,2.280859 1.52681,7.259579 0.005,4.36691 -0.0322,4.72685 -0.60935,5.82084 -0.3835,0.72696 -1.00624,1.38864 -1.65365,1.75705 l -1.03848,0.59096 -13.62604,-0.0165 c -7.49432,-0.009 -13.804637,-0.0836 -14.022918,-0.16566 z m 26.663728,-3.73566 c 0.25594,-0.16243 0.31999,-1.23417 0.26458,-4.42772 l -0.0731,-4.213422 H 110.54784 97.715547 l -0.0731,4.213422 c -0.05541,3.19355 0.0087,4.26529 0.264584,4.42772 0.441161,0.27996 24.840449,0.27996 25.281619,0 z"
         id="path1270" />
    </g>
  </g>
</svg>
