<svg width="58" height="36" viewBox="0 0 58 36" fill="none" xmlns="http://www.w3.org/2000/svg">
<rect width="58" height="36" rx="2" fill="#C4C4C4"/>
<path d="M14.2063 23.144C12.9156 23.144 11.9343 22.648 11.2623 21.656C10.5903 20.664 10.2543 19.2293 10.2543 17.352C10.2543 15.464 10.5903 14.0293 11.2623 13.048C11.9343 12.0667 12.9156 11.576 14.2063 11.576C15.5076 11.576 16.4889 12.0667 17.1503 13.048C17.8223 14.0187 18.1583 15.448 18.1583 17.336C18.1583 19.224 17.8169 20.664 17.1343 21.656C16.4623 22.648 15.4863 23.144 14.2063 23.144ZM14.2063 22.008C15.1023 22.008 15.7636 21.6293 16.1903 20.872C16.6276 20.104 16.8463 18.9253 16.8463 17.336C16.8463 15.736 16.6329 14.568 16.2063 13.832C15.7796 13.0853 15.1129 12.712 14.2063 12.712C13.3103 12.712 12.6436 13.0853 12.2063 13.832C11.7796 14.5787 11.5663 15.7467 11.5663 17.336C11.5663 18.9253 11.7796 20.104 12.2063 20.872C12.6436 21.6293 13.3103 22.008 14.2063 22.008ZM21.48 23C21.0747 23 20.872 22.808 20.872 22.424C20.872 22.0613 21.0747 21.88 21.48 21.88H23.56V13.256L21.928 14.344C21.7573 14.4507 21.5973 14.4827 21.448 14.44C21.3093 14.3867 21.2027 14.296 21.128 14.168C21.0533 14.04 21.0267 13.9013 21.048 13.752C21.08 13.6027 21.1813 13.4693 21.352 13.352L23.56 11.896C23.6987 11.8107 23.832 11.7413 23.96 11.688C24.088 11.6347 24.216 11.608 24.344 11.608C24.4933 11.608 24.616 11.656 24.712 11.752C24.8187 11.8373 24.872 11.976 24.872 12.168V21.88H26.792C27.1973 21.88 27.4 22.0613 27.4 22.424C27.4 22.808 27.1973 23 26.792 23H21.48Z" fill="#6A6A6A"/>
<path d="M49 14L43 8L37 14" stroke="#6A6A6A" stroke-width="2" stroke-linecap="round" stroke-linejoin="round"/>
<path d="M37 22L43 28L49 22" stroke="#6A6A6A" stroke-width="2" stroke-linecap="round" stroke-linejoin="round"/>
</svg>
