<?xml version="1.0" ?><svg id="Layer_1" style="enable-background:new 0 0 48 48;" version="1.1" viewBox="0 0 48 48" xml:space="preserve" xmlns="http://www.w3.org/2000/svg" xmlns:xlink="http://www.w3.org/1999/xlink"><style type="text/css">
	.st0{fill:#FF4676;}
	.st1{fill:#0F1C70;}
	.st2{fill:#FFE92E;}
	.st3{fill:#17D5D1;}
	.st4{fill:#FFFFFF;}
	.st5{fill:#EA2461;}
	.st6{fill:#F2F2F2;}
</style><g><g><g><g><g><g><g><g><circle class="st0" cx="24" cy="24" r="24"/></g></g></g></g></g></g></g><g><g><g><g><path class="st4" d="M20.7,27.6v3.8c0,0.6-0.4,1.1-1,1.2c-5.1,1.1-10.1,1.1-15,0c-0.6-0.1-1-0.6-1-1.2v-3.8       c0-1.6,3.1-2.5,6.6-2.7v-0.5l-1.3-1.3c-0.5-0.5-0.9-1.3-0.9-2c-0.4,0-0.8-0.5-0.9-1.2c-0.1-0.7,0.2-1.4,0.6-1.4       c0.1,0,0.2,0,0.3,0V17c0-3.7,8-3.7,8,0v1.4c0.1,0,0.2-0.1,0.3,0c0.5,0.1,0.7,0.7,0.6,1.4c-0.1,0.7-0.5,1.1-0.9,1.2v0       c0,0.8-0.3,1.5-0.9,2.1l-1.3,1.3v0.5C17.7,25.1,20.7,26,20.7,27.6z"/><path class="st4" d="M44.2,27.6v3.8c0,0.6-0.4,1.1-1,1.2c-5.1,1.1-10.1,1.1-15,0c-0.6-0.1-1-0.6-1-1.2v-3.8       c0-1.6,3.1-2.5,6.6-2.7v-0.5l-1.3-1.3c-0.5-0.5-0.9-1.3-0.9-2c-0.4,0-0.8-0.5-0.9-1.2c-0.1-0.7,0.2-1.4,0.6-1.4       c0.1,0,0.2,0,0.3,0V17c0-3.7,8-3.7,8,0v1.4c0.1,0,0.2-0.1,0.3,0c0.5,0.1,0.7,0.7,0.6,1.4c-0.1,0.7-0.5,1.1-0.9,1.2v0       c0,0.8-0.3,1.5-0.9,2.1l-1.3,1.3v0.5C41.1,25.1,44.2,26,44.2,27.6z"/></g></g></g><g><g><path class="st1" d="M35.2,27.6v5c0,0.8-0.5,1.5-1.3,1.6c-6.8,1.5-13.3,1.4-19.7,0c-0.8-0.2-1.3-0.8-1.3-1.6v-5      C12.8,22.7,35.2,22.7,35.2,27.6z"/></g><g><path class="st2" d="M24,27.4L24,27.4c-1.3,0-2.4-1.1-2.4-2.4v-5.5c0-1.3,1.1-2.4,2.4-2.4h0c1.3,0,2.4,1.1,2.4,2.4V25      C26.4,26.4,25.3,27.4,24,27.4z"/><g><path class="st2" d="M30.4,17.4c-0.1,0.9-0.6,1.5-1.2,1.6v0c0,1-0.4,2-1.1,2.7L25.8,24c-0.3,0.3-0.6,0.4-1,0.4h-1.5       c-0.4,0-0.7-0.1-1-0.4l-2.4-2.4c-0.7-0.7-1.1-1.7-1.1-2.7v0c-0.5,0-1-0.7-1.2-1.6c-0.1-1,0.2-1.8,0.8-1.9c0.1,0,0.2,0,0.4,0.1       v-1.9c0-4.8,10.5-4.8,10.5,0v1.9c0.1-0.1,0.2-0.1,0.4-0.1C30.2,15.5,30.6,16.4,30.4,17.4z"/></g></g></g></g></g></svg>