<?xml version="1.0" encoding="UTF-8" standalone="no"?>
<!-- Created with Inkscape (http://www.inkscape.org/) -->

<svg
   width="55.638386mm"
   height="58.381805mm"
   viewBox="0 0 55.638386 58.381805"
   version="1.1"
   id="svg5"
   inkscape:version="1.1.1 (3bf5ae0d25, 2021-09-20)"
   sodipodi:docname="recorrencia.svg"
   xmlns:inkscape="http://www.inkscape.org/namespaces/inkscape"
   xmlns:sodipodi="http://sodipodi.sourceforge.net/DTD/sodipodi-0.dtd"
   xmlns="http://www.w3.org/2000/svg"
   xmlns:svg="http://www.w3.org/2000/svg">
  <sodipodi:namedview
     id="namedview7"
     pagecolor="#ffffff"
     bordercolor="#666666"
     borderopacity="1.0"
     inkscape:pageshadow="2"
     inkscape:pageopacity="0.0"
     inkscape:pagecheckerboard="0"
     inkscape:document-units="mm"
     showgrid="false"
     inkscape:zoom="1.0482005"
     inkscape:cx="-41.976702"
     inkscape:cy="100.64868"
     inkscape:window-width="1920"
     inkscape:window-height="1017"
     inkscape:window-x="-8"
     inkscape:window-y="-8"
     inkscape:window-maximized="1"
     inkscape:current-layer="g854" />
  <defs
     id="defs2" />
  <g
     inkscape:label="Camada 1"
     inkscape:groupmode="layer"
     id="layer1"
     transform="translate(73.10813,-96.783766)">
    <g
       id="g854"
       transform="translate(143.85937,-95.668269)">
      <path
         style="fill:#454e5f;stroke-width:0.264583;fill-opacity:1"
         d="m -178.81688,250.45969 c -2.32099,-0.63805 -4.23824,-1.76774 -6.0343,-3.55554 -2.97951,-2.96579 -4.37091,-6.54301 -4.1228,-10.59946 0.31867,-5.21001 3.08069,-9.37951 7.72523,-11.66188 2.99461,-1.47158 5.3984,-1.81096 8.50433,-1.2007 6.50879,1.27887 10.94619,6.23034 11.38298,12.70172 0.54231,8.03459 -5.80833,14.77076 -13.84855,14.68928 -1.28403,-0.013 -2.90713,-0.18105 -3.60689,-0.37342 z m 7.09081,-2.4264 c 2.9808,-0.91194 5.44393,-3.08087 6.94362,-6.11427 2.75239,-5.56721 0.2728,-12.59835 -5.38718,-15.27595 -5.76452,-2.72705 -12.53896,-0.36797 -15.36527,5.35069 -0.87235,1.76507 -0.9955,2.26406 -1.08774,4.40744 -0.12223,2.84017 0.44902,4.9244 1.98316,7.23569 2.7261,4.10704 7.99542,5.90099 12.91341,4.3964 z m -4.6345,-10.28136 c -0.24454,-0.29465 -0.32625,-1.56747 -0.30019,-4.67629 0.0197,-2.3493 0.10131,-4.47784 0.18137,-4.73009 0.32615,-1.0276 1.84237,-0.89742 2.25725,0.1938 0.13719,0.36082 0.24943,2.07704 0.24943,3.81381 v 3.15778 h 3.42068 c 3.61817,0 4.25223,0.19726 4.25223,1.32292 0,1.18172 -0.56334,1.32291 -5.27816,1.32291 -3.66867,0 -4.50541,-0.0708 -4.78261,-0.40484 z m -37.29775,7.12712 c -1.20831,-0.52399 -2.03835,-1.31816 -2.73962,-2.62124 -0.56857,-1.05649 -0.56956,-1.09283 -0.56956,-20.92286 v -19.86453 l 0.79783,-1.29044 c 1.08055,-1.74769 2.9932,-2.76904 5.1855,-2.76904 1.52211,0 1.55733,0.0164 1.55877,0.7276 0.006,3.11817 2.4407,5.22828 4.7333,4.10281 1.35423,-0.66481 2.14439,-1.97165 2.14439,-3.54662 v -1.28379 h 9.49223 9.49224 l 0.1191,1.43612 c 0.23284,2.80786 2.47814,4.48049 4.59986,3.42666 1.41913,-0.70485 2.02588,-1.66262 2.17237,-3.42912 l 0.12428,-1.4987 1.96519,0.12612 c 1.62778,0.10446 2.15545,0.2597 3.07339,0.90416 0.60952,0.42793 1.40587,1.30854 1.76967,1.95692 l 0.66146,1.17888 0.0777,10.3849 c 0.0427,5.71169 0.0307,10.38489 -0.0267,10.38489 -0.0574,0 -0.47928,-0.13071 -0.93756,-0.29046 l -0.83323,-0.29047 v -5.66417 -5.66417 l -22.15886,0.0677 -22.15885,0.0677 v 15.26042 c 0,15.00025 0.009,15.27286 0.54551,15.99094 1.31322,1.7586 0.67445,1.67466 13.33042,1.75165 l 11.49468,0.0699 0.50207,0.8599 0.50207,0.85989 -11.99675,-0.0103 c -10.11612,-0.009 -12.14162,-0.0732 -12.9209,-0.41112 z m 4.68036,-6.09697 c -0.32971,-0.32971 -0.21119,-5.78428 0.13316,-6.12864 0.36385,-0.36384 5.42465,-0.44327 5.97544,-0.0938 0.25185,0.1598 0.32034,0.99782 0.26459,3.23709 l -0.0752,3.02148 -3.05681,0.0741 c -1.68125,0.0408 -3.13976,-0.009 -3.24115,-0.11024 z m 8.9721,-0.25007 c -0.30276,-0.78897 -0.17579,-5.54588 0.1569,-5.87857 0.33269,-0.33269 5.0896,-0.45966 5.87857,-0.1569 0.34916,0.13399 0.41851,0.68199 0.41851,3.30729 v 3.14669 h -3.14669 c -2.6253,0 -3.17331,-0.0693 -3.30729,-0.41851 z m -8.98674,-9.04596 c -0.11701,-0.18933 -0.23873,-3.9823 -0.18662,-5.81521 0.0166,-0.58344 0.0804,-0.59532 3.20007,-0.59532 h 3.18314 l -0.0743,3.24115 -0.0743,3.24114 -2.95571,0.0746 c -1.62564,0.041 -3.01718,-0.0248 -3.0923,-0.14638 z m 9.0107,0.0358 c -0.10151,-0.10152 -0.18456,-1.59348 -0.18456,-3.31547 v -3.13091 h 3.18314 3.18315 l -0.0743,3.24115 -0.0743,3.24114 -2.92429,0.0743 c -1.60836,0.0409 -3.00735,-0.009 -3.10886,-0.11024 z m 8.98766,-0.008 c -0.097,-0.097 -0.17639,-1.5853 -0.17639,-3.30729 v -3.13091 h 3.14669 c 4.02605,0 4.14804,0.17773 1.79704,2.61802 -0.92601,0.96118 -2.00195,2.25362 -2.39097,2.87209 -0.55982,0.88999 -0.86295,1.12448 -1.45365,1.12448 -0.41048,0 -0.82571,-0.0794 -0.92272,-0.17639 z m -18.3181,-9.69634 c -0.0734,-0.19126 -0.0994,-1.64977 -0.0578,-3.24115 l 0.0756,-2.89342 2.96268,-0.0747 c 3.55805,-0.0897 3.55748,-0.0902 3.50557,3.18532 -0.0573,3.61669 0.1847,3.37166 -3.33024,3.37166 -2.25261,0 -3.05631,-0.0886 -3.15577,-0.34774 z m 8.99583,0 c -0.0734,-0.19126 -0.0994,-1.64977 -0.0578,-3.24115 l 0.0756,-2.89342 2.87218,-0.0754 c 1.89092,-0.0496 2.99824,0.0292 3.24115,0.23083 0.26961,0.22376 0.36896,1.0041 0.36896,2.89801 0,1.42549 -0.0723,2.78013 -0.16059,3.01031 -0.13348,0.34784 -0.67107,0.41852 -3.18331,0.41852 -2.25292,0 -3.05669,-0.0886 -3.15614,-0.34774 z m 8.99907,0.008 c -0.0752,-0.1959 -0.10265,-1.65821 -0.0611,-3.24959 l 0.0756,-2.89342 2.93728,-0.0744 c 2.28931,-0.058 3.00635,0.009 3.25038,0.30282 0.20988,0.25289 0.28825,1.32418 0.23772,3.24945 l -0.0754,2.87217 -3.11392,0.0746 c -2.41856,0.0579 -3.14444,-0.005 -3.25059,-0.28158 z m 7.9375,0 c -0.0752,-0.1959 -0.10265,-1.65821 -0.0611,-3.24959 l 0.0756,-2.89342 h 3.175 3.175 v 3.175 3.175 l -3.11391,0.0746 c -2.41857,0.0579 -3.14444,-0.005 -3.2506,-0.28158 z m -24.07459,-19.09556 c -0.61964,-0.61964 -0.64943,-0.79985 -0.64943,-3.92775 0,-3.58306 0.12762,-3.91357 1.65878,-4.29572 0.91494,-0.22835 2.23859,0.2937 2.45236,0.96722 0.088,0.27725 0.15999,1.90038 0.15999,3.60697 0,3.0217 -0.0182,3.11854 -0.69511,3.7008 -0.92245,0.79346 -2.10239,0.77268 -2.92659,-0.0515 z m 25.92917,0 c -0.61964,-0.61964 -0.64944,-0.79985 -0.64944,-3.92775 0,-2.78685 0.0694,-3.34086 0.46303,-3.69557 0.70241,-0.63301 1.83172,-0.82311 2.71536,-0.4571 1.05929,0.43877 1.40693,1.80805 1.26799,4.99427 -0.10105,2.31707 -0.1567,2.52381 -0.83686,3.10886 -0.95622,0.8225 -2.12382,0.81355 -2.96008,-0.0227 z"
         id="path856" />
    </g>
  </g>
</svg>
