<svg width="512" height="512" viewBox="0 0 135.467 135.467" xmlns="http://www.w3.org/2000/svg"><path style="fill:#6e145c;stroke-width:1" d="M228.196 93.883V26.15h135.466v135.467H228.196zm72.628 16.007c2.988-.628 5.517-2.029 7.833-4.34 1.107-1.106 2.204-2.383 2.438-2.839l.427-.83-2.94-1.943-2.938-1.943-.426.654c-.875 1.344-2.156 2.564-3.388 3.228-3.453 1.86-7.293 1.386-10.108-1.247-4.471-4.183-3.417-11.342 2.09-14.199.92-.476 1.724-.639 3.525-.71 2.177-.087 2.447-.038 4.021.737 1.524.75 3.832 2.854 3.832 3.494 0 .438.495.214 3.08-1.394 3.635-2.26 3.488-2.023 2.231-3.614-2.432-3.076-5.624-5.194-9.046-6-1.71-.403-5.667-.538-6.81-.233-.422.113-2.481 2.663-6.418 7.948l-5.798 7.781 3.758 4.947c7.167 9.437 7.923 10.37 8.505 10.493l1.105.234c1.14.241 3.26.147 5.027-.224zm52.684-.646c1.421-.539 1.609-.9 1.165-2.245l-.298-.903-1.213.537c-1.546.683-3.944.908-5.216.488-.656-.216-1.212-.677-1.693-1.402l-.715-1.08-.084-7.759-.084-7.76h6.386v-2.675l-2.58.031c-1.418.018-2.847.024-3.175.015-.572-.015-.595-.108-.595-2.428 0-2.372-.01-2.41-.595-2.253a6.39 6.39 0 0 1-1.338.164l-.743.004.081 11.575c.08 11.418.09 11.593.687 12.889.712 1.544 1.236 2.171 2.258 2.7 1.865.964 5.356 1.01 7.752.102zm-108.643-5.7v-6.213l7.474-.07 7.474-.07.075-3.11.075-3.108h-15.098V85.16l7.124-.07 7.125-.071-2.296-3.099-2.296-3.098-8.533-.01-8.533-.01v30.955h7.409zm25.959 1.584c1.91-2.546 3.568-4.63 3.683-4.63.115 0 1.797 2.082 3.738 4.627l3.529 4.627 4.315.003c3.383.003 4.272-.068 4.114-.328-.11-.182-2.677-3.588-5.704-7.57-3.027-3.98-5.503-7.33-5.503-7.444 0-.113.922-1.398 2.05-2.856 4.197-5.423 9.327-12.216 9.327-12.351 0-.077-1.948-.14-4.33-.14h-4.328l-1.557 2.05c-3.228 4.252-5.456 7.08-5.621 7.137-.094.032-1.768-2.022-3.719-4.564l-3.547-4.623h-4.324c-2.378 0-4.324.063-4.324.14 0 .127 4.126 5.6 9.323 12.364 1.255 1.634 1.962 2.776 1.827 2.952-3.474 4.56-11.15 14.923-11.15 15.055 0 .1 1.963.181 4.363.181h4.363zm54.21 4.237c6.138-.508 9.858-3.86 9.858-8.884 0-3.314-1.416-5.723-4.176-7.101l-1.187-.593 1.254-.841c1.666-1.117 2.491-2.644 2.652-4.908.183-2.583-.262-3.88-1.88-5.487-1.73-1.717-3.56-2.415-7.378-2.814-2.697-.282-6.51-.064-8.867.507l-.595.145v29.528l1.785.292c3.127.513 4.024.53 8.533.156zm-6.55-2.708-.86-.107V94.336l4.565.15c5.485.181 6.86.52 8.221 2.026 2.586 2.862 1.721 7.385-1.757 9.188-1.728.896-6.806 1.374-10.168.957zm-.86-20.014v-5.388l1.228-.168c3.631-.498 7.474.02 9.282 1.25 1.565 1.065 2.193 2.253 2.185 4.134-.016 4.13-2.377 5.56-9.178 5.56h-3.516zm22.226 10.812V85.152h-2.911v24.606h2.911zm.097-16.026c1.575-1.24.408-4.223-1.503-3.84-1.261.252-1.841.976-1.841 2.297 0 .85.146 1.247.594 1.61.786.636 1.89.61 2.75-.067z" transform="translate(-228.196 -26.15)"/></svg>