<?xml version="1.0" encoding="UTF-8" standalone="no"?>
<svg
   width="554"
   height="554"
   xml:space="preserve"
   version="1.1"
   id="svg20"
   sodipodi:docname="mirae_asset.svg"
   inkscape:version="1.1.1 (3bf5ae0d25, 2021-09-20)"
   xmlns:inkscape="http://www.inkscape.org/namespaces/inkscape"
   xmlns:sodipodi="http://sodipodi.sourceforge.net/DTD/sodipodi-0.dtd"
   xmlns="http://www.w3.org/2000/svg"
   xmlns:svg="http://www.w3.org/2000/svg"><defs
     id="defs24" /><sodipodi:namedview
     id="namedview22"
     pagecolor="#ffffff"
     bordercolor="#666666"
     borderopacity="1.0"
     inkscape:pageshadow="2"
     inkscape:pageopacity="0.0"
     inkscape:pagecheckerboard="0"
     showgrid="false"
     inkscape:zoom="0.79580023"
     inkscape:cx="334.25474"
     inkscape:cy="353.73199"
     inkscape:window-width="2560"
     inkscape:window-height="1017"
     inkscape:window-x="-8"
     inkscape:window-y="-8"
     inkscape:window-maximized="1"
     inkscape:current-layer="svg20" /><path
     style="fill:#004179;fill-opacity:1;stroke-width:0.600001;paint-order:markers stroke fill"
     d="M 0,0 H 554 V 554.00001 H 0 Z"
     id="path2" /><g
     style="fill:#ffffff"
     fill="#004179"
     id="g16"><path
       transform="translate(15.03,92.698)"
       style="fill:#ffffff"
       d="M 86.484,137.069 83,196.988 V 197 h 22 l 4,-86 H 78.31 L 57.083,160.238 50.348,111 H 22 L 2,197 H 23.213 L 36.625,137.054 44.26,197 H 61.277 Z M 127,111 h 24 l -12.499,86 H 115"
       id="path4" /><path
       d="m 219.001,143.571 c 4.667,-5.833 5.833,-14.084 5.833,-20 0,-5.916 -1.333,-11.333 -6.333,-16.333 -5,-5 -15.417,-6.333 -21,-6.333 -5.583,0 -32.709,-0.024 -32.709,-0.024 L 152.334,187 H 174 L 180.001,145.369 197.834,187 H 221 l -17.499,-36.179 c 0,0 10.834,-1.417 15.5,-7.25 z m -17.5,-16.666 c 0,13.584 -13.583,12.916 -13.583,12.916 l -7.083,-0.25 3.167,-22.333 c 0,0 -4.5,-0.083 6.833,-0.083 11.333,0 10.666,9.75 10.666,9.75 z M 290.251,101 H 261 l -38,86 h 23.104 l 6.981,-18 h 26.394 l 2.602,18 H 305 Z M 259,152 272.584,120.084 277,152 Z"
       style="fill:#ffffff"
       transform="translate(15.03,102.698)"
       id="path6" /><path
       transform="translate(15.03,92.698)"
       style="fill:#ffffff"
       d="m 341,145 h -2 L 338.656,144.969 341,128 h 32.777 L 376,111 h -55 l -12,86 h 55.756 l 2.484,-19 H 334 l 2.256,-16 H 367 l 2.256,-17 z"
       id="path8" /><path
       d="m 99.643,262.57 18.417,-17.166 c 0,0 14.72,4.15 25.96,5.728 l -5.712,-33.311 h -29.252 l -38,86 H 94.16 l 6.981,-18 h 26.394 l 2.602,18 h 22.92 l -6.42,-37.438 c -12.158,-0.642 -36.669,-2.091 -46.994,-3.812 z"
       style="fill:#ffffff"
       transform="translate(15.03,102.698)"
       id="path10" /><path
       d="m 512.443,163.491 c 3.435,3.622 3.474,7.76 3.474,7.76 0,8.834 -9.25,7.833 -9.25,7.833 -11.333,0 -22.5,-12.083 -22.5,-12.083 l -11,18.333 c 12.667,11 23.333,14.417 34.333,14.417 11,0 17.75,-3.584 23.417,-8.667 5.667,-5.083 9.75,-12.75 9.75,-24.583 0,-1.024 -0.074,-1.989 -0.183,-2.929 z m 19.23,-14.406 c -2.779,-2.056 -6.115,-3.858 -9.923,-5.584 -11.584,-5.25 -10.5,-10.334 -10.5,-10.334 -0.167,-1.25 0.834,-7.416 8.084,-7.583 7.25,-0.167 16.333,7.833 16.333,7.833 l 8.833,-16.833 c -5.75,-5.083 -15.416,-9.25 -26.833,-9.25 -11.417,0 -17.5,3.667 -24.75,9.833 -7.25,6.166 -7.333,20.75 -7.333,20.75 0,3.707 0.795,6.772 2.042,9.313 7.234,0.495 31.341,2.057 44.047,1.855 z m 63.867,-2.076 c -2.055,-1.231 -4.318,-2.388 -6.79,-3.508 -11.584,-5.25 -10.5,-10.334 -10.5,-10.334 -0.167,-1.25 0.834,-7.416 8.084,-7.583 7.25,-0.167 16.333,7.833 16.333,7.833 l 8.833,-16.833 c -5.75,-5.083 -15.416,-9.25 -26.833,-9.25 -11.417,0 -17.5,3.667 -24.75,9.833 -7.25,6.166 -7.333,20.75 -7.333,20.75 0,4.509 1.171,8.074 2.909,10.891 7.792,-0.081 26.962,-0.417 40.047,-1.799 z m -19.445,13.89 c 6.762,3.835 6.822,10.352 6.822,10.352 0,8.834 -9.25,7.833 -9.25,7.833 -11.333,0 -22.5,-12.083 -22.5,-12.083 l -11,18.333 c 12.667,11 23.333,14.417 34.333,14.417 11,0 17.75,-3.584 23.417,-8.667 5.667,-5.083 9.75,-12.75 9.75,-24.583 0,-3.692 -0.714,-6.808 -2.049,-9.507 z M 668,162 h 3 l 2.256,-17 h -8.15 L 618.753,155.769 613,197 h 55.756 l 2.484,-19 H 638 l 2.256,-16 H 667 Z m -43,-51 -4.646,33.3 c 5.131,-0.61 15.413,-1.911 22.859,-3.359 L 645,128 h 32.777 L 680,111 Z m 114.876,0 H 688 l -3.166,20.25 0.478,0.016 c 5.991,-1.678 34.643,-9.966 54.564,-20.266 z m -23.958,14.583 c -5.954,2.168 -12.23,4.31 -17.686,6.12 l 3.852,0.13 L 693,197 h 24.584 L 727,132 h 17.084 l 2.827,-20.359 c -2.632,1.382 -17.119,8.889 -30.993,13.942 z"
       style="fill:#ffffff"
       transform="translate(-304.914,209.518)"
       id="path12" /><path
       d="M 378.288,238.524 C 267.188,276.56 145.31,266.32 145.31,266.32 l -0.92,6.333 c 54.666,4 103.666,-1 144.666,-5.5 41,-4.5 92.5,-23.5 92.5,-23.5 l 5.167,-3 -0.834,-3 -7,1 2.147,-0.742 c -0.25,-0.017 -0.5,-0.038 -0.756,-0.07 l -1.992,0.682 z"
       style="fill:#ffffff"
       transform="translate(15.03,102.698)"
       id="path14" /></g><path
     fill="#f6821f"
     d="m 450.17,313.935 1.25,1.584 c 0,0 79.389,-38.467 92.777,-105.234 l -27.861,13.358 c 0,0 -4.332,43.71 -66.166,90.292 z"
     id="path18" /></svg>
