<?xml version="1.0" encoding="UTF-8" standalone="no"?>
<svg
   width="635"
   height="635"
   xml:space="preserve"
   version="1.1"
   id="svg16"
   sodipodi:docname="nordeste.svg"
   inkscape:version="1.1.1 (3bf5ae0d25, 2021-09-20)"
   xmlns:inkscape="http://www.inkscape.org/namespaces/inkscape"
   xmlns:sodipodi="http://sodipodi.sourceforge.net/DTD/sodipodi-0.dtd"
   xmlns="http://www.w3.org/2000/svg"
   xmlns:svg="http://www.w3.org/2000/svg"><defs
     id="defs20" /><sodipodi:namedview
     id="namedview18"
     pagecolor="#ffffff"
     bordercolor="#666666"
     borderopacity="1.0"
     inkscape:pageshadow="2"
     inkscape:pageopacity="0.0"
     inkscape:pagecheckerboard="0"
     showgrid="false"
     inkscape:zoom="0.67856987"
     inkscape:cx="-86.947568"
     inkscape:cy="347.05343"
     inkscape:window-width="2560"
     inkscape:window-height="1017"
     inkscape:window-x="-8"
     inkscape:window-y="-8"
     inkscape:window-maximized="1"
     inkscape:current-layer="svg16" /><path
     style="fill:#f9f9f9;stroke-width:0.6;paint-order:markers stroke fill"
     d="M 0,5e-6 H 635 V 635 H 0 Z"
     id="path2" /><g
     id="g843"
     transform="translate(2.3516074,-3.7509533)"><g
       style="stroke-width:1.9813"
       fill="#a80a35"
       id="g8"><path
         d="m 165.772,733.125 v 139.384 c 161.605,-7.071 212.703,73.016 212.703,73.016 -16.572,-198.681 -212.703,-212.4 -212.703,-212.4 z m 212.704,212.4 c 0,0 51.098,-80.087 212.703,-73.016 V 733.125 c 0,0 -196.13,13.719 -212.703,212.4 z"
         style="stroke-width:5.59116"
         transform="matrix(0.50472,0,0,0.50472,128.415,-270.03)"
         id="path4" /><path
         d="m 378.628,945.371 c 0,0 80.086,51.098 73.015,212.703 h 139.384 c 0,0 -13.72,-196.13 -212.399,-212.703 z m -350.37,413.39 H 172.843 C 143.552,1006.842 378.323,945.373 378.323,945.373 -0.731,961.391 28.258,1358.761 28.258,1358.761 Z"
         style="stroke-width:5.59116"
         transform="matrix(0.50472,0,0,0.50472,128.415,-270.03)"
         id="path6" /></g><path
       fill="#f68c1f"
       d="M 421.287,54.96 H 217.59 c -27.826,0 -50.385,22.56 -50.385,50.386 v 146.538 c 7.658,-9.662 16.28,-18.904 26,-27.51 v -116.38 c 0,-14.931 12.103,-27.034 27.034,-27.034 H 418.64 c 14.93,0 27.035,12.103 27.035,27.034 v 198.401 c 0,14.93 -12.105,27.035 -27.035,27.035 h -177.5 v 25.998 h 180.148 c 27.826,0 50.385,-22.559 50.385,-50.385 V 105.346 c 0,-27.827 -22.56,-50.385 -50.386,-50.385 z"
       style="stroke-width:0.999999"
       id="path10" /><g
       style="stroke-width:3.56804"
       fill="#a80a35"
       id="g14"><path
         d="m 901.159,900.756 c 12.3,-10.725 20.714,-26.001 20.714,-45.503 0,-29.902 -21.038,-48.102 -44.015,-53.952 v -0.975 c 23.625,-8.774 36.249,-26.976 36.249,-47.127 0,-18.852 -9.062,-33.153 -22.655,-41.277 -14.563,-10.075 -33.012,-13.976 -62.14,-13.976 -22.655,0 -45.634,2.276 -58.256,4.875 v 215.16 c 10.357,1.3 26.863,2.926 48.872,2.926 40.129,0 65.697,-6.825 81.231,-20.151 z M 810.538,729.147 c 4.208,-0.975 11.003,-1.625 22.655,-1.625 25.244,0 40.78,9.426 40.78,30.227 0,18.525 -15.211,31.527 -43.045,31.527 h -20.39 z m 0,89.056 h 19.743 c 27.509,0 49.842,10.4 49.842,36.077 0,26.976 -22.979,36.402 -48.548,36.402 -9.062,0 -15.859,0 -21.036,-0.975 v -71.504 z m 223.308,82.879 h 0.971 l 2.911,17.552 h 35.925 c -1.941,-9.75 -2.588,-23.727 -2.588,-38.027 v -56.878 c 0,-34.777 -14.565,-66.953 -65.053,-66.953 -24.923,0 -45.312,6.825 -56.963,13.976 l 7.768,26.001 c 10.681,-6.825 26.862,-11.7 42.396,-11.7 27.834,0 32.042,17.226 32.042,27.626 v 2.599 c -58.258,-0.325 -93.535,20.151 -93.535,59.804 0,24.052 17.8,47.127 49.518,47.127 20.717,-10e-4 37.224,-8.777 46.608,-21.127 z m -56.638,-30.227 c 0,-24.052 26.862,-29.902 55.02,-29.577 v 21.776 c 0,2.926 0,5.85 -0.97,8.774 -3.884,11.376 -15.211,21.776 -31.395,21.776 -12.622,0.002 -22.655,-7.148 -22.655,-22.749 z m 200.659,-81.579 c 21.684,0 30.098,17.225 30.098,39.978 v 89.378 h 39.809 v -93.93 c 0,-50.053 -28.481,-67.928 -55.993,-67.928 -26.215,0 -43.369,14.951 -50.488,27.301 h -0.971 l -1.941,-23.725 h -34.631 c 0.648,13.651 1.295,28.927 1.295,47.127 v 111.155 h 39.808 v -93.28 c 0,-4.55 0.648,-9.426 1.943,-12.675 4.208,-12.026 15.213,-23.401 31.071,-23.401 z m 175.411,132.607 c 19.744,0 36.249,-4.226 44.664,-8.126 l -5.502,-29.577 c -7.768,3.251 -17.8,6.175 -31.395,6.175 -27.185,0 -48.223,-18.527 -48.223,-51.028 -0.324,-28.927 17.8,-51.353 48.223,-51.353 14.241,0 23.627,2.926 30.099,6.175 l 7.12,-30.227 c -9.063,-3.901 -23.95,-7.15 -38.514,-7.15 -55.344,0 -87.708,36.727 -87.708,84.179 10e-4,49.079 32.042,80.932 81.236,80.932 z m 212.961,-83.855 c 0,-48.102 -31.395,-81.254 -78.323,-81.254 -47.577,0 -81.559,31.851 -81.559,83.854 0,51.028 34.63,81.579 78.969,81.579 40.134,10e-4 80.913,-26.002 80.913,-84.179 z m -118.779,1.626 c 0,-26.327 11.327,-53.954 39.484,-53.954 27.187,0 38.191,28.602 38.191,53.303 0,32.177 -15.859,54.277 -38.514,54.277 -23.95,10e-4 -39.161,-23.076 -39.161,-53.626 z m 259.879,82.554 c 22.656,0 41.75,-11.05 51.137,-28.602 h 0.646 l 1.943,25.027 h 35.277 c -0.648,-10.725 -1.294,-28.276 -1.294,-44.528 V 687.87 h -39.809 v 89.379 h -0.648 c -7.12,-11.702 -22.655,-20.476 -44.34,-20.476 -37.866,0 -70.878,31.527 -70.555,84.504 10e-4,48.753 29.777,80.931 67.643,80.931 z m 12.623,-134.557 c 18.124,0 30.747,12.675 34.306,27.951 0.648,3.251 0.971,7.476 0.971,10.726 v 23.727 c 0,4.226 -0.324,8.124 -1.295,11.7 -3.883,17.226 -18.124,28.276 -34.306,28.276 -25.244,0 -39.485,-21.126 -39.485,-50.378 -10e-4,-29.251 14.241,-52.002 39.809,-52.002 z m 178.648,134.557 c 40.133,0 80.913,-26.002 80.913,-84.179 0,-48.102 -31.395,-81.254 -78.323,-81.254 -47.577,0 -81.559,31.851 -81.559,83.854 0,51.027 34.63,81.579 78.969,81.579 z m 1.618,-136.508 c 27.187,0 38.191,28.602 38.191,53.303 0,32.177 -15.859,54.277 -38.514,54.277 -23.95,0 -39.161,-23.077 -39.161,-53.627 0,-26.327 11.327,-53.953 39.484,-53.953 z m -995.509,246.724 c 0,33.153 0.971,62.729 3.884,91.656 h -0.648 C 897.922,1099.377 885.3,1072.076 872.354,1049 l -45.31,-80.28 h -57.61 v 219.061 h 45.312 v -65.978 c 0,-35.753 -0.648,-66.628 -2.266,-95.879 h 1.295 c 10.357,25.676 24.92,53.952 37.867,77.353 l 46.606,84.504 h 51.785 v -219.06 h -45.312 v 63.703 z m 148.875,-7.474 c -51.137,0 -84.796,32.825 -84.796,84.504 0,51.352 35.601,81.904 81.883,81.904 42.398,0 83.502,-26.651 83.502,-84.829 -10e-4,-48.104 -32.366,-81.579 -80.589,-81.579 z m -1.617,130.981 c -21.038,0 -32.366,-20.475 -32.366,-47.776 0,-23.4 9.063,-47.779 32.366,-47.779 22.331,0 31.395,24.053 31.395,47.453 0,28.926 -11.978,48.102 -31.395,48.102 z M 1196.32,1058.1 h -1.294 l -1.941,-29.25 h -42.074 c 0.971,13.652 1.294,28.925 1.294,52.328 v 106.604 h 49.194 v -80.603 c 0,-3.901 0.324,-7.802 0.971,-11.05 3.236,-15.276 15.535,-25.026 33.66,-25.026 5.502,0 9.386,0.648 13.27,1.298 v -46.476 c -3.56,-0.65 -5.825,-0.975 -10.357,-0.975 -15.536,0 -34.633,9.75 -42.723,33.15 z m 217.486,-101.079 h -49.194 v 85.806 h -0.648 c -7.12,-10.728 -22.008,-17.877 -41.75,-17.877 -37.866,0 -71.202,31.202 -70.878,84.829 0,49.401 30.098,81.579 67.643,81.579 20.39,0 39.808,-9.1 49.518,-26.651 h 0.97 l 1.943,23.075 h 43.693 c -0.648,-10.725 -1.295,-29.577 -1.295,-47.451 v -183.31 z m -49.194,159.908 c 0,3.901 -0.324,7.802 -0.971,11.375 -2.911,13.976 -14.563,23.728 -28.803,23.728 -20.39,0 -33.66,-16.901 -33.66,-43.878 0,-25.026 11.327,-45.178 33.984,-45.178 15.211,0 25.892,11.05 28.803,24.05 0.648,2.926 0.648,6.502 0.648,9.102 z m 147.256,-91.654 c -55.02,0 -79.942,44.528 -79.942,84.829 0,49.726 30.747,80.929 84.472,80.929 21.361,0 41.103,-3.251 57.286,-10.075 l -6.473,-33.478 c -13.27,4.551 -26.863,6.827 -43.693,6.827 -22.98,0 -43.37,-9.752 -44.664,-30.227 h 101.948 c 0.648,-3.576 1.619,-11.05 1.619,-19.502 0,-39.326 -19.416,-79.303 -70.553,-79.303 z m -33.335,65.002 c 1.294,-13 9.709,-32.177 30.422,-32.177 22.655,0 27.833,20.152 27.833,32.177 z m 188.684,0.326 c -19.419,-6.824 -25.568,-10.725 -25.568,-18.527 0,-7.799 6.798,-12.676 18.773,-12.676 13.27,0 27.185,5.201 34.307,9.102 l 8.414,-34.128 c -9.709,-4.874 -25.892,-9.425 -44.339,-9.425 -39.161,0 -64.407,22.425 -64.407,52.327 -0.324,18.852 12.3,36.726 45.312,47.779 18.124,6.174 22.979,10.075 22.979,18.524 0,8.127 -6.149,13.001 -21.038,13.001 -14.563,0 -33.336,-6.174 -42.398,-11.7 l -8.738,35.103 c 11.974,6.499 30.422,11.375 51.136,11.375 45.312,0 68.291,-21.778 68.291,-51.677 -0.325,-23.077 -12.624,-38.679 -42.724,-49.078 z m 115.538,-104.656 -48.223,13.326 v 29.577 h -21.038 v 36.402 h 21.038 v 65.002 c 0,22.428 4.53,37.704 13.593,47.128 8.091,8.124 21.36,13.651 37.219,13.651 13.593,0 25.568,-1.951 31.718,-4.226 l -0.324,-37.376 c -4.53,0.975 -7.768,1.3 -14.563,1.3 -14.565,0 -19.42,-8.777 -19.42,-27.951 v -57.528 h 35.277 v -36.402 h -35.277 z m 120.72,39.328 c -55.02,0 -79.942,44.528 -79.942,84.829 0,49.726 30.747,80.929 84.472,80.929 21.361,0 41.103,-3.251 57.286,-10.075 l -6.473,-33.478 c -13.27,4.551 -26.863,6.827 -43.693,6.827 -22.98,0 -43.37,-9.752 -44.664,-30.227 h 101.948 c 0.648,-3.576 1.619,-11.05 1.619,-19.502 10e-4,-39.326 -19.418,-79.303 -70.553,-79.303 z m -33.336,65.002 c 1.294,-13 9.709,-32.177 30.422,-32.177 22.655,0 27.833,20.152 27.833,32.177 z"
         style="stroke-width:10.0689"
         transform="matrix(0.28027,0,0,0.28027,-66.924,253.64)"
         id="path12" /></g></g></svg>
