<?xml version="1.0" encoding="UTF-8" standalone="no"?>
<svg
   xml:space="preserve"
   width="288"
   height="288"
   version="1.1"
   id="svg55"
   sodipodi:docname="votorantim.svg"
   inkscape:version="1.1.1 (3bf5ae0d25, 2021-09-20)"
   xmlns:inkscape="http://www.inkscape.org/namespaces/inkscape"
   xmlns:sodipodi="http://sodipodi.sourceforge.net/DTD/sodipodi-0.dtd"
   xmlns="http://www.w3.org/2000/svg"
   xmlns:svg="http://www.w3.org/2000/svg"><sodipodi:namedview
     id="namedview57"
     pagecolor="#ffffff"
     bordercolor="#666666"
     borderopacity="1.0"
     inkscape:pageshadow="2"
     inkscape:pageopacity="0.0"
     inkscape:pagecheckerboard="0"
     showgrid="false"
     inkscape:zoom="1.0526695"
     inkscape:cx="-236.54148"
     inkscape:cy="163.8691"
     inkscape:window-width="2560"
     inkscape:window-height="1017"
     inkscape:window-x="-8"
     inkscape:window-y="-8"
     inkscape:window-maximized="1"
     inkscape:current-layer="svg55" /><defs
     id="defs45"><linearGradient
       x1="0"
       y1="0"
       x2="1"
       y2="0"
       gradientUnits="userSpaceOnUse"
       gradientTransform="matrix(106.38481,-56.565805,56.565805,106.38481,539.90374,395.7008)"
       spreadMethod="pad"
       id="a"><stop
         style="stop-opacity:1;stop-color:#00639e"
         offset="0"
         id="stop2" /><stop
         style="stop-opacity:1;stop-color:#00639e"
         offset=".034"
         id="stop4" /><stop
         style="stop-opacity:1;stop-color:#00639e"
         offset=".046"
         id="stop6" /><stop
         style="stop-opacity:1;stop-color:#2fb3e2"
         offset=".14"
         id="stop8" /><stop
         style="stop-opacity:1;stop-color:#009dd2"
         offset=".3"
         id="stop10" /><stop
         style="stop-opacity:1;stop-color:#004a80"
         offset=".977"
         id="stop12" /><stop
         style="stop-opacity:1;stop-color:#004a80"
         offset="1"
         id="stop14" /></linearGradient><linearGradient
       x1="0"
       y1="0"
       x2="1"
       y2="0"
       gradientUnits="userSpaceOnUse"
       gradientTransform="matrix(66.549807,-35.38516,35.38516,66.549807,520.88132,355.39458)"
       spreadMethod="pad"
       id="b"><stop
         style="stop-opacity:1;stop-color:#00639e"
         offset="0"
         id="stop17" /><stop
         style="stop-opacity:1;stop-color:#00639e"
         offset=".034"
         id="stop19" /><stop
         style="stop-opacity:1;stop-color:#00639e"
         offset=".05"
         id="stop21" /><stop
         style="stop-opacity:1;stop-color:#33addc"
         offset=".18"
         id="stop23" /><stop
         style="stop-opacity:1;stop-color:#009dd2"
         offset=".34"
         id="stop25" /><stop
         style="stop-opacity:1;stop-color:#004a80"
         offset=".979"
         id="stop27" /><stop
         style="stop-opacity:1;stop-color:#004a80"
         offset="1"
         id="stop29" /></linearGradient><linearGradient
       x1="0"
       y1="0"
       x2="1"
       y2="0"
       gradientUnits="userSpaceOnUse"
       gradientTransform="matrix(29.172634,-15.511364,15.511364,29.172634,501.9078,315.62873)"
       spreadMethod="pad"
       id="c"><stop
         style="stop-opacity:1;stop-color:#005e9a"
         offset="0"
         id="stop32" /><stop
         style="stop-opacity:1;stop-color:#005e9a"
         offset=".159"
         id="stop34" /><stop
         style="stop-opacity:1;stop-color:#33addc"
         offset=".35"
         id="stop36" /><stop
         style="stop-opacity:1;stop-color:#009dd2"
         offset=".51"
         id="stop38" /><stop
         style="stop-opacity:1;stop-color:#004a80"
         offset=".984"
         id="stop40" /><stop
         style="stop-opacity:1;stop-color:#004a80"
         offset="1"
         id="stop42" /></linearGradient></defs><path
     style="fill:#f9f9f9;stroke-width:0.599998;paint-order:markers stroke fill"
     d="M -5e-6,0 H 288 V 288 H -5e-6 Z"
     id="path47" /><g
     id="g877"
     transform="translate(-10.020753,-0.08509655)"><path
       d="m 197.43731,74.411942 h -0.15733 a 14.253298,14.253298 0 0 0 -12.85464,8.062647 l -37.8359,75.643811 a 23.758607,23.758607 0 0 1 -10.35864,10.59597 c -0.056,0.0293 -0.12134,0.0467 -0.18,0.072 a 17.079957,17.079957 0 0 1 -7.83598,1.88533 c -1.08133,0 -2.16,-0.1 -3.18933,-0.29733 l 17.97329,36.03324 c 2.09466,4.18132 6.05599,7.35065 11.00664,7.35065 4.81065,0 8.81331,-2.89999 10.82531,-6.92665 L 231.04656,74.411942 Z"
       style="fill:url(#a);stroke:none;stroke-width:1.33333"
       id="path49" /><path
       d="m 141.53612,74.411942 -0.40133,0.0027 a 14.210631,14.210631 0 0 0 -12.34131,7.866647 l -11.31064,22.627941 -0.028,0.064 -0.0387,0.0707 a 21.439946,21.439946 0 0 1 -9.36531,9.56264 c -0.216,0.10666 -0.42667,0.21466 -0.64667,0.31866 l -0.18133,0.084 a 15.173295,15.173295 0 0 1 -6.33465,1.356 14.933296,14.933296 0 0 1 -3.045326,-0.31067 l 17.801286,35.53992 c 1.83866,3.67599 5.31066,6.49198 9.67198,6.49865 4.41332,0 7.85598,-2.86133 9.71997,-6.57865 L 173.588,74.412005 Z"
       style="fill:url(#b);stroke:none;stroke-width:1.33333"
       id="path51" /><path
       d="m 76.994946,74.411942 12.727968,25.46527 c 1.574663,3.150658 4.797321,5.346658 8.566645,5.346658 3.750661,0 6.965321,-2.196 8.542641,-5.346658 l 12.73864,-25.46527 z"
       style="fill:url(#c);stroke:none;stroke-width:1.33333"
       id="path53" /></g></svg>
