<svg width="87" height="62" viewBox="0 0 87 62" fill="none" xmlns="http://www.w3.org/2000/svg">
<path opacity="0.1" d="M84.964 41.067C82.9845 45.1505 78.9651 47.881 74.7997 49.6817C69.1919 52.1068 63.0164 53.0686 56.9258 52.6618C55.8584 52.5908 54.7943 52.4773 53.7334 52.3213C50.0488 51.7838 46.4565 50.7377 43.0594 49.2131C42.0789 48.7715 41.1184 48.2895 40.1776 47.767C38.6064 46.8961 37.1009 45.9115 35.6732 44.8212C35.3141 44.547 34.96 44.2659 34.6108 43.9778C34.3687 43.7781 34.1288 43.574 33.8852 43.3758C33.3711 42.9579 32.8421 42.5608 32.2521 42.2635C32.074 42.1737 31.8915 42.0932 31.7052 42.0221C29.8367 41.3114 27.6821 41.5796 25.7368 42.1339C24.2572 42.5555 22.8149 43.1329 21.3367 43.5449C20.6793 43.7338 20.0093 43.8762 19.3319 43.9711C17.8194 44.1625 16.2834 44.0277 14.8275 43.5755L14.703 43.5367C14.4944 43.4712 14.2876 43.3994 14.0824 43.3214L13.958 43.2737C13.7593 43.1973 13.5649 43.1151 13.3747 43.0271L13.2503 42.9705C13.0516 42.8781 12.8571 42.7805 12.6669 42.6777C12.5984 42.642 12.5306 42.6032 12.4635 42.5667C11.3812 41.9622 10.3974 41.1962 9.54599 40.2951C9.52141 40.2706 9.49831 40.2452 9.47149 40.2206C9.35303 40.0925 9.23681 39.9621 9.12431 39.8288C9.08259 39.7796 9.04087 39.7304 8.99989 39.6797C8.86628 39.5168 8.73739 39.3502 8.61322 39.1798C8.5946 39.1553 8.57672 39.1299 8.55883 39.1053C8.0501 38.4015 7.62834 37.6388 7.30272 36.8338C7.29229 36.8092 7.28261 36.7838 7.27367 36.7593C7.17433 36.5035 7.08369 36.2434 7.00173 35.9792C6.96821 35.8689 6.93617 35.7557 6.90786 35.6454C6.89818 35.6127 6.88924 35.5791 6.88104 35.5464C6.46979 33.9274 6.42285 32.2444 6.42285 30.5711C6.42285 30.3759 6.42285 30.1809 6.42285 29.9862C6.43477 27.2796 6.47649 24.5267 6.87583 21.8573C6.87583 21.8387 6.88104 21.82 6.88402 21.8022C7.01768 20.9035 7.19947 20.0127 7.42863 19.1335C7.66847 18.211 7.97499 17.3071 8.34576 16.429C9.26437 14.2685 10.6002 12.3024 12.0835 10.48C15.8198 5.8944 20.7199 2.04486 26.4551 0.603988C32.635 -0.947897 39.5034 0.539171 44.4884 4.50791C46.0082 5.71783 47.3738 7.15051 49.0807 8.07807C50.5707 8.88567 52.3148 9.22019 53.9107 8.58468C55.2294 8.05944 56.0876 7.79868 57.5687 7.8784C60.635 8.05186 63.6577 8.685 66.5358 9.75661C66.6521 9.79907 66.7683 9.84303 66.8838 9.88699C74.3869 12.7576 80.8366 18.4607 84.1892 25.7895C84.2781 25.9832 84.3643 26.1784 84.4477 26.3751C86.4466 31.0442 87.1693 36.5164 84.964 41.067Z" fill="#6C63FF"/>
<path opacity="0.1" d="M9.92961 55.3543C13.562 55.3543 16.5067 54.8813 16.5067 54.2978C16.5067 53.7144 13.562 53.2414 9.92961 53.2414C6.29719 53.2414 3.35254 53.7144 3.35254 54.2978C3.35254 54.8813 6.29719 55.3543 9.92961 55.3543Z" fill="#6C63FF"/>
<path opacity="0.1" d="M68.9333 61.085C75.374 61.085 80.5952 60.578 80.5952 59.9526C80.5952 59.3272 75.374 58.8202 68.9333 58.8202C62.4927 58.8202 57.2715 59.3272 57.2715 59.9526C57.2715 60.578 62.4927 61.085 68.9333 61.085Z" fill="#6C63FF"/>
<path d="M79.4905 8.02737H10.5497C10.0358 8.02737 9.61914 8.44399 9.61914 8.95791V47.2037C9.61914 47.7176 10.0358 48.1342 10.5497 48.1342H79.4905C80.0044 48.1342 80.421 47.7176 80.421 47.2037V8.95791C80.421 8.44399 80.0044 8.02737 79.4905 8.02737Z" fill="url(#paint0_linear)"/>
<path d="M79.3869 8.59142H10.663C10.149 8.59142 9.73242 9.00803 9.73242 9.52195V47.0704C9.73242 47.5843 10.149 48.0009 10.663 48.0009H79.3869C79.9009 48.0009 80.3175 47.5843 80.3175 47.0704V9.52195C80.3175 9.00803 79.9009 8.59142 79.3869 8.59142Z" fill="white"/>
<path d="M79.3869 8.59142H10.663C10.149 8.59142 9.73242 9.00803 9.73242 9.52195V47.0704C9.73242 47.5843 10.149 48.0009 10.663 48.0009H79.3869C79.9009 48.0009 80.3175 47.5843 80.3175 47.0704V9.52195C80.3175 9.00803 79.9009 8.59142 79.3869 8.59142Z" fill="white"/>
<path opacity="0.04" d="M79.3869 8.59142H10.663C10.149 8.59142 9.73242 9.00803 9.73242 9.52195V47.0704C9.73242 47.5843 10.149 48.0009 10.663 48.0009H79.3869C79.9009 48.0009 80.3175 47.5843 80.3175 47.0704V9.52195C80.3175 9.00803 79.9009 8.59142 79.3869 8.59142Z" fill="white"/>
<path d="M79.9591 8.13914H10.0908C9.99574 8.13914 9.90459 8.1769 9.83738 8.24411C9.77018 8.31131 9.73242 8.40246 9.73242 8.4975V10.0121H80.3145V8.4975C80.3145 8.40297 80.2772 8.31227 80.2106 8.24515C80.144 8.17803 80.0536 8.13993 79.9591 8.13914Z" fill="#5A5773"/>
<path d="M11.1425 9.55995C11.4099 9.55995 11.6267 9.34313 11.6267 9.07568C11.6267 8.80823 11.4099 8.59142 11.1425 8.59142C10.875 8.59142 10.6582 8.80823 10.6582 9.07568C10.6582 9.34313 10.875 9.55995 11.1425 9.55995Z" fill="white"/>
<path d="M12.4452 9.5599C12.7127 9.5599 12.9295 9.34309 12.9295 9.07564C12.9295 8.80818 12.7127 8.59137 12.4452 8.59137C12.1778 8.59137 11.9609 8.80818 11.9609 9.07564C11.9609 9.34309 12.1778 9.5599 12.4452 9.5599Z" fill="white"/>
<path d="M13.7489 9.5599C14.0164 9.5599 14.2332 9.34309 14.2332 9.07564C14.2332 8.80818 14.0164 8.59137 13.7489 8.59137C13.4815 8.59137 13.2646 8.80818 13.2646 9.07564C13.2646 9.34309 13.4815 9.5599 13.7489 9.5599Z" fill="white"/>
<path opacity="0.2" d="M34.4872 13.5346H15.5449V15.1424H34.4872V13.5346Z" fill="#6C63FF"/>
<path opacity="0.1" d="M74.5031 19.9813H15.5449V44.7131H74.5031V19.9813Z" fill="#5A5773"/>
<path opacity="0.1" d="M50.0659 21.5943H49.0564V19.6334C49.0564 17.4207 47.2921 15.5812 45.0794 15.5477C44.5459 15.5421 44.0165 15.6421 43.5217 15.8421C43.027 16.042 42.5767 16.3378 42.1969 16.7126C41.817 17.0873 41.5151 17.5335 41.3085 18.0255C41.1018 18.5174 40.9946 19.0454 40.993 19.579V21.5943H39.9857C39.5405 21.5957 39.114 21.7731 38.7993 22.0879C38.4845 22.4027 38.307 22.8292 38.3057 23.2743V31.337C38.307 31.7821 38.4845 32.2087 38.7993 32.5234C39.114 32.8382 39.5405 33.0156 39.9857 33.017H50.0659C50.5109 33.0156 50.9374 32.8382 51.252 32.5234C51.5667 32.2086 51.744 31.7821 51.7451 31.337V23.2743C51.744 22.8293 51.5667 22.4027 51.252 22.0879C50.9374 21.7732 50.5109 21.5957 50.0659 21.5943ZM45.6143 26.8356V29.7233C45.6153 29.8762 45.5581 30.0237 45.4544 30.1361C45.3506 30.2484 45.2081 30.3171 45.0556 30.3282C44.976 30.332 44.8964 30.3195 44.8218 30.2916C44.7471 30.2637 44.6789 30.221 44.6212 30.1659C44.5635 30.1109 44.5176 30.0448 44.4863 29.9715C44.4549 29.8982 44.4387 29.8194 44.4387 29.7397V26.8341C44.1661 26.7011 43.9467 26.4798 43.8161 26.2061C43.6856 25.9324 43.6516 25.6225 43.7198 25.3271C43.7881 25.0316 43.9544 24.768 44.1917 24.5792C44.429 24.3904 44.7233 24.2877 45.0265 24.2877C45.3298 24.2877 45.624 24.3904 45.8614 24.5792C46.0987 24.768 46.265 25.0316 46.3332 25.3271C46.4014 25.6225 46.3675 25.9324 46.2369 26.2061C46.1064 26.4798 45.8869 26.7011 45.6143 26.8341V26.8356ZM47.8822 21.5943H42.1686V19.579C42.1686 18.8216 42.4695 18.0953 43.005 17.5598C43.5406 17.0242 44.2669 16.7233 45.0243 16.7233C45.7817 16.7233 46.508 17.0242 47.0436 17.5598C47.5791 18.0953 47.88 18.8216 47.88 19.579L47.8822 21.5943Z" fill="black"/>
<path d="M50.0659 21.4452H49.0564V19.4843C49.0564 17.2716 47.2921 15.4322 45.0794 15.3986C44.5459 15.393 44.0165 15.4931 43.5217 15.693C43.027 15.8929 42.5767 16.1888 42.1969 16.5635C41.817 16.9382 41.5151 17.3845 41.3085 17.8764C41.1018 18.3684 40.9946 18.8964 40.993 19.43V21.4452H39.9857C39.5405 21.4466 39.114 21.6241 38.7993 21.9388C38.4845 22.2536 38.307 22.6801 38.3057 23.1253V31.1879C38.307 31.6331 38.4845 32.0596 38.7993 32.3744C39.114 32.6891 39.5405 32.8666 39.9857 32.868H50.0659C50.5109 32.8666 50.9374 32.6891 51.252 32.3743C51.5667 32.0595 51.744 31.633 51.7451 31.1879V23.1253C51.744 22.6802 51.5667 22.2537 51.252 21.9389C50.9374 21.6241 50.5109 21.4466 50.0659 21.4452ZM45.6143 26.6865V29.5742C45.6153 29.7271 45.5581 29.8747 45.4544 29.987C45.3506 30.0993 45.2081 30.168 45.0556 30.1792C44.976 30.1829 44.8964 30.1704 44.8218 30.1425C44.7471 30.1146 44.6789 30.0719 44.6212 30.0169C44.5635 29.9618 44.5176 29.8957 44.4863 29.8224C44.4549 29.7492 44.4387 29.6703 44.4387 29.5906V26.685C44.1661 26.5521 43.9467 26.3307 43.8161 26.057C43.6856 25.7833 43.6516 25.4735 43.7198 25.178C43.7881 24.8825 43.9544 24.6189 44.1917 24.4302C44.429 24.2414 44.7233 24.1386 45.0265 24.1386C45.3298 24.1386 45.624 24.2414 45.8614 24.4302C46.0987 24.6189 46.265 24.8825 46.3332 25.178C46.4014 25.4735 46.3675 25.7833 46.2369 26.057C46.1064 26.3307 45.8869 26.5521 45.6143 26.685V26.6865ZM47.8822 21.4452H42.1686V19.43C42.1686 18.6726 42.4695 17.9462 43.005 17.4107C43.5406 16.8751 44.2669 16.5743 45.0243 16.5743C45.7817 16.5743 46.508 16.8751 47.0436 17.4107C47.5791 17.9462 47.88 18.6726 47.88 19.43L47.8822 21.4452Z" fill="#6C63FF"/>
<path opacity="0.1" d="M74.5038 17.601H68.5361V19.0098H74.5038V17.601Z" fill="#5A5773"/>
<path d="M76.5355 60.2938C76.4962 60.0963 76.429 59.9054 76.3359 59.7268L75.4418 58.3918H75.4471C75.4471 58.3918 75.3063 57.7212 75.4471 57.3919C75.5879 57.0626 74.9449 56.2528 74.9449 56.2528C74.9449 56.2528 74.8667 56.0494 75.0708 55.7991C75.275 55.5488 74.9449 54.8157 74.9449 54.8157C74.9449 54.8157 74.7885 53.2846 74.7728 53.0507C74.7572 52.8168 74.6313 51.5204 74.6313 51.5204L74.3333 48.772L73.8028 41.4879L73.7931 41.3516C73.8587 41.3196 73.8937 41.2994 73.8937 41.2994L73.7879 37.2718L73.8795 37.1891C74.6797 36.465 76.5251 34.7887 76.5065 34.7522C76.4879 34.7157 76.283 31.9531 76.2591 31.2617C76.2386 30.7704 76.1312 30.2866 75.9418 29.8328C75.8956 29.7411 75.7622 29.1369 75.7071 28.8814C75.6922 28.8113 75.6825 28.7674 75.6825 28.7674C75.6825 28.7674 75.1416 27.7363 75.1885 27.2677C75.2355 26.799 75.3293 26.4481 74.176 26.2842C74.176 26.2842 73.2075 26.1397 72.6309 25.7456C72.2898 25.5095 71.9171 25.3229 71.5238 25.1913C71.5238 25.1913 71.2004 24.5953 70.9754 24.7972C70.8802 24.5845 70.8089 24.3618 70.7631 24.1333L70.7564 24.0916C71.1835 23.7938 71.4909 23.3539 71.6236 22.8504C71.631 22.8221 71.637 22.793 71.6437 22.7647C71.6661 22.7723 71.6894 22.7766 71.713 22.7774C71.9089 22.7774 72.0296 22.5591 72.2129 22.4898C72.2874 22.4608 72.3791 22.4563 72.4364 22.3974C72.4553 22.3747 72.4694 22.3485 72.4779 22.3201C72.4863 22.2918 72.489 22.2621 72.4856 22.2328C72.4874 22.2125 72.4874 22.192 72.4856 22.1717C72.4859 22.1645 72.4859 22.1573 72.4856 22.1501V22.1575C72.4357 21.8863 72.2256 21.6457 72.2487 21.37C72.271 21.1108 72.499 20.8828 72.4804 20.6302C72.4801 20.6103 72.4784 20.5903 72.4752 20.5706V20.5796C72.4474 20.481 72.3963 20.3905 72.3262 20.3158C72.246 20.2066 72.1407 20.1182 72.0192 20.0581C71.9156 20.0126 71.7957 20.0022 71.6988 19.9478C71.4142 19.7928 71.415 19.389 71.2459 19.1134C71.1734 18.9983 71.0706 18.9055 70.9487 18.8451C70.8268 18.7848 70.6907 18.7593 70.5552 18.7714C70.3436 18.7923 70.1522 18.9048 69.9428 18.9413C69.6567 18.9919 69.3654 18.8988 69.0942 18.7923C68.8231 18.6857 68.5481 18.5688 68.2568 18.5688C67.9655 18.5688 67.6504 18.7178 67.5625 18.9927C67.5155 19.1417 67.5386 19.3019 67.5029 19.4531C67.4388 19.7198 67.2049 19.9105 66.9627 20.0432C66.8137 20.1259 66.6364 20.2205 66.5902 20.3769C66.5902 20.3725 66.5902 20.3687 66.5902 20.365C66.5869 20.3775 66.5844 20.3902 66.5828 20.403C66.5813 20.4196 66.5813 20.4363 66.5828 20.4529C66.5828 20.5602 66.6394 20.6623 66.6774 20.7643C66.7482 20.9585 66.7466 21.1717 66.6729 21.3648C66.6178 21.5064 66.5239 21.6308 66.4703 21.7716C66.445 21.8372 66.4285 21.9058 66.4211 21.9758V21.9638C66.4192 21.9956 66.4192 22.0274 66.4211 22.0592C66.4202 22.168 66.4457 22.2754 66.4956 22.3721C66.5298 22.4389 66.577 22.4981 66.6344 22.5464C66.6919 22.5946 66.7584 22.6309 66.8301 22.653C66.9791 22.6872 67.0722 22.5412 67.2294 22.5785C67.2576 22.5852 67.2852 22.594 67.3121 22.6046C67.3174 22.6381 67.3226 22.6716 67.3285 22.7044C67.4236 23.2058 67.6908 23.6583 68.084 23.9836C68.084 24.0015 68.0899 24.0194 68.0922 24.038C68.1398 24.335 68.1605 24.6357 68.154 24.9365C68.154 24.9365 67.9193 24.593 67.5975 25.2561C67.5975 25.2561 66.7578 25.7404 66.468 25.7955C66.1782 25.8506 65.1493 26.209 65.1493 26.209C64.9941 26.3212 64.8074 26.3814 64.6159 26.3811C64.2948 26.3811 64.0281 27.0836 64.0668 27.4658C64.1056 27.848 64.0437 28.1296 63.745 28.1453C63.4462 28.1609 63.6094 28.7666 63.6116 28.7771L63.584 28.9075C63.5259 29.1742 63.3993 29.7464 63.3546 29.8358C63.1651 30.2896 63.0574 30.7734 63.0365 31.2647C63.0134 31.9561 62.8129 34.7082 62.7898 34.7551C62.7742 34.7857 64.0385 35.9412 64.9273 36.7488L65.0562 36.8651L64.6472 40.6855C64.6591 40.8327 64.7029 40.9756 64.7754 41.1042C64.848 41.2329 64.9476 41.3442 65.0674 41.4306C65.0674 41.4753 65.0674 41.5207 65.0629 41.5676C65.045 42.0147 65.0093 42.5555 64.9378 42.6971C64.8126 42.9474 64.8439 44.29 64.8439 44.29C64.8439 44.29 64.718 47.0227 64.5615 47.32C64.4051 47.6172 64.373 48.2408 64.42 48.363C64.4669 48.4852 64.2628 51.767 64.2628 51.767L64.1063 53.2355C64.1063 53.2355 64.1532 54.6406 64.0117 54.6719C63.8701 54.7032 63.7919 55.6717 63.7919 55.6717C63.7919 55.6717 63.2905 56.3586 63.5095 56.6082C63.7286 56.8578 63.4775 56.968 63.4544 57.0299C63.4313 57.0917 62.9761 57.3279 63.3054 58.201C63.3084 58.2097 63.3119 58.2181 63.3158 58.2264C63.0074 58.6548 62.0299 60.0368 62.0895 60.2469C62.1335 60.3805 62.2268 60.4924 62.3503 60.5598C62.5805 60.6976 62.9754 60.7617 63.6034 60.5598C64.6464 60.2238 64.5719 59.9817 64.5719 59.9817C64.5773 59.8684 64.6259 59.7616 64.7076 59.6832C64.7894 59.6047 64.8982 59.5606 65.0115 59.56C65.4429 59.5287 65.7647 59.1308 65.7647 59.1308L65.7141 58.9423L65.6448 58.6816C65.653 58.6071 65.7059 58.4767 65.9428 58.4044C66.3041 58.2949 66.2095 57.608 66.2095 57.608C66.2095 57.608 66.1782 56.8898 66.3347 56.7959C66.4911 56.7021 66.4293 55.5152 66.4293 55.5152C66.4293 55.5152 66.6021 54.6562 66.8525 54.0781C67.1028 53.4999 67.4023 50.0654 67.4023 50.0654C67.4023 50.0654 67.6057 48.3787 67.7942 47.8944C67.9827 47.4101 68.1555 46.0519 68.1555 46.0519C68.1555 46.0519 69.317 43.8027 69.3319 43.3028C69.3319 43.3028 69.4809 42.8342 69.6299 43.3497C69.7789 43.8653 70.1976 45.0991 70.1976 45.0991L70.6051 46.6137L71.0917 48.8778L71.406 50.7836C71.406 50.7836 71.3584 51.5018 71.4806 51.7521C71.6027 52.0024 71.7786 52.5791 71.6847 52.6886C71.5908 52.7981 71.8724 53.3137 71.9514 53.4225C72.0304 53.5312 71.9514 55.843 71.9514 55.843C71.9514 55.843 72.312 57.8107 72.8298 58.1526C72.8659 58.1764 72.9043 58.1963 72.9445 58.2122C72.9371 58.4253 72.9296 58.7106 72.9393 58.8596C72.9382 58.893 72.9437 58.9261 72.9557 58.9572C73.0026 59.0198 73.5361 59.4415 73.6463 59.4415C73.7566 59.4415 74.1477 59.7149 74.1641 59.8476C74.1805 59.9802 75.3107 60.5419 75.4709 60.5583C75.6311 60.5747 76.4074 60.714 76.5139 60.4957C76.5403 60.4319 76.5478 60.3618 76.5355 60.2938ZM73.7588 32.1528L73.8393 32.2221C73.8393 32.2221 73.922 32.8665 73.9809 33.0595C74.0397 33.2524 73.9689 33.6279 73.9689 33.6279C73.9743 33.7681 74.0023 33.9064 74.0516 34.0377C74.1217 34.1785 73.9101 34.4847 73.9101 34.4847H73.7216L73.6627 32.0723L73.7588 32.1528ZM68.154 24.9499V24.9357C68.1525 24.9402 68.1518 24.9454 68.1518 24.9499H68.154ZM65.2596 34.2366C65.2306 34.1742 65.2263 34.1031 65.2477 34.0377C65.2644 34.0023 65.2777 33.9654 65.2872 33.9274C65.3103 33.8296 65.3248 33.7298 65.3304 33.6294C65.3305 33.6282 65.3305 33.6269 65.3304 33.6257C65.3237 33.5899 65.2633 33.2442 65.3192 33.061C65.3751 32.8777 65.46 32.2236 65.46 32.2236L65.5137 32.1781L65.6381 32.0701C65.6381 32.0701 65.6381 32.0298 65.647 31.9635C65.6731 32.5298 65.694 33.1556 65.6604 33.1869C65.5978 33.2487 65.3699 33.8574 65.425 33.8812C65.4429 33.8894 65.4183 34.133 65.3766 34.4609C65.3297 34.3905 65.2905 34.3153 65.2596 34.2366Z" fill="url(#paint1_linear)"/>
<path d="M71.2636 25.5451V26.472L69.3623 27.4278C69.3623 27.4278 67.4744 26.2857 67.9401 25.8312C68.2381 25.5437 68.1807 24.7539 68.1003 24.2108C68.0533 23.8949 67.9989 23.6632 67.9989 23.6632C67.9989 23.6632 71.3903 22.6947 70.8777 23.43C70.7064 23.6759 70.693 23.994 70.7503 24.3092C70.8665 24.9342 71.2636 25.5451 71.2636 25.5451Z" fill="#C37098"/>
<path d="M66.0556 34.6084L65.8105 37.6272C65.8105 37.6272 65.4432 37.2942 64.9678 36.8606C64.0865 36.0567 62.8348 34.9071 62.8497 34.8766C62.8728 34.8296 63.0732 32.0909 63.0949 31.4025C63.1152 30.9139 63.2217 30.4327 63.4093 29.981C63.454 29.8916 63.5799 29.3224 63.6328 29.0564C63.6506 28.9738 63.6618 28.9201 63.6618 28.9201L64.0731 28.7547C64.0731 28.7547 65.7866 30.6664 65.7866 30.7015C65.7866 30.7365 65.6697 32.2049 65.6697 32.2049L65.5482 32.3107L65.4953 32.3562C65.4953 32.3562 65.4134 32.9976 65.3553 33.1898C65.2971 33.3821 65.3597 33.7158 65.3664 33.7516C65.3609 33.852 65.3467 33.9517 65.324 34.0496C65.3142 34.0873 65.301 34.1239 65.2845 34.1591C65.2635 34.2243 65.2677 34.2951 65.2964 34.3573C65.3295 34.4437 65.3725 34.5259 65.4245 34.6024L66.0556 34.6084Z" fill="#3F3D56"/>
<path d="M76.4409 34.8765C76.4588 34.913 74.6312 36.5812 73.8393 37.3016L73.4802 37.6272L73.2373 34.6083H73.8669C73.8669 34.6083 74.0769 34.3051 74.0069 34.165C73.9581 34.0345 73.9307 33.8968 73.9257 33.7575C73.9257 33.7575 73.995 33.385 73.9369 33.192C73.8788 32.9991 73.7968 32.3584 73.7968 32.3584L73.7171 32.2898L73.6225 32.2071C73.6225 32.2071 73.5055 30.7387 73.5055 30.7037C73.5055 30.6686 75.2191 28.7569 75.2191 28.7569L75.6273 28.9201C75.6273 28.9201 75.6363 28.964 75.6512 29.0341C75.7063 29.2881 75.8382 29.8893 75.8836 29.981C76.0712 30.4326 76.1777 30.9139 76.198 31.4025C76.2174 32.0909 76.4171 34.8296 76.4409 34.8765Z" fill="#3F3D56"/>
<path d="M76.4472 60.5009C76.3377 60.7185 75.5688 60.5754 75.4101 60.5635C75.2514 60.5516 74.1309 59.9876 74.1153 59.8557C74.0996 59.7239 73.7115 59.4519 73.6027 59.4519C73.4939 59.4519 72.9657 59.0317 72.9187 58.9699C72.9069 58.9391 72.9015 58.9061 72.9031 58.8731C72.8867 58.6175 72.9187 57.9597 72.9187 57.9597L75.1724 58.0841L76.2676 59.7313C76.3599 59.909 76.4267 60.0989 76.4658 60.2953C76.4791 60.3642 76.4726 60.4355 76.4472 60.5009Z" fill="#3F3D56"/>
<path opacity="0.1" d="M76.4472 60.5009C76.3377 60.7185 75.5688 60.5754 75.4101 60.5635C75.2514 60.5516 74.1309 59.9876 74.1153 59.8557C74.0996 59.7239 73.7115 59.4519 73.6027 59.4519C73.4939 59.4519 72.9657 59.0317 72.9187 58.9699C72.9069 58.9391 72.9015 58.9061 72.9031 58.8731C72.8867 58.6175 72.9187 57.9597 72.9187 57.9597L75.1724 58.0841L76.2676 59.7313C76.3599 59.909 76.4267 60.0989 76.4658 60.2953C76.4791 60.3642 76.4726 60.4355 76.4472 60.5009Z" fill="black"/>
<path opacity="0.1" d="M76.4477 60.5009C76.3381 60.7185 75.5693 60.5754 75.4106 60.5635C75.2519 60.5516 74.1314 59.9876 74.1157 59.8557C74.1001 59.7239 73.7119 59.4519 73.6032 59.4519C73.4944 59.4519 72.9662 59.0318 72.9192 58.9699C72.9073 58.9391 72.902 58.9061 72.9036 58.8731L73.6337 59.335C73.6337 59.335 74.1001 59.633 74.2245 59.8096C74.3489 59.9861 75.3294 60.3534 75.4106 60.3609C75.4709 60.3668 76.1146 60.2432 76.4663 60.2953C76.4796 60.3642 76.4731 60.4355 76.4477 60.5009Z" fill="black"/>
<path d="M65.7936 59.1413C65.7936 59.1413 65.4747 59.5376 65.0486 59.5682C64.9361 59.569 64.8283 59.613 64.7473 59.6911C64.6663 59.7691 64.6184 59.8753 64.6135 59.9876C64.6135 59.9876 64.688 60.229 63.6576 60.5635C63.0355 60.764 62.6444 60.7006 62.4164 60.5635C62.294 60.496 62.2017 60.3848 62.1579 60.2521C62.0878 60.004 63.4631 58.1154 63.4631 58.1154L64.7148 58.0409L65.6088 58.4447L65.7459 58.9565L65.7936 59.1413Z" fill="#3F3D56"/>
<path opacity="0.1" d="M65.7936 59.1413C65.7936 59.1413 65.4747 59.5376 65.0486 59.5682C64.9361 59.569 64.8283 59.613 64.7473 59.6911C64.6663 59.7691 64.6184 59.8753 64.6135 59.9876C64.6135 59.9876 64.688 60.229 63.6576 60.5635C63.0355 60.764 62.6444 60.7006 62.4164 60.5635C62.294 60.496 62.2017 60.3848 62.1579 60.2521C62.0878 60.004 63.4631 58.1154 63.4631 58.1154L64.7148 58.0409L65.6088 58.4447L65.7459 58.9565L65.7936 59.1413Z" fill="black"/>
<path opacity="0.1" d="M65.7942 59.1412C65.7942 59.1412 65.4753 59.5376 65.0492 59.5682C64.9367 59.569 64.8289 59.613 64.7479 59.691C64.6669 59.7691 64.619 59.8752 64.6141 59.9876C64.6141 59.9876 64.6886 60.229 63.6582 60.5635C63.0361 60.7639 62.645 60.7006 62.417 60.5635C63.0033 60.5024 64.2989 60.1321 64.4286 60.004C64.5843 59.8483 64.7787 59.4206 64.9106 59.4132C65.0022 59.4072 65.4679 59.1271 65.7472 58.9535L65.7942 59.1412Z" fill="black"/>
<path d="M75.3905 57.4084C75.2505 57.7347 75.3905 58.403 75.3905 58.403C75.3905 58.403 73.3045 58.5118 72.7949 58.1698C72.2853 57.8278 71.9247 55.8692 71.9247 55.8692C71.9247 55.8692 71.9992 53.5693 71.9247 53.4605C71.8502 53.3517 71.5671 52.8391 71.6602 52.7304C71.7533 52.6216 71.5857 52.0464 71.4583 51.7976C71.3309 51.5488 71.3838 50.8343 71.3838 50.8343L71.0724 48.9375L70.5911 46.6845L70.1821 45.1766C70.1821 45.1766 69.7626 43.9488 69.6203 43.4362C69.478 42.9236 69.3275 43.3893 69.3275 43.3893C69.3126 43.8869 68.1623 46.125 68.1623 46.125C68.1623 46.125 67.991 47.4772 67.8047 47.9585C67.6184 48.4398 67.4158 50.1191 67.4158 50.1191C67.4158 50.1191 67.1178 53.538 66.8719 54.1131C66.6261 54.6883 66.4569 55.5428 66.4569 55.5428C66.4569 55.5428 66.5195 56.7244 66.3638 56.8176C66.2081 56.9107 66.2334 57.6259 66.2334 57.6259C66.2334 57.6259 66.3266 58.3091 65.969 58.4186C65.6113 58.5281 65.671 58.7606 65.671 58.7606C65.671 58.7606 63.6817 59.0869 63.3554 58.216C63.0291 57.345 63.4798 57.1133 63.5044 57.0508C63.529 56.9882 63.7771 56.8802 63.5596 56.6306C63.342 56.381 63.8389 55.6985 63.8389 55.6985C63.8389 55.6985 63.9172 54.7352 64.0565 54.7039C64.1958 54.6726 64.1504 53.2742 64.1504 53.2742L64.3053 51.8132C64.3053 51.8132 64.508 48.5493 64.461 48.4249C64.4141 48.3005 64.4454 47.6799 64.6011 47.3818C64.7568 47.0838 64.8805 44.366 64.8805 44.366C64.8805 44.366 64.8492 43.0302 64.9736 42.7813C65.0481 42.6405 65.0794 42.0989 65.0973 41.6571C65.1107 41.3196 65.1137 41.0402 65.1137 41.0402L66.854 40.3876L69.0891 39.6731L70.9696 40.5746L73.7209 41.1028L73.7552 41.5774L74.2804 48.8272L74.5785 51.5622C74.5785 51.5622 74.7029 52.8518 74.7185 53.085C74.7342 53.3182 74.8891 54.8418 74.8891 54.8418C74.8891 54.8418 75.2154 55.5719 75.0135 55.8207C74.8116 56.0696 74.8891 56.2677 74.8891 56.2677C74.8891 56.2677 75.5306 57.0821 75.3905 57.4084Z" fill="#3F3D56"/>
<path opacity="0.1" d="M70.8798 23.43C70.7084 23.6759 70.695 23.994 70.7524 24.3091C70.3608 24.5853 69.8894 24.7253 69.4106 24.7074C68.9318 24.6895 68.4721 24.5147 68.1023 24.21C68.0554 23.8942 68.001 23.6625 68.001 23.6625C68.001 23.6625 71.3923 22.6954 70.8798 23.43Z" fill="black"/>
<path d="M71.6715 22.4794C71.6715 22.9111 71.5435 23.3331 71.3036 23.6921C71.0638 24.0511 70.7228 24.3309 70.3239 24.4961C69.9251 24.6613 69.4862 24.7046 69.0627 24.6203C68.6393 24.5361 68.2503 24.3282 67.945 24.0229C67.6397 23.7176 67.4318 23.3287 67.3476 22.9052C67.2634 22.4818 67.3066 22.0429 67.4718 21.644C67.637 21.2451 67.9168 20.9042 68.2758 20.6643C68.6348 20.4245 69.0568 20.2964 69.4886 20.2964C69.7756 20.2951 70.0601 20.3506 70.3256 20.4598C70.5911 20.569 70.8322 20.7297 71.0352 20.9327C71.2382 21.1357 71.3989 21.3769 71.5082 21.6424C71.6174 21.9078 71.6729 22.1923 71.6715 22.4794Z" fill="#C37098"/>
<path opacity="0.1" d="M72.126 26.1069L71.4108 38.8431L67.5255 38.0273L66.7559 32.9216L67.518 26.0674L68.0917 26.1412L69.1034 26.2701L70.1055 26.3319L71.1917 26.2112L72.126 26.1069Z" fill="black"/>
<path d="M72.126 26.2L71.4108 38.9362L67.5255 38.1204L66.7559 33.0148L67.518 26.1613L68.0917 26.2343L69.1034 26.3632L70.1055 26.425L71.1917 26.3043L72.126 26.2Z" fill="#6C63FF"/>
<path d="M68.9326 26.542L70.3318 26.5889L69.9384 27.1395C69.9384 27.1395 69.966 28.2518 70.153 28.5707C70.34 28.8895 70.2848 33.8156 70.2848 33.8156L69.9123 34.5227L69.2753 33.73L69.2835 27.2259L68.9326 26.542Z" fill="#3F3D56"/>
<path opacity="0.1" d="M68.9326 26.542L70.3318 26.5889L69.9384 27.1395C69.9384 27.1395 69.966 28.2518 70.153 28.5707C70.34 28.8895 70.2848 33.8156 70.2848 33.8156L69.9123 34.5227L69.2753 33.73L69.2835 27.2259L68.9326 26.542Z" fill="black"/>
<path opacity="0.1" d="M71.1236 25.0966L69.8184 26.542L70.5641 27.319L71.8001 26.1143L71.1236 25.0966Z" fill="black"/>
<path d="M71.1236 25.0035L69.8184 26.4489L70.5641 27.2259L71.8001 26.0212L71.1236 25.0035Z" fill="#6C63FF"/>
<path opacity="0.1" d="M69.2664 26.472L67.9447 25.151L67.8203 25.8424L68.4268 27.3578L69.2664 26.472Z" fill="black"/>
<path d="M69.3135 26.3789L67.9926 25.0579L67.8682 25.7493L68.4746 27.2647L69.3135 26.3789Z" fill="#6C63FF"/>
<path opacity="0.1" d="M73.7615 41.5796C73.1272 41.8818 72.4477 42.0783 71.75 42.1614C70.4678 42.3246 69.6289 40.693 69.6289 40.693L69.1394 41.33C68.9837 42.0065 66.6138 42.1771 65.6505 41.9208C65.4506 41.8714 65.2626 41.7825 65.0977 41.6593C65.1111 41.3218 65.114 41.0424 65.114 41.0424L66.8544 40.3898L69.0895 39.6753L70.9699 40.5768L73.7213 41.105L73.7615 41.5796Z" fill="black"/>
<path opacity="0.1" d="M72.1265 26.2008L71.412 38.9362L67.526 38.1204L66.7549 33.0155L67.5163 26.1613L68.09 26.2358C68.0753 26.4855 68.0472 26.7342 68.0058 26.9808C67.9126 27.4167 68.4878 30.5092 68.4878 30.5092C68.4878 30.5092 69.5808 33.9773 70.0725 33.4774C70.5642 32.9775 71.2645 30.3379 71.2645 30.3379C71.7391 29.3589 71.2727 26.6128 71.2377 26.5576C71.2133 26.4764 71.1983 26.3927 71.193 26.3081L72.1265 26.2008Z" fill="black"/>
<path opacity="0.1" d="M73.8058 36.0559L73.8385 37.3038L73.4794 37.6294L73.2373 34.6084H73.7737L73.8058 36.0559Z" fill="black"/>
<path opacity="0.1" d="M65.367 33.7538C65.3615 33.8542 65.3473 33.9539 65.3246 34.0518C65.3246 34.0243 65.3246 34.0086 65.3186 34.0064C65.2962 34.0004 65.3231 33.8864 65.367 33.7538Z" fill="black"/>
<path opacity="0.1" d="M66.0555 34.6083L65.8104 37.6272C65.8104 37.6272 65.4431 37.2941 64.9678 36.8605L65.0244 36.3256C65.0244 36.3256 65.2248 35.0114 65.2978 34.3632C65.3309 34.4496 65.3739 34.5319 65.426 34.6083H66.0555Z" fill="black"/>
<path d="M68.1629 25.1041C68.1629 25.1041 67.9304 24.7621 67.6116 25.4222C67.6116 25.4222 66.7801 25.9043 66.494 25.9586C66.2079 26.013 65.1902 26.3706 65.1902 26.3706C65.0365 26.4817 64.8517 26.5415 64.662 26.5412C64.3432 26.5412 64.0787 27.2408 64.1174 27.6215C64.1562 28.0022 64.0943 28.2824 63.7993 28.298C63.5043 28.3137 63.6667 28.9268 63.6667 28.9268L65.6328 31.1805C65.6328 31.1805 65.7572 33.2554 65.6954 33.318C65.6335 33.3806 65.4078 33.9885 65.4622 34.0094C65.5166 34.0302 65.1642 36.3249 65.1642 36.3249L64.6903 40.7779C64.6903 40.7779 64.6903 41.5229 65.6544 41.78C66.6185 42.037 68.9899 41.8671 69.1426 41.1907L69.6321 40.5529C69.6321 40.5529 70.471 42.1853 71.7532 42.0221C73.0354 41.8589 73.8519 41.3926 73.8519 41.3926L73.7118 36.056L73.6187 32.2094L75.6206 28.9201C75.6206 28.9201 75.0842 27.8942 75.1311 27.4301C75.178 26.9659 75.2704 26.6143 74.1283 26.4511C74.1283 26.4511 73.165 26.3073 72.5973 25.9147C72.2599 25.6804 71.8912 25.4948 71.5021 25.3634C71.5021 25.3634 71.1817 24.7673 70.959 24.9715C70.959 24.9715 71.1825 25.8141 71.1638 25.94C71.1452 26.0659 71.1989 26.6351 71.2339 26.694C71.2689 26.7528 71.7353 29.4953 71.2607 30.4742C71.2607 30.4742 70.5641 33.1138 70.0687 33.6138C69.5732 34.1137 68.484 30.6456 68.484 30.6456C68.484 30.6456 67.9088 27.5522 68.002 27.1172C68.0951 26.6821 68.1629 25.1041 68.1629 25.1041Z" fill="#3F3D56"/>
<path d="M69.8263 35.2923C70.0152 35.2923 70.1683 35.1392 70.1683 34.9503C70.1683 34.7615 70.0152 34.6084 69.8263 34.6084C69.6375 34.6084 69.4844 34.7615 69.4844 34.9503C69.4844 35.1392 69.6375 35.2923 69.8263 35.2923Z" fill="#3F3D56"/>
<path d="M69.8263 36.9046C70.0152 36.9046 70.1683 36.7515 70.1683 36.5626C70.1683 36.3737 70.0152 36.2206 69.8263 36.2206C69.6375 36.2206 69.4844 36.3737 69.4844 36.5626C69.4844 36.7515 69.6375 36.9046 69.8263 36.9046Z" fill="#3F3D56"/>
<path opacity="0.1" d="M69.8263 35.2923C70.0152 35.2923 70.1683 35.1392 70.1683 34.9503C70.1683 34.7615 70.0152 34.6084 69.8263 34.6084C69.6375 34.6084 69.4844 34.7615 69.4844 34.9503C69.4844 35.1392 69.6375 35.2923 69.8263 35.2923Z" fill="black"/>
<path opacity="0.1" d="M69.8263 36.9046C70.0152 36.9046 70.1683 36.7515 70.1683 36.5626C70.1683 36.3737 70.0152 36.2206 69.8263 36.2206C69.6375 36.2206 69.4844 36.3737 69.4844 36.5626C69.4844 36.7515 69.6375 36.9046 69.8263 36.9046Z" fill="black"/>
<path opacity="0.1" d="M72.8994 56.9419C72.8994 56.9419 74.303 57.0507 74.4424 57.1595C74.5817 57.2683 72.8994 56.9419 72.8994 56.9419Z" fill="black" stroke="#6C63FF" stroke-width="0.0745024" stroke-miterlimit="10"/>
<path opacity="0.1" d="M64.542 55.8386C64.542 55.8386 64.84 56.2111 64.7133 56.3825C64.5867 56.5538 64.542 55.8386 64.542 55.8386Z" fill="black" stroke="#6C63FF" stroke-width="0.0745024" stroke-miterlimit="10"/>
<path opacity="0.1" d="M64.9004 57.1819C64.9004 57.1819 65.4443 56.8243 65.6618 57.0619C65.8794 57.2996 64.9004 57.1819 64.9004 57.1819Z" fill="black" stroke="#6C63FF" stroke-width="0.0745024" stroke-miterlimit="10"/>
<path opacity="0.1" d="M71.672 22.4794C71.6724 22.6656 71.6488 22.8512 71.6019 23.0314C71.556 23.0105 71.5175 22.976 71.4917 22.9326C71.4659 22.8892 71.4539 22.8389 71.4574 22.7886C71.4671 22.6999 71.5259 22.6187 71.5133 22.5308C71.4947 22.3952 71.3307 22.34 71.2443 22.2328C71.1378 22.1031 71.1609 21.9146 71.1698 21.747C71.1788 21.5794 71.1363 21.3745 70.9791 21.3171C70.9322 21.3 70.8808 21.2985 70.8353 21.2791C70.7116 21.227 70.6736 21.0735 70.5909 20.9677C70.4255 20.7546 70.097 20.7591 69.8459 20.8604C69.7366 20.9128 69.6247 20.9596 69.5107 21.0005C69.4535 21.0206 69.3929 21.0287 69.3325 21.0242C69.2721 21.0197 69.2133 21.0028 69.1597 20.9744C69.1106 20.9431 69.0711 20.8999 69.0204 20.8686C68.852 20.7673 68.6315 20.8686 68.4855 20.999C68.3395 21.1294 68.2225 21.3045 68.0385 21.3842C67.9558 21.4214 67.8537 21.4438 67.815 21.5242C67.7958 21.5681 67.7876 21.6159 67.7911 21.6636C67.7911 21.9534 67.8254 22.2477 67.7651 22.5315C67.7263 22.714 67.5982 22.9212 67.4127 22.8988C67.3895 22.8954 67.3668 22.8897 67.3449 22.8817C67.289 22.5833 67.296 22.2765 67.3654 21.981C67.4349 21.6855 67.5651 21.4077 67.748 21.1653C67.9308 20.923 68.1622 20.7215 68.4273 20.5736C68.6925 20.4258 68.9855 20.3348 69.2878 20.3066C69.59 20.2785 69.8949 20.3136 70.1828 20.4099C70.4707 20.5061 70.7353 20.6614 70.9598 20.8657C71.1843 21.07 71.3638 21.319 71.4866 21.5965C71.6095 21.8741 71.6731 22.1743 71.6735 22.4779L71.672 22.4794Z" fill="black"/>
<path d="M67.2476 22.758C67.3035 22.7707 67.3564 22.7998 67.4138 22.8072C67.5993 22.8296 67.7274 22.6224 67.7662 22.4399C67.8265 22.1561 67.7952 21.8618 67.793 21.572C67.7888 21.5243 67.7968 21.4764 67.8161 21.4326C67.8586 21.3522 67.9606 21.3298 68.0396 21.2926C68.2199 21.2121 68.3376 21.0408 68.4866 20.9074C68.6356 20.774 68.8524 20.6757 69.0208 20.777C69.0707 20.8068 69.1109 20.8515 69.1601 20.8828C69.2139 20.9108 69.2728 20.9275 69.3333 20.932C69.3937 20.9365 69.4544 20.9286 69.5118 20.9089C69.6272 20.8746 69.7353 20.8143 69.8463 20.7688C70.0951 20.6675 70.4244 20.6638 70.5913 20.8754C70.674 20.9819 70.712 21.1346 70.8357 21.1868C70.8811 21.2062 70.9325 21.2084 70.9795 21.2255C71.1367 21.2844 71.1769 21.4878 71.1702 21.6554C71.1635 21.823 71.1411 22.0115 71.2447 22.1412C71.3311 22.247 71.495 22.3021 71.5136 22.4392C71.5256 22.5271 71.4674 22.609 71.4578 22.6969C71.4555 22.7296 71.4598 22.7624 71.4704 22.7934C71.4809 22.8244 71.4976 22.853 71.5192 22.8776C71.5409 22.9021 71.5673 22.9221 71.5968 22.9363C71.6262 22.9506 71.6583 22.9589 71.691 22.9607C71.8847 22.9607 72.0046 22.7439 72.1857 22.6746C72.2602 22.6455 72.3503 22.6411 72.4092 22.5822C72.431 22.5539 72.4465 22.5212 72.4545 22.4863C72.4625 22.4515 72.4628 22.4153 72.4554 22.3803C72.4188 22.095 72.1901 21.8469 72.2147 21.5608C72.2378 21.2866 72.4919 21.0475 72.4382 20.7778C72.4109 20.6783 72.3598 20.587 72.2892 20.5118C72.2094 20.4035 72.1052 20.3155 71.9852 20.2548C71.8817 20.2101 71.7617 20.1996 71.6671 20.1452C71.3855 19.991 71.3862 19.5887 71.2201 19.3145C71.1488 19.2012 71.0477 19.1097 70.9278 19.0501C70.808 18.9904 70.674 18.9649 70.5406 18.9763C70.3313 18.9972 70.1413 19.1082 69.9342 19.1454C69.6503 19.1961 69.3628 19.1029 69.0938 18.9964C68.8249 18.8899 68.5529 18.7729 68.2646 18.7729C67.9763 18.7729 67.6641 18.9219 67.5762 19.1946C67.53 19.3436 67.5531 19.503 67.5173 19.6528C67.4547 19.9188 67.2193 20.108 66.9824 20.2399C66.8192 20.3307 66.6233 20.4351 66.6039 20.6206C66.5913 20.7383 66.6561 20.8441 66.6971 20.9581C66.7668 21.1509 66.7652 21.3623 66.6926 21.5541C66.6382 21.6949 66.5473 21.8186 66.4922 21.9586C66.453 22.0537 66.4345 22.156 66.4379 22.2587C66.4412 22.3615 66.4663 22.4623 66.5115 22.5546C66.5463 22.622 66.5944 22.6815 66.6529 22.7295C66.7115 22.7775 66.7792 22.8131 66.852 22.834C66.9988 22.869 67.0912 22.7238 67.2476 22.758Z" fill="#3F3D56"/>
<g opacity="0.1">
<path opacity="0.1" d="M67.7664 22.2775C67.7277 22.46 67.5988 22.6671 67.4133 22.6448C67.3559 22.6373 67.3038 22.6082 67.2471 22.5956C67.0914 22.5613 66.999 22.7073 66.8523 22.6701C66.7794 22.6492 66.7115 22.6136 66.6529 22.5656C66.5942 22.5175 66.5459 22.458 66.5111 22.3907C66.4721 22.3149 66.4485 22.2321 66.4418 22.1471C66.4269 22.279 66.451 22.4124 66.5111 22.5308C66.5459 22.5981 66.5942 22.6576 66.6529 22.7056C66.7115 22.7537 66.7794 22.7892 66.8523 22.8101C67.0013 22.8444 67.0914 22.6984 67.2471 22.7356C67.3016 22.7546 67.3571 22.7708 67.4133 22.7841C67.5988 22.8072 67.7277 22.6001 67.7664 22.4175C67.797 22.2563 67.809 22.092 67.8022 21.928C67.8015 22.0454 67.7895 22.1624 67.7664 22.2775Z" fill="black"/>
<path opacity="0.1" d="M66.7455 21.1555C66.7549 21.0334 66.7382 20.9107 66.6963 20.7956C66.6626 20.7191 66.634 20.6405 66.6106 20.5602C66.6074 20.5727 66.6049 20.5854 66.6032 20.5982C66.5905 20.7151 66.6561 20.8217 66.6963 20.9357C66.7223 21.0064 66.7388 21.0803 66.7455 21.1555Z" fill="black"/>
<path opacity="0.1" d="M72.4375 20.7628C72.4025 20.9744 72.2312 21.1733 72.214 21.3961C72.2099 21.4342 72.2099 21.4727 72.214 21.5108C72.2513 21.2508 72.4815 21.0206 72.4375 20.7628Z" fill="black"/>
<path opacity="0.1" d="M72.4502 22.3349C72.4439 22.366 72.4292 22.3949 72.4077 22.4183C72.3526 22.4772 72.2587 22.4816 72.1842 22.5107C72.0032 22.58 71.8862 22.799 71.6895 22.7968C71.6392 22.7939 71.5909 22.7759 71.551 22.745C71.5111 22.7142 71.4815 22.6719 71.466 22.6239C71.4615 22.6401 71.458 22.6565 71.4556 22.6731C71.4535 22.7057 71.4578 22.7384 71.4684 22.7693C71.479 22.8003 71.4957 22.8288 71.5173 22.8532C71.539 22.8777 71.5653 22.8976 71.5948 22.9118C71.6242 22.926 71.6562 22.9343 71.6888 22.9361C71.8832 22.9361 72.0024 22.7193 72.1835 22.6507C72.258 22.6217 72.3489 22.6172 72.407 22.5584C72.4289 22.5301 72.4443 22.4974 72.4523 22.4625C72.4603 22.4276 72.4606 22.3915 72.4532 22.3565C72.4524 22.3475 72.4509 22.3416 72.4502 22.3349Z" fill="black"/>
<path opacity="0.1" d="M71.516 22.273C71.4974 22.1374 71.3335 22.0823 71.247 21.975C71.194 21.9045 71.1653 21.8188 71.1651 21.7306C71.1591 21.8692 71.1614 22.0108 71.247 22.1151C71.3327 22.2194 71.4631 22.2641 71.5048 22.3714C71.5154 22.3397 71.5192 22.3062 71.516 22.273Z" fill="black"/>
<path opacity="0.1" d="M71.1697 21.493C71.1757 21.3253 71.1354 21.1205 70.9782 21.0631C70.932 21.046 70.8806 21.0437 70.8352 21.0251C70.7115 20.9729 70.6728 20.8195 70.5908 20.7137C70.4247 20.5013 70.0961 20.5051 69.8458 20.6064C69.734 20.6518 69.6275 20.7122 69.5113 20.7465C69.4542 20.7666 69.3935 20.7747 69.3331 20.7702C69.2727 20.7657 69.2139 20.7487 69.1604 20.7204C69.1112 20.6891 69.071 20.6459 69.021 20.6146C68.8519 20.5133 68.6314 20.6146 68.4861 20.745C68.3408 20.8753 68.2231 21.0497 68.0391 21.1301C67.9557 21.1674 67.8543 21.1897 67.8111 21.2702C67.7922 21.3141 67.7842 21.3619 67.788 21.4095C67.788 21.4386 67.788 21.4676 67.788 21.4967C67.789 21.4667 67.7964 21.4372 67.8096 21.4103C67.8528 21.3298 67.9542 21.3075 68.0376 21.2702C68.2179 21.1897 68.3356 21.0184 68.4846 20.885C68.6336 20.7517 68.8504 20.6533 69.0196 20.7547C69.0695 20.7845 69.1097 20.8292 69.1589 20.8597C69.2123 20.8882 69.2711 20.9053 69.3316 20.9098C69.392 20.9143 69.4527 20.9061 69.5098 20.8858C69.6237 20.8452 69.7353 20.7987 69.8443 20.7465C70.0939 20.6451 70.4224 20.6407 70.5893 20.853C70.6713 20.9588 70.71 21.1123 70.8337 21.1644C70.8791 21.1838 70.9305 21.186 70.9767 21.2032C71.1041 21.2508 71.1548 21.3939 71.166 21.5354L71.1697 21.493Z" fill="black"/>
</g>
<g opacity="0.1">
<path opacity="0.1" d="M67.5002 22.273C67.5045 22.1493 67.5488 22.0304 67.6264 21.9341C67.7041 21.8378 67.8109 21.7692 67.9308 21.7388C68.2631 21.6576 68.6116 21.6734 68.9351 21.7843C69.6422 22.0182 68.8457 22.8601 68.8457 22.8601C68.8457 22.8601 68.316 23.3816 67.8221 23.0173C67.6762 22.907 67.574 22.7487 67.5337 22.5703C67.5096 22.4731 67.4983 22.3731 67.5002 22.273Z" fill="black"/>
<path opacity="0.1" d="M71.3867 22.273C71.3824 22.1492 71.338 22.0302 71.2602 21.9339C71.1824 21.8376 71.0754 21.7691 70.9553 21.7388C70.6234 21.6578 70.2751 21.6735 69.9518 21.7843C69.2448 22.0182 70.0412 22.8601 70.0412 22.8601C70.0412 22.8601 70.5702 23.3816 71.0649 23.0173C71.2108 22.907 71.3129 22.7487 71.3532 22.5703C71.3774 22.4731 71.3886 22.3731 71.3867 22.273Z" fill="black"/>
<path opacity="0.1" d="M68.8018 21.7158V21.7508H70.0929V21.7091L68.8018 21.7158Z" fill="black"/>
<path opacity="0.1" d="M69.2145 22.089H69.2554V21.9706C69.2554 21.9706 69.3866 21.8685 69.6041 21.9706V22.0764H69.6786V22.0071H69.6421C69.6421 22.0071 69.657 21.8633 69.4141 21.8864C69.4141 21.8864 69.2189 21.8678 69.2234 21.9914H69.1787L69.2145 22.089Z" fill="black"/>
</g>
<path d="M67.5002 22.2246C67.5045 22.1009 67.5488 21.982 67.6264 21.8857C67.7041 21.7893 67.8109 21.7208 67.9309 21.6904C68.2631 21.6097 68.6115 21.6255 68.9351 21.7358C69.6422 21.9705 68.8457 22.8117 68.8457 22.8117C68.8457 22.8117 68.316 23.3332 67.8221 22.9689C67.6759 22.8589 67.5737 22.7004 67.5338 22.5218C67.5095 22.4247 67.4982 22.3247 67.5002 22.2246Z" fill="#6C63FF"/>
<path d="M71.3867 22.2246C71.3824 22.1008 71.338 21.9818 71.2602 21.8855C71.1824 21.7891 71.0754 21.7207 70.9553 21.6904C70.6233 21.6097 70.2752 21.6255 69.9518 21.7359C69.2448 21.9705 70.0412 22.8117 70.0412 22.8117C70.0412 22.8117 70.5702 23.3332 71.0649 22.9689C71.2111 22.8589 71.3133 22.7004 71.3532 22.5219C71.3775 22.4247 71.3887 22.3247 71.3867 22.2246Z" fill="#6C63FF"/>
<path d="M68.8018 21.6688V21.7046H70.0929V21.6621L68.8018 21.6688Z" fill="#6C63FF"/>
<path d="M69.2135 22.0421H69.2545V21.9236C69.2545 21.9236 69.3856 21.8223 69.6031 21.9236V22.0301H69.6776V21.9601H69.6411C69.6411 21.9601 69.656 21.8171 69.4132 21.8394C69.4132 21.8394 69.218 21.8215 69.2224 21.9445H69.1777L69.2135 22.0421Z" fill="#6C63FF"/>
<path d="M10.1409 34.0615H9.71777V43.5904H10.1409V34.0615Z" fill="#535461"/>
<path d="M12.8014 43.5613L12.7746 43.9905L12.7373 44.5962L12.7217 44.8487L12.6844 45.4552L12.6681 45.7078L12.6308 46.3135L12.2039 53.2027C12.1857 53.4992 12.0551 53.7775 11.8387 53.9811C11.6223 54.1846 11.3365 54.2979 11.0394 54.2979H8.82075C8.52378 54.2979 8.23802 54.1845 8.02176 53.981C7.8055 53.7775 7.67505 53.4991 7.65702 53.2027L7.22789 46.3135L7.19064 45.7078L7.17499 45.4552L7.13848 44.8472L7.12284 44.5947L7.08559 43.989L7.05877 43.5598C7.05368 43.4775 7.06552 43.395 7.09355 43.3173C7.12158 43.2397 7.16521 43.1687 7.22175 43.1086C7.27829 43.0485 7.34655 43.0006 7.42231 42.9679C7.49806 42.9352 7.57972 42.9183 7.66224 42.9184H12.1987C12.2813 42.9183 12.3631 42.9352 12.4389 42.968C12.5147 43.0008 12.583 43.0489 12.6395 43.1091C12.696 43.1694 12.7395 43.2406 12.7674 43.3184C12.7952 43.3962 12.8068 43.4789 12.8014 43.5613Z" fill="#3F3D56"/>
<path d="M12.7747 43.9905L12.7375 44.5962H7.12221L7.08496 43.9905H12.7747Z" fill="#9D9CB5"/>
<path d="M12.7207 44.8487L12.6834 45.4552H7.17472L7.13672 44.8487H12.7207Z" fill="#9D9CB5"/>
<path d="M12.6671 45.7077L12.6298 46.3134H7.22843L7.19043 45.7077H12.6671Z" fill="#9D9CB5"/>
<path d="M6.43867 37.6331C8.90321 39.416 9.92986 42.2053 9.92986 42.2053C9.92986 42.2053 6.95945 42.1033 4.49118 40.3204C2.02292 38.5376 1 35.7482 1 35.7482C1 35.7482 3.97339 35.8503 6.43867 37.6331Z" fill="#6C63FF"/>
<path d="M1.00391 35.7482C1.00391 35.7482 4.08682 37.4618 5.07546 38.8773C6.06411 40.2928 9.93004 42.2061 9.93004 42.2061" stroke="#535461" stroke-width="0.149005" stroke-miterlimit="10"/>
<path d="M8.03001 34.0444C9.37105 35.013 9.93057 36.5328 9.93057 36.5328C9.93057 36.5328 8.31386 36.4777 6.97208 35.5069C5.63029 34.5361 5.07227 33.0185 5.07227 33.0185C5.07227 33.0185 6.68897 33.0699 8.03001 34.0444Z" fill="#6C63FF"/>
<path d="M5.07227 33.0147C5.07227 33.0147 6.75006 33.946 7.28797 34.7171C7.82587 35.4882 9.93057 36.529 9.93057 36.529" stroke="#535461" stroke-width="0.149005" stroke-miterlimit="10"/>
<path d="M11.8797 36.4523C10.3383 38.1457 10.0127 40.3584 10.0127 40.3584C10.0127 40.3584 12.1852 39.8257 13.7259 38.1323C15.2666 36.4389 15.5929 34.2254 15.5929 34.2254C15.5929 34.2254 13.4204 34.7581 11.8797 36.4523Z" fill="#6C63FF"/>
<path d="M15.5929 34.2254C15.5929 34.2254 13.5858 35.9613 13.0755 37.1578C12.5651 38.3543 10.0127 40.3614 10.0127 40.3614" stroke="#535461" stroke-width="0.149005" stroke-miterlimit="10"/>
<defs>
<linearGradient id="paint0_linear" x1="45.0197" y1="48.1342" x2="45.0197" y2="8.02737" gradientUnits="userSpaceOnUse">
<stop stop-color="#808080" stop-opacity="0.25"/>
<stop offset="0.54" stop-color="#808080" stop-opacity="0.12"/>
<stop offset="1" stop-color="#808080" stop-opacity="0.1"/>
</linearGradient>
<linearGradient id="paint1_linear" x1="13711.9" y1="36016.9" x2="13711.9" y2="12203.3" gradientUnits="userSpaceOnUse">
<stop stop-color="#808080" stop-opacity="0.25"/>
<stop offset="0.54" stop-color="#808080" stop-opacity="0.12"/>
<stop offset="1" stop-color="#808080" stop-opacity="0.1"/>
</linearGradient>
</defs>
</svg>
