<?xml version="1.0" encoding="UTF-8" standalone="no"?>
<svg
   width="11.67"
   height="10.5"
   viewBox="0 0 14 12"
   fill="none"
   xmlns:inkscape="http://www.inkscape.org/namespaces/inkscape"
   xmlns:sodipodi="http://sodipodi.sourceforge.net/DTD/sodipodi-0.dtd"
   xmlns="http://www.w3.org/2000/svg">
  <path
     style="color:#000000;fill:#b3b3b3;stroke-linecap:round;stroke-linejoin:round;-inkscape-stroke:none"
     d="M 10.5,0.17578125 A 0.58339332,0.58339332 0 0 0 9.9160156,0.75 V 9.8417969 L 8.5800781,8.5039063 a 0.58333498,0.58333498 0 0 0 -0.8261719,0 0.58333498,0.58333498 0 0 0 0,0.8261718 l 2.3339848,2.3320309 a 0.58333498,0.58333498 0 0 0 0.248047,0 0.58339332,0.58339332 0 0 0 0.328125,0 0.58333498,0.58333498 0 0 0 0.248046,0 L 13.246094,9.3300781 A 0.58339332,0.58339332 0 0 0 12.980469,8.359375 0.58339332,0.58339332 0 0 0 12.421875,8.5039063 L 11.083984,9.8417969 V 0.75 A 0.58339332,0.58339332 0 0 0 10.5,0.17578125 Z"
     id="path1078" />
  <path
     style="color:#000000;fill:#454e5f;stroke-linecap:round;stroke-linejoin:round;-inkscape-stroke:none"
     d="M 3.5,0.17578125 A 0.58339332,0.58339332 0 0 0 3.423828,0.25195315 0.58339332,0.58339332 0 0 0 3.0878905,0.33789065 L 0.75390625,2.6699219 A 0.58419174,0.58419174 0 0 0 1.5800781,3.4960938 L 2.9160156,2.1582031 V 11.25 a 0.5839844,0.5839844 0 0 0 1.1679688,0 V 2.1582031 L 5.421875,3.4960938 A 0.58350161,0.58350161 0 0 0 6.2460937,2.6699219 L 3.9121094,0.33789063 a 0.58339332,0.58339332 0 0 0 -0.1191406,0 A 0.58339332,0.58339332 0 0 0 3.6484375,0.19335937 0.58339332,0.58339332 0 0 0 3.5449219,0.22070313 0.58339332,0.58339332 0 0 0 3.5,0.17578125 Z"
     id="path2" />
</svg>
