<?xml version="1.0"?>
<svg xmlns="http://www.w3.org/2000/svg" xmlns:xlink="http://www.w3.org/1999/xlink" xmlns:svgjs="http://svgjs.com/svgjs" version="1.1" width="512" height="512" x="0" y="0" viewBox="0 0 511.995 511.995" style="enable-background:new 0 0 512 512" xml:space="preserve" class=""><g>
<g xmlns="http://www.w3.org/2000/svg">
	<g>
		<path d="M48,239.998H16c-8.832,0-16,7.168-16,16v224c0,8.832,7.168,16,16,16h32c8.832,0,16-7.168,16-16v-224    C64,247.166,56.832,239.998,48,239.998z" fill="#ffffff" data-original="#000000" style=""/>
	</g>
</g>
<g xmlns="http://www.w3.org/2000/svg">
	<g>
		<path d="M501.888,274.526c-16.256-20.96-46.464-24.704-67.328-8.416l-118.016,91.776c-8.448,6.56-18.816,10.112-29.472,10.112H176    c44.192,0,80-35.808,80-80c0-8.832-7.168-16-16-16H96v96v96h212.992c17.792,0,35.072-5.92,49.12-16.864l135.36-105.28    C514.4,325.598,518.144,295.454,501.888,274.526z" fill="#ffffff" data-original="#000000" style=""/>
	</g>
</g>
<g xmlns="http://www.w3.org/2000/svg">
	<g>
		<path d="M288,127.998c-17.344,0-32-10.976-32-24s14.656-24,32-24c8.704,0,16.832,2.688,22.88,7.616    c6.816,5.536,16.896,4.576,22.496-2.304c5.6-6.848,4.576-16.928-2.304-22.496c-7.712-6.304-17.056-10.528-27.072-12.8V31.998    c0-8.832-7.168-16-16-16c-8.832,0-16,7.168-16,16v17.984c-27.52,6.272-48,28-48,54.016c0,30.88,28.704,56,64,56    c17.344,0,32,10.976,32,24s-14.656,24-32,24c-8.704,0-16.832-2.688-22.88-7.616c-6.848-5.568-16.896-4.576-22.496,2.304    c-5.6,6.848-4.576,16.928,2.304,22.528c7.712,6.272,17.056,10.496,27.072,12.768v18.016c0,8.832,7.168,16,16,16    c8.832,0,16-7.168,16-16v-17.984c27.52-6.272,48-28,48-54.016C352,153.118,323.296,127.998,288,127.998z" fill="#ffffff" data-original="#000000" style=""/>
	</g>
</g>
<g xmlns="http://www.w3.org/2000/svg">
</g>
<g xmlns="http://www.w3.org/2000/svg">
</g>
<g xmlns="http://www.w3.org/2000/svg">
</g>
<g xmlns="http://www.w3.org/2000/svg">
</g>
<g xmlns="http://www.w3.org/2000/svg">
</g>
<g xmlns="http://www.w3.org/2000/svg">
</g>
<g xmlns="http://www.w3.org/2000/svg">
</g>
<g xmlns="http://www.w3.org/2000/svg">
</g>
<g xmlns="http://www.w3.org/2000/svg">
</g>
<g xmlns="http://www.w3.org/2000/svg">
</g>
<g xmlns="http://www.w3.org/2000/svg">
</g>
<g xmlns="http://www.w3.org/2000/svg">
</g>
<g xmlns="http://www.w3.org/2000/svg">
</g>
<g xmlns="http://www.w3.org/2000/svg">
</g>
<g xmlns="http://www.w3.org/2000/svg">
</g>
</g></svg>
