<?xml version="1.0" encoding="UTF-8" standalone="no"?>
<svg
   width="200"
   height="200"
   viewBox="0 0 200 200"
   version="1.1"
   id="svg14"
   sodipodi:docname="safrapay-seeklogo.com.svg"
   inkscape:version="1.1.1 (3bf5ae0d25, 2021-09-20)"
   xmlns:inkscape="http://www.inkscape.org/namespaces/inkscape"
   xmlns:sodipodi="http://sodipodi.sourceforge.net/DTD/sodipodi-0.dtd"
   xmlns="http://www.w3.org/2000/svg"
   xmlns:svg="http://www.w3.org/2000/svg">
  <defs
     id="defs18" />
  <sodipodi:namedview
     id="namedview16"
     pagecolor="#ffffff"
     bordercolor="#666666"
     borderopacity="1.0"
     inkscape:pageshadow="2"
     inkscape:pageopacity="0.0"
     inkscape:pagecheckerboard="0"
     showgrid="false"
     inkscape:zoom="3.7360248"
     inkscape:cx="111.08063"
     inkscape:cy="110.9468"
     inkscape:window-width="2560"
     inkscape:window-height="1017"
     inkscape:window-x="-8"
     inkscape:window-y="-8"
     inkscape:window-maximized="1"
     inkscape:current-layer="g12" />
  <g
     fill="none"
     fill-rule="evenodd"
     id="g12"
     transform="translate(19.5,80)">
    <rect
       style="fill:#1c2242;fill-opacity:1;stroke-width:0.6;paint-order:markers stroke fill"
       id="rect857"
       width="200"
       height="200"
       x="-19.5"
       y="-80" />
    <g
       id="g962"
       transform="matrix(1.2161263,0,0,1.2161263,-38.231018,-62.276688)"
       style="stroke-width:0.822283">
      <path
         fill="#ffffff"
         d="m 120.0473,67.272213 c 0,1.087708 0.16634,2.094244 0.49968,3.020497 0.33269,0.926031 0.81813,1.73464 1.45566,2.425383 0.63688,0.690742 1.39736,1.234485 2.28145,1.631228 0.88343,0.396966 1.87535,0.59556 2.97662,0.59556 1.10062,0 2.09254,-0.198594 2.97663,-0.59556 0.88343,-0.396743 1.64391,-0.940486 2.28145,-1.631228 0.63687,-0.690743 1.12231,-1.499352 1.45565,-2.425383 0.33269,-0.926253 0.49969,-1.932789 0.49969,-3.020497 0,-1.087263 -0.167,-2.094466 -0.49969,-3.020719 -0.33334,-0.926031 -0.81878,-1.733973 -1.45565,-2.42516 -0.63754,-0.690297 -1.39802,-1.234707 -2.28145,-1.631451 -0.88409,-0.396965 -1.87601,-0.595337 -2.97663,-0.595337 -1.10127,0 -2.09319,0.198372 -2.97662,0.595337 -0.88409,0.396744 -1.64457,0.941154 -2.28145,1.631451 -0.63753,0.691187 -1.12297,1.499129 -1.45566,2.42516 -0.33334,0.926253 -0.49968,1.933456 -0.49968,3.020719 z m -3.38952,-10.318437 h 3.38952 v 2.99848 h 0.0868 c 0.92682,-1.116841 2.00574,-1.984161 3.23742,-2.601515 1.23102,-0.617354 2.58564,-0.92603 4.063,-0.92603 1.59285,0 3.04872,0.272205 4.36719,0.815725 1.31802,0.54441 2.44034,1.300757 3.36782,2.271044 0.92683,0.969841 1.65115,2.116483 2.17275,3.439257 0.52138,1.322996 0.78218,2.763636 0.78218,4.321476 0,1.558507 -0.2608,2.998258 -0.78218,4.321255 -0.5216,1.322774 -1.23847,2.469415 -2.15105,3.439257 -0.91258,0.970286 -1.99216,1.727745 -3.23721,2.271266 -1.24614,0.543298 -2.57885,0.815503 -3.99812,0.815503 -1.82494,0 -3.42612,-0.404082 -4.80157,-1.212469 -1.37632,-0.808386 -2.38314,-1.800467 -3.02023,-2.976464 h -0.0868 v 13.713662 h -3.38952 z m 51.44906,24.825808 c -0.35477,0.881997 -0.71737,1.682378 -1.08668,2.403143 -0.36997,0.720098 -0.81355,1.337229 -1.33049,1.852061 -0.51784,0.513943 -1.13879,0.910909 -1.86287,1.190675 -0.72497,0.278877 -1.60429,0.41876 -2.63907,0.41876 -0.50307,0 -1.02762,-0.02958 -1.57431,-0.08807 -0.54759,-0.05916 -1.0576,-0.206155 -1.53047,-0.440998 l 0.44357,-2.998481 c 0.35499,0.146777 0.7243,0.242627 1.10904,0.286661 0.38385,0.04403 0.82742,0.06627 1.3305,0.06627 1.12336,0 1.95145,-0.3089 2.4836,-0.926031 0.53238,-0.617354 0.99027,-1.440863 1.37501,-2.469415 l 1.4193,-3.880478 -8.60437,-20.768975 h 4.03622 l 6.43102,16.183076 h 0.0886 l 6.16528,-16.183076 h 3.76981 z"
         id="path2"
         style="stroke-width:0.676149" />
      <polygon
         points="24.343,0.021 24.343,30.998 0,30.998 0,0.021 "
         id="polygon4"
         transform="translate(17.130507,47.644223)"
         style="stroke-width:0.822283" />
      <path
         fill="#c4ad6c"
         d="m 23.814708,70.680543 c 0.35088,0.69129 0.816761,1.251011 1.397424,1.679387 0.580445,0.429045 1.261733,0.746369 2.045388,0.953979 0.782784,0.207164 1.593012,0.310857 2.430247,0.310857 0.566941,0 1.174611,-0.04817 1.822575,-0.14517 0.647964,-0.09656 1.255417,-0.283206 1.822576,-0.559722 0.566941,-0.276069 1.039138,-0.656278 1.41768,-1.140404 0.37767,-0.483233 0.566941,-1.098927 0.566941,-1.845519 0,-0.801227 -0.250038,-1.451038 -0.74946,-1.94899 -0.499858,-0.497505 -1.154356,-0.912278 -1.964148,-1.244097 -0.810009,-0.331596 -1.728485,-0.621937 -2.754337,-0.870579 -1.026288,-0.248864 -2.065426,-0.524933 -3.118504,-0.829547 -1.080303,-0.276069 -2.13338,-0.614801 -3.159015,-1.015972 -1.026505,-0.400278 -1.944327,-0.918745 -2.754119,-1.554954 -0.810227,-0.63554 -1.465379,-1.430746 -1.964583,-2.384502 -0.500076,-0.953756 -0.749461,-2.107763 -0.749461,-3.46269 0,-1.519944 0.317122,-2.840307 0.9518,-3.960195 0.634242,-1.119443 1.464725,-2.052683 2.490795,-2.799052 1.02607,-0.74637 2.187396,-1.299178 3.483324,-1.658872 1.295928,-0.358801 2.592292,-0.538982 3.88822,-0.538982 1.511988,0 2.96321,0.173045 4.3541,0.518467 1.390237,0.345867 2.625833,0.905812 3.706136,1.679387 1.07965,0.774466 1.937141,1.762341 2.571819,2.964961 0.633806,1.202397 0.951581,2.661018 0.951581,4.374969 h -6.15642 c -0.05423,-0.884627 -0.236535,-1.617394 -0.546468,-2.197854 -0.311023,-0.58046 -0.722671,-1.036711 -1.235597,-1.368529 -0.512926,-0.331596 -1.100559,-0.566189 -1.761591,-0.704892 -0.662121,-0.138035 -1.384138,-0.207164 -2.16714,-0.207164 -0.513144,0 -1.026506,0.05575 -1.538996,0.165686 -0.512926,0.11083 -0.978807,0.304391 -1.397424,0.58046 -0.418618,0.276739 -0.762964,0.62216 -1.032605,1.036711 -0.270293,0.414774 -0.404895,0.940376 -0.404895,1.575916 0,0.580683 0.107594,1.050983 0.323873,1.410007 0.215625,0.359471 0.641212,0.69129 1.276108,0.995234 0.633806,0.30439 1.511553,0.608334 2.632367,0.912279 1.120161,0.30439 2.585104,0.691289 4.394612,1.160919 0.539716,0.11083 1.28874,0.311081 2.247727,0.601422 0.958116,0.290341 1.909915,0.753505 2.85518,1.389268 0.945265,0.636209 1.762244,1.486272 2.45072,2.550188 0.688475,1.064586 1.032604,2.42598 1.032604,4.084851 0,1.354703 -0.25679,2.612404 -0.769716,3.773547 -0.513144,1.161143 -1.275455,2.163512 -2.288239,3.006216 -1.012348,0.843819 -2.267983,1.50032 -3.766467,1.969728 -1.498485,0.469854 -3.23394,0.705115 -5.204622,0.705115 -1.593664,0 -3.138759,-0.20092 -4.637462,-0.601422 -1.498485,-0.400278 -2.821856,-1.029352 -3.969242,-1.886773 -1.14804,-0.85653 -2.059328,-1.948767 -2.734082,-3.276042 -0.674971,-1.326829 -0.99928,-2.902523 -0.971837,-4.727303 h 6.156203 c 0,0.995233 0.175331,1.838829 0.52643,2.529672 m 33.646966,-2.788777 c -0.243994,0.220482 -0.548549,0.391943 -0.914759,0.515715 -0.365772,0.123771 -0.758874,0.226914 -1.179086,0.309428 -0.42043,0.08229 -0.860756,0.151277 -1.321197,0.205843 -0.461096,0.05567 -0.921536,0.123993 -1.382414,0.206507 -0.433986,0.08252 -0.860757,0.192534 -1.280532,0.329836 -0.420649,0.137967 -0.786421,0.323625 -1.097536,0.556972 -0.312207,0.234012 -0.562979,0.529911 -0.752315,0.886807 -0.189991,0.357784 -0.284659,0.811391 -0.284659,1.361265 0,0.522591 0.09467,0.96289 0.284659,1.320008 0.189336,0.357562 0.447323,0.639265 0.772648,0.84555 0.325107,0.206286 0.704435,0.350686 1.138202,0.433201 0.433111,0.08229 0.880215,0.12355 1.341749,0.12355 1.13842,0 2.018854,-0.19209 2.642613,-0.577379 0.623103,-0.384845 1.083762,-0.845772 1.382195,-1.381894 0.297997,-0.536343 0.480773,-1.078897 0.548987,-1.629215 0.06734,-0.549873 0.101445,-0.98995 0.101445,-1.320229 z m -13.33528,-4.331117 c 0.08133,-1.374795 0.419993,-2.516022 1.016423,-3.423458 0.595993,-0.907436 1.355085,-1.635869 2.276841,-2.186187 0.921318,-0.549652 1.957855,-0.941817 3.110268,-1.175607 1.151757,-0.233126 2.31051,-0.350686 3.476041,-0.350686 1.057088,0 2.127295,0.07608 3.211713,0.226914 1.083762,0.151498 2.073513,0.447396 2.967939,0.887029 0.894426,0.440077 1.62619,1.051615 2.195728,1.835501 0.568882,0.783665 0.853542,1.82197 0.853542,3.11403 v 11.095962 c 0,0.962889 0.054,1.883856 0.162662,2.763566 0.108223,0.880375 0.297997,1.540268 0.56932,1.9799 h -5.854764 c -0.108442,-0.329835 -0.19677,-0.666547 -0.26389,-1.010579 -0.06821,-0.343588 -0.115657,-0.694274 -0.142549,-1.051836 -0.921536,0.96289 -2.005954,1.636313 -3.252598,2.020936 -1.246862,0.385067 -2.520616,0.577601 -3.82148,0.577601 -1.003087,0 -1.938179,-0.123772 -2.805494,-0.371093 -0.867535,-0.247543 -1.62619,-0.632388 -2.276622,-1.154979 -0.650432,-0.522147 -1.158753,-1.18204 -1.524526,-1.980123 -0.365772,-0.797195 -0.548986,-1.745666 -0.548986,-2.845858 0,-1.209988 0.209668,-2.206815 0.630318,-2.99048 0.419774,-0.783664 0.961546,-1.408954 1.625971,-1.876979 0.663987,-0.467138 1.42308,-0.817824 2.277059,-1.051836 0.85376,-0.233126 1.713861,-0.418783 2.581396,-0.556751 0.867315,-0.137302 1.721076,-0.247543 2.5615,-0.329835 0.839768,-0.08274 1.585524,-0.206286 2.235956,-0.371315 0.650432,-0.165028 1.165312,-0.405473 1.545077,-0.722 0.379109,-0.31564 0.555327,-0.776567 0.528435,-1.381672 0,-0.632167 -0.101445,-1.134351 -0.304774,-1.505665 -0.203109,-0.371315 -0.474432,-0.659893 -0.813094,-0.866179 -0.339318,-0.206286 -0.731983,-0.343588 -1.179086,-0.41235 -0.447323,-0.06854 -0.928752,-0.103143 -1.443195,-0.103143 -1.138201,0 -2.033065,0.247321 -2.683497,0.742407 -0.650432,0.494865 -1.030416,1.320008 -1.13842,2.474765 z m 20.816234,-2.971181 v -3.89421 h 3.487068 V 55.05544 c 0,-1.885603 0.587686,-3.429311 1.763719,-4.632006 1.175813,-1.202254 2.953872,-1.803601 5.333072,-1.803601 0.519299,0 1.03904,0.02028 1.55878,0.0615 0.519299,0.041 1.025582,0.07539 1.517967,0.102282 v 4.34522 c -0.684089,-0.082 -1.39465,-0.123003 -2.133228,-0.123003 -0.793509,0 -1.360899,0.184504 -1.702171,0.553293 -0.342376,0.369008 -0.512902,0.991077 -0.512902,1.865323 v 1.270809 h 4.020044 v 3.89421 H 74.254933 V 77.888125 H 68.429696 V 60.589468 Z m 20.174376,-3.598747 v 3.880347 h 0.08228 c 0.273106,-0.646652 0.642174,-1.245919 1.107426,-1.79867 0.46481,-0.551883 0.998007,-1.023776 1.599811,-1.41481 0.601363,-0.390382 1.2442,-0.693385 1.928289,-0.909443 0.683207,-0.215406 1.39465,-0.323434 2.133229,-0.323434 0.382525,0 0.806303,0.06782 1.271554,0.202146 v 5.335586 c -0.273547,-0.05369 -0.602025,-0.100856 -0.98433,-0.141502 -0.383407,-0.04043 -0.752917,-0.06043 -1.107867,-0.06043 -1.066614,0 -1.968879,0.175411 -2.707458,0.525364 -0.738578,0.350388 -1.333102,0.828584 -1.784455,1.434807 -0.451133,0.606223 -0.772992,1.313736 -0.964034,2.122105 -0.191704,0.80837 -0.287225,1.684556 -0.287225,2.627473 v 9.417862 H 79.578992 V 56.990721 Z"
         id="path6"
         style="stroke-width:0.676149" />
      <path
         fill="#ffffff"
         d="m 152.99079,73.170782 c -0.49991,0.552248 -1.12613,0.997438 -1.8789,1.330725 -0.75075,0.336591 -1.62983,0.502243 -2.635,0.502243 -1.29596,0 -2.3808,-0.268744 -3.25073,-0.806893 -0.86971,-0.537929 -1.30489,-1.448356 -1.30489,-2.731059 0,-1.396589 0.64988,-2.403058 1.94584,-3.012579 1.29931,-0.612825 3.05546,-0.917475 5.26643,-0.917475 h 3.45092 v 1.31134 c -0.0288,0.842579 -0.17519,1.635375 -0.44032,2.380149 -0.26713,0.741029 -0.64988,1.391082 -1.15335,1.943549 z m 10.02246,1.293277 h -4.6132 c -0.20041,0 -0.36467,-0.160145 -0.36467,-0.359941 v -9.058885 c 0,-2.911029 -0.67866,-5.080808 -2.036,-6.507796 -1.35712,-1.425005 -3.56809,-2.112726 -6.63448,-2.112726 h -13.19197 c 0.55414,0.397168 1.03619,0.8124 1.50887,1.293276 0.52178,0.53088 0.9929,1.106478 1.41514,1.724589 h 11.37244 c 1.14064,0.176446 2.06479,0.643004 2.7669,1.234462 0.89871,0.759092 1.34818,1.879447 1.34818,3.363488 v 0.611063 h -1.32832 c -1.26695,0 -2.66223,0.05882 -4.18003,0.176226 -1.5198,0.117631 -2.93472,0.408183 -4.24876,0.872978 -1.31025,0.466778 -2.41116,1.179391 -3.29381,2.139601 -0.888,0.96021 -1.32855,2.285868 -1.32855,3.976534 0,0.988626 0.20421,1.861605 0.61752,2.618494 0.41332,0.759093 0.96723,1.391523 1.66041,1.901036 0.69295,0.50775 1.5053,0.895887 2.43481,1.157803 0.9293,0.261915 1.92197,0.393864 2.98516,0.393864 1.59368,0 2.95637,-0.336591 4.09522,-1.006469 1.07213,-0.63243 1.94027,-1.434257 2.60622,-2.405041 0.18947,1.909626 1.83381,3.409528 3.81201,3.409528 h 6.05356 z"
         id="path8"
         style="stroke-width:0.676149" />
      <path
         fill="#c4ad6c"
         d="m 108.20129,67.891766 c -0.244,0.220482 -0.54877,0.391943 -0.91476,0.515715 -0.36577,0.123771 -0.75909,0.226914 -1.17909,0.309428 -0.42043,0.08229 -0.86075,0.151277 -1.32141,0.205843 -0.46088,0.05567 -0.92132,0.123993 -1.3822,0.206507 -0.43399,0.08252 -0.86076,0.192534 -1.28053,0.329836 -0.42065,0.137967 -0.78642,0.323625 -1.09776,0.556972 -0.31198,0.234012 -0.56276,0.529911 -0.75209,0.886807 -0.18999,0.357784 -0.284662,0.811391 -0.284662,1.361265 0,0.522591 0.09467,0.96289 0.284662,1.320008 0.18933,0.357562 0.4471,0.639265 0.77243,0.84555 0.3251,0.206286 0.70443,0.350686 1.13842,0.433201 0.43311,0.08229 0.88021,0.12355 1.34175,0.12355 1.1382,0 2.01885,-0.19209 2.64239,-0.577379 0.62332,-0.384845 1.08376,-0.845772 1.38241,-1.381894 0.298,-0.536343 0.48078,-1.078897 0.54899,-1.629215 0.0671,-0.549873 0.10145,-0.98995 0.10145,-1.320229 z M 94.865788,63.560649 c 0.08155,-1.374795 0.420212,-2.516022 1.016642,-3.423458 0.595774,-0.907436 1.354866,-1.635869 2.276622,-2.186187 0.921318,-0.549652 1.957858,-0.941817 3.110488,-1.175607 1.15176,-0.233126 2.31029,-0.350686 3.47582,-0.350686 1.05731,0 2.12751,0.07608 3.21193,0.226914 1.08377,0.151498 2.07352,0.447396 2.96794,0.887029 0.89443,0.440077 1.62619,1.051615 2.19551,1.835501 0.5691,0.783665 0.85376,1.82197 0.85376,3.11403 v 11.095962 c 0,0.962889 0.054,1.883856 0.16245,2.763566 0.10844,0.880375 0.29799,1.540268 0.56931,1.9799 h -5.85454 c -0.10844,-0.329835 -0.19677,-0.666547 -0.26389,-1.010579 -0.0682,-0.343588 -0.11588,-0.694274 -0.14255,-1.051836 -0.92154,0.96289 -2.00595,1.636313 -3.2526,2.020936 -1.24686,0.385067 -2.52083,0.577601 -3.8217,0.577601 -1.00286,0 -1.937956,-0.123772 -2.805272,-0.371093 -0.867753,-0.247543 -1.626408,-0.632388 -2.27684,-1.154979 -0.650432,-0.522147 -1.158753,-1.18204 -1.524307,-1.980123 -0.365991,-0.797195 -0.549205,-1.745666 -0.549205,-2.845858 0,-1.209988 0.209887,-2.206815 0.630536,-2.99048 0.419556,-0.783664 0.961547,-1.408954 1.625971,-1.876979 0.663988,-0.467138 1.42308,-0.817824 2.277059,-1.051836 0.853542,-0.233126 1.713858,-0.418783 2.581398,-0.556751 0.86731,-0.137302 1.72086,-0.247543 2.5615,-0.329835 0.83977,-0.08274 1.58552,-0.206286 2.23595,-0.371315 0.65044,-0.165028 1.16532,-0.405473 1.54508,-0.722 0.37911,-0.31564 0.55533,-0.776567 0.52844,-1.381672 0,-0.632167 -0.10145,-1.134351 -0.30478,-1.505665 -0.20333,-0.371315 -0.47465,-0.659893 -0.81331,-0.866179 -0.33932,-0.206286 -0.73176,-0.343588 -1.17909,-0.41235 -0.4471,-0.06854 -0.92853,-0.103143 -1.44297,-0.103143 -1.13842,0 -2.03307,0.247321 -2.6835,0.742407 -0.65043,0.494865 -1.03063,1.320008 -1.13842,2.474765 z"
         id="path10"
         style="stroke-width:0.676149" />
    </g>
  </g>
</svg>
