<?xml version="1.0" encoding="UTF-8" standalone="no"?>
<svg
   width="350"
   height="350"
   viewBox="0 0 92.603748 92.603683"
   version="1.1"
   id="svg10"
   sodipodi:docname="vida link.svg"
   inkscape:version="1.1.1 (3bf5ae0d25, 2021-09-20)"
   xmlns:inkscape="http://www.inkscape.org/namespaces/inkscape"
   xmlns:sodipodi="http://sodipodi.sourceforge.net/DTD/sodipodi-0.dtd"
   xmlns="http://www.w3.org/2000/svg"
   xmlns:svg="http://www.w3.org/2000/svg">
  <defs
     id="defs14" />
  <sodipodi:namedview
     id="namedview12"
     pagecolor="#ffffff"
     bordercolor="#666666"
     borderopacity="1.0"
     inkscape:pageshadow="2"
     inkscape:pageopacity="0.0"
     inkscape:pagecheckerboard="0"
     showgrid="false"
     inkscape:zoom="1.2847273"
     inkscape:cx="-77.83753"
     inkscape:cy="180.97226"
     inkscape:window-width="2560"
     inkscape:window-height="1017"
     inkscape:window-x="-8"
     inkscape:window-y="-8"
     inkscape:window-maximized="1"
     inkscape:current-layer="svg10" />
  <path
     style="fill:#f2f2f2;stroke-width:0.15875;paint-order:markers stroke fill"
     d="M 2.499943e-7,-7.500057e-7 H 92.603715 V 92.603716 H 2.499943e-7 Z"
     id="path2" />
  <g
     id="g834"
     transform="translate(-0.25486556,7.6898577)">
    <path
       style="fill:#fbfdfd;stroke-width:1"
       d="m 4.0390003,34.547 c 0.14,0.29 1.776,4.458 3.636,9.26 l 3.3809997,8.731 1.344,0.08 1.344,0.078 0.445,-1.27 c 1.406,-4.015 4.112,-12.103 4.112,-12.292 0,-0.122 -0.568,-0.222 -1.262,-0.222 H 15.777 L 14.1,43.964 c -0.922,2.78 -1.766,4.952 -1.877,4.83 -0.11,-0.124 -1.486,-3.588 -3.0569997,-7.699 l -2.856,-7.474 h -2.561 c 0.323,-0.014 0.07,0.69 0.29,0.926 z M 55.871,38.598 V 24.261 l -0.827,0.777 c -1.831,1.721 -1.806,1.508 -1.813,15.396 l -0.005,12.501 h 2.645 z m 24.607,10.51 0.132,-3.693 3.306,3.76 3.306,3.76 h 1.167 c 1.088,0 1.14,-0.031 0.764,-0.463 -0.22,-0.255 -1.73,-1.992 -3.353,-3.86 l -2.951,-3.398 1.355,-1.565 c 0.745,-0.86 1.45,-1.623 1.565,-1.694 0.116,-0.071 0.83,-0.845 1.587,-1.719 l 1.376,-1.588 -1.15,0.006 c -1.128,0.006 -1.209,0.068 -4.062,3.155 l -2.91,3.15 -0.132,-6.53 L 80.345,31.9 H 77.7 l -0.07,10.532 -0.069,10.53 1.392,-0.08 1.392,-0.08 z M 22.269,45.659 v -7.011 h -2.38 v 14.023 h 2.38 z m 13.28,6.387 c 1.957,-0.96 1.924,-0.78 2.016,-11.216 l 0.081,-9.326 h -2.677 v 3.732 c 0,3.447 -0.035,3.72 -0.463,3.554 -1.373,-0.53 -2.722,-0.73 -3.808,-0.567 -3.17,0.475 -5.283,3.31 -5.283,7.09 0,2.242 0.163,3.112 0.835,4.447 0.615,1.223 1.56,2.077 2.807,2.537 1.425,0.526 5.207,0.38 6.492,-0.251 z m -5.884,-1.56 c -1.303,-0.877 -1.893,-2.08 -2.042,-4.157 -0.367,-5.135 2.586,-8.11 6.45,-6.495 l 0.939,0.392 -0.088,4.923 c -0.085,4.805 -0.102,4.936 -0.712,5.429 -0.924,0.748 -3.375,0.699 -4.547,-0.091 z m 17.595,1.891 c 0.575,-0.16 1.446,-0.69 1.934,-1.178 L 50.082,50.311 50,45.145 49.918,39.98 49.066,39.128 c -0.749,-0.748 -1.06,-0.864 -2.574,-0.96 -2.37,-0.152 -3.436,0.1 -4.542,1.072 -1.14,1 -1.532,1.887 -1.15,2.6 0.463,0.865 1.206,0.608 1.96,-0.677 1.022,-1.745 2.466,-2.365 3.942,-1.692 0.842,0.383 1.232,1.286 1.232,2.85 v 1.268 l -2.686,0.88 c -4.229,1.385 -5.813,3.292 -4.937,5.943 0.531,1.606 1.695,2.259 4.024,2.257 1.034,0 2.35,-0.132 2.925,-0.292 z m -2.955,-0.95 c -0.938,-0.182 -1.927,-1.56 -1.927,-2.687 0,-1.177 0.533,-2.007 1.67,-2.594 0.774,-0.401 3.17,-1.138 3.724,-1.145 0.265,-0.004 0.06,4.638 -0.237,5.364 -0.107,0.26 -0.531,0.647 -0.943,0.86 -0.742,0.384 -1.156,0.42 -2.287,0.202 z m 16.594,-5.768 v -7.011 h -2.647 v 14.023 h 2.646 z m 5.291,1.333 c 0,-5.49 0.02,-5.696 0.576,-6.214 1.13,-1.053 4.033,-1.028 5.176,0.046 0.585,0.55 0.598,0.687 0.598,6.204 v 5.643 h 2.674 l -0.08,-5.974 -0.08,-5.974 -0.96,-0.88 c -1.33,-1.217 -3.371,-1.637 -5.995,-1.232 -2.11,0.325 -3.086,0.733 -3.894,1.624 -0.49,0.54 -0.534,1.02 -0.609,6.51 l -0.08,5.926 H 66.19 Z M 22.27,35.737 c 0.29,-0.29 0.529,-0.668 0.529,-0.839 0,-0.627 -0.887,-1.277 -1.742,-1.277 -1.56,0 -2.268,1.423 -1.11,2.234 0.802,0.561 1.688,0.517 2.322,-0.118 z m 38.629,0 c 0.29,-0.29 0.529,-0.689 0.529,-0.885 0,-0.562 -0.975,-1.298 -1.72,-1.298 -0.745,0 -1.72,0.736 -1.72,1.298 0,0.584 1.01,1.414 1.72,1.414 0.364,0 0.9,-0.238 1.19,-0.529 z"
       id="path4" />
    <path
       style="fill:#00ae79;stroke-width:1"
       d="m 11.068,52.472 c -0.065,-0.109 -1.6899997,-4.246 -3.6109997,-9.194 -1.921,-4.948 -3.554,-9.145 -3.629,-9.327 -0.098,-0.238 0.23,-0.33 1.173,-0.33 h 1.309 l 2.856,7.474 C 10.737,45.206 12.113,48.67 12.223,48.793 c 0.11,0.123 0.955,-2.05 1.877,-4.829 l 1.677,-5.052 h 1.262 c 0.694,0 1.262,0.1 1.262,0.222 0,0.188 -2.711,8.293 -4.108,12.28 l -0.44,1.257 h -1.282 c -0.706,0 -1.337,-0.09 -1.403,-0.199 z m 8.82,-6.813 v -7.011 h 2.381 v 14.023 h -2.38 z m 9.17,6.638 c -1.248,-0.46 -2.193,-1.314 -2.808,-2.537 -0.672,-1.335 -0.835,-2.205 -0.835,-4.448 0,-1.699 0.122,-2.238 0.837,-3.69 1.575,-3.2 4.604,-4.239 8.254,-2.832 0.428,0.165 0.463,-0.107 0.463,-3.554 v -3.732 h 2.677 l -0.081,9.327 c -0.092,10.435 -0.06,10.255 -2.016,11.215 -1.285,0.63 -5.067,0.777 -6.492,0.251 z m 5.154,-1.72 c 0.61,-0.492 0.627,-0.623 0.712,-5.428 l 0.088,-4.923 -0.94,-0.392 c -3.863,-1.615 -6.816,1.36 -6.449,6.495 0.227,3.17 1.708,4.754 4.446,4.754 1.1,0 1.69,-0.139 2.143,-0.505 z m 7.345,1.489 a 3.259,3.259 0 0 1 -1.246,-1.654 c -0.876,-2.65 0.708,-4.558 4.937,-5.943 l 2.686,-0.88 v -1.268 c 0,-1.564 -0.39,-2.467 -1.232,-2.85 -1.476,-0.673 -2.92,-0.053 -3.942,1.692 -0.754,1.285 -1.497,1.542 -1.96,0.677 -0.382,-0.713 0.01,-1.6 1.15,-2.6 1.106,-0.972 2.173,-1.224 4.542,-1.073 1.514,0.097 1.825,0.213 2.574,0.961 l 0.852,0.852 0.082,5.165 0.082,5.166 -0.888,0.888 c -1.076,1.076 -2.372,1.468 -4.859,1.47 -1.52,0.001 -2.05,-0.114 -2.778,-0.603 z m 5.035,-0.84 c 0.412,-0.214 0.836,-0.6 0.943,-0.86 0.297,-0.727 0.502,-5.369 0.237,-5.365 -0.554,0.007 -2.95,0.744 -3.725,1.145 -1.136,0.587 -1.67,1.417 -1.67,2.594 0,2.123 2.297,3.477 4.215,2.485 z M 19.947,35.855 c -1.158,-0.811 -0.45,-2.234 1.11,-2.234 0.855,0 1.742,0.65 1.742,1.277 0,0.524 -1.025,1.368 -1.661,1.368 -0.332,0 -0.868,-0.185 -1.191,-0.411 z"
       id="path6" />
    <path
       style="fill:#035aa8;stroke-width:1"
       d="m 53.232,40.434 c 0.006,-13.888 -0.02,-13.675 1.812,-15.396 l 0.827,-0.777 V 52.935 H 53.226 L 53.231,40.434 Z M 77.63,42.432 77.7,31.901 h 2.645 l 0.133,6.529 0.132,6.529 2.91,-3.15 c 2.853,-3.086 2.934,-3.149 4.061,-3.155 l 1.151,-0.006 -1.376,1.589 c -0.757,0.874 -1.471,1.647 -1.587,1.718 -0.115,0.072 -0.82,0.834 -1.565,1.695 l -1.355,1.564 2.95,3.398 3.354,3.86 c 0.375,0.432 0.324,0.464 -0.764,0.464 h -1.167 l -3.306,-3.76 -3.306,-3.76 -0.132,3.693 -0.133,3.694 -1.392,0.08 -1.392,0.08 z m -19.377,3.227 v -7.011 h 2.646 v 14.023 h -2.647 z m 5.343,1.086 c 0.075,-5.49 0.12,-5.97 0.61,-6.51 0.807,-0.891 1.784,-1.299 3.893,-1.624 2.624,-0.405 4.665,0.015 5.994,1.232 l 0.96,0.88 0.081,5.974 0.08,5.974 H 72.54 v -5.643 c 0,-5.517 -0.013,-5.655 -0.598,-6.204 -1.143,-1.074 -4.046,-1.1 -5.176,-0.046 -0.557,0.518 -0.576,0.724 -0.576,6.214 v 5.679 H 63.516 Z M 58.517,35.737 c -0.29,-0.29 -0.529,-0.689 -0.529,-0.885 0,-0.562 0.975,-1.298 1.72,-1.298 0.745,0 1.72,0.736 1.72,1.298 0,0.584 -1.01,1.414 -1.72,1.414 -0.364,0 -0.9,-0.238 -1.19,-0.529 z"
       id="path8" />
  </g>
</svg>
