<svg width="141" height="38" viewBox="0 0 141 38" fill="none" xmlns="http://www.w3.org/2000/svg">
<rect y="11" width="141" height="27" rx="4" fill="#D9D9D9"/>
<rect width="53" height="7" fill="#D9D9D9"/>
<path d="M11.8 30.144C10.5093 30.144 9.528 29.648 8.856 28.656C8.184 27.664 7.848 26.2293 7.848 24.352C7.848 22.464 8.184 21.0293 8.856 20.048C9.528 19.0667 10.5093 18.576 11.8 18.576C13.1013 18.576 14.0827 19.0667 14.744 20.048C15.416 21.0187 15.752 22.448 15.752 24.336C15.752 26.224 15.4107 27.664 14.728 28.656C14.056 29.648 13.08 30.144 11.8 30.144ZM11.8 29.008C12.696 29.008 13.3573 28.6293 13.784 27.872C14.2213 27.104 14.44 25.9253 14.44 24.336C14.44 22.736 14.2267 21.568 13.8 20.832C13.3733 20.0853 12.7067 19.712 11.8 19.712C10.904 19.712 10.2373 20.0853 9.8 20.832C9.37333 21.5787 9.16 22.7467 9.16 24.336C9.16 25.9253 9.37333 27.104 9.8 27.872C10.2373 28.6293 10.904 29.008 11.8 29.008ZM21.3938 30.144C20.1031 30.144 19.1218 29.648 18.4498 28.656C17.7778 27.664 17.4418 26.2293 17.4418 24.352C17.4418 22.464 17.7778 21.0293 18.4498 20.048C19.1218 19.0667 20.1031 18.576 21.3938 18.576C22.6951 18.576 23.6764 19.0667 24.3378 20.048C25.0098 21.0187 25.3458 22.448 25.3458 24.336C25.3458 26.224 25.0044 27.664 24.3218 28.656C23.6498 29.648 22.6738 30.144 21.3938 30.144ZM21.3938 29.008C22.2898 29.008 22.9511 28.6293 23.3778 27.872C23.8151 27.104 24.0338 25.9253 24.0338 24.336C24.0338 22.736 23.8204 21.568 23.3938 20.832C22.9671 20.0853 22.3004 19.712 21.3938 19.712C20.4978 19.712 19.8311 20.0853 19.3938 20.832C18.9671 21.5787 18.7538 22.7467 18.7538 24.336C18.7538 25.9253 18.9671 27.104 19.3938 27.872C19.8311 28.6293 20.4978 29.008 21.3938 29.008ZM27.0675 30.544C27.0035 30.7253 26.9075 30.8427 26.7795 30.896C26.6515 30.96 26.5182 30.9707 26.3795 30.928C26.2408 30.8853 26.1342 30.8053 26.0595 30.688C25.9848 30.5707 25.9742 30.4213 26.0275 30.24L29.8355 18.432C29.8995 18.2613 29.9955 18.1493 30.1235 18.096C30.2515 18.032 30.3848 18.0213 30.5235 18.064C30.6622 18.096 30.7688 18.176 30.8435 18.304C30.9182 18.4213 30.9235 18.5653 30.8595 18.736L27.0675 30.544ZM35.5188 30.144C34.2281 30.144 33.2468 29.648 32.5748 28.656C31.9028 27.664 31.5668 26.2293 31.5668 24.352C31.5668 22.464 31.9028 21.0293 32.5748 20.048C33.2468 19.0667 34.2281 18.576 35.5188 18.576C36.8201 18.576 37.8014 19.0667 38.4628 20.048C39.1348 21.0187 39.4708 22.448 39.4708 24.336C39.4708 26.224 39.1294 27.664 38.4468 28.656C37.7748 29.648 36.7988 30.144 35.5188 30.144ZM35.5188 29.008C36.4148 29.008 37.0761 28.6293 37.5028 27.872C37.9401 27.104 38.1588 25.9253 38.1588 24.336C38.1588 22.736 37.9454 21.568 37.5188 20.832C37.0921 20.0853 36.4254 19.712 35.5188 19.712C34.6228 19.712 33.9561 20.0853 33.5188 20.832C33.0921 21.5787 32.8788 22.7467 32.8788 24.336C32.8788 25.9253 33.0921 27.104 33.5188 27.872C33.9561 28.6293 34.6228 29.008 35.5188 29.008ZM45.1125 30.144C43.8218 30.144 42.8405 29.648 42.1685 28.656C41.4965 27.664 41.1605 26.2293 41.1605 24.352C41.1605 22.464 41.4965 21.0293 42.1685 20.048C42.8405 19.0667 43.8218 18.576 45.1125 18.576C46.4138 18.576 47.3952 19.0667 48.0565 20.048C48.7285 21.0187 49.0645 22.448 49.0645 24.336C49.0645 26.224 48.7232 27.664 48.0405 28.656C47.3685 29.648 46.3925 30.144 45.1125 30.144ZM45.1125 29.008C46.0085 29.008 46.6698 28.6293 47.0965 27.872C47.5338 27.104 47.7525 25.9253 47.7525 24.336C47.7525 22.736 47.5392 21.568 47.1125 20.832C46.6858 20.0853 46.0192 19.712 45.1125 19.712C44.2165 19.712 43.5498 20.0853 43.1125 20.832C42.6858 21.5787 42.4725 22.7467 42.4725 24.336C42.4725 25.9253 42.6858 27.104 43.1125 27.872C43.5498 28.6293 44.2165 29.008 45.1125 29.008ZM50.7863 30.544C50.7223 30.7253 50.6263 30.8427 50.4983 30.896C50.3703 30.96 50.2369 30.9707 50.0983 30.928C49.9596 30.8853 49.8529 30.8053 49.7782 30.688C49.7036 30.5707 49.6929 30.4213 49.7462 30.24L53.5543 18.432C53.6183 18.2613 53.7143 18.1493 53.8423 18.096C53.9703 18.032 54.1036 18.0213 54.2423 18.064C54.3809 18.096 54.4876 18.176 54.5623 18.304C54.6369 18.4213 54.6423 18.5653 54.5783 18.736L50.7863 30.544ZM59.2375 30.144C57.9468 30.144 56.9655 29.648 56.2935 28.656C55.6215 27.664 55.2855 26.2293 55.2855 24.352C55.2855 22.464 55.6215 21.0293 56.2935 20.048C56.9655 19.0667 57.9468 18.576 59.2375 18.576C60.5388 18.576 61.5202 19.0667 62.1815 20.048C62.8535 21.0187 63.1895 22.448 63.1895 24.336C63.1895 26.224 62.8482 27.664 62.1655 28.656C61.4935 29.648 60.5175 30.144 59.2375 30.144ZM59.2375 29.008C60.1335 29.008 60.7948 28.6293 61.2215 27.872C61.6588 27.104 61.8775 25.9253 61.8775 24.336C61.8775 22.736 61.6642 21.568 61.2375 20.832C60.8108 20.0853 60.1442 19.712 59.2375 19.712C58.3415 19.712 57.6748 20.0853 57.2375 20.832C56.8108 21.5787 56.5975 22.7467 56.5975 24.336C56.5975 25.9253 56.8108 27.104 57.2375 27.872C57.6748 28.6293 58.3415 29.008 59.2375 29.008ZM68.8313 30.144C67.5406 30.144 66.5593 29.648 65.8873 28.656C65.2153 27.664 64.8793 26.2293 64.8793 24.352C64.8793 22.464 65.2153 21.0293 65.8873 20.048C66.5593 19.0667 67.5406 18.576 68.8313 18.576C70.1326 18.576 71.1139 19.0667 71.7753 20.048C72.4473 21.0187 72.7833 22.448 72.7833 24.336C72.7833 26.224 72.4419 27.664 71.7593 28.656C71.0873 29.648 70.1113 30.144 68.8313 30.144ZM68.8313 29.008C69.7273 29.008 70.3886 28.6293 70.8153 27.872C71.2526 27.104 71.4713 25.9253 71.4713 24.336C71.4713 22.736 71.2579 21.568 70.8313 20.832C70.4046 20.0853 69.7379 19.712 68.8313 19.712C67.9353 19.712 67.2686 20.0853 66.8313 20.832C66.4046 21.5787 66.1913 22.7467 66.1913 24.336C66.1913 25.9253 66.4046 27.104 66.8313 27.872C67.2686 28.6293 67.9353 29.008 68.8313 29.008ZM78.425 30.144C77.1343 30.144 76.153 29.648 75.481 28.656C74.809 27.664 74.473 26.2293 74.473 24.352C74.473 22.464 74.809 21.0293 75.481 20.048C76.153 19.0667 77.1343 18.576 78.425 18.576C79.7263 18.576 80.7077 19.0667 81.369 20.048C82.041 21.0187 82.377 22.448 82.377 24.336C82.377 26.224 82.0357 27.664 81.353 28.656C80.681 29.648 79.705 30.144 78.425 30.144ZM78.425 29.008C79.321 29.008 79.9823 28.6293 80.409 27.872C80.8463 27.104 81.065 25.9253 81.065 24.336C81.065 22.736 80.8517 21.568 80.425 20.832C79.9983 20.0853 79.3317 19.712 78.425 19.712C77.529 19.712 76.8623 20.0853 76.425 20.832C75.9983 21.5787 75.785 22.7467 75.785 24.336C75.785 25.9253 75.9983 27.104 76.425 27.872C76.8623 28.6293 77.529 29.008 78.425 29.008ZM88.0188 30.144C86.7281 30.144 85.7468 29.648 85.0748 28.656C84.4028 27.664 84.0668 26.2293 84.0668 24.352C84.0668 22.464 84.4028 21.0293 85.0748 20.048C85.7468 19.0667 86.7281 18.576 88.0188 18.576C89.3201 18.576 90.3014 19.0667 90.9628 20.048C91.6348 21.0187 91.9708 22.448 91.9708 24.336C91.9708 26.224 91.6294 27.664 90.9468 28.656C90.2748 29.648 89.2988 30.144 88.0188 30.144ZM88.0188 29.008C88.9148 29.008 89.5761 28.6293 90.0028 27.872C90.4401 27.104 90.6588 25.9253 90.6588 24.336C90.6588 22.736 90.4454 21.568 90.0188 20.832C89.5921 20.0853 88.9254 19.712 88.0188 19.712C87.1228 19.712 86.4561 20.0853 86.0188 20.832C85.5921 21.5787 85.3788 22.7467 85.3788 24.336C85.3788 25.9253 85.5921 27.104 86.0188 27.872C86.4561 28.6293 87.1228 29.008 88.0188 29.008Z" fill="#6A6A6A"/>
<path fill-rule="evenodd" clip-rule="evenodd" d="M129.75 16.5C129.75 16.0858 129.414 15.75 129 15.75C128.586 15.75 128.25 16.0858 128.25 16.5V17.25H123.75V16.5C123.75 16.0858 123.414 15.75 123 15.75C122.586 15.75 122.25 16.0858 122.25 16.5V17.25H120.75C119.507 17.25 118.5 18.2574 118.5 19.5V22.5V30C118.5 31.2426 119.507 32.25 120.75 32.25H131.25C132.493 32.25 133.5 31.2426 133.5 30V22.5V19.5C133.5 18.2574 132.493 17.25 131.25 17.25H129.75V16.5ZM132 21.75V19.5C132 19.0858 131.664 18.75 131.25 18.75H129.75V19.5C129.75 19.9142 129.414 20.25 129 20.25C128.586 20.25 128.25 19.9142 128.25 19.5V18.75H123.75V19.5C123.75 19.9142 123.414 20.25 123 20.25C122.586 20.25 122.25 19.9142 122.25 19.5V18.75H120.75C120.336 18.75 120 19.0858 120 19.5V21.75H132ZM120 23.25H132V30C132 30.4142 131.664 30.75 131.25 30.75H120.75C120.336 30.75 120 30.4142 120 30V23.25Z" fill="#6A6A6A"/>
</svg>
