<?xml version="1.0" encoding="UTF-8" standalone="no"?>
<!-- Generator: Adobe Illustrator 19.0.0, SVG Export Plug-In . SVG Version: 6.00 Build 0)  -->

<svg
   version="1.1"
   id="Layer_1"
   x="0px"
   y="0px"
   viewBox="0 0 1822.0466 1822.0466"
   xml:space="preserve"
   sodipodi:docname="cofre-2.svg"
   width="1822.0466"
   height="1822.0466"
   inkscape:version="1.1.1 (3bf5ae0d25, 2021-09-20)"
   xmlns:inkscape="http://www.inkscape.org/namespaces/inkscape"
   xmlns:sodipodi="http://sodipodi.sourceforge.net/DTD/sodipodi-0.dtd"
   xmlns="http://www.w3.org/2000/svg"
   xmlns:svg="http://www.w3.org/2000/svg"><defs
   id="defs439" /><sodipodi:namedview
   id="namedview437"
   pagecolor="#ffffff"
   bordercolor="#666666"
   borderopacity="1.0"
   inkscape:pageshadow="2"
   inkscape:pageopacity="0.0"
   inkscape:pagecheckerboard="0"
   showgrid="false"
   inkscape:zoom="0.20947266"
   inkscape:cx="272.11189"
   inkscape:cy="1272.2424"
   inkscape:window-width="2560"
   inkscape:window-height="1017"
   inkscape:window-x="-8"
   inkscape:window-y="-8"
   inkscape:window-maximized="1"
   inkscape:current-layer="Layer_1" />
<rect
   style="fill:#34495e;fill-opacity:1;stroke-width:0.599999;paint-order:markers stroke fill"
   id="rect1377"
   width="1822.0466"
   height="1822.0466"
   x="0"
   y="0" />
<path
   style="fill:#203549;stroke-width:0.999999"
   d="m 1813.3405,959.98462 -509.0493,-509.10251 -34.3566,8.69194 -32.1162,8.05033 -0.028,-0.0177 -156.221,39.27681 c -18.2772,4.55511 -29.4222,23.07689 -24.7643,41.48878 0.6452,2.58773 1.6165,4.96277 2.7863,7.2421 0.2268,0.46437 0.5246,0.83658 0.7798,1.26905 1.145,2.00638 2.4141,3.82133 3.8852,5.50868 0.046,0.0284 0.046,0.0709 0.071,0.0992 l 0.2729,0.26232 c 1.0989,1.2336 2.2687,2.42466 3.5661,3.49521 0.273,0.27295 0.5247,0.55299 0.8437,0.77277 l 71.51,71.49229 c -87.5822,98.23452 -210.12728,189.29077 -352.17248,258.9681 -101.50289,49.78371 -204.81718,85.06548 -306.8447,104.87756 -18.55014,3.4846 -30.73729,21.5349 -27.11447,40.0567 1.1698,6.0971 3.90996,11.4356 7.66749,15.8348 0,0 0.12761,0 0.12761,0.1276 l 3.35696,3.3569 c 0.27296,0.2446 0.52464,0.3723 0.77987,0.6452 l 122.22955,122.3643 c -74.6401,1.1875 -134.01614,24.4912 -134.01614,53.2966 v 33.442 c 0,1.0422 0.2446,1.9709 0.37221,2.8571 -0.12761,0.9252 -0.37221,1.815 -0.37221,2.7118 v 33.5874 c 0,5.0549 1.80432,9.8653 5.17192,14.392 l 8.56787,8.6849 c 0.12762,0.1276 0.38285,0.2446 0.50692,0.3722 l 479.80088,479.8186 c 464.65382,-20.7302 838.31512,-390.79 864.75962,-853.92308 z"
   id="path4" />
<path
   style="fill:#5d6d7e;stroke-width:0.999999"
   d="m 1329.6474,1277.1023 c -25.5902,-12.0525 -64.7394,-19.7483 -108.5536,-19.7483 -43.9418,0 -83.0697,7.6958 -108.6705,19.7483 h -31.1272 v 33.5306 c 0,29.4292 62.4884,53.4065 139.7871,53.4065 77.1002,0 139.6701,-23.9773 139.6701,-53.4065 v -33.5306 z"
   id="path6" />
<path
   id="SVGCleanerId_0"
   style="fill:#b8d1e6;stroke-width:0.999999"
   d="m 1081.2961,1277.1023 v 26.2176 c 0,29.4292 62.4884,53.3782 139.7871,53.3782 77.1002,0 139.6701,-23.949 139.6701,-53.3782 v -26.2176 z" />
<g
   id="g10"
   transform="matrix(3.5448378,0,0,3.5448378,5.4296875e-6,5.4296875e-6)"
   style="stroke-width:0.2821">
	<path
   id="SVGCleanerId_0_1_"
   style="fill:#b8d1e6;stroke-width:0.2821"
   d="m 305.034,360.271 v 7.396 c 0,8.302 17.628,15.058 39.434,15.058 21.75,0 39.401,-6.756 39.401,-15.058 v -7.396 z" />
</g>
<path
   style="fill:#b8d1e6;stroke-width:0.999999"
   d="m 1360.7533,1277.1023 c 0,29.4469 -62.5699,53.3781 -139.6701,53.3781 -77.3094,0 -139.7871,-23.9312 -139.7871,-53.3781 0,-29.4754 62.4884,-53.3038 139.7871,-53.3038 77.1108,0 139.6701,23.8284 139.6701,53.3038 z"
   id="path12" />
<path
   style="fill:#f2f9ff;stroke-width:0.999999"
   d="m 1221.0938,1324.9079 c -80.2657,0 -134.1898,-24.7004 -134.1898,-47.8056 0,-23.006 53.9241,-47.7065 134.1898,-47.7065 80.1949,0 134.0622,24.7005 134.0622,47.7065 0,22.616 -55.0655,47.8056 -134.0622,47.8056 z"
   id="path14" />
<path
   style="fill:#b8d1e6;stroke-width:0.999999"
   d="m 1213.7986,1306.8612 c -23.2967,-0.6984 -40.7019,-4.2396 -52.7047,-8.9826 l 14.9557,-7.8412 c 8.3126,3.5377 21.4604,6.7954 37.7419,7.7596 v -16.7529 c -23.2967,-2.2403 -47.7242,-5.4555 -47.7242,-16.6784 0,-8.7664 18.5218,-15.7639 47.7242,-16.7352 v -7.9227 h 18.0503 v 7.9936 c 18.341,0.7976 33.7327,3.5661 45.4838,7.8943 l -14.9096,7.4867 c -8.6104,-3.2754 -19.4576,-5.2711 -30.5742,-6.1538 v 14.9628 c 23.5483,2.3147 49.1137,5.6717 49.1137,17.2527 0,8.8124 -15.1825,16.5508 -49.1137,17.6958 v 7.749 h -18.0503 v -7.7313 h 0.01 z m 0,-36.799 v -13.5413 c -12.6693,0.6168 -20.592,3.2861 -20.592,7.0862 0,3.3676 8.5927,5.0833 20.592,6.4551 z m 18.0503,12.7933 v 15.0089 c 15.6646,-0.8969 21.9602,-4.4027 21.9602,-7.7668 0,-3.8816 -9.4647,-5.771 -21.9602,-7.2421 z"
   id="path16" />
<g
   id="g26"
   transform="matrix(3.5448378,0,0,3.5448378,5.4296875e-6,5.4296875e-6)"
   style="stroke-width:0.2821">
	<path
   style="fill:#f2f9ff;stroke-width:0.2821"
   d="m 307.459,362.921 v 9.946 c 0.745,0.781 1.672,1.526 2.732,2.24 v -9.321 c -1.217,-0.922 -2.144,-1.885 -2.732,-2.865 z"
   id="path18" />
	<path
   style="fill:#f2f9ff;stroke-width:0.2821"
   d="m 378.004,366.228 v 9.329 c 1.039,-0.64 1.969,-1.313 2.747,-2.015 v -9.7 c -0.693,0.804 -1.612,1.606 -2.747,2.386 z"
   id="path20" />
	<path
   style="fill:#f2f9ff;stroke-width:0.2821"
   d="m 312.325,367.224 v 9.152 c 0.85,0.463 1.761,0.906 2.752,1.321 v -9.075 c -1.001,-0.45 -1.917,-0.919 -2.752,-1.398 z"
   id="path22" />
	<path
   style="fill:#f2f9ff;stroke-width:0.2821"
   d="m 317.207,369.516 v 9.024 c 0.878,0.315 1.789,0.625 2.737,0.911 v -8.998 c -0.955,-0.292 -1.867,-0.615 -2.737,-0.937 z"
   id="path24" />
</g>
<path
   style="fill:#5d6d7e;stroke-width:0.999999"
   d="m 1329.6474,1237.9992 c -25.5902,-12.0525 -64.7394,-19.7731 -108.5536,-19.7731 -43.9418,0 -83.0697,7.7242 -108.6705,19.7731 h -31.1272 v 33.5058 c 0,29.4469 62.4884,53.3781 139.7871,53.3781 77.1002,0 139.6701,-23.9312 139.6701,-53.3781 v -33.5058 z"
   id="path28" />
<path
   id="SVGCleanerId_1"
   style="fill:#b8d1e6;stroke-width:0.999999"
   d="m 1081.2961,1237.9992 v 26.1892 c 0,29.4293 62.4884,53.3498 139.7871,53.3498 77.1002,0 139.6701,-23.9205 139.6701,-53.3498 v -26.1892 z" />
<g
   id="g32"
   transform="matrix(3.5448378,0,0,3.5448378,5.4296875e-6,5.4296875e-6)"
   style="stroke-width:0.2821">
	<path
   id="SVGCleanerId_1_1_"
   style="fill:#b8d1e6;stroke-width:0.2821"
   d="m 305.034,349.24 v 7.388 c 0,8.302 17.628,15.05 39.434,15.05 21.75,0 39.401,-6.748 39.401,-15.05 v -7.388 z" />
</g>
<path
   style="fill:#b8d1e6;stroke-width:0.999999"
   d="m 1360.7533,1237.9992 c 0,29.4469 -62.5699,53.3781 -139.6701,53.3781 -77.3094,0 -139.7871,-23.9312 -139.7871,-53.3781 0,-29.4825 62.4884,-53.3038 139.7871,-53.3038 77.1108,0 139.6701,23.8213 139.6701,53.3038 z"
   id="path34" />
<path
   style="fill:#f2f9ff;stroke-width:0.999999"
   d="m 1221.0938,1285.78 c -80.2657,0 -134.1898,-24.7288 -134.1898,-47.7773 0,-23.0592 53.9241,-47.7064 134.1898,-47.7064 80.1949,0 134.0622,24.6472 134.0622,47.7064 0,22.5948 -55.0655,47.7773 -134.0622,47.7773 z"
   id="path36" />
<path
   style="fill:#b8d1e6;stroke-width:0.999999"
   d="m 1213.7986,1267.7191 c -23.2967,-0.6984 -40.7019,-4.2361 -52.7047,-8.9578 l 14.9557,-7.8696 c 8.3126,3.5661 21.4604,6.8238 37.7419,7.7845 v -16.7777 c -23.2967,-2.2155 -47.7242,-5.4343 -47.7242,-16.6608 0,-8.7841 18.5218,-15.8099 47.7242,-16.7351 v -7.9582 h 18.0503 v 8.0397 c 18.341,0.7728 33.7327,3.5377 45.4838,7.8695 l -14.9096,7.4867 c -8.6104,-3.2577 -19.4576,-5.2534 -30.5742,-6.1254 v 14.9379 c 23.5483,2.3396 49.1137,5.7001 49.1137,17.2527 0,8.8125 -15.1825,16.5721 -49.1137,17.6959 v 7.7596 h -18.0503 v -7.7419 z m 0,-36.76 v -13.5484 c -12.6693,0.5991 -20.592,3.2861 -20.592,7.0968 0,3.357 8.5927,5.0727 20.592,6.4516 z m 18.0503,12.7933 v 15.0089 c 15.6646,-0.9075 21.9602,-4.4098 21.9602,-7.7951 0,-3.8533 -9.4647,-5.7498 -21.9602,-7.2138 z"
   id="path38" />
<g
   id="g48"
   transform="matrix(3.5448378,0,0,3.5448378,5.4296875e-6,5.4296875e-6)"
   style="stroke-width:0.2821">
	<path
   style="fill:#f2f9ff;stroke-width:0.2821"
   d="m 307.459,351.887 v 9.938 c 0.745,0.786 1.672,1.523 2.732,2.24 v -9.313 c -1.217,-0.927 -2.144,-1.889 -2.732,-2.865 z"
   id="path40" />
	<path
   style="fill:#f2f9ff;stroke-width:0.2821"
   d="m 378.004,355.187 v 9.334 c 1.039,-0.64 1.969,-1.316 2.747,-2.022 v -9.7 c -0.693,0.816 -1.612,1.615 -2.747,2.388 z"
   id="path42" />
	<path
   style="fill:#f2f9ff;stroke-width:0.2821"
   d="m 312.325,356.178 v 9.165 c 0.85,0.458 1.761,0.901 2.752,1.316 v -9.075 c -1.001,-0.451 -1.917,-0.922 -2.752,-1.406 z"
   id="path44" />
	<path
   style="fill:#f2f9ff;stroke-width:0.2821"
   d="m 317.207,358.474 v 9.024 c 0.878,0.323 1.789,0.632 2.737,0.911 v -8.991 c -0.955,-0.306 -1.867,-0.614 -2.737,-0.944 z"
   id="path46" />
</g>
<path
   style="fill:#5d6d7e;stroke-width:0.999999"
   d="m 1329.6474,1198.85 c -25.5902,-12.0702 -64.7394,-19.7377 -108.5536,-19.7377 -43.9418,0 -83.0697,7.6675 -108.6705,19.7377 h -31.1272 v 33.5412 c 0,29.447 62.4884,53.3782 139.7871,53.3782 77.1002,0 139.6701,-23.9312 139.6701,-53.3782 V 1198.85 Z"
   id="path50" />
<path
   id="SVGCleanerId_2"
   style="fill:#b8d1e6;stroke-width:0.999999"
   d="m 1081.2961,1198.85 v 26.1999 c 0,29.4469 62.4884,53.3781 139.7871,53.3781 77.1002,0 139.6701,-23.9312 139.6701,-53.3781 V 1198.85 Z" />
<g
   id="g54"
   transform="matrix(3.5448378,0,0,3.5448378,5.4296875e-6,5.4296875e-6)"
   style="stroke-width:0.2821">
	<path
   id="SVGCleanerId_2_1_"
   style="fill:#b8d1e6;stroke-width:0.2821"
   d="m 305.034,338.196 v 7.391 c 0,8.307 17.628,15.058 39.434,15.058 21.75,0 39.401,-6.751 39.401,-15.058 v -7.391 z" />
</g>
<path
   style="fill:#b8d1e6;stroke-width:0.999999"
   d="m 1360.7533,1198.85 c 0,29.4576 -62.5699,53.3852 -139.6701,53.3852 -77.3094,0 -139.7871,-23.9312 -139.7871,-53.3852 0,-29.5037 62.4884,-53.2967 139.7871,-53.2967 77.1108,0 139.6701,23.7965 139.6701,53.2967 z"
   id="path56" />
<path
   style="fill:#f2f9ff;stroke-width:0.999999"
   d="m 1221.0938,1246.6592 c -80.2657,0 -134.1898,-24.7182 -134.1898,-47.8057 0,-23.0237 53.9241,-47.6958 134.1898,-47.6958 80.1949,0 134.0622,24.6756 134.0622,47.6958 0,22.6125 -55.0655,47.8057 -134.0622,47.8057 z"
   id="path58" />
<path
   style="fill:#b8d1e6;stroke-width:0.999999"
   d="m 1213.7986,1228.5912 c -23.2967,-0.6984 -40.7019,-4.2113 -52.7047,-8.9649 l 14.9557,-7.8589 c 8.3126,3.5377 21.4604,6.8167 37.7419,7.7596 v -16.7529 c -23.2967,-2.2155 -47.7242,-5.4342 -47.7242,-16.6324 0,-8.7947 18.5218,-15.81 47.7242,-16.7883 v -7.9121 h 18.0503 v 8.0503 c 18.341,0.7728 33.7327,3.5307 45.4838,7.8589 l -14.9096,7.4974 c -8.6104,-3.2861 -19.4576,-5.2818 -30.5742,-6.1255 v 14.9379 c 23.5483,2.2971 49.1137,5.6824 49.1137,17.2244 0,8.8196 -15.1825,16.6076 -49.1137,17.7065 v 7.7844 h -18.0503 v -7.7774 h 0.01 z m 0,-36.7529 v -13.5945 c -12.6693,0.6452 -20.592,3.3109 -20.592,7.0968 0,3.3853 8.5927,5.1081 20.592,6.4977 z m 18.0503,12.7685 v 15.0088 c 15.6646,-0.872 21.9602,-4.4027 21.9602,-7.7596 0,-3.8852 -9.4647,-5.8065 -21.9602,-7.2492 z"
   id="path60" />
<g
   id="g70"
   transform="matrix(3.5448378,0,0,3.5448378,5.4296875e-6,5.4296875e-6)"
   style="stroke-width:0.2821">
	<path
   style="fill:#f2f9ff;stroke-width:0.2821"
   d="m 307.459,340.854 v 9.933 c 0.745,0.781 1.672,1.531 2.732,2.248 v -9.313 c -1.217,-0.938 -2.144,-1.901 -2.732,-2.868 z"
   id="path62" />
	<path
   style="fill:#f2f9ff;stroke-width:0.2821"
   d="m 378.004,344.156 v 9.334 c 1.039,-0.645 1.969,-1.321 2.747,-2.022 v -9.697 c -0.693,0.808 -1.612,1.612 -2.747,2.385 z"
   id="path64" />
	<path
   style="fill:#f2f9ff;stroke-width:0.2821"
   d="m 312.325,345.144 v 9.165 c 0.85,0.458 1.761,0.893 2.752,1.313 v -9.08 c -1.001,-0.45 -1.917,-0.911 -2.752,-1.398 z"
   id="path66" />
	<path
   style="fill:#f2f9ff;stroke-width:0.2821"
   d="m 317.207,347.435 v 9.029 c 0.878,0.317 1.789,0.62 2.737,0.914 v -8.998 c -0.955,-0.299 -1.867,-0.614 -2.737,-0.945 z"
   id="path68" />
</g>
<path
   style="fill:#5d6d7e;stroke-width:0.999999"
   d="m 1329.6474,1159.722 c -25.5902,-12.0418 -64.7394,-19.7376 -108.5536,-19.7376 -43.9418,0 -83.0697,7.6958 -108.6705,19.7376 h -31.1272 v 33.559 c 0,29.4293 62.4884,53.3782 139.7871,53.3782 77.1002,0 139.6701,-23.9489 139.6701,-53.3782 v -33.559 z"
   id="path72" />
<path
   id="SVGCleanerId_3"
   style="fill:#b8d1e6;stroke-width:0.999999"
   d="m 1081.2961,1159.722 v 26.2177 c 0,29.4292 62.4884,53.3852 139.7871,53.3852 77.1002,0 139.6701,-23.956 139.6701,-53.3852 v -26.2177 z" />
<g
   id="g76"
   transform="matrix(3.5448378,0,0,3.5448378,5.4296875e-6,5.4296875e-6)"
   style="stroke-width:0.2821">
	<path
   id="SVGCleanerId_3_1_"
   style="fill:#b8d1e6;stroke-width:0.2821"
   d="m 305.034,327.158 v 7.396 c 0,8.302 17.628,15.06 39.434,15.06 21.75,0 39.401,-6.758 39.401,-15.06 v -7.396 z" />
</g>
<path
   style="fill:#b8d1e6;stroke-width:0.999999"
   d="m 1360.7533,1159.722 c 0,29.4577 -62.5699,53.4066 -139.6701,53.4066 -77.3094,0 -139.7871,-23.9489 -139.7871,-53.4066 0,-29.4753 62.4884,-53.2682 139.7871,-53.2682 77.1108,0 139.6701,23.7929 139.6701,53.2682 z"
   id="path78" />
<path
   style="fill:#f2f9ff;stroke-width:0.999999"
   d="m 1221.0938,1207.5171 c -80.2657,0 -134.1898,-24.7004 -134.1898,-47.8057 0,-22.9953 53.9241,-47.6958 134.1898,-47.6958 80.1949,0 134.0622,24.7005 134.0622,47.6958 0,22.6161 -55.0655,47.8057 -134.0622,47.8057 z"
   id="path80" />
<path
   style="fill:#b8d1e6;stroke-width:0.999999"
   d="m 1213.7986,1189.4668 c -23.2967,-0.6913 -40.7019,-4.229 -52.7047,-8.9826 l 14.9557,-7.8412 c 8.3126,3.5377 21.4604,6.7954 37.7419,7.7667 v -16.76 c -23.2967,-2.2403 -47.7242,-5.4555 -47.7242,-16.6536 0,-8.7948 18.5218,-15.7816 47.7242,-16.76 v -7.9121 h 18.0503 v 8.0113 c 18.341,0.7728 33.7327,3.5662 45.4838,7.8696 l -14.9096,7.4973 c -8.6104,-3.286 -19.4576,-5.2534 -30.5742,-6.1538 v 14.9379 c 23.5483,2.3396 49.1137,5.7072 49.1137,17.2776 0,8.8124 -15.1825,16.5508 -49.1137,17.6958 v 7.749 h -18.0503 v -7.7419 z m 0,-36.7706 v -13.5661 c -12.6693,0.6168 -20.592,3.2861 -20.592,7.0968 0,3.3675 8.5927,5.0832 20.592,6.4693 z m 18.0503,12.7791 v 15.0089 c 15.6646,-0.8721 21.9602,-4.4027 21.9602,-7.742 0,-3.8993 -9.4647,-5.7993 -21.9602,-7.2669 z"
   id="path82" />
<g
   id="g92"
   transform="matrix(3.5448378,0,0,3.5448378,5.4296875e-6,5.4296875e-6)"
   style="stroke-width:0.2821">
	<path
   style="fill:#f2f9ff;stroke-width:0.2821"
   d="m 307.459,329.805 v 9.946 c 0.745,0.781 1.672,1.533 2.732,2.24 v -9.313 c -1.217,-0.925 -2.144,-1.888 -2.732,-2.873 z"
   id="path84" />
	<path
   style="fill:#f2f9ff;stroke-width:0.2821"
   d="m 378.004,333.115 v 9.326 c 1.039,-0.637 1.969,-1.313 2.747,-2.007 v -9.7 c -0.693,0.799 -1.612,1.6 -2.747,2.381 z"
   id="path86" />
	<path
   style="fill:#f2f9ff;stroke-width:0.2821"
   d="m 312.325,334.111 v 9.16 c 0.85,0.463 1.761,0.899 2.752,1.313 v -9.073 c -1.001,-0.451 -1.917,-0.922 -2.752,-1.4 z"
   id="path88" />
	<path
   style="fill:#f2f9ff;stroke-width:0.2821"
   d="m 317.207,336.399 v 9.032 c 0.878,0.31 1.789,0.617 2.737,0.906 v -8.996 c -0.955,-0.294 -1.867,-0.611 -2.737,-0.942 z"
   id="path90" />
</g>
<path
   style="fill:#5d6d7e;stroke-width:0.999999"
   d="m 1329.6474,1120.6083 c -25.5902,-12.0524 -64.7394,-19.7731 -108.5536,-19.7731 -43.9418,0 -83.0697,7.7242 -108.6705,19.7731 h -31.1272 v 33.5058 c 0,29.4576 62.4884,53.3782 139.7871,53.3782 77.1002,0 139.6701,-23.9206 139.6701,-53.3782 v -33.5058 z"
   id="path94" />
<path
   id="SVGCleanerId_4"
   style="fill:#b8d1e6;stroke-width:0.999999"
   d="m 1081.2961,1120.6083 v 26.1893 c 0,29.4576 62.4884,53.3781 139.7871,53.3781 77.1002,0 139.6701,-23.9205 139.6701,-53.3781 v -26.1893 z" />
<g
   id="g98"
   transform="matrix(3.5448378,0,0,3.5448378,5.4296875e-6,5.4296875e-6)"
   style="stroke-width:0.2821">
	<path
   id="SVGCleanerId_4_1_"
   style="fill:#b8d1e6;stroke-width:0.2821"
   d="m 305.034,316.124 v 7.388 c 0,8.31 17.628,15.058 39.434,15.058 21.75,0 39.401,-6.748 39.401,-15.058 v -7.388 z" />
</g>
<path
   style="fill:#b8d1e6;stroke-width:0.999999"
   d="m 1360.7533,1120.6083 c 0,29.4293 -62.5699,53.3782 -139.6701,53.3782 -77.3094,0 -139.7871,-23.9489 -139.7871,-53.3782 0,-29.4753 62.4884,-53.3037 139.7871,-53.3037 77.1108,0 139.6701,23.8284 139.6701,53.3037 z"
   id="path100" />
<path
   style="fill:#f2f9ff;stroke-width:0.999999"
   d="m 1221.0938,1168.3892 c -80.2657,0 -134.1898,-24.7288 -134.1898,-47.7773 0,-23.0486 53.9241,-47.7065 134.1898,-47.7065 80.1949,0 134.0622,24.6579 134.0622,47.7065 0,22.6125 -55.0655,47.7773 -134.0622,47.7773 z"
   id="path102" />
<path
   style="fill:#b8d1e6;stroke-width:0.999999"
   d="m 1213.7986,1150.3389 c -23.2967,-0.6913 -40.7019,-4.229 -52.7047,-8.9578 l 14.9557,-7.8696 c 8.3126,3.5661 21.4604,6.8238 37.7419,7.7845 v -16.7777 c -23.2967,-2.2156 -47.7242,-5.4272 -47.7242,-16.6537 0,-8.7947 18.5218,-15.7816 47.7242,-16.7352 v -7.9404 h 18.0503 v 8.0113 c 18.341,0.7728 33.7327,3.5378 45.4838,7.8696 l -14.9096,7.4973 c -8.6104,-3.2577 -19.4576,-5.2534 -30.5742,-6.1361 v 14.9379 c 23.5483,2.3396 49.1137,5.7001 49.1137,17.2776 0,8.7841 -15.1825,16.5508 -49.1137,17.6675 v 7.7667 h -18.0503 v -7.749 h 0.01 z m 0,-36.7706 v -13.5413 c -12.6693,0.5884 -20.592,3.286 -20.592,7.0861 0,3.3676 8.5927,5.0833 20.592,6.4552 z m 18.0503,12.7933 v 15.0088 c 15.6646,-0.8968 21.9602,-4.4027 21.9602,-7.788 0,-3.8639 -9.4647,-5.7497 -21.9602,-7.2208 z"
   id="path104" />
<g
   id="g114"
   transform="matrix(3.5448378,0,0,3.5448378,5.4296875e-6,5.4296875e-6)"
   style="stroke-width:0.2821">
	<path
   style="fill:#f2f9ff;stroke-width:0.2821"
   d="m 307.459,318.774 v 9.938 c 0.745,0.788 1.672,1.526 2.732,2.24 v -9.313 c -1.217,-0.93 -2.144,-1.89 -2.732,-2.865 z"
   id="path106" />
	<path
   style="fill:#f2f9ff;stroke-width:0.2821"
   d="m 378.004,322.081 v 9.329 c 1.039,-0.64 1.969,-1.313 2.747,-2.022 v -9.7 c -0.693,0.811 -1.612,1.612 -2.747,2.393 z"
   id="path108" />
	<path
   style="fill:#f2f9ff;stroke-width:0.2821"
   d="m 312.325,323.069 v 9.16 c 0.85,0.456 1.761,0.899 2.752,1.313 v -9.068 c -1.001,-0.45 -1.917,-0.926 -2.752,-1.405 z"
   id="path110" />
	<path
   style="fill:#f2f9ff;stroke-width:0.2821"
   d="m 317.207,325.361 v 9.024 c 0.878,0.323 1.789,0.632 2.737,0.911 v -8.991 c -0.955,-0.304 -1.867,-0.622 -2.737,-0.944 z"
   id="path112" />
</g>
<path
   style="fill:#5d6d7e;stroke-width:0.999999"
   d="m 1329.6474,1081.4768 c -25.5902,-12.0772 -64.7394,-19.7482 -108.5536,-19.7482 -43.9418,0 -83.0697,7.6674 -108.6705,19.7482 h -31.1272 v 33.5307 c 0,29.4469 62.4884,53.3781 139.7871,53.3781 77.1002,0 139.6701,-23.9312 139.6701,-53.3781 v -33.5307 z"
   id="path116" />
<path
   id="SVGCleanerId_5"
   style="fill:#b8d1e6;stroke-width:0.999999"
   d="m 1081.2961,1081.4768 v 26.2177 c 0,29.4292 62.4884,53.3498 139.7871,53.3498 77.1002,0 139.6701,-23.9206 139.6701,-53.3498 v -26.2177 z" />
<g
   id="g120"
   transform="matrix(3.5448378,0,0,3.5448378,5.4296875e-6,5.4296875e-6)"
   style="stroke-width:0.2821">
	<path
   id="SVGCleanerId_5_1_"
   style="fill:#b8d1e6;stroke-width:0.2821"
   d="m 305.034,305.085 v 7.396 c 0,8.302 17.628,15.05 39.434,15.05 21.75,0 39.401,-6.748 39.401,-15.05 v -7.396 z" />
</g>
<path
   style="fill:#b8d1e6;stroke-width:0.999999"
   d="m 1360.7533,1081.4768 c 0,29.447 -62.5699,53.3782 -139.6701,53.3782 -77.3094,0 -139.7871,-23.9312 -139.7871,-53.3782 0,-29.4576 62.4884,-53.3037 139.7871,-53.3037 77.1108,0 139.6701,23.8497 139.6701,53.3037 z"
   id="path122" />
<path
   style="fill:#f2f9ff;stroke-width:0.999999"
   d="m 1221.0938,1129.2754 c -80.2657,0 -134.1898,-24.7288 -134.1898,-47.8056 0,-23.0309 53.9241,-47.7065 134.1898,-47.7065 80.1949,0 134.0622,24.6756 134.0622,47.7065 0,22.6125 -55.0655,47.8056 -134.0622,47.8056 z"
   id="path124" />
<path
   style="fill:#b8d1e6;stroke-width:0.999999"
   d="m 1213.7986,1111.1968 c -23.2967,-0.67 -40.7019,-4.2113 -52.7047,-8.9578 l 14.9557,-7.8412 c 8.3126,3.5377 21.4604,6.7954 37.7419,7.749 v -16.76 c -23.2967,-2.2155 -47.7242,-5.4342 -47.7242,-16.6324 0,-8.7841 18.5218,-15.81 47.7242,-16.7352 v -7.9581 h 18.0503 v 8.0397 c 18.341,0.7727 33.7327,3.5377 45.4838,7.8695 l -14.9096,7.4867 c -8.6104,-3.2577 -19.4576,-5.2712 -30.5742,-6.1255 v 14.938 c 23.5483,2.3148 49.1137,5.7001 49.1137,17.2243 0,8.8125 -15.1825,16.597 -49.1137,17.6959 v 7.7844 h -18.0503 v -7.7773 z m 0,-36.7423 v -13.5661 c -12.6693,0.6168 -20.592,3.3038 -20.592,7.0613 0,3.4208 8.5927,5.1082 20.592,6.5048 z m 18.0503,12.7756 v 15.0089 c 15.6646,-0.8792 21.9602,-4.4027 21.9602,-7.7668 0,-3.8816 -9.4647,-5.7781 -21.9602,-7.2421 z"
   id="path126" />
<g
   id="g136"
   transform="matrix(3.5448378,0,0,3.5448378,5.4296875e-6,5.4296875e-6)"
   style="stroke-width:0.2821">
	<path
   style="fill:#f2f9ff;stroke-width:0.2821"
   d="m 307.459,307.74 v 9.93 c 0.745,0.781 1.672,1.531 2.732,2.248 v -9.321 c -1.217,-0.927 -2.144,-1.889 -2.732,-2.857 z"
   id="path128" />
	<path
   style="fill:#f2f9ff;stroke-width:0.2821"
   d="m 378.004,311.04 v 9.334 c 1.039,-0.648 1.969,-1.324 2.747,-2.022 v -9.7 c -0.693,0.816 -1.612,1.615 -2.747,2.388 z"
   id="path130" />
	<path
   style="fill:#f2f9ff;stroke-width:0.2821"
   d="m 312.325,312.031 v 9.165 c 0.85,0.458 1.761,0.893 2.752,1.316 v -9.083 c -1.001,-0.451 -1.917,-0.914 -2.752,-1.398 z"
   id="path132" />
	<path
   style="fill:#f2f9ff;stroke-width:0.2821"
   d="m 317.207,314.319 v 9.032 c 0.878,0.323 1.789,0.625 2.737,0.911 v -8.991 c -0.955,-0.307 -1.867,-0.621 -2.737,-0.952 z"
   id="path134" />
</g>
<path
   style="fill:#5d6d7e;stroke-width:0.999999"
   d="m 1329.6474,1042.3383 c -25.5902,-12.0525 -64.7394,-19.7483 -108.5536,-19.7483 -43.9418,0 -83.0697,7.6958 -108.6705,19.7483 h -31.1272 v 33.559 c 0,29.4221 62.4884,53.3781 139.7871,53.3781 77.1002,0 139.6701,-23.956 139.6701,-53.3781 v -33.559 z"
   id="path138" />
<path
   id="SVGCleanerId_6"
   style="fill:#b8d1e6;stroke-width:0.999999"
   d="m 1081.2961,1042.3383 v 26.2176 c 0,29.4186 62.4884,53.3782 139.7871,53.3782 77.1002,0 139.6701,-23.956 139.6701,-53.3782 v -26.2176 z" />
<g
   id="g142"
   transform="matrix(3.5448378,0,0,3.5448378,5.4296875e-6,5.4296875e-6)"
   style="stroke-width:0.2821">
	<path
   id="SVGCleanerId_6_1_"
   style="fill:#b8d1e6;stroke-width:0.2821"
   d="m 305.034,294.044 v 7.396 c 0,8.299 17.628,15.058 39.434,15.058 21.75,0 39.401,-6.758 39.401,-15.058 v -7.396 z" />
</g>
<path
   style="fill:#b8d1e6;stroke-width:0.999999"
   d="m 1360.7533,1042.3383 c 0,29.447 -62.5699,53.4065 -139.6701,53.4065 -77.3094,0 -139.7871,-23.956 -139.7871,-53.4065 0,-29.4753 62.4884,-53.27892 139.7871,-53.27892 77.1108,0 139.6701,23.80362 139.6701,53.27892 z"
   id="path144" />
<path
   style="fill:#f2f9ff;stroke-width:0.999999"
   d="m 1221.0938,1090.1369 c -80.2657,0 -134.1898,-24.6934 -134.1898,-47.7986 0,-23.0308 53.9241,-47.70643 134.1898,-47.70643 80.1949,0 134.0622,24.67563 134.0622,47.70643 0,22.6054 -55.0655,47.7986 -134.0622,47.7986 z"
   id="path146" />
<path
   style="fill:#b8d1e6;stroke-width:0.999999"
   d="m 1213.7986,1072.0937 c -23.2967,-0.6984 -40.7019,-4.2397 -52.7047,-8.9827 l 14.9557,-7.8411 c 8.3126,3.5377 21.4604,6.7954 37.7419,7.7596 v -16.7529 c -23.2967,-2.2155 -47.7242,-5.4342 -47.7242,-16.6607 0,-8.7948 18.5218,-15.7816 47.7242,-16.7529 v -7.9227 h 18.0503 v 8.0219 c 18.341,0.7976 33.7327,3.559 45.4838,7.8589 l -14.9096,7.4974 c -8.6104,-3.2861 -19.4576,-5.2535 -30.5742,-6.1255 v 14.9379 c 23.5483,2.3148 49.1137,5.6718 49.1137,17.2421 0,8.8196 -15.1825,16.5792 -49.1137,17.7065 v 7.7596 h -18.0503 v -7.7419 h 0.01 z m 0,-36.7777 v -13.5661 c -12.6693,0.6274 -20.592,3.286 -20.592,7.0967 0,3.357 8.5927,5.0798 20.592,6.4694 z m 18.0503,12.7756 v 15.0088 c 15.6646,-0.8791 21.9602,-4.4098 21.9602,-7.749 0,-3.8745 -9.4647,-5.7994 -21.9602,-7.2598 z"
   id="path148" />
<g
   id="g158"
   transform="matrix(3.5448378,0,0,3.5448378,5.4296875e-6,5.4296875e-6)"
   style="stroke-width:0.2821">
	<path
   style="fill:#f2f9ff;stroke-width:0.2821"
   d="m 307.459,296.694 v 9.946 c 0.745,0.778 1.672,1.531 2.732,2.24 v -9.313 c -1.217,-0.93 -2.144,-1.893 -2.732,-2.873 z"
   id="path150" />
	<path
   style="fill:#f2f9ff;stroke-width:0.2821"
   d="m 378.004,300.001 v 9.329 c 1.039,-0.64 1.969,-1.316 2.747,-2.01 v -9.697 c -0.693,0.804 -1.612,1.605 -2.747,2.378 z"
   id="path152" />
	<path
   style="fill:#f2f9ff;stroke-width:0.2821"
   d="m 312.325,300.997 v 9.157 c 0.85,0.466 1.761,0.901 2.752,1.321 v -9.08 c -1.001,-0.451 -1.917,-0.911 -2.752,-1.398 z"
   id="path154" />
	<path
   style="fill:#f2f9ff;stroke-width:0.2821"
   d="m 317.207,303.288 v 9.029 c 0.878,0.31 1.789,0.62 2.737,0.914 v -9.006 c -0.955,-0.292 -1.867,-0.606 -2.737,-0.937 z"
   id="path156" />
</g>
<path
   style="fill:#5d6d7e;stroke-width:0.999999"
   d="m 1329.6474,1003.2281 c -25.5902,-12.04181 -64.7394,-19.76601 -108.5536,-19.76601 -43.9418,0 -83.0697,7.7242 -108.6705,19.76601 h -31.1272 v 33.5306 c 0,29.4576 62.4884,53.3782 139.7871,53.3782 77.1002,0 139.6701,-23.9206 139.6701,-53.3782 v -33.5306 z"
   id="path160" />
<path
   id="SVGCleanerId_7"
   style="fill:#b8d1e6;stroke-width:0.999999"
   d="m 1081.2961,1003.2281 v 26.1999 c 0,29.447 62.4884,53.3782 139.7871,53.3782 77.1002,0 139.6701,-23.9312 139.6701,-53.3782 v -26.1999 z" />
<g
   id="g164"
   transform="matrix(3.5448378,0,0,3.5448378,5.4296875e-6,5.4296875e-6)"
   style="stroke-width:0.2821">
	<path
   id="SVGCleanerId_7_1_"
   style="fill:#b8d1e6;stroke-width:0.2821"
   d="m 305.034,283.011 v 7.391 c 0,8.307 17.628,15.058 39.434,15.058 21.75,0 39.401,-6.751 39.401,-15.058 v -7.391 z" />
</g>
<path
   style="fill:#b8d1e6;stroke-width:0.999999"
   d="m 1360.7533,1003.2281 c 0,29.4292 -62.5699,53.3782 -139.6701,53.3782 -77.3094,0 -139.7871,-23.949 -139.7871,-53.3782 0,-29.47533 62.4884,-53.29664 139.7871,-53.29664 77.1108,0 139.6701,23.82131 139.6701,53.29664 z"
   id="path166" />
<path
   style="fill:#f2f9ff;stroke-width:0.999999"
   d="m 1221.0938,1050.9948 c -80.2657,0 -134.1898,-24.7004 -134.1898,-47.7773 0,-23.04857 53.9241,-47.69583 134.1898,-47.69583 80.1949,0 134.0622,24.64726 134.0622,47.69583 0,22.616 -55.0655,47.7773 -134.0622,47.7773 z"
   id="path168" />
<path
   style="fill:#b8d1e6;stroke-width:0.999999"
   d="m 1213.7986,1032.9551 c -23.2967,-0.6983 -40.7019,-4.2113 -52.7047,-8.9649 l 14.9557,-7.8589 c 8.3126,3.559 21.4604,6.8167 37.7419,7.788 v -16.7883 c -23.2967,-2.2156 -47.7242,-5.4272 -47.7242,-16.62532 0,-8.81956 18.5218,-15.80998 47.7242,-16.76 v -7.94043 h 18.0503 v 8.03969 c 18.341,0.75151 33.7327,3.53775 45.4838,7.84118 l -14.9096,7.49733 c -8.6104,-3.2577 -19.4576,-5.22863 -30.5742,-6.12548 v 14.93795 c 23.5483,2.33958 49.1137,5.70718 49.1137,17.27758 0,8.8124 -15.1825,16.5508 -49.1137,17.6781 v 7.7596 h -18.0503 v -7.749 h 0.01 z m 0,-36.75287 v -13.56609 c -12.6693,0.58844 -20.592,3.28606 -20.592,7.09676 0,3.3676 8.5927,5.07976 20.592,6.46933 z m 18.0503,12.77917 v 15.0088 c 15.6646,-0.872 21.9602,-4.4027 21.9602,-7.7845 0,-3.8674 -9.4647,-5.7568 -21.9602,-7.2243 z"
   id="path170" />
<g
   id="g180"
   transform="matrix(3.5448378,0,0,3.5448378,5.4296875e-6,5.4296875e-6)"
   style="stroke-width:0.2821">
	<path
   style="fill:#f2f9ff;stroke-width:0.2821"
   d="m 307.459,285.658 v 9.946 c 0.745,0.781 1.672,1.526 2.732,2.235 v -9.308 c -1.217,-0.925 -2.144,-1.895 -2.732,-2.873 z"
   id="path172" />
	<path
   style="fill:#f2f9ff;stroke-width:0.2821"
   d="m 378.004,288.968 v 9.326 c 1.039,-0.637 1.969,-1.313 2.747,-2.015 v -9.705 c -0.693,0.812 -1.612,1.613 -2.747,2.394 z"
   id="path174" />
	<path
   style="fill:#f2f9ff;stroke-width:0.2821"
   d="m 312.325,289.958 v 9.165 c 0.85,0.456 1.761,0.893 2.752,1.306 v -9.065 c -1.001,-0.451 -1.917,-0.929 -2.752,-1.406 z"
   id="path176" />
	<path
   style="fill:#f2f9ff;stroke-width:0.2821"
   d="m 317.207,292.244 v 9.024 c 0.878,0.325 1.789,0.632 2.737,0.914 v -8.991 c -0.955,-0.299 -1.867,-0.614 -2.737,-0.947 z"
   id="path178" />
</g>
<path
   style="fill:#5d6d7e;stroke-width:0.999999"
   d="m 1329.6474,964.086 c -25.5902,-12.05245 -64.7394,-19.74829 -108.5536,-19.74829 -43.9418,0 -83.0697,7.69584 -108.6705,19.74829 h -31.1272 v 33.53062 c 0,29.45758 62.4884,53.37818 139.7871,53.37818 77.1002,0 139.6701,-23.9206 139.6701,-53.37818 V 964.086 Z"
   id="path182" />
<path
   id="SVGCleanerId_8"
   style="fill:#b8d1e6;stroke-width:0.999999"
   d="m 1081.2961,964.086 v 26.21762 c 0,29.45758 62.4884,53.37818 139.7871,53.37818 77.1002,0 139.6701,-23.9206 139.6701,-53.37818 V 964.086 Z" />
<g
   id="g186"
   transform="matrix(3.5448378,0,0,3.5448378,5.4296875e-6,5.4296875e-6)"
   style="stroke-width:0.2821">
	<path
   id="SVGCleanerId_8_1_"
   style="fill:#b8d1e6;stroke-width:0.2821"
   d="m 305.034,271.969 v 7.396 c 0,8.31 17.628,15.058 39.434,15.058 21.75,0 39.401,-6.748 39.401,-15.058 v -7.396 z" />
</g>
<path
   style="fill:#b8d1e6;stroke-width:0.999999"
   d="m 1360.7533,964.086 c 0,29.4576 -62.5699,53.3782 -139.6701,53.3782 -77.3094,0 -139.7871,-23.9206 -139.7871,-53.3782 0,-29.47532 62.4884,-53.29663 139.7871,-53.29663 77.1108,0 139.6701,23.82131 139.6701,53.29663 z"
   id="path188" />
<path
   style="fill:#f2f9ff;stroke-width:0.999999"
   d="m 1221.0938,1011.8669 c -80.2657,0 -134.1898,-24.70046 -134.1898,-47.77735 0,-23.02373 53.9241,-47.68871 134.1898,-47.68871 80.1949,0 134.0622,24.66498 134.0622,47.68871 0,22.60188 -55.0655,47.77735 -134.0622,47.77735 z"
   id="path190" />
<path
   style="fill:#b8d1e6;stroke-width:0.999999"
   d="m 1213.7986,993.81656 c -23.2967,-0.66289 -40.7019,-4.229 -52.7047,-8.95781 l 14.9557,-7.84118 c 8.3126,3.53775 21.4604,6.79545 37.7419,7.74902 v -16.76 c -23.2967,-2.21552 -47.7242,-5.42714 -47.7242,-16.62529 0,-8.79474 18.5218,-15.80997 47.7242,-16.75999 v -7.94044 h 18.0503 v 8.0397 c 18.341,0.77277 33.7327,3.53774 45.4838,7.86954 l -14.9096,7.49733 c -8.6104,-3.25771 -19.4576,-5.28181 -30.5742,-6.13612 v 14.93795 c 23.5483,2.31478 49.1137,5.7001 49.1137,17.25272 0,8.79475 -15.1825,16.57921 -49.1137,17.66748 v 7.79513 h -18.0503 v -7.7845 h 0.01 z m 0,-36.74579 v -13.5661 c -12.6693,0.61681 -20.592,3.31088 -20.592,7.06841 0,3.41368 8.5927,5.11875 20.592,6.49769 z m 18.0503,12.7685 v 15.00885 c 15.6646,-0.87203 21.9602,-4.40269 21.9602,-7.75965 0,-3.88869 -9.4647,-5.77809 -21.9602,-7.2492 z"
   id="path192" />
<g
   id="g202"
   transform="matrix(3.5448378,0,0,3.5448378,5.4296875e-6,5.4296875e-6)"
   style="stroke-width:0.2821">
	<path
   style="fill:#f2f9ff;stroke-width:0.2821"
   d="m 307.459,274.624 v 9.93 c 0.745,0.781 1.672,1.533 2.732,2.248 v -9.321 c -1.217,-0.924 -2.144,-1.879 -2.732,-2.857 z"
   id="path194" />
	<path
   style="fill:#f2f9ff;stroke-width:0.2821"
   d="m 378.004,277.932 v 9.329 c 1.039,-0.648 1.969,-1.321 2.747,-2.022 v -9.7 c -0.693,0.813 -1.612,1.614 -2.747,2.393 z"
   id="path196" />
	<path
   style="fill:#f2f9ff;stroke-width:0.2821"
   d="m 312.325,278.917 v 9.165 c 0.85,0.456 1.761,0.899 2.752,1.313 v -9.075 c -1.001,-0.448 -1.917,-0.919 -2.752,-1.403 z"
   id="path198" />
	<path
   style="fill:#f2f9ff;stroke-width:0.2821"
   d="m 317.207,281.206 v 9.032 c 0.878,0.323 1.789,0.625 2.737,0.911 v -8.991 c -0.955,-0.305 -1.867,-0.622 -2.737,-0.952 z"
   id="path200" />
</g>
<path
   style="fill:#5d6d7e;stroke-width:0.999999"
   d="m 1329.6474,924.95808 c -25.5902,-12.05954 -64.7394,-19.74829 -108.5536,-19.74829 -43.9418,0 -83.0697,7.69584 -108.6705,19.74829 h -31.1272 v 33.55898 c 0,29.42216 62.4884,53.34984 139.7871,53.34984 77.1002,0 139.6701,-23.93123 139.6701,-53.34984 v -33.55898 z"
   id="path204" />
<path
   id="SVGCleanerId_9"
   style="fill:#b8d1e6;stroke-width:0.999999"
   d="m 1081.2961,924.95808 v 26.21762 c 0,29.42925 62.4884,53.3782 139.7871,53.3782 77.1002,0 139.6701,-23.94895 139.6701,-53.3782 v -26.21762 z" />
<g
   id="g208"
   transform="matrix(3.5448378,0,0,3.5448378,5.4296875e-6,5.4296875e-6)"
   style="stroke-width:0.2821">
	<path
   id="SVGCleanerId_9_1_"
   style="fill:#b8d1e6;stroke-width:0.2821"
   d="m 305.034,260.931 v 7.396 c 0,8.302 17.628,15.058 39.434,15.058 21.75,0 39.401,-6.756 39.401,-15.058 v -7.396 z" />
</g>
<path
   style="fill:#b8d1e6;stroke-width:0.999999"
   d="m 1360.7533,924.95808 c 0,29.44697 -62.5699,53.40653 -139.6701,53.40653 -77.3094,0 -139.7871,-23.95602 -139.7871,-53.40653 0,-29.44697 62.4884,-53.286 139.7871,-53.286 77.1108,-0.004 139.6701,23.83549 139.6701,53.286 z"
   id="path210" />
<path
   style="fill:#f2f9ff;stroke-width:0.999999"
   d="m 1221.0938,972.75313 c -80.2657,0 -134.1898,-24.70043 -134.1898,-47.80568 0,-23.02372 53.9241,-47.70643 134.1898,-47.70643 80.1949,0 134.0622,24.68271 134.0622,47.70643 0,22.61606 -55.0655,47.80568 -134.0622,47.80568 z"
   id="path212" />
<path
   style="fill:#5d6d7e;stroke-width:0.999999"
   d="m 1213.7986,954.70282 c -23.2967,-0.69834 -40.7019,-4.23963 -52.7047,-8.98262 l 14.9557,-7.84118 c 8.3126,3.53774 21.4604,6.79545 37.7419,7.75965 v -16.75291 c -23.2967,-2.21552 -47.7242,-5.43423 -47.7242,-16.65365 0,-8.81246 18.5218,-15.79934 47.7242,-16.72454 v -7.95107 h 18.0503 v 8.0326 c 18.341,0.77987 33.7327,3.54838 45.4838,7.84118 l -14.9096,7.50442 c -8.6104,-3.26834 -19.4576,-5.25345 -30.5742,-6.10775 v 14.93794 c 23.5483,2.33251 49.1137,5.68947 49.1137,17.2421 0,8.81246 -15.1825,16.5792 -49.1137,17.69583 v 7.76674 h -18.0503 v -7.76674 z m 0,-36.77061 v -13.57673 c -12.6693,0.62744 -20.592,3.30379 -20.592,7.09677 0,3.37823 8.5927,5.09039 20.592,6.47996 z m 18.0503,12.77914 v 15.00885 c 15.6646,-0.87203 21.9602,-4.40269 21.9602,-7.74902 0,-3.87805 -9.4647,-5.79226 -21.9602,-7.25983 z"
   id="path214" />
<g
   id="g224"
   transform="matrix(3.5448378,0,0,3.5448378,5.4296875e-6,5.4296875e-6)"
   style="stroke-width:0.2821">
	<path
   style="fill:#f2f9ff;stroke-width:0.2821"
   d="m 307.459,263.578 v 9.946 c 0.745,0.781 1.672,1.531 2.732,2.24 v -9.313 c -1.217,-0.928 -2.144,-1.89 -2.732,-2.873 z"
   id="path216" />
	<path
   style="fill:#f2f9ff;stroke-width:0.2821"
   d="m 378.004,266.885 v 9.334 c 1.039,-0.64 1.969,-1.321 2.747,-2.015 v -9.7 c -0.693,0.809 -1.612,1.608 -2.747,2.381 z"
   id="path218" />
	<path
   style="fill:#f2f9ff;stroke-width:0.2821"
   d="m 312.325,267.884 v 9.157 c 0.85,0.466 1.761,0.901 2.752,1.324 v -9.083 c -1.001,-0.451 -1.917,-0.915 -2.752,-1.398 z"
   id="path220" />
	<path
   style="fill:#f2f9ff;stroke-width:0.2821"
   d="m 317.207,270.172 v 9.032 c 0.878,0.315 1.789,0.617 2.737,0.911 v -9.006 c -0.955,-0.292 -1.867,-0.607 -2.737,-0.937 z"
   id="path222" />
</g>
<path
   style="fill:#5d6d7e;stroke-width:0.999999"
   d="m 1016.2483,1277.1023 c -25.59019,-12.0525 -64.71102,-19.7483 -108.54294,-19.7483 -43.94181,0 -83.05201,7.6958 -108.67055,19.7483 h -31.09886 v 33.5306 c 0,29.4292 62.4884,53.4065 139.76941,53.4065 77.11794,0 139.65954,-23.9773 139.65954,-53.4065 v -33.5306 z"
   id="path226" />
<path
   id="SVGCleanerId_10"
   style="fill:#b8d1e6;stroke-width:0.999999"
   d="m 767.94304,1277.1023 v 26.2176 c 0,29.4292 62.4884,53.3782 139.76941,53.3782 77.11794,0 139.65955,-23.949 139.65955,-53.3782 v -26.2176 z" />
<g
   id="g230"
   transform="matrix(3.5448378,0,0,3.5448378,5.4296875e-6,5.4296875e-6)"
   style="stroke-width:0.2821">
	<path
   id="SVGCleanerId_10_1_"
   style="fill:#b8d1e6;stroke-width:0.2821"
   d="m 216.637,360.271 v 7.396 c 0,8.302 17.628,15.058 39.429,15.058 21.755,0 39.398,-6.756 39.398,-15.058 v -7.396 z" />
</g>
<path
   style="fill:#b8d1e6;stroke-width:0.999999"
   d="m 1047.3649,1277.1023 c 0,29.4469 -62.54514,53.3781 -139.65954,53.3781 -77.28101,0 -139.76941,-23.9312 -139.76941,-53.3781 0,-29.4754 62.4884,-53.3038 139.76941,-53.3038 77.11794,0 139.65954,23.8284 139.65954,53.3038 z"
   id="path232" />
<path
   style="fill:#f2f9ff;stroke-width:0.999999"
   d="m 907.70536,1324.9079 c -80.26577,0 -134.1792,-24.7004 -134.1792,-47.8056 0,-23.006 53.91343,-47.7065 134.1792,-47.7065 80.21259,0 134.05154,24.7005 134.05154,47.7065 0.011,22.616 -55.03711,47.8056 -134.05154,47.8056 z"
   id="path234" />
<path
   style="fill:#b8d1e6;stroke-width:0.999999"
   d="m 900.43489,1306.8612 c -23.32148,-0.6984 -40.74436,-4.2396 -52.71528,-8.9826 l 14.93795,-7.8412 c 8.34809,3.5377 21.47108,6.7954 37.77733,7.7596 v -16.7529 c -23.32148,-2.2403 -47.75251,-5.4555 -47.75251,-16.6784 0,-8.7664 18.55014,-15.7639 47.75251,-16.7352 v -7.9227 h 18.05032 v 7.9936 c 18.34099,0.7976 33.70432,3.5661 45.48381,7.8943 l -14.92022,7.4867 c -8.61041,-3.2754 -19.4647,-5.2711 -30.56359,-6.1538 v 14.9628 c 23.52354,2.3147 49.08537,5.6717 49.08537,17.2527 0,8.8124 -15.13646,16.5508 -49.08537,17.6958 v 7.749 h -18.05032 z m 0,-36.799 v -13.5413 c -12.67634,0.6168 -20.60968,3.2861 -20.60968,7.0862 0.004,3.3676 8.61395,5.0833 20.60968,6.4551 z m 18.05032,12.7933 v 15.0089 c 15.63628,-0.8969 21.95318,-4.4027 21.95318,-7.7668 0,-3.8816 -9.48244,-5.771 -21.95318,-7.2421 z"
   id="path236" />
<g
   id="g246"
   transform="matrix(3.5448378,0,0,3.5448378,5.4296875e-6,5.4296875e-6)"
   style="stroke-width:0.2821">
	<path
   style="fill:#f2f9ff;stroke-width:0.2821"
   d="m 219.049,362.921 v 9.946 c 0.748,0.781 1.679,1.526 2.742,2.24 v -9.321 c -1.214,-0.922 -2.14,-1.885 -2.742,-2.865 z"
   id="path238" />
	<path
   style="fill:#f2f9ff;stroke-width:0.2821"
   d="m 289.597,366.228 v 9.329 c 1.047,-0.64 1.969,-1.313 2.747,-2.015 v -9.7 c -0.693,0.804 -1.615,1.606 -2.747,2.386 z"
   id="path240" />
	<path
   style="fill:#f2f9ff;stroke-width:0.2821"
   d="m 223.926,367.224 v 9.152 c 0.85,0.463 1.766,0.906 2.747,1.321 v -9.075 c -1.001,-0.45 -1.91,-0.919 -2.747,-1.398 z"
   id="path242" />
	<path
   style="fill:#f2f9ff;stroke-width:0.2821"
   d="m 228.808,369.516 v 9.024 c 0.878,0.315 1.792,0.625 2.742,0.911 v -8.998 c -0.966,-0.292 -1.88,-0.615 -2.742,-0.937 z"
   id="path244" />
</g>
<path
   style="fill:#5d6d7e;stroke-width:0.999999"
   d="m 1016.2483,1237.9992 c -25.59019,-12.0525 -64.71102,-19.7731 -108.54294,-19.7731 -43.94181,0 -83.05201,7.7242 -108.67055,19.7731 h -31.09886 v 33.5058 c 0,29.4469 62.4884,53.3781 139.76941,53.3781 77.11794,0 139.65954,-23.9312 139.65954,-53.3781 v -33.5058 z"
   id="path248" />
<path
   id="SVGCleanerId_11"
   style="fill:#b8d1e6;stroke-width:0.999999"
   d="m 767.94304,1237.9992 v 26.1892 c 0,29.4293 62.4884,53.3498 139.76941,53.3498 77.11794,0 139.65955,-23.9205 139.65955,-53.3498 v -26.1892 z" />
<g
   id="g252"
   transform="matrix(3.5448378,0,0,3.5448378,5.4296875e-6,5.4296875e-6)"
   style="stroke-width:0.2821">
	<path
   id="SVGCleanerId_11_1_"
   style="fill:#b8d1e6;stroke-width:0.2821"
   d="m 216.637,349.24 v 7.388 c 0,8.302 17.628,15.05 39.429,15.05 21.755,0 39.398,-6.748 39.398,-15.05 v -7.388 z" />
</g>
<path
   style="fill:#b8d1e6;stroke-width:0.999999"
   d="m 1047.3649,1237.9992 c 0,29.4469 -62.54514,53.3781 -139.65954,53.3781 -77.28101,0 -139.76941,-23.9312 -139.76941,-53.3781 0,-29.4825 62.4884,-53.3038 139.76941,-53.3038 77.11794,0 139.65954,23.8213 139.65954,53.3038 z"
   id="path254" />
<path
   style="fill:#f2f9ff;stroke-width:0.999999"
   d="m 907.70536,1285.78 c -80.26577,0 -134.1792,-24.7288 -134.1792,-47.7773 0,-23.0592 53.91343,-47.7064 134.1792,-47.7064 80.21259,0 134.05154,24.6472 134.05154,47.7064 0.011,22.5948 -55.03711,47.7773 -134.05154,47.7773 z"
   id="path256" />
<path
   style="fill:#b8d1e6;stroke-width:0.999999"
   d="m 900.43489,1267.7191 c -23.32148,-0.6984 -40.74436,-4.2361 -52.71528,-8.9578 l 14.93795,-7.8696 c 8.34809,3.5661 21.47108,6.8238 37.77733,7.7845 v -16.7777 c -23.32148,-2.2155 -47.75251,-5.4343 -47.75251,-16.6608 0,-8.7841 18.55014,-15.8099 47.75251,-16.7351 v -7.9582 h 18.05032 v 8.0397 c 18.34099,0.7728 33.70432,3.5377 45.48381,7.8695 l -14.92022,7.4867 c -8.61041,-3.2577 -19.4647,-5.2534 -30.56359,-6.1254 v 14.9379 c 23.52354,2.3396 49.08537,5.7001 49.08537,17.2527 0,8.8125 -15.13646,16.5721 -49.08537,17.6959 v 7.7596 h -18.05032 z m 0,-36.76 v -13.5484 c -12.67634,0.5991 -20.60968,3.2861 -20.60968,7.0968 0.004,3.357 8.61395,5.0727 20.60968,6.4516 z m 18.05032,12.7933 v 15.0089 c 15.63628,-0.9075 21.95318,-4.4098 21.95318,-7.7951 0,-3.8533 -9.48244,-5.7498 -21.95318,-7.2138 z"
   id="path258" />
<g
   id="g268"
   transform="matrix(3.5448378,0,0,3.5448378,5.4296875e-6,5.4296875e-6)"
   style="stroke-width:0.2821">
	<path
   style="fill:#f2f9ff;stroke-width:0.2821"
   d="m 219.049,351.887 v 9.938 c 0.748,0.786 1.679,1.523 2.742,2.24 v -9.313 c -1.214,-0.927 -2.14,-1.889 -2.742,-2.865 z"
   id="path260" />
	<path
   style="fill:#f2f9ff;stroke-width:0.2821"
   d="m 289.597,355.187 v 9.334 c 1.047,-0.64 1.969,-1.316 2.747,-2.022 v -9.7 c -0.693,0.816 -1.615,1.615 -2.747,2.388 z"
   id="path262" />
	<path
   style="fill:#f2f9ff;stroke-width:0.2821"
   d="m 223.926,356.178 v 9.165 c 0.85,0.458 1.766,0.901 2.747,1.316 v -9.075 c -1.001,-0.451 -1.91,-0.922 -2.747,-1.406 z"
   id="path264" />
	<path
   style="fill:#f2f9ff;stroke-width:0.2821"
   d="m 228.808,358.474 v 9.024 c 0.878,0.323 1.792,0.632 2.742,0.911 v -8.991 c -0.966,-0.306 -1.88,-0.614 -2.742,-0.944 z"
   id="path266" />
</g>
<path
   style="fill:#5d6d7e;stroke-width:0.999999"
   d="m 1016.2483,1198.85 c -25.59019,-12.0702 -64.71102,-19.7377 -108.54294,-19.7377 -43.94181,0 -83.05201,7.6675 -108.67055,19.7377 h -31.09886 v 33.5412 c 0,29.447 62.4884,53.3782 139.76941,53.3782 77.11794,0 139.65954,-23.9312 139.65954,-53.3782 V 1198.85 Z"
   id="path270" />
<path
   id="SVGCleanerId_12"
   style="fill:#b8d1e6;stroke-width:0.999999"
   d="m 767.94304,1198.85 v 26.1999 c 0,29.4469 62.4884,53.3781 139.76941,53.3781 77.11794,0 139.65955,-23.9312 139.65955,-53.3781 V 1198.85 Z" />
<g
   id="g274"
   transform="matrix(3.5448378,0,0,3.5448378,5.4296875e-6,5.4296875e-6)"
   style="stroke-width:0.2821">
	<path
   id="SVGCleanerId_12_1_"
   style="fill:#b8d1e6;stroke-width:0.2821"
   d="m 216.637,338.196 v 7.391 c 0,8.307 17.628,15.058 39.429,15.058 21.755,0 39.398,-6.751 39.398,-15.058 v -7.391 z" />
</g>
<path
   style="fill:#b8d1e6;stroke-width:0.999999"
   d="m 1047.3649,1198.85 c 0,29.4576 -62.54514,53.3852 -139.65954,53.3852 -77.28101,0 -139.76941,-23.9312 -139.76941,-53.3852 0,-29.5037 62.4884,-53.2967 139.76941,-53.2967 77.11794,0 139.65954,23.7965 139.65954,53.2967 z"
   id="path276" />
<path
   style="fill:#f2f9ff;stroke-width:0.999999"
   d="m 907.70536,1246.6592 c -80.26577,0 -134.1792,-24.7182 -134.1792,-47.8057 0,-23.0237 53.91343,-47.6958 134.1792,-47.6958 80.21259,0 134.05154,24.6756 134.05154,47.6958 0.011,22.6125 -55.03711,47.8057 -134.05154,47.8057 z"
   id="path278" />
<path
   style="fill:#b8d1e6;stroke-width:0.999999"
   d="m 900.43489,1228.5912 c -23.32148,-0.6984 -40.74436,-4.2113 -52.71528,-8.9649 l 14.93795,-7.8589 c 8.34809,3.5377 21.47108,6.8167 37.77733,7.7596 v -16.7529 c -23.32148,-2.2155 -47.75251,-5.4342 -47.75251,-16.6324 0,-8.7947 18.55014,-15.81 47.75251,-16.7883 v -7.9121 h 18.05032 v 8.0503 c 18.34099,0.7728 33.70432,3.5307 45.48381,7.8589 l -14.92022,7.4974 c -8.61041,-3.2861 -19.4647,-5.2818 -30.56359,-6.1255 v 14.9379 c 23.52354,2.2971 49.08537,5.6824 49.08537,17.2244 0,8.8196 -15.13646,16.6076 -49.08537,17.7065 v 7.7844 h -18.05032 z m 0,-36.7529 v -13.5945 c -12.67634,0.6452 -20.60968,3.3109 -20.60968,7.0968 0.004,3.3853 8.61395,5.1081 20.60968,6.4977 z m 18.05032,12.7685 v 15.0088 c 15.63628,-0.872 21.95318,-4.4027 21.95318,-7.7596 0,-3.8852 -9.48244,-5.8065 -21.95318,-7.2492 z"
   id="path280" />
<g
   id="g290"
   transform="matrix(3.5448378,0,0,3.5448378,5.4296875e-6,5.4296875e-6)"
   style="stroke-width:0.2821">
	<path
   style="fill:#f2f9ff;stroke-width:0.2821"
   d="m 219.049,340.854 v 9.933 c 0.748,0.781 1.679,1.531 2.742,2.248 v -9.313 c -1.214,-0.938 -2.14,-1.901 -2.742,-2.868 z"
   id="path282" />
	<path
   style="fill:#f2f9ff;stroke-width:0.2821"
   d="m 289.597,344.156 v 9.334 c 1.047,-0.645 1.969,-1.321 2.747,-2.022 v -9.697 c -0.693,0.808 -1.615,1.612 -2.747,2.385 z"
   id="path284" />
	<path
   style="fill:#f2f9ff;stroke-width:0.2821"
   d="m 223.926,345.144 v 9.165 c 0.85,0.458 1.766,0.893 2.747,1.313 v -9.08 c -1.001,-0.45 -1.91,-0.911 -2.747,-1.398 z"
   id="path286" />
	<path
   style="fill:#f2f9ff;stroke-width:0.2821"
   d="m 228.808,347.435 v 9.029 c 0.878,0.317 1.792,0.62 2.742,0.914 v -8.998 c -0.966,-0.299 -1.88,-0.614 -2.742,-0.945 z"
   id="path288" />
</g>
<path
   style="fill:#5d6d7e;stroke-width:0.999999"
   d="m 1016.2483,1159.722 c -25.59019,-12.0418 -64.71102,-19.7376 -108.54294,-19.7376 -43.94181,0 -83.05201,7.6958 -108.67055,19.7376 h -31.09886 v 33.559 c 0,29.4293 62.4884,53.3782 139.76941,53.3782 77.11794,0 139.65954,-23.9489 139.65954,-53.3782 v -33.559 z"
   id="path292" />
<path
   id="SVGCleanerId_13"
   style="fill:#b8d1e6;stroke-width:0.999999"
   d="m 767.94304,1159.722 v 26.2177 c 0,29.4292 62.4884,53.3852 139.76941,53.3852 77.11794,0 139.65955,-23.956 139.65955,-53.3852 v -26.2177 z" />
<g
   id="g296"
   transform="matrix(3.5448378,0,0,3.5448378,5.4296875e-6,5.4296875e-6)"
   style="stroke-width:0.2821">
	<path
   id="SVGCleanerId_13_1_"
   style="fill:#b8d1e6;stroke-width:0.2821"
   d="m 216.637,327.158 v 7.396 c 0,8.302 17.628,15.06 39.429,15.06 21.755,0 39.398,-6.758 39.398,-15.06 v -7.396 z" />
</g>
<path
   style="fill:#b8d1e6;stroke-width:0.999999"
   d="m 1047.3649,1159.722 c 0,29.4577 -62.54514,53.4066 -139.65954,53.4066 -77.28101,0 -139.76941,-23.9489 -139.76941,-53.4066 0,-29.4753 62.4884,-53.2682 139.76941,-53.2682 77.11794,0 139.65954,23.7929 139.65954,53.2682 z"
   id="path298" />
<path
   style="fill:#f2f9ff;stroke-width:0.999999"
   d="m 907.70536,1207.5171 c -80.26577,0 -134.1792,-24.7004 -134.1792,-47.8057 0,-22.9953 53.91343,-47.6958 134.1792,-47.6958 80.21259,0 134.05154,24.7005 134.05154,47.6958 0.011,22.6161 -55.03711,47.8057 -134.05154,47.8057 z"
   id="path300" />
<path
   style="fill:#b8d1e6;stroke-width:0.999999"
   d="m 900.43489,1189.4668 c -23.32148,-0.6913 -40.74436,-4.229 -52.71528,-8.9826 l 14.93795,-7.8412 c 8.34809,3.5377 21.47108,6.7954 37.77733,7.7667 v -16.76 c -23.32148,-2.2403 -47.75251,-5.4555 -47.75251,-16.6536 0,-8.7948 18.55014,-15.7816 47.75251,-16.76 v -7.9121 h 18.05032 v 8.0113 c 18.34099,0.7728 33.70432,3.5662 45.48381,7.8696 l -14.92022,7.4973 c -8.61041,-3.286 -19.4647,-5.2534 -30.56359,-6.1538 v 14.9379 c 23.52354,2.3396 49.08537,5.7072 49.08537,17.2776 0,8.8124 -15.13646,16.5508 -49.08537,17.6958 v 7.749 h -18.05032 z m 0,-36.7706 v -13.5661 c -12.67634,0.6168 -20.60968,3.2861 -20.60968,7.0968 0.004,3.3675 8.61395,5.0832 20.60968,6.4693 z m 18.05032,12.7791 v 15.0089 c 15.63628,-0.8721 21.95318,-4.4027 21.95318,-7.742 0,-3.8993 -9.48244,-5.7993 -21.95318,-7.2669 z"
   id="path302" />
<g
   id="g312"
   transform="matrix(3.5448378,0,0,3.5448378,5.4296875e-6,5.4296875e-6)"
   style="stroke-width:0.2821">
	<path
   style="fill:#f2f9ff;stroke-width:0.2821"
   d="m 219.049,329.805 v 9.946 c 0.748,0.781 1.679,1.533 2.742,2.24 v -9.313 c -1.214,-0.925 -2.14,-1.888 -2.742,-2.873 z"
   id="path304" />
	<path
   style="fill:#f2f9ff;stroke-width:0.2821"
   d="m 289.597,333.115 v 9.326 c 1.047,-0.637 1.969,-1.313 2.747,-2.007 v -9.7 c -0.693,0.799 -1.615,1.6 -2.747,2.381 z"
   id="path306" />
	<path
   style="fill:#f2f9ff;stroke-width:0.2821"
   d="m 223.926,334.111 v 9.16 c 0.85,0.463 1.766,0.899 2.747,1.313 v -9.073 c -1.001,-0.451 -1.91,-0.922 -2.747,-1.4 z"
   id="path308" />
	<path
   style="fill:#f2f9ff;stroke-width:0.2821"
   d="m 228.808,336.399 v 9.032 c 0.878,0.31 1.792,0.617 2.742,0.906 v -8.996 c -0.966,-0.294 -1.88,-0.611 -2.742,-0.942 z"
   id="path310" />
</g>
<path
   style="fill:#5d6d7e;stroke-width:0.999999"
   d="m 1016.2483,1120.6083 c -25.59019,-12.0524 -64.71102,-19.7731 -108.54294,-19.7731 -43.94181,0 -83.05201,7.7242 -108.67055,19.7731 h -31.09886 v 33.5058 c 0,29.4576 62.4884,53.3782 139.76941,53.3782 77.11794,0 139.65954,-23.9206 139.65954,-53.3782 v -33.5058 z"
   id="path314" />
<path
   id="SVGCleanerId_14"
   style="fill:#b8d1e6;stroke-width:0.999999"
   d="m 767.94304,1120.6083 v 26.1893 c 0,29.4576 62.4884,53.3781 139.76941,53.3781 77.11794,0 139.65955,-23.9205 139.65955,-53.3781 v -26.1893 z" />
<g
   id="g318"
   transform="matrix(3.5448378,0,0,3.5448378,5.4296875e-6,5.4296875e-6)"
   style="stroke-width:0.2821">
	<path
   id="SVGCleanerId_14_1_"
   style="fill:#b8d1e6;stroke-width:0.2821"
   d="m 216.637,316.124 v 7.388 c 0,8.31 17.628,15.058 39.429,15.058 21.755,0 39.398,-6.748 39.398,-15.058 v -7.388 z" />
</g>
<path
   style="fill:#b8d1e6;stroke-width:0.999999"
   d="m 1047.3649,1120.6083 c 0,29.4293 -62.54514,53.3782 -139.65954,53.3782 -77.28101,0 -139.76941,-23.9489 -139.76941,-53.3782 0,-29.4753 62.4884,-53.3037 139.76941,-53.3037 77.11794,0 139.65954,23.8284 139.65954,53.3037 z"
   id="path320" />
<path
   style="fill:#f2f9ff;stroke-width:0.999999"
   d="m 907.70536,1168.3892 c -80.26577,0 -134.1792,-24.7288 -134.1792,-47.7773 0,-23.0486 53.91343,-47.7065 134.1792,-47.7065 80.21259,0 134.05154,24.6579 134.05154,47.7065 0.011,22.6125 -55.03711,47.7773 -134.05154,47.7773 z"
   id="path322" />
<path
   style="fill:#b8d1e6;stroke-width:0.999999"
   d="m 900.43489,1150.3389 c -23.32148,-0.6913 -40.74436,-4.229 -52.71528,-8.9578 l 14.93795,-7.8696 c 8.34809,3.5661 21.47108,6.8238 37.77733,7.7845 v -16.7777 c -23.32148,-2.2156 -47.75251,-5.4272 -47.75251,-16.6537 0,-8.7947 18.55014,-15.7816 47.75251,-16.7352 v -7.9404 h 18.05032 v 8.0113 c 18.34099,0.7728 33.70432,3.5378 45.48381,7.8696 l -14.92022,7.4973 c -8.61041,-3.2577 -19.4647,-5.2534 -30.56359,-6.1361 v 14.9379 c 23.52354,2.3396 49.08537,5.7001 49.08537,17.2776 0,8.7841 -15.13646,16.5508 -49.08537,17.6675 v 7.7667 h -18.05032 z m 0,-36.7706 v -13.5413 c -12.67634,0.5884 -20.60968,3.286 -20.60968,7.0861 0.004,3.3676 8.61395,5.0833 20.60968,6.4552 z m 18.05032,12.7933 v 15.0088 c 15.63628,-0.8968 21.95318,-4.4027 21.95318,-7.788 0,-3.8639 -9.48244,-5.7497 -21.95318,-7.2208 z"
   id="path324" />
<g
   id="g334"
   transform="matrix(3.5448378,0,0,3.5448378,5.4296875e-6,5.4296875e-6)"
   style="stroke-width:0.2821">
	<path
   style="fill:#f2f9ff;stroke-width:0.2821"
   d="m 219.049,318.774 v 9.938 c 0.748,0.788 1.679,1.526 2.742,2.24 v -9.313 c -1.214,-0.93 -2.14,-1.89 -2.742,-2.865 z"
   id="path326" />
	<path
   style="fill:#f2f9ff;stroke-width:0.2821"
   d="m 289.597,322.081 v 9.329 c 1.047,-0.64 1.969,-1.313 2.747,-2.022 v -9.7 c -0.693,0.811 -1.615,1.612 -2.747,2.393 z"
   id="path328" />
	<path
   style="fill:#f2f9ff;stroke-width:0.2821"
   d="m 223.926,323.069 v 9.16 c 0.85,0.456 1.766,0.899 2.747,1.313 v -9.068 c -1.001,-0.45 -1.91,-0.926 -2.747,-1.405 z"
   id="path330" />
	<path
   style="fill:#f2f9ff;stroke-width:0.2821"
   d="m 228.808,325.361 v 9.024 c 0.878,0.323 1.792,0.632 2.742,0.911 v -8.991 c -0.966,-0.304 -1.88,-0.622 -2.742,-0.944 z"
   id="path332" />
</g>
<path
   style="fill:#5d6d7e;stroke-width:0.999999"
   d="m 1016.2483,1081.4768 c -25.59019,-12.0772 -64.71102,-19.7482 -108.54294,-19.7482 -43.94181,0 -83.05201,7.6674 -108.67055,19.7482 h -31.09886 v 33.5307 c 0,29.4469 62.4884,53.3781 139.76941,53.3781 77.11794,0 139.65954,-23.9312 139.65954,-53.3781 v -33.5307 z"
   id="path336" />
<path
   id="SVGCleanerId_15"
   style="fill:#b8d1e6;stroke-width:0.999999"
   d="m 767.94304,1081.4768 v 26.2177 c 0,29.4292 62.4884,53.3498 139.76941,53.3498 77.11794,0 139.65955,-23.9206 139.65955,-53.3498 v -26.2177 z" />
<g
   id="g340"
   transform="matrix(3.5448378,0,0,3.5448378,5.4296875e-6,5.4296875e-6)"
   style="stroke-width:0.2821">
	<path
   id="SVGCleanerId_15_1_"
   style="fill:#b8d1e6;stroke-width:0.2821"
   d="m 216.637,305.085 v 7.396 c 0,8.302 17.628,15.05 39.429,15.05 21.755,0 39.398,-6.748 39.398,-15.05 v -7.396 z" />
</g>
<path
   style="fill:#b8d1e6;stroke-width:0.999999"
   d="m 1047.3649,1081.4768 c 0,29.447 -62.54514,53.3782 -139.65954,53.3782 -77.28101,0 -139.76941,-23.9312 -139.76941,-53.3782 0,-29.4576 62.4884,-53.3037 139.76941,-53.3037 77.11794,0 139.65954,23.8497 139.65954,53.3037 z"
   id="path342" />
<path
   style="fill:#f2f9ff;stroke-width:0.999999"
   d="m 907.70536,1129.2754 c -80.26577,0 -134.1792,-24.7288 -134.1792,-47.8056 0,-23.0309 53.91343,-47.7065 134.1792,-47.7065 80.21259,0 134.05154,24.6756 134.05154,47.7065 0.011,22.6125 -55.03711,47.8056 -134.05154,47.8056 z"
   id="path344" />
<path
   style="fill:#5d6d7e;stroke-width:0.999999"
   d="m 900.43489,1111.1968 c -23.32148,-0.67 -40.74436,-4.2113 -52.71528,-8.9578 l 14.93795,-7.8412 c 8.34809,3.5377 21.47108,6.7954 37.77733,7.749 v -16.76 c -23.32148,-2.2155 -47.75251,-5.4342 -47.75251,-16.6324 0,-8.7841 18.55014,-15.81 47.75251,-16.7352 v -7.9581 h 18.05032 v 8.0397 c 18.34099,0.7727 33.70432,3.5377 45.48381,7.8695 l -14.92022,7.4867 c -8.61041,-3.2577 -19.4647,-5.2712 -30.56359,-6.1255 v 14.938 c 23.52354,2.3148 49.08537,5.7001 49.08537,17.2243 0,8.8125 -15.13646,16.597 -49.08537,17.6959 v 7.7844 h -18.05032 z m 0,-36.7423 v -13.5661 c -12.67634,0.6168 -20.60968,3.3038 -20.60968,7.0613 0.004,3.4208 8.61395,5.1082 20.60968,6.5048 z m 18.05032,12.7756 v 15.0089 c 15.63628,-0.8792 21.95318,-4.4027 21.95318,-7.7668 0,-3.8816 -9.48244,-5.7781 -21.95318,-7.2421 z"
   id="path346" />
<g
   id="g356"
   transform="matrix(3.5448378,0,0,3.5448378,5.4296875e-6,5.4296875e-6)"
   style="stroke-width:0.2821">
	<path
   style="fill:#f2f9ff;stroke-width:0.2821"
   d="m 219.049,307.74 v 9.93 c 0.748,0.781 1.679,1.531 2.742,2.248 v -9.321 c -1.214,-0.927 -2.14,-1.889 -2.742,-2.857 z"
   id="path348" />
	<path
   style="fill:#f2f9ff;stroke-width:0.2821"
   d="m 289.597,311.04 v 9.334 c 1.047,-0.648 1.969,-1.324 2.747,-2.022 v -9.7 c -0.693,0.816 -1.615,1.615 -2.747,2.388 z"
   id="path350" />
	<path
   style="fill:#f2f9ff;stroke-width:0.2821"
   d="m 223.926,312.031 v 9.165 c 0.85,0.458 1.766,0.893 2.747,1.316 v -9.083 c -1.001,-0.451 -1.91,-0.914 -2.747,-1.398 z"
   id="path352" />
	<path
   style="fill:#f2f9ff;stroke-width:0.2821"
   d="m 228.808,314.319 v 9.032 c 0.878,0.323 1.792,0.625 2.742,0.911 v -8.991 c -0.966,-0.307 -1.88,-0.621 -2.742,-0.952 z"
   id="path354" />
</g>
<path
   style="fill:#5d6d7e;stroke-width:0.999999"
   d="m 702.88817,1277.1023 c -25.61854,-12.0525 -64.71102,-19.7483 -108.54293,-19.7483 -43.92054,0 -83.08036,7.6958 -108.67055,19.7483 h -31.12722 v 33.5306 c 0,29.4292 62.4884,53.4065 139.78713,53.4065 77.10731,0 139.67015,-23.9773 139.67015,-53.4065 v -33.5306 z"
   id="path358" />
<path
   id="SVGCleanerId_16"
   style="fill:#b8d1e6;stroke-width:0.999999"
   d="m 454.54747,1277.1023 v 26.2176 c 0,29.4292 62.4884,53.3782 139.78713,53.3782 77.10731,0 139.67015,-23.949 139.67015,-53.3782 v -26.2176 z" />
<g
   id="g362"
   transform="matrix(3.5448378,0,0,3.5448378,5.4296875e-6,5.4296875e-6)"
   style="stroke-width:0.2821">
	<path
   id="SVGCleanerId_16_1_"
   style="fill:#b8d1e6;stroke-width:0.2821"
   d="m 128.228,360.271 v 7.396 c 0,8.302 17.628,15.058 39.434,15.058 21.752,0 39.401,-6.756 39.401,-15.058 v -7.396 z" />
</g>
<path
   style="fill:#b8d1e6;stroke-width:0.999999"
   d="m 734.00475,1277.1023 c 0,29.4469 -62.56284,53.3781 -139.67015,53.3781 -77.29873,0 -139.78713,-23.9312 -139.78713,-53.3781 0,-29.4754 62.4884,-53.3038 139.78713,-53.3038 77.10731,0 139.67015,23.8284 139.67015,53.3038 z"
   id="path364" />
<path
   style="fill:#f2f9ff;stroke-width:0.999999"
   d="m 594.34524,1324.9079 c -80.26576,0 -134.18984,-24.7004 -134.18984,-47.8056 0,-23.006 53.92408,-47.7065 134.18984,-47.7065 80.19486,0 134.06222,24.7005 134.06222,47.7065 0,22.616 -55.06906,47.8056 -134.06222,47.8056 z"
   id="path366" />
<path
   style="fill:#b8d1e6;stroke-width:0.999999"
   d="m 587.04641,1306.8612 c -23.28604,-0.6984 -40.70182,-4.2396 -52.71527,-8.9826 l 14.94503,-7.8412 c 8.341,3.5377 21.4888,6.7954 37.77024,7.7596 v -16.7529 c -23.28604,-2.2403 -47.72414,-5.4555 -47.72414,-16.6784 0,-8.7664 18.5324,-15.7639 47.72414,-16.7352 v -7.9227 h 18.07868 v 7.9936 c 18.31263,0.7976 33.7114,3.5661 45.48381,7.8943 l -14.93795,7.4867 c -8.61041,-3.2754 -19.44698,-5.2711 -30.54586,-6.1538 v 14.9628 c 23.53063,2.3147 49.096,5.6717 49.096,17.2527 0,8.8124 -15.16482,16.5508 -49.096,17.6958 v 7.749 h -18.07868 z m 0,-36.799 v -13.5413 c -12.67634,0.6168 -20.59196,3.2861 -20.59196,7.0862 0.004,3.3676 8.62459,5.0833 20.59196,6.4551 z m 18.07868,12.7933 v 15.0089 c 15.63628,-0.8969 21.93545,-4.4027 21.93545,-7.7668 -0.003,-3.8816 -9.46826,-5.771 -21.93545,-7.2421 z"
   id="path368" />
<g
   id="g378"
   transform="matrix(3.5448378,0,0,3.5448378,5.4296875e-6,5.4296875e-6)"
   style="stroke-width:0.2821">
	<path
   style="fill:#f2f9ff;stroke-width:0.2821"
   d="m 130.652,362.921 v 9.946 c 0.748,0.781 1.672,1.526 2.732,2.24 v -9.321 c -1.209,-0.922 -2.14,-1.885 -2.732,-2.865 z"
   id="path370" />
	<path
   style="fill:#f2f9ff;stroke-width:0.2821"
   d="m 201.201,366.228 v 9.329 c 1.042,-0.64 1.966,-1.313 2.742,-2.015 v -9.7 c -0.692,0.804 -1.613,1.606 -2.742,2.386 z"
   id="path372" />
	<path
   style="fill:#f2f9ff;stroke-width:0.2821"
   d="m 135.526,367.224 v 9.152 c 0.85,0.463 1.761,0.906 2.739,1.321 v -9.075 c -0.993,-0.45 -1.909,-0.919 -2.739,-1.398 z"
   id="path374" />
	<path
   style="fill:#f2f9ff;stroke-width:0.2821"
   d="m 140.401,369.516 v 9.024 c 0.878,0.315 1.792,0.625 2.742,0.911 v -8.998 c -0.958,-0.292 -1.872,-0.615 -2.742,-0.937 z"
   id="path376" />
</g>
<path
   style="fill:#5d6d7e;stroke-width:0.999999"
   d="m 702.88817,1237.9992 c -25.61854,-12.0525 -64.71102,-19.7731 -108.54293,-19.7731 -43.92054,0 -83.08036,7.7242 -108.67055,19.7731 h -31.12722 v 33.5058 c 0,29.4469 62.4884,53.3781 139.78713,53.3781 77.10731,0 139.67015,-23.9312 139.67015,-53.3781 v -33.5058 z"
   id="path380" />
<path
   id="SVGCleanerId_17"
   style="fill:#b8d1e6;stroke-width:0.999999"
   d="m 454.54747,1237.9992 v 26.1892 c 0,29.4293 62.4884,53.3498 139.78713,53.3498 77.10731,0 139.67015,-23.9205 139.67015,-53.3498 v -26.1892 z" />
<g
   id="g384"
   transform="matrix(3.5448378,0,0,3.5448378,5.4296875e-6,5.4296875e-6)"
   style="stroke-width:0.2821">
	<path
   id="SVGCleanerId_17_1_"
   style="fill:#b8d1e6;stroke-width:0.2821"
   d="m 128.228,349.24 v 7.388 c 0,8.302 17.628,15.05 39.434,15.05 21.752,0 39.401,-6.748 39.401,-15.05 v -7.388 z" />
</g>
<path
   style="fill:#b8d1e6;stroke-width:0.999999"
   d="m 734.00475,1237.9992 c 0,29.4469 -62.56284,53.3781 -139.67015,53.3781 -77.29873,0 -139.78713,-23.9312 -139.78713,-53.3781 0,-29.4825 62.4884,-53.3038 139.78713,-53.3038 77.10731,0 139.67015,23.8213 139.67015,53.3038 z"
   id="path386" />
<path
   style="fill:#f2f9ff;stroke-width:0.999999"
   d="m 594.34524,1285.78 c -80.26576,0 -134.18984,-24.7288 -134.18984,-47.7773 0,-23.0592 53.92408,-47.7064 134.18984,-47.7064 80.19486,0 134.06222,24.6472 134.06222,47.7064 0,22.5948 -55.06906,47.7773 -134.06222,47.7773 z"
   id="path388" />
<path
   style="fill:#5d6d7e;stroke-width:0.999999"
   d="m 587.04641,1267.7191 c -23.28604,-0.6984 -40.70182,-4.2361 -52.71527,-8.9578 l 14.94503,-7.8696 c 8.341,3.5661 21.4888,6.8238 37.77024,7.7845 v -16.7777 c -23.28604,-2.2155 -47.72414,-5.4343 -47.72414,-16.6608 0,-8.7841 18.5324,-15.8099 47.72414,-16.7351 v -7.9582 h 18.07868 v 8.0397 c 18.31263,0.7728 33.7114,3.5377 45.48381,7.8695 l -14.93795,7.4867 c -8.61041,-3.2577 -19.44698,-5.2534 -30.54586,-6.1254 v 14.9379 c 23.53063,2.3396 49.096,5.7001 49.096,17.2527 0,8.8125 -15.16482,16.5721 -49.096,17.6959 v 7.7596 h -18.07868 z m 0,-36.76 v -13.5484 c -12.67634,0.5991 -20.59196,3.2861 -20.59196,7.0968 0.004,3.357 8.62459,5.0727 20.59196,6.4516 z m 18.07868,12.7933 v 15.0089 c 15.63628,-0.9075 21.93545,-4.4098 21.93545,-7.7951 -0.003,-3.8533 -9.46826,-5.7498 -21.93545,-7.2138 z"
   id="path390" />
<g
   id="g404"
   transform="matrix(3.5448378,0,0,3.5448378,5.4296875e-6,5.4296875e-6)"
   style="stroke-width:0.2821">
	<path
   style="fill:#f2f9ff;stroke-width:0.2821"
   d="m 130.652,351.887 v 9.938 c 0.748,0.786 1.672,1.523 2.732,2.24 v -9.313 c -1.209,-0.927 -2.14,-1.889 -2.732,-2.865 z"
   id="path392" />
	<path
   style="fill:#f2f9ff;stroke-width:0.2821"
   d="m 201.201,355.187 v 9.334 c 1.042,-0.64 1.966,-1.316 2.742,-2.022 v -9.7 c -0.692,0.816 -1.613,1.615 -2.742,2.388 z"
   id="path394" />
	<path
   style="fill:#f2f9ff;stroke-width:0.2821"
   d="m 135.526,356.178 v 9.165 c 0.85,0.458 1.761,0.901 2.739,1.316 v -9.075 c -0.993,-0.451 -1.909,-0.922 -2.739,-1.406 z"
   id="path396" />
	<path
   style="fill:#f2f9ff;stroke-width:0.2821"
   d="m 140.401,358.474 v 9.024 c 0.878,0.323 1.792,0.632 2.742,0.911 v -8.991 c -0.958,-0.306 -1.872,-0.614 -2.742,-0.944 z"
   id="path398" />
	<path
   style="fill:#f2f9ff;stroke-width:0.2821"
   d="m 137.626,301.86 c -4.518,0 -8.553,-3.203 -9.446,-7.811 -1.019,-5.217 2.404,-10.289 7.634,-11.292 28.81,-5.576 57.935,-15.534 86.572,-29.586 61.35,-30.098 109.857,-74.304 129.761,-118.249 2.204,-4.844 7.915,-6.991 12.767,-4.8 4.838,2.196 6.986,7.916 4.797,12.764 -21.696,47.887 -73.597,95.585 -138.831,127.596 -30.172,14.804 -60.923,25.298 -91.4,31.196 -0.626,0.128 -1.237,0.182 -1.854,0.182 z"
   id="path400" />
	<path
   style="fill:#f2f9ff;stroke-width:0.2821"
   d="m 374.346,202.022 c -4.314,0 -8.241,-2.921 -9.341,-7.301 l -11.075,-44.119 -44.124,11.08 c -5.156,1.3 -10.401,-1.836 -11.694,-7.002 -1.298,-5.164 1.841,-10.399 7.002,-11.697 l 62.822,-15.775 15.772,62.822 c 1.293,5.166 -1.841,10.401 -6.999,11.699 -0.788,0.194 -1.582,0.293 -2.363,0.293 z"
   id="path402" />
</g>
<g
   id="g406"
   transform="translate(654.02332,654.02332)">
</g>
<g
   id="g408"
   transform="translate(654.02332,654.02332)">
</g>
<g
   id="g410"
   transform="translate(654.02332,654.02332)">
</g>
<g
   id="g412"
   transform="translate(654.02332,654.02332)">
</g>
<g
   id="g414"
   transform="translate(654.02332,654.02332)">
</g>
<g
   id="g416"
   transform="translate(654.02332,654.02332)">
</g>
<g
   id="g418"
   transform="translate(654.02332,654.02332)">
</g>
<g
   id="g420"
   transform="translate(654.02332,654.02332)">
</g>
<g
   id="g422"
   transform="translate(654.02332,654.02332)">
</g>
<g
   id="g424"
   transform="translate(654.02332,654.02332)">
</g>
<g
   id="g426"
   transform="translate(654.02332,654.02332)">
</g>
<g
   id="g428"
   transform="translate(654.02332,654.02332)">
</g>
<g
   id="g430"
   transform="translate(654.02332,654.02332)">
</g>
<g
   id="g432"
   transform="translate(654.02332,654.02332)">
</g>
<g
   id="g434"
   transform="translate(654.02332,654.02332)">
</g>
</svg>
