<svg width="28" height="28" viewBox="0 0 28 28" fill="none" xmlns="http://www.w3.org/2000/svg">
<path d="M14 0.5C11.33 0.5 8.71987 1.29176 6.49981 2.77516C4.27974 4.25856 2.54941 6.36697 1.52763 8.83377C0.505849 11.3006 0.238504 14.015 0.759405 16.6337C1.28031 19.2525 2.56605 21.6579 4.45406 23.5459C6.34207 25.4339 8.74754 26.7197 11.3663 27.2406C13.985 27.7615 16.6994 27.4942 19.1662 26.4724C21.633 25.4506 23.7414 23.7203 25.2248 21.5002C26.7082 19.2801 27.5 16.67 27.5 14C27.5 10.4196 26.0777 6.9858 23.5459 4.45406C21.0142 1.92232 17.5804 0.5 14 0.5ZM14 5.32143C14.8582 5.32143 15.6972 5.57592 16.4108 6.05273C17.1244 6.52954 17.6805 7.20724 18.009 8.00014C18.3374 8.79304 18.4233 9.66553 18.2559 10.5073C18.0885 11.349 17.6752 12.1222 17.0683 12.729C16.4615 13.3359 15.6883 13.7492 14.8466 13.9166C14.0048 14.0841 13.1323 13.9981 12.3394 13.6697C11.5465 13.3413 10.8688 12.7851 10.392 12.0715C9.91521 11.3579 9.66072 10.5189 9.66072 9.66071C9.65945 9.09051 9.77082 8.52568 9.98844 7.99864C10.2061 7.4716 10.5256 6.99273 10.9288 6.58954C11.332 6.18635 11.8109 5.86677 12.3379 5.64915C12.865 5.43153 13.4298 5.32016 14 5.32143ZM21.7143 22.6014C19.5996 24.513 16.8506 25.5713 14 25.5713C11.1494 25.5713 8.40038 24.513 6.28572 22.6014V22.0421C6.2492 20.7218 6.73509 19.4404 7.63784 18.4763C8.5406 17.5122 9.7873 16.9431 11.1071 16.8929H16.8929C18.2067 16.9456 19.4476 17.5113 20.349 18.4687C21.2504 19.426 21.7406 20.6985 21.7143 22.0132V22.6014Z" fill="white"/>
</svg>
