<svg width="592.746" height="591.697" viewBox="0 0 156.831 156.553" xmlns="http://www.w3.org/2000/svg"><path style="fill:#00528e;fill-opacity:1;stroke-width:.15875;paint-order:markers stroke fill" d="M26.585 70.223h156.831v156.553H26.585z" transform="translate(-26.585 -70.223)"/><g style="stroke-width:2.55837"><path style="fill:#f9f9f9;fill-opacity:1;stroke-width:2.55837" d="M3.354 303.655c-1.942-.8-3.22-1.8-4.215-3.303-1.608-2.427-1.614-2.51-1.53-18.341l.077-14.381.72-1.466c.968-1.972 2.826-3.851 4.655-4.708 1.261-.591 1.868-.705 3.753-.704 1.942 0 2.462.106 3.809.766 1.906.934 3.346 2.333 4.308 4.184.708 1.364.73 1.543.894 7.22.147 5.123.237 6 .75 7.325.774 1.995 2.632 3.948 4.66 4.896l1.587.743h167.745l1.253-.579c1.742-.804 3.015-1.829 3.936-3.168 1.435-2.085 1.599-2.925 1.798-9.218.176-5.585.212-5.874.876-7.143 1.957-3.742 6.332-5.79 10.231-4.791 2.84.727 5.016 2.587 6.345 5.42l.697 1.487v14.817c0 14.775-.002 14.82-.59 16.084-.827 1.774-2.994 3.977-4.648 4.725l-1.377.622-102.129.06-102.13.061zm95.958-40.163c-10.132-1.3-20.147-5.553-28.393-12.057-3.05-2.404-7.828-7.426-10.524-11.057-4.857-6.543-9.919-10.387-16.514-12.542-5.973-1.951-13.039-1.948-19.166.01-7.824 2.5-20.132 12.123-31.454 24.592-2.78 3.062-4.816 4.402-7.56 4.976-7.167 1.5-14.659-3.75-15.655-10.972-.499-3.613.515-6.898 3.14-10.165 5.438-6.773 14.296-15.2 22.383-21.295 11.717-8.83 21.083-12.985 32.175-14.276 20.462-2.38 40.08 6.167 52.553 22.9 1.477 1.98 3.418 4.333 4.313 5.228 8.408 8.409 20.467 11.322 31.742 7.668.946-.306 2.887-1.152 4.313-1.878 4.894-2.493 7.846-5.097 11.92-10.517 3.047-4.053 7.24-8.522 10.357-11.037 17.271-13.937 40.88-16.703 60.59-7.098 8.63 4.204 19.005 12.077 28.58 21.684 5.975 5.994 8.923 9.456 9.983 11.721 2.977 6.363.166 13.583-6.589 16.921-2.047 1.012-2.051 1.013-5.383 1.013-3.32 0-3.344-.004-5.34-.991-2.247-1.11-3.28-2.044-7.563-6.842-6.84-7.66-17.584-16.393-24.397-19.829-8.501-4.286-18.398-4.427-26.937-.382-5.251 2.488-8.78 5.495-12.97 11.052-4.58 6.072-9.026 10.357-14.591 14.059-7.124 4.74-15.567 7.913-23.99 9.017-3.331.437-11.942.492-15.023.097zm3.017-68.506c-9.326-1.015-18.253-4.094-25.208-8.695-3.552-2.35-5.08-3.58-8.227-6.624-8.58-8.297-14.525-19.228-17.084-31.407-1.463-6.965-1.472-7.156-1.472-31.443 0-20.35.046-22.779.476-25.532 1.74-11.121 4.862-19.548 10.17-27.455 9.794-14.591 23.723-22.937 41.2-24.687 4.553-.456 14.857-.177 19.46.526 18.89 2.888 32.524 11.82 39.415 25.82 3.372 6.848 4.69 12.28 4.96 20.424l.15 4.55-.736.184c-.405.102-2.952.116-5.66.031-3.886-.121-5.341-.272-6.901-.717-5.99-1.706-10.795-6.1-13.219-12.093-3.674-9.084-8.47-13.847-16.701-16.587-3.95-1.315-6.86-1.772-12.289-1.93-5.42-.159-8.099.177-12.16 1.527C88.429 64.226 80.302 74.365 77.1 87.581c-1.587 6.55-1.626 7.268-1.626 29.5 0 22.394.035 23.018 1.698 29.586 3.403 13.445 11.295 23.173 21.586 26.611 3.657 1.222 6.566 1.639 11.376 1.631 15.084-.024 24.703-5.875 29.161-17.74 2.177-5.792 5.436-9.491 10.527-11.948 3.186-1.537 5.079-1.837 11.056-1.753l5.083.072.083 1.984c.113 2.697-.365 7.41-1.142 11.26-3.635 18.025-17.512 31.695-37.044 36.492-5.43 1.334-9.222 1.761-16.533 1.862-3.711.05-7.76-.018-8.996-.152zm-98.293-2.19c-2.567-.85-4.422-2.468-5.614-4.895l-.736-1.498V-4.637l.871-1.77C-.496-8.33.858-9.675 2.826-10.645l1.21-.596h205.317l1.676.908c1.847 1.002 3.158 2.419 4.073 4.405l.6 1.301v191.03l-.735 1.498c-.943 1.92-2.581 3.56-4.424 4.43-1.23.58-1.823.686-3.836.686-2.028 0-2.605-.105-3.888-.706-1.837-.861-3.593-2.565-4.46-4.328l-.648-1.316-.132-86.254-.132-86.254-.605-1.494c-.854-2.112-2.386-3.74-4.497-4.78l-1.766-.87H22.822l-1.468.688c-2.485 1.166-4.167 3.006-5.093 5.574-.244.677-.349 20.89-.45 87.136l-.133 86.254-.705 1.335c-1.62 3.07-4.491 4.909-7.894 5.057-1.175.051-2.416-.056-3.043-.264z" transform="translate(36.748 21.01) scale(.39087)"/></g></svg>