<?xml version="1.0" encoding="UTF-8" standalone="no"?>
<svg
   width="461.09137"
   height="464.84015"
   viewBox="0 0 121.99694 122.98927"
   version="1.1"
   id="svg10"
   sodipodi:docname="coinvalores.svg"
   inkscape:version="1.1.1 (3bf5ae0d25, 2021-09-20)"
   xmlns:inkscape="http://www.inkscape.org/namespaces/inkscape"
   xmlns:sodipodi="http://sodipodi.sourceforge.net/DTD/sodipodi-0.dtd"
   xmlns="http://www.w3.org/2000/svg"
   xmlns:svg="http://www.w3.org/2000/svg">
  <defs
     id="defs14" />
  <sodipodi:namedview
     id="namedview12"
     pagecolor="#ffffff"
     bordercolor="#666666"
     borderopacity="1.0"
     inkscape:pageshadow="2"
     inkscape:pageopacity="0.0"
     inkscape:pagecheckerboard="0"
     showgrid="false"
     inkscape:zoom="1.0182333"
     inkscape:cx="143.38561"
     inkscape:cy="233.24714"
     inkscape:window-width="2560"
     inkscape:window-height="1017"
     inkscape:window-x="-8"
     inkscape:window-y="-8"
     inkscape:window-maximized="1"
     inkscape:current-layer="svg10" />
  <g
     style="stroke-width:0.906366"
     id="g8"
     transform="translate(5.7127726,5.759934)">
    <path
       style="fill:#f2f4f4;stroke-width:0.906366"
       d="M 46.807,152.427 V 80.02 H 154.206 V 190.966 H 46.807 Z"
       transform="matrix(1.1033,0,0,1.1033,-55.602,-94.046)"
       id="path2" />
    <path
       style="fill:#d1c526;stroke-width:0.906366"
       d="M 46.278,152.427 V 80.02 H 154.206 V 191.494 H 46.278 Z m 61.247,5.607 c 3.168,-0.411 4.057,-0.722 4.035,-1.41 -0.01,-0.324 -0.581,-2.214 -1.269,-4.197 -1.184,-3.417 -1.286,-3.603 -1.919,-3.526 -0.866,0.105 -5.813,0.105 -6.679,0 -0.633,-0.077 -0.734,0.11 -1.919,3.526 -1.59,4.586 -1.594,4.706 -0.182,5.086 2.604,0.701 5.221,0.873 7.933,0.52 z m -8.927,-5.006 c 0.674,-2.021 1.225,-3.934 1.225,-4.252 0,-0.414 -0.32,-0.732 -1.136,-1.129 -0.624,-0.303 -1.88,-1.155 -2.79,-1.894 -0.91,-0.738 -1.766,-1.342 -1.903,-1.342 -0.33,0 -6.568,4.776 -6.693,5.125 -0.14,0.388 2.477,2.994 4.39,4.371 1.59,1.146 4.758,2.794 5.371,2.794 0.171,0 0.863,-1.653 1.536,-3.673 z m 16.437,2.86 c 0.947,-0.448 2.45,-1.34 3.34,-1.98 1.912,-1.378 4.53,-3.984 4.39,-4.372 -0.126,-0.349 -6.364,-5.125 -6.694,-5.125 -0.136,0 -0.967,0.583 -1.847,1.295 -0.88,0.711 -2.133,1.56 -2.784,1.886 -0.652,0.325 -1.24,0.68 -1.307,0.788 -0.213,0.344 2.532,8.322 2.864,8.321 0.175,0 1.092,-0.366 2.038,-0.814 z m -32.315,-4.28 c 1.912,-1.48 3.477,-2.814 3.477,-2.965 0,-0.151 -0.242,-0.615 -0.538,-1.03 -1.576,-2.213 -2.946,-6.168 -3.655,-10.55 l -0.216,-1.335 h -9.351 l 0.056,1.969 c 0.107,3.807 1.268,8.027 3.352,12.191 1.353,2.704 2.52,4.409 3.014,4.409 0.211,0 1.949,-1.21 3.861,-2.69 z m -0.542,-19.256 c 0.519,-3.546 1.601,-6.525 3.645,-10.03 l 0.495,-0.85 -0.783,-0.62 c -0.43,-0.341 -2.098,-1.617 -3.706,-2.835 l -2.923,-2.215 -0.596,0.56 c -1.029,0.966 -3.271,5.354 -4.277,8.368 -0.971,2.912 -1.961,8.54 -1.646,9.36 0.145,0.38 0.767,0.436 4.82,0.436 h 4.653 z m 37.838,-8.002 c 1.752,-1.336 3.223,-2.595 3.27,-2.8 0.316,-1.377 -7.02,-7.208 -9.76,-7.755 l -0.814,-0.163 -1.337,4.002 c -0.736,2.201 -1.261,4.117 -1.168,4.256 0.093,0.14 0.825,0.605 1.627,1.034 0.801,0.43 2.124,1.457 2.939,2.284 0.815,0.827 1.611,1.518 1.77,1.536 0.158,0.019 1.721,-1.06 3.473,-2.394 z m -24.486,0.49 c 0.695,-0.624 1.915,-1.486 2.711,-1.916 0.797,-0.429 1.524,-0.894 1.618,-1.034 0.093,-0.14 -0.429,-2.043 -1.16,-4.229 -1.069,-3.2 -1.423,-3.975 -1.82,-3.975 -1.436,0 -7.228,3.878 -8.85,5.926 -0.825,1.04 -0.831,1.071 -0.335,1.557 0.807,0.79 6.094,4.787 6.345,4.798 0.125,0.005 0.796,-0.502 1.491,-1.127 z m 14.867,-7.478 c 0.918,-2.794 1.21,-4.021 1.008,-4.224 -0.42,-0.419 -4.215,-1.037 -6.372,-1.037 -2.157,0 -5.953,0.618 -6.373,1.037 -0.202,0.203 0.09,1.43 1.008,4.224 l 1.293,3.938 h 8.143 z"
       transform="matrix(1.1033,0,0,1.1033,-55.602,-94.046)"
       id="path4" />
    <path
       style="fill:#194284;stroke-width:0.906366"
       d="M 45.22,152.427 V 80.02 H 155.793 V 191.494 H 45.218 Z m 65.69,11.92 c 2.541,-0.539 2.81,-0.667 2.785,-1.328 -0.012,-0.315 -1.064,-3.639 -2.338,-7.386 -2.243,-6.596 -2.338,-6.81 -2.985,-6.732 -0.866,0.106 -5.813,0.106 -6.679,0 -0.647,-0.079 -0.742,0.136 -2.984,6.732 -1.274,3.747 -2.326,7.074 -2.338,7.393 -0.016,0.43 0.205,0.652 0.847,0.854 0.808,0.255 3.005,0.682 4.876,0.948 1.503,0.213 6.942,-0.083 8.817,-0.48 z m -15.7,-1.567 c 0.383,-0.49 4.613,-13.333 4.613,-14.008 0,-0.409 -0.325,-0.73 -1.136,-1.124 -0.624,-0.304 -1.898,-1.17 -2.83,-1.926 -1.461,-1.186 -1.773,-1.335 -2.27,-1.091 -0.893,0.438 -11.48,8.691 -11.591,9.036 -0.156,0.478 2.714,3.416 5.068,5.19 2.119,1.596 3.644,2.489 6.213,3.638 1.587,0.71 1.599,0.712 1.933,0.285 z m 23.182,-1.06 c 1.175,-0.586 2.919,-1.617 3.874,-2.29 2.166,-1.527 5.965,-5.268 5.816,-5.727 -0.12,-0.368 -10.653,-8.605 -11.6,-9.07 -0.49,-0.241 -0.799,-0.1 -2.14,0.972 -0.861,0.69 -2.166,1.588 -2.9,1.995 -0.972,0.539 -1.31,0.877 -1.251,1.247 0.144,0.903 4.395,13.588 4.67,13.939 0.335,0.427 0.841,0.274 3.53,-1.066 z m -35.6,-10.165 a 840.109,840.109 0 0 1 6.657,-5.1 c 4.334,-3.276 4.134,-2.967 3.161,-4.873 -0.443,-0.869 -0.997,-2.42 -1.232,-3.45 a 77.33,77.33 0 0 0 -0.526,-2.207 c -0.078,-0.265 -2.062,-0.323 -9.257,-0.267 l -9.158,0.07 0.056,1.969 c 0.107,3.807 1.268,8.028 3.352,12.191 1.359,2.714 2.52,4.409 3.02,4.409 0.215,0 1.982,-1.234 3.928,-2.742 z m 8.466,-18.92 c 0.186,-1.039 0.76,-2.733 1.276,-3.766 0.787,-1.572 0.88,-1.93 0.574,-2.213 -0.513,-0.472 -12.936,-9.94 -13.701,-10.441 -0.595,-0.39 -0.663,-0.369 -1.32,0.41 -1.215,1.446 -3.053,5.12 -4.05,8.105 -0.975,2.912 -1.966,8.537 -1.65,9.36 0.15,0.39 1.111,0.436 9.35,0.436 h 9.183 z m 31.43,-10.338 c 3.218,-2.464 5.89,-4.682 5.937,-4.928 0.11,-0.573 -3.475,-4.346 -5.811,-6.114 -1.877,-1.421 -6.695,-3.982 -7.493,-3.982 -0.395,0 -0.921,1.31 -2.882,7.184 -1.32,3.952 -2.323,7.297 -2.23,7.436 0.092,0.138 0.823,0.602 1.625,1.031 0.801,0.43 2.124,1.457 2.939,2.284 0.815,0.827 1.613,1.518 1.773,1.536 0.16,0.019 2.925,-1.983 6.143,-4.447 z M 95.53,124.84 c 0.695,-0.624 1.915,-1.486 2.711,-1.916 0.797,-0.429 1.524,-0.893 1.616,-1.031 0.092,-0.139 -0.911,-3.484 -2.23,-7.436 -1.888,-5.653 -2.496,-7.184 -2.854,-7.184 -0.681,0 -4.608,1.963 -6.507,3.253 -1.931,1.311 -6.344,5.476 -6.344,5.988 0,0.19 1.352,1.37 3.005,2.622 a 889.11,889.11 0 0 1 5.945,4.548 c 1.617,1.25 3.042,2.277 3.167,2.282 0.125,0.005 0.796,-0.501 1.491,-1.126 z m 15.898,-10.565 c 1.285,-3.863 2.273,-7.19 2.195,-7.392 -0.489,-1.275 -10.68,-1.859 -14.953,-0.857 -1.148,0.27 -2.15,0.655 -2.228,0.857 -0.078,0.202 0.91,3.529 2.195,7.392 l 2.336,7.025 h 8.12 z"
       transform="matrix(1.1033,0,0,1.1033,-55.602,-94.046)"
       id="path6" />
  </g>
</svg>
