<svg width="141" height="38" viewBox="0 0 141 38" fill="none" xmlns="http://www.w3.org/2000/svg">
<rect y="11" width="141" height="27" rx="4" fill="#D9D9D9"/>
<path d="M9.304 29.126C8.812 29.126 8.566 28.868 8.566 28.352V17.066C8.566 16.562 8.818 16.31 9.322 16.31H13.588C14.956 16.31 16 16.628 16.72 17.264C17.452 17.9 17.818 18.806 17.818 19.982C17.818 20.918 17.56 21.686 17.044 22.286C16.54 22.886 15.82 23.276 14.884 23.456C15.436 23.648 15.91 24.116 16.306 24.86L18.034 28.082C18.166 28.334 18.19 28.574 18.106 28.802C18.022 29.018 17.83 29.126 17.53 29.126C17.326 29.126 17.158 29.084 17.026 29C16.894 28.904 16.78 28.76 16.684 28.568L14.722 24.932C14.446 24.416 14.128 24.074 13.768 23.906C13.408 23.726 12.934 23.636 12.346 23.636H10.042V28.352C10.042 28.868 9.796 29.126 9.304 29.126ZM10.042 22.466H13.372C15.364 22.466 16.36 21.638 16.36 19.982C16.36 18.35 15.364 17.534 13.372 17.534H10.042V22.466ZM24.621 31.196C24.441 31.196 24.291 31.136 24.171 31.016C24.063 30.896 24.009 30.752 24.009 30.584V29.072C23.229 29.036 22.521 28.91 21.885 28.694C21.249 28.478 20.709 28.208 20.265 27.884C20.085 27.764 19.977 27.614 19.941 27.434C19.917 27.254 19.941 27.092 20.013 26.948C20.085 26.792 20.199 26.69 20.355 26.642C20.511 26.582 20.697 26.618 20.913 26.75C21.309 27.026 21.789 27.266 22.353 27.47C22.917 27.674 23.619 27.776 24.459 27.776C25.491 27.776 26.253 27.578 26.745 27.182C27.237 26.786 27.483 26.264 27.483 25.616C27.483 25.1 27.303 24.686 26.943 24.374C26.595 24.062 26.001 23.816 25.161 23.636L23.361 23.258C21.213 22.802 20.139 21.692 20.139 19.928C20.139 19.256 20.295 18.656 20.607 18.128C20.931 17.588 21.381 17.156 21.957 16.832C22.545 16.508 23.229 16.316 24.009 16.256V14.726C24.009 14.558 24.063 14.414 24.171 14.294C24.291 14.174 24.441 14.114 24.621 14.114C24.789 14.114 24.933 14.174 25.053 14.294C25.173 14.414 25.233 14.558 25.233 14.726V16.256C25.773 16.304 26.331 16.442 26.907 16.67C27.483 16.886 27.981 17.186 28.401 17.57C28.593 17.738 28.671 17.936 28.635 18.164C28.611 18.38 28.503 18.542 28.311 18.65C28.131 18.758 27.903 18.722 27.627 18.542C27.219 18.218 26.769 17.972 26.277 17.804C25.797 17.624 25.221 17.534 24.549 17.534C23.649 17.534 22.929 17.75 22.389 18.182C21.861 18.614 21.597 19.184 21.597 19.892C21.597 20.444 21.765 20.888 22.101 21.224C22.437 21.548 22.983 21.788 23.739 21.944L25.557 22.34C26.733 22.592 27.597 22.976 28.149 23.492C28.701 24.008 28.977 24.692 28.977 25.544C28.977 26.528 28.629 27.332 27.933 27.956C27.237 28.568 26.337 28.934 25.233 29.054V30.584C25.233 30.752 25.173 30.896 25.053 31.016C24.945 31.136 24.801 31.196 24.621 31.196ZM35.234 29.162C33.782 29.162 32.678 28.604 31.922 27.488C31.166 26.372 30.788 24.758 30.788 22.646C30.788 20.522 31.166 18.908 31.922 17.804C32.678 16.7 33.782 16.148 35.234 16.148C36.698 16.148 37.802 16.7 38.546 17.804C39.302 18.896 39.68 20.504 39.68 22.628C39.68 24.752 39.296 26.372 38.528 27.488C37.772 28.604 36.674 29.162 35.234 29.162ZM35.234 27.884C36.242 27.884 36.986 27.458 37.466 26.606C37.958 25.742 38.204 24.416 38.204 22.628C38.204 20.828 37.964 19.514 37.484 18.686C37.004 17.846 36.254 17.426 35.234 17.426C34.226 17.426 33.476 17.846 32.984 18.686C32.504 19.526 32.264 20.84 32.264 22.628C32.264 24.416 32.504 25.742 32.984 26.606C33.476 27.458 34.226 27.884 35.234 27.884ZM42.859 30.71C42.691 30.914 42.523 31.004 42.355 30.98C42.187 30.968 42.073 30.884 42.013 30.728C41.953 30.572 42.001 30.386 42.157 30.17C42.301 29.99 42.409 29.804 42.481 29.612C42.553 29.42 42.607 29.24 42.643 29.072C42.355 29.048 42.127 28.946 41.959 28.766C41.791 28.586 41.707 28.358 41.707 28.082C41.707 27.794 41.791 27.56 41.959 27.38C42.139 27.188 42.373 27.092 42.661 27.092C42.973 27.092 43.219 27.2 43.399 27.416C43.579 27.62 43.669 27.92 43.669 28.316C43.669 28.688 43.609 29.084 43.489 29.504C43.369 29.924 43.159 30.326 42.859 30.71ZM50.1227 29.162C48.6707 29.162 47.5667 28.604 46.8107 27.488C46.0547 26.372 45.6767 24.758 45.6767 22.646C45.6767 20.522 46.0547 18.908 46.8107 17.804C47.5667 16.7 48.6707 16.148 50.1227 16.148C51.5867 16.148 52.6907 16.7 53.4347 17.804C54.1907 18.896 54.5687 20.504 54.5687 22.628C54.5687 24.752 54.1847 26.372 53.4167 27.488C52.6607 28.604 51.5627 29.162 50.1227 29.162ZM50.1227 27.884C51.1307 27.884 51.8747 27.458 52.3547 26.606C52.8467 25.742 53.0927 24.416 53.0927 22.628C53.0927 20.828 52.8527 19.514 52.3727 18.686C51.8927 17.846 51.1427 17.426 50.1227 17.426C49.1147 17.426 48.3647 17.846 47.8727 18.686C47.3927 19.526 47.1527 20.84 47.1527 22.628C47.1527 24.416 47.3927 25.742 47.8727 26.606C48.3647 27.458 49.1147 27.884 50.1227 27.884ZM60.9156 29.162C59.4636 29.162 58.3596 28.604 57.6036 27.488C56.8476 26.372 56.4696 24.758 56.4696 22.646C56.4696 20.522 56.8476 18.908 57.6036 17.804C58.3596 16.7 59.4636 16.148 60.9156 16.148C62.3796 16.148 63.4836 16.7 64.2276 17.804C64.9836 18.896 65.3616 20.504 65.3616 22.628C65.3616 24.752 64.9776 26.372 64.2096 27.488C63.4536 28.604 62.3556 29.162 60.9156 29.162ZM60.9156 27.884C61.9236 27.884 62.6676 27.458 63.1476 26.606C63.6396 25.742 63.8856 24.416 63.8856 22.628C63.8856 20.828 63.6456 19.514 63.1656 18.686C62.6856 17.846 61.9356 17.426 60.9156 17.426C59.9076 17.426 59.1576 17.846 58.6656 18.686C58.1856 19.526 57.9456 20.84 57.9456 22.628C57.9456 24.416 58.1856 25.742 58.6656 26.606C59.1576 27.458 59.9076 27.884 60.9156 27.884Z" fill="#6A6A6A"/>
<rect width="53" height="7" fill="#D9D9D9"/>
</svg>
