<svg width="60" height="61" viewBox="0 0 60 61" fill="none" xmlns="http://www.w3.org/2000/svg">
<path d="M41.8236 37.1714L36.4878 42.5071L51.898 59.92C52.1028 60.1513 52.3526 60.3382 52.6323 60.4693C52.912 60.6004 53.2155 60.6729 53.5242 60.6823C53.833 60.6917 54.1404 60.6378 54.4275 60.524C54.7146 60.4102 54.9754 60.2388 55.1938 60.0204L59.337 55.8774C59.5554 55.659 59.7268 55.3981 59.8406 55.111C59.9545 54.8238 60.0084 54.5164 59.9989 54.2077C59.9895 53.8989 59.917 53.5954 59.7859 53.3157C59.6547 53.036 59.4678 52.7861 59.2364 52.5814L41.8236 37.1714Z" fill="#2D5DB9"/>
<path d="M23.3507 47.3031C36.247 47.3031 46.7015 36.8486 46.7015 23.9523C46.7015 11.0561 36.247 0.601562 23.3507 0.601562C10.4545 0.601562 0 11.0561 0 23.9523C0 36.8486 10.4545 47.3031 23.3507 47.3031Z" fill="#ACD5DF"/>
<path d="M23.3508 42.0213C33.3299 42.0213 41.4195 33.9316 41.4195 23.9525C41.4195 13.9734 33.3299 5.88379 23.3508 5.88379C13.3717 5.88379 5.28199 13.9734 5.28199 23.9525C5.28199 33.9316 13.3717 42.0213 23.3508 42.0213Z" fill="white"/>
</svg>
