<?xml version="1.0" encoding="utf-8"?>
<!-- Generator: Adobe Illustrator 24.0.1, SVG Export Plug-In . SVG Version: 6.00 Build 0)  -->
<svg fill="#2d5db9" version="1.1" id="Camada_1" xmlns="http://www.w3.org/2000/svg" xmlns:xlink="http://www.w3.org/1999/xlink" x="0px" y="0px"
	 viewBox="0 0 479.9 479.9" style="enable-background:new 0 0 479.9 479.9;" xml:space="preserve">
<style type="text/css">
	.st0{fill:none;stroke:#2d5db9;stroke-width:23;stroke-linecap:round;stroke-linejoin:round;stroke-miterlimit:10;}
	.st1{fill:none;stroke:#2d5db9;stroke-width:18.7105;stroke-linecap:round;stroke-linejoin:round;stroke-miterlimit:10;}
</style>
<g>
	<path d="M335.6,136.1l-57.8-61.9c-18.2-19.5-42.9-30.5-68.6-30.4H73.6c-8.4,0-16.6,2.1-24.1,6.1L25.3,62.8
		c-4.8,2.6-10.2,3.9-15.6,3.6l-9.6-0.4v23.1l8.8,0.3c9,0.3,18-1.7,26.1-6l24.1-12.9c4.5-2.4,9.5-3.7,14.5-3.7h135.6
		c20-0.1,39.3,8.5,53.4,23.7l42.6,45.6h-89l-26.2-28l-15.2,16.3l76.2,81.5c8.5,9,8.5,23.7,0.1,32.7c-8.4,9.1-22.1,9.1-30.6,0.1
		l-63.6-68.1l-7.5,6.9c-20.8,18.9-51.3,19.4-72.7,1.1l-6.2-5.4l-13.6,17.9l6.3,5.5c6.6,5.7,14,10.1,22,13.2v55.8
		c-17.6-0.8-34.8-6.8-49.5-17.3l-12-8.5H0.1V263h17l6.5,4.6c18.3,13,39.5,20.3,61.4,21.2v147.3h394.8v-300H335.6z M272.2,246.7
		c7.4-12.4,8.7-27.8,3.5-41.4h86.3c4.6,29,25.9,51.8,53,56.7v48.1c-27.1,5-48.4,27.7-53,56.7H202.7c-4.6-29-25.9-51.8-53-56.7v-48.1
		c15.4-2.8,29.3-11.5,39.2-24.4l16.3,17.4c16.9,17.8,44,17.8,60.9,0.1 M458.2,413H106.6V214.8c17.1,1.4,34.1-3.3,48.5-13.3
		l18.4,19.7c-8.1,11.8-20.9,18.7-34.6,18.8h-10.8v92.3h10.8c23.8,0,43.1,20.7,43.1,46.2V390h200.7v-11.5c0-25.5,19.3-46.2,43.1-46.2
		h10.8V240h-10.8c-23.8,0-43.1-20.7-43.1-46.2v-11.5H259.3l-21.6-23.1h220.5V413z"/>
</g>
<polyline class="st0" points="317.3,127.7 469.6,108.3 468.5,172 "/>
<polyline class="st1" points="295.5,92.8 426.1,49.3 435.2,95.3 "/>
<g>
	<path d="M279.8,353.5V337c-9.4-0.2-19.2-3.1-24.9-7.2l3.9-10.9c5.9,3.9,14.3,7,23.4,7c11.5,0,19.4-6.7,19.4-15.9
		c0-8.9-6.3-14.5-18.4-19.4c-16.6-6.5-26.8-14-26.8-28.1c0-13.5,9.6-23.7,24.6-26.2v-16.4H291v15.8c9.8,0.3,16.4,2.9,21.1,5.7
		l-4.1,10.7c-3.4-2-10.1-5.5-20.5-5.5c-12.5,0-17.2,7.5-17.2,14c0,8.5,6,12.7,20.2,18.5c16.8,6.8,25.2,15.3,25.2,29.8
		c0,12.8-8.9,24.9-25.7,27.6v16.9H279.8z"/>
</g>
</svg>
