<?xml version="1.0" encoding="UTF-8" standalone="no"?>
<svg
   id="Camada_1"
   data-name="Camada 1"
   version="1.1"
   width="235.00002"
   height="235"
   sodipodi:docname="agibank.svg"
   inkscape:version="1.1.1 (3bf5ae0d25, 2021-09-20)"
   xmlns:inkscape="http://www.inkscape.org/namespaces/inkscape"
   xmlns:sodipodi="http://sodipodi.sourceforge.net/DTD/sodipodi-0.dtd"
   xmlns="http://www.w3.org/2000/svg"
   xmlns:svg="http://www.w3.org/2000/svg">
  <sodipodi:namedview
     id="namedview11"
     pagecolor="#ffffff"
     bordercolor="#666666"
     borderopacity="1.0"
     inkscape:pageshadow="2"
     inkscape:pageopacity="0.0"
     inkscape:pagecheckerboard="0"
     showgrid="false"
     inkscape:zoom="2.4929945"
     inkscape:cx="64.179844"
     inkscape:cy="112.51529"
     inkscape:window-width="2560"
     inkscape:window-height="1017"
     inkscape:window-x="-8"
     inkscape:window-y="-8"
     inkscape:window-maximized="1"
     inkscape:current-layer="Camada_1" />
  <defs
     id="defs4">
    <style
       id="style2">.cls-3{fill:#272e61}</style>
  </defs>
  <path
     style="fill:#f9f9f9;stroke-width:0.600001;paint-order:markers stroke fill"
     id="rect954"
     d="M 0,0 H 235.00001 V 235 H 0 Z" />
  <g
     id="g1102"
     transform="matrix(2.82761,0,0,2.82761,2.551,1.14)"
     style="stroke-width:0.353655">
    <path
       d="m 77.078,29.638 -28.94,28.95 a 10.66,10.66 0 0 1 -15.07,0 l -29.13,-29.17 -0.15,26 16.15,16.25 a 29.17,29.17 0 0 0 41.24,0 l 15.86,-15.86 z"
       id="path8"
       style="fill:#86be4e;stroke-width:0.353655" />
    <path
       d="m 61.038,13.578 a 29.2,29.2 0 0 0 -41.24,0 l -16,16.05 13.2,12.89 15.89,-15.85 a 10.66,10.66 0 0 1 15.07,0 l 29.14,29.14 v -26.18 z"
       id="path10"
       style="fill:#2e73b9;stroke-width:0.353655" />
    <path
       class="cls-3"
       id="polygon12"
       transform="translate(-33.062,-25.752)"
       style="stroke-width:0.353655"
       d="m 97.07,68.47 13.07,13.07 V 55.39 Z" />
    <path
       class="cls-3"
       id="polygon14"
       transform="translate(-33.062,-25.752)"
       style="stroke-width:0.353655"
       d="M 50.08,68.29 36.99,55.2 36.81,55.39 v 25.8 l 0.18,0.19 z" />
  </g>
</svg>
