<svg width="140mm" height="140mm" viewBox="0 0 140 140" xmlns="http://www.w3.org/2000/svg"><g style="stroke-width:.976645"><path style="fill:#f54868;fill-opacity:1;stroke-width:.155042;paint-order:markers stroke fill" d="M31.959 81.113h137.077v136.385H31.959z" transform="matrix(1.02132 0 0 1.0265 -32.64 -83.263)"/><path style="fill:#030436;stroke-width:.976645" d="M101.76 180.644c-2.885-.686-6.292-3.438-7.542-6.094-1.893-4.022-1.545-8.419.94-11.877l.932-1.298-1.162-1.213c-2.114-2.206-2.51-5.367-1.016-8.112.59-1.085 1.167-1.68 2.698-2.787.047-.033-.358-.638-.9-1.343a13.575 13.575 0 0 1-2.457-5.331c-.385-1.805-.39-11.762-.007-13.6 1.06-5.077 5.351-9.278 10.504-10.28 3.118-.607 6.928.14 9.471 1.857.655.442 1.244.803 1.31.803.065 0 .119-.655.119-1.455v-1.455h10.054v4.762h-5.292l-.004 8.93c-.004 9.664-.136 10.888-1.477 13.723-.88 1.861-3.075 4.217-5.018 5.386-2.38 1.433-4.343 1.826-9.19 1.844-5.264.02-6.007.314-6.007 2.382 0 .405.247 1.05.549 1.434l.548.697 9.308.005c5.119.003 10.14.125 11.159.272 5.162.743 9.095 4.627 9.906 9.782.868 5.525-2.56 11.06-7.867 12.7-1.553.48-2.425.522-10.203.497-4.678-.015-8.888-.118-9.356-.23zm17.8-4.537c.647-.163 1.176-.375 1.176-.472 0-.097-4.555-2.81-10.12-6.03-11.309-6.542-10.503-6.27-11.909-4.015-1.797 2.883-1.49 6.07.82 8.49 2.06 2.16 2.77 2.304 11.5 2.314 4.578.005 7.802-.103 8.533-.287zm4.978-4.798c.593-2.215-.156-5.086-1.767-6.77-1.843-1.926-2.255-2.02-9.18-2.093-5.51-.058-6.142-.022-5.555.314.363.209 4.054 2.349 8.202 4.755 4.147 2.407 7.675 4.38 7.84 4.383.165.004.372-.261.46-.589zm-14.485-23.819c1.72-.883 3.369-2.749 4.06-4.594.479-1.282.537-2.055.537-7.107 0-6.808-.253-7.828-2.496-10.071-1.869-1.869-3.795-2.59-6.5-2.434-3.19.185-5.666 1.805-7.182 4.7-.606 1.158-.623 1.37-.623 7.805v6.615l.705 1.323c.918 1.723 2.381 3.108 4.19 3.966 1.29.612 1.71.68 3.704.592 1.78-.078 2.532-.245 3.605-.795zm-41.39 5.093c-2.789-.73-4.399-1.697-6.815-4.094-3.54-3.511-4.603-6.444-4.603-12.7 0-6.173 1.091-9.175 4.619-12.702 2.383-2.384 4.583-3.627 7.516-4.249 4.563-.967 9.505.166 12.916 2.96l1.133.93v-4.269h4.762v34.66H83.43v-4.274l-1.124.966c-3.393 2.914-8.86 4.025-13.642 2.772zm6.417-4.368c2.333-.372 5.512-2.68 6.857-4.98 1.147-1.962 1.492-3.684 1.492-7.446 0-3.922-.36-5.594-1.64-7.61-1.049-1.651-2.899-3.276-4.71-4.135-1.294-.614-1.776-.69-4.365-.69-2.664 0-3.04.064-4.447.754-2.165 1.062-4.242 3.18-5.276 5.38-.799 1.7-.853 2.01-.95 5.408-.155 5.495.517 7.687 3.174 10.361 1.693 1.703 3.752 2.789 5.873 3.098 1.357.198 2.017.175 3.992-.14zm56.944.23c-.097-.097-.176-1.169-.176-2.381v-2.205h4.763v4.762h-2.205c-1.213 0-2.285-.08-2.382-.176zm0-20.638c-.097-.097-.176-1.168-.176-2.38v-2.206h4.763v4.762h-2.205c-1.213 0-2.285-.079-2.382-.176z" transform="matrix(1.02132 0 0 1.0265 -32.64 -83.263)"/></g></svg>