<?xml version="1.0" encoding="UTF-8" standalone="no"?>
<!-- Generator: Adobe Illustrator 19.2.1, SVG Export Plug-In . SVG Version: 6.00 Build 0)  -->

<svg
   version="1.1"
   id="layer"
   x="0px"
   y="0px"
   viewBox="0 0 619.51392 619.51391"
   xml:space="preserve"
   sodipodi:docname="bradesco-vector-logo.svg"
   width="619.51392"
   height="619.51392"
   inkscape:version="1.1.1 (3bf5ae0d25, 2021-09-20)"
   xmlns:inkscape="http://www.inkscape.org/namespaces/inkscape"
   xmlns:sodipodi="http://sodipodi.sourceforge.net/DTD/sodipodi-0.dtd"
   xmlns="http://www.w3.org/2000/svg"
   xmlns:svg="http://www.w3.org/2000/svg"><defs
   id="defs10" /><sodipodi:namedview
   id="namedview8"
   pagecolor="#ffffff"
   bordercolor="#666666"
   borderopacity="1.0"
   inkscape:pageshadow="2"
   inkscape:pageopacity="0.0"
   inkscape:pagecheckerboard="0"
   showgrid="false"
   inkscape:zoom="0.90232031"
   inkscape:cx="408.94569"
   inkscape:cy="328.59728"
   inkscape:window-width="2560"
   inkscape:window-height="1017"
   inkscape:window-x="-8"
   inkscape:window-y="-8"
   inkscape:window-maximized="1"
   inkscape:current-layer="PROPORÇ_x2DC_AO_E_REGRAS" />
<style
   type="text/css"
   id="style2">
	.st0{fill:#CC092F;}
</style>
<g
   id="PROPORÇ_x2DC_AO_E_REGRAS"
   transform="translate(627.27173,2.2165074)">
	
<rect
   style="fill:#cc092f;fill-opacity:1;stroke-width:0.6;paint-order:markers stroke fill"
   id="rect1165"
   width="619.51392"
   height="619.51392"
   x="-627.27173"
   y="-2.2165074" /><path
   class="st0"
   d="m -481.10459,490.26786 c -3.85929,0 -7.71858,0.83898 -10.1516,2.01354 v -24.07859 c -3.77539,1.42626 -7.80247,3.3559 -11.15837,6.04063 -1.76185,1.42625 -2.26524,2.85251 -2.26524,4.94995 v 59.48334 c 3.6076,1.51016 10.82278,2.85252 17.78628,2.85252 17.61848,0 27.68618,-10.73888 27.68618,-26.34382 0.0839,-15.35325 -7.13129,-24.91757 -21.89725,-24.91757 z m -4.94996,40.27081 c -1.42626,0 -3.60759,0 -5.11775,-0.50338 v -27.0989 c 1.84575,-1.00677 4.44657,-1.51016 7.80247,-1.51016 6.7957,0 10.3194,4.69826 10.3194,13.5075 0,9.22873 -4.19488,15.60494 -13.00412,15.60494 z m 61.2452,-39.85132 c -6.37622,0 -10.15161,2.51693 -13.5914,6.96349 -0.33559,-2.26523 -0.75508,-4.11097 -1.51016,-6.37621 -1.34236,-0.41948 -3.60759,-0.50338 -5.53724,-0.50338 -1.84574,0 -4.19487,0.16779 -5.45333,0.50338 v 49.16395 c 1.67795,0.41949 4.36267,0.50339 6.79569,0.50339 2.26524,0 5.28555,-0.1678 6.7957,-0.50339 v -24.07859 c 0,-9.56432 5.03386,-14.68206 11.74566,-14.68206 1.17456,0 3.272,0 4.44657,0.16779 0.75507,-3.18811 0.83897,-7.71857 0.16779,-10.82278 -0.83897,-0.0839 -2.76862,-0.33559 -3.85928,-0.33559 z m 261.17299,-0.67118 c -15.10156,0 -23.57521,10.3194 -23.57521,25.84044 0,15.77273 8.89314,25.58874 23.57521,25.58874 15.18545,0 23.6591,-10.1516 23.6591,-25.58874 0,-15.60494 -8.47365,-25.84044 -23.6591,-25.84044 z m 0,40.6903 c -7.46688,0 -9.73212,-6.04062 -9.73212,-14.76597 0,-8.47365 2.26524,-14.93375 9.73212,-14.93375 7.71857,0 9.89991,6.29231 9.89991,14.93375 0,9.06094 -2.60083,14.76597 -9.89991,14.76597 z m -131.46742,-40.6903 c -14.51427,0 -23.49131,9.73211 -23.49131,26.09213 0,16.27612 9.39652,25.42095 25.58875,25.42095 5.53723,0 11.49396,-1.00677 15.35324,-2.85252 0.75508,-3.1881 0.75508,-7.29908 0,-10.48719 -5.03385,1.42626 -9.22873,2.26524 -13.92699,2.26524 -7.46688,0 -12.66852,-2.85252 -13.84309,-10.73889 h 30.6226 c 0.41949,-1.17456 0.50338,-5.20164 0.50338,-6.87959 0.1678,-14.51428 -8.13806,-22.82013 -20.80658,-22.82013 z m -10.2355,19.88371 c 1.00677,-5.95672 4.53047,-9.56431 9.9838,-9.56431 6.04063,0 8.47365,4.11097 8.72535,9.56431 z m 103.94903,20.5549 c -6.7957,0 -11.15837,-5.28555 -11.15837,-14.68207 0,-8.89314 3.60759,-14.68207 11.24227,-14.68207 3.272,0 5.53724,0.50339 8.64144,1.76185 0.83898,-3.10421 2.51693,-6.54401 4.78216,-9.39652 -4.19487,-2.18134 -8.38975,-3.3559 -15.10155,-3.3559 -14.84986,0 -23.49131,10.57109 -23.49131,25.75654 0,15.77273 8.80924,25.75653 23.99469,25.75653 5.53724,0 10.65499,-1.00677 14.76597,-3.27201 -1.84575,-2.34913 -3.85929,-5.62113 -5.11775,-9.39652 -3.77539,1.42626 -5.36944,1.51016 -8.55755,1.51017 z m -198.50154,-40.43861 c -5.28554,-0.0839 -9.98381,0.50339 -14.51427,1.67795 -0.83898,3.10421 -0.75508,7.46688 0,10.65499 5.62113,-1.34236 8.80924,-1.42626 12.41683,-1.42626 6.9635,0 10.3194,2.85251 10.3194,8.64144 v 0.50339 c -2.01354,-0.1678 -4.53047,-0.41949 -6.29232,-0.41949 -11.49396,0 -21.39387,4.11098 -21.39387,15.18545 0,12.50073 8.89314,16.69561 21.81336,16.69561 6.04062,0 12.66853,-1.09067 18.79305,-2.93641 v -28.10567 c -0.1678,-13.50751 -7.38299,-20.13541 -21.14218,-20.471 z m 8.05416,40.43861 c -0.75508,0.16779 -4.11098,0.50338 -5.70503,0.50338 -6.20842,0 -9.56432,-1.84574 -9.56432,-6.20842 0,-4.36267 3.3559,-6.04062 9.56432,-6.04062 2.01354,0 4.44657,0.1678 5.70503,0.33559 z m 52.18426,-51.26139 v 11.82955 c -2.34913,-0.67118 -4.94995,-0.75508 -7.04739,-0.75508 -14.84986,0 -25.00146,9.98381 -25.00146,25.92434 0,16.27612 9.89991,25.33705 25.33705,25.33705 7.04739,0 14.01089,-1.00677 20.2193,-3.10421 v -70.30613 c -3.77538,1.42625 -7.80247,3.3559 -11.15837,6.04062 -1.84574,1.51015 -2.34913,2.93641 -2.34913,5.03386 z m 0,50.59021 c -2.26523,0.67118 -3.85928,0.75507 -5.70503,0.75507 -8.89314,0 -12.41683,-5.87282 -12.41683,-14.34647 0,-9.39653 3.52369,-15.18545 12.24904,-15.18545 2.60082,0 4.19487,0.33559 5.87282,0.75507 z m 96.39826,-18.54136 -5.45334,-2.26523 c -3.18811,-1.34236 -5.03385,-2.34913 -5.03385,-4.44657 0,-3.1881 2.85251,-3.77539 6.544,-3.77539 3.69149,0 7.46688,0.41949 12.66853,2.01354 0.67118,-3.60759 0.67118,-6.96349 0,-10.1516 -3.272,-1.76184 -9.31263,-2.60082 -14.68207,-2.60082 -10.48719,0 -18.37355,5.62113 -18.37355,14.09478 0,7.55078 3.272,11.41007 12.41683,15.10156 l 4.19488,1.76185 c 4.02708,1.67795 5.20164,2.60082 5.20164,5.20164 0,3.85929 -3.85928,4.53047 -7.13129,4.53047 -5.45334,0 -9.56432,-1.09067 -14.76596,-2.93641 -0.83898,3.1881 -0.83898,7.29908 0,10.57108 4.44657,2.34913 10.57109,3.18811 16.9473,3.18811 10.31939,0 18.54135,-5.45334 18.54135,-15.18545 0.0839,-8.05416 -3.4398,-11.82955 -11.07447,-15.10156 z"
   id="path4"
   sodipodi:nodetypes="scccscscssccssssccsccscssccssssssssssssssccscccscsccsssccsssccscccsscsssccccsssccscssscccscsssccccssccssccssccscc"
   style="fill:#ffffff;stroke-width:1" /><path
   class="st0"
   d="m -354.98261,343.08903 v 79.80007 c 0,2.13512 1.60134,3.46957 3.46957,3.46957 h 22.15186 V 324.13985 l -22.15186,12.81072 c -2.13512,1.33445 -3.46957,3.20267 -3.46957,6.13846 z m 22.41875,-195.89716 c -21.61808,0 -45.37128,2.13512 -68.85759,6.13847 23.7532,-30.42544 61.38467,-50.17529 103.28638,-50.17529 30.95922,0 61.91845,11.47626 82.73586,29.09099 3.73645,3.20268 6.67224,3.46957 9.60803,0.53378 2.93579,-2.6689 2.6689,-5.60469 -0.53378,-9.34114 -27.22276,-31.492999 -67.25624,-52.844179 -114.22886,-52.043509 -61.65156,1.06756 -113.96197,40.300349 -133.97871,94.212099 -18.14851,5.60469 -34.96257,12.54383 -49.9084,20.81741 -4.00335,2.40201 -5.60469,5.07091 -4.00335,8.54048 1.33445,3.20268 4.27024,4.27024 8.27359,3.20268 12.81071,-3.73646 25.88831,-6.67225 39.4997,-9.87493 -1.33445,7.20603 -2.40201,14.41206 -2.40201,22.15186 -1.06756,49.90841 25.62142,97.14791 66.45557,123.03623 4.00335,2.6689 7.47292,2.6689 9.87493,-0.53378 2.40201,-3.20268 2.13512,-6.13847 -1.33445,-9.07426 -25.88832,-23.4863 -40.56726,-58.18199 -40.56726,-92.61078 0,-17.34784 3.46957,-34.1619 10.14181,-49.37462 13.61139,-1.06756 28.29033,-2.13512 44.57061,-2.13512 105.42149,0 194.29582,34.69568 194.29582,80.33385 0,22.95252 -29.35789,46.17194 -64.05357,61.65155 -8.27358,3.73646 -9.34114,6.40536 -8.00669,9.87493 1.06756,3.46957 5.0709,4.53713 9.34114,3.20268 60.85089,-20.01674 106.75594,-52.84419 106.75594,-92.34389 0,-53.91176 -87.00609,-95.27969 -196.96471,-95.27969 z m 42.70238,154.26234 -29.35789,16.81407 v 107.8235 h 31.493 c 3.20268,0 5.60469,-2.40201 5.60469,-5.60469 V 305.45756 c 0,-4.27024 -4.27024,-5.87157 -7.7398,-4.00335 z"
   id="path1002"
   sodipodi:nodetypes="ssscccsscscccccccccccscscsscccsscccsssc"
   style="fill:#ffffff;stroke-width:0.999999" /></g>
</svg>
