<svg width="512.562" height="512.562" viewBox="0 0 135.615 135.615" xmlns="http://www.w3.org/2000/svg"><path style="fill:#272cfd;fill-opacity:1;stroke-width:.15875;paint-order:markers stroke fill" d="M86.09 66.957h135.615v135.615H86.09z" transform="translate(-86.09 -66.957)"/><path style="fill:#fff;stroke-width:1" d="M126.696 160.025c-8.75-1.262-15.822-7.584-18.173-16.243-.549-2.024-.579-2.747-.681-16.448-.076-10.232-.022-14.488.189-14.882.283-.53.497-.552 5.114-.548 2.651.002 4.953.091 5.117.198.209.137.366 4.513.529 14.753l.232 14.559.845 1.716c2.14 4.343 6.939 6.914 11.432 6.122 4.496-.792 7.745-3.765 8.881-8.125.316-1.215.406-3.143.406-8.762 0-4.58-.098-7.265-.269-7.37-.147-.092-1.319.5-2.603 1.314-1.285.815-2.504 1.414-2.709 1.333-.485-.193-5.532-7.828-5.532-8.368 0-.227.208-.588.463-.802 1.006-.845 12.832-8.479 13.688-8.837 3.066-1.28 6.834.823 7.536 4.207.214 1.03.276 5.461.21 14.91-.103 14.528-.08 14.272-1.638 18.13-1.092 2.703-2.335 4.508-4.788 6.954-3.65 3.639-7.577 5.579-12.554 6.202-2.527.316-3.426.314-5.695-.013zm33.797-.324c-1.29-.468-2.636-1.65-3.304-2.9l-.595-1.113-.074-21.586c-.08-23.752-.118-23.153 1.502-24.243 1.662-1.119 2.87-.665 5.912 2.22l1.519 1.441 1.126-.7c6.159-3.824 13.432-4.474 20.045-1.792 6.157 2.497 10.878 7.781 12.763 14.286.59 2.036.599 2.27.599 17.145v15.081l-4.993.072c-3.374.05-5.108-.023-5.347-.222-.287-.237-.37-3.047-.432-14.638l-.076-14.344-.989-2c-2.749-5.56-9.1-7.722-14.653-4.987-2.106 1.036-4.329 3.395-5.17 5.485-.59 1.465-.62 1.87-.698 9.534-.06 5.906-.003 8.003.222 8.003.167 0 1.32-.661 2.56-1.47 1.242-.81 2.42-1.409 2.618-1.333.527.203 5.697 8.098 5.605 8.56-.095.47-13.19 9.108-14.472 9.546-1.117.382-2.537.365-3.667-.045z" transform="translate(-86.09 -66.957)"/></svg>