<?xml version="1.0" encoding="UTF-8" standalone="no"?>
<svg
   width="480"
   height="480"
   viewBox="0 0 127.00025 127.00037"
   version="1.1"
   id="svg8"
   sodipodi:docname="nova_futura.svg"
   inkscape:version="1.1.1 (3bf5ae0d25, 2021-09-20)"
   xmlns:inkscape="http://www.inkscape.org/namespaces/inkscape"
   xmlns:sodipodi="http://sodipodi.sourceforge.net/DTD/sodipodi-0.dtd"
   xmlns="http://www.w3.org/2000/svg"
   xmlns:svg="http://www.w3.org/2000/svg">
  <defs
     id="defs12" />
  <sodipodi:namedview
     id="namedview10"
     pagecolor="#ffffff"
     bordercolor="#666666"
     borderopacity="1.0"
     inkscape:pageshadow="2"
     inkscape:pageopacity="0.0"
     inkscape:pagecheckerboard="0"
     showgrid="false"
     inkscape:zoom="0.86476591"
     inkscape:cx="535.40501"
     inkscape:cy="245.73124"
     inkscape:window-width="2560"
     inkscape:window-height="1017"
     inkscape:window-x="-8"
     inkscape:window-y="-8"
     inkscape:window-maximized="1"
     inkscape:current-layer="svg8" />
  <path
     style="fill:#f2f2f2;stroke-width:0.15875;paint-order:markers stroke fill"
     d="M 0,0 H 127.00031 V 127.00031 H 0 Z"
     id="path2" />
  <g
     id="g831"
     transform="translate(-3.3900465,-2.1268453)">
    <path
       style="fill:#2293b8;stroke-width:0.999999"
       d="m 52.947146,107.28035 a 3128.6993,3128.6993 0 0 0 -13.622412,-3.90769 l -1.336666,-0.36345 V 61.707188 c 0,-39.793059 0.02423,-41.300678 0.652853,-41.300678 0.881688,0 56.376866,15.929608 56.732233,16.284975 0.298832,0.298832 0.495361,19.977295 0.201914,20.272089 -0.09423,0.09423 -6.050667,1.484735 -13.237432,3.087926 -7.185419,1.603191 -13.059748,3.074465 -13.055709,3.268302 0.004,0.193837 5.815101,1.673188 12.913024,3.287148 7.097923,1.613959 13.027441,3.056966 13.178203,3.209074 0.14807,0.150762 0.320369,4.804189 0.380943,10.340649 0.09423,8.702461 0.03634,10.087585 -0.425364,10.226232 -1.278783,0.386328 -26.281026,5.843369 -27.244825,5.947018 l -1.068794,0.115764 -0.09692,7.212343 c -0.09557,7.20157 -0.09692,7.21234 -0.889764,7.18676 -0.437479,-0.0135 -6.323923,-1.618 -13.081286,-3.56713 z"
       id="path4" />
    <path
       style="fill:#047195;stroke-width:0.999999"
       d="m 53.225787,106.58846 c -6.620062,-1.91817 -12.125563,-3.5779 -12.234596,-3.68693 -0.251718,-0.25172 0.232873,-0.37287 13.890284,-3.47022 9.367428,-2.124127 11.401367,-2.486225 11.662508,-2.077014 0.174992,0.27191 0.278641,3.217154 0.228835,6.548724 -0.08346,5.76529 -0.121148,6.05739 -0.799576,6.11393 -0.391712,0.0323 -6.12874,-1.51031 -12.747455,-3.42849 z M 67.9318,89.856585 c 0,-3.319454 0.134609,-6.117971 0.300178,-6.218928 0.45767,-0.282678 26.534091,5.676454 26.674084,6.095088 0.0673,0.201913 -0.565357,0.538435 -1.405316,0.749771 -4.078648,1.023027 -24.229588,5.407236 -24.855519,5.407236 -0.686505,0 -0.713427,-0.234219 -0.713427,-6.034513 z m -28.97724,-7.32272 c -0.352676,-0.919378 -0.255757,-11.68943 0.109033,-12.268248 0.208643,-0.328445 5.260512,-1.638189 13.968357,-3.620977 13.618374,-3.102733 13.64395,-3.106772 15.606547,-2.608719 1.080908,0.273256 7.228493,1.692033 13.662795,3.149846 10.918121,2.476803 12.342282,2.8564 11.955955,3.187537 -0.08077,0.07 -12.217096,2.892744 -26.968877,6.272771 -14.751781,3.378682 -27.110216,6.218928 -27.462891,6.310462 -0.386328,0.100956 -0.734965,-0.0673 -0.870919,-0.424018 z M 67.9318,56.534172 c 0,-4.746307 0.106341,-6.232389 0.444209,-6.236427 0.533051,-0.004 26.377945,5.77741 26.598703,5.94971 0.565357,0.438824 -1.990864,1.142829 -13.328965,3.669436 -7.031965,1.568193 -12.99379,2.849669 -13.249546,2.849669 -0.363444,0 -0.464401,-1.346088 -0.464401,-6.232388 z M 38.950521,49.141455 c -0.117109,-0.438825 -0.215374,-6.854281 -0.218066,-14.255074 -0.004,-11.095805 0.08076,-13.487804 0.484592,-13.64395 0.662275,-0.253064 54.764252,15.282139 54.731946,15.716926 -0.01346,0.188452 -11.922303,3.077158 -26.46544,6.418148 -14.543137,3.342337 -26.863882,6.185276 -27.379434,6.318538 -0.776693,0.201914 -0.975914,0.104995 -1.153598,-0.554588 z"
       id="path6" />
  </g>
</svg>
