<svg width="100mm" height="100mm" viewBox="0 0 100 100" xmlns="http://www.w3.org/2000/svg"><path style="fill:#f2f2f2;stroke-width:.15875;paint-order:markers stroke fill" d="M-1.035 31.157h100v100h-100z" transform="translate(1.035 -31.157)"/><g style="stroke-width:.660718"><path style="fill:#c8a976;stroke-width:.660718" d="M43.851 104.316c-2.568-.426-6.498-1.943-8.876-3.427-3.677-2.296-6.738-5.58-9.009-9.665l-.753-1.356.996-1.217c1.663-2.028 5.976-6.232 8.779-8.553l2.645-2.193.152 2.707c.186 3.336.527 4.684 1.965 7.767 2.616 5.61 6.913 10.383 12.666 14.068l2.083 1.334-1.157.239c-1.065.22-1.271.166-2.612-.678-7.47-4.704-13.223-13.274-13.938-20.761-.243-2.543-.552-1.488-.587 2.006-.088 8.59 4.613 16.152 12.012 19.328l1.587.682-2.249-.02c-1.237-.011-2.903-.129-3.704-.261zm12.766-4.048c-3.305-3.538-6.317-8.47-7.768-12.715-.53-1.55-.632-2.371-.632-5.04 0-3.16.009-3.209 1.005-5.223 2.349-4.753 7.785-8.245 16.362-10.51l3.006-.794.606.73c.844 1.015 2.31 4.124 2.84 6.02.286 1.028.488 3.034.572 5.689.11 3.473.048 4.472-.407 6.528-1.554 7.03-5.86 12.865-12.233 16.577-.668.39-1.281.707-1.363.707-.082 0-.977-.886-1.988-1.969z" transform="translate(-22.355 -70.782) scale(1.5135)"/><path style="fill:#014c4b;stroke-width:.660718" d="M23.654 85.528c-3.16-13.13 4.714-26.322 17.86-29.916 1.823-.498 2.87-.603 6.041-.603 2.328 0 4.498.147 5.518.373l1.68.373-2.342.841c-6.68 2.402-13.43 6.986-19.09 12.966-2.57 2.717-5.43 6.572-6.67 8.995-.447.873-.6 1.292-.34.93 3.352-4.644 6.668-8.179 10.661-11.362 7.153-5.702 14.535-9.007 21.573-9.657l1.862-.173 1.889 1.327c1.038.73 1.945 1.418 2.014 1.531.07.114-1.145.224-2.699.245-1.554.022-3.866.234-5.138.473C43.288 64.34 28.64 75.736 24.36 86.85c-.205.534-.305.348-.707-1.323z" transform="translate(-22.355 -70.782) scale(1.5135)"/></g></svg>