<svg xmlns="http://www.w3.org/2000/svg" width="700" height="700" style="fill:none"><path d="M448.818 253.107a13.726 13.726 0 0 0-9.709 4.03c-2.519 2.518-4.03 6.076-4.03 9.728V432.92c0 3.652 1.448 7.147 4.03 9.728a13.726 13.726 0 0 0 19.425 0c2.518-2.518 4.03-6.076 4.03-9.728V266.86a13.75 13.75 0 0 0-4.03-9.728 13.726 13.726 0 0 0-9.716-4.03zM239.512 311.64c0-7.594-6.152-13.751-13.727-13.751-7.574 0-13.726 6.157-13.726 13.751v121.27c0 7.593 6.152 13.751 13.726 13.751 7.575 0 13.727-6.158 13.727-13.751z" style="fill:#5a646e;stroke-width:6.29644823"/><path d="M243.39 266.884a17.63 17.63 0 0 1-5.276 12.24 17.605 17.605 0 0 1-24.657 0 17.63 17.63 0 0 1-5.277-12.24 17.63 17.63 0 0 1 5.157-12.467 17.548 17.548 0 0 1 12.442-5.163c4.678 0 9.149 1.857 12.448 5.163a17.63 17.63 0 0 1 5.157 12.467z" style="fill:#00aeef;stroke-width:6.29644823"/><path d="M410.259 341.774c-13.198-29.883-44.422-51.001-80.047-47.35a78.202 78.202 0 0 0-33.755 11.787 78.328 78.328 0 0 0-24.997 25.59 78.454 78.454 0 0 0-11.025 34.05 78.418 78.418 0 0 0 5.245 35.412 78.39 78.39 0 0 0 20.419 29.379 78.328 78.328 0 0 0 31.337 17.227 78.159 78.159 0 0 0 35.72 1.48c11.793-2.273 23.033-7.26 32.647-14.577a13.663 13.663 0 0 0 3.86-4.64 13.626 13.626 0 0 0 1.486-5.856 13.663 13.663 0 0 0-13.241-14.047 13.6 13.6 0 0 0-8.64 2.745 50.372 50.372 0 0 1-33.333 10.44c-9.76-.504-19.179-3.797-27.074-9.477a51.442 51.442 0 0 1-17.813-22.585 5.352 5.352 0 0 1 2.412-6.737 5.289 5.289 0 0 1 2.506-.63h95.36a23.155 23.155 0 0 0 16.433-6.756 23.198 23.198 0 0 0 5.05-7.53 23.234 23.234 0 0 0 1.782-8.891 51.532 51.532 0 0 0-4.244-19.015zm-71.937-20.476a51.001 51.001 0 0 1 28.63 8.802 51.064 51.064 0 0 1 18.763 23.379 5.415 5.415 0 0 1 .346 2.55 5.352 5.352 0 0 1-2.795 4.137 5.31 5.31 0 0 1-2.494.63h-84.907a5.226 5.226 0 0 1-2.494-.63 5.52 5.52 0 0 1-1.914-1.72 5.185 5.185 0 0 1-.881-2.417 5.415 5.415 0 0 1 .346-2.55 51.064 51.064 0 0 1 18.764-23.379c8.45-5.667 18.423-8.802 28.63-8.802zM561.36 423.464a50.938 50.938 0 0 1-27.597-8.116c-8.23-5.302-14.766-12.864-18.89-21.786a51.127 51.127 0 0 1 7.934-54.697l-20.779-17.737a78.139 78.139 0 0 0-15.048 26.678 78.454 78.454 0 0 0-3.684 30.418c.781 10.282 3.59 20.312 8.186 29.511a78.328 78.328 0 0 0 18.92 24.084 78.312 78.312 0 0 0 26.698 14.986 78.076 78.076 0 0 0 30.393 3.589 78.018 78.018 0 0 0 29.442-8.374 78.265 78.265 0 0 0 23.983-19.035l-20.778-17.73a50.875 50.875 0 0 1-17.504 13.436 50.81 50.81 0 0 1-21.534 4.767z" style="fill:#5a646e;stroke-width:6.29644823"/><path d="M561.36 293.959a77.902 77.902 0 0 0-32.552 7.083 78.076 78.076 0 0 0-26.646 20.035l20.715 17.737a50.929 50.929 0 0 1 34.737-17.44 50.992 50.992 0 0 1 36.93 12.12 51.158 51.158 0 0 1 17.692 34.65 51.127 51.127 0 0 1-11.825 37.066l20.716 17.731a78.488 78.488 0 0 0 17.819-40.146 78.454 78.454 0 0 0-6.561-43.44 78.328 78.328 0 0 0-28.882-33.074c-12.612-7.99-27.22-12.322-42.142-12.322z" style="fill:#00aeef;stroke-width:6.29644823"/><path d="M186.747 413.591a13.73 13.73 0 0 0-8.5-3.35 13.69 13.69 0 0 0-8.708 2.727 50.958 50.958 0 0 1-26.036 10.25 50.908 50.908 0 0 1-27.515-5.037 51.185 51.185 0 0 1-20.734-18.807 51.127 51.127 0 0 1-.088-53.879 51.064 51.064 0 0 1 20.67-18.87 51.026 51.026 0 0 1 27.504-5.126 50.91 50.91 0 0 1 26.067 10.169 13.663 13.663 0 0 0 17.196-.416 13.593 13.593 0 0 0 3.589-4.804 13.904 13.904 0 0 0 1.196-5.887 13.562 13.562 0 0 0-1.448-5.824 13.585 13.585 0 0 0-3.81-4.634 78.202 78.202 0 0 0-39.995-15.741 78.134 78.134 0 0 0-42.268 7.776c-13.09 6.491-24.096 16.54-31.79 28.97a78.352 78.352 0 0 0-11.725 41.399 78.505 78.505 0 0 0 11.87 41.355 78.237 78.237 0 0 0 74.178 36.475 78.202 78.202 0 0 0 39.938-15.873 13.474 13.474 0 0 0 5.157-10.339 13.474 13.474 0 0 0-4.741-10.534z" style="fill:#5a646e;stroke-width:6.29644823;fill-opacity:1"/></svg>