<?xml version="1.0" encoding="UTF-8" standalone="no"?>
<!-- Created with Inkscape (http://www.inkscape.org/) -->

<svg
   width="100mm"
   height="100mm"
   viewBox="0 0 100 99.999999"
   version="1.1"
   id="svg2477"
   inkscape:version="1.1.1 (3bf5ae0d25, 2021-09-20)"
   sodipodi:docname="mercado-pago-logo.svg"
   xmlns:inkscape="http://www.inkscape.org/namespaces/inkscape"
   xmlns:sodipodi="http://sodipodi.sourceforge.net/DTD/sodipodi-0.dtd"
   xmlns="http://www.w3.org/2000/svg"
   xmlns:svg="http://www.w3.org/2000/svg"
   xmlns:rdf="http://www.w3.org/1999/02/22-rdf-syntax-ns#"
   xmlns:cc="http://creativecommons.org/ns#"
   xmlns:dc="http://purl.org/dc/elements/1.1/">
  <defs
     id="defs2471" />
  <sodipodi:namedview
     id="base"
     pagecolor="#ffffff"
     bordercolor="#666666"
     borderopacity="1.0"
     inkscape:pageopacity="0.0"
     inkscape:pageshadow="2"
     inkscape:zoom="1.4"
     inkscape:cx="134.28571"
     inkscape:cy="240.35714"
     inkscape:document-units="mm"
     inkscape:current-layer="layer1"
     showgrid="false"
     fit-margin-top="0"
     fit-margin-left="0"
     fit-margin-right="0"
     fit-margin-bottom="0"
     inkscape:window-width="2560"
     inkscape:window-height="1017"
     inkscape:window-x="-8"
     inkscape:window-y="-8"
     inkscape:window-maximized="1"
     inkscape:pagecheckerboard="0" />
  <metadata
     id="metadata2474">
    <rdf:RDF>
      <cc:Work
         rdf:about="">
        <dc:format>image/svg+xml</dc:format>
        <dc:type
           rdf:resource="http://purl.org/dc/dcmitype/StillImage" />
      </cc:Work>
    </rdf:RDF>
  </metadata>
  <g
     inkscape:label="Layer 1"
     inkscape:groupmode="layer"
     id="layer1"
     transform="translate(11.411371,34.590248)">
    <rect
       style="fill:#f2f2f2;stroke-width:0.15875;paint-order:markers stroke fill"
       id="rect1072"
       width="100"
       height="100"
       x="-11.411371"
       y="-34.590248" />
    <g
       id="g1202"
       transform="matrix(1.3330261,0,0,1.3330261,-23.832683,-31.053289)"
       style="stroke-width:0.750173">
      <g
         id="g1222"
         transform="matrix(2.4469912,0,0,-2.4469912,79.17355,33.624475)"
         inkscape:export-filename="C:\Users\suitedoalex\sites\mercado-pago-logo-7.png"
         inkscape:export-xdpi="7.1889887"
         inkscape:export-ydpi="7.1889887"
         style="stroke-width:0.750173">
        <path
           d="m 0,0 c 0,4.763 -5.919,8.646 -13.219,8.646 -7.301,0 -13.218,-3.883 -13.218,-8.646 0,-0.123 -10e-4,-0.464 -10e-4,-0.507 0,-5.052 5.172,-9.145 13.217,-9.145 8.096,0 13.221,4.091 13.221,9.145 z"
           style="fill:#28316b;fill-opacity:1;fill-rule:nonzero;stroke:none;stroke-width:0.750173"
           id="path1224"
           inkscape:connector-curvature="0" />
      </g>
      <g
         id="g1226"
         transform="matrix(2.4469912,0,0,-2.4469912,77.9334,33.614937)"
         inkscape:export-filename="C:\Users\suitedoalex\sites\mercado-pago-logo-7.png"
         inkscape:export-xdpi="7.1889887"
         inkscape:export-ydpi="7.1889887"
         style="stroke-width:0.750173">
        <path
           d="m 0,0 c 0,-4.49 -5.689,-8.131 -12.71,-8.131 -7.019,0 -12.709,3.641 -12.709,8.131 0,4.491 5.69,8.132 12.709,8.132 C -5.689,8.132 0,4.491 0,0"
           style="fill:#50b4e9;fill-opacity:1;fill-rule:nonzero;stroke:none;stroke-width:0.750173"
           id="path1228"
           inkscape:connector-curvature="0" />
      </g>
      <g
         id="g1230"
         transform="matrix(2.4469912,0,0,-2.4469912,36.506585,27.337191)"
         inkscape:export-filename="C:\Users\suitedoalex\sites\mercado-pago-logo-7.png"
         inkscape:export-xdpi="7.1889887"
         inkscape:export-ydpi="7.1889887"
         style="stroke-width:0.750173">
        <path
           d="m 0,0 c -0.007,-0.013 -0.134,-0.145 -0.052,-0.249 0.201,-0.257 0.821,-0.403 1.448,-0.263 0.373,0.084 0.85,0.464 1.313,0.831 C 3.211,0.718 3.71,1.118 4.21,1.276 4.74,1.445 5.079,1.373 5.304,1.306 5.55,1.231 5.84,1.07 6.301,0.723 c 0.87,-0.654 4.367,-3.706 4.97,-4.234 0.488,0.22 2.65,1.152 5.589,1.798 -0.255,1.567 -1.209,3.001 -2.654,4.175 C 12.192,1.616 9.73,1.174 7.323,2.351 7.311,2.354 6.008,2.972 4.722,2.941 2.812,2.897 1.984,2.07 1.108,1.195 Z"
           style="fill:#ffffff;fill-opacity:1;fill-rule:nonzero;stroke:none;stroke-width:0.750173"
           id="path1232"
           inkscape:connector-curvature="0" />
      </g>
      <g
         id="g1234"
         transform="matrix(2.4469912,0,0,-2.4469912,63.741344,36.740486)"
         inkscape:export-filename="C:\Users\suitedoalex\sites\mercado-pago-logo-7.png"
         inkscape:export-xdpi="7.1889887"
         inkscape:export-ydpi="7.1889887"
         style="stroke-width:0.750173">
        <path
           d="m 0,0 c -0.041,0.036 -4.111,3.599 -5.034,4.292 -0.533,0.4 -0.83,0.502 -1.142,0.542 C -6.339,4.854 -6.562,4.825 -6.72,4.781 -7.148,4.665 -7.709,4.29 -8.207,3.896 -8.723,3.484 -9.209,3.098 -9.66,2.996 c -0.576,-0.129 -1.28,0.024 -1.602,0.241 -0.13,0.087 -0.221,0.189 -0.265,0.291 -0.119,0.276 0.1,0.495 0.135,0.533 l 1.124,1.214 c 0.13,0.13 0.262,0.261 0.397,0.39 -0.362,-0.048 -0.697,-0.141 -1.024,-0.231 -0.407,-0.115 -0.798,-0.223 -1.195,-0.223 -0.165,0 -1.051,0.144 -1.219,0.19 -1.016,0.28 -1.909,0.549 -3.241,1.172 -1.597,-1.189 -2.665,-2.676 -2.973,-4.313 0.229,-0.061 0.598,-0.17 0.753,-0.204 3.615,-0.804 4.74,-1.632 4.945,-1.805 0.221,0.246 0.539,0.402 0.895,0.402 0.401,-0.002 0.761,-0.202 0.98,-0.512 0.207,0.164 0.492,0.302 0.861,0.302 0.167,0 0.341,-0.03 0.517,-0.09 0.408,-0.139 0.618,-0.411 0.727,-0.658 0.137,0.063 0.305,0.109 0.503,0.108 0.195,0 0.398,-0.044 0.601,-0.132 0.666,-0.286 0.77,-0.942 0.71,-1.435 0.048,0.006 0.094,0.008 0.144,0.008 0.789,-10e-4 1.433,-0.642 1.432,-1.433 0,-0.245 -0.063,-0.474 -0.171,-0.677 0.215,-0.12 0.763,-0.394 1.243,-0.333 0.385,0.049 0.531,0.18 0.583,0.254 0.036,0.05 0.074,0.11 0.038,0.153 l -1.018,1.133 c 0,0 -0.169,0.158 -0.114,0.22 0.058,0.062 0.162,-0.028 0.236,-0.089 0.517,-0.434 1.152,-1.087 1.152,-1.087 0.01,-0.008 0.053,-0.09 0.286,-0.132 0.202,-0.036 0.559,-0.016 0.807,0.187 0.062,0.051 0.125,0.116 0.177,0.181 -0.004,-0.003 -0.008,-0.007 -0.012,-0.009 0.261,0.334 -0.029,0.672 -0.029,0.672 l -1.19,1.336 c 0,0 -0.171,0.158 -0.113,0.222 0.052,0.054 0.162,-0.029 0.236,-0.091 0.377,-0.314 0.91,-0.85 1.42,-1.35 0.1,-0.072 0.549,-0.35 1.143,0.04 0.36,0.237 0.432,0.527 0.423,0.747 -0.026,0.29 -0.252,0.497 -0.252,0.497 l -1.626,1.634 c 0,0 -0.172,0.147 -0.112,0.221 0.05,0.063 0.161,-0.027 0.235,-0.089 0.518,-0.433 1.921,-1.719 1.921,-1.719 0.019,-0.014 0.505,-0.359 1.102,0.023 0.215,0.137 0.352,0.343 0.363,0.582 C 0.294,-0.246 0,0 0,0"
           style="fill:#ffffff;fill-opacity:1;fill-rule:nonzero;stroke:none;stroke-width:0.750173"
           id="path1236"
           inkscape:connector-curvature="0" />
      </g>
      <g
         id="g1238"
         transform="matrix(2.4469912,0,0,-2.4469912,44.440247,41.81139)"
         inkscape:export-filename="C:\Users\suitedoalex\sites\mercado-pago-logo-7.png"
         inkscape:export-xdpi="7.1889887"
         inkscape:export-ydpi="7.1889887"
         style="stroke-width:0.750173">
        <path
           d="m 0,0 c -0.252,0.003 -0.527,-0.147 -0.564,-0.125 -0.02,0.013 0.016,0.114 0.04,0.173 0.023,0.057 0.355,1.056 -0.454,1.404 -0.62,0.266 -0.998,-0.033 -1.128,-0.169 -0.035,-0.035 -0.05,-0.032 -0.054,0.013 -0.012,0.18 -0.092,0.667 -0.627,0.83 -0.765,0.233 -1.256,-0.3 -1.381,-0.492 -0.055,0.435 -0.423,0.773 -0.874,0.774 -0.49,0 -0.888,-0.397 -0.888,-0.887 0,-0.489 0.397,-0.886 0.887,-0.886 0.238,-0.001 0.454,0.094 0.613,0.247 0.005,-0.005 0.007,-0.013 0.004,-0.03 -0.037,-0.219 -0.105,-1.016 0.73,-1.341 0.335,-0.13 0.619,-0.033 0.855,0.133 0.07,0.049 0.081,0.028 0.071,-0.038 -0.03,-0.205 0.008,-0.644 0.624,-0.893 0.468,-0.191 0.745,0.004 0.926,0.172 0.079,0.072 0.101,0.059 0.106,-0.051 0.021,-0.594 0.514,-1.064 1.113,-1.065 0.616,0 1.116,0.498 1.116,1.114 C 1.115,-0.5 0.616,-0.007 0,0"
           style="fill:#ffffff;fill-opacity:1;fill-rule:nonzero;stroke:none;stroke-width:0.750173"
           id="path1240"
           inkscape:connector-curvature="0" />
      </g>
      <g
         id="g1242"
         transform="matrix(2.4469912,0,0,-2.4469912,44.440247,47.075603)"
         inkscape:export-filename="C:\Users\suitedoalex\sites\mercado-pago-logo-7.png"
         inkscape:export-xdpi="7.1889887"
         inkscape:export-ydpi="7.1889887"
         style="stroke-width:0.750173">
        <path
           d="m 0,0 c -0.559,0 -1.013,0.435 -1.033,0.987 -0.002,0.048 -0.007,0.174 -0.113,0.174 -0.044,0 -0.083,-0.026 -0.126,-0.065 -0.124,-0.115 -0.28,-0.23 -0.508,-0.23 -0.104,0 -0.216,0.024 -0.335,0.072 -0.59,0.239 -0.598,0.645 -0.574,0.808 0.006,0.043 0.008,0.088 -0.021,0.123 l -0.037,0.032 h -0.036 c -0.03,0 -0.062,-0.011 -0.103,-0.041 -0.171,-0.12 -0.335,-0.177 -0.501,-0.177 -0.092,0 -0.185,0.017 -0.28,0.054 -0.776,0.302 -0.715,1.035 -0.677,1.256 0.005,0.045 -0.006,0.079 -0.034,0.103 l -0.055,0.046 -0.051,-0.05 c -0.152,-0.147 -0.35,-0.226 -0.558,-0.226 -0.444,0 -0.807,0.362 -0.807,0.807 0,0.445 0.364,0.806 0.808,0.806 0.402,0 0.745,-0.302 0.796,-0.705 l 0.028,-0.216 0.118,0.183 c 0.014,0.022 0.34,0.515 0.94,0.515 0.113,0 0.231,-0.02 0.349,-0.056 0.479,-0.145 0.559,-0.578 0.572,-0.76 0.009,-0.105 0.083,-0.11 0.098,-0.11 0.04,0 0.072,0.026 0.093,0.049 0.09,0.095 0.286,0.251 0.594,0.251 0.141,-10e-4 0.29,-0.033 0.444,-0.1 0.76,-0.326 0.415,-1.292 0.411,-1.301 -0.065,-0.16 -0.067,-0.231 -0.006,-0.271 l 0.03,-0.015 h 0.022 c 0.034,0 0.076,0.015 0.147,0.039 C -0.302,2.018 -0.146,2.071 0,2.071 H 0.001 C 0.572,2.064 1.037,1.6 1.037,1.034 1.036,0.464 0.571,0 0,0 M 8.045,4.649 C 6.792,5.744 3.894,8.264 3.108,8.853 2.66,9.19 2.354,9.369 2.086,9.448 1.965,9.484 1.798,9.526 1.583,9.526 1.384,9.526 1.17,9.49 0.945,9.419 0.437,9.259 -0.067,8.857 -0.557,8.469 L -0.581,8.449 C -1.037,8.087 -1.507,7.712 -1.863,7.633 -2.019,7.598 -2.179,7.58 -2.338,7.58 c -0.399,0 -0.757,0.115 -0.891,0.287 -0.023,0.028 -0.008,0.073 0.043,0.14 l 0.007,0.009 1.103,1.189 c 0.864,0.863 1.68,1.68 3.559,1.723 0.031,10e-4 0.063,0.002 0.094,0.002 1.169,-0.002 2.338,-0.525 2.469,-0.585 1.097,-0.536 2.228,-0.808 3.366,-0.809 1.186,0 2.409,0.294 3.695,0.886 -0.144,0.121 -0.294,0.238 -0.447,0.354 -1.13,-0.49 -2.206,-0.738 -3.245,-0.738 -1.061,0.002 -2.121,0.257 -3.149,0.759 -0.055,0.025 -1.345,0.635 -2.689,0.635 -0.035,0 -0.07,0 -0.105,-0.001 -1.578,-0.037 -2.467,-0.598 -3.065,-1.088 -0.582,-0.015 -1.083,-0.155 -1.529,-0.28 -0.399,-0.11 -0.742,-0.206 -1.077,-0.206 -0.139,0 -0.387,0.012 -0.409,0.013 -0.386,0.012 -2.329,0.488 -3.875,1.074 -0.158,-0.112 -0.31,-0.227 -0.457,-0.345 1.615,-0.661 3.58,-1.174 4.2,-1.213 0.172,-0.013 0.356,-0.032 0.54,-0.032 0.41,0 0.819,0.115 1.216,0.225 0.234,0.067 0.492,0.138 0.763,0.191 C -2.293,9.698 -2.365,9.626 -2.438,9.553 L -3.559,8.341 c -0.087,-0.089 -0.28,-0.327 -0.153,-0.62 0.05,-0.118 0.151,-0.231 0.295,-0.327 0.267,-0.18 0.745,-0.301 1.189,-0.301 0.168,-0.001 0.329,0.016 0.475,0.05 0.47,0.104 0.962,0.497 1.484,0.912 C 0.147,8.386 0.738,8.805 1.19,8.929 1.317,8.963 1.473,8.984 1.598,8.984 1.635,8.983 1.67,8.983 1.702,8.979 2.001,8.94 2.291,8.839 2.807,8.451 3.727,7.76 7.798,4.198 7.838,4.163 7.841,4.161 8.1,3.938 8.082,3.564 8.072,3.357 7.957,3.173 7.757,3.045 7.583,2.935 7.403,2.879 7.223,2.879 6.95,2.879 6.763,3.007 6.751,3.016 6.735,3.028 5.341,4.307 4.827,4.736 4.746,4.804 4.667,4.865 4.587,4.865 4.543,4.865 4.505,4.847 4.479,4.815 4.398,4.715 4.489,4.577 4.596,4.486 L 6.226,2.85 C 6.228,2.848 6.429,2.659 6.45,2.407 6.463,2.136 6.333,1.909 6.063,1.732 5.871,1.605 5.677,1.541 5.486,1.541 5.235,1.541 5.061,1.655 5.021,1.683 L 4.788,1.912 C 4.36,2.333 3.919,2.768 3.597,3.037 3.518,3.103 3.434,3.163 3.354,3.163 3.314,3.163 3.278,3.147 3.251,3.119 3.214,3.078 3.188,3.005 3.28,2.883 3.318,2.832 3.362,2.791 3.362,2.791 L 4.552,1.456 C 4.562,1.443 4.796,1.164 4.578,0.886 L 4.536,0.832 C 4.5,0.793 4.462,0.758 4.426,0.726 4.223,0.559 3.952,0.542 3.845,0.542 3.787,0.542 3.731,0.547 3.684,0.556 3.566,0.576 3.487,0.609 3.45,0.654 L 3.436,0.67 C 3.37,0.736 2.771,1.349 2.275,1.762 2.21,1.816 2.128,1.886 2.044,1.886 2.002,1.886 1.965,1.869 1.937,1.838 1.838,1.73 1.985,1.569 2.048,1.511 L 3.063,0.393 C 3.062,0.383 3.048,0.359 3.023,0.324 2.987,0.273 2.864,0.15 2.497,0.104 2.453,0.099 2.407,0.097 2.362,0.097 c -0.38,0 -0.784,0.184 -0.993,0.295 0.096,0.2 0.145,0.42 0.145,0.642 0,0.835 -0.678,1.514 -1.513,1.514 -0.018,0 -0.036,0 -0.055,-10e-4 0.029,0.381 -0.025,1.103 -0.766,1.42 -0.213,0.093 -0.426,0.139 -0.633,0.139 -0.161,0 -0.317,-0.027 -0.464,-0.084 -0.152,0.299 -0.407,0.516 -0.74,0.629 -0.184,0.064 -0.366,0.096 -0.543,0.096 -0.309,0 -0.592,-0.09 -0.845,-0.27 -0.243,0.301 -0.61,0.48 -0.996,0.48 -0.337,0 -0.662,-0.135 -0.903,-0.374 -0.315,0.242 -1.568,1.037 -4.919,1.798 -0.162,0.036 -0.534,0.143 -0.763,0.21 -0.038,-0.181 -0.066,-0.364 -0.086,-0.549 0,0 0.618,-0.148 0.74,-0.176 3.423,-0.761 4.555,-1.551 4.746,-1.7 -0.065,-0.156 -0.098,-0.324 -0.099,-0.493 0,-0.708 0.575,-1.283 1.283,-1.284 0.079,0 0.157,0.007 0.235,0.021 0.107,-0.52 0.447,-0.915 0.968,-1.117 0.151,-0.059 0.306,-0.089 0.457,-0.089 0.098,0 0.195,0.012 0.292,0.036 0.096,-0.243 0.313,-0.548 0.796,-0.744 0.17,-0.068 0.339,-0.103 0.504,-0.103 0.135,0 0.267,0.023 0.392,0.069 0.232,-0.565 0.783,-0.939 1.398,-0.939 0.407,-0.001 0.798,0.165 1.084,0.459 0.244,-0.135 0.76,-0.38 1.28,-0.381 0.068,0 0.131,0.003 0.195,0.011 0.517,0.066 0.757,0.268 0.868,0.425 0.02,0.028 0.038,0.058 0.053,0.087 0.123,-0.035 0.256,-0.063 0.411,-0.063 0.282,0 0.553,0.095 0.828,0.295 0.268,0.195 0.46,0.473 0.487,0.71 10e-4,0.003 0.002,0.007 0.002,0.011 0.091,-0.019 0.185,-0.028 0.276,-0.028 0.292,0 0.578,0.09 0.851,0.269 0.527,0.346 0.619,0.797 0.611,1.093 0.092,-0.018 0.186,-0.029 0.28,-0.029 0.273,0 0.541,0.082 0.796,0.245 C 8.35,2.836 8.546,3.156 8.576,3.528 8.597,3.781 8.534,4.036 8.4,4.256 9.284,4.637 11.303,5.373 13.682,5.909 13.667,6.094 13.641,6.276 13.607,6.457 10.73,5.818 8.583,4.89 8.045,4.649"
           style="fill:#28316b;fill-opacity:1;fill-rule:nonzero;stroke:none;stroke-width:0.750173"
           id="path1244"
           inkscape:connector-curvature="0" />
      </g>
    </g>
  </g>
</svg>
