<?xml version="1.0" encoding="UTF-8" standalone="no"?>
<svg
   class="css-10xwtma ek7myuo1"
   width="982.677"
   height="982.677"
   style="fill:currentColor"
   version="1.1"
   id="svg8"
   sodipodi:docname="sumup.svg"
   inkscape:version="1.1.1 (3bf5ae0d25, 2021-09-20)"
   xmlns:inkscape="http://www.inkscape.org/namespaces/inkscape"
   xmlns:sodipodi="http://sodipodi.sourceforge.net/DTD/sodipodi-0.dtd"
   xmlns="http://www.w3.org/2000/svg"
   xmlns:svg="http://www.w3.org/2000/svg">
  <defs
     id="defs12" />
  <sodipodi:namedview
     id="namedview10"
     pagecolor="#ffffff"
     bordercolor="#666666"
     borderopacity="1.0"
     inkscape:pageshadow="2"
     inkscape:pageopacity="0.0"
     inkscape:pagecheckerboard="0"
     showgrid="false"
     inkscape:zoom="0.61739271"
     inkscape:cx="205.70376"
     inkscape:cy="493.2031"
     inkscape:window-width="2560"
     inkscape:window-height="1017"
     inkscape:window-x="-8"
     inkscape:window-y="-8"
     inkscape:window-maximized="1"
     inkscape:current-layer="g6" />
  <g
     style="fill:#212933;fill-opacity:1;fill-rule:evenodd"
     id="g6">
    <path
       style="fill:#212933;fill-opacity:1;stroke-width:.6;paint-order:markers stroke fill"
       d="M368.395-2469.678h982.677v982.677H368.395z"
       transform="translate(-368.395 2469.678)"
       id="path2" />
    <path
       d="M 653.50847,808.69034 C 540.71597,921.48283 361.08279,925.66087 242.02324,823.31083 l -2.08902,-2.0877 c -6.26706,-6.26706 -8.35476,-18.79985 0,-27.15329 L 640.97567,395.11477 c 8.35608,-6.26574 18.79985,-6.26574 27.15329,0 104.43906,121.14857 100.26234,300.78175 -14.62049,413.57557 z M 737.05866,171.61747 336.0172,570.57123 c -8.35475,6.26573 -18.79853,6.26573 -27.15328,0 C 204.42618,451.51167 208.60157,271.87849 321.39539,159.08468 434.18921,46.29218 613.82239,42.115463 732.88194,144.46419 c 0,0 2.0877,0 2.0877,2.08769 10.44509,6.26706 10.44509,18.79985 2.08902,25.06559 z"
       style="fill:#ffffff;fill-opacity:1;fill-rule:nonzero;stroke-width:15.808"
       id="path4" />
  </g>
</svg>
