<svg enable-background="new 0 0 140 140" height="512" viewBox="0 0 140 140" width="512" xmlns="http://www.w3.org/2000/svg"><circle cx="70" cy="70" fill="#de594e" r="64"/><path d="m103.8307877 38.2082939-1.7900391-1.2299805c-.0699463-.0500488-.1699829-.0300293-.2199707.0400391l-1.7299805 2.5100098-.8699951-.6000977c-.1500244-.1000977-.3600464-.0600586-.460022.0900879l-.8599854 1.2600098-2.2600098-1.5500488c-.2700195-.1901855-.6500244-.1201172-.8400269.1599121l-9.1099852 13.2700195c-.210022.3100586-.1300049.7399902.1799927.9599609l1.3500366 1.3500977-.3700562.5500488h-39.7699584l-5.4899902-5.4899902h-4.9300537c-4.25 0-7.6899433 3.4399414-7.6899433 7.6899414v33.6699181c0 .5400391.0499878 1.0700684.1699829 1.5800781.289978 1.4199219.9699707 2.6799316 1.9199829 3.6899414.1199951.1298828.2399902.25.3699951.3701172l37.4365234 37.4428787c.3782959.0065918.7528076.0288086 1.1326904.0288086 35.3463135 0 63.9999924-28.6538162 63.9999924-64.0000076 0-.5583496-.027832-1.1098633-.0420532-1.6645508z" opacity=".1"/><path d="m107.8171844 55.0154991v43.5752754h-71.1487197c-3.7142906 0-6.8164253-2.6249237-7.5323067-6.1211853-.1141739-.5086212-.1660366-1.0375061-.1660366-1.577034l7.7119045-22.5078888 4.9042168-13.3691673z" fill="#e1e6e9"/><g fill="#d5d6db"><path d="m41.5862389 49.5270462v36.8314896h-4.9281578c-3.703907 0-6.8060417 2.6145325-7.5219231 6.1110535-.1141739-.5086212-.1660366-1.0375061-.1660366-1.577034v-33.6774216c0-4.2434959 3.4445286-7.6880875 7.6879597-7.6880875z"/><path d="m46.494167 79.072685h57.820046v1.945325h-57.820046z"/><path d="m46.494167 85.838089h57.820046v1.945325h-57.820046z"/><path d="m46.494167 92.6035h57.820046v1.945325h-57.820046z"/><path d="m70.595245 60.425942h33.718967v12.754019h-33.718967z"/></g><path d="m103.8322449 38.2045288-1.78685-1.2253914c-.0723267-.0495987-.1711578-.0312309-.2208023.0411568l-1.8440399 2.6621513 2.0488129 1.4050407 1.8440399-2.6621552c.0496368-.0723876.031166-.1712035-.0411606-.2208022z" fill="#293b44"/><path d="m97.2625046 39.8385963-26.7811356 39.0519524 5.6004257 3.8406754 25.8238526-37.6560517z" fill="#4abba4"/><path d="m103.001709 41.5223656-3.7771378-2.5902901c-.1528854-.104847-.3618088-.0660172-.4667435.0869942l-.8605499 1.2548447 4.3308792 2.9700356.8605499-1.2548409c.1049348-.1530152.0658799-.3618966-.0869979-.4667435z" fill="#344d5b"/><path d="m95.6425934 38.727623c-.2767258-.1896744-.6549835-.1191711-.8446808.157444l-9.1021729 13.272686c-.2159348.3148727-.1356964.7453308.1792145.9614868.3149796.2159119.7454376.1356773.9614868-.1792145l8.4530869-12.3262024 6.5807037 4.5129242.9926987-1.4475441z" fill="#feda6f"/><path d="m68.7341919 87.4418793 1.7472-8.5513687 4.3499298.0694427 1.2505341 3.7712555z" fill="#344d5b"/><path d="m70.875076 77.620354h6.790886v3.497017h-6.790886z" fill="#41a38e" transform="matrix(.825 .566 -.566 .825 57.908 -28.092)"/><path d="m58.3767548 75.3256836v-1.6932602c-.8466263-.1066132-1.5349083-.2963181-2.0648346-.5691223-.5299263-.2727966-.9877319-.7133636-1.3734207-1.3216782-.385685-.6083221-.6098862-1.3514709-.6725998-2.2294617l1.7026672-.3198318c.1316986.9093399.3637352 1.5772324.6961174 2.003685.4766197.6020508 1.0473099.937561 1.7120705 1.006546v-5.3902054c-.6961174-.1316986-1.4079132-.4013672-2.1353874-.8089981-.5393333-.3010254-.9548073-.718071-1.2464256-1.2511292-.2916183-.5330658-.4374237-1.1382484-.4374237-1.8155518 0-1.2040977.4264488-2.179287 1.2793503-2.9255753.5706902-.5017052 1.4173203-.8090019 2.5398865-.9218864v-.8090019h.9971428v.8090019c.9846001.0940704 1.765377.3825531 2.3423424.8654442.7400169.6145897 1.1852798 1.4580841 1.3357925 2.5304794l-1.7497026.2633974c-.1003418-.6647606-.3088608-1.174305-.6255646-1.5286369-.3167-.3543282-.7509918-.5879364-1.3028679-.7008209v4.8822289c.8529015.2132263 1.4173203.3794174 1.6932602.4985733.5267906.2320404.9563751.5142441 1.2887573.8466263.3323784.3323822.5879364.727478.7666702 1.1852798.17873.4578094.2680969.9532471.2680969 1.4863052 0 1.1727448-.3731422 2.1510696-1.1194305 2.9349823-.7462883.7839203-1.7120743 1.2040939-2.8973541 1.2605362v1.7120743h-.9971427zm0-14.8254204c-.6584892.1003418-1.1774406.363739-1.5568542.7901878-.3794174.4264488-.5691261.9312935-.5691261 1.5145264 0 .5769615.1614876 1.0598526.4844627 1.4486771.3229713.3888245.8701439.6992493 1.6415176.9312897zm.9971428 11.7022972c.6584892-.0815277 1.2025261-.3668671 1.6321144-.8560333.4295845-.4891663.6443787-1.0943451.6443787-1.8155518 0-.6145859-.1520805-1.1084518-.4562416-1.4815979-.3041573-.3731461-.9109077-.7070923-1.8202515-1.0018463z" fill="#4abba4"/></svg>