<?xml version="1.0" encoding="iso-8859-1"?>
<!-- Generator: Adobe Illustrator 19.0.0, SVG Export Plug-In . SVG Version: 6.00 Build 0)  -->
<svg version="1.1" id="Layer_1" xmlns="http://www.w3.org/2000/svg" xmlns:xlink="http://www.w3.org/1999/xlink" x="0px" y="0px"
	 viewBox="0 0 491.52 491.52" style="enable-background:new 0 0 491.52 491.52;" xml:space="preserve">
<circle style="fill:#EA8953;" cx="245.76" cy="245.76" r="245.76"/>
<path style="opacity:0.1;enable-background:new    ;" d="M376.934,105.472l-7.219,11.725c-3.226,0.307-5.427,1.075-5.734,2.048
	h-0.051l-1.075,1.587l-2.304,3.891l-1.28-1.28l-2.509-1.485l-33.075,53.965l3.891,3.891l-17.049,28.467l-0.461,0.768l-2.406,3.994
	l-0.154,0.307l-2.918,4.813l-0.563,0.973l-2.048,3.43l-0.768,1.331l-2.048,3.379l-0.563,0.922l-5.12,8.602c0,0-0.051,0-0.051-0.051
	l-0.768,1.382l-5.325,8.755l-153.037,31.027l-4.864-4.864l-1.485-1.485c-6.861-4.864-25.139,0.87-23.04,9.523l7.014,20.327
	l26.778,78.285c0.665,1.638,1.536,2.918,2.509,3.891l0.768,0.768l107.078,107.078C383.26,489.664,491.52,380.384,491.52,245.76
	c0-11.242-0.823-22.286-2.285-33.128L386.355,109.722C384.563,107.059,378.061,103.577,376.934,105.472z"/>
<polygon style="fill:#FFFFFF;" points="370.368,332.156 373.129,336.674 160.219,383.592 162.323,379.697 367.608,332.156 "/>
<polygon style="fill:#E1E6E9;" points="377.34,323.175 176.021,369.016 167.459,376.586 168.198,381.167 384.826,330.611 
	386.332,325.049 "/>
<polygon style="fill:#EBF0F3;" points="329.975,238.219 127.973,279.172 167.221,376.818 386.332,325.049 "/>
<polygon style="fill:#44C4A1;" points="376.253,309.519 160.163,359.259 135.754,298.53 341.207,255.525 "/>
<g>
	<polygon style="fill:#64798A;" points="340.306,329.125 211.931,359.163 210.32,355.611 338.326,325.821 	"/>
	<polygon style="fill:#64798A;" points="251.602,270.407 185.187,284.225 183.785,281.184 250.017,267.475 	"/>
</g>
<polygon style="fill:#E56353;" points="163.504,275.621 146.971,278.992 143.339,292.074 156.667,301.939 173.557,298.362 
	176.757,285.13 "/>
<g>
	<polygon style="fill:#D5D6DB;" points="285.742,263.304 277.901,264.936 273.41,257.096 281.195,255.498 	"/>
	<polygon style="fill:#D5D6DB;" points="295.08,261.362 287.288,262.983 282.73,255.183 290.467,253.596 	"/>
	<polygon style="fill:#D5D6DB;" points="304.361,259.431 296.616,261.042 291.992,253.283 299.683,251.705 	"/>
	<polygon style="fill:#D5D6DB;" points="313.585,257.512 305.887,259.113 301.198,251.394 308.842,249.826 	"/>
	<polygon style="fill:#D5D6DB;" points="322.752,255.604 315.102,257.196 310.349,249.517 317.946,247.958 	"/>
	<polygon style="fill:#D5D6DB;" points="331.864,253.709 324.26,255.291 319.444,247.651 326.995,246.101 	"/>
</g>
<g>
	<polygon style="fill:#EBF0F3;" points="279.014,288.287 153.003,315.483 151.656,312.221 277.31,285.244 	"/>
	<polygon style="fill:#EBF0F3;" points="285.713,300.256 158.301,328.318 156.919,324.969 283.966,297.134 	"/>
	<polygon style="fill:#EBF0F3;" points="292.586,312.536 163.743,341.501 162.323,338.061 290.793,309.333 	"/>
	<polygon style="fill:#EBF0F3;" points="364.386,304.527 306.798,317.632 304.95,314.398 362.384,301.398 	"/>
	<polygon style="fill:#EBF0F3;" points="351.8,284.86 295.186,297.312 287.089,283.144 343.017,271.137 	"/>
</g>
<polygon style="fill:#E56353;" points="167.459,376.586 161.549,360.48 144.261,362.106 149.58,380.723 152.24,381.314 "/>
<g>
	<path style="fill:#F6C358;" d="M162.14,364.322l5.319,12.264c0,0,4.919,0.134,2.064-6.738c-2.854-6.871-8.27-13.21-8.27-13.21
		h-5.172"/>
	<path style="fill:#F6C358;" d="M146.917,368.305l5.322,13.009l0.887,4.433c0,0-10.102,4.154-14.434-6.05l-3.297-20.251l7.831-2.216
		"/>
</g>
<path style="fill:#FCD462;" d="M169.523,369.848l-31.022-74.674l-8.183-20.241c-2.442-10.118-27.864-3.982-25.421,6.136
	l7.004,20.356l26.791,78.272C135.966,367.924,163.393,360.502,169.523,369.848z"/>
<polygon style="fill:#64798A;" points="167.459,376.586 168.198,381.167 153.126,385.747 152.24,381.314 "/>
<polygon style="fill:#2F4859;" points="360.249,127.155 357.896,125.714 359.274,123.464 356.775,121.933 323.708,175.945 
	326.208,177.476 350.625,137.592 352.978,139.032 "/>
<g>
	<path style="fill:#64798A;" d="M345.785,149.373l-52.927,88.441l15.539,9.513l53.834-87.934
		C358.648,157.803,349.18,152.023,345.785,149.373z"/>
	<path style="fill:#64798A;" d="M260.31,303.187l-0.001,0.002c-0.974,1.591-1.7,3.321-2.154,5.131l-0.517,2.062
		c-0.14,0.558,0.099,1.143,0.59,1.443c0.491,0.301,1.12,0.248,1.553-0.131l1.6-1.395c1.408-1.228,2.62-2.663,3.595-4.256
		L260.31,303.187z"/>
</g>
<path style="fill:#3A556A;" d="M308.397,247.327l-15.539-9.513l-21.668,35.393c-0.826,1.349-1.602,2.73-2.285,4.157
	c-3.874,8.095-6.885,16.59-8.974,25.515c-0.053,0.226,0.047,0.465,0.244,0.585l4.621,2.829c0.195,0.119,0.447,0.103,0.625-0.041
	c7.047-5.715,13.311-12.333,18.836-19.809c0.83-1.122,1.599-2.298,2.328-3.488L308.397,247.327z"/>
<g>
	<path style="fill:#D5D6DB;" d="M296.311,232.044l-0.798,1.335c5.584,3.91,9.29,6.144,15.627,9.468l0.812-1.327
		C305.592,238.186,301.913,235.973,296.311,232.044z"/>
	<path style="fill:#D5D6DB;" d="M299.152,227.296l-0.798,1.335c5.609,3.93,9.319,6.167,15.673,9.501l0.812-1.327
		C308.463,233.461,304.78,231.245,299.152,227.296z"/>
	<path style="fill:#D5D6DB;" d="M301.993,222.547l-0.798,1.335c5.635,3.95,9.347,6.19,15.719,9.533l0.812-1.327
		C311.333,228.736,307.647,226.516,301.993,222.547z"/>
	<path style="fill:#D5D6DB;" d="M304.836,217.799l-0.799,1.335c5.661,3.97,9.376,6.213,15.765,9.565l0.812-1.327
		C314.203,224.011,310.515,221.788,304.836,217.799z"/>
	<path style="fill:#D5D6DB;" d="M307.677,213.051l-0.798,1.335c5.685,3.989,9.404,6.236,15.81,9.597l0.812-1.327
		C317.073,219.285,313.383,217.06,307.677,213.051z"/>
	<path style="fill:#D5D6DB;" d="M325.576,219.266l0.812-1.327c-6.445-3.38-10.138-5.608-15.87-9.637l-0.798,1.335
		C315.432,213.647,319.153,215.896,325.576,219.266z"/>
	<path style="fill:#D5D6DB;" d="M293.469,236.792c-0.011-0.007-0.022-0.016-0.033-0.024l-0.789,1.342
		c5.572,3.9,9.275,6.132,15.605,9.453l0.812-1.327C302.721,242.911,299.046,240.701,293.469,236.792z"/>
</g>
<g>
	<path style="fill:#3A556A;" d="M362.231,159.392l23.516-38.411l-21.829-1.719l-1.065,1.589l-17.068,28.521
		C349.18,152.023,358.648,157.803,362.231,159.392z"/>
	<path style="fill:#3A556A;" d="M385.768,120.601c-0.196-1.643-5.254-3.201-11.296-3.479c-6.042-0.279-10.781,0.828-10.584,2.471
		c0.196,1.643,5.254,3.201,11.296,3.48C381.227,123.351,385.965,122.244,385.768,120.601z"/>
</g>
<path style="fill:#2F4859;" d="M381.666,120.412c-0.123-1.027-3.284-2.001-7.06-2.175c-3.777-0.174-6.738,0.518-6.615,1.545
	c0.123,1.027,3.284,2.001,7.06,2.175S381.789,121.439,381.666,120.412z"/>
<path style="fill:#EBF0F3;" d="M376.911,105.488l-8.261,13.493l-0.562,0.918c0.344,0.982,3.334,1.89,6.963,2.058
	c2.304,0.106,4.295-0.113,5.477-0.531l0.84-1.372l5.271-8.611C388.098,109.062,378.37,103.106,376.911,105.488z"/>
<g>
</g>
<g>
</g>
<g>
</g>
<g>
</g>
<g>
</g>
<g>
</g>
<g>
</g>
<g>
</g>
<g>
</g>
<g>
</g>
<g>
</g>
<g>
</g>
<g>
</g>
<g>
</g>
<g>
</g>
</svg>
