<svg width="20" height="20" viewBox="0 0 20 20" fill="none" xmlns="http://www.w3.org/2000/svg">
<path d="M15.8334 2.5L15.8334 12.5M4.16669 17.5V14.1667V17.5ZM4.16669 2.5L4.16669 10.8333L4.16669 2.5ZM10 17.5V7.5V17.5ZM10 2.5V4.16667V2.5ZM15.8334 17.5V15.8333V17.5Z" stroke="#9D9D9D" stroke-width="2" stroke-linecap="round"/>
<path d="M5.83333 12.4993C5.83333 11.5789 5.08714 10.8327 4.16667 10.8327C3.24619 10.8327 2.5 11.5789 2.5 12.4993C2.5 13.4198 3.24619 14.166 4.16667 14.166C5.08714 14.166 5.83333 13.4198 5.83333 12.4993Z" stroke="#9D9D9D" stroke-width="2" stroke-linecap="round"/>
<path d="M11.6666 5.83333C11.6666 4.91286 10.9205 4.16667 9.99998 4.16667C9.07951 4.16667 8.33331 4.91286 8.33331 5.83333C8.33331 6.75381 9.07951 7.5 9.99998 7.5C10.9205 7.5 11.6666 6.75381 11.6666 5.83333Z" stroke="#9D9D9D" stroke-width="2" stroke-linecap="round"/>
<path d="M17.5 14.1673C17.5 13.2468 16.7538 12.5007 15.8334 12.5007C14.9129 12.5007 14.1667 13.2468 14.1667 14.1673C14.1667 15.0878 14.9129 15.834 15.8334 15.834C16.7538 15.834 17.5 15.0878 17.5 14.1673Z" stroke="#9D9D9D" stroke-width="2" stroke-linecap="round"/>
</svg>
