<svg width="20" height="20" viewBox="0 0 20 20" fill="none" xmlns="http://www.w3.org/2000/svg">
<g clip-path="url(#clip0_4826_8961)">
<path d="M14.1666 5.83325H11.6666C11.2083 5.83325 10.8333 6.20825 10.8333 6.66659C10.8333 7.12492 11.2083 7.49992 11.6666 7.49992H14.1666C15.5416 7.49992 16.6666 8.62492 16.6666 9.99992C16.6666 11.3749 15.5416 12.4999 14.1666 12.4999H11.6666C11.2083 12.4999 10.8333 12.8749 10.8333 13.3333C10.8333 13.7916 11.2083 14.1666 11.6666 14.1666H14.1666C16.4666 14.1666 18.3333 12.2999 18.3333 9.99992C18.3333 7.69992 16.4666 5.83325 14.1666 5.83325ZM6.66663 9.99992C6.66663 10.4583 7.04163 10.8333 7.49996 10.8333H12.5C12.9583 10.8333 13.3333 10.4583 13.3333 9.99992C13.3333 9.54159 12.9583 9.16659 12.5 9.16659H7.49996C7.04163 9.16659 6.66663 9.54159 6.66663 9.99992ZM8.33329 12.4999H5.83329C4.45829 12.4999 3.33329 11.3749 3.33329 9.99992C3.33329 8.62492 4.45829 7.49992 5.83329 7.49992H8.33329C8.79163 7.49992 9.16663 7.12492 9.16663 6.66659C9.16663 6.20825 8.79163 5.83325 8.33329 5.83325H5.83329C3.53329 5.83325 1.66663 7.69992 1.66663 9.99992C1.66663 12.2999 3.53329 14.1666 5.83329 14.1666H8.33329C8.79163 14.1666 9.16663 13.7916 9.16663 13.3333C9.16663 12.8749 8.79163 12.4999 8.33329 12.4999Z" fill="#454E5F"/>
</g>
<defs>
<clipPath id="clip0_4826_8961">
<rect width="20" height="20" fill="white"/>
</clipPath>
</defs>
</svg>
