<?xml version="1.0" encoding="UTF-8" standalone="no"?>
<!-- Created with Inkscape (http://www.inkscape.org/) -->

<svg
   width="76.921471mm"
   height="76.04306mm"
   viewBox="0 0 76.92147 76.043063"
   version="1.1"
   id="svg5"
   inkscape:version="1.1.1 (3bf5ae0d25, 2021-09-20)"
   sodipodi:docname="sandbox.svg"
   xmlns:inkscape="http://www.inkscape.org/namespaces/inkscape"
   xmlns:sodipodi="http://sodipodi.sourceforge.net/DTD/sodipodi-0.dtd"
   xmlns="http://www.w3.org/2000/svg"
   xmlns:svg="http://www.w3.org/2000/svg">
  <sodipodi:namedview
     id="namedview7"
     pagecolor="#ffffff"
     bordercolor="#666666"
     borderopacity="1.0"
     inkscape:pageshadow="2"
     inkscape:pageopacity="0.0"
     inkscape:pagecheckerboard="0"
     inkscape:document-units="mm"
     showgrid="false"
     inkscape:zoom="1.4823793"
     inkscape:cx="168.64779"
     inkscape:cy="163.58836"
     inkscape:window-width="1920"
     inkscape:window-height="1017"
     inkscape:window-x="-8"
     inkscape:window-y="-8"
     inkscape:window-maximized="1"
     inkscape:current-layer="g854" />
  <defs
     id="defs2" />
  <g
     inkscape:label="Camada 1"
     inkscape:groupmode="layer"
     id="layer1"
     transform="translate(-262.19702,-74.062676)">
    <g
       id="g854"
       transform="translate(125.65385,-16.063702)">
      <path
         id="path856"
         style="fill:#454e5f;fill-opacity:1;stroke-width:0.264583"
         d="m 186.74609,90.130859 c -1.57852,0.372609 -2.18176,2.06037 -3.13996,3.182079 -2.49761,3.515396 -5.08755,6.969842 -7.38738,10.620652 -0.0307,2.6247 1.50943,4.8925 2.18146,7.35782 0.32143,0.87341 0.63944,1.74809 0.96307,2.6207 -2.61681,4.13096 -5.49079,8.08662 -8.29492,12.08984 -1.51173,-0.10712 -3.21769,0.47018 -4.57904,-0.50201 -1.54435,-1.28647 -3.03826,-2.63664 -4.56354,-3.94721 -3.08398,0.001 -6.16797,0.003 -9.25195,0.004 -3.70099,3.08095 -7.40346,6.16012 -11.10352,9.24219 -1.50543,0.003 -3.10247,-0.0878 -4.49219,0.59375 -0.8728,2.44373 -0.37151,5.07993 -0.53495,7.61202 0.0591,1.23109 0.12725,2.70561 1.14113,3.55739 0.80975,0.44131 1.75619,0.44342 2.65164,0.38723 0.80357,5.79799 1.34654,11.63673 2.73724,17.33741 1.47534,3.92758 5.87921,6.35463 9.99166,5.80554 15.78947,0.0762 31.57918,0.0667 47.36875,0.0348 2.75808,-1.31164 5.60975,-3.28047 6.47288,-6.37601 1.24424,-5.01941 1.55044,-10.18951 2.42923,-15.29814 -0.0721,-0.6567 0.23418,-1.6037 1.06274,-1.43327 1.26626,0.006 2.63822,-0.80765 2.75925,-2.1658 0.53625,-2.35628 0.18074,-4.79199 0.29934,-7.18185 -0.0865,-1.46354 -1.28792,-2.87386 -2.82691,-2.7992 -1.00532,0.0424 -2.2512,0.12583 -2.87534,-0.8447 -2.65755,-3.07175 -5.31369,-6.16184 -8.27822,-8.95962 -2.28277,-0.55069 -4.46154,0.85135 -6.59542,1.26897 -1.93839,0.4689 -3.96942,1.4117 -4.87758,3.30059 -1.1268,1.68611 -2.14994,3.43781 -3.25551,5.13747 -1.63522,0.0581 -3.2692,-0.0329 -4.89844,-0.16601 2.54048,-3.5494 5.08039,-7.09921 7.62109,-10.64844 3.51422,-0.0338 7.09183,0.0908 10.50391,-0.28906 2.14648,-2.29064 3.7149,-4.99891 5.63647,-7.49602 1.64834,-2.28473 3.22083,-4.63008 4.58033,-7.09969 -1.99146,-2.15935 -4.5802,-3.61646 -6.86648,-5.424603 -4.46336,-3.238045 -8.9388,-6.48166 -13.65235,-9.344469 -0.29138,-0.122542 -0.60873,-0.201099 -0.92649,-0.176239 z m 1.14649,5.972657 c 1.77558,0.721047 3.09187,2.194478 4.73699,3.142708 3.1706,2.235936 6.33923,4.474666 9.51105,6.708856 -2.07762,3.1101 -4.2763,6.13308 -6.40624,9.20703 -3.56737,-0.0687 -7.14841,0.0219 -10.69727,-0.41016 -1.01136,-1.12794 -1.10568,-2.71872 -1.77233,-4.02844 -0.70436,-1.86153 -1.40706,-3.72369 -2.11244,-5.58484 1.93796,-3.1812 4.20347,-6.140336 6.36719,-9.167967 0.12435,0.04427 0.2487,0.08854 0.37305,0.132813 z m 0.58008,2.154296 c -2.18318,0.988987 -3.25994,3.263578 -4.66641,5.060158 -0.91705,1.20864 -1.07851,2.87346 -0.4111,4.23469 0.70949,1.87274 1.51988,3.7039 2.38219,5.51179 2.21128,1.24824 4.8341,0.63912 7.24492,0.79155 0.67553,0.002 1.35105,0.004 2.02657,0.005 1.53703,-2.4293 3.76388,-4.52147 4.49609,-7.38477 -1.40205,-2.01205 -3.6693,-3.09327 -5.48417,-4.66955 -1.78444,-1.31864 -3.64019,-2.579938 -5.58809,-3.549198 z m 0.86132,6.228518 c 1.67048,0.66652 2.93733,2.03005 4.45704,2.96289 -0.4565,0.96936 -1.39672,1.92072 -2.56094,1.6619 -0.71862,-0.001 -1.43724,-0.004 -2.15586,-0.004 -0.3962,-1.11932 -0.89311,-2.19252 -1.17774,-3.36133 0.45463,-0.40391 0.58953,-1.40364 1.4375,-1.25976 z m 8.43946,21.61328 c 1.48284,1.52094 2.9169,3.08861 4.36914,4.63867 -3.94331,0.0416 -7.88711,0.0476 -11.83008,-0.0273 0.83478,-1.13949 1.39485,-2.55683 2.49238,-3.45805 1.58082,-0.46789 3.16239,-0.92878 4.74981,-1.37398 0.0729,0.0736 0.14583,0.14713 0.21875,0.2207 z m -40.45899,0.20508 c 1.43142,0.0122 3.18703,-0.16502 4.17383,1.11133 1.24726,1.13622 2.51435,2.25025 3.77539,3.37109 -5.40108,-0.003 -10.80211,-0.0199 -16.20312,-0.0469 1.76125,-1.47919 3.52502,-2.95539 5.28711,-4.43359 0.98893,-3.8e-4 1.97786,-10e-4 2.96679,-0.002 z m -15.01367,9.24023 c 17.34792,0.0445 34.69865,0.0131 52.04766,0.0284 4.73867,9.1e-4 9.47734,0.002 14.21601,0.003 -0.19503,0.83823 0.28806,2.08708 -0.68359,2.5625 -1.09797,0.2416 -2.25955,0.008 -3.38238,0.0837 -21.086,0.01 -42.17218,-0.0127 -63.25825,-0.0212 0.12331,-0.81046 -0.16014,-1.82625 0.40492,-2.47961 0.21101,-0.0969 0.41917,-0.17919 0.65563,-0.17664 z m 3.39844,7.43164 c 16.56111,0.0387 33.12271,-0.0563 49.68345,0.0799 3.09468,0.0232 6.18896,0.0792 9.28335,0.12522 -0.80405,5.33173 -1.11093,10.80883 -2.65625,16.01367 -0.99836,1.86291 -3.34219,2.42229 -5.29726,2.1342 -15.14624,0.2387 -30.29671,0.1447 -45.44298,0.13924 -2.14404,-0.24666 -3.96624,-2.11347 -4.10249,-4.27838 -0.95153,-4.69892 -1.38904,-9.48503 -2.07524,-14.21381 0.20247,0 0.40494,0 0.60742,0 z" />
    </g>
  </g>
</svg>
