<?xml version="1.0" encoding="UTF-8" standalone="no"?>
<svg
   width="501.57504"
   height="501.57501"
   viewBox="0 0 376.18102 376.18097"
   version="1.1"
   id="svg27"
   sodipodi:docname="funcional.svg"
   inkscape:version="1.1.1 (3bf5ae0d25, 2021-09-20)"
   xmlns:inkscape="http://www.inkscape.org/namespaces/inkscape"
   xmlns:sodipodi="http://sodipodi.sourceforge.net/DTD/sodipodi-0.dtd"
   xmlns="http://www.w3.org/2000/svg"
   xmlns:svg="http://www.w3.org/2000/svg">
  <sodipodi:namedview
     id="namedview29"
     pagecolor="#ffffff"
     bordercolor="#666666"
     borderopacity="1.0"
     inkscape:pageshadow="2"
     inkscape:pageopacity="0.0"
     inkscape:pagecheckerboard="0"
     showgrid="false"
     inkscape:zoom="0.6862676"
     inkscape:cx="-182.14469"
     inkscape:cy="370.84659"
     inkscape:window-width="2560"
     inkscape:window-height="1017"
     inkscape:window-x="-8"
     inkscape:window-y="-8"
     inkscape:window-maximized="1"
     inkscape:current-layer="g870" />
  <defs
     id="defs5">
    <clipPath
       id="a">
      <path
         d="m 186,110 h 492.5 v 32 H 186 Z m 0,0"
         id="path2" />
    </clipPath>
  </defs>
  <path
     style="fill:#f9f9f9;stroke-width:0.45;paint-order:markers stroke fill"
     d="M 5.6385722e-6,2.6669368e-6 H 376.181 V 376.18098 H 5.6385722e-6 Z"
     id="path7" />
  <g
     id="g870"
     transform="translate(0,42.351227)">
    <g
       style="stroke-width:0.514719"
       id="g15"
       transform="matrix(1.7222434,0,0,1.7222434,-135.84599,-45.912519)">
      <path
         style="fill:#73b519;fill-opacity:1;fill-rule:evenodd;stroke:none;stroke-width:0.514719"
         d="m 88.184,0.883 78.16,-0.836 c 12.136,-0.129 18.117,10.918 16.058,21.57 L 170.477,83.344 168.41,30.672 C 167.887,17.266 162.281,10.297 148.969,8.605 Z m 0,0"
         transform="matrix(1.12807,0,0,1.12807,84.015,32.254)"
         id="path9" />
      <path
         style="fill:#1c5182;fill-opacity:1;fill-rule:evenodd;stroke:none;stroke-width:0.514719"
         d="M 132.004,140.063 H 18.39 C 8.062,140.063 0.085,129.09 2.003,118.781 l 16.687,-89.828 1.809,74.633 c 0.36,14.867 8.941,23.668 23.719,25.512 z m 0,0"
         transform="matrix(1.12807,0,0,1.12807,84.015,32.254)"
         id="path11" />
      <path
         style="fill:#1c5182;fill-opacity:1;fill-rule:evenodd;stroke:none;stroke-width:0.514719"
         d="M 44.852,133.395 H 71.8 l 9.043,-44.657 h 36.976 l 3.102,-16.715 H 84.227 l 6.707,-33.12 h 39.707 l 3.101,-16.715 h -66.37 z m 0,0"
         transform="matrix(1.12807,0,0,1.12807,84.015,32.254)"
         id="path13" />
    </g>
  </g>
</svg>
