<svg width="30" height="30" viewBox="0 0 30 30" fill="none" xmlns="http://www.w3.org/2000/svg">
<path d="M18.3764 3.64886C20.6695 4.48506 22.6466 6.13069 23.8918 8.2294C24.7388 9.64826 25.2472 11.262 25.3642 12.9104C23.0894 12.909 20.8141 12.9109 18.5398 12.909C18.2694 12.9184 18.0933 13.1377 18.0107 13.3757C17.9046 13.7029 17.9539 14.1297 18.222 14.3696C18.3215 14.4697 18.4469 14.5077 18.5858 14.5063C20.8447 14.5058 23.1035 14.5067 25.3627 14.5063C25.1895 16.921 24.1627 19.2516 22.4992 21.0104C21.0461 22.5701 19.1173 23.6753 17.0355 24.1359C15.3725 24.5059 13.6189 24.4768 11.9709 24.042C11.6296 24.227 11.2784 24.389 10.9291 24.5571C9.32711 25.3604 7.70495 26.1642 6.10909 26.9718C5.95978 27.0535 5.78325 26.9488 5.79123 26.775C5.83301 25.0294 5.88231 23.2603 5.9241 21.5142C5.92128 20.955 5.92692 20.3963 5.93631 19.8371C5.69639 19.4948 5.47666 19.1366 5.27758 18.769C3.98314 16.3881 3.65777 13.5198 4.36814 10.9061C5.10058 8.15287 6.9805 5.75085 9.46749 4.36392C12.1503 2.84177 15.4852 2.57931 18.3764 3.64886Z" fill="white"/>
<path d="M15.9082 7.85746C16.6411 8.00818 17.3632 8.30772 17.9633 8.75845C18.2708 8.97818 18.368 9.39839 18.2849 9.7524C18.1886 10.1182 17.9313 10.4412 17.5952 10.6144C17.4144 10.7079 17.2059 10.7304 17.0073 10.6961C16.8548 10.6633 16.7134 10.5487 16.5749 10.4773C15.996 10.1736 15.3476 10.0116 14.6922 10.0454C13.7658 10.0801 12.8339 10.5013 12.2198 11.1999C12.0662 11.3901 11.9028 11.575 11.7639 11.776C11.5718 12.0784 11.453 12.4342 11.3535 12.7765C11.1277 13.5888 11.207 14.4602 11.5333 15.2339C11.6798 15.5673 11.8831 15.8772 12.108 16.1626C12.3423 16.4575 12.6292 16.6725 12.9381 16.8824C13.3146 17.1322 13.7372 17.281 14.179 17.366C14.8852 17.5092 15.6453 17.4012 16.3035 17.1157C16.5707 17.0012 16.7439 16.8152 17.0116 16.7472C17.1862 16.7054 17.3543 16.7448 17.5154 16.8157C17.7332 16.9171 17.9313 17.0401 18.0778 17.235C18.2492 17.4594 18.3652 17.7561 18.3454 18.0407C18.3285 18.29 18.2098 18.528 18.0046 18.674C17.074 19.313 15.9608 19.6666 14.8335 19.6952C14.3664 19.7046 13.895 19.6276 13.4405 19.5267C12.7292 19.36 12.0723 19.0431 11.4718 18.6308C11.0333 18.335 10.6563 17.936 10.298 17.5486C9.78769 16.9002 9.3872 16.1485 9.16606 15.3518C9.04821 14.9081 8.95525 14.463 8.95384 14.0015C8.95243 13.6531 8.94116 13.3183 8.98389 12.9789C9.05666 12.3507 9.24635 11.7361 9.50364 11.1595C9.7783 10.5562 10.1647 10.0299 10.6018 9.53502C10.9572 9.20683 11.3019 8.88475 11.7174 8.63168C12.1789 8.33355 12.6808 8.12696 13.2024 7.96122C14.0738 7.70159 15.019 7.67482 15.9082 7.85746Z" fill="#6F197D"/>
<path d="M18.5398 12.9092C20.8141 12.9111 23.0894 12.9092 25.3642 12.9106C25.4064 13.4445 25.4041 13.9722 25.3628 14.5065C23.1035 14.507 20.8447 14.506 18.5858 14.5065C18.4469 14.5079 18.3215 14.4699 18.222 14.3699C17.9539 14.1299 17.9046 13.7032 18.0107 13.3759C18.0933 13.1379 18.2694 12.9186 18.5398 12.9092Z" fill="#6F197D"/>
</svg>
