<svg width="30" height="30" viewBox="0 0 30 30" fill="none" xmlns="http://www.w3.org/2000/svg">
<path d="M2.51894 1.21582C10.3875 1.21348 18.2637 1.21582 26.1328 1.21465C26.3818 1.21523 26.6309 1.21699 26.8799 1.20996C26.8605 1.85391 26.8857 2.49961 26.8664 3.14355C26.8336 4.07578 26.4621 4.9875 25.8281 5.67246C25.2246 6.33984 24.3861 6.78633 23.4961 6.91875C23.0924 6.98437 22.6758 6.96387 22.2656 6.96621C15.2467 6.96621 8.22773 6.96562 1.20879 6.96621C1.22168 5.64082 1.21113 4.31426 1.21465 2.98828C1.21875 2.65664 1.18125 2.33262 1.31894 2.02148C1.51816 1.54512 2.00039 1.21523 2.51894 1.21582Z" fill="white"/>
<path d="M26.8799 1.20996C27.1371 1.20527 27.4025 1.19121 27.658 1.22226C28.1121 1.28027 28.51 1.59668 28.6881 2.01621C28.7918 2.25058 28.7959 2.50195 28.7971 2.7539C28.7924 4.43261 28.8006 6.11542 28.7935 7.79355C28.7965 8.35136 28.4391 8.85879 27.9158 9.04746C27.6117 9.16113 27.3287 9.12773 27.0117 9.13125C18.9844 9.13125 10.957 9.13125 2.92968 9.13125C2.67128 9.12949 2.41991 9.15117 2.17148 9.07617C1.76894 8.96367 1.43613 8.65019 1.28906 8.25996C1.15195 7.8621 1.21581 7.38339 1.20878 6.96621C8.22773 6.96562 15.2467 6.96621 22.2656 6.96621C22.6758 6.96386 23.0924 6.98437 23.4961 6.91875C24.3861 6.78632 25.2246 6.33984 25.8281 5.67246C26.4621 4.9875 26.8336 4.07578 26.8664 3.14355C26.8857 2.49961 26.8605 1.8539 26.8799 1.20996Z" fill="white"/>
<path d="M12.6111 11.1791C13.0582 11.3988 13.3482 11.864 13.35 12.3621C13.3529 14.0971 13.35 15.842 13.3518 17.5781C13.3641 18.0375 13.1414 18.4816 12.757 18.7348C12.5191 18.8976 12.2397 18.9627 11.9543 18.9621C8.82832 18.9609 5.70235 18.9621 2.57696 18.9615C2.02911 18.9709 1.52227 18.6486 1.31075 18.1418C1.1461 17.7422 1.22168 17.2295 1.20996 16.8029C3.30645 16.7918 5.40352 16.8017 7.5 16.7976C8.33848 16.7889 9.17872 16.5094 9.84551 15.999C10.5328 15.4816 11.0461 14.7428 11.277 13.9125C11.3965 13.5035 11.4352 13.081 11.4299 12.6562C11.4234 12.1183 11.4398 11.5805 11.4164 11.0437C11.8242 11.0426 12.2361 10.9875 12.6111 11.1791Z" fill="white"/>
<path d="M27.7166 11.0637C28.1637 11.1474 28.5475 11.4738 28.7074 11.898C28.8182 12.181 28.7936 12.532 28.7959 12.832C28.7953 17.5588 28.7953 22.285 28.7959 27.0117C28.7941 27.3135 28.8176 27.6592 28.7045 27.9428C28.5006 28.4678 27.9861 28.8088 27.4225 28.7941C24.1805 28.7959 20.9373 28.7941 17.6953 28.7953C17.4246 28.7947 17.1275 28.8111 16.8697 28.7174C16.4315 28.5621 16.0922 28.1695 16.0096 27.7113C15.9744 27.3574 15.9996 26.9965 15.9932 26.6414C18.0053 26.6244 20.0186 26.6391 22.0313 26.6338C22.5815 26.6262 23.0883 26.6683 23.6221 26.5641C24.5848 26.3906 25.4713 25.8445 26.0596 25.0635C26.5342 24.4447 26.8131 23.6877 26.8635 22.9096C26.8758 22.6963 26.8729 22.4795 26.8729 22.2656C26.8705 18.5238 26.8746 14.782 26.8705 11.0408C27.1488 11.0361 27.4418 11.0139 27.7166 11.0637Z" fill="white"/>
<path d="M3.04688 11.0467C5.83652 11.0449 8.62734 11.052 11.4164 11.0438C11.4398 11.5805 11.4234 12.1184 11.4299 12.6563C11.4352 13.0811 11.3965 13.5035 11.277 13.9125C11.0461 14.7428 10.5328 15.4817 9.84551 15.999C9.17871 16.5094 8.33848 16.7889 7.5 16.7977C5.40352 16.8018 3.30645 16.7918 1.20996 16.8029C1.22168 15.3235 1.20879 13.8422 1.21641 12.3627C1.21523 11.8553 1.51641 11.3883 1.97402 11.1727C2.30684 11.008 2.6877 11.052 3.04688 11.0467Z" fill="white"/>
<path d="M17.3432 11.0467C20.2342 11.0467 23.1246 11.0473 26.0156 11.0467C26.301 11.0455 26.5857 11.052 26.8705 11.0408C26.8746 14.782 26.8705 18.5238 26.8729 22.2656C26.8729 22.4795 26.8758 22.6963 26.8635 22.9096C26.8131 23.6877 26.5342 24.4447 26.0596 25.0635C25.4713 25.8445 24.5848 26.3906 23.6221 26.5641C23.0883 26.6684 22.5814 26.6262 22.0312 26.6338C20.0186 26.6391 18.0053 26.6244 15.9932 26.6414C15.9949 21.9018 15.9937 17.1609 15.9937 12.4219C15.985 12.0592 16.1145 11.707 16.3693 11.4481C16.6242 11.1832 16.9764 11.0426 17.3432 11.0467Z" fill="white"/>
<path d="M3.16406 20.8787C5.91797 20.8758 8.67305 20.884 11.427 20.874C11.4293 21.4746 11.4293 22.0752 11.4281 22.6758C11.4264 23.5254 11.1445 24.3691 10.6312 25.0465C10.0441 25.8299 9.17109 26.3771 8.20898 26.5594C7.67168 26.6701 7.16894 26.6279 6.62109 26.6355C4.81758 26.6402 3.01289 26.6256 1.20996 26.6426C1.22051 25.3793 1.21172 24.1154 1.21465 22.8516C1.21875 22.5609 1.19648 22.2604 1.23691 21.9727C1.32422 21.4271 1.78184 20.9783 2.32793 20.898C2.60273 20.8623 2.88691 20.8822 3.16406 20.8787Z" fill="white"/>
<path d="M11.427 20.874C11.676 20.8723 11.9303 20.8588 12.1781 20.8834C12.6598 20.9391 13.0875 21.2672 13.2592 21.7219C13.3723 21.9996 13.3506 22.2656 13.3518 22.5586C13.3494 24.1975 13.3535 25.8434 13.35 27.4816C13.3459 27.9621 13.0658 28.4156 12.641 28.6377C12.4283 28.7555 12.1939 28.7906 11.9537 28.7924C8.98477 28.7918 6.01582 28.7924 3.04688 28.7924C2.7961 28.7906 2.53184 28.8065 2.28399 28.766C1.83985 28.6869 1.45781 28.3606 1.29668 27.941C1.15254 27.5455 1.21992 27.0592 1.20996 26.6426C3.01289 26.6256 4.81758 26.6402 6.6211 26.6356C7.16895 26.6279 7.67168 26.6701 8.20899 26.5594C9.1711 26.3772 10.0441 25.8299 10.6313 25.0465C11.1445 24.3691 11.4264 23.5254 11.4281 22.6758C11.4293 22.0752 11.4293 21.4746 11.427 20.874Z" fill="white"/>
</svg>
