<svg width="30" height="30" viewBox="0 0 30 30" fill="none" xmlns="http://www.w3.org/2000/svg">
<g clip-path="url(#clip0_247_2124)">
<path d="M17.1762 1.16892C19.009 1.56091 20.7223 2.46853 22.0816 3.75876C23.41 5.01326 24.3973 6.62224 24.9041 8.37888C25.4062 10.1045 25.4426 11.9648 25.0137 13.7097C24.593 15.4359 23.7117 17.0414 22.4912 18.331C21.2244 19.6734 19.5961 20.6677 17.8184 21.1699C16.1596 21.6416 14.3807 21.6867 12.6996 21.3C11.052 20.9273 9.49922 20.1322 8.22832 19.0201C6.86016 17.8318 5.81543 16.2785 5.23418 14.5623C4.66406 12.8894 4.54102 11.0689 4.86738 9.33279C5.2002 7.55447 6.01582 5.87341 7.20234 4.50818C8.48672 3.02107 10.1994 1.9113 12.0861 1.35876C13.7303 0.873607 15.4998 0.808568 17.1762 1.16892Z" fill="white"/>
<path d="M15 4.68806C15.4781 4.68279 15.9111 5.0824 15.9328 5.56228C15.9457 5.8951 15.9334 6.22908 15.9375 6.56248C16.5633 6.56365 17.1902 6.56013 17.816 6.56365C18.2068 6.56072 18.5701 6.82791 18.6978 7.19412C18.7992 7.48592 18.7482 7.82224 18.556 8.06541C18.3773 8.29744 18.1101 8.43572 17.816 8.43631C16.5644 8.44041 15.3105 8.43455 14.059 8.43865C13.5562 8.43338 13.1191 8.87283 13.1256 9.37498C13.1197 9.85252 13.5211 10.2861 13.9998 10.3078C14.6842 10.323 15.3697 10.3019 16.0541 10.3178C17.0268 10.3482 17.9373 10.9254 18.4008 11.7767C18.7412 12.3902 18.8361 13.1297 18.6621 13.8094C18.4857 14.5178 18.0211 15.1441 17.3971 15.5232C16.9576 15.7963 16.4531 15.9275 15.9375 15.9398C15.9334 16.2726 15.9457 16.606 15.9328 16.9383C15.91 17.417 15.4793 17.8183 15 17.8119C14.5207 17.8189 14.0912 17.4158 14.0666 16.9383C14.0549 16.6049 14.0666 16.2709 14.0625 15.9375C13.4367 15.9357 12.8098 15.9404 12.184 15.9363C11.8482 15.9375 11.5424 15.7506 11.3754 15.4617C11.209 15.1822 11.209 14.816 11.3754 14.5371C11.5412 14.2517 11.8518 14.0613 12.184 14.0637C13.4355 14.0596 14.6894 14.0654 15.941 14.0613C16.4449 14.0666 16.8803 13.6283 16.8744 13.125C16.8814 12.6211 16.4437 12.1845 15.941 12.1887C15.3346 12.1845 14.7269 12.1892 14.1205 12.1875C13.0242 12.2092 11.9865 11.564 11.5213 10.572C11.2359 9.97556 11.1756 9.2783 11.3502 8.6408C11.5465 7.90779 12.0527 7.27439 12.7166 6.90935C13.1297 6.67908 13.5908 6.57127 14.0625 6.56014C14.0666 6.22732 14.0549 5.89392 14.0666 5.5617C14.09 5.08357 14.5219 4.68162 15 4.68806Z" fill="#6F197D"/>
<path d="M4.66055 17.6719C5.56699 19.1227 6.77109 20.3836 8.18906 21.3422C9.44121 22.1971 10.8516 22.7982 12.3275 23.1375C11.2805 24.9521 10.2328 26.768 9.18457 28.5814C8.98301 28.9389 8.55996 29.1322 8.15801 29.0385C7.86094 28.9682 7.61894 28.766 7.49883 28.4848C6.97617 27.2672 6.45586 26.0432 5.93437 24.825C4.62129 24.9855 3.3041 25.1437 1.99043 25.3008C1.55683 25.3629 1.12793 25.091 0.983788 24.6814C0.888866 24.4096 0.932225 24.1172 1.07871 23.8723C2.27226 21.8068 3.46582 19.7361 4.66055 17.6719Z" fill="white"/>
<path d="M25.34 17.6719C26.4855 19.6518 27.6281 21.6334 28.7725 23.6139C28.8873 23.8184 29.0309 24.0187 29.0584 24.2572C29.1064 24.6135 28.9324 24.9826 28.6236 25.1684C28.4203 25.2943 28.1848 25.3266 27.9504 25.2949C26.6543 25.1385 25.3617 24.9791 24.0656 24.825C23.5564 26.0174 23.0461 27.2092 22.5387 28.4022C22.466 28.5744 22.3769 28.732 22.2293 28.851C21.9768 29.0619 21.6258 29.117 21.317 29.0057C21.0861 28.9242 20.9103 28.7566 20.7932 28.5445C19.7543 26.741 18.7113 24.9404 17.6725 23.1375C19.3664 22.7496 20.9725 22.002 22.3541 20.9473C23.5394 20.0484 24.5502 18.9316 25.34 17.6719Z" fill="white"/>
</g>
<defs>
<clipPath id="clip0_247_2124">
<rect width="30" height="30" fill="white"/>
</clipPath>
</defs>
</svg>
