<svg width="24" height="24" viewBox="0 0 24 24" fill="none" xmlns="http://www.w3.org/2000/svg">
<path d="M2.94929 0.000860109C8.22616 0.00252658 13.5216 -0.000250939 18.7957 0.00252651C19.2924 0.00252651 19.7581 0.280272 19.9876 0.713554C20.1133 0.939638 20.1506 1.18905 20.1466 1.44458C20.1444 3.19771 20.1477 4.95139 20.1455 6.70452C19.7108 6.95504 19.3629 7.36444 18.9964 7.70107C16.2195 10.428 13.4528 13.1643 10.6805 15.8951C10.5435 16.0334 10.3687 16.1578 10.265 16.3189C10.1561 16.4845 10.1048 16.6989 10.049 16.8878C9.88212 17.4632 9.71523 18.0404 9.54721 18.6159C9.50999 18.7681 9.35494 18.8731 9.2512 18.9881C8.97154 19.2658 8.83735 19.6647 8.8802 20.0524C8.91967 20.4412 9.14238 20.8001 9.47109 21.0173C9.98643 21.3661 10.7188 21.3072 11.1631 20.8712C11.2855 20.7662 11.3836 20.6173 11.5448 20.5796C12.1577 20.4057 12.7729 20.2307 13.3857 20.0596C13.5572 20.0102 13.7184 19.968 13.8706 19.8713C14.0364 19.7685 14.161 19.6013 14.3031 19.4636C15.4674 18.3148 16.6345 17.1683 17.7977 16.0184C17.9082 16.179 18.0063 16.3312 18.1619 16.4545C18.5273 16.75 19.0415 16.8355 19.4869 16.6817C19.7531 16.5956 19.9448 16.4239 20.1449 16.2401C20.1466 18.3815 20.1472 20.5268 20.1449 22.6682C20.1444 23.1998 19.8077 23.6953 19.3082 23.8958C18.9908 24.0297 18.6778 23.9947 18.3418 23.9986C13.2296 23.9986 8.1179 23.9986 3.00567 23.9986C2.78465 23.9969 2.55574 24.0103 2.33697 23.9786C1.86618 23.9064 1.45628 23.5736 1.28938 23.1348C1.17154 22.8387 1.20594 22.5332 1.20143 22.221C1.20143 15.4068 1.20143 8.59318 1.20143 1.77898C1.20537 1.48791 1.17493 1.1785 1.27529 0.902421C1.41342 0.504134 1.74834 0.184172 2.15711 0.0614085C2.40858 -0.0174711 2.68711 0.00308207 2.94929 0.000860109Z" fill="white"/>
<path d="M4.52745 3.55457C8.23011 3.55679 11.9328 3.55624 15.6354 3.55457C15.8621 3.56346 16.113 3.5118 16.2833 3.69566C16.502 3.92286 16.4129 4.3067 16.1136 4.41447C15.9089 4.46891 15.6772 4.4378 15.4663 4.44447C11.82 4.44502 8.17373 4.4428 4.52745 4.44558C4.31715 4.43891 4.0871 4.47946 3.92359 4.31892C3.73133 4.13783 3.74542 3.81898 3.95291 3.65511C4.10571 3.52513 4.3397 3.56068 4.52745 3.55457Z" fill="#6F197D"/>
<path d="M4.52745 5.77723C8.23011 5.77945 11.9328 5.77889 15.6354 5.77723C15.8621 5.78611 16.113 5.73445 16.2833 5.91832C16.502 6.14552 16.4129 6.52936 16.1136 6.63713C15.9089 6.69156 15.6772 6.66046 15.4663 6.66712C11.82 6.66768 8.17373 6.66546 4.52745 6.66823C4.31715 6.66157 4.0871 6.70212 3.92359 6.54158C3.73133 6.36049 3.74542 6.04164 3.95291 5.87777C4.10571 5.74779 4.3397 5.78334 4.52745 5.77723Z" fill="#6F197D"/>
<path d="M21.2213 7.28617C21.7202 7.23396 22.2283 7.4156 22.5773 7.77112C23.0317 8.22384 23.1732 8.92431 22.9308 9.5148C22.7966 9.86365 22.5457 10.0853 22.2875 10.3425C22.4972 10.5547 22.7081 10.7663 22.9235 10.9735C23.0779 10.8385 23.229 10.6219 23.4292 10.5591C23.7185 10.4814 24.0088 10.7041 23.9998 10.9996C23.9992 11.2135 23.8233 11.3468 23.6857 11.4873C22.3585 12.79 21.0352 14.0976 19.7096 15.4024C19.5676 15.5385 19.4356 15.6941 19.2755 15.8096C19.0624 15.9518 18.7585 15.8707 18.6401 15.648C18.5391 15.4635 18.5825 15.2525 18.7331 15.1086C19.9154 13.9404 21.1068 12.7739 22.2869 11.6046C22.0766 11.3924 21.8612 11.1857 21.6481 10.9769C21.4586 11.1518 21.2771 11.3346 21.0933 11.5157C20.3033 10.7547 19.527 9.97863 18.7466 9.20817C19.2293 8.72878 19.7153 8.25273 20.2002 7.775C20.4736 7.5017 20.8317 7.32284 21.2213 7.28617Z" fill="white"/>
<path d="M4.52745 7.99891C8.23011 8.00113 11.9328 8.00057 15.6354 7.99891C15.8621 8.00779 16.113 7.95613 16.2833 8.14C16.502 8.36664 16.4129 8.75104 16.1136 8.85881C15.9089 8.91324 15.6772 8.88214 15.4663 8.8888C11.82 8.88936 8.17373 8.88714 4.52745 8.88991C4.31715 8.88325 4.0871 8.9238 3.92359 8.76326C3.73133 8.58217 3.74542 8.26332 3.95291 8.09945C4.10571 7.96946 4.3397 8.00502 4.52745 7.99891Z" fill="#6F197D"/>
<path d="M18.1072 9.83789C18.8904 10.6061 19.6769 11.3716 20.4494 12.1498C18.2397 14.3285 16.0295 16.5071 13.8176 18.6835C13.0283 17.9214 12.2513 17.147 11.471 16.376C13.6823 14.1957 15.8942 12.016 18.1072 9.83789Z" fill="white"/>
<path d="M4.35548 10.2212C5.95224 10.2245 7.55802 10.2201 9.15422 10.2229C9.33802 10.2195 9.5021 10.2978 9.58836 10.4617C9.71353 10.6928 9.59851 10.9922 9.34761 11.0811C9.14294 11.1355 8.91121 11.1044 8.70033 11.1111C7.25186 11.1116 5.80339 11.11 4.35548 11.1122C4.19309 11.1116 4.04537 11.1039 3.92358 10.9855C3.74259 10.815 3.74259 10.5184 3.92358 10.3478C4.04537 10.2284 4.19309 10.2223 4.35548 10.2212Z" fill="#6F197D"/>
<path d="M10.9241 17.1094C11.0334 17.1955 11.1316 17.2982 11.2308 17.3955C11.8437 18.0059 12.4678 18.6064 13.0762 19.2213C12.399 19.4219 11.7151 19.603 11.0368 19.7991C10.782 19.9002 10.6405 20.2257 10.3772 20.3279C10.1956 20.3912 9.98642 20.3296 9.87027 20.1779C9.74059 20.0113 9.74679 19.7729 9.89113 19.6169C10.0451 19.423 10.3219 19.278 10.3664 19.0303C10.5514 18.3903 10.7346 17.7482 10.9241 17.1094Z" fill="white"/>
</svg>
