<svg width="30" height="30" viewBox="0 0 30 30" fill="none" xmlns="http://www.w3.org/2000/svg">
<path d="M15 1.5C12.33 1.5 9.71987 2.29176 7.49981 3.77516C5.27974 5.25856 3.54941 7.36697 2.52763 9.83377C1.50585 12.3006 1.2385 15.015 1.7594 17.6337C2.28031 20.2525 3.56605 22.6579 5.45406 24.5459C7.34207 26.4339 9.74754 27.7197 12.3663 28.2406C14.985 28.7615 17.6994 28.4941 20.1662 27.4724C22.633 26.4506 24.7414 24.7203 26.2248 22.5002C27.7082 20.2801 28.5 17.67 28.5 15C28.5 11.4196 27.0777 7.9858 24.5459 5.45406C22.0142 2.92232 18.5804 1.5 15 1.5V1.5ZM15 6.32143C15.8582 6.32143 16.6972 6.57592 17.4108 7.05273C18.1244 7.52954 18.6805 8.20724 19.009 9.00014C19.3374 9.79304 19.4233 10.6655 19.2559 11.5073C19.0885 12.349 18.6752 13.1222 18.0683 13.729C17.4615 14.3359 16.6883 14.7492 15.8466 14.9166C15.0048 15.0841 14.1323 14.9981 13.3394 14.6697C12.5465 14.3413 11.8688 13.7851 11.392 13.0715C10.9152 12.3579 10.6607 11.5189 10.6607 10.6607C10.6594 10.0905 10.7708 9.52568 10.9884 8.99864C11.2061 8.4716 11.5256 7.99273 11.9288 7.58954C12.332 7.18635 12.8109 6.86677 13.3379 6.64915C13.865 6.43153 14.4298 6.32016 15 6.32143V6.32143ZM22.7143 23.6014C20.5996 25.513 17.8506 26.5713 15 26.5713C12.1494 26.5713 9.40038 25.513 7.28572 23.6014V23.0421C7.2492 21.7218 7.73509 20.4404 8.63784 19.4763C9.5406 18.5122 10.7873 17.9431 12.1071 17.8929H17.8929C19.2067 17.9456 20.4476 18.5113 21.349 19.4687C22.2504 20.426 22.7406 21.6985 22.7143 23.0132V23.6014V23.6014Z" fill="white"/>
</svg>
