<?xml version="1.0" encoding="UTF-8" standalone="no"?>
<svg
   width="500.00003"
   height="500.00003"
   viewBox="0 0 132.29141 132.29167"
   version="1.1"
   id="svg4"
   sodipodi:docname="trn.svg"
   inkscape:version="1.1.1 (3bf5ae0d25, 2021-09-20)"
   xmlns:inkscape="http://www.inkscape.org/namespaces/inkscape"
   xmlns:sodipodi="http://sodipodi.sourceforge.net/DTD/sodipodi-0.dtd"
   xmlns="http://www.w3.org/2000/svg"
   xmlns:svg="http://www.w3.org/2000/svg">
  <defs
     id="defs8" />
  <sodipodi:namedview
     id="namedview6"
     pagecolor="#ffffff"
     bordercolor="#666666"
     borderopacity="1.0"
     inkscape:pageshadow="2"
     inkscape:pageopacity="0.0"
     inkscape:pagecheckerboard="0"
     showgrid="false"
     inkscape:zoom="0.89375"
     inkscape:cx="38.041958"
     inkscape:cy="298.18182"
     inkscape:window-width="2560"
     inkscape:window-height="1017"
     inkscape:window-x="-8"
     inkscape:window-y="-8"
     inkscape:window-maximized="1"
     inkscape:current-layer="g1056" />
  <rect
     style="fill:#316597;fill-opacity:1;stroke-width:0.158751;paint-order:markers stroke fill"
     id="rect1164"
     width="132.29167"
     height="132.29167"
     x="-0.00013087646"
     y="-8.7646481e-07" />
  <g
     id="g1056"
     transform="translate(0,4.5325426)">
    <path
       d="M 89.915372,108.25988 C 103.90581,101.15612 112.7291,89.732228 116.82791,73.422118 121.22039,55.94578 116.17243,38.422622 102.94389,25.194067 99.24091,21.491094 92.362737,16.655943 87.659535,14.451185 80.36425,11.033381 77.116698,10.441757 65.590655,10.450268 53.902883,10.463102 50.936243,11.02487 43.628189,14.604401 33.608877,19.511913 22.295651,31.071999 17.992541,40.806141 c -1.702523,3.843439 -3.430572,11.189808 -3.843437,16.322881 -0.774644,9.649022 0.459695,20.132268 2.3665,20.132268 0.595881,0 1.842978,-3.958341 2.762334,-8.793497 C 21.631669,56.086238 25.279315,49.148474 34.132401,40.248567 51.42146,22.85736 74.711892,19.912006 90.187772,33.157583 104.63363,45.526369 104.16119,66.377962 89.072627,82.262442 81.564523,90.170627 76.044112,92.732913 66.203563,92.86912 59.184936,92.971328 56.882287,92.290266 52.217387,88.732009 49.1486,86.391044 45.943612,82.679558 45.096609,80.491824 42.62796,74.098865 44.449652,64.394517 49.267775,58.320796 c 2.370754,-2.992176 5.375702,-7.222929 6.67387,-9.393635 2.366495,-3.958355 9.440453,-5.967319 14.347954,-4.086048 1.872779,0.72357 1.859999,1.417351 -0.08511,5.179911 -2.498445,4.830893 -5.039452,6.214191 -11.389845,6.214191 -6.282284,0 -11.066356,7.342104 -11.066356,16.9826 0,6.486599 0.621415,8.001839 4.813862,11.747371 3.949843,3.532725 6.175885,4.307369 12.377301,4.307369 8.546637,0 13.875517,-2.306917 19.621514,-8.499822 C 93.414054,71.238648 95.908233,58.286744 90.919866,47.777962 88.166032,41.972371 78.40636,35.519839 70.404526,34.225923 62.777252,32.987344 49.944528,37.290459 42.64073,43.547208 21.50398,61.636447 21.835972,89.685412 43.372813,104.82505 c 12.98169,9.12548 32.501047,10.56837 46.542559,3.43483 z"
       style="fill:#ffffff;stroke-width:0.264583"
       id="path847" />
  </g>
</svg>
