<svg xmlns="http://www.w3.org/2000/svg" width="68.761" height="76.698" viewBox="0 0 68.761 76.698"><defs><style>.a{fill:#e6af78;}.b{fill:#eff2fa;}.c{fill:#d29b6e;}.d{fill:#f0c087;}.e{fill:#e4eaf6;}.f{fill:#5b5d6e;}.g{fill:#515262;}.h{fill:#785550;}.i{fill:#694b4b;}.j{fill:#5a4146;}</style></defs><path class="a" d="M200.36,309.406V300.15h-23.8v9.256l11.9,10.579Z" transform="translate(-154.078 -255.187)"/><path class="b" d="M91.178,365.3l-16.363-3.85a2.628,2.628,0,0,1-.687-.277L60.875,368.9l-12.736-8.1a2.635,2.635,0,0,1-1.2.651L30.573,365.3a5.289,5.289,0,0,0-4.078,5.149v10.356a2.645,2.645,0,0,0,2.645,2.645H92.611a2.645,2.645,0,0,0,2.645-2.645V370.449A5.289,5.289,0,0,0,91.178,365.3Z" transform="translate(-26.495 -306.752)"/><path class="c" d="M176.558,300.149v9.766c14.992,5.4,23.8-8.117,23.8-8.117v-1.649h-23.8Z" transform="translate(-154.078 -255.186)"/><path class="d" d="M141.249,97.127l1.152,25.351a7.934,7.934,0,0,0,3.165,5.987l5.467,4.1a7.935,7.935,0,0,0,4.76,1.587h5.289a7.934,7.934,0,0,0,4.76-1.587l5.467-4.1a7.934,7.934,0,0,0,3.165-5.987l1.152-25.351Z" transform="translate(-124.059 -82.577)"/><path class="a" d="M154.472,102.415c5.289,0,13.223-1.322,15.1-5.289H141.249l1.152,25.351a7.934,7.934,0,0,0,3.165,5.987l5.467,4.1a7.935,7.935,0,0,0,4.76,1.587h2.645c-2.645,0-7.934-5.289-7.934-11.9V106.382A4.222,4.222,0,0,1,154.472,102.415Z" transform="translate(-124.059 -82.577)"/><g transform="translate(0 60.42)"><path class="e" d="M36.205,411.029l-8.568-7.7A5.28,5.28,0,0,0,26.5,406.61v10.356a2.644,2.644,0,0,0,2.645,2.645H38.4v-3.663A6.612,6.612,0,0,0,36.205,411.029Z" transform="translate(-26.498 -403.332)"/><path class="e" d="M408.256,411.029l8.568-7.7a5.28,5.28,0,0,1,1.139,3.278v10.356a2.644,2.644,0,0,1-2.645,2.645h-9.256v-3.663A6.611,6.611,0,0,1,408.256,411.029Z" transform="translate(-349.204 -403.332)"/></g><path class="f" d="M240.546,444.457h-6.612l.826-11.9h4.959Z" transform="translate(-202.859 -367.759)"/><path class="g" d="M240.546,414.9h-6.612v2.489a1.478,1.478,0,0,0,1.478,1.478h3.655a1.478,1.478,0,0,0,1.478-1.478V414.9Z" transform="translate(-202.859 -352.749)"/><g transform="translate(18.513 50.935)"><path class="e" d="M153.859,340.36l12.087,10.878a45.609,45.609,0,0,0-7.562,5.153,1.7,1.7,0,0,1-2.627-.594L150.078,343.3l1.8-2.694A1.322,1.322,0,0,1,153.859,340.36Z" transform="translate(-150.078 -340.021)"/><path class="e" d="M268.089,340.36,256,351.238a45.61,45.61,0,0,1,7.562,5.153,1.7,1.7,0,0,0,2.627-.594L271.87,343.3l-1.8-2.694A1.322,1.322,0,0,0,268.089,340.36Z" transform="translate(-240.134 -340.021)"/></g><path class="h" d="M309.516,33.985l1.24,8.76c5.659,1.132,6.474,10.012,6.592,12.549a2.608,2.608,0,0,0,.418,1.292l2.159,3.349s-.739-5.537,2.645-9.256C322.569,50.679,323.731,28.7,309.516,33.985Z" transform="translate(-267.119 -28.195)"/><path class="d" d="M357.216,188.8l-1.493,5.971a1.589,1.589,0,0,1-1.542,1.2h0a1.59,1.59,0,0,1-1.578-1.393l-.764-6.107a2.739,2.739,0,0,1,2.718-3.079h0A2.739,2.739,0,0,1,357.216,188.8Z" transform="translate(-303.084 -157.624)"/><path class="i" d="M119.307,3.421l1.956,1.336c-8.843,6.529-7.19,17.727-7.19,17.727,2.645,2.645,2.645,9.256,2.645,9.256l2.645-2.645s-1.021-7.64,3.967-10.579c4.628-2.727,8.678-1.322,12.81-1.322,11.074,0,14.174-4.174,13.636-9.256C149.5,5.309,145.476-.169,135.23,0,131.094.075,123.329,1.327,119.307,3.421Z" transform="translate(-100.849 -0.001)"/><path class="j" d="M118.535,43.032a14.526,14.526,0,0,1,2.727-11.281c-8.843,6.529-7.19,17.727-7.19,17.727,2.645,2.645,2.645,9.256,2.645,9.256l2.645-2.645s-1.021-7.64,3.967-10.579c4.628-2.727,8.678-1.322,12.81-1.322a32.488,32.488,0,0,0,4.768-.327C132.379,44.148,127.351,37.687,118.535,43.032Z" transform="translate(-100.849 -26.995)"/><path class="a" d="M123.681,188.8l1.493,5.971a1.589,1.589,0,0,0,1.542,1.2h0a1.59,1.59,0,0,0,1.578-1.393l.764-6.107a2.739,2.739,0,0,0-2.718-3.079h0A2.739,2.739,0,0,0,123.681,188.8Z" transform="translate(-109.052 -157.624)"/><path class="e" d="M310.717,494.346H301.46a1.322,1.322,0,0,0-1.322,1.322v1.322h11.9v-1.322A1.322,1.322,0,0,0,310.717,494.346Z" transform="translate(-259.146 -420.292)"/></svg>