<svg xmlns="http://www.w3.org/2000/svg" width="76.698" height="76.698" viewBox="0 0 76.698 76.698"><defs><style>.a{fill:#2385ec;}.b{fill:#d93d3d;}.c{fill:#fc5b5b;}.d{fill:#f4c1a8;}.e{fill:#e7aa91;}.f{fill:#484f60;}.g{fill:#272f38;}.h{fill:#31383b;}.i{fill:#fff;}.j{fill:#fd9b3d;}.k{fill:#fee887;}.l{fill:#e5ded4;}.m{fill:#fffbee;}</style></defs><path class="a" d="M76.7,38.349A38.349,38.349,0,1,1,38.349,0,38.349,38.349,0,0,1,76.7,38.349Zm0,0"/><path class="b" d="M167.669,368.7v4.381a38.316,38.316,0,0,1-37.786,0V368.7a14.25,14.25,0,0,1,13.086-14.2c.385-.031.773-.047,1.166-.047h9.28a14.23,14.23,0,0,1,14.253,14.25Zm0,0" transform="translate(-110.426 -301.352)"/><path class="c" d="M208.979,368.7v4.381a38.457,38.457,0,0,1-30.507,3.179V368.7a14.252,14.252,0,0,1,14.253-14.25h2A14.251,14.251,0,0,1,208.98,368.7Zm0,0" transform="translate(-151.737 -301.352)"/><path class="b" d="M208.5,348.779l-6.416,3.565-1.952-9.078,3.987-2.348" transform="translate(-170.152 -289.848)"/><path class="b" d="M255.992,348.779l6.416,3.565,1.952-9.078-3.987-2.348" transform="translate(-217.644 -289.848)"/><path class="b" d="M251.416,376.3v20.316c-.327.008-.652.013-.981.013s-.656,0-.981-.014V376.3Zm0,0" transform="translate(-212.085 -319.927)"/><path class="d" d="M109.219,222.7a4.728,4.728,0,0,1-3.971,4.668,4.68,4.68,0,0,1-.758.061,4.728,4.728,0,0,1,0-9.457,4.68,4.68,0,0,1,.758.061,4.728,4.728,0,0,1,3.971,4.667Zm0,0" transform="translate(-84.818 -185.317)"/><path class="e" d="M136.791,223.042a4.728,4.728,0,0,1-3.971,4.668,17.663,17.663,0,0,1,0-9.335A4.728,4.728,0,0,1,136.791,223.042Zm0,0" transform="translate(-112.389 -185.662)"/><path class="e" d="M123.423,239.94a1.69,1.69,0,1,1-1.691-1.69A1.69,1.69,0,0,1,123.423,239.94Zm0,0" transform="translate(-102.06 -202.56)"/><path class="d" d="M349.109,222.7a4.728,4.728,0,0,0,3.971,4.668,4.68,4.68,0,0,0,.758.061,4.728,4.728,0,0,0,0-9.457,4.68,4.68,0,0,0-.758.061,4.728,4.728,0,0,0-3.971,4.667Zm0,0" transform="translate(-296.812 -185.317)"/><g transform="translate(20.756 17.274)"><path class="e" d="M349.109,223.042a4.728,4.728,0,0,0,3.971,4.668,17.662,17.662,0,0,0,0-9.335A4.728,4.728,0,0,0,349.109,223.042Zm0,0" transform="translate(-317.568 -202.936)"/><path class="e" d="M372.77,239.94a1.69,1.69,0,1,1-1.69-1.69A1.69,1.69,0,0,1,372.77,239.94Zm0,0" transform="translate(-334.811 -219.834)"/><path class="e" d="M173.745,132.906a17.593,17.593,0,1,1-17.594-17.593,17.406,17.406,0,0,1,2.824.227,17.594,17.594,0,0,1,14.77,17.366Zm0,0" transform="translate(-138.559 -115.314)"/><path class="e" d="M232.228,317.8v6.24a5.085,5.085,0,0,1-10.17,0V317.8Zm0,0" transform="translate(-209.55 -287.468)"/></g><path class="d" d="M249.534,356.816v.4a5.083,5.083,0,0,1-3.581,4.856,5.082,5.082,0,0,1-3.539-4.194q.509.032,1.024.031a17.575,17.575,0,0,0,6.1-1.088Zm0,0" transform="translate(-206.1 -303.364)"/><path class="d" d="M205.793,134.194a17.6,17.6,0,0,1-14.769,17.366,17.595,17.595,0,0,1,0-34.732,17.6,17.6,0,0,1,14.683,15.612c.057.577.087,1.163.087,1.754Zm0,0" transform="translate(-149.85 -99.327)"/><path class="f" d="M173.608,91.678a10.447,10.447,0,0,0-10.432-9.927H150.119a10.445,10.445,0,0,0-10.392,9.4c-.019.176-.032.352-.041.531l-.545,10.94a3.585,3.585,0,0,0,4.606-2.892L144.1,97.4h25.1l.349,2.322a3.586,3.586,0,0,0,4.605,2.892h0Zm0,0" transform="translate(-118.298 -69.504)"/><path class="g" d="M158.314,81.75a10.444,10.444,0,0,0-10.392,9.4c-.019.176-.032.352-.041.531l-.089,1.783-.276-.05-2.744-.506-1.026,6.821a3.586,3.586,0,0,1-4.606,2.892l.545-10.94c.009-.178.022-.355.041-.531a10.445,10.445,0,0,1,10.392-9.4Zm0,0" transform="translate(-118.297 -69.504)"/><path class="h" d="M208.335,214.594a2,2,0,1,1-2-2A2,2,0,0,1,208.335,214.594Zm0,0" transform="translate(-173.733 -180.75)"/><path class="h" d="M285,214.594a2,2,0,1,1-2-2A2,2,0,0,1,285,214.594Zm0,0" transform="translate(-238.916 -180.75)"/><path class="i" d="M218.565,218.715a.855.855,0,1,1-.855-.855A.855.855,0,0,1,218.565,218.715Zm0,0" transform="translate(-184.37 -185.223)"/><path class="i" d="M295.89,218.715a.855.855,0,1,1-.855-.855A.855.855,0,0,1,295.89,218.715Zm0,0" transform="translate(-250.111 -185.223)"/><path class="e" d="M229.355,285.384a8.891,8.891,0,0,1-4.289-1.108.783.783,0,0,1,.754-1.372,7.3,7.3,0,0,0,7.07,0,.783.783,0,1,1,.754,1.372A8.889,8.889,0,0,1,229.355,285.384Zm0,0" transform="translate(-191.006 -240.443)"/><path class="b" d="M289.441,444.363h9.235v2.5h-9.235Zm0,0" transform="translate(-246.082 -377.797)"/><path class="e" d="M241.786,249.691h-3.991a.861.861,0,0,1,0-1.722h3.991a.861.861,0,0,1,0,1.722Zm0,0" transform="translate(-201.44 -210.823)"/><path class="j" d="M168.656,32.651v1.98H131.293v-1.98a18.664,18.664,0,0,1,18.682-18.682c.115,0,.231,0,.344.005a18.68,18.68,0,0,1,18.337,18.677Zm0,0" transform="translate(-111.625 -11.876)"/><path class="k" d="M276.638,32.681v1.291H258.3V14a18.68,18.68,0,0,1,18.337,18.677Zm0,0" transform="translate(-219.607 -11.906)"/><path class="k" d="M146.544,19.484V33.638H133.739A18.712,18.712,0,0,1,146.544,19.484Zm0,0" transform="translate(-113.704 -16.566)"/><path class="j" d="M210.921,149.6l-1.031,4.845a2.8,2.8,0,0,1-2.736,2.215H195.4a2.8,2.8,0,0,1-2.736-2.215l-1.03-4.845Zm0,0" transform="translate(-162.929 -127.188)"/><path class="k" d="M226.892,172.281l-.308,1.447a2.8,2.8,0,0,1-2.736,2.215h-9.813a2.8,2.8,0,0,1-2.736-2.215,1.2,1.2,0,0,1,1.171-1.447Zm0,0" transform="translate(-179.623 -146.473)"/><path class="k" d="M154.786,130.059H115.843a1.793,1.793,0,0,0-1.793,1.793v1.924a1.793,1.793,0,0,0,1.793,1.792h38.943a1.792,1.792,0,0,0,1.793-1.792v-1.924A1.792,1.792,0,0,0,154.786,130.059Zm0,0" transform="translate(-96.965 -110.576)"/><path class="j" d="M125.435,135.568h-9.587a1.793,1.793,0,0,1-1.792-1.792v-1.925a1.793,1.793,0,0,1,1.792-1.792h9.587a1.793,1.793,0,0,0-1.792,1.792v1.925A1.793,1.793,0,0,0,125.435,135.568Zm0,0" transform="translate(-96.97 -110.576)"/><path class="j" d="M146.544,19.484v.7c-3.877,2.4-6.782,7.391-7.635,13.449l-2.581,1.18-2.589-1.18a18.712,18.712,0,0,1,12.806-14.153Zm0,0" transform="translate(-113.704 -16.566)"/><path class="k" d="M240.079.281h-3.335a1.432,1.432,0,0,0-1.431,1.432v21.28h6.2V1.713A1.432,1.432,0,0,0,240.079.281Zm0,0" transform="translate(-200.063 -0.239)"/><path class="l" d="M60.6,287.893a8.587,8.587,0,0,0,1.861,7.073,5.826,5.826,0,0,1,1.3,4.242,38.537,38.537,0,0,1-8.833-7.326c.036-.136.067-.274.094-.413l.486-2.489.829-4.271a8.585,8.585,0,0,0-1.861-7.073,5.826,5.826,0,0,1,.512-7.942l1.05,3.5a2.582,2.582,0,1,0,4.946-1.481l-1.061-3.547a5.839,5.839,0,0,1,3.683,9.349,8.555,8.555,0,0,0-1.689,3.612Zm0,0" transform="translate(-45.186 -227.999)"/><path class="e" d="M63.366,346.507v4.457a3.991,3.991,0,0,1-7.983,0v-4.457a3.991,3.991,0,0,1,7.983,0Zm0,0" transform="translate(-47.086 -291.206)"/><path class="d" d="M80.243,348.134v4.457a3.99,3.99,0,0,1-2.5,3.7,3.99,3.99,0,0,1-2.5-3.7v-4.457a3.993,3.993,0,0,1,2.5-3.7,3.994,3.994,0,0,1,2.5,3.7Zm0,0" transform="translate(-63.964 -292.833)"/><path class="m" d="M315.176,71.234a2.953,2.953,0,1,0,2.953,2.953A2.953,2.953,0,0,0,315.176,71.234Zm0,0" transform="translate(-265.452 -60.563)"/></svg>