<svg xmlns="http://www.w3.org/2000/svg" width="77.573" height="76.698" viewBox="0 0 77.573 76.698"><defs><style>.a{fill:#c7eefd;}.b{fill:#98e5fb;}.c{fill:#0592fb;}.d{fill:#0181fb;}.e{fill:#0067c4;}.f{fill:#c76d36;}.g{fill:#ab5e2e;}.h{fill:#fdd1a3;}.i{fill:#ffbb85;}.j{fill:#5a5a5a;}.k{fill:#9b9b9b;}.l{fill:#828282;}</style></defs><path class="a" d="M26.322,338.8l-3.234-3.234L20,337.679A1.275,1.275,0,0,1,18,336.627v-4.215H7.974A7.932,7.932,0,0,0,0,340.284v10.346a.855.855,0,0,0,.855.855H22.474Z" transform="translate(0 -282.485)"/><path class="a" d="M221.062,348.849l-.213-.358A13.168,13.168,0,0,1,219.4,345l-.1-.4-3.659-.783a.892.892,0,0,1-.7-.868v-2.436a.892.892,0,0,1,.7-.868l3.659-.783.1-.4a13.158,13.158,0,0,1,1.448-3.492l.213-.358-1.42-2.194h-8.463v4.215a1.275,1.275,0,0,1-1.994,1.052l-3.09-2.112L202.86,338.8l3.821,12.685h12.675Z" transform="translate(-172.125 -282.484)"/><path class="b" d="M6.546,350.629V340.283a7.933,7.933,0,0,1,7.974-7.873H7.974A7.933,7.933,0,0,0,0,340.283v10.346a.855.855,0,0,0,.855.855H7.4A.855.855,0,0,1,6.546,350.629Z" transform="translate(0 -282.484)"/><path class="c" d="M155.967,373.779l-1.331,1.331a1.414,1.414,0,0,1-1.993,0l-1.331-1.331-3.861,12.806h12.378Z" transform="translate(-125.11 -317.585)"/><path class="d" d="M153.639,375.522a1.4,1.4,0,0,1-1-.411l-1.331-1.331-3.861,12.806h2.985l3.337-11.07C153.728,375.52,153.684,375.522,153.639,375.522Z" transform="translate(-125.11 -317.586)"/><path class="d" d="M157.117,328.69l-5.568,3.806,4.464,4.464a1.565,1.565,0,0,0,2.207,0l4.464-4.464Z" transform="translate(-128.588 -279.328)"/><path class="e" d="M155.811,333.251l.378-.378-4.641,3.172,4.464,4.464a1.565,1.565,0,0,0,2.207,0l1.321-1.321-3.73-3.73A1.565,1.565,0,0,1,155.811,333.251Z" transform="translate(-128.588 -282.877)"/><path class="b" d="M130.606,312.465h-4.2a15.8,15.8,0,0,1-8.577-2.515v7.618a1.426,1.426,0,0,0,2.231,1.178l8.445-5.773,8.445,5.773a1.427,1.427,0,0,0,2.231-1.178V309.95a15.8,15.8,0,0,1-8.578,2.515Z" transform="translate(-99.978 -263.427)"/><path class="f" d="M87.416,2.886C77.467,2.886,69.4,6.541,69.4,16.338v9.756c.019-9.771,8.077-13.418,18.014-13.418s18.014,3.655,18.014,13.452v-9.79c0-9.8-8.065-13.451-18.013-13.451Z" transform="translate(-58.887 -2.886)"/><path class="g" d="M74.271,15.789C74.543,7.2,81.228,3.523,89.846,2.964q-1.192-.077-2.429-.077C77.467,2.887,69.4,6.542,69.4,16.339v9.536c.009-4.672,1.857-7.944,4.869-10.086Z" transform="translate(-58.887 -2.887)"/><path class="h" d="M37.261,178.4V170.3H34.655a3.276,3.276,0,0,0-3.311,3.239v3.921a3.275,3.275,0,0,0,3.311,3.239h2.779A15.462,15.462,0,0,1,37.261,178.4Z" transform="translate(-26.595 -144.939)"/><path class="i" d="M307.828,170.3h-2.607V178.4a15.457,15.457,0,0,1-.173,2.308h2.78a3.275,3.275,0,0,0,3.311-3.239v-3.921A3.276,3.276,0,0,0,307.828,170.3Z" transform="translate(-258.83 -144.939)"/><path class="h" d="M87.413,66.052C77.464,66.052,69.4,69.707,69.4,79.5V89.938a15.826,15.826,0,0,0,15.916,15.733h4.2a15.825,15.825,0,0,0,15.915-15.733V79.5C105.427,69.707,97.362,66.052,87.413,66.052Z" transform="translate(-58.884 -56.482)"/><path class="i" d="M74.259,89.938V79.5c0-8.985,6.785-12.8,15.585-13.375q-1.192-.077-2.43-.077C77.464,66.052,69.4,69.707,69.4,79.5V89.938a15.826,15.826,0,0,0,15.915,15.733h4.2c.11,0,.221,0,.331,0A15.821,15.821,0,0,1,74.259,89.938Z" transform="translate(-58.884 -56.482)"/><g transform="translate(17.743 22.718)"><path class="g" d="M174.987,169.3H172.81a2.147,2.147,0,0,1-2.151-2.138v-4.135a1.136,1.136,0,1,1,2.273,0v4h2.055a1.136,1.136,0,1,1,0,2.272Z" transform="translate(-162.545 -160.52)"/><path class="g" d="M118.241,158.726a1.136,1.136,0,0,1-1.136-1.136v-3.621a1.136,1.136,0,1,1,2.273,0v3.621A1.136,1.136,0,0,1,118.241,158.726Z" transform="translate(-117.105 -152.832)"/><path class="g" d="M245.623,158.726a1.136,1.136,0,0,1-1.136-1.136v-3.621a1.136,1.136,0,0,1,2.273,0v3.621A1.136,1.136,0,0,1,245.623,158.726Z" transform="translate(-225.187 -152.832)"/><path class="g" d="M147.931,234.878a7.23,7.23,0,0,1-7.208-7.235,1.136,1.136,0,0,1,2.273,0,4.935,4.935,0,1,0,9.87,0,1.136,1.136,0,0,1,2.273,0A7.23,7.23,0,0,1,147.931,234.878Z" transform="translate(-137.145 -215.344)"/></g><path class="j" d="M348.5,336.995a8.622,8.622,0,1,0,8.622,8.622A8.632,8.632,0,0,0,348.5,336.995Z" transform="translate(-288.385 -286.374)"/><ellipse class="k" cx="4.778" cy="4.778" rx="4.778" ry="4.778" transform="translate(55.339 54.464)"/><path class="l" d="M368.795,367.141A4.779,4.779,0,0,1,371.8,362.7a4.778,4.778,0,1,0,0,8.874A4.779,4.779,0,0,1,368.795,367.141Z" transform="translate(-309.909 -307.899)"/><path class="k" d="M297.813,313.6a1.038,1.038,0,0,1-1.016-.821l-.763-3.567-.313-.079a13.3,13.3,0,0,1-3.532-1.465l-.277-.165-3.064,1.983a1.039,1.039,0,0,1-1.3-.138l-1.722-1.722a1.038,1.038,0,0,1-.137-1.3l1.983-3.064-.165-.277a13.315,13.315,0,0,1-1.465-3.533l-.079-.313-3.567-.763a1.039,1.039,0,0,1-.821-1.016v-2.436a1.039,1.039,0,0,1,.821-1.016l3.567-.763.079-.313a13.316,13.316,0,0,1,1.465-3.533l.165-.277-1.983-3.064a1.039,1.039,0,0,1,.137-1.3l1.722-1.722a1.039,1.039,0,0,1,1.3-.137l3.064,1.983.277-.165a13.312,13.312,0,0,1,3.533-1.465l.313-.079.763-3.567a1.039,1.039,0,0,1,1.016-.821h2.436a1.039,1.039,0,0,1,1.016.821l.763,3.567.312.079a13.318,13.318,0,0,1,3.533,1.465l.277.165,3.063-1.983a1.039,1.039,0,0,1,1.3.137l1.722,1.722a1.039,1.039,0,0,1,.138,1.3l-1.983,3.063.165.277a13.325,13.325,0,0,1,1.465,3.533l.08.312,3.566.763a1.039,1.039,0,0,1,.822,1.016v2.436a1.039,1.039,0,0,1-.822,1.016l-3.566.763-.08.313a13.322,13.322,0,0,1-1.465,3.533l-.165.277,1.983,3.064a1.039,1.039,0,0,1-.138,1.3l-1.722,1.722a1.039,1.039,0,0,1-1.3.138L306.15,307.5l-.277.165a13.323,13.323,0,0,1-3.533,1.465l-.312.079-.763,3.567a1.039,1.039,0,0,1-1.016.821h-2.436Zm1.218-26.078a8.622,8.622,0,1,0,8.622,8.622A8.632,8.632,0,0,0,299.031,287.523Z" transform="translate(-238.914 -236.902)"/></svg>