<?xml version="1.0" encoding="UTF-8" standalone="no"?>
<!-- Generator: Adobe Illustrator 19.0.0, SVG Export Plug-In . SVG Version: 6.00 Build 0)  -->

<svg
   version="1.1"
   id="Layer_1"
   x="0px"
   y="0px"
   viewBox="0 0 1179.7904 1179.7904"
   xml:space="preserve"
   sodipodi:docname="dinheiro.svg"
   width="1179.7904"
   height="1179.7904"
   inkscape:version="1.1.1 (3bf5ae0d25, 2021-09-20)"
   xmlns:inkscape="http://www.inkscape.org/namespaces/inkscape"
   xmlns:sodipodi="http://sodipodi.sourceforge.net/DTD/sodipodi-0.dtd"
   xmlns="http://www.w3.org/2000/svg"
   xmlns:svg="http://www.w3.org/2000/svg"><defs
   id="defs63" /><sodipodi:namedview
   id="namedview61"
   pagecolor="#ffffff"
   bordercolor="#666666"
   borderopacity="1.0"
   inkscape:pageshadow="2"
   inkscape:pageopacity="0.0"
   inkscape:pagecheckerboard="0"
   showgrid="false"
   inkscape:zoom="0.29623907"
   inkscape:cx="-442.21041"
   inkscape:cy="913.11385"
   inkscape:window-width="2560"
   inkscape:window-height="1017"
   inkscape:window-x="-8"
   inkscape:window-y="-8"
   inkscape:window-maximized="1"
   inkscape:current-layer="Layer_1" />
<rect
   style="fill:#ff8e31;fill-opacity:1;stroke-width:0.599999;paint-order:markers stroke fill"
   id="rect1001"
   width="1179.7904"
   height="1179.7904"
   x="0"
   y="0" />
<path
   style="fill:#ed7425;stroke-width:1"
   d="M 1163.4589,670.92576 900.96961,408.42509 887.88898,395.35128 C 867.13301,376.50105 841.57283,361.74236 812.94115,352.5438 l -85.2575,-85.25296 c -8.41077,-8.40621 -20.06836,-13.65668 -32.79836,-13.65668 H 544.99875 425.33998 c -25.57156,0 -46.46643,20.89031 -46.46643,46.46187 v 573.22779 c 0,12.23364 4.74501,23.31518 12.56607,31.65081 l 2.25638,2.23817 258.65275,258.6186 C 915.5712,1136.3072 1125.722,931.59583 1163.4589,670.92576 Z"
   id="path4" />
<path
   style="fill:#34495e;stroke-width:1"
   d="M 694.90579,253.65237 H 425.29444 c -25.51236,0 -46.4391,20.89031 -46.4391,46.46187 v 573.2278 c 0,25.55334 20.92446,46.45504 46.4391,46.45504 h 269.60452 c 25.54196,0 46.42088,-20.9017 46.42088,-46.45504 v -573.2278 c 0,-25.56928 -20.87892,-46.46187 -46.41405,-46.46187 z"
   id="path6" />
<rect
   x="405.14865"
   y="354.32883"
   style="fill:#cee2f2;stroke-width:1"
   width="309.85962"
   height="464.73022"
   id="rect8" />
<polygon
   style="fill:#f2f9ff;stroke-width:0.439199"
   points="176.253,358.06 176.253,153.938 312.353,153.938 "
   id="polygon10"
   transform="matrix(2.2768729,0,0,2.2768729,3.8429738,3.8429738)" />
<path
   style="fill:#283a4d;stroke-width:1"
   d="m 571.7725,303.98493 c 0,6.45721 -5.20038,11.68036 -11.68036,11.68036 -6.43444,0 -11.68036,-5.22315 -11.68036,-11.68036 0,-6.45266 5.24592,-11.68719 11.68036,-11.68719 6.47998,0 11.68036,5.23453 11.68036,11.68719 z"
   id="path12" />
<g
   id="g18"
   transform="matrix(2.2768729,0,0,2.2768729,3.8429738,3.8429738)"
   style="stroke-width:0.439199">
	<path
   style="fill:#5d6d7e;stroke-width:0.439199"
   d="m 246.362,131.814 c 0,1.137 -0.924,2.051 -2.058,2.051 -1.126,0 -2.053,-0.914 -2.053,-2.051 0,-1.126 0.927,-2.058 2.053,-2.058 1.133,0.003 2.058,0.932 2.058,2.058 z"
   id="path14" />
	<path
   style="fill:#5d6d7e;stroke-width:0.439199"
   d="m 231.683,386.611 c -3.087,0 -5.594,-2.506 -5.594,-5.604 v -1.664 c 0,-3.098 2.506,-5.604 5.594,-5.604 h 25.236 c 3.087,0 5.596,2.506 5.596,5.604 v 1.664 c 0,3.098 -2.506,5.604 -5.596,5.604 z"
   id="path16" />
</g>
<path
   style="fill:#283a4d;stroke-width:1"
   d="m 597.93149,871.34294 c 0,5.03645 -4.09837,9.12799 -9.10977,9.12799 h -57.45916 c -5.01368,0 -9.10977,-4.09154 -9.10977,-9.12799 v -3.78871 c 0,-5.00229 4.09837,-9.12799 9.10977,-9.12799 h 57.45916 c 5.01368,0 9.10977,4.1257 9.10977,9.12799 z"
   id="path20" />
<path
   style="fill:#c1d354;stroke-width:1"
   d="m 943.60861,515.71589 c 0,95.99979 -89.49021,173.85518 -199.82747,173.85518 -110.38052,0 -199.8639,-77.85539 -199.8639,-173.85518 0,-96.01801 89.48338,-173.86657 199.8639,-173.86657 110.33726,0 199.82747,77.8554 199.82747,173.86657 z"
   id="path22" />
<path
   style="fill:#f2f9ff;stroke-width:1"
   d="m 735.42046,605.44973 c -26.87165,-2.09245 -46.96733,-12.77098 -60.78795,-27.12211 l 17.21316,-23.75234 c 9.65849,10.71269 24.79514,20.62164 43.57707,23.51326 v -50.64676 c -26.87165,-6.74865 -55.05251,-16.43674 -55.05251,-50.34849 0,-26.60753 21.39805,-47.73236 55.05251,-50.59439 v -24.021 h 20.84477 v 24.26463 c 21.1476,2.33152 38.88444,10.69675 52.46598,23.74095 l -17.21771,22.70953 c -9.92034,-9.90895 -22.44086,-15.93583 -35.24599,-18.54058 v 45.14356 c 27.13349,7.02871 56.63266,17.24732 56.63266,52.16088 0,26.62576 -17.475,50.10487 -56.63266,53.49741 v 23.47228 h -20.84477 z m 0,-111.12051 v -40.98143 c -14.61297,1.82377 -23.74551,9.93855 -23.74551,21.4026 0,10.18901 9.93172,15.38255 23.74551,19.57883 z m 20.84477,38.58161 v 45.41906 c 18.03967,-2.62978 25.32566,-13.30149 25.32566,-23.49505 0,-11.72362 -10.94037,-17.47044 -25.32566,-21.92401 z"
   id="path24" />
<polygon
   style="fill:#c1d354;stroke-width:0.439199"
   points="235.057,310.912 276.71,288.276 257.684,269.253 "
   id="polygon26"
   transform="matrix(2.2768729,0,0,2.2768729,3.8429738,3.8429738)" />
<path
   style="fill:#dbeba0;stroke-width:1"
   d="m 583.45741,500.90483 c -0.91986,0 -1.87159,-0.11612 -2.80283,-0.34381 -6.51641,-1.54372 -10.53737,-8.06696 -8.99365,-14.57198 10.6034,-44.64265 45.63992,-83.54985 93.76846,-104.06675 6.16122,-2.64118 13.27189,0.22768 15.90168,6.37069 2.61613,6.18398 -0.2459,13.27189 -6.40029,15.90623 -41.08162,17.51598 -70.87905,50.18 -79.686,87.36133 -1.33652,5.58517 -6.30238,9.34429 -11.78737,9.34429 z"
   id="path28" />
<g
   id="g30"
   transform="translate(332.50173,332.50173)">
</g>
<g
   id="g32"
   transform="translate(332.50173,332.50173)">
</g>
<g
   id="g34"
   transform="translate(332.50173,332.50173)">
</g>
<g
   id="g36"
   transform="translate(332.50173,332.50173)">
</g>
<g
   id="g38"
   transform="translate(332.50173,332.50173)">
</g>
<g
   id="g40"
   transform="translate(332.50173,332.50173)">
</g>
<g
   id="g42"
   transform="translate(332.50173,332.50173)">
</g>
<g
   id="g44"
   transform="translate(332.50173,332.50173)">
</g>
<g
   id="g46"
   transform="translate(332.50173,332.50173)">
</g>
<g
   id="g48"
   transform="translate(332.50173,332.50173)">
</g>
<g
   id="g50"
   transform="translate(332.50173,332.50173)">
</g>
<g
   id="g52"
   transform="translate(332.50173,332.50173)">
</g>
<g
   id="g54"
   transform="translate(332.50173,332.50173)">
</g>
<g
   id="g56"
   transform="translate(332.50173,332.50173)">
</g>
<g
   id="g58"
   transform="translate(332.50173,332.50173)">
</g>
</svg>
