<svg xml:space="preserve" width="562.126" height="563.43" xmlns="http://www.w3.org/2000/svg"><path style="fill:#2d5db9;fill-opacity:1;stroke-width:.6;paint-order:markers stroke fill" d="M-18.937-18.285h600v600h-600z"/><path style="fill:#ffdc64;stroke-width:1" d="M446.332 257.338H351.21v221.95h95.122a7.927 7.927 0 0 0 7.926-7.927V265.265a7.926 7.926 0 0 0-7.926-7.927z" transform="translate(1.192 .598)"/><path style="fill:#5b5d6e;stroke-width:1" d="M390.844 257.338h31.707v221.949h-31.707z" transform="translate(1.192 .598)"/><path style="fill:#ffc850;stroke-width:1" d="M359.138 257.338h31.707v221.949h-31.707z" transform="translate(1.192 .598)"/><path style="fill:#5b5d6e;stroke-width:1" d="M327.43 510.995H137.187c-17.511 0-31.707-14.196-31.707-31.707V146.364c0-17.512 14.196-31.708 31.707-31.708H327.43c17.512 0 31.708 14.196 31.708 31.708v332.924c0 17.511-14.196 31.707-31.708 31.707z" transform="translate(1.192 .598)"/><path style="fill:#464655;stroke-width:1" d="M145.115 479.288V146.364c0-17.512 14.196-31.708 31.707-31.708h-39.634c-17.511 0-31.707 14.196-31.707 31.708v332.924c0 17.511 14.196 31.707 31.707 31.707h39.634c-17.511 0-31.707-14.196-31.707-31.707z" transform="translate(1.192 .598)"/><g style="stroke-width:1.07877"><path style="fill:#c7cfe2;stroke-width:1.16374" d="M208.969 332.961h-8.551c-9.446 0-17.102-7.656-17.102-17.102 0-9.446 7.656-17.102 17.102-17.102h8.551c9.446 0 17.102 7.656 17.102 17.102 0 9.445-7.656 17.102-17.102 17.102zm0 68.409h-8.551c-9.446 0-17.102-7.656-17.102-17.102 0-9.446 7.656-17.102 17.102-17.102h8.551c9.446 0 17.102 7.656 17.102 17.102 0 9.445-7.656 17.102-17.102 17.102z" transform="translate(43.754 44.408) scale(.92698)"/></g><path style="fill:#ffdc64;stroke-width:1" d="M236.273 479.288h-7.927c-8.756 0-15.853-7.097-15.853-15.853 0-8.757 7.097-15.854 15.853-15.854h7.927c8.756 0 15.853 7.097 15.853 15.854 0 8.755-7.097 15.853-15.853 15.853z" transform="translate(1.192 .598)"/><g style="stroke-width:1.07877"><path style="fill:#c7cfe2;stroke-width:1.16374" d="M285.929 332.961h-8.551c-9.446 0-17.102-7.656-17.102-17.102 0-9.446 7.656-17.102 17.102-17.102h8.551c9.446 0 17.102 7.656 17.102 17.102 0 9.445-7.656 17.102-17.102 17.102zm0 68.409h-8.551c-9.446 0-17.102-7.656-17.102-17.102 0-9.446 7.656-17.102 17.102-17.102h8.551c9.446 0 17.102 7.656 17.102 17.102 0 9.445-7.656 17.102-17.102 17.102z" transform="translate(43.754 44.408) scale(.92698)"/></g><path style="fill:#c8ff82;stroke-width:1" d="M307.613 479.288h-7.926c-8.757 0-15.854-7.097-15.854-15.853 0-8.757 7.097-15.854 15.854-15.854h7.926c8.757 0 15.854 7.097 15.854 15.854 0 8.755-7.097 15.853-15.854 15.853z" transform="translate(1.192 .598)"/><g style="stroke-width:1.07877"><path style="fill:#c7cfe2;stroke-width:1.16374" d="M132.008 332.961h-8.551c-9.446 0-17.102-7.656-17.102-17.102 0-9.446 7.656-17.102 17.102-17.102h8.551c9.446 0 17.102 7.656 17.102 17.102.001 9.445-7.656 17.102-17.102 17.102zm0 68.409h-8.551c-9.446 0-17.102-7.656-17.102-17.102 0-9.446 7.656-17.102 17.102-17.102h8.551c9.446 0 17.102 7.656 17.102 17.102.001 9.445-7.656 17.102-17.102 17.102z" transform="translate(43.754 44.408) scale(.92698)"/></g><path style="fill:#ff507d;stroke-width:1" d="M164.931 479.288h-7.927c-8.756 0-15.853-7.097-15.853-15.853 0-8.757 7.097-15.854 15.853-15.854h7.927c8.756 0 15.853 7.097 15.853 15.854.001 8.755-7.097 15.853-15.853 15.853z" transform="translate(1.192 .598)"/><path style="fill:#b4e66e;stroke-width:1" d="M319.504 201.851h-174.39a7.927 7.927 0 0 0-7.926 7.927v71.34a7.927 7.927 0 0 0 7.927 7.927h174.389a7.927 7.927 0 0 0 7.926-7.927v-71.34a7.927 7.927 0 0 0-7.926-7.927z" transform="translate(1.192 .598)"/><path style="fill:#e4eaf8;stroke-width:1.07877" transform="translate(43.754 44.408) scale(.92698)" d="M110.631 8.017v128.267h188.125V8.017l-23.516 8.551-23.515-8.551-23.516 8.551-23.516-8.551-23.515 8.551-23.516-8.551-23.516 8.551z"/><g style="stroke-width:1.07877"><path style="fill:#c8ff82;stroke-width:1.16374" d="M151.226 238.898h48.89a8.553 8.553 0 0 0 7.115-3.807l22.42-33.631c1.516-2.274-.114-5.318-2.846-5.318h-48.89a8.553 8.553 0 0 0-7.115 3.807l-22.42 33.631c-1.515 2.274.114 5.318 2.846 5.318zm76.96 0h14.686a8.553 8.553 0 0 0 7.115-3.807l22.42-33.631c1.516-2.274-.114-5.318-2.846-5.318h-14.686a8.553 8.553 0 0 0-7.115 3.807l-22.42 33.631c-1.515 2.274.114 5.318 2.846 5.318z" transform="translate(43.754 44.408) scale(.92698)"/></g><path d="M256.089 145.868h31.708a7.432 7.432 0 0 0 0-14.864H256.09a7.432 7.432 0 0 0 0 14.864zm-79.268 0h47.561a7.432 7.432 0 0 0 0-14.864h-47.56a7.432 7.432 0 0 0 0 14.864zm95.12-31.707h15.855a7.432 7.432 0 0 0 0-14.863h-15.855a7.432 7.432 0 0 0 0 14.863zm-47.555 0h15.849a7.432 7.432 0 0 0 0-14.863h-15.85a7.432 7.432 0 0 0 0 14.863zm-47.565 0h15.855a7.432 7.432 0 0 0 0-14.863H176.82a7.432 7.432 0 0 0 0 14.863z" style="stroke-width:1" transform="translate(1.192 .598)"/><path d="M446.332 249.907h-79.764V146.364c0-21.581-17.558-39.139-39.138-39.139h-.495V51.242a7.432 7.432 0 0 0-9.97-6.983l-19.26 7.003-19.26-7.004a7.436 7.436 0 0 0-5.078 0l-19.26 7.004-19.258-7.004a7.436 7.436 0 0 0-5.08 0l-19.258 7.004-19.26-7.004a7.436 7.436 0 0 0-5.078 0l-19.26 7.004-19.26-7.004a7.433 7.433 0 0 0-9.97 6.983v55.983h-.495c-21.58 0-39.138 17.558-39.138 39.138v332.924c0 21.58 17.558 39.138 39.138 39.138h190.243c19.04 0 34.94-13.668 38.423-31.707h80.48c8.468 0 15.358-6.89 15.358-15.359V265.262c-.002-8.466-6.891-15.355-15.36-15.355zm-62.92 14.862v207.087h-16.844V264.77ZM152.547 61.852l11.827 4.3c1.64.597 3.44.597 5.079 0l19.259-7.003 19.259 7.004c1.64.596 3.44.596 5.079 0l19.259-7.004 19.259 7.004a7.437 7.437 0 0 0 5.079 0l19.259-7.004 19.259 7.004a7.437 7.437 0 0 0 5.079 0l11.827-4.3v100.86H152.546ZM327.43 503.564H137.187c-13.385 0-24.275-10.89-24.275-24.276V146.364c0-13.386 10.89-24.276 24.275-24.276h.495v40.625h-.495a7.432 7.432 0 0 0 0 14.863H327.43a7.432 7.432 0 0 0 0-14.863h-.495v-40.625h.495c13.386 0 24.276 10.89 24.276 24.276v332.924c0 13.385-10.89 24.276-24.276 24.276zm119.398-32.203a.495.495 0 0 1-.495.495h-16.35V320.751a7.431 7.431 0 0 0-7.431-7.431 7.431 7.431 0 0 0-7.432 7.431v151.105h-16.844V264.77h16.844v24.273a7.432 7.432 0 0 0 14.863 0V264.77h16.35c.273 0 .495.223.495.495z" style="stroke-width:1" transform="translate(1.192 .598)"/><path d="M236.273 313.32h-7.927c-12.84 0-23.285 10.446-23.285 23.286 0 12.84 10.445 23.285 23.285 23.285h7.927c12.84 0 23.285-10.446 23.285-23.285 0-12.84-10.446-23.285-23.285-23.285zm0 31.708h-7.927c-4.644 0-8.423-3.778-8.423-8.422 0-4.645 3.779-8.423 8.423-8.423h7.927c4.644 0 8.422 3.778 8.422 8.423 0 4.644-3.778 8.422-8.422 8.422zm0 31.707h-7.927c-12.84 0-23.285 10.445-23.285 23.285s10.445 23.285 23.285 23.285h7.927c12.84 0 23.285-10.446 23.285-23.285 0-12.84-10.446-23.285-23.285-23.285zm0 31.707h-7.927c-4.644 0-8.423-3.778-8.423-8.422 0-4.645 3.779-8.423 8.423-8.423h7.927c4.644 0 8.422 3.778 8.422 8.423 0 4.644-3.778 8.422-8.422 8.422zm0 31.708h-7.927c-12.84 0-23.285 10.445-23.285 23.285s10.445 23.284 23.285 23.284h7.927c12.84 0 23.285-10.445 23.285-23.284 0-12.84-10.446-23.285-23.285-23.285zm0 31.706h-7.927c-4.644 0-8.423-3.778-8.423-8.422 0-4.645 3.779-8.423 8.423-8.423h7.927c4.644 0 8.422 3.778 8.422 8.423 0 4.644-3.778 8.422-8.422 8.422zm71.34-158.536h-7.926c-12.84 0-23.285 10.446-23.285 23.286 0 12.84 10.445 23.285 23.285 23.285h7.926c12.84 0 23.285-10.446 23.285-23.285 0-12.84-10.445-23.285-23.285-23.285zm0 31.708h-7.926c-4.645 0-8.423-3.778-8.423-8.422 0-4.645 3.778-8.423 8.423-8.423h7.926c4.644 0 8.423 3.778 8.423 8.423 0 4.644-3.779 8.422-8.423 8.422zm0 31.707h-7.926c-12.84 0-23.285 10.445-23.285 23.285s10.445 23.285 23.285 23.285h7.926c12.84 0 23.285-10.446 23.285-23.285 0-12.84-10.445-23.285-23.285-23.285zm0 31.707h-7.926c-4.645 0-8.423-3.778-8.423-8.422 0-4.645 3.778-8.423 8.423-8.423h7.926c4.644 0 8.423 3.778 8.423 8.423 0 4.644-3.779 8.422-8.423 8.422zm0 31.708h-7.926c-12.84 0-23.285 10.445-23.285 23.285s10.445 23.284 23.285 23.284h7.926c12.84 0 23.285-10.445 23.285-23.284 0-12.84-10.445-23.285-23.285-23.285zm0 31.706h-7.926c-4.645 0-8.423-3.778-8.423-8.422 0-4.645 3.778-8.423 8.423-8.423h7.926c4.644 0 8.423 3.778 8.423 8.423 0 4.644-3.779 8.422-8.423 8.422zM164.931 313.32h-7.927c-12.84 0-23.284 10.446-23.284 23.286 0 12.84 10.445 23.285 23.284 23.285h7.927c12.84 0 23.285-10.446 23.285-23.285 0-12.84-10.445-23.285-23.285-23.285zm0 31.708h-7.927c-4.644 0-8.422-3.778-8.422-8.422 0-4.645 3.778-8.423 8.422-8.423h7.927c4.644 0 8.423 3.778 8.423 8.423 0 4.644-3.779 8.422-8.423 8.422zm0 31.707h-7.927c-12.84 0-23.284 10.445-23.284 23.285s10.445 23.285 23.284 23.285h7.927c12.84 0 23.285-10.446 23.285-23.285 0-12.84-10.445-23.285-23.285-23.285zm0 31.707h-7.927c-4.644 0-8.422-3.778-8.422-8.422 0-4.645 3.778-8.423 8.422-8.423h7.927c4.644 0 8.423 3.778 8.423 8.423 0 4.644-3.779 8.422-8.423 8.422zm0 31.708h-7.927c-12.84 0-23.284 10.445-23.284 23.285s10.445 23.284 23.284 23.284h7.927c12.84 0 23.285-10.445 23.285-23.284 0-12.84-10.445-23.285-23.285-23.285zm0 31.706h-7.927c-4.644 0-8.422-3.778-8.422-8.422 0-4.645 3.778-8.423 8.422-8.423h7.927c4.644 0 8.423 3.778 8.423 8.423 0 4.644-3.779 8.422-8.423 8.422zM319.504 194.42h-174.39c-8.468 0-15.357 6.889-15.357 15.358v71.34c0 8.47 6.889 15.359 15.358 15.359h174.389c8.469 0 15.358-6.89 15.358-15.359v-71.34c0-8.47-6.89-15.359-15.358-15.359zm.495 86.698a.496.496 0 0 1-.495.495h-174.39a.496.496 0 0 1-.494-.495v-71.34c0-.273.221-.495.495-.495h174.389c.273 0 .495.223.495.495z" style="stroke-width:1" transform="translate(1.192 .598)"/></svg>